%TF.GenerationSoftware,KiCad,Pcbnew,(5.1.9-0-10_14)*%
%TF.CreationDate,2021-05-13T13:43:04-04:00*%
%TF.ProjectId,SiPM_Board_RevC,5369504d-5f42-46f6-9172-645f52657643,rev?*%
%TF.SameCoordinates,Original*%
%TF.FileFunction,Copper,L1,Top*%
%TF.FilePolarity,Positive*%
%FSLAX46Y46*%
G04 Gerber Fmt 4.6, Leading zero omitted, Abs format (unit mm)*
G04 Created by KiCad (PCBNEW (5.1.9-0-10_14)) date 2021-05-13 13:43:04*
%MOMM*%
%LPD*%
G01*
G04 APERTURE LIST*
%TA.AperFunction,SMDPad,CuDef*%
%ADD10C,1.000000*%
%TD*%
%TA.AperFunction,ViaPad*%
%ADD11C,0.635000*%
%TD*%
%TA.AperFunction,Conductor*%
%ADD12C,0.294640*%
%TD*%
G04 APERTURE END LIST*
D10*
%TO.P,U4,A4*%
%TO.N,Net-(J2-Pad59)*%
X151950000Y-85750000D03*
%TO.P,U4,A2*%
%TO.N,Net-(J2-Pad67)*%
X151950000Y-79550000D03*
%TO.P,U4,B3*%
%TO.N,/BIAS3*%
X155050000Y-82650000D03*
%TO.P,U4,B1*%
X155050000Y-76450000D03*
%TO.P,U4,C4*%
%TO.N,Net-(J2-Pad57)*%
X158150000Y-85750000D03*
%TO.P,U4,D3*%
%TO.N,/BIAS3*%
X161250000Y-82650000D03*
%TO.P,U4,C2*%
%TO.N,Net-(J2-Pad65)*%
X158150000Y-79550000D03*
%TO.P,U4,D1*%
%TO.N,/BIAS3*%
X161250000Y-76450000D03*
%TO.P,U4,H2*%
X173650000Y-79550000D03*
%TO.P,U4,G1*%
%TO.N,Net-(J2-Pad61)*%
X170550000Y-76450000D03*
%TO.P,U4,F2*%
%TO.N,/BIAS3*%
X167450000Y-79550000D03*
%TO.P,U4,E1*%
%TO.N,Net-(J2-Pad63)*%
X164350000Y-76450000D03*
%TO.P,U4,H4*%
%TO.N,/BIAS3*%
X173650000Y-85750000D03*
%TO.P,U4,G3*%
%TO.N,Net-(J2-Pad53)*%
X170550000Y-82650000D03*
%TO.P,U4,F4*%
%TO.N,/BIAS3*%
X167450000Y-85750000D03*
%TO.P,U4,E3*%
%TO.N,Net-(J2-Pad55)*%
X164350000Y-82650000D03*
%TO.P,U4,F8*%
%TO.N,/BIAS3*%
X167450000Y-98150000D03*
%TO.P,U4,H8*%
X173650000Y-98150000D03*
%TO.P,U4,G7*%
%TO.N,Net-(J2-Pad37)*%
X170550000Y-95050000D03*
%TO.P,U4,E7*%
%TO.N,Net-(J2-Pad39)*%
X164350000Y-95050000D03*
%TO.P,U4,H6*%
%TO.N,/BIAS3*%
X173650000Y-91950000D03*
%TO.P,U4,G5*%
%TO.N,Net-(J2-Pad45)*%
X170550000Y-88850000D03*
%TO.P,U4,F6*%
%TO.N,/BIAS3*%
X167450000Y-91950000D03*
%TO.P,U4,E5*%
%TO.N,Net-(J2-Pad47)*%
X164350000Y-88850000D03*
%TO.P,U4,A8*%
%TO.N,Net-(J2-Pad43)*%
X151950000Y-98150000D03*
%TO.P,U4,A6*%
%TO.N,Net-(J2-Pad51)*%
X151950000Y-91950000D03*
%TO.P,U4,B5*%
%TO.N,/BIAS3*%
X155050000Y-88850000D03*
%TO.P,U4,C8*%
%TO.N,Net-(J2-Pad41)*%
X158150000Y-98150000D03*
%TO.P,U4,B7*%
%TO.N,/BIAS3*%
X155050000Y-95050000D03*
%TO.P,U4,D7*%
X161250000Y-95050000D03*
%TO.P,U4,C6*%
%TO.N,Net-(J2-Pad49)*%
X158150000Y-91950000D03*
%TO.P,U4,D5*%
%TO.N,/BIAS3*%
X161250000Y-88850000D03*
%TD*%
%TO.P,U5,D5*%
%TO.N,/BIAS4*%
X161250000Y-114350000D03*
%TO.P,U5,C6*%
%TO.N,Net-(J2-Pad17)*%
X158150000Y-117450000D03*
%TO.P,U5,D7*%
%TO.N,/BIAS4*%
X161250000Y-120550000D03*
%TO.P,U5,B7*%
X155050000Y-120550000D03*
%TO.P,U5,C8*%
%TO.N,Net-(J2-Pad9)*%
X158150000Y-123650000D03*
%TO.P,U5,B5*%
%TO.N,/BIAS4*%
X155050000Y-114350000D03*
%TO.P,U5,A6*%
%TO.N,Net-(J2-Pad19)*%
X151950000Y-117450000D03*
%TO.P,U5,A8*%
%TO.N,Net-(J2-Pad11)*%
X151950000Y-123650000D03*
%TO.P,U5,E5*%
%TO.N,Net-(J2-Pad15)*%
X164350000Y-114350000D03*
%TO.P,U5,F6*%
%TO.N,/BIAS4*%
X167450000Y-117450000D03*
%TO.P,U5,G5*%
%TO.N,Net-(J2-Pad13)*%
X170550000Y-114350000D03*
%TO.P,U5,H6*%
%TO.N,/BIAS4*%
X173650000Y-117450000D03*
%TO.P,U5,E7*%
%TO.N,Net-(J2-Pad7)*%
X164350000Y-120550000D03*
%TO.P,U5,G7*%
%TO.N,Net-(J2-Pad5)*%
X170550000Y-120550000D03*
%TO.P,U5,H8*%
%TO.N,/BIAS4*%
X173650000Y-123650000D03*
%TO.P,U5,F8*%
X167450000Y-123650000D03*
%TO.P,U5,E3*%
%TO.N,Net-(J2-Pad23)*%
X164350000Y-108150000D03*
%TO.P,U5,F4*%
%TO.N,/BIAS4*%
X167450000Y-111250000D03*
%TO.P,U5,G3*%
%TO.N,Net-(J2-Pad21)*%
X170550000Y-108150000D03*
%TO.P,U5,H4*%
%TO.N,/BIAS4*%
X173650000Y-111250000D03*
%TO.P,U5,E1*%
%TO.N,Net-(J2-Pad31)*%
X164350000Y-101950000D03*
%TO.P,U5,F2*%
%TO.N,/BIAS4*%
X167450000Y-105050000D03*
%TO.P,U5,G1*%
%TO.N,Net-(J2-Pad29)*%
X170550000Y-101950000D03*
%TO.P,U5,H2*%
%TO.N,/BIAS4*%
X173650000Y-105050000D03*
%TO.P,U5,D1*%
X161250000Y-101950000D03*
%TO.P,U5,C2*%
%TO.N,Net-(J2-Pad33)*%
X158150000Y-105050000D03*
%TO.P,U5,D3*%
%TO.N,/BIAS4*%
X161250000Y-108150000D03*
%TO.P,U5,C4*%
%TO.N,Net-(J2-Pad25)*%
X158150000Y-111250000D03*
%TO.P,U5,B1*%
%TO.N,/BIAS4*%
X155050000Y-101950000D03*
%TO.P,U5,B3*%
X155050000Y-108150000D03*
%TO.P,U5,A2*%
%TO.N,Net-(J2-Pad35)*%
X151950000Y-105050000D03*
%TO.P,U5,A4*%
%TO.N,Net-(J2-Pad27)*%
X151950000Y-111250000D03*
%TD*%
%TO.P,U2,A4*%
%TO.N,Net-(J1-Pad9)*%
X126450000Y-85750000D03*
%TO.P,U2,A2*%
%TO.N,Net-(J1-Pad1)*%
X126450000Y-79550000D03*
%TO.P,U2,B3*%
%TO.N,/BIAS1*%
X129550000Y-82650000D03*
%TO.P,U2,B1*%
X129550000Y-76450000D03*
%TO.P,U2,C4*%
%TO.N,Net-(J1-Pad11)*%
X132650000Y-85750000D03*
%TO.P,U2,D3*%
%TO.N,/BIAS1*%
X135750000Y-82650000D03*
%TO.P,U2,C2*%
%TO.N,Net-(J1-Pad3)*%
X132650000Y-79550000D03*
%TO.P,U2,D1*%
%TO.N,/BIAS1*%
X135750000Y-76450000D03*
%TO.P,U2,H2*%
X148150000Y-79550000D03*
%TO.P,U2,G1*%
%TO.N,Net-(J1-Pad7)*%
X145050000Y-76450000D03*
%TO.P,U2,F2*%
%TO.N,/BIAS1*%
X141950000Y-79550000D03*
%TO.P,U2,E1*%
%TO.N,Net-(J1-Pad5)*%
X138850000Y-76450000D03*
%TO.P,U2,H4*%
%TO.N,/BIAS1*%
X148150000Y-85750000D03*
%TO.P,U2,G3*%
%TO.N,Net-(J1-Pad15)*%
X145050000Y-82650000D03*
%TO.P,U2,F4*%
%TO.N,/BIAS1*%
X141950000Y-85750000D03*
%TO.P,U2,E3*%
%TO.N,Net-(J1-Pad13)*%
X138850000Y-82650000D03*
%TO.P,U2,F8*%
%TO.N,/BIAS1*%
X141950000Y-98150000D03*
%TO.P,U2,H8*%
X148150000Y-98150000D03*
%TO.P,U2,G7*%
%TO.N,Net-(J1-Pad31)*%
X145050000Y-95050000D03*
%TO.P,U2,E7*%
%TO.N,Net-(J1-Pad29)*%
X138850000Y-95050000D03*
%TO.P,U2,H6*%
%TO.N,/BIAS1*%
X148150000Y-91950000D03*
%TO.P,U2,G5*%
%TO.N,Net-(J1-Pad23)*%
X145050000Y-88850000D03*
%TO.P,U2,F6*%
%TO.N,/BIAS1*%
X141950000Y-91950000D03*
%TO.P,U2,E5*%
%TO.N,Net-(J1-Pad21)*%
X138850000Y-88850000D03*
%TO.P,U2,A8*%
%TO.N,Net-(J1-Pad25)*%
X126450000Y-98150000D03*
%TO.P,U2,A6*%
%TO.N,Net-(J1-Pad17)*%
X126450000Y-91950000D03*
%TO.P,U2,B5*%
%TO.N,/BIAS1*%
X129550000Y-88850000D03*
%TO.P,U2,C8*%
%TO.N,Net-(J1-Pad27)*%
X132650000Y-98150000D03*
%TO.P,U2,B7*%
%TO.N,/BIAS1*%
X129550000Y-95050000D03*
%TO.P,U2,D7*%
X135750000Y-95050000D03*
%TO.P,U2,C6*%
%TO.N,Net-(J1-Pad19)*%
X132650000Y-91950000D03*
%TO.P,U2,D5*%
%TO.N,/BIAS1*%
X135750000Y-88850000D03*
%TD*%
%TO.P,U3,D5*%
%TO.N,/BIAS2*%
X135750000Y-114350000D03*
%TO.P,U3,C6*%
%TO.N,Net-(J1-Pad51)*%
X132650000Y-117450000D03*
%TO.P,U3,D7*%
%TO.N,/BIAS2*%
X135750000Y-120550000D03*
%TO.P,U3,B7*%
X129550000Y-120550000D03*
%TO.P,U3,C8*%
%TO.N,Net-(J1-Pad59)*%
X132650000Y-123650000D03*
%TO.P,U3,B5*%
%TO.N,/BIAS2*%
X129550000Y-114350000D03*
%TO.P,U3,A6*%
%TO.N,Net-(J1-Pad49)*%
X126450000Y-117450000D03*
%TO.P,U3,A8*%
%TO.N,Net-(J1-Pad57)*%
X126450000Y-123650000D03*
%TO.P,U3,E5*%
%TO.N,Net-(J1-Pad53)*%
X138850000Y-114350000D03*
%TO.P,U3,F6*%
%TO.N,/BIAS2*%
X141950000Y-117450000D03*
%TO.P,U3,G5*%
%TO.N,Net-(J1-Pad55)*%
X145050000Y-114350000D03*
%TO.P,U3,H6*%
%TO.N,/BIAS2*%
X148150000Y-117450000D03*
%TO.P,U3,E7*%
%TO.N,Net-(J1-Pad61)*%
X138850000Y-120550000D03*
%TO.P,U3,G7*%
%TO.N,Net-(J1-Pad63)*%
X145050000Y-120550000D03*
%TO.P,U3,H8*%
%TO.N,/BIAS2*%
X148150000Y-123650000D03*
%TO.P,U3,F8*%
X141950000Y-123650000D03*
%TO.P,U3,E3*%
%TO.N,Net-(J1-Pad45)*%
X138850000Y-108150000D03*
%TO.P,U3,F4*%
%TO.N,/BIAS2*%
X141950000Y-111250000D03*
%TO.P,U3,G3*%
%TO.N,Net-(J1-Pad47)*%
X145050000Y-108150000D03*
%TO.P,U3,H4*%
%TO.N,/BIAS2*%
X148150000Y-111250000D03*
%TO.P,U3,E1*%
%TO.N,Net-(J1-Pad37)*%
X138850000Y-101950000D03*
%TO.P,U3,F2*%
%TO.N,/BIAS2*%
X141950000Y-105050000D03*
%TO.P,U3,G1*%
%TO.N,Net-(J1-Pad39)*%
X145050000Y-101950000D03*
%TO.P,U3,H2*%
%TO.N,/BIAS2*%
X148150000Y-105050000D03*
%TO.P,U3,D1*%
X135750000Y-101950000D03*
%TO.P,U3,C2*%
%TO.N,Net-(J1-Pad35)*%
X132650000Y-105050000D03*
%TO.P,U3,D3*%
%TO.N,/BIAS2*%
X135750000Y-108150000D03*
%TO.P,U3,C4*%
%TO.N,Net-(J1-Pad43)*%
X132650000Y-111250000D03*
%TO.P,U3,B1*%
%TO.N,/BIAS2*%
X129550000Y-101950000D03*
%TO.P,U3,B3*%
X129550000Y-108150000D03*
%TO.P,U3,A2*%
%TO.N,Net-(J1-Pad33)*%
X126450000Y-105050000D03*
%TO.P,U3,A4*%
%TO.N,Net-(J1-Pad41)*%
X126450000Y-111250000D03*
%TD*%
D11*
%TO.N,GND*%
X133707308Y-111522692D03*
X133707308Y-103522692D03*
X133707308Y-101522692D03*
X133707308Y-87522692D03*
X133707308Y-115522692D03*
X133707308Y-113522692D03*
X133707308Y-107522692D03*
X133707308Y-105522692D03*
X133707308Y-109522692D03*
X133827308Y-95432692D03*
X133707308Y-85522692D03*
X133707308Y-93522692D03*
X133707308Y-91522692D03*
X133707308Y-89522692D03*
X133707308Y-99522692D03*
X133707308Y-97522692D03*
X152860000Y-100000000D03*
X150000000Y-105400000D03*
X147935320Y-99344680D03*
X131060000Y-89460000D03*
X132152500Y-94552500D03*
X143870000Y-89430000D03*
X143870000Y-95770000D03*
X132300000Y-112900000D03*
X131060000Y-108240000D03*
X145400000Y-106700000D03*
X143820000Y-114680000D03*
X156347500Y-95652500D03*
X156310000Y-89390000D03*
X168940000Y-95740000D03*
X156310000Y-108290000D03*
X168940000Y-114640000D03*
X166292692Y-84477308D03*
X166292692Y-86477308D03*
X166292692Y-88477308D03*
X166292692Y-90477308D03*
X166292692Y-92477308D03*
X166292692Y-94477308D03*
X166292692Y-96477308D03*
X166292692Y-98477308D03*
X168940000Y-89560000D03*
X166292692Y-100477308D03*
X166292692Y-102477308D03*
X166292692Y-104477308D03*
X166292692Y-106477308D03*
X166292692Y-108477308D03*
X166292692Y-110477308D03*
X166292692Y-112477308D03*
X166292692Y-114477308D03*
X156310000Y-115500000D03*
X168940000Y-108260000D03*
%TO.N,/BIAS1*%
X133762700Y-83502700D03*
X128450000Y-76450000D03*
X128450000Y-82650000D03*
X128450000Y-88850000D03*
X128450000Y-95050000D03*
X134650000Y-76450000D03*
X134850000Y-81750000D03*
X137400000Y-89700000D03*
X137400000Y-94500000D03*
X141950000Y-78450000D03*
X141950000Y-84650000D03*
X141950000Y-90850000D03*
X143050000Y-98150000D03*
X147050000Y-79550000D03*
X147050000Y-85750000D03*
X147050000Y-91950000D03*
X147050000Y-98150000D03*
X131060000Y-85340000D03*
X131060000Y-91760000D03*
X144300000Y-85200000D03*
X143870000Y-91300000D03*
%TO.N,/BIAS2*%
X133757366Y-116502634D03*
X128450000Y-101950000D03*
X128450000Y-108150000D03*
X128450000Y-120550000D03*
X128450000Y-114350000D03*
X137400000Y-102500000D03*
X137400000Y-107000000D03*
X135750000Y-119350000D03*
X135100000Y-117400000D03*
X141950000Y-106150000D03*
X141950000Y-112350000D03*
X140850000Y-117450000D03*
X140850000Y-123650000D03*
X147050000Y-123650000D03*
X147050000Y-117450000D03*
X147050000Y-111250000D03*
X147050000Y-105050000D03*
X131060000Y-110540000D03*
X131060000Y-104360000D03*
X143870000Y-104230000D03*
X143820000Y-110320000D03*
%TO.N,Net-(J1-Pad63)*%
X141000000Y-114500000D03*
%TO.N,Net-(J1-Pad61)*%
X141000000Y-113500000D03*
%TO.N,Net-(J1-Pad59)*%
X137400000Y-113000000D03*
%TO.N,Net-(J1-Pad57)*%
X137400000Y-111800000D03*
%TO.N,Net-(J1-Pad55)*%
X140800000Y-110500000D03*
%TO.N,Net-(J1-Pad53)*%
X140800000Y-109500000D03*
%TO.N,Net-(J1-Pad51)*%
X137402650Y-109002650D03*
%TO.N,Net-(J1-Pad49)*%
X137400000Y-108000000D03*
%TO.N,Net-(J1-Pad47)*%
X140800000Y-106500000D03*
%TO.N,Net-(J1-Pad45)*%
X137400000Y-106100000D03*
%TO.N,Net-(J1-Pad43)*%
X137400000Y-104500000D03*
%TO.N,Net-(J1-Pad41)*%
X137400000Y-103500000D03*
%TO.N,Net-(J1-Pad39)*%
X140800000Y-102500000D03*
%TO.N,Net-(J1-Pad37)*%
X137400000Y-101500000D03*
%TO.N,Net-(J1-Pad35)*%
X137400000Y-100500000D03*
%TO.N,Net-(J1-Pad33)*%
X137400000Y-99500000D03*
%TO.N,Net-(J1-Pad31)*%
X140800000Y-98500000D03*
%TO.N,Net-(J1-Pad29)*%
X137400000Y-97900000D03*
%TO.N,Net-(J1-Pad27)*%
X137400000Y-96900000D03*
%TO.N,Net-(J1-Pad25)*%
X137497324Y-95502676D03*
%TO.N,Net-(J1-Pad23)*%
X140800000Y-94500000D03*
%TO.N,Net-(J1-Pad21)*%
X137400000Y-93500000D03*
%TO.N,Net-(J1-Pad19)*%
X137400000Y-92500000D03*
%TO.N,Net-(J1-Pad17)*%
X137400000Y-91500000D03*
%TO.N,Net-(J1-Pad15)*%
X140800000Y-90500000D03*
%TO.N,Net-(J1-Pad13)*%
X140800000Y-89500000D03*
%TO.N,Net-(J1-Pad11)*%
X137402690Y-88502690D03*
%TO.N,Net-(J1-Pad9)*%
X137400000Y-87500000D03*
%TO.N,Net-(J1-Pad7)*%
X140800000Y-86500000D03*
%TO.N,Net-(J1-Pad5)*%
X140800000Y-85500000D03*
%TO.N,Net-(J1-Pad3)*%
X137400000Y-84500000D03*
%TO.N,Net-(J1-Pad1)*%
X137400000Y-83500000D03*
%TO.N,Net-(J2-Pad65)*%
X159000000Y-84500000D03*
%TO.N,Net-(J2-Pad63)*%
X162600000Y-83300000D03*
%TO.N,Net-(J2-Pad61)*%
X162600000Y-86483936D03*
%TO.N,Net-(J2-Pad59)*%
X159000000Y-87500000D03*
%TO.N,Net-(J2-Pad57)*%
X159000000Y-88500000D03*
%TO.N,Net-(J2-Pad55)*%
X162600000Y-87900000D03*
%TO.N,Net-(J2-Pad53)*%
X162600000Y-90500000D03*
%TO.N,Net-(J2-Pad51)*%
X159202650Y-91497350D03*
%TO.N,Net-(J2-Pad49)*%
X159202652Y-92497348D03*
%TO.N,Net-(J2-Pad47)*%
X162600000Y-92200000D03*
%TO.N,Net-(J2-Pad45)*%
X162600000Y-94500000D03*
%TO.N,Net-(J2-Pad43)*%
X159000000Y-95500000D03*
%TO.N,Net-(J2-Pad41)*%
X159002660Y-96497340D03*
%TO.N,Net-(J2-Pad39)*%
X162600000Y-96100000D03*
%TO.N,Net-(J2-Pad37)*%
X162497336Y-98497336D03*
%TO.N,Net-(J2-Pad35)*%
X159002666Y-99497334D03*
%TO.N,Net-(J2-Pad33)*%
X159002668Y-100497332D03*
%TO.N,Net-(J2-Pad31)*%
X162600000Y-101500000D03*
%TO.N,Net-(J2-Pad29)*%
X162600000Y-102500000D03*
%TO.N,Net-(J2-Pad27)*%
X159002674Y-103497326D03*
%TO.N,Net-(J2-Pad25)*%
X162500000Y-104500000D03*
%TO.N,Net-(J2-Pad23)*%
X162500000Y-105500000D03*
%TO.N,Net-(J2-Pad21)*%
X162497320Y-106497320D03*
%TO.N,Net-(J2-Pad19)*%
X158700000Y-107900000D03*
%TO.N,Net-(J2-Pad17)*%
X158100000Y-116200000D03*
%TO.N,Net-(J2-Pad15)*%
X162600000Y-111500000D03*
%TO.N,Net-(J2-Pad13)*%
X159302688Y-110497312D03*
%TO.N,Net-(J2-Pad11)*%
X159200000Y-111600000D03*
%TO.N,Net-(J2-Pad9)*%
X159100000Y-112700000D03*
%TO.N,Net-(J2-Pad7)*%
X162600000Y-120500000D03*
%TO.N,Net-(J2-Pad5)*%
X159000000Y-114500000D03*
%TO.N,/BIAS3*%
X153950000Y-76450000D03*
X153950000Y-82650000D03*
X153950000Y-88850000D03*
X160150000Y-76450000D03*
X160400000Y-81800000D03*
X167450000Y-78450000D03*
X168550000Y-98150000D03*
X172550000Y-79550000D03*
X172550000Y-85750000D03*
X172550000Y-91950000D03*
X172550000Y-98150000D03*
X156310000Y-91710000D03*
X156310000Y-85410000D03*
X168940000Y-91660000D03*
X153950000Y-95050000D03*
X167450000Y-90850000D03*
X167450000Y-86850000D03*
X159000000Y-89700000D03*
X159000000Y-94500000D03*
X168940000Y-85460000D03*
%TO.N,/BIAS4*%
X153950000Y-101950000D03*
X153950000Y-108150000D03*
X153950000Y-120550000D03*
X161250000Y-119450000D03*
X167450000Y-106150000D03*
X167450000Y-112350000D03*
X166350000Y-117450000D03*
X166350000Y-123650000D03*
X172550000Y-123650000D03*
X172550000Y-117450000D03*
X172550000Y-111250000D03*
X172550000Y-105050000D03*
X156310000Y-104310000D03*
X168940000Y-110540000D03*
X168940000Y-104060000D03*
X154300000Y-115100000D03*
X162600000Y-100500000D03*
X162600000Y-108700000D03*
X162600000Y-112700000D03*
X159500000Y-117500000D03*
X166800000Y-116000000D03*
X156310000Y-110410000D03*
%TO.N,Net-(J2-Pad67)*%
X159000000Y-83500000D03*
%TD*%
D12*
%TO.N,/BIAS1*%
X129550000Y-76450000D02*
X128450000Y-76450000D01*
X128450000Y-76450000D02*
X128450000Y-76450000D01*
X128450000Y-82650000D02*
X128450000Y-82650000D01*
X129550000Y-82650000D02*
X128450000Y-82650000D01*
X129550000Y-88850000D02*
X128450000Y-88850000D01*
X128450000Y-88850000D02*
X128450000Y-88850000D01*
X128450000Y-95050000D02*
X128450000Y-95050000D01*
X129550000Y-95050000D02*
X128450000Y-95050000D01*
X135750000Y-76450000D02*
X134650000Y-76450000D01*
X134650000Y-76450000D02*
X134650000Y-76450000D01*
X135750000Y-82650000D02*
X134850000Y-81750000D01*
X135750000Y-88850000D02*
X136550000Y-88850000D01*
X136550000Y-88850000D02*
X137400000Y-89700000D01*
X137400000Y-89700000D02*
X137400000Y-89700000D01*
X135750000Y-95050000D02*
X136850000Y-95050000D01*
X136850000Y-95050000D02*
X137400000Y-94500000D01*
X137400000Y-94500000D02*
X137400000Y-94500000D01*
X141950000Y-79550000D02*
X141950000Y-78450000D01*
X141950000Y-78450000D02*
X141950000Y-78450000D01*
X141950000Y-85750000D02*
X141950000Y-84650000D01*
X141950000Y-84650000D02*
X141950000Y-84650000D01*
X141950000Y-90850000D02*
X141950000Y-90850000D01*
X141950000Y-91950000D02*
X141950000Y-90850000D01*
X141950000Y-98150000D02*
X143050000Y-98150000D01*
X143050000Y-98150000D02*
X143050000Y-98150000D01*
X148150000Y-79550000D02*
X147050000Y-79550000D01*
X147050000Y-79550000D02*
X147050000Y-79550000D01*
X148150000Y-85750000D02*
X147050000Y-85750000D01*
X147050000Y-85750000D02*
X147050000Y-85750000D01*
X147050000Y-91950000D02*
X147050000Y-91950000D01*
X148150000Y-91950000D02*
X147050000Y-91950000D01*
X147050000Y-98150000D02*
X147050000Y-98150000D01*
X148150000Y-98150000D02*
X147050000Y-98150000D01*
%TO.N,/BIAS2*%
X129550000Y-101950000D02*
X128450000Y-101950000D01*
X128450000Y-101950000D02*
X128450000Y-101950000D01*
X129550000Y-108150000D02*
X128450000Y-108150000D01*
X128450000Y-108150000D02*
X128450000Y-108150000D01*
X128450000Y-114350000D02*
X128450000Y-114350000D01*
X128450000Y-120550000D02*
X128450000Y-120550000D01*
X129550000Y-120550000D02*
X128450000Y-120550000D01*
X129550000Y-114350000D02*
X128450000Y-114350000D01*
X135750000Y-101950000D02*
X136850000Y-101950000D01*
X136850000Y-101950000D02*
X137400000Y-102500000D01*
X137400000Y-102500000D02*
X137400000Y-102500000D01*
X135750000Y-108150000D02*
X136900000Y-107000000D01*
X136900000Y-107000000D02*
X137400000Y-107000000D01*
X137400000Y-107000000D02*
X137400000Y-107000000D01*
X135750000Y-114510000D02*
X133757366Y-116502634D01*
X135750000Y-114350000D02*
X135750000Y-114510000D01*
X135750000Y-120550000D02*
X135750000Y-119350000D01*
X135750000Y-119350000D02*
X135750000Y-119350000D01*
X141950000Y-105050000D02*
X141950000Y-106150000D01*
X141950000Y-106150000D02*
X141950000Y-106150000D01*
X141950000Y-111250000D02*
X141950000Y-112350000D01*
X141950000Y-112350000D02*
X141950000Y-112350000D01*
X141950000Y-117450000D02*
X140850000Y-117450000D01*
X140850000Y-117450000D02*
X140850000Y-117450000D01*
X140850000Y-123650000D02*
X140850000Y-123650000D01*
X141950000Y-123650000D02*
X140850000Y-123650000D01*
X148150000Y-123650000D02*
X147050000Y-123650000D01*
X147050000Y-123650000D02*
X147050000Y-123650000D01*
X148150000Y-117450000D02*
X147050000Y-117450000D01*
X147050000Y-117450000D02*
X147050000Y-117450000D01*
X147050000Y-111250000D02*
X147050000Y-111250000D01*
X148150000Y-111250000D02*
X147050000Y-111250000D01*
X147050000Y-105050000D02*
X147050000Y-105050000D01*
X148150000Y-105050000D02*
X147050000Y-105050000D01*
%TO.N,Net-(J1-Pad63)*%
X145050000Y-118550000D02*
X141000000Y-114500000D01*
X145050000Y-120550000D02*
X145050000Y-118550000D01*
%TO.N,Net-(J1-Pad61)*%
X138850000Y-115650000D02*
X141000000Y-113500000D01*
X138850000Y-120550000D02*
X138850000Y-115650000D01*
%TO.N,Net-(J1-Pad59)*%
X133904036Y-123650000D02*
X137400000Y-120154036D01*
X132650000Y-123650000D02*
X133904036Y-123650000D01*
X137400000Y-120154036D02*
X137400000Y-113000000D01*
X137400000Y-113000000D02*
X137400000Y-113000000D01*
%TO.N,Net-(J1-Pad57)*%
X127704036Y-123650000D02*
X136600000Y-114754036D01*
X126450000Y-123650000D02*
X127704036Y-123650000D01*
X136600000Y-112600000D02*
X137400000Y-111800000D01*
X136600000Y-114754036D02*
X136600000Y-112600000D01*
%TO.N,Net-(J1-Pad55)*%
X145050000Y-114350000D02*
X145050000Y-112650000D01*
X141117499Y-110182501D02*
X140800000Y-110500000D01*
X142582501Y-110182501D02*
X141117499Y-110182501D01*
X145050000Y-112650000D02*
X142582501Y-110182501D01*
%TO.N,Net-(J1-Pad53)*%
X138850000Y-114350000D02*
X138850000Y-110150000D01*
X138850000Y-110150000D02*
X139500000Y-109500000D01*
X139500000Y-109500000D02*
X140800000Y-109500000D01*
X140800000Y-109500000D02*
X140800000Y-109500000D01*
%TO.N,Net-(J1-Pad51)*%
X132650000Y-115563936D02*
X132650000Y-117450000D01*
X137402650Y-109002650D02*
X137402650Y-110811286D01*
X137402650Y-110811286D02*
X132650000Y-115563936D01*
%TO.N,Net-(J1-Pad49)*%
X128763936Y-117450000D02*
X126450000Y-117450000D01*
X136600000Y-109613936D02*
X128763936Y-117450000D01*
X136600000Y-108821364D02*
X137400000Y-108021364D01*
X136600000Y-109000000D02*
X136600000Y-108821364D01*
X137400000Y-108021364D02*
X137400000Y-108000000D01*
X136600000Y-109000000D02*
X136600000Y-109613936D01*
%TO.N,Net-(J1-Pad47)*%
X145050000Y-108150000D02*
X142450000Y-108150000D01*
X142450000Y-108150000D02*
X140800000Y-106500000D01*
X140800000Y-106500000D02*
X140800000Y-106500000D01*
%TO.N,Net-(J1-Pad45)*%
X137507106Y-106100000D02*
X137400000Y-106100000D01*
X138850000Y-107442894D02*
X137507106Y-106100000D01*
X138850000Y-108150000D02*
X138850000Y-107442894D01*
%TO.N,Net-(J1-Pad43)*%
X132650000Y-109563936D02*
X137400000Y-104813936D01*
X132650000Y-111250000D02*
X132650000Y-109563936D01*
X137400000Y-104813936D02*
X137400000Y-104500000D01*
X137400000Y-104500000D02*
X137400000Y-104500000D01*
%TO.N,Net-(J1-Pad41)*%
X128996064Y-111250000D02*
X136746064Y-103500000D01*
X126450000Y-111250000D02*
X128996064Y-111250000D01*
X136746064Y-103500000D02*
X137400000Y-103500000D01*
X137400000Y-103500000D02*
X137400000Y-103500000D01*
%TO.N,Net-(J1-Pad39)*%
X141350000Y-101950000D02*
X140800000Y-102500000D01*
X145050000Y-101950000D02*
X141350000Y-101950000D01*
%TO.N,Net-(J1-Pad37)*%
X137850000Y-101950000D02*
X137400000Y-101500000D01*
X138850000Y-101950000D02*
X137850000Y-101950000D01*
%TO.N,Net-(J1-Pad35)*%
X135428565Y-100817499D02*
X137082501Y-100817499D01*
X132650000Y-103596064D02*
X135428565Y-100817499D01*
X137082501Y-100817499D02*
X137400000Y-100500000D01*
X132650000Y-105050000D02*
X132650000Y-103596064D01*
%TO.N,Net-(J1-Pad33)*%
X126450000Y-105050000D02*
X126450000Y-101950000D01*
X128212487Y-100187513D02*
X136712487Y-100187513D01*
X136712487Y-100187513D02*
X137400000Y-99500000D01*
X126450000Y-101950000D02*
X128212487Y-100187513D01*
%TO.N,Net-(J1-Pad31)*%
X145050000Y-95050000D02*
X143350000Y-95050000D01*
X143350000Y-95050000D02*
X140800000Y-97600000D01*
X140800000Y-97600000D02*
X140800000Y-98500000D01*
X140800000Y-98500000D02*
X140800000Y-98500000D01*
%TO.N,Net-(J1-Pad29)*%
X138850000Y-96450000D02*
X137400000Y-97900000D01*
X138850000Y-95050000D02*
X138850000Y-96450000D01*
%TO.N,Net-(J1-Pad27)*%
X135650001Y-98649999D02*
X137400000Y-96900000D01*
X133149999Y-98649999D02*
X135650001Y-98649999D01*
X132650000Y-98150000D02*
X133149999Y-98649999D01*
%TO.N,Net-(J1-Pad25)*%
X136902487Y-96097513D02*
X137497324Y-95502676D01*
X128502487Y-96097513D02*
X136902487Y-96097513D01*
X126450000Y-98150000D02*
X128502487Y-96097513D01*
%TO.N,Net-(J1-Pad23)*%
X145050000Y-88850000D02*
X145050000Y-91350000D01*
X145050000Y-91350000D02*
X141900000Y-94500000D01*
X141900000Y-94500000D02*
X140800000Y-94500000D01*
X140800000Y-94500000D02*
X140800000Y-94500000D01*
%TO.N,Net-(J1-Pad21)*%
X138850000Y-92033936D02*
X137400000Y-93500000D01*
X138850000Y-88850000D02*
X138850000Y-92033936D01*
X137400000Y-93500000D02*
X137400000Y-93483936D01*
%TO.N,Net-(J1-Pad19)*%
X137400000Y-92500000D02*
X137400000Y-92500000D01*
X137349999Y-92449999D02*
X137400000Y-92500000D01*
X133149999Y-92449999D02*
X137349999Y-92449999D01*
X132650000Y-91950000D02*
X133149999Y-92449999D01*
%TO.N,Net-(J1-Pad17)*%
X136757871Y-90857871D02*
X137400000Y-91500000D01*
X137400000Y-91500000D02*
X137400000Y-91500000D01*
X127542129Y-90857871D02*
X127942129Y-90857871D01*
X126450000Y-91950000D02*
X127542129Y-90857871D01*
X127942129Y-90857871D02*
X136757871Y-90857871D01*
%TO.N,Net-(J1-Pad15)*%
X140800000Y-90500000D02*
X140800000Y-90500000D01*
X145050000Y-86250000D02*
X140800000Y-90500000D01*
X145050000Y-82650000D02*
X145050000Y-86250000D01*
%TO.N,Net-(J1-Pad13)*%
X140800000Y-89500000D02*
X140800000Y-89500000D01*
X140800000Y-87483936D02*
X140800000Y-87700000D01*
X138850000Y-85533936D02*
X140800000Y-87483936D01*
X138850000Y-82650000D02*
X138850000Y-85533936D01*
X140800000Y-87700000D02*
X140800000Y-89500000D01*
%TO.N,Net-(J1-Pad11)*%
X133149999Y-86249999D02*
X137549999Y-86249999D01*
X132650000Y-85750000D02*
X133149999Y-86249999D01*
X138064821Y-86764821D02*
X138064821Y-87840559D01*
X138064821Y-87840559D02*
X137402690Y-88502690D01*
X137549999Y-86249999D02*
X138064821Y-86764821D01*
%TO.N,Net-(J1-Pad9)*%
X136757871Y-86857871D02*
X137400000Y-87500000D01*
X127557871Y-86857871D02*
X136757871Y-86857871D01*
X126450000Y-85750000D02*
X127557871Y-86857871D01*
%TO.N,Net-(J1-Pad7)*%
X140800000Y-86500000D02*
X140800000Y-86500000D01*
X141117499Y-86817499D02*
X143282501Y-86817499D01*
X140800000Y-86500000D02*
X141117499Y-86817499D01*
X143635179Y-77864821D02*
X145050000Y-76450000D01*
X143635179Y-86464821D02*
X143635179Y-77864821D01*
X143282501Y-86817499D02*
X143635179Y-86464821D01*
%TO.N,Net-(J1-Pad5)*%
X140800000Y-85500000D02*
X140800000Y-85500000D01*
X138850000Y-76450000D02*
X138850000Y-79950000D01*
X140800000Y-81900000D02*
X140800000Y-85500000D01*
X138850000Y-79950000D02*
X140800000Y-81900000D01*
%TO.N,Net-(J1-Pad3)*%
X138064821Y-83835179D02*
X137400000Y-84500000D01*
X138064821Y-83180885D02*
X138064821Y-83835179D01*
X134433936Y-79550000D02*
X138064821Y-83180885D01*
X132650000Y-79550000D02*
X134433936Y-79550000D01*
%TO.N,Net-(J1-Pad1)*%
X137397300Y-83502700D02*
X137400000Y-83500000D01*
X130793936Y-79550000D02*
X134746636Y-83502700D01*
X134746636Y-83502700D02*
X137397300Y-83502700D01*
X126450000Y-79550000D02*
X130793936Y-79550000D01*
%TO.N,Net-(J2-Pad65)*%
X158150000Y-80804036D02*
X160100000Y-82754036D01*
X158150000Y-79550000D02*
X158150000Y-80804036D01*
X160100000Y-82754036D02*
X160100000Y-83400000D01*
X160100000Y-83400000D02*
X159000000Y-84500000D01*
X159000000Y-84500000D02*
X159000000Y-84500000D01*
%TO.N,Net-(J2-Pad63)*%
X164350000Y-76450000D02*
X162600000Y-78200000D01*
X162600000Y-78200000D02*
X162600000Y-83300000D01*
%TO.N,Net-(J2-Pad61)*%
X170550000Y-78533936D02*
X162600000Y-86483936D01*
X170550000Y-76450000D02*
X170550000Y-78533936D01*
X162600000Y-86483936D02*
X162600000Y-86483936D01*
%TO.N,Net-(J2-Pad59)*%
X151950000Y-85750000D02*
X153700000Y-87500000D01*
X153700000Y-87500000D02*
X159000000Y-87500000D01*
X159000000Y-87500000D02*
X159000000Y-87500000D01*
%TO.N,Net-(J2-Pad57)*%
X158233936Y-85750000D02*
X159664821Y-87180885D01*
X159664821Y-87180885D02*
X159664821Y-87835179D01*
X158150000Y-85750000D02*
X158233936Y-85750000D01*
X159664821Y-87835179D02*
X159000000Y-88500000D01*
X159000000Y-88500000D02*
X159000000Y-88500000D01*
%TO.N,Net-(J2-Pad55)*%
X164350000Y-82650000D02*
X161500000Y-85500000D01*
X161500000Y-86800000D02*
X162600000Y-87900000D01*
X161500000Y-85500000D02*
X161500000Y-86800000D01*
%TO.N,Net-(J2-Pad53)*%
X162600000Y-90500000D02*
X162600000Y-90500000D01*
X162600000Y-89153936D02*
X162600000Y-90500000D01*
X169103936Y-82650000D02*
X162600000Y-89153936D01*
X170550000Y-82650000D02*
X169103936Y-82650000D01*
%TO.N,Net-(J2-Pad51)*%
X151950000Y-91950000D02*
X153300000Y-90600000D01*
X158305300Y-90600000D02*
X159202650Y-91497350D01*
X153300000Y-90600000D02*
X158305300Y-90600000D01*
%TO.N,Net-(J2-Pad49)*%
X158655304Y-91950000D02*
X159202652Y-92497348D01*
X158150000Y-91950000D02*
X158655304Y-91950000D01*
%TO.N,Net-(J2-Pad47)*%
X164350000Y-88850000D02*
X164350000Y-90450000D01*
X164350000Y-90450000D02*
X162600000Y-92200000D01*
X162600000Y-92200000D02*
X162600000Y-92200000D01*
%TO.N,Net-(J2-Pad45)*%
X162600000Y-94500000D02*
X162600000Y-94500000D01*
X162600000Y-93186064D02*
X162600000Y-94500000D01*
X166936064Y-88850000D02*
X162600000Y-93186064D01*
X170550000Y-88850000D02*
X166936064Y-88850000D01*
%TO.N,Net-(J2-Pad43)*%
X152797321Y-97302679D02*
X157197321Y-97302679D01*
X151950000Y-98150000D02*
X152797321Y-97302679D01*
X157197321Y-97302679D02*
X159000000Y-95500000D01*
X159000000Y-95500000D02*
X159000000Y-95500000D01*
%TO.N,Net-(J2-Pad41)*%
X158150000Y-98150000D02*
X159000000Y-97300000D01*
X159000000Y-96500000D02*
X159002660Y-96497340D01*
X159000000Y-97300000D02*
X159000000Y-96500000D01*
%TO.N,Net-(J2-Pad39)*%
X163650000Y-95050000D02*
X162600000Y-96100000D01*
X164350000Y-95050000D02*
X163650000Y-95050000D01*
%TO.N,Net-(J2-Pad37)*%
X170550000Y-95757106D02*
X169107106Y-97200000D01*
X170550000Y-95050000D02*
X170550000Y-95757106D01*
X163794672Y-97200000D02*
X162497336Y-98497336D01*
X169107106Y-97200000D02*
X163794672Y-97200000D01*
%TO.N,Net-(J2-Pad35)*%
X153450000Y-105050000D02*
X159002666Y-99497334D01*
X151950000Y-105050000D02*
X153450000Y-105050000D01*
%TO.N,Net-(J2-Pad33)*%
X158150000Y-101350000D02*
X159002668Y-100497332D01*
X158150000Y-105050000D02*
X158150000Y-101350000D01*
%TO.N,Net-(J2-Pad31)*%
X164350000Y-101950000D02*
X163050000Y-101950000D01*
X163050000Y-101950000D02*
X162600000Y-101500000D01*
X162600000Y-101500000D02*
X162600000Y-101500000D01*
%TO.N,Net-(J2-Pad29)*%
X169357871Y-103142129D02*
X163242129Y-103142129D01*
X170550000Y-101950000D02*
X169357871Y-103142129D01*
X163242129Y-103142129D02*
X162600000Y-102500000D01*
X162600000Y-102500000D02*
X162600000Y-102500000D01*
%TO.N,Net-(J2-Pad27)*%
X159002674Y-106581262D02*
X159002674Y-103497326D01*
X154333936Y-111250000D02*
X159002674Y-106581262D01*
X151950000Y-111250000D02*
X154333936Y-111250000D01*
%TO.N,Net-(J2-Pad25)*%
X160700000Y-104500000D02*
X162500000Y-104500000D01*
X162500000Y-104500000D02*
X162500000Y-104500000D01*
X158150000Y-110695504D02*
X159700000Y-109145504D01*
X158150000Y-111250000D02*
X158150000Y-110695504D01*
X159700000Y-105500000D02*
X160700000Y-104500000D01*
X159700000Y-109145504D02*
X159700000Y-105500000D01*
%TO.N,Net-(J2-Pad23)*%
X164350000Y-108150000D02*
X164350000Y-107750000D01*
X164350000Y-107350000D02*
X162500000Y-105500000D01*
X164350000Y-108150000D02*
X164350000Y-107350000D01*
%TO.N,Net-(J2-Pad21)*%
X162497320Y-107551356D02*
X162497320Y-106497320D01*
X164088093Y-109142129D02*
X162497320Y-107551356D01*
X169557871Y-109142129D02*
X164088093Y-109142129D01*
X170550000Y-108150000D02*
X169557871Y-109142129D01*
%TO.N,Net-(J2-Pad19)*%
X158700000Y-109445964D02*
X158700000Y-107900000D01*
X151950000Y-116195964D02*
X158700000Y-109445964D01*
X151950000Y-117450000D02*
X151950000Y-116195964D01*
%TO.N,Net-(J2-Pad17)*%
X158150000Y-116250000D02*
X158100000Y-116200000D01*
X158150000Y-117450000D02*
X158150000Y-116250000D01*
%TO.N,Net-(J2-Pad15)*%
X164350000Y-114350000D02*
X164350000Y-114250000D01*
X164350000Y-113466064D02*
X162600000Y-111716064D01*
X164350000Y-114350000D02*
X164350000Y-113466064D01*
X162600000Y-111716064D02*
X162600000Y-111500000D01*
X162600000Y-111500000D02*
X162600000Y-111500000D01*
%TO.N,Net-(J2-Pad13)*%
X169342129Y-113142129D02*
X165542129Y-113142129D01*
X170550000Y-114350000D02*
X169342129Y-113142129D01*
X162897312Y-110497312D02*
X159302688Y-110497312D01*
X165542129Y-113142129D02*
X162897312Y-110497312D01*
%TO.N,Net-(J2-Pad11)*%
X151950000Y-118850000D02*
X159200000Y-111600000D01*
X151950000Y-123650000D02*
X151950000Y-118850000D01*
%TO.N,Net-(J2-Pad9)*%
X156974821Y-122474821D02*
X156974821Y-115325179D01*
X158150000Y-123650000D02*
X156974821Y-122474821D01*
X159100000Y-113200000D02*
X159100000Y-112700000D01*
X156974821Y-115325179D02*
X159100000Y-113200000D01*
%TO.N,Net-(J2-Pad7)*%
X162650000Y-120550000D02*
X162600000Y-120500000D01*
X164350000Y-120550000D02*
X162650000Y-120550000D01*
%TO.N,Net-(J2-Pad5)*%
X168785179Y-118785179D02*
X163285179Y-118785179D01*
X170550000Y-120550000D02*
X168785179Y-118785179D01*
X163285179Y-118785179D02*
X159000000Y-114500000D01*
X159000000Y-114500000D02*
X159000000Y-114500000D01*
%TO.N,/BIAS3*%
X153950000Y-76450000D02*
X153950000Y-76450000D01*
X155050000Y-76450000D02*
X153950000Y-76450000D01*
X155050000Y-82650000D02*
X153950000Y-82650000D01*
X153950000Y-82650000D02*
X153950000Y-82650000D01*
X153950000Y-88850000D02*
X153950000Y-88850000D01*
X155050000Y-88850000D02*
X153950000Y-88850000D01*
X160150000Y-76450000D02*
X160150000Y-76450000D01*
X161250000Y-76450000D02*
X160150000Y-76450000D01*
X161250000Y-82650000D02*
X160400000Y-81800000D01*
X160400000Y-81800000D02*
X160400000Y-81800000D01*
X167450000Y-79550000D02*
X167450000Y-78450000D01*
X167450000Y-78450000D02*
X167450000Y-78450000D01*
X167450000Y-98150000D02*
X168550000Y-98150000D01*
X168550000Y-98150000D02*
X168550000Y-98150000D01*
X172550000Y-79550000D02*
X172550000Y-79550000D01*
X173650000Y-79550000D02*
X172550000Y-79550000D01*
X173650000Y-85750000D02*
X172550000Y-85750000D01*
X172550000Y-85750000D02*
X172550000Y-85750000D01*
X173650000Y-91950000D02*
X172550000Y-91950000D01*
X172550000Y-91950000D02*
X172550000Y-91950000D01*
X173650000Y-98150000D02*
X172550000Y-98150000D01*
X172550000Y-98150000D02*
X172550000Y-98150000D01*
X155050000Y-95050000D02*
X153950000Y-95050000D01*
X153950000Y-95050000D02*
X153950000Y-95050000D01*
X167450000Y-90850000D02*
X167450000Y-90850000D01*
X167450000Y-91950000D02*
X167450000Y-90850000D01*
X167450000Y-86850000D02*
X167450000Y-86850000D01*
X167450000Y-85750000D02*
X167450000Y-86850000D01*
X161250000Y-88850000D02*
X159850000Y-88850000D01*
X159850000Y-88850000D02*
X159000000Y-89700000D01*
X159000000Y-89700000D02*
X159000000Y-89700000D01*
X161250000Y-95050000D02*
X160700000Y-94500000D01*
X160700000Y-94500000D02*
X159000000Y-94500000D01*
X159000000Y-94500000D02*
X159000000Y-94500000D01*
%TO.N,/BIAS4*%
X155050000Y-101950000D02*
X153950000Y-101950000D01*
X153950000Y-101950000D02*
X153950000Y-101950000D01*
X155050000Y-108150000D02*
X153950000Y-108150000D01*
X153950000Y-108150000D02*
X153950000Y-108150000D01*
X155050000Y-120550000D02*
X153950000Y-120550000D01*
X153950000Y-120550000D02*
X153950000Y-120550000D01*
X161250000Y-119450000D02*
X161250000Y-119450000D01*
X161250000Y-120550000D02*
X161250000Y-119450000D01*
X167450000Y-105050000D02*
X167450000Y-106150000D01*
X167450000Y-106150000D02*
X167450000Y-106150000D01*
X167450000Y-111250000D02*
X167450000Y-112350000D01*
X167450000Y-112350000D02*
X167450000Y-112350000D01*
X166350000Y-117450000D02*
X166350000Y-117450000D01*
X167450000Y-117450000D02*
X166350000Y-117450000D01*
X166350000Y-123650000D02*
X166350000Y-123650000D01*
X167450000Y-123650000D02*
X166350000Y-123650000D01*
X172550000Y-123650000D02*
X172550000Y-123650000D01*
X173650000Y-123650000D02*
X172550000Y-123650000D01*
X173650000Y-117450000D02*
X172550000Y-117450000D01*
X172550000Y-117450000D02*
X172550000Y-117450000D01*
X173650000Y-111250000D02*
X172550000Y-111250000D01*
X172550000Y-111250000D02*
X172550000Y-111250000D01*
X173650000Y-105050000D02*
X172550000Y-105050000D01*
X172550000Y-105050000D02*
X172550000Y-105050000D01*
X155050000Y-114350000D02*
X154300000Y-115100000D01*
X154300000Y-115100000D02*
X154300000Y-115100000D01*
X161250000Y-101242894D02*
X161992894Y-100500000D01*
X161250000Y-101950000D02*
X161250000Y-101242894D01*
X161992894Y-100500000D02*
X162600000Y-100500000D01*
X162600000Y-100500000D02*
X162600000Y-100500000D01*
X161250000Y-108150000D02*
X162050000Y-108150000D01*
X162050000Y-108150000D02*
X162600000Y-108700000D01*
X162600000Y-108700000D02*
X162600000Y-108700000D01*
X161250000Y-114350000D02*
X161250000Y-113050000D01*
X161250000Y-113050000D02*
X161600000Y-112700000D01*
X161600000Y-112700000D02*
X162600000Y-112700000D01*
X162600000Y-112700000D02*
X162600000Y-112700000D01*
%TO.N,Net-(J2-Pad67)*%
X151950000Y-79550000D02*
X155050000Y-79550000D01*
X155050000Y-79550000D02*
X159000000Y-83500000D01*
X159000000Y-83500000D02*
X159000000Y-83500000D01*
%TD*%
M02*
