%TF.GenerationSoftware,KiCad,Pcbnew,(5.1.9-0-10_14)*%
%TF.CreationDate,2021-05-13T13:43:04-04:00*%
%TF.ProjectId,SiPM_Board_RevC,5369504d-5f42-46f6-9172-645f52657643,rev?*%
%TF.SameCoordinates,Original*%
%TF.FileFunction,Soldermask,Top*%
%TF.FilePolarity,Negative*%
%FSLAX46Y46*%
G04 Gerber Fmt 4.6, Leading zero omitted, Abs format (unit mm)*
G04 Created by KiCad (PCBNEW (5.1.9-0-10_14)) date 2021-05-13 13:43:04*
%MOMM*%
%LPD*%
G01*
G04 APERTURE LIST*
%ADD10C,1.000000*%
G04 APERTURE END LIST*
D10*
%TO.C,U4*%
X151950000Y-85750000D03*
X151950000Y-79550000D03*
X155050000Y-82650000D03*
X155050000Y-76450000D03*
X158150000Y-85750000D03*
X161250000Y-82650000D03*
X158150000Y-79550000D03*
X161250000Y-76450000D03*
X173650000Y-79550000D03*
X170550000Y-76450000D03*
X167450000Y-79550000D03*
X164350000Y-76450000D03*
X173650000Y-85750000D03*
X170550000Y-82650000D03*
X167450000Y-85750000D03*
X164350000Y-82650000D03*
X167450000Y-98150000D03*
X173650000Y-98150000D03*
X170550000Y-95050000D03*
X164350000Y-95050000D03*
X173650000Y-91950000D03*
X170550000Y-88850000D03*
X167450000Y-91950000D03*
X164350000Y-88850000D03*
X151950000Y-98150000D03*
X151950000Y-91950000D03*
X155050000Y-88850000D03*
X158150000Y-98150000D03*
X155050000Y-95050000D03*
X161250000Y-95050000D03*
X158150000Y-91950000D03*
X161250000Y-88850000D03*
%TD*%
%TO.C,U5*%
X161250000Y-114350000D03*
X158150000Y-117450000D03*
X161250000Y-120550000D03*
X155050000Y-120550000D03*
X158150000Y-123650000D03*
X155050000Y-114350000D03*
X151950000Y-117450000D03*
X151950000Y-123650000D03*
X164350000Y-114350000D03*
X167450000Y-117450000D03*
X170550000Y-114350000D03*
X173650000Y-117450000D03*
X164350000Y-120550000D03*
X170550000Y-120550000D03*
X173650000Y-123650000D03*
X167450000Y-123650000D03*
X164350000Y-108150000D03*
X167450000Y-111250000D03*
X170550000Y-108150000D03*
X173650000Y-111250000D03*
X164350000Y-101950000D03*
X167450000Y-105050000D03*
X170550000Y-101950000D03*
X173650000Y-105050000D03*
X161250000Y-101950000D03*
X158150000Y-105050000D03*
X161250000Y-108150000D03*
X158150000Y-111250000D03*
X155050000Y-101950000D03*
X155050000Y-108150000D03*
X151950000Y-105050000D03*
X151950000Y-111250000D03*
%TD*%
%TO.C,U2*%
X126450000Y-85750000D03*
X126450000Y-79550000D03*
X129550000Y-82650000D03*
X129550000Y-76450000D03*
X132650000Y-85750000D03*
X135750000Y-82650000D03*
X132650000Y-79550000D03*
X135750000Y-76450000D03*
X148150000Y-79550000D03*
X145050000Y-76450000D03*
X141950000Y-79550000D03*
X138850000Y-76450000D03*
X148150000Y-85750000D03*
X145050000Y-82650000D03*
X141950000Y-85750000D03*
X138850000Y-82650000D03*
X141950000Y-98150000D03*
X148150000Y-98150000D03*
X145050000Y-95050000D03*
X138850000Y-95050000D03*
X148150000Y-91950000D03*
X145050000Y-88850000D03*
X141950000Y-91950000D03*
X138850000Y-88850000D03*
X126450000Y-98150000D03*
X126450000Y-91950000D03*
X129550000Y-88850000D03*
X132650000Y-98150000D03*
X129550000Y-95050000D03*
X135750000Y-95050000D03*
X132650000Y-91950000D03*
X135750000Y-88850000D03*
%TD*%
%TO.C,U3*%
X135750000Y-114350000D03*
X132650000Y-117450000D03*
X135750000Y-120550000D03*
X129550000Y-120550000D03*
X132650000Y-123650000D03*
X129550000Y-114350000D03*
X126450000Y-117450000D03*
X126450000Y-123650000D03*
X138850000Y-114350000D03*
X141950000Y-117450000D03*
X145050000Y-114350000D03*
X148150000Y-117450000D03*
X138850000Y-120550000D03*
X145050000Y-120550000D03*
X148150000Y-123650000D03*
X141950000Y-123650000D03*
X138850000Y-108150000D03*
X141950000Y-111250000D03*
X145050000Y-108150000D03*
X148150000Y-111250000D03*
X138850000Y-101950000D03*
X141950000Y-105050000D03*
X145050000Y-101950000D03*
X148150000Y-105050000D03*
X135750000Y-101950000D03*
X132650000Y-105050000D03*
X135750000Y-108150000D03*
X132650000Y-111250000D03*
X129550000Y-101950000D03*
X129550000Y-108150000D03*
X126450000Y-105050000D03*
X126450000Y-111250000D03*
%TD*%
M02*
