%TF.GenerationSoftware,KiCad,Pcbnew,(5.1.9-0-10_14)*%
%TF.CreationDate,2021-05-13T13:43:04-04:00*%
%TF.ProjectId,SiPM_Board_RevC,5369504d-5f42-46f6-9172-645f52657643,rev?*%
%TF.SameCoordinates,Original*%
%TF.FileFunction,Soldermask,Bot*%
%TF.FilePolarity,Negative*%
%FSLAX46Y46*%
G04 Gerber Fmt 4.6, Leading zero omitted, Abs format (unit mm)*
G04 Created by KiCad (PCBNEW (5.1.9-0-10_14)) date 2021-05-13 13:43:04*
%MOMM*%
%LPD*%
G01*
G04 APERTURE LIST*
%ADD10R,2.413000X0.558800*%
%ADD11R,0.900000X0.400000*%
G04 APERTURE END LIST*
D10*
%TO.C,J2*%
X164408000Y-116497300D03*
X160852000Y-116497300D03*
X160852000Y-115497302D03*
X164408000Y-115497302D03*
X160852000Y-114497304D03*
X164408000Y-114497304D03*
X160852000Y-113497306D03*
X164408000Y-113497306D03*
X160852000Y-112497308D03*
X164408000Y-112497308D03*
X160852000Y-111497310D03*
X164408000Y-111497310D03*
X160852000Y-110497312D03*
X164408000Y-110497312D03*
X160852000Y-109497314D03*
X164408000Y-109497314D03*
X160852000Y-108497316D03*
X164408000Y-108497316D03*
X160852000Y-107497318D03*
X164408000Y-107497318D03*
X160852000Y-106497320D03*
X164408000Y-106497320D03*
X160852000Y-105497322D03*
X164408000Y-105497322D03*
X160852000Y-104497324D03*
X164408000Y-104497324D03*
X160852000Y-103497326D03*
X164408000Y-103497326D03*
X160852000Y-102497328D03*
X164408000Y-102497328D03*
X160852000Y-101497330D03*
X164408000Y-101497330D03*
X160852000Y-100497332D03*
X164408000Y-100497332D03*
X160852000Y-99497334D03*
X164408000Y-99497334D03*
X160852000Y-98497336D03*
X164408000Y-98497336D03*
X160852000Y-97497338D03*
X164408000Y-97497338D03*
X160852000Y-96497340D03*
X164408000Y-96497340D03*
X160852000Y-95497342D03*
X164408000Y-95497342D03*
X160852000Y-94497344D03*
X164408000Y-94497344D03*
X160852000Y-93497346D03*
X164408000Y-93497346D03*
X160852000Y-92497348D03*
X164408000Y-92497348D03*
X160852000Y-91497350D03*
X164408000Y-91497350D03*
X160852000Y-90497352D03*
X164408000Y-90497352D03*
X160852000Y-89497354D03*
X164408000Y-89497354D03*
X160852000Y-88497356D03*
X164408000Y-88497356D03*
X160852000Y-87497358D03*
X164408000Y-87497358D03*
X160852000Y-86497360D03*
X164408000Y-86497360D03*
X160852000Y-85497362D03*
X164408000Y-85497362D03*
X160852000Y-84497364D03*
X164408000Y-84497364D03*
X160852000Y-83497366D03*
X164408000Y-83497366D03*
%TD*%
%TO.C,C16*%
G36*
G01*
X168702500Y-85970000D02*
X169177500Y-85970000D01*
G75*
G02*
X169415000Y-86207500I0J-237500D01*
G01*
X169415000Y-86807500D01*
G75*
G02*
X169177500Y-87045000I-237500J0D01*
G01*
X168702500Y-87045000D01*
G75*
G02*
X168465000Y-86807500I0J237500D01*
G01*
X168465000Y-86207500D01*
G75*
G02*
X168702500Y-85970000I237500J0D01*
G01*
G37*
G36*
G01*
X168702500Y-87695000D02*
X169177500Y-87695000D01*
G75*
G02*
X169415000Y-87932500I0J-237500D01*
G01*
X169415000Y-88532500D01*
G75*
G02*
X169177500Y-88770000I-237500J0D01*
G01*
X168702500Y-88770000D01*
G75*
G02*
X168465000Y-88532500I0J237500D01*
G01*
X168465000Y-87932500D01*
G75*
G02*
X168702500Y-87695000I237500J0D01*
G01*
G37*
%TD*%
D11*
%TO.C,U1*%
X148900000Y-100650000D03*
X151100000Y-100000000D03*
X148900180Y-99344680D03*
X151100000Y-100650000D03*
X151100000Y-99350000D03*
%TD*%
D10*
%TO.C,J1*%
X135592000Y-83502700D03*
X139148000Y-83502700D03*
X139148000Y-84502698D03*
X135592000Y-84502698D03*
X139148000Y-85502696D03*
X135592000Y-85502696D03*
X139148000Y-86502694D03*
X135592000Y-86502694D03*
X139148000Y-87502692D03*
X135592000Y-87502692D03*
X139148000Y-88502690D03*
X135592000Y-88502690D03*
X139148000Y-89502688D03*
X135592000Y-89502688D03*
X139148000Y-90502686D03*
X135592000Y-90502686D03*
X139148000Y-91502684D03*
X135592000Y-91502684D03*
X139148000Y-92502682D03*
X135592000Y-92502682D03*
X139148000Y-93502680D03*
X135592000Y-93502680D03*
X139148000Y-94502678D03*
X135592000Y-94502678D03*
X139148000Y-95502676D03*
X135592000Y-95502676D03*
X139148000Y-96502674D03*
X135592000Y-96502674D03*
X139148000Y-97502672D03*
X135592000Y-97502672D03*
X139148000Y-98502670D03*
X135592000Y-98502670D03*
X139148000Y-99502668D03*
X135592000Y-99502668D03*
X139148000Y-100502666D03*
X135592000Y-100502666D03*
X139148000Y-101502664D03*
X135592000Y-101502664D03*
X139148000Y-102502662D03*
X135592000Y-102502662D03*
X139148000Y-103502660D03*
X135592000Y-103502660D03*
X139148000Y-104502658D03*
X135592000Y-104502658D03*
X139148000Y-105502656D03*
X135592000Y-105502656D03*
X139148000Y-106502654D03*
X135592000Y-106502654D03*
X139148000Y-107502652D03*
X135592000Y-107502652D03*
X139148000Y-108502650D03*
X135592000Y-108502650D03*
X139148000Y-109502648D03*
X135592000Y-109502648D03*
X139148000Y-110502646D03*
X135592000Y-110502646D03*
X139148000Y-111502644D03*
X135592000Y-111502644D03*
X139148000Y-112502642D03*
X135592000Y-112502642D03*
X139148000Y-113502640D03*
X135592000Y-113502640D03*
X139148000Y-114502638D03*
X135592000Y-114502638D03*
X139148000Y-115502636D03*
X135592000Y-115502636D03*
X139148000Y-116502634D03*
X135592000Y-116502634D03*
%TD*%
%TO.C,C15*%
G36*
G01*
X156072500Y-111230000D02*
X156547500Y-111230000D01*
G75*
G02*
X156785000Y-111467500I0J-237500D01*
G01*
X156785000Y-112067500D01*
G75*
G02*
X156547500Y-112305000I-237500J0D01*
G01*
X156072500Y-112305000D01*
G75*
G02*
X155835000Y-112067500I0J237500D01*
G01*
X155835000Y-111467500D01*
G75*
G02*
X156072500Y-111230000I237500J0D01*
G01*
G37*
G36*
G01*
X156072500Y-112955000D02*
X156547500Y-112955000D01*
G75*
G02*
X156785000Y-113192500I0J-237500D01*
G01*
X156785000Y-113792500D01*
G75*
G02*
X156547500Y-114030000I-237500J0D01*
G01*
X156072500Y-114030000D01*
G75*
G02*
X155835000Y-113792500I0J237500D01*
G01*
X155835000Y-113192500D01*
G75*
G02*
X156072500Y-112955000I237500J0D01*
G01*
G37*
%TD*%
%TO.C,C9*%
G36*
G01*
X149762500Y-103505000D02*
X150237500Y-103505000D01*
G75*
G02*
X150475000Y-103742500I0J-237500D01*
G01*
X150475000Y-104342500D01*
G75*
G02*
X150237500Y-104580000I-237500J0D01*
G01*
X149762500Y-104580000D01*
G75*
G02*
X149525000Y-104342500I0J237500D01*
G01*
X149525000Y-103742500D01*
G75*
G02*
X149762500Y-103505000I237500J0D01*
G01*
G37*
G36*
G01*
X149762500Y-101780000D02*
X150237500Y-101780000D01*
G75*
G02*
X150475000Y-102017500I0J-237500D01*
G01*
X150475000Y-102617500D01*
G75*
G02*
X150237500Y-102855000I-237500J0D01*
G01*
X149762500Y-102855000D01*
G75*
G02*
X149525000Y-102617500I0J237500D01*
G01*
X149525000Y-102017500D01*
G75*
G02*
X149762500Y-101780000I237500J0D01*
G01*
G37*
%TD*%
%TO.C,C5*%
G36*
G01*
X130822500Y-87695000D02*
X131297500Y-87695000D01*
G75*
G02*
X131535000Y-87932500I0J-237500D01*
G01*
X131535000Y-88532500D01*
G75*
G02*
X131297500Y-88770000I-237500J0D01*
G01*
X130822500Y-88770000D01*
G75*
G02*
X130585000Y-88532500I0J237500D01*
G01*
X130585000Y-87932500D01*
G75*
G02*
X130822500Y-87695000I237500J0D01*
G01*
G37*
G36*
G01*
X130822500Y-85970000D02*
X131297500Y-85970000D01*
G75*
G02*
X131535000Y-86207500I0J-237500D01*
G01*
X131535000Y-86807500D01*
G75*
G02*
X131297500Y-87045000I-237500J0D01*
G01*
X130822500Y-87045000D01*
G75*
G02*
X130585000Y-86807500I0J237500D01*
G01*
X130585000Y-86207500D01*
G75*
G02*
X130822500Y-85970000I237500J0D01*
G01*
G37*
%TD*%
%TO.C,C7*%
G36*
G01*
X143632500Y-85970000D02*
X144107500Y-85970000D01*
G75*
G02*
X144345000Y-86207500I0J-237500D01*
G01*
X144345000Y-86807500D01*
G75*
G02*
X144107500Y-87045000I-237500J0D01*
G01*
X143632500Y-87045000D01*
G75*
G02*
X143395000Y-86807500I0J237500D01*
G01*
X143395000Y-86207500D01*
G75*
G02*
X143632500Y-85970000I237500J0D01*
G01*
G37*
G36*
G01*
X143632500Y-87695000D02*
X144107500Y-87695000D01*
G75*
G02*
X144345000Y-87932500I0J-237500D01*
G01*
X144345000Y-88532500D01*
G75*
G02*
X144107500Y-88770000I-237500J0D01*
G01*
X143632500Y-88770000D01*
G75*
G02*
X143395000Y-88532500I0J237500D01*
G01*
X143395000Y-87932500D01*
G75*
G02*
X143632500Y-87695000I237500J0D01*
G01*
G37*
%TD*%
%TO.C,C6*%
G36*
G01*
X130822500Y-112955000D02*
X131297500Y-112955000D01*
G75*
G02*
X131535000Y-113192500I0J-237500D01*
G01*
X131535000Y-113792500D01*
G75*
G02*
X131297500Y-114030000I-237500J0D01*
G01*
X130822500Y-114030000D01*
G75*
G02*
X130585000Y-113792500I0J237500D01*
G01*
X130585000Y-113192500D01*
G75*
G02*
X130822500Y-112955000I237500J0D01*
G01*
G37*
G36*
G01*
X130822500Y-111230000D02*
X131297500Y-111230000D01*
G75*
G02*
X131535000Y-111467500I0J-237500D01*
G01*
X131535000Y-112067500D01*
G75*
G02*
X131297500Y-112305000I-237500J0D01*
G01*
X130822500Y-112305000D01*
G75*
G02*
X130585000Y-112067500I0J237500D01*
G01*
X130585000Y-111467500D01*
G75*
G02*
X130822500Y-111230000I237500J0D01*
G01*
G37*
%TD*%
%TO.C,C8*%
G36*
G01*
X143582500Y-111230000D02*
X144057500Y-111230000D01*
G75*
G02*
X144295000Y-111467500I0J-237500D01*
G01*
X144295000Y-112067500D01*
G75*
G02*
X144057500Y-112305000I-237500J0D01*
G01*
X143582500Y-112305000D01*
G75*
G02*
X143345000Y-112067500I0J237500D01*
G01*
X143345000Y-111467500D01*
G75*
G02*
X143582500Y-111230000I237500J0D01*
G01*
G37*
G36*
G01*
X143582500Y-112955000D02*
X144057500Y-112955000D01*
G75*
G02*
X144295000Y-113192500I0J-237500D01*
G01*
X144295000Y-113792500D01*
G75*
G02*
X144057500Y-114030000I-237500J0D01*
G01*
X143582500Y-114030000D01*
G75*
G02*
X143345000Y-113792500I0J237500D01*
G01*
X143345000Y-113192500D01*
G75*
G02*
X143582500Y-112955000I237500J0D01*
G01*
G37*
%TD*%
%TO.C,C14*%
G36*
G01*
X156072500Y-87695000D02*
X156547500Y-87695000D01*
G75*
G02*
X156785000Y-87932500I0J-237500D01*
G01*
X156785000Y-88532500D01*
G75*
G02*
X156547500Y-88770000I-237500J0D01*
G01*
X156072500Y-88770000D01*
G75*
G02*
X155835000Y-88532500I0J237500D01*
G01*
X155835000Y-87932500D01*
G75*
G02*
X156072500Y-87695000I237500J0D01*
G01*
G37*
G36*
G01*
X156072500Y-85970000D02*
X156547500Y-85970000D01*
G75*
G02*
X156785000Y-86207500I0J-237500D01*
G01*
X156785000Y-86807500D01*
G75*
G02*
X156547500Y-87045000I-237500J0D01*
G01*
X156072500Y-87045000D01*
G75*
G02*
X155835000Y-86807500I0J237500D01*
G01*
X155835000Y-86207500D01*
G75*
G02*
X156072500Y-85970000I237500J0D01*
G01*
G37*
%TD*%
%TO.C,C17*%
G36*
G01*
X168702500Y-112955000D02*
X169177500Y-112955000D01*
G75*
G02*
X169415000Y-113192500I0J-237500D01*
G01*
X169415000Y-113792500D01*
G75*
G02*
X169177500Y-114030000I-237500J0D01*
G01*
X168702500Y-114030000D01*
G75*
G02*
X168465000Y-113792500I0J237500D01*
G01*
X168465000Y-113192500D01*
G75*
G02*
X168702500Y-112955000I237500J0D01*
G01*
G37*
G36*
G01*
X168702500Y-111230000D02*
X169177500Y-111230000D01*
G75*
G02*
X169415000Y-111467500I0J-237500D01*
G01*
X169415000Y-112067500D01*
G75*
G02*
X169177500Y-112305000I-237500J0D01*
G01*
X168702500Y-112305000D01*
G75*
G02*
X168465000Y-112067500I0J237500D01*
G01*
X168465000Y-111467500D01*
G75*
G02*
X168702500Y-111230000I237500J0D01*
G01*
G37*
%TD*%
%TO.C,C1*%
G36*
G01*
X130822500Y-94015000D02*
X131297500Y-94015000D01*
G75*
G02*
X131535000Y-94252500I0J-237500D01*
G01*
X131535000Y-94852500D01*
G75*
G02*
X131297500Y-95090000I-237500J0D01*
G01*
X130822500Y-95090000D01*
G75*
G02*
X130585000Y-94852500I0J237500D01*
G01*
X130585000Y-94252500D01*
G75*
G02*
X130822500Y-94015000I237500J0D01*
G01*
G37*
G36*
G01*
X130822500Y-92290000D02*
X131297500Y-92290000D01*
G75*
G02*
X131535000Y-92527500I0J-237500D01*
G01*
X131535000Y-93127500D01*
G75*
G02*
X131297500Y-93365000I-237500J0D01*
G01*
X130822500Y-93365000D01*
G75*
G02*
X130585000Y-93127500I0J237500D01*
G01*
X130585000Y-92527500D01*
G75*
G02*
X130822500Y-92290000I237500J0D01*
G01*
G37*
%TD*%
%TO.C,C3*%
G36*
G01*
X143632500Y-92290000D02*
X144107500Y-92290000D01*
G75*
G02*
X144345000Y-92527500I0J-237500D01*
G01*
X144345000Y-93127500D01*
G75*
G02*
X144107500Y-93365000I-237500J0D01*
G01*
X143632500Y-93365000D01*
G75*
G02*
X143395000Y-93127500I0J237500D01*
G01*
X143395000Y-92527500D01*
G75*
G02*
X143632500Y-92290000I237500J0D01*
G01*
G37*
G36*
G01*
X143632500Y-94015000D02*
X144107500Y-94015000D01*
G75*
G02*
X144345000Y-94252500I0J-237500D01*
G01*
X144345000Y-94852500D01*
G75*
G02*
X144107500Y-95090000I-237500J0D01*
G01*
X143632500Y-95090000D01*
G75*
G02*
X143395000Y-94852500I0J237500D01*
G01*
X143395000Y-94252500D01*
G75*
G02*
X143632500Y-94015000I237500J0D01*
G01*
G37*
%TD*%
%TO.C,C2*%
G36*
G01*
X130822500Y-106635000D02*
X131297500Y-106635000D01*
G75*
G02*
X131535000Y-106872500I0J-237500D01*
G01*
X131535000Y-107472500D01*
G75*
G02*
X131297500Y-107710000I-237500J0D01*
G01*
X130822500Y-107710000D01*
G75*
G02*
X130585000Y-107472500I0J237500D01*
G01*
X130585000Y-106872500D01*
G75*
G02*
X130822500Y-106635000I237500J0D01*
G01*
G37*
G36*
G01*
X130822500Y-104910000D02*
X131297500Y-104910000D01*
G75*
G02*
X131535000Y-105147500I0J-237500D01*
G01*
X131535000Y-105747500D01*
G75*
G02*
X131297500Y-105985000I-237500J0D01*
G01*
X130822500Y-105985000D01*
G75*
G02*
X130585000Y-105747500I0J237500D01*
G01*
X130585000Y-105147500D01*
G75*
G02*
X130822500Y-104910000I237500J0D01*
G01*
G37*
%TD*%
%TO.C,C4*%
G36*
G01*
X143632500Y-104910000D02*
X144107500Y-104910000D01*
G75*
G02*
X144345000Y-105147500I0J-237500D01*
G01*
X144345000Y-105747500D01*
G75*
G02*
X144107500Y-105985000I-237500J0D01*
G01*
X143632500Y-105985000D01*
G75*
G02*
X143395000Y-105747500I0J237500D01*
G01*
X143395000Y-105147500D01*
G75*
G02*
X143632500Y-104910000I237500J0D01*
G01*
G37*
G36*
G01*
X143632500Y-106635000D02*
X144107500Y-106635000D01*
G75*
G02*
X144345000Y-106872500I0J-237500D01*
G01*
X144345000Y-107472500D01*
G75*
G02*
X144107500Y-107710000I-237500J0D01*
G01*
X143632500Y-107710000D01*
G75*
G02*
X143395000Y-107472500I0J237500D01*
G01*
X143395000Y-106872500D01*
G75*
G02*
X143632500Y-106635000I237500J0D01*
G01*
G37*
%TD*%
%TO.C,C10*%
G36*
G01*
X156072500Y-94015000D02*
X156547500Y-94015000D01*
G75*
G02*
X156785000Y-94252500I0J-237500D01*
G01*
X156785000Y-94852500D01*
G75*
G02*
X156547500Y-95090000I-237500J0D01*
G01*
X156072500Y-95090000D01*
G75*
G02*
X155835000Y-94852500I0J237500D01*
G01*
X155835000Y-94252500D01*
G75*
G02*
X156072500Y-94015000I237500J0D01*
G01*
G37*
G36*
G01*
X156072500Y-92290000D02*
X156547500Y-92290000D01*
G75*
G02*
X156785000Y-92527500I0J-237500D01*
G01*
X156785000Y-93127500D01*
G75*
G02*
X156547500Y-93365000I-237500J0D01*
G01*
X156072500Y-93365000D01*
G75*
G02*
X155835000Y-93127500I0J237500D01*
G01*
X155835000Y-92527500D01*
G75*
G02*
X156072500Y-92290000I237500J0D01*
G01*
G37*
%TD*%
%TO.C,C12*%
G36*
G01*
X168702500Y-92290000D02*
X169177500Y-92290000D01*
G75*
G02*
X169415000Y-92527500I0J-237500D01*
G01*
X169415000Y-93127500D01*
G75*
G02*
X169177500Y-93365000I-237500J0D01*
G01*
X168702500Y-93365000D01*
G75*
G02*
X168465000Y-93127500I0J237500D01*
G01*
X168465000Y-92527500D01*
G75*
G02*
X168702500Y-92290000I237500J0D01*
G01*
G37*
G36*
G01*
X168702500Y-94015000D02*
X169177500Y-94015000D01*
G75*
G02*
X169415000Y-94252500I0J-237500D01*
G01*
X169415000Y-94852500D01*
G75*
G02*
X169177500Y-95090000I-237500J0D01*
G01*
X168702500Y-95090000D01*
G75*
G02*
X168465000Y-94852500I0J237500D01*
G01*
X168465000Y-94252500D01*
G75*
G02*
X168702500Y-94015000I237500J0D01*
G01*
G37*
%TD*%
%TO.C,C11*%
G36*
G01*
X156072500Y-106635000D02*
X156547500Y-106635000D01*
G75*
G02*
X156785000Y-106872500I0J-237500D01*
G01*
X156785000Y-107472500D01*
G75*
G02*
X156547500Y-107710000I-237500J0D01*
G01*
X156072500Y-107710000D01*
G75*
G02*
X155835000Y-107472500I0J237500D01*
G01*
X155835000Y-106872500D01*
G75*
G02*
X156072500Y-106635000I237500J0D01*
G01*
G37*
G36*
G01*
X156072500Y-104910000D02*
X156547500Y-104910000D01*
G75*
G02*
X156785000Y-105147500I0J-237500D01*
G01*
X156785000Y-105747500D01*
G75*
G02*
X156547500Y-105985000I-237500J0D01*
G01*
X156072500Y-105985000D01*
G75*
G02*
X155835000Y-105747500I0J237500D01*
G01*
X155835000Y-105147500D01*
G75*
G02*
X156072500Y-104910000I237500J0D01*
G01*
G37*
%TD*%
%TO.C,C13*%
G36*
G01*
X168702500Y-104910000D02*
X169177500Y-104910000D01*
G75*
G02*
X169415000Y-105147500I0J-237500D01*
G01*
X169415000Y-105747500D01*
G75*
G02*
X169177500Y-105985000I-237500J0D01*
G01*
X168702500Y-105985000D01*
G75*
G02*
X168465000Y-105747500I0J237500D01*
G01*
X168465000Y-105147500D01*
G75*
G02*
X168702500Y-104910000I237500J0D01*
G01*
G37*
G36*
G01*
X168702500Y-106635000D02*
X169177500Y-106635000D01*
G75*
G02*
X169415000Y-106872500I0J-237500D01*
G01*
X169415000Y-107472500D01*
G75*
G02*
X169177500Y-107710000I-237500J0D01*
G01*
X168702500Y-107710000D01*
G75*
G02*
X168465000Y-107472500I0J237500D01*
G01*
X168465000Y-106872500D01*
G75*
G02*
X168702500Y-106635000I237500J0D01*
G01*
G37*
%TD*%
M02*
