%TF.GenerationSoftware,KiCad,Pcbnew,(5.1.9-0-10_14)*%
%TF.CreationDate,2021-05-13T13:43:04-04:00*%
%TF.ProjectId,SiPM_Board_RevC,5369504d-5f42-46f6-9172-645f52657643,rev?*%
%TF.SameCoordinates,Original*%
%TF.FileFunction,Legend,Top*%
%TF.FilePolarity,Positive*%
%FSLAX46Y46*%
G04 Gerber Fmt 4.6, Leading zero omitted, Abs format (unit mm)*
G04 Created by KiCad (PCBNEW (5.1.9-0-10_14)) date 2021-05-13 13:43:04*
%MOMM*%
%LPD*%
G01*
G04 APERTURE LIST*
%ADD10C,0.120000*%
%ADD11C,0.150000*%
G04 APERTURE END LIST*
D10*
%TO.C,U4*%
X150862000Y-76362000D02*
X150862000Y-75362000D01*
X151862000Y-75362000D02*
X150862000Y-76362000D01*
X151862000Y-75362000D02*
X150862000Y-75362000D01*
X150300000Y-74800000D02*
X150300000Y-99800000D01*
X150300000Y-99800000D02*
X175300000Y-99800000D01*
X175300000Y-99800000D02*
X175300000Y-74800000D01*
X175300000Y-74800000D02*
X150300000Y-74800000D01*
%TO.C,U5*%
X175300000Y-100300000D02*
X150300000Y-100300000D01*
X175300000Y-125300000D02*
X175300000Y-100300000D01*
X150300000Y-125300000D02*
X175300000Y-125300000D01*
X150300000Y-100300000D02*
X150300000Y-125300000D01*
X151862000Y-100862000D02*
X150862000Y-100862000D01*
X151862000Y-100862000D02*
X150862000Y-101862000D01*
X150862000Y-101862000D02*
X150862000Y-100862000D01*
%TO.C,U2*%
X125362000Y-76362000D02*
X125362000Y-75362000D01*
X126362000Y-75362000D02*
X125362000Y-76362000D01*
X126362000Y-75362000D02*
X125362000Y-75362000D01*
X124800000Y-74800000D02*
X124800000Y-99800000D01*
X124800000Y-99800000D02*
X149800000Y-99800000D01*
X149800000Y-99800000D02*
X149800000Y-74800000D01*
X149800000Y-74800000D02*
X124800000Y-74800000D01*
%TO.C,U3*%
X149800000Y-100300000D02*
X124800000Y-100300000D01*
X149800000Y-125300000D02*
X149800000Y-100300000D01*
X124800000Y-125300000D02*
X149800000Y-125300000D01*
X124800000Y-100300000D02*
X124800000Y-125300000D01*
X126362000Y-100862000D02*
X125362000Y-100862000D01*
X126362000Y-100862000D02*
X125362000Y-101862000D01*
X125362000Y-101862000D02*
X125362000Y-100862000D01*
%TO.C,U4*%
D11*
X162188095Y-86752380D02*
X162188095Y-87561904D01*
X162235714Y-87657142D01*
X162283333Y-87704761D01*
X162378571Y-87752380D01*
X162569047Y-87752380D01*
X162664285Y-87704761D01*
X162711904Y-87657142D01*
X162759523Y-87561904D01*
X162759523Y-86752380D01*
X163664285Y-87085714D02*
X163664285Y-87752380D01*
X163426190Y-86704761D02*
X163188095Y-87419047D01*
X163807142Y-87419047D01*
%TO.C,U5*%
X162188095Y-112252380D02*
X162188095Y-113061904D01*
X162235714Y-113157142D01*
X162283333Y-113204761D01*
X162378571Y-113252380D01*
X162569047Y-113252380D01*
X162664285Y-113204761D01*
X162711904Y-113157142D01*
X162759523Y-113061904D01*
X162759523Y-112252380D01*
X163711904Y-112252380D02*
X163235714Y-112252380D01*
X163188095Y-112728571D01*
X163235714Y-112680952D01*
X163330952Y-112633333D01*
X163569047Y-112633333D01*
X163664285Y-112680952D01*
X163711904Y-112728571D01*
X163759523Y-112823809D01*
X163759523Y-113061904D01*
X163711904Y-113157142D01*
X163664285Y-113204761D01*
X163569047Y-113252380D01*
X163330952Y-113252380D01*
X163235714Y-113204761D01*
X163188095Y-113157142D01*
%TO.C,U2*%
X136688095Y-86752380D02*
X136688095Y-87561904D01*
X136735714Y-87657142D01*
X136783333Y-87704761D01*
X136878571Y-87752380D01*
X137069047Y-87752380D01*
X137164285Y-87704761D01*
X137211904Y-87657142D01*
X137259523Y-87561904D01*
X137259523Y-86752380D01*
X137688095Y-86847619D02*
X137735714Y-86800000D01*
X137830952Y-86752380D01*
X138069047Y-86752380D01*
X138164285Y-86800000D01*
X138211904Y-86847619D01*
X138259523Y-86942857D01*
X138259523Y-87038095D01*
X138211904Y-87180952D01*
X137640476Y-87752380D01*
X138259523Y-87752380D01*
%TO.C,U3*%
X136688095Y-112252380D02*
X136688095Y-113061904D01*
X136735714Y-113157142D01*
X136783333Y-113204761D01*
X136878571Y-113252380D01*
X137069047Y-113252380D01*
X137164285Y-113204761D01*
X137211904Y-113157142D01*
X137259523Y-113061904D01*
X137259523Y-112252380D01*
X137640476Y-112252380D02*
X138259523Y-112252380D01*
X137926190Y-112633333D01*
X138069047Y-112633333D01*
X138164285Y-112680952D01*
X138211904Y-112728571D01*
X138259523Y-112823809D01*
X138259523Y-113061904D01*
X138211904Y-113157142D01*
X138164285Y-113204761D01*
X138069047Y-113252380D01*
X137783333Y-113252380D01*
X137688095Y-113204761D01*
X137640476Y-113157142D01*
%TD*%
M02*
