G04 #@! TF.GenerationSoftware,KiCad,Pcbnew,5.1.10-88a1d61d58~88~ubuntu20.04.1*
G04 #@! TF.CreationDate,2021-08-11T10:22:42-04:00*
G04 #@! TF.ProjectId,readout_trenz,72656164-6f75-4745-9f74-72656e7a2e6b,rev?*
G04 #@! TF.SameCoordinates,Original*
G04 #@! TF.FileFunction,Copper,L4,Inr*
G04 #@! TF.FilePolarity,Positive*
%FSLAX46Y46*%
G04 Gerber Fmt 4.6, Leading zero omitted, Abs format (unit mm)*
G04 Created by KiCad (PCBNEW 5.1.10-88a1d61d58~88~ubuntu20.04.1) date 2021-08-11 10:22:42*
%MOMM*%
%LPD*%
G01*
G04 APERTURE LIST*
G04 #@! TA.AperFunction,ComponentPad*
%ADD10R,4.400000X1.800000*%
G04 #@! TD*
G04 #@! TA.AperFunction,ComponentPad*
%ADD11O,4.000000X1.800000*%
G04 #@! TD*
G04 #@! TA.AperFunction,ComponentPad*
%ADD12O,1.800000X4.000000*%
G04 #@! TD*
G04 #@! TA.AperFunction,ComponentPad*
%ADD13O,1.700000X1.700000*%
G04 #@! TD*
G04 #@! TA.AperFunction,ComponentPad*
%ADD14R,1.700000X1.700000*%
G04 #@! TD*
G04 #@! TA.AperFunction,ComponentPad*
%ADD15C,2.000000*%
G04 #@! TD*
G04 #@! TA.AperFunction,ComponentPad*
%ADD16C,1.400000*%
G04 #@! TD*
G04 #@! TA.AperFunction,WasherPad*
%ADD17C,2.794000*%
G04 #@! TD*
G04 #@! TA.AperFunction,WasherPad*
%ADD18C,2.000000*%
G04 #@! TD*
G04 #@! TA.AperFunction,ComponentPad*
%ADD19R,2.000000X2.000000*%
G04 #@! TD*
G04 #@! TA.AperFunction,ComponentPad*
%ADD20C,1.500000*%
G04 #@! TD*
G04 #@! TA.AperFunction,ComponentPad*
%ADD21C,1.620000*%
G04 #@! TD*
G04 #@! TA.AperFunction,ComponentPad*
%ADD22C,1.800000*%
G04 #@! TD*
G04 #@! TA.AperFunction,ComponentPad*
%ADD23R,1.800000X1.800000*%
G04 #@! TD*
G04 #@! TA.AperFunction,ComponentPad*
%ADD24C,1.100000*%
G04 #@! TD*
G04 #@! TA.AperFunction,ComponentPad*
%ADD25C,2.410000*%
G04 #@! TD*
G04 #@! TA.AperFunction,ComponentPad*
%ADD26C,1.524000*%
G04 #@! TD*
G04 #@! TA.AperFunction,ViaPad*
%ADD27C,1.270000*%
G04 #@! TD*
G04 #@! TA.AperFunction,ViaPad*
%ADD28C,0.635000*%
G04 #@! TD*
G04 #@! TA.AperFunction,Conductor*
%ADD29C,1.270000*%
G04 #@! TD*
G04 #@! TA.AperFunction,Conductor*
%ADD30C,0.147320*%
G04 #@! TD*
G04 #@! TA.AperFunction,Conductor*
%ADD31C,0.254000*%
G04 #@! TD*
G04 APERTURE END LIST*
D10*
X183560000Y-110000000D03*
D11*
X183560000Y-104200000D03*
D12*
X178760000Y-107000000D03*
D13*
X215981600Y-144705400D03*
X213441600Y-149785400D03*
X215981600Y-152325400D03*
X213441600Y-147245400D03*
X213441600Y-152325400D03*
X215981600Y-147245400D03*
X215981600Y-154865400D03*
D14*
X213441600Y-144690000D03*
D13*
X215981600Y-149785400D03*
X213441600Y-154865400D03*
X181692200Y-144692400D03*
X179152200Y-149772400D03*
X181692200Y-152312400D03*
X179152200Y-147232400D03*
X179152200Y-152312400D03*
X181692200Y-147232400D03*
X181692200Y-154852400D03*
D14*
X179152200Y-144690000D03*
D13*
X181692200Y-149772400D03*
X179152200Y-154850000D03*
D15*
X513500000Y-102000000D03*
X513500000Y-114000000D03*
X513500000Y-111000000D03*
X513500000Y-123000000D03*
X513500000Y-108000000D03*
X513500000Y-105000000D03*
X513500000Y-117000000D03*
X513500000Y-120000000D03*
X513500000Y-126000000D03*
X496500000Y-114000000D03*
X496500000Y-102000000D03*
X496500000Y-108000000D03*
X496500000Y-105000000D03*
X496500000Y-111000000D03*
X496500000Y-123000000D03*
X496500000Y-117000000D03*
X496500000Y-126000000D03*
X496500000Y-120000000D03*
X500500000Y-128500000D03*
X509500000Y-128500000D03*
X506500000Y-128500000D03*
X503500000Y-128500000D03*
D13*
X450000000Y-137310000D03*
X450000000Y-134770000D03*
D14*
X450000000Y-132230000D03*
D16*
X327460000Y-160900000D03*
X330000000Y-160900000D03*
X369500000Y-168040000D03*
X369500000Y-165500000D03*
D15*
X467230000Y-175200000D03*
X474760000Y-129750000D03*
X429990000Y-190000000D03*
X430010000Y-166740000D03*
X309520000Y-189780000D03*
X309550000Y-162860000D03*
X268610000Y-175230000D03*
X268590000Y-129750000D03*
D17*
X554500000Y-103570000D03*
X105500000Y-103570000D03*
D18*
X425250000Y-135480000D03*
X434850000Y-135480000D03*
D19*
X437175000Y-134580000D03*
X437175000Y-124580000D03*
X437175000Y-114580000D03*
X437175000Y-104580000D03*
D20*
X430050000Y-141680000D03*
X434850000Y-141680000D03*
X425250000Y-141680000D03*
D19*
X422925000Y-139580000D03*
X422925000Y-129580000D03*
X422925000Y-119580000D03*
X422925000Y-109580000D03*
X428600000Y-104580000D03*
X426100000Y-124580000D03*
X431500000Y-124580000D03*
D20*
X422925000Y-137080000D03*
X437175000Y-137080000D03*
X437175000Y-132080000D03*
X437175000Y-127380000D03*
X422925000Y-127380000D03*
X422925000Y-132080000D03*
X379675000Y-122850000D03*
X349725000Y-122850000D03*
X355725000Y-144850000D03*
X385675000Y-144850000D03*
D21*
X400550000Y-111950000D03*
X398050000Y-109450000D03*
X400550000Y-106950000D03*
D22*
X242540000Y-105000000D03*
D23*
X240000000Y-105000000D03*
D13*
X162680000Y-104840000D03*
X162680000Y-102300000D03*
X165220000Y-104840000D03*
X165220000Y-102300000D03*
X167760000Y-104840000D03*
X167760000Y-102300000D03*
X170300000Y-104840000D03*
D14*
X170300000Y-102300000D03*
D24*
X394875000Y-207380000D03*
D25*
X395500000Y-201600000D03*
D24*
X340875000Y-207380000D03*
D25*
X340250000Y-201600000D03*
D23*
X200000000Y-105000000D03*
D22*
X202540000Y-105000000D03*
X226540000Y-105000000D03*
D23*
X224000000Y-105000000D03*
D22*
X210540000Y-105000000D03*
D23*
X208000000Y-105000000D03*
X264000000Y-105000000D03*
D22*
X266540000Y-105000000D03*
X234540000Y-105000000D03*
D23*
X232000000Y-105000000D03*
X216000000Y-105000000D03*
D22*
X218540000Y-105000000D03*
D23*
X256000000Y-105000000D03*
D22*
X258540000Y-105000000D03*
X250540000Y-105000000D03*
D23*
X248000000Y-105000000D03*
D22*
X306540000Y-105000000D03*
D23*
X304000000Y-105000000D03*
X296000000Y-105000000D03*
D22*
X298540000Y-105000000D03*
X290540000Y-105000000D03*
D23*
X288000000Y-105000000D03*
X280000000Y-105000000D03*
D22*
X282540000Y-105000000D03*
D26*
X475520000Y-106390000D03*
X480600000Y-106390000D03*
X480600000Y-101310000D03*
X475520000Y-101310000D03*
X478060000Y-103850000D03*
X455240000Y-103800000D03*
X452700000Y-101260000D03*
X457780000Y-101260000D03*
X457780000Y-106340000D03*
X452700000Y-106340000D03*
X417110000Y-170860000D03*
X412030000Y-170860000D03*
X412030000Y-175940000D03*
X417110000Y-175940000D03*
X414570000Y-173400000D03*
X320350000Y-173480000D03*
X322890000Y-176020000D03*
X317810000Y-176020000D03*
X317810000Y-170940000D03*
X322890000Y-170940000D03*
D14*
X225210001Y-147809999D03*
D13*
X227750001Y-147809999D03*
X227750001Y-152459999D03*
D14*
X225210001Y-152459999D03*
D24*
X546375000Y-207380000D03*
D25*
X547000000Y-201600000D03*
D24*
X492375000Y-207380000D03*
D25*
X491750000Y-201600000D03*
D24*
X470625000Y-207380000D03*
D25*
X471250000Y-201600000D03*
D24*
X416625000Y-207380000D03*
D25*
X416000000Y-201600000D03*
X264500000Y-201600000D03*
D24*
X265125000Y-207380000D03*
D25*
X319750000Y-201600000D03*
D24*
X319125000Y-207380000D03*
X243375000Y-207380000D03*
D25*
X244000000Y-201600000D03*
D24*
X189375000Y-207380000D03*
D25*
X188750000Y-201600000D03*
X113000000Y-201600000D03*
D24*
X113625000Y-207380000D03*
D25*
X168250000Y-201600000D03*
D24*
X167625000Y-207380000D03*
D27*
X251575000Y-125925000D03*
X247475000Y-132025000D03*
X247325000Y-153325000D03*
X248550000Y-169450000D03*
X248500000Y-191000000D03*
D28*
X210600000Y-113100000D03*
X373306300Y-124200000D03*
X432988388Y-137381612D03*
X374093700Y-124200000D03*
X432431612Y-137938388D03*
X377380000Y-128073700D03*
X427474248Y-137752265D03*
X377380000Y-127286300D03*
X428261648Y-137752265D03*
D27*
X363060000Y-124090000D03*
X398110000Y-119980004D03*
D28*
X369470000Y-142080000D03*
X374298831Y-146241169D03*
D27*
X398110000Y-144540000D03*
X445920000Y-150320000D03*
X398110000Y-148200000D03*
D28*
X419730000Y-146480000D03*
X375440000Y-145550000D03*
X414788161Y-143388161D03*
X373193170Y-142955497D03*
X408240000Y-147775661D03*
X373193170Y-146570000D03*
X468500000Y-119100000D03*
X368199998Y-117400000D03*
X368225956Y-141637809D03*
X375536331Y-142600000D03*
X467700000Y-142970000D03*
X361740000Y-208000000D03*
X362440000Y-203965468D03*
X400000000Y-182700000D03*
X399925000Y-180450000D03*
X400475000Y-174025000D03*
X400400000Y-175075000D03*
X400400000Y-189625000D03*
X402780000Y-167420000D03*
X402916402Y-165806402D03*
X333000000Y-183577680D03*
X333000000Y-182022320D03*
X335050000Y-175350000D03*
X364175000Y-178575000D03*
X343427680Y-188500000D03*
X346700000Y-178900000D03*
X346700000Y-173700000D03*
X373880000Y-175340000D03*
X385100000Y-178800000D03*
X385100000Y-173700000D03*
X371420000Y-182032320D03*
X371410000Y-183567680D03*
X381827680Y-188530000D03*
X402575000Y-178575000D03*
X402625000Y-179550000D03*
X364200000Y-179600000D03*
X364190000Y-184415000D03*
X335300000Y-172750000D03*
X373700000Y-172720000D03*
X351450000Y-187175000D03*
X402560000Y-186380000D03*
X402565000Y-184445000D03*
D27*
X257300000Y-165200000D03*
D28*
X364274018Y-186551844D03*
X390580000Y-187130000D03*
D27*
X283000000Y-170800000D03*
X292000000Y-168780000D03*
D28*
X371460000Y-133700000D03*
X356900000Y-132050000D03*
X366933000Y-132050000D03*
X376839000Y-132050000D03*
X386872000Y-132050000D03*
X353725000Y-112821000D03*
X377450000Y-112375000D03*
X381410000Y-133700000D03*
X361410000Y-133700000D03*
X352250000Y-162320000D03*
X400015000Y-158455000D03*
X469625000Y-116800000D03*
D27*
X401925000Y-119700000D03*
D28*
X361600000Y-158460000D03*
X401990000Y-156270000D03*
X400730000Y-158140000D03*
D27*
X400770000Y-150990000D03*
D28*
X357002500Y-162117500D03*
X357800000Y-165530000D03*
D27*
X256975000Y-134025000D03*
D28*
X340890000Y-144750000D03*
X344020000Y-148360000D03*
X351460000Y-133300000D03*
X395580000Y-165140000D03*
X201175000Y-110325000D03*
D27*
X251500000Y-183500000D03*
X337500000Y-187000000D03*
X375500000Y-187000000D03*
X328000000Y-191000000D03*
X367500000Y-191000000D03*
X257675000Y-176675000D03*
D28*
X429770000Y-162330000D03*
X361070000Y-204040002D03*
X442590000Y-136000000D03*
X445430000Y-135980000D03*
X453465000Y-149675000D03*
D27*
X256790000Y-186750000D03*
D28*
X354752680Y-124650000D03*
X354210002Y-127580000D03*
X364925000Y-128850000D03*
X364425000Y-127075000D03*
X361061000Y-163068000D03*
X364617000Y-163068000D03*
X359431830Y-120550000D03*
X359283000Y-163703000D03*
X358925000Y-119500000D03*
X361696000Y-162306000D03*
X358394000Y-162306000D03*
X358395498Y-120475000D03*
X357950000Y-123375000D03*
X359975000Y-161575000D03*
X354711000Y-161544000D03*
X337225000Y-161385000D03*
X358930000Y-142190000D03*
X337875000Y-162525000D03*
X359450000Y-142920000D03*
X338525000Y-158415000D03*
X359718087Y-145371830D03*
X339180000Y-159520000D03*
X360530000Y-145371830D03*
X339825000Y-161505000D03*
X362445024Y-142960161D03*
X340475000Y-162685000D03*
X362540000Y-145440000D03*
X341125000Y-158385000D03*
X363690000Y-145530000D03*
X341780000Y-159400000D03*
X363920093Y-146300081D03*
X342430000Y-161470000D03*
X364133642Y-142829181D03*
X343075000Y-162595000D03*
X364878490Y-142990000D03*
X343725000Y-158375000D03*
X367100569Y-145389962D03*
X344370000Y-159460000D03*
X367400000Y-146340000D03*
X345020000Y-161620000D03*
X367950002Y-142380000D03*
X345680000Y-162510000D03*
X368540000Y-142980000D03*
X346325000Y-158655000D03*
X368920000Y-145400000D03*
X346720000Y-159330000D03*
X369450000Y-146341830D03*
X399770000Y-166070000D03*
X406850000Y-164275000D03*
X335250000Y-177250000D03*
X329050000Y-175250000D03*
X328800000Y-179050000D03*
X335064946Y-178948306D03*
X362075000Y-174025000D03*
X363475000Y-207995000D03*
X338535000Y-188555000D03*
X376925000Y-188515000D03*
X377895000Y-207995000D03*
X364290000Y-204030000D03*
X336700000Y-192230000D03*
X339840000Y-188555000D03*
X364275000Y-207985000D03*
X336420000Y-193280000D03*
X378230000Y-188515000D03*
X378695000Y-207985000D03*
X365065000Y-207995000D03*
X341135000Y-188555000D03*
X379525000Y-188515000D03*
X379485000Y-207995000D03*
X365870000Y-203940000D03*
X340680000Y-192530000D03*
X342440000Y-188555000D03*
X365865000Y-207985000D03*
X338800000Y-192510000D03*
X380830000Y-188515000D03*
X380285000Y-207985000D03*
X366665000Y-207995000D03*
X344365000Y-188555000D03*
X382755000Y-188515000D03*
X381085000Y-207995000D03*
X367480000Y-203950000D03*
X344780000Y-192520000D03*
X345670000Y-188555000D03*
X367465000Y-207985000D03*
X344510000Y-193720000D03*
X384060000Y-188515000D03*
X381885000Y-207985000D03*
X368255000Y-207995000D03*
X346965000Y-188555000D03*
X385355000Y-188515000D03*
X382675000Y-207995000D03*
X369010000Y-203940000D03*
X348765000Y-192515000D03*
X348270000Y-188555000D03*
X369055000Y-207985000D03*
X348440000Y-193650000D03*
X386660000Y-188515000D03*
X383475000Y-207985000D03*
X370675000Y-207995000D03*
X350245000Y-188525000D03*
X388635000Y-188485000D03*
X385095000Y-207995000D03*
X371475000Y-203950000D03*
X352540000Y-192620000D03*
X391090000Y-192730000D03*
X386307680Y-203830000D03*
X351550000Y-188525000D03*
X371475000Y-207985000D03*
X352530000Y-193810000D03*
X389940000Y-188485000D03*
X385895000Y-207985000D03*
X390850000Y-193610000D03*
X372265000Y-207995000D03*
X352845000Y-188525000D03*
X391235000Y-188485000D03*
X386685000Y-207995000D03*
X373080000Y-203960000D03*
X356550000Y-192690000D03*
X393080000Y-192190000D03*
X387937680Y-203800000D03*
X354150000Y-188525000D03*
X373065000Y-207985000D03*
X354720000Y-192515000D03*
X392540000Y-188485000D03*
X394790000Y-194010000D03*
X387485000Y-207985000D03*
X373865000Y-207995000D03*
X356075000Y-188525000D03*
X394465000Y-188485000D03*
X388285000Y-207995000D03*
X360620000Y-192510000D03*
X374665000Y-203865000D03*
X399010000Y-192200000D03*
X389593840Y-203743840D03*
X357380000Y-188525000D03*
X360530000Y-193420000D03*
X374665000Y-207985000D03*
X395770000Y-188485000D03*
X389085000Y-207985000D03*
X398860000Y-194000000D03*
X358675000Y-188525000D03*
X375455000Y-207995000D03*
X397065000Y-188485000D03*
X389875000Y-207995000D03*
X376270000Y-203920000D03*
X365130000Y-192515000D03*
X359980000Y-188525000D03*
X376255000Y-207985000D03*
X364940000Y-193280000D03*
X398370000Y-188485000D03*
X390675000Y-207985000D03*
X365525000Y-128100000D03*
X369275000Y-131100000D03*
X364983006Y-123295985D03*
X364200000Y-123540000D03*
X370130000Y-135040000D03*
X322460000Y-139000000D03*
X370330000Y-145650006D03*
X372410000Y-134970000D03*
X322490000Y-136400000D03*
X371500000Y-146590000D03*
X322480000Y-131380000D03*
X356849998Y-124180000D03*
X355231892Y-123591830D03*
X322470000Y-128450000D03*
X393175000Y-161545000D03*
X379450000Y-146304000D03*
X393825000Y-159585000D03*
X379950000Y-142848170D03*
X394475000Y-161525000D03*
X380510000Y-145401830D03*
X395120000Y-159590000D03*
X381060000Y-142848170D03*
X395775000Y-161575000D03*
X381660000Y-145401830D03*
X396425000Y-159555000D03*
X382100000Y-142870000D03*
X398375000Y-161575000D03*
X402800000Y-162000000D03*
X400420000Y-163842320D03*
X361820000Y-172950000D03*
X347585000Y-187165000D03*
X371470000Y-185360000D03*
X343150000Y-184450000D03*
X333100000Y-185350000D03*
X335100000Y-180250000D03*
X362100000Y-172150000D03*
X364180000Y-188250000D03*
X354290000Y-164620000D03*
X400630000Y-154040000D03*
X381550000Y-184450000D03*
X400500000Y-172150000D03*
X373500000Y-178250000D03*
X337850000Y-176400000D03*
X402560000Y-188280000D03*
X402625000Y-177475000D03*
X406850000Y-178600000D03*
X364205000Y-183275000D03*
X337560000Y-196620000D03*
X333560000Y-196620000D03*
X341560000Y-196610000D03*
X345560000Y-196610000D03*
X339610000Y-196640000D03*
X335610000Y-196640000D03*
X343610000Y-196630000D03*
X347610000Y-196630000D03*
X353610000Y-196650000D03*
X355610000Y-196650000D03*
X349610000Y-196650000D03*
X357610000Y-196640000D03*
X359610000Y-196640000D03*
X361610000Y-196640000D03*
X363610000Y-196640000D03*
X351610000Y-196650000D03*
X376010000Y-196660000D03*
X378010000Y-196660000D03*
X388010000Y-196650000D03*
X372010000Y-196660000D03*
X396010000Y-196640000D03*
X400010000Y-196640000D03*
X398010000Y-196640000D03*
X394010000Y-196650000D03*
X380010000Y-196650000D03*
X382010000Y-196650000D03*
X384010000Y-196650000D03*
X386010000Y-196650000D03*
X374010000Y-196660000D03*
X392010000Y-196650000D03*
X390010000Y-196650000D03*
X402010000Y-196640000D03*
X350500000Y-173750000D03*
X372040000Y-189490000D03*
X388900000Y-178850000D03*
X388900000Y-173750000D03*
X333680000Y-189530000D03*
X369865000Y-207985000D03*
X384285000Y-207995000D03*
X384667680Y-203870000D03*
X349430000Y-188241000D03*
X387830000Y-188301000D03*
X395600000Y-176450000D03*
X395600000Y-178025000D03*
X395550000Y-181075000D03*
X357175000Y-176625000D03*
X357150000Y-178125000D03*
X357150000Y-181200000D03*
X335550000Y-170800000D03*
X361823000Y-160528000D03*
X371478000Y-170945000D03*
X387350000Y-161544000D03*
X367284000Y-160147000D03*
X369705000Y-155456000D03*
X356743000Y-130429000D03*
X366801000Y-130200000D03*
X369219000Y-132050000D03*
X376682000Y-130302000D03*
X379252000Y-132050000D03*
X377600000Y-136300000D03*
X377571000Y-133700000D03*
X389028000Y-139800000D03*
X379068000Y-139800000D03*
X379250000Y-137950000D03*
X369035000Y-139800000D03*
X369189000Y-137922000D03*
X361061000Y-134874000D03*
X360172000Y-135001000D03*
X367440000Y-136300000D03*
X367569000Y-133700000D03*
X348996000Y-132080000D03*
X347472000Y-133350000D03*
X347424000Y-136700000D03*
X348996000Y-138049000D03*
X374729000Y-136700000D03*
X374854000Y-133300000D03*
X384887000Y-133300000D03*
X384889000Y-136700000D03*
X364667000Y-133300000D03*
X364665000Y-136700000D03*
X354915000Y-133300000D03*
X408345000Y-110295000D03*
X400585000Y-101120000D03*
X356899991Y-136300000D03*
X356899991Y-133700000D03*
X356899991Y-140125000D03*
X360075000Y-114525000D03*
X354775000Y-115850000D03*
X353110000Y-102965000D03*
X363000000Y-116350000D03*
X353625000Y-109525000D03*
X353600000Y-111800000D03*
X361825000Y-109471000D03*
X361675000Y-111000000D03*
X361675000Y-113125000D03*
X366325000Y-106005000D03*
X366300000Y-107655000D03*
X366200000Y-109070000D03*
X369825000Y-107000000D03*
X378800000Y-115800000D03*
X371475000Y-110100000D03*
X376525000Y-111700000D03*
X384500000Y-105265000D03*
X390000000Y-103900000D03*
X379500000Y-109030000D03*
X381660000Y-111000000D03*
X382600000Y-113450000D03*
X434290000Y-156730000D03*
X429600000Y-156770000D03*
X386994000Y-130288170D03*
X349900000Y-121180000D03*
X329550000Y-105240000D03*
X329550000Y-107240000D03*
X329550000Y-109240000D03*
X329550000Y-111240000D03*
X329550000Y-113240000D03*
X329550000Y-115240000D03*
X329550000Y-117240000D03*
X329980000Y-129820000D03*
X329980000Y-132520000D03*
X329980000Y-135020000D03*
X329980000Y-140120000D03*
X434870000Y-139180000D03*
X425720000Y-139200000D03*
X376900000Y-116381830D03*
X329970000Y-137540000D03*
X409030000Y-157250000D03*
X353720000Y-120510000D03*
X356840000Y-120420000D03*
X375348170Y-163700000D03*
X337213914Y-163386087D03*
X332320000Y-166970000D03*
X332611000Y-172640000D03*
X335920000Y-174020000D03*
X332960000Y-174630000D03*
X332920000Y-175600000D03*
X335140000Y-183830000D03*
X364350000Y-177560000D03*
X364200000Y-175650000D03*
X371411000Y-167860000D03*
X373639000Y-173760000D03*
X371525000Y-174675000D03*
X371330000Y-175860000D03*
X373510000Y-183790000D03*
X402469000Y-185510000D03*
X400210000Y-183900000D03*
X402770000Y-182680000D03*
X402580000Y-176620000D03*
X402579000Y-175650000D03*
X402620000Y-171100000D03*
X399770000Y-161450000D03*
X333021000Y-162650000D03*
X335040000Y-168190000D03*
X371390000Y-162670000D03*
X364220000Y-176690000D03*
X360950000Y-123370000D03*
X365440000Y-124480000D03*
X372420000Y-123960000D03*
X371420000Y-124000000D03*
X369990000Y-124000002D03*
X374826000Y-123530000D03*
X376530000Y-124360000D03*
X248300000Y-120810000D03*
X256525000Y-120325000D03*
X258440000Y-122430000D03*
X244290000Y-133970000D03*
X256340000Y-135930000D03*
X247720000Y-135100000D03*
X256035000Y-156775000D03*
X247490000Y-156190000D03*
X248500000Y-167740000D03*
X256970000Y-167250000D03*
X258640000Y-169650000D03*
X256325000Y-178425000D03*
X254830000Y-182110000D03*
X248370000Y-189320000D03*
X256800000Y-188820000D03*
X258690000Y-191030000D03*
D27*
X235710000Y-189250000D03*
X236560000Y-167700000D03*
X236450000Y-120780000D03*
D28*
X250237500Y-197762500D03*
X377960000Y-146499986D03*
X466475000Y-113475000D03*
X464075000Y-103860000D03*
X471905000Y-103850000D03*
X466000000Y-116400000D03*
X247075000Y-177925000D03*
X252070000Y-177700000D03*
X362670000Y-208000000D03*
X392280000Y-205000000D03*
X392300000Y-206800000D03*
X365670000Y-177470000D03*
X346290000Y-161960000D03*
X378875000Y-186085000D03*
X340975000Y-185995000D03*
X367420000Y-184980000D03*
X366175000Y-110595000D03*
X364290000Y-185650000D03*
X357200000Y-184230000D03*
X395610000Y-184150000D03*
X379450000Y-110370000D03*
X359310000Y-109436000D03*
X364235000Y-172075000D03*
X362060000Y-171270000D03*
X364236000Y-170941966D03*
X402615000Y-172075000D03*
X400460000Y-171250000D03*
X384470000Y-161630000D03*
X333020000Y-177940000D03*
X335110000Y-178120000D03*
X335265000Y-181175000D03*
X371500000Y-177960000D03*
X373579000Y-181820000D03*
X373560000Y-180940000D03*
X373640000Y-180020000D03*
X335280000Y-182050000D03*
X350160000Y-158210000D03*
X348630000Y-158930000D03*
X386040000Y-163768170D03*
X374350000Y-149600000D03*
X377290000Y-203700000D03*
X377089998Y-208349998D03*
X369840002Y-203850000D03*
X385980000Y-110270000D03*
X376005000Y-102785000D03*
X369810000Y-108550000D03*
X379285000Y-102795000D03*
X382905000Y-115095000D03*
X349080000Y-108300000D03*
X354770000Y-102920000D03*
X409150000Y-169660000D03*
X360930000Y-142170000D03*
X449455000Y-149675000D03*
X362450000Y-146650000D03*
X364360000Y-141970000D03*
X374226708Y-142653045D03*
X438438170Y-147315000D03*
X243700000Y-109460000D03*
X251550000Y-109510000D03*
X267650000Y-109450000D03*
X284150000Y-109530000D03*
X292160000Y-109560000D03*
X299830000Y-109520000D03*
X307940000Y-109510000D03*
X338845000Y-150115000D03*
X341645000Y-150535000D03*
X340900000Y-145930000D03*
X429850000Y-153020000D03*
X386420000Y-186770000D03*
X453375000Y-150975000D03*
X447900000Y-153200000D03*
X350450000Y-178900000D03*
X326905000Y-167195000D03*
X376805000Y-176365000D03*
X353975000Y-135525000D03*
D27*
X293950000Y-178250000D03*
X281355000Y-176800000D03*
X293550000Y-134250000D03*
X281400000Y-130855000D03*
X281355000Y-158800000D03*
X294250000Y-162250000D03*
D28*
X335925000Y-188079510D03*
X374325000Y-188079510D03*
X348940000Y-161630000D03*
X386025000Y-159425000D03*
D27*
X255000000Y-152700000D03*
X283000000Y-152600000D03*
X292000000Y-152700000D03*
D28*
X373500000Y-185725000D03*
X400375000Y-181825000D03*
X395479000Y-185675000D03*
X381650000Y-108000000D03*
X390475000Y-108000000D03*
X381675000Y-107000000D03*
X395600000Y-174975000D03*
X392975000Y-107000000D03*
X430650000Y-137980000D03*
X433450000Y-141980000D03*
X359300000Y-108000000D03*
X352125000Y-110700000D03*
X348450000Y-185750000D03*
X407575000Y-206925000D03*
X407250000Y-112625000D03*
X354040000Y-124040000D03*
X299220000Y-120430000D03*
X354460000Y-123390000D03*
X307210000Y-119790000D03*
X369220000Y-116620000D03*
X291290000Y-118620000D03*
X377550253Y-142882034D03*
X370800000Y-116370000D03*
X283232491Y-117877509D03*
X377940000Y-142190000D03*
X399770000Y-164330000D03*
X408100000Y-163675000D03*
X388874000Y-168783000D03*
X388112000Y-141121830D03*
X386831839Y-167502839D03*
X384358598Y-140819337D03*
X387985000Y-168148000D03*
X385270685Y-140819337D03*
X376500000Y-170125000D03*
X383349500Y-139128500D03*
X384810000Y-162941000D03*
X381000000Y-140080998D03*
X381127000Y-164338000D03*
X382025000Y-139183000D03*
X382618161Y-155288161D03*
X373201830Y-159131000D03*
X383274339Y-162167339D03*
X399025000Y-162170000D03*
X383286000Y-140819337D03*
X377582844Y-164757835D03*
X380725000Y-139171000D03*
X379984000Y-168910000D03*
X381550000Y-112000000D03*
X361650000Y-112000000D03*
X381600000Y-108780000D03*
X374980000Y-188510000D03*
X399925000Y-178125000D03*
X399995000Y-176595000D03*
X403000000Y-180800000D03*
X400450000Y-185225000D03*
X395607000Y-187200000D03*
X379425000Y-107500000D03*
X390000000Y-109125000D03*
X374850000Y-105850000D03*
X395625000Y-173175000D03*
X394000000Y-105850000D03*
X373850000Y-107500000D03*
X392043161Y-109643161D03*
X395625000Y-179575000D03*
X375950000Y-108000000D03*
X395550000Y-182625000D03*
X379350000Y-182625000D03*
X429350000Y-138020000D03*
X427745000Y-141975000D03*
X361870000Y-185070000D03*
X358675000Y-107475000D03*
X357350000Y-187300000D03*
X357025000Y-107800000D03*
X353625000Y-173550000D03*
X400375000Y-187025000D03*
X361575000Y-182700000D03*
X361525000Y-180450000D03*
X361850000Y-189787680D03*
X361975000Y-187025000D03*
X377063000Y-172085000D03*
X376260117Y-139740883D03*
X374781839Y-171445161D03*
X373989371Y-139771886D03*
X375818161Y-170789839D03*
X375412000Y-141138397D03*
X373943161Y-169489839D03*
X373332334Y-140270542D03*
X370675000Y-139522320D03*
X370900000Y-167200000D03*
X371425000Y-166225000D03*
X372025000Y-139900000D03*
X372675000Y-139350000D03*
X373400004Y-165575000D03*
X445330000Y-151470000D03*
X357790000Y-150160000D03*
X356810000Y-150910000D03*
X452150000Y-152130000D03*
X335100000Y-185725000D03*
X336580000Y-188550000D03*
X361975000Y-181825000D03*
X361525000Y-178125000D03*
X361595000Y-176595000D03*
X364800000Y-182700000D03*
X359550000Y-106875000D03*
X351425000Y-106875000D03*
X344325000Y-175050000D03*
X357200000Y-175075000D03*
X353300000Y-107500000D03*
X351450000Y-179675000D03*
X355925000Y-108000000D03*
X352875000Y-182700000D03*
X362000000Y-175075000D03*
X364450000Y-166225000D03*
X364530000Y-167420000D03*
X361940000Y-166120000D03*
X368450000Y-164300000D03*
X361940000Y-164380000D03*
X369700000Y-163675000D03*
X368550000Y-175950000D03*
X373625000Y-177275000D03*
X373700000Y-179150000D03*
X368500000Y-179700000D03*
X355275000Y-139502000D03*
X338455000Y-171958000D03*
X337947000Y-142875000D03*
X353950000Y-139250000D03*
X332740000Y-171450000D03*
X334391000Y-138938000D03*
X354625000Y-140294000D03*
X336550000Y-142113000D03*
X336232501Y-170116501D03*
X331125000Y-170150000D03*
X353325000Y-140324000D03*
X335153000Y-169439500D03*
X335661000Y-141478000D03*
X337016000Y-168825000D03*
X337058000Y-144145000D03*
X360553000Y-139192000D03*
X335125010Y-166875000D03*
X335100000Y-139775000D03*
X349450000Y-139775000D03*
X332250000Y-140325004D03*
X331824990Y-166225000D03*
X352044000Y-139700000D03*
X352298000Y-140462000D03*
X334137000Y-141478000D03*
X332900000Y-165575000D03*
X332350000Y-164925000D03*
X349504000Y-144907000D03*
X349500000Y-164275000D03*
X336804000Y-157861000D03*
X361188000Y-140208000D03*
X362525004Y-157300000D03*
X362450000Y-140200000D03*
X363817155Y-158205949D03*
X364625000Y-162275000D03*
X363516098Y-140861830D03*
X362000000Y-167525000D03*
X364391099Y-139783903D03*
X360450000Y-169684011D03*
X365930000Y-140500000D03*
X366050000Y-139550000D03*
X361708120Y-169686939D03*
X362625000Y-135350000D03*
X364000000Y-155780000D03*
X363400000Y-135375000D03*
X365357499Y-155081839D03*
X356900000Y-138019000D03*
X366933000Y-138019000D03*
X376839000Y-138019000D03*
X386872000Y-138019000D03*
X408510000Y-112535000D03*
X404275000Y-158875000D03*
X359960000Y-139870000D03*
X379430000Y-111500000D03*
X409150000Y-165220000D03*
X469725000Y-113450000D03*
D27*
X413475000Y-112825000D03*
D28*
X364363669Y-157275000D03*
X371390000Y-136300000D03*
X351390000Y-136700000D03*
X327045000Y-165145000D03*
X335100000Y-176327680D03*
X333100000Y-163600000D03*
X362100000Y-170400000D03*
X373500000Y-176327680D03*
X400500000Y-170400000D03*
X351250000Y-126220000D03*
X351230000Y-127400000D03*
X322870000Y-116340000D03*
D27*
X257165000Y-118275000D03*
D28*
X371490000Y-163590000D03*
D27*
X281355000Y-127100000D03*
X293550000Y-127750000D03*
X337490000Y-170820000D03*
X368040000Y-170830000D03*
D28*
X359220000Y-110910000D03*
D29*
X363060000Y-124090000D02*
X363060000Y-121580000D01*
X363060000Y-121580000D02*
X364659996Y-119980004D01*
X364659996Y-119980004D02*
X397211975Y-119980004D01*
X397211975Y-119980004D02*
X398110000Y-119980004D01*
X369470000Y-142080000D02*
X369470000Y-142080000D01*
X398110000Y-144540000D02*
X440140000Y-144540000D01*
X440140000Y-144540000D02*
X445920000Y-150320000D01*
X445920000Y-150320000D02*
X445920000Y-150320000D01*
X374298831Y-146241169D02*
X374298831Y-145792157D01*
X374298831Y-145792157D02*
X370586674Y-142080000D01*
X369919012Y-142080000D02*
X369470000Y-142080000D01*
X370586674Y-142080000D02*
X369919012Y-142080000D01*
X397972999Y-148337001D02*
X376394663Y-148337001D01*
X376394663Y-148337001D02*
X374298831Y-146241169D01*
X398110000Y-148200000D02*
X397972999Y-148337001D01*
D30*
X380626879Y-145920000D02*
X379673918Y-146872961D01*
X379176482Y-146872961D02*
X377853521Y-145550000D01*
X375889012Y-145550000D02*
X375440000Y-145550000D01*
X419170000Y-145920000D02*
X380626879Y-145920000D01*
X379673918Y-146872961D02*
X379176482Y-146872961D01*
X377853521Y-145550000D02*
X375889012Y-145550000D01*
X419730000Y-146480000D02*
X419170000Y-145920000D01*
X414788161Y-143388161D02*
X414788161Y-143388161D01*
X414788161Y-143388161D02*
X414788161Y-143388161D01*
X377798971Y-143400195D02*
X373637868Y-143400195D01*
X377811005Y-143388161D02*
X377798971Y-143400195D01*
X373637868Y-143400195D02*
X373510669Y-143272996D01*
X373510669Y-143272996D02*
X373193170Y-142955497D01*
X414788161Y-143388161D02*
X377811005Y-143388161D01*
X373510669Y-146887499D02*
X373193170Y-146570000D01*
X376183170Y-149560000D02*
X373510669Y-146887499D01*
X408240000Y-147775661D02*
X406455661Y-149560000D01*
X406455661Y-149560000D02*
X376183170Y-149560000D01*
X468500000Y-119100000D02*
X468500000Y-119100000D01*
X466800000Y-117400000D02*
X368199998Y-117400000D01*
X468500000Y-119100000D02*
X466800000Y-117400000D01*
X467700000Y-142970000D02*
X467700000Y-142970000D01*
X375853830Y-142282501D02*
X375536331Y-142600000D01*
X376496331Y-141640000D02*
X375853830Y-142282501D01*
X417040000Y-141640000D02*
X376496331Y-141640000D01*
X418600000Y-143200000D02*
X417040000Y-141640000D01*
X467470000Y-143200000D02*
X418600000Y-143200000D01*
X467700000Y-142970000D02*
X467470000Y-143200000D01*
D31*
X166500000Y-103590000D02*
X165240000Y-102330000D01*
X166500000Y-105810000D02*
X166500000Y-103590000D01*
X165310000Y-107000000D02*
X166500000Y-105810000D01*
X182900000Y-208610000D02*
X165310000Y-191020000D01*
X165310000Y-191020000D02*
X165310000Y-107000000D01*
X361130000Y-208610000D02*
X182900000Y-208610000D01*
X361740000Y-208000000D02*
X361130000Y-208610000D01*
X362122501Y-203647969D02*
X362440000Y-203965468D01*
X361923031Y-203448499D02*
X362122501Y-203647969D01*
X360278710Y-203965468D02*
X360795679Y-203448499D01*
X185805468Y-203965468D02*
X360278710Y-203965468D01*
X173140000Y-191300000D02*
X185805468Y-203965468D01*
X360795679Y-203448499D02*
X361923031Y-203448499D01*
X173140000Y-105240000D02*
X173140000Y-191300000D01*
X170240000Y-102340000D02*
X173140000Y-105240000D01*
D29*
X328634999Y-190365001D02*
X328000000Y-191000000D01*
X332000000Y-187000000D02*
X328634999Y-190365001D01*
X337500000Y-187000000D02*
X332000000Y-187000000D01*
X371500000Y-187000000D02*
X368134999Y-190365001D01*
X375500000Y-187000000D02*
X371500000Y-187000000D01*
X368134999Y-190365001D02*
X367500000Y-191000000D01*
D30*
X359625000Y-120550000D02*
X359625000Y-120550000D01*
X361510012Y-163068000D02*
X364617000Y-163068000D01*
X361061000Y-163068000D02*
X361510012Y-163068000D01*
X359000000Y-119525000D02*
X359000000Y-119525000D01*
X358394000Y-162306000D02*
X361696000Y-162306000D01*
X359944000Y-161544000D02*
X359975000Y-161575000D01*
X354711000Y-161544000D02*
X359944000Y-161544000D01*
X364275000Y-207535988D02*
X364275000Y-207985000D01*
X364275000Y-205028121D02*
X364275000Y-207535988D01*
X362336879Y-203090000D02*
X364275000Y-205028121D01*
X338270000Y-203090000D02*
X362336879Y-203090000D01*
X336420000Y-201240000D02*
X338270000Y-203090000D01*
X336420000Y-193280000D02*
X336420000Y-201240000D01*
X365547501Y-207667501D02*
X365865000Y-207985000D01*
X365351839Y-203901839D02*
X365351839Y-207471839D01*
X364050000Y-202600000D02*
X365351839Y-203901839D01*
X344140000Y-202600000D02*
X364050000Y-202600000D01*
X365351839Y-207471839D02*
X365547501Y-207667501D01*
X340820000Y-199280000D02*
X344140000Y-202600000D01*
X340820000Y-194530000D02*
X340820000Y-199280000D01*
X338800000Y-192510000D02*
X340820000Y-194530000D01*
X366790000Y-202910000D02*
X366790000Y-207310000D01*
X365790000Y-201910000D02*
X366790000Y-202910000D01*
X347850000Y-201910000D02*
X365790000Y-201910000D01*
X344510000Y-198570000D02*
X347850000Y-201910000D01*
X366790000Y-207310000D02*
X367465000Y-207985000D01*
X344510000Y-193720000D02*
X344510000Y-198570000D01*
X368240000Y-207170000D02*
X369055000Y-207985000D01*
X366410000Y-201110000D02*
X368240000Y-202940000D01*
X350450000Y-201110000D02*
X366410000Y-201110000D01*
X368240000Y-202940000D02*
X368240000Y-207170000D01*
X348440000Y-199100000D02*
X350450000Y-201110000D01*
X348440000Y-193650000D02*
X348440000Y-199100000D01*
X371157501Y-207667501D02*
X371475000Y-207985000D01*
X367376879Y-200570000D02*
X370418161Y-203611282D01*
X370418161Y-206928161D02*
X371157501Y-207667501D01*
X355030000Y-200570000D02*
X367376879Y-200570000D01*
X352530000Y-198070000D02*
X355030000Y-200570000D01*
X370418161Y-203611282D02*
X370418161Y-206928161D01*
X352530000Y-193810000D02*
X352530000Y-198070000D01*
X390850000Y-193610000D02*
X390850000Y-199310000D01*
X390850000Y-199310000D02*
X386960000Y-203200000D01*
X386960000Y-206920000D02*
X385895000Y-207985000D01*
X386960000Y-203200000D02*
X386960000Y-206920000D01*
X356550000Y-197670000D02*
X356550000Y-194345000D01*
X358780000Y-199900000D02*
X356550000Y-197670000D01*
X369020000Y-199900000D02*
X358780000Y-199900000D01*
X356550000Y-194345000D02*
X354720000Y-192515000D01*
X372340000Y-203220000D02*
X369020000Y-199900000D01*
X372340000Y-207260000D02*
X372340000Y-203220000D01*
X373065000Y-207985000D02*
X372340000Y-207260000D01*
X394790000Y-194010000D02*
X394790000Y-196950000D01*
X394790000Y-196950000D02*
X388580000Y-203160000D01*
X388580000Y-206890000D02*
X387485000Y-207985000D01*
X388580000Y-203160000D02*
X388580000Y-206890000D01*
X374665000Y-207985000D02*
X373980000Y-207300000D01*
X373980000Y-207300000D02*
X373980000Y-203180000D01*
X373980000Y-203180000D02*
X369860000Y-199060000D01*
X369860000Y-199060000D02*
X361890000Y-199060000D01*
X360530000Y-197700000D02*
X360530000Y-193420000D01*
X361890000Y-199060000D02*
X360530000Y-197700000D01*
X389085000Y-207985000D02*
X390440000Y-206630000D01*
X390440000Y-206630000D02*
X390440000Y-202910000D01*
X390440000Y-202910000D02*
X395660000Y-197690000D01*
X395660000Y-197690000D02*
X397940000Y-197690000D01*
X397940000Y-197690000D02*
X398860000Y-196770000D01*
X398860000Y-196770000D02*
X398860000Y-194000000D01*
X398860000Y-194000000D02*
X398860000Y-194000000D01*
X376255000Y-207985000D02*
X375470000Y-207200000D01*
X375470000Y-207200000D02*
X375470000Y-202860000D01*
X365890000Y-193280000D02*
X364940000Y-193280000D01*
X375470000Y-202860000D02*
X365890000Y-193280000D01*
X365558121Y-135040000D02*
X363097282Y-137500839D01*
X370130000Y-135040000D02*
X365558121Y-135040000D01*
X322460000Y-139000000D02*
X322460000Y-139000000D01*
X363097282Y-137500839D02*
X332859161Y-137500839D01*
X332859161Y-137500839D02*
X331360000Y-139000000D01*
X331360000Y-139000000D02*
X322460000Y-139000000D01*
X372410000Y-134970000D02*
X371795839Y-134355839D01*
X322490000Y-136400000D02*
X322490000Y-136400000D01*
X371795839Y-134355839D02*
X334424161Y-134355839D01*
X332380000Y-136400000D02*
X322490000Y-136400000D01*
X334424161Y-134355839D02*
X332380000Y-136400000D01*
X322480000Y-131380000D02*
X322480000Y-131380000D01*
X349650000Y-131380000D02*
X349900000Y-131130000D01*
X322480000Y-131380000D02*
X349650000Y-131380000D01*
X349649998Y-131380000D02*
X349900000Y-131130000D01*
X356532499Y-124497499D02*
X356849998Y-124180000D01*
X349900000Y-131130000D02*
X356532499Y-124497499D01*
X355549391Y-124620168D02*
X351719559Y-128450000D01*
X355549391Y-123909329D02*
X355549391Y-124620168D01*
X355231892Y-123591830D02*
X355549391Y-123909329D01*
X351719559Y-128450000D02*
X322470000Y-128450000D01*
X322470000Y-128450000D02*
X322470000Y-128450000D01*
D29*
X347140000Y-166290000D02*
X347140000Y-166290000D01*
X325001169Y-152700000D02*
X338591169Y-166290000D01*
X255000000Y-152700000D02*
X292000000Y-152700000D01*
X338591169Y-166290000D02*
X347140000Y-166290000D01*
X347140000Y-163430000D02*
X348940000Y-161630000D01*
X347140000Y-166290000D02*
X347140000Y-163430000D01*
X292000000Y-152700000D02*
X325001169Y-152700000D01*
X349454501Y-168604501D02*
X367900739Y-168604501D01*
X368798239Y-169502001D02*
X372333337Y-169502001D01*
X347140000Y-166290000D02*
X349454501Y-168604501D01*
X367900739Y-168604501D02*
X368798239Y-169502001D01*
X385575988Y-159425000D02*
X386025000Y-159425000D01*
X372333337Y-169502001D02*
X375830837Y-166004501D01*
X375830837Y-166004501D02*
X377862837Y-166004501D01*
X377862837Y-166004501D02*
X384442338Y-159425000D01*
X384442338Y-159425000D02*
X385575988Y-159425000D01*
D30*
X382099012Y-108000000D02*
X381650000Y-108000000D01*
X390475000Y-108000000D02*
X382099012Y-108000000D01*
X381675000Y-107000000D02*
X392975000Y-107000000D01*
X392975000Y-107000000D02*
X392975000Y-107000000D01*
X356600000Y-110700000D02*
X359300000Y-108000000D01*
X352125000Y-110700000D02*
X356600000Y-110700000D01*
X407575000Y-206925000D02*
X407575000Y-206925000D01*
X354040000Y-123736879D02*
X350733121Y-120430000D01*
X354040000Y-124040000D02*
X354040000Y-123736879D01*
X350733121Y-120430000D02*
X299220000Y-120430000D01*
X299220000Y-120430000D02*
X299220000Y-120430000D01*
X354460000Y-122940988D02*
X351309012Y-119790000D01*
X354460000Y-123390000D02*
X354460000Y-122940988D01*
X351309012Y-119790000D02*
X307210000Y-119790000D01*
X307210000Y-119790000D02*
X307210000Y-119790000D01*
X364710000Y-118620000D02*
X291290000Y-118620000D01*
X366710000Y-116620000D02*
X364710000Y-118620000D01*
X369220000Y-116620000D02*
X366710000Y-116620000D01*
X291290000Y-118620000D02*
X291191839Y-118620000D01*
X370482501Y-116052501D02*
X365047499Y-116052501D01*
X370800000Y-116370000D02*
X370482501Y-116052501D01*
X363222491Y-117877509D02*
X283232491Y-117877509D01*
X365047499Y-116052501D02*
X363222491Y-117877509D01*
X283232491Y-117877509D02*
X283232491Y-117877509D01*
X382618161Y-155288161D02*
X378775322Y-159131000D01*
X378775322Y-159131000D02*
X373201830Y-159131000D01*
X399022339Y-162167339D02*
X399025000Y-162170000D01*
X383274339Y-162167339D02*
X399022339Y-162167339D01*
X381232501Y-112317499D02*
X381550000Y-112000000D01*
X380556839Y-112993161D02*
X381232501Y-112317499D01*
X362643161Y-112993161D02*
X380556839Y-112993161D01*
X361650000Y-112000000D02*
X362643161Y-112993161D01*
X390000000Y-109125000D02*
X390000000Y-109125000D01*
X389815000Y-109310000D02*
X390000000Y-109125000D01*
X381235000Y-109310000D02*
X389815000Y-109310000D01*
X379425000Y-107500000D02*
X381235000Y-109310000D01*
X374850000Y-105850000D02*
X394000000Y-105850000D01*
X394000000Y-105850000D02*
X394000000Y-105850000D01*
X375993161Y-109643161D02*
X392043161Y-109643161D01*
X373850000Y-107500000D02*
X375993161Y-109643161D01*
X392043161Y-109643161D02*
X392043161Y-109643161D01*
X379350000Y-182625000D02*
X395550000Y-182625000D01*
D29*
X216370000Y-144830000D02*
X216400000Y-144860000D01*
X213441600Y-144690000D02*
X218910000Y-144690000D01*
X218910000Y-144690000D02*
X222030000Y-147810000D01*
X222030000Y-147810000D02*
X225220000Y-147810000D01*
X213441600Y-147245400D02*
X218315400Y-147245400D01*
X218315400Y-147245400D02*
X223550000Y-152480000D01*
X223550000Y-152480000D02*
X225220000Y-152480000D01*
D30*
X445330000Y-151470000D02*
X445330000Y-151470000D01*
X357790000Y-150160000D02*
X400363221Y-150160000D01*
X400363221Y-150160000D02*
X400368882Y-150154339D01*
X444014339Y-150154339D02*
X445330000Y-151470000D01*
X400368882Y-150154339D02*
X444014339Y-150154339D01*
X452150000Y-152130000D02*
X452150000Y-152130000D01*
X444830000Y-152130000D02*
X452150000Y-152130000D01*
X358030000Y-152130000D02*
X444830000Y-152130000D01*
X356810000Y-150910000D02*
X358030000Y-152130000D01*
X359550000Y-106875000D02*
X351425000Y-106875000D01*
X351425000Y-106875000D02*
X351425000Y-106875000D01*
X357175000Y-175050000D02*
X357200000Y-175075000D01*
X344325000Y-175050000D02*
X357175000Y-175050000D01*
X352810879Y-142875000D02*
X337947000Y-142875000D01*
X355275000Y-140410879D02*
X352810879Y-142875000D01*
X355275000Y-139502000D02*
X355275000Y-140410879D01*
X353950000Y-139250000D02*
X353950000Y-139250000D01*
X353632501Y-138932501D02*
X353950000Y-139250000D01*
X334391000Y-138938000D02*
X353632501Y-138932501D01*
X354625000Y-140294000D02*
X352806000Y-142113000D01*
X352806000Y-142113000D02*
X336550000Y-142113000D01*
X336550000Y-142113000D02*
X336550000Y-142113000D01*
X353325000Y-140324000D02*
X352171000Y-141478000D01*
X352171000Y-141478000D02*
X335661000Y-141478000D01*
X335661000Y-141478000D02*
X335661000Y-141478000D01*
X337058000Y-144145000D02*
X337058000Y-144145000D01*
X356997000Y-139192000D02*
X352044000Y-144145000D01*
X352044000Y-144145000D02*
X337058000Y-144145000D01*
X360553000Y-139192000D02*
X356997000Y-139192000D01*
X335100000Y-139775000D02*
X335100000Y-139775000D01*
X349450000Y-139775000D02*
X335100000Y-139775000D01*
X334150000Y-140325000D02*
X334150000Y-140325000D01*
X332250000Y-140325004D02*
X351418996Y-140325004D01*
X351418996Y-140325004D02*
X352044000Y-139700000D01*
X334137000Y-141478000D02*
X334137000Y-141478000D01*
X334899000Y-140716000D02*
X334137000Y-141478000D01*
X352044000Y-140716000D02*
X334899000Y-140716000D01*
X352298000Y-140462000D02*
X352044000Y-140716000D01*
X337365000Y-157300000D02*
X362525004Y-157300000D01*
X336804000Y-157861000D02*
X337365000Y-157300000D01*
X363575000Y-141000000D02*
X363575000Y-141000000D01*
D29*
X468465001Y-112190001D02*
X469407501Y-113132501D01*
X469407501Y-113132501D02*
X469725000Y-113450000D01*
X414109999Y-112190001D02*
X468465001Y-112190001D01*
X413475000Y-112825000D02*
X414109999Y-112190001D01*
X372500000Y-162182338D02*
X372500000Y-163500000D01*
X367592662Y-157275000D02*
X372500000Y-162182338D01*
X364363669Y-157275000D02*
X367592662Y-157275000D01*
D31*
X372029012Y-163500000D02*
X372500000Y-163500000D01*
X371939012Y-163590000D02*
X372029012Y-163500000D01*
X371490000Y-163590000D02*
X371939012Y-163590000D01*
D29*
X372800499Y-175858161D02*
X373137837Y-176195499D01*
X372800499Y-174600499D02*
X372800499Y-175858161D01*
X372559499Y-174359499D02*
X372800499Y-174600499D01*
X372559499Y-173599499D02*
X372559499Y-174359499D01*
X370424999Y-171464999D02*
X372559499Y-173599499D01*
X368674999Y-171464999D02*
X370424999Y-171464999D01*
X368040000Y-170830000D02*
X368674999Y-171464999D01*
X336999501Y-171310499D02*
X336999501Y-175570499D01*
X337490000Y-170820000D02*
X336999501Y-171310499D01*
X336999501Y-175570499D02*
X336230000Y-176340000D01*
D31*
X336217680Y-176327680D02*
X336230000Y-176340000D01*
X335100000Y-176327680D02*
X336217680Y-176327680D01*
M02*
