M48
; DRILL file {KiCad 5.1.10-88a1d61d58~88~ubuntu18.04.1} date Fri Aug 13 15:16:07 2021
; FORMAT={-:-/ absolute / inch / decimal}
; #@! TF.CreationDate,2021-08-13T15:16:07-04:00
; #@! TF.GenerationSoftware,Kicad,Pcbnew,5.1.10-88a1d61d58~88~ubuntu18.04.1
; #@! TF.FileFunction,Plated,1,6,PTH
FMAT,2
INCH
T1C0.0100
T2C0.0200
T3C0.0276
T4C0.0315
T5C0.0335
T6C0.0354
T7C0.0374
T8C0.0394
T9C0.0400
T10C0.0413
T11C0.0752
%
G90
G05
T1
X7.9203Y-4.3435
X8.2913Y-4.4528
X9.5945Y-4.3094
X9.6177Y-5.2744
X9.7274Y-7.0049
X9.7437Y-6.1492
X9.7528Y-5.3189
X9.7756Y-4.7563
X9.7783Y-7.4535
X9.7835Y-6.6039
X9.8519Y-7.7859
X9.9035Y-4.3114
X9.924Y-6.9961
X10.0327Y-7.1697
X10.0801Y-6.1722
X10.0915Y-7.0246
X10.0921Y-5.3516
X10.0994Y-4.7372
X10.1102Y-7.4339
X10.1169Y-6.5846
X10.1748Y-4.8201
X10.1827Y-6.6791
X10.1846Y-7.5209
X10.5374Y-4.3091
X11.1509Y-4.6408
X11.187Y-4.3122
X11.4681Y-4.6701
X11.5024Y-4.3134
X11.7803Y-4.7413
X11.8043Y-4.3118
X12.0949Y-4.7161
X12.1236Y-4.3114
X12.6953Y-5.4724
X12.6957Y-5.0571
X12.6961Y-5.1724
X12.6965Y-5.3701
X12.7114Y-4.5803
X12.8703Y-6.5825
X12.8758Y-6.5018
X12.9449Y-7.0492
X12.9547Y-6.8996
X12.9744Y-4.1433
X12.9744Y-4.222
X12.9744Y-4.3008
X12.9744Y-4.3795
X12.9744Y-4.4583
X12.9744Y-4.537
X12.9744Y-4.6157
X12.9909Y-5.415
X12.9913Y-5.111
X12.9913Y-5.2173
X12.9913Y-5.3157
X12.9913Y-5.5165
X13.0364Y-6.6988
X13.064Y-6.5443
X13.0807Y-5.5246
X13.0835Y-6.5736
X13.0846Y-6.4931
X13.0949Y-6.7969
X13.1Y-6.75
X13.1063Y-6.5187
X13.1071Y-6.9134
X13.1087Y-6.8752
X13.1102Y-7.1662
X13.1102Y-7.2275
X13.111Y-7.0055
X13.1111Y-6.4035
X13.1142Y-6.4409
X13.1142Y-7.2972
X13.1323Y-7.7409
X13.137Y-7.4618
X13.155Y-5.57
X13.165Y-5.47
X13.1906Y-6.6217
X13.1909Y-6.9035
X13.1915Y-7.0452
X13.1929Y-5.503
X13.1929Y-6.942
X13.1929Y-7.0965
X13.1929Y-7.312
X13.1933Y-7.0126
X13.1939Y-6.5699
X13.1945Y-7.2374
X13.195Y-6.6708
X13.1988Y-6.9783
X13.1994Y-7.1329
X13.2Y-7.1673
X13.2008Y-6.8012
X13.2106Y-6.7244
X13.213Y-7.7417
X13.215Y-5.57
X13.2252Y-6.8512
X13.2254Y-7.4047
X13.2375Y-6.6975
X13.2449Y-7.6094
X13.25Y-5.595
X13.2512Y-7.4232
X13.2559Y-7.5681
X13.26Y-6.215
X13.2683Y-6.6467
X13.27Y-5.675
X13.2761Y-6.4325
X13.2766Y-6.3537
X13.2898Y-7.7409
X13.3012Y-6.9449
X13.3022Y-6.3986
X13.305Y-5.625
X13.325Y-6.77
X13.3278Y-6.2368
X13.3281Y-7.4234
X13.3386Y-7.5791
X13.3404Y-5.91
X13.3535Y-6.2803
X13.3705Y-7.7417
X13.3789Y-6.3585
X13.3795Y-7.4234
X13.4045Y-6.4049
X13.4126Y-7.5799
X13.4209Y-5.6988
X13.4213Y-5.7453
X13.4242Y-7.3226
X13.4301Y-6.2356
X13.4305Y-7.4234
X13.4472Y-7.7406
X13.4506Y-5.9266
X13.4559Y-6.2756
X13.4815Y-6.3571
X13.4819Y-7.4234
X13.5069Y-6.4014
X13.5098Y-7.2618
X13.5208Y-7.4213
X13.528Y-7.7413
X13.5325Y-6.2352
X13.5441Y-5.8409
X13.5561Y-6.8917
X13.5577Y-7.4234
X13.5579Y-6.278
X13.5634Y-7.6268
X13.574Y-7.5795
X13.5835Y-6.363
X13.6047Y-7.7406
X13.6091Y-7.4234
X13.6094Y-6.398
X13.6335Y-6.3764
X13.6348Y-6.2463
X13.6496Y-6.8386
X13.6496Y-7.0433
X13.6504Y-6.2728
X13.66Y-7.4234
X13.6781Y-5.3819
X13.68Y-5.25
X13.6844Y-7.3687
X13.6854Y-7.7413
X13.7114Y-7.4234
X13.7181Y-7.624
X13.7185Y-7.313
X13.7256Y-6.2571
X13.7309Y-7.5793
X13.7378Y-6.3634
X13.74Y-5.2
X13.74Y-5.435
X13.7433Y-4.2638
X13.7571Y-7.4111
X13.7579Y-5.503
X13.7598Y-6.4675
X13.76Y-5.705
X13.7642Y-7.7421
X13.7756Y-4.7709
X13.7858Y-6.2287
X13.7892Y-7.4222
X13.7972Y-7.0433
X13.7992Y-6.8406
X13.828Y-5.0157
X13.8287Y-4.9693
X13.8343Y-5.3819
X13.8356Y-4.2077
X13.8366Y-7.0738
X13.8366Y-7.3691
X13.837Y-5.248
X13.8406Y-7.4222
X13.8429Y-7.7421
X13.86Y-5.5
X13.8632Y-4.3583
X13.8681Y-6.3906
X13.87Y-5.53
X13.8791Y-7.6303
X13.8795Y-7.5835
X13.8915Y-7.4222
X13.8927Y-7.1929
X13.902Y-4.0537
X13.9094Y-4.2323
X13.9104Y-5.5246
X13.9213Y-4.4016
X13.9217Y-7.7421
X13.9222Y-4.312
X13.9222Y-6.8327
X13.926Y-4.7445
X13.9262Y-4.4418
X13.935Y-5.4823
X13.936Y-5.3356
X13.9386Y-4.8835
X13.9429Y-7.4222
X13.9453Y-5.0228
X13.9484Y-6.4811
X13.9551Y-4.8579
X13.9616Y-5.5234
X13.965Y-6.36
X13.9654Y-7.5793
X13.9666Y-4.9075
X13.9673Y-4.052
X13.9675Y-4.561
X13.973Y-5.248
X13.9855Y-4.8658
X13.9872Y-5.4922
X14.0004Y-7.7421
X14.0128Y-4.252
X14.0187Y-7.4222
X14.0374Y-7.5862
X14.045Y-5.135
X14.0476Y-5.9413
X14.0488Y-4.7409
X14.0492Y-4.889
X14.0512Y-5.2638
X14.0512Y-5.3661
X14.0512Y-5.5167
X14.0512Y-5.1988
X14.0512Y-5.4338
X14.0552Y-6.3826
X14.0561Y-4.2441
X14.061Y-7.0128
X14.061Y-7.1339
X14.062Y-6.9537
X14.063Y-6.8927
X14.063Y-7.2531
X14.0689Y-7.374
X14.0701Y-7.4222
X14.0791Y-7.7417
X14.0862Y-5.9118
X14.0866Y-6.5169
X14.0925Y-4.8573
X14.11Y-6.39
X14.1101Y-4.7431
X14.1211Y-4.2313
X14.1211Y-7.4222
X14.1309Y-4.7047
X14.1311Y-5.598
X14.1425Y-4.3665
X14.145Y-6.445
X14.1457Y-4.252
X14.1461Y-4.3085
X14.1509Y-4.7461
X14.1516Y-5.6268
X14.1555Y-4.2077
X14.1579Y-7.7417
X14.1621Y-5.7233
X14.1717Y-5.5067
X14.1722Y-6.3612
X14.1724Y-7.4222
X14.1762Y-4.5089
X14.18Y-5.315
X14.1909Y-6.6805
X14.1941Y-5.7233
X14.1941Y-7.615
X14.195Y-5.48
X14.1976Y-7.5791
X14.2098Y-5.5972
X14.2106Y-4.8571
X14.215Y-5.31
X14.215Y-6.42
X14.2154Y-8.0331
X14.22Y-5.52
X14.2287Y-5.2638
X14.2333Y-7.0128
X14.2333Y-7.1043
X14.2352Y-7.1929
X14.236Y-6.9526
X14.2362Y-6.2386
X14.2366Y-7.7417
X14.2382Y-4.4094
X14.2392Y-4.3701
X14.2392Y-4.4537
X14.24Y-6.39
X14.2405Y-6.6806
X14.2417Y-8.189
X14.2449Y-6.8091
X14.245Y-6.32
X14.2451Y-4.3099
X14.2461Y-7.472
X14.2469Y-7.2862
X14.2496Y-6.4717
X14.2496Y-6.5402
X14.251Y-7.1585
X14.251Y-7.3632
X14.252Y-6.5955
X14.252Y-6.8927
X14.2543Y-6.7429
X14.2549Y-6.8514
X14.2559Y-6.7087
X14.2559Y-6.7776
X14.2693Y-8.0301
X14.2695Y-5.6284
X14.2697Y-5.5197
X14.2697Y-5.7736
X14.2726Y-6.1929
X14.2732Y-5.726
X14.2766Y-5.3287
X14.2783Y-8.189
X14.2913Y-4.5807
X14.3071Y-5.3297
X14.31Y-8.1888
X14.3117Y-5.5457
X14.3154Y-7.7417
X14.3185Y-5.7295
X14.3235Y-6.2286
X14.3276Y-5.7598
X14.3307Y-6.1331
X14.336Y-5.6232
X14.3376Y-7.0305
X14.3378Y-7.4114
X14.3382Y-7.2604
X14.3386Y-4.8638
X14.3386Y-6.9154
X14.3386Y-7.0709
X14.3388Y-7.2156
X14.3394Y-6.9563
X14.34Y-6.7746
X14.34Y-6.73
X14.3415Y-7.3446
X14.3415Y-8.1884
X14.3421Y-7.3091
X14.3421Y-8.0327
X14.3445Y-6.9906
X14.3449Y-5.5894
X14.345Y-6.1919
X14.3461Y-5.5033
X14.3474Y-5.003
X14.3484Y-6.5443
X14.3516Y-6.5913
X14.355Y-6.42
X14.3553Y-6.3888
X14.3569Y-5.3819
X14.357Y-5.248
X14.3622Y-7.1929
X14.3653Y-5.6295
X14.3671Y-5.0728
X14.3677Y-7.6094
X14.3694Y-4.8542
X14.3726Y-8.1888
X14.3752Y-7.5793
X14.3842Y-6.1056
X14.3874Y-4.9008
X14.3907Y-5.0433
X14.3965Y-6.987
X14.4041Y-8.1884
X14.4043Y-8.0291
X14.4067Y-5.5315
X14.4114Y-5.4941
X14.4163Y-4.3541
X14.4173Y-4.2941
X14.4213Y-4.2384
X14.4222Y-4.1734
X14.4356Y-8.1888
X14.441Y-5.126
X14.4462Y-5.1988
X14.4462Y-5.4338
X14.4528Y-5.724
X14.46Y-6.305
X14.4646Y-5.7614
X14.4654Y-7.2827
X14.4661Y-5.3661
X14.4671Y-8.1884
X14.4677Y-8.0295
X14.4712Y-5.2638
X14.4862Y-5.6055
X14.4961Y-4.622
X14.4971Y-5.5763
X14.4982Y-8.1888
X14.5059Y-6.4685
X14.5079Y-7.0748
X14.5094Y-5.6291
X14.5098Y-6.9272
X14.5244Y-5.7244
X14.528Y-8.0291
X14.5289Y-5.5039
X14.5297Y-8.1884
X14.535Y-5.43
X14.5362Y-5.1988
X14.5362Y-4.5913
X14.5384Y-5.1614
X14.5453Y-5.7615
X14.5461Y-5.5937
X14.5551Y-6.4439
X14.5553Y-6.1203
X14.5594Y-4.2736
X14.56Y-4.2126
X14.5606Y-8.0256
X14.5616Y-8.1884
X14.5665Y-4.8819
X14.572Y-5.3165
X14.5799Y-5.7343
X14.5935Y-5.493
X14.5935Y-8.1888
X14.5984Y-4.5815
X14.6024Y-6.5827
X14.6193Y-6.9236
X14.6217Y-5.3661
X14.6217Y-6.4043
X14.6224Y-7.2271
X14.6225Y-6.6087
X14.6228Y-4.8819
X14.6228Y-7.1666
X14.623Y-6.5443
X14.6244Y-5.2638
X14.6248Y-7.2976
X14.625Y-4.3346
X14.625Y-8.0295
X14.625Y-8.1884
X14.6251Y-6.7301
X14.6256Y-6.4406
X14.626Y-5.7713
X14.626Y-7.0063
X14.627Y-6.877
X14.6461Y-7.7425
X14.6467Y-5.5079
X14.6472Y-7.4602
X14.6561Y-8.1888
X14.6618Y-5.3138
X14.6622Y-4.8803
X14.6722Y-5.4862
X14.6876Y-8.1884
X14.6882Y-8.0299
X14.6926Y-5.6282
X14.6926Y-5.7705
X14.693Y-6.265
X14.6971Y-4.8898
X14.6981Y-5.5225
X14.7008Y-6.5187
X14.7047Y-6.942
X14.7047Y-7.0177
X14.7047Y-7.312
X14.7051Y-7.2358
X14.7071Y-7.1236
X14.7078Y-7.1583
X14.7096Y-6.9793
X14.7102Y-6.8409
X14.7102Y-7.0874
X14.7126Y-6.8
X14.7126Y-7.0531
X14.7185Y-4.2323
X14.7191Y-8.1888
X14.7197Y-6.9031
X14.7222Y-6.6728
X14.724Y-5.5028
X14.7248Y-7.7425
X14.7281Y-4.8898
X14.7333Y-5.6163
X14.7362Y-5.7575
X14.7372Y-7.4047
X14.7382Y-5.8898
X14.7506Y-8.0262
X14.7506Y-8.1884
X14.7531Y-5.3819
X14.7552Y-6.7498
X14.7569Y-4.8634
X14.7579Y-4.1673
X14.758Y-5.248
X14.763Y-7.4217
X14.7775Y-6.4449
X14.78Y-5.5566
X14.7811Y-5.7303
X14.7817Y-8.1888
X14.7849Y-5.6142
X14.796Y-6.724
X14.8012Y-4.252
X14.8033Y-4.0467
X14.8035Y-7.7425
X14.8132Y-8.1884
X14.8134Y-5.5016
X14.8138Y-8.0283
X14.8228Y-6.6978
X14.8238Y-4.3976
X14.824Y-4.8961
X14.83Y-5.13
X14.8348Y-6.9435
X14.8362Y-5.1988
X14.8362Y-5.4338
X14.8386Y-4.582
X14.8396Y-7.4219
X14.845Y-6.775
X14.8461Y-8.2028
X14.8539Y-8.0197
X14.8575Y-5.0113
X14.8575Y-5.0423
X14.8602Y-4.4242
X14.8642Y-5.6253
X14.865Y-5.2638
X14.8655Y-6.4865
X14.8661Y-5.3661
X14.8778Y-8.1888
X14.8795Y-5.598
X14.8803Y-5.7677
X14.8823Y-7.7425
X14.8909Y-7.4219
X14.9093Y-8.1884
X14.9134Y-4.5591
X14.9163Y-7.3262
X14.9239Y-5.5039
X14.9311Y-5.4311
X14.9312Y-5.1988
X14.9325Y-4.047
X14.935Y-7.19
X14.938Y-4.2323
X14.9382Y-4.3898
X14.939Y-4.3453
X14.939Y-5.76
X14.9404Y-8.1888
X14.9409Y-4.2925
X14.9419Y-7.4219
X14.9587Y-5.6239
X14.96Y-6.65
X14.961Y-7.7421
X14.9719Y-8.1884
X14.9807Y-5.7245
X14.9892Y-5.4792
X14.9933Y-7.4219
X15.0Y-5.515
X15.0024Y-5.6239
X15.0033Y-8.1888
X15.005Y-6.47
X15.0161Y-5.2638
X15.0217Y-4.4094
X15.0217Y-7.2618
X15.0236Y-4.2827
X15.0256Y-4.252
X15.026Y-4.3701
X15.026Y-5.7245
X15.0266Y-4.2126
X15.0326Y-7.4224
X15.0348Y-8.1884
X15.0398Y-7.7421
X15.0404Y-5.4796
X15.0433Y-5.6248
X15.063Y-4.4665
X15.0637Y-6.1137
X15.0659Y-8.1888
X15.0691Y-7.4219
X15.075Y-4.5313
X15.0895Y-6.3845
X15.09Y-5.5441
X15.0925Y-5.4775
X15.0974Y-8.1884
X15.1185Y-7.7421
X15.1205Y-7.4219
X15.1293Y-8.1888
X15.1322Y-5.5441
X15.1366Y-6.3634
X15.1378Y-4.1443
X15.1444Y-8.0264
X15.15Y-6.415
X15.153Y-5.248
X15.1531Y-5.3819
X15.1612Y-8.1888
X15.1614Y-6.8386
X15.1614Y-7.0394
X15.1681Y-5.5441
X15.1715Y-7.4219
X15.1927Y-8.1884
X15.1961Y-4.3413
X15.1972Y-7.7421
X15.1978Y-6.2766
X15.1984Y-6.4476
X15.209Y-8.0248
X15.2134Y-7.3531
X15.2228Y-7.4219
X15.2238Y-8.1888
X15.2296Y-6.5946
X15.2312Y-5.1988
X15.2312Y-5.4338
X15.236Y-5.1295
X15.25Y-6.36
X15.2553Y-8.1884
X15.2689Y-7.4134
X15.2731Y-8.0236
X15.275Y-6.62
X15.276Y-7.7421
X15.28Y-5.556
X15.2868Y-8.1888
X15.3006Y-7.4207
X15.31Y-6.645
X15.311Y-6.8406
X15.311Y-7.0413
X15.3161Y-5.5039
X15.3183Y-8.1884
X15.3383Y-8.0214
X15.3494Y-8.1888
X15.352Y-7.4207
X15.3543Y-4.0906
X15.3543Y-4.2963
X15.3547Y-7.7421
X15.373Y-4.252
X15.3772Y-7.3673
X15.3809Y-8.1884
X15.3878Y-7.6224
X15.3972Y-7.5878
X15.403Y-7.4207
X15.4335Y-7.7421
X15.4348Y-4.3167
X15.4441Y-8.0709
X15.4449Y-8.1417
X15.4543Y-7.4207
X15.4715Y-4.2126
X15.4756Y-7.5665
X15.4793Y-6.36
X15.5049Y-6.2829
X15.5118Y-4.1673
X15.5122Y-7.7421
X15.5301Y-7.4207
X15.5305Y-6.3593
X15.5429Y-7.6382
X15.5559Y-6.2831
X15.57Y-7.31
X15.5728Y-7.1289
X15.5728Y-7.19
X15.574Y-6.5016
X15.5748Y-6.8888
X15.5748Y-6.9469
X15.5748Y-7.0089
X15.5751Y-7.3701
X15.5752Y-7.25
X15.5758Y-6.8179
X15.5758Y-7.0699
X15.5815Y-7.4207
X15.5817Y-6.3612
X15.5909Y-7.7417
X15.6073Y-6.2817
X15.6325Y-7.4207
X15.6697Y-7.7417
X15.6839Y-7.4207
X15.6841Y-6.3612
X15.7031Y-7.6378
X15.7091Y-7.5669
X15.7096Y-6.3846
X15.739Y-6.3563
X15.739Y-6.4697
X15.739Y-6.5382
X15.7451Y-7.0128
X15.7451Y-7.1043
X15.7478Y-6.9526
X15.748Y-7.1929
X15.7484Y-7.7417
X15.7486Y-6.2384
X15.7563Y-7.2402
X15.7628Y-7.1585
X15.7628Y-7.3632
X15.7638Y-6.8927
X15.7638Y-7.4656
X15.7646Y-6.4505
X15.7657Y-7.2923
X15.7661Y-6.7421
X15.7667Y-6.8514
X15.7677Y-6.7087
X15.7677Y-6.7776
X15.7711Y-3.9811
X15.7728Y-6.0646
X15.7768Y-6.226
X15.8264Y-6.1524
X15.8272Y-7.7417
X15.8452Y-7.3035
X15.8488Y-7.3378
X15.8488Y-7.4126
X15.849Y-7.2616
X15.8494Y-7.0305
X15.8496Y-6.9154
X15.8496Y-6.9535
X15.851Y-6.7746
X15.8512Y-6.7362
X15.8514Y-6.9872
X15.8514Y-7.0689
X15.8571Y-7.1921
X15.8575Y-6.5913
X15.8583Y-6.378
X15.8629Y-6.5278
X15.8661Y-7.1181
X15.9163Y-6.2549
X16.0177Y-6.4675
X16.0177Y-7.0315
X16.0335Y-4.4341
X16.0463Y-8.1467
X16.0669Y-6.4439
X16.0724Y-5.8179
X16.0766Y-4.3423
X16.0831Y-4.4305
X16.1035Y-6.1909
X16.1083Y-6.5047
X16.1083Y-6.6795
X16.3302Y-5.6452
X16.5248Y-5.7669
X16.7606Y-5.4803
X16.8297Y-5.4233
X16.8404Y-5.5896
X16.8607Y-5.4233
X16.9035Y-5.4339
X16.9134Y-6.172
X16.9201Y-6.3909
X16.9232Y-6.0244
X16.9547Y-5.4323
X17.0249Y-5.4306
X17.0468Y-5.4087
X17.065Y-5.5898
X17.098Y-6.1705
X17.1209Y-5.4795
X17.2613Y-5.7998
X17.4248Y-5.3543
X17.5327Y-5.9634
X17.5366Y-5.3535
X17.6339Y-6.0315
X17.6951Y-5.8927
X17.8012Y-5.9894
X17.8494Y-5.9439
X17.853Y-5.8927
X18.2707Y-4.089
X18.3465Y-4.5827
X18.3652Y-4.4675
X18.4134Y-5.6287
X18.4449Y-4.689
X18.4892Y-4.5984
X18.4931Y-4.4665
X18.5789Y-4.0886
T2
X9.2799Y-7.4508
X9.3091Y-4.7551
X9.3134Y-6.6024
X9.7372Y-6.0364
X9.7431Y-5.1978
X9.7835Y-7.5197
X9.7854Y-6.6713
X9.9016Y-7.2244
X9.9045Y-4.9577
X10.0394Y-6.0118
X10.1098Y-7.3524
X10.1171Y-5.2766
X10.1246Y-4.6565
X10.1299Y-6.5039
X10.1447Y-6.9557
X11.077Y-5.0039
X11.077Y-6.252
X11.077Y-6.9606
X11.0787Y-5.1518
X11.1417Y-6.0079
X11.1417Y-6.7244
X11.4961Y-6.0118
X11.4961Y-6.6449
X11.5571Y-5.0295
X11.5571Y-5.2854
X11.5728Y-7.0177
X11.5846Y-6.3878
X12.9134Y-7.5197
X13.287Y-6.7252
X13.2874Y-7.3622
X14.2937Y-4.8854
X14.4685Y-7.5197
X14.4898Y-6.7256
X14.7835Y-7.3622
X15.6736Y-4.7236
X15.6736Y-5.6906
X15.6736Y-5.8346
X15.7783Y-5.9445
X15.8238Y-4.7126
X16.2785Y-4.4419
X17.5559Y-5.9181
T3
X4.4734Y-8.1646
X6.5994Y-8.1646
X7.4557Y-8.1646
X9.5817Y-8.1646
X10.438Y-8.1646
X12.564Y-8.1646
X13.4203Y-8.1646
X15.5463Y-8.1646
X16.4026Y-8.1646
X18.5285Y-8.1646
X19.3848Y-8.1646
X21.5108Y-8.1646
T4
X12.8921Y-6.3346
X12.9921Y-6.3346
X14.5472Y-6.5157
X14.5472Y-6.6157
T5
X17.2116Y-5.2984
T6
X7.874Y-4.1339
X7.974Y-4.1339
X8.189Y-4.1339
X8.289Y-4.1339
X8.5039Y-4.1339
X8.6039Y-4.1339
X8.8189Y-4.1339
X8.9189Y-4.1339
X9.1339Y-4.1339
X9.2339Y-4.1339
X9.4488Y-4.1339
X9.5488Y-4.1339
X9.7638Y-4.1339
X9.8638Y-4.1339
X10.0787Y-4.1339
X10.1787Y-4.1339
X10.3937Y-4.1339
X10.4937Y-4.1339
X11.0236Y-4.1339
X11.1236Y-4.1339
X11.3386Y-4.1339
X11.4386Y-4.1339
X11.6535Y-4.1339
X11.7535Y-4.1339
X11.9685Y-4.1339
X12.0685Y-4.1339
X15.6713Y-4.3091
X15.7697Y-4.2106
X15.7697Y-4.4075
T7
X16.6506Y-5.015
X16.6506Y-5.2
X16.6506Y-5.3969
X16.7421Y-5.578
X16.9311Y-5.578
X17.1201Y-5.578
X17.2116Y-5.015
X17.2116Y-5.2
X17.2116Y-5.3969
T8
X6.4047Y-4.0276
X6.4047Y-4.1276
X6.5047Y-4.0276
X6.5047Y-4.1276
X6.6047Y-4.0276
X6.6047Y-4.1276
X6.7047Y-4.0276
X6.7047Y-4.1276
X7.0532Y-5.6965
X7.0532Y-5.7966
X7.0532Y-5.8966
X7.0532Y-5.9966
X7.0532Y-6.0965
X7.1532Y-5.6966
X7.1532Y-5.7966
X7.1532Y-5.8966
X7.1532Y-5.9966
X7.1532Y-6.0966
X8.4032Y-5.6965
X8.4032Y-5.7971
X8.4032Y-5.8971
X8.4032Y-5.9971
X8.4032Y-6.0971
X8.5032Y-5.6971
X8.5032Y-5.7971
X8.5032Y-5.8971
X8.5032Y-5.9971
X8.5032Y-6.0971
X8.8665Y-5.8193
X8.8665Y-6.0024
X8.9665Y-5.8193
X8.9665Y-6.0024
X10.5744Y-5.1083
X10.5752Y-6.8988
X12.1858Y-7.4717
X12.187Y-6.4118
X13.7687Y-4.8366
X14.0049Y-5.7028
X14.9478Y-4.8366
X15.1841Y-5.7028
X16.9287Y-7.4803
X16.9295Y-6.5646
X17.7165Y-5.2059
X17.7165Y-5.3059
X17.7165Y-5.4059
X18.3949Y-6.8976
X18.6913Y-5.1083
X19.5472Y-4.0157
X19.5472Y-4.1339
X19.5472Y-4.252
X19.5472Y-4.3701
X19.5472Y-4.4882
X19.5472Y-4.6063
X19.5472Y-4.7244
X19.5472Y-4.8425
X19.5472Y-4.9606
X19.7047Y-5.0591
X19.8228Y-5.0591
X19.9409Y-5.0591
X20.0591Y-5.0591
X20.2165Y-4.0157
X20.2165Y-4.1339
X20.2165Y-4.252
X20.2165Y-4.3701
X20.2165Y-4.4882
X20.2165Y-4.6063
X20.2165Y-4.7244
X20.2165Y-4.8425
X20.2165Y-4.9606
T9
X12.5122Y-6.7299
X12.5122Y-6.9299
X12.6122Y-6.8299
X12.7122Y-6.7299
X12.7122Y-6.9299
X16.2217Y-6.7268
X16.2217Y-6.9268
X16.3217Y-6.8268
X16.4217Y-6.7268
X16.4217Y-6.9268
X17.8228Y-3.9866
X17.8228Y-4.1866
X17.9228Y-4.0866
X18.0228Y-3.9866
X18.0228Y-4.1866
X18.7213Y-3.9886
X18.7213Y-4.1886
X18.8213Y-4.0886
X18.9213Y-3.9886
X18.9213Y-4.1886
T10
X16.6506Y-4.3142
X16.6506Y-4.7079
X16.6506Y-5.1016
X16.6506Y-5.4953
X16.7756Y-4.9047
X16.874Y-4.1173
X16.9882Y-4.9047
X17.2116Y-4.1173
X17.2116Y-4.511
X17.2116Y-4.9047
T11
X4.4488Y-7.937
X6.624Y-7.937
X7.4311Y-7.937
X9.6063Y-7.937
X10.4134Y-7.937
X12.5886Y-7.937
X13.3957Y-7.937
X15.5709Y-7.937
X16.378Y-7.937
X18.5531Y-7.937
X19.3602Y-7.937
X21.5354Y-7.937
T4
G00X7.0378Y-4.1693
M15
G01X7.0378Y-4.2559
M16
G05
G00X7.2701Y-4.1024
M15
G01X7.1835Y-4.1024
M16
G05
G00X7.278Y-4.3307
M15
G01X7.1756Y-4.3307
M16
G05
T0
M30
