G04 #@! TF.GenerationSoftware,KiCad,Pcbnew,5.1.10-88a1d61d58~90~ubuntu20.04.1*
G04 #@! TF.CreationDate,2021-08-03T09:30:07-04:00*
G04 #@! TF.ProjectId,readout_trenz,72656164-6f75-4745-9f74-72656e7a2e6b,rev?*
G04 #@! TF.SameCoordinates,Original*
G04 #@! TF.FileFunction,Soldermask,Bot*
G04 #@! TF.FilePolarity,Negative*
%FSLAX46Y46*%
G04 Gerber Fmt 4.6, Leading zero omitted, Abs format (unit mm)*
G04 Created by KiCad (PCBNEW 5.1.10-88a1d61d58~90~ubuntu20.04.1) date 2021-08-03 09:30:07*
%MOMM*%
%LPD*%
G01*
G04 APERTURE LIST*
%ADD10O,1.802000X1.802000*%
%ADD11C,2.102000*%
%ADD12C,1.502000*%
%ADD13C,2.896000*%
%ADD14C,1.602000*%
%ADD15C,1.102000*%
%ADD16C,1.552000*%
%ADD17C,1.722000*%
%ADD18C,1.902000*%
%ADD19C,1.202000*%
%ADD20C,2.512000*%
%ADD21C,1.626000*%
%ADD22O,4.102000X1.902000*%
%ADD23O,1.902000X4.102000*%
%ADD24C,0.100000*%
G04 APERTURE END LIST*
D10*
X179155000Y-154850000D03*
X181695000Y-149770000D03*
G36*
G01*
X178251200Y-145540000D02*
X178251200Y-143840000D01*
G75*
G02*
X178302200Y-143789000I51000J0D01*
G01*
X180002200Y-143789000D01*
G75*
G02*
X180053200Y-143840000I0J-51000D01*
G01*
X180053200Y-145540000D01*
G75*
G02*
X180002200Y-145591000I-51000J0D01*
G01*
X178302200Y-145591000D01*
G75*
G02*
X178251200Y-145540000I0J51000D01*
G01*
G37*
X181695000Y-154850000D03*
X181695000Y-147230000D03*
X179155000Y-152310000D03*
X179155000Y-147230000D03*
X181695000Y-152310000D03*
X179155000Y-149770000D03*
X181695000Y-144690000D03*
X213445000Y-154850000D03*
X215985000Y-149785400D03*
G36*
G01*
X212544000Y-145540000D02*
X212544000Y-143840000D01*
G75*
G02*
X212595000Y-143789000I51000J0D01*
G01*
X214295000Y-143789000D01*
G75*
G02*
X214346000Y-143840000I0J-51000D01*
G01*
X214346000Y-145540000D01*
G75*
G02*
X214295000Y-145591000I-51000J0D01*
G01*
X212595000Y-145591000D01*
G75*
G02*
X212544000Y-145540000I0J51000D01*
G01*
G37*
X215985000Y-154850000D03*
X215985000Y-147230000D03*
X213445000Y-152310000D03*
X213445000Y-147230000D03*
X215985000Y-152310000D03*
X213445000Y-149785400D03*
X215985000Y-144690000D03*
G36*
G01*
X447637000Y-151499000D02*
X448163000Y-151499000D01*
G75*
G02*
X448426000Y-151762000I0J-263000D01*
G01*
X448426000Y-152388000D01*
G75*
G02*
X448163000Y-152651000I-263000J0D01*
G01*
X447637000Y-152651000D01*
G75*
G02*
X447374000Y-152388000I0J263000D01*
G01*
X447374000Y-151762000D01*
G75*
G02*
X447637000Y-151499000I263000J0D01*
G01*
G37*
G36*
G01*
X447637000Y-149749000D02*
X448163000Y-149749000D01*
G75*
G02*
X448426000Y-150012000I0J-263000D01*
G01*
X448426000Y-150638000D01*
G75*
G02*
X448163000Y-150901000I-263000J0D01*
G01*
X447637000Y-150901000D01*
G75*
G02*
X447374000Y-150638000I0J263000D01*
G01*
X447374000Y-150012000D01*
G75*
G02*
X447637000Y-149749000I263000J0D01*
G01*
G37*
G36*
G01*
X451937000Y-150399000D02*
X452463000Y-150399000D01*
G75*
G02*
X452726000Y-150662000I0J-263000D01*
G01*
X452726000Y-151288000D01*
G75*
G02*
X452463000Y-151551000I-263000J0D01*
G01*
X451937000Y-151551000D01*
G75*
G02*
X451674000Y-151288000I0J263000D01*
G01*
X451674000Y-150662000D01*
G75*
G02*
X451937000Y-150399000I263000J0D01*
G01*
G37*
G36*
G01*
X451937000Y-148649000D02*
X452463000Y-148649000D01*
G75*
G02*
X452726000Y-148912000I0J-263000D01*
G01*
X452726000Y-149538000D01*
G75*
G02*
X452463000Y-149801000I-263000J0D01*
G01*
X451937000Y-149801000D01*
G75*
G02*
X451674000Y-149538000I0J263000D01*
G01*
X451674000Y-148912000D01*
G75*
G02*
X451937000Y-148649000I263000J0D01*
G01*
G37*
D11*
X513500000Y-102000000D03*
X513500000Y-114000000D03*
X513500000Y-111000000D03*
X513500000Y-123000000D03*
X513500000Y-108000000D03*
X513500000Y-105000000D03*
X513500000Y-117000000D03*
X513500000Y-120000000D03*
X513500000Y-126000000D03*
X496500000Y-114000000D03*
X496500000Y-102000000D03*
X496500000Y-108000000D03*
X496500000Y-105000000D03*
X496500000Y-111000000D03*
X496500000Y-123000000D03*
X496500000Y-117000000D03*
X496500000Y-126000000D03*
X496500000Y-120000000D03*
X500500000Y-128500000D03*
X509500000Y-128500000D03*
X506500000Y-128500000D03*
X503500000Y-128500000D03*
G36*
G01*
X363838106Y-160156000D02*
X362521894Y-160156000D01*
G75*
G02*
X362254000Y-159888106I0J267894D01*
G01*
X362254000Y-158896894D01*
G75*
G02*
X362521894Y-158629000I267894J0D01*
G01*
X363838106Y-158629000D01*
G75*
G02*
X364106000Y-158896894I0J-267894D01*
G01*
X364106000Y-159888106D01*
G75*
G02*
X363838106Y-160156000I-267894J0D01*
G01*
G37*
G36*
G01*
X363838106Y-163131000D02*
X362521894Y-163131000D01*
G75*
G02*
X362254000Y-162863106I0J267894D01*
G01*
X362254000Y-161871894D01*
G75*
G02*
X362521894Y-161604000I267894J0D01*
G01*
X363838106Y-161604000D01*
G75*
G02*
X364106000Y-161871894I0J-267894D01*
G01*
X364106000Y-162863106D01*
G75*
G02*
X363838106Y-163131000I-267894J0D01*
G01*
G37*
G36*
G01*
X357766000Y-159581894D02*
X357766000Y-160898106D01*
G75*
G02*
X357498106Y-161166000I-267894J0D01*
G01*
X356506894Y-161166000D01*
G75*
G02*
X356239000Y-160898106I0J267894D01*
G01*
X356239000Y-159581894D01*
G75*
G02*
X356506894Y-159314000I267894J0D01*
G01*
X357498106Y-159314000D01*
G75*
G02*
X357766000Y-159581894I0J-267894D01*
G01*
G37*
G36*
G01*
X360741000Y-159581894D02*
X360741000Y-160898106D01*
G75*
G02*
X360473106Y-161166000I-267894J0D01*
G01*
X359481894Y-161166000D01*
G75*
G02*
X359214000Y-160898106I0J267894D01*
G01*
X359214000Y-159581894D01*
G75*
G02*
X359481894Y-159314000I267894J0D01*
G01*
X360473106Y-159314000D01*
G75*
G02*
X360741000Y-159581894I0J-267894D01*
G01*
G37*
G36*
G01*
X357141894Y-166234000D02*
X358458106Y-166234000D01*
G75*
G02*
X358726000Y-166501894I0J-267894D01*
G01*
X358726000Y-167493106D01*
G75*
G02*
X358458106Y-167761000I-267894J0D01*
G01*
X357141894Y-167761000D01*
G75*
G02*
X356874000Y-167493106I0J267894D01*
G01*
X356874000Y-166501894D01*
G75*
G02*
X357141894Y-166234000I267894J0D01*
G01*
G37*
G36*
G01*
X357141894Y-163259000D02*
X358458106Y-163259000D01*
G75*
G02*
X358726000Y-163526894I0J-267894D01*
G01*
X358726000Y-164518106D01*
G75*
G02*
X358458106Y-164786000I-267894J0D01*
G01*
X357141894Y-164786000D01*
G75*
G02*
X356874000Y-164518106I0J267894D01*
G01*
X356874000Y-163526894D01*
G75*
G02*
X357141894Y-163259000I267894J0D01*
G01*
G37*
G36*
G01*
X399028106Y-158026000D02*
X397711894Y-158026000D01*
G75*
G02*
X397444000Y-157758106I0J267894D01*
G01*
X397444000Y-156766894D01*
G75*
G02*
X397711894Y-156499000I267894J0D01*
G01*
X399028106Y-156499000D01*
G75*
G02*
X399296000Y-156766894I0J-267894D01*
G01*
X399296000Y-157758106D01*
G75*
G02*
X399028106Y-158026000I-267894J0D01*
G01*
G37*
G36*
G01*
X399028106Y-161001000D02*
X397711894Y-161001000D01*
G75*
G02*
X397444000Y-160733106I0J267894D01*
G01*
X397444000Y-159741894D01*
G75*
G02*
X397711894Y-159474000I267894J0D01*
G01*
X399028106Y-159474000D01*
G75*
G02*
X399296000Y-159741894I0J-267894D01*
G01*
X399296000Y-160733106D01*
G75*
G02*
X399028106Y-161001000I-267894J0D01*
G01*
G37*
G36*
G01*
X401908106Y-160376000D02*
X400591894Y-160376000D01*
G75*
G02*
X400324000Y-160108106I0J267894D01*
G01*
X400324000Y-159116894D01*
G75*
G02*
X400591894Y-158849000I267894J0D01*
G01*
X401908106Y-158849000D01*
G75*
G02*
X402176000Y-159116894I0J-267894D01*
G01*
X402176000Y-160108106D01*
G75*
G02*
X401908106Y-160376000I-267894J0D01*
G01*
G37*
G36*
G01*
X401908106Y-163351000D02*
X400591894Y-163351000D01*
G75*
G02*
X400324000Y-163083106I0J267894D01*
G01*
X400324000Y-162091894D01*
G75*
G02*
X400591894Y-161824000I267894J0D01*
G01*
X401908106Y-161824000D01*
G75*
G02*
X402176000Y-162091894I0J-267894D01*
G01*
X402176000Y-163083106D01*
G75*
G02*
X401908106Y-163351000I-267894J0D01*
G01*
G37*
G36*
G01*
X394656000Y-164011894D02*
X394656000Y-165328106D01*
G75*
G02*
X394388106Y-165596000I-267894J0D01*
G01*
X393396894Y-165596000D01*
G75*
G02*
X393129000Y-165328106I0J267894D01*
G01*
X393129000Y-164011894D01*
G75*
G02*
X393396894Y-163744000I267894J0D01*
G01*
X394388106Y-163744000D01*
G75*
G02*
X394656000Y-164011894I0J-267894D01*
G01*
G37*
G36*
G01*
X397631000Y-164011894D02*
X397631000Y-165328106D01*
G75*
G02*
X397363106Y-165596000I-267894J0D01*
G01*
X396371894Y-165596000D01*
G75*
G02*
X396104000Y-165328106I0J267894D01*
G01*
X396104000Y-164011894D01*
G75*
G02*
X396371894Y-163744000I267894J0D01*
G01*
X397363106Y-163744000D01*
G75*
G02*
X397631000Y-164011894I0J-267894D01*
G01*
G37*
D10*
X450000000Y-137310000D03*
X450000000Y-134770000D03*
G36*
G01*
X449099000Y-133080000D02*
X449099000Y-131380000D01*
G75*
G02*
X449150000Y-131329000I51000J0D01*
G01*
X450850000Y-131329000D01*
G75*
G02*
X450901000Y-131380000I0J-51000D01*
G01*
X450901000Y-133080000D01*
G75*
G02*
X450850000Y-133131000I-51000J0D01*
G01*
X449150000Y-133131000D01*
G75*
G02*
X449099000Y-133080000I0J51000D01*
G01*
G37*
D12*
X327460000Y-160900000D03*
X330000000Y-160900000D03*
X369500000Y-168040000D03*
X369500000Y-165500000D03*
D11*
X467230000Y-175200000D03*
X474760000Y-129750000D03*
X429990000Y-190000000D03*
X430010000Y-166740000D03*
X309520000Y-189780000D03*
X309550000Y-162860000D03*
X268610000Y-175230000D03*
X268590000Y-129750000D03*
G36*
G01*
X359889000Y-186033000D02*
X359889000Y-185507000D01*
G75*
G02*
X360152000Y-185244000I263000J0D01*
G01*
X360778000Y-185244000D01*
G75*
G02*
X361041000Y-185507000I0J-263000D01*
G01*
X361041000Y-186033000D01*
G75*
G02*
X360778000Y-186296000I-263000J0D01*
G01*
X360152000Y-186296000D01*
G75*
G02*
X359889000Y-186033000I0J263000D01*
G01*
G37*
G36*
G01*
X358139000Y-186033000D02*
X358139000Y-185507000D01*
G75*
G02*
X358402000Y-185244000I263000J0D01*
G01*
X359028000Y-185244000D01*
G75*
G02*
X359291000Y-185507000I0J-263000D01*
G01*
X359291000Y-186033000D01*
G75*
G02*
X359028000Y-186296000I-263000J0D01*
G01*
X358402000Y-186296000D01*
G75*
G02*
X358139000Y-186033000I0J263000D01*
G01*
G37*
G36*
G01*
X359889000Y-187563000D02*
X359889000Y-187037000D01*
G75*
G02*
X360152000Y-186774000I263000J0D01*
G01*
X360778000Y-186774000D01*
G75*
G02*
X361041000Y-187037000I0J-263000D01*
G01*
X361041000Y-187563000D01*
G75*
G02*
X360778000Y-187826000I-263000J0D01*
G01*
X360152000Y-187826000D01*
G75*
G02*
X359889000Y-187563000I0J263000D01*
G01*
G37*
G36*
G01*
X358139000Y-187563000D02*
X358139000Y-187037000D01*
G75*
G02*
X358402000Y-186774000I263000J0D01*
G01*
X359028000Y-186774000D01*
G75*
G02*
X359291000Y-187037000I0J-263000D01*
G01*
X359291000Y-187563000D01*
G75*
G02*
X359028000Y-187826000I-263000J0D01*
G01*
X358402000Y-187826000D01*
G75*
G02*
X358139000Y-187563000I0J263000D01*
G01*
G37*
G36*
G01*
X359849000Y-175333000D02*
X359849000Y-174807000D01*
G75*
G02*
X360112000Y-174544000I263000J0D01*
G01*
X360738000Y-174544000D01*
G75*
G02*
X361001000Y-174807000I0J-263000D01*
G01*
X361001000Y-175333000D01*
G75*
G02*
X360738000Y-175596000I-263000J0D01*
G01*
X360112000Y-175596000D01*
G75*
G02*
X359849000Y-175333000I0J263000D01*
G01*
G37*
G36*
G01*
X358099000Y-175333000D02*
X358099000Y-174807000D01*
G75*
G02*
X358362000Y-174544000I263000J0D01*
G01*
X358988000Y-174544000D01*
G75*
G02*
X359251000Y-174807000I0J-263000D01*
G01*
X359251000Y-175333000D01*
G75*
G02*
X358988000Y-175596000I-263000J0D01*
G01*
X358362000Y-175596000D01*
G75*
G02*
X358099000Y-175333000I0J263000D01*
G01*
G37*
G36*
G01*
X359849000Y-173803000D02*
X359849000Y-173277000D01*
G75*
G02*
X360112000Y-173014000I263000J0D01*
G01*
X360738000Y-173014000D01*
G75*
G02*
X361001000Y-173277000I0J-263000D01*
G01*
X361001000Y-173803000D01*
G75*
G02*
X360738000Y-174066000I-263000J0D01*
G01*
X360112000Y-174066000D01*
G75*
G02*
X359849000Y-173803000I0J263000D01*
G01*
G37*
G36*
G01*
X358099000Y-173803000D02*
X358099000Y-173277000D01*
G75*
G02*
X358362000Y-173014000I263000J0D01*
G01*
X358988000Y-173014000D01*
G75*
G02*
X359251000Y-173277000I0J-263000D01*
G01*
X359251000Y-173803000D01*
G75*
G02*
X358988000Y-174066000I-263000J0D01*
G01*
X358362000Y-174066000D01*
G75*
G02*
X358099000Y-173803000I0J263000D01*
G01*
G37*
G36*
G01*
X359859000Y-179913000D02*
X359859000Y-179387000D01*
G75*
G02*
X360122000Y-179124000I263000J0D01*
G01*
X360748000Y-179124000D01*
G75*
G02*
X361011000Y-179387000I0J-263000D01*
G01*
X361011000Y-179913000D01*
G75*
G02*
X360748000Y-180176000I-263000J0D01*
G01*
X360122000Y-180176000D01*
G75*
G02*
X359859000Y-179913000I0J263000D01*
G01*
G37*
G36*
G01*
X358109000Y-179913000D02*
X358109000Y-179387000D01*
G75*
G02*
X358372000Y-179124000I263000J0D01*
G01*
X358998000Y-179124000D01*
G75*
G02*
X359261000Y-179387000I0J-263000D01*
G01*
X359261000Y-179913000D01*
G75*
G02*
X358998000Y-180176000I-263000J0D01*
G01*
X358372000Y-180176000D01*
G75*
G02*
X358109000Y-179913000I0J263000D01*
G01*
G37*
G36*
G01*
X359869000Y-182973000D02*
X359869000Y-182447000D01*
G75*
G02*
X360132000Y-182184000I263000J0D01*
G01*
X360758000Y-182184000D01*
G75*
G02*
X361021000Y-182447000I0J-263000D01*
G01*
X361021000Y-182973000D01*
G75*
G02*
X360758000Y-183236000I-263000J0D01*
G01*
X360132000Y-183236000D01*
G75*
G02*
X359869000Y-182973000I0J263000D01*
G01*
G37*
G36*
G01*
X358119000Y-182973000D02*
X358119000Y-182447000D01*
G75*
G02*
X358382000Y-182184000I263000J0D01*
G01*
X359008000Y-182184000D01*
G75*
G02*
X359271000Y-182447000I0J-263000D01*
G01*
X359271000Y-182973000D01*
G75*
G02*
X359008000Y-183236000I-263000J0D01*
G01*
X358382000Y-183236000D01*
G75*
G02*
X358119000Y-182973000I0J263000D01*
G01*
G37*
G36*
G01*
X398299000Y-185953000D02*
X398299000Y-185427000D01*
G75*
G02*
X398562000Y-185164000I263000J0D01*
G01*
X399188000Y-185164000D01*
G75*
G02*
X399451000Y-185427000I0J-263000D01*
G01*
X399451000Y-185953000D01*
G75*
G02*
X399188000Y-186216000I-263000J0D01*
G01*
X398562000Y-186216000D01*
G75*
G02*
X398299000Y-185953000I0J263000D01*
G01*
G37*
G36*
G01*
X396549000Y-185953000D02*
X396549000Y-185427000D01*
G75*
G02*
X396812000Y-185164000I263000J0D01*
G01*
X397438000Y-185164000D01*
G75*
G02*
X397701000Y-185427000I0J-263000D01*
G01*
X397701000Y-185953000D01*
G75*
G02*
X397438000Y-186216000I-263000J0D01*
G01*
X396812000Y-186216000D01*
G75*
G02*
X396549000Y-185953000I0J263000D01*
G01*
G37*
G36*
G01*
X398279000Y-187463000D02*
X398279000Y-186937000D01*
G75*
G02*
X398542000Y-186674000I263000J0D01*
G01*
X399168000Y-186674000D01*
G75*
G02*
X399431000Y-186937000I0J-263000D01*
G01*
X399431000Y-187463000D01*
G75*
G02*
X399168000Y-187726000I-263000J0D01*
G01*
X398542000Y-187726000D01*
G75*
G02*
X398279000Y-187463000I0J263000D01*
G01*
G37*
G36*
G01*
X396529000Y-187463000D02*
X396529000Y-186937000D01*
G75*
G02*
X396792000Y-186674000I263000J0D01*
G01*
X397418000Y-186674000D01*
G75*
G02*
X397681000Y-186937000I0J-263000D01*
G01*
X397681000Y-187463000D01*
G75*
G02*
X397418000Y-187726000I-263000J0D01*
G01*
X396792000Y-187726000D01*
G75*
G02*
X396529000Y-187463000I0J263000D01*
G01*
G37*
G36*
G01*
X398299000Y-175233000D02*
X398299000Y-174707000D01*
G75*
G02*
X398562000Y-174444000I263000J0D01*
G01*
X399188000Y-174444000D01*
G75*
G02*
X399451000Y-174707000I0J-263000D01*
G01*
X399451000Y-175233000D01*
G75*
G02*
X399188000Y-175496000I-263000J0D01*
G01*
X398562000Y-175496000D01*
G75*
G02*
X398299000Y-175233000I0J263000D01*
G01*
G37*
G36*
G01*
X396549000Y-175233000D02*
X396549000Y-174707000D01*
G75*
G02*
X396812000Y-174444000I263000J0D01*
G01*
X397438000Y-174444000D01*
G75*
G02*
X397701000Y-174707000I0J-263000D01*
G01*
X397701000Y-175233000D01*
G75*
G02*
X397438000Y-175496000I-263000J0D01*
G01*
X396812000Y-175496000D01*
G75*
G02*
X396549000Y-175233000I0J263000D01*
G01*
G37*
G36*
G01*
X398299000Y-173703000D02*
X398299000Y-173177000D01*
G75*
G02*
X398562000Y-172914000I263000J0D01*
G01*
X399188000Y-172914000D01*
G75*
G02*
X399451000Y-173177000I0J-263000D01*
G01*
X399451000Y-173703000D01*
G75*
G02*
X399188000Y-173966000I-263000J0D01*
G01*
X398562000Y-173966000D01*
G75*
G02*
X398299000Y-173703000I0J263000D01*
G01*
G37*
G36*
G01*
X396549000Y-173703000D02*
X396549000Y-173177000D01*
G75*
G02*
X396812000Y-172914000I263000J0D01*
G01*
X397438000Y-172914000D01*
G75*
G02*
X397701000Y-173177000I0J-263000D01*
G01*
X397701000Y-173703000D01*
G75*
G02*
X397438000Y-173966000I-263000J0D01*
G01*
X396812000Y-173966000D01*
G75*
G02*
X396549000Y-173703000I0J263000D01*
G01*
G37*
G36*
G01*
X398299000Y-179843000D02*
X398299000Y-179317000D01*
G75*
G02*
X398562000Y-179054000I263000J0D01*
G01*
X399188000Y-179054000D01*
G75*
G02*
X399451000Y-179317000I0J-263000D01*
G01*
X399451000Y-179843000D01*
G75*
G02*
X399188000Y-180106000I-263000J0D01*
G01*
X398562000Y-180106000D01*
G75*
G02*
X398299000Y-179843000I0J263000D01*
G01*
G37*
G36*
G01*
X396549000Y-179843000D02*
X396549000Y-179317000D01*
G75*
G02*
X396812000Y-179054000I263000J0D01*
G01*
X397438000Y-179054000D01*
G75*
G02*
X397701000Y-179317000I0J-263000D01*
G01*
X397701000Y-179843000D01*
G75*
G02*
X397438000Y-180106000I-263000J0D01*
G01*
X396812000Y-180106000D01*
G75*
G02*
X396549000Y-179843000I0J263000D01*
G01*
G37*
G36*
G01*
X398309000Y-182893000D02*
X398309000Y-182367000D01*
G75*
G02*
X398572000Y-182104000I263000J0D01*
G01*
X399198000Y-182104000D01*
G75*
G02*
X399461000Y-182367000I0J-263000D01*
G01*
X399461000Y-182893000D01*
G75*
G02*
X399198000Y-183156000I-263000J0D01*
G01*
X398572000Y-183156000D01*
G75*
G02*
X398309000Y-182893000I0J263000D01*
G01*
G37*
G36*
G01*
X396559000Y-182893000D02*
X396559000Y-182367000D01*
G75*
G02*
X396822000Y-182104000I263000J0D01*
G01*
X397448000Y-182104000D01*
G75*
G02*
X397711000Y-182367000I0J-263000D01*
G01*
X397711000Y-182893000D01*
G75*
G02*
X397448000Y-183156000I-263000J0D01*
G01*
X396822000Y-183156000D01*
G75*
G02*
X396559000Y-182893000I0J263000D01*
G01*
G37*
D13*
X554500000Y-103570000D03*
X105500000Y-103570000D03*
G36*
G01*
X340399000Y-187253000D02*
X340399000Y-186727000D01*
G75*
G02*
X340662000Y-186464000I263000J0D01*
G01*
X341288000Y-186464000D01*
G75*
G02*
X341551000Y-186727000I0J-263000D01*
G01*
X341551000Y-187253000D01*
G75*
G02*
X341288000Y-187516000I-263000J0D01*
G01*
X340662000Y-187516000D01*
G75*
G02*
X340399000Y-187253000I0J263000D01*
G01*
G37*
G36*
G01*
X338649000Y-187253000D02*
X338649000Y-186727000D01*
G75*
G02*
X338912000Y-186464000I263000J0D01*
G01*
X339538000Y-186464000D01*
G75*
G02*
X339801000Y-186727000I0J-263000D01*
G01*
X339801000Y-187253000D01*
G75*
G02*
X339538000Y-187516000I-263000J0D01*
G01*
X338912000Y-187516000D01*
G75*
G02*
X338649000Y-187253000I0J263000D01*
G01*
G37*
G36*
G01*
X378299000Y-187263000D02*
X378299000Y-186737000D01*
G75*
G02*
X378562000Y-186474000I263000J0D01*
G01*
X379188000Y-186474000D01*
G75*
G02*
X379451000Y-186737000I0J-263000D01*
G01*
X379451000Y-187263000D01*
G75*
G02*
X379188000Y-187526000I-263000J0D01*
G01*
X378562000Y-187526000D01*
G75*
G02*
X378299000Y-187263000I0J263000D01*
G01*
G37*
G36*
G01*
X376549000Y-187263000D02*
X376549000Y-186737000D01*
G75*
G02*
X376812000Y-186474000I263000J0D01*
G01*
X377438000Y-186474000D01*
G75*
G02*
X377701000Y-186737000I0J-263000D01*
G01*
X377701000Y-187263000D01*
G75*
G02*
X377438000Y-187526000I-263000J0D01*
G01*
X376812000Y-187526000D01*
G75*
G02*
X376549000Y-187263000I0J263000D01*
G01*
G37*
D11*
X425250000Y-135480000D03*
X434850000Y-135480000D03*
G36*
G01*
X436175000Y-133529000D02*
X438175000Y-133529000D01*
G75*
G02*
X438226000Y-133580000I0J-51000D01*
G01*
X438226000Y-135580000D01*
G75*
G02*
X438175000Y-135631000I-51000J0D01*
G01*
X436175000Y-135631000D01*
G75*
G02*
X436124000Y-135580000I0J51000D01*
G01*
X436124000Y-133580000D01*
G75*
G02*
X436175000Y-133529000I51000J0D01*
G01*
G37*
G36*
G01*
X436175000Y-123529000D02*
X438175000Y-123529000D01*
G75*
G02*
X438226000Y-123580000I0J-51000D01*
G01*
X438226000Y-125580000D01*
G75*
G02*
X438175000Y-125631000I-51000J0D01*
G01*
X436175000Y-125631000D01*
G75*
G02*
X436124000Y-125580000I0J51000D01*
G01*
X436124000Y-123580000D01*
G75*
G02*
X436175000Y-123529000I51000J0D01*
G01*
G37*
G36*
G01*
X436175000Y-113529000D02*
X438175000Y-113529000D01*
G75*
G02*
X438226000Y-113580000I0J-51000D01*
G01*
X438226000Y-115580000D01*
G75*
G02*
X438175000Y-115631000I-51000J0D01*
G01*
X436175000Y-115631000D01*
G75*
G02*
X436124000Y-115580000I0J51000D01*
G01*
X436124000Y-113580000D01*
G75*
G02*
X436175000Y-113529000I51000J0D01*
G01*
G37*
G36*
G01*
X436175000Y-103529000D02*
X438175000Y-103529000D01*
G75*
G02*
X438226000Y-103580000I0J-51000D01*
G01*
X438226000Y-105580000D01*
G75*
G02*
X438175000Y-105631000I-51000J0D01*
G01*
X436175000Y-105631000D01*
G75*
G02*
X436124000Y-105580000I0J51000D01*
G01*
X436124000Y-103580000D01*
G75*
G02*
X436175000Y-103529000I51000J0D01*
G01*
G37*
D14*
X430050000Y-141680000D03*
X434850000Y-141680000D03*
X425250000Y-141680000D03*
G36*
G01*
X421925000Y-138529000D02*
X423925000Y-138529000D01*
G75*
G02*
X423976000Y-138580000I0J-51000D01*
G01*
X423976000Y-140580000D01*
G75*
G02*
X423925000Y-140631000I-51000J0D01*
G01*
X421925000Y-140631000D01*
G75*
G02*
X421874000Y-140580000I0J51000D01*
G01*
X421874000Y-138580000D01*
G75*
G02*
X421925000Y-138529000I51000J0D01*
G01*
G37*
G36*
G01*
X421925000Y-128529000D02*
X423925000Y-128529000D01*
G75*
G02*
X423976000Y-128580000I0J-51000D01*
G01*
X423976000Y-130580000D01*
G75*
G02*
X423925000Y-130631000I-51000J0D01*
G01*
X421925000Y-130631000D01*
G75*
G02*
X421874000Y-130580000I0J51000D01*
G01*
X421874000Y-128580000D01*
G75*
G02*
X421925000Y-128529000I51000J0D01*
G01*
G37*
G36*
G01*
X421925000Y-118529000D02*
X423925000Y-118529000D01*
G75*
G02*
X423976000Y-118580000I0J-51000D01*
G01*
X423976000Y-120580000D01*
G75*
G02*
X423925000Y-120631000I-51000J0D01*
G01*
X421925000Y-120631000D01*
G75*
G02*
X421874000Y-120580000I0J51000D01*
G01*
X421874000Y-118580000D01*
G75*
G02*
X421925000Y-118529000I51000J0D01*
G01*
G37*
G36*
G01*
X421925000Y-108529000D02*
X423925000Y-108529000D01*
G75*
G02*
X423976000Y-108580000I0J-51000D01*
G01*
X423976000Y-110580000D01*
G75*
G02*
X423925000Y-110631000I-51000J0D01*
G01*
X421925000Y-110631000D01*
G75*
G02*
X421874000Y-110580000I0J51000D01*
G01*
X421874000Y-108580000D01*
G75*
G02*
X421925000Y-108529000I51000J0D01*
G01*
G37*
G36*
G01*
X427600000Y-103529000D02*
X429600000Y-103529000D01*
G75*
G02*
X429651000Y-103580000I0J-51000D01*
G01*
X429651000Y-105580000D01*
G75*
G02*
X429600000Y-105631000I-51000J0D01*
G01*
X427600000Y-105631000D01*
G75*
G02*
X427549000Y-105580000I0J51000D01*
G01*
X427549000Y-103580000D01*
G75*
G02*
X427600000Y-103529000I51000J0D01*
G01*
G37*
G36*
G01*
X425100000Y-123529000D02*
X427100000Y-123529000D01*
G75*
G02*
X427151000Y-123580000I0J-51000D01*
G01*
X427151000Y-125580000D01*
G75*
G02*
X427100000Y-125631000I-51000J0D01*
G01*
X425100000Y-125631000D01*
G75*
G02*
X425049000Y-125580000I0J51000D01*
G01*
X425049000Y-123580000D01*
G75*
G02*
X425100000Y-123529000I51000J0D01*
G01*
G37*
G36*
G01*
X430500000Y-123529000D02*
X432500000Y-123529000D01*
G75*
G02*
X432551000Y-123580000I0J-51000D01*
G01*
X432551000Y-125580000D01*
G75*
G02*
X432500000Y-125631000I-51000J0D01*
G01*
X430500000Y-125631000D01*
G75*
G02*
X430449000Y-125580000I0J51000D01*
G01*
X430449000Y-123580000D01*
G75*
G02*
X430500000Y-123529000I51000J0D01*
G01*
G37*
X422925000Y-137080000D03*
X437175000Y-137080000D03*
X437175000Y-132080000D03*
X437175000Y-127380000D03*
X422925000Y-127380000D03*
X422925000Y-132080000D03*
D15*
X325000000Y-106240000D03*
X325000000Y-116240000D03*
D14*
X379675000Y-122850000D03*
X349725000Y-122850000D03*
D16*
X378200000Y-124850000D03*
X351200000Y-124850000D03*
X357200000Y-146850000D03*
X384200000Y-146850000D03*
D14*
X355725000Y-144850000D03*
X385675000Y-144850000D03*
G36*
G01*
X388733106Y-105226000D02*
X387416894Y-105226000D01*
G75*
G02*
X387149000Y-104958106I0J267894D01*
G01*
X387149000Y-103966894D01*
G75*
G02*
X387416894Y-103699000I267894J0D01*
G01*
X388733106Y-103699000D01*
G75*
G02*
X389001000Y-103966894I0J-267894D01*
G01*
X389001000Y-104958106D01*
G75*
G02*
X388733106Y-105226000I-267894J0D01*
G01*
G37*
G36*
G01*
X388733106Y-108201000D02*
X387416894Y-108201000D01*
G75*
G02*
X387149000Y-107933106I0J267894D01*
G01*
X387149000Y-106941894D01*
G75*
G02*
X387416894Y-106674000I267894J0D01*
G01*
X388733106Y-106674000D01*
G75*
G02*
X389001000Y-106941894I0J-267894D01*
G01*
X389001000Y-107933106D01*
G75*
G02*
X388733106Y-108201000I-267894J0D01*
G01*
G37*
G36*
G01*
X388783106Y-110476000D02*
X387466894Y-110476000D01*
G75*
G02*
X387199000Y-110208106I0J267894D01*
G01*
X387199000Y-109216894D01*
G75*
G02*
X387466894Y-108949000I267894J0D01*
G01*
X388783106Y-108949000D01*
G75*
G02*
X389051000Y-109216894I0J-267894D01*
G01*
X389051000Y-110208106D01*
G75*
G02*
X388783106Y-110476000I-267894J0D01*
G01*
G37*
G36*
G01*
X388783106Y-113451000D02*
X387466894Y-113451000D01*
G75*
G02*
X387199000Y-113183106I0J267894D01*
G01*
X387199000Y-112191894D01*
G75*
G02*
X387466894Y-111924000I267894J0D01*
G01*
X388783106Y-111924000D01*
G75*
G02*
X389051000Y-112191894I0J-267894D01*
G01*
X389051000Y-113183106D01*
G75*
G02*
X388783106Y-113451000I-267894J0D01*
G01*
G37*
D17*
X400550000Y-111950000D03*
X398050000Y-109450000D03*
X400550000Y-106950000D03*
G36*
G01*
X410063000Y-111326000D02*
X409537000Y-111326000D01*
G75*
G02*
X409274000Y-111063000I0J263000D01*
G01*
X409274000Y-110437000D01*
G75*
G02*
X409537000Y-110174000I263000J0D01*
G01*
X410063000Y-110174000D01*
G75*
G02*
X410326000Y-110437000I0J-263000D01*
G01*
X410326000Y-111063000D01*
G75*
G02*
X410063000Y-111326000I-263000J0D01*
G01*
G37*
G36*
G01*
X410063000Y-113076000D02*
X409537000Y-113076000D01*
G75*
G02*
X409274000Y-112813000I0J263000D01*
G01*
X409274000Y-112187000D01*
G75*
G02*
X409537000Y-111924000I263000J0D01*
G01*
X410063000Y-111924000D01*
G75*
G02*
X410326000Y-112187000I0J-263000D01*
G01*
X410326000Y-112813000D01*
G75*
G02*
X410063000Y-113076000I-263000J0D01*
G01*
G37*
D18*
X242540000Y-105000000D03*
G36*
G01*
X239049000Y-105900000D02*
X239049000Y-104100000D01*
G75*
G02*
X239100000Y-104049000I51000J0D01*
G01*
X240900000Y-104049000D01*
G75*
G02*
X240951000Y-104100000I0J-51000D01*
G01*
X240951000Y-105900000D01*
G75*
G02*
X240900000Y-105951000I-51000J0D01*
G01*
X239100000Y-105951000D01*
G75*
G02*
X239049000Y-105900000I0J51000D01*
G01*
G37*
D10*
X162680000Y-104840000D03*
X162680000Y-102300000D03*
X165220000Y-104840000D03*
X165220000Y-102300000D03*
X167760000Y-104840000D03*
X167760000Y-102300000D03*
X170300000Y-104840000D03*
G36*
G01*
X169450000Y-101399000D02*
X171150000Y-101399000D01*
G75*
G02*
X171201000Y-101450000I0J-51000D01*
G01*
X171201000Y-103150000D01*
G75*
G02*
X171150000Y-103201000I-51000J0D01*
G01*
X169450000Y-103201000D01*
G75*
G02*
X169399000Y-103150000I0J51000D01*
G01*
X169399000Y-101450000D01*
G75*
G02*
X169450000Y-101399000I51000J0D01*
G01*
G37*
D19*
X394875000Y-207380000D03*
D20*
X395500000Y-201600000D03*
D19*
X340875000Y-207380000D03*
D20*
X340250000Y-201600000D03*
D16*
X395500000Y-205600000D03*
X340250000Y-205600000D03*
G36*
G01*
X371802000Y-192169000D02*
X372198000Y-192169000D01*
G75*
G02*
X372371000Y-192342000I0J-173000D01*
G01*
X372371000Y-192688000D01*
G75*
G02*
X372198000Y-192861000I-173000J0D01*
G01*
X371802000Y-192861000D01*
G75*
G02*
X371629000Y-192688000I0J173000D01*
G01*
X371629000Y-192342000D01*
G75*
G02*
X371802000Y-192169000I173000J0D01*
G01*
G37*
G36*
G01*
X371802000Y-193139000D02*
X372198000Y-193139000D01*
G75*
G02*
X372371000Y-193312000I0J-173000D01*
G01*
X372371000Y-193658000D01*
G75*
G02*
X372198000Y-193831000I-173000J0D01*
G01*
X371802000Y-193831000D01*
G75*
G02*
X371629000Y-193658000I0J173000D01*
G01*
X371629000Y-193312000D01*
G75*
G02*
X371802000Y-193139000I173000J0D01*
G01*
G37*
G36*
G01*
X373802000Y-193139000D02*
X374198000Y-193139000D01*
G75*
G02*
X374371000Y-193312000I0J-173000D01*
G01*
X374371000Y-193658000D01*
G75*
G02*
X374198000Y-193831000I-173000J0D01*
G01*
X373802000Y-193831000D01*
G75*
G02*
X373629000Y-193658000I0J173000D01*
G01*
X373629000Y-193312000D01*
G75*
G02*
X373802000Y-193139000I173000J0D01*
G01*
G37*
G36*
G01*
X373802000Y-192169000D02*
X374198000Y-192169000D01*
G75*
G02*
X374371000Y-192342000I0J-173000D01*
G01*
X374371000Y-192688000D01*
G75*
G02*
X374198000Y-192861000I-173000J0D01*
G01*
X373802000Y-192861000D01*
G75*
G02*
X373629000Y-192688000I0J173000D01*
G01*
X373629000Y-192342000D01*
G75*
G02*
X373802000Y-192169000I173000J0D01*
G01*
G37*
G36*
G01*
X375802000Y-192169000D02*
X376198000Y-192169000D01*
G75*
G02*
X376371000Y-192342000I0J-173000D01*
G01*
X376371000Y-192688000D01*
G75*
G02*
X376198000Y-192861000I-173000J0D01*
G01*
X375802000Y-192861000D01*
G75*
G02*
X375629000Y-192688000I0J173000D01*
G01*
X375629000Y-192342000D01*
G75*
G02*
X375802000Y-192169000I173000J0D01*
G01*
G37*
G36*
G01*
X375802000Y-193139000D02*
X376198000Y-193139000D01*
G75*
G02*
X376371000Y-193312000I0J-173000D01*
G01*
X376371000Y-193658000D01*
G75*
G02*
X376198000Y-193831000I-173000J0D01*
G01*
X375802000Y-193831000D01*
G75*
G02*
X375629000Y-193658000I0J173000D01*
G01*
X375629000Y-193312000D01*
G75*
G02*
X375802000Y-193139000I173000J0D01*
G01*
G37*
G36*
G01*
X377802000Y-193139000D02*
X378198000Y-193139000D01*
G75*
G02*
X378371000Y-193312000I0J-173000D01*
G01*
X378371000Y-193658000D01*
G75*
G02*
X378198000Y-193831000I-173000J0D01*
G01*
X377802000Y-193831000D01*
G75*
G02*
X377629000Y-193658000I0J173000D01*
G01*
X377629000Y-193312000D01*
G75*
G02*
X377802000Y-193139000I173000J0D01*
G01*
G37*
G36*
G01*
X377802000Y-192169000D02*
X378198000Y-192169000D01*
G75*
G02*
X378371000Y-192342000I0J-173000D01*
G01*
X378371000Y-192688000D01*
G75*
G02*
X378198000Y-192861000I-173000J0D01*
G01*
X377802000Y-192861000D01*
G75*
G02*
X377629000Y-192688000I0J173000D01*
G01*
X377629000Y-192342000D01*
G75*
G02*
X377802000Y-192169000I173000J0D01*
G01*
G37*
G36*
G01*
X379802000Y-192169000D02*
X380198000Y-192169000D01*
G75*
G02*
X380371000Y-192342000I0J-173000D01*
G01*
X380371000Y-192688000D01*
G75*
G02*
X380198000Y-192861000I-173000J0D01*
G01*
X379802000Y-192861000D01*
G75*
G02*
X379629000Y-192688000I0J173000D01*
G01*
X379629000Y-192342000D01*
G75*
G02*
X379802000Y-192169000I173000J0D01*
G01*
G37*
G36*
G01*
X379802000Y-193139000D02*
X380198000Y-193139000D01*
G75*
G02*
X380371000Y-193312000I0J-173000D01*
G01*
X380371000Y-193658000D01*
G75*
G02*
X380198000Y-193831000I-173000J0D01*
G01*
X379802000Y-193831000D01*
G75*
G02*
X379629000Y-193658000I0J173000D01*
G01*
X379629000Y-193312000D01*
G75*
G02*
X379802000Y-193139000I173000J0D01*
G01*
G37*
G36*
G01*
X381802000Y-193139000D02*
X382198000Y-193139000D01*
G75*
G02*
X382371000Y-193312000I0J-173000D01*
G01*
X382371000Y-193658000D01*
G75*
G02*
X382198000Y-193831000I-173000J0D01*
G01*
X381802000Y-193831000D01*
G75*
G02*
X381629000Y-193658000I0J173000D01*
G01*
X381629000Y-193312000D01*
G75*
G02*
X381802000Y-193139000I173000J0D01*
G01*
G37*
G36*
G01*
X381802000Y-192169000D02*
X382198000Y-192169000D01*
G75*
G02*
X382371000Y-192342000I0J-173000D01*
G01*
X382371000Y-192688000D01*
G75*
G02*
X382198000Y-192861000I-173000J0D01*
G01*
X381802000Y-192861000D01*
G75*
G02*
X381629000Y-192688000I0J173000D01*
G01*
X381629000Y-192342000D01*
G75*
G02*
X381802000Y-192169000I173000J0D01*
G01*
G37*
G36*
G01*
X383802000Y-192169000D02*
X384198000Y-192169000D01*
G75*
G02*
X384371000Y-192342000I0J-173000D01*
G01*
X384371000Y-192688000D01*
G75*
G02*
X384198000Y-192861000I-173000J0D01*
G01*
X383802000Y-192861000D01*
G75*
G02*
X383629000Y-192688000I0J173000D01*
G01*
X383629000Y-192342000D01*
G75*
G02*
X383802000Y-192169000I173000J0D01*
G01*
G37*
G36*
G01*
X383802000Y-193139000D02*
X384198000Y-193139000D01*
G75*
G02*
X384371000Y-193312000I0J-173000D01*
G01*
X384371000Y-193658000D01*
G75*
G02*
X384198000Y-193831000I-173000J0D01*
G01*
X383802000Y-193831000D01*
G75*
G02*
X383629000Y-193658000I0J173000D01*
G01*
X383629000Y-193312000D01*
G75*
G02*
X383802000Y-193139000I173000J0D01*
G01*
G37*
G36*
G01*
X385802000Y-193139000D02*
X386198000Y-193139000D01*
G75*
G02*
X386371000Y-193312000I0J-173000D01*
G01*
X386371000Y-193658000D01*
G75*
G02*
X386198000Y-193831000I-173000J0D01*
G01*
X385802000Y-193831000D01*
G75*
G02*
X385629000Y-193658000I0J173000D01*
G01*
X385629000Y-193312000D01*
G75*
G02*
X385802000Y-193139000I173000J0D01*
G01*
G37*
G36*
G01*
X385802000Y-192169000D02*
X386198000Y-192169000D01*
G75*
G02*
X386371000Y-192342000I0J-173000D01*
G01*
X386371000Y-192688000D01*
G75*
G02*
X386198000Y-192861000I-173000J0D01*
G01*
X385802000Y-192861000D01*
G75*
G02*
X385629000Y-192688000I0J173000D01*
G01*
X385629000Y-192342000D01*
G75*
G02*
X385802000Y-192169000I173000J0D01*
G01*
G37*
G36*
G01*
X387802000Y-193139000D02*
X388198000Y-193139000D01*
G75*
G02*
X388371000Y-193312000I0J-173000D01*
G01*
X388371000Y-193658000D01*
G75*
G02*
X388198000Y-193831000I-173000J0D01*
G01*
X387802000Y-193831000D01*
G75*
G02*
X387629000Y-193658000I0J173000D01*
G01*
X387629000Y-193312000D01*
G75*
G02*
X387802000Y-193139000I173000J0D01*
G01*
G37*
G36*
G01*
X387802000Y-192169000D02*
X388198000Y-192169000D01*
G75*
G02*
X388371000Y-192342000I0J-173000D01*
G01*
X388371000Y-192688000D01*
G75*
G02*
X388198000Y-192861000I-173000J0D01*
G01*
X387802000Y-192861000D01*
G75*
G02*
X387629000Y-192688000I0J173000D01*
G01*
X387629000Y-192342000D01*
G75*
G02*
X387802000Y-192169000I173000J0D01*
G01*
G37*
G36*
G01*
X389802000Y-192169000D02*
X390198000Y-192169000D01*
G75*
G02*
X390371000Y-192342000I0J-173000D01*
G01*
X390371000Y-192688000D01*
G75*
G02*
X390198000Y-192861000I-173000J0D01*
G01*
X389802000Y-192861000D01*
G75*
G02*
X389629000Y-192688000I0J173000D01*
G01*
X389629000Y-192342000D01*
G75*
G02*
X389802000Y-192169000I173000J0D01*
G01*
G37*
G36*
G01*
X389802000Y-193139000D02*
X390198000Y-193139000D01*
G75*
G02*
X390371000Y-193312000I0J-173000D01*
G01*
X390371000Y-193658000D01*
G75*
G02*
X390198000Y-193831000I-173000J0D01*
G01*
X389802000Y-193831000D01*
G75*
G02*
X389629000Y-193658000I0J173000D01*
G01*
X389629000Y-193312000D01*
G75*
G02*
X389802000Y-193139000I173000J0D01*
G01*
G37*
G36*
G01*
X391802000Y-192169000D02*
X392198000Y-192169000D01*
G75*
G02*
X392371000Y-192342000I0J-173000D01*
G01*
X392371000Y-192688000D01*
G75*
G02*
X392198000Y-192861000I-173000J0D01*
G01*
X391802000Y-192861000D01*
G75*
G02*
X391629000Y-192688000I0J173000D01*
G01*
X391629000Y-192342000D01*
G75*
G02*
X391802000Y-192169000I173000J0D01*
G01*
G37*
G36*
G01*
X391802000Y-193139000D02*
X392198000Y-193139000D01*
G75*
G02*
X392371000Y-193312000I0J-173000D01*
G01*
X392371000Y-193658000D01*
G75*
G02*
X392198000Y-193831000I-173000J0D01*
G01*
X391802000Y-193831000D01*
G75*
G02*
X391629000Y-193658000I0J173000D01*
G01*
X391629000Y-193312000D01*
G75*
G02*
X391802000Y-193139000I173000J0D01*
G01*
G37*
G36*
G01*
X393802000Y-193139000D02*
X394198000Y-193139000D01*
G75*
G02*
X394371000Y-193312000I0J-173000D01*
G01*
X394371000Y-193658000D01*
G75*
G02*
X394198000Y-193831000I-173000J0D01*
G01*
X393802000Y-193831000D01*
G75*
G02*
X393629000Y-193658000I0J173000D01*
G01*
X393629000Y-193312000D01*
G75*
G02*
X393802000Y-193139000I173000J0D01*
G01*
G37*
G36*
G01*
X393802000Y-192169000D02*
X394198000Y-192169000D01*
G75*
G02*
X394371000Y-192342000I0J-173000D01*
G01*
X394371000Y-192688000D01*
G75*
G02*
X394198000Y-192861000I-173000J0D01*
G01*
X393802000Y-192861000D01*
G75*
G02*
X393629000Y-192688000I0J173000D01*
G01*
X393629000Y-192342000D01*
G75*
G02*
X393802000Y-192169000I173000J0D01*
G01*
G37*
G36*
G01*
X395802000Y-192169000D02*
X396198000Y-192169000D01*
G75*
G02*
X396371000Y-192342000I0J-173000D01*
G01*
X396371000Y-192688000D01*
G75*
G02*
X396198000Y-192861000I-173000J0D01*
G01*
X395802000Y-192861000D01*
G75*
G02*
X395629000Y-192688000I0J173000D01*
G01*
X395629000Y-192342000D01*
G75*
G02*
X395802000Y-192169000I173000J0D01*
G01*
G37*
G36*
G01*
X395802000Y-193139000D02*
X396198000Y-193139000D01*
G75*
G02*
X396371000Y-193312000I0J-173000D01*
G01*
X396371000Y-193658000D01*
G75*
G02*
X396198000Y-193831000I-173000J0D01*
G01*
X395802000Y-193831000D01*
G75*
G02*
X395629000Y-193658000I0J173000D01*
G01*
X395629000Y-193312000D01*
G75*
G02*
X395802000Y-193139000I173000J0D01*
G01*
G37*
G36*
G01*
X397802000Y-193139000D02*
X398198000Y-193139000D01*
G75*
G02*
X398371000Y-193312000I0J-173000D01*
G01*
X398371000Y-193658000D01*
G75*
G02*
X398198000Y-193831000I-173000J0D01*
G01*
X397802000Y-193831000D01*
G75*
G02*
X397629000Y-193658000I0J173000D01*
G01*
X397629000Y-193312000D01*
G75*
G02*
X397802000Y-193139000I173000J0D01*
G01*
G37*
G36*
G01*
X397802000Y-192169000D02*
X398198000Y-192169000D01*
G75*
G02*
X398371000Y-192342000I0J-173000D01*
G01*
X398371000Y-192688000D01*
G75*
G02*
X398198000Y-192861000I-173000J0D01*
G01*
X397802000Y-192861000D01*
G75*
G02*
X397629000Y-192688000I0J173000D01*
G01*
X397629000Y-192342000D01*
G75*
G02*
X397802000Y-192169000I173000J0D01*
G01*
G37*
G36*
G01*
X399802000Y-193139000D02*
X400198000Y-193139000D01*
G75*
G02*
X400371000Y-193312000I0J-173000D01*
G01*
X400371000Y-193658000D01*
G75*
G02*
X400198000Y-193831000I-173000J0D01*
G01*
X399802000Y-193831000D01*
G75*
G02*
X399629000Y-193658000I0J173000D01*
G01*
X399629000Y-193312000D01*
G75*
G02*
X399802000Y-193139000I173000J0D01*
G01*
G37*
G36*
G01*
X399802000Y-192169000D02*
X400198000Y-192169000D01*
G75*
G02*
X400371000Y-192342000I0J-173000D01*
G01*
X400371000Y-192688000D01*
G75*
G02*
X400198000Y-192861000I-173000J0D01*
G01*
X399802000Y-192861000D01*
G75*
G02*
X399629000Y-192688000I0J173000D01*
G01*
X399629000Y-192342000D01*
G75*
G02*
X399802000Y-192169000I173000J0D01*
G01*
G37*
G36*
G01*
X401802000Y-192169000D02*
X402198000Y-192169000D01*
G75*
G02*
X402371000Y-192342000I0J-173000D01*
G01*
X402371000Y-192688000D01*
G75*
G02*
X402198000Y-192861000I-173000J0D01*
G01*
X401802000Y-192861000D01*
G75*
G02*
X401629000Y-192688000I0J173000D01*
G01*
X401629000Y-192342000D01*
G75*
G02*
X401802000Y-192169000I173000J0D01*
G01*
G37*
G36*
G01*
X401802000Y-193139000D02*
X402198000Y-193139000D01*
G75*
G02*
X402371000Y-193312000I0J-173000D01*
G01*
X402371000Y-193658000D01*
G75*
G02*
X402198000Y-193831000I-173000J0D01*
G01*
X401802000Y-193831000D01*
G75*
G02*
X401629000Y-193658000I0J173000D01*
G01*
X401629000Y-193312000D01*
G75*
G02*
X401802000Y-193139000I173000J0D01*
G01*
G37*
G36*
G01*
X333402000Y-192169000D02*
X333798000Y-192169000D01*
G75*
G02*
X333971000Y-192342000I0J-173000D01*
G01*
X333971000Y-192688000D01*
G75*
G02*
X333798000Y-192861000I-173000J0D01*
G01*
X333402000Y-192861000D01*
G75*
G02*
X333229000Y-192688000I0J173000D01*
G01*
X333229000Y-192342000D01*
G75*
G02*
X333402000Y-192169000I173000J0D01*
G01*
G37*
G36*
G01*
X333402000Y-193139000D02*
X333798000Y-193139000D01*
G75*
G02*
X333971000Y-193312000I0J-173000D01*
G01*
X333971000Y-193658000D01*
G75*
G02*
X333798000Y-193831000I-173000J0D01*
G01*
X333402000Y-193831000D01*
G75*
G02*
X333229000Y-193658000I0J173000D01*
G01*
X333229000Y-193312000D01*
G75*
G02*
X333402000Y-193139000I173000J0D01*
G01*
G37*
G36*
G01*
X335402000Y-193139000D02*
X335798000Y-193139000D01*
G75*
G02*
X335971000Y-193312000I0J-173000D01*
G01*
X335971000Y-193658000D01*
G75*
G02*
X335798000Y-193831000I-173000J0D01*
G01*
X335402000Y-193831000D01*
G75*
G02*
X335229000Y-193658000I0J173000D01*
G01*
X335229000Y-193312000D01*
G75*
G02*
X335402000Y-193139000I173000J0D01*
G01*
G37*
G36*
G01*
X335402000Y-192169000D02*
X335798000Y-192169000D01*
G75*
G02*
X335971000Y-192342000I0J-173000D01*
G01*
X335971000Y-192688000D01*
G75*
G02*
X335798000Y-192861000I-173000J0D01*
G01*
X335402000Y-192861000D01*
G75*
G02*
X335229000Y-192688000I0J173000D01*
G01*
X335229000Y-192342000D01*
G75*
G02*
X335402000Y-192169000I173000J0D01*
G01*
G37*
G36*
G01*
X337402000Y-193139000D02*
X337798000Y-193139000D01*
G75*
G02*
X337971000Y-193312000I0J-173000D01*
G01*
X337971000Y-193658000D01*
G75*
G02*
X337798000Y-193831000I-173000J0D01*
G01*
X337402000Y-193831000D01*
G75*
G02*
X337229000Y-193658000I0J173000D01*
G01*
X337229000Y-193312000D01*
G75*
G02*
X337402000Y-193139000I173000J0D01*
G01*
G37*
G36*
G01*
X337402000Y-192169000D02*
X337798000Y-192169000D01*
G75*
G02*
X337971000Y-192342000I0J-173000D01*
G01*
X337971000Y-192688000D01*
G75*
G02*
X337798000Y-192861000I-173000J0D01*
G01*
X337402000Y-192861000D01*
G75*
G02*
X337229000Y-192688000I0J173000D01*
G01*
X337229000Y-192342000D01*
G75*
G02*
X337402000Y-192169000I173000J0D01*
G01*
G37*
G36*
G01*
X339402000Y-192169000D02*
X339798000Y-192169000D01*
G75*
G02*
X339971000Y-192342000I0J-173000D01*
G01*
X339971000Y-192688000D01*
G75*
G02*
X339798000Y-192861000I-173000J0D01*
G01*
X339402000Y-192861000D01*
G75*
G02*
X339229000Y-192688000I0J173000D01*
G01*
X339229000Y-192342000D01*
G75*
G02*
X339402000Y-192169000I173000J0D01*
G01*
G37*
G36*
G01*
X339402000Y-193139000D02*
X339798000Y-193139000D01*
G75*
G02*
X339971000Y-193312000I0J-173000D01*
G01*
X339971000Y-193658000D01*
G75*
G02*
X339798000Y-193831000I-173000J0D01*
G01*
X339402000Y-193831000D01*
G75*
G02*
X339229000Y-193658000I0J173000D01*
G01*
X339229000Y-193312000D01*
G75*
G02*
X339402000Y-193139000I173000J0D01*
G01*
G37*
G36*
G01*
X341402000Y-193139000D02*
X341798000Y-193139000D01*
G75*
G02*
X341971000Y-193312000I0J-173000D01*
G01*
X341971000Y-193658000D01*
G75*
G02*
X341798000Y-193831000I-173000J0D01*
G01*
X341402000Y-193831000D01*
G75*
G02*
X341229000Y-193658000I0J173000D01*
G01*
X341229000Y-193312000D01*
G75*
G02*
X341402000Y-193139000I173000J0D01*
G01*
G37*
G36*
G01*
X341402000Y-192169000D02*
X341798000Y-192169000D01*
G75*
G02*
X341971000Y-192342000I0J-173000D01*
G01*
X341971000Y-192688000D01*
G75*
G02*
X341798000Y-192861000I-173000J0D01*
G01*
X341402000Y-192861000D01*
G75*
G02*
X341229000Y-192688000I0J173000D01*
G01*
X341229000Y-192342000D01*
G75*
G02*
X341402000Y-192169000I173000J0D01*
G01*
G37*
G36*
G01*
X343402000Y-192169000D02*
X343798000Y-192169000D01*
G75*
G02*
X343971000Y-192342000I0J-173000D01*
G01*
X343971000Y-192688000D01*
G75*
G02*
X343798000Y-192861000I-173000J0D01*
G01*
X343402000Y-192861000D01*
G75*
G02*
X343229000Y-192688000I0J173000D01*
G01*
X343229000Y-192342000D01*
G75*
G02*
X343402000Y-192169000I173000J0D01*
G01*
G37*
G36*
G01*
X343402000Y-193139000D02*
X343798000Y-193139000D01*
G75*
G02*
X343971000Y-193312000I0J-173000D01*
G01*
X343971000Y-193658000D01*
G75*
G02*
X343798000Y-193831000I-173000J0D01*
G01*
X343402000Y-193831000D01*
G75*
G02*
X343229000Y-193658000I0J173000D01*
G01*
X343229000Y-193312000D01*
G75*
G02*
X343402000Y-193139000I173000J0D01*
G01*
G37*
G36*
G01*
X345402000Y-193139000D02*
X345798000Y-193139000D01*
G75*
G02*
X345971000Y-193312000I0J-173000D01*
G01*
X345971000Y-193658000D01*
G75*
G02*
X345798000Y-193831000I-173000J0D01*
G01*
X345402000Y-193831000D01*
G75*
G02*
X345229000Y-193658000I0J173000D01*
G01*
X345229000Y-193312000D01*
G75*
G02*
X345402000Y-193139000I173000J0D01*
G01*
G37*
G36*
G01*
X345402000Y-192169000D02*
X345798000Y-192169000D01*
G75*
G02*
X345971000Y-192342000I0J-173000D01*
G01*
X345971000Y-192688000D01*
G75*
G02*
X345798000Y-192861000I-173000J0D01*
G01*
X345402000Y-192861000D01*
G75*
G02*
X345229000Y-192688000I0J173000D01*
G01*
X345229000Y-192342000D01*
G75*
G02*
X345402000Y-192169000I173000J0D01*
G01*
G37*
G36*
G01*
X347402000Y-192169000D02*
X347798000Y-192169000D01*
G75*
G02*
X347971000Y-192342000I0J-173000D01*
G01*
X347971000Y-192688000D01*
G75*
G02*
X347798000Y-192861000I-173000J0D01*
G01*
X347402000Y-192861000D01*
G75*
G02*
X347229000Y-192688000I0J173000D01*
G01*
X347229000Y-192342000D01*
G75*
G02*
X347402000Y-192169000I173000J0D01*
G01*
G37*
G36*
G01*
X347402000Y-193139000D02*
X347798000Y-193139000D01*
G75*
G02*
X347971000Y-193312000I0J-173000D01*
G01*
X347971000Y-193658000D01*
G75*
G02*
X347798000Y-193831000I-173000J0D01*
G01*
X347402000Y-193831000D01*
G75*
G02*
X347229000Y-193658000I0J173000D01*
G01*
X347229000Y-193312000D01*
G75*
G02*
X347402000Y-193139000I173000J0D01*
G01*
G37*
G36*
G01*
X349402000Y-192169000D02*
X349798000Y-192169000D01*
G75*
G02*
X349971000Y-192342000I0J-173000D01*
G01*
X349971000Y-192688000D01*
G75*
G02*
X349798000Y-192861000I-173000J0D01*
G01*
X349402000Y-192861000D01*
G75*
G02*
X349229000Y-192688000I0J173000D01*
G01*
X349229000Y-192342000D01*
G75*
G02*
X349402000Y-192169000I173000J0D01*
G01*
G37*
G36*
G01*
X349402000Y-193139000D02*
X349798000Y-193139000D01*
G75*
G02*
X349971000Y-193312000I0J-173000D01*
G01*
X349971000Y-193658000D01*
G75*
G02*
X349798000Y-193831000I-173000J0D01*
G01*
X349402000Y-193831000D01*
G75*
G02*
X349229000Y-193658000I0J173000D01*
G01*
X349229000Y-193312000D01*
G75*
G02*
X349402000Y-193139000I173000J0D01*
G01*
G37*
G36*
G01*
X351402000Y-193139000D02*
X351798000Y-193139000D01*
G75*
G02*
X351971000Y-193312000I0J-173000D01*
G01*
X351971000Y-193658000D01*
G75*
G02*
X351798000Y-193831000I-173000J0D01*
G01*
X351402000Y-193831000D01*
G75*
G02*
X351229000Y-193658000I0J173000D01*
G01*
X351229000Y-193312000D01*
G75*
G02*
X351402000Y-193139000I173000J0D01*
G01*
G37*
G36*
G01*
X351402000Y-192169000D02*
X351798000Y-192169000D01*
G75*
G02*
X351971000Y-192342000I0J-173000D01*
G01*
X351971000Y-192688000D01*
G75*
G02*
X351798000Y-192861000I-173000J0D01*
G01*
X351402000Y-192861000D01*
G75*
G02*
X351229000Y-192688000I0J173000D01*
G01*
X351229000Y-192342000D01*
G75*
G02*
X351402000Y-192169000I173000J0D01*
G01*
G37*
G36*
G01*
X353402000Y-193139000D02*
X353798000Y-193139000D01*
G75*
G02*
X353971000Y-193312000I0J-173000D01*
G01*
X353971000Y-193658000D01*
G75*
G02*
X353798000Y-193831000I-173000J0D01*
G01*
X353402000Y-193831000D01*
G75*
G02*
X353229000Y-193658000I0J173000D01*
G01*
X353229000Y-193312000D01*
G75*
G02*
X353402000Y-193139000I173000J0D01*
G01*
G37*
G36*
G01*
X353402000Y-192169000D02*
X353798000Y-192169000D01*
G75*
G02*
X353971000Y-192342000I0J-173000D01*
G01*
X353971000Y-192688000D01*
G75*
G02*
X353798000Y-192861000I-173000J0D01*
G01*
X353402000Y-192861000D01*
G75*
G02*
X353229000Y-192688000I0J173000D01*
G01*
X353229000Y-192342000D01*
G75*
G02*
X353402000Y-192169000I173000J0D01*
G01*
G37*
G36*
G01*
X355402000Y-193139000D02*
X355798000Y-193139000D01*
G75*
G02*
X355971000Y-193312000I0J-173000D01*
G01*
X355971000Y-193658000D01*
G75*
G02*
X355798000Y-193831000I-173000J0D01*
G01*
X355402000Y-193831000D01*
G75*
G02*
X355229000Y-193658000I0J173000D01*
G01*
X355229000Y-193312000D01*
G75*
G02*
X355402000Y-193139000I173000J0D01*
G01*
G37*
G36*
G01*
X355402000Y-192169000D02*
X355798000Y-192169000D01*
G75*
G02*
X355971000Y-192342000I0J-173000D01*
G01*
X355971000Y-192688000D01*
G75*
G02*
X355798000Y-192861000I-173000J0D01*
G01*
X355402000Y-192861000D01*
G75*
G02*
X355229000Y-192688000I0J173000D01*
G01*
X355229000Y-192342000D01*
G75*
G02*
X355402000Y-192169000I173000J0D01*
G01*
G37*
G36*
G01*
X357402000Y-193139000D02*
X357798000Y-193139000D01*
G75*
G02*
X357971000Y-193312000I0J-173000D01*
G01*
X357971000Y-193658000D01*
G75*
G02*
X357798000Y-193831000I-173000J0D01*
G01*
X357402000Y-193831000D01*
G75*
G02*
X357229000Y-193658000I0J173000D01*
G01*
X357229000Y-193312000D01*
G75*
G02*
X357402000Y-193139000I173000J0D01*
G01*
G37*
G36*
G01*
X357402000Y-192169000D02*
X357798000Y-192169000D01*
G75*
G02*
X357971000Y-192342000I0J-173000D01*
G01*
X357971000Y-192688000D01*
G75*
G02*
X357798000Y-192861000I-173000J0D01*
G01*
X357402000Y-192861000D01*
G75*
G02*
X357229000Y-192688000I0J173000D01*
G01*
X357229000Y-192342000D01*
G75*
G02*
X357402000Y-192169000I173000J0D01*
G01*
G37*
G36*
G01*
X359402000Y-192169000D02*
X359798000Y-192169000D01*
G75*
G02*
X359971000Y-192342000I0J-173000D01*
G01*
X359971000Y-192688000D01*
G75*
G02*
X359798000Y-192861000I-173000J0D01*
G01*
X359402000Y-192861000D01*
G75*
G02*
X359229000Y-192688000I0J173000D01*
G01*
X359229000Y-192342000D01*
G75*
G02*
X359402000Y-192169000I173000J0D01*
G01*
G37*
G36*
G01*
X359402000Y-193139000D02*
X359798000Y-193139000D01*
G75*
G02*
X359971000Y-193312000I0J-173000D01*
G01*
X359971000Y-193658000D01*
G75*
G02*
X359798000Y-193831000I-173000J0D01*
G01*
X359402000Y-193831000D01*
G75*
G02*
X359229000Y-193658000I0J173000D01*
G01*
X359229000Y-193312000D01*
G75*
G02*
X359402000Y-193139000I173000J0D01*
G01*
G37*
G36*
G01*
X361402000Y-193139000D02*
X361798000Y-193139000D01*
G75*
G02*
X361971000Y-193312000I0J-173000D01*
G01*
X361971000Y-193658000D01*
G75*
G02*
X361798000Y-193831000I-173000J0D01*
G01*
X361402000Y-193831000D01*
G75*
G02*
X361229000Y-193658000I0J173000D01*
G01*
X361229000Y-193312000D01*
G75*
G02*
X361402000Y-193139000I173000J0D01*
G01*
G37*
G36*
G01*
X361402000Y-192169000D02*
X361798000Y-192169000D01*
G75*
G02*
X361971000Y-192342000I0J-173000D01*
G01*
X361971000Y-192688000D01*
G75*
G02*
X361798000Y-192861000I-173000J0D01*
G01*
X361402000Y-192861000D01*
G75*
G02*
X361229000Y-192688000I0J173000D01*
G01*
X361229000Y-192342000D01*
G75*
G02*
X361402000Y-192169000I173000J0D01*
G01*
G37*
G36*
G01*
X363402000Y-192169000D02*
X363798000Y-192169000D01*
G75*
G02*
X363971000Y-192342000I0J-173000D01*
G01*
X363971000Y-192688000D01*
G75*
G02*
X363798000Y-192861000I-173000J0D01*
G01*
X363402000Y-192861000D01*
G75*
G02*
X363229000Y-192688000I0J173000D01*
G01*
X363229000Y-192342000D01*
G75*
G02*
X363402000Y-192169000I173000J0D01*
G01*
G37*
G36*
G01*
X363402000Y-193139000D02*
X363798000Y-193139000D01*
G75*
G02*
X363971000Y-193312000I0J-173000D01*
G01*
X363971000Y-193658000D01*
G75*
G02*
X363798000Y-193831000I-173000J0D01*
G01*
X363402000Y-193831000D01*
G75*
G02*
X363229000Y-193658000I0J173000D01*
G01*
X363229000Y-193312000D01*
G75*
G02*
X363402000Y-193139000I173000J0D01*
G01*
G37*
G36*
G01*
X469511000Y-112387000D02*
X469511000Y-112913000D01*
G75*
G02*
X469248000Y-113176000I-263000J0D01*
G01*
X468622000Y-113176000D01*
G75*
G02*
X468359000Y-112913000I0J263000D01*
G01*
X468359000Y-112387000D01*
G75*
G02*
X468622000Y-112124000I263000J0D01*
G01*
X469248000Y-112124000D01*
G75*
G02*
X469511000Y-112387000I0J-263000D01*
G01*
G37*
G36*
G01*
X467761000Y-112387000D02*
X467761000Y-112913000D01*
G75*
G02*
X467498000Y-113176000I-263000J0D01*
G01*
X466872000Y-113176000D01*
G75*
G02*
X466609000Y-112913000I0J263000D01*
G01*
X466609000Y-112387000D01*
G75*
G02*
X466872000Y-112124000I263000J0D01*
G01*
X467498000Y-112124000D01*
G75*
G02*
X467761000Y-112387000I0J-263000D01*
G01*
G37*
G36*
G01*
X468359000Y-116313000D02*
X468359000Y-115787000D01*
G75*
G02*
X468622000Y-115524000I263000J0D01*
G01*
X469248000Y-115524000D01*
G75*
G02*
X469511000Y-115787000I0J-263000D01*
G01*
X469511000Y-116313000D01*
G75*
G02*
X469248000Y-116576000I-263000J0D01*
G01*
X468622000Y-116576000D01*
G75*
G02*
X468359000Y-116313000I0J263000D01*
G01*
G37*
G36*
G01*
X466609000Y-116313000D02*
X466609000Y-115787000D01*
G75*
G02*
X466872000Y-115524000I263000J0D01*
G01*
X467498000Y-115524000D01*
G75*
G02*
X467761000Y-115787000I0J-263000D01*
G01*
X467761000Y-116313000D01*
G75*
G02*
X467498000Y-116576000I-263000J0D01*
G01*
X466872000Y-116576000D01*
G75*
G02*
X466609000Y-116313000I0J263000D01*
G01*
G37*
G36*
G01*
X385524000Y-172013000D02*
X385524000Y-171487000D01*
G75*
G02*
X385787000Y-171224000I263000J0D01*
G01*
X386413000Y-171224000D01*
G75*
G02*
X386676000Y-171487000I0J-263000D01*
G01*
X386676000Y-172013000D01*
G75*
G02*
X386413000Y-172276000I-263000J0D01*
G01*
X385787000Y-172276000D01*
G75*
G02*
X385524000Y-172013000I0J263000D01*
G01*
G37*
G36*
G01*
X387274000Y-172013000D02*
X387274000Y-171487000D01*
G75*
G02*
X387537000Y-171224000I263000J0D01*
G01*
X388163000Y-171224000D01*
G75*
G02*
X388426000Y-171487000I0J-263000D01*
G01*
X388426000Y-172013000D01*
G75*
G02*
X388163000Y-172276000I-263000J0D01*
G01*
X387537000Y-172276000D01*
G75*
G02*
X387274000Y-172013000I0J263000D01*
G01*
G37*
G36*
G01*
X387299000Y-174013000D02*
X387299000Y-173487000D01*
G75*
G02*
X387562000Y-173224000I263000J0D01*
G01*
X388188000Y-173224000D01*
G75*
G02*
X388451000Y-173487000I0J-263000D01*
G01*
X388451000Y-174013000D01*
G75*
G02*
X388188000Y-174276000I-263000J0D01*
G01*
X387562000Y-174276000D01*
G75*
G02*
X387299000Y-174013000I0J263000D01*
G01*
G37*
G36*
G01*
X385549000Y-174013000D02*
X385549000Y-173487000D01*
G75*
G02*
X385812000Y-173224000I263000J0D01*
G01*
X386438000Y-173224000D01*
G75*
G02*
X386701000Y-173487000I0J-263000D01*
G01*
X386701000Y-174013000D01*
G75*
G02*
X386438000Y-174276000I-263000J0D01*
G01*
X385812000Y-174276000D01*
G75*
G02*
X385549000Y-174013000I0J263000D01*
G01*
G37*
G36*
G01*
X400893000Y-155641000D02*
X400367000Y-155641000D01*
G75*
G02*
X400104000Y-155378000I0J263000D01*
G01*
X400104000Y-154752000D01*
G75*
G02*
X400367000Y-154489000I263000J0D01*
G01*
X400893000Y-154489000D01*
G75*
G02*
X401156000Y-154752000I0J-263000D01*
G01*
X401156000Y-155378000D01*
G75*
G02*
X400893000Y-155641000I-263000J0D01*
G01*
G37*
G36*
G01*
X400893000Y-157391000D02*
X400367000Y-157391000D01*
G75*
G02*
X400104000Y-157128000I0J263000D01*
G01*
X400104000Y-156502000D01*
G75*
G02*
X400367000Y-156239000I263000J0D01*
G01*
X400893000Y-156239000D01*
G75*
G02*
X401156000Y-156502000I0J-263000D01*
G01*
X401156000Y-157128000D01*
G75*
G02*
X400893000Y-157391000I-263000J0D01*
G01*
G37*
G36*
G01*
X374187000Y-185099000D02*
X374713000Y-185099000D01*
G75*
G02*
X374976000Y-185362000I0J-263000D01*
G01*
X374976000Y-185988000D01*
G75*
G02*
X374713000Y-186251000I-263000J0D01*
G01*
X374187000Y-186251000D01*
G75*
G02*
X373924000Y-185988000I0J263000D01*
G01*
X373924000Y-185362000D01*
G75*
G02*
X374187000Y-185099000I263000J0D01*
G01*
G37*
G36*
G01*
X374187000Y-183349000D02*
X374713000Y-183349000D01*
G75*
G02*
X374976000Y-183612000I0J-263000D01*
G01*
X374976000Y-184238000D01*
G75*
G02*
X374713000Y-184501000I-263000J0D01*
G01*
X374187000Y-184501000D01*
G75*
G02*
X373924000Y-184238000I0J263000D01*
G01*
X373924000Y-183612000D01*
G75*
G02*
X374187000Y-183349000I263000J0D01*
G01*
G37*
G36*
G01*
X372449000Y-189747000D02*
X372449000Y-189221000D01*
G75*
G02*
X372712000Y-188958000I263000J0D01*
G01*
X373338000Y-188958000D01*
G75*
G02*
X373601000Y-189221000I0J-263000D01*
G01*
X373601000Y-189747000D01*
G75*
G02*
X373338000Y-190010000I-263000J0D01*
G01*
X372712000Y-190010000D01*
G75*
G02*
X372449000Y-189747000I0J263000D01*
G01*
G37*
G36*
G01*
X374199000Y-189747000D02*
X374199000Y-189221000D01*
G75*
G02*
X374462000Y-188958000I263000J0D01*
G01*
X375088000Y-188958000D01*
G75*
G02*
X375351000Y-189221000I0J-263000D01*
G01*
X375351000Y-189747000D01*
G75*
G02*
X375088000Y-190010000I-263000J0D01*
G01*
X374462000Y-190010000D01*
G75*
G02*
X374199000Y-189747000I0J263000D01*
G01*
G37*
G36*
G01*
X381763000Y-187751000D02*
X381237000Y-187751000D01*
G75*
G02*
X380974000Y-187488000I0J263000D01*
G01*
X380974000Y-186862000D01*
G75*
G02*
X381237000Y-186599000I263000J0D01*
G01*
X381763000Y-186599000D01*
G75*
G02*
X382026000Y-186862000I0J-263000D01*
G01*
X382026000Y-187488000D01*
G75*
G02*
X381763000Y-187751000I-263000J0D01*
G01*
G37*
G36*
G01*
X381763000Y-186001000D02*
X381237000Y-186001000D01*
G75*
G02*
X380974000Y-185738000I0J263000D01*
G01*
X380974000Y-185112000D01*
G75*
G02*
X381237000Y-184849000I263000J0D01*
G01*
X381763000Y-184849000D01*
G75*
G02*
X382026000Y-185112000I0J-263000D01*
G01*
X382026000Y-185738000D01*
G75*
G02*
X381763000Y-186001000I-263000J0D01*
G01*
G37*
G36*
G01*
X401257000Y-185959000D02*
X401783000Y-185959000D01*
G75*
G02*
X402046000Y-186222000I0J-263000D01*
G01*
X402046000Y-186848000D01*
G75*
G02*
X401783000Y-187111000I-263000J0D01*
G01*
X401257000Y-187111000D01*
G75*
G02*
X400994000Y-186848000I0J263000D01*
G01*
X400994000Y-186222000D01*
G75*
G02*
X401257000Y-185959000I263000J0D01*
G01*
G37*
G36*
G01*
X401257000Y-187709000D02*
X401783000Y-187709000D01*
G75*
G02*
X402046000Y-187972000I0J-263000D01*
G01*
X402046000Y-188598000D01*
G75*
G02*
X401783000Y-188861000I-263000J0D01*
G01*
X401257000Y-188861000D01*
G75*
G02*
X400994000Y-188598000I0J263000D01*
G01*
X400994000Y-187972000D01*
G75*
G02*
X401257000Y-187709000I263000J0D01*
G01*
G37*
G36*
G01*
X401257000Y-171379000D02*
X401783000Y-171379000D01*
G75*
G02*
X402046000Y-171642000I0J-263000D01*
G01*
X402046000Y-172268000D01*
G75*
G02*
X401783000Y-172531000I-263000J0D01*
G01*
X401257000Y-172531000D01*
G75*
G02*
X400994000Y-172268000I0J263000D01*
G01*
X400994000Y-171642000D01*
G75*
G02*
X401257000Y-171379000I263000J0D01*
G01*
G37*
G36*
G01*
X401257000Y-169629000D02*
X401783000Y-169629000D01*
G75*
G02*
X402046000Y-169892000I0J-263000D01*
G01*
X402046000Y-170518000D01*
G75*
G02*
X401783000Y-170781000I-263000J0D01*
G01*
X401257000Y-170781000D01*
G75*
G02*
X400994000Y-170518000I0J263000D01*
G01*
X400994000Y-169892000D01*
G75*
G02*
X401257000Y-169629000I263000J0D01*
G01*
G37*
G36*
G01*
X373699000Y-163973000D02*
X373699000Y-163447000D01*
G75*
G02*
X373962000Y-163184000I263000J0D01*
G01*
X374588000Y-163184000D01*
G75*
G02*
X374851000Y-163447000I0J-263000D01*
G01*
X374851000Y-163973000D01*
G75*
G02*
X374588000Y-164236000I-263000J0D01*
G01*
X373962000Y-164236000D01*
G75*
G02*
X373699000Y-163973000I0J263000D01*
G01*
G37*
G36*
G01*
X371949000Y-163973000D02*
X371949000Y-163447000D01*
G75*
G02*
X372212000Y-163184000I263000J0D01*
G01*
X372838000Y-163184000D01*
G75*
G02*
X373101000Y-163447000I0J-263000D01*
G01*
X373101000Y-163973000D01*
G75*
G02*
X372838000Y-164236000I-263000J0D01*
G01*
X372212000Y-164236000D01*
G75*
G02*
X371949000Y-163973000I0J263000D01*
G01*
G37*
G36*
G01*
X401773000Y-185021000D02*
X401247000Y-185021000D01*
G75*
G02*
X400984000Y-184758000I0J263000D01*
G01*
X400984000Y-184132000D01*
G75*
G02*
X401247000Y-183869000I263000J0D01*
G01*
X401773000Y-183869000D01*
G75*
G02*
X402036000Y-184132000I0J-263000D01*
G01*
X402036000Y-184758000D01*
G75*
G02*
X401773000Y-185021000I-263000J0D01*
G01*
G37*
G36*
G01*
X401773000Y-183271000D02*
X401247000Y-183271000D01*
G75*
G02*
X400984000Y-183008000I0J263000D01*
G01*
X400984000Y-182382000D01*
G75*
G02*
X401247000Y-182119000I263000J0D01*
G01*
X401773000Y-182119000D01*
G75*
G02*
X402036000Y-182382000I0J-263000D01*
G01*
X402036000Y-183008000D01*
G75*
G02*
X401773000Y-183271000I-263000J0D01*
G01*
G37*
G36*
G01*
X401763000Y-178051000D02*
X401237000Y-178051000D01*
G75*
G02*
X400974000Y-177788000I0J263000D01*
G01*
X400974000Y-177162000D01*
G75*
G02*
X401237000Y-176899000I263000J0D01*
G01*
X401763000Y-176899000D01*
G75*
G02*
X402026000Y-177162000I0J-263000D01*
G01*
X402026000Y-177788000D01*
G75*
G02*
X401763000Y-178051000I-263000J0D01*
G01*
G37*
G36*
G01*
X401763000Y-179801000D02*
X401237000Y-179801000D01*
G75*
G02*
X400974000Y-179538000I0J263000D01*
G01*
X400974000Y-178912000D01*
G75*
G02*
X401237000Y-178649000I263000J0D01*
G01*
X401763000Y-178649000D01*
G75*
G02*
X402026000Y-178912000I0J-263000D01*
G01*
X402026000Y-179538000D01*
G75*
G02*
X401763000Y-179801000I-263000J0D01*
G01*
G37*
G36*
G01*
X403139000Y-178863000D02*
X403139000Y-178337000D01*
G75*
G02*
X403402000Y-178074000I263000J0D01*
G01*
X404028000Y-178074000D01*
G75*
G02*
X404291000Y-178337000I0J-263000D01*
G01*
X404291000Y-178863000D01*
G75*
G02*
X404028000Y-179126000I-263000J0D01*
G01*
X403402000Y-179126000D01*
G75*
G02*
X403139000Y-178863000I0J263000D01*
G01*
G37*
G36*
G01*
X404889000Y-178863000D02*
X404889000Y-178337000D01*
G75*
G02*
X405152000Y-178074000I263000J0D01*
G01*
X405778000Y-178074000D01*
G75*
G02*
X406041000Y-178337000I0J-263000D01*
G01*
X406041000Y-178863000D01*
G75*
G02*
X405778000Y-179126000I-263000J0D01*
G01*
X405152000Y-179126000D01*
G75*
G02*
X404889000Y-178863000I0J263000D01*
G01*
G37*
G36*
G01*
X372743000Y-173271000D02*
X372217000Y-173271000D01*
G75*
G02*
X371954000Y-173008000I0J263000D01*
G01*
X371954000Y-172382000D01*
G75*
G02*
X372217000Y-172119000I263000J0D01*
G01*
X372743000Y-172119000D01*
G75*
G02*
X373006000Y-172382000I0J-263000D01*
G01*
X373006000Y-173008000D01*
G75*
G02*
X372743000Y-173271000I-263000J0D01*
G01*
G37*
G36*
G01*
X372743000Y-171521000D02*
X372217000Y-171521000D01*
G75*
G02*
X371954000Y-171258000I0J263000D01*
G01*
X371954000Y-170632000D01*
G75*
G02*
X372217000Y-170369000I263000J0D01*
G01*
X372743000Y-170369000D01*
G75*
G02*
X373006000Y-170632000I0J-263000D01*
G01*
X373006000Y-171258000D01*
G75*
G02*
X372743000Y-171521000I-263000J0D01*
G01*
G37*
G36*
G01*
X375799000Y-175663000D02*
X375799000Y-175137000D01*
G75*
G02*
X376062000Y-174874000I263000J0D01*
G01*
X376688000Y-174874000D01*
G75*
G02*
X376951000Y-175137000I0J-263000D01*
G01*
X376951000Y-175663000D01*
G75*
G02*
X376688000Y-175926000I-263000J0D01*
G01*
X376062000Y-175926000D01*
G75*
G02*
X375799000Y-175663000I0J263000D01*
G01*
G37*
G36*
G01*
X374049000Y-175663000D02*
X374049000Y-175137000D01*
G75*
G02*
X374312000Y-174874000I263000J0D01*
G01*
X374938000Y-174874000D01*
G75*
G02*
X375201000Y-175137000I0J-263000D01*
G01*
X375201000Y-175663000D01*
G75*
G02*
X374938000Y-175926000I-263000J0D01*
G01*
X374312000Y-175926000D01*
G75*
G02*
X374049000Y-175663000I0J263000D01*
G01*
G37*
G36*
G01*
X372217000Y-177639000D02*
X372743000Y-177639000D01*
G75*
G02*
X373006000Y-177902000I0J-263000D01*
G01*
X373006000Y-178528000D01*
G75*
G02*
X372743000Y-178791000I-263000J0D01*
G01*
X372217000Y-178791000D01*
G75*
G02*
X371954000Y-178528000I0J263000D01*
G01*
X371954000Y-177902000D01*
G75*
G02*
X372217000Y-177639000I263000J0D01*
G01*
G37*
G36*
G01*
X372217000Y-175889000D02*
X372743000Y-175889000D01*
G75*
G02*
X373006000Y-176152000I0J-263000D01*
G01*
X373006000Y-176778000D01*
G75*
G02*
X372743000Y-177041000I-263000J0D01*
G01*
X372217000Y-177041000D01*
G75*
G02*
X371954000Y-176778000I0J263000D01*
G01*
X371954000Y-176152000D01*
G75*
G02*
X372217000Y-175889000I263000J0D01*
G01*
G37*
G36*
G01*
X372743000Y-182601000D02*
X372217000Y-182601000D01*
G75*
G02*
X371954000Y-182338000I0J263000D01*
G01*
X371954000Y-181712000D01*
G75*
G02*
X372217000Y-181449000I263000J0D01*
G01*
X372743000Y-181449000D01*
G75*
G02*
X373006000Y-181712000I0J-263000D01*
G01*
X373006000Y-182338000D01*
G75*
G02*
X372743000Y-182601000I-263000J0D01*
G01*
G37*
G36*
G01*
X372743000Y-180851000D02*
X372217000Y-180851000D01*
G75*
G02*
X371954000Y-180588000I0J263000D01*
G01*
X371954000Y-179962000D01*
G75*
G02*
X372217000Y-179699000I263000J0D01*
G01*
X372743000Y-179699000D01*
G75*
G02*
X373006000Y-179962000I0J-263000D01*
G01*
X373006000Y-180588000D01*
G75*
G02*
X372743000Y-180851000I-263000J0D01*
G01*
G37*
G36*
G01*
X389761000Y-186507000D02*
X389761000Y-187033000D01*
G75*
G02*
X389498000Y-187296000I-263000J0D01*
G01*
X388872000Y-187296000D01*
G75*
G02*
X388609000Y-187033000I0J263000D01*
G01*
X388609000Y-186507000D01*
G75*
G02*
X388872000Y-186244000I263000J0D01*
G01*
X389498000Y-186244000D01*
G75*
G02*
X389761000Y-186507000I0J-263000D01*
G01*
G37*
G36*
G01*
X388011000Y-186507000D02*
X388011000Y-187033000D01*
G75*
G02*
X387748000Y-187296000I-263000J0D01*
G01*
X387122000Y-187296000D01*
G75*
G02*
X386859000Y-187033000I0J263000D01*
G01*
X386859000Y-186507000D01*
G75*
G02*
X387122000Y-186244000I263000J0D01*
G01*
X387748000Y-186244000D01*
G75*
G02*
X388011000Y-186507000I0J-263000D01*
G01*
G37*
G36*
G01*
X372217000Y-183029000D02*
X372743000Y-183029000D01*
G75*
G02*
X373006000Y-183292000I0J-263000D01*
G01*
X373006000Y-183918000D01*
G75*
G02*
X372743000Y-184181000I-263000J0D01*
G01*
X372217000Y-184181000D01*
G75*
G02*
X371954000Y-183918000I0J263000D01*
G01*
X371954000Y-183292000D01*
G75*
G02*
X372217000Y-183029000I263000J0D01*
G01*
G37*
G36*
G01*
X372217000Y-184779000D02*
X372743000Y-184779000D01*
G75*
G02*
X373006000Y-185042000I0J-263000D01*
G01*
X373006000Y-185668000D01*
G75*
G02*
X372743000Y-185931000I-263000J0D01*
G01*
X372217000Y-185931000D01*
G75*
G02*
X371954000Y-185668000I0J263000D01*
G01*
X371954000Y-185042000D01*
G75*
G02*
X372217000Y-184779000I263000J0D01*
G01*
G37*
G36*
G01*
X385777000Y-159879000D02*
X386303000Y-159879000D01*
G75*
G02*
X386566000Y-160142000I0J-263000D01*
G01*
X386566000Y-160768000D01*
G75*
G02*
X386303000Y-161031000I-263000J0D01*
G01*
X385777000Y-161031000D01*
G75*
G02*
X385514000Y-160768000I0J263000D01*
G01*
X385514000Y-160142000D01*
G75*
G02*
X385777000Y-159879000I263000J0D01*
G01*
G37*
G36*
G01*
X385777000Y-161629000D02*
X386303000Y-161629000D01*
G75*
G02*
X386566000Y-161892000I0J-263000D01*
G01*
X386566000Y-162518000D01*
G75*
G02*
X386303000Y-162781000I-263000J0D01*
G01*
X385777000Y-162781000D01*
G75*
G02*
X385514000Y-162518000I0J263000D01*
G01*
X385514000Y-161892000D01*
G75*
G02*
X385777000Y-161629000I263000J0D01*
G01*
G37*
G36*
G01*
X371802000Y-195139000D02*
X372198000Y-195139000D01*
G75*
G02*
X372371000Y-195312000I0J-173000D01*
G01*
X372371000Y-195658000D01*
G75*
G02*
X372198000Y-195831000I-173000J0D01*
G01*
X371802000Y-195831000D01*
G75*
G02*
X371629000Y-195658000I0J173000D01*
G01*
X371629000Y-195312000D01*
G75*
G02*
X371802000Y-195139000I173000J0D01*
G01*
G37*
G36*
G01*
X371802000Y-194169000D02*
X372198000Y-194169000D01*
G75*
G02*
X372371000Y-194342000I0J-173000D01*
G01*
X372371000Y-194688000D01*
G75*
G02*
X372198000Y-194861000I-173000J0D01*
G01*
X371802000Y-194861000D01*
G75*
G02*
X371629000Y-194688000I0J173000D01*
G01*
X371629000Y-194342000D01*
G75*
G02*
X371802000Y-194169000I173000J0D01*
G01*
G37*
G36*
G01*
X373802000Y-195139000D02*
X374198000Y-195139000D01*
G75*
G02*
X374371000Y-195312000I0J-173000D01*
G01*
X374371000Y-195658000D01*
G75*
G02*
X374198000Y-195831000I-173000J0D01*
G01*
X373802000Y-195831000D01*
G75*
G02*
X373629000Y-195658000I0J173000D01*
G01*
X373629000Y-195312000D01*
G75*
G02*
X373802000Y-195139000I173000J0D01*
G01*
G37*
G36*
G01*
X373802000Y-194169000D02*
X374198000Y-194169000D01*
G75*
G02*
X374371000Y-194342000I0J-173000D01*
G01*
X374371000Y-194688000D01*
G75*
G02*
X374198000Y-194861000I-173000J0D01*
G01*
X373802000Y-194861000D01*
G75*
G02*
X373629000Y-194688000I0J173000D01*
G01*
X373629000Y-194342000D01*
G75*
G02*
X373802000Y-194169000I173000J0D01*
G01*
G37*
G36*
G01*
X375802000Y-194169000D02*
X376198000Y-194169000D01*
G75*
G02*
X376371000Y-194342000I0J-173000D01*
G01*
X376371000Y-194688000D01*
G75*
G02*
X376198000Y-194861000I-173000J0D01*
G01*
X375802000Y-194861000D01*
G75*
G02*
X375629000Y-194688000I0J173000D01*
G01*
X375629000Y-194342000D01*
G75*
G02*
X375802000Y-194169000I173000J0D01*
G01*
G37*
G36*
G01*
X375802000Y-195139000D02*
X376198000Y-195139000D01*
G75*
G02*
X376371000Y-195312000I0J-173000D01*
G01*
X376371000Y-195658000D01*
G75*
G02*
X376198000Y-195831000I-173000J0D01*
G01*
X375802000Y-195831000D01*
G75*
G02*
X375629000Y-195658000I0J173000D01*
G01*
X375629000Y-195312000D01*
G75*
G02*
X375802000Y-195139000I173000J0D01*
G01*
G37*
G36*
G01*
X377802000Y-195139000D02*
X378198000Y-195139000D01*
G75*
G02*
X378371000Y-195312000I0J-173000D01*
G01*
X378371000Y-195658000D01*
G75*
G02*
X378198000Y-195831000I-173000J0D01*
G01*
X377802000Y-195831000D01*
G75*
G02*
X377629000Y-195658000I0J173000D01*
G01*
X377629000Y-195312000D01*
G75*
G02*
X377802000Y-195139000I173000J0D01*
G01*
G37*
G36*
G01*
X377802000Y-194169000D02*
X378198000Y-194169000D01*
G75*
G02*
X378371000Y-194342000I0J-173000D01*
G01*
X378371000Y-194688000D01*
G75*
G02*
X378198000Y-194861000I-173000J0D01*
G01*
X377802000Y-194861000D01*
G75*
G02*
X377629000Y-194688000I0J173000D01*
G01*
X377629000Y-194342000D01*
G75*
G02*
X377802000Y-194169000I173000J0D01*
G01*
G37*
G36*
G01*
X379802000Y-194169000D02*
X380198000Y-194169000D01*
G75*
G02*
X380371000Y-194342000I0J-173000D01*
G01*
X380371000Y-194688000D01*
G75*
G02*
X380198000Y-194861000I-173000J0D01*
G01*
X379802000Y-194861000D01*
G75*
G02*
X379629000Y-194688000I0J173000D01*
G01*
X379629000Y-194342000D01*
G75*
G02*
X379802000Y-194169000I173000J0D01*
G01*
G37*
G36*
G01*
X379802000Y-195139000D02*
X380198000Y-195139000D01*
G75*
G02*
X380371000Y-195312000I0J-173000D01*
G01*
X380371000Y-195658000D01*
G75*
G02*
X380198000Y-195831000I-173000J0D01*
G01*
X379802000Y-195831000D01*
G75*
G02*
X379629000Y-195658000I0J173000D01*
G01*
X379629000Y-195312000D01*
G75*
G02*
X379802000Y-195139000I173000J0D01*
G01*
G37*
G36*
G01*
X381802000Y-195139000D02*
X382198000Y-195139000D01*
G75*
G02*
X382371000Y-195312000I0J-173000D01*
G01*
X382371000Y-195658000D01*
G75*
G02*
X382198000Y-195831000I-173000J0D01*
G01*
X381802000Y-195831000D01*
G75*
G02*
X381629000Y-195658000I0J173000D01*
G01*
X381629000Y-195312000D01*
G75*
G02*
X381802000Y-195139000I173000J0D01*
G01*
G37*
G36*
G01*
X381802000Y-194169000D02*
X382198000Y-194169000D01*
G75*
G02*
X382371000Y-194342000I0J-173000D01*
G01*
X382371000Y-194688000D01*
G75*
G02*
X382198000Y-194861000I-173000J0D01*
G01*
X381802000Y-194861000D01*
G75*
G02*
X381629000Y-194688000I0J173000D01*
G01*
X381629000Y-194342000D01*
G75*
G02*
X381802000Y-194169000I173000J0D01*
G01*
G37*
G36*
G01*
X383802000Y-195139000D02*
X384198000Y-195139000D01*
G75*
G02*
X384371000Y-195312000I0J-173000D01*
G01*
X384371000Y-195658000D01*
G75*
G02*
X384198000Y-195831000I-173000J0D01*
G01*
X383802000Y-195831000D01*
G75*
G02*
X383629000Y-195658000I0J173000D01*
G01*
X383629000Y-195312000D01*
G75*
G02*
X383802000Y-195139000I173000J0D01*
G01*
G37*
G36*
G01*
X383802000Y-194169000D02*
X384198000Y-194169000D01*
G75*
G02*
X384371000Y-194342000I0J-173000D01*
G01*
X384371000Y-194688000D01*
G75*
G02*
X384198000Y-194861000I-173000J0D01*
G01*
X383802000Y-194861000D01*
G75*
G02*
X383629000Y-194688000I0J173000D01*
G01*
X383629000Y-194342000D01*
G75*
G02*
X383802000Y-194169000I173000J0D01*
G01*
G37*
G36*
G01*
X385802000Y-195139000D02*
X386198000Y-195139000D01*
G75*
G02*
X386371000Y-195312000I0J-173000D01*
G01*
X386371000Y-195658000D01*
G75*
G02*
X386198000Y-195831000I-173000J0D01*
G01*
X385802000Y-195831000D01*
G75*
G02*
X385629000Y-195658000I0J173000D01*
G01*
X385629000Y-195312000D01*
G75*
G02*
X385802000Y-195139000I173000J0D01*
G01*
G37*
G36*
G01*
X385802000Y-194169000D02*
X386198000Y-194169000D01*
G75*
G02*
X386371000Y-194342000I0J-173000D01*
G01*
X386371000Y-194688000D01*
G75*
G02*
X386198000Y-194861000I-173000J0D01*
G01*
X385802000Y-194861000D01*
G75*
G02*
X385629000Y-194688000I0J173000D01*
G01*
X385629000Y-194342000D01*
G75*
G02*
X385802000Y-194169000I173000J0D01*
G01*
G37*
G36*
G01*
X387802000Y-194169000D02*
X388198000Y-194169000D01*
G75*
G02*
X388371000Y-194342000I0J-173000D01*
G01*
X388371000Y-194688000D01*
G75*
G02*
X388198000Y-194861000I-173000J0D01*
G01*
X387802000Y-194861000D01*
G75*
G02*
X387629000Y-194688000I0J173000D01*
G01*
X387629000Y-194342000D01*
G75*
G02*
X387802000Y-194169000I173000J0D01*
G01*
G37*
G36*
G01*
X387802000Y-195139000D02*
X388198000Y-195139000D01*
G75*
G02*
X388371000Y-195312000I0J-173000D01*
G01*
X388371000Y-195658000D01*
G75*
G02*
X388198000Y-195831000I-173000J0D01*
G01*
X387802000Y-195831000D01*
G75*
G02*
X387629000Y-195658000I0J173000D01*
G01*
X387629000Y-195312000D01*
G75*
G02*
X387802000Y-195139000I173000J0D01*
G01*
G37*
G36*
G01*
X389802000Y-195139000D02*
X390198000Y-195139000D01*
G75*
G02*
X390371000Y-195312000I0J-173000D01*
G01*
X390371000Y-195658000D01*
G75*
G02*
X390198000Y-195831000I-173000J0D01*
G01*
X389802000Y-195831000D01*
G75*
G02*
X389629000Y-195658000I0J173000D01*
G01*
X389629000Y-195312000D01*
G75*
G02*
X389802000Y-195139000I173000J0D01*
G01*
G37*
G36*
G01*
X389802000Y-194169000D02*
X390198000Y-194169000D01*
G75*
G02*
X390371000Y-194342000I0J-173000D01*
G01*
X390371000Y-194688000D01*
G75*
G02*
X390198000Y-194861000I-173000J0D01*
G01*
X389802000Y-194861000D01*
G75*
G02*
X389629000Y-194688000I0J173000D01*
G01*
X389629000Y-194342000D01*
G75*
G02*
X389802000Y-194169000I173000J0D01*
G01*
G37*
G36*
G01*
X391802000Y-194169000D02*
X392198000Y-194169000D01*
G75*
G02*
X392371000Y-194342000I0J-173000D01*
G01*
X392371000Y-194688000D01*
G75*
G02*
X392198000Y-194861000I-173000J0D01*
G01*
X391802000Y-194861000D01*
G75*
G02*
X391629000Y-194688000I0J173000D01*
G01*
X391629000Y-194342000D01*
G75*
G02*
X391802000Y-194169000I173000J0D01*
G01*
G37*
G36*
G01*
X391802000Y-195139000D02*
X392198000Y-195139000D01*
G75*
G02*
X392371000Y-195312000I0J-173000D01*
G01*
X392371000Y-195658000D01*
G75*
G02*
X392198000Y-195831000I-173000J0D01*
G01*
X391802000Y-195831000D01*
G75*
G02*
X391629000Y-195658000I0J173000D01*
G01*
X391629000Y-195312000D01*
G75*
G02*
X391802000Y-195139000I173000J0D01*
G01*
G37*
G36*
G01*
X393802000Y-194169000D02*
X394198000Y-194169000D01*
G75*
G02*
X394371000Y-194342000I0J-173000D01*
G01*
X394371000Y-194688000D01*
G75*
G02*
X394198000Y-194861000I-173000J0D01*
G01*
X393802000Y-194861000D01*
G75*
G02*
X393629000Y-194688000I0J173000D01*
G01*
X393629000Y-194342000D01*
G75*
G02*
X393802000Y-194169000I173000J0D01*
G01*
G37*
G36*
G01*
X393802000Y-195139000D02*
X394198000Y-195139000D01*
G75*
G02*
X394371000Y-195312000I0J-173000D01*
G01*
X394371000Y-195658000D01*
G75*
G02*
X394198000Y-195831000I-173000J0D01*
G01*
X393802000Y-195831000D01*
G75*
G02*
X393629000Y-195658000I0J173000D01*
G01*
X393629000Y-195312000D01*
G75*
G02*
X393802000Y-195139000I173000J0D01*
G01*
G37*
G36*
G01*
X395802000Y-194169000D02*
X396198000Y-194169000D01*
G75*
G02*
X396371000Y-194342000I0J-173000D01*
G01*
X396371000Y-194688000D01*
G75*
G02*
X396198000Y-194861000I-173000J0D01*
G01*
X395802000Y-194861000D01*
G75*
G02*
X395629000Y-194688000I0J173000D01*
G01*
X395629000Y-194342000D01*
G75*
G02*
X395802000Y-194169000I173000J0D01*
G01*
G37*
G36*
G01*
X395802000Y-195139000D02*
X396198000Y-195139000D01*
G75*
G02*
X396371000Y-195312000I0J-173000D01*
G01*
X396371000Y-195658000D01*
G75*
G02*
X396198000Y-195831000I-173000J0D01*
G01*
X395802000Y-195831000D01*
G75*
G02*
X395629000Y-195658000I0J173000D01*
G01*
X395629000Y-195312000D01*
G75*
G02*
X395802000Y-195139000I173000J0D01*
G01*
G37*
G36*
G01*
X397802000Y-194169000D02*
X398198000Y-194169000D01*
G75*
G02*
X398371000Y-194342000I0J-173000D01*
G01*
X398371000Y-194688000D01*
G75*
G02*
X398198000Y-194861000I-173000J0D01*
G01*
X397802000Y-194861000D01*
G75*
G02*
X397629000Y-194688000I0J173000D01*
G01*
X397629000Y-194342000D01*
G75*
G02*
X397802000Y-194169000I173000J0D01*
G01*
G37*
G36*
G01*
X397802000Y-195139000D02*
X398198000Y-195139000D01*
G75*
G02*
X398371000Y-195312000I0J-173000D01*
G01*
X398371000Y-195658000D01*
G75*
G02*
X398198000Y-195831000I-173000J0D01*
G01*
X397802000Y-195831000D01*
G75*
G02*
X397629000Y-195658000I0J173000D01*
G01*
X397629000Y-195312000D01*
G75*
G02*
X397802000Y-195139000I173000J0D01*
G01*
G37*
G36*
G01*
X399802000Y-195139000D02*
X400198000Y-195139000D01*
G75*
G02*
X400371000Y-195312000I0J-173000D01*
G01*
X400371000Y-195658000D01*
G75*
G02*
X400198000Y-195831000I-173000J0D01*
G01*
X399802000Y-195831000D01*
G75*
G02*
X399629000Y-195658000I0J173000D01*
G01*
X399629000Y-195312000D01*
G75*
G02*
X399802000Y-195139000I173000J0D01*
G01*
G37*
G36*
G01*
X399802000Y-194169000D02*
X400198000Y-194169000D01*
G75*
G02*
X400371000Y-194342000I0J-173000D01*
G01*
X400371000Y-194688000D01*
G75*
G02*
X400198000Y-194861000I-173000J0D01*
G01*
X399802000Y-194861000D01*
G75*
G02*
X399629000Y-194688000I0J173000D01*
G01*
X399629000Y-194342000D01*
G75*
G02*
X399802000Y-194169000I173000J0D01*
G01*
G37*
G36*
G01*
X401802000Y-194169000D02*
X402198000Y-194169000D01*
G75*
G02*
X402371000Y-194342000I0J-173000D01*
G01*
X402371000Y-194688000D01*
G75*
G02*
X402198000Y-194861000I-173000J0D01*
G01*
X401802000Y-194861000D01*
G75*
G02*
X401629000Y-194688000I0J173000D01*
G01*
X401629000Y-194342000D01*
G75*
G02*
X401802000Y-194169000I173000J0D01*
G01*
G37*
G36*
G01*
X401802000Y-195139000D02*
X402198000Y-195139000D01*
G75*
G02*
X402371000Y-195312000I0J-173000D01*
G01*
X402371000Y-195658000D01*
G75*
G02*
X402198000Y-195831000I-173000J0D01*
G01*
X401802000Y-195831000D01*
G75*
G02*
X401629000Y-195658000I0J173000D01*
G01*
X401629000Y-195312000D01*
G75*
G02*
X401802000Y-195139000I173000J0D01*
G01*
G37*
G36*
G01*
X398299000Y-181363000D02*
X398299000Y-180837000D01*
G75*
G02*
X398562000Y-180574000I263000J0D01*
G01*
X399188000Y-180574000D01*
G75*
G02*
X399451000Y-180837000I0J-263000D01*
G01*
X399451000Y-181363000D01*
G75*
G02*
X399188000Y-181626000I-263000J0D01*
G01*
X398562000Y-181626000D01*
G75*
G02*
X398299000Y-181363000I0J263000D01*
G01*
G37*
G36*
G01*
X396549000Y-181363000D02*
X396549000Y-180837000D01*
G75*
G02*
X396812000Y-180574000I263000J0D01*
G01*
X397438000Y-180574000D01*
G75*
G02*
X397701000Y-180837000I0J-263000D01*
G01*
X397701000Y-181363000D01*
G75*
G02*
X397438000Y-181626000I-263000J0D01*
G01*
X396812000Y-181626000D01*
G75*
G02*
X396549000Y-181363000I0J263000D01*
G01*
G37*
G36*
G01*
X396549000Y-178308000D02*
X396549000Y-177782000D01*
G75*
G02*
X396812000Y-177519000I263000J0D01*
G01*
X397438000Y-177519000D01*
G75*
G02*
X397701000Y-177782000I0J-263000D01*
G01*
X397701000Y-178308000D01*
G75*
G02*
X397438000Y-178571000I-263000J0D01*
G01*
X396812000Y-178571000D01*
G75*
G02*
X396549000Y-178308000I0J263000D01*
G01*
G37*
G36*
G01*
X398299000Y-178308000D02*
X398299000Y-177782000D01*
G75*
G02*
X398562000Y-177519000I263000J0D01*
G01*
X399188000Y-177519000D01*
G75*
G02*
X399451000Y-177782000I0J-263000D01*
G01*
X399451000Y-178308000D01*
G75*
G02*
X399188000Y-178571000I-263000J0D01*
G01*
X398562000Y-178571000D01*
G75*
G02*
X398299000Y-178308000I0J263000D01*
G01*
G37*
G36*
G01*
X396549000Y-176763000D02*
X396549000Y-176237000D01*
G75*
G02*
X396812000Y-175974000I263000J0D01*
G01*
X397438000Y-175974000D01*
G75*
G02*
X397701000Y-176237000I0J-263000D01*
G01*
X397701000Y-176763000D01*
G75*
G02*
X397438000Y-177026000I-263000J0D01*
G01*
X396812000Y-177026000D01*
G75*
G02*
X396549000Y-176763000I0J263000D01*
G01*
G37*
G36*
G01*
X398299000Y-176763000D02*
X398299000Y-176237000D01*
G75*
G02*
X398562000Y-175974000I263000J0D01*
G01*
X399188000Y-175974000D01*
G75*
G02*
X399451000Y-176237000I0J-263000D01*
G01*
X399451000Y-176763000D01*
G75*
G02*
X399188000Y-177026000I-263000J0D01*
G01*
X398562000Y-177026000D01*
G75*
G02*
X398299000Y-176763000I0J263000D01*
G01*
G37*
G36*
G01*
X388263000Y-132526000D02*
X387737000Y-132526000D01*
G75*
G02*
X387474000Y-132263000I0J263000D01*
G01*
X387474000Y-131637000D01*
G75*
G02*
X387737000Y-131374000I263000J0D01*
G01*
X388263000Y-131374000D01*
G75*
G02*
X388526000Y-131637000I0J-263000D01*
G01*
X388526000Y-132263000D01*
G75*
G02*
X388263000Y-132526000I-263000J0D01*
G01*
G37*
G36*
G01*
X388263000Y-130776000D02*
X387737000Y-130776000D01*
G75*
G02*
X387474000Y-130513000I0J263000D01*
G01*
X387474000Y-129887000D01*
G75*
G02*
X387737000Y-129624000I263000J0D01*
G01*
X388263000Y-129624000D01*
G75*
G02*
X388526000Y-129887000I0J-263000D01*
G01*
X388526000Y-130513000D01*
G75*
G02*
X388263000Y-130776000I-263000J0D01*
G01*
G37*
G36*
G01*
X378213000Y-130926000D02*
X377687000Y-130926000D01*
G75*
G02*
X377424000Y-130663000I0J263000D01*
G01*
X377424000Y-130037000D01*
G75*
G02*
X377687000Y-129774000I263000J0D01*
G01*
X378213000Y-129774000D01*
G75*
G02*
X378476000Y-130037000I0J-263000D01*
G01*
X378476000Y-130663000D01*
G75*
G02*
X378213000Y-130926000I-263000J0D01*
G01*
G37*
G36*
G01*
X378213000Y-132676000D02*
X377687000Y-132676000D01*
G75*
G02*
X377424000Y-132413000I0J263000D01*
G01*
X377424000Y-131787000D01*
G75*
G02*
X377687000Y-131524000I263000J0D01*
G01*
X378213000Y-131524000D01*
G75*
G02*
X378476000Y-131787000I0J-263000D01*
G01*
X378476000Y-132413000D01*
G75*
G02*
X378213000Y-132676000I-263000J0D01*
G01*
G37*
G36*
G01*
X380976000Y-133437000D02*
X380976000Y-133963000D01*
G75*
G02*
X380713000Y-134226000I-263000J0D01*
G01*
X380087000Y-134226000D01*
G75*
G02*
X379824000Y-133963000I0J263000D01*
G01*
X379824000Y-133437000D01*
G75*
G02*
X380087000Y-133174000I263000J0D01*
G01*
X380713000Y-133174000D01*
G75*
G02*
X380976000Y-133437000I0J-263000D01*
G01*
G37*
G36*
G01*
X379226000Y-133437000D02*
X379226000Y-133963000D01*
G75*
G02*
X378963000Y-134226000I-263000J0D01*
G01*
X378337000Y-134226000D01*
G75*
G02*
X378074000Y-133963000I0J263000D01*
G01*
X378074000Y-133437000D01*
G75*
G02*
X378337000Y-133174000I263000J0D01*
G01*
X378963000Y-133174000D01*
G75*
G02*
X379226000Y-133437000I0J-263000D01*
G01*
G37*
G36*
G01*
X404263000Y-181326000D02*
X403737000Y-181326000D01*
G75*
G02*
X403474000Y-181063000I0J263000D01*
G01*
X403474000Y-180437000D01*
G75*
G02*
X403737000Y-180174000I263000J0D01*
G01*
X404263000Y-180174000D01*
G75*
G02*
X404526000Y-180437000I0J-263000D01*
G01*
X404526000Y-181063000D01*
G75*
G02*
X404263000Y-181326000I-263000J0D01*
G01*
G37*
G36*
G01*
X404263000Y-183076000D02*
X403737000Y-183076000D01*
G75*
G02*
X403474000Y-182813000I0J263000D01*
G01*
X403474000Y-182187000D01*
G75*
G02*
X403737000Y-181924000I263000J0D01*
G01*
X404263000Y-181924000D01*
G75*
G02*
X404526000Y-182187000I0J-263000D01*
G01*
X404526000Y-182813000D01*
G75*
G02*
X404263000Y-183076000I-263000J0D01*
G01*
G37*
G36*
G01*
X397706000Y-183892000D02*
X397706000Y-184418000D01*
G75*
G02*
X397443000Y-184681000I-263000J0D01*
G01*
X396817000Y-184681000D01*
G75*
G02*
X396554000Y-184418000I0J263000D01*
G01*
X396554000Y-183892000D01*
G75*
G02*
X396817000Y-183629000I263000J0D01*
G01*
X397443000Y-183629000D01*
G75*
G02*
X397706000Y-183892000I0J-263000D01*
G01*
G37*
G36*
G01*
X399456000Y-183892000D02*
X399456000Y-184418000D01*
G75*
G02*
X399193000Y-184681000I-263000J0D01*
G01*
X398567000Y-184681000D01*
G75*
G02*
X398304000Y-184418000I0J263000D01*
G01*
X398304000Y-183892000D01*
G75*
G02*
X398567000Y-183629000I263000J0D01*
G01*
X399193000Y-183629000D01*
G75*
G02*
X399456000Y-183892000I0J-263000D01*
G01*
G37*
G36*
G01*
X379824000Y-136563000D02*
X379824000Y-136037000D01*
G75*
G02*
X380087000Y-135774000I263000J0D01*
G01*
X380713000Y-135774000D01*
G75*
G02*
X380976000Y-136037000I0J-263000D01*
G01*
X380976000Y-136563000D01*
G75*
G02*
X380713000Y-136826000I-263000J0D01*
G01*
X380087000Y-136826000D01*
G75*
G02*
X379824000Y-136563000I0J263000D01*
G01*
G37*
G36*
G01*
X378074000Y-136563000D02*
X378074000Y-136037000D01*
G75*
G02*
X378337000Y-135774000I263000J0D01*
G01*
X378963000Y-135774000D01*
G75*
G02*
X379226000Y-136037000I0J-263000D01*
G01*
X379226000Y-136563000D01*
G75*
G02*
X378963000Y-136826000I-263000J0D01*
G01*
X378337000Y-136826000D01*
G75*
G02*
X378074000Y-136563000I0J263000D01*
G01*
G37*
G36*
G01*
X387737000Y-137474000D02*
X388263000Y-137474000D01*
G75*
G02*
X388526000Y-137737000I0J-263000D01*
G01*
X388526000Y-138363000D01*
G75*
G02*
X388263000Y-138626000I-263000J0D01*
G01*
X387737000Y-138626000D01*
G75*
G02*
X387474000Y-138363000I0J263000D01*
G01*
X387474000Y-137737000D01*
G75*
G02*
X387737000Y-137474000I263000J0D01*
G01*
G37*
G36*
G01*
X387737000Y-139224000D02*
X388263000Y-139224000D01*
G75*
G02*
X388526000Y-139487000I0J-263000D01*
G01*
X388526000Y-140113000D01*
G75*
G02*
X388263000Y-140376000I-263000J0D01*
G01*
X387737000Y-140376000D01*
G75*
G02*
X387474000Y-140113000I0J263000D01*
G01*
X387474000Y-139487000D01*
G75*
G02*
X387737000Y-139224000I263000J0D01*
G01*
G37*
G36*
G01*
X377737000Y-139224000D02*
X378263000Y-139224000D01*
G75*
G02*
X378526000Y-139487000I0J-263000D01*
G01*
X378526000Y-140113000D01*
G75*
G02*
X378263000Y-140376000I-263000J0D01*
G01*
X377737000Y-140376000D01*
G75*
G02*
X377474000Y-140113000I0J263000D01*
G01*
X377474000Y-139487000D01*
G75*
G02*
X377737000Y-139224000I263000J0D01*
G01*
G37*
G36*
G01*
X377737000Y-137474000D02*
X378263000Y-137474000D01*
G75*
G02*
X378526000Y-137737000I0J-263000D01*
G01*
X378526000Y-138363000D01*
G75*
G02*
X378263000Y-138626000I-263000J0D01*
G01*
X377737000Y-138626000D01*
G75*
G02*
X377474000Y-138363000I0J263000D01*
G01*
X377474000Y-137737000D01*
G75*
G02*
X377737000Y-137474000I263000J0D01*
G01*
G37*
G36*
G01*
X379063000Y-114876000D02*
X378537000Y-114876000D01*
G75*
G02*
X378274000Y-114613000I0J263000D01*
G01*
X378274000Y-113987000D01*
G75*
G02*
X378537000Y-113724000I263000J0D01*
G01*
X379063000Y-113724000D01*
G75*
G02*
X379326000Y-113987000I0J-263000D01*
G01*
X379326000Y-114613000D01*
G75*
G02*
X379063000Y-114876000I-263000J0D01*
G01*
G37*
G36*
G01*
X379063000Y-113126000D02*
X378537000Y-113126000D01*
G75*
G02*
X378274000Y-112863000I0J263000D01*
G01*
X378274000Y-112237000D01*
G75*
G02*
X378537000Y-111974000I263000J0D01*
G01*
X379063000Y-111974000D01*
G75*
G02*
X379326000Y-112237000I0J-263000D01*
G01*
X379326000Y-112863000D01*
G75*
G02*
X379063000Y-113126000I-263000J0D01*
G01*
G37*
G36*
G01*
X376637000Y-114624000D02*
X377163000Y-114624000D01*
G75*
G02*
X377426000Y-114887000I0J-263000D01*
G01*
X377426000Y-115513000D01*
G75*
G02*
X377163000Y-115776000I-263000J0D01*
G01*
X376637000Y-115776000D01*
G75*
G02*
X376374000Y-115513000I0J263000D01*
G01*
X376374000Y-114887000D01*
G75*
G02*
X376637000Y-114624000I263000J0D01*
G01*
G37*
G36*
G01*
X376637000Y-112874000D02*
X377163000Y-112874000D01*
G75*
G02*
X377426000Y-113137000I0J-263000D01*
G01*
X377426000Y-113763000D01*
G75*
G02*
X377163000Y-114026000I-263000J0D01*
G01*
X376637000Y-114026000D01*
G75*
G02*
X376374000Y-113763000I0J263000D01*
G01*
X376374000Y-113137000D01*
G75*
G02*
X376637000Y-112874000I263000J0D01*
G01*
G37*
G36*
G01*
X369824000Y-136563000D02*
X369824000Y-136037000D01*
G75*
G02*
X370087000Y-135774000I263000J0D01*
G01*
X370713000Y-135774000D01*
G75*
G02*
X370976000Y-136037000I0J-263000D01*
G01*
X370976000Y-136563000D01*
G75*
G02*
X370713000Y-136826000I-263000J0D01*
G01*
X370087000Y-136826000D01*
G75*
G02*
X369824000Y-136563000I0J263000D01*
G01*
G37*
G36*
G01*
X368074000Y-136563000D02*
X368074000Y-136037000D01*
G75*
G02*
X368337000Y-135774000I263000J0D01*
G01*
X368963000Y-135774000D01*
G75*
G02*
X369226000Y-136037000I0J-263000D01*
G01*
X369226000Y-136563000D01*
G75*
G02*
X368963000Y-136826000I-263000J0D01*
G01*
X368337000Y-136826000D01*
G75*
G02*
X368074000Y-136563000I0J263000D01*
G01*
G37*
G36*
G01*
X368074000Y-133963000D02*
X368074000Y-133437000D01*
G75*
G02*
X368337000Y-133174000I263000J0D01*
G01*
X368963000Y-133174000D01*
G75*
G02*
X369226000Y-133437000I0J-263000D01*
G01*
X369226000Y-133963000D01*
G75*
G02*
X368963000Y-134226000I-263000J0D01*
G01*
X368337000Y-134226000D01*
G75*
G02*
X368074000Y-133963000I0J263000D01*
G01*
G37*
G36*
G01*
X369824000Y-133963000D02*
X369824000Y-133437000D01*
G75*
G02*
X370087000Y-133174000I263000J0D01*
G01*
X370713000Y-133174000D01*
G75*
G02*
X370976000Y-133437000I0J-263000D01*
G01*
X370976000Y-133963000D01*
G75*
G02*
X370713000Y-134226000I-263000J0D01*
G01*
X370087000Y-134226000D01*
G75*
G02*
X369824000Y-133963000I0J263000D01*
G01*
G37*
G36*
G01*
X432739000Y-139443000D02*
X432739000Y-138917000D01*
G75*
G02*
X433002000Y-138654000I263000J0D01*
G01*
X433628000Y-138654000D01*
G75*
G02*
X433891000Y-138917000I0J-263000D01*
G01*
X433891000Y-139443000D01*
G75*
G02*
X433628000Y-139706000I-263000J0D01*
G01*
X433002000Y-139706000D01*
G75*
G02*
X432739000Y-139443000I0J263000D01*
G01*
G37*
G36*
G01*
X430989000Y-139443000D02*
X430989000Y-138917000D01*
G75*
G02*
X431252000Y-138654000I263000J0D01*
G01*
X431878000Y-138654000D01*
G75*
G02*
X432141000Y-138917000I0J-263000D01*
G01*
X432141000Y-139443000D01*
G75*
G02*
X431878000Y-139706000I-263000J0D01*
G01*
X431252000Y-139706000D01*
G75*
G02*
X430989000Y-139443000I0J263000D01*
G01*
G37*
G36*
G01*
X429621000Y-138937000D02*
X429621000Y-139463000D01*
G75*
G02*
X429358000Y-139726000I-263000J0D01*
G01*
X428732000Y-139726000D01*
G75*
G02*
X428469000Y-139463000I0J263000D01*
G01*
X428469000Y-138937000D01*
G75*
G02*
X428732000Y-138674000I263000J0D01*
G01*
X429358000Y-138674000D01*
G75*
G02*
X429621000Y-138937000I0J-263000D01*
G01*
G37*
G36*
G01*
X427871000Y-138937000D02*
X427871000Y-139463000D01*
G75*
G02*
X427608000Y-139726000I-263000J0D01*
G01*
X426982000Y-139726000D01*
G75*
G02*
X426719000Y-139463000I0J263000D01*
G01*
X426719000Y-138937000D01*
G75*
G02*
X426982000Y-138674000I263000J0D01*
G01*
X427608000Y-138674000D01*
G75*
G02*
X427871000Y-138937000I0J-263000D01*
G01*
G37*
G36*
G01*
X353238828Y-122211000D02*
X352281172Y-122211000D01*
G75*
G02*
X352009000Y-121938828I0J272172D01*
G01*
X352009000Y-121231172D01*
G75*
G02*
X352281172Y-120959000I272172J0D01*
G01*
X353238828Y-120959000D01*
G75*
G02*
X353511000Y-121231172I0J-272172D01*
G01*
X353511000Y-121938828D01*
G75*
G02*
X353238828Y-122211000I-272172J0D01*
G01*
G37*
G36*
G01*
X353238828Y-124261000D02*
X352281172Y-124261000D01*
G75*
G02*
X352009000Y-123988828I0J272172D01*
G01*
X352009000Y-123281172D01*
G75*
G02*
X352281172Y-123009000I272172J0D01*
G01*
X353238828Y-123009000D01*
G75*
G02*
X353511000Y-123281172I0J-272172D01*
G01*
X353511000Y-123988828D01*
G75*
G02*
X353238828Y-124261000I-272172J0D01*
G01*
G37*
G36*
G01*
X347149000Y-172063000D02*
X347149000Y-171537000D01*
G75*
G02*
X347412000Y-171274000I263000J0D01*
G01*
X348038000Y-171274000D01*
G75*
G02*
X348301000Y-171537000I0J-263000D01*
G01*
X348301000Y-172063000D01*
G75*
G02*
X348038000Y-172326000I-263000J0D01*
G01*
X347412000Y-172326000D01*
G75*
G02*
X347149000Y-172063000I0J263000D01*
G01*
G37*
G36*
G01*
X348899000Y-172063000D02*
X348899000Y-171537000D01*
G75*
G02*
X349162000Y-171274000I263000J0D01*
G01*
X349788000Y-171274000D01*
G75*
G02*
X350051000Y-171537000I0J-263000D01*
G01*
X350051000Y-172063000D01*
G75*
G02*
X349788000Y-172326000I-263000J0D01*
G01*
X349162000Y-172326000D01*
G75*
G02*
X348899000Y-172063000I0J263000D01*
G01*
G37*
G36*
G01*
X347174000Y-174013000D02*
X347174000Y-173487000D01*
G75*
G02*
X347437000Y-173224000I263000J0D01*
G01*
X348063000Y-173224000D01*
G75*
G02*
X348326000Y-173487000I0J-263000D01*
G01*
X348326000Y-174013000D01*
G75*
G02*
X348063000Y-174276000I-263000J0D01*
G01*
X347437000Y-174276000D01*
G75*
G02*
X347174000Y-174013000I0J263000D01*
G01*
G37*
G36*
G01*
X348924000Y-174013000D02*
X348924000Y-173487000D01*
G75*
G02*
X349187000Y-173224000I263000J0D01*
G01*
X349813000Y-173224000D01*
G75*
G02*
X350076000Y-173487000I0J-263000D01*
G01*
X350076000Y-174013000D01*
G75*
G02*
X349813000Y-174276000I-263000J0D01*
G01*
X349187000Y-174276000D01*
G75*
G02*
X348924000Y-174013000I0J263000D01*
G01*
G37*
G36*
G01*
X353714000Y-163823000D02*
X353714000Y-163297000D01*
G75*
G02*
X353977000Y-163034000I263000J0D01*
G01*
X354603000Y-163034000D01*
G75*
G02*
X354866000Y-163297000I0J-263000D01*
G01*
X354866000Y-163823000D01*
G75*
G02*
X354603000Y-164086000I-263000J0D01*
G01*
X353977000Y-164086000D01*
G75*
G02*
X353714000Y-163823000I0J263000D01*
G01*
G37*
G36*
G01*
X351964000Y-163823000D02*
X351964000Y-163297000D01*
G75*
G02*
X352227000Y-163034000I263000J0D01*
G01*
X352853000Y-163034000D01*
G75*
G02*
X353116000Y-163297000I0J-263000D01*
G01*
X353116000Y-163823000D01*
G75*
G02*
X352853000Y-164086000I-263000J0D01*
G01*
X352227000Y-164086000D01*
G75*
G02*
X351964000Y-163823000I0J263000D01*
G01*
G37*
G36*
G01*
X335807000Y-183339000D02*
X336333000Y-183339000D01*
G75*
G02*
X336596000Y-183602000I0J-263000D01*
G01*
X336596000Y-184228000D01*
G75*
G02*
X336333000Y-184491000I-263000J0D01*
G01*
X335807000Y-184491000D01*
G75*
G02*
X335544000Y-184228000I0J263000D01*
G01*
X335544000Y-183602000D01*
G75*
G02*
X335807000Y-183339000I263000J0D01*
G01*
G37*
G36*
G01*
X335807000Y-185089000D02*
X336333000Y-185089000D01*
G75*
G02*
X336596000Y-185352000I0J-263000D01*
G01*
X336596000Y-185978000D01*
G75*
G02*
X336333000Y-186241000I-263000J0D01*
G01*
X335807000Y-186241000D01*
G75*
G02*
X335544000Y-185978000I0J263000D01*
G01*
X335544000Y-185352000D01*
G75*
G02*
X335807000Y-185089000I263000J0D01*
G01*
G37*
G36*
G01*
X335839000Y-189793000D02*
X335839000Y-189267000D01*
G75*
G02*
X336102000Y-189004000I263000J0D01*
G01*
X336728000Y-189004000D01*
G75*
G02*
X336991000Y-189267000I0J-263000D01*
G01*
X336991000Y-189793000D01*
G75*
G02*
X336728000Y-190056000I-263000J0D01*
G01*
X336102000Y-190056000D01*
G75*
G02*
X335839000Y-189793000I0J263000D01*
G01*
G37*
G36*
G01*
X334089000Y-189793000D02*
X334089000Y-189267000D01*
G75*
G02*
X334352000Y-189004000I263000J0D01*
G01*
X334978000Y-189004000D01*
G75*
G02*
X335241000Y-189267000I0J-263000D01*
G01*
X335241000Y-189793000D01*
G75*
G02*
X334978000Y-190056000I-263000J0D01*
G01*
X334352000Y-190056000D01*
G75*
G02*
X334089000Y-189793000I0J263000D01*
G01*
G37*
G36*
G01*
X343373000Y-187781000D02*
X342847000Y-187781000D01*
G75*
G02*
X342584000Y-187518000I0J263000D01*
G01*
X342584000Y-186892000D01*
G75*
G02*
X342847000Y-186629000I263000J0D01*
G01*
X343373000Y-186629000D01*
G75*
G02*
X343636000Y-186892000I0J-263000D01*
G01*
X343636000Y-187518000D01*
G75*
G02*
X343373000Y-187781000I-263000J0D01*
G01*
G37*
G36*
G01*
X343373000Y-186031000D02*
X342847000Y-186031000D01*
G75*
G02*
X342584000Y-185768000I0J263000D01*
G01*
X342584000Y-185142000D01*
G75*
G02*
X342847000Y-184879000I263000J0D01*
G01*
X343373000Y-184879000D01*
G75*
G02*
X343636000Y-185142000I0J-263000D01*
G01*
X343636000Y-185768000D01*
G75*
G02*
X343373000Y-186031000I-263000J0D01*
G01*
G37*
G36*
G01*
X362857000Y-187679000D02*
X363383000Y-187679000D01*
G75*
G02*
X363646000Y-187942000I0J-263000D01*
G01*
X363646000Y-188568000D01*
G75*
G02*
X363383000Y-188831000I-263000J0D01*
G01*
X362857000Y-188831000D01*
G75*
G02*
X362594000Y-188568000I0J263000D01*
G01*
X362594000Y-187942000D01*
G75*
G02*
X362857000Y-187679000I263000J0D01*
G01*
G37*
G36*
G01*
X362857000Y-185929000D02*
X363383000Y-185929000D01*
G75*
G02*
X363646000Y-186192000I0J-263000D01*
G01*
X363646000Y-186818000D01*
G75*
G02*
X363383000Y-187081000I-263000J0D01*
G01*
X362857000Y-187081000D01*
G75*
G02*
X362594000Y-186818000I0J263000D01*
G01*
X362594000Y-186192000D01*
G75*
G02*
X362857000Y-185929000I263000J0D01*
G01*
G37*
G36*
G01*
X362847000Y-169839000D02*
X363373000Y-169839000D01*
G75*
G02*
X363636000Y-170102000I0J-263000D01*
G01*
X363636000Y-170728000D01*
G75*
G02*
X363373000Y-170991000I-263000J0D01*
G01*
X362847000Y-170991000D01*
G75*
G02*
X362584000Y-170728000I0J263000D01*
G01*
X362584000Y-170102000D01*
G75*
G02*
X362847000Y-169839000I263000J0D01*
G01*
G37*
G36*
G01*
X362847000Y-171589000D02*
X363373000Y-171589000D01*
G75*
G02*
X363636000Y-171852000I0J-263000D01*
G01*
X363636000Y-172478000D01*
G75*
G02*
X363373000Y-172741000I-263000J0D01*
G01*
X362847000Y-172741000D01*
G75*
G02*
X362584000Y-172478000I0J263000D01*
G01*
X362584000Y-171852000D01*
G75*
G02*
X362847000Y-171589000I263000J0D01*
G01*
G37*
G36*
G01*
X333549000Y-163943000D02*
X333549000Y-163417000D01*
G75*
G02*
X333812000Y-163154000I263000J0D01*
G01*
X334438000Y-163154000D01*
G75*
G02*
X334701000Y-163417000I0J-263000D01*
G01*
X334701000Y-163943000D01*
G75*
G02*
X334438000Y-164206000I-263000J0D01*
G01*
X333812000Y-164206000D01*
G75*
G02*
X333549000Y-163943000I0J263000D01*
G01*
G37*
G36*
G01*
X335299000Y-163943000D02*
X335299000Y-163417000D01*
G75*
G02*
X335562000Y-163154000I263000J0D01*
G01*
X336188000Y-163154000D01*
G75*
G02*
X336451000Y-163417000I0J-263000D01*
G01*
X336451000Y-163943000D01*
G75*
G02*
X336188000Y-164206000I-263000J0D01*
G01*
X335562000Y-164206000D01*
G75*
G02*
X335299000Y-163943000I0J263000D01*
G01*
G37*
G36*
G01*
X363383000Y-183241000D02*
X362857000Y-183241000D01*
G75*
G02*
X362594000Y-182978000I0J263000D01*
G01*
X362594000Y-182352000D01*
G75*
G02*
X362857000Y-182089000I263000J0D01*
G01*
X363383000Y-182089000D01*
G75*
G02*
X363646000Y-182352000I0J-263000D01*
G01*
X363646000Y-182978000D01*
G75*
G02*
X363383000Y-183241000I-263000J0D01*
G01*
G37*
G36*
G01*
X363383000Y-184991000D02*
X362857000Y-184991000D01*
G75*
G02*
X362594000Y-184728000I0J263000D01*
G01*
X362594000Y-184102000D01*
G75*
G02*
X362857000Y-183839000I263000J0D01*
G01*
X363383000Y-183839000D01*
G75*
G02*
X363646000Y-184102000I0J-263000D01*
G01*
X363646000Y-184728000D01*
G75*
G02*
X363383000Y-184991000I-263000J0D01*
G01*
G37*
G36*
G01*
X363363000Y-179801000D02*
X362837000Y-179801000D01*
G75*
G02*
X362574000Y-179538000I0J263000D01*
G01*
X362574000Y-178912000D01*
G75*
G02*
X362837000Y-178649000I263000J0D01*
G01*
X363363000Y-178649000D01*
G75*
G02*
X363626000Y-178912000I0J-263000D01*
G01*
X363626000Y-179538000D01*
G75*
G02*
X363363000Y-179801000I-263000J0D01*
G01*
G37*
G36*
G01*
X363363000Y-178051000D02*
X362837000Y-178051000D01*
G75*
G02*
X362574000Y-177788000I0J263000D01*
G01*
X362574000Y-177162000D01*
G75*
G02*
X362837000Y-176899000I263000J0D01*
G01*
X363363000Y-176899000D01*
G75*
G02*
X363626000Y-177162000I0J-263000D01*
G01*
X363626000Y-177788000D01*
G75*
G02*
X363363000Y-178051000I-263000J0D01*
G01*
G37*
G36*
G01*
X366399000Y-178863000D02*
X366399000Y-178337000D01*
G75*
G02*
X366662000Y-178074000I263000J0D01*
G01*
X367288000Y-178074000D01*
G75*
G02*
X367551000Y-178337000I0J-263000D01*
G01*
X367551000Y-178863000D01*
G75*
G02*
X367288000Y-179126000I-263000J0D01*
G01*
X366662000Y-179126000D01*
G75*
G02*
X366399000Y-178863000I0J263000D01*
G01*
G37*
G36*
G01*
X364649000Y-178863000D02*
X364649000Y-178337000D01*
G75*
G02*
X364912000Y-178074000I263000J0D01*
G01*
X365538000Y-178074000D01*
G75*
G02*
X365801000Y-178337000I0J-263000D01*
G01*
X365801000Y-178863000D01*
G75*
G02*
X365538000Y-179126000I-263000J0D01*
G01*
X364912000Y-179126000D01*
G75*
G02*
X364649000Y-178863000I0J263000D01*
G01*
G37*
G36*
G01*
X334343000Y-173131000D02*
X333817000Y-173131000D01*
G75*
G02*
X333554000Y-172868000I0J263000D01*
G01*
X333554000Y-172242000D01*
G75*
G02*
X333817000Y-171979000I263000J0D01*
G01*
X334343000Y-171979000D01*
G75*
G02*
X334606000Y-172242000I0J-263000D01*
G01*
X334606000Y-172868000D01*
G75*
G02*
X334343000Y-173131000I-263000J0D01*
G01*
G37*
G36*
G01*
X334343000Y-171381000D02*
X333817000Y-171381000D01*
G75*
G02*
X333554000Y-171118000I0J263000D01*
G01*
X333554000Y-170492000D01*
G75*
G02*
X333817000Y-170229000I263000J0D01*
G01*
X334343000Y-170229000D01*
G75*
G02*
X334606000Y-170492000I0J-263000D01*
G01*
X334606000Y-171118000D01*
G75*
G02*
X334343000Y-171381000I-263000J0D01*
G01*
G37*
G36*
G01*
X337299000Y-175663000D02*
X337299000Y-175137000D01*
G75*
G02*
X337562000Y-174874000I263000J0D01*
G01*
X338188000Y-174874000D01*
G75*
G02*
X338451000Y-175137000I0J-263000D01*
G01*
X338451000Y-175663000D01*
G75*
G02*
X338188000Y-175926000I-263000J0D01*
G01*
X337562000Y-175926000D01*
G75*
G02*
X337299000Y-175663000I0J263000D01*
G01*
G37*
G36*
G01*
X335549000Y-175663000D02*
X335549000Y-175137000D01*
G75*
G02*
X335812000Y-174874000I263000J0D01*
G01*
X336438000Y-174874000D01*
G75*
G02*
X336701000Y-175137000I0J-263000D01*
G01*
X336701000Y-175663000D01*
G75*
G02*
X336438000Y-175926000I-263000J0D01*
G01*
X335812000Y-175926000D01*
G75*
G02*
X335549000Y-175663000I0J263000D01*
G01*
G37*
G36*
G01*
X333817000Y-177629000D02*
X334343000Y-177629000D01*
G75*
G02*
X334606000Y-177892000I0J-263000D01*
G01*
X334606000Y-178518000D01*
G75*
G02*
X334343000Y-178781000I-263000J0D01*
G01*
X333817000Y-178781000D01*
G75*
G02*
X333554000Y-178518000I0J263000D01*
G01*
X333554000Y-177892000D01*
G75*
G02*
X333817000Y-177629000I263000J0D01*
G01*
G37*
G36*
G01*
X333817000Y-175879000D02*
X334343000Y-175879000D01*
G75*
G02*
X334606000Y-176142000I0J-263000D01*
G01*
X334606000Y-176768000D01*
G75*
G02*
X334343000Y-177031000I-263000J0D01*
G01*
X333817000Y-177031000D01*
G75*
G02*
X333554000Y-176768000I0J263000D01*
G01*
X333554000Y-176142000D01*
G75*
G02*
X333817000Y-175879000I263000J0D01*
G01*
G37*
G36*
G01*
X334353000Y-182571000D02*
X333827000Y-182571000D01*
G75*
G02*
X333564000Y-182308000I0J263000D01*
G01*
X333564000Y-181682000D01*
G75*
G02*
X333827000Y-181419000I263000J0D01*
G01*
X334353000Y-181419000D01*
G75*
G02*
X334616000Y-181682000I0J-263000D01*
G01*
X334616000Y-182308000D01*
G75*
G02*
X334353000Y-182571000I-263000J0D01*
G01*
G37*
G36*
G01*
X334353000Y-180821000D02*
X333827000Y-180821000D01*
G75*
G02*
X333564000Y-180558000I0J263000D01*
G01*
X333564000Y-179932000D01*
G75*
G02*
X333827000Y-179669000I263000J0D01*
G01*
X334353000Y-179669000D01*
G75*
G02*
X334616000Y-179932000I0J-263000D01*
G01*
X334616000Y-180558000D01*
G75*
G02*
X334353000Y-180821000I-263000J0D01*
G01*
G37*
G36*
G01*
X350916000Y-186912000D02*
X350916000Y-187438000D01*
G75*
G02*
X350653000Y-187701000I-263000J0D01*
G01*
X350027000Y-187701000D01*
G75*
G02*
X349764000Y-187438000I0J263000D01*
G01*
X349764000Y-186912000D01*
G75*
G02*
X350027000Y-186649000I263000J0D01*
G01*
X350653000Y-186649000D01*
G75*
G02*
X350916000Y-186912000I0J-263000D01*
G01*
G37*
G36*
G01*
X349166000Y-186912000D02*
X349166000Y-187438000D01*
G75*
G02*
X348903000Y-187701000I-263000J0D01*
G01*
X348277000Y-187701000D01*
G75*
G02*
X348014000Y-187438000I0J263000D01*
G01*
X348014000Y-186912000D01*
G75*
G02*
X348277000Y-186649000I263000J0D01*
G01*
X348903000Y-186649000D01*
G75*
G02*
X349166000Y-186912000I0J-263000D01*
G01*
G37*
G36*
G01*
X333817000Y-184779000D02*
X334343000Y-184779000D01*
G75*
G02*
X334606000Y-185042000I0J-263000D01*
G01*
X334606000Y-185668000D01*
G75*
G02*
X334343000Y-185931000I-263000J0D01*
G01*
X333817000Y-185931000D01*
G75*
G02*
X333554000Y-185668000I0J263000D01*
G01*
X333554000Y-185042000D01*
G75*
G02*
X333817000Y-184779000I263000J0D01*
G01*
G37*
G36*
G01*
X333817000Y-183029000D02*
X334343000Y-183029000D01*
G75*
G02*
X334606000Y-183292000I0J-263000D01*
G01*
X334606000Y-183918000D01*
G75*
G02*
X334343000Y-184181000I-263000J0D01*
G01*
X333817000Y-184181000D01*
G75*
G02*
X333554000Y-183918000I0J263000D01*
G01*
X333554000Y-183292000D01*
G75*
G02*
X333817000Y-183029000I263000J0D01*
G01*
G37*
G36*
G01*
X347377000Y-161699000D02*
X347903000Y-161699000D01*
G75*
G02*
X348166000Y-161962000I0J-263000D01*
G01*
X348166000Y-162588000D01*
G75*
G02*
X347903000Y-162851000I-263000J0D01*
G01*
X347377000Y-162851000D01*
G75*
G02*
X347114000Y-162588000I0J263000D01*
G01*
X347114000Y-161962000D01*
G75*
G02*
X347377000Y-161699000I263000J0D01*
G01*
G37*
G36*
G01*
X347377000Y-159949000D02*
X347903000Y-159949000D01*
G75*
G02*
X348166000Y-160212000I0J-263000D01*
G01*
X348166000Y-160838000D01*
G75*
G02*
X347903000Y-161101000I-263000J0D01*
G01*
X347377000Y-161101000D01*
G75*
G02*
X347114000Y-160838000I0J263000D01*
G01*
X347114000Y-160212000D01*
G75*
G02*
X347377000Y-159949000I263000J0D01*
G01*
G37*
G36*
G01*
X333402000Y-194169000D02*
X333798000Y-194169000D01*
G75*
G02*
X333971000Y-194342000I0J-173000D01*
G01*
X333971000Y-194688000D01*
G75*
G02*
X333798000Y-194861000I-173000J0D01*
G01*
X333402000Y-194861000D01*
G75*
G02*
X333229000Y-194688000I0J173000D01*
G01*
X333229000Y-194342000D01*
G75*
G02*
X333402000Y-194169000I173000J0D01*
G01*
G37*
G36*
G01*
X333402000Y-195139000D02*
X333798000Y-195139000D01*
G75*
G02*
X333971000Y-195312000I0J-173000D01*
G01*
X333971000Y-195658000D01*
G75*
G02*
X333798000Y-195831000I-173000J0D01*
G01*
X333402000Y-195831000D01*
G75*
G02*
X333229000Y-195658000I0J173000D01*
G01*
X333229000Y-195312000D01*
G75*
G02*
X333402000Y-195139000I173000J0D01*
G01*
G37*
G36*
G01*
X335402000Y-194169000D02*
X335798000Y-194169000D01*
G75*
G02*
X335971000Y-194342000I0J-173000D01*
G01*
X335971000Y-194688000D01*
G75*
G02*
X335798000Y-194861000I-173000J0D01*
G01*
X335402000Y-194861000D01*
G75*
G02*
X335229000Y-194688000I0J173000D01*
G01*
X335229000Y-194342000D01*
G75*
G02*
X335402000Y-194169000I173000J0D01*
G01*
G37*
G36*
G01*
X335402000Y-195139000D02*
X335798000Y-195139000D01*
G75*
G02*
X335971000Y-195312000I0J-173000D01*
G01*
X335971000Y-195658000D01*
G75*
G02*
X335798000Y-195831000I-173000J0D01*
G01*
X335402000Y-195831000D01*
G75*
G02*
X335229000Y-195658000I0J173000D01*
G01*
X335229000Y-195312000D01*
G75*
G02*
X335402000Y-195139000I173000J0D01*
G01*
G37*
G36*
G01*
X337402000Y-195139000D02*
X337798000Y-195139000D01*
G75*
G02*
X337971000Y-195312000I0J-173000D01*
G01*
X337971000Y-195658000D01*
G75*
G02*
X337798000Y-195831000I-173000J0D01*
G01*
X337402000Y-195831000D01*
G75*
G02*
X337229000Y-195658000I0J173000D01*
G01*
X337229000Y-195312000D01*
G75*
G02*
X337402000Y-195139000I173000J0D01*
G01*
G37*
G36*
G01*
X337402000Y-194169000D02*
X337798000Y-194169000D01*
G75*
G02*
X337971000Y-194342000I0J-173000D01*
G01*
X337971000Y-194688000D01*
G75*
G02*
X337798000Y-194861000I-173000J0D01*
G01*
X337402000Y-194861000D01*
G75*
G02*
X337229000Y-194688000I0J173000D01*
G01*
X337229000Y-194342000D01*
G75*
G02*
X337402000Y-194169000I173000J0D01*
G01*
G37*
G36*
G01*
X339402000Y-195139000D02*
X339798000Y-195139000D01*
G75*
G02*
X339971000Y-195312000I0J-173000D01*
G01*
X339971000Y-195658000D01*
G75*
G02*
X339798000Y-195831000I-173000J0D01*
G01*
X339402000Y-195831000D01*
G75*
G02*
X339229000Y-195658000I0J173000D01*
G01*
X339229000Y-195312000D01*
G75*
G02*
X339402000Y-195139000I173000J0D01*
G01*
G37*
G36*
G01*
X339402000Y-194169000D02*
X339798000Y-194169000D01*
G75*
G02*
X339971000Y-194342000I0J-173000D01*
G01*
X339971000Y-194688000D01*
G75*
G02*
X339798000Y-194861000I-173000J0D01*
G01*
X339402000Y-194861000D01*
G75*
G02*
X339229000Y-194688000I0J173000D01*
G01*
X339229000Y-194342000D01*
G75*
G02*
X339402000Y-194169000I173000J0D01*
G01*
G37*
G36*
G01*
X341402000Y-194169000D02*
X341798000Y-194169000D01*
G75*
G02*
X341971000Y-194342000I0J-173000D01*
G01*
X341971000Y-194688000D01*
G75*
G02*
X341798000Y-194861000I-173000J0D01*
G01*
X341402000Y-194861000D01*
G75*
G02*
X341229000Y-194688000I0J173000D01*
G01*
X341229000Y-194342000D01*
G75*
G02*
X341402000Y-194169000I173000J0D01*
G01*
G37*
G36*
G01*
X341402000Y-195139000D02*
X341798000Y-195139000D01*
G75*
G02*
X341971000Y-195312000I0J-173000D01*
G01*
X341971000Y-195658000D01*
G75*
G02*
X341798000Y-195831000I-173000J0D01*
G01*
X341402000Y-195831000D01*
G75*
G02*
X341229000Y-195658000I0J173000D01*
G01*
X341229000Y-195312000D01*
G75*
G02*
X341402000Y-195139000I173000J0D01*
G01*
G37*
G36*
G01*
X343402000Y-194169000D02*
X343798000Y-194169000D01*
G75*
G02*
X343971000Y-194342000I0J-173000D01*
G01*
X343971000Y-194688000D01*
G75*
G02*
X343798000Y-194861000I-173000J0D01*
G01*
X343402000Y-194861000D01*
G75*
G02*
X343229000Y-194688000I0J173000D01*
G01*
X343229000Y-194342000D01*
G75*
G02*
X343402000Y-194169000I173000J0D01*
G01*
G37*
G36*
G01*
X343402000Y-195139000D02*
X343798000Y-195139000D01*
G75*
G02*
X343971000Y-195312000I0J-173000D01*
G01*
X343971000Y-195658000D01*
G75*
G02*
X343798000Y-195831000I-173000J0D01*
G01*
X343402000Y-195831000D01*
G75*
G02*
X343229000Y-195658000I0J173000D01*
G01*
X343229000Y-195312000D01*
G75*
G02*
X343402000Y-195139000I173000J0D01*
G01*
G37*
G36*
G01*
X345402000Y-194169000D02*
X345798000Y-194169000D01*
G75*
G02*
X345971000Y-194342000I0J-173000D01*
G01*
X345971000Y-194688000D01*
G75*
G02*
X345798000Y-194861000I-173000J0D01*
G01*
X345402000Y-194861000D01*
G75*
G02*
X345229000Y-194688000I0J173000D01*
G01*
X345229000Y-194342000D01*
G75*
G02*
X345402000Y-194169000I173000J0D01*
G01*
G37*
G36*
G01*
X345402000Y-195139000D02*
X345798000Y-195139000D01*
G75*
G02*
X345971000Y-195312000I0J-173000D01*
G01*
X345971000Y-195658000D01*
G75*
G02*
X345798000Y-195831000I-173000J0D01*
G01*
X345402000Y-195831000D01*
G75*
G02*
X345229000Y-195658000I0J173000D01*
G01*
X345229000Y-195312000D01*
G75*
G02*
X345402000Y-195139000I173000J0D01*
G01*
G37*
G36*
G01*
X347402000Y-195139000D02*
X347798000Y-195139000D01*
G75*
G02*
X347971000Y-195312000I0J-173000D01*
G01*
X347971000Y-195658000D01*
G75*
G02*
X347798000Y-195831000I-173000J0D01*
G01*
X347402000Y-195831000D01*
G75*
G02*
X347229000Y-195658000I0J173000D01*
G01*
X347229000Y-195312000D01*
G75*
G02*
X347402000Y-195139000I173000J0D01*
G01*
G37*
G36*
G01*
X347402000Y-194169000D02*
X347798000Y-194169000D01*
G75*
G02*
X347971000Y-194342000I0J-173000D01*
G01*
X347971000Y-194688000D01*
G75*
G02*
X347798000Y-194861000I-173000J0D01*
G01*
X347402000Y-194861000D01*
G75*
G02*
X347229000Y-194688000I0J173000D01*
G01*
X347229000Y-194342000D01*
G75*
G02*
X347402000Y-194169000I173000J0D01*
G01*
G37*
G36*
G01*
X349402000Y-195139000D02*
X349798000Y-195139000D01*
G75*
G02*
X349971000Y-195312000I0J-173000D01*
G01*
X349971000Y-195658000D01*
G75*
G02*
X349798000Y-195831000I-173000J0D01*
G01*
X349402000Y-195831000D01*
G75*
G02*
X349229000Y-195658000I0J173000D01*
G01*
X349229000Y-195312000D01*
G75*
G02*
X349402000Y-195139000I173000J0D01*
G01*
G37*
G36*
G01*
X349402000Y-194169000D02*
X349798000Y-194169000D01*
G75*
G02*
X349971000Y-194342000I0J-173000D01*
G01*
X349971000Y-194688000D01*
G75*
G02*
X349798000Y-194861000I-173000J0D01*
G01*
X349402000Y-194861000D01*
G75*
G02*
X349229000Y-194688000I0J173000D01*
G01*
X349229000Y-194342000D01*
G75*
G02*
X349402000Y-194169000I173000J0D01*
G01*
G37*
G36*
G01*
X351402000Y-194169000D02*
X351798000Y-194169000D01*
G75*
G02*
X351971000Y-194342000I0J-173000D01*
G01*
X351971000Y-194688000D01*
G75*
G02*
X351798000Y-194861000I-173000J0D01*
G01*
X351402000Y-194861000D01*
G75*
G02*
X351229000Y-194688000I0J173000D01*
G01*
X351229000Y-194342000D01*
G75*
G02*
X351402000Y-194169000I173000J0D01*
G01*
G37*
G36*
G01*
X351402000Y-195139000D02*
X351798000Y-195139000D01*
G75*
G02*
X351971000Y-195312000I0J-173000D01*
G01*
X351971000Y-195658000D01*
G75*
G02*
X351798000Y-195831000I-173000J0D01*
G01*
X351402000Y-195831000D01*
G75*
G02*
X351229000Y-195658000I0J173000D01*
G01*
X351229000Y-195312000D01*
G75*
G02*
X351402000Y-195139000I173000J0D01*
G01*
G37*
G36*
G01*
X353402000Y-195139000D02*
X353798000Y-195139000D01*
G75*
G02*
X353971000Y-195312000I0J-173000D01*
G01*
X353971000Y-195658000D01*
G75*
G02*
X353798000Y-195831000I-173000J0D01*
G01*
X353402000Y-195831000D01*
G75*
G02*
X353229000Y-195658000I0J173000D01*
G01*
X353229000Y-195312000D01*
G75*
G02*
X353402000Y-195139000I173000J0D01*
G01*
G37*
G36*
G01*
X353402000Y-194169000D02*
X353798000Y-194169000D01*
G75*
G02*
X353971000Y-194342000I0J-173000D01*
G01*
X353971000Y-194688000D01*
G75*
G02*
X353798000Y-194861000I-173000J0D01*
G01*
X353402000Y-194861000D01*
G75*
G02*
X353229000Y-194688000I0J173000D01*
G01*
X353229000Y-194342000D01*
G75*
G02*
X353402000Y-194169000I173000J0D01*
G01*
G37*
G36*
G01*
X355402000Y-194169000D02*
X355798000Y-194169000D01*
G75*
G02*
X355971000Y-194342000I0J-173000D01*
G01*
X355971000Y-194688000D01*
G75*
G02*
X355798000Y-194861000I-173000J0D01*
G01*
X355402000Y-194861000D01*
G75*
G02*
X355229000Y-194688000I0J173000D01*
G01*
X355229000Y-194342000D01*
G75*
G02*
X355402000Y-194169000I173000J0D01*
G01*
G37*
G36*
G01*
X355402000Y-195139000D02*
X355798000Y-195139000D01*
G75*
G02*
X355971000Y-195312000I0J-173000D01*
G01*
X355971000Y-195658000D01*
G75*
G02*
X355798000Y-195831000I-173000J0D01*
G01*
X355402000Y-195831000D01*
G75*
G02*
X355229000Y-195658000I0J173000D01*
G01*
X355229000Y-195312000D01*
G75*
G02*
X355402000Y-195139000I173000J0D01*
G01*
G37*
G36*
G01*
X357402000Y-195139000D02*
X357798000Y-195139000D01*
G75*
G02*
X357971000Y-195312000I0J-173000D01*
G01*
X357971000Y-195658000D01*
G75*
G02*
X357798000Y-195831000I-173000J0D01*
G01*
X357402000Y-195831000D01*
G75*
G02*
X357229000Y-195658000I0J173000D01*
G01*
X357229000Y-195312000D01*
G75*
G02*
X357402000Y-195139000I173000J0D01*
G01*
G37*
G36*
G01*
X357402000Y-194169000D02*
X357798000Y-194169000D01*
G75*
G02*
X357971000Y-194342000I0J-173000D01*
G01*
X357971000Y-194688000D01*
G75*
G02*
X357798000Y-194861000I-173000J0D01*
G01*
X357402000Y-194861000D01*
G75*
G02*
X357229000Y-194688000I0J173000D01*
G01*
X357229000Y-194342000D01*
G75*
G02*
X357402000Y-194169000I173000J0D01*
G01*
G37*
G36*
G01*
X359402000Y-194169000D02*
X359798000Y-194169000D01*
G75*
G02*
X359971000Y-194342000I0J-173000D01*
G01*
X359971000Y-194688000D01*
G75*
G02*
X359798000Y-194861000I-173000J0D01*
G01*
X359402000Y-194861000D01*
G75*
G02*
X359229000Y-194688000I0J173000D01*
G01*
X359229000Y-194342000D01*
G75*
G02*
X359402000Y-194169000I173000J0D01*
G01*
G37*
G36*
G01*
X359402000Y-195139000D02*
X359798000Y-195139000D01*
G75*
G02*
X359971000Y-195312000I0J-173000D01*
G01*
X359971000Y-195658000D01*
G75*
G02*
X359798000Y-195831000I-173000J0D01*
G01*
X359402000Y-195831000D01*
G75*
G02*
X359229000Y-195658000I0J173000D01*
G01*
X359229000Y-195312000D01*
G75*
G02*
X359402000Y-195139000I173000J0D01*
G01*
G37*
G36*
G01*
X361402000Y-195139000D02*
X361798000Y-195139000D01*
G75*
G02*
X361971000Y-195312000I0J-173000D01*
G01*
X361971000Y-195658000D01*
G75*
G02*
X361798000Y-195831000I-173000J0D01*
G01*
X361402000Y-195831000D01*
G75*
G02*
X361229000Y-195658000I0J173000D01*
G01*
X361229000Y-195312000D01*
G75*
G02*
X361402000Y-195139000I173000J0D01*
G01*
G37*
G36*
G01*
X361402000Y-194169000D02*
X361798000Y-194169000D01*
G75*
G02*
X361971000Y-194342000I0J-173000D01*
G01*
X361971000Y-194688000D01*
G75*
G02*
X361798000Y-194861000I-173000J0D01*
G01*
X361402000Y-194861000D01*
G75*
G02*
X361229000Y-194688000I0J173000D01*
G01*
X361229000Y-194342000D01*
G75*
G02*
X361402000Y-194169000I173000J0D01*
G01*
G37*
G36*
G01*
X363402000Y-195139000D02*
X363798000Y-195139000D01*
G75*
G02*
X363971000Y-195312000I0J-173000D01*
G01*
X363971000Y-195658000D01*
G75*
G02*
X363798000Y-195831000I-173000J0D01*
G01*
X363402000Y-195831000D01*
G75*
G02*
X363229000Y-195658000I0J173000D01*
G01*
X363229000Y-195312000D01*
G75*
G02*
X363402000Y-195139000I173000J0D01*
G01*
G37*
G36*
G01*
X363402000Y-194169000D02*
X363798000Y-194169000D01*
G75*
G02*
X363971000Y-194342000I0J-173000D01*
G01*
X363971000Y-194688000D01*
G75*
G02*
X363798000Y-194861000I-173000J0D01*
G01*
X363402000Y-194861000D01*
G75*
G02*
X363229000Y-194688000I0J173000D01*
G01*
X363229000Y-194342000D01*
G75*
G02*
X363402000Y-194169000I173000J0D01*
G01*
G37*
G36*
G01*
X359864000Y-181438000D02*
X359864000Y-180912000D01*
G75*
G02*
X360127000Y-180649000I263000J0D01*
G01*
X360753000Y-180649000D01*
G75*
G02*
X361016000Y-180912000I0J-263000D01*
G01*
X361016000Y-181438000D01*
G75*
G02*
X360753000Y-181701000I-263000J0D01*
G01*
X360127000Y-181701000D01*
G75*
G02*
X359864000Y-181438000I0J263000D01*
G01*
G37*
G36*
G01*
X358114000Y-181438000D02*
X358114000Y-180912000D01*
G75*
G02*
X358377000Y-180649000I263000J0D01*
G01*
X359003000Y-180649000D01*
G75*
G02*
X359266000Y-180912000I0J-263000D01*
G01*
X359266000Y-181438000D01*
G75*
G02*
X359003000Y-181701000I-263000J0D01*
G01*
X358377000Y-181701000D01*
G75*
G02*
X358114000Y-181438000I0J263000D01*
G01*
G37*
G36*
G01*
X358104000Y-178388000D02*
X358104000Y-177862000D01*
G75*
G02*
X358367000Y-177599000I263000J0D01*
G01*
X358993000Y-177599000D01*
G75*
G02*
X359256000Y-177862000I0J-263000D01*
G01*
X359256000Y-178388000D01*
G75*
G02*
X358993000Y-178651000I-263000J0D01*
G01*
X358367000Y-178651000D01*
G75*
G02*
X358104000Y-178388000I0J263000D01*
G01*
G37*
G36*
G01*
X359854000Y-178388000D02*
X359854000Y-177862000D01*
G75*
G02*
X360117000Y-177599000I263000J0D01*
G01*
X360743000Y-177599000D01*
G75*
G02*
X361006000Y-177862000I0J-263000D01*
G01*
X361006000Y-178388000D01*
G75*
G02*
X360743000Y-178651000I-263000J0D01*
G01*
X360117000Y-178651000D01*
G75*
G02*
X359854000Y-178388000I0J263000D01*
G01*
G37*
G36*
G01*
X358104000Y-176858000D02*
X358104000Y-176332000D01*
G75*
G02*
X358367000Y-176069000I263000J0D01*
G01*
X358993000Y-176069000D01*
G75*
G02*
X359256000Y-176332000I0J-263000D01*
G01*
X359256000Y-176858000D01*
G75*
G02*
X358993000Y-177121000I-263000J0D01*
G01*
X358367000Y-177121000D01*
G75*
G02*
X358104000Y-176858000I0J263000D01*
G01*
G37*
G36*
G01*
X359854000Y-176858000D02*
X359854000Y-176332000D01*
G75*
G02*
X360117000Y-176069000I263000J0D01*
G01*
X360743000Y-176069000D01*
G75*
G02*
X361006000Y-176332000I0J-263000D01*
G01*
X361006000Y-176858000D01*
G75*
G02*
X360743000Y-177121000I-263000J0D01*
G01*
X360117000Y-177121000D01*
G75*
G02*
X359854000Y-176858000I0J263000D01*
G01*
G37*
G36*
G01*
X368263000Y-132526000D02*
X367737000Y-132526000D01*
G75*
G02*
X367474000Y-132263000I0J263000D01*
G01*
X367474000Y-131637000D01*
G75*
G02*
X367737000Y-131374000I263000J0D01*
G01*
X368263000Y-131374000D01*
G75*
G02*
X368526000Y-131637000I0J-263000D01*
G01*
X368526000Y-132263000D01*
G75*
G02*
X368263000Y-132526000I-263000J0D01*
G01*
G37*
G36*
G01*
X368263000Y-130776000D02*
X367737000Y-130776000D01*
G75*
G02*
X367474000Y-130513000I0J263000D01*
G01*
X367474000Y-129887000D01*
G75*
G02*
X367737000Y-129624000I263000J0D01*
G01*
X368263000Y-129624000D01*
G75*
G02*
X368526000Y-129887000I0J-263000D01*
G01*
X368526000Y-130513000D01*
G75*
G02*
X368263000Y-130776000I-263000J0D01*
G01*
G37*
G36*
G01*
X358263000Y-130776000D02*
X357737000Y-130776000D01*
G75*
G02*
X357474000Y-130513000I0J263000D01*
G01*
X357474000Y-129887000D01*
G75*
G02*
X357737000Y-129624000I263000J0D01*
G01*
X358263000Y-129624000D01*
G75*
G02*
X358526000Y-129887000I0J-263000D01*
G01*
X358526000Y-130513000D01*
G75*
G02*
X358263000Y-130776000I-263000J0D01*
G01*
G37*
G36*
G01*
X358263000Y-132526000D02*
X357737000Y-132526000D01*
G75*
G02*
X357474000Y-132263000I0J263000D01*
G01*
X357474000Y-131637000D01*
G75*
G02*
X357737000Y-131374000I263000J0D01*
G01*
X358263000Y-131374000D01*
G75*
G02*
X358526000Y-131637000I0J-263000D01*
G01*
X358526000Y-132263000D01*
G75*
G02*
X358263000Y-132526000I-263000J0D01*
G01*
G37*
G36*
G01*
X360976000Y-133437000D02*
X360976000Y-133963000D01*
G75*
G02*
X360713000Y-134226000I-263000J0D01*
G01*
X360087000Y-134226000D01*
G75*
G02*
X359824000Y-133963000I0J263000D01*
G01*
X359824000Y-133437000D01*
G75*
G02*
X360087000Y-133174000I263000J0D01*
G01*
X360713000Y-133174000D01*
G75*
G02*
X360976000Y-133437000I0J-263000D01*
G01*
G37*
G36*
G01*
X359226000Y-133437000D02*
X359226000Y-133963000D01*
G75*
G02*
X358963000Y-134226000I-263000J0D01*
G01*
X358337000Y-134226000D01*
G75*
G02*
X358074000Y-133963000I0J263000D01*
G01*
X358074000Y-133437000D01*
G75*
G02*
X358337000Y-133174000I263000J0D01*
G01*
X358963000Y-133174000D01*
G75*
G02*
X359226000Y-133437000I0J-263000D01*
G01*
G37*
G36*
G01*
X365963000Y-183201000D02*
X365437000Y-183201000D01*
G75*
G02*
X365174000Y-182938000I0J263000D01*
G01*
X365174000Y-182312000D01*
G75*
G02*
X365437000Y-182049000I263000J0D01*
G01*
X365963000Y-182049000D01*
G75*
G02*
X366226000Y-182312000I0J-263000D01*
G01*
X366226000Y-182938000D01*
G75*
G02*
X365963000Y-183201000I-263000J0D01*
G01*
G37*
G36*
G01*
X365963000Y-184951000D02*
X365437000Y-184951000D01*
G75*
G02*
X365174000Y-184688000I0J263000D01*
G01*
X365174000Y-184062000D01*
G75*
G02*
X365437000Y-183799000I263000J0D01*
G01*
X365963000Y-183799000D01*
G75*
G02*
X366226000Y-184062000I0J-263000D01*
G01*
X366226000Y-184688000D01*
G75*
G02*
X365963000Y-184951000I-263000J0D01*
G01*
G37*
G36*
G01*
X361031000Y-183967000D02*
X361031000Y-184493000D01*
G75*
G02*
X360768000Y-184756000I-263000J0D01*
G01*
X360142000Y-184756000D01*
G75*
G02*
X359879000Y-184493000I0J263000D01*
G01*
X359879000Y-183967000D01*
G75*
G02*
X360142000Y-183704000I263000J0D01*
G01*
X360768000Y-183704000D01*
G75*
G02*
X361031000Y-183967000I0J-263000D01*
G01*
G37*
G36*
G01*
X359281000Y-183967000D02*
X359281000Y-184493000D01*
G75*
G02*
X359018000Y-184756000I-263000J0D01*
G01*
X358392000Y-184756000D01*
G75*
G02*
X358129000Y-184493000I0J263000D01*
G01*
X358129000Y-183967000D01*
G75*
G02*
X358392000Y-183704000I263000J0D01*
G01*
X359018000Y-183704000D01*
G75*
G02*
X359281000Y-183967000I0J-263000D01*
G01*
G37*
G36*
G01*
X359824000Y-136563000D02*
X359824000Y-136037000D01*
G75*
G02*
X360087000Y-135774000I263000J0D01*
G01*
X360713000Y-135774000D01*
G75*
G02*
X360976000Y-136037000I0J-263000D01*
G01*
X360976000Y-136563000D01*
G75*
G02*
X360713000Y-136826000I-263000J0D01*
G01*
X360087000Y-136826000D01*
G75*
G02*
X359824000Y-136563000I0J263000D01*
G01*
G37*
G36*
G01*
X358074000Y-136563000D02*
X358074000Y-136037000D01*
G75*
G02*
X358337000Y-135774000I263000J0D01*
G01*
X358963000Y-135774000D01*
G75*
G02*
X359226000Y-136037000I0J-263000D01*
G01*
X359226000Y-136563000D01*
G75*
G02*
X358963000Y-136826000I-263000J0D01*
G01*
X358337000Y-136826000D01*
G75*
G02*
X358074000Y-136563000I0J263000D01*
G01*
G37*
G36*
G01*
X367737000Y-137474000D02*
X368263000Y-137474000D01*
G75*
G02*
X368526000Y-137737000I0J-263000D01*
G01*
X368526000Y-138363000D01*
G75*
G02*
X368263000Y-138626000I-263000J0D01*
G01*
X367737000Y-138626000D01*
G75*
G02*
X367474000Y-138363000I0J263000D01*
G01*
X367474000Y-137737000D01*
G75*
G02*
X367737000Y-137474000I263000J0D01*
G01*
G37*
G36*
G01*
X367737000Y-139224000D02*
X368263000Y-139224000D01*
G75*
G02*
X368526000Y-139487000I0J-263000D01*
G01*
X368526000Y-140113000D01*
G75*
G02*
X368263000Y-140376000I-263000J0D01*
G01*
X367737000Y-140376000D01*
G75*
G02*
X367474000Y-140113000I0J263000D01*
G01*
X367474000Y-139487000D01*
G75*
G02*
X367737000Y-139224000I263000J0D01*
G01*
G37*
G36*
G01*
X357737000Y-139149000D02*
X358263000Y-139149000D01*
G75*
G02*
X358526000Y-139412000I0J-263000D01*
G01*
X358526000Y-140038000D01*
G75*
G02*
X358263000Y-140301000I-263000J0D01*
G01*
X357737000Y-140301000D01*
G75*
G02*
X357474000Y-140038000I0J263000D01*
G01*
X357474000Y-139412000D01*
G75*
G02*
X357737000Y-139149000I263000J0D01*
G01*
G37*
G36*
G01*
X357737000Y-137399000D02*
X358263000Y-137399000D01*
G75*
G02*
X358526000Y-137662000I0J-263000D01*
G01*
X358526000Y-138288000D01*
G75*
G02*
X358263000Y-138551000I-263000J0D01*
G01*
X357737000Y-138551000D01*
G75*
G02*
X357474000Y-138288000I0J263000D01*
G01*
X357474000Y-137662000D01*
G75*
G02*
X357737000Y-137399000I263000J0D01*
G01*
G37*
G36*
G01*
X359188000Y-113351000D02*
X358662000Y-113351000D01*
G75*
G02*
X358399000Y-113088000I0J263000D01*
G01*
X358399000Y-112462000D01*
G75*
G02*
X358662000Y-112199000I263000J0D01*
G01*
X359188000Y-112199000D01*
G75*
G02*
X359451000Y-112462000I0J-263000D01*
G01*
X359451000Y-113088000D01*
G75*
G02*
X359188000Y-113351000I-263000J0D01*
G01*
G37*
G36*
G01*
X359188000Y-115101000D02*
X358662000Y-115101000D01*
G75*
G02*
X358399000Y-114838000I0J263000D01*
G01*
X358399000Y-114212000D01*
G75*
G02*
X358662000Y-113949000I263000J0D01*
G01*
X359188000Y-113949000D01*
G75*
G02*
X359451000Y-114212000I0J-263000D01*
G01*
X359451000Y-114838000D01*
G75*
G02*
X359188000Y-115101000I-263000J0D01*
G01*
G37*
G36*
G01*
X354512000Y-112349000D02*
X355038000Y-112349000D01*
G75*
G02*
X355301000Y-112612000I0J-263000D01*
G01*
X355301000Y-113238000D01*
G75*
G02*
X355038000Y-113501000I-263000J0D01*
G01*
X354512000Y-113501000D01*
G75*
G02*
X354249000Y-113238000I0J263000D01*
G01*
X354249000Y-112612000D01*
G75*
G02*
X354512000Y-112349000I263000J0D01*
G01*
G37*
G36*
G01*
X354512000Y-114099000D02*
X355038000Y-114099000D01*
G75*
G02*
X355301000Y-114362000I0J-263000D01*
G01*
X355301000Y-114988000D01*
G75*
G02*
X355038000Y-115251000I-263000J0D01*
G01*
X354512000Y-115251000D01*
G75*
G02*
X354249000Y-114988000I0J263000D01*
G01*
X354249000Y-114362000D01*
G75*
G02*
X354512000Y-114099000I263000J0D01*
G01*
G37*
G36*
G01*
X362521172Y-112424000D02*
X363478828Y-112424000D01*
G75*
G02*
X363751000Y-112696172I0J-272172D01*
G01*
X363751000Y-113403828D01*
G75*
G02*
X363478828Y-113676000I-272172J0D01*
G01*
X362521172Y-113676000D01*
G75*
G02*
X362249000Y-113403828I0J272172D01*
G01*
X362249000Y-112696172D01*
G75*
G02*
X362521172Y-112424000I272172J0D01*
G01*
G37*
G36*
G01*
X362521172Y-114474000D02*
X363478828Y-114474000D01*
G75*
G02*
X363751000Y-114746172I0J-272172D01*
G01*
X363751000Y-115453828D01*
G75*
G02*
X363478828Y-115726000I-272172J0D01*
G01*
X362521172Y-115726000D01*
G75*
G02*
X362249000Y-115453828I0J272172D01*
G01*
X362249000Y-114746172D01*
G75*
G02*
X362521172Y-114474000I272172J0D01*
G01*
G37*
G36*
G01*
X349824000Y-136963000D02*
X349824000Y-136437000D01*
G75*
G02*
X350087000Y-136174000I263000J0D01*
G01*
X350713000Y-136174000D01*
G75*
G02*
X350976000Y-136437000I0J-263000D01*
G01*
X350976000Y-136963000D01*
G75*
G02*
X350713000Y-137226000I-263000J0D01*
G01*
X350087000Y-137226000D01*
G75*
G02*
X349824000Y-136963000I0J263000D01*
G01*
G37*
G36*
G01*
X348074000Y-136963000D02*
X348074000Y-136437000D01*
G75*
G02*
X348337000Y-136174000I263000J0D01*
G01*
X348963000Y-136174000D01*
G75*
G02*
X349226000Y-136437000I0J-263000D01*
G01*
X349226000Y-136963000D01*
G75*
G02*
X348963000Y-137226000I-263000J0D01*
G01*
X348337000Y-137226000D01*
G75*
G02*
X348074000Y-136963000I0J263000D01*
G01*
G37*
G36*
G01*
X348074000Y-133563000D02*
X348074000Y-133037000D01*
G75*
G02*
X348337000Y-132774000I263000J0D01*
G01*
X348963000Y-132774000D01*
G75*
G02*
X349226000Y-133037000I0J-263000D01*
G01*
X349226000Y-133563000D01*
G75*
G02*
X348963000Y-133826000I-263000J0D01*
G01*
X348337000Y-133826000D01*
G75*
G02*
X348074000Y-133563000I0J263000D01*
G01*
G37*
G36*
G01*
X349824000Y-133563000D02*
X349824000Y-133037000D01*
G75*
G02*
X350087000Y-132774000I263000J0D01*
G01*
X350713000Y-132774000D01*
G75*
G02*
X350976000Y-133037000I0J-263000D01*
G01*
X350976000Y-133563000D01*
G75*
G02*
X350713000Y-133826000I-263000J0D01*
G01*
X350087000Y-133826000D01*
G75*
G02*
X349824000Y-133563000I0J263000D01*
G01*
G37*
G36*
G01*
X199049000Y-105900000D02*
X199049000Y-104100000D01*
G75*
G02*
X199100000Y-104049000I51000J0D01*
G01*
X200900000Y-104049000D01*
G75*
G02*
X200951000Y-104100000I0J-51000D01*
G01*
X200951000Y-105900000D01*
G75*
G02*
X200900000Y-105951000I-51000J0D01*
G01*
X199100000Y-105951000D01*
G75*
G02*
X199049000Y-105900000I0J51000D01*
G01*
G37*
D18*
X202540000Y-105000000D03*
X226540000Y-105000000D03*
G36*
G01*
X223049000Y-105900000D02*
X223049000Y-104100000D01*
G75*
G02*
X223100000Y-104049000I51000J0D01*
G01*
X224900000Y-104049000D01*
G75*
G02*
X224951000Y-104100000I0J-51000D01*
G01*
X224951000Y-105900000D01*
G75*
G02*
X224900000Y-105951000I-51000J0D01*
G01*
X223100000Y-105951000D01*
G75*
G02*
X223049000Y-105900000I0J51000D01*
G01*
G37*
X210540000Y-105000000D03*
G36*
G01*
X207049000Y-105900000D02*
X207049000Y-104100000D01*
G75*
G02*
X207100000Y-104049000I51000J0D01*
G01*
X208900000Y-104049000D01*
G75*
G02*
X208951000Y-104100000I0J-51000D01*
G01*
X208951000Y-105900000D01*
G75*
G02*
X208900000Y-105951000I-51000J0D01*
G01*
X207100000Y-105951000D01*
G75*
G02*
X207049000Y-105900000I0J51000D01*
G01*
G37*
G36*
G01*
X263049000Y-105900000D02*
X263049000Y-104100000D01*
G75*
G02*
X263100000Y-104049000I51000J0D01*
G01*
X264900000Y-104049000D01*
G75*
G02*
X264951000Y-104100000I0J-51000D01*
G01*
X264951000Y-105900000D01*
G75*
G02*
X264900000Y-105951000I-51000J0D01*
G01*
X263100000Y-105951000D01*
G75*
G02*
X263049000Y-105900000I0J51000D01*
G01*
G37*
X266540000Y-105000000D03*
X234540000Y-105000000D03*
G36*
G01*
X231049000Y-105900000D02*
X231049000Y-104100000D01*
G75*
G02*
X231100000Y-104049000I51000J0D01*
G01*
X232900000Y-104049000D01*
G75*
G02*
X232951000Y-104100000I0J-51000D01*
G01*
X232951000Y-105900000D01*
G75*
G02*
X232900000Y-105951000I-51000J0D01*
G01*
X231100000Y-105951000D01*
G75*
G02*
X231049000Y-105900000I0J51000D01*
G01*
G37*
G36*
G01*
X215049000Y-105900000D02*
X215049000Y-104100000D01*
G75*
G02*
X215100000Y-104049000I51000J0D01*
G01*
X216900000Y-104049000D01*
G75*
G02*
X216951000Y-104100000I0J-51000D01*
G01*
X216951000Y-105900000D01*
G75*
G02*
X216900000Y-105951000I-51000J0D01*
G01*
X215100000Y-105951000D01*
G75*
G02*
X215049000Y-105900000I0J51000D01*
G01*
G37*
X218540000Y-105000000D03*
G36*
G01*
X255049000Y-105900000D02*
X255049000Y-104100000D01*
G75*
G02*
X255100000Y-104049000I51000J0D01*
G01*
X256900000Y-104049000D01*
G75*
G02*
X256951000Y-104100000I0J-51000D01*
G01*
X256951000Y-105900000D01*
G75*
G02*
X256900000Y-105951000I-51000J0D01*
G01*
X255100000Y-105951000D01*
G75*
G02*
X255049000Y-105900000I0J51000D01*
G01*
G37*
X258540000Y-105000000D03*
X250540000Y-105000000D03*
G36*
G01*
X247049000Y-105900000D02*
X247049000Y-104100000D01*
G75*
G02*
X247100000Y-104049000I51000J0D01*
G01*
X248900000Y-104049000D01*
G75*
G02*
X248951000Y-104100000I0J-51000D01*
G01*
X248951000Y-105900000D01*
G75*
G02*
X248900000Y-105951000I-51000J0D01*
G01*
X247100000Y-105951000D01*
G75*
G02*
X247049000Y-105900000I0J51000D01*
G01*
G37*
X306540000Y-105000000D03*
G36*
G01*
X303049000Y-105900000D02*
X303049000Y-104100000D01*
G75*
G02*
X303100000Y-104049000I51000J0D01*
G01*
X304900000Y-104049000D01*
G75*
G02*
X304951000Y-104100000I0J-51000D01*
G01*
X304951000Y-105900000D01*
G75*
G02*
X304900000Y-105951000I-51000J0D01*
G01*
X303100000Y-105951000D01*
G75*
G02*
X303049000Y-105900000I0J51000D01*
G01*
G37*
G36*
G01*
X295049000Y-105900000D02*
X295049000Y-104100000D01*
G75*
G02*
X295100000Y-104049000I51000J0D01*
G01*
X296900000Y-104049000D01*
G75*
G02*
X296951000Y-104100000I0J-51000D01*
G01*
X296951000Y-105900000D01*
G75*
G02*
X296900000Y-105951000I-51000J0D01*
G01*
X295100000Y-105951000D01*
G75*
G02*
X295049000Y-105900000I0J51000D01*
G01*
G37*
X298540000Y-105000000D03*
X290540000Y-105000000D03*
G36*
G01*
X287049000Y-105900000D02*
X287049000Y-104100000D01*
G75*
G02*
X287100000Y-104049000I51000J0D01*
G01*
X288900000Y-104049000D01*
G75*
G02*
X288951000Y-104100000I0J-51000D01*
G01*
X288951000Y-105900000D01*
G75*
G02*
X288900000Y-105951000I-51000J0D01*
G01*
X287100000Y-105951000D01*
G75*
G02*
X287049000Y-105900000I0J51000D01*
G01*
G37*
G36*
G01*
X279049000Y-105900000D02*
X279049000Y-104100000D01*
G75*
G02*
X279100000Y-104049000I51000J0D01*
G01*
X280900000Y-104049000D01*
G75*
G02*
X280951000Y-104100000I0J-51000D01*
G01*
X280951000Y-105900000D01*
G75*
G02*
X280900000Y-105951000I-51000J0D01*
G01*
X279100000Y-105951000D01*
G75*
G02*
X279049000Y-105900000I0J51000D01*
G01*
G37*
X282540000Y-105000000D03*
D21*
X475520000Y-106390000D03*
X480600000Y-106390000D03*
X480600000Y-101310000D03*
X475520000Y-101310000D03*
X478060000Y-103850000D03*
X455240000Y-103800000D03*
X452700000Y-101260000D03*
X457780000Y-101260000D03*
X457780000Y-106340000D03*
X452700000Y-106340000D03*
G36*
G01*
X185811000Y-109100000D02*
X185811000Y-110900000D01*
G75*
G02*
X185760000Y-110951000I-51000J0D01*
G01*
X181360000Y-110951000D01*
G75*
G02*
X181309000Y-110900000I0J51000D01*
G01*
X181309000Y-109100000D01*
G75*
G02*
X181360000Y-109049000I51000J0D01*
G01*
X185760000Y-109049000D01*
G75*
G02*
X185811000Y-109100000I0J-51000D01*
G01*
G37*
D22*
X183560000Y-104200000D03*
D23*
X178760000Y-107000000D03*
D21*
X417110000Y-170860000D03*
X412030000Y-170860000D03*
X412030000Y-175940000D03*
X417110000Y-175940000D03*
X414570000Y-173400000D03*
X320350000Y-173480000D03*
X322890000Y-176020000D03*
X317810000Y-176020000D03*
X317810000Y-170940000D03*
X322890000Y-170940000D03*
G36*
G01*
X226060001Y-148710999D02*
X224360001Y-148710999D01*
G75*
G02*
X224309001Y-148659999I0J51000D01*
G01*
X224309001Y-146959999D01*
G75*
G02*
X224360001Y-146908999I51000J0D01*
G01*
X226060001Y-146908999D01*
G75*
G02*
X226111001Y-146959999I0J-51000D01*
G01*
X226111001Y-148659999D01*
G75*
G02*
X226060001Y-148710999I-51000J0D01*
G01*
G37*
D10*
X227750001Y-147809999D03*
X227750001Y-152459999D03*
G36*
G01*
X226060001Y-153360999D02*
X224360001Y-153360999D01*
G75*
G02*
X224309001Y-153309999I0J51000D01*
G01*
X224309001Y-151609999D01*
G75*
G02*
X224360001Y-151558999I51000J0D01*
G01*
X226060001Y-151558999D01*
G75*
G02*
X226111001Y-151609999I0J-51000D01*
G01*
X226111001Y-153309999D01*
G75*
G02*
X226060001Y-153360999I-51000J0D01*
G01*
G37*
G36*
G01*
X404063000Y-168051000D02*
X403537000Y-168051000D01*
G75*
G02*
X403274000Y-167788000I0J263000D01*
G01*
X403274000Y-167162000D01*
G75*
G02*
X403537000Y-166899000I263000J0D01*
G01*
X404063000Y-166899000D01*
G75*
G02*
X404326000Y-167162000I0J-263000D01*
G01*
X404326000Y-167788000D01*
G75*
G02*
X404063000Y-168051000I-263000J0D01*
G01*
G37*
G36*
G01*
X404063000Y-166301000D02*
X403537000Y-166301000D01*
G75*
G02*
X403274000Y-166038000I0J263000D01*
G01*
X403274000Y-165412000D01*
G75*
G02*
X403537000Y-165149000I263000J0D01*
G01*
X404063000Y-165149000D01*
G75*
G02*
X404326000Y-165412000I0J-263000D01*
G01*
X404326000Y-166038000D01*
G75*
G02*
X404063000Y-166301000I-263000J0D01*
G01*
G37*
G36*
G01*
X398963000Y-164901000D02*
X398437000Y-164901000D01*
G75*
G02*
X398174000Y-164638000I0J263000D01*
G01*
X398174000Y-164012000D01*
G75*
G02*
X398437000Y-163749000I263000J0D01*
G01*
X398963000Y-163749000D01*
G75*
G02*
X399226000Y-164012000I0J-263000D01*
G01*
X399226000Y-164638000D01*
G75*
G02*
X398963000Y-164901000I-263000J0D01*
G01*
G37*
G36*
G01*
X398963000Y-166651000D02*
X398437000Y-166651000D01*
G75*
G02*
X398174000Y-166388000I0J263000D01*
G01*
X398174000Y-165762000D01*
G75*
G02*
X398437000Y-165499000I263000J0D01*
G01*
X398963000Y-165499000D01*
G75*
G02*
X399226000Y-165762000I0J-263000D01*
G01*
X399226000Y-166388000D01*
G75*
G02*
X398963000Y-166651000I-263000J0D01*
G01*
G37*
G36*
G01*
X365863000Y-166241000D02*
X365337000Y-166241000D01*
G75*
G02*
X365074000Y-165978000I0J263000D01*
G01*
X365074000Y-165352000D01*
G75*
G02*
X365337000Y-165089000I263000J0D01*
G01*
X365863000Y-165089000D01*
G75*
G02*
X366126000Y-165352000I0J-263000D01*
G01*
X366126000Y-165978000D01*
G75*
G02*
X365863000Y-166241000I-263000J0D01*
G01*
G37*
G36*
G01*
X365863000Y-167991000D02*
X365337000Y-167991000D01*
G75*
G02*
X365074000Y-167728000I0J263000D01*
G01*
X365074000Y-167102000D01*
G75*
G02*
X365337000Y-166839000I263000J0D01*
G01*
X365863000Y-166839000D01*
G75*
G02*
X366126000Y-167102000I0J-263000D01*
G01*
X366126000Y-167728000D01*
G75*
G02*
X365863000Y-167991000I-263000J0D01*
G01*
G37*
G36*
G01*
X361133000Y-166701000D02*
X360607000Y-166701000D01*
G75*
G02*
X360344000Y-166438000I0J263000D01*
G01*
X360344000Y-165812000D01*
G75*
G02*
X360607000Y-165549000I263000J0D01*
G01*
X361133000Y-165549000D01*
G75*
G02*
X361396000Y-165812000I0J-263000D01*
G01*
X361396000Y-166438000D01*
G75*
G02*
X361133000Y-166701000I-263000J0D01*
G01*
G37*
G36*
G01*
X361133000Y-164951000D02*
X360607000Y-164951000D01*
G75*
G02*
X360344000Y-164688000I0J263000D01*
G01*
X360344000Y-164062000D01*
G75*
G02*
X360607000Y-163799000I263000J0D01*
G01*
X361133000Y-163799000D01*
G75*
G02*
X361396000Y-164062000I0J-263000D01*
G01*
X361396000Y-164688000D01*
G75*
G02*
X361133000Y-164951000I-263000J0D01*
G01*
G37*
G36*
G01*
X381824000Y-134100000D02*
X381824000Y-132500000D01*
G75*
G02*
X381875000Y-132449000I51000J0D01*
G01*
X382175000Y-132449000D01*
G75*
G02*
X382226000Y-132500000I0J-51000D01*
G01*
X382226000Y-134100000D01*
G75*
G02*
X382175000Y-134151000I-51000J0D01*
G01*
X381875000Y-134151000D01*
G75*
G02*
X381824000Y-134100000I0J51000D01*
G01*
G37*
G36*
G01*
X382474000Y-134100000D02*
X382474000Y-132500000D01*
G75*
G02*
X382525000Y-132449000I51000J0D01*
G01*
X382825000Y-132449000D01*
G75*
G02*
X382876000Y-132500000I0J-51000D01*
G01*
X382876000Y-134100000D01*
G75*
G02*
X382825000Y-134151000I-51000J0D01*
G01*
X382525000Y-134151000D01*
G75*
G02*
X382474000Y-134100000I0J51000D01*
G01*
G37*
G36*
G01*
X383124000Y-134100000D02*
X383124000Y-132500000D01*
G75*
G02*
X383175000Y-132449000I51000J0D01*
G01*
X383475000Y-132449000D01*
G75*
G02*
X383526000Y-132500000I0J-51000D01*
G01*
X383526000Y-134100000D01*
G75*
G02*
X383475000Y-134151000I-51000J0D01*
G01*
X383175000Y-134151000D01*
G75*
G02*
X383124000Y-134100000I0J51000D01*
G01*
G37*
G36*
G01*
X383774000Y-134100000D02*
X383774000Y-132500000D01*
G75*
G02*
X383825000Y-132449000I51000J0D01*
G01*
X384125000Y-132449000D01*
G75*
G02*
X384176000Y-132500000I0J-51000D01*
G01*
X384176000Y-134100000D01*
G75*
G02*
X384125000Y-134151000I-51000J0D01*
G01*
X383825000Y-134151000D01*
G75*
G02*
X383774000Y-134100000I0J51000D01*
G01*
G37*
G36*
G01*
X383774000Y-137500000D02*
X383774000Y-135900000D01*
G75*
G02*
X383825000Y-135849000I51000J0D01*
G01*
X384125000Y-135849000D01*
G75*
G02*
X384176000Y-135900000I0J-51000D01*
G01*
X384176000Y-137500000D01*
G75*
G02*
X384125000Y-137551000I-51000J0D01*
G01*
X383825000Y-137551000D01*
G75*
G02*
X383774000Y-137500000I0J51000D01*
G01*
G37*
G36*
G01*
X383124000Y-137500000D02*
X383124000Y-135900000D01*
G75*
G02*
X383175000Y-135849000I51000J0D01*
G01*
X383475000Y-135849000D01*
G75*
G02*
X383526000Y-135900000I0J-51000D01*
G01*
X383526000Y-137500000D01*
G75*
G02*
X383475000Y-137551000I-51000J0D01*
G01*
X383175000Y-137551000D01*
G75*
G02*
X383124000Y-137500000I0J51000D01*
G01*
G37*
G36*
G01*
X382474000Y-137500000D02*
X382474000Y-135900000D01*
G75*
G02*
X382525000Y-135849000I51000J0D01*
G01*
X382825000Y-135849000D01*
G75*
G02*
X382876000Y-135900000I0J-51000D01*
G01*
X382876000Y-137500000D01*
G75*
G02*
X382825000Y-137551000I-51000J0D01*
G01*
X382525000Y-137551000D01*
G75*
G02*
X382474000Y-137500000I0J51000D01*
G01*
G37*
G36*
G01*
X381824000Y-137500000D02*
X381824000Y-135900000D01*
G75*
G02*
X381875000Y-135849000I51000J0D01*
G01*
X382175000Y-135849000D01*
G75*
G02*
X382226000Y-135900000I0J-51000D01*
G01*
X382226000Y-137500000D01*
G75*
G02*
X382175000Y-137551000I-51000J0D01*
G01*
X381875000Y-137551000D01*
G75*
G02*
X381824000Y-137500000I0J51000D01*
G01*
G37*
G36*
G01*
X404119500Y-156249000D02*
X404470500Y-156249000D01*
G75*
G02*
X404646000Y-156424500I0J-175500D01*
G01*
X404646000Y-158125500D01*
G75*
G02*
X404470500Y-158301000I-175500J0D01*
G01*
X404119500Y-158301000D01*
G75*
G02*
X403944000Y-158125500I0J175500D01*
G01*
X403944000Y-156424500D01*
G75*
G02*
X404119500Y-156249000I175500J0D01*
G01*
G37*
G36*
G01*
X405389500Y-156249000D02*
X405740500Y-156249000D01*
G75*
G02*
X405916000Y-156424500I0J-175500D01*
G01*
X405916000Y-158125500D01*
G75*
G02*
X405740500Y-158301000I-175500J0D01*
G01*
X405389500Y-158301000D01*
G75*
G02*
X405214000Y-158125500I0J175500D01*
G01*
X405214000Y-156424500D01*
G75*
G02*
X405389500Y-156249000I175500J0D01*
G01*
G37*
G36*
G01*
X406659500Y-156249000D02*
X407010500Y-156249000D01*
G75*
G02*
X407186000Y-156424500I0J-175500D01*
G01*
X407186000Y-158125500D01*
G75*
G02*
X407010500Y-158301000I-175500J0D01*
G01*
X406659500Y-158301000D01*
G75*
G02*
X406484000Y-158125500I0J175500D01*
G01*
X406484000Y-156424500D01*
G75*
G02*
X406659500Y-156249000I175500J0D01*
G01*
G37*
G36*
G01*
X407929500Y-156249000D02*
X408280500Y-156249000D01*
G75*
G02*
X408456000Y-156424500I0J-175500D01*
G01*
X408456000Y-158125500D01*
G75*
G02*
X408280500Y-158301000I-175500J0D01*
G01*
X407929500Y-158301000D01*
G75*
G02*
X407754000Y-158125500I0J175500D01*
G01*
X407754000Y-156424500D01*
G75*
G02*
X407929500Y-156249000I175500J0D01*
G01*
G37*
G36*
G01*
X407929500Y-161199000D02*
X408280500Y-161199000D01*
G75*
G02*
X408456000Y-161374500I0J-175500D01*
G01*
X408456000Y-163075500D01*
G75*
G02*
X408280500Y-163251000I-175500J0D01*
G01*
X407929500Y-163251000D01*
G75*
G02*
X407754000Y-163075500I0J175500D01*
G01*
X407754000Y-161374500D01*
G75*
G02*
X407929500Y-161199000I175500J0D01*
G01*
G37*
G36*
G01*
X406659500Y-161199000D02*
X407010500Y-161199000D01*
G75*
G02*
X407186000Y-161374500I0J-175500D01*
G01*
X407186000Y-163075500D01*
G75*
G02*
X407010500Y-163251000I-175500J0D01*
G01*
X406659500Y-163251000D01*
G75*
G02*
X406484000Y-163075500I0J175500D01*
G01*
X406484000Y-161374500D01*
G75*
G02*
X406659500Y-161199000I175500J0D01*
G01*
G37*
G36*
G01*
X405389500Y-161199000D02*
X405740500Y-161199000D01*
G75*
G02*
X405916000Y-161374500I0J-175500D01*
G01*
X405916000Y-163075500D01*
G75*
G02*
X405740500Y-163251000I-175500J0D01*
G01*
X405389500Y-163251000D01*
G75*
G02*
X405214000Y-163075500I0J175500D01*
G01*
X405214000Y-161374500D01*
G75*
G02*
X405389500Y-161199000I175500J0D01*
G01*
G37*
G36*
G01*
X404119500Y-161199000D02*
X404470500Y-161199000D01*
G75*
G02*
X404646000Y-161374500I0J-175500D01*
G01*
X404646000Y-163075500D01*
G75*
G02*
X404470500Y-163251000I-175500J0D01*
G01*
X404119500Y-163251000D01*
G75*
G02*
X403944000Y-163075500I0J175500D01*
G01*
X403944000Y-161374500D01*
G75*
G02*
X404119500Y-161199000I175500J0D01*
G01*
G37*
G36*
G01*
X361824000Y-137500000D02*
X361824000Y-135900000D01*
G75*
G02*
X361875000Y-135849000I51000J0D01*
G01*
X362175000Y-135849000D01*
G75*
G02*
X362226000Y-135900000I0J-51000D01*
G01*
X362226000Y-137500000D01*
G75*
G02*
X362175000Y-137551000I-51000J0D01*
G01*
X361875000Y-137551000D01*
G75*
G02*
X361824000Y-137500000I0J51000D01*
G01*
G37*
G36*
G01*
X362474000Y-137500000D02*
X362474000Y-135900000D01*
G75*
G02*
X362525000Y-135849000I51000J0D01*
G01*
X362825000Y-135849000D01*
G75*
G02*
X362876000Y-135900000I0J-51000D01*
G01*
X362876000Y-137500000D01*
G75*
G02*
X362825000Y-137551000I-51000J0D01*
G01*
X362525000Y-137551000D01*
G75*
G02*
X362474000Y-137500000I0J51000D01*
G01*
G37*
G36*
G01*
X363124000Y-137500000D02*
X363124000Y-135900000D01*
G75*
G02*
X363175000Y-135849000I51000J0D01*
G01*
X363475000Y-135849000D01*
G75*
G02*
X363526000Y-135900000I0J-51000D01*
G01*
X363526000Y-137500000D01*
G75*
G02*
X363475000Y-137551000I-51000J0D01*
G01*
X363175000Y-137551000D01*
G75*
G02*
X363124000Y-137500000I0J51000D01*
G01*
G37*
G36*
G01*
X363774000Y-137500000D02*
X363774000Y-135900000D01*
G75*
G02*
X363825000Y-135849000I51000J0D01*
G01*
X364125000Y-135849000D01*
G75*
G02*
X364176000Y-135900000I0J-51000D01*
G01*
X364176000Y-137500000D01*
G75*
G02*
X364125000Y-137551000I-51000J0D01*
G01*
X363825000Y-137551000D01*
G75*
G02*
X363774000Y-137500000I0J51000D01*
G01*
G37*
G36*
G01*
X363774000Y-134100000D02*
X363774000Y-132500000D01*
G75*
G02*
X363825000Y-132449000I51000J0D01*
G01*
X364125000Y-132449000D01*
G75*
G02*
X364176000Y-132500000I0J-51000D01*
G01*
X364176000Y-134100000D01*
G75*
G02*
X364125000Y-134151000I-51000J0D01*
G01*
X363825000Y-134151000D01*
G75*
G02*
X363774000Y-134100000I0J51000D01*
G01*
G37*
G36*
G01*
X363124000Y-134100000D02*
X363124000Y-132500000D01*
G75*
G02*
X363175000Y-132449000I51000J0D01*
G01*
X363475000Y-132449000D01*
G75*
G02*
X363526000Y-132500000I0J-51000D01*
G01*
X363526000Y-134100000D01*
G75*
G02*
X363475000Y-134151000I-51000J0D01*
G01*
X363175000Y-134151000D01*
G75*
G02*
X363124000Y-134100000I0J51000D01*
G01*
G37*
G36*
G01*
X362474000Y-134100000D02*
X362474000Y-132500000D01*
G75*
G02*
X362525000Y-132449000I51000J0D01*
G01*
X362825000Y-132449000D01*
G75*
G02*
X362876000Y-132500000I0J-51000D01*
G01*
X362876000Y-134100000D01*
G75*
G02*
X362825000Y-134151000I-51000J0D01*
G01*
X362525000Y-134151000D01*
G75*
G02*
X362474000Y-134100000I0J51000D01*
G01*
G37*
G36*
G01*
X361824000Y-134100000D02*
X361824000Y-132500000D01*
G75*
G02*
X361875000Y-132449000I51000J0D01*
G01*
X362175000Y-132449000D01*
G75*
G02*
X362226000Y-132500000I0J-51000D01*
G01*
X362226000Y-134100000D01*
G75*
G02*
X362175000Y-134151000I-51000J0D01*
G01*
X361875000Y-134151000D01*
G75*
G02*
X361824000Y-134100000I0J51000D01*
G01*
G37*
G36*
G01*
X365719500Y-161199000D02*
X366070500Y-161199000D01*
G75*
G02*
X366246000Y-161374500I0J-175500D01*
G01*
X366246000Y-163075500D01*
G75*
G02*
X366070500Y-163251000I-175500J0D01*
G01*
X365719500Y-163251000D01*
G75*
G02*
X365544000Y-163075500I0J175500D01*
G01*
X365544000Y-161374500D01*
G75*
G02*
X365719500Y-161199000I175500J0D01*
G01*
G37*
G36*
G01*
X366989500Y-161199000D02*
X367340500Y-161199000D01*
G75*
G02*
X367516000Y-161374500I0J-175500D01*
G01*
X367516000Y-163075500D01*
G75*
G02*
X367340500Y-163251000I-175500J0D01*
G01*
X366989500Y-163251000D01*
G75*
G02*
X366814000Y-163075500I0J175500D01*
G01*
X366814000Y-161374500D01*
G75*
G02*
X366989500Y-161199000I175500J0D01*
G01*
G37*
G36*
G01*
X368259500Y-161199000D02*
X368610500Y-161199000D01*
G75*
G02*
X368786000Y-161374500I0J-175500D01*
G01*
X368786000Y-163075500D01*
G75*
G02*
X368610500Y-163251000I-175500J0D01*
G01*
X368259500Y-163251000D01*
G75*
G02*
X368084000Y-163075500I0J175500D01*
G01*
X368084000Y-161374500D01*
G75*
G02*
X368259500Y-161199000I175500J0D01*
G01*
G37*
G36*
G01*
X369529500Y-161199000D02*
X369880500Y-161199000D01*
G75*
G02*
X370056000Y-161374500I0J-175500D01*
G01*
X370056000Y-163075500D01*
G75*
G02*
X369880500Y-163251000I-175500J0D01*
G01*
X369529500Y-163251000D01*
G75*
G02*
X369354000Y-163075500I0J175500D01*
G01*
X369354000Y-161374500D01*
G75*
G02*
X369529500Y-161199000I175500J0D01*
G01*
G37*
G36*
G01*
X369529500Y-156249000D02*
X369880500Y-156249000D01*
G75*
G02*
X370056000Y-156424500I0J-175500D01*
G01*
X370056000Y-158125500D01*
G75*
G02*
X369880500Y-158301000I-175500J0D01*
G01*
X369529500Y-158301000D01*
G75*
G02*
X369354000Y-158125500I0J175500D01*
G01*
X369354000Y-156424500D01*
G75*
G02*
X369529500Y-156249000I175500J0D01*
G01*
G37*
G36*
G01*
X368259500Y-156249000D02*
X368610500Y-156249000D01*
G75*
G02*
X368786000Y-156424500I0J-175500D01*
G01*
X368786000Y-158125500D01*
G75*
G02*
X368610500Y-158301000I-175500J0D01*
G01*
X368259500Y-158301000D01*
G75*
G02*
X368084000Y-158125500I0J175500D01*
G01*
X368084000Y-156424500D01*
G75*
G02*
X368259500Y-156249000I175500J0D01*
G01*
G37*
G36*
G01*
X366989500Y-156249000D02*
X367340500Y-156249000D01*
G75*
G02*
X367516000Y-156424500I0J-175500D01*
G01*
X367516000Y-158125500D01*
G75*
G02*
X367340500Y-158301000I-175500J0D01*
G01*
X366989500Y-158301000D01*
G75*
G02*
X366814000Y-158125500I0J175500D01*
G01*
X366814000Y-156424500D01*
G75*
G02*
X366989500Y-156249000I175500J0D01*
G01*
G37*
G36*
G01*
X365719500Y-156249000D02*
X366070500Y-156249000D01*
G75*
G02*
X366246000Y-156424500I0J-175500D01*
G01*
X366246000Y-158125500D01*
G75*
G02*
X366070500Y-158301000I-175500J0D01*
G01*
X365719500Y-158301000D01*
G75*
G02*
X365544000Y-158125500I0J175500D01*
G01*
X365544000Y-156424500D01*
G75*
G02*
X365719500Y-156249000I175500J0D01*
G01*
G37*
D19*
X546375000Y-207380000D03*
D20*
X547000000Y-201600000D03*
D19*
X492375000Y-207380000D03*
D20*
X491750000Y-201600000D03*
D16*
X547000000Y-205600000D03*
X491750000Y-205600000D03*
D19*
X470625000Y-207380000D03*
D20*
X471250000Y-201600000D03*
D19*
X416625000Y-207380000D03*
D20*
X416000000Y-201600000D03*
D16*
X471250000Y-205600000D03*
X416000000Y-205600000D03*
X264500000Y-205600000D03*
X319750000Y-205600000D03*
D20*
X264500000Y-201600000D03*
D19*
X265125000Y-207380000D03*
D20*
X319750000Y-201600000D03*
D19*
X319125000Y-207380000D03*
X243375000Y-207380000D03*
D20*
X244000000Y-201600000D03*
D19*
X189375000Y-207380000D03*
D20*
X188750000Y-201600000D03*
D16*
X244000000Y-205600000D03*
X188750000Y-205600000D03*
X113000000Y-205600000D03*
X168250000Y-205600000D03*
D20*
X113000000Y-201600000D03*
D19*
X113625000Y-207380000D03*
D20*
X168250000Y-201600000D03*
D19*
X167625000Y-207380000D03*
G36*
G01*
X371824000Y-134100000D02*
X371824000Y-132500000D01*
G75*
G02*
X371875000Y-132449000I51000J0D01*
G01*
X372175000Y-132449000D01*
G75*
G02*
X372226000Y-132500000I0J-51000D01*
G01*
X372226000Y-134100000D01*
G75*
G02*
X372175000Y-134151000I-51000J0D01*
G01*
X371875000Y-134151000D01*
G75*
G02*
X371824000Y-134100000I0J51000D01*
G01*
G37*
G36*
G01*
X372474000Y-134100000D02*
X372474000Y-132500000D01*
G75*
G02*
X372525000Y-132449000I51000J0D01*
G01*
X372825000Y-132449000D01*
G75*
G02*
X372876000Y-132500000I0J-51000D01*
G01*
X372876000Y-134100000D01*
G75*
G02*
X372825000Y-134151000I-51000J0D01*
G01*
X372525000Y-134151000D01*
G75*
G02*
X372474000Y-134100000I0J51000D01*
G01*
G37*
G36*
G01*
X373124000Y-134100000D02*
X373124000Y-132500000D01*
G75*
G02*
X373175000Y-132449000I51000J0D01*
G01*
X373475000Y-132449000D01*
G75*
G02*
X373526000Y-132500000I0J-51000D01*
G01*
X373526000Y-134100000D01*
G75*
G02*
X373475000Y-134151000I-51000J0D01*
G01*
X373175000Y-134151000D01*
G75*
G02*
X373124000Y-134100000I0J51000D01*
G01*
G37*
G36*
G01*
X373774000Y-134100000D02*
X373774000Y-132500000D01*
G75*
G02*
X373825000Y-132449000I51000J0D01*
G01*
X374125000Y-132449000D01*
G75*
G02*
X374176000Y-132500000I0J-51000D01*
G01*
X374176000Y-134100000D01*
G75*
G02*
X374125000Y-134151000I-51000J0D01*
G01*
X373825000Y-134151000D01*
G75*
G02*
X373774000Y-134100000I0J51000D01*
G01*
G37*
G36*
G01*
X373774000Y-137500000D02*
X373774000Y-135900000D01*
G75*
G02*
X373825000Y-135849000I51000J0D01*
G01*
X374125000Y-135849000D01*
G75*
G02*
X374176000Y-135900000I0J-51000D01*
G01*
X374176000Y-137500000D01*
G75*
G02*
X374125000Y-137551000I-51000J0D01*
G01*
X373825000Y-137551000D01*
G75*
G02*
X373774000Y-137500000I0J51000D01*
G01*
G37*
G36*
G01*
X373124000Y-137500000D02*
X373124000Y-135900000D01*
G75*
G02*
X373175000Y-135849000I51000J0D01*
G01*
X373475000Y-135849000D01*
G75*
G02*
X373526000Y-135900000I0J-51000D01*
G01*
X373526000Y-137500000D01*
G75*
G02*
X373475000Y-137551000I-51000J0D01*
G01*
X373175000Y-137551000D01*
G75*
G02*
X373124000Y-137500000I0J51000D01*
G01*
G37*
G36*
G01*
X372474000Y-137500000D02*
X372474000Y-135900000D01*
G75*
G02*
X372525000Y-135849000I51000J0D01*
G01*
X372825000Y-135849000D01*
G75*
G02*
X372876000Y-135900000I0J-51000D01*
G01*
X372876000Y-137500000D01*
G75*
G02*
X372825000Y-137551000I-51000J0D01*
G01*
X372525000Y-137551000D01*
G75*
G02*
X372474000Y-137500000I0J51000D01*
G01*
G37*
G36*
G01*
X371824000Y-137500000D02*
X371824000Y-135900000D01*
G75*
G02*
X371875000Y-135849000I51000J0D01*
G01*
X372175000Y-135849000D01*
G75*
G02*
X372226000Y-135900000I0J-51000D01*
G01*
X372226000Y-137500000D01*
G75*
G02*
X372175000Y-137551000I-51000J0D01*
G01*
X371875000Y-137551000D01*
G75*
G02*
X371824000Y-137500000I0J51000D01*
G01*
G37*
G36*
G01*
X351824000Y-137500000D02*
X351824000Y-135900000D01*
G75*
G02*
X351875000Y-135849000I51000J0D01*
G01*
X352175000Y-135849000D01*
G75*
G02*
X352226000Y-135900000I0J-51000D01*
G01*
X352226000Y-137500000D01*
G75*
G02*
X352175000Y-137551000I-51000J0D01*
G01*
X351875000Y-137551000D01*
G75*
G02*
X351824000Y-137500000I0J51000D01*
G01*
G37*
G36*
G01*
X352474000Y-137500000D02*
X352474000Y-135900000D01*
G75*
G02*
X352525000Y-135849000I51000J0D01*
G01*
X352825000Y-135849000D01*
G75*
G02*
X352876000Y-135900000I0J-51000D01*
G01*
X352876000Y-137500000D01*
G75*
G02*
X352825000Y-137551000I-51000J0D01*
G01*
X352525000Y-137551000D01*
G75*
G02*
X352474000Y-137500000I0J51000D01*
G01*
G37*
G36*
G01*
X353124000Y-137500000D02*
X353124000Y-135900000D01*
G75*
G02*
X353175000Y-135849000I51000J0D01*
G01*
X353475000Y-135849000D01*
G75*
G02*
X353526000Y-135900000I0J-51000D01*
G01*
X353526000Y-137500000D01*
G75*
G02*
X353475000Y-137551000I-51000J0D01*
G01*
X353175000Y-137551000D01*
G75*
G02*
X353124000Y-137500000I0J51000D01*
G01*
G37*
G36*
G01*
X353774000Y-137500000D02*
X353774000Y-135900000D01*
G75*
G02*
X353825000Y-135849000I51000J0D01*
G01*
X354125000Y-135849000D01*
G75*
G02*
X354176000Y-135900000I0J-51000D01*
G01*
X354176000Y-137500000D01*
G75*
G02*
X354125000Y-137551000I-51000J0D01*
G01*
X353825000Y-137551000D01*
G75*
G02*
X353774000Y-137500000I0J51000D01*
G01*
G37*
G36*
G01*
X353774000Y-134100000D02*
X353774000Y-132500000D01*
G75*
G02*
X353825000Y-132449000I51000J0D01*
G01*
X354125000Y-132449000D01*
G75*
G02*
X354176000Y-132500000I0J-51000D01*
G01*
X354176000Y-134100000D01*
G75*
G02*
X354125000Y-134151000I-51000J0D01*
G01*
X353825000Y-134151000D01*
G75*
G02*
X353774000Y-134100000I0J51000D01*
G01*
G37*
G36*
G01*
X353124000Y-134100000D02*
X353124000Y-132500000D01*
G75*
G02*
X353175000Y-132449000I51000J0D01*
G01*
X353475000Y-132449000D01*
G75*
G02*
X353526000Y-132500000I0J-51000D01*
G01*
X353526000Y-134100000D01*
G75*
G02*
X353475000Y-134151000I-51000J0D01*
G01*
X353175000Y-134151000D01*
G75*
G02*
X353124000Y-134100000I0J51000D01*
G01*
G37*
G36*
G01*
X352474000Y-134100000D02*
X352474000Y-132500000D01*
G75*
G02*
X352525000Y-132449000I51000J0D01*
G01*
X352825000Y-132449000D01*
G75*
G02*
X352876000Y-132500000I0J-51000D01*
G01*
X352876000Y-134100000D01*
G75*
G02*
X352825000Y-134151000I-51000J0D01*
G01*
X352525000Y-134151000D01*
G75*
G02*
X352474000Y-134100000I0J51000D01*
G01*
G37*
G36*
G01*
X351824000Y-134100000D02*
X351824000Y-132500000D01*
G75*
G02*
X351875000Y-132449000I51000J0D01*
G01*
X352175000Y-132449000D01*
G75*
G02*
X352226000Y-132500000I0J-51000D01*
G01*
X352226000Y-134100000D01*
G75*
G02*
X352175000Y-134151000I-51000J0D01*
G01*
X351875000Y-134151000D01*
G75*
G02*
X351824000Y-134100000I0J51000D01*
G01*
G37*
D24*
G36*
X353775732Y-135848000D02*
G01*
X353776000Y-135849000D01*
X353776000Y-137551000D01*
X353775000Y-137552732D01*
X353774000Y-137553000D01*
X353526000Y-137553000D01*
X353524268Y-137552000D01*
X353524000Y-137551000D01*
X353524000Y-135849000D01*
X353525000Y-135847268D01*
X353526000Y-135847000D01*
X353774000Y-135847000D01*
X353775732Y-135848000D01*
G37*
G36*
X352475732Y-135848000D02*
G01*
X352476000Y-135849000D01*
X352476000Y-137551000D01*
X352475000Y-137552732D01*
X352474000Y-137553000D01*
X352226000Y-137553000D01*
X352224268Y-137552000D01*
X352224000Y-137551000D01*
X352224000Y-135849000D01*
X352225000Y-135847268D01*
X352226000Y-135847000D01*
X352474000Y-135847000D01*
X352475732Y-135848000D01*
G37*
G36*
X353125732Y-135848000D02*
G01*
X353126000Y-135849000D01*
X353126000Y-137551000D01*
X353125000Y-137552732D01*
X353124000Y-137553000D01*
X352876000Y-137553000D01*
X352874268Y-137552000D01*
X352874000Y-137551000D01*
X352874000Y-135849000D01*
X352875000Y-135847268D01*
X352876000Y-135847000D01*
X353124000Y-135847000D01*
X353125732Y-135848000D01*
G37*
G36*
X383775732Y-135848000D02*
G01*
X383776000Y-135849000D01*
X383776000Y-137551000D01*
X383775000Y-137552732D01*
X383774000Y-137553000D01*
X383526000Y-137553000D01*
X383524268Y-137552000D01*
X383524000Y-137551000D01*
X383524000Y-135849000D01*
X383525000Y-135847268D01*
X383526000Y-135847000D01*
X383774000Y-135847000D01*
X383775732Y-135848000D01*
G37*
G36*
X363775732Y-135848000D02*
G01*
X363776000Y-135849000D01*
X363776000Y-137551000D01*
X363775000Y-137552732D01*
X363774000Y-137553000D01*
X363526000Y-137553000D01*
X363524268Y-137552000D01*
X363524000Y-137551000D01*
X363524000Y-135849000D01*
X363525000Y-135847268D01*
X363526000Y-135847000D01*
X363774000Y-135847000D01*
X363775732Y-135848000D01*
G37*
G36*
X373775732Y-135848000D02*
G01*
X373776000Y-135849000D01*
X373776000Y-137551000D01*
X373775000Y-137552732D01*
X373774000Y-137553000D01*
X373526000Y-137553000D01*
X373524268Y-137552000D01*
X373524000Y-137551000D01*
X373524000Y-135849000D01*
X373525000Y-135847268D01*
X373526000Y-135847000D01*
X373774000Y-135847000D01*
X373775732Y-135848000D01*
G37*
G36*
X382475732Y-135848000D02*
G01*
X382476000Y-135849000D01*
X382476000Y-137551000D01*
X382475000Y-137552732D01*
X382474000Y-137553000D01*
X382226000Y-137553000D01*
X382224268Y-137552000D01*
X382224000Y-137551000D01*
X382224000Y-135849000D01*
X382225000Y-135847268D01*
X382226000Y-135847000D01*
X382474000Y-135847000D01*
X382475732Y-135848000D01*
G37*
G36*
X383125732Y-135848000D02*
G01*
X383126000Y-135849000D01*
X383126000Y-137551000D01*
X383125000Y-137552732D01*
X383124000Y-137553000D01*
X382876000Y-137553000D01*
X382874268Y-137552000D01*
X382874000Y-137551000D01*
X382874000Y-135849000D01*
X382875000Y-135847268D01*
X382876000Y-135847000D01*
X383124000Y-135847000D01*
X383125732Y-135848000D01*
G37*
G36*
X363125732Y-135848000D02*
G01*
X363126000Y-135849000D01*
X363126000Y-137551000D01*
X363125000Y-137552732D01*
X363124000Y-137553000D01*
X362876000Y-137553000D01*
X362874268Y-137552000D01*
X362874000Y-137551000D01*
X362874000Y-135849000D01*
X362875000Y-135847268D01*
X362876000Y-135847000D01*
X363124000Y-135847000D01*
X363125732Y-135848000D01*
G37*
G36*
X372475732Y-135848000D02*
G01*
X372476000Y-135849000D01*
X372476000Y-137551000D01*
X372475000Y-137552732D01*
X372474000Y-137553000D01*
X372226000Y-137553000D01*
X372224268Y-137552000D01*
X372224000Y-137551000D01*
X372224000Y-135849000D01*
X372225000Y-135847268D01*
X372226000Y-135847000D01*
X372474000Y-135847000D01*
X372475732Y-135848000D01*
G37*
G36*
X373125732Y-135848000D02*
G01*
X373126000Y-135849000D01*
X373126000Y-137551000D01*
X373125000Y-137552732D01*
X373124000Y-137553000D01*
X372876000Y-137553000D01*
X372874268Y-137552000D01*
X372874000Y-137551000D01*
X372874000Y-135849000D01*
X372875000Y-135847268D01*
X372876000Y-135847000D01*
X373124000Y-135847000D01*
X373125732Y-135848000D01*
G37*
G36*
X362475732Y-135848000D02*
G01*
X362476000Y-135849000D01*
X362476000Y-137551000D01*
X362475000Y-137552732D01*
X362474000Y-137553000D01*
X362226000Y-137553000D01*
X362224268Y-137552000D01*
X362224000Y-137551000D01*
X362224000Y-135849000D01*
X362225000Y-135847268D01*
X362226000Y-135847000D01*
X362474000Y-135847000D01*
X362475732Y-135848000D01*
G37*
G36*
X436125165Y-135255847D02*
G01*
X436126000Y-135257473D01*
X436126000Y-135631000D01*
X436125000Y-135632732D01*
X436124000Y-135633000D01*
X436101226Y-135633000D01*
X436099680Y-135632269D01*
X436085968Y-135615560D01*
X436067331Y-135600265D01*
X436046067Y-135588900D01*
X436022992Y-135581900D01*
X435999001Y-135579537D01*
X435975010Y-135581900D01*
X435951935Y-135588900D01*
X435930671Y-135600265D01*
X435912034Y-135615560D01*
X435896739Y-135634197D01*
X435885374Y-135655461D01*
X435880100Y-135672848D01*
X435878640Y-135674215D01*
X435876726Y-135673634D01*
X435876224Y-135671877D01*
X435893939Y-135582817D01*
X435893939Y-135377183D01*
X435876224Y-135288123D01*
X435876867Y-135286229D01*
X435878829Y-135285839D01*
X435880100Y-135287152D01*
X435885374Y-135304539D01*
X435896739Y-135325803D01*
X435912034Y-135344440D01*
X435930671Y-135359735D01*
X435951935Y-135371100D01*
X435975010Y-135378100D01*
X435999001Y-135380463D01*
X436022992Y-135378100D01*
X436046067Y-135371100D01*
X436067331Y-135359735D01*
X436085968Y-135344440D01*
X436101263Y-135325803D01*
X436112628Y-135304539D01*
X436119628Y-135281464D01*
X436122010Y-135257277D01*
X436123175Y-135255651D01*
X436125165Y-135255847D01*
G37*
G36*
X353775732Y-132448000D02*
G01*
X353776000Y-132449000D01*
X353776000Y-134151000D01*
X353775000Y-134152732D01*
X353774000Y-134153000D01*
X353526000Y-134153000D01*
X353524268Y-134152000D01*
X353524000Y-134151000D01*
X353524000Y-132449000D01*
X353525000Y-132447268D01*
X353526000Y-132447000D01*
X353774000Y-132447000D01*
X353775732Y-132448000D01*
G37*
G36*
X353125732Y-132448000D02*
G01*
X353126000Y-132449000D01*
X353126000Y-134151000D01*
X353125000Y-134152732D01*
X353124000Y-134153000D01*
X352876000Y-134153000D01*
X352874268Y-134152000D01*
X352874000Y-134151000D01*
X352874000Y-132449000D01*
X352875000Y-132447268D01*
X352876000Y-132447000D01*
X353124000Y-132447000D01*
X353125732Y-132448000D01*
G37*
G36*
X383775732Y-132448000D02*
G01*
X383776000Y-132449000D01*
X383776000Y-134151000D01*
X383775000Y-134152732D01*
X383774000Y-134153000D01*
X383526000Y-134153000D01*
X383524268Y-134152000D01*
X383524000Y-134151000D01*
X383524000Y-132449000D01*
X383525000Y-132447268D01*
X383526000Y-132447000D01*
X383774000Y-132447000D01*
X383775732Y-132448000D01*
G37*
G36*
X383125732Y-132448000D02*
G01*
X383126000Y-132449000D01*
X383126000Y-134151000D01*
X383125000Y-134152732D01*
X383124000Y-134153000D01*
X382876000Y-134153000D01*
X382874268Y-134152000D01*
X382874000Y-134151000D01*
X382874000Y-132449000D01*
X382875000Y-132447268D01*
X382876000Y-132447000D01*
X383124000Y-132447000D01*
X383125732Y-132448000D01*
G37*
G36*
X362475732Y-132448000D02*
G01*
X362476000Y-132449000D01*
X362476000Y-134151000D01*
X362475000Y-134152732D01*
X362474000Y-134153000D01*
X362226000Y-134153000D01*
X362224268Y-134152000D01*
X362224000Y-134151000D01*
X362224000Y-132449000D01*
X362225000Y-132447268D01*
X362226000Y-132447000D01*
X362474000Y-132447000D01*
X362475732Y-132448000D01*
G37*
G36*
X363125732Y-132448000D02*
G01*
X363126000Y-132449000D01*
X363126000Y-134151000D01*
X363125000Y-134152732D01*
X363124000Y-134153000D01*
X362876000Y-134153000D01*
X362874268Y-134152000D01*
X362874000Y-134151000D01*
X362874000Y-132449000D01*
X362875000Y-132447268D01*
X362876000Y-132447000D01*
X363124000Y-132447000D01*
X363125732Y-132448000D01*
G37*
G36*
X363775732Y-132448000D02*
G01*
X363776000Y-132449000D01*
X363776000Y-134151000D01*
X363775000Y-134152732D01*
X363774000Y-134153000D01*
X363526000Y-134153000D01*
X363524268Y-134152000D01*
X363524000Y-134151000D01*
X363524000Y-132449000D01*
X363525000Y-132447268D01*
X363526000Y-132447000D01*
X363774000Y-132447000D01*
X363775732Y-132448000D01*
G37*
G36*
X372475732Y-132448000D02*
G01*
X372476000Y-132449000D01*
X372476000Y-134151000D01*
X372475000Y-134152732D01*
X372474000Y-134153000D01*
X372226000Y-134153000D01*
X372224268Y-134152000D01*
X372224000Y-134151000D01*
X372224000Y-132449000D01*
X372225000Y-132447268D01*
X372226000Y-132447000D01*
X372474000Y-132447000D01*
X372475732Y-132448000D01*
G37*
G36*
X373125732Y-132448000D02*
G01*
X373126000Y-132449000D01*
X373126000Y-134151000D01*
X373125000Y-134152732D01*
X373124000Y-134153000D01*
X372876000Y-134153000D01*
X372874268Y-134152000D01*
X372874000Y-134151000D01*
X372874000Y-132449000D01*
X372875000Y-132447268D01*
X372876000Y-132447000D01*
X373124000Y-132447000D01*
X373125732Y-132448000D01*
G37*
G36*
X373775732Y-132448000D02*
G01*
X373776000Y-132449000D01*
X373776000Y-134151000D01*
X373775000Y-134152732D01*
X373774000Y-134153000D01*
X373526000Y-134153000D01*
X373524268Y-134152000D01*
X373524000Y-134151000D01*
X373524000Y-132449000D01*
X373525000Y-132447268D01*
X373526000Y-132447000D01*
X373774000Y-132447000D01*
X373775732Y-132448000D01*
G37*
G36*
X382475732Y-132448000D02*
G01*
X382476000Y-132449000D01*
X382476000Y-134151000D01*
X382475000Y-134152732D01*
X382474000Y-134153000D01*
X382226000Y-134153000D01*
X382224268Y-134152000D01*
X382224000Y-134151000D01*
X382224000Y-132449000D01*
X382225000Y-132447268D01*
X382226000Y-132447000D01*
X382474000Y-132447000D01*
X382475732Y-132448000D01*
G37*
G36*
X352475732Y-132448000D02*
G01*
X352476000Y-132449000D01*
X352476000Y-134151000D01*
X352475000Y-134152732D01*
X352474000Y-134153000D01*
X352226000Y-134153000D01*
X352224268Y-134152000D01*
X352224000Y-134151000D01*
X352224000Y-132449000D01*
X352225000Y-132447268D01*
X352226000Y-132447000D01*
X352474000Y-132447000D01*
X352475732Y-132448000D01*
G37*
M02*
