G04 #@! TF.GenerationSoftware,KiCad,Pcbnew,5.1.10-88a1d61d58~88~ubuntu18.04.1*
G04 #@! TF.CreationDate,2021-08-13T15:16:03-04:00*
G04 #@! TF.ProjectId,readout_trenz,72656164-6f75-4745-9f74-72656e7a2e6b,rev?*
G04 #@! TF.SameCoordinates,Original*
G04 #@! TF.FileFunction,Soldermask,Top*
G04 #@! TF.FilePolarity,Negative*
%FSLAX46Y46*%
G04 Gerber Fmt 4.6, Leading zero omitted, Abs format (unit mm)*
G04 Created by KiCad (PCBNEW 5.1.10-88a1d61d58~88~ubuntu18.04.1) date 2021-08-13 15:16:03*
%MOMM*%
%LPD*%
G01*
G04 APERTURE LIST*
%ADD10R,4.400000X1.800000*%
%ADD11O,4.000000X1.800000*%
%ADD12O,1.800000X4.000000*%
%ADD13R,0.650000X2.200000*%
%ADD14R,0.900000X3.400000*%
%ADD15O,1.700000X1.700000*%
%ADD16R,1.700000X1.700000*%
%ADD17R,3.175000X1.270000*%
%ADD18R,0.650000X0.750000*%
%ADD19R,0.600000X0.500000*%
%ADD20R,1.000000X2.000000*%
%ADD21R,1.100000X0.400000*%
%ADD22C,2.000000*%
%ADD23C,1.400000*%
%ADD24C,2.794000*%
%ADD25R,0.762000X0.762000*%
%ADD26R,0.500000X2.000000*%
%ADD27R,2.000000X2.000000*%
%ADD28C,1.500000*%
%ADD29R,2.750000X1.000000*%
%ADD30C,1.000000*%
%ADD31R,0.300000X1.500000*%
%ADD32C,1.450000*%
%ADD33C,1.620000*%
%ADD34R,1.000000X0.280000*%
%ADD35R,0.280000X1.000000*%
%ADD36R,2.000000X0.650000*%
%ADD37C,1.800000*%
%ADD38R,1.800000X1.800000*%
%ADD39C,1.100000*%
%ADD40C,2.410000*%
%ADD41R,0.500000X1.250000*%
%ADD42C,1.524000*%
%ADD43R,1.560000X0.650000*%
%ADD44R,4.600000X1.100000*%
%ADD45R,9.400000X10.800000*%
%ADD46R,1.100000X0.285000*%
%ADD47R,0.300000X1.600000*%
%ADD48R,0.450000X1.450000*%
G04 APERTURE END LIST*
D10*
X183560000Y-110000000D03*
D11*
X183560000Y-104200000D03*
D12*
X178760000Y-107000000D03*
D13*
X283000000Y-130850000D03*
X283000000Y-127150000D03*
D14*
X292000000Y-134250000D03*
X292000000Y-127750000D03*
D13*
X283000000Y-176850000D03*
X283000000Y-173150000D03*
D14*
X292000000Y-178250000D03*
X292000000Y-171750000D03*
D13*
X283000000Y-158850000D03*
X283000000Y-155150000D03*
D14*
X292000000Y-162250000D03*
X292000000Y-155750000D03*
D15*
X215981600Y-144705400D03*
X213441600Y-149785400D03*
X215981600Y-152325400D03*
X213441600Y-147245400D03*
X213441600Y-152325400D03*
X215981600Y-147245400D03*
X215981600Y-154865400D03*
D16*
X213441600Y-144690000D03*
D15*
X215981600Y-149785400D03*
X213441600Y-154865400D03*
X181692200Y-144692400D03*
X179152200Y-149772400D03*
X181692200Y-152312400D03*
X179152200Y-147232400D03*
X179152200Y-152312400D03*
X181692200Y-147232400D03*
X181692200Y-154852400D03*
D16*
X179152200Y-144690000D03*
D15*
X181692200Y-149772400D03*
X179152200Y-154850000D03*
D17*
X322475000Y-129920000D03*
X322475000Y-132460000D03*
X327525000Y-137540000D03*
X327525000Y-135000000D03*
X327525000Y-129920000D03*
X327525000Y-132460000D03*
X327525000Y-140080000D03*
X322475000Y-140080000D03*
X322475000Y-137540000D03*
X322475000Y-135000000D03*
D18*
X342830000Y-147230000D03*
X342830000Y-145930000D03*
X341830000Y-145930000D03*
X341830000Y-147230000D03*
D19*
X281550000Y-110000000D03*
X282850000Y-109500000D03*
X282850000Y-110500000D03*
X289550000Y-110000000D03*
X290850000Y-109500000D03*
X290850000Y-110500000D03*
X297550000Y-110000000D03*
X298850000Y-109500000D03*
X298850000Y-110500000D03*
X305550000Y-110000000D03*
X306850000Y-109500000D03*
X306850000Y-110500000D03*
X241445000Y-109960000D03*
X242745000Y-109460000D03*
X242745000Y-110460000D03*
X249345000Y-110010000D03*
X250645000Y-109510000D03*
X250645000Y-110510000D03*
X265370000Y-109960000D03*
X266670000Y-109460000D03*
X266670000Y-110460000D03*
D20*
X423570000Y-152320000D03*
X427570000Y-152320000D03*
X436450000Y-152670000D03*
X432450000Y-152670000D03*
D21*
X452150000Y-149025000D03*
X452150000Y-149675000D03*
X452150000Y-150325000D03*
X452150000Y-150975000D03*
X447850000Y-150975000D03*
X447850000Y-150325000D03*
X447850000Y-149675000D03*
X447850000Y-149025000D03*
D22*
X513500000Y-102000000D03*
X513500000Y-114000000D03*
X513500000Y-111000000D03*
X513500000Y-123000000D03*
X513500000Y-108000000D03*
X513500000Y-105000000D03*
X513500000Y-117000000D03*
X513500000Y-120000000D03*
X513500000Y-126000000D03*
X496500000Y-114000000D03*
X496500000Y-102000000D03*
X496500000Y-108000000D03*
X496500000Y-105000000D03*
X496500000Y-111000000D03*
X496500000Y-123000000D03*
X496500000Y-117000000D03*
X496500000Y-126000000D03*
X496500000Y-120000000D03*
X500500000Y-128500000D03*
X509500000Y-128500000D03*
X506500000Y-128500000D03*
X503500000Y-128500000D03*
G36*
G01*
X342592500Y-150010000D02*
X343067500Y-150010000D01*
G75*
G02*
X343305000Y-150247500I0J-237500D01*
G01*
X343305000Y-150822500D01*
G75*
G02*
X343067500Y-151060000I-237500J0D01*
G01*
X342592500Y-151060000D01*
G75*
G02*
X342355000Y-150822500I0J237500D01*
G01*
X342355000Y-150247500D01*
G75*
G02*
X342592500Y-150010000I237500J0D01*
G01*
G37*
G36*
G01*
X342592500Y-148260000D02*
X343067500Y-148260000D01*
G75*
G02*
X343305000Y-148497500I0J-237500D01*
G01*
X343305000Y-149072500D01*
G75*
G02*
X343067500Y-149310000I-237500J0D01*
G01*
X342592500Y-149310000D01*
G75*
G02*
X342355000Y-149072500I0J237500D01*
G01*
X342355000Y-148497500D01*
G75*
G02*
X342592500Y-148260000I237500J0D01*
G01*
G37*
G36*
G01*
X344970000Y-145792500D02*
X344970000Y-146267500D01*
G75*
G02*
X344732500Y-146505000I-237500J0D01*
G01*
X344157500Y-146505000D01*
G75*
G02*
X343920000Y-146267500I0J237500D01*
G01*
X343920000Y-145792500D01*
G75*
G02*
X344157500Y-145555000I237500J0D01*
G01*
X344732500Y-145555000D01*
G75*
G02*
X344970000Y-145792500I0J-237500D01*
G01*
G37*
G36*
G01*
X346720000Y-145792500D02*
X346720000Y-146267500D01*
G75*
G02*
X346482500Y-146505000I-237500J0D01*
G01*
X345907500Y-146505000D01*
G75*
G02*
X345670000Y-146267500I0J237500D01*
G01*
X345670000Y-145792500D01*
G75*
G02*
X345907500Y-145555000I237500J0D01*
G01*
X346482500Y-145555000D01*
G75*
G02*
X346720000Y-145792500I0J-237500D01*
G01*
G37*
G36*
G01*
X339592500Y-149590000D02*
X340067500Y-149590000D01*
G75*
G02*
X340305000Y-149827500I0J-237500D01*
G01*
X340305000Y-150402500D01*
G75*
G02*
X340067500Y-150640000I-237500J0D01*
G01*
X339592500Y-150640000D01*
G75*
G02*
X339355000Y-150402500I0J237500D01*
G01*
X339355000Y-149827500D01*
G75*
G02*
X339592500Y-149590000I237500J0D01*
G01*
G37*
G36*
G01*
X339592500Y-147840000D02*
X340067500Y-147840000D01*
G75*
G02*
X340305000Y-148077500I0J-237500D01*
G01*
X340305000Y-148652500D01*
G75*
G02*
X340067500Y-148890000I-237500J0D01*
G01*
X339592500Y-148890000D01*
G75*
G02*
X339355000Y-148652500I0J237500D01*
G01*
X339355000Y-148077500D01*
G75*
G02*
X339592500Y-147840000I237500J0D01*
G01*
G37*
G36*
G01*
X339592500Y-146140000D02*
X340067500Y-146140000D01*
G75*
G02*
X340305000Y-146377500I0J-237500D01*
G01*
X340305000Y-146952500D01*
G75*
G02*
X340067500Y-147190000I-237500J0D01*
G01*
X339592500Y-147190000D01*
G75*
G02*
X339355000Y-146952500I0J237500D01*
G01*
X339355000Y-146377500D01*
G75*
G02*
X339592500Y-146140000I237500J0D01*
G01*
G37*
G36*
G01*
X339592500Y-144390000D02*
X340067500Y-144390000D01*
G75*
G02*
X340305000Y-144627500I0J-237500D01*
G01*
X340305000Y-145202500D01*
G75*
G02*
X340067500Y-145440000I-237500J0D01*
G01*
X339592500Y-145440000D01*
G75*
G02*
X339355000Y-145202500I0J237500D01*
G01*
X339355000Y-144627500D01*
G75*
G02*
X339592500Y-144390000I237500J0D01*
G01*
G37*
G36*
G01*
X420345000Y-149725000D02*
X419095000Y-149725000D01*
G75*
G02*
X418845000Y-149475000I0J250000D01*
G01*
X418845000Y-148550000D01*
G75*
G02*
X419095000Y-148300000I250000J0D01*
G01*
X420345000Y-148300000D01*
G75*
G02*
X420595000Y-148550000I0J-250000D01*
G01*
X420595000Y-149475000D01*
G75*
G02*
X420345000Y-149725000I-250000J0D01*
G01*
G37*
G36*
G01*
X420345000Y-152700000D02*
X419095000Y-152700000D01*
G75*
G02*
X418845000Y-152450000I0J250000D01*
G01*
X418845000Y-151525000D01*
G75*
G02*
X419095000Y-151275000I250000J0D01*
G01*
X420345000Y-151275000D01*
G75*
G02*
X420595000Y-151525000I0J-250000D01*
G01*
X420595000Y-152450000D01*
G75*
G02*
X420345000Y-152700000I-250000J0D01*
G01*
G37*
G36*
G01*
X415415000Y-149725000D02*
X414165000Y-149725000D01*
G75*
G02*
X413915000Y-149475000I0J250000D01*
G01*
X413915000Y-148550000D01*
G75*
G02*
X414165000Y-148300000I250000J0D01*
G01*
X415415000Y-148300000D01*
G75*
G02*
X415665000Y-148550000I0J-250000D01*
G01*
X415665000Y-149475000D01*
G75*
G02*
X415415000Y-149725000I-250000J0D01*
G01*
G37*
G36*
G01*
X415415000Y-152700000D02*
X414165000Y-152700000D01*
G75*
G02*
X413915000Y-152450000I0J250000D01*
G01*
X413915000Y-151525000D01*
G75*
G02*
X414165000Y-151275000I250000J0D01*
G01*
X415415000Y-151275000D01*
G75*
G02*
X415665000Y-151525000I0J-250000D01*
G01*
X415665000Y-152450000D01*
G75*
G02*
X415415000Y-152700000I-250000J0D01*
G01*
G37*
G36*
G01*
X408865000Y-149725000D02*
X407615000Y-149725000D01*
G75*
G02*
X407365000Y-149475000I0J250000D01*
G01*
X407365000Y-148550000D01*
G75*
G02*
X407615000Y-148300000I250000J0D01*
G01*
X408865000Y-148300000D01*
G75*
G02*
X409115000Y-148550000I0J-250000D01*
G01*
X409115000Y-149475000D01*
G75*
G02*
X408865000Y-149725000I-250000J0D01*
G01*
G37*
G36*
G01*
X408865000Y-152700000D02*
X407615000Y-152700000D01*
G75*
G02*
X407365000Y-152450000I0J250000D01*
G01*
X407365000Y-151525000D01*
G75*
G02*
X407615000Y-151275000I250000J0D01*
G01*
X408865000Y-151275000D01*
G75*
G02*
X409115000Y-151525000I0J-250000D01*
G01*
X409115000Y-152450000D01*
G75*
G02*
X408865000Y-152700000I-250000J0D01*
G01*
G37*
D15*
X450000000Y-137310000D03*
X450000000Y-134770000D03*
D16*
X450000000Y-132230000D03*
D23*
X327460000Y-160900000D03*
X330000000Y-160900000D03*
X369500000Y-168040000D03*
X369500000Y-165500000D03*
D22*
X467230000Y-175200000D03*
X474760000Y-129750000D03*
X429990000Y-190000000D03*
X430010000Y-166740000D03*
X309520000Y-189780000D03*
X309550000Y-162860000D03*
X268610000Y-175230000D03*
X268590000Y-129750000D03*
G36*
G01*
X363470000Y-110342500D02*
X363470000Y-110817500D01*
G75*
G02*
X363232500Y-111055000I-237500J0D01*
G01*
X362657500Y-111055000D01*
G75*
G02*
X362420000Y-110817500I0J237500D01*
G01*
X362420000Y-110342500D01*
G75*
G02*
X362657500Y-110105000I237500J0D01*
G01*
X363232500Y-110105000D01*
G75*
G02*
X363470000Y-110342500I0J-237500D01*
G01*
G37*
G36*
G01*
X365220000Y-110342500D02*
X365220000Y-110817500D01*
G75*
G02*
X364982500Y-111055000I-237500J0D01*
G01*
X364407500Y-111055000D01*
G75*
G02*
X364170000Y-110817500I0J237500D01*
G01*
X364170000Y-110342500D01*
G75*
G02*
X364407500Y-110105000I237500J0D01*
G01*
X364982500Y-110105000D01*
G75*
G02*
X365220000Y-110342500I0J-237500D01*
G01*
G37*
G36*
G01*
X383270000Y-109752500D02*
X383270000Y-110227500D01*
G75*
G02*
X383032500Y-110465000I-237500J0D01*
G01*
X382457500Y-110465000D01*
G75*
G02*
X382220000Y-110227500I0J237500D01*
G01*
X382220000Y-109752500D01*
G75*
G02*
X382457500Y-109515000I237500J0D01*
G01*
X383032500Y-109515000D01*
G75*
G02*
X383270000Y-109752500I0J-237500D01*
G01*
G37*
G36*
G01*
X385020000Y-109752500D02*
X385020000Y-110227500D01*
G75*
G02*
X384782500Y-110465000I-237500J0D01*
G01*
X384207500Y-110465000D01*
G75*
G02*
X383970000Y-110227500I0J237500D01*
G01*
X383970000Y-109752500D01*
G75*
G02*
X384207500Y-109515000I237500J0D01*
G01*
X384782500Y-109515000D01*
G75*
G02*
X385020000Y-109752500I0J-237500D01*
G01*
G37*
D24*
X554500000Y-103570000D03*
X105500000Y-103570000D03*
D25*
X365670000Y-185730000D03*
X404030000Y-185380000D03*
G36*
G01*
X279827500Y-108670000D02*
X279352500Y-108670000D01*
G75*
G02*
X279115000Y-108432500I0J237500D01*
G01*
X279115000Y-107857500D01*
G75*
G02*
X279352500Y-107620000I237500J0D01*
G01*
X279827500Y-107620000D01*
G75*
G02*
X280065000Y-107857500I0J-237500D01*
G01*
X280065000Y-108432500D01*
G75*
G02*
X279827500Y-108670000I-237500J0D01*
G01*
G37*
G36*
G01*
X279827500Y-110420000D02*
X279352500Y-110420000D01*
G75*
G02*
X279115000Y-110182500I0J237500D01*
G01*
X279115000Y-109607500D01*
G75*
G02*
X279352500Y-109370000I237500J0D01*
G01*
X279827500Y-109370000D01*
G75*
G02*
X280065000Y-109607500I0J-237500D01*
G01*
X280065000Y-110182500D01*
G75*
G02*
X279827500Y-110420000I-237500J0D01*
G01*
G37*
G36*
G01*
X287817500Y-108630000D02*
X287342500Y-108630000D01*
G75*
G02*
X287105000Y-108392500I0J237500D01*
G01*
X287105000Y-107817500D01*
G75*
G02*
X287342500Y-107580000I237500J0D01*
G01*
X287817500Y-107580000D01*
G75*
G02*
X288055000Y-107817500I0J-237500D01*
G01*
X288055000Y-108392500D01*
G75*
G02*
X287817500Y-108630000I-237500J0D01*
G01*
G37*
G36*
G01*
X287817500Y-110380000D02*
X287342500Y-110380000D01*
G75*
G02*
X287105000Y-110142500I0J237500D01*
G01*
X287105000Y-109567500D01*
G75*
G02*
X287342500Y-109330000I237500J0D01*
G01*
X287817500Y-109330000D01*
G75*
G02*
X288055000Y-109567500I0J-237500D01*
G01*
X288055000Y-110142500D01*
G75*
G02*
X287817500Y-110380000I-237500J0D01*
G01*
G37*
G36*
G01*
X295817500Y-108640000D02*
X295342500Y-108640000D01*
G75*
G02*
X295105000Y-108402500I0J237500D01*
G01*
X295105000Y-107827500D01*
G75*
G02*
X295342500Y-107590000I237500J0D01*
G01*
X295817500Y-107590000D01*
G75*
G02*
X296055000Y-107827500I0J-237500D01*
G01*
X296055000Y-108402500D01*
G75*
G02*
X295817500Y-108640000I-237500J0D01*
G01*
G37*
G36*
G01*
X295817500Y-110390000D02*
X295342500Y-110390000D01*
G75*
G02*
X295105000Y-110152500I0J237500D01*
G01*
X295105000Y-109577500D01*
G75*
G02*
X295342500Y-109340000I237500J0D01*
G01*
X295817500Y-109340000D01*
G75*
G02*
X296055000Y-109577500I0J-237500D01*
G01*
X296055000Y-110152500D01*
G75*
G02*
X295817500Y-110390000I-237500J0D01*
G01*
G37*
G36*
G01*
X303817500Y-108640000D02*
X303342500Y-108640000D01*
G75*
G02*
X303105000Y-108402500I0J237500D01*
G01*
X303105000Y-107827500D01*
G75*
G02*
X303342500Y-107590000I237500J0D01*
G01*
X303817500Y-107590000D01*
G75*
G02*
X304055000Y-107827500I0J-237500D01*
G01*
X304055000Y-108402500D01*
G75*
G02*
X303817500Y-108640000I-237500J0D01*
G01*
G37*
G36*
G01*
X303817500Y-110390000D02*
X303342500Y-110390000D01*
G75*
G02*
X303105000Y-110152500I0J237500D01*
G01*
X303105000Y-109577500D01*
G75*
G02*
X303342500Y-109340000I237500J0D01*
G01*
X303817500Y-109340000D01*
G75*
G02*
X304055000Y-109577500I0J-237500D01*
G01*
X304055000Y-110152500D01*
G75*
G02*
X303817500Y-110390000I-237500J0D01*
G01*
G37*
G36*
G01*
X259207500Y-108660000D02*
X258732500Y-108660000D01*
G75*
G02*
X258495000Y-108422500I0J237500D01*
G01*
X258495000Y-107847500D01*
G75*
G02*
X258732500Y-107610000I237500J0D01*
G01*
X259207500Y-107610000D01*
G75*
G02*
X259445000Y-107847500I0J-237500D01*
G01*
X259445000Y-108422500D01*
G75*
G02*
X259207500Y-108660000I-237500J0D01*
G01*
G37*
G36*
G01*
X259207500Y-110410000D02*
X258732500Y-110410000D01*
G75*
G02*
X258495000Y-110172500I0J237500D01*
G01*
X258495000Y-109597500D01*
G75*
G02*
X258732500Y-109360000I237500J0D01*
G01*
X259207500Y-109360000D01*
G75*
G02*
X259445000Y-109597500I0J-237500D01*
G01*
X259445000Y-110172500D01*
G75*
G02*
X259207500Y-110410000I-237500J0D01*
G01*
G37*
G36*
G01*
X219197500Y-108640000D02*
X218722500Y-108640000D01*
G75*
G02*
X218485000Y-108402500I0J237500D01*
G01*
X218485000Y-107827500D01*
G75*
G02*
X218722500Y-107590000I237500J0D01*
G01*
X219197500Y-107590000D01*
G75*
G02*
X219435000Y-107827500I0J-237500D01*
G01*
X219435000Y-108402500D01*
G75*
G02*
X219197500Y-108640000I-237500J0D01*
G01*
G37*
G36*
G01*
X219197500Y-110390000D02*
X218722500Y-110390000D01*
G75*
G02*
X218485000Y-110152500I0J237500D01*
G01*
X218485000Y-109577500D01*
G75*
G02*
X218722500Y-109340000I237500J0D01*
G01*
X219197500Y-109340000D01*
G75*
G02*
X219435000Y-109577500I0J-237500D01*
G01*
X219435000Y-110152500D01*
G75*
G02*
X219197500Y-110390000I-237500J0D01*
G01*
G37*
G36*
G01*
X235237500Y-108750000D02*
X234762500Y-108750000D01*
G75*
G02*
X234525000Y-108512500I0J237500D01*
G01*
X234525000Y-107937500D01*
G75*
G02*
X234762500Y-107700000I237500J0D01*
G01*
X235237500Y-107700000D01*
G75*
G02*
X235475000Y-107937500I0J-237500D01*
G01*
X235475000Y-108512500D01*
G75*
G02*
X235237500Y-108750000I-237500J0D01*
G01*
G37*
G36*
G01*
X235237500Y-110500000D02*
X234762500Y-110500000D01*
G75*
G02*
X234525000Y-110262500I0J237500D01*
G01*
X234525000Y-109687500D01*
G75*
G02*
X234762500Y-109450000I237500J0D01*
G01*
X235237500Y-109450000D01*
G75*
G02*
X235475000Y-109687500I0J-237500D01*
G01*
X235475000Y-110262500D01*
G75*
G02*
X235237500Y-110500000I-237500J0D01*
G01*
G37*
G36*
G01*
X465570000Y-103697500D02*
X465570000Y-104042500D01*
G75*
G02*
X465422500Y-104190000I-147500J0D01*
G01*
X465127500Y-104190000D01*
G75*
G02*
X464980000Y-104042500I0J147500D01*
G01*
X464980000Y-103697500D01*
G75*
G02*
X465127500Y-103550000I147500J0D01*
G01*
X465422500Y-103550000D01*
G75*
G02*
X465570000Y-103697500I0J-147500D01*
G01*
G37*
G36*
G01*
X466540000Y-103697500D02*
X466540000Y-104042500D01*
G75*
G02*
X466392500Y-104190000I-147500J0D01*
G01*
X466097500Y-104190000D01*
G75*
G02*
X465950000Y-104042500I0J147500D01*
G01*
X465950000Y-103697500D01*
G75*
G02*
X466097500Y-103550000I147500J0D01*
G01*
X466392500Y-103550000D01*
G75*
G02*
X466540000Y-103697500I0J-147500D01*
G01*
G37*
G36*
G01*
X470560000Y-104022500D02*
X470560000Y-103677500D01*
G75*
G02*
X470707500Y-103530000I147500J0D01*
G01*
X471002500Y-103530000D01*
G75*
G02*
X471150000Y-103677500I0J-147500D01*
G01*
X471150000Y-104022500D01*
G75*
G02*
X471002500Y-104170000I-147500J0D01*
G01*
X470707500Y-104170000D01*
G75*
G02*
X470560000Y-104022500I0J147500D01*
G01*
G37*
G36*
G01*
X469590000Y-104022500D02*
X469590000Y-103677500D01*
G75*
G02*
X469737500Y-103530000I147500J0D01*
G01*
X470032500Y-103530000D01*
G75*
G02*
X470180000Y-103677500I0J-147500D01*
G01*
X470180000Y-104022500D01*
G75*
G02*
X470032500Y-104170000I-147500J0D01*
G01*
X469737500Y-104170000D01*
G75*
G02*
X469590000Y-104022500I0J147500D01*
G01*
G37*
G36*
G01*
X443215000Y-135060000D02*
X441965000Y-135060000D01*
G75*
G02*
X441715000Y-134810000I0J250000D01*
G01*
X441715000Y-133885000D01*
G75*
G02*
X441965000Y-133635000I250000J0D01*
G01*
X443215000Y-133635000D01*
G75*
G02*
X443465000Y-133885000I0J-250000D01*
G01*
X443465000Y-134810000D01*
G75*
G02*
X443215000Y-135060000I-250000J0D01*
G01*
G37*
G36*
G01*
X443215000Y-132085000D02*
X441965000Y-132085000D01*
G75*
G02*
X441715000Y-131835000I0J250000D01*
G01*
X441715000Y-130910000D01*
G75*
G02*
X441965000Y-130660000I250000J0D01*
G01*
X443215000Y-130660000D01*
G75*
G02*
X443465000Y-130910000I0J-250000D01*
G01*
X443465000Y-131835000D01*
G75*
G02*
X443215000Y-132085000I-250000J0D01*
G01*
G37*
D26*
X433450000Y-131380000D03*
X432650000Y-131380000D03*
X431850000Y-131380000D03*
X431050000Y-131380000D03*
X430250000Y-131380000D03*
X429450000Y-131380000D03*
X428650000Y-131380000D03*
X427850000Y-131380000D03*
X427050000Y-131380000D03*
X426250000Y-131380000D03*
X426650000Y-139580000D03*
X427450000Y-139580000D03*
X428250000Y-139580000D03*
X429050000Y-139580000D03*
X429850000Y-139580000D03*
X430650000Y-139580000D03*
X431450000Y-139580000D03*
X432250000Y-139580000D03*
X433050000Y-139580000D03*
X433850000Y-139580000D03*
D22*
X425250000Y-135480000D03*
X434850000Y-135480000D03*
D27*
X437175000Y-134580000D03*
X437175000Y-124580000D03*
X437175000Y-114580000D03*
X437175000Y-104580000D03*
D28*
X430050000Y-141680000D03*
X434850000Y-141680000D03*
X425250000Y-141680000D03*
D27*
X422925000Y-139580000D03*
X422925000Y-129580000D03*
X422925000Y-119580000D03*
X422925000Y-109580000D03*
X428600000Y-104580000D03*
X426100000Y-124580000D03*
X431500000Y-124580000D03*
D28*
X422925000Y-137080000D03*
X437175000Y-137080000D03*
X437175000Y-132080000D03*
X437175000Y-127380000D03*
X422925000Y-127380000D03*
X422925000Y-132080000D03*
D29*
X327125000Y-117240000D03*
X322875000Y-115240000D03*
X322875000Y-113240000D03*
X322875000Y-117240000D03*
X327125000Y-113240000D03*
D30*
X325000000Y-106240000D03*
D29*
X322875000Y-111240000D03*
X327125000Y-115240000D03*
D30*
X325000000Y-116240000D03*
D29*
X322875000Y-105240000D03*
X322875000Y-109240000D03*
X327125000Y-109240000D03*
X327125000Y-111240000D03*
X322875000Y-107240000D03*
X327125000Y-107240000D03*
X327125000Y-105240000D03*
D31*
X362450000Y-122150000D03*
X362950000Y-122150000D03*
X363450000Y-122150000D03*
X363950000Y-122150000D03*
X364450000Y-122150000D03*
X364950000Y-122150000D03*
X365450000Y-122150000D03*
X365950000Y-122150000D03*
X366450000Y-122150000D03*
X366950000Y-122150000D03*
X367450000Y-122150000D03*
X367950000Y-122150000D03*
X368450000Y-122150000D03*
X368950000Y-122150000D03*
X369450000Y-122150000D03*
X369950000Y-122150000D03*
X370450000Y-122150000D03*
X370950000Y-122150000D03*
X371450000Y-122150000D03*
X371950000Y-122150000D03*
X372450000Y-122150000D03*
X372950000Y-122150000D03*
X373450000Y-122150000D03*
X373950000Y-122150000D03*
X374450000Y-122150000D03*
X374950000Y-122150000D03*
X375450000Y-122150000D03*
X375950000Y-122150000D03*
X376450000Y-122150000D03*
X376950000Y-122150000D03*
X352450000Y-125850000D03*
X352950000Y-125850000D03*
X353450000Y-125850000D03*
X353950000Y-125850000D03*
X354450000Y-125850000D03*
X354950000Y-125850000D03*
X355450000Y-125850000D03*
X355950000Y-125850000D03*
X356450000Y-125850000D03*
X356950000Y-125850000D03*
X357450000Y-125850000D03*
X357950000Y-125850000D03*
X358450000Y-125850000D03*
X358950000Y-125850000D03*
X359450000Y-125850000D03*
X359950000Y-125850000D03*
X360450000Y-125850000D03*
X360950000Y-125850000D03*
X361450000Y-125850000D03*
X361950000Y-125850000D03*
X362450000Y-125850000D03*
X362950000Y-125850000D03*
X363450000Y-125850000D03*
X363950000Y-125850000D03*
X364450000Y-125850000D03*
X364950000Y-125850000D03*
X365450000Y-125850000D03*
X365950000Y-125850000D03*
X366450000Y-125850000D03*
X366950000Y-125850000D03*
X367450000Y-125850000D03*
X367950000Y-125850000D03*
X368450000Y-125850000D03*
X368950000Y-125850000D03*
X369450000Y-125850000D03*
X369950000Y-125850000D03*
X370450000Y-125850000D03*
X370950000Y-125850000D03*
X371450000Y-125850000D03*
X371950000Y-125850000D03*
X372450000Y-125850000D03*
X372950000Y-125850000D03*
X373450000Y-125850000D03*
X373950000Y-125850000D03*
D28*
X379675000Y-122850000D03*
X349725000Y-122850000D03*
D32*
X378200000Y-124850000D03*
X351200000Y-124850000D03*
D31*
X352450000Y-122150000D03*
X352950000Y-122150000D03*
X353450000Y-122150000D03*
X353950000Y-122150000D03*
X354450000Y-122150000D03*
X354950000Y-122150000D03*
X355450000Y-122150000D03*
X355950000Y-122150000D03*
X356450000Y-122150000D03*
X356950000Y-122150000D03*
X357450000Y-122150000D03*
X357950000Y-122150000D03*
X358450000Y-122150000D03*
X358950000Y-122150000D03*
X359450000Y-122150000D03*
X359950000Y-122150000D03*
X360450000Y-122150000D03*
X360950000Y-122150000D03*
X361450000Y-122150000D03*
X361950000Y-122150000D03*
X374450000Y-125850000D03*
X374950000Y-125850000D03*
X375450000Y-125850000D03*
X375950000Y-125850000D03*
X376450000Y-125850000D03*
X376950000Y-125850000D03*
X363450000Y-147850000D03*
X372450000Y-147850000D03*
X381450000Y-144150000D03*
X364950000Y-147850000D03*
X378450000Y-147850000D03*
X375450000Y-147850000D03*
X377450000Y-144150000D03*
X373950000Y-144150000D03*
X367450000Y-144150000D03*
X359450000Y-144150000D03*
X366450000Y-147850000D03*
X372950000Y-147850000D03*
X358950000Y-147850000D03*
X375950000Y-147850000D03*
X376450000Y-147850000D03*
X381950000Y-144150000D03*
X377950000Y-144150000D03*
D32*
X357200000Y-146850000D03*
D31*
X363950000Y-147850000D03*
X371950000Y-147850000D03*
X378950000Y-144150000D03*
X380950000Y-144150000D03*
X362450000Y-144150000D03*
X368950000Y-144150000D03*
X374950000Y-144150000D03*
X382450000Y-144150000D03*
X375450000Y-144150000D03*
X378450000Y-144150000D03*
X378950000Y-147850000D03*
X369950000Y-144150000D03*
X372950000Y-144150000D03*
X366950000Y-147850000D03*
X361450000Y-147850000D03*
X363450000Y-144150000D03*
X370450000Y-147850000D03*
X371950000Y-144150000D03*
X360450000Y-147850000D03*
X370450000Y-144150000D03*
X374450000Y-144150000D03*
X381450000Y-147850000D03*
X380950000Y-147850000D03*
X379950000Y-147850000D03*
X382950000Y-147850000D03*
X379450000Y-144150000D03*
D32*
X384200000Y-146850000D03*
D31*
X362950000Y-144150000D03*
X382450000Y-147850000D03*
X380450000Y-147850000D03*
X358450000Y-147850000D03*
X362950000Y-147850000D03*
X364450000Y-147850000D03*
X365950000Y-144150000D03*
X381950000Y-147850000D03*
X376450000Y-144150000D03*
X376950000Y-147850000D03*
X368450000Y-144150000D03*
X360450000Y-144150000D03*
X369450000Y-147850000D03*
D28*
X355725000Y-144850000D03*
D31*
X359950000Y-144150000D03*
X366450000Y-144150000D03*
X358950000Y-144150000D03*
X371450000Y-144150000D03*
X379950000Y-144150000D03*
X374950000Y-147850000D03*
X373450000Y-144150000D03*
X361950000Y-147850000D03*
X359450000Y-147850000D03*
X367950000Y-147850000D03*
X363950000Y-144150000D03*
X365450000Y-144150000D03*
X376950000Y-144150000D03*
X368950000Y-147850000D03*
X360950000Y-144150000D03*
X367450000Y-147850000D03*
X370950000Y-147850000D03*
X373950000Y-147850000D03*
X368450000Y-147850000D03*
X362450000Y-147850000D03*
X371450000Y-147850000D03*
X372450000Y-144150000D03*
X377450000Y-147850000D03*
X365450000Y-147850000D03*
X375950000Y-144150000D03*
X380450000Y-144150000D03*
X361450000Y-144150000D03*
X364450000Y-144150000D03*
X382950000Y-144150000D03*
X358450000Y-144150000D03*
X366950000Y-144150000D03*
X361950000Y-144150000D03*
X373450000Y-147850000D03*
X369950000Y-147850000D03*
X369450000Y-144150000D03*
X364950000Y-144150000D03*
X367950000Y-144150000D03*
X379450000Y-147850000D03*
X370950000Y-144150000D03*
X374450000Y-147850000D03*
D28*
X385675000Y-144850000D03*
D31*
X359950000Y-147850000D03*
X377950000Y-147850000D03*
X360950000Y-147850000D03*
X365950000Y-147850000D03*
G36*
G01*
X406625000Y-113980000D02*
X406625000Y-114280000D01*
G75*
G02*
X406475000Y-114430000I-150000J0D01*
G01*
X404825000Y-114430000D01*
G75*
G02*
X404675000Y-114280000I0J150000D01*
G01*
X404675000Y-113980000D01*
G75*
G02*
X404825000Y-113830000I150000J0D01*
G01*
X406475000Y-113830000D01*
G75*
G02*
X406625000Y-113980000I0J-150000D01*
G01*
G37*
G36*
G01*
X406625000Y-112710000D02*
X406625000Y-113010000D01*
G75*
G02*
X406475000Y-113160000I-150000J0D01*
G01*
X404825000Y-113160000D01*
G75*
G02*
X404675000Y-113010000I0J150000D01*
G01*
X404675000Y-112710000D01*
G75*
G02*
X404825000Y-112560000I150000J0D01*
G01*
X406475000Y-112560000D01*
G75*
G02*
X406625000Y-112710000I0J-150000D01*
G01*
G37*
G36*
G01*
X406625000Y-111440000D02*
X406625000Y-111740000D01*
G75*
G02*
X406475000Y-111890000I-150000J0D01*
G01*
X404825000Y-111890000D01*
G75*
G02*
X404675000Y-111740000I0J150000D01*
G01*
X404675000Y-111440000D01*
G75*
G02*
X404825000Y-111290000I150000J0D01*
G01*
X406475000Y-111290000D01*
G75*
G02*
X406625000Y-111440000I0J-150000D01*
G01*
G37*
G36*
G01*
X406625000Y-110170000D02*
X406625000Y-110470000D01*
G75*
G02*
X406475000Y-110620000I-150000J0D01*
G01*
X404825000Y-110620000D01*
G75*
G02*
X404675000Y-110470000I0J150000D01*
G01*
X404675000Y-110170000D01*
G75*
G02*
X404825000Y-110020000I150000J0D01*
G01*
X406475000Y-110020000D01*
G75*
G02*
X406625000Y-110170000I0J-150000D01*
G01*
G37*
G36*
G01*
X411575000Y-110170000D02*
X411575000Y-110470000D01*
G75*
G02*
X411425000Y-110620000I-150000J0D01*
G01*
X409775000Y-110620000D01*
G75*
G02*
X409625000Y-110470000I0J150000D01*
G01*
X409625000Y-110170000D01*
G75*
G02*
X409775000Y-110020000I150000J0D01*
G01*
X411425000Y-110020000D01*
G75*
G02*
X411575000Y-110170000I0J-150000D01*
G01*
G37*
G36*
G01*
X411575000Y-111440000D02*
X411575000Y-111740000D01*
G75*
G02*
X411425000Y-111890000I-150000J0D01*
G01*
X409775000Y-111890000D01*
G75*
G02*
X409625000Y-111740000I0J150000D01*
G01*
X409625000Y-111440000D01*
G75*
G02*
X409775000Y-111290000I150000J0D01*
G01*
X411425000Y-111290000D01*
G75*
G02*
X411575000Y-111440000I0J-150000D01*
G01*
G37*
G36*
G01*
X411575000Y-112710000D02*
X411575000Y-113010000D01*
G75*
G02*
X411425000Y-113160000I-150000J0D01*
G01*
X409775000Y-113160000D01*
G75*
G02*
X409625000Y-113010000I0J150000D01*
G01*
X409625000Y-112710000D01*
G75*
G02*
X409775000Y-112560000I150000J0D01*
G01*
X411425000Y-112560000D01*
G75*
G02*
X411575000Y-112710000I0J-150000D01*
G01*
G37*
G36*
G01*
X411575000Y-113980000D02*
X411575000Y-114280000D01*
G75*
G02*
X411425000Y-114430000I-150000J0D01*
G01*
X409775000Y-114430000D01*
G75*
G02*
X409625000Y-114280000I0J150000D01*
G01*
X409625000Y-113980000D01*
G75*
G02*
X409775000Y-113830000I150000J0D01*
G01*
X411425000Y-113830000D01*
G75*
G02*
X411575000Y-113980000I0J-150000D01*
G01*
G37*
D33*
X400550000Y-111950000D03*
X398050000Y-109450000D03*
X400550000Y-106950000D03*
G36*
G01*
X405155000Y-108745000D02*
X405155000Y-107495000D01*
G75*
G02*
X405405000Y-107245000I250000J0D01*
G01*
X406330000Y-107245000D01*
G75*
G02*
X406580000Y-107495000I0J-250000D01*
G01*
X406580000Y-108745000D01*
G75*
G02*
X406330000Y-108995000I-250000J0D01*
G01*
X405405000Y-108995000D01*
G75*
G02*
X405155000Y-108745000I0J250000D01*
G01*
G37*
G36*
G01*
X402180000Y-108745000D02*
X402180000Y-107495000D01*
G75*
G02*
X402430000Y-107245000I250000J0D01*
G01*
X403355000Y-107245000D01*
G75*
G02*
X403605000Y-107495000I0J-250000D01*
G01*
X403605000Y-108745000D01*
G75*
G02*
X403355000Y-108995000I-250000J0D01*
G01*
X402430000Y-108995000D01*
G75*
G02*
X402180000Y-108745000I0J250000D01*
G01*
G37*
G36*
G01*
X401110001Y-103170000D02*
X400209999Y-103170000D01*
G75*
G02*
X399960000Y-102920001I0J249999D01*
G01*
X399960000Y-102269999D01*
G75*
G02*
X400209999Y-102020000I249999J0D01*
G01*
X401110001Y-102020000D01*
G75*
G02*
X401360000Y-102269999I0J-249999D01*
G01*
X401360000Y-102920001D01*
G75*
G02*
X401110001Y-103170000I-249999J0D01*
G01*
G37*
G36*
G01*
X401110001Y-105220000D02*
X400209999Y-105220000D01*
G75*
G02*
X399960000Y-104970001I0J249999D01*
G01*
X399960000Y-104319999D01*
G75*
G02*
X400209999Y-104070000I249999J0D01*
G01*
X401110001Y-104070000D01*
G75*
G02*
X401360000Y-104319999I0J-249999D01*
G01*
X401360000Y-104970001D01*
G75*
G02*
X401110001Y-105220000I-249999J0D01*
G01*
G37*
D34*
X334100000Y-187675000D03*
X334100000Y-187025000D03*
X334100000Y-186375000D03*
X334100000Y-185725000D03*
X334100000Y-185075000D03*
X334100000Y-184425000D03*
X334100000Y-183775000D03*
X334100000Y-183125000D03*
X334100000Y-182475000D03*
X334100000Y-181825000D03*
X334100000Y-181175000D03*
X334100000Y-180525000D03*
X334100000Y-179875000D03*
X334100000Y-179225000D03*
X334100000Y-178575000D03*
X334100000Y-177925000D03*
X334100000Y-177275000D03*
X334100000Y-176625000D03*
X334100000Y-175975000D03*
X334100000Y-175325000D03*
X334100000Y-174675000D03*
X334100000Y-174025000D03*
X334100000Y-173375000D03*
X334100000Y-172725000D03*
X334100000Y-172075000D03*
X334100000Y-171425000D03*
X334100000Y-170775000D03*
X334100000Y-170125000D03*
X334100000Y-169475000D03*
X334100000Y-168825000D03*
X334100000Y-168175000D03*
X334100000Y-167525000D03*
X334100000Y-166875000D03*
X334100000Y-166225000D03*
X334100000Y-165575000D03*
X334100000Y-164925000D03*
X334100000Y-164275000D03*
X334100000Y-163625000D03*
X334100000Y-162975000D03*
X334100000Y-162325000D03*
D35*
X335925000Y-160500000D03*
X336575000Y-160500000D03*
X337225000Y-160500000D03*
X337875000Y-160500000D03*
X338525000Y-160500000D03*
X339175000Y-160500000D03*
X339825000Y-160500000D03*
X340475000Y-160500000D03*
X341125000Y-160500000D03*
X341775000Y-160500000D03*
X342425000Y-160500000D03*
X343075000Y-160500000D03*
X343725000Y-160500000D03*
X344375000Y-160500000D03*
X345025000Y-160500000D03*
X345675000Y-160500000D03*
X346325000Y-160500000D03*
X346975000Y-160500000D03*
X347625000Y-160500000D03*
X348275000Y-160500000D03*
X348925000Y-160500000D03*
X349575000Y-160500000D03*
X350225000Y-160500000D03*
X350875000Y-160500000D03*
X351525000Y-160500000D03*
X352175000Y-160500000D03*
X352825000Y-160500000D03*
X353475000Y-160500000D03*
X354125000Y-160500000D03*
X354775000Y-160500000D03*
X355425000Y-160500000D03*
X356075000Y-160500000D03*
X356725000Y-160500000D03*
X357375000Y-160500000D03*
X358025000Y-160500000D03*
X358675000Y-160500000D03*
X359325000Y-160500000D03*
X359975000Y-160500000D03*
X360625000Y-160500000D03*
X361275000Y-160500000D03*
D34*
X363100000Y-162325000D03*
X363100000Y-162975000D03*
X363100000Y-163625000D03*
X363100000Y-164275000D03*
X363100000Y-164925000D03*
X363100000Y-165575000D03*
X363100000Y-166225000D03*
X363100000Y-166875000D03*
X363100000Y-167525000D03*
X363100000Y-168175000D03*
X363100000Y-168825000D03*
X363100000Y-169475000D03*
X363100000Y-170125000D03*
X363100000Y-170775000D03*
X363100000Y-171425000D03*
X363100000Y-172075000D03*
X363100000Y-172725000D03*
X363100000Y-173375000D03*
X363100000Y-174025000D03*
X363100000Y-174675000D03*
X363100000Y-175325000D03*
X363100000Y-175975000D03*
X363100000Y-176625000D03*
X363100000Y-177275000D03*
X363100000Y-177925000D03*
X363100000Y-178575000D03*
X363100000Y-179225000D03*
X363100000Y-179875000D03*
X363100000Y-180525000D03*
X363100000Y-181175000D03*
X363100000Y-181825000D03*
X363100000Y-182475000D03*
X363100000Y-183125000D03*
X363100000Y-183775000D03*
X363100000Y-184425000D03*
X363100000Y-185075000D03*
X363100000Y-185725000D03*
X363100000Y-186375000D03*
X363100000Y-187025000D03*
X363100000Y-187675000D03*
D35*
X361275000Y-189500000D03*
X360625000Y-189500000D03*
X359975000Y-189500000D03*
X359325000Y-189500000D03*
X358675000Y-189500000D03*
X358025000Y-189500000D03*
X357375000Y-189500000D03*
X356725000Y-189500000D03*
X356075000Y-189500000D03*
X355425000Y-189500000D03*
X354775000Y-189500000D03*
X354125000Y-189500000D03*
X353475000Y-189500000D03*
X352825000Y-189500000D03*
X352175000Y-189500000D03*
X351525000Y-189500000D03*
X350875000Y-189500000D03*
X350225000Y-189500000D03*
X349575000Y-189500000D03*
X348925000Y-189500000D03*
X348275000Y-189500000D03*
X347625000Y-189500000D03*
X346975000Y-189500000D03*
X346325000Y-189500000D03*
X345675000Y-189500000D03*
X345025000Y-189500000D03*
X344375000Y-189500000D03*
X343725000Y-189500000D03*
X343075000Y-189500000D03*
X342425000Y-189500000D03*
X341775000Y-189500000D03*
X341125000Y-189500000D03*
X340475000Y-189500000D03*
X339825000Y-189500000D03*
X339175000Y-189500000D03*
X338525000Y-189500000D03*
X337875000Y-189500000D03*
X337225000Y-189500000D03*
X336575000Y-189500000D03*
X335925000Y-189500000D03*
D36*
X252935000Y-155025000D03*
X252935000Y-156925000D03*
X249515000Y-156925000D03*
X249515000Y-155975000D03*
X249515000Y-155025000D03*
G36*
G01*
X239782500Y-108760000D02*
X239307500Y-108760000D01*
G75*
G02*
X239070000Y-108522500I0J237500D01*
G01*
X239070000Y-107947500D01*
G75*
G02*
X239307500Y-107710000I237500J0D01*
G01*
X239782500Y-107710000D01*
G75*
G02*
X240020000Y-107947500I0J-237500D01*
G01*
X240020000Y-108522500D01*
G75*
G02*
X239782500Y-108760000I-237500J0D01*
G01*
G37*
G36*
G01*
X239782500Y-110510000D02*
X239307500Y-110510000D01*
G75*
G02*
X239070000Y-110272500I0J237500D01*
G01*
X239070000Y-109697500D01*
G75*
G02*
X239307500Y-109460000I237500J0D01*
G01*
X239782500Y-109460000D01*
G75*
G02*
X240020000Y-109697500I0J-237500D01*
G01*
X240020000Y-110272500D01*
G75*
G02*
X239782500Y-110510000I-237500J0D01*
G01*
G37*
D37*
X242540000Y-105000000D03*
D38*
X240000000Y-105000000D03*
G36*
G01*
X254737500Y-156250000D02*
X255212500Y-156250000D01*
G75*
G02*
X255450000Y-156487500I0J-237500D01*
G01*
X255450000Y-157062500D01*
G75*
G02*
X255212500Y-157300000I-237500J0D01*
G01*
X254737500Y-157300000D01*
G75*
G02*
X254500000Y-157062500I0J237500D01*
G01*
X254500000Y-156487500D01*
G75*
G02*
X254737500Y-156250000I237500J0D01*
G01*
G37*
G36*
G01*
X254737500Y-154500000D02*
X255212500Y-154500000D01*
G75*
G02*
X255450000Y-154737500I0J-237500D01*
G01*
X255450000Y-155312500D01*
G75*
G02*
X255212500Y-155550000I-237500J0D01*
G01*
X254737500Y-155550000D01*
G75*
G02*
X254500000Y-155312500I0J237500D01*
G01*
X254500000Y-154737500D01*
G75*
G02*
X254737500Y-154500000I237500J0D01*
G01*
G37*
G36*
G01*
X246100000Y-154787500D02*
X246100000Y-155262500D01*
G75*
G02*
X245862500Y-155500000I-237500J0D01*
G01*
X245287500Y-155500000D01*
G75*
G02*
X245050000Y-155262500I0J237500D01*
G01*
X245050000Y-154787500D01*
G75*
G02*
X245287500Y-154550000I237500J0D01*
G01*
X245862500Y-154550000D01*
G75*
G02*
X246100000Y-154787500I0J-237500D01*
G01*
G37*
G36*
G01*
X247850000Y-154787500D02*
X247850000Y-155262500D01*
G75*
G02*
X247612500Y-155500000I-237500J0D01*
G01*
X247037500Y-155500000D01*
G75*
G02*
X246800000Y-155262500I0J237500D01*
G01*
X246800000Y-154787500D01*
G75*
G02*
X247037500Y-154550000I237500J0D01*
G01*
X247612500Y-154550000D01*
G75*
G02*
X247850000Y-154787500I0J-237500D01*
G01*
G37*
D15*
X162680000Y-104840000D03*
X162680000Y-102300000D03*
X165220000Y-104840000D03*
X165220000Y-102300000D03*
X167760000Y-104840000D03*
X167760000Y-102300000D03*
X170300000Y-104840000D03*
D16*
X170300000Y-102300000D03*
G36*
G01*
X333427500Y-192220000D02*
X333772500Y-192220000D01*
G75*
G02*
X333920000Y-192367500I0J-147500D01*
G01*
X333920000Y-192662500D01*
G75*
G02*
X333772500Y-192810000I-147500J0D01*
G01*
X333427500Y-192810000D01*
G75*
G02*
X333280000Y-192662500I0J147500D01*
G01*
X333280000Y-192367500D01*
G75*
G02*
X333427500Y-192220000I147500J0D01*
G01*
G37*
G36*
G01*
X333427500Y-193190000D02*
X333772500Y-193190000D01*
G75*
G02*
X333920000Y-193337500I0J-147500D01*
G01*
X333920000Y-193632500D01*
G75*
G02*
X333772500Y-193780000I-147500J0D01*
G01*
X333427500Y-193780000D01*
G75*
G02*
X333280000Y-193632500I0J147500D01*
G01*
X333280000Y-193337500D01*
G75*
G02*
X333427500Y-193190000I147500J0D01*
G01*
G37*
G36*
G01*
X335427500Y-193190000D02*
X335772500Y-193190000D01*
G75*
G02*
X335920000Y-193337500I0J-147500D01*
G01*
X335920000Y-193632500D01*
G75*
G02*
X335772500Y-193780000I-147500J0D01*
G01*
X335427500Y-193780000D01*
G75*
G02*
X335280000Y-193632500I0J147500D01*
G01*
X335280000Y-193337500D01*
G75*
G02*
X335427500Y-193190000I147500J0D01*
G01*
G37*
G36*
G01*
X335427500Y-192220000D02*
X335772500Y-192220000D01*
G75*
G02*
X335920000Y-192367500I0J-147500D01*
G01*
X335920000Y-192662500D01*
G75*
G02*
X335772500Y-192810000I-147500J0D01*
G01*
X335427500Y-192810000D01*
G75*
G02*
X335280000Y-192662500I0J147500D01*
G01*
X335280000Y-192367500D01*
G75*
G02*
X335427500Y-192220000I147500J0D01*
G01*
G37*
G36*
G01*
X337427500Y-193190000D02*
X337772500Y-193190000D01*
G75*
G02*
X337920000Y-193337500I0J-147500D01*
G01*
X337920000Y-193632500D01*
G75*
G02*
X337772500Y-193780000I-147500J0D01*
G01*
X337427500Y-193780000D01*
G75*
G02*
X337280000Y-193632500I0J147500D01*
G01*
X337280000Y-193337500D01*
G75*
G02*
X337427500Y-193190000I147500J0D01*
G01*
G37*
G36*
G01*
X337427500Y-192220000D02*
X337772500Y-192220000D01*
G75*
G02*
X337920000Y-192367500I0J-147500D01*
G01*
X337920000Y-192662500D01*
G75*
G02*
X337772500Y-192810000I-147500J0D01*
G01*
X337427500Y-192810000D01*
G75*
G02*
X337280000Y-192662500I0J147500D01*
G01*
X337280000Y-192367500D01*
G75*
G02*
X337427500Y-192220000I147500J0D01*
G01*
G37*
D39*
X394875000Y-207380000D03*
D40*
X395500000Y-201600000D03*
D39*
X340875000Y-207380000D03*
D40*
X340250000Y-201600000D03*
D41*
X391475000Y-206785000D03*
X391475000Y-205035000D03*
X390675000Y-206785000D03*
X390675000Y-205035000D03*
X389875000Y-206785000D03*
X389875000Y-205035000D03*
X389075000Y-206785000D03*
X389075000Y-205035000D03*
X388275000Y-206785000D03*
X388275000Y-205035000D03*
X387475000Y-206785000D03*
X387475000Y-205035000D03*
X386675000Y-206785000D03*
X386675000Y-205035000D03*
X385875000Y-206785000D03*
X385875000Y-205035000D03*
X385075000Y-206785000D03*
X385075000Y-205035000D03*
X384275000Y-206785000D03*
X384275000Y-205035000D03*
X383475000Y-206785000D03*
X383475000Y-205035000D03*
X382675000Y-206785000D03*
X382675000Y-205035000D03*
X381875000Y-206785000D03*
X381875000Y-205035000D03*
X381075000Y-206785000D03*
X381075000Y-205035000D03*
X380275000Y-206785000D03*
X380275000Y-205035000D03*
X379475000Y-206785000D03*
X379475000Y-205035000D03*
X378675000Y-206785000D03*
X378675000Y-205035000D03*
X377875000Y-206785000D03*
X377875000Y-205035000D03*
X377075000Y-206785000D03*
X377075000Y-205035000D03*
X376275000Y-206785000D03*
X376275000Y-205035000D03*
X375475000Y-206785000D03*
X375475000Y-205035000D03*
X374675000Y-206785000D03*
X374675000Y-205035000D03*
X373875000Y-206785000D03*
X373875000Y-205035000D03*
X373075000Y-206785000D03*
X373075000Y-205035000D03*
X372275000Y-206785000D03*
X372275000Y-205035000D03*
X371475000Y-206785000D03*
X371475000Y-205035000D03*
X370675000Y-206785000D03*
X370675000Y-205035000D03*
X369875000Y-206785000D03*
X369875000Y-205035000D03*
X369075000Y-206785000D03*
X369075000Y-205035000D03*
X368275000Y-206785000D03*
X368275000Y-205035000D03*
X367475000Y-206785000D03*
X367475000Y-205035000D03*
X366675000Y-206785000D03*
X366675000Y-205035000D03*
X365875000Y-206785000D03*
X365875000Y-205035000D03*
X365075000Y-206785000D03*
X365075000Y-205035000D03*
X364275000Y-206785000D03*
X364275000Y-205035000D03*
X363475000Y-206785000D03*
X363475000Y-205035000D03*
X362675000Y-206785000D03*
X362675000Y-205035000D03*
X361875000Y-206785000D03*
X361875000Y-205035000D03*
X361075000Y-206785000D03*
X361075000Y-205035000D03*
X360275000Y-206785000D03*
X360275000Y-205035000D03*
X359475000Y-206785000D03*
X359475000Y-205035000D03*
X358675000Y-206785000D03*
X358675000Y-205035000D03*
X357875000Y-206785000D03*
X357875000Y-205035000D03*
X357075000Y-206785000D03*
X357075000Y-205035000D03*
X356275000Y-206785000D03*
X356275000Y-205035000D03*
X355475000Y-206785000D03*
X355475000Y-205035000D03*
X354675000Y-206785000D03*
X354675000Y-205035000D03*
X353875000Y-206785000D03*
X353875000Y-205035000D03*
X353075000Y-206785000D03*
X353075000Y-205035000D03*
X352275000Y-206785000D03*
X352275000Y-205035000D03*
X351475000Y-206785000D03*
X351475000Y-205035000D03*
X350675000Y-206785000D03*
X350675000Y-205035000D03*
X349875000Y-206785000D03*
X349875000Y-205035000D03*
X349075000Y-206785000D03*
X349075000Y-205035000D03*
X348275000Y-206785000D03*
X348275000Y-205035000D03*
X347475000Y-206785000D03*
X347475000Y-205035000D03*
X346675000Y-206785000D03*
X346675000Y-205035000D03*
X345875000Y-206785000D03*
X345875000Y-205035000D03*
X345075000Y-206785000D03*
X345075000Y-205035000D03*
X344275000Y-206785000D03*
X344275000Y-205035000D03*
D32*
X395500000Y-205600000D03*
X340250000Y-205600000D03*
G36*
G01*
X371827500Y-192220000D02*
X372172500Y-192220000D01*
G75*
G02*
X372320000Y-192367500I0J-147500D01*
G01*
X372320000Y-192662500D01*
G75*
G02*
X372172500Y-192810000I-147500J0D01*
G01*
X371827500Y-192810000D01*
G75*
G02*
X371680000Y-192662500I0J147500D01*
G01*
X371680000Y-192367500D01*
G75*
G02*
X371827500Y-192220000I147500J0D01*
G01*
G37*
G36*
G01*
X371827500Y-193190000D02*
X372172500Y-193190000D01*
G75*
G02*
X372320000Y-193337500I0J-147500D01*
G01*
X372320000Y-193632500D01*
G75*
G02*
X372172500Y-193780000I-147500J0D01*
G01*
X371827500Y-193780000D01*
G75*
G02*
X371680000Y-193632500I0J147500D01*
G01*
X371680000Y-193337500D01*
G75*
G02*
X371827500Y-193190000I147500J0D01*
G01*
G37*
G36*
G01*
X373827500Y-192220000D02*
X374172500Y-192220000D01*
G75*
G02*
X374320000Y-192367500I0J-147500D01*
G01*
X374320000Y-192662500D01*
G75*
G02*
X374172500Y-192810000I-147500J0D01*
G01*
X373827500Y-192810000D01*
G75*
G02*
X373680000Y-192662500I0J147500D01*
G01*
X373680000Y-192367500D01*
G75*
G02*
X373827500Y-192220000I147500J0D01*
G01*
G37*
G36*
G01*
X373827500Y-193190000D02*
X374172500Y-193190000D01*
G75*
G02*
X374320000Y-193337500I0J-147500D01*
G01*
X374320000Y-193632500D01*
G75*
G02*
X374172500Y-193780000I-147500J0D01*
G01*
X373827500Y-193780000D01*
G75*
G02*
X373680000Y-193632500I0J147500D01*
G01*
X373680000Y-193337500D01*
G75*
G02*
X373827500Y-193190000I147500J0D01*
G01*
G37*
G36*
G01*
X375827500Y-192220000D02*
X376172500Y-192220000D01*
G75*
G02*
X376320000Y-192367500I0J-147500D01*
G01*
X376320000Y-192662500D01*
G75*
G02*
X376172500Y-192810000I-147500J0D01*
G01*
X375827500Y-192810000D01*
G75*
G02*
X375680000Y-192662500I0J147500D01*
G01*
X375680000Y-192367500D01*
G75*
G02*
X375827500Y-192220000I147500J0D01*
G01*
G37*
G36*
G01*
X375827500Y-193190000D02*
X376172500Y-193190000D01*
G75*
G02*
X376320000Y-193337500I0J-147500D01*
G01*
X376320000Y-193632500D01*
G75*
G02*
X376172500Y-193780000I-147500J0D01*
G01*
X375827500Y-193780000D01*
G75*
G02*
X375680000Y-193632500I0J147500D01*
G01*
X375680000Y-193337500D01*
G75*
G02*
X375827500Y-193190000I147500J0D01*
G01*
G37*
G36*
G01*
X377827500Y-192220000D02*
X378172500Y-192220000D01*
G75*
G02*
X378320000Y-192367500I0J-147500D01*
G01*
X378320000Y-192662500D01*
G75*
G02*
X378172500Y-192810000I-147500J0D01*
G01*
X377827500Y-192810000D01*
G75*
G02*
X377680000Y-192662500I0J147500D01*
G01*
X377680000Y-192367500D01*
G75*
G02*
X377827500Y-192220000I147500J0D01*
G01*
G37*
G36*
G01*
X377827500Y-193190000D02*
X378172500Y-193190000D01*
G75*
G02*
X378320000Y-193337500I0J-147500D01*
G01*
X378320000Y-193632500D01*
G75*
G02*
X378172500Y-193780000I-147500J0D01*
G01*
X377827500Y-193780000D01*
G75*
G02*
X377680000Y-193632500I0J147500D01*
G01*
X377680000Y-193337500D01*
G75*
G02*
X377827500Y-193190000I147500J0D01*
G01*
G37*
G36*
G01*
X379827500Y-192220000D02*
X380172500Y-192220000D01*
G75*
G02*
X380320000Y-192367500I0J-147500D01*
G01*
X380320000Y-192662500D01*
G75*
G02*
X380172500Y-192810000I-147500J0D01*
G01*
X379827500Y-192810000D01*
G75*
G02*
X379680000Y-192662500I0J147500D01*
G01*
X379680000Y-192367500D01*
G75*
G02*
X379827500Y-192220000I147500J0D01*
G01*
G37*
G36*
G01*
X379827500Y-193190000D02*
X380172500Y-193190000D01*
G75*
G02*
X380320000Y-193337500I0J-147500D01*
G01*
X380320000Y-193632500D01*
G75*
G02*
X380172500Y-193780000I-147500J0D01*
G01*
X379827500Y-193780000D01*
G75*
G02*
X379680000Y-193632500I0J147500D01*
G01*
X379680000Y-193337500D01*
G75*
G02*
X379827500Y-193190000I147500J0D01*
G01*
G37*
G36*
G01*
X381827500Y-192220000D02*
X382172500Y-192220000D01*
G75*
G02*
X382320000Y-192367500I0J-147500D01*
G01*
X382320000Y-192662500D01*
G75*
G02*
X382172500Y-192810000I-147500J0D01*
G01*
X381827500Y-192810000D01*
G75*
G02*
X381680000Y-192662500I0J147500D01*
G01*
X381680000Y-192367500D01*
G75*
G02*
X381827500Y-192220000I147500J0D01*
G01*
G37*
G36*
G01*
X381827500Y-193190000D02*
X382172500Y-193190000D01*
G75*
G02*
X382320000Y-193337500I0J-147500D01*
G01*
X382320000Y-193632500D01*
G75*
G02*
X382172500Y-193780000I-147500J0D01*
G01*
X381827500Y-193780000D01*
G75*
G02*
X381680000Y-193632500I0J147500D01*
G01*
X381680000Y-193337500D01*
G75*
G02*
X381827500Y-193190000I147500J0D01*
G01*
G37*
G36*
G01*
X383827500Y-193190000D02*
X384172500Y-193190000D01*
G75*
G02*
X384320000Y-193337500I0J-147500D01*
G01*
X384320000Y-193632500D01*
G75*
G02*
X384172500Y-193780000I-147500J0D01*
G01*
X383827500Y-193780000D01*
G75*
G02*
X383680000Y-193632500I0J147500D01*
G01*
X383680000Y-193337500D01*
G75*
G02*
X383827500Y-193190000I147500J0D01*
G01*
G37*
G36*
G01*
X383827500Y-192220000D02*
X384172500Y-192220000D01*
G75*
G02*
X384320000Y-192367500I0J-147500D01*
G01*
X384320000Y-192662500D01*
G75*
G02*
X384172500Y-192810000I-147500J0D01*
G01*
X383827500Y-192810000D01*
G75*
G02*
X383680000Y-192662500I0J147500D01*
G01*
X383680000Y-192367500D01*
G75*
G02*
X383827500Y-192220000I147500J0D01*
G01*
G37*
G36*
G01*
X385827500Y-193190000D02*
X386172500Y-193190000D01*
G75*
G02*
X386320000Y-193337500I0J-147500D01*
G01*
X386320000Y-193632500D01*
G75*
G02*
X386172500Y-193780000I-147500J0D01*
G01*
X385827500Y-193780000D01*
G75*
G02*
X385680000Y-193632500I0J147500D01*
G01*
X385680000Y-193337500D01*
G75*
G02*
X385827500Y-193190000I147500J0D01*
G01*
G37*
G36*
G01*
X385827500Y-192220000D02*
X386172500Y-192220000D01*
G75*
G02*
X386320000Y-192367500I0J-147500D01*
G01*
X386320000Y-192662500D01*
G75*
G02*
X386172500Y-192810000I-147500J0D01*
G01*
X385827500Y-192810000D01*
G75*
G02*
X385680000Y-192662500I0J147500D01*
G01*
X385680000Y-192367500D01*
G75*
G02*
X385827500Y-192220000I147500J0D01*
G01*
G37*
G36*
G01*
X387827500Y-193190000D02*
X388172500Y-193190000D01*
G75*
G02*
X388320000Y-193337500I0J-147500D01*
G01*
X388320000Y-193632500D01*
G75*
G02*
X388172500Y-193780000I-147500J0D01*
G01*
X387827500Y-193780000D01*
G75*
G02*
X387680000Y-193632500I0J147500D01*
G01*
X387680000Y-193337500D01*
G75*
G02*
X387827500Y-193190000I147500J0D01*
G01*
G37*
G36*
G01*
X387827500Y-192220000D02*
X388172500Y-192220000D01*
G75*
G02*
X388320000Y-192367500I0J-147500D01*
G01*
X388320000Y-192662500D01*
G75*
G02*
X388172500Y-192810000I-147500J0D01*
G01*
X387827500Y-192810000D01*
G75*
G02*
X387680000Y-192662500I0J147500D01*
G01*
X387680000Y-192367500D01*
G75*
G02*
X387827500Y-192220000I147500J0D01*
G01*
G37*
G36*
G01*
X389827500Y-193190000D02*
X390172500Y-193190000D01*
G75*
G02*
X390320000Y-193337500I0J-147500D01*
G01*
X390320000Y-193632500D01*
G75*
G02*
X390172500Y-193780000I-147500J0D01*
G01*
X389827500Y-193780000D01*
G75*
G02*
X389680000Y-193632500I0J147500D01*
G01*
X389680000Y-193337500D01*
G75*
G02*
X389827500Y-193190000I147500J0D01*
G01*
G37*
G36*
G01*
X389827500Y-192220000D02*
X390172500Y-192220000D01*
G75*
G02*
X390320000Y-192367500I0J-147500D01*
G01*
X390320000Y-192662500D01*
G75*
G02*
X390172500Y-192810000I-147500J0D01*
G01*
X389827500Y-192810000D01*
G75*
G02*
X389680000Y-192662500I0J147500D01*
G01*
X389680000Y-192367500D01*
G75*
G02*
X389827500Y-192220000I147500J0D01*
G01*
G37*
G36*
G01*
X391827500Y-193190000D02*
X392172500Y-193190000D01*
G75*
G02*
X392320000Y-193337500I0J-147500D01*
G01*
X392320000Y-193632500D01*
G75*
G02*
X392172500Y-193780000I-147500J0D01*
G01*
X391827500Y-193780000D01*
G75*
G02*
X391680000Y-193632500I0J147500D01*
G01*
X391680000Y-193337500D01*
G75*
G02*
X391827500Y-193190000I147500J0D01*
G01*
G37*
G36*
G01*
X391827500Y-192220000D02*
X392172500Y-192220000D01*
G75*
G02*
X392320000Y-192367500I0J-147500D01*
G01*
X392320000Y-192662500D01*
G75*
G02*
X392172500Y-192810000I-147500J0D01*
G01*
X391827500Y-192810000D01*
G75*
G02*
X391680000Y-192662500I0J147500D01*
G01*
X391680000Y-192367500D01*
G75*
G02*
X391827500Y-192220000I147500J0D01*
G01*
G37*
G36*
G01*
X393827500Y-193190000D02*
X394172500Y-193190000D01*
G75*
G02*
X394320000Y-193337500I0J-147500D01*
G01*
X394320000Y-193632500D01*
G75*
G02*
X394172500Y-193780000I-147500J0D01*
G01*
X393827500Y-193780000D01*
G75*
G02*
X393680000Y-193632500I0J147500D01*
G01*
X393680000Y-193337500D01*
G75*
G02*
X393827500Y-193190000I147500J0D01*
G01*
G37*
G36*
G01*
X393827500Y-192220000D02*
X394172500Y-192220000D01*
G75*
G02*
X394320000Y-192367500I0J-147500D01*
G01*
X394320000Y-192662500D01*
G75*
G02*
X394172500Y-192810000I-147500J0D01*
G01*
X393827500Y-192810000D01*
G75*
G02*
X393680000Y-192662500I0J147500D01*
G01*
X393680000Y-192367500D01*
G75*
G02*
X393827500Y-192220000I147500J0D01*
G01*
G37*
G36*
G01*
X395827500Y-192220000D02*
X396172500Y-192220000D01*
G75*
G02*
X396320000Y-192367500I0J-147500D01*
G01*
X396320000Y-192662500D01*
G75*
G02*
X396172500Y-192810000I-147500J0D01*
G01*
X395827500Y-192810000D01*
G75*
G02*
X395680000Y-192662500I0J147500D01*
G01*
X395680000Y-192367500D01*
G75*
G02*
X395827500Y-192220000I147500J0D01*
G01*
G37*
G36*
G01*
X395827500Y-193190000D02*
X396172500Y-193190000D01*
G75*
G02*
X396320000Y-193337500I0J-147500D01*
G01*
X396320000Y-193632500D01*
G75*
G02*
X396172500Y-193780000I-147500J0D01*
G01*
X395827500Y-193780000D01*
G75*
G02*
X395680000Y-193632500I0J147500D01*
G01*
X395680000Y-193337500D01*
G75*
G02*
X395827500Y-193190000I147500J0D01*
G01*
G37*
G36*
G01*
X397827500Y-193190000D02*
X398172500Y-193190000D01*
G75*
G02*
X398320000Y-193337500I0J-147500D01*
G01*
X398320000Y-193632500D01*
G75*
G02*
X398172500Y-193780000I-147500J0D01*
G01*
X397827500Y-193780000D01*
G75*
G02*
X397680000Y-193632500I0J147500D01*
G01*
X397680000Y-193337500D01*
G75*
G02*
X397827500Y-193190000I147500J0D01*
G01*
G37*
G36*
G01*
X397827500Y-192220000D02*
X398172500Y-192220000D01*
G75*
G02*
X398320000Y-192367500I0J-147500D01*
G01*
X398320000Y-192662500D01*
G75*
G02*
X398172500Y-192810000I-147500J0D01*
G01*
X397827500Y-192810000D01*
G75*
G02*
X397680000Y-192662500I0J147500D01*
G01*
X397680000Y-192367500D01*
G75*
G02*
X397827500Y-192220000I147500J0D01*
G01*
G37*
G36*
G01*
X399827500Y-193190000D02*
X400172500Y-193190000D01*
G75*
G02*
X400320000Y-193337500I0J-147500D01*
G01*
X400320000Y-193632500D01*
G75*
G02*
X400172500Y-193780000I-147500J0D01*
G01*
X399827500Y-193780000D01*
G75*
G02*
X399680000Y-193632500I0J147500D01*
G01*
X399680000Y-193337500D01*
G75*
G02*
X399827500Y-193190000I147500J0D01*
G01*
G37*
G36*
G01*
X399827500Y-192220000D02*
X400172500Y-192220000D01*
G75*
G02*
X400320000Y-192367500I0J-147500D01*
G01*
X400320000Y-192662500D01*
G75*
G02*
X400172500Y-192810000I-147500J0D01*
G01*
X399827500Y-192810000D01*
G75*
G02*
X399680000Y-192662500I0J147500D01*
G01*
X399680000Y-192367500D01*
G75*
G02*
X399827500Y-192220000I147500J0D01*
G01*
G37*
G36*
G01*
X401827500Y-193190000D02*
X402172500Y-193190000D01*
G75*
G02*
X402320000Y-193337500I0J-147500D01*
G01*
X402320000Y-193632500D01*
G75*
G02*
X402172500Y-193780000I-147500J0D01*
G01*
X401827500Y-193780000D01*
G75*
G02*
X401680000Y-193632500I0J147500D01*
G01*
X401680000Y-193337500D01*
G75*
G02*
X401827500Y-193190000I147500J0D01*
G01*
G37*
G36*
G01*
X401827500Y-192220000D02*
X402172500Y-192220000D01*
G75*
G02*
X402320000Y-192367500I0J-147500D01*
G01*
X402320000Y-192662500D01*
G75*
G02*
X402172500Y-192810000I-147500J0D01*
G01*
X401827500Y-192810000D01*
G75*
G02*
X401680000Y-192662500I0J147500D01*
G01*
X401680000Y-192367500D01*
G75*
G02*
X401827500Y-192220000I147500J0D01*
G01*
G37*
G36*
G01*
X339427500Y-193190000D02*
X339772500Y-193190000D01*
G75*
G02*
X339920000Y-193337500I0J-147500D01*
G01*
X339920000Y-193632500D01*
G75*
G02*
X339772500Y-193780000I-147500J0D01*
G01*
X339427500Y-193780000D01*
G75*
G02*
X339280000Y-193632500I0J147500D01*
G01*
X339280000Y-193337500D01*
G75*
G02*
X339427500Y-193190000I147500J0D01*
G01*
G37*
G36*
G01*
X339427500Y-192220000D02*
X339772500Y-192220000D01*
G75*
G02*
X339920000Y-192367500I0J-147500D01*
G01*
X339920000Y-192662500D01*
G75*
G02*
X339772500Y-192810000I-147500J0D01*
G01*
X339427500Y-192810000D01*
G75*
G02*
X339280000Y-192662500I0J147500D01*
G01*
X339280000Y-192367500D01*
G75*
G02*
X339427500Y-192220000I147500J0D01*
G01*
G37*
G36*
G01*
X341427500Y-193190000D02*
X341772500Y-193190000D01*
G75*
G02*
X341920000Y-193337500I0J-147500D01*
G01*
X341920000Y-193632500D01*
G75*
G02*
X341772500Y-193780000I-147500J0D01*
G01*
X341427500Y-193780000D01*
G75*
G02*
X341280000Y-193632500I0J147500D01*
G01*
X341280000Y-193337500D01*
G75*
G02*
X341427500Y-193190000I147500J0D01*
G01*
G37*
G36*
G01*
X341427500Y-192220000D02*
X341772500Y-192220000D01*
G75*
G02*
X341920000Y-192367500I0J-147500D01*
G01*
X341920000Y-192662500D01*
G75*
G02*
X341772500Y-192810000I-147500J0D01*
G01*
X341427500Y-192810000D01*
G75*
G02*
X341280000Y-192662500I0J147500D01*
G01*
X341280000Y-192367500D01*
G75*
G02*
X341427500Y-192220000I147500J0D01*
G01*
G37*
G36*
G01*
X343427500Y-193190000D02*
X343772500Y-193190000D01*
G75*
G02*
X343920000Y-193337500I0J-147500D01*
G01*
X343920000Y-193632500D01*
G75*
G02*
X343772500Y-193780000I-147500J0D01*
G01*
X343427500Y-193780000D01*
G75*
G02*
X343280000Y-193632500I0J147500D01*
G01*
X343280000Y-193337500D01*
G75*
G02*
X343427500Y-193190000I147500J0D01*
G01*
G37*
G36*
G01*
X343427500Y-192220000D02*
X343772500Y-192220000D01*
G75*
G02*
X343920000Y-192367500I0J-147500D01*
G01*
X343920000Y-192662500D01*
G75*
G02*
X343772500Y-192810000I-147500J0D01*
G01*
X343427500Y-192810000D01*
G75*
G02*
X343280000Y-192662500I0J147500D01*
G01*
X343280000Y-192367500D01*
G75*
G02*
X343427500Y-192220000I147500J0D01*
G01*
G37*
G36*
G01*
X345427500Y-192220000D02*
X345772500Y-192220000D01*
G75*
G02*
X345920000Y-192367500I0J-147500D01*
G01*
X345920000Y-192662500D01*
G75*
G02*
X345772500Y-192810000I-147500J0D01*
G01*
X345427500Y-192810000D01*
G75*
G02*
X345280000Y-192662500I0J147500D01*
G01*
X345280000Y-192367500D01*
G75*
G02*
X345427500Y-192220000I147500J0D01*
G01*
G37*
G36*
G01*
X345427500Y-193190000D02*
X345772500Y-193190000D01*
G75*
G02*
X345920000Y-193337500I0J-147500D01*
G01*
X345920000Y-193632500D01*
G75*
G02*
X345772500Y-193780000I-147500J0D01*
G01*
X345427500Y-193780000D01*
G75*
G02*
X345280000Y-193632500I0J147500D01*
G01*
X345280000Y-193337500D01*
G75*
G02*
X345427500Y-193190000I147500J0D01*
G01*
G37*
G36*
G01*
X347427500Y-193190000D02*
X347772500Y-193190000D01*
G75*
G02*
X347920000Y-193337500I0J-147500D01*
G01*
X347920000Y-193632500D01*
G75*
G02*
X347772500Y-193780000I-147500J0D01*
G01*
X347427500Y-193780000D01*
G75*
G02*
X347280000Y-193632500I0J147500D01*
G01*
X347280000Y-193337500D01*
G75*
G02*
X347427500Y-193190000I147500J0D01*
G01*
G37*
G36*
G01*
X347427500Y-192220000D02*
X347772500Y-192220000D01*
G75*
G02*
X347920000Y-192367500I0J-147500D01*
G01*
X347920000Y-192662500D01*
G75*
G02*
X347772500Y-192810000I-147500J0D01*
G01*
X347427500Y-192810000D01*
G75*
G02*
X347280000Y-192662500I0J147500D01*
G01*
X347280000Y-192367500D01*
G75*
G02*
X347427500Y-192220000I147500J0D01*
G01*
G37*
G36*
G01*
X349427500Y-192220000D02*
X349772500Y-192220000D01*
G75*
G02*
X349920000Y-192367500I0J-147500D01*
G01*
X349920000Y-192662500D01*
G75*
G02*
X349772500Y-192810000I-147500J0D01*
G01*
X349427500Y-192810000D01*
G75*
G02*
X349280000Y-192662500I0J147500D01*
G01*
X349280000Y-192367500D01*
G75*
G02*
X349427500Y-192220000I147500J0D01*
G01*
G37*
G36*
G01*
X349427500Y-193190000D02*
X349772500Y-193190000D01*
G75*
G02*
X349920000Y-193337500I0J-147500D01*
G01*
X349920000Y-193632500D01*
G75*
G02*
X349772500Y-193780000I-147500J0D01*
G01*
X349427500Y-193780000D01*
G75*
G02*
X349280000Y-193632500I0J147500D01*
G01*
X349280000Y-193337500D01*
G75*
G02*
X349427500Y-193190000I147500J0D01*
G01*
G37*
G36*
G01*
X351427500Y-192220000D02*
X351772500Y-192220000D01*
G75*
G02*
X351920000Y-192367500I0J-147500D01*
G01*
X351920000Y-192662500D01*
G75*
G02*
X351772500Y-192810000I-147500J0D01*
G01*
X351427500Y-192810000D01*
G75*
G02*
X351280000Y-192662500I0J147500D01*
G01*
X351280000Y-192367500D01*
G75*
G02*
X351427500Y-192220000I147500J0D01*
G01*
G37*
G36*
G01*
X351427500Y-193190000D02*
X351772500Y-193190000D01*
G75*
G02*
X351920000Y-193337500I0J-147500D01*
G01*
X351920000Y-193632500D01*
G75*
G02*
X351772500Y-193780000I-147500J0D01*
G01*
X351427500Y-193780000D01*
G75*
G02*
X351280000Y-193632500I0J147500D01*
G01*
X351280000Y-193337500D01*
G75*
G02*
X351427500Y-193190000I147500J0D01*
G01*
G37*
G36*
G01*
X353427500Y-192220000D02*
X353772500Y-192220000D01*
G75*
G02*
X353920000Y-192367500I0J-147500D01*
G01*
X353920000Y-192662500D01*
G75*
G02*
X353772500Y-192810000I-147500J0D01*
G01*
X353427500Y-192810000D01*
G75*
G02*
X353280000Y-192662500I0J147500D01*
G01*
X353280000Y-192367500D01*
G75*
G02*
X353427500Y-192220000I147500J0D01*
G01*
G37*
G36*
G01*
X353427500Y-193190000D02*
X353772500Y-193190000D01*
G75*
G02*
X353920000Y-193337500I0J-147500D01*
G01*
X353920000Y-193632500D01*
G75*
G02*
X353772500Y-193780000I-147500J0D01*
G01*
X353427500Y-193780000D01*
G75*
G02*
X353280000Y-193632500I0J147500D01*
G01*
X353280000Y-193337500D01*
G75*
G02*
X353427500Y-193190000I147500J0D01*
G01*
G37*
G36*
G01*
X355427500Y-192220000D02*
X355772500Y-192220000D01*
G75*
G02*
X355920000Y-192367500I0J-147500D01*
G01*
X355920000Y-192662500D01*
G75*
G02*
X355772500Y-192810000I-147500J0D01*
G01*
X355427500Y-192810000D01*
G75*
G02*
X355280000Y-192662500I0J147500D01*
G01*
X355280000Y-192367500D01*
G75*
G02*
X355427500Y-192220000I147500J0D01*
G01*
G37*
G36*
G01*
X355427500Y-193190000D02*
X355772500Y-193190000D01*
G75*
G02*
X355920000Y-193337500I0J-147500D01*
G01*
X355920000Y-193632500D01*
G75*
G02*
X355772500Y-193780000I-147500J0D01*
G01*
X355427500Y-193780000D01*
G75*
G02*
X355280000Y-193632500I0J147500D01*
G01*
X355280000Y-193337500D01*
G75*
G02*
X355427500Y-193190000I147500J0D01*
G01*
G37*
G36*
G01*
X357427500Y-192220000D02*
X357772500Y-192220000D01*
G75*
G02*
X357920000Y-192367500I0J-147500D01*
G01*
X357920000Y-192662500D01*
G75*
G02*
X357772500Y-192810000I-147500J0D01*
G01*
X357427500Y-192810000D01*
G75*
G02*
X357280000Y-192662500I0J147500D01*
G01*
X357280000Y-192367500D01*
G75*
G02*
X357427500Y-192220000I147500J0D01*
G01*
G37*
G36*
G01*
X357427500Y-193190000D02*
X357772500Y-193190000D01*
G75*
G02*
X357920000Y-193337500I0J-147500D01*
G01*
X357920000Y-193632500D01*
G75*
G02*
X357772500Y-193780000I-147500J0D01*
G01*
X357427500Y-193780000D01*
G75*
G02*
X357280000Y-193632500I0J147500D01*
G01*
X357280000Y-193337500D01*
G75*
G02*
X357427500Y-193190000I147500J0D01*
G01*
G37*
G36*
G01*
X359427500Y-193190000D02*
X359772500Y-193190000D01*
G75*
G02*
X359920000Y-193337500I0J-147500D01*
G01*
X359920000Y-193632500D01*
G75*
G02*
X359772500Y-193780000I-147500J0D01*
G01*
X359427500Y-193780000D01*
G75*
G02*
X359280000Y-193632500I0J147500D01*
G01*
X359280000Y-193337500D01*
G75*
G02*
X359427500Y-193190000I147500J0D01*
G01*
G37*
G36*
G01*
X359427500Y-192220000D02*
X359772500Y-192220000D01*
G75*
G02*
X359920000Y-192367500I0J-147500D01*
G01*
X359920000Y-192662500D01*
G75*
G02*
X359772500Y-192810000I-147500J0D01*
G01*
X359427500Y-192810000D01*
G75*
G02*
X359280000Y-192662500I0J147500D01*
G01*
X359280000Y-192367500D01*
G75*
G02*
X359427500Y-192220000I147500J0D01*
G01*
G37*
G36*
G01*
X361427500Y-192220000D02*
X361772500Y-192220000D01*
G75*
G02*
X361920000Y-192367500I0J-147500D01*
G01*
X361920000Y-192662500D01*
G75*
G02*
X361772500Y-192810000I-147500J0D01*
G01*
X361427500Y-192810000D01*
G75*
G02*
X361280000Y-192662500I0J147500D01*
G01*
X361280000Y-192367500D01*
G75*
G02*
X361427500Y-192220000I147500J0D01*
G01*
G37*
G36*
G01*
X361427500Y-193190000D02*
X361772500Y-193190000D01*
G75*
G02*
X361920000Y-193337500I0J-147500D01*
G01*
X361920000Y-193632500D01*
G75*
G02*
X361772500Y-193780000I-147500J0D01*
G01*
X361427500Y-193780000D01*
G75*
G02*
X361280000Y-193632500I0J147500D01*
G01*
X361280000Y-193337500D01*
G75*
G02*
X361427500Y-193190000I147500J0D01*
G01*
G37*
G36*
G01*
X363427500Y-192220000D02*
X363772500Y-192220000D01*
G75*
G02*
X363920000Y-192367500I0J-147500D01*
G01*
X363920000Y-192662500D01*
G75*
G02*
X363772500Y-192810000I-147500J0D01*
G01*
X363427500Y-192810000D01*
G75*
G02*
X363280000Y-192662500I0J147500D01*
G01*
X363280000Y-192367500D01*
G75*
G02*
X363427500Y-192220000I147500J0D01*
G01*
G37*
G36*
G01*
X363427500Y-193190000D02*
X363772500Y-193190000D01*
G75*
G02*
X363920000Y-193337500I0J-147500D01*
G01*
X363920000Y-193632500D01*
G75*
G02*
X363772500Y-193780000I-147500J0D01*
G01*
X363427500Y-193780000D01*
G75*
G02*
X363280000Y-193632500I0J147500D01*
G01*
X363280000Y-193337500D01*
G75*
G02*
X363427500Y-193190000I147500J0D01*
G01*
G37*
G36*
G01*
X247600000Y-176387500D02*
X247600000Y-176862500D01*
G75*
G02*
X247362500Y-177100000I-237500J0D01*
G01*
X246787500Y-177100000D01*
G75*
G02*
X246550000Y-176862500I0J237500D01*
G01*
X246550000Y-176387500D01*
G75*
G02*
X246787500Y-176150000I237500J0D01*
G01*
X247362500Y-176150000D01*
G75*
G02*
X247600000Y-176387500I0J-237500D01*
G01*
G37*
G36*
G01*
X249350000Y-176387500D02*
X249350000Y-176862500D01*
G75*
G02*
X249112500Y-177100000I-237500J0D01*
G01*
X248537500Y-177100000D01*
G75*
G02*
X248300000Y-176862500I0J237500D01*
G01*
X248300000Y-176387500D01*
G75*
G02*
X248537500Y-176150000I237500J0D01*
G01*
X249112500Y-176150000D01*
G75*
G02*
X249350000Y-176387500I0J-237500D01*
G01*
G37*
G36*
G01*
X253462500Y-179825000D02*
X253937500Y-179825000D01*
G75*
G02*
X254175000Y-180062500I0J-237500D01*
G01*
X254175000Y-180637500D01*
G75*
G02*
X253937500Y-180875000I-237500J0D01*
G01*
X253462500Y-180875000D01*
G75*
G02*
X253225000Y-180637500I0J237500D01*
G01*
X253225000Y-180062500D01*
G75*
G02*
X253462500Y-179825000I237500J0D01*
G01*
G37*
G36*
G01*
X253462500Y-181575000D02*
X253937500Y-181575000D01*
G75*
G02*
X254175000Y-181812500I0J-237500D01*
G01*
X254175000Y-182387500D01*
G75*
G02*
X253937500Y-182625000I-237500J0D01*
G01*
X253462500Y-182625000D01*
G75*
G02*
X253225000Y-182387500I0J237500D01*
G01*
X253225000Y-181812500D01*
G75*
G02*
X253462500Y-181575000I237500J0D01*
G01*
G37*
G36*
G01*
X254987500Y-177900000D02*
X255462500Y-177900000D01*
G75*
G02*
X255700000Y-178137500I0J-237500D01*
G01*
X255700000Y-178712500D01*
G75*
G02*
X255462500Y-178950000I-237500J0D01*
G01*
X254987500Y-178950000D01*
G75*
G02*
X254750000Y-178712500I0J237500D01*
G01*
X254750000Y-178137500D01*
G75*
G02*
X254987500Y-177900000I237500J0D01*
G01*
G37*
G36*
G01*
X254987500Y-176150000D02*
X255462500Y-176150000D01*
G75*
G02*
X255700000Y-176387500I0J-237500D01*
G01*
X255700000Y-176962500D01*
G75*
G02*
X255462500Y-177200000I-237500J0D01*
G01*
X254987500Y-177200000D01*
G75*
G02*
X254750000Y-176962500I0J237500D01*
G01*
X254750000Y-176387500D01*
G75*
G02*
X254987500Y-176150000I237500J0D01*
G01*
G37*
G36*
G01*
X246250000Y-133737500D02*
X246250000Y-134212500D01*
G75*
G02*
X246012500Y-134450000I-237500J0D01*
G01*
X245437500Y-134450000D01*
G75*
G02*
X245200000Y-134212500I0J237500D01*
G01*
X245200000Y-133737500D01*
G75*
G02*
X245437500Y-133500000I237500J0D01*
G01*
X246012500Y-133500000D01*
G75*
G02*
X246250000Y-133737500I0J-237500D01*
G01*
G37*
G36*
G01*
X248000000Y-133737500D02*
X248000000Y-134212500D01*
G75*
G02*
X247762500Y-134450000I-237500J0D01*
G01*
X247187500Y-134450000D01*
G75*
G02*
X246950000Y-134212500I0J237500D01*
G01*
X246950000Y-133737500D01*
G75*
G02*
X247187500Y-133500000I237500J0D01*
G01*
X247762500Y-133500000D01*
G75*
G02*
X248000000Y-133737500I0J-237500D01*
G01*
G37*
G36*
G01*
X254700000Y-169900001D02*
X254700000Y-168999999D01*
G75*
G02*
X254949999Y-168750000I249999J0D01*
G01*
X255600001Y-168750000D01*
G75*
G02*
X255850000Y-168999999I0J-249999D01*
G01*
X255850000Y-169900001D01*
G75*
G02*
X255600001Y-170150000I-249999J0D01*
G01*
X254949999Y-170150000D01*
G75*
G02*
X254700000Y-169900001I0J249999D01*
G01*
G37*
G36*
G01*
X256750000Y-169900001D02*
X256750000Y-168999999D01*
G75*
G02*
X256999999Y-168750000I249999J0D01*
G01*
X257650001Y-168750000D01*
G75*
G02*
X257900000Y-168999999I0J-249999D01*
G01*
X257900000Y-169900001D01*
G75*
G02*
X257650001Y-170150000I-249999J0D01*
G01*
X256999999Y-170150000D01*
G75*
G02*
X256750000Y-169900001I0J249999D01*
G01*
G37*
G36*
G01*
X254525000Y-191450001D02*
X254525000Y-190549999D01*
G75*
G02*
X254774999Y-190300000I249999J0D01*
G01*
X255425001Y-190300000D01*
G75*
G02*
X255675000Y-190549999I0J-249999D01*
G01*
X255675000Y-191450001D01*
G75*
G02*
X255425001Y-191700000I-249999J0D01*
G01*
X254774999Y-191700000D01*
G75*
G02*
X254525000Y-191450001I0J249999D01*
G01*
G37*
G36*
G01*
X256575000Y-191450001D02*
X256575000Y-190549999D01*
G75*
G02*
X256824999Y-190300000I249999J0D01*
G01*
X257475001Y-190300000D01*
G75*
G02*
X257725000Y-190549999I0J-249999D01*
G01*
X257725000Y-191450001D01*
G75*
G02*
X257475001Y-191700000I-249999J0D01*
G01*
X256824999Y-191700000D01*
G75*
G02*
X256575000Y-191450001I0J249999D01*
G01*
G37*
G36*
G01*
X254450000Y-122925001D02*
X254450000Y-122024999D01*
G75*
G02*
X254699999Y-121775000I249999J0D01*
G01*
X255350001Y-121775000D01*
G75*
G02*
X255600000Y-122024999I0J-249999D01*
G01*
X255600000Y-122925001D01*
G75*
G02*
X255350001Y-123175000I-249999J0D01*
G01*
X254699999Y-123175000D01*
G75*
G02*
X254450000Y-122925001I0J249999D01*
G01*
G37*
G36*
G01*
X256500000Y-122925001D02*
X256500000Y-122024999D01*
G75*
G02*
X256749999Y-121775000I249999J0D01*
G01*
X257400001Y-121775000D01*
G75*
G02*
X257650000Y-122024999I0J-249999D01*
G01*
X257650000Y-122925001D01*
G75*
G02*
X257400001Y-123175000I-249999J0D01*
G01*
X256749999Y-123175000D01*
G75*
G02*
X256500000Y-122925001I0J249999D01*
G01*
G37*
G36*
G01*
X254812500Y-133500000D02*
X255287500Y-133500000D01*
G75*
G02*
X255525000Y-133737500I0J-237500D01*
G01*
X255525000Y-134312500D01*
G75*
G02*
X255287500Y-134550000I-237500J0D01*
G01*
X254812500Y-134550000D01*
G75*
G02*
X254575000Y-134312500I0J237500D01*
G01*
X254575000Y-133737500D01*
G75*
G02*
X254812500Y-133500000I237500J0D01*
G01*
G37*
G36*
G01*
X254812500Y-135250000D02*
X255287500Y-135250000D01*
G75*
G02*
X255525000Y-135487500I0J-237500D01*
G01*
X255525000Y-136062500D01*
G75*
G02*
X255287500Y-136300000I-237500J0D01*
G01*
X254812500Y-136300000D01*
G75*
G02*
X254575000Y-136062500I0J237500D01*
G01*
X254575000Y-135487500D01*
G75*
G02*
X254812500Y-135250000I237500J0D01*
G01*
G37*
G36*
G01*
X254949999Y-166675000D02*
X255850001Y-166675000D01*
G75*
G02*
X256100000Y-166924999I0J-249999D01*
G01*
X256100000Y-167575001D01*
G75*
G02*
X255850001Y-167825000I-249999J0D01*
G01*
X254949999Y-167825000D01*
G75*
G02*
X254700000Y-167575001I0J249999D01*
G01*
X254700000Y-166924999D01*
G75*
G02*
X254949999Y-166675000I249999J0D01*
G01*
G37*
G36*
G01*
X254949999Y-164625000D02*
X255850001Y-164625000D01*
G75*
G02*
X256100000Y-164874999I0J-249999D01*
G01*
X256100000Y-165525001D01*
G75*
G02*
X255850001Y-165775000I-249999J0D01*
G01*
X254949999Y-165775000D01*
G75*
G02*
X254700000Y-165525001I0J249999D01*
G01*
X254700000Y-164874999D01*
G75*
G02*
X254949999Y-164625000I249999J0D01*
G01*
G37*
G36*
G01*
X254774999Y-188225000D02*
X255675001Y-188225000D01*
G75*
G02*
X255925000Y-188474999I0J-249999D01*
G01*
X255925000Y-189125001D01*
G75*
G02*
X255675001Y-189375000I-249999J0D01*
G01*
X254774999Y-189375000D01*
G75*
G02*
X254525000Y-189125001I0J249999D01*
G01*
X254525000Y-188474999D01*
G75*
G02*
X254774999Y-188225000I249999J0D01*
G01*
G37*
G36*
G01*
X254774999Y-186175000D02*
X255675001Y-186175000D01*
G75*
G02*
X255925000Y-186424999I0J-249999D01*
G01*
X255925000Y-187075001D01*
G75*
G02*
X255675001Y-187325000I-249999J0D01*
G01*
X254774999Y-187325000D01*
G75*
G02*
X254525000Y-187075001I0J249999D01*
G01*
X254525000Y-186424999D01*
G75*
G02*
X254774999Y-186175000I249999J0D01*
G01*
G37*
G36*
G01*
X254699999Y-119750000D02*
X255600001Y-119750000D01*
G75*
G02*
X255850000Y-119999999I0J-249999D01*
G01*
X255850000Y-120650001D01*
G75*
G02*
X255600001Y-120900000I-249999J0D01*
G01*
X254699999Y-120900000D01*
G75*
G02*
X254450000Y-120650001I0J249999D01*
G01*
X254450000Y-119999999D01*
G75*
G02*
X254699999Y-119750000I249999J0D01*
G01*
G37*
G36*
G01*
X254699999Y-117700000D02*
X255600001Y-117700000D01*
G75*
G02*
X255850000Y-117949999I0J-249999D01*
G01*
X255850000Y-118600001D01*
G75*
G02*
X255600001Y-118850000I-249999J0D01*
G01*
X254699999Y-118850000D01*
G75*
G02*
X254450000Y-118600001I0J249999D01*
G01*
X254450000Y-117949999D01*
G75*
G02*
X254699999Y-117700000I249999J0D01*
G01*
G37*
G36*
G01*
X371827500Y-194220000D02*
X372172500Y-194220000D01*
G75*
G02*
X372320000Y-194367500I0J-147500D01*
G01*
X372320000Y-194662500D01*
G75*
G02*
X372172500Y-194810000I-147500J0D01*
G01*
X371827500Y-194810000D01*
G75*
G02*
X371680000Y-194662500I0J147500D01*
G01*
X371680000Y-194367500D01*
G75*
G02*
X371827500Y-194220000I147500J0D01*
G01*
G37*
G36*
G01*
X371827500Y-195190000D02*
X372172500Y-195190000D01*
G75*
G02*
X372320000Y-195337500I0J-147500D01*
G01*
X372320000Y-195632500D01*
G75*
G02*
X372172500Y-195780000I-147500J0D01*
G01*
X371827500Y-195780000D01*
G75*
G02*
X371680000Y-195632500I0J147500D01*
G01*
X371680000Y-195337500D01*
G75*
G02*
X371827500Y-195190000I147500J0D01*
G01*
G37*
G36*
G01*
X373827500Y-194220000D02*
X374172500Y-194220000D01*
G75*
G02*
X374320000Y-194367500I0J-147500D01*
G01*
X374320000Y-194662500D01*
G75*
G02*
X374172500Y-194810000I-147500J0D01*
G01*
X373827500Y-194810000D01*
G75*
G02*
X373680000Y-194662500I0J147500D01*
G01*
X373680000Y-194367500D01*
G75*
G02*
X373827500Y-194220000I147500J0D01*
G01*
G37*
G36*
G01*
X373827500Y-195190000D02*
X374172500Y-195190000D01*
G75*
G02*
X374320000Y-195337500I0J-147500D01*
G01*
X374320000Y-195632500D01*
G75*
G02*
X374172500Y-195780000I-147500J0D01*
G01*
X373827500Y-195780000D01*
G75*
G02*
X373680000Y-195632500I0J147500D01*
G01*
X373680000Y-195337500D01*
G75*
G02*
X373827500Y-195190000I147500J0D01*
G01*
G37*
G36*
G01*
X375827500Y-194220000D02*
X376172500Y-194220000D01*
G75*
G02*
X376320000Y-194367500I0J-147500D01*
G01*
X376320000Y-194662500D01*
G75*
G02*
X376172500Y-194810000I-147500J0D01*
G01*
X375827500Y-194810000D01*
G75*
G02*
X375680000Y-194662500I0J147500D01*
G01*
X375680000Y-194367500D01*
G75*
G02*
X375827500Y-194220000I147500J0D01*
G01*
G37*
G36*
G01*
X375827500Y-195190000D02*
X376172500Y-195190000D01*
G75*
G02*
X376320000Y-195337500I0J-147500D01*
G01*
X376320000Y-195632500D01*
G75*
G02*
X376172500Y-195780000I-147500J0D01*
G01*
X375827500Y-195780000D01*
G75*
G02*
X375680000Y-195632500I0J147500D01*
G01*
X375680000Y-195337500D01*
G75*
G02*
X375827500Y-195190000I147500J0D01*
G01*
G37*
G36*
G01*
X377827500Y-195190000D02*
X378172500Y-195190000D01*
G75*
G02*
X378320000Y-195337500I0J-147500D01*
G01*
X378320000Y-195632500D01*
G75*
G02*
X378172500Y-195780000I-147500J0D01*
G01*
X377827500Y-195780000D01*
G75*
G02*
X377680000Y-195632500I0J147500D01*
G01*
X377680000Y-195337500D01*
G75*
G02*
X377827500Y-195190000I147500J0D01*
G01*
G37*
G36*
G01*
X377827500Y-194220000D02*
X378172500Y-194220000D01*
G75*
G02*
X378320000Y-194367500I0J-147500D01*
G01*
X378320000Y-194662500D01*
G75*
G02*
X378172500Y-194810000I-147500J0D01*
G01*
X377827500Y-194810000D01*
G75*
G02*
X377680000Y-194662500I0J147500D01*
G01*
X377680000Y-194367500D01*
G75*
G02*
X377827500Y-194220000I147500J0D01*
G01*
G37*
G36*
G01*
X379827500Y-194220000D02*
X380172500Y-194220000D01*
G75*
G02*
X380320000Y-194367500I0J-147500D01*
G01*
X380320000Y-194662500D01*
G75*
G02*
X380172500Y-194810000I-147500J0D01*
G01*
X379827500Y-194810000D01*
G75*
G02*
X379680000Y-194662500I0J147500D01*
G01*
X379680000Y-194367500D01*
G75*
G02*
X379827500Y-194220000I147500J0D01*
G01*
G37*
G36*
G01*
X379827500Y-195190000D02*
X380172500Y-195190000D01*
G75*
G02*
X380320000Y-195337500I0J-147500D01*
G01*
X380320000Y-195632500D01*
G75*
G02*
X380172500Y-195780000I-147500J0D01*
G01*
X379827500Y-195780000D01*
G75*
G02*
X379680000Y-195632500I0J147500D01*
G01*
X379680000Y-195337500D01*
G75*
G02*
X379827500Y-195190000I147500J0D01*
G01*
G37*
G36*
G01*
X381827500Y-194220000D02*
X382172500Y-194220000D01*
G75*
G02*
X382320000Y-194367500I0J-147500D01*
G01*
X382320000Y-194662500D01*
G75*
G02*
X382172500Y-194810000I-147500J0D01*
G01*
X381827500Y-194810000D01*
G75*
G02*
X381680000Y-194662500I0J147500D01*
G01*
X381680000Y-194367500D01*
G75*
G02*
X381827500Y-194220000I147500J0D01*
G01*
G37*
G36*
G01*
X381827500Y-195190000D02*
X382172500Y-195190000D01*
G75*
G02*
X382320000Y-195337500I0J-147500D01*
G01*
X382320000Y-195632500D01*
G75*
G02*
X382172500Y-195780000I-147500J0D01*
G01*
X381827500Y-195780000D01*
G75*
G02*
X381680000Y-195632500I0J147500D01*
G01*
X381680000Y-195337500D01*
G75*
G02*
X381827500Y-195190000I147500J0D01*
G01*
G37*
G36*
G01*
X383827500Y-194220000D02*
X384172500Y-194220000D01*
G75*
G02*
X384320000Y-194367500I0J-147500D01*
G01*
X384320000Y-194662500D01*
G75*
G02*
X384172500Y-194810000I-147500J0D01*
G01*
X383827500Y-194810000D01*
G75*
G02*
X383680000Y-194662500I0J147500D01*
G01*
X383680000Y-194367500D01*
G75*
G02*
X383827500Y-194220000I147500J0D01*
G01*
G37*
G36*
G01*
X383827500Y-195190000D02*
X384172500Y-195190000D01*
G75*
G02*
X384320000Y-195337500I0J-147500D01*
G01*
X384320000Y-195632500D01*
G75*
G02*
X384172500Y-195780000I-147500J0D01*
G01*
X383827500Y-195780000D01*
G75*
G02*
X383680000Y-195632500I0J147500D01*
G01*
X383680000Y-195337500D01*
G75*
G02*
X383827500Y-195190000I147500J0D01*
G01*
G37*
G36*
G01*
X385827500Y-195190000D02*
X386172500Y-195190000D01*
G75*
G02*
X386320000Y-195337500I0J-147500D01*
G01*
X386320000Y-195632500D01*
G75*
G02*
X386172500Y-195780000I-147500J0D01*
G01*
X385827500Y-195780000D01*
G75*
G02*
X385680000Y-195632500I0J147500D01*
G01*
X385680000Y-195337500D01*
G75*
G02*
X385827500Y-195190000I147500J0D01*
G01*
G37*
G36*
G01*
X385827500Y-194220000D02*
X386172500Y-194220000D01*
G75*
G02*
X386320000Y-194367500I0J-147500D01*
G01*
X386320000Y-194662500D01*
G75*
G02*
X386172500Y-194810000I-147500J0D01*
G01*
X385827500Y-194810000D01*
G75*
G02*
X385680000Y-194662500I0J147500D01*
G01*
X385680000Y-194367500D01*
G75*
G02*
X385827500Y-194220000I147500J0D01*
G01*
G37*
G36*
G01*
X387827500Y-195190000D02*
X388172500Y-195190000D01*
G75*
G02*
X388320000Y-195337500I0J-147500D01*
G01*
X388320000Y-195632500D01*
G75*
G02*
X388172500Y-195780000I-147500J0D01*
G01*
X387827500Y-195780000D01*
G75*
G02*
X387680000Y-195632500I0J147500D01*
G01*
X387680000Y-195337500D01*
G75*
G02*
X387827500Y-195190000I147500J0D01*
G01*
G37*
G36*
G01*
X387827500Y-194220000D02*
X388172500Y-194220000D01*
G75*
G02*
X388320000Y-194367500I0J-147500D01*
G01*
X388320000Y-194662500D01*
G75*
G02*
X388172500Y-194810000I-147500J0D01*
G01*
X387827500Y-194810000D01*
G75*
G02*
X387680000Y-194662500I0J147500D01*
G01*
X387680000Y-194367500D01*
G75*
G02*
X387827500Y-194220000I147500J0D01*
G01*
G37*
G36*
G01*
X389827500Y-195190000D02*
X390172500Y-195190000D01*
G75*
G02*
X390320000Y-195337500I0J-147500D01*
G01*
X390320000Y-195632500D01*
G75*
G02*
X390172500Y-195780000I-147500J0D01*
G01*
X389827500Y-195780000D01*
G75*
G02*
X389680000Y-195632500I0J147500D01*
G01*
X389680000Y-195337500D01*
G75*
G02*
X389827500Y-195190000I147500J0D01*
G01*
G37*
G36*
G01*
X389827500Y-194220000D02*
X390172500Y-194220000D01*
G75*
G02*
X390320000Y-194367500I0J-147500D01*
G01*
X390320000Y-194662500D01*
G75*
G02*
X390172500Y-194810000I-147500J0D01*
G01*
X389827500Y-194810000D01*
G75*
G02*
X389680000Y-194662500I0J147500D01*
G01*
X389680000Y-194367500D01*
G75*
G02*
X389827500Y-194220000I147500J0D01*
G01*
G37*
G36*
G01*
X391827500Y-194220000D02*
X392172500Y-194220000D01*
G75*
G02*
X392320000Y-194367500I0J-147500D01*
G01*
X392320000Y-194662500D01*
G75*
G02*
X392172500Y-194810000I-147500J0D01*
G01*
X391827500Y-194810000D01*
G75*
G02*
X391680000Y-194662500I0J147500D01*
G01*
X391680000Y-194367500D01*
G75*
G02*
X391827500Y-194220000I147500J0D01*
G01*
G37*
G36*
G01*
X391827500Y-195190000D02*
X392172500Y-195190000D01*
G75*
G02*
X392320000Y-195337500I0J-147500D01*
G01*
X392320000Y-195632500D01*
G75*
G02*
X392172500Y-195780000I-147500J0D01*
G01*
X391827500Y-195780000D01*
G75*
G02*
X391680000Y-195632500I0J147500D01*
G01*
X391680000Y-195337500D01*
G75*
G02*
X391827500Y-195190000I147500J0D01*
G01*
G37*
G36*
G01*
X393827500Y-194220000D02*
X394172500Y-194220000D01*
G75*
G02*
X394320000Y-194367500I0J-147500D01*
G01*
X394320000Y-194662500D01*
G75*
G02*
X394172500Y-194810000I-147500J0D01*
G01*
X393827500Y-194810000D01*
G75*
G02*
X393680000Y-194662500I0J147500D01*
G01*
X393680000Y-194367500D01*
G75*
G02*
X393827500Y-194220000I147500J0D01*
G01*
G37*
G36*
G01*
X393827500Y-195190000D02*
X394172500Y-195190000D01*
G75*
G02*
X394320000Y-195337500I0J-147500D01*
G01*
X394320000Y-195632500D01*
G75*
G02*
X394172500Y-195780000I-147500J0D01*
G01*
X393827500Y-195780000D01*
G75*
G02*
X393680000Y-195632500I0J147500D01*
G01*
X393680000Y-195337500D01*
G75*
G02*
X393827500Y-195190000I147500J0D01*
G01*
G37*
G36*
G01*
X395827500Y-194220000D02*
X396172500Y-194220000D01*
G75*
G02*
X396320000Y-194367500I0J-147500D01*
G01*
X396320000Y-194662500D01*
G75*
G02*
X396172500Y-194810000I-147500J0D01*
G01*
X395827500Y-194810000D01*
G75*
G02*
X395680000Y-194662500I0J147500D01*
G01*
X395680000Y-194367500D01*
G75*
G02*
X395827500Y-194220000I147500J0D01*
G01*
G37*
G36*
G01*
X395827500Y-195190000D02*
X396172500Y-195190000D01*
G75*
G02*
X396320000Y-195337500I0J-147500D01*
G01*
X396320000Y-195632500D01*
G75*
G02*
X396172500Y-195780000I-147500J0D01*
G01*
X395827500Y-195780000D01*
G75*
G02*
X395680000Y-195632500I0J147500D01*
G01*
X395680000Y-195337500D01*
G75*
G02*
X395827500Y-195190000I147500J0D01*
G01*
G37*
G36*
G01*
X397827500Y-194220000D02*
X398172500Y-194220000D01*
G75*
G02*
X398320000Y-194367500I0J-147500D01*
G01*
X398320000Y-194662500D01*
G75*
G02*
X398172500Y-194810000I-147500J0D01*
G01*
X397827500Y-194810000D01*
G75*
G02*
X397680000Y-194662500I0J147500D01*
G01*
X397680000Y-194367500D01*
G75*
G02*
X397827500Y-194220000I147500J0D01*
G01*
G37*
G36*
G01*
X397827500Y-195190000D02*
X398172500Y-195190000D01*
G75*
G02*
X398320000Y-195337500I0J-147500D01*
G01*
X398320000Y-195632500D01*
G75*
G02*
X398172500Y-195780000I-147500J0D01*
G01*
X397827500Y-195780000D01*
G75*
G02*
X397680000Y-195632500I0J147500D01*
G01*
X397680000Y-195337500D01*
G75*
G02*
X397827500Y-195190000I147500J0D01*
G01*
G37*
G36*
G01*
X399827500Y-194220000D02*
X400172500Y-194220000D01*
G75*
G02*
X400320000Y-194367500I0J-147500D01*
G01*
X400320000Y-194662500D01*
G75*
G02*
X400172500Y-194810000I-147500J0D01*
G01*
X399827500Y-194810000D01*
G75*
G02*
X399680000Y-194662500I0J147500D01*
G01*
X399680000Y-194367500D01*
G75*
G02*
X399827500Y-194220000I147500J0D01*
G01*
G37*
G36*
G01*
X399827500Y-195190000D02*
X400172500Y-195190000D01*
G75*
G02*
X400320000Y-195337500I0J-147500D01*
G01*
X400320000Y-195632500D01*
G75*
G02*
X400172500Y-195780000I-147500J0D01*
G01*
X399827500Y-195780000D01*
G75*
G02*
X399680000Y-195632500I0J147500D01*
G01*
X399680000Y-195337500D01*
G75*
G02*
X399827500Y-195190000I147500J0D01*
G01*
G37*
G36*
G01*
X401827500Y-195190000D02*
X402172500Y-195190000D01*
G75*
G02*
X402320000Y-195337500I0J-147500D01*
G01*
X402320000Y-195632500D01*
G75*
G02*
X402172500Y-195780000I-147500J0D01*
G01*
X401827500Y-195780000D01*
G75*
G02*
X401680000Y-195632500I0J147500D01*
G01*
X401680000Y-195337500D01*
G75*
G02*
X401827500Y-195190000I147500J0D01*
G01*
G37*
G36*
G01*
X401827500Y-194220000D02*
X402172500Y-194220000D01*
G75*
G02*
X402320000Y-194367500I0J-147500D01*
G01*
X402320000Y-194662500D01*
G75*
G02*
X402172500Y-194810000I-147500J0D01*
G01*
X401827500Y-194810000D01*
G75*
G02*
X401680000Y-194662500I0J147500D01*
G01*
X401680000Y-194367500D01*
G75*
G02*
X401827500Y-194220000I147500J0D01*
G01*
G37*
G36*
G01*
X383975000Y-108687500D02*
X383975000Y-108212500D01*
G75*
G02*
X384212500Y-107975000I237500J0D01*
G01*
X384787500Y-107975000D01*
G75*
G02*
X385025000Y-108212500I0J-237500D01*
G01*
X385025000Y-108687500D01*
G75*
G02*
X384787500Y-108925000I-237500J0D01*
G01*
X384212500Y-108925000D01*
G75*
G02*
X383975000Y-108687500I0J237500D01*
G01*
G37*
G36*
G01*
X382225000Y-108687500D02*
X382225000Y-108212500D01*
G75*
G02*
X382462500Y-107975000I237500J0D01*
G01*
X383037500Y-107975000D01*
G75*
G02*
X383275000Y-108212500I0J-237500D01*
G01*
X383275000Y-108687500D01*
G75*
G02*
X383037500Y-108925000I-237500J0D01*
G01*
X382462500Y-108925000D01*
G75*
G02*
X382225000Y-108687500I0J237500D01*
G01*
G37*
G36*
G01*
X380677500Y-105070000D02*
X380202500Y-105070000D01*
G75*
G02*
X379965000Y-104832500I0J237500D01*
G01*
X379965000Y-104257500D01*
G75*
G02*
X380202500Y-104020000I237500J0D01*
G01*
X380677500Y-104020000D01*
G75*
G02*
X380915000Y-104257500I0J-237500D01*
G01*
X380915000Y-104832500D01*
G75*
G02*
X380677500Y-105070000I-237500J0D01*
G01*
G37*
G36*
G01*
X380677500Y-103320000D02*
X380202500Y-103320000D01*
G75*
G02*
X379965000Y-103082500I0J237500D01*
G01*
X379965000Y-102507500D01*
G75*
G02*
X380202500Y-102270000I237500J0D01*
G01*
X380677500Y-102270000D01*
G75*
G02*
X380915000Y-102507500I0J-237500D01*
G01*
X380915000Y-103082500D01*
G75*
G02*
X380677500Y-103320000I-237500J0D01*
G01*
G37*
G36*
G01*
X382225000Y-107162500D02*
X382225000Y-106687500D01*
G75*
G02*
X382462500Y-106450000I237500J0D01*
G01*
X383037500Y-106450000D01*
G75*
G02*
X383275000Y-106687500I0J-237500D01*
G01*
X383275000Y-107162500D01*
G75*
G02*
X383037500Y-107400000I-237500J0D01*
G01*
X382462500Y-107400000D01*
G75*
G02*
X382225000Y-107162500I0J237500D01*
G01*
G37*
G36*
G01*
X383975000Y-107162500D02*
X383975000Y-106687500D01*
G75*
G02*
X384212500Y-106450000I237500J0D01*
G01*
X384787500Y-106450000D01*
G75*
G02*
X385025000Y-106687500I0J-237500D01*
G01*
X385025000Y-107162500D01*
G75*
G02*
X384787500Y-107400000I-237500J0D01*
G01*
X384212500Y-107400000D01*
G75*
G02*
X383975000Y-107162500I0J237500D01*
G01*
G37*
G36*
G01*
X404800000Y-157012500D02*
X404800000Y-157487500D01*
G75*
G02*
X404562500Y-157725000I-237500J0D01*
G01*
X403987500Y-157725000D01*
G75*
G02*
X403750000Y-157487500I0J237500D01*
G01*
X403750000Y-157012500D01*
G75*
G02*
X403987500Y-156775000I237500J0D01*
G01*
X404562500Y-156775000D01*
G75*
G02*
X404800000Y-157012500I0J-237500D01*
G01*
G37*
G36*
G01*
X406550000Y-157012500D02*
X406550000Y-157487500D01*
G75*
G02*
X406312500Y-157725000I-237500J0D01*
G01*
X405737500Y-157725000D01*
G75*
G02*
X405500000Y-157487500I0J237500D01*
G01*
X405500000Y-157012500D01*
G75*
G02*
X405737500Y-156775000I237500J0D01*
G01*
X406312500Y-156775000D01*
G75*
G02*
X406550000Y-157012500I0J-237500D01*
G01*
G37*
G36*
G01*
X375117500Y-105060000D02*
X374642500Y-105060000D01*
G75*
G02*
X374405000Y-104822500I0J237500D01*
G01*
X374405000Y-104247500D01*
G75*
G02*
X374642500Y-104010000I237500J0D01*
G01*
X375117500Y-104010000D01*
G75*
G02*
X375355000Y-104247500I0J-237500D01*
G01*
X375355000Y-104822500D01*
G75*
G02*
X375117500Y-105060000I-237500J0D01*
G01*
G37*
G36*
G01*
X375117500Y-103310000D02*
X374642500Y-103310000D01*
G75*
G02*
X374405000Y-103072500I0J237500D01*
G01*
X374405000Y-102497500D01*
G75*
G02*
X374642500Y-102260000I237500J0D01*
G01*
X375117500Y-102260000D01*
G75*
G02*
X375355000Y-102497500I0J-237500D01*
G01*
X375355000Y-103072500D01*
G75*
G02*
X375117500Y-103310000I-237500J0D01*
G01*
G37*
G36*
G01*
X373325000Y-106762500D02*
X373325000Y-107237500D01*
G75*
G02*
X373087500Y-107475000I-237500J0D01*
G01*
X372512500Y-107475000D01*
G75*
G02*
X372275000Y-107237500I0J237500D01*
G01*
X372275000Y-106762500D01*
G75*
G02*
X372512500Y-106525000I237500J0D01*
G01*
X373087500Y-106525000D01*
G75*
G02*
X373325000Y-106762500I0J-237500D01*
G01*
G37*
G36*
G01*
X371575000Y-106762500D02*
X371575000Y-107237500D01*
G75*
G02*
X371337500Y-107475000I-237500J0D01*
G01*
X370762500Y-107475000D01*
G75*
G02*
X370525000Y-107237500I0J237500D01*
G01*
X370525000Y-106762500D01*
G75*
G02*
X370762500Y-106525000I237500J0D01*
G01*
X371337500Y-106525000D01*
G75*
G02*
X371575000Y-106762500I0J-237500D01*
G01*
G37*
G36*
G01*
X371580000Y-108312500D02*
X371580000Y-108787500D01*
G75*
G02*
X371342500Y-109025000I-237500J0D01*
G01*
X370767500Y-109025000D01*
G75*
G02*
X370530000Y-108787500I0J237500D01*
G01*
X370530000Y-108312500D01*
G75*
G02*
X370767500Y-108075000I237500J0D01*
G01*
X371342500Y-108075000D01*
G75*
G02*
X371580000Y-108312500I0J-237500D01*
G01*
G37*
G36*
G01*
X373330000Y-108312500D02*
X373330000Y-108787500D01*
G75*
G02*
X373092500Y-109025000I-237500J0D01*
G01*
X372517500Y-109025000D01*
G75*
G02*
X372280000Y-108787500I0J237500D01*
G01*
X372280000Y-108312500D01*
G75*
G02*
X372517500Y-108075000I237500J0D01*
G01*
X373092500Y-108075000D01*
G75*
G02*
X373330000Y-108312500I0J-237500D01*
G01*
G37*
G36*
G01*
X383749999Y-114520000D02*
X384650001Y-114520000D01*
G75*
G02*
X384900000Y-114769999I0J-249999D01*
G01*
X384900000Y-115420001D01*
G75*
G02*
X384650001Y-115670000I-249999J0D01*
G01*
X383749999Y-115670000D01*
G75*
G02*
X383500000Y-115420001I0J249999D01*
G01*
X383500000Y-114769999D01*
G75*
G02*
X383749999Y-114520000I249999J0D01*
G01*
G37*
G36*
G01*
X383749999Y-112470000D02*
X384650001Y-112470000D01*
G75*
G02*
X384900000Y-112719999I0J-249999D01*
G01*
X384900000Y-113370001D01*
G75*
G02*
X384650001Y-113620000I-249999J0D01*
G01*
X383749999Y-113620000D01*
G75*
G02*
X383500000Y-113370001I0J249999D01*
G01*
X383500000Y-112719999D01*
G75*
G02*
X383749999Y-112470000I249999J0D01*
G01*
G37*
G36*
G01*
X408699999Y-165885000D02*
X409600001Y-165885000D01*
G75*
G02*
X409850000Y-166134999I0J-249999D01*
G01*
X409850000Y-166785001D01*
G75*
G02*
X409600001Y-167035000I-249999J0D01*
G01*
X408699999Y-167035000D01*
G75*
G02*
X408450000Y-166785001I0J249999D01*
G01*
X408450000Y-166134999D01*
G75*
G02*
X408699999Y-165885000I249999J0D01*
G01*
G37*
G36*
G01*
X408699999Y-167935000D02*
X409600001Y-167935000D01*
G75*
G02*
X409850000Y-168184999I0J-249999D01*
G01*
X409850000Y-168835001D01*
G75*
G02*
X409600001Y-169085000I-249999J0D01*
G01*
X408699999Y-169085000D01*
G75*
G02*
X408450000Y-168835001I0J249999D01*
G01*
X408450000Y-168184999D01*
G75*
G02*
X408699999Y-167935000I249999J0D01*
G01*
G37*
G36*
G01*
X430840000Y-156967500D02*
X430840000Y-156492500D01*
G75*
G02*
X431077500Y-156255000I237500J0D01*
G01*
X431652500Y-156255000D01*
G75*
G02*
X431890000Y-156492500I0J-237500D01*
G01*
X431890000Y-156967500D01*
G75*
G02*
X431652500Y-157205000I-237500J0D01*
G01*
X431077500Y-157205000D01*
G75*
G02*
X430840000Y-156967500I0J237500D01*
G01*
G37*
G36*
G01*
X432590000Y-156967500D02*
X432590000Y-156492500D01*
G75*
G02*
X432827500Y-156255000I237500J0D01*
G01*
X433402500Y-156255000D01*
G75*
G02*
X433640000Y-156492500I0J-237500D01*
G01*
X433640000Y-156967500D01*
G75*
G02*
X433402500Y-157205000I-237500J0D01*
G01*
X432827500Y-157205000D01*
G75*
G02*
X432590000Y-156967500I0J237500D01*
G01*
G37*
G36*
G01*
X427860000Y-157007500D02*
X427860000Y-156532500D01*
G75*
G02*
X428097500Y-156295000I237500J0D01*
G01*
X428672500Y-156295000D01*
G75*
G02*
X428910000Y-156532500I0J-237500D01*
G01*
X428910000Y-157007500D01*
G75*
G02*
X428672500Y-157245000I-237500J0D01*
G01*
X428097500Y-157245000D01*
G75*
G02*
X427860000Y-157007500I0J237500D01*
G01*
G37*
G36*
G01*
X426110000Y-157007500D02*
X426110000Y-156532500D01*
G75*
G02*
X426347500Y-156295000I237500J0D01*
G01*
X426922500Y-156295000D01*
G75*
G02*
X427160000Y-156532500I0J-237500D01*
G01*
X427160000Y-157007500D01*
G75*
G02*
X426922500Y-157245000I-237500J0D01*
G01*
X426347500Y-157245000D01*
G75*
G02*
X426110000Y-157007500I0J237500D01*
G01*
G37*
G36*
G01*
X431880000Y-148850001D02*
X431880000Y-147949999D01*
G75*
G02*
X432129999Y-147700000I249999J0D01*
G01*
X432780001Y-147700000D01*
G75*
G02*
X433030000Y-147949999I0J-249999D01*
G01*
X433030000Y-148850001D01*
G75*
G02*
X432780001Y-149100000I-249999J0D01*
G01*
X432129999Y-149100000D01*
G75*
G02*
X431880000Y-148850001I0J249999D01*
G01*
G37*
G36*
G01*
X433930000Y-148850001D02*
X433930000Y-147949999D01*
G75*
G02*
X434179999Y-147700000I249999J0D01*
G01*
X434830001Y-147700000D01*
G75*
G02*
X435080000Y-147949999I0J-249999D01*
G01*
X435080000Y-148850001D01*
G75*
G02*
X434830001Y-149100000I-249999J0D01*
G01*
X434179999Y-149100000D01*
G75*
G02*
X433930000Y-148850001I0J249999D01*
G01*
G37*
G36*
G01*
X427150000Y-148890001D02*
X427150000Y-147989999D01*
G75*
G02*
X427399999Y-147740000I249999J0D01*
G01*
X428050001Y-147740000D01*
G75*
G02*
X428300000Y-147989999I0J-249999D01*
G01*
X428300000Y-148890001D01*
G75*
G02*
X428050001Y-149140000I-249999J0D01*
G01*
X427399999Y-149140000D01*
G75*
G02*
X427150000Y-148890001I0J249999D01*
G01*
G37*
G36*
G01*
X429200000Y-148890001D02*
X429200000Y-147989999D01*
G75*
G02*
X429449999Y-147740000I249999J0D01*
G01*
X430100001Y-147740000D01*
G75*
G02*
X430350000Y-147989999I0J-249999D01*
G01*
X430350000Y-148890001D01*
G75*
G02*
X430100001Y-149140000I-249999J0D01*
G01*
X429449999Y-149140000D01*
G75*
G02*
X429200000Y-148890001I0J249999D01*
G01*
G37*
G36*
G01*
X333427500Y-194220000D02*
X333772500Y-194220000D01*
G75*
G02*
X333920000Y-194367500I0J-147500D01*
G01*
X333920000Y-194662500D01*
G75*
G02*
X333772500Y-194810000I-147500J0D01*
G01*
X333427500Y-194810000D01*
G75*
G02*
X333280000Y-194662500I0J147500D01*
G01*
X333280000Y-194367500D01*
G75*
G02*
X333427500Y-194220000I147500J0D01*
G01*
G37*
G36*
G01*
X333427500Y-195190000D02*
X333772500Y-195190000D01*
G75*
G02*
X333920000Y-195337500I0J-147500D01*
G01*
X333920000Y-195632500D01*
G75*
G02*
X333772500Y-195780000I-147500J0D01*
G01*
X333427500Y-195780000D01*
G75*
G02*
X333280000Y-195632500I0J147500D01*
G01*
X333280000Y-195337500D01*
G75*
G02*
X333427500Y-195190000I147500J0D01*
G01*
G37*
G36*
G01*
X335427500Y-195190000D02*
X335772500Y-195190000D01*
G75*
G02*
X335920000Y-195337500I0J-147500D01*
G01*
X335920000Y-195632500D01*
G75*
G02*
X335772500Y-195780000I-147500J0D01*
G01*
X335427500Y-195780000D01*
G75*
G02*
X335280000Y-195632500I0J147500D01*
G01*
X335280000Y-195337500D01*
G75*
G02*
X335427500Y-195190000I147500J0D01*
G01*
G37*
G36*
G01*
X335427500Y-194220000D02*
X335772500Y-194220000D01*
G75*
G02*
X335920000Y-194367500I0J-147500D01*
G01*
X335920000Y-194662500D01*
G75*
G02*
X335772500Y-194810000I-147500J0D01*
G01*
X335427500Y-194810000D01*
G75*
G02*
X335280000Y-194662500I0J147500D01*
G01*
X335280000Y-194367500D01*
G75*
G02*
X335427500Y-194220000I147500J0D01*
G01*
G37*
G36*
G01*
X337427500Y-195190000D02*
X337772500Y-195190000D01*
G75*
G02*
X337920000Y-195337500I0J-147500D01*
G01*
X337920000Y-195632500D01*
G75*
G02*
X337772500Y-195780000I-147500J0D01*
G01*
X337427500Y-195780000D01*
G75*
G02*
X337280000Y-195632500I0J147500D01*
G01*
X337280000Y-195337500D01*
G75*
G02*
X337427500Y-195190000I147500J0D01*
G01*
G37*
G36*
G01*
X337427500Y-194220000D02*
X337772500Y-194220000D01*
G75*
G02*
X337920000Y-194367500I0J-147500D01*
G01*
X337920000Y-194662500D01*
G75*
G02*
X337772500Y-194810000I-147500J0D01*
G01*
X337427500Y-194810000D01*
G75*
G02*
X337280000Y-194662500I0J147500D01*
G01*
X337280000Y-194367500D01*
G75*
G02*
X337427500Y-194220000I147500J0D01*
G01*
G37*
G36*
G01*
X339427500Y-195190000D02*
X339772500Y-195190000D01*
G75*
G02*
X339920000Y-195337500I0J-147500D01*
G01*
X339920000Y-195632500D01*
G75*
G02*
X339772500Y-195780000I-147500J0D01*
G01*
X339427500Y-195780000D01*
G75*
G02*
X339280000Y-195632500I0J147500D01*
G01*
X339280000Y-195337500D01*
G75*
G02*
X339427500Y-195190000I147500J0D01*
G01*
G37*
G36*
G01*
X339427500Y-194220000D02*
X339772500Y-194220000D01*
G75*
G02*
X339920000Y-194367500I0J-147500D01*
G01*
X339920000Y-194662500D01*
G75*
G02*
X339772500Y-194810000I-147500J0D01*
G01*
X339427500Y-194810000D01*
G75*
G02*
X339280000Y-194662500I0J147500D01*
G01*
X339280000Y-194367500D01*
G75*
G02*
X339427500Y-194220000I147500J0D01*
G01*
G37*
G36*
G01*
X341427500Y-195190000D02*
X341772500Y-195190000D01*
G75*
G02*
X341920000Y-195337500I0J-147500D01*
G01*
X341920000Y-195632500D01*
G75*
G02*
X341772500Y-195780000I-147500J0D01*
G01*
X341427500Y-195780000D01*
G75*
G02*
X341280000Y-195632500I0J147500D01*
G01*
X341280000Y-195337500D01*
G75*
G02*
X341427500Y-195190000I147500J0D01*
G01*
G37*
G36*
G01*
X341427500Y-194220000D02*
X341772500Y-194220000D01*
G75*
G02*
X341920000Y-194367500I0J-147500D01*
G01*
X341920000Y-194662500D01*
G75*
G02*
X341772500Y-194810000I-147500J0D01*
G01*
X341427500Y-194810000D01*
G75*
G02*
X341280000Y-194662500I0J147500D01*
G01*
X341280000Y-194367500D01*
G75*
G02*
X341427500Y-194220000I147500J0D01*
G01*
G37*
G36*
G01*
X343427500Y-195190000D02*
X343772500Y-195190000D01*
G75*
G02*
X343920000Y-195337500I0J-147500D01*
G01*
X343920000Y-195632500D01*
G75*
G02*
X343772500Y-195780000I-147500J0D01*
G01*
X343427500Y-195780000D01*
G75*
G02*
X343280000Y-195632500I0J147500D01*
G01*
X343280000Y-195337500D01*
G75*
G02*
X343427500Y-195190000I147500J0D01*
G01*
G37*
G36*
G01*
X343427500Y-194220000D02*
X343772500Y-194220000D01*
G75*
G02*
X343920000Y-194367500I0J-147500D01*
G01*
X343920000Y-194662500D01*
G75*
G02*
X343772500Y-194810000I-147500J0D01*
G01*
X343427500Y-194810000D01*
G75*
G02*
X343280000Y-194662500I0J147500D01*
G01*
X343280000Y-194367500D01*
G75*
G02*
X343427500Y-194220000I147500J0D01*
G01*
G37*
G36*
G01*
X345427500Y-195190000D02*
X345772500Y-195190000D01*
G75*
G02*
X345920000Y-195337500I0J-147500D01*
G01*
X345920000Y-195632500D01*
G75*
G02*
X345772500Y-195780000I-147500J0D01*
G01*
X345427500Y-195780000D01*
G75*
G02*
X345280000Y-195632500I0J147500D01*
G01*
X345280000Y-195337500D01*
G75*
G02*
X345427500Y-195190000I147500J0D01*
G01*
G37*
G36*
G01*
X345427500Y-194220000D02*
X345772500Y-194220000D01*
G75*
G02*
X345920000Y-194367500I0J-147500D01*
G01*
X345920000Y-194662500D01*
G75*
G02*
X345772500Y-194810000I-147500J0D01*
G01*
X345427500Y-194810000D01*
G75*
G02*
X345280000Y-194662500I0J147500D01*
G01*
X345280000Y-194367500D01*
G75*
G02*
X345427500Y-194220000I147500J0D01*
G01*
G37*
G36*
G01*
X347427500Y-195190000D02*
X347772500Y-195190000D01*
G75*
G02*
X347920000Y-195337500I0J-147500D01*
G01*
X347920000Y-195632500D01*
G75*
G02*
X347772500Y-195780000I-147500J0D01*
G01*
X347427500Y-195780000D01*
G75*
G02*
X347280000Y-195632500I0J147500D01*
G01*
X347280000Y-195337500D01*
G75*
G02*
X347427500Y-195190000I147500J0D01*
G01*
G37*
G36*
G01*
X347427500Y-194220000D02*
X347772500Y-194220000D01*
G75*
G02*
X347920000Y-194367500I0J-147500D01*
G01*
X347920000Y-194662500D01*
G75*
G02*
X347772500Y-194810000I-147500J0D01*
G01*
X347427500Y-194810000D01*
G75*
G02*
X347280000Y-194662500I0J147500D01*
G01*
X347280000Y-194367500D01*
G75*
G02*
X347427500Y-194220000I147500J0D01*
G01*
G37*
G36*
G01*
X349427500Y-195190000D02*
X349772500Y-195190000D01*
G75*
G02*
X349920000Y-195337500I0J-147500D01*
G01*
X349920000Y-195632500D01*
G75*
G02*
X349772500Y-195780000I-147500J0D01*
G01*
X349427500Y-195780000D01*
G75*
G02*
X349280000Y-195632500I0J147500D01*
G01*
X349280000Y-195337500D01*
G75*
G02*
X349427500Y-195190000I147500J0D01*
G01*
G37*
G36*
G01*
X349427500Y-194220000D02*
X349772500Y-194220000D01*
G75*
G02*
X349920000Y-194367500I0J-147500D01*
G01*
X349920000Y-194662500D01*
G75*
G02*
X349772500Y-194810000I-147500J0D01*
G01*
X349427500Y-194810000D01*
G75*
G02*
X349280000Y-194662500I0J147500D01*
G01*
X349280000Y-194367500D01*
G75*
G02*
X349427500Y-194220000I147500J0D01*
G01*
G37*
G36*
G01*
X351427500Y-194220000D02*
X351772500Y-194220000D01*
G75*
G02*
X351920000Y-194367500I0J-147500D01*
G01*
X351920000Y-194662500D01*
G75*
G02*
X351772500Y-194810000I-147500J0D01*
G01*
X351427500Y-194810000D01*
G75*
G02*
X351280000Y-194662500I0J147500D01*
G01*
X351280000Y-194367500D01*
G75*
G02*
X351427500Y-194220000I147500J0D01*
G01*
G37*
G36*
G01*
X351427500Y-195190000D02*
X351772500Y-195190000D01*
G75*
G02*
X351920000Y-195337500I0J-147500D01*
G01*
X351920000Y-195632500D01*
G75*
G02*
X351772500Y-195780000I-147500J0D01*
G01*
X351427500Y-195780000D01*
G75*
G02*
X351280000Y-195632500I0J147500D01*
G01*
X351280000Y-195337500D01*
G75*
G02*
X351427500Y-195190000I147500J0D01*
G01*
G37*
G36*
G01*
X353427500Y-195190000D02*
X353772500Y-195190000D01*
G75*
G02*
X353920000Y-195337500I0J-147500D01*
G01*
X353920000Y-195632500D01*
G75*
G02*
X353772500Y-195780000I-147500J0D01*
G01*
X353427500Y-195780000D01*
G75*
G02*
X353280000Y-195632500I0J147500D01*
G01*
X353280000Y-195337500D01*
G75*
G02*
X353427500Y-195190000I147500J0D01*
G01*
G37*
G36*
G01*
X353427500Y-194220000D02*
X353772500Y-194220000D01*
G75*
G02*
X353920000Y-194367500I0J-147500D01*
G01*
X353920000Y-194662500D01*
G75*
G02*
X353772500Y-194810000I-147500J0D01*
G01*
X353427500Y-194810000D01*
G75*
G02*
X353280000Y-194662500I0J147500D01*
G01*
X353280000Y-194367500D01*
G75*
G02*
X353427500Y-194220000I147500J0D01*
G01*
G37*
G36*
G01*
X355427500Y-194220000D02*
X355772500Y-194220000D01*
G75*
G02*
X355920000Y-194367500I0J-147500D01*
G01*
X355920000Y-194662500D01*
G75*
G02*
X355772500Y-194810000I-147500J0D01*
G01*
X355427500Y-194810000D01*
G75*
G02*
X355280000Y-194662500I0J147500D01*
G01*
X355280000Y-194367500D01*
G75*
G02*
X355427500Y-194220000I147500J0D01*
G01*
G37*
G36*
G01*
X355427500Y-195190000D02*
X355772500Y-195190000D01*
G75*
G02*
X355920000Y-195337500I0J-147500D01*
G01*
X355920000Y-195632500D01*
G75*
G02*
X355772500Y-195780000I-147500J0D01*
G01*
X355427500Y-195780000D01*
G75*
G02*
X355280000Y-195632500I0J147500D01*
G01*
X355280000Y-195337500D01*
G75*
G02*
X355427500Y-195190000I147500J0D01*
G01*
G37*
G36*
G01*
X357427500Y-194220000D02*
X357772500Y-194220000D01*
G75*
G02*
X357920000Y-194367500I0J-147500D01*
G01*
X357920000Y-194662500D01*
G75*
G02*
X357772500Y-194810000I-147500J0D01*
G01*
X357427500Y-194810000D01*
G75*
G02*
X357280000Y-194662500I0J147500D01*
G01*
X357280000Y-194367500D01*
G75*
G02*
X357427500Y-194220000I147500J0D01*
G01*
G37*
G36*
G01*
X357427500Y-195190000D02*
X357772500Y-195190000D01*
G75*
G02*
X357920000Y-195337500I0J-147500D01*
G01*
X357920000Y-195632500D01*
G75*
G02*
X357772500Y-195780000I-147500J0D01*
G01*
X357427500Y-195780000D01*
G75*
G02*
X357280000Y-195632500I0J147500D01*
G01*
X357280000Y-195337500D01*
G75*
G02*
X357427500Y-195190000I147500J0D01*
G01*
G37*
G36*
G01*
X359427500Y-194220000D02*
X359772500Y-194220000D01*
G75*
G02*
X359920000Y-194367500I0J-147500D01*
G01*
X359920000Y-194662500D01*
G75*
G02*
X359772500Y-194810000I-147500J0D01*
G01*
X359427500Y-194810000D01*
G75*
G02*
X359280000Y-194662500I0J147500D01*
G01*
X359280000Y-194367500D01*
G75*
G02*
X359427500Y-194220000I147500J0D01*
G01*
G37*
G36*
G01*
X359427500Y-195190000D02*
X359772500Y-195190000D01*
G75*
G02*
X359920000Y-195337500I0J-147500D01*
G01*
X359920000Y-195632500D01*
G75*
G02*
X359772500Y-195780000I-147500J0D01*
G01*
X359427500Y-195780000D01*
G75*
G02*
X359280000Y-195632500I0J147500D01*
G01*
X359280000Y-195337500D01*
G75*
G02*
X359427500Y-195190000I147500J0D01*
G01*
G37*
G36*
G01*
X361427500Y-195190000D02*
X361772500Y-195190000D01*
G75*
G02*
X361920000Y-195337500I0J-147500D01*
G01*
X361920000Y-195632500D01*
G75*
G02*
X361772500Y-195780000I-147500J0D01*
G01*
X361427500Y-195780000D01*
G75*
G02*
X361280000Y-195632500I0J147500D01*
G01*
X361280000Y-195337500D01*
G75*
G02*
X361427500Y-195190000I147500J0D01*
G01*
G37*
G36*
G01*
X361427500Y-194220000D02*
X361772500Y-194220000D01*
G75*
G02*
X361920000Y-194367500I0J-147500D01*
G01*
X361920000Y-194662500D01*
G75*
G02*
X361772500Y-194810000I-147500J0D01*
G01*
X361427500Y-194810000D01*
G75*
G02*
X361280000Y-194662500I0J147500D01*
G01*
X361280000Y-194367500D01*
G75*
G02*
X361427500Y-194220000I147500J0D01*
G01*
G37*
G36*
G01*
X363427500Y-195190000D02*
X363772500Y-195190000D01*
G75*
G02*
X363920000Y-195337500I0J-147500D01*
G01*
X363920000Y-195632500D01*
G75*
G02*
X363772500Y-195780000I-147500J0D01*
G01*
X363427500Y-195780000D01*
G75*
G02*
X363280000Y-195632500I0J147500D01*
G01*
X363280000Y-195337500D01*
G75*
G02*
X363427500Y-195190000I147500J0D01*
G01*
G37*
G36*
G01*
X363427500Y-194220000D02*
X363772500Y-194220000D01*
G75*
G02*
X363920000Y-194367500I0J-147500D01*
G01*
X363920000Y-194662500D01*
G75*
G02*
X363772500Y-194810000I-147500J0D01*
G01*
X363427500Y-194810000D01*
G75*
G02*
X363280000Y-194662500I0J147500D01*
G01*
X363280000Y-194367500D01*
G75*
G02*
X363427500Y-194220000I147500J0D01*
G01*
G37*
G36*
G01*
X364170000Y-109297500D02*
X364170000Y-108822500D01*
G75*
G02*
X364407500Y-108585000I237500J0D01*
G01*
X364982500Y-108585000D01*
G75*
G02*
X365220000Y-108822500I0J-237500D01*
G01*
X365220000Y-109297500D01*
G75*
G02*
X364982500Y-109535000I-237500J0D01*
G01*
X364407500Y-109535000D01*
G75*
G02*
X364170000Y-109297500I0J237500D01*
G01*
G37*
G36*
G01*
X362420000Y-109297500D02*
X362420000Y-108822500D01*
G75*
G02*
X362657500Y-108585000I237500J0D01*
G01*
X363232500Y-108585000D01*
G75*
G02*
X363470000Y-108822500I0J-237500D01*
G01*
X363470000Y-109297500D01*
G75*
G02*
X363232500Y-109535000I-237500J0D01*
G01*
X362657500Y-109535000D01*
G75*
G02*
X362420000Y-109297500I0J237500D01*
G01*
G37*
G36*
G01*
X362420000Y-107767500D02*
X362420000Y-107292500D01*
G75*
G02*
X362657500Y-107055000I237500J0D01*
G01*
X363232500Y-107055000D01*
G75*
G02*
X363470000Y-107292500I0J-237500D01*
G01*
X363470000Y-107767500D01*
G75*
G02*
X363232500Y-108005000I-237500J0D01*
G01*
X362657500Y-108005000D01*
G75*
G02*
X362420000Y-107767500I0J237500D01*
G01*
G37*
G36*
G01*
X364170000Y-107767500D02*
X364170000Y-107292500D01*
G75*
G02*
X364407500Y-107055000I237500J0D01*
G01*
X364982500Y-107055000D01*
G75*
G02*
X365220000Y-107292500I0J-237500D01*
G01*
X365220000Y-107767500D01*
G75*
G02*
X364982500Y-108005000I-237500J0D01*
G01*
X364407500Y-108005000D01*
G75*
G02*
X364170000Y-107767500I0J237500D01*
G01*
G37*
G36*
G01*
X362425000Y-106242500D02*
X362425000Y-105767500D01*
G75*
G02*
X362662500Y-105530000I237500J0D01*
G01*
X363237500Y-105530000D01*
G75*
G02*
X363475000Y-105767500I0J-237500D01*
G01*
X363475000Y-106242500D01*
G75*
G02*
X363237500Y-106480000I-237500J0D01*
G01*
X362662500Y-106480000D01*
G75*
G02*
X362425000Y-106242500I0J237500D01*
G01*
G37*
G36*
G01*
X364175000Y-106242500D02*
X364175000Y-105767500D01*
G75*
G02*
X364412500Y-105530000I237500J0D01*
G01*
X364987500Y-105530000D01*
G75*
G02*
X365225000Y-105767500I0J-237500D01*
G01*
X365225000Y-106242500D01*
G75*
G02*
X364987500Y-106480000I-237500J0D01*
G01*
X364412500Y-106480000D01*
G75*
G02*
X364175000Y-106242500I0J237500D01*
G01*
G37*
G36*
G01*
X368150000Y-157037500D02*
X368150000Y-157512500D01*
G75*
G02*
X367912500Y-157750000I-237500J0D01*
G01*
X367337500Y-157750000D01*
G75*
G02*
X367100000Y-157512500I0J237500D01*
G01*
X367100000Y-157037500D01*
G75*
G02*
X367337500Y-156800000I237500J0D01*
G01*
X367912500Y-156800000D01*
G75*
G02*
X368150000Y-157037500I0J-237500D01*
G01*
G37*
G36*
G01*
X366400000Y-157037500D02*
X366400000Y-157512500D01*
G75*
G02*
X366162500Y-157750000I-237500J0D01*
G01*
X365587500Y-157750000D01*
G75*
G02*
X365350000Y-157512500I0J237500D01*
G01*
X365350000Y-157037500D01*
G75*
G02*
X365587500Y-156800000I237500J0D01*
G01*
X366162500Y-156800000D01*
G75*
G02*
X366400000Y-157037500I0J-237500D01*
G01*
G37*
G36*
G01*
X356107500Y-105195000D02*
X355632500Y-105195000D01*
G75*
G02*
X355395000Y-104957500I0J237500D01*
G01*
X355395000Y-104382500D01*
G75*
G02*
X355632500Y-104145000I237500J0D01*
G01*
X356107500Y-104145000D01*
G75*
G02*
X356345000Y-104382500I0J-237500D01*
G01*
X356345000Y-104957500D01*
G75*
G02*
X356107500Y-105195000I-237500J0D01*
G01*
G37*
G36*
G01*
X356107500Y-103445000D02*
X355632500Y-103445000D01*
G75*
G02*
X355395000Y-103207500I0J237500D01*
G01*
X355395000Y-102632500D01*
G75*
G02*
X355632500Y-102395000I237500J0D01*
G01*
X356107500Y-102395000D01*
G75*
G02*
X356345000Y-102632500I0J-237500D01*
G01*
X356345000Y-103207500D01*
G75*
G02*
X356107500Y-103445000I-237500J0D01*
G01*
G37*
G36*
G01*
X353347500Y-106415000D02*
X352872500Y-106415000D01*
G75*
G02*
X352635000Y-106177500I0J237500D01*
G01*
X352635000Y-105602500D01*
G75*
G02*
X352872500Y-105365000I237500J0D01*
G01*
X353347500Y-105365000D01*
G75*
G02*
X353585000Y-105602500I0J-237500D01*
G01*
X353585000Y-106177500D01*
G75*
G02*
X353347500Y-106415000I-237500J0D01*
G01*
G37*
G36*
G01*
X353347500Y-104665000D02*
X352872500Y-104665000D01*
G75*
G02*
X352635000Y-104427500I0J237500D01*
G01*
X352635000Y-103852500D01*
G75*
G02*
X352872500Y-103615000I237500J0D01*
G01*
X353347500Y-103615000D01*
G75*
G02*
X353585000Y-103852500I0J-237500D01*
G01*
X353585000Y-104427500D01*
G75*
G02*
X353347500Y-104665000I-237500J0D01*
G01*
G37*
G36*
G01*
X350820000Y-108072500D02*
X350820000Y-108547500D01*
G75*
G02*
X350582500Y-108785000I-237500J0D01*
G01*
X350007500Y-108785000D01*
G75*
G02*
X349770000Y-108547500I0J237500D01*
G01*
X349770000Y-108072500D01*
G75*
G02*
X350007500Y-107835000I237500J0D01*
G01*
X350582500Y-107835000D01*
G75*
G02*
X350820000Y-108072500I0J-237500D01*
G01*
G37*
G36*
G01*
X352570000Y-108072500D02*
X352570000Y-108547500D01*
G75*
G02*
X352332500Y-108785000I-237500J0D01*
G01*
X351757500Y-108785000D01*
G75*
G02*
X351520000Y-108547500I0J237500D01*
G01*
X351520000Y-108072500D01*
G75*
G02*
X351757500Y-107835000I237500J0D01*
G01*
X352332500Y-107835000D01*
G75*
G02*
X352570000Y-108072500I0J-237500D01*
G01*
G37*
G36*
G01*
X327804999Y-166620000D02*
X328705001Y-166620000D01*
G75*
G02*
X328955000Y-166869999I0J-249999D01*
G01*
X328955000Y-167520001D01*
G75*
G02*
X328705001Y-167770000I-249999J0D01*
G01*
X327804999Y-167770000D01*
G75*
G02*
X327555000Y-167520001I0J249999D01*
G01*
X327555000Y-166869999D01*
G75*
G02*
X327804999Y-166620000I249999J0D01*
G01*
G37*
G36*
G01*
X327804999Y-164570000D02*
X328705001Y-164570000D01*
G75*
G02*
X328955000Y-164819999I0J-249999D01*
G01*
X328955000Y-165470001D01*
G75*
G02*
X328705001Y-165720000I-249999J0D01*
G01*
X327804999Y-165720000D01*
G75*
G02*
X327555000Y-165470001I0J249999D01*
G01*
X327555000Y-164819999D01*
G75*
G02*
X327804999Y-164570000I249999J0D01*
G01*
G37*
D38*
X200000000Y-105000000D03*
D37*
X202540000Y-105000000D03*
X226540000Y-105000000D03*
D38*
X224000000Y-105000000D03*
D37*
X210540000Y-105000000D03*
D38*
X208000000Y-105000000D03*
X264000000Y-105000000D03*
D37*
X266540000Y-105000000D03*
X234540000Y-105000000D03*
D38*
X232000000Y-105000000D03*
X216000000Y-105000000D03*
D37*
X218540000Y-105000000D03*
D38*
X256000000Y-105000000D03*
D37*
X258540000Y-105000000D03*
X250540000Y-105000000D03*
D38*
X248000000Y-105000000D03*
D37*
X306540000Y-105000000D03*
D38*
X304000000Y-105000000D03*
X296000000Y-105000000D03*
D37*
X298540000Y-105000000D03*
X290540000Y-105000000D03*
D38*
X288000000Y-105000000D03*
X280000000Y-105000000D03*
D37*
X282540000Y-105000000D03*
D42*
X475520000Y-106390000D03*
X480600000Y-106390000D03*
X480600000Y-101310000D03*
X475520000Y-101310000D03*
X478060000Y-103850000D03*
X455240000Y-103800000D03*
X452700000Y-101260000D03*
X457780000Y-101260000D03*
X457780000Y-106340000D03*
X452700000Y-106340000D03*
X417110000Y-170860000D03*
X412030000Y-170860000D03*
X412030000Y-175940000D03*
X417110000Y-175940000D03*
X414570000Y-173400000D03*
X320350000Y-173480000D03*
X322890000Y-176020000D03*
X317810000Y-176020000D03*
X317810000Y-170940000D03*
X322890000Y-170940000D03*
D16*
X225210001Y-147809999D03*
D15*
X227750001Y-147809999D03*
X227750001Y-152459999D03*
D16*
X225210001Y-152459999D03*
G36*
G01*
X469632501Y-105310001D02*
X470107501Y-105310001D01*
G75*
G02*
X470345001Y-105547501I0J-237500D01*
G01*
X470345001Y-106122501D01*
G75*
G02*
X470107501Y-106360001I-237500J0D01*
G01*
X469632501Y-106360001D01*
G75*
G02*
X469395001Y-106122501I0J237500D01*
G01*
X469395001Y-105547501D01*
G75*
G02*
X469632501Y-105310001I237500J0D01*
G01*
G37*
G36*
G01*
X469632501Y-107060001D02*
X470107501Y-107060001D01*
G75*
G02*
X470345001Y-107297501I0J-237500D01*
G01*
X470345001Y-107872501D01*
G75*
G02*
X470107501Y-108110001I-237500J0D01*
G01*
X469632501Y-108110001D01*
G75*
G02*
X469395001Y-107872501I0J237500D01*
G01*
X469395001Y-107297501D01*
G75*
G02*
X469632501Y-107060001I237500J0D01*
G01*
G37*
G36*
G01*
X466497500Y-106400000D02*
X466022500Y-106400000D01*
G75*
G02*
X465785000Y-106162500I0J237500D01*
G01*
X465785000Y-105587500D01*
G75*
G02*
X466022500Y-105350000I237500J0D01*
G01*
X466497500Y-105350000D01*
G75*
G02*
X466735000Y-105587500I0J-237500D01*
G01*
X466735000Y-106162500D01*
G75*
G02*
X466497500Y-106400000I-237500J0D01*
G01*
G37*
G36*
G01*
X466497500Y-108150000D02*
X466022500Y-108150000D01*
G75*
G02*
X465785000Y-107912500I0J237500D01*
G01*
X465785000Y-107337500D01*
G75*
G02*
X466022500Y-107100000I237500J0D01*
G01*
X466497500Y-107100000D01*
G75*
G02*
X466735000Y-107337500I0J-237500D01*
G01*
X466735000Y-107912500D01*
G75*
G02*
X466497500Y-108150000I-237500J0D01*
G01*
G37*
G36*
G01*
X203250001Y-108850000D02*
X202349999Y-108850000D01*
G75*
G02*
X202100000Y-108600001I0J249999D01*
G01*
X202100000Y-107949999D01*
G75*
G02*
X202349999Y-107700000I249999J0D01*
G01*
X203250001Y-107700000D01*
G75*
G02*
X203500000Y-107949999I0J-249999D01*
G01*
X203500000Y-108600001D01*
G75*
G02*
X203250001Y-108850000I-249999J0D01*
G01*
G37*
G36*
G01*
X203250001Y-110900000D02*
X202349999Y-110900000D01*
G75*
G02*
X202100000Y-110650001I0J249999D01*
G01*
X202100000Y-109999999D01*
G75*
G02*
X202349999Y-109750000I249999J0D01*
G01*
X203250001Y-109750000D01*
G75*
G02*
X203500000Y-109999999I0J-249999D01*
G01*
X203500000Y-110650001D01*
G75*
G02*
X203250001Y-110900000I-249999J0D01*
G01*
G37*
G36*
G01*
X227237500Y-108750000D02*
X226762500Y-108750000D01*
G75*
G02*
X226525000Y-108512500I0J237500D01*
G01*
X226525000Y-107937500D01*
G75*
G02*
X226762500Y-107700000I237500J0D01*
G01*
X227237500Y-107700000D01*
G75*
G02*
X227475000Y-107937500I0J-237500D01*
G01*
X227475000Y-108512500D01*
G75*
G02*
X227237500Y-108750000I-237500J0D01*
G01*
G37*
G36*
G01*
X227237500Y-110500000D02*
X226762500Y-110500000D01*
G75*
G02*
X226525000Y-110262500I0J237500D01*
G01*
X226525000Y-109687500D01*
G75*
G02*
X226762500Y-109450000I237500J0D01*
G01*
X227237500Y-109450000D01*
G75*
G02*
X227475000Y-109687500I0J-237500D01*
G01*
X227475000Y-110262500D01*
G75*
G02*
X227237500Y-110500000I-237500J0D01*
G01*
G37*
G36*
G01*
X211225000Y-109125000D02*
X209975000Y-109125000D01*
G75*
G02*
X209725000Y-108875000I0J250000D01*
G01*
X209725000Y-107950000D01*
G75*
G02*
X209975000Y-107700000I250000J0D01*
G01*
X211225000Y-107700000D01*
G75*
G02*
X211475000Y-107950000I0J-250000D01*
G01*
X211475000Y-108875000D01*
G75*
G02*
X211225000Y-109125000I-250000J0D01*
G01*
G37*
G36*
G01*
X211225000Y-112100000D02*
X209975000Y-112100000D01*
G75*
G02*
X209725000Y-111850000I0J250000D01*
G01*
X209725000Y-110925000D01*
G75*
G02*
X209975000Y-110675000I250000J0D01*
G01*
X211225000Y-110675000D01*
G75*
G02*
X211475000Y-110925000I0J-250000D01*
G01*
X211475000Y-111850000D01*
G75*
G02*
X211225000Y-112100000I-250000J0D01*
G01*
G37*
G36*
G01*
X263757500Y-108735000D02*
X263282500Y-108735000D01*
G75*
G02*
X263045000Y-108497500I0J237500D01*
G01*
X263045000Y-107922500D01*
G75*
G02*
X263282500Y-107685000I237500J0D01*
G01*
X263757500Y-107685000D01*
G75*
G02*
X263995000Y-107922500I0J-237500D01*
G01*
X263995000Y-108497500D01*
G75*
G02*
X263757500Y-108735000I-237500J0D01*
G01*
G37*
G36*
G01*
X263757500Y-110485000D02*
X263282500Y-110485000D01*
G75*
G02*
X263045000Y-110247500I0J237500D01*
G01*
X263045000Y-109672500D01*
G75*
G02*
X263282500Y-109435000I237500J0D01*
G01*
X263757500Y-109435000D01*
G75*
G02*
X263995000Y-109672500I0J-237500D01*
G01*
X263995000Y-110247500D01*
G75*
G02*
X263757500Y-110485000I-237500J0D01*
G01*
G37*
G36*
G01*
X252500000Y-196750000D02*
X252500000Y-195500000D01*
G75*
G02*
X252750000Y-195250000I250000J0D01*
G01*
X253675000Y-195250000D01*
G75*
G02*
X253925000Y-195500000I0J-250000D01*
G01*
X253925000Y-196750000D01*
G75*
G02*
X253675000Y-197000000I-250000J0D01*
G01*
X252750000Y-197000000D01*
G75*
G02*
X252500000Y-196750000I0J250000D01*
G01*
G37*
G36*
G01*
X249525000Y-196750000D02*
X249525000Y-195500000D01*
G75*
G02*
X249775000Y-195250000I250000J0D01*
G01*
X250700000Y-195250000D01*
G75*
G02*
X250950000Y-195500000I0J-250000D01*
G01*
X250950000Y-196750000D01*
G75*
G02*
X250700000Y-197000000I-250000J0D01*
G01*
X249775000Y-197000000D01*
G75*
G02*
X249525000Y-196750000I0J250000D01*
G01*
G37*
G36*
G01*
X247732500Y-108735000D02*
X247257500Y-108735000D01*
G75*
G02*
X247020000Y-108497500I0J237500D01*
G01*
X247020000Y-107922500D01*
G75*
G02*
X247257500Y-107685000I237500J0D01*
G01*
X247732500Y-107685000D01*
G75*
G02*
X247970000Y-107922500I0J-237500D01*
G01*
X247970000Y-108497500D01*
G75*
G02*
X247732500Y-108735000I-237500J0D01*
G01*
G37*
G36*
G01*
X247732500Y-110485000D02*
X247257500Y-110485000D01*
G75*
G02*
X247020000Y-110247500I0J237500D01*
G01*
X247020000Y-109672500D01*
G75*
G02*
X247257500Y-109435000I237500J0D01*
G01*
X247732500Y-109435000D01*
G75*
G02*
X247970000Y-109672500I0J-237500D01*
G01*
X247970000Y-110247500D01*
G75*
G02*
X247732500Y-110485000I-237500J0D01*
G01*
G37*
G36*
G01*
X429532500Y-158910000D02*
X430007500Y-158910000D01*
G75*
G02*
X430245000Y-159147500I0J-237500D01*
G01*
X430245000Y-159722500D01*
G75*
G02*
X430007500Y-159960000I-237500J0D01*
G01*
X429532500Y-159960000D01*
G75*
G02*
X429295000Y-159722500I0J237500D01*
G01*
X429295000Y-159147500D01*
G75*
G02*
X429532500Y-158910000I237500J0D01*
G01*
G37*
G36*
G01*
X429532500Y-160660000D02*
X430007500Y-160660000D01*
G75*
G02*
X430245000Y-160897500I0J-237500D01*
G01*
X430245000Y-161472500D01*
G75*
G02*
X430007500Y-161710000I-237500J0D01*
G01*
X429532500Y-161710000D01*
G75*
G02*
X429295000Y-161472500I0J237500D01*
G01*
X429295000Y-160897500D01*
G75*
G02*
X429532500Y-160660000I237500J0D01*
G01*
G37*
G36*
G01*
X437490000Y-148657500D02*
X437490000Y-148182500D01*
G75*
G02*
X437727500Y-147945000I237500J0D01*
G01*
X438302500Y-147945000D01*
G75*
G02*
X438540000Y-148182500I0J-237500D01*
G01*
X438540000Y-148657500D01*
G75*
G02*
X438302500Y-148895000I-237500J0D01*
G01*
X437727500Y-148895000D01*
G75*
G02*
X437490000Y-148657500I0J237500D01*
G01*
G37*
G36*
G01*
X435740000Y-148657500D02*
X435740000Y-148182500D01*
G75*
G02*
X435977500Y-147945000I237500J0D01*
G01*
X436552500Y-147945000D01*
G75*
G02*
X436790000Y-148182500I0J-237500D01*
G01*
X436790000Y-148657500D01*
G75*
G02*
X436552500Y-148895000I-237500J0D01*
G01*
X435977500Y-148895000D01*
G75*
G02*
X435740000Y-148657500I0J237500D01*
G01*
G37*
G36*
G01*
X429612500Y-151490000D02*
X430087500Y-151490000D01*
G75*
G02*
X430325000Y-151727500I0J-237500D01*
G01*
X430325000Y-152302500D01*
G75*
G02*
X430087500Y-152540000I-237500J0D01*
G01*
X429612500Y-152540000D01*
G75*
G02*
X429375000Y-152302500I0J237500D01*
G01*
X429375000Y-151727500D01*
G75*
G02*
X429612500Y-151490000I237500J0D01*
G01*
G37*
G36*
G01*
X429612500Y-149740000D02*
X430087500Y-149740000D01*
G75*
G02*
X430325000Y-149977500I0J-237500D01*
G01*
X430325000Y-150552500D01*
G75*
G02*
X430087500Y-150790000I-237500J0D01*
G01*
X429612500Y-150790000D01*
G75*
G02*
X429375000Y-150552500I0J237500D01*
G01*
X429375000Y-149977500D01*
G75*
G02*
X429612500Y-149740000I237500J0D01*
G01*
G37*
G36*
G01*
X446055000Y-132105000D02*
X444805000Y-132105000D01*
G75*
G02*
X444555000Y-131855000I0J250000D01*
G01*
X444555000Y-130930000D01*
G75*
G02*
X444805000Y-130680000I250000J0D01*
G01*
X446055000Y-130680000D01*
G75*
G02*
X446305000Y-130930000I0J-250000D01*
G01*
X446305000Y-131855000D01*
G75*
G02*
X446055000Y-132105000I-250000J0D01*
G01*
G37*
G36*
G01*
X446055000Y-135080000D02*
X444805000Y-135080000D01*
G75*
G02*
X444555000Y-134830000I0J250000D01*
G01*
X444555000Y-133905000D01*
G75*
G02*
X444805000Y-133655000I250000J0D01*
G01*
X446055000Y-133655000D01*
G75*
G02*
X446305000Y-133905000I0J-250000D01*
G01*
X446305000Y-134830000D01*
G75*
G02*
X446055000Y-135080000I-250000J0D01*
G01*
G37*
D43*
X253400000Y-176750000D03*
X253400000Y-178650000D03*
X250700000Y-178650000D03*
X250700000Y-177700000D03*
X250700000Y-176750000D03*
D36*
X249590000Y-134000000D03*
X249590000Y-134950000D03*
X249590000Y-135900000D03*
X253010000Y-135900000D03*
X253010000Y-134000000D03*
D44*
X251825000Y-171100000D03*
X251825000Y-169400000D03*
X251825000Y-167700000D03*
X251825000Y-166000000D03*
X251825000Y-164300000D03*
D45*
X242675000Y-167700000D03*
D44*
X251625000Y-192650000D03*
X251625000Y-190950000D03*
X251625000Y-189250000D03*
X251625000Y-187550000D03*
X251625000Y-185850000D03*
D45*
X242475000Y-189250000D03*
X242425000Y-120775000D03*
D44*
X251575000Y-117375000D03*
X251575000Y-119075000D03*
X251575000Y-120775000D03*
X251575000Y-122475000D03*
X251575000Y-124175000D03*
D46*
X374850000Y-113500000D03*
X374850000Y-113000000D03*
X374850000Y-112500000D03*
X374850000Y-112000000D03*
X374850000Y-111500000D03*
X374850000Y-111000000D03*
X374850000Y-110500000D03*
X374850000Y-110000000D03*
X374850000Y-109500000D03*
X374850000Y-109000000D03*
X374850000Y-108500000D03*
X374850000Y-108000000D03*
X374850000Y-107500000D03*
X374850000Y-107000000D03*
X374850000Y-106500000D03*
X380550000Y-106500000D03*
X380550000Y-107000000D03*
X380550000Y-107500000D03*
X380550000Y-108000000D03*
X380550000Y-108500000D03*
X380550000Y-109000000D03*
X380550000Y-109500000D03*
X380550000Y-110000000D03*
X380550000Y-110500000D03*
X380550000Y-111000000D03*
X380550000Y-111500000D03*
X380550000Y-112000000D03*
X380550000Y-112500000D03*
X380550000Y-113000000D03*
X380550000Y-113500000D03*
X360550000Y-113500000D03*
X360550000Y-113000000D03*
X360550000Y-112500000D03*
X360550000Y-112000000D03*
X360550000Y-111500000D03*
X360550000Y-111000000D03*
X360550000Y-110500000D03*
X360550000Y-110000000D03*
X360550000Y-109500000D03*
X360550000Y-109000000D03*
X360550000Y-108500000D03*
X360550000Y-108000000D03*
X360550000Y-107500000D03*
X360550000Y-107000000D03*
X360550000Y-106500000D03*
X354850000Y-106500000D03*
X354850000Y-107000000D03*
X354850000Y-107500000D03*
X354850000Y-108000000D03*
X354850000Y-108500000D03*
X354850000Y-109000000D03*
X354850000Y-109500000D03*
X354850000Y-110000000D03*
X354850000Y-110500000D03*
X354850000Y-111000000D03*
X354850000Y-111500000D03*
X354850000Y-112000000D03*
X354850000Y-112500000D03*
X354850000Y-113000000D03*
X354850000Y-113500000D03*
D39*
X546375000Y-207380000D03*
D40*
X547000000Y-201600000D03*
D39*
X492375000Y-207380000D03*
D40*
X491750000Y-201600000D03*
D41*
X542975000Y-206785000D03*
X542975000Y-205035000D03*
X542175000Y-206785000D03*
X542175000Y-205035000D03*
X541375000Y-206785000D03*
X541375000Y-205035000D03*
X540575000Y-206785000D03*
X540575000Y-205035000D03*
X539775000Y-206785000D03*
X539775000Y-205035000D03*
X538975000Y-206785000D03*
X538975000Y-205035000D03*
X538175000Y-206785000D03*
X538175000Y-205035000D03*
X537375000Y-206785000D03*
X537375000Y-205035000D03*
X536575000Y-206785000D03*
X536575000Y-205035000D03*
X535775000Y-206785000D03*
X535775000Y-205035000D03*
X534975000Y-206785000D03*
X534975000Y-205035000D03*
X534175000Y-206785000D03*
X534175000Y-205035000D03*
X533375000Y-206785000D03*
X533375000Y-205035000D03*
X532575000Y-206785000D03*
X532575000Y-205035000D03*
X531775000Y-206785000D03*
X531775000Y-205035000D03*
X530975000Y-206785000D03*
X530975000Y-205035000D03*
X530175000Y-206785000D03*
X530175000Y-205035000D03*
X529375000Y-206785000D03*
X529375000Y-205035000D03*
X528575000Y-206785000D03*
X528575000Y-205035000D03*
X527775000Y-206785000D03*
X527775000Y-205035000D03*
X526975000Y-206785000D03*
X526975000Y-205035000D03*
X526175000Y-206785000D03*
X526175000Y-205035000D03*
X525375000Y-206785000D03*
X525375000Y-205035000D03*
X524575000Y-206785000D03*
X524575000Y-205035000D03*
X523775000Y-206785000D03*
X523775000Y-205035000D03*
X522975000Y-206785000D03*
X522975000Y-205035000D03*
X522175000Y-206785000D03*
X522175000Y-205035000D03*
X521375000Y-206785000D03*
X521375000Y-205035000D03*
X520575000Y-206785000D03*
X520575000Y-205035000D03*
X519775000Y-206785000D03*
X519775000Y-205035000D03*
X518975000Y-206785000D03*
X518975000Y-205035000D03*
X518175000Y-206785000D03*
X518175000Y-205035000D03*
X517375000Y-206785000D03*
X517375000Y-205035000D03*
X516575000Y-206785000D03*
X516575000Y-205035000D03*
X515775000Y-206785000D03*
X515775000Y-205035000D03*
X514975000Y-206785000D03*
X514975000Y-205035000D03*
X514175000Y-206785000D03*
X514175000Y-205035000D03*
X513375000Y-206785000D03*
X513375000Y-205035000D03*
X512575000Y-206785000D03*
X512575000Y-205035000D03*
X511775000Y-206785000D03*
X511775000Y-205035000D03*
X510975000Y-206785000D03*
X510975000Y-205035000D03*
X510175000Y-206785000D03*
X510175000Y-205035000D03*
X509375000Y-206785000D03*
X509375000Y-205035000D03*
X508575000Y-206785000D03*
X508575000Y-205035000D03*
X507775000Y-206785000D03*
X507775000Y-205035000D03*
X506975000Y-206785000D03*
X506975000Y-205035000D03*
X506175000Y-206785000D03*
X506175000Y-205035000D03*
X505375000Y-206785000D03*
X505375000Y-205035000D03*
X504575000Y-206785000D03*
X504575000Y-205035000D03*
X503775000Y-206785000D03*
X503775000Y-205035000D03*
X502975000Y-206785000D03*
X502975000Y-205035000D03*
X502175000Y-206785000D03*
X502175000Y-205035000D03*
X501375000Y-206785000D03*
X501375000Y-205035000D03*
X500575000Y-206785000D03*
X500575000Y-205035000D03*
X499775000Y-206785000D03*
X499775000Y-205035000D03*
X498975000Y-206785000D03*
X498975000Y-205035000D03*
X498175000Y-206785000D03*
X498175000Y-205035000D03*
X497375000Y-206785000D03*
X497375000Y-205035000D03*
X496575000Y-206785000D03*
X496575000Y-205035000D03*
X495775000Y-206785000D03*
X495775000Y-205035000D03*
D32*
X547000000Y-205600000D03*
X491750000Y-205600000D03*
D39*
X470625000Y-207380000D03*
D40*
X471250000Y-201600000D03*
D39*
X416625000Y-207380000D03*
D40*
X416000000Y-201600000D03*
D41*
X467225000Y-206785000D03*
X467225000Y-205035000D03*
X466425000Y-206785000D03*
X466425000Y-205035000D03*
X465625000Y-206785000D03*
X465625000Y-205035000D03*
X464825000Y-206785000D03*
X464825000Y-205035000D03*
X464025000Y-206785000D03*
X464025000Y-205035000D03*
X463225000Y-206785000D03*
X463225000Y-205035000D03*
X462425000Y-206785000D03*
X462425000Y-205035000D03*
X461625000Y-206785000D03*
X461625000Y-205035000D03*
X460825000Y-206785000D03*
X460825000Y-205035000D03*
X460025000Y-206785000D03*
X460025000Y-205035000D03*
X459225000Y-206785000D03*
X459225000Y-205035000D03*
X458425000Y-206785000D03*
X458425000Y-205035000D03*
X457625000Y-206785000D03*
X457625000Y-205035000D03*
X456825000Y-206785000D03*
X456825000Y-205035000D03*
X456025000Y-206785000D03*
X456025000Y-205035000D03*
X455225000Y-206785000D03*
X455225000Y-205035000D03*
X454425000Y-206785000D03*
X454425000Y-205035000D03*
X453625000Y-206785000D03*
X453625000Y-205035000D03*
X452825000Y-206785000D03*
X452825000Y-205035000D03*
X452025000Y-206785000D03*
X452025000Y-205035000D03*
X451225000Y-206785000D03*
X451225000Y-205035000D03*
X450425000Y-206785000D03*
X450425000Y-205035000D03*
X449625000Y-206785000D03*
X449625000Y-205035000D03*
X448825000Y-206785000D03*
X448825000Y-205035000D03*
X448025000Y-206785000D03*
X448025000Y-205035000D03*
X447225000Y-206785000D03*
X447225000Y-205035000D03*
X446425000Y-206785000D03*
X446425000Y-205035000D03*
X445625000Y-206785000D03*
X445625000Y-205035000D03*
X444825000Y-206785000D03*
X444825000Y-205035000D03*
X444025000Y-206785000D03*
X444025000Y-205035000D03*
X443225000Y-206785000D03*
X443225000Y-205035000D03*
X442425000Y-206785000D03*
X442425000Y-205035000D03*
X441625000Y-206785000D03*
X441625000Y-205035000D03*
X440825000Y-206785000D03*
X440825000Y-205035000D03*
X440025000Y-206785000D03*
X440025000Y-205035000D03*
X439225000Y-206785000D03*
X439225000Y-205035000D03*
X438425000Y-206785000D03*
X438425000Y-205035000D03*
X437625000Y-206785000D03*
X437625000Y-205035000D03*
X436825000Y-206785000D03*
X436825000Y-205035000D03*
X436025000Y-206785000D03*
X436025000Y-205035000D03*
X435225000Y-206785000D03*
X435225000Y-205035000D03*
X434425000Y-206785000D03*
X434425000Y-205035000D03*
X433625000Y-206785000D03*
X433625000Y-205035000D03*
X432825000Y-206785000D03*
X432825000Y-205035000D03*
X432025000Y-206785000D03*
X432025000Y-205035000D03*
X431225000Y-206785000D03*
X431225000Y-205035000D03*
X430425000Y-206785000D03*
X430425000Y-205035000D03*
X429625000Y-206785000D03*
X429625000Y-205035000D03*
X428825000Y-206785000D03*
X428825000Y-205035000D03*
X428025000Y-206785000D03*
X428025000Y-205035000D03*
X427225000Y-206785000D03*
X427225000Y-205035000D03*
X426425000Y-206785000D03*
X426425000Y-205035000D03*
X425625000Y-206785000D03*
X425625000Y-205035000D03*
X424825000Y-206785000D03*
X424825000Y-205035000D03*
X424025000Y-206785000D03*
X424025000Y-205035000D03*
X423225000Y-206785000D03*
X423225000Y-205035000D03*
X422425000Y-206785000D03*
X422425000Y-205035000D03*
X421625000Y-206785000D03*
X421625000Y-205035000D03*
X420825000Y-206785000D03*
X420825000Y-205035000D03*
X420025000Y-206785000D03*
X420025000Y-205035000D03*
D32*
X471250000Y-205600000D03*
X416000000Y-205600000D03*
X264500000Y-205600000D03*
X319750000Y-205600000D03*
D41*
X268525000Y-205035000D03*
X268525000Y-206785000D03*
X269325000Y-205035000D03*
X269325000Y-206785000D03*
X270125000Y-205035000D03*
X270125000Y-206785000D03*
X270925000Y-205035000D03*
X270925000Y-206785000D03*
X271725000Y-205035000D03*
X271725000Y-206785000D03*
X272525000Y-205035000D03*
X272525000Y-206785000D03*
X273325000Y-205035000D03*
X273325000Y-206785000D03*
X274125000Y-205035000D03*
X274125000Y-206785000D03*
X274925000Y-205035000D03*
X274925000Y-206785000D03*
X275725000Y-205035000D03*
X275725000Y-206785000D03*
X276525000Y-205035000D03*
X276525000Y-206785000D03*
X277325000Y-205035000D03*
X277325000Y-206785000D03*
X278125000Y-205035000D03*
X278125000Y-206785000D03*
X278925000Y-205035000D03*
X278925000Y-206785000D03*
X279725000Y-205035000D03*
X279725000Y-206785000D03*
X280525000Y-205035000D03*
X280525000Y-206785000D03*
X281325000Y-205035000D03*
X281325000Y-206785000D03*
X282125000Y-205035000D03*
X282125000Y-206785000D03*
X282925000Y-205035000D03*
X282925000Y-206785000D03*
X283725000Y-205035000D03*
X283725000Y-206785000D03*
X284525000Y-205035000D03*
X284525000Y-206785000D03*
X285325000Y-205035000D03*
X285325000Y-206785000D03*
X286125000Y-205035000D03*
X286125000Y-206785000D03*
X286925000Y-205035000D03*
X286925000Y-206785000D03*
X287725000Y-205035000D03*
X287725000Y-206785000D03*
X288525000Y-205035000D03*
X288525000Y-206785000D03*
X289325000Y-205035000D03*
X289325000Y-206785000D03*
X290125000Y-205035000D03*
X290125000Y-206785000D03*
X290925000Y-205035000D03*
X290925000Y-206785000D03*
X291725000Y-205035000D03*
X291725000Y-206785000D03*
X292525000Y-205035000D03*
X292525000Y-206785000D03*
X293325000Y-205035000D03*
X293325000Y-206785000D03*
X294125000Y-205035000D03*
X294125000Y-206785000D03*
X294925000Y-205035000D03*
X294925000Y-206785000D03*
X295725000Y-205035000D03*
X295725000Y-206785000D03*
X296525000Y-205035000D03*
X296525000Y-206785000D03*
X297325000Y-205035000D03*
X297325000Y-206785000D03*
X298125000Y-205035000D03*
X298125000Y-206785000D03*
X298925000Y-205035000D03*
X298925000Y-206785000D03*
X299725000Y-205035000D03*
X299725000Y-206785000D03*
X300525000Y-205035000D03*
X300525000Y-206785000D03*
X301325000Y-205035000D03*
X301325000Y-206785000D03*
X302125000Y-205035000D03*
X302125000Y-206785000D03*
X302925000Y-205035000D03*
X302925000Y-206785000D03*
X303725000Y-205035000D03*
X303725000Y-206785000D03*
X304525000Y-205035000D03*
X304525000Y-206785000D03*
X305325000Y-205035000D03*
X305325000Y-206785000D03*
X306125000Y-205035000D03*
X306125000Y-206785000D03*
X306925000Y-205035000D03*
X306925000Y-206785000D03*
X307725000Y-205035000D03*
X307725000Y-206785000D03*
X308525000Y-205035000D03*
X308525000Y-206785000D03*
X309325000Y-205035000D03*
X309325000Y-206785000D03*
X310125000Y-205035000D03*
X310125000Y-206785000D03*
X310925000Y-205035000D03*
X310925000Y-206785000D03*
X311725000Y-205035000D03*
X311725000Y-206785000D03*
X312525000Y-205035000D03*
X312525000Y-206785000D03*
X313325000Y-205035000D03*
X313325000Y-206785000D03*
X314125000Y-205035000D03*
X314125000Y-206785000D03*
X314925000Y-205035000D03*
X314925000Y-206785000D03*
X315725000Y-205035000D03*
X315725000Y-206785000D03*
D40*
X264500000Y-201600000D03*
D39*
X265125000Y-207380000D03*
D40*
X319750000Y-201600000D03*
D39*
X319125000Y-207380000D03*
X243375000Y-207380000D03*
D40*
X244000000Y-201600000D03*
D39*
X189375000Y-207380000D03*
D40*
X188750000Y-201600000D03*
D41*
X239975000Y-206785000D03*
X239975000Y-205035000D03*
X239175000Y-206785000D03*
X239175000Y-205035000D03*
X238375000Y-206785000D03*
X238375000Y-205035000D03*
X237575000Y-206785000D03*
X237575000Y-205035000D03*
X236775000Y-206785000D03*
X236775000Y-205035000D03*
X235975000Y-206785000D03*
X235975000Y-205035000D03*
X235175000Y-206785000D03*
X235175000Y-205035000D03*
X234375000Y-206785000D03*
X234375000Y-205035000D03*
X233575000Y-206785000D03*
X233575000Y-205035000D03*
X232775000Y-206785000D03*
X232775000Y-205035000D03*
X231975000Y-206785000D03*
X231975000Y-205035000D03*
X231175000Y-206785000D03*
X231175000Y-205035000D03*
X230375000Y-206785000D03*
X230375000Y-205035000D03*
X229575000Y-206785000D03*
X229575000Y-205035000D03*
X228775000Y-206785000D03*
X228775000Y-205035000D03*
X227975000Y-206785000D03*
X227975000Y-205035000D03*
X227175000Y-206785000D03*
X227175000Y-205035000D03*
X226375000Y-206785000D03*
X226375000Y-205035000D03*
X225575000Y-206785000D03*
X225575000Y-205035000D03*
X224775000Y-206785000D03*
X224775000Y-205035000D03*
X223975000Y-206785000D03*
X223975000Y-205035000D03*
X223175000Y-206785000D03*
X223175000Y-205035000D03*
X222375000Y-206785000D03*
X222375000Y-205035000D03*
X221575000Y-206785000D03*
X221575000Y-205035000D03*
X220775000Y-206785000D03*
X220775000Y-205035000D03*
X219975000Y-206785000D03*
X219975000Y-205035000D03*
X219175000Y-206785000D03*
X219175000Y-205035000D03*
X218375000Y-206785000D03*
X218375000Y-205035000D03*
X217575000Y-206785000D03*
X217575000Y-205035000D03*
X216775000Y-206785000D03*
X216775000Y-205035000D03*
X215975000Y-206785000D03*
X215975000Y-205035000D03*
X215175000Y-206785000D03*
X215175000Y-205035000D03*
X214375000Y-206785000D03*
X214375000Y-205035000D03*
X213575000Y-206785000D03*
X213575000Y-205035000D03*
X212775000Y-206785000D03*
X212775000Y-205035000D03*
X211975000Y-206785000D03*
X211975000Y-205035000D03*
X211175000Y-206785000D03*
X211175000Y-205035000D03*
X210375000Y-206785000D03*
X210375000Y-205035000D03*
X209575000Y-206785000D03*
X209575000Y-205035000D03*
X208775000Y-206785000D03*
X208775000Y-205035000D03*
X207975000Y-206785000D03*
X207975000Y-205035000D03*
X207175000Y-206785000D03*
X207175000Y-205035000D03*
X206375000Y-206785000D03*
X206375000Y-205035000D03*
X205575000Y-206785000D03*
X205575000Y-205035000D03*
X204775000Y-206785000D03*
X204775000Y-205035000D03*
X203975000Y-206785000D03*
X203975000Y-205035000D03*
X203175000Y-206785000D03*
X203175000Y-205035000D03*
X202375000Y-206785000D03*
X202375000Y-205035000D03*
X201575000Y-206785000D03*
X201575000Y-205035000D03*
X200775000Y-206785000D03*
X200775000Y-205035000D03*
X199975000Y-206785000D03*
X199975000Y-205035000D03*
X199175000Y-206785000D03*
X199175000Y-205035000D03*
X198375000Y-206785000D03*
X198375000Y-205035000D03*
X197575000Y-206785000D03*
X197575000Y-205035000D03*
X196775000Y-206785000D03*
X196775000Y-205035000D03*
X195975000Y-206785000D03*
X195975000Y-205035000D03*
X195175000Y-206785000D03*
X195175000Y-205035000D03*
X194375000Y-206785000D03*
X194375000Y-205035000D03*
X193575000Y-206785000D03*
X193575000Y-205035000D03*
X192775000Y-206785000D03*
X192775000Y-205035000D03*
D32*
X244000000Y-205600000D03*
X188750000Y-205600000D03*
X113000000Y-205600000D03*
X168250000Y-205600000D03*
D41*
X117025000Y-205035000D03*
X117025000Y-206785000D03*
X117825000Y-205035000D03*
X117825000Y-206785000D03*
X118625000Y-205035000D03*
X118625000Y-206785000D03*
X119425000Y-205035000D03*
X119425000Y-206785000D03*
X120225000Y-205035000D03*
X120225000Y-206785000D03*
X121025000Y-205035000D03*
X121025000Y-206785000D03*
X121825000Y-205035000D03*
X121825000Y-206785000D03*
X122625000Y-205035000D03*
X122625000Y-206785000D03*
X123425000Y-205035000D03*
X123425000Y-206785000D03*
X124225000Y-205035000D03*
X124225000Y-206785000D03*
X125025000Y-205035000D03*
X125025000Y-206785000D03*
X125825000Y-205035000D03*
X125825000Y-206785000D03*
X126625000Y-205035000D03*
X126625000Y-206785000D03*
X127425000Y-205035000D03*
X127425000Y-206785000D03*
X128225000Y-205035000D03*
X128225000Y-206785000D03*
X129025000Y-205035000D03*
X129025000Y-206785000D03*
X129825000Y-205035000D03*
X129825000Y-206785000D03*
X130625000Y-205035000D03*
X130625000Y-206785000D03*
X131425000Y-205035000D03*
X131425000Y-206785000D03*
X132225000Y-205035000D03*
X132225000Y-206785000D03*
X133025000Y-205035000D03*
X133025000Y-206785000D03*
X133825000Y-205035000D03*
X133825000Y-206785000D03*
X134625000Y-205035000D03*
X134625000Y-206785000D03*
X135425000Y-205035000D03*
X135425000Y-206785000D03*
X136225000Y-205035000D03*
X136225000Y-206785000D03*
X137025000Y-205035000D03*
X137025000Y-206785000D03*
X137825000Y-205035000D03*
X137825000Y-206785000D03*
X138625000Y-205035000D03*
X138625000Y-206785000D03*
X139425000Y-205035000D03*
X139425000Y-206785000D03*
X140225000Y-205035000D03*
X140225000Y-206785000D03*
X141025000Y-205035000D03*
X141025000Y-206785000D03*
X141825000Y-205035000D03*
X141825000Y-206785000D03*
X142625000Y-205035000D03*
X142625000Y-206785000D03*
X143425000Y-205035000D03*
X143425000Y-206785000D03*
X144225000Y-205035000D03*
X144225000Y-206785000D03*
X145025000Y-205035000D03*
X145025000Y-206785000D03*
X145825000Y-205035000D03*
X145825000Y-206785000D03*
X146625000Y-205035000D03*
X146625000Y-206785000D03*
X147425000Y-205035000D03*
X147425000Y-206785000D03*
X148225000Y-205035000D03*
X148225000Y-206785000D03*
X149025000Y-205035000D03*
X149025000Y-206785000D03*
X149825000Y-205035000D03*
X149825000Y-206785000D03*
X150625000Y-205035000D03*
X150625000Y-206785000D03*
X151425000Y-205035000D03*
X151425000Y-206785000D03*
X152225000Y-205035000D03*
X152225000Y-206785000D03*
X153025000Y-205035000D03*
X153025000Y-206785000D03*
X153825000Y-205035000D03*
X153825000Y-206785000D03*
X154625000Y-205035000D03*
X154625000Y-206785000D03*
X155425000Y-205035000D03*
X155425000Y-206785000D03*
X156225000Y-205035000D03*
X156225000Y-206785000D03*
X157025000Y-205035000D03*
X157025000Y-206785000D03*
X157825000Y-205035000D03*
X157825000Y-206785000D03*
X158625000Y-205035000D03*
X158625000Y-206785000D03*
X159425000Y-205035000D03*
X159425000Y-206785000D03*
X160225000Y-205035000D03*
X160225000Y-206785000D03*
X161025000Y-205035000D03*
X161025000Y-206785000D03*
X161825000Y-205035000D03*
X161825000Y-206785000D03*
X162625000Y-205035000D03*
X162625000Y-206785000D03*
X163425000Y-205035000D03*
X163425000Y-206785000D03*
X164225000Y-205035000D03*
X164225000Y-206785000D03*
D40*
X113000000Y-201600000D03*
D39*
X113625000Y-207380000D03*
D40*
X168250000Y-201600000D03*
D39*
X167625000Y-207380000D03*
D25*
X404000000Y-189500000D03*
X404000000Y-180750000D03*
X404100000Y-173300000D03*
X404100000Y-167900000D03*
X367200000Y-174750000D03*
X367200000Y-178750000D03*
X370000000Y-174700000D03*
X370000000Y-178700000D03*
X370000000Y-182700000D03*
X370000000Y-186700000D03*
X370000000Y-190700000D03*
X365600000Y-189500000D03*
X365700000Y-182700000D03*
X365800000Y-170850000D03*
X365800000Y-165650000D03*
X327620000Y-174690000D03*
X327620000Y-178690000D03*
X331520000Y-174690000D03*
X331520000Y-178690000D03*
X331520000Y-182690000D03*
X331520000Y-186690000D03*
X331520000Y-190690000D03*
D47*
X469075000Y-114310000D03*
X468425000Y-114310000D03*
X467775000Y-114310000D03*
X467125000Y-114310000D03*
X467125000Y-117710000D03*
X467775000Y-117710000D03*
X468425000Y-117710000D03*
X469075000Y-117710000D03*
D34*
X372500000Y-187675000D03*
X372500000Y-187025000D03*
X372500000Y-186375000D03*
X372500000Y-185725000D03*
X372500000Y-185075000D03*
X372500000Y-184425000D03*
X372500000Y-183775000D03*
X372500000Y-183125000D03*
X372500000Y-182475000D03*
X372500000Y-181825000D03*
X372500000Y-181175000D03*
X372500000Y-180525000D03*
X372500000Y-179875000D03*
X372500000Y-179225000D03*
X372500000Y-178575000D03*
X372500000Y-177925000D03*
X372500000Y-177275000D03*
X372500000Y-176625000D03*
X372500000Y-175975000D03*
X372500000Y-175325000D03*
X372500000Y-174675000D03*
X372500000Y-174025000D03*
X372500000Y-173375000D03*
X372500000Y-172725000D03*
X372500000Y-172075000D03*
X372500000Y-171425000D03*
X372500000Y-170775000D03*
X372500000Y-170125000D03*
X372500000Y-169475000D03*
X372500000Y-168825000D03*
X372500000Y-168175000D03*
X372500000Y-167525000D03*
X372500000Y-166875000D03*
X372500000Y-166225000D03*
X372500000Y-165575000D03*
X372500000Y-164925000D03*
X372500000Y-164275000D03*
X372500000Y-163625000D03*
X372500000Y-162975000D03*
X372500000Y-162325000D03*
D35*
X374325000Y-160500000D03*
X374975000Y-160500000D03*
X375625000Y-160500000D03*
X376275000Y-160500000D03*
X376925000Y-160500000D03*
X377575000Y-160500000D03*
X378225000Y-160500000D03*
X378875000Y-160500000D03*
X379525000Y-160500000D03*
X380175000Y-160500000D03*
X380825000Y-160500000D03*
X381475000Y-160500000D03*
X382125000Y-160500000D03*
X382775000Y-160500000D03*
X383425000Y-160500000D03*
X384075000Y-160500000D03*
X384725000Y-160500000D03*
X385375000Y-160500000D03*
X386025000Y-160500000D03*
X386675000Y-160500000D03*
X387325000Y-160500000D03*
X387975000Y-160500000D03*
X388625000Y-160500000D03*
X389275000Y-160500000D03*
X389925000Y-160500000D03*
X390575000Y-160500000D03*
X391225000Y-160500000D03*
X391875000Y-160500000D03*
X392525000Y-160500000D03*
X393175000Y-160500000D03*
X393825000Y-160500000D03*
X394475000Y-160500000D03*
X395125000Y-160500000D03*
X395775000Y-160500000D03*
X396425000Y-160500000D03*
X397075000Y-160500000D03*
X397725000Y-160500000D03*
X398375000Y-160500000D03*
X399025000Y-160500000D03*
X399675000Y-160500000D03*
D34*
X401500000Y-162325000D03*
X401500000Y-162975000D03*
X401500000Y-163625000D03*
X401500000Y-164275000D03*
X401500000Y-164925000D03*
X401500000Y-165575000D03*
X401500000Y-166225000D03*
X401500000Y-166875000D03*
X401500000Y-167525000D03*
X401500000Y-168175000D03*
X401500000Y-168825000D03*
X401500000Y-169475000D03*
X401500000Y-170125000D03*
X401500000Y-170775000D03*
X401500000Y-171425000D03*
X401500000Y-172075000D03*
X401500000Y-172725000D03*
X401500000Y-173375000D03*
X401500000Y-174025000D03*
X401500000Y-174675000D03*
X401500000Y-175325000D03*
X401500000Y-175975000D03*
X401500000Y-176625000D03*
X401500000Y-177275000D03*
X401500000Y-177925000D03*
X401500000Y-178575000D03*
X401500000Y-179225000D03*
X401500000Y-179875000D03*
X401500000Y-180525000D03*
X401500000Y-181175000D03*
X401500000Y-181825000D03*
X401500000Y-182475000D03*
X401500000Y-183125000D03*
X401500000Y-183775000D03*
X401500000Y-184425000D03*
X401500000Y-185075000D03*
X401500000Y-185725000D03*
X401500000Y-186375000D03*
X401500000Y-187025000D03*
X401500000Y-187675000D03*
D35*
X399675000Y-189500000D03*
X399025000Y-189500000D03*
X398375000Y-189500000D03*
X397725000Y-189500000D03*
X397075000Y-189500000D03*
X396425000Y-189500000D03*
X395775000Y-189500000D03*
X395125000Y-189500000D03*
X394475000Y-189500000D03*
X393825000Y-189500000D03*
X393175000Y-189500000D03*
X392525000Y-189500000D03*
X391875000Y-189500000D03*
X391225000Y-189500000D03*
X390575000Y-189500000D03*
X389925000Y-189500000D03*
X389275000Y-189500000D03*
X388625000Y-189500000D03*
X387975000Y-189500000D03*
X387325000Y-189500000D03*
X386675000Y-189500000D03*
X386025000Y-189500000D03*
X385375000Y-189500000D03*
X384725000Y-189500000D03*
X384075000Y-189500000D03*
X383425000Y-189500000D03*
X382775000Y-189500000D03*
X382125000Y-189500000D03*
X381475000Y-189500000D03*
X380825000Y-189500000D03*
X380175000Y-189500000D03*
X379525000Y-189500000D03*
X378875000Y-189500000D03*
X378225000Y-189500000D03*
X377575000Y-189500000D03*
X376925000Y-189500000D03*
X376275000Y-189500000D03*
X375625000Y-189500000D03*
X374975000Y-189500000D03*
X374325000Y-189500000D03*
D48*
X385925000Y-132050000D03*
X385275000Y-132050000D03*
X384625000Y-132050000D03*
X383975000Y-132050000D03*
X383325000Y-132050000D03*
X382675000Y-132050000D03*
X382025000Y-132050000D03*
X381375000Y-132050000D03*
X380725000Y-132050000D03*
X380075000Y-132050000D03*
X380075000Y-137950000D03*
X380725000Y-137950000D03*
X381375000Y-137950000D03*
X382025000Y-137950000D03*
X382675000Y-137950000D03*
X383325000Y-137950000D03*
X383975000Y-137950000D03*
X384625000Y-137950000D03*
X385275000Y-137950000D03*
X385925000Y-137950000D03*
X375925000Y-137950000D03*
X375275000Y-137950000D03*
X374625000Y-137950000D03*
X373975000Y-137950000D03*
X373325000Y-137950000D03*
X372675000Y-137950000D03*
X372025000Y-137950000D03*
X371375000Y-137950000D03*
X370725000Y-137950000D03*
X370075000Y-137950000D03*
X370075000Y-132050000D03*
X370725000Y-132050000D03*
X371375000Y-132050000D03*
X372025000Y-132050000D03*
X372675000Y-132050000D03*
X373325000Y-132050000D03*
X373975000Y-132050000D03*
X374625000Y-132050000D03*
X375275000Y-132050000D03*
X375925000Y-132050000D03*
X365925000Y-137950000D03*
X365275000Y-137950000D03*
X364625000Y-137950000D03*
X363975000Y-137950000D03*
X363325000Y-137950000D03*
X362675000Y-137950000D03*
X362025000Y-137950000D03*
X361375000Y-137950000D03*
X360725000Y-137950000D03*
X360075000Y-137950000D03*
X360075000Y-132050000D03*
X360725000Y-132050000D03*
X361375000Y-132050000D03*
X362025000Y-132050000D03*
X362675000Y-132050000D03*
X363325000Y-132050000D03*
X363975000Y-132050000D03*
X364625000Y-132050000D03*
X365275000Y-132050000D03*
X365925000Y-132050000D03*
X355925000Y-132050000D03*
X355275000Y-132050000D03*
X354625000Y-132050000D03*
X353975000Y-132050000D03*
X353325000Y-132050000D03*
X352675000Y-132050000D03*
X352025000Y-132050000D03*
X351375000Y-132050000D03*
X350725000Y-132050000D03*
X350075000Y-132050000D03*
X350075000Y-137950000D03*
X350725000Y-137950000D03*
X351375000Y-137950000D03*
X352025000Y-137950000D03*
X352675000Y-137950000D03*
X353325000Y-137950000D03*
X353975000Y-137950000D03*
X354625000Y-137950000D03*
X355275000Y-137950000D03*
X355925000Y-137950000D03*
M02*
