M48
; DRILL file {KiCad 5.1.10-88a1d61d58~88~ubuntu20.04.1} date Wed Aug 11 10:23:03 2021
; FORMAT={-:-/ absolute / inch / decimal}
; #@! TF.CreationDate,2021-08-11T10:23:03-04:00
; #@! TF.GenerationSoftware,Kicad,Pcbnew,5.1.10-88a1d61d58~88~ubuntu20.04.1
; #@! TF.FileFunction,NonPlated,1,6,NPTH
FMAT,2
INCH
T1C0.0394
T2C0.0571
T3C0.0610
T4C0.1063
%
G90
G05
T1
X12.7953Y-4.1827
X12.7953Y-4.5764
T2
X4.4488Y-8.0945
X6.624Y-8.0945
X7.4311Y-8.0945
X9.6063Y-8.0945
X10.4134Y-8.0945
X12.5886Y-8.0945
X13.3957Y-8.0945
X13.8268Y-4.9154
X14.063Y-5.7815
X14.8898Y-4.9154
X15.126Y-5.7815
X15.5709Y-8.0945
X16.378Y-8.0945
X18.5531Y-8.0945
X19.3602Y-8.0945
X21.5354Y-8.0945
T3
X16.7421Y-5.3339
X17.1201Y-5.3339
T4
X4.1535Y-4.0776
X21.8307Y-4.0776
T0
M30
