G04 #@! TF.GenerationSoftware,KiCad,Pcbnew,5.1.10-88a1d61d58~88~ubuntu18.04.1*
G04 #@! TF.CreationDate,2021-08-16T10:40:17-04:00*
G04 #@! TF.ProjectId,readout_trenz,72656164-6f75-4745-9f74-72656e7a2e6b,rev?*
G04 #@! TF.SameCoordinates,Original*
G04 #@! TF.FileFunction,Paste,Bot*
G04 #@! TF.FilePolarity,Positive*
%FSLAX46Y46*%
G04 Gerber Fmt 4.6, Leading zero omitted, Abs format (unit mm)*
G04 Created by KiCad (PCBNEW 5.1.10-88a1d61d58~88~ubuntu18.04.1) date 2021-08-16 10:40:17*
%MOMM*%
%LPD*%
G01*
G04 APERTURE LIST*
%ADD10R,0.300000X1.600000*%
G04 APERTURE END LIST*
G36*
G01*
X447662500Y-151550000D02*
X448137500Y-151550000D01*
G75*
G02*
X448375000Y-151787500I0J-237500D01*
G01*
X448375000Y-152362500D01*
G75*
G02*
X448137500Y-152600000I-237500J0D01*
G01*
X447662500Y-152600000D01*
G75*
G02*
X447425000Y-152362500I0J237500D01*
G01*
X447425000Y-151787500D01*
G75*
G02*
X447662500Y-151550000I237500J0D01*
G01*
G37*
G36*
G01*
X447662500Y-149800000D02*
X448137500Y-149800000D01*
G75*
G02*
X448375000Y-150037500I0J-237500D01*
G01*
X448375000Y-150612500D01*
G75*
G02*
X448137500Y-150850000I-237500J0D01*
G01*
X447662500Y-150850000D01*
G75*
G02*
X447425000Y-150612500I0J237500D01*
G01*
X447425000Y-150037500D01*
G75*
G02*
X447662500Y-149800000I237500J0D01*
G01*
G37*
G36*
G01*
X451962500Y-150450000D02*
X452437500Y-150450000D01*
G75*
G02*
X452675000Y-150687500I0J-237500D01*
G01*
X452675000Y-151262500D01*
G75*
G02*
X452437500Y-151500000I-237500J0D01*
G01*
X451962500Y-151500000D01*
G75*
G02*
X451725000Y-151262500I0J237500D01*
G01*
X451725000Y-150687500D01*
G75*
G02*
X451962500Y-150450000I237500J0D01*
G01*
G37*
G36*
G01*
X451962500Y-148700000D02*
X452437500Y-148700000D01*
G75*
G02*
X452675000Y-148937500I0J-237500D01*
G01*
X452675000Y-149512500D01*
G75*
G02*
X452437500Y-149750000I-237500J0D01*
G01*
X451962500Y-149750000D01*
G75*
G02*
X451725000Y-149512500I0J237500D01*
G01*
X451725000Y-148937500D01*
G75*
G02*
X451962500Y-148700000I237500J0D01*
G01*
G37*
G36*
G01*
X363805000Y-160105000D02*
X362555000Y-160105000D01*
G75*
G02*
X362305000Y-159855000I0J250000D01*
G01*
X362305000Y-158930000D01*
G75*
G02*
X362555000Y-158680000I250000J0D01*
G01*
X363805000Y-158680000D01*
G75*
G02*
X364055000Y-158930000I0J-250000D01*
G01*
X364055000Y-159855000D01*
G75*
G02*
X363805000Y-160105000I-250000J0D01*
G01*
G37*
G36*
G01*
X363805000Y-163080000D02*
X362555000Y-163080000D01*
G75*
G02*
X362305000Y-162830000I0J250000D01*
G01*
X362305000Y-161905000D01*
G75*
G02*
X362555000Y-161655000I250000J0D01*
G01*
X363805000Y-161655000D01*
G75*
G02*
X364055000Y-161905000I0J-250000D01*
G01*
X364055000Y-162830000D01*
G75*
G02*
X363805000Y-163080000I-250000J0D01*
G01*
G37*
G36*
G01*
X357715000Y-159615000D02*
X357715000Y-160865000D01*
G75*
G02*
X357465000Y-161115000I-250000J0D01*
G01*
X356540000Y-161115000D01*
G75*
G02*
X356290000Y-160865000I0J250000D01*
G01*
X356290000Y-159615000D01*
G75*
G02*
X356540000Y-159365000I250000J0D01*
G01*
X357465000Y-159365000D01*
G75*
G02*
X357715000Y-159615000I0J-250000D01*
G01*
G37*
G36*
G01*
X360690000Y-159615000D02*
X360690000Y-160865000D01*
G75*
G02*
X360440000Y-161115000I-250000J0D01*
G01*
X359515000Y-161115000D01*
G75*
G02*
X359265000Y-160865000I0J250000D01*
G01*
X359265000Y-159615000D01*
G75*
G02*
X359515000Y-159365000I250000J0D01*
G01*
X360440000Y-159365000D01*
G75*
G02*
X360690000Y-159615000I0J-250000D01*
G01*
G37*
G36*
G01*
X357175000Y-166285000D02*
X358425000Y-166285000D01*
G75*
G02*
X358675000Y-166535000I0J-250000D01*
G01*
X358675000Y-167460000D01*
G75*
G02*
X358425000Y-167710000I-250000J0D01*
G01*
X357175000Y-167710000D01*
G75*
G02*
X356925000Y-167460000I0J250000D01*
G01*
X356925000Y-166535000D01*
G75*
G02*
X357175000Y-166285000I250000J0D01*
G01*
G37*
G36*
G01*
X357175000Y-163310000D02*
X358425000Y-163310000D01*
G75*
G02*
X358675000Y-163560000I0J-250000D01*
G01*
X358675000Y-164485000D01*
G75*
G02*
X358425000Y-164735000I-250000J0D01*
G01*
X357175000Y-164735000D01*
G75*
G02*
X356925000Y-164485000I0J250000D01*
G01*
X356925000Y-163560000D01*
G75*
G02*
X357175000Y-163310000I250000J0D01*
G01*
G37*
G36*
G01*
X398995000Y-157975000D02*
X397745000Y-157975000D01*
G75*
G02*
X397495000Y-157725000I0J250000D01*
G01*
X397495000Y-156800000D01*
G75*
G02*
X397745000Y-156550000I250000J0D01*
G01*
X398995000Y-156550000D01*
G75*
G02*
X399245000Y-156800000I0J-250000D01*
G01*
X399245000Y-157725000D01*
G75*
G02*
X398995000Y-157975000I-250000J0D01*
G01*
G37*
G36*
G01*
X398995000Y-160950000D02*
X397745000Y-160950000D01*
G75*
G02*
X397495000Y-160700000I0J250000D01*
G01*
X397495000Y-159775000D01*
G75*
G02*
X397745000Y-159525000I250000J0D01*
G01*
X398995000Y-159525000D01*
G75*
G02*
X399245000Y-159775000I0J-250000D01*
G01*
X399245000Y-160700000D01*
G75*
G02*
X398995000Y-160950000I-250000J0D01*
G01*
G37*
G36*
G01*
X401875000Y-160325000D02*
X400625000Y-160325000D01*
G75*
G02*
X400375000Y-160075000I0J250000D01*
G01*
X400375000Y-159150000D01*
G75*
G02*
X400625000Y-158900000I250000J0D01*
G01*
X401875000Y-158900000D01*
G75*
G02*
X402125000Y-159150000I0J-250000D01*
G01*
X402125000Y-160075000D01*
G75*
G02*
X401875000Y-160325000I-250000J0D01*
G01*
G37*
G36*
G01*
X401875000Y-163300000D02*
X400625000Y-163300000D01*
G75*
G02*
X400375000Y-163050000I0J250000D01*
G01*
X400375000Y-162125000D01*
G75*
G02*
X400625000Y-161875000I250000J0D01*
G01*
X401875000Y-161875000D01*
G75*
G02*
X402125000Y-162125000I0J-250000D01*
G01*
X402125000Y-163050000D01*
G75*
G02*
X401875000Y-163300000I-250000J0D01*
G01*
G37*
G36*
G01*
X394605000Y-164045000D02*
X394605000Y-165295000D01*
G75*
G02*
X394355000Y-165545000I-250000J0D01*
G01*
X393430000Y-165545000D01*
G75*
G02*
X393180000Y-165295000I0J250000D01*
G01*
X393180000Y-164045000D01*
G75*
G02*
X393430000Y-163795000I250000J0D01*
G01*
X394355000Y-163795000D01*
G75*
G02*
X394605000Y-164045000I0J-250000D01*
G01*
G37*
G36*
G01*
X397580000Y-164045000D02*
X397580000Y-165295000D01*
G75*
G02*
X397330000Y-165545000I-250000J0D01*
G01*
X396405000Y-165545000D01*
G75*
G02*
X396155000Y-165295000I0J250000D01*
G01*
X396155000Y-164045000D01*
G75*
G02*
X396405000Y-163795000I250000J0D01*
G01*
X397330000Y-163795000D01*
G75*
G02*
X397580000Y-164045000I0J-250000D01*
G01*
G37*
G36*
G01*
X359940000Y-186007500D02*
X359940000Y-185532500D01*
G75*
G02*
X360177500Y-185295000I237500J0D01*
G01*
X360752500Y-185295000D01*
G75*
G02*
X360990000Y-185532500I0J-237500D01*
G01*
X360990000Y-186007500D01*
G75*
G02*
X360752500Y-186245000I-237500J0D01*
G01*
X360177500Y-186245000D01*
G75*
G02*
X359940000Y-186007500I0J237500D01*
G01*
G37*
G36*
G01*
X358190000Y-186007500D02*
X358190000Y-185532500D01*
G75*
G02*
X358427500Y-185295000I237500J0D01*
G01*
X359002500Y-185295000D01*
G75*
G02*
X359240000Y-185532500I0J-237500D01*
G01*
X359240000Y-186007500D01*
G75*
G02*
X359002500Y-186245000I-237500J0D01*
G01*
X358427500Y-186245000D01*
G75*
G02*
X358190000Y-186007500I0J237500D01*
G01*
G37*
G36*
G01*
X359940000Y-187537500D02*
X359940000Y-187062500D01*
G75*
G02*
X360177500Y-186825000I237500J0D01*
G01*
X360752500Y-186825000D01*
G75*
G02*
X360990000Y-187062500I0J-237500D01*
G01*
X360990000Y-187537500D01*
G75*
G02*
X360752500Y-187775000I-237500J0D01*
G01*
X360177500Y-187775000D01*
G75*
G02*
X359940000Y-187537500I0J237500D01*
G01*
G37*
G36*
G01*
X358190000Y-187537500D02*
X358190000Y-187062500D01*
G75*
G02*
X358427500Y-186825000I237500J0D01*
G01*
X359002500Y-186825000D01*
G75*
G02*
X359240000Y-187062500I0J-237500D01*
G01*
X359240000Y-187537500D01*
G75*
G02*
X359002500Y-187775000I-237500J0D01*
G01*
X358427500Y-187775000D01*
G75*
G02*
X358190000Y-187537500I0J237500D01*
G01*
G37*
G36*
G01*
X359900000Y-175307500D02*
X359900000Y-174832500D01*
G75*
G02*
X360137500Y-174595000I237500J0D01*
G01*
X360712500Y-174595000D01*
G75*
G02*
X360950000Y-174832500I0J-237500D01*
G01*
X360950000Y-175307500D01*
G75*
G02*
X360712500Y-175545000I-237500J0D01*
G01*
X360137500Y-175545000D01*
G75*
G02*
X359900000Y-175307500I0J237500D01*
G01*
G37*
G36*
G01*
X358150000Y-175307500D02*
X358150000Y-174832500D01*
G75*
G02*
X358387500Y-174595000I237500J0D01*
G01*
X358962500Y-174595000D01*
G75*
G02*
X359200000Y-174832500I0J-237500D01*
G01*
X359200000Y-175307500D01*
G75*
G02*
X358962500Y-175545000I-237500J0D01*
G01*
X358387500Y-175545000D01*
G75*
G02*
X358150000Y-175307500I0J237500D01*
G01*
G37*
G36*
G01*
X359900000Y-173777500D02*
X359900000Y-173302500D01*
G75*
G02*
X360137500Y-173065000I237500J0D01*
G01*
X360712500Y-173065000D01*
G75*
G02*
X360950000Y-173302500I0J-237500D01*
G01*
X360950000Y-173777500D01*
G75*
G02*
X360712500Y-174015000I-237500J0D01*
G01*
X360137500Y-174015000D01*
G75*
G02*
X359900000Y-173777500I0J237500D01*
G01*
G37*
G36*
G01*
X358150000Y-173777500D02*
X358150000Y-173302500D01*
G75*
G02*
X358387500Y-173065000I237500J0D01*
G01*
X358962500Y-173065000D01*
G75*
G02*
X359200000Y-173302500I0J-237500D01*
G01*
X359200000Y-173777500D01*
G75*
G02*
X358962500Y-174015000I-237500J0D01*
G01*
X358387500Y-174015000D01*
G75*
G02*
X358150000Y-173777500I0J237500D01*
G01*
G37*
G36*
G01*
X359910000Y-179887500D02*
X359910000Y-179412500D01*
G75*
G02*
X360147500Y-179175000I237500J0D01*
G01*
X360722500Y-179175000D01*
G75*
G02*
X360960000Y-179412500I0J-237500D01*
G01*
X360960000Y-179887500D01*
G75*
G02*
X360722500Y-180125000I-237500J0D01*
G01*
X360147500Y-180125000D01*
G75*
G02*
X359910000Y-179887500I0J237500D01*
G01*
G37*
G36*
G01*
X358160000Y-179887500D02*
X358160000Y-179412500D01*
G75*
G02*
X358397500Y-179175000I237500J0D01*
G01*
X358972500Y-179175000D01*
G75*
G02*
X359210000Y-179412500I0J-237500D01*
G01*
X359210000Y-179887500D01*
G75*
G02*
X358972500Y-180125000I-237500J0D01*
G01*
X358397500Y-180125000D01*
G75*
G02*
X358160000Y-179887500I0J237500D01*
G01*
G37*
G36*
G01*
X359920000Y-182947500D02*
X359920000Y-182472500D01*
G75*
G02*
X360157500Y-182235000I237500J0D01*
G01*
X360732500Y-182235000D01*
G75*
G02*
X360970000Y-182472500I0J-237500D01*
G01*
X360970000Y-182947500D01*
G75*
G02*
X360732500Y-183185000I-237500J0D01*
G01*
X360157500Y-183185000D01*
G75*
G02*
X359920000Y-182947500I0J237500D01*
G01*
G37*
G36*
G01*
X358170000Y-182947500D02*
X358170000Y-182472500D01*
G75*
G02*
X358407500Y-182235000I237500J0D01*
G01*
X358982500Y-182235000D01*
G75*
G02*
X359220000Y-182472500I0J-237500D01*
G01*
X359220000Y-182947500D01*
G75*
G02*
X358982500Y-183185000I-237500J0D01*
G01*
X358407500Y-183185000D01*
G75*
G02*
X358170000Y-182947500I0J237500D01*
G01*
G37*
G36*
G01*
X398350000Y-185927500D02*
X398350000Y-185452500D01*
G75*
G02*
X398587500Y-185215000I237500J0D01*
G01*
X399162500Y-185215000D01*
G75*
G02*
X399400000Y-185452500I0J-237500D01*
G01*
X399400000Y-185927500D01*
G75*
G02*
X399162500Y-186165000I-237500J0D01*
G01*
X398587500Y-186165000D01*
G75*
G02*
X398350000Y-185927500I0J237500D01*
G01*
G37*
G36*
G01*
X396600000Y-185927500D02*
X396600000Y-185452500D01*
G75*
G02*
X396837500Y-185215000I237500J0D01*
G01*
X397412500Y-185215000D01*
G75*
G02*
X397650000Y-185452500I0J-237500D01*
G01*
X397650000Y-185927500D01*
G75*
G02*
X397412500Y-186165000I-237500J0D01*
G01*
X396837500Y-186165000D01*
G75*
G02*
X396600000Y-185927500I0J237500D01*
G01*
G37*
G36*
G01*
X398330000Y-187437500D02*
X398330000Y-186962500D01*
G75*
G02*
X398567500Y-186725000I237500J0D01*
G01*
X399142500Y-186725000D01*
G75*
G02*
X399380000Y-186962500I0J-237500D01*
G01*
X399380000Y-187437500D01*
G75*
G02*
X399142500Y-187675000I-237500J0D01*
G01*
X398567500Y-187675000D01*
G75*
G02*
X398330000Y-187437500I0J237500D01*
G01*
G37*
G36*
G01*
X396580000Y-187437500D02*
X396580000Y-186962500D01*
G75*
G02*
X396817500Y-186725000I237500J0D01*
G01*
X397392500Y-186725000D01*
G75*
G02*
X397630000Y-186962500I0J-237500D01*
G01*
X397630000Y-187437500D01*
G75*
G02*
X397392500Y-187675000I-237500J0D01*
G01*
X396817500Y-187675000D01*
G75*
G02*
X396580000Y-187437500I0J237500D01*
G01*
G37*
G36*
G01*
X398350000Y-175207500D02*
X398350000Y-174732500D01*
G75*
G02*
X398587500Y-174495000I237500J0D01*
G01*
X399162500Y-174495000D01*
G75*
G02*
X399400000Y-174732500I0J-237500D01*
G01*
X399400000Y-175207500D01*
G75*
G02*
X399162500Y-175445000I-237500J0D01*
G01*
X398587500Y-175445000D01*
G75*
G02*
X398350000Y-175207500I0J237500D01*
G01*
G37*
G36*
G01*
X396600000Y-175207500D02*
X396600000Y-174732500D01*
G75*
G02*
X396837500Y-174495000I237500J0D01*
G01*
X397412500Y-174495000D01*
G75*
G02*
X397650000Y-174732500I0J-237500D01*
G01*
X397650000Y-175207500D01*
G75*
G02*
X397412500Y-175445000I-237500J0D01*
G01*
X396837500Y-175445000D01*
G75*
G02*
X396600000Y-175207500I0J237500D01*
G01*
G37*
G36*
G01*
X398350000Y-173677500D02*
X398350000Y-173202500D01*
G75*
G02*
X398587500Y-172965000I237500J0D01*
G01*
X399162500Y-172965000D01*
G75*
G02*
X399400000Y-173202500I0J-237500D01*
G01*
X399400000Y-173677500D01*
G75*
G02*
X399162500Y-173915000I-237500J0D01*
G01*
X398587500Y-173915000D01*
G75*
G02*
X398350000Y-173677500I0J237500D01*
G01*
G37*
G36*
G01*
X396600000Y-173677500D02*
X396600000Y-173202500D01*
G75*
G02*
X396837500Y-172965000I237500J0D01*
G01*
X397412500Y-172965000D01*
G75*
G02*
X397650000Y-173202500I0J-237500D01*
G01*
X397650000Y-173677500D01*
G75*
G02*
X397412500Y-173915000I-237500J0D01*
G01*
X396837500Y-173915000D01*
G75*
G02*
X396600000Y-173677500I0J237500D01*
G01*
G37*
G36*
G01*
X398350000Y-179817500D02*
X398350000Y-179342500D01*
G75*
G02*
X398587500Y-179105000I237500J0D01*
G01*
X399162500Y-179105000D01*
G75*
G02*
X399400000Y-179342500I0J-237500D01*
G01*
X399400000Y-179817500D01*
G75*
G02*
X399162500Y-180055000I-237500J0D01*
G01*
X398587500Y-180055000D01*
G75*
G02*
X398350000Y-179817500I0J237500D01*
G01*
G37*
G36*
G01*
X396600000Y-179817500D02*
X396600000Y-179342500D01*
G75*
G02*
X396837500Y-179105000I237500J0D01*
G01*
X397412500Y-179105000D01*
G75*
G02*
X397650000Y-179342500I0J-237500D01*
G01*
X397650000Y-179817500D01*
G75*
G02*
X397412500Y-180055000I-237500J0D01*
G01*
X396837500Y-180055000D01*
G75*
G02*
X396600000Y-179817500I0J237500D01*
G01*
G37*
G36*
G01*
X398360000Y-182867500D02*
X398360000Y-182392500D01*
G75*
G02*
X398597500Y-182155000I237500J0D01*
G01*
X399172500Y-182155000D01*
G75*
G02*
X399410000Y-182392500I0J-237500D01*
G01*
X399410000Y-182867500D01*
G75*
G02*
X399172500Y-183105000I-237500J0D01*
G01*
X398597500Y-183105000D01*
G75*
G02*
X398360000Y-182867500I0J237500D01*
G01*
G37*
G36*
G01*
X396610000Y-182867500D02*
X396610000Y-182392500D01*
G75*
G02*
X396847500Y-182155000I237500J0D01*
G01*
X397422500Y-182155000D01*
G75*
G02*
X397660000Y-182392500I0J-237500D01*
G01*
X397660000Y-182867500D01*
G75*
G02*
X397422500Y-183105000I-237500J0D01*
G01*
X396847500Y-183105000D01*
G75*
G02*
X396610000Y-182867500I0J237500D01*
G01*
G37*
G36*
G01*
X340450000Y-187227500D02*
X340450000Y-186752500D01*
G75*
G02*
X340687500Y-186515000I237500J0D01*
G01*
X341262500Y-186515000D01*
G75*
G02*
X341500000Y-186752500I0J-237500D01*
G01*
X341500000Y-187227500D01*
G75*
G02*
X341262500Y-187465000I-237500J0D01*
G01*
X340687500Y-187465000D01*
G75*
G02*
X340450000Y-187227500I0J237500D01*
G01*
G37*
G36*
G01*
X338700000Y-187227500D02*
X338700000Y-186752500D01*
G75*
G02*
X338937500Y-186515000I237500J0D01*
G01*
X339512500Y-186515000D01*
G75*
G02*
X339750000Y-186752500I0J-237500D01*
G01*
X339750000Y-187227500D01*
G75*
G02*
X339512500Y-187465000I-237500J0D01*
G01*
X338937500Y-187465000D01*
G75*
G02*
X338700000Y-187227500I0J237500D01*
G01*
G37*
G36*
G01*
X378350000Y-187237500D02*
X378350000Y-186762500D01*
G75*
G02*
X378587500Y-186525000I237500J0D01*
G01*
X379162500Y-186525000D01*
G75*
G02*
X379400000Y-186762500I0J-237500D01*
G01*
X379400000Y-187237500D01*
G75*
G02*
X379162500Y-187475000I-237500J0D01*
G01*
X378587500Y-187475000D01*
G75*
G02*
X378350000Y-187237500I0J237500D01*
G01*
G37*
G36*
G01*
X376600000Y-187237500D02*
X376600000Y-186762500D01*
G75*
G02*
X376837500Y-186525000I237500J0D01*
G01*
X377412500Y-186525000D01*
G75*
G02*
X377650000Y-186762500I0J-237500D01*
G01*
X377650000Y-187237500D01*
G75*
G02*
X377412500Y-187475000I-237500J0D01*
G01*
X376837500Y-187475000D01*
G75*
G02*
X376600000Y-187237500I0J237500D01*
G01*
G37*
G36*
G01*
X388700000Y-105175000D02*
X387450000Y-105175000D01*
G75*
G02*
X387200000Y-104925000I0J250000D01*
G01*
X387200000Y-104000000D01*
G75*
G02*
X387450000Y-103750000I250000J0D01*
G01*
X388700000Y-103750000D01*
G75*
G02*
X388950000Y-104000000I0J-250000D01*
G01*
X388950000Y-104925000D01*
G75*
G02*
X388700000Y-105175000I-250000J0D01*
G01*
G37*
G36*
G01*
X388700000Y-108150000D02*
X387450000Y-108150000D01*
G75*
G02*
X387200000Y-107900000I0J250000D01*
G01*
X387200000Y-106975000D01*
G75*
G02*
X387450000Y-106725000I250000J0D01*
G01*
X388700000Y-106725000D01*
G75*
G02*
X388950000Y-106975000I0J-250000D01*
G01*
X388950000Y-107900000D01*
G75*
G02*
X388700000Y-108150000I-250000J0D01*
G01*
G37*
G36*
G01*
X388750000Y-110425000D02*
X387500000Y-110425000D01*
G75*
G02*
X387250000Y-110175000I0J250000D01*
G01*
X387250000Y-109250000D01*
G75*
G02*
X387500000Y-109000000I250000J0D01*
G01*
X388750000Y-109000000D01*
G75*
G02*
X389000000Y-109250000I0J-250000D01*
G01*
X389000000Y-110175000D01*
G75*
G02*
X388750000Y-110425000I-250000J0D01*
G01*
G37*
G36*
G01*
X388750000Y-113400000D02*
X387500000Y-113400000D01*
G75*
G02*
X387250000Y-113150000I0J250000D01*
G01*
X387250000Y-112225000D01*
G75*
G02*
X387500000Y-111975000I250000J0D01*
G01*
X388750000Y-111975000D01*
G75*
G02*
X389000000Y-112225000I0J-250000D01*
G01*
X389000000Y-113150000D01*
G75*
G02*
X388750000Y-113400000I-250000J0D01*
G01*
G37*
G36*
G01*
X410037500Y-111275000D02*
X409562500Y-111275000D01*
G75*
G02*
X409325000Y-111037500I0J237500D01*
G01*
X409325000Y-110462500D01*
G75*
G02*
X409562500Y-110225000I237500J0D01*
G01*
X410037500Y-110225000D01*
G75*
G02*
X410275000Y-110462500I0J-237500D01*
G01*
X410275000Y-111037500D01*
G75*
G02*
X410037500Y-111275000I-237500J0D01*
G01*
G37*
G36*
G01*
X410037500Y-113025000D02*
X409562500Y-113025000D01*
G75*
G02*
X409325000Y-112787500I0J237500D01*
G01*
X409325000Y-112212500D01*
G75*
G02*
X409562500Y-111975000I237500J0D01*
G01*
X410037500Y-111975000D01*
G75*
G02*
X410275000Y-112212500I0J-237500D01*
G01*
X410275000Y-112787500D01*
G75*
G02*
X410037500Y-113025000I-237500J0D01*
G01*
G37*
G36*
G01*
X371827500Y-192220000D02*
X372172500Y-192220000D01*
G75*
G02*
X372320000Y-192367500I0J-147500D01*
G01*
X372320000Y-192662500D01*
G75*
G02*
X372172500Y-192810000I-147500J0D01*
G01*
X371827500Y-192810000D01*
G75*
G02*
X371680000Y-192662500I0J147500D01*
G01*
X371680000Y-192367500D01*
G75*
G02*
X371827500Y-192220000I147500J0D01*
G01*
G37*
G36*
G01*
X371827500Y-193190000D02*
X372172500Y-193190000D01*
G75*
G02*
X372320000Y-193337500I0J-147500D01*
G01*
X372320000Y-193632500D01*
G75*
G02*
X372172500Y-193780000I-147500J0D01*
G01*
X371827500Y-193780000D01*
G75*
G02*
X371680000Y-193632500I0J147500D01*
G01*
X371680000Y-193337500D01*
G75*
G02*
X371827500Y-193190000I147500J0D01*
G01*
G37*
G36*
G01*
X373827500Y-193190000D02*
X374172500Y-193190000D01*
G75*
G02*
X374320000Y-193337500I0J-147500D01*
G01*
X374320000Y-193632500D01*
G75*
G02*
X374172500Y-193780000I-147500J0D01*
G01*
X373827500Y-193780000D01*
G75*
G02*
X373680000Y-193632500I0J147500D01*
G01*
X373680000Y-193337500D01*
G75*
G02*
X373827500Y-193190000I147500J0D01*
G01*
G37*
G36*
G01*
X373827500Y-192220000D02*
X374172500Y-192220000D01*
G75*
G02*
X374320000Y-192367500I0J-147500D01*
G01*
X374320000Y-192662500D01*
G75*
G02*
X374172500Y-192810000I-147500J0D01*
G01*
X373827500Y-192810000D01*
G75*
G02*
X373680000Y-192662500I0J147500D01*
G01*
X373680000Y-192367500D01*
G75*
G02*
X373827500Y-192220000I147500J0D01*
G01*
G37*
G36*
G01*
X375827500Y-192220000D02*
X376172500Y-192220000D01*
G75*
G02*
X376320000Y-192367500I0J-147500D01*
G01*
X376320000Y-192662500D01*
G75*
G02*
X376172500Y-192810000I-147500J0D01*
G01*
X375827500Y-192810000D01*
G75*
G02*
X375680000Y-192662500I0J147500D01*
G01*
X375680000Y-192367500D01*
G75*
G02*
X375827500Y-192220000I147500J0D01*
G01*
G37*
G36*
G01*
X375827500Y-193190000D02*
X376172500Y-193190000D01*
G75*
G02*
X376320000Y-193337500I0J-147500D01*
G01*
X376320000Y-193632500D01*
G75*
G02*
X376172500Y-193780000I-147500J0D01*
G01*
X375827500Y-193780000D01*
G75*
G02*
X375680000Y-193632500I0J147500D01*
G01*
X375680000Y-193337500D01*
G75*
G02*
X375827500Y-193190000I147500J0D01*
G01*
G37*
G36*
G01*
X377827500Y-193190000D02*
X378172500Y-193190000D01*
G75*
G02*
X378320000Y-193337500I0J-147500D01*
G01*
X378320000Y-193632500D01*
G75*
G02*
X378172500Y-193780000I-147500J0D01*
G01*
X377827500Y-193780000D01*
G75*
G02*
X377680000Y-193632500I0J147500D01*
G01*
X377680000Y-193337500D01*
G75*
G02*
X377827500Y-193190000I147500J0D01*
G01*
G37*
G36*
G01*
X377827500Y-192220000D02*
X378172500Y-192220000D01*
G75*
G02*
X378320000Y-192367500I0J-147500D01*
G01*
X378320000Y-192662500D01*
G75*
G02*
X378172500Y-192810000I-147500J0D01*
G01*
X377827500Y-192810000D01*
G75*
G02*
X377680000Y-192662500I0J147500D01*
G01*
X377680000Y-192367500D01*
G75*
G02*
X377827500Y-192220000I147500J0D01*
G01*
G37*
G36*
G01*
X379827500Y-192220000D02*
X380172500Y-192220000D01*
G75*
G02*
X380320000Y-192367500I0J-147500D01*
G01*
X380320000Y-192662500D01*
G75*
G02*
X380172500Y-192810000I-147500J0D01*
G01*
X379827500Y-192810000D01*
G75*
G02*
X379680000Y-192662500I0J147500D01*
G01*
X379680000Y-192367500D01*
G75*
G02*
X379827500Y-192220000I147500J0D01*
G01*
G37*
G36*
G01*
X379827500Y-193190000D02*
X380172500Y-193190000D01*
G75*
G02*
X380320000Y-193337500I0J-147500D01*
G01*
X380320000Y-193632500D01*
G75*
G02*
X380172500Y-193780000I-147500J0D01*
G01*
X379827500Y-193780000D01*
G75*
G02*
X379680000Y-193632500I0J147500D01*
G01*
X379680000Y-193337500D01*
G75*
G02*
X379827500Y-193190000I147500J0D01*
G01*
G37*
G36*
G01*
X381827500Y-193190000D02*
X382172500Y-193190000D01*
G75*
G02*
X382320000Y-193337500I0J-147500D01*
G01*
X382320000Y-193632500D01*
G75*
G02*
X382172500Y-193780000I-147500J0D01*
G01*
X381827500Y-193780000D01*
G75*
G02*
X381680000Y-193632500I0J147500D01*
G01*
X381680000Y-193337500D01*
G75*
G02*
X381827500Y-193190000I147500J0D01*
G01*
G37*
G36*
G01*
X381827500Y-192220000D02*
X382172500Y-192220000D01*
G75*
G02*
X382320000Y-192367500I0J-147500D01*
G01*
X382320000Y-192662500D01*
G75*
G02*
X382172500Y-192810000I-147500J0D01*
G01*
X381827500Y-192810000D01*
G75*
G02*
X381680000Y-192662500I0J147500D01*
G01*
X381680000Y-192367500D01*
G75*
G02*
X381827500Y-192220000I147500J0D01*
G01*
G37*
G36*
G01*
X383827500Y-192220000D02*
X384172500Y-192220000D01*
G75*
G02*
X384320000Y-192367500I0J-147500D01*
G01*
X384320000Y-192662500D01*
G75*
G02*
X384172500Y-192810000I-147500J0D01*
G01*
X383827500Y-192810000D01*
G75*
G02*
X383680000Y-192662500I0J147500D01*
G01*
X383680000Y-192367500D01*
G75*
G02*
X383827500Y-192220000I147500J0D01*
G01*
G37*
G36*
G01*
X383827500Y-193190000D02*
X384172500Y-193190000D01*
G75*
G02*
X384320000Y-193337500I0J-147500D01*
G01*
X384320000Y-193632500D01*
G75*
G02*
X384172500Y-193780000I-147500J0D01*
G01*
X383827500Y-193780000D01*
G75*
G02*
X383680000Y-193632500I0J147500D01*
G01*
X383680000Y-193337500D01*
G75*
G02*
X383827500Y-193190000I147500J0D01*
G01*
G37*
G36*
G01*
X385827500Y-193190000D02*
X386172500Y-193190000D01*
G75*
G02*
X386320000Y-193337500I0J-147500D01*
G01*
X386320000Y-193632500D01*
G75*
G02*
X386172500Y-193780000I-147500J0D01*
G01*
X385827500Y-193780000D01*
G75*
G02*
X385680000Y-193632500I0J147500D01*
G01*
X385680000Y-193337500D01*
G75*
G02*
X385827500Y-193190000I147500J0D01*
G01*
G37*
G36*
G01*
X385827500Y-192220000D02*
X386172500Y-192220000D01*
G75*
G02*
X386320000Y-192367500I0J-147500D01*
G01*
X386320000Y-192662500D01*
G75*
G02*
X386172500Y-192810000I-147500J0D01*
G01*
X385827500Y-192810000D01*
G75*
G02*
X385680000Y-192662500I0J147500D01*
G01*
X385680000Y-192367500D01*
G75*
G02*
X385827500Y-192220000I147500J0D01*
G01*
G37*
G36*
G01*
X387827500Y-193190000D02*
X388172500Y-193190000D01*
G75*
G02*
X388320000Y-193337500I0J-147500D01*
G01*
X388320000Y-193632500D01*
G75*
G02*
X388172500Y-193780000I-147500J0D01*
G01*
X387827500Y-193780000D01*
G75*
G02*
X387680000Y-193632500I0J147500D01*
G01*
X387680000Y-193337500D01*
G75*
G02*
X387827500Y-193190000I147500J0D01*
G01*
G37*
G36*
G01*
X387827500Y-192220000D02*
X388172500Y-192220000D01*
G75*
G02*
X388320000Y-192367500I0J-147500D01*
G01*
X388320000Y-192662500D01*
G75*
G02*
X388172500Y-192810000I-147500J0D01*
G01*
X387827500Y-192810000D01*
G75*
G02*
X387680000Y-192662500I0J147500D01*
G01*
X387680000Y-192367500D01*
G75*
G02*
X387827500Y-192220000I147500J0D01*
G01*
G37*
G36*
G01*
X389827500Y-192220000D02*
X390172500Y-192220000D01*
G75*
G02*
X390320000Y-192367500I0J-147500D01*
G01*
X390320000Y-192662500D01*
G75*
G02*
X390172500Y-192810000I-147500J0D01*
G01*
X389827500Y-192810000D01*
G75*
G02*
X389680000Y-192662500I0J147500D01*
G01*
X389680000Y-192367500D01*
G75*
G02*
X389827500Y-192220000I147500J0D01*
G01*
G37*
G36*
G01*
X389827500Y-193190000D02*
X390172500Y-193190000D01*
G75*
G02*
X390320000Y-193337500I0J-147500D01*
G01*
X390320000Y-193632500D01*
G75*
G02*
X390172500Y-193780000I-147500J0D01*
G01*
X389827500Y-193780000D01*
G75*
G02*
X389680000Y-193632500I0J147500D01*
G01*
X389680000Y-193337500D01*
G75*
G02*
X389827500Y-193190000I147500J0D01*
G01*
G37*
G36*
G01*
X391827500Y-192220000D02*
X392172500Y-192220000D01*
G75*
G02*
X392320000Y-192367500I0J-147500D01*
G01*
X392320000Y-192662500D01*
G75*
G02*
X392172500Y-192810000I-147500J0D01*
G01*
X391827500Y-192810000D01*
G75*
G02*
X391680000Y-192662500I0J147500D01*
G01*
X391680000Y-192367500D01*
G75*
G02*
X391827500Y-192220000I147500J0D01*
G01*
G37*
G36*
G01*
X391827500Y-193190000D02*
X392172500Y-193190000D01*
G75*
G02*
X392320000Y-193337500I0J-147500D01*
G01*
X392320000Y-193632500D01*
G75*
G02*
X392172500Y-193780000I-147500J0D01*
G01*
X391827500Y-193780000D01*
G75*
G02*
X391680000Y-193632500I0J147500D01*
G01*
X391680000Y-193337500D01*
G75*
G02*
X391827500Y-193190000I147500J0D01*
G01*
G37*
G36*
G01*
X393827500Y-193190000D02*
X394172500Y-193190000D01*
G75*
G02*
X394320000Y-193337500I0J-147500D01*
G01*
X394320000Y-193632500D01*
G75*
G02*
X394172500Y-193780000I-147500J0D01*
G01*
X393827500Y-193780000D01*
G75*
G02*
X393680000Y-193632500I0J147500D01*
G01*
X393680000Y-193337500D01*
G75*
G02*
X393827500Y-193190000I147500J0D01*
G01*
G37*
G36*
G01*
X393827500Y-192220000D02*
X394172500Y-192220000D01*
G75*
G02*
X394320000Y-192367500I0J-147500D01*
G01*
X394320000Y-192662500D01*
G75*
G02*
X394172500Y-192810000I-147500J0D01*
G01*
X393827500Y-192810000D01*
G75*
G02*
X393680000Y-192662500I0J147500D01*
G01*
X393680000Y-192367500D01*
G75*
G02*
X393827500Y-192220000I147500J0D01*
G01*
G37*
G36*
G01*
X395827500Y-192220000D02*
X396172500Y-192220000D01*
G75*
G02*
X396320000Y-192367500I0J-147500D01*
G01*
X396320000Y-192662500D01*
G75*
G02*
X396172500Y-192810000I-147500J0D01*
G01*
X395827500Y-192810000D01*
G75*
G02*
X395680000Y-192662500I0J147500D01*
G01*
X395680000Y-192367500D01*
G75*
G02*
X395827500Y-192220000I147500J0D01*
G01*
G37*
G36*
G01*
X395827500Y-193190000D02*
X396172500Y-193190000D01*
G75*
G02*
X396320000Y-193337500I0J-147500D01*
G01*
X396320000Y-193632500D01*
G75*
G02*
X396172500Y-193780000I-147500J0D01*
G01*
X395827500Y-193780000D01*
G75*
G02*
X395680000Y-193632500I0J147500D01*
G01*
X395680000Y-193337500D01*
G75*
G02*
X395827500Y-193190000I147500J0D01*
G01*
G37*
G36*
G01*
X397827500Y-193190000D02*
X398172500Y-193190000D01*
G75*
G02*
X398320000Y-193337500I0J-147500D01*
G01*
X398320000Y-193632500D01*
G75*
G02*
X398172500Y-193780000I-147500J0D01*
G01*
X397827500Y-193780000D01*
G75*
G02*
X397680000Y-193632500I0J147500D01*
G01*
X397680000Y-193337500D01*
G75*
G02*
X397827500Y-193190000I147500J0D01*
G01*
G37*
G36*
G01*
X397827500Y-192220000D02*
X398172500Y-192220000D01*
G75*
G02*
X398320000Y-192367500I0J-147500D01*
G01*
X398320000Y-192662500D01*
G75*
G02*
X398172500Y-192810000I-147500J0D01*
G01*
X397827500Y-192810000D01*
G75*
G02*
X397680000Y-192662500I0J147500D01*
G01*
X397680000Y-192367500D01*
G75*
G02*
X397827500Y-192220000I147500J0D01*
G01*
G37*
G36*
G01*
X399827500Y-193190000D02*
X400172500Y-193190000D01*
G75*
G02*
X400320000Y-193337500I0J-147500D01*
G01*
X400320000Y-193632500D01*
G75*
G02*
X400172500Y-193780000I-147500J0D01*
G01*
X399827500Y-193780000D01*
G75*
G02*
X399680000Y-193632500I0J147500D01*
G01*
X399680000Y-193337500D01*
G75*
G02*
X399827500Y-193190000I147500J0D01*
G01*
G37*
G36*
G01*
X399827500Y-192220000D02*
X400172500Y-192220000D01*
G75*
G02*
X400320000Y-192367500I0J-147500D01*
G01*
X400320000Y-192662500D01*
G75*
G02*
X400172500Y-192810000I-147500J0D01*
G01*
X399827500Y-192810000D01*
G75*
G02*
X399680000Y-192662500I0J147500D01*
G01*
X399680000Y-192367500D01*
G75*
G02*
X399827500Y-192220000I147500J0D01*
G01*
G37*
G36*
G01*
X401827500Y-192220000D02*
X402172500Y-192220000D01*
G75*
G02*
X402320000Y-192367500I0J-147500D01*
G01*
X402320000Y-192662500D01*
G75*
G02*
X402172500Y-192810000I-147500J0D01*
G01*
X401827500Y-192810000D01*
G75*
G02*
X401680000Y-192662500I0J147500D01*
G01*
X401680000Y-192367500D01*
G75*
G02*
X401827500Y-192220000I147500J0D01*
G01*
G37*
G36*
G01*
X401827500Y-193190000D02*
X402172500Y-193190000D01*
G75*
G02*
X402320000Y-193337500I0J-147500D01*
G01*
X402320000Y-193632500D01*
G75*
G02*
X402172500Y-193780000I-147500J0D01*
G01*
X401827500Y-193780000D01*
G75*
G02*
X401680000Y-193632500I0J147500D01*
G01*
X401680000Y-193337500D01*
G75*
G02*
X401827500Y-193190000I147500J0D01*
G01*
G37*
G36*
G01*
X333427500Y-192220000D02*
X333772500Y-192220000D01*
G75*
G02*
X333920000Y-192367500I0J-147500D01*
G01*
X333920000Y-192662500D01*
G75*
G02*
X333772500Y-192810000I-147500J0D01*
G01*
X333427500Y-192810000D01*
G75*
G02*
X333280000Y-192662500I0J147500D01*
G01*
X333280000Y-192367500D01*
G75*
G02*
X333427500Y-192220000I147500J0D01*
G01*
G37*
G36*
G01*
X333427500Y-193190000D02*
X333772500Y-193190000D01*
G75*
G02*
X333920000Y-193337500I0J-147500D01*
G01*
X333920000Y-193632500D01*
G75*
G02*
X333772500Y-193780000I-147500J0D01*
G01*
X333427500Y-193780000D01*
G75*
G02*
X333280000Y-193632500I0J147500D01*
G01*
X333280000Y-193337500D01*
G75*
G02*
X333427500Y-193190000I147500J0D01*
G01*
G37*
G36*
G01*
X335427500Y-193190000D02*
X335772500Y-193190000D01*
G75*
G02*
X335920000Y-193337500I0J-147500D01*
G01*
X335920000Y-193632500D01*
G75*
G02*
X335772500Y-193780000I-147500J0D01*
G01*
X335427500Y-193780000D01*
G75*
G02*
X335280000Y-193632500I0J147500D01*
G01*
X335280000Y-193337500D01*
G75*
G02*
X335427500Y-193190000I147500J0D01*
G01*
G37*
G36*
G01*
X335427500Y-192220000D02*
X335772500Y-192220000D01*
G75*
G02*
X335920000Y-192367500I0J-147500D01*
G01*
X335920000Y-192662500D01*
G75*
G02*
X335772500Y-192810000I-147500J0D01*
G01*
X335427500Y-192810000D01*
G75*
G02*
X335280000Y-192662500I0J147500D01*
G01*
X335280000Y-192367500D01*
G75*
G02*
X335427500Y-192220000I147500J0D01*
G01*
G37*
G36*
G01*
X337427500Y-193190000D02*
X337772500Y-193190000D01*
G75*
G02*
X337920000Y-193337500I0J-147500D01*
G01*
X337920000Y-193632500D01*
G75*
G02*
X337772500Y-193780000I-147500J0D01*
G01*
X337427500Y-193780000D01*
G75*
G02*
X337280000Y-193632500I0J147500D01*
G01*
X337280000Y-193337500D01*
G75*
G02*
X337427500Y-193190000I147500J0D01*
G01*
G37*
G36*
G01*
X337427500Y-192220000D02*
X337772500Y-192220000D01*
G75*
G02*
X337920000Y-192367500I0J-147500D01*
G01*
X337920000Y-192662500D01*
G75*
G02*
X337772500Y-192810000I-147500J0D01*
G01*
X337427500Y-192810000D01*
G75*
G02*
X337280000Y-192662500I0J147500D01*
G01*
X337280000Y-192367500D01*
G75*
G02*
X337427500Y-192220000I147500J0D01*
G01*
G37*
G36*
G01*
X339427500Y-192220000D02*
X339772500Y-192220000D01*
G75*
G02*
X339920000Y-192367500I0J-147500D01*
G01*
X339920000Y-192662500D01*
G75*
G02*
X339772500Y-192810000I-147500J0D01*
G01*
X339427500Y-192810000D01*
G75*
G02*
X339280000Y-192662500I0J147500D01*
G01*
X339280000Y-192367500D01*
G75*
G02*
X339427500Y-192220000I147500J0D01*
G01*
G37*
G36*
G01*
X339427500Y-193190000D02*
X339772500Y-193190000D01*
G75*
G02*
X339920000Y-193337500I0J-147500D01*
G01*
X339920000Y-193632500D01*
G75*
G02*
X339772500Y-193780000I-147500J0D01*
G01*
X339427500Y-193780000D01*
G75*
G02*
X339280000Y-193632500I0J147500D01*
G01*
X339280000Y-193337500D01*
G75*
G02*
X339427500Y-193190000I147500J0D01*
G01*
G37*
G36*
G01*
X341427500Y-193190000D02*
X341772500Y-193190000D01*
G75*
G02*
X341920000Y-193337500I0J-147500D01*
G01*
X341920000Y-193632500D01*
G75*
G02*
X341772500Y-193780000I-147500J0D01*
G01*
X341427500Y-193780000D01*
G75*
G02*
X341280000Y-193632500I0J147500D01*
G01*
X341280000Y-193337500D01*
G75*
G02*
X341427500Y-193190000I147500J0D01*
G01*
G37*
G36*
G01*
X341427500Y-192220000D02*
X341772500Y-192220000D01*
G75*
G02*
X341920000Y-192367500I0J-147500D01*
G01*
X341920000Y-192662500D01*
G75*
G02*
X341772500Y-192810000I-147500J0D01*
G01*
X341427500Y-192810000D01*
G75*
G02*
X341280000Y-192662500I0J147500D01*
G01*
X341280000Y-192367500D01*
G75*
G02*
X341427500Y-192220000I147500J0D01*
G01*
G37*
G36*
G01*
X343427500Y-192220000D02*
X343772500Y-192220000D01*
G75*
G02*
X343920000Y-192367500I0J-147500D01*
G01*
X343920000Y-192662500D01*
G75*
G02*
X343772500Y-192810000I-147500J0D01*
G01*
X343427500Y-192810000D01*
G75*
G02*
X343280000Y-192662500I0J147500D01*
G01*
X343280000Y-192367500D01*
G75*
G02*
X343427500Y-192220000I147500J0D01*
G01*
G37*
G36*
G01*
X343427500Y-193190000D02*
X343772500Y-193190000D01*
G75*
G02*
X343920000Y-193337500I0J-147500D01*
G01*
X343920000Y-193632500D01*
G75*
G02*
X343772500Y-193780000I-147500J0D01*
G01*
X343427500Y-193780000D01*
G75*
G02*
X343280000Y-193632500I0J147500D01*
G01*
X343280000Y-193337500D01*
G75*
G02*
X343427500Y-193190000I147500J0D01*
G01*
G37*
G36*
G01*
X345427500Y-193190000D02*
X345772500Y-193190000D01*
G75*
G02*
X345920000Y-193337500I0J-147500D01*
G01*
X345920000Y-193632500D01*
G75*
G02*
X345772500Y-193780000I-147500J0D01*
G01*
X345427500Y-193780000D01*
G75*
G02*
X345280000Y-193632500I0J147500D01*
G01*
X345280000Y-193337500D01*
G75*
G02*
X345427500Y-193190000I147500J0D01*
G01*
G37*
G36*
G01*
X345427500Y-192220000D02*
X345772500Y-192220000D01*
G75*
G02*
X345920000Y-192367500I0J-147500D01*
G01*
X345920000Y-192662500D01*
G75*
G02*
X345772500Y-192810000I-147500J0D01*
G01*
X345427500Y-192810000D01*
G75*
G02*
X345280000Y-192662500I0J147500D01*
G01*
X345280000Y-192367500D01*
G75*
G02*
X345427500Y-192220000I147500J0D01*
G01*
G37*
G36*
G01*
X347427500Y-192220000D02*
X347772500Y-192220000D01*
G75*
G02*
X347920000Y-192367500I0J-147500D01*
G01*
X347920000Y-192662500D01*
G75*
G02*
X347772500Y-192810000I-147500J0D01*
G01*
X347427500Y-192810000D01*
G75*
G02*
X347280000Y-192662500I0J147500D01*
G01*
X347280000Y-192367500D01*
G75*
G02*
X347427500Y-192220000I147500J0D01*
G01*
G37*
G36*
G01*
X347427500Y-193190000D02*
X347772500Y-193190000D01*
G75*
G02*
X347920000Y-193337500I0J-147500D01*
G01*
X347920000Y-193632500D01*
G75*
G02*
X347772500Y-193780000I-147500J0D01*
G01*
X347427500Y-193780000D01*
G75*
G02*
X347280000Y-193632500I0J147500D01*
G01*
X347280000Y-193337500D01*
G75*
G02*
X347427500Y-193190000I147500J0D01*
G01*
G37*
G36*
G01*
X349427500Y-192220000D02*
X349772500Y-192220000D01*
G75*
G02*
X349920000Y-192367500I0J-147500D01*
G01*
X349920000Y-192662500D01*
G75*
G02*
X349772500Y-192810000I-147500J0D01*
G01*
X349427500Y-192810000D01*
G75*
G02*
X349280000Y-192662500I0J147500D01*
G01*
X349280000Y-192367500D01*
G75*
G02*
X349427500Y-192220000I147500J0D01*
G01*
G37*
G36*
G01*
X349427500Y-193190000D02*
X349772500Y-193190000D01*
G75*
G02*
X349920000Y-193337500I0J-147500D01*
G01*
X349920000Y-193632500D01*
G75*
G02*
X349772500Y-193780000I-147500J0D01*
G01*
X349427500Y-193780000D01*
G75*
G02*
X349280000Y-193632500I0J147500D01*
G01*
X349280000Y-193337500D01*
G75*
G02*
X349427500Y-193190000I147500J0D01*
G01*
G37*
G36*
G01*
X351427500Y-193190000D02*
X351772500Y-193190000D01*
G75*
G02*
X351920000Y-193337500I0J-147500D01*
G01*
X351920000Y-193632500D01*
G75*
G02*
X351772500Y-193780000I-147500J0D01*
G01*
X351427500Y-193780000D01*
G75*
G02*
X351280000Y-193632500I0J147500D01*
G01*
X351280000Y-193337500D01*
G75*
G02*
X351427500Y-193190000I147500J0D01*
G01*
G37*
G36*
G01*
X351427500Y-192220000D02*
X351772500Y-192220000D01*
G75*
G02*
X351920000Y-192367500I0J-147500D01*
G01*
X351920000Y-192662500D01*
G75*
G02*
X351772500Y-192810000I-147500J0D01*
G01*
X351427500Y-192810000D01*
G75*
G02*
X351280000Y-192662500I0J147500D01*
G01*
X351280000Y-192367500D01*
G75*
G02*
X351427500Y-192220000I147500J0D01*
G01*
G37*
G36*
G01*
X353427500Y-193190000D02*
X353772500Y-193190000D01*
G75*
G02*
X353920000Y-193337500I0J-147500D01*
G01*
X353920000Y-193632500D01*
G75*
G02*
X353772500Y-193780000I-147500J0D01*
G01*
X353427500Y-193780000D01*
G75*
G02*
X353280000Y-193632500I0J147500D01*
G01*
X353280000Y-193337500D01*
G75*
G02*
X353427500Y-193190000I147500J0D01*
G01*
G37*
G36*
G01*
X353427500Y-192220000D02*
X353772500Y-192220000D01*
G75*
G02*
X353920000Y-192367500I0J-147500D01*
G01*
X353920000Y-192662500D01*
G75*
G02*
X353772500Y-192810000I-147500J0D01*
G01*
X353427500Y-192810000D01*
G75*
G02*
X353280000Y-192662500I0J147500D01*
G01*
X353280000Y-192367500D01*
G75*
G02*
X353427500Y-192220000I147500J0D01*
G01*
G37*
G36*
G01*
X355427500Y-193190000D02*
X355772500Y-193190000D01*
G75*
G02*
X355920000Y-193337500I0J-147500D01*
G01*
X355920000Y-193632500D01*
G75*
G02*
X355772500Y-193780000I-147500J0D01*
G01*
X355427500Y-193780000D01*
G75*
G02*
X355280000Y-193632500I0J147500D01*
G01*
X355280000Y-193337500D01*
G75*
G02*
X355427500Y-193190000I147500J0D01*
G01*
G37*
G36*
G01*
X355427500Y-192220000D02*
X355772500Y-192220000D01*
G75*
G02*
X355920000Y-192367500I0J-147500D01*
G01*
X355920000Y-192662500D01*
G75*
G02*
X355772500Y-192810000I-147500J0D01*
G01*
X355427500Y-192810000D01*
G75*
G02*
X355280000Y-192662500I0J147500D01*
G01*
X355280000Y-192367500D01*
G75*
G02*
X355427500Y-192220000I147500J0D01*
G01*
G37*
G36*
G01*
X357427500Y-193190000D02*
X357772500Y-193190000D01*
G75*
G02*
X357920000Y-193337500I0J-147500D01*
G01*
X357920000Y-193632500D01*
G75*
G02*
X357772500Y-193780000I-147500J0D01*
G01*
X357427500Y-193780000D01*
G75*
G02*
X357280000Y-193632500I0J147500D01*
G01*
X357280000Y-193337500D01*
G75*
G02*
X357427500Y-193190000I147500J0D01*
G01*
G37*
G36*
G01*
X357427500Y-192220000D02*
X357772500Y-192220000D01*
G75*
G02*
X357920000Y-192367500I0J-147500D01*
G01*
X357920000Y-192662500D01*
G75*
G02*
X357772500Y-192810000I-147500J0D01*
G01*
X357427500Y-192810000D01*
G75*
G02*
X357280000Y-192662500I0J147500D01*
G01*
X357280000Y-192367500D01*
G75*
G02*
X357427500Y-192220000I147500J0D01*
G01*
G37*
G36*
G01*
X359427500Y-192220000D02*
X359772500Y-192220000D01*
G75*
G02*
X359920000Y-192367500I0J-147500D01*
G01*
X359920000Y-192662500D01*
G75*
G02*
X359772500Y-192810000I-147500J0D01*
G01*
X359427500Y-192810000D01*
G75*
G02*
X359280000Y-192662500I0J147500D01*
G01*
X359280000Y-192367500D01*
G75*
G02*
X359427500Y-192220000I147500J0D01*
G01*
G37*
G36*
G01*
X359427500Y-193190000D02*
X359772500Y-193190000D01*
G75*
G02*
X359920000Y-193337500I0J-147500D01*
G01*
X359920000Y-193632500D01*
G75*
G02*
X359772500Y-193780000I-147500J0D01*
G01*
X359427500Y-193780000D01*
G75*
G02*
X359280000Y-193632500I0J147500D01*
G01*
X359280000Y-193337500D01*
G75*
G02*
X359427500Y-193190000I147500J0D01*
G01*
G37*
G36*
G01*
X361427500Y-193190000D02*
X361772500Y-193190000D01*
G75*
G02*
X361920000Y-193337500I0J-147500D01*
G01*
X361920000Y-193632500D01*
G75*
G02*
X361772500Y-193780000I-147500J0D01*
G01*
X361427500Y-193780000D01*
G75*
G02*
X361280000Y-193632500I0J147500D01*
G01*
X361280000Y-193337500D01*
G75*
G02*
X361427500Y-193190000I147500J0D01*
G01*
G37*
G36*
G01*
X361427500Y-192220000D02*
X361772500Y-192220000D01*
G75*
G02*
X361920000Y-192367500I0J-147500D01*
G01*
X361920000Y-192662500D01*
G75*
G02*
X361772500Y-192810000I-147500J0D01*
G01*
X361427500Y-192810000D01*
G75*
G02*
X361280000Y-192662500I0J147500D01*
G01*
X361280000Y-192367500D01*
G75*
G02*
X361427500Y-192220000I147500J0D01*
G01*
G37*
G36*
G01*
X363427500Y-192220000D02*
X363772500Y-192220000D01*
G75*
G02*
X363920000Y-192367500I0J-147500D01*
G01*
X363920000Y-192662500D01*
G75*
G02*
X363772500Y-192810000I-147500J0D01*
G01*
X363427500Y-192810000D01*
G75*
G02*
X363280000Y-192662500I0J147500D01*
G01*
X363280000Y-192367500D01*
G75*
G02*
X363427500Y-192220000I147500J0D01*
G01*
G37*
G36*
G01*
X363427500Y-193190000D02*
X363772500Y-193190000D01*
G75*
G02*
X363920000Y-193337500I0J-147500D01*
G01*
X363920000Y-193632500D01*
G75*
G02*
X363772500Y-193780000I-147500J0D01*
G01*
X363427500Y-193780000D01*
G75*
G02*
X363280000Y-193632500I0J147500D01*
G01*
X363280000Y-193337500D01*
G75*
G02*
X363427500Y-193190000I147500J0D01*
G01*
G37*
G36*
G01*
X469460000Y-112412500D02*
X469460000Y-112887500D01*
G75*
G02*
X469222500Y-113125000I-237500J0D01*
G01*
X468647500Y-113125000D01*
G75*
G02*
X468410000Y-112887500I0J237500D01*
G01*
X468410000Y-112412500D01*
G75*
G02*
X468647500Y-112175000I237500J0D01*
G01*
X469222500Y-112175000D01*
G75*
G02*
X469460000Y-112412500I0J-237500D01*
G01*
G37*
G36*
G01*
X467710000Y-112412500D02*
X467710000Y-112887500D01*
G75*
G02*
X467472500Y-113125000I-237500J0D01*
G01*
X466897500Y-113125000D01*
G75*
G02*
X466660000Y-112887500I0J237500D01*
G01*
X466660000Y-112412500D01*
G75*
G02*
X466897500Y-112175000I237500J0D01*
G01*
X467472500Y-112175000D01*
G75*
G02*
X467710000Y-112412500I0J-237500D01*
G01*
G37*
G36*
G01*
X468410000Y-116287500D02*
X468410000Y-115812500D01*
G75*
G02*
X468647500Y-115575000I237500J0D01*
G01*
X469222500Y-115575000D01*
G75*
G02*
X469460000Y-115812500I0J-237500D01*
G01*
X469460000Y-116287500D01*
G75*
G02*
X469222500Y-116525000I-237500J0D01*
G01*
X468647500Y-116525000D01*
G75*
G02*
X468410000Y-116287500I0J237500D01*
G01*
G37*
G36*
G01*
X466660000Y-116287500D02*
X466660000Y-115812500D01*
G75*
G02*
X466897500Y-115575000I237500J0D01*
G01*
X467472500Y-115575000D01*
G75*
G02*
X467710000Y-115812500I0J-237500D01*
G01*
X467710000Y-116287500D01*
G75*
G02*
X467472500Y-116525000I-237500J0D01*
G01*
X466897500Y-116525000D01*
G75*
G02*
X466660000Y-116287500I0J237500D01*
G01*
G37*
G36*
G01*
X385575000Y-178987500D02*
X385575000Y-178512500D01*
G75*
G02*
X385812500Y-178275000I237500J0D01*
G01*
X386387500Y-178275000D01*
G75*
G02*
X386625000Y-178512500I0J-237500D01*
G01*
X386625000Y-178987500D01*
G75*
G02*
X386387500Y-179225000I-237500J0D01*
G01*
X385812500Y-179225000D01*
G75*
G02*
X385575000Y-178987500I0J237500D01*
G01*
G37*
G36*
G01*
X387325000Y-178987500D02*
X387325000Y-178512500D01*
G75*
G02*
X387562500Y-178275000I237500J0D01*
G01*
X388137500Y-178275000D01*
G75*
G02*
X388375000Y-178512500I0J-237500D01*
G01*
X388375000Y-178987500D01*
G75*
G02*
X388137500Y-179225000I-237500J0D01*
G01*
X387562500Y-179225000D01*
G75*
G02*
X387325000Y-178987500I0J237500D01*
G01*
G37*
G36*
G01*
X387350000Y-173987500D02*
X387350000Y-173512500D01*
G75*
G02*
X387587500Y-173275000I237500J0D01*
G01*
X388162500Y-173275000D01*
G75*
G02*
X388400000Y-173512500I0J-237500D01*
G01*
X388400000Y-173987500D01*
G75*
G02*
X388162500Y-174225000I-237500J0D01*
G01*
X387587500Y-174225000D01*
G75*
G02*
X387350000Y-173987500I0J237500D01*
G01*
G37*
G36*
G01*
X385600000Y-173987500D02*
X385600000Y-173512500D01*
G75*
G02*
X385837500Y-173275000I237500J0D01*
G01*
X386412500Y-173275000D01*
G75*
G02*
X386650000Y-173512500I0J-237500D01*
G01*
X386650000Y-173987500D01*
G75*
G02*
X386412500Y-174225000I-237500J0D01*
G01*
X385837500Y-174225000D01*
G75*
G02*
X385600000Y-173987500I0J237500D01*
G01*
G37*
G36*
G01*
X400867500Y-155590000D02*
X400392500Y-155590000D01*
G75*
G02*
X400155000Y-155352500I0J237500D01*
G01*
X400155000Y-154777500D01*
G75*
G02*
X400392500Y-154540000I237500J0D01*
G01*
X400867500Y-154540000D01*
G75*
G02*
X401105000Y-154777500I0J-237500D01*
G01*
X401105000Y-155352500D01*
G75*
G02*
X400867500Y-155590000I-237500J0D01*
G01*
G37*
G36*
G01*
X400867500Y-157340000D02*
X400392500Y-157340000D01*
G75*
G02*
X400155000Y-157102500I0J237500D01*
G01*
X400155000Y-156527500D01*
G75*
G02*
X400392500Y-156290000I237500J0D01*
G01*
X400867500Y-156290000D01*
G75*
G02*
X401105000Y-156527500I0J-237500D01*
G01*
X401105000Y-157102500D01*
G75*
G02*
X400867500Y-157340000I-237500J0D01*
G01*
G37*
G36*
G01*
X374212500Y-185150000D02*
X374687500Y-185150000D01*
G75*
G02*
X374925000Y-185387500I0J-237500D01*
G01*
X374925000Y-185962500D01*
G75*
G02*
X374687500Y-186200000I-237500J0D01*
G01*
X374212500Y-186200000D01*
G75*
G02*
X373975000Y-185962500I0J237500D01*
G01*
X373975000Y-185387500D01*
G75*
G02*
X374212500Y-185150000I237500J0D01*
G01*
G37*
G36*
G01*
X374212500Y-183400000D02*
X374687500Y-183400000D01*
G75*
G02*
X374925000Y-183637500I0J-237500D01*
G01*
X374925000Y-184212500D01*
G75*
G02*
X374687500Y-184450000I-237500J0D01*
G01*
X374212500Y-184450000D01*
G75*
G02*
X373975000Y-184212500I0J237500D01*
G01*
X373975000Y-183637500D01*
G75*
G02*
X374212500Y-183400000I237500J0D01*
G01*
G37*
G36*
G01*
X372500000Y-189721500D02*
X372500000Y-189246500D01*
G75*
G02*
X372737500Y-189009000I237500J0D01*
G01*
X373312500Y-189009000D01*
G75*
G02*
X373550000Y-189246500I0J-237500D01*
G01*
X373550000Y-189721500D01*
G75*
G02*
X373312500Y-189959000I-237500J0D01*
G01*
X372737500Y-189959000D01*
G75*
G02*
X372500000Y-189721500I0J237500D01*
G01*
G37*
G36*
G01*
X374250000Y-189721500D02*
X374250000Y-189246500D01*
G75*
G02*
X374487500Y-189009000I237500J0D01*
G01*
X375062500Y-189009000D01*
G75*
G02*
X375300000Y-189246500I0J-237500D01*
G01*
X375300000Y-189721500D01*
G75*
G02*
X375062500Y-189959000I-237500J0D01*
G01*
X374487500Y-189959000D01*
G75*
G02*
X374250000Y-189721500I0J237500D01*
G01*
G37*
G36*
G01*
X381737500Y-187700000D02*
X381262500Y-187700000D01*
G75*
G02*
X381025000Y-187462500I0J237500D01*
G01*
X381025000Y-186887500D01*
G75*
G02*
X381262500Y-186650000I237500J0D01*
G01*
X381737500Y-186650000D01*
G75*
G02*
X381975000Y-186887500I0J-237500D01*
G01*
X381975000Y-187462500D01*
G75*
G02*
X381737500Y-187700000I-237500J0D01*
G01*
G37*
G36*
G01*
X381737500Y-185950000D02*
X381262500Y-185950000D01*
G75*
G02*
X381025000Y-185712500I0J237500D01*
G01*
X381025000Y-185137500D01*
G75*
G02*
X381262500Y-184900000I237500J0D01*
G01*
X381737500Y-184900000D01*
G75*
G02*
X381975000Y-185137500I0J-237500D01*
G01*
X381975000Y-185712500D01*
G75*
G02*
X381737500Y-185950000I-237500J0D01*
G01*
G37*
G36*
G01*
X401282500Y-186010000D02*
X401757500Y-186010000D01*
G75*
G02*
X401995000Y-186247500I0J-237500D01*
G01*
X401995000Y-186822500D01*
G75*
G02*
X401757500Y-187060000I-237500J0D01*
G01*
X401282500Y-187060000D01*
G75*
G02*
X401045000Y-186822500I0J237500D01*
G01*
X401045000Y-186247500D01*
G75*
G02*
X401282500Y-186010000I237500J0D01*
G01*
G37*
G36*
G01*
X401282500Y-187760000D02*
X401757500Y-187760000D01*
G75*
G02*
X401995000Y-187997500I0J-237500D01*
G01*
X401995000Y-188572500D01*
G75*
G02*
X401757500Y-188810000I-237500J0D01*
G01*
X401282500Y-188810000D01*
G75*
G02*
X401045000Y-188572500I0J237500D01*
G01*
X401045000Y-187997500D01*
G75*
G02*
X401282500Y-187760000I237500J0D01*
G01*
G37*
G36*
G01*
X401282500Y-171430000D02*
X401757500Y-171430000D01*
G75*
G02*
X401995000Y-171667500I0J-237500D01*
G01*
X401995000Y-172242500D01*
G75*
G02*
X401757500Y-172480000I-237500J0D01*
G01*
X401282500Y-172480000D01*
G75*
G02*
X401045000Y-172242500I0J237500D01*
G01*
X401045000Y-171667500D01*
G75*
G02*
X401282500Y-171430000I237500J0D01*
G01*
G37*
G36*
G01*
X401282500Y-169680000D02*
X401757500Y-169680000D01*
G75*
G02*
X401995000Y-169917500I0J-237500D01*
G01*
X401995000Y-170492500D01*
G75*
G02*
X401757500Y-170730000I-237500J0D01*
G01*
X401282500Y-170730000D01*
G75*
G02*
X401045000Y-170492500I0J237500D01*
G01*
X401045000Y-169917500D01*
G75*
G02*
X401282500Y-169680000I237500J0D01*
G01*
G37*
G36*
G01*
X373750000Y-163947500D02*
X373750000Y-163472500D01*
G75*
G02*
X373987500Y-163235000I237500J0D01*
G01*
X374562500Y-163235000D01*
G75*
G02*
X374800000Y-163472500I0J-237500D01*
G01*
X374800000Y-163947500D01*
G75*
G02*
X374562500Y-164185000I-237500J0D01*
G01*
X373987500Y-164185000D01*
G75*
G02*
X373750000Y-163947500I0J237500D01*
G01*
G37*
G36*
G01*
X372000000Y-163947500D02*
X372000000Y-163472500D01*
G75*
G02*
X372237500Y-163235000I237500J0D01*
G01*
X372812500Y-163235000D01*
G75*
G02*
X373050000Y-163472500I0J-237500D01*
G01*
X373050000Y-163947500D01*
G75*
G02*
X372812500Y-164185000I-237500J0D01*
G01*
X372237500Y-164185000D01*
G75*
G02*
X372000000Y-163947500I0J237500D01*
G01*
G37*
G36*
G01*
X401747500Y-184970000D02*
X401272500Y-184970000D01*
G75*
G02*
X401035000Y-184732500I0J237500D01*
G01*
X401035000Y-184157500D01*
G75*
G02*
X401272500Y-183920000I237500J0D01*
G01*
X401747500Y-183920000D01*
G75*
G02*
X401985000Y-184157500I0J-237500D01*
G01*
X401985000Y-184732500D01*
G75*
G02*
X401747500Y-184970000I-237500J0D01*
G01*
G37*
G36*
G01*
X401747500Y-183220000D02*
X401272500Y-183220000D01*
G75*
G02*
X401035000Y-182982500I0J237500D01*
G01*
X401035000Y-182407500D01*
G75*
G02*
X401272500Y-182170000I237500J0D01*
G01*
X401747500Y-182170000D01*
G75*
G02*
X401985000Y-182407500I0J-237500D01*
G01*
X401985000Y-182982500D01*
G75*
G02*
X401747500Y-183220000I-237500J0D01*
G01*
G37*
G36*
G01*
X401737500Y-178000000D02*
X401262500Y-178000000D01*
G75*
G02*
X401025000Y-177762500I0J237500D01*
G01*
X401025000Y-177187500D01*
G75*
G02*
X401262500Y-176950000I237500J0D01*
G01*
X401737500Y-176950000D01*
G75*
G02*
X401975000Y-177187500I0J-237500D01*
G01*
X401975000Y-177762500D01*
G75*
G02*
X401737500Y-178000000I-237500J0D01*
G01*
G37*
G36*
G01*
X401737500Y-179750000D02*
X401262500Y-179750000D01*
G75*
G02*
X401025000Y-179512500I0J237500D01*
G01*
X401025000Y-178937500D01*
G75*
G02*
X401262500Y-178700000I237500J0D01*
G01*
X401737500Y-178700000D01*
G75*
G02*
X401975000Y-178937500I0J-237500D01*
G01*
X401975000Y-179512500D01*
G75*
G02*
X401737500Y-179750000I-237500J0D01*
G01*
G37*
G36*
G01*
X403190000Y-178837500D02*
X403190000Y-178362500D01*
G75*
G02*
X403427500Y-178125000I237500J0D01*
G01*
X404002500Y-178125000D01*
G75*
G02*
X404240000Y-178362500I0J-237500D01*
G01*
X404240000Y-178837500D01*
G75*
G02*
X404002500Y-179075000I-237500J0D01*
G01*
X403427500Y-179075000D01*
G75*
G02*
X403190000Y-178837500I0J237500D01*
G01*
G37*
G36*
G01*
X404940000Y-178837500D02*
X404940000Y-178362500D01*
G75*
G02*
X405177500Y-178125000I237500J0D01*
G01*
X405752500Y-178125000D01*
G75*
G02*
X405990000Y-178362500I0J-237500D01*
G01*
X405990000Y-178837500D01*
G75*
G02*
X405752500Y-179075000I-237500J0D01*
G01*
X405177500Y-179075000D01*
G75*
G02*
X404940000Y-178837500I0J237500D01*
G01*
G37*
G36*
G01*
X372717500Y-173220000D02*
X372242500Y-173220000D01*
G75*
G02*
X372005000Y-172982500I0J237500D01*
G01*
X372005000Y-172407500D01*
G75*
G02*
X372242500Y-172170000I237500J0D01*
G01*
X372717500Y-172170000D01*
G75*
G02*
X372955000Y-172407500I0J-237500D01*
G01*
X372955000Y-172982500D01*
G75*
G02*
X372717500Y-173220000I-237500J0D01*
G01*
G37*
G36*
G01*
X372717500Y-171470000D02*
X372242500Y-171470000D01*
G75*
G02*
X372005000Y-171232500I0J237500D01*
G01*
X372005000Y-170657500D01*
G75*
G02*
X372242500Y-170420000I237500J0D01*
G01*
X372717500Y-170420000D01*
G75*
G02*
X372955000Y-170657500I0J-237500D01*
G01*
X372955000Y-171232500D01*
G75*
G02*
X372717500Y-171470000I-237500J0D01*
G01*
G37*
G36*
G01*
X376280000Y-175627500D02*
X376280000Y-175152500D01*
G75*
G02*
X376517500Y-174915000I237500J0D01*
G01*
X377092500Y-174915000D01*
G75*
G02*
X377330000Y-175152500I0J-237500D01*
G01*
X377330000Y-175627500D01*
G75*
G02*
X377092500Y-175865000I-237500J0D01*
G01*
X376517500Y-175865000D01*
G75*
G02*
X376280000Y-175627500I0J237500D01*
G01*
G37*
G36*
G01*
X374530000Y-175627500D02*
X374530000Y-175152500D01*
G75*
G02*
X374767500Y-174915000I237500J0D01*
G01*
X375342500Y-174915000D01*
G75*
G02*
X375580000Y-175152500I0J-237500D01*
G01*
X375580000Y-175627500D01*
G75*
G02*
X375342500Y-175865000I-237500J0D01*
G01*
X374767500Y-175865000D01*
G75*
G02*
X374530000Y-175627500I0J237500D01*
G01*
G37*
G36*
G01*
X372242500Y-177690000D02*
X372717500Y-177690000D01*
G75*
G02*
X372955000Y-177927500I0J-237500D01*
G01*
X372955000Y-178502500D01*
G75*
G02*
X372717500Y-178740000I-237500J0D01*
G01*
X372242500Y-178740000D01*
G75*
G02*
X372005000Y-178502500I0J237500D01*
G01*
X372005000Y-177927500D01*
G75*
G02*
X372242500Y-177690000I237500J0D01*
G01*
G37*
G36*
G01*
X372242500Y-175940000D02*
X372717500Y-175940000D01*
G75*
G02*
X372955000Y-176177500I0J-237500D01*
G01*
X372955000Y-176752500D01*
G75*
G02*
X372717500Y-176990000I-237500J0D01*
G01*
X372242500Y-176990000D01*
G75*
G02*
X372005000Y-176752500I0J237500D01*
G01*
X372005000Y-176177500D01*
G75*
G02*
X372242500Y-175940000I237500J0D01*
G01*
G37*
G36*
G01*
X372717500Y-182550000D02*
X372242500Y-182550000D01*
G75*
G02*
X372005000Y-182312500I0J237500D01*
G01*
X372005000Y-181737500D01*
G75*
G02*
X372242500Y-181500000I237500J0D01*
G01*
X372717500Y-181500000D01*
G75*
G02*
X372955000Y-181737500I0J-237500D01*
G01*
X372955000Y-182312500D01*
G75*
G02*
X372717500Y-182550000I-237500J0D01*
G01*
G37*
G36*
G01*
X372717500Y-180800000D02*
X372242500Y-180800000D01*
G75*
G02*
X372005000Y-180562500I0J237500D01*
G01*
X372005000Y-179987500D01*
G75*
G02*
X372242500Y-179750000I237500J0D01*
G01*
X372717500Y-179750000D01*
G75*
G02*
X372955000Y-179987500I0J-237500D01*
G01*
X372955000Y-180562500D01*
G75*
G02*
X372717500Y-180800000I-237500J0D01*
G01*
G37*
G36*
G01*
X389710000Y-186532500D02*
X389710000Y-187007500D01*
G75*
G02*
X389472500Y-187245000I-237500J0D01*
G01*
X388897500Y-187245000D01*
G75*
G02*
X388660000Y-187007500I0J237500D01*
G01*
X388660000Y-186532500D01*
G75*
G02*
X388897500Y-186295000I237500J0D01*
G01*
X389472500Y-186295000D01*
G75*
G02*
X389710000Y-186532500I0J-237500D01*
G01*
G37*
G36*
G01*
X387960000Y-186532500D02*
X387960000Y-187007500D01*
G75*
G02*
X387722500Y-187245000I-237500J0D01*
G01*
X387147500Y-187245000D01*
G75*
G02*
X386910000Y-187007500I0J237500D01*
G01*
X386910000Y-186532500D01*
G75*
G02*
X387147500Y-186295000I237500J0D01*
G01*
X387722500Y-186295000D01*
G75*
G02*
X387960000Y-186532500I0J-237500D01*
G01*
G37*
G36*
G01*
X372242500Y-183080000D02*
X372717500Y-183080000D01*
G75*
G02*
X372955000Y-183317500I0J-237500D01*
G01*
X372955000Y-183892500D01*
G75*
G02*
X372717500Y-184130000I-237500J0D01*
G01*
X372242500Y-184130000D01*
G75*
G02*
X372005000Y-183892500I0J237500D01*
G01*
X372005000Y-183317500D01*
G75*
G02*
X372242500Y-183080000I237500J0D01*
G01*
G37*
G36*
G01*
X372242500Y-184830000D02*
X372717500Y-184830000D01*
G75*
G02*
X372955000Y-185067500I0J-237500D01*
G01*
X372955000Y-185642500D01*
G75*
G02*
X372717500Y-185880000I-237500J0D01*
G01*
X372242500Y-185880000D01*
G75*
G02*
X372005000Y-185642500I0J237500D01*
G01*
X372005000Y-185067500D01*
G75*
G02*
X372242500Y-184830000I237500J0D01*
G01*
G37*
G36*
G01*
X385802500Y-159930000D02*
X386277500Y-159930000D01*
G75*
G02*
X386515000Y-160167500I0J-237500D01*
G01*
X386515000Y-160742500D01*
G75*
G02*
X386277500Y-160980000I-237500J0D01*
G01*
X385802500Y-160980000D01*
G75*
G02*
X385565000Y-160742500I0J237500D01*
G01*
X385565000Y-160167500D01*
G75*
G02*
X385802500Y-159930000I237500J0D01*
G01*
G37*
G36*
G01*
X385802500Y-161680000D02*
X386277500Y-161680000D01*
G75*
G02*
X386515000Y-161917500I0J-237500D01*
G01*
X386515000Y-162492500D01*
G75*
G02*
X386277500Y-162730000I-237500J0D01*
G01*
X385802500Y-162730000D01*
G75*
G02*
X385565000Y-162492500I0J237500D01*
G01*
X385565000Y-161917500D01*
G75*
G02*
X385802500Y-161680000I237500J0D01*
G01*
G37*
G36*
G01*
X371827500Y-195190000D02*
X372172500Y-195190000D01*
G75*
G02*
X372320000Y-195337500I0J-147500D01*
G01*
X372320000Y-195632500D01*
G75*
G02*
X372172500Y-195780000I-147500J0D01*
G01*
X371827500Y-195780000D01*
G75*
G02*
X371680000Y-195632500I0J147500D01*
G01*
X371680000Y-195337500D01*
G75*
G02*
X371827500Y-195190000I147500J0D01*
G01*
G37*
G36*
G01*
X371827500Y-194220000D02*
X372172500Y-194220000D01*
G75*
G02*
X372320000Y-194367500I0J-147500D01*
G01*
X372320000Y-194662500D01*
G75*
G02*
X372172500Y-194810000I-147500J0D01*
G01*
X371827500Y-194810000D01*
G75*
G02*
X371680000Y-194662500I0J147500D01*
G01*
X371680000Y-194367500D01*
G75*
G02*
X371827500Y-194220000I147500J0D01*
G01*
G37*
G36*
G01*
X373827500Y-195190000D02*
X374172500Y-195190000D01*
G75*
G02*
X374320000Y-195337500I0J-147500D01*
G01*
X374320000Y-195632500D01*
G75*
G02*
X374172500Y-195780000I-147500J0D01*
G01*
X373827500Y-195780000D01*
G75*
G02*
X373680000Y-195632500I0J147500D01*
G01*
X373680000Y-195337500D01*
G75*
G02*
X373827500Y-195190000I147500J0D01*
G01*
G37*
G36*
G01*
X373827500Y-194220000D02*
X374172500Y-194220000D01*
G75*
G02*
X374320000Y-194367500I0J-147500D01*
G01*
X374320000Y-194662500D01*
G75*
G02*
X374172500Y-194810000I-147500J0D01*
G01*
X373827500Y-194810000D01*
G75*
G02*
X373680000Y-194662500I0J147500D01*
G01*
X373680000Y-194367500D01*
G75*
G02*
X373827500Y-194220000I147500J0D01*
G01*
G37*
G36*
G01*
X375827500Y-194220000D02*
X376172500Y-194220000D01*
G75*
G02*
X376320000Y-194367500I0J-147500D01*
G01*
X376320000Y-194662500D01*
G75*
G02*
X376172500Y-194810000I-147500J0D01*
G01*
X375827500Y-194810000D01*
G75*
G02*
X375680000Y-194662500I0J147500D01*
G01*
X375680000Y-194367500D01*
G75*
G02*
X375827500Y-194220000I147500J0D01*
G01*
G37*
G36*
G01*
X375827500Y-195190000D02*
X376172500Y-195190000D01*
G75*
G02*
X376320000Y-195337500I0J-147500D01*
G01*
X376320000Y-195632500D01*
G75*
G02*
X376172500Y-195780000I-147500J0D01*
G01*
X375827500Y-195780000D01*
G75*
G02*
X375680000Y-195632500I0J147500D01*
G01*
X375680000Y-195337500D01*
G75*
G02*
X375827500Y-195190000I147500J0D01*
G01*
G37*
G36*
G01*
X377827500Y-195190000D02*
X378172500Y-195190000D01*
G75*
G02*
X378320000Y-195337500I0J-147500D01*
G01*
X378320000Y-195632500D01*
G75*
G02*
X378172500Y-195780000I-147500J0D01*
G01*
X377827500Y-195780000D01*
G75*
G02*
X377680000Y-195632500I0J147500D01*
G01*
X377680000Y-195337500D01*
G75*
G02*
X377827500Y-195190000I147500J0D01*
G01*
G37*
G36*
G01*
X377827500Y-194220000D02*
X378172500Y-194220000D01*
G75*
G02*
X378320000Y-194367500I0J-147500D01*
G01*
X378320000Y-194662500D01*
G75*
G02*
X378172500Y-194810000I-147500J0D01*
G01*
X377827500Y-194810000D01*
G75*
G02*
X377680000Y-194662500I0J147500D01*
G01*
X377680000Y-194367500D01*
G75*
G02*
X377827500Y-194220000I147500J0D01*
G01*
G37*
G36*
G01*
X379827500Y-194220000D02*
X380172500Y-194220000D01*
G75*
G02*
X380320000Y-194367500I0J-147500D01*
G01*
X380320000Y-194662500D01*
G75*
G02*
X380172500Y-194810000I-147500J0D01*
G01*
X379827500Y-194810000D01*
G75*
G02*
X379680000Y-194662500I0J147500D01*
G01*
X379680000Y-194367500D01*
G75*
G02*
X379827500Y-194220000I147500J0D01*
G01*
G37*
G36*
G01*
X379827500Y-195190000D02*
X380172500Y-195190000D01*
G75*
G02*
X380320000Y-195337500I0J-147500D01*
G01*
X380320000Y-195632500D01*
G75*
G02*
X380172500Y-195780000I-147500J0D01*
G01*
X379827500Y-195780000D01*
G75*
G02*
X379680000Y-195632500I0J147500D01*
G01*
X379680000Y-195337500D01*
G75*
G02*
X379827500Y-195190000I147500J0D01*
G01*
G37*
G36*
G01*
X381827500Y-195190000D02*
X382172500Y-195190000D01*
G75*
G02*
X382320000Y-195337500I0J-147500D01*
G01*
X382320000Y-195632500D01*
G75*
G02*
X382172500Y-195780000I-147500J0D01*
G01*
X381827500Y-195780000D01*
G75*
G02*
X381680000Y-195632500I0J147500D01*
G01*
X381680000Y-195337500D01*
G75*
G02*
X381827500Y-195190000I147500J0D01*
G01*
G37*
G36*
G01*
X381827500Y-194220000D02*
X382172500Y-194220000D01*
G75*
G02*
X382320000Y-194367500I0J-147500D01*
G01*
X382320000Y-194662500D01*
G75*
G02*
X382172500Y-194810000I-147500J0D01*
G01*
X381827500Y-194810000D01*
G75*
G02*
X381680000Y-194662500I0J147500D01*
G01*
X381680000Y-194367500D01*
G75*
G02*
X381827500Y-194220000I147500J0D01*
G01*
G37*
G36*
G01*
X383827500Y-195190000D02*
X384172500Y-195190000D01*
G75*
G02*
X384320000Y-195337500I0J-147500D01*
G01*
X384320000Y-195632500D01*
G75*
G02*
X384172500Y-195780000I-147500J0D01*
G01*
X383827500Y-195780000D01*
G75*
G02*
X383680000Y-195632500I0J147500D01*
G01*
X383680000Y-195337500D01*
G75*
G02*
X383827500Y-195190000I147500J0D01*
G01*
G37*
G36*
G01*
X383827500Y-194220000D02*
X384172500Y-194220000D01*
G75*
G02*
X384320000Y-194367500I0J-147500D01*
G01*
X384320000Y-194662500D01*
G75*
G02*
X384172500Y-194810000I-147500J0D01*
G01*
X383827500Y-194810000D01*
G75*
G02*
X383680000Y-194662500I0J147500D01*
G01*
X383680000Y-194367500D01*
G75*
G02*
X383827500Y-194220000I147500J0D01*
G01*
G37*
G36*
G01*
X385827500Y-195190000D02*
X386172500Y-195190000D01*
G75*
G02*
X386320000Y-195337500I0J-147500D01*
G01*
X386320000Y-195632500D01*
G75*
G02*
X386172500Y-195780000I-147500J0D01*
G01*
X385827500Y-195780000D01*
G75*
G02*
X385680000Y-195632500I0J147500D01*
G01*
X385680000Y-195337500D01*
G75*
G02*
X385827500Y-195190000I147500J0D01*
G01*
G37*
G36*
G01*
X385827500Y-194220000D02*
X386172500Y-194220000D01*
G75*
G02*
X386320000Y-194367500I0J-147500D01*
G01*
X386320000Y-194662500D01*
G75*
G02*
X386172500Y-194810000I-147500J0D01*
G01*
X385827500Y-194810000D01*
G75*
G02*
X385680000Y-194662500I0J147500D01*
G01*
X385680000Y-194367500D01*
G75*
G02*
X385827500Y-194220000I147500J0D01*
G01*
G37*
G36*
G01*
X387827500Y-194220000D02*
X388172500Y-194220000D01*
G75*
G02*
X388320000Y-194367500I0J-147500D01*
G01*
X388320000Y-194662500D01*
G75*
G02*
X388172500Y-194810000I-147500J0D01*
G01*
X387827500Y-194810000D01*
G75*
G02*
X387680000Y-194662500I0J147500D01*
G01*
X387680000Y-194367500D01*
G75*
G02*
X387827500Y-194220000I147500J0D01*
G01*
G37*
G36*
G01*
X387827500Y-195190000D02*
X388172500Y-195190000D01*
G75*
G02*
X388320000Y-195337500I0J-147500D01*
G01*
X388320000Y-195632500D01*
G75*
G02*
X388172500Y-195780000I-147500J0D01*
G01*
X387827500Y-195780000D01*
G75*
G02*
X387680000Y-195632500I0J147500D01*
G01*
X387680000Y-195337500D01*
G75*
G02*
X387827500Y-195190000I147500J0D01*
G01*
G37*
G36*
G01*
X389827500Y-195190000D02*
X390172500Y-195190000D01*
G75*
G02*
X390320000Y-195337500I0J-147500D01*
G01*
X390320000Y-195632500D01*
G75*
G02*
X390172500Y-195780000I-147500J0D01*
G01*
X389827500Y-195780000D01*
G75*
G02*
X389680000Y-195632500I0J147500D01*
G01*
X389680000Y-195337500D01*
G75*
G02*
X389827500Y-195190000I147500J0D01*
G01*
G37*
G36*
G01*
X389827500Y-194220000D02*
X390172500Y-194220000D01*
G75*
G02*
X390320000Y-194367500I0J-147500D01*
G01*
X390320000Y-194662500D01*
G75*
G02*
X390172500Y-194810000I-147500J0D01*
G01*
X389827500Y-194810000D01*
G75*
G02*
X389680000Y-194662500I0J147500D01*
G01*
X389680000Y-194367500D01*
G75*
G02*
X389827500Y-194220000I147500J0D01*
G01*
G37*
G36*
G01*
X391827500Y-194220000D02*
X392172500Y-194220000D01*
G75*
G02*
X392320000Y-194367500I0J-147500D01*
G01*
X392320000Y-194662500D01*
G75*
G02*
X392172500Y-194810000I-147500J0D01*
G01*
X391827500Y-194810000D01*
G75*
G02*
X391680000Y-194662500I0J147500D01*
G01*
X391680000Y-194367500D01*
G75*
G02*
X391827500Y-194220000I147500J0D01*
G01*
G37*
G36*
G01*
X391827500Y-195190000D02*
X392172500Y-195190000D01*
G75*
G02*
X392320000Y-195337500I0J-147500D01*
G01*
X392320000Y-195632500D01*
G75*
G02*
X392172500Y-195780000I-147500J0D01*
G01*
X391827500Y-195780000D01*
G75*
G02*
X391680000Y-195632500I0J147500D01*
G01*
X391680000Y-195337500D01*
G75*
G02*
X391827500Y-195190000I147500J0D01*
G01*
G37*
G36*
G01*
X393827500Y-194220000D02*
X394172500Y-194220000D01*
G75*
G02*
X394320000Y-194367500I0J-147500D01*
G01*
X394320000Y-194662500D01*
G75*
G02*
X394172500Y-194810000I-147500J0D01*
G01*
X393827500Y-194810000D01*
G75*
G02*
X393680000Y-194662500I0J147500D01*
G01*
X393680000Y-194367500D01*
G75*
G02*
X393827500Y-194220000I147500J0D01*
G01*
G37*
G36*
G01*
X393827500Y-195190000D02*
X394172500Y-195190000D01*
G75*
G02*
X394320000Y-195337500I0J-147500D01*
G01*
X394320000Y-195632500D01*
G75*
G02*
X394172500Y-195780000I-147500J0D01*
G01*
X393827500Y-195780000D01*
G75*
G02*
X393680000Y-195632500I0J147500D01*
G01*
X393680000Y-195337500D01*
G75*
G02*
X393827500Y-195190000I147500J0D01*
G01*
G37*
G36*
G01*
X395827500Y-194220000D02*
X396172500Y-194220000D01*
G75*
G02*
X396320000Y-194367500I0J-147500D01*
G01*
X396320000Y-194662500D01*
G75*
G02*
X396172500Y-194810000I-147500J0D01*
G01*
X395827500Y-194810000D01*
G75*
G02*
X395680000Y-194662500I0J147500D01*
G01*
X395680000Y-194367500D01*
G75*
G02*
X395827500Y-194220000I147500J0D01*
G01*
G37*
G36*
G01*
X395827500Y-195190000D02*
X396172500Y-195190000D01*
G75*
G02*
X396320000Y-195337500I0J-147500D01*
G01*
X396320000Y-195632500D01*
G75*
G02*
X396172500Y-195780000I-147500J0D01*
G01*
X395827500Y-195780000D01*
G75*
G02*
X395680000Y-195632500I0J147500D01*
G01*
X395680000Y-195337500D01*
G75*
G02*
X395827500Y-195190000I147500J0D01*
G01*
G37*
G36*
G01*
X397827500Y-194220000D02*
X398172500Y-194220000D01*
G75*
G02*
X398320000Y-194367500I0J-147500D01*
G01*
X398320000Y-194662500D01*
G75*
G02*
X398172500Y-194810000I-147500J0D01*
G01*
X397827500Y-194810000D01*
G75*
G02*
X397680000Y-194662500I0J147500D01*
G01*
X397680000Y-194367500D01*
G75*
G02*
X397827500Y-194220000I147500J0D01*
G01*
G37*
G36*
G01*
X397827500Y-195190000D02*
X398172500Y-195190000D01*
G75*
G02*
X398320000Y-195337500I0J-147500D01*
G01*
X398320000Y-195632500D01*
G75*
G02*
X398172500Y-195780000I-147500J0D01*
G01*
X397827500Y-195780000D01*
G75*
G02*
X397680000Y-195632500I0J147500D01*
G01*
X397680000Y-195337500D01*
G75*
G02*
X397827500Y-195190000I147500J0D01*
G01*
G37*
G36*
G01*
X399827500Y-195190000D02*
X400172500Y-195190000D01*
G75*
G02*
X400320000Y-195337500I0J-147500D01*
G01*
X400320000Y-195632500D01*
G75*
G02*
X400172500Y-195780000I-147500J0D01*
G01*
X399827500Y-195780000D01*
G75*
G02*
X399680000Y-195632500I0J147500D01*
G01*
X399680000Y-195337500D01*
G75*
G02*
X399827500Y-195190000I147500J0D01*
G01*
G37*
G36*
G01*
X399827500Y-194220000D02*
X400172500Y-194220000D01*
G75*
G02*
X400320000Y-194367500I0J-147500D01*
G01*
X400320000Y-194662500D01*
G75*
G02*
X400172500Y-194810000I-147500J0D01*
G01*
X399827500Y-194810000D01*
G75*
G02*
X399680000Y-194662500I0J147500D01*
G01*
X399680000Y-194367500D01*
G75*
G02*
X399827500Y-194220000I147500J0D01*
G01*
G37*
G36*
G01*
X401827500Y-194220000D02*
X402172500Y-194220000D01*
G75*
G02*
X402320000Y-194367500I0J-147500D01*
G01*
X402320000Y-194662500D01*
G75*
G02*
X402172500Y-194810000I-147500J0D01*
G01*
X401827500Y-194810000D01*
G75*
G02*
X401680000Y-194662500I0J147500D01*
G01*
X401680000Y-194367500D01*
G75*
G02*
X401827500Y-194220000I147500J0D01*
G01*
G37*
G36*
G01*
X401827500Y-195190000D02*
X402172500Y-195190000D01*
G75*
G02*
X402320000Y-195337500I0J-147500D01*
G01*
X402320000Y-195632500D01*
G75*
G02*
X402172500Y-195780000I-147500J0D01*
G01*
X401827500Y-195780000D01*
G75*
G02*
X401680000Y-195632500I0J147500D01*
G01*
X401680000Y-195337500D01*
G75*
G02*
X401827500Y-195190000I147500J0D01*
G01*
G37*
G36*
G01*
X398350000Y-181337500D02*
X398350000Y-180862500D01*
G75*
G02*
X398587500Y-180625000I237500J0D01*
G01*
X399162500Y-180625000D01*
G75*
G02*
X399400000Y-180862500I0J-237500D01*
G01*
X399400000Y-181337500D01*
G75*
G02*
X399162500Y-181575000I-237500J0D01*
G01*
X398587500Y-181575000D01*
G75*
G02*
X398350000Y-181337500I0J237500D01*
G01*
G37*
G36*
G01*
X396600000Y-181337500D02*
X396600000Y-180862500D01*
G75*
G02*
X396837500Y-180625000I237500J0D01*
G01*
X397412500Y-180625000D01*
G75*
G02*
X397650000Y-180862500I0J-237500D01*
G01*
X397650000Y-181337500D01*
G75*
G02*
X397412500Y-181575000I-237500J0D01*
G01*
X396837500Y-181575000D01*
G75*
G02*
X396600000Y-181337500I0J237500D01*
G01*
G37*
G36*
G01*
X396600000Y-178282500D02*
X396600000Y-177807500D01*
G75*
G02*
X396837500Y-177570000I237500J0D01*
G01*
X397412500Y-177570000D01*
G75*
G02*
X397650000Y-177807500I0J-237500D01*
G01*
X397650000Y-178282500D01*
G75*
G02*
X397412500Y-178520000I-237500J0D01*
G01*
X396837500Y-178520000D01*
G75*
G02*
X396600000Y-178282500I0J237500D01*
G01*
G37*
G36*
G01*
X398350000Y-178282500D02*
X398350000Y-177807500D01*
G75*
G02*
X398587500Y-177570000I237500J0D01*
G01*
X399162500Y-177570000D01*
G75*
G02*
X399400000Y-177807500I0J-237500D01*
G01*
X399400000Y-178282500D01*
G75*
G02*
X399162500Y-178520000I-237500J0D01*
G01*
X398587500Y-178520000D01*
G75*
G02*
X398350000Y-178282500I0J237500D01*
G01*
G37*
G36*
G01*
X396600000Y-176737500D02*
X396600000Y-176262500D01*
G75*
G02*
X396837500Y-176025000I237500J0D01*
G01*
X397412500Y-176025000D01*
G75*
G02*
X397650000Y-176262500I0J-237500D01*
G01*
X397650000Y-176737500D01*
G75*
G02*
X397412500Y-176975000I-237500J0D01*
G01*
X396837500Y-176975000D01*
G75*
G02*
X396600000Y-176737500I0J237500D01*
G01*
G37*
G36*
G01*
X398350000Y-176737500D02*
X398350000Y-176262500D01*
G75*
G02*
X398587500Y-176025000I237500J0D01*
G01*
X399162500Y-176025000D01*
G75*
G02*
X399400000Y-176262500I0J-237500D01*
G01*
X399400000Y-176737500D01*
G75*
G02*
X399162500Y-176975000I-237500J0D01*
G01*
X398587500Y-176975000D01*
G75*
G02*
X398350000Y-176737500I0J237500D01*
G01*
G37*
G36*
G01*
X388237500Y-132475000D02*
X387762500Y-132475000D01*
G75*
G02*
X387525000Y-132237500I0J237500D01*
G01*
X387525000Y-131662500D01*
G75*
G02*
X387762500Y-131425000I237500J0D01*
G01*
X388237500Y-131425000D01*
G75*
G02*
X388475000Y-131662500I0J-237500D01*
G01*
X388475000Y-132237500D01*
G75*
G02*
X388237500Y-132475000I-237500J0D01*
G01*
G37*
G36*
G01*
X388237500Y-130725000D02*
X387762500Y-130725000D01*
G75*
G02*
X387525000Y-130487500I0J237500D01*
G01*
X387525000Y-129912500D01*
G75*
G02*
X387762500Y-129675000I237500J0D01*
G01*
X388237500Y-129675000D01*
G75*
G02*
X388475000Y-129912500I0J-237500D01*
G01*
X388475000Y-130487500D01*
G75*
G02*
X388237500Y-130725000I-237500J0D01*
G01*
G37*
G36*
G01*
X378187500Y-130875000D02*
X377712500Y-130875000D01*
G75*
G02*
X377475000Y-130637500I0J237500D01*
G01*
X377475000Y-130062500D01*
G75*
G02*
X377712500Y-129825000I237500J0D01*
G01*
X378187500Y-129825000D01*
G75*
G02*
X378425000Y-130062500I0J-237500D01*
G01*
X378425000Y-130637500D01*
G75*
G02*
X378187500Y-130875000I-237500J0D01*
G01*
G37*
G36*
G01*
X378187500Y-132625000D02*
X377712500Y-132625000D01*
G75*
G02*
X377475000Y-132387500I0J237500D01*
G01*
X377475000Y-131812500D01*
G75*
G02*
X377712500Y-131575000I237500J0D01*
G01*
X378187500Y-131575000D01*
G75*
G02*
X378425000Y-131812500I0J-237500D01*
G01*
X378425000Y-132387500D01*
G75*
G02*
X378187500Y-132625000I-237500J0D01*
G01*
G37*
G36*
G01*
X380925000Y-133462500D02*
X380925000Y-133937500D01*
G75*
G02*
X380687500Y-134175000I-237500J0D01*
G01*
X380112500Y-134175000D01*
G75*
G02*
X379875000Y-133937500I0J237500D01*
G01*
X379875000Y-133462500D01*
G75*
G02*
X380112500Y-133225000I237500J0D01*
G01*
X380687500Y-133225000D01*
G75*
G02*
X380925000Y-133462500I0J-237500D01*
G01*
G37*
G36*
G01*
X379175000Y-133462500D02*
X379175000Y-133937500D01*
G75*
G02*
X378937500Y-134175000I-237500J0D01*
G01*
X378362500Y-134175000D01*
G75*
G02*
X378125000Y-133937500I0J237500D01*
G01*
X378125000Y-133462500D01*
G75*
G02*
X378362500Y-133225000I237500J0D01*
G01*
X378937500Y-133225000D01*
G75*
G02*
X379175000Y-133462500I0J-237500D01*
G01*
G37*
G36*
G01*
X404237500Y-181275000D02*
X403762500Y-181275000D01*
G75*
G02*
X403525000Y-181037500I0J237500D01*
G01*
X403525000Y-180462500D01*
G75*
G02*
X403762500Y-180225000I237500J0D01*
G01*
X404237500Y-180225000D01*
G75*
G02*
X404475000Y-180462500I0J-237500D01*
G01*
X404475000Y-181037500D01*
G75*
G02*
X404237500Y-181275000I-237500J0D01*
G01*
G37*
G36*
G01*
X404237500Y-183025000D02*
X403762500Y-183025000D01*
G75*
G02*
X403525000Y-182787500I0J237500D01*
G01*
X403525000Y-182212500D01*
G75*
G02*
X403762500Y-181975000I237500J0D01*
G01*
X404237500Y-181975000D01*
G75*
G02*
X404475000Y-182212500I0J-237500D01*
G01*
X404475000Y-182787500D01*
G75*
G02*
X404237500Y-183025000I-237500J0D01*
G01*
G37*
G36*
G01*
X397655000Y-183917500D02*
X397655000Y-184392500D01*
G75*
G02*
X397417500Y-184630000I-237500J0D01*
G01*
X396842500Y-184630000D01*
G75*
G02*
X396605000Y-184392500I0J237500D01*
G01*
X396605000Y-183917500D01*
G75*
G02*
X396842500Y-183680000I237500J0D01*
G01*
X397417500Y-183680000D01*
G75*
G02*
X397655000Y-183917500I0J-237500D01*
G01*
G37*
G36*
G01*
X399405000Y-183917500D02*
X399405000Y-184392500D01*
G75*
G02*
X399167500Y-184630000I-237500J0D01*
G01*
X398592500Y-184630000D01*
G75*
G02*
X398355000Y-184392500I0J237500D01*
G01*
X398355000Y-183917500D01*
G75*
G02*
X398592500Y-183680000I237500J0D01*
G01*
X399167500Y-183680000D01*
G75*
G02*
X399405000Y-183917500I0J-237500D01*
G01*
G37*
G36*
G01*
X379875000Y-136537500D02*
X379875000Y-136062500D01*
G75*
G02*
X380112500Y-135825000I237500J0D01*
G01*
X380687500Y-135825000D01*
G75*
G02*
X380925000Y-136062500I0J-237500D01*
G01*
X380925000Y-136537500D01*
G75*
G02*
X380687500Y-136775000I-237500J0D01*
G01*
X380112500Y-136775000D01*
G75*
G02*
X379875000Y-136537500I0J237500D01*
G01*
G37*
G36*
G01*
X378125000Y-136537500D02*
X378125000Y-136062500D01*
G75*
G02*
X378362500Y-135825000I237500J0D01*
G01*
X378937500Y-135825000D01*
G75*
G02*
X379175000Y-136062500I0J-237500D01*
G01*
X379175000Y-136537500D01*
G75*
G02*
X378937500Y-136775000I-237500J0D01*
G01*
X378362500Y-136775000D01*
G75*
G02*
X378125000Y-136537500I0J237500D01*
G01*
G37*
G36*
G01*
X387762500Y-137525000D02*
X388237500Y-137525000D01*
G75*
G02*
X388475000Y-137762500I0J-237500D01*
G01*
X388475000Y-138337500D01*
G75*
G02*
X388237500Y-138575000I-237500J0D01*
G01*
X387762500Y-138575000D01*
G75*
G02*
X387525000Y-138337500I0J237500D01*
G01*
X387525000Y-137762500D01*
G75*
G02*
X387762500Y-137525000I237500J0D01*
G01*
G37*
G36*
G01*
X387762500Y-139275000D02*
X388237500Y-139275000D01*
G75*
G02*
X388475000Y-139512500I0J-237500D01*
G01*
X388475000Y-140087500D01*
G75*
G02*
X388237500Y-140325000I-237500J0D01*
G01*
X387762500Y-140325000D01*
G75*
G02*
X387525000Y-140087500I0J237500D01*
G01*
X387525000Y-139512500D01*
G75*
G02*
X387762500Y-139275000I237500J0D01*
G01*
G37*
G36*
G01*
X377762500Y-139275000D02*
X378237500Y-139275000D01*
G75*
G02*
X378475000Y-139512500I0J-237500D01*
G01*
X378475000Y-140087500D01*
G75*
G02*
X378237500Y-140325000I-237500J0D01*
G01*
X377762500Y-140325000D01*
G75*
G02*
X377525000Y-140087500I0J237500D01*
G01*
X377525000Y-139512500D01*
G75*
G02*
X377762500Y-139275000I237500J0D01*
G01*
G37*
G36*
G01*
X377762500Y-137525000D02*
X378237500Y-137525000D01*
G75*
G02*
X378475000Y-137762500I0J-237500D01*
G01*
X378475000Y-138337500D01*
G75*
G02*
X378237500Y-138575000I-237500J0D01*
G01*
X377762500Y-138575000D01*
G75*
G02*
X377525000Y-138337500I0J237500D01*
G01*
X377525000Y-137762500D01*
G75*
G02*
X377762500Y-137525000I237500J0D01*
G01*
G37*
G36*
G01*
X379037500Y-114825000D02*
X378562500Y-114825000D01*
G75*
G02*
X378325000Y-114587500I0J237500D01*
G01*
X378325000Y-114012500D01*
G75*
G02*
X378562500Y-113775000I237500J0D01*
G01*
X379037500Y-113775000D01*
G75*
G02*
X379275000Y-114012500I0J-237500D01*
G01*
X379275000Y-114587500D01*
G75*
G02*
X379037500Y-114825000I-237500J0D01*
G01*
G37*
G36*
G01*
X379037500Y-113075000D02*
X378562500Y-113075000D01*
G75*
G02*
X378325000Y-112837500I0J237500D01*
G01*
X378325000Y-112262500D01*
G75*
G02*
X378562500Y-112025000I237500J0D01*
G01*
X379037500Y-112025000D01*
G75*
G02*
X379275000Y-112262500I0J-237500D01*
G01*
X379275000Y-112837500D01*
G75*
G02*
X379037500Y-113075000I-237500J0D01*
G01*
G37*
G36*
G01*
X376662500Y-114675000D02*
X377137500Y-114675000D01*
G75*
G02*
X377375000Y-114912500I0J-237500D01*
G01*
X377375000Y-115487500D01*
G75*
G02*
X377137500Y-115725000I-237500J0D01*
G01*
X376662500Y-115725000D01*
G75*
G02*
X376425000Y-115487500I0J237500D01*
G01*
X376425000Y-114912500D01*
G75*
G02*
X376662500Y-114675000I237500J0D01*
G01*
G37*
G36*
G01*
X376662500Y-112925000D02*
X377137500Y-112925000D01*
G75*
G02*
X377375000Y-113162500I0J-237500D01*
G01*
X377375000Y-113737500D01*
G75*
G02*
X377137500Y-113975000I-237500J0D01*
G01*
X376662500Y-113975000D01*
G75*
G02*
X376425000Y-113737500I0J237500D01*
G01*
X376425000Y-113162500D01*
G75*
G02*
X376662500Y-112925000I237500J0D01*
G01*
G37*
G36*
G01*
X369875000Y-136537500D02*
X369875000Y-136062500D01*
G75*
G02*
X370112500Y-135825000I237500J0D01*
G01*
X370687500Y-135825000D01*
G75*
G02*
X370925000Y-136062500I0J-237500D01*
G01*
X370925000Y-136537500D01*
G75*
G02*
X370687500Y-136775000I-237500J0D01*
G01*
X370112500Y-136775000D01*
G75*
G02*
X369875000Y-136537500I0J237500D01*
G01*
G37*
G36*
G01*
X368125000Y-136537500D02*
X368125000Y-136062500D01*
G75*
G02*
X368362500Y-135825000I237500J0D01*
G01*
X368937500Y-135825000D01*
G75*
G02*
X369175000Y-136062500I0J-237500D01*
G01*
X369175000Y-136537500D01*
G75*
G02*
X368937500Y-136775000I-237500J0D01*
G01*
X368362500Y-136775000D01*
G75*
G02*
X368125000Y-136537500I0J237500D01*
G01*
G37*
G36*
G01*
X368125000Y-133937500D02*
X368125000Y-133462500D01*
G75*
G02*
X368362500Y-133225000I237500J0D01*
G01*
X368937500Y-133225000D01*
G75*
G02*
X369175000Y-133462500I0J-237500D01*
G01*
X369175000Y-133937500D01*
G75*
G02*
X368937500Y-134175000I-237500J0D01*
G01*
X368362500Y-134175000D01*
G75*
G02*
X368125000Y-133937500I0J237500D01*
G01*
G37*
G36*
G01*
X369875000Y-133937500D02*
X369875000Y-133462500D01*
G75*
G02*
X370112500Y-133225000I237500J0D01*
G01*
X370687500Y-133225000D01*
G75*
G02*
X370925000Y-133462500I0J-237500D01*
G01*
X370925000Y-133937500D01*
G75*
G02*
X370687500Y-134175000I-237500J0D01*
G01*
X370112500Y-134175000D01*
G75*
G02*
X369875000Y-133937500I0J237500D01*
G01*
G37*
G36*
G01*
X432790000Y-139417500D02*
X432790000Y-138942500D01*
G75*
G02*
X433027500Y-138705000I237500J0D01*
G01*
X433602500Y-138705000D01*
G75*
G02*
X433840000Y-138942500I0J-237500D01*
G01*
X433840000Y-139417500D01*
G75*
G02*
X433602500Y-139655000I-237500J0D01*
G01*
X433027500Y-139655000D01*
G75*
G02*
X432790000Y-139417500I0J237500D01*
G01*
G37*
G36*
G01*
X431040000Y-139417500D02*
X431040000Y-138942500D01*
G75*
G02*
X431277500Y-138705000I237500J0D01*
G01*
X431852500Y-138705000D01*
G75*
G02*
X432090000Y-138942500I0J-237500D01*
G01*
X432090000Y-139417500D01*
G75*
G02*
X431852500Y-139655000I-237500J0D01*
G01*
X431277500Y-139655000D01*
G75*
G02*
X431040000Y-139417500I0J237500D01*
G01*
G37*
G36*
G01*
X429570000Y-138962500D02*
X429570000Y-139437500D01*
G75*
G02*
X429332500Y-139675000I-237500J0D01*
G01*
X428757500Y-139675000D01*
G75*
G02*
X428520000Y-139437500I0J237500D01*
G01*
X428520000Y-138962500D01*
G75*
G02*
X428757500Y-138725000I237500J0D01*
G01*
X429332500Y-138725000D01*
G75*
G02*
X429570000Y-138962500I0J-237500D01*
G01*
G37*
G36*
G01*
X427820000Y-138962500D02*
X427820000Y-139437500D01*
G75*
G02*
X427582500Y-139675000I-237500J0D01*
G01*
X427007500Y-139675000D01*
G75*
G02*
X426770000Y-139437500I0J237500D01*
G01*
X426770000Y-138962500D01*
G75*
G02*
X427007500Y-138725000I237500J0D01*
G01*
X427582500Y-138725000D01*
G75*
G02*
X427820000Y-138962500I0J-237500D01*
G01*
G37*
G36*
G01*
X353210001Y-122160000D02*
X352309999Y-122160000D01*
G75*
G02*
X352060000Y-121910001I0J249999D01*
G01*
X352060000Y-121259999D01*
G75*
G02*
X352309999Y-121010000I249999J0D01*
G01*
X353210001Y-121010000D01*
G75*
G02*
X353460000Y-121259999I0J-249999D01*
G01*
X353460000Y-121910001D01*
G75*
G02*
X353210001Y-122160000I-249999J0D01*
G01*
G37*
G36*
G01*
X353210001Y-124210000D02*
X352309999Y-124210000D01*
G75*
G02*
X352060000Y-123960001I0J249999D01*
G01*
X352060000Y-123309999D01*
G75*
G02*
X352309999Y-123060000I249999J0D01*
G01*
X353210001Y-123060000D01*
G75*
G02*
X353460000Y-123309999I0J-249999D01*
G01*
X353460000Y-123960001D01*
G75*
G02*
X353210001Y-124210000I-249999J0D01*
G01*
G37*
G36*
G01*
X347200000Y-179137500D02*
X347200000Y-178662500D01*
G75*
G02*
X347437500Y-178425000I237500J0D01*
G01*
X348012500Y-178425000D01*
G75*
G02*
X348250000Y-178662500I0J-237500D01*
G01*
X348250000Y-179137500D01*
G75*
G02*
X348012500Y-179375000I-237500J0D01*
G01*
X347437500Y-179375000D01*
G75*
G02*
X347200000Y-179137500I0J237500D01*
G01*
G37*
G36*
G01*
X348950000Y-179137500D02*
X348950000Y-178662500D01*
G75*
G02*
X349187500Y-178425000I237500J0D01*
G01*
X349762500Y-178425000D01*
G75*
G02*
X350000000Y-178662500I0J-237500D01*
G01*
X350000000Y-179137500D01*
G75*
G02*
X349762500Y-179375000I-237500J0D01*
G01*
X349187500Y-179375000D01*
G75*
G02*
X348950000Y-179137500I0J237500D01*
G01*
G37*
G36*
G01*
X347225000Y-173987500D02*
X347225000Y-173512500D01*
G75*
G02*
X347462500Y-173275000I237500J0D01*
G01*
X348037500Y-173275000D01*
G75*
G02*
X348275000Y-173512500I0J-237500D01*
G01*
X348275000Y-173987500D01*
G75*
G02*
X348037500Y-174225000I-237500J0D01*
G01*
X347462500Y-174225000D01*
G75*
G02*
X347225000Y-173987500I0J237500D01*
G01*
G37*
G36*
G01*
X348975000Y-173987500D02*
X348975000Y-173512500D01*
G75*
G02*
X349212500Y-173275000I237500J0D01*
G01*
X349787500Y-173275000D01*
G75*
G02*
X350025000Y-173512500I0J-237500D01*
G01*
X350025000Y-173987500D01*
G75*
G02*
X349787500Y-174225000I-237500J0D01*
G01*
X349212500Y-174225000D01*
G75*
G02*
X348975000Y-173987500I0J237500D01*
G01*
G37*
G36*
G01*
X353765000Y-163797500D02*
X353765000Y-163322500D01*
G75*
G02*
X354002500Y-163085000I237500J0D01*
G01*
X354577500Y-163085000D01*
G75*
G02*
X354815000Y-163322500I0J-237500D01*
G01*
X354815000Y-163797500D01*
G75*
G02*
X354577500Y-164035000I-237500J0D01*
G01*
X354002500Y-164035000D01*
G75*
G02*
X353765000Y-163797500I0J237500D01*
G01*
G37*
G36*
G01*
X352015000Y-163797500D02*
X352015000Y-163322500D01*
G75*
G02*
X352252500Y-163085000I237500J0D01*
G01*
X352827500Y-163085000D01*
G75*
G02*
X353065000Y-163322500I0J-237500D01*
G01*
X353065000Y-163797500D01*
G75*
G02*
X352827500Y-164035000I-237500J0D01*
G01*
X352252500Y-164035000D01*
G75*
G02*
X352015000Y-163797500I0J237500D01*
G01*
G37*
G36*
G01*
X335832500Y-183390000D02*
X336307500Y-183390000D01*
G75*
G02*
X336545000Y-183627500I0J-237500D01*
G01*
X336545000Y-184202500D01*
G75*
G02*
X336307500Y-184440000I-237500J0D01*
G01*
X335832500Y-184440000D01*
G75*
G02*
X335595000Y-184202500I0J237500D01*
G01*
X335595000Y-183627500D01*
G75*
G02*
X335832500Y-183390000I237500J0D01*
G01*
G37*
G36*
G01*
X335832500Y-185140000D02*
X336307500Y-185140000D01*
G75*
G02*
X336545000Y-185377500I0J-237500D01*
G01*
X336545000Y-185952500D01*
G75*
G02*
X336307500Y-186190000I-237500J0D01*
G01*
X335832500Y-186190000D01*
G75*
G02*
X335595000Y-185952500I0J237500D01*
G01*
X335595000Y-185377500D01*
G75*
G02*
X335832500Y-185140000I237500J0D01*
G01*
G37*
G36*
G01*
X335890000Y-189767500D02*
X335890000Y-189292500D01*
G75*
G02*
X336127500Y-189055000I237500J0D01*
G01*
X336702500Y-189055000D01*
G75*
G02*
X336940000Y-189292500I0J-237500D01*
G01*
X336940000Y-189767500D01*
G75*
G02*
X336702500Y-190005000I-237500J0D01*
G01*
X336127500Y-190005000D01*
G75*
G02*
X335890000Y-189767500I0J237500D01*
G01*
G37*
G36*
G01*
X334140000Y-189767500D02*
X334140000Y-189292500D01*
G75*
G02*
X334377500Y-189055000I237500J0D01*
G01*
X334952500Y-189055000D01*
G75*
G02*
X335190000Y-189292500I0J-237500D01*
G01*
X335190000Y-189767500D01*
G75*
G02*
X334952500Y-190005000I-237500J0D01*
G01*
X334377500Y-190005000D01*
G75*
G02*
X334140000Y-189767500I0J237500D01*
G01*
G37*
G36*
G01*
X343347500Y-187730000D02*
X342872500Y-187730000D01*
G75*
G02*
X342635000Y-187492500I0J237500D01*
G01*
X342635000Y-186917500D01*
G75*
G02*
X342872500Y-186680000I237500J0D01*
G01*
X343347500Y-186680000D01*
G75*
G02*
X343585000Y-186917500I0J-237500D01*
G01*
X343585000Y-187492500D01*
G75*
G02*
X343347500Y-187730000I-237500J0D01*
G01*
G37*
G36*
G01*
X343347500Y-185980000D02*
X342872500Y-185980000D01*
G75*
G02*
X342635000Y-185742500I0J237500D01*
G01*
X342635000Y-185167500D01*
G75*
G02*
X342872500Y-184930000I237500J0D01*
G01*
X343347500Y-184930000D01*
G75*
G02*
X343585000Y-185167500I0J-237500D01*
G01*
X343585000Y-185742500D01*
G75*
G02*
X343347500Y-185980000I-237500J0D01*
G01*
G37*
G36*
G01*
X362882500Y-187730000D02*
X363357500Y-187730000D01*
G75*
G02*
X363595000Y-187967500I0J-237500D01*
G01*
X363595000Y-188542500D01*
G75*
G02*
X363357500Y-188780000I-237500J0D01*
G01*
X362882500Y-188780000D01*
G75*
G02*
X362645000Y-188542500I0J237500D01*
G01*
X362645000Y-187967500D01*
G75*
G02*
X362882500Y-187730000I237500J0D01*
G01*
G37*
G36*
G01*
X362882500Y-185980000D02*
X363357500Y-185980000D01*
G75*
G02*
X363595000Y-186217500I0J-237500D01*
G01*
X363595000Y-186792500D01*
G75*
G02*
X363357500Y-187030000I-237500J0D01*
G01*
X362882500Y-187030000D01*
G75*
G02*
X362645000Y-186792500I0J237500D01*
G01*
X362645000Y-186217500D01*
G75*
G02*
X362882500Y-185980000I237500J0D01*
G01*
G37*
G36*
G01*
X362872500Y-169890000D02*
X363347500Y-169890000D01*
G75*
G02*
X363585000Y-170127500I0J-237500D01*
G01*
X363585000Y-170702500D01*
G75*
G02*
X363347500Y-170940000I-237500J0D01*
G01*
X362872500Y-170940000D01*
G75*
G02*
X362635000Y-170702500I0J237500D01*
G01*
X362635000Y-170127500D01*
G75*
G02*
X362872500Y-169890000I237500J0D01*
G01*
G37*
G36*
G01*
X362872500Y-171640000D02*
X363347500Y-171640000D01*
G75*
G02*
X363585000Y-171877500I0J-237500D01*
G01*
X363585000Y-172452500D01*
G75*
G02*
X363347500Y-172690000I-237500J0D01*
G01*
X362872500Y-172690000D01*
G75*
G02*
X362635000Y-172452500I0J237500D01*
G01*
X362635000Y-171877500D01*
G75*
G02*
X362872500Y-171640000I237500J0D01*
G01*
G37*
G36*
G01*
X333600000Y-163917500D02*
X333600000Y-163442500D01*
G75*
G02*
X333837500Y-163205000I237500J0D01*
G01*
X334412500Y-163205000D01*
G75*
G02*
X334650000Y-163442500I0J-237500D01*
G01*
X334650000Y-163917500D01*
G75*
G02*
X334412500Y-164155000I-237500J0D01*
G01*
X333837500Y-164155000D01*
G75*
G02*
X333600000Y-163917500I0J237500D01*
G01*
G37*
G36*
G01*
X335350000Y-163917500D02*
X335350000Y-163442500D01*
G75*
G02*
X335587500Y-163205000I237500J0D01*
G01*
X336162500Y-163205000D01*
G75*
G02*
X336400000Y-163442500I0J-237500D01*
G01*
X336400000Y-163917500D01*
G75*
G02*
X336162500Y-164155000I-237500J0D01*
G01*
X335587500Y-164155000D01*
G75*
G02*
X335350000Y-163917500I0J237500D01*
G01*
G37*
G36*
G01*
X363357500Y-183190000D02*
X362882500Y-183190000D01*
G75*
G02*
X362645000Y-182952500I0J237500D01*
G01*
X362645000Y-182377500D01*
G75*
G02*
X362882500Y-182140000I237500J0D01*
G01*
X363357500Y-182140000D01*
G75*
G02*
X363595000Y-182377500I0J-237500D01*
G01*
X363595000Y-182952500D01*
G75*
G02*
X363357500Y-183190000I-237500J0D01*
G01*
G37*
G36*
G01*
X363357500Y-184940000D02*
X362882500Y-184940000D01*
G75*
G02*
X362645000Y-184702500I0J237500D01*
G01*
X362645000Y-184127500D01*
G75*
G02*
X362882500Y-183890000I237500J0D01*
G01*
X363357500Y-183890000D01*
G75*
G02*
X363595000Y-184127500I0J-237500D01*
G01*
X363595000Y-184702500D01*
G75*
G02*
X363357500Y-184940000I-237500J0D01*
G01*
G37*
G36*
G01*
X363337500Y-179750000D02*
X362862500Y-179750000D01*
G75*
G02*
X362625000Y-179512500I0J237500D01*
G01*
X362625000Y-178937500D01*
G75*
G02*
X362862500Y-178700000I237500J0D01*
G01*
X363337500Y-178700000D01*
G75*
G02*
X363575000Y-178937500I0J-237500D01*
G01*
X363575000Y-179512500D01*
G75*
G02*
X363337500Y-179750000I-237500J0D01*
G01*
G37*
G36*
G01*
X363337500Y-178000000D02*
X362862500Y-178000000D01*
G75*
G02*
X362625000Y-177762500I0J237500D01*
G01*
X362625000Y-177187500D01*
G75*
G02*
X362862500Y-176950000I237500J0D01*
G01*
X363337500Y-176950000D01*
G75*
G02*
X363575000Y-177187500I0J-237500D01*
G01*
X363575000Y-177762500D01*
G75*
G02*
X363337500Y-178000000I-237500J0D01*
G01*
G37*
G36*
G01*
X366450000Y-178837500D02*
X366450000Y-178362500D01*
G75*
G02*
X366687500Y-178125000I237500J0D01*
G01*
X367262500Y-178125000D01*
G75*
G02*
X367500000Y-178362500I0J-237500D01*
G01*
X367500000Y-178837500D01*
G75*
G02*
X367262500Y-179075000I-237500J0D01*
G01*
X366687500Y-179075000D01*
G75*
G02*
X366450000Y-178837500I0J237500D01*
G01*
G37*
G36*
G01*
X364700000Y-178837500D02*
X364700000Y-178362500D01*
G75*
G02*
X364937500Y-178125000I237500J0D01*
G01*
X365512500Y-178125000D01*
G75*
G02*
X365750000Y-178362500I0J-237500D01*
G01*
X365750000Y-178837500D01*
G75*
G02*
X365512500Y-179075000I-237500J0D01*
G01*
X364937500Y-179075000D01*
G75*
G02*
X364700000Y-178837500I0J237500D01*
G01*
G37*
G36*
G01*
X334317500Y-173080000D02*
X333842500Y-173080000D01*
G75*
G02*
X333605000Y-172842500I0J237500D01*
G01*
X333605000Y-172267500D01*
G75*
G02*
X333842500Y-172030000I237500J0D01*
G01*
X334317500Y-172030000D01*
G75*
G02*
X334555000Y-172267500I0J-237500D01*
G01*
X334555000Y-172842500D01*
G75*
G02*
X334317500Y-173080000I-237500J0D01*
G01*
G37*
G36*
G01*
X334317500Y-171330000D02*
X333842500Y-171330000D01*
G75*
G02*
X333605000Y-171092500I0J237500D01*
G01*
X333605000Y-170517500D01*
G75*
G02*
X333842500Y-170280000I237500J0D01*
G01*
X334317500Y-170280000D01*
G75*
G02*
X334555000Y-170517500I0J-237500D01*
G01*
X334555000Y-171092500D01*
G75*
G02*
X334317500Y-171330000I-237500J0D01*
G01*
G37*
G36*
G01*
X337350000Y-175637500D02*
X337350000Y-175162500D01*
G75*
G02*
X337587500Y-174925000I237500J0D01*
G01*
X338162500Y-174925000D01*
G75*
G02*
X338400000Y-175162500I0J-237500D01*
G01*
X338400000Y-175637500D01*
G75*
G02*
X338162500Y-175875000I-237500J0D01*
G01*
X337587500Y-175875000D01*
G75*
G02*
X337350000Y-175637500I0J237500D01*
G01*
G37*
G36*
G01*
X335600000Y-175637500D02*
X335600000Y-175162500D01*
G75*
G02*
X335837500Y-174925000I237500J0D01*
G01*
X336412500Y-174925000D01*
G75*
G02*
X336650000Y-175162500I0J-237500D01*
G01*
X336650000Y-175637500D01*
G75*
G02*
X336412500Y-175875000I-237500J0D01*
G01*
X335837500Y-175875000D01*
G75*
G02*
X335600000Y-175637500I0J237500D01*
G01*
G37*
G36*
G01*
X333842500Y-177680000D02*
X334317500Y-177680000D01*
G75*
G02*
X334555000Y-177917500I0J-237500D01*
G01*
X334555000Y-178492500D01*
G75*
G02*
X334317500Y-178730000I-237500J0D01*
G01*
X333842500Y-178730000D01*
G75*
G02*
X333605000Y-178492500I0J237500D01*
G01*
X333605000Y-177917500D01*
G75*
G02*
X333842500Y-177680000I237500J0D01*
G01*
G37*
G36*
G01*
X333842500Y-175930000D02*
X334317500Y-175930000D01*
G75*
G02*
X334555000Y-176167500I0J-237500D01*
G01*
X334555000Y-176742500D01*
G75*
G02*
X334317500Y-176980000I-237500J0D01*
G01*
X333842500Y-176980000D01*
G75*
G02*
X333605000Y-176742500I0J237500D01*
G01*
X333605000Y-176167500D01*
G75*
G02*
X333842500Y-175930000I237500J0D01*
G01*
G37*
G36*
G01*
X334327500Y-182520000D02*
X333852500Y-182520000D01*
G75*
G02*
X333615000Y-182282500I0J237500D01*
G01*
X333615000Y-181707500D01*
G75*
G02*
X333852500Y-181470000I237500J0D01*
G01*
X334327500Y-181470000D01*
G75*
G02*
X334565000Y-181707500I0J-237500D01*
G01*
X334565000Y-182282500D01*
G75*
G02*
X334327500Y-182520000I-237500J0D01*
G01*
G37*
G36*
G01*
X334327500Y-180770000D02*
X333852500Y-180770000D01*
G75*
G02*
X333615000Y-180532500I0J237500D01*
G01*
X333615000Y-179957500D01*
G75*
G02*
X333852500Y-179720000I237500J0D01*
G01*
X334327500Y-179720000D01*
G75*
G02*
X334565000Y-179957500I0J-237500D01*
G01*
X334565000Y-180532500D01*
G75*
G02*
X334327500Y-180770000I-237500J0D01*
G01*
G37*
G36*
G01*
X350865000Y-186937500D02*
X350865000Y-187412500D01*
G75*
G02*
X350627500Y-187650000I-237500J0D01*
G01*
X350052500Y-187650000D01*
G75*
G02*
X349815000Y-187412500I0J237500D01*
G01*
X349815000Y-186937500D01*
G75*
G02*
X350052500Y-186700000I237500J0D01*
G01*
X350627500Y-186700000D01*
G75*
G02*
X350865000Y-186937500I0J-237500D01*
G01*
G37*
G36*
G01*
X349115000Y-186937500D02*
X349115000Y-187412500D01*
G75*
G02*
X348877500Y-187650000I-237500J0D01*
G01*
X348302500Y-187650000D01*
G75*
G02*
X348065000Y-187412500I0J237500D01*
G01*
X348065000Y-186937500D01*
G75*
G02*
X348302500Y-186700000I237500J0D01*
G01*
X348877500Y-186700000D01*
G75*
G02*
X349115000Y-186937500I0J-237500D01*
G01*
G37*
G36*
G01*
X333842500Y-184830000D02*
X334317500Y-184830000D01*
G75*
G02*
X334555000Y-185067500I0J-237500D01*
G01*
X334555000Y-185642500D01*
G75*
G02*
X334317500Y-185880000I-237500J0D01*
G01*
X333842500Y-185880000D01*
G75*
G02*
X333605000Y-185642500I0J237500D01*
G01*
X333605000Y-185067500D01*
G75*
G02*
X333842500Y-184830000I237500J0D01*
G01*
G37*
G36*
G01*
X333842500Y-183080000D02*
X334317500Y-183080000D01*
G75*
G02*
X334555000Y-183317500I0J-237500D01*
G01*
X334555000Y-183892500D01*
G75*
G02*
X334317500Y-184130000I-237500J0D01*
G01*
X333842500Y-184130000D01*
G75*
G02*
X333605000Y-183892500I0J237500D01*
G01*
X333605000Y-183317500D01*
G75*
G02*
X333842500Y-183080000I237500J0D01*
G01*
G37*
G36*
G01*
X347402500Y-161750000D02*
X347877500Y-161750000D01*
G75*
G02*
X348115000Y-161987500I0J-237500D01*
G01*
X348115000Y-162562500D01*
G75*
G02*
X347877500Y-162800000I-237500J0D01*
G01*
X347402500Y-162800000D01*
G75*
G02*
X347165000Y-162562500I0J237500D01*
G01*
X347165000Y-161987500D01*
G75*
G02*
X347402500Y-161750000I237500J0D01*
G01*
G37*
G36*
G01*
X347402500Y-160000000D02*
X347877500Y-160000000D01*
G75*
G02*
X348115000Y-160237500I0J-237500D01*
G01*
X348115000Y-160812500D01*
G75*
G02*
X347877500Y-161050000I-237500J0D01*
G01*
X347402500Y-161050000D01*
G75*
G02*
X347165000Y-160812500I0J237500D01*
G01*
X347165000Y-160237500D01*
G75*
G02*
X347402500Y-160000000I237500J0D01*
G01*
G37*
G36*
G01*
X333427500Y-194220000D02*
X333772500Y-194220000D01*
G75*
G02*
X333920000Y-194367500I0J-147500D01*
G01*
X333920000Y-194662500D01*
G75*
G02*
X333772500Y-194810000I-147500J0D01*
G01*
X333427500Y-194810000D01*
G75*
G02*
X333280000Y-194662500I0J147500D01*
G01*
X333280000Y-194367500D01*
G75*
G02*
X333427500Y-194220000I147500J0D01*
G01*
G37*
G36*
G01*
X333427500Y-195190000D02*
X333772500Y-195190000D01*
G75*
G02*
X333920000Y-195337500I0J-147500D01*
G01*
X333920000Y-195632500D01*
G75*
G02*
X333772500Y-195780000I-147500J0D01*
G01*
X333427500Y-195780000D01*
G75*
G02*
X333280000Y-195632500I0J147500D01*
G01*
X333280000Y-195337500D01*
G75*
G02*
X333427500Y-195190000I147500J0D01*
G01*
G37*
G36*
G01*
X335427500Y-194220000D02*
X335772500Y-194220000D01*
G75*
G02*
X335920000Y-194367500I0J-147500D01*
G01*
X335920000Y-194662500D01*
G75*
G02*
X335772500Y-194810000I-147500J0D01*
G01*
X335427500Y-194810000D01*
G75*
G02*
X335280000Y-194662500I0J147500D01*
G01*
X335280000Y-194367500D01*
G75*
G02*
X335427500Y-194220000I147500J0D01*
G01*
G37*
G36*
G01*
X335427500Y-195190000D02*
X335772500Y-195190000D01*
G75*
G02*
X335920000Y-195337500I0J-147500D01*
G01*
X335920000Y-195632500D01*
G75*
G02*
X335772500Y-195780000I-147500J0D01*
G01*
X335427500Y-195780000D01*
G75*
G02*
X335280000Y-195632500I0J147500D01*
G01*
X335280000Y-195337500D01*
G75*
G02*
X335427500Y-195190000I147500J0D01*
G01*
G37*
G36*
G01*
X337427500Y-195190000D02*
X337772500Y-195190000D01*
G75*
G02*
X337920000Y-195337500I0J-147500D01*
G01*
X337920000Y-195632500D01*
G75*
G02*
X337772500Y-195780000I-147500J0D01*
G01*
X337427500Y-195780000D01*
G75*
G02*
X337280000Y-195632500I0J147500D01*
G01*
X337280000Y-195337500D01*
G75*
G02*
X337427500Y-195190000I147500J0D01*
G01*
G37*
G36*
G01*
X337427500Y-194220000D02*
X337772500Y-194220000D01*
G75*
G02*
X337920000Y-194367500I0J-147500D01*
G01*
X337920000Y-194662500D01*
G75*
G02*
X337772500Y-194810000I-147500J0D01*
G01*
X337427500Y-194810000D01*
G75*
G02*
X337280000Y-194662500I0J147500D01*
G01*
X337280000Y-194367500D01*
G75*
G02*
X337427500Y-194220000I147500J0D01*
G01*
G37*
G36*
G01*
X339427500Y-195190000D02*
X339772500Y-195190000D01*
G75*
G02*
X339920000Y-195337500I0J-147500D01*
G01*
X339920000Y-195632500D01*
G75*
G02*
X339772500Y-195780000I-147500J0D01*
G01*
X339427500Y-195780000D01*
G75*
G02*
X339280000Y-195632500I0J147500D01*
G01*
X339280000Y-195337500D01*
G75*
G02*
X339427500Y-195190000I147500J0D01*
G01*
G37*
G36*
G01*
X339427500Y-194220000D02*
X339772500Y-194220000D01*
G75*
G02*
X339920000Y-194367500I0J-147500D01*
G01*
X339920000Y-194662500D01*
G75*
G02*
X339772500Y-194810000I-147500J0D01*
G01*
X339427500Y-194810000D01*
G75*
G02*
X339280000Y-194662500I0J147500D01*
G01*
X339280000Y-194367500D01*
G75*
G02*
X339427500Y-194220000I147500J0D01*
G01*
G37*
G36*
G01*
X341427500Y-194220000D02*
X341772500Y-194220000D01*
G75*
G02*
X341920000Y-194367500I0J-147500D01*
G01*
X341920000Y-194662500D01*
G75*
G02*
X341772500Y-194810000I-147500J0D01*
G01*
X341427500Y-194810000D01*
G75*
G02*
X341280000Y-194662500I0J147500D01*
G01*
X341280000Y-194367500D01*
G75*
G02*
X341427500Y-194220000I147500J0D01*
G01*
G37*
G36*
G01*
X341427500Y-195190000D02*
X341772500Y-195190000D01*
G75*
G02*
X341920000Y-195337500I0J-147500D01*
G01*
X341920000Y-195632500D01*
G75*
G02*
X341772500Y-195780000I-147500J0D01*
G01*
X341427500Y-195780000D01*
G75*
G02*
X341280000Y-195632500I0J147500D01*
G01*
X341280000Y-195337500D01*
G75*
G02*
X341427500Y-195190000I147500J0D01*
G01*
G37*
G36*
G01*
X343427500Y-194220000D02*
X343772500Y-194220000D01*
G75*
G02*
X343920000Y-194367500I0J-147500D01*
G01*
X343920000Y-194662500D01*
G75*
G02*
X343772500Y-194810000I-147500J0D01*
G01*
X343427500Y-194810000D01*
G75*
G02*
X343280000Y-194662500I0J147500D01*
G01*
X343280000Y-194367500D01*
G75*
G02*
X343427500Y-194220000I147500J0D01*
G01*
G37*
G36*
G01*
X343427500Y-195190000D02*
X343772500Y-195190000D01*
G75*
G02*
X343920000Y-195337500I0J-147500D01*
G01*
X343920000Y-195632500D01*
G75*
G02*
X343772500Y-195780000I-147500J0D01*
G01*
X343427500Y-195780000D01*
G75*
G02*
X343280000Y-195632500I0J147500D01*
G01*
X343280000Y-195337500D01*
G75*
G02*
X343427500Y-195190000I147500J0D01*
G01*
G37*
G36*
G01*
X345427500Y-194220000D02*
X345772500Y-194220000D01*
G75*
G02*
X345920000Y-194367500I0J-147500D01*
G01*
X345920000Y-194662500D01*
G75*
G02*
X345772500Y-194810000I-147500J0D01*
G01*
X345427500Y-194810000D01*
G75*
G02*
X345280000Y-194662500I0J147500D01*
G01*
X345280000Y-194367500D01*
G75*
G02*
X345427500Y-194220000I147500J0D01*
G01*
G37*
G36*
G01*
X345427500Y-195190000D02*
X345772500Y-195190000D01*
G75*
G02*
X345920000Y-195337500I0J-147500D01*
G01*
X345920000Y-195632500D01*
G75*
G02*
X345772500Y-195780000I-147500J0D01*
G01*
X345427500Y-195780000D01*
G75*
G02*
X345280000Y-195632500I0J147500D01*
G01*
X345280000Y-195337500D01*
G75*
G02*
X345427500Y-195190000I147500J0D01*
G01*
G37*
G36*
G01*
X347427500Y-195190000D02*
X347772500Y-195190000D01*
G75*
G02*
X347920000Y-195337500I0J-147500D01*
G01*
X347920000Y-195632500D01*
G75*
G02*
X347772500Y-195780000I-147500J0D01*
G01*
X347427500Y-195780000D01*
G75*
G02*
X347280000Y-195632500I0J147500D01*
G01*
X347280000Y-195337500D01*
G75*
G02*
X347427500Y-195190000I147500J0D01*
G01*
G37*
G36*
G01*
X347427500Y-194220000D02*
X347772500Y-194220000D01*
G75*
G02*
X347920000Y-194367500I0J-147500D01*
G01*
X347920000Y-194662500D01*
G75*
G02*
X347772500Y-194810000I-147500J0D01*
G01*
X347427500Y-194810000D01*
G75*
G02*
X347280000Y-194662500I0J147500D01*
G01*
X347280000Y-194367500D01*
G75*
G02*
X347427500Y-194220000I147500J0D01*
G01*
G37*
G36*
G01*
X349427500Y-195190000D02*
X349772500Y-195190000D01*
G75*
G02*
X349920000Y-195337500I0J-147500D01*
G01*
X349920000Y-195632500D01*
G75*
G02*
X349772500Y-195780000I-147500J0D01*
G01*
X349427500Y-195780000D01*
G75*
G02*
X349280000Y-195632500I0J147500D01*
G01*
X349280000Y-195337500D01*
G75*
G02*
X349427500Y-195190000I147500J0D01*
G01*
G37*
G36*
G01*
X349427500Y-194220000D02*
X349772500Y-194220000D01*
G75*
G02*
X349920000Y-194367500I0J-147500D01*
G01*
X349920000Y-194662500D01*
G75*
G02*
X349772500Y-194810000I-147500J0D01*
G01*
X349427500Y-194810000D01*
G75*
G02*
X349280000Y-194662500I0J147500D01*
G01*
X349280000Y-194367500D01*
G75*
G02*
X349427500Y-194220000I147500J0D01*
G01*
G37*
G36*
G01*
X351427500Y-194220000D02*
X351772500Y-194220000D01*
G75*
G02*
X351920000Y-194367500I0J-147500D01*
G01*
X351920000Y-194662500D01*
G75*
G02*
X351772500Y-194810000I-147500J0D01*
G01*
X351427500Y-194810000D01*
G75*
G02*
X351280000Y-194662500I0J147500D01*
G01*
X351280000Y-194367500D01*
G75*
G02*
X351427500Y-194220000I147500J0D01*
G01*
G37*
G36*
G01*
X351427500Y-195190000D02*
X351772500Y-195190000D01*
G75*
G02*
X351920000Y-195337500I0J-147500D01*
G01*
X351920000Y-195632500D01*
G75*
G02*
X351772500Y-195780000I-147500J0D01*
G01*
X351427500Y-195780000D01*
G75*
G02*
X351280000Y-195632500I0J147500D01*
G01*
X351280000Y-195337500D01*
G75*
G02*
X351427500Y-195190000I147500J0D01*
G01*
G37*
G36*
G01*
X353427500Y-195190000D02*
X353772500Y-195190000D01*
G75*
G02*
X353920000Y-195337500I0J-147500D01*
G01*
X353920000Y-195632500D01*
G75*
G02*
X353772500Y-195780000I-147500J0D01*
G01*
X353427500Y-195780000D01*
G75*
G02*
X353280000Y-195632500I0J147500D01*
G01*
X353280000Y-195337500D01*
G75*
G02*
X353427500Y-195190000I147500J0D01*
G01*
G37*
G36*
G01*
X353427500Y-194220000D02*
X353772500Y-194220000D01*
G75*
G02*
X353920000Y-194367500I0J-147500D01*
G01*
X353920000Y-194662500D01*
G75*
G02*
X353772500Y-194810000I-147500J0D01*
G01*
X353427500Y-194810000D01*
G75*
G02*
X353280000Y-194662500I0J147500D01*
G01*
X353280000Y-194367500D01*
G75*
G02*
X353427500Y-194220000I147500J0D01*
G01*
G37*
G36*
G01*
X355427500Y-194220000D02*
X355772500Y-194220000D01*
G75*
G02*
X355920000Y-194367500I0J-147500D01*
G01*
X355920000Y-194662500D01*
G75*
G02*
X355772500Y-194810000I-147500J0D01*
G01*
X355427500Y-194810000D01*
G75*
G02*
X355280000Y-194662500I0J147500D01*
G01*
X355280000Y-194367500D01*
G75*
G02*
X355427500Y-194220000I147500J0D01*
G01*
G37*
G36*
G01*
X355427500Y-195190000D02*
X355772500Y-195190000D01*
G75*
G02*
X355920000Y-195337500I0J-147500D01*
G01*
X355920000Y-195632500D01*
G75*
G02*
X355772500Y-195780000I-147500J0D01*
G01*
X355427500Y-195780000D01*
G75*
G02*
X355280000Y-195632500I0J147500D01*
G01*
X355280000Y-195337500D01*
G75*
G02*
X355427500Y-195190000I147500J0D01*
G01*
G37*
G36*
G01*
X357427500Y-195190000D02*
X357772500Y-195190000D01*
G75*
G02*
X357920000Y-195337500I0J-147500D01*
G01*
X357920000Y-195632500D01*
G75*
G02*
X357772500Y-195780000I-147500J0D01*
G01*
X357427500Y-195780000D01*
G75*
G02*
X357280000Y-195632500I0J147500D01*
G01*
X357280000Y-195337500D01*
G75*
G02*
X357427500Y-195190000I147500J0D01*
G01*
G37*
G36*
G01*
X357427500Y-194220000D02*
X357772500Y-194220000D01*
G75*
G02*
X357920000Y-194367500I0J-147500D01*
G01*
X357920000Y-194662500D01*
G75*
G02*
X357772500Y-194810000I-147500J0D01*
G01*
X357427500Y-194810000D01*
G75*
G02*
X357280000Y-194662500I0J147500D01*
G01*
X357280000Y-194367500D01*
G75*
G02*
X357427500Y-194220000I147500J0D01*
G01*
G37*
G36*
G01*
X359427500Y-194220000D02*
X359772500Y-194220000D01*
G75*
G02*
X359920000Y-194367500I0J-147500D01*
G01*
X359920000Y-194662500D01*
G75*
G02*
X359772500Y-194810000I-147500J0D01*
G01*
X359427500Y-194810000D01*
G75*
G02*
X359280000Y-194662500I0J147500D01*
G01*
X359280000Y-194367500D01*
G75*
G02*
X359427500Y-194220000I147500J0D01*
G01*
G37*
G36*
G01*
X359427500Y-195190000D02*
X359772500Y-195190000D01*
G75*
G02*
X359920000Y-195337500I0J-147500D01*
G01*
X359920000Y-195632500D01*
G75*
G02*
X359772500Y-195780000I-147500J0D01*
G01*
X359427500Y-195780000D01*
G75*
G02*
X359280000Y-195632500I0J147500D01*
G01*
X359280000Y-195337500D01*
G75*
G02*
X359427500Y-195190000I147500J0D01*
G01*
G37*
G36*
G01*
X361427500Y-195190000D02*
X361772500Y-195190000D01*
G75*
G02*
X361920000Y-195337500I0J-147500D01*
G01*
X361920000Y-195632500D01*
G75*
G02*
X361772500Y-195780000I-147500J0D01*
G01*
X361427500Y-195780000D01*
G75*
G02*
X361280000Y-195632500I0J147500D01*
G01*
X361280000Y-195337500D01*
G75*
G02*
X361427500Y-195190000I147500J0D01*
G01*
G37*
G36*
G01*
X361427500Y-194220000D02*
X361772500Y-194220000D01*
G75*
G02*
X361920000Y-194367500I0J-147500D01*
G01*
X361920000Y-194662500D01*
G75*
G02*
X361772500Y-194810000I-147500J0D01*
G01*
X361427500Y-194810000D01*
G75*
G02*
X361280000Y-194662500I0J147500D01*
G01*
X361280000Y-194367500D01*
G75*
G02*
X361427500Y-194220000I147500J0D01*
G01*
G37*
G36*
G01*
X363427500Y-195190000D02*
X363772500Y-195190000D01*
G75*
G02*
X363920000Y-195337500I0J-147500D01*
G01*
X363920000Y-195632500D01*
G75*
G02*
X363772500Y-195780000I-147500J0D01*
G01*
X363427500Y-195780000D01*
G75*
G02*
X363280000Y-195632500I0J147500D01*
G01*
X363280000Y-195337500D01*
G75*
G02*
X363427500Y-195190000I147500J0D01*
G01*
G37*
G36*
G01*
X363427500Y-194220000D02*
X363772500Y-194220000D01*
G75*
G02*
X363920000Y-194367500I0J-147500D01*
G01*
X363920000Y-194662500D01*
G75*
G02*
X363772500Y-194810000I-147500J0D01*
G01*
X363427500Y-194810000D01*
G75*
G02*
X363280000Y-194662500I0J147500D01*
G01*
X363280000Y-194367500D01*
G75*
G02*
X363427500Y-194220000I147500J0D01*
G01*
G37*
G36*
G01*
X359915000Y-181412500D02*
X359915000Y-180937500D01*
G75*
G02*
X360152500Y-180700000I237500J0D01*
G01*
X360727500Y-180700000D01*
G75*
G02*
X360965000Y-180937500I0J-237500D01*
G01*
X360965000Y-181412500D01*
G75*
G02*
X360727500Y-181650000I-237500J0D01*
G01*
X360152500Y-181650000D01*
G75*
G02*
X359915000Y-181412500I0J237500D01*
G01*
G37*
G36*
G01*
X358165000Y-181412500D02*
X358165000Y-180937500D01*
G75*
G02*
X358402500Y-180700000I237500J0D01*
G01*
X358977500Y-180700000D01*
G75*
G02*
X359215000Y-180937500I0J-237500D01*
G01*
X359215000Y-181412500D01*
G75*
G02*
X358977500Y-181650000I-237500J0D01*
G01*
X358402500Y-181650000D01*
G75*
G02*
X358165000Y-181412500I0J237500D01*
G01*
G37*
G36*
G01*
X358155000Y-178362500D02*
X358155000Y-177887500D01*
G75*
G02*
X358392500Y-177650000I237500J0D01*
G01*
X358967500Y-177650000D01*
G75*
G02*
X359205000Y-177887500I0J-237500D01*
G01*
X359205000Y-178362500D01*
G75*
G02*
X358967500Y-178600000I-237500J0D01*
G01*
X358392500Y-178600000D01*
G75*
G02*
X358155000Y-178362500I0J237500D01*
G01*
G37*
G36*
G01*
X359905000Y-178362500D02*
X359905000Y-177887500D01*
G75*
G02*
X360142500Y-177650000I237500J0D01*
G01*
X360717500Y-177650000D01*
G75*
G02*
X360955000Y-177887500I0J-237500D01*
G01*
X360955000Y-178362500D01*
G75*
G02*
X360717500Y-178600000I-237500J0D01*
G01*
X360142500Y-178600000D01*
G75*
G02*
X359905000Y-178362500I0J237500D01*
G01*
G37*
G36*
G01*
X358155000Y-176832500D02*
X358155000Y-176357500D01*
G75*
G02*
X358392500Y-176120000I237500J0D01*
G01*
X358967500Y-176120000D01*
G75*
G02*
X359205000Y-176357500I0J-237500D01*
G01*
X359205000Y-176832500D01*
G75*
G02*
X358967500Y-177070000I-237500J0D01*
G01*
X358392500Y-177070000D01*
G75*
G02*
X358155000Y-176832500I0J237500D01*
G01*
G37*
G36*
G01*
X359905000Y-176832500D02*
X359905000Y-176357500D01*
G75*
G02*
X360142500Y-176120000I237500J0D01*
G01*
X360717500Y-176120000D01*
G75*
G02*
X360955000Y-176357500I0J-237500D01*
G01*
X360955000Y-176832500D01*
G75*
G02*
X360717500Y-177070000I-237500J0D01*
G01*
X360142500Y-177070000D01*
G75*
G02*
X359905000Y-176832500I0J237500D01*
G01*
G37*
G36*
G01*
X368237500Y-132475000D02*
X367762500Y-132475000D01*
G75*
G02*
X367525000Y-132237500I0J237500D01*
G01*
X367525000Y-131662500D01*
G75*
G02*
X367762500Y-131425000I237500J0D01*
G01*
X368237500Y-131425000D01*
G75*
G02*
X368475000Y-131662500I0J-237500D01*
G01*
X368475000Y-132237500D01*
G75*
G02*
X368237500Y-132475000I-237500J0D01*
G01*
G37*
G36*
G01*
X368237500Y-130725000D02*
X367762500Y-130725000D01*
G75*
G02*
X367525000Y-130487500I0J237500D01*
G01*
X367525000Y-129912500D01*
G75*
G02*
X367762500Y-129675000I237500J0D01*
G01*
X368237500Y-129675000D01*
G75*
G02*
X368475000Y-129912500I0J-237500D01*
G01*
X368475000Y-130487500D01*
G75*
G02*
X368237500Y-130725000I-237500J0D01*
G01*
G37*
G36*
G01*
X358237500Y-130725000D02*
X357762500Y-130725000D01*
G75*
G02*
X357525000Y-130487500I0J237500D01*
G01*
X357525000Y-129912500D01*
G75*
G02*
X357762500Y-129675000I237500J0D01*
G01*
X358237500Y-129675000D01*
G75*
G02*
X358475000Y-129912500I0J-237500D01*
G01*
X358475000Y-130487500D01*
G75*
G02*
X358237500Y-130725000I-237500J0D01*
G01*
G37*
G36*
G01*
X358237500Y-132475000D02*
X357762500Y-132475000D01*
G75*
G02*
X357525000Y-132237500I0J237500D01*
G01*
X357525000Y-131662500D01*
G75*
G02*
X357762500Y-131425000I237500J0D01*
G01*
X358237500Y-131425000D01*
G75*
G02*
X358475000Y-131662500I0J-237500D01*
G01*
X358475000Y-132237500D01*
G75*
G02*
X358237500Y-132475000I-237500J0D01*
G01*
G37*
G36*
G01*
X360925000Y-133462500D02*
X360925000Y-133937500D01*
G75*
G02*
X360687500Y-134175000I-237500J0D01*
G01*
X360112500Y-134175000D01*
G75*
G02*
X359875000Y-133937500I0J237500D01*
G01*
X359875000Y-133462500D01*
G75*
G02*
X360112500Y-133225000I237500J0D01*
G01*
X360687500Y-133225000D01*
G75*
G02*
X360925000Y-133462500I0J-237500D01*
G01*
G37*
G36*
G01*
X359175000Y-133462500D02*
X359175000Y-133937500D01*
G75*
G02*
X358937500Y-134175000I-237500J0D01*
G01*
X358362500Y-134175000D01*
G75*
G02*
X358125000Y-133937500I0J237500D01*
G01*
X358125000Y-133462500D01*
G75*
G02*
X358362500Y-133225000I237500J0D01*
G01*
X358937500Y-133225000D01*
G75*
G02*
X359175000Y-133462500I0J-237500D01*
G01*
G37*
G36*
G01*
X365937500Y-183150000D02*
X365462500Y-183150000D01*
G75*
G02*
X365225000Y-182912500I0J237500D01*
G01*
X365225000Y-182337500D01*
G75*
G02*
X365462500Y-182100000I237500J0D01*
G01*
X365937500Y-182100000D01*
G75*
G02*
X366175000Y-182337500I0J-237500D01*
G01*
X366175000Y-182912500D01*
G75*
G02*
X365937500Y-183150000I-237500J0D01*
G01*
G37*
G36*
G01*
X365937500Y-184900000D02*
X365462500Y-184900000D01*
G75*
G02*
X365225000Y-184662500I0J237500D01*
G01*
X365225000Y-184087500D01*
G75*
G02*
X365462500Y-183850000I237500J0D01*
G01*
X365937500Y-183850000D01*
G75*
G02*
X366175000Y-184087500I0J-237500D01*
G01*
X366175000Y-184662500D01*
G75*
G02*
X365937500Y-184900000I-237500J0D01*
G01*
G37*
G36*
G01*
X360980000Y-183992500D02*
X360980000Y-184467500D01*
G75*
G02*
X360742500Y-184705000I-237500J0D01*
G01*
X360167500Y-184705000D01*
G75*
G02*
X359930000Y-184467500I0J237500D01*
G01*
X359930000Y-183992500D01*
G75*
G02*
X360167500Y-183755000I237500J0D01*
G01*
X360742500Y-183755000D01*
G75*
G02*
X360980000Y-183992500I0J-237500D01*
G01*
G37*
G36*
G01*
X359230000Y-183992500D02*
X359230000Y-184467500D01*
G75*
G02*
X358992500Y-184705000I-237500J0D01*
G01*
X358417500Y-184705000D01*
G75*
G02*
X358180000Y-184467500I0J237500D01*
G01*
X358180000Y-183992500D01*
G75*
G02*
X358417500Y-183755000I237500J0D01*
G01*
X358992500Y-183755000D01*
G75*
G02*
X359230000Y-183992500I0J-237500D01*
G01*
G37*
G36*
G01*
X359875000Y-136537500D02*
X359875000Y-136062500D01*
G75*
G02*
X360112500Y-135825000I237500J0D01*
G01*
X360687500Y-135825000D01*
G75*
G02*
X360925000Y-136062500I0J-237500D01*
G01*
X360925000Y-136537500D01*
G75*
G02*
X360687500Y-136775000I-237500J0D01*
G01*
X360112500Y-136775000D01*
G75*
G02*
X359875000Y-136537500I0J237500D01*
G01*
G37*
G36*
G01*
X358125000Y-136537500D02*
X358125000Y-136062500D01*
G75*
G02*
X358362500Y-135825000I237500J0D01*
G01*
X358937500Y-135825000D01*
G75*
G02*
X359175000Y-136062500I0J-237500D01*
G01*
X359175000Y-136537500D01*
G75*
G02*
X358937500Y-136775000I-237500J0D01*
G01*
X358362500Y-136775000D01*
G75*
G02*
X358125000Y-136537500I0J237500D01*
G01*
G37*
G36*
G01*
X367762500Y-137525000D02*
X368237500Y-137525000D01*
G75*
G02*
X368475000Y-137762500I0J-237500D01*
G01*
X368475000Y-138337500D01*
G75*
G02*
X368237500Y-138575000I-237500J0D01*
G01*
X367762500Y-138575000D01*
G75*
G02*
X367525000Y-138337500I0J237500D01*
G01*
X367525000Y-137762500D01*
G75*
G02*
X367762500Y-137525000I237500J0D01*
G01*
G37*
G36*
G01*
X367762500Y-139275000D02*
X368237500Y-139275000D01*
G75*
G02*
X368475000Y-139512500I0J-237500D01*
G01*
X368475000Y-140087500D01*
G75*
G02*
X368237500Y-140325000I-237500J0D01*
G01*
X367762500Y-140325000D01*
G75*
G02*
X367525000Y-140087500I0J237500D01*
G01*
X367525000Y-139512500D01*
G75*
G02*
X367762500Y-139275000I237500J0D01*
G01*
G37*
G36*
G01*
X357762500Y-139200000D02*
X358237500Y-139200000D01*
G75*
G02*
X358475000Y-139437500I0J-237500D01*
G01*
X358475000Y-140012500D01*
G75*
G02*
X358237500Y-140250000I-237500J0D01*
G01*
X357762500Y-140250000D01*
G75*
G02*
X357525000Y-140012500I0J237500D01*
G01*
X357525000Y-139437500D01*
G75*
G02*
X357762500Y-139200000I237500J0D01*
G01*
G37*
G36*
G01*
X357762500Y-137450000D02*
X358237500Y-137450000D01*
G75*
G02*
X358475000Y-137687500I0J-237500D01*
G01*
X358475000Y-138262500D01*
G75*
G02*
X358237500Y-138500000I-237500J0D01*
G01*
X357762500Y-138500000D01*
G75*
G02*
X357525000Y-138262500I0J237500D01*
G01*
X357525000Y-137687500D01*
G75*
G02*
X357762500Y-137450000I237500J0D01*
G01*
G37*
G36*
G01*
X359162500Y-113300000D02*
X358687500Y-113300000D01*
G75*
G02*
X358450000Y-113062500I0J237500D01*
G01*
X358450000Y-112487500D01*
G75*
G02*
X358687500Y-112250000I237500J0D01*
G01*
X359162500Y-112250000D01*
G75*
G02*
X359400000Y-112487500I0J-237500D01*
G01*
X359400000Y-113062500D01*
G75*
G02*
X359162500Y-113300000I-237500J0D01*
G01*
G37*
G36*
G01*
X359162500Y-115050000D02*
X358687500Y-115050000D01*
G75*
G02*
X358450000Y-114812500I0J237500D01*
G01*
X358450000Y-114237500D01*
G75*
G02*
X358687500Y-114000000I237500J0D01*
G01*
X359162500Y-114000000D01*
G75*
G02*
X359400000Y-114237500I0J-237500D01*
G01*
X359400000Y-114812500D01*
G75*
G02*
X359162500Y-115050000I-237500J0D01*
G01*
G37*
G36*
G01*
X354537500Y-112400000D02*
X355012500Y-112400000D01*
G75*
G02*
X355250000Y-112637500I0J-237500D01*
G01*
X355250000Y-113212500D01*
G75*
G02*
X355012500Y-113450000I-237500J0D01*
G01*
X354537500Y-113450000D01*
G75*
G02*
X354300000Y-113212500I0J237500D01*
G01*
X354300000Y-112637500D01*
G75*
G02*
X354537500Y-112400000I237500J0D01*
G01*
G37*
G36*
G01*
X354537500Y-114150000D02*
X355012500Y-114150000D01*
G75*
G02*
X355250000Y-114387500I0J-237500D01*
G01*
X355250000Y-114962500D01*
G75*
G02*
X355012500Y-115200000I-237500J0D01*
G01*
X354537500Y-115200000D01*
G75*
G02*
X354300000Y-114962500I0J237500D01*
G01*
X354300000Y-114387500D01*
G75*
G02*
X354537500Y-114150000I237500J0D01*
G01*
G37*
G36*
G01*
X362549999Y-112475000D02*
X363450001Y-112475000D01*
G75*
G02*
X363700000Y-112724999I0J-249999D01*
G01*
X363700000Y-113375001D01*
G75*
G02*
X363450001Y-113625000I-249999J0D01*
G01*
X362549999Y-113625000D01*
G75*
G02*
X362300000Y-113375001I0J249999D01*
G01*
X362300000Y-112724999D01*
G75*
G02*
X362549999Y-112475000I249999J0D01*
G01*
G37*
G36*
G01*
X362549999Y-114525000D02*
X363450001Y-114525000D01*
G75*
G02*
X363700000Y-114774999I0J-249999D01*
G01*
X363700000Y-115425001D01*
G75*
G02*
X363450001Y-115675000I-249999J0D01*
G01*
X362549999Y-115675000D01*
G75*
G02*
X362300000Y-115425001I0J249999D01*
G01*
X362300000Y-114774999D01*
G75*
G02*
X362549999Y-114525000I249999J0D01*
G01*
G37*
G36*
G01*
X349875000Y-136937500D02*
X349875000Y-136462500D01*
G75*
G02*
X350112500Y-136225000I237500J0D01*
G01*
X350687500Y-136225000D01*
G75*
G02*
X350925000Y-136462500I0J-237500D01*
G01*
X350925000Y-136937500D01*
G75*
G02*
X350687500Y-137175000I-237500J0D01*
G01*
X350112500Y-137175000D01*
G75*
G02*
X349875000Y-136937500I0J237500D01*
G01*
G37*
G36*
G01*
X348125000Y-136937500D02*
X348125000Y-136462500D01*
G75*
G02*
X348362500Y-136225000I237500J0D01*
G01*
X348937500Y-136225000D01*
G75*
G02*
X349175000Y-136462500I0J-237500D01*
G01*
X349175000Y-136937500D01*
G75*
G02*
X348937500Y-137175000I-237500J0D01*
G01*
X348362500Y-137175000D01*
G75*
G02*
X348125000Y-136937500I0J237500D01*
G01*
G37*
G36*
G01*
X348125000Y-133537500D02*
X348125000Y-133062500D01*
G75*
G02*
X348362500Y-132825000I237500J0D01*
G01*
X348937500Y-132825000D01*
G75*
G02*
X349175000Y-133062500I0J-237500D01*
G01*
X349175000Y-133537500D01*
G75*
G02*
X348937500Y-133775000I-237500J0D01*
G01*
X348362500Y-133775000D01*
G75*
G02*
X348125000Y-133537500I0J237500D01*
G01*
G37*
G36*
G01*
X349875000Y-133537500D02*
X349875000Y-133062500D01*
G75*
G02*
X350112500Y-132825000I237500J0D01*
G01*
X350687500Y-132825000D01*
G75*
G02*
X350925000Y-133062500I0J-237500D01*
G01*
X350925000Y-133537500D01*
G75*
G02*
X350687500Y-133775000I-237500J0D01*
G01*
X350112500Y-133775000D01*
G75*
G02*
X349875000Y-133537500I0J237500D01*
G01*
G37*
G36*
G01*
X404037500Y-168000000D02*
X403562500Y-168000000D01*
G75*
G02*
X403325000Y-167762500I0J237500D01*
G01*
X403325000Y-167187500D01*
G75*
G02*
X403562500Y-166950000I237500J0D01*
G01*
X404037500Y-166950000D01*
G75*
G02*
X404275000Y-167187500I0J-237500D01*
G01*
X404275000Y-167762500D01*
G75*
G02*
X404037500Y-168000000I-237500J0D01*
G01*
G37*
G36*
G01*
X404037500Y-166250000D02*
X403562500Y-166250000D01*
G75*
G02*
X403325000Y-166012500I0J237500D01*
G01*
X403325000Y-165437500D01*
G75*
G02*
X403562500Y-165200000I237500J0D01*
G01*
X404037500Y-165200000D01*
G75*
G02*
X404275000Y-165437500I0J-237500D01*
G01*
X404275000Y-166012500D01*
G75*
G02*
X404037500Y-166250000I-237500J0D01*
G01*
G37*
G36*
G01*
X398937500Y-164850000D02*
X398462500Y-164850000D01*
G75*
G02*
X398225000Y-164612500I0J237500D01*
G01*
X398225000Y-164037500D01*
G75*
G02*
X398462500Y-163800000I237500J0D01*
G01*
X398937500Y-163800000D01*
G75*
G02*
X399175000Y-164037500I0J-237500D01*
G01*
X399175000Y-164612500D01*
G75*
G02*
X398937500Y-164850000I-237500J0D01*
G01*
G37*
G36*
G01*
X398937500Y-166600000D02*
X398462500Y-166600000D01*
G75*
G02*
X398225000Y-166362500I0J237500D01*
G01*
X398225000Y-165787500D01*
G75*
G02*
X398462500Y-165550000I237500J0D01*
G01*
X398937500Y-165550000D01*
G75*
G02*
X399175000Y-165787500I0J-237500D01*
G01*
X399175000Y-166362500D01*
G75*
G02*
X398937500Y-166600000I-237500J0D01*
G01*
G37*
G36*
G01*
X365837500Y-166190000D02*
X365362500Y-166190000D01*
G75*
G02*
X365125000Y-165952500I0J237500D01*
G01*
X365125000Y-165377500D01*
G75*
G02*
X365362500Y-165140000I237500J0D01*
G01*
X365837500Y-165140000D01*
G75*
G02*
X366075000Y-165377500I0J-237500D01*
G01*
X366075000Y-165952500D01*
G75*
G02*
X365837500Y-166190000I-237500J0D01*
G01*
G37*
G36*
G01*
X365837500Y-167940000D02*
X365362500Y-167940000D01*
G75*
G02*
X365125000Y-167702500I0J237500D01*
G01*
X365125000Y-167127500D01*
G75*
G02*
X365362500Y-166890000I237500J0D01*
G01*
X365837500Y-166890000D01*
G75*
G02*
X366075000Y-167127500I0J-237500D01*
G01*
X366075000Y-167702500D01*
G75*
G02*
X365837500Y-167940000I-237500J0D01*
G01*
G37*
G36*
G01*
X361107500Y-166650000D02*
X360632500Y-166650000D01*
G75*
G02*
X360395000Y-166412500I0J237500D01*
G01*
X360395000Y-165837500D01*
G75*
G02*
X360632500Y-165600000I237500J0D01*
G01*
X361107500Y-165600000D01*
G75*
G02*
X361345000Y-165837500I0J-237500D01*
G01*
X361345000Y-166412500D01*
G75*
G02*
X361107500Y-166650000I-237500J0D01*
G01*
G37*
G36*
G01*
X361107500Y-164900000D02*
X360632500Y-164900000D01*
G75*
G02*
X360395000Y-164662500I0J237500D01*
G01*
X360395000Y-164087500D01*
G75*
G02*
X360632500Y-163850000I237500J0D01*
G01*
X361107500Y-163850000D01*
G75*
G02*
X361345000Y-164087500I0J-237500D01*
G01*
X361345000Y-164662500D01*
G75*
G02*
X361107500Y-164900000I-237500J0D01*
G01*
G37*
D10*
X382025000Y-133300000D03*
X382675000Y-133300000D03*
X383325000Y-133300000D03*
X383975000Y-133300000D03*
X383975000Y-136700000D03*
X383325000Y-136700000D03*
X382675000Y-136700000D03*
X382025000Y-136700000D03*
G36*
G01*
X404145000Y-156300000D02*
X404445000Y-156300000D01*
G75*
G02*
X404595000Y-156450000I0J-150000D01*
G01*
X404595000Y-158100000D01*
G75*
G02*
X404445000Y-158250000I-150000J0D01*
G01*
X404145000Y-158250000D01*
G75*
G02*
X403995000Y-158100000I0J150000D01*
G01*
X403995000Y-156450000D01*
G75*
G02*
X404145000Y-156300000I150000J0D01*
G01*
G37*
G36*
G01*
X405415000Y-156300000D02*
X405715000Y-156300000D01*
G75*
G02*
X405865000Y-156450000I0J-150000D01*
G01*
X405865000Y-158100000D01*
G75*
G02*
X405715000Y-158250000I-150000J0D01*
G01*
X405415000Y-158250000D01*
G75*
G02*
X405265000Y-158100000I0J150000D01*
G01*
X405265000Y-156450000D01*
G75*
G02*
X405415000Y-156300000I150000J0D01*
G01*
G37*
G36*
G01*
X406685000Y-156300000D02*
X406985000Y-156300000D01*
G75*
G02*
X407135000Y-156450000I0J-150000D01*
G01*
X407135000Y-158100000D01*
G75*
G02*
X406985000Y-158250000I-150000J0D01*
G01*
X406685000Y-158250000D01*
G75*
G02*
X406535000Y-158100000I0J150000D01*
G01*
X406535000Y-156450000D01*
G75*
G02*
X406685000Y-156300000I150000J0D01*
G01*
G37*
G36*
G01*
X407955000Y-156300000D02*
X408255000Y-156300000D01*
G75*
G02*
X408405000Y-156450000I0J-150000D01*
G01*
X408405000Y-158100000D01*
G75*
G02*
X408255000Y-158250000I-150000J0D01*
G01*
X407955000Y-158250000D01*
G75*
G02*
X407805000Y-158100000I0J150000D01*
G01*
X407805000Y-156450000D01*
G75*
G02*
X407955000Y-156300000I150000J0D01*
G01*
G37*
G36*
G01*
X407955000Y-161250000D02*
X408255000Y-161250000D01*
G75*
G02*
X408405000Y-161400000I0J-150000D01*
G01*
X408405000Y-163050000D01*
G75*
G02*
X408255000Y-163200000I-150000J0D01*
G01*
X407955000Y-163200000D01*
G75*
G02*
X407805000Y-163050000I0J150000D01*
G01*
X407805000Y-161400000D01*
G75*
G02*
X407955000Y-161250000I150000J0D01*
G01*
G37*
G36*
G01*
X406685000Y-161250000D02*
X406985000Y-161250000D01*
G75*
G02*
X407135000Y-161400000I0J-150000D01*
G01*
X407135000Y-163050000D01*
G75*
G02*
X406985000Y-163200000I-150000J0D01*
G01*
X406685000Y-163200000D01*
G75*
G02*
X406535000Y-163050000I0J150000D01*
G01*
X406535000Y-161400000D01*
G75*
G02*
X406685000Y-161250000I150000J0D01*
G01*
G37*
G36*
G01*
X405415000Y-161250000D02*
X405715000Y-161250000D01*
G75*
G02*
X405865000Y-161400000I0J-150000D01*
G01*
X405865000Y-163050000D01*
G75*
G02*
X405715000Y-163200000I-150000J0D01*
G01*
X405415000Y-163200000D01*
G75*
G02*
X405265000Y-163050000I0J150000D01*
G01*
X405265000Y-161400000D01*
G75*
G02*
X405415000Y-161250000I150000J0D01*
G01*
G37*
G36*
G01*
X404145000Y-161250000D02*
X404445000Y-161250000D01*
G75*
G02*
X404595000Y-161400000I0J-150000D01*
G01*
X404595000Y-163050000D01*
G75*
G02*
X404445000Y-163200000I-150000J0D01*
G01*
X404145000Y-163200000D01*
G75*
G02*
X403995000Y-163050000I0J150000D01*
G01*
X403995000Y-161400000D01*
G75*
G02*
X404145000Y-161250000I150000J0D01*
G01*
G37*
X362025000Y-136700000D03*
X362675000Y-136700000D03*
X363325000Y-136700000D03*
X363975000Y-136700000D03*
X363975000Y-133300000D03*
X363325000Y-133300000D03*
X362675000Y-133300000D03*
X362025000Y-133300000D03*
G36*
G01*
X365745000Y-161250000D02*
X366045000Y-161250000D01*
G75*
G02*
X366195000Y-161400000I0J-150000D01*
G01*
X366195000Y-163050000D01*
G75*
G02*
X366045000Y-163200000I-150000J0D01*
G01*
X365745000Y-163200000D01*
G75*
G02*
X365595000Y-163050000I0J150000D01*
G01*
X365595000Y-161400000D01*
G75*
G02*
X365745000Y-161250000I150000J0D01*
G01*
G37*
G36*
G01*
X367015000Y-161250000D02*
X367315000Y-161250000D01*
G75*
G02*
X367465000Y-161400000I0J-150000D01*
G01*
X367465000Y-163050000D01*
G75*
G02*
X367315000Y-163200000I-150000J0D01*
G01*
X367015000Y-163200000D01*
G75*
G02*
X366865000Y-163050000I0J150000D01*
G01*
X366865000Y-161400000D01*
G75*
G02*
X367015000Y-161250000I150000J0D01*
G01*
G37*
G36*
G01*
X368285000Y-161250000D02*
X368585000Y-161250000D01*
G75*
G02*
X368735000Y-161400000I0J-150000D01*
G01*
X368735000Y-163050000D01*
G75*
G02*
X368585000Y-163200000I-150000J0D01*
G01*
X368285000Y-163200000D01*
G75*
G02*
X368135000Y-163050000I0J150000D01*
G01*
X368135000Y-161400000D01*
G75*
G02*
X368285000Y-161250000I150000J0D01*
G01*
G37*
G36*
G01*
X369555000Y-161250000D02*
X369855000Y-161250000D01*
G75*
G02*
X370005000Y-161400000I0J-150000D01*
G01*
X370005000Y-163050000D01*
G75*
G02*
X369855000Y-163200000I-150000J0D01*
G01*
X369555000Y-163200000D01*
G75*
G02*
X369405000Y-163050000I0J150000D01*
G01*
X369405000Y-161400000D01*
G75*
G02*
X369555000Y-161250000I150000J0D01*
G01*
G37*
G36*
G01*
X369555000Y-156300000D02*
X369855000Y-156300000D01*
G75*
G02*
X370005000Y-156450000I0J-150000D01*
G01*
X370005000Y-158100000D01*
G75*
G02*
X369855000Y-158250000I-150000J0D01*
G01*
X369555000Y-158250000D01*
G75*
G02*
X369405000Y-158100000I0J150000D01*
G01*
X369405000Y-156450000D01*
G75*
G02*
X369555000Y-156300000I150000J0D01*
G01*
G37*
G36*
G01*
X368285000Y-156300000D02*
X368585000Y-156300000D01*
G75*
G02*
X368735000Y-156450000I0J-150000D01*
G01*
X368735000Y-158100000D01*
G75*
G02*
X368585000Y-158250000I-150000J0D01*
G01*
X368285000Y-158250000D01*
G75*
G02*
X368135000Y-158100000I0J150000D01*
G01*
X368135000Y-156450000D01*
G75*
G02*
X368285000Y-156300000I150000J0D01*
G01*
G37*
G36*
G01*
X367015000Y-156300000D02*
X367315000Y-156300000D01*
G75*
G02*
X367465000Y-156450000I0J-150000D01*
G01*
X367465000Y-158100000D01*
G75*
G02*
X367315000Y-158250000I-150000J0D01*
G01*
X367015000Y-158250000D01*
G75*
G02*
X366865000Y-158100000I0J150000D01*
G01*
X366865000Y-156450000D01*
G75*
G02*
X367015000Y-156300000I150000J0D01*
G01*
G37*
G36*
G01*
X365745000Y-156300000D02*
X366045000Y-156300000D01*
G75*
G02*
X366195000Y-156450000I0J-150000D01*
G01*
X366195000Y-158100000D01*
G75*
G02*
X366045000Y-158250000I-150000J0D01*
G01*
X365745000Y-158250000D01*
G75*
G02*
X365595000Y-158100000I0J150000D01*
G01*
X365595000Y-156450000D01*
G75*
G02*
X365745000Y-156300000I150000J0D01*
G01*
G37*
X372025000Y-133300000D03*
X372675000Y-133300000D03*
X373325000Y-133300000D03*
X373975000Y-133300000D03*
X373975000Y-136700000D03*
X373325000Y-136700000D03*
X372675000Y-136700000D03*
X372025000Y-136700000D03*
X352025000Y-136700000D03*
X352675000Y-136700000D03*
X353325000Y-136700000D03*
X353975000Y-136700000D03*
X353975000Y-133300000D03*
X353325000Y-133300000D03*
X352675000Y-133300000D03*
X352025000Y-133300000D03*
M02*
