%TF.GenerationSoftware,KiCad,Pcbnew,(5.1.9-0-10_14)*%
%TF.CreationDate,2021-05-13T13:45:13-04:00*%
%TF.ProjectId,SiPM_Board_RevB,5369504d-5f42-46f6-9172-645f52657642,rev?*%
%TF.SameCoordinates,Original*%
%TF.FileFunction,Copper,L4,Bot*%
%TF.FilePolarity,Positive*%
%FSLAX46Y46*%
G04 Gerber Fmt 4.6, Leading zero omitted, Abs format (unit mm)*
G04 Created by KiCad (PCBNEW (5.1.9-0-10_14)) date 2021-05-13 13:45:13*
%MOMM*%
%LPD*%
G01*
G04 APERTURE LIST*
%TA.AperFunction,SMDPad,CuDef*%
%ADD10R,2.413000X0.558800*%
%TD*%
%TA.AperFunction,SMDPad,CuDef*%
%ADD11R,0.900000X0.400000*%
%TD*%
%TA.AperFunction,ViaPad*%
%ADD12C,0.635000*%
%TD*%
%TA.AperFunction,Conductor*%
%ADD13C,0.294640*%
%TD*%
G04 APERTURE END LIST*
D10*
%TO.P,J2,68*%
%TO.N,/BIAS4*%
X160852000Y-116502634D03*
%TO.P,J2,67*%
X164408000Y-116502634D03*
%TO.P,J2,66*%
%TO.N,GND*%
X160852000Y-115502636D03*
%TO.P,J2,65*%
%TO.N,Net-(J2-Pad65)*%
X164408000Y-115502636D03*
%TO.P,J2,64*%
%TO.N,GND*%
X160852000Y-114502638D03*
%TO.P,J2,63*%
%TO.N,Net-(J2-Pad63)*%
X164408000Y-114502638D03*
%TO.P,J2,62*%
%TO.N,GND*%
X160852000Y-113502640D03*
%TO.P,J2,61*%
%TO.N,Net-(J2-Pad61)*%
X164408000Y-113502640D03*
%TO.P,J2,60*%
%TO.N,GND*%
X160852000Y-112502642D03*
%TO.P,J2,59*%
%TO.N,Net-(J2-Pad59)*%
X164408000Y-112502642D03*
%TO.P,J2,58*%
%TO.N,GND*%
X160852000Y-111502644D03*
%TO.P,J2,57*%
%TO.N,Net-(J2-Pad57)*%
X164408000Y-111502644D03*
%TO.P,J2,56*%
%TO.N,GND*%
X160852000Y-110502646D03*
%TO.P,J2,55*%
%TO.N,Net-(J2-Pad55)*%
X164408000Y-110502646D03*
%TO.P,J2,54*%
%TO.N,GND*%
X160852000Y-109502648D03*
%TO.P,J2,53*%
%TO.N,Net-(J2-Pad53)*%
X164408000Y-109502648D03*
%TO.P,J2,52*%
%TO.N,GND*%
X160852000Y-108502650D03*
%TO.P,J2,51*%
%TO.N,Net-(J2-Pad51)*%
X164408000Y-108502650D03*
%TO.P,J2,50*%
%TO.N,GND*%
X160852000Y-107502652D03*
%TO.P,J2,49*%
%TO.N,Net-(J2-Pad49)*%
X164408000Y-107502652D03*
%TO.P,J2,48*%
%TO.N,GND*%
X160852000Y-106502654D03*
%TO.P,J2,47*%
%TO.N,Net-(J2-Pad47)*%
X164408000Y-106502654D03*
%TO.P,J2,46*%
%TO.N,GND*%
X160852000Y-105502656D03*
%TO.P,J2,45*%
%TO.N,Net-(J2-Pad45)*%
X164408000Y-105502656D03*
%TO.P,J2,44*%
%TO.N,GND*%
X160852000Y-104502658D03*
%TO.P,J2,43*%
%TO.N,Net-(J2-Pad43)*%
X164408000Y-104502658D03*
%TO.P,J2,42*%
%TO.N,GND*%
X160852000Y-103502660D03*
%TO.P,J2,41*%
%TO.N,Net-(J2-Pad41)*%
X164408000Y-103502660D03*
%TO.P,J2,40*%
%TO.N,GND*%
X160852000Y-102502662D03*
%TO.P,J2,39*%
%TO.N,Net-(J2-Pad39)*%
X164408000Y-102502662D03*
%TO.P,J2,38*%
%TO.N,GND*%
X160852000Y-101502664D03*
%TO.P,J2,37*%
%TO.N,Net-(J2-Pad37)*%
X164408000Y-101502664D03*
%TO.P,J2,36*%
%TO.N,GND*%
X160852000Y-100502666D03*
%TO.P,J2,35*%
%TO.N,Net-(J2-Pad35)*%
X164408000Y-100502666D03*
%TO.P,J2,34*%
%TO.N,GND*%
X160852000Y-99502668D03*
%TO.P,J2,33*%
%TO.N,Net-(J2-Pad33)*%
X164408000Y-99502668D03*
%TO.P,J2,32*%
%TO.N,GND*%
X160852000Y-98502670D03*
%TO.P,J2,31*%
%TO.N,Net-(J2-Pad31)*%
X164408000Y-98502670D03*
%TO.P,J2,30*%
%TO.N,GND*%
X160852000Y-97502672D03*
%TO.P,J2,29*%
%TO.N,Net-(J2-Pad29)*%
X164408000Y-97502672D03*
%TO.P,J2,28*%
%TO.N,GND*%
X160852000Y-96502674D03*
%TO.P,J2,27*%
%TO.N,Net-(J2-Pad27)*%
X164408000Y-96502674D03*
%TO.P,J2,26*%
%TO.N,GND*%
X160852000Y-95502676D03*
%TO.P,J2,25*%
%TO.N,Net-(J2-Pad25)*%
X164408000Y-95502676D03*
%TO.P,J2,24*%
%TO.N,GND*%
X160852000Y-94502678D03*
%TO.P,J2,23*%
%TO.N,Net-(J2-Pad23)*%
X164408000Y-94502678D03*
%TO.P,J2,22*%
%TO.N,GND*%
X160852000Y-93502680D03*
%TO.P,J2,21*%
%TO.N,Net-(J2-Pad21)*%
X164408000Y-93502680D03*
%TO.P,J2,20*%
%TO.N,GND*%
X160852000Y-92502682D03*
%TO.P,J2,19*%
%TO.N,Net-(J2-Pad19)*%
X164408000Y-92502682D03*
%TO.P,J2,18*%
%TO.N,GND*%
X160852000Y-91502684D03*
%TO.P,J2,17*%
%TO.N,Net-(J2-Pad17)*%
X164408000Y-91502684D03*
%TO.P,J2,16*%
%TO.N,GND*%
X160852000Y-90502686D03*
%TO.P,J2,15*%
%TO.N,Net-(J2-Pad15)*%
X164408000Y-90502686D03*
%TO.P,J2,14*%
%TO.N,GND*%
X160852000Y-89502688D03*
%TO.P,J2,13*%
%TO.N,Net-(J2-Pad13)*%
X164408000Y-89502688D03*
%TO.P,J2,12*%
%TO.N,GND*%
X160852000Y-88502690D03*
%TO.P,J2,11*%
%TO.N,Net-(J2-Pad11)*%
X164408000Y-88502690D03*
%TO.P,J2,10*%
%TO.N,GND*%
X160852000Y-87502692D03*
%TO.P,J2,9*%
%TO.N,Net-(J2-Pad9)*%
X164408000Y-87502692D03*
%TO.P,J2,8*%
%TO.N,GND*%
X160852000Y-86502694D03*
%TO.P,J2,7*%
%TO.N,Net-(J2-Pad7)*%
X164408000Y-86502694D03*
%TO.P,J2,6*%
%TO.N,GND*%
X160852000Y-85502696D03*
%TO.P,J2,5*%
%TO.N,Net-(J2-Pad5)*%
X164408000Y-85502696D03*
%TO.P,J2,4*%
%TO.N,GND*%
X160852000Y-84502698D03*
%TO.P,J2,3*%
%TO.N,Net-(J2-Pad3)*%
X164408000Y-84502698D03*
%TO.P,J2,1*%
%TO.N,Net-(J2-Pad1)*%
X164408000Y-83502700D03*
%TO.P,J2,2*%
%TO.N,/BIAS3*%
X160852000Y-83502700D03*
%TD*%
D11*
%TO.P,U1,4*%
%TO.N,/VDD*%
X148900000Y-100650000D03*
%TO.P,U1,2*%
%TO.N,GND*%
X151100000Y-100000000D03*
%TO.P,U1,5*%
X148900180Y-99344680D03*
%TO.P,U1,3*%
%TO.N,/OUT*%
X151100000Y-100650000D03*
%TO.P,U1,1*%
%TO.N,GND*%
X151100000Y-99350000D03*
%TD*%
D10*
%TO.P,J1,2*%
%TO.N,/BIAS1*%
X135592000Y-83502700D03*
%TO.P,J1,1*%
%TO.N,Net-(J1-Pad1)*%
X139148000Y-83502700D03*
%TO.P,J1,3*%
%TO.N,Net-(J1-Pad3)*%
X139148000Y-84502698D03*
%TO.P,J1,4*%
%TO.N,GND*%
X135592000Y-84502698D03*
%TO.P,J1,5*%
%TO.N,Net-(J1-Pad5)*%
X139148000Y-85502696D03*
%TO.P,J1,6*%
%TO.N,GND*%
X135592000Y-85502696D03*
%TO.P,J1,7*%
%TO.N,Net-(J1-Pad7)*%
X139148000Y-86502694D03*
%TO.P,J1,8*%
%TO.N,GND*%
X135592000Y-86502694D03*
%TO.P,J1,9*%
%TO.N,Net-(J1-Pad9)*%
X139148000Y-87502692D03*
%TO.P,J1,10*%
%TO.N,GND*%
X135592000Y-87502692D03*
%TO.P,J1,11*%
%TO.N,Net-(J1-Pad11)*%
X139148000Y-88502690D03*
%TO.P,J1,12*%
%TO.N,GND*%
X135592000Y-88502690D03*
%TO.P,J1,13*%
%TO.N,Net-(J1-Pad13)*%
X139148000Y-89502688D03*
%TO.P,J1,14*%
%TO.N,GND*%
X135592000Y-89502688D03*
%TO.P,J1,15*%
%TO.N,Net-(J1-Pad15)*%
X139148000Y-90502686D03*
%TO.P,J1,16*%
%TO.N,GND*%
X135592000Y-90502686D03*
%TO.P,J1,17*%
%TO.N,Net-(J1-Pad17)*%
X139148000Y-91502684D03*
%TO.P,J1,18*%
%TO.N,GND*%
X135592000Y-91502684D03*
%TO.P,J1,19*%
%TO.N,Net-(J1-Pad19)*%
X139148000Y-92502682D03*
%TO.P,J1,20*%
%TO.N,GND*%
X135592000Y-92502682D03*
%TO.P,J1,21*%
%TO.N,Net-(J1-Pad21)*%
X139148000Y-93502680D03*
%TO.P,J1,22*%
%TO.N,GND*%
X135592000Y-93502680D03*
%TO.P,J1,23*%
%TO.N,Net-(J1-Pad23)*%
X139148000Y-94502678D03*
%TO.P,J1,24*%
%TO.N,GND*%
X135592000Y-94502678D03*
%TO.P,J1,25*%
%TO.N,Net-(J1-Pad25)*%
X139148000Y-95502676D03*
%TO.P,J1,26*%
%TO.N,GND*%
X135592000Y-95502676D03*
%TO.P,J1,27*%
%TO.N,Net-(J1-Pad27)*%
X139148000Y-96502674D03*
%TO.P,J1,28*%
%TO.N,GND*%
X135592000Y-96502674D03*
%TO.P,J1,29*%
%TO.N,Net-(J1-Pad29)*%
X139148000Y-97502672D03*
%TO.P,J1,30*%
%TO.N,GND*%
X135592000Y-97502672D03*
%TO.P,J1,31*%
%TO.N,Net-(J1-Pad31)*%
X139148000Y-98502670D03*
%TO.P,J1,32*%
%TO.N,GND*%
X135592000Y-98502670D03*
%TO.P,J1,33*%
%TO.N,Net-(J1-Pad33)*%
X139148000Y-99502668D03*
%TO.P,J1,34*%
%TO.N,GND*%
X135592000Y-99502668D03*
%TO.P,J1,35*%
%TO.N,Net-(J1-Pad35)*%
X139148000Y-100502666D03*
%TO.P,J1,36*%
%TO.N,GND*%
X135592000Y-100502666D03*
%TO.P,J1,37*%
%TO.N,Net-(J1-Pad37)*%
X139148000Y-101502664D03*
%TO.P,J1,38*%
%TO.N,GND*%
X135592000Y-101502664D03*
%TO.P,J1,39*%
%TO.N,Net-(J1-Pad39)*%
X139148000Y-102502662D03*
%TO.P,J1,40*%
%TO.N,GND*%
X135592000Y-102502662D03*
%TO.P,J1,41*%
%TO.N,Net-(J1-Pad41)*%
X139148000Y-103502660D03*
%TO.P,J1,42*%
%TO.N,GND*%
X135592000Y-103502660D03*
%TO.P,J1,43*%
%TO.N,Net-(J1-Pad43)*%
X139148000Y-104502658D03*
%TO.P,J1,44*%
%TO.N,GND*%
X135592000Y-104502658D03*
%TO.P,J1,45*%
%TO.N,Net-(J1-Pad45)*%
X139148000Y-105502656D03*
%TO.P,J1,46*%
%TO.N,GND*%
X135592000Y-105502656D03*
%TO.P,J1,47*%
%TO.N,Net-(J1-Pad47)*%
X139148000Y-106502654D03*
%TO.P,J1,48*%
%TO.N,GND*%
X135592000Y-106502654D03*
%TO.P,J1,49*%
%TO.N,Net-(J1-Pad49)*%
X139148000Y-107502652D03*
%TO.P,J1,50*%
%TO.N,GND*%
X135592000Y-107502652D03*
%TO.P,J1,51*%
%TO.N,Net-(J1-Pad51)*%
X139148000Y-108502650D03*
%TO.P,J1,52*%
%TO.N,GND*%
X135592000Y-108502650D03*
%TO.P,J1,53*%
%TO.N,Net-(J1-Pad53)*%
X139148000Y-109502648D03*
%TO.P,J1,54*%
%TO.N,GND*%
X135592000Y-109502648D03*
%TO.P,J1,55*%
%TO.N,Net-(J1-Pad55)*%
X139148000Y-110502646D03*
%TO.P,J1,56*%
%TO.N,GND*%
X135592000Y-110502646D03*
%TO.P,J1,57*%
%TO.N,Net-(J1-Pad57)*%
X139148000Y-111502644D03*
%TO.P,J1,58*%
%TO.N,GND*%
X135592000Y-111502644D03*
%TO.P,J1,59*%
%TO.N,Net-(J1-Pad59)*%
X139148000Y-112502642D03*
%TO.P,J1,60*%
%TO.N,GND*%
X135592000Y-112502642D03*
%TO.P,J1,61*%
%TO.N,Net-(J1-Pad61)*%
X139148000Y-113502640D03*
%TO.P,J1,62*%
%TO.N,GND*%
X135592000Y-113502640D03*
%TO.P,J1,63*%
%TO.N,Net-(J1-Pad63)*%
X139148000Y-114502638D03*
%TO.P,J1,64*%
%TO.N,GND*%
X135592000Y-114502638D03*
%TO.P,J1,65*%
%TO.N,/VDD*%
X139148000Y-115502636D03*
%TO.P,J1,66*%
%TO.N,GND*%
X135592000Y-115502636D03*
%TO.P,J1,67*%
%TO.N,/OUT*%
X139148000Y-116502634D03*
%TO.P,J1,68*%
%TO.N,/BIAS2*%
X135592000Y-116502634D03*
%TD*%
%TO.P,C15,1*%
%TO.N,/BIAS4*%
%TA.AperFunction,SMDPad,CuDef*%
G36*
G01*
X156072500Y-111230000D02*
X156547500Y-111230000D01*
G75*
G02*
X156785000Y-111467500I0J-237500D01*
G01*
X156785000Y-112067500D01*
G75*
G02*
X156547500Y-112305000I-237500J0D01*
G01*
X156072500Y-112305000D01*
G75*
G02*
X155835000Y-112067500I0J237500D01*
G01*
X155835000Y-111467500D01*
G75*
G02*
X156072500Y-111230000I237500J0D01*
G01*
G37*
%TD.AperFunction*%
%TO.P,C15,2*%
%TO.N,GND*%
%TA.AperFunction,SMDPad,CuDef*%
G36*
G01*
X156072500Y-112955000D02*
X156547500Y-112955000D01*
G75*
G02*
X156785000Y-113192500I0J-237500D01*
G01*
X156785000Y-113792500D01*
G75*
G02*
X156547500Y-114030000I-237500J0D01*
G01*
X156072500Y-114030000D01*
G75*
G02*
X155835000Y-113792500I0J237500D01*
G01*
X155835000Y-113192500D01*
G75*
G02*
X156072500Y-112955000I237500J0D01*
G01*
G37*
%TD.AperFunction*%
%TD*%
%TO.P,C9,2*%
%TO.N,GND*%
%TA.AperFunction,SMDPad,CuDef*%
G36*
G01*
X149762500Y-103505000D02*
X150237500Y-103505000D01*
G75*
G02*
X150475000Y-103742500I0J-237500D01*
G01*
X150475000Y-104342500D01*
G75*
G02*
X150237500Y-104580000I-237500J0D01*
G01*
X149762500Y-104580000D01*
G75*
G02*
X149525000Y-104342500I0J237500D01*
G01*
X149525000Y-103742500D01*
G75*
G02*
X149762500Y-103505000I237500J0D01*
G01*
G37*
%TD.AperFunction*%
%TO.P,C9,1*%
%TO.N,/VDD*%
%TA.AperFunction,SMDPad,CuDef*%
G36*
G01*
X149762500Y-101780000D02*
X150237500Y-101780000D01*
G75*
G02*
X150475000Y-102017500I0J-237500D01*
G01*
X150475000Y-102617500D01*
G75*
G02*
X150237500Y-102855000I-237500J0D01*
G01*
X149762500Y-102855000D01*
G75*
G02*
X149525000Y-102617500I0J237500D01*
G01*
X149525000Y-102017500D01*
G75*
G02*
X149762500Y-101780000I237500J0D01*
G01*
G37*
%TD.AperFunction*%
%TD*%
%TO.P,C5,2*%
%TO.N,GND*%
%TA.AperFunction,SMDPad,CuDef*%
G36*
G01*
X130822500Y-87695000D02*
X131297500Y-87695000D01*
G75*
G02*
X131535000Y-87932500I0J-237500D01*
G01*
X131535000Y-88532500D01*
G75*
G02*
X131297500Y-88770000I-237500J0D01*
G01*
X130822500Y-88770000D01*
G75*
G02*
X130585000Y-88532500I0J237500D01*
G01*
X130585000Y-87932500D01*
G75*
G02*
X130822500Y-87695000I237500J0D01*
G01*
G37*
%TD.AperFunction*%
%TO.P,C5,1*%
%TO.N,/BIAS1*%
%TA.AperFunction,SMDPad,CuDef*%
G36*
G01*
X130822500Y-85970000D02*
X131297500Y-85970000D01*
G75*
G02*
X131535000Y-86207500I0J-237500D01*
G01*
X131535000Y-86807500D01*
G75*
G02*
X131297500Y-87045000I-237500J0D01*
G01*
X130822500Y-87045000D01*
G75*
G02*
X130585000Y-86807500I0J237500D01*
G01*
X130585000Y-86207500D01*
G75*
G02*
X130822500Y-85970000I237500J0D01*
G01*
G37*
%TD.AperFunction*%
%TD*%
%TO.P,C7,1*%
%TO.N,/BIAS1*%
%TA.AperFunction,SMDPad,CuDef*%
G36*
G01*
X143632500Y-85970000D02*
X144107500Y-85970000D01*
G75*
G02*
X144345000Y-86207500I0J-237500D01*
G01*
X144345000Y-86807500D01*
G75*
G02*
X144107500Y-87045000I-237500J0D01*
G01*
X143632500Y-87045000D01*
G75*
G02*
X143395000Y-86807500I0J237500D01*
G01*
X143395000Y-86207500D01*
G75*
G02*
X143632500Y-85970000I237500J0D01*
G01*
G37*
%TD.AperFunction*%
%TO.P,C7,2*%
%TO.N,GND*%
%TA.AperFunction,SMDPad,CuDef*%
G36*
G01*
X143632500Y-87695000D02*
X144107500Y-87695000D01*
G75*
G02*
X144345000Y-87932500I0J-237500D01*
G01*
X144345000Y-88532500D01*
G75*
G02*
X144107500Y-88770000I-237500J0D01*
G01*
X143632500Y-88770000D01*
G75*
G02*
X143395000Y-88532500I0J237500D01*
G01*
X143395000Y-87932500D01*
G75*
G02*
X143632500Y-87695000I237500J0D01*
G01*
G37*
%TD.AperFunction*%
%TD*%
%TO.P,C6,2*%
%TO.N,GND*%
%TA.AperFunction,SMDPad,CuDef*%
G36*
G01*
X130822500Y-112955000D02*
X131297500Y-112955000D01*
G75*
G02*
X131535000Y-113192500I0J-237500D01*
G01*
X131535000Y-113792500D01*
G75*
G02*
X131297500Y-114030000I-237500J0D01*
G01*
X130822500Y-114030000D01*
G75*
G02*
X130585000Y-113792500I0J237500D01*
G01*
X130585000Y-113192500D01*
G75*
G02*
X130822500Y-112955000I237500J0D01*
G01*
G37*
%TD.AperFunction*%
%TO.P,C6,1*%
%TO.N,/BIAS2*%
%TA.AperFunction,SMDPad,CuDef*%
G36*
G01*
X130822500Y-111230000D02*
X131297500Y-111230000D01*
G75*
G02*
X131535000Y-111467500I0J-237500D01*
G01*
X131535000Y-112067500D01*
G75*
G02*
X131297500Y-112305000I-237500J0D01*
G01*
X130822500Y-112305000D01*
G75*
G02*
X130585000Y-112067500I0J237500D01*
G01*
X130585000Y-111467500D01*
G75*
G02*
X130822500Y-111230000I237500J0D01*
G01*
G37*
%TD.AperFunction*%
%TD*%
%TO.P,C8,1*%
%TO.N,/BIAS2*%
%TA.AperFunction,SMDPad,CuDef*%
G36*
G01*
X143582500Y-111230000D02*
X144057500Y-111230000D01*
G75*
G02*
X144295000Y-111467500I0J-237500D01*
G01*
X144295000Y-112067500D01*
G75*
G02*
X144057500Y-112305000I-237500J0D01*
G01*
X143582500Y-112305000D01*
G75*
G02*
X143345000Y-112067500I0J237500D01*
G01*
X143345000Y-111467500D01*
G75*
G02*
X143582500Y-111230000I237500J0D01*
G01*
G37*
%TD.AperFunction*%
%TO.P,C8,2*%
%TO.N,GND*%
%TA.AperFunction,SMDPad,CuDef*%
G36*
G01*
X143582500Y-112955000D02*
X144057500Y-112955000D01*
G75*
G02*
X144295000Y-113192500I0J-237500D01*
G01*
X144295000Y-113792500D01*
G75*
G02*
X144057500Y-114030000I-237500J0D01*
G01*
X143582500Y-114030000D01*
G75*
G02*
X143345000Y-113792500I0J237500D01*
G01*
X143345000Y-113192500D01*
G75*
G02*
X143582500Y-112955000I237500J0D01*
G01*
G37*
%TD.AperFunction*%
%TD*%
%TO.P,C14,2*%
%TO.N,GND*%
%TA.AperFunction,SMDPad,CuDef*%
G36*
G01*
X156072500Y-87695000D02*
X156547500Y-87695000D01*
G75*
G02*
X156785000Y-87932500I0J-237500D01*
G01*
X156785000Y-88532500D01*
G75*
G02*
X156547500Y-88770000I-237500J0D01*
G01*
X156072500Y-88770000D01*
G75*
G02*
X155835000Y-88532500I0J237500D01*
G01*
X155835000Y-87932500D01*
G75*
G02*
X156072500Y-87695000I237500J0D01*
G01*
G37*
%TD.AperFunction*%
%TO.P,C14,1*%
%TO.N,/BIAS3*%
%TA.AperFunction,SMDPad,CuDef*%
G36*
G01*
X156072500Y-85970000D02*
X156547500Y-85970000D01*
G75*
G02*
X156785000Y-86207500I0J-237500D01*
G01*
X156785000Y-86807500D01*
G75*
G02*
X156547500Y-87045000I-237500J0D01*
G01*
X156072500Y-87045000D01*
G75*
G02*
X155835000Y-86807500I0J237500D01*
G01*
X155835000Y-86207500D01*
G75*
G02*
X156072500Y-85970000I237500J0D01*
G01*
G37*
%TD.AperFunction*%
%TD*%
%TO.P,C16,1*%
%TO.N,/BIAS3*%
%TA.AperFunction,SMDPad,CuDef*%
G36*
G01*
X168702500Y-85970000D02*
X169177500Y-85970000D01*
G75*
G02*
X169415000Y-86207500I0J-237500D01*
G01*
X169415000Y-86807500D01*
G75*
G02*
X169177500Y-87045000I-237500J0D01*
G01*
X168702500Y-87045000D01*
G75*
G02*
X168465000Y-86807500I0J237500D01*
G01*
X168465000Y-86207500D01*
G75*
G02*
X168702500Y-85970000I237500J0D01*
G01*
G37*
%TD.AperFunction*%
%TO.P,C16,2*%
%TO.N,GND*%
%TA.AperFunction,SMDPad,CuDef*%
G36*
G01*
X168702500Y-87695000D02*
X169177500Y-87695000D01*
G75*
G02*
X169415000Y-87932500I0J-237500D01*
G01*
X169415000Y-88532500D01*
G75*
G02*
X169177500Y-88770000I-237500J0D01*
G01*
X168702500Y-88770000D01*
G75*
G02*
X168465000Y-88532500I0J237500D01*
G01*
X168465000Y-87932500D01*
G75*
G02*
X168702500Y-87695000I237500J0D01*
G01*
G37*
%TD.AperFunction*%
%TD*%
%TO.P,C17,2*%
%TO.N,GND*%
%TA.AperFunction,SMDPad,CuDef*%
G36*
G01*
X168702500Y-112955000D02*
X169177500Y-112955000D01*
G75*
G02*
X169415000Y-113192500I0J-237500D01*
G01*
X169415000Y-113792500D01*
G75*
G02*
X169177500Y-114030000I-237500J0D01*
G01*
X168702500Y-114030000D01*
G75*
G02*
X168465000Y-113792500I0J237500D01*
G01*
X168465000Y-113192500D01*
G75*
G02*
X168702500Y-112955000I237500J0D01*
G01*
G37*
%TD.AperFunction*%
%TO.P,C17,1*%
%TO.N,/BIAS4*%
%TA.AperFunction,SMDPad,CuDef*%
G36*
G01*
X168702500Y-111230000D02*
X169177500Y-111230000D01*
G75*
G02*
X169415000Y-111467500I0J-237500D01*
G01*
X169415000Y-112067500D01*
G75*
G02*
X169177500Y-112305000I-237500J0D01*
G01*
X168702500Y-112305000D01*
G75*
G02*
X168465000Y-112067500I0J237500D01*
G01*
X168465000Y-111467500D01*
G75*
G02*
X168702500Y-111230000I237500J0D01*
G01*
G37*
%TD.AperFunction*%
%TD*%
%TO.P,C1,2*%
%TO.N,GND*%
%TA.AperFunction,SMDPad,CuDef*%
G36*
G01*
X130822500Y-94015000D02*
X131297500Y-94015000D01*
G75*
G02*
X131535000Y-94252500I0J-237500D01*
G01*
X131535000Y-94852500D01*
G75*
G02*
X131297500Y-95090000I-237500J0D01*
G01*
X130822500Y-95090000D01*
G75*
G02*
X130585000Y-94852500I0J237500D01*
G01*
X130585000Y-94252500D01*
G75*
G02*
X130822500Y-94015000I237500J0D01*
G01*
G37*
%TD.AperFunction*%
%TO.P,C1,1*%
%TO.N,/BIAS1*%
%TA.AperFunction,SMDPad,CuDef*%
G36*
G01*
X130822500Y-92290000D02*
X131297500Y-92290000D01*
G75*
G02*
X131535000Y-92527500I0J-237500D01*
G01*
X131535000Y-93127500D01*
G75*
G02*
X131297500Y-93365000I-237500J0D01*
G01*
X130822500Y-93365000D01*
G75*
G02*
X130585000Y-93127500I0J237500D01*
G01*
X130585000Y-92527500D01*
G75*
G02*
X130822500Y-92290000I237500J0D01*
G01*
G37*
%TD.AperFunction*%
%TD*%
%TO.P,C3,1*%
%TO.N,/BIAS1*%
%TA.AperFunction,SMDPad,CuDef*%
G36*
G01*
X143632500Y-92290000D02*
X144107500Y-92290000D01*
G75*
G02*
X144345000Y-92527500I0J-237500D01*
G01*
X144345000Y-93127500D01*
G75*
G02*
X144107500Y-93365000I-237500J0D01*
G01*
X143632500Y-93365000D01*
G75*
G02*
X143395000Y-93127500I0J237500D01*
G01*
X143395000Y-92527500D01*
G75*
G02*
X143632500Y-92290000I237500J0D01*
G01*
G37*
%TD.AperFunction*%
%TO.P,C3,2*%
%TO.N,GND*%
%TA.AperFunction,SMDPad,CuDef*%
G36*
G01*
X143632500Y-94015000D02*
X144107500Y-94015000D01*
G75*
G02*
X144345000Y-94252500I0J-237500D01*
G01*
X144345000Y-94852500D01*
G75*
G02*
X144107500Y-95090000I-237500J0D01*
G01*
X143632500Y-95090000D01*
G75*
G02*
X143395000Y-94852500I0J237500D01*
G01*
X143395000Y-94252500D01*
G75*
G02*
X143632500Y-94015000I237500J0D01*
G01*
G37*
%TD.AperFunction*%
%TD*%
%TO.P,C2,2*%
%TO.N,GND*%
%TA.AperFunction,SMDPad,CuDef*%
G36*
G01*
X130822500Y-106635000D02*
X131297500Y-106635000D01*
G75*
G02*
X131535000Y-106872500I0J-237500D01*
G01*
X131535000Y-107472500D01*
G75*
G02*
X131297500Y-107710000I-237500J0D01*
G01*
X130822500Y-107710000D01*
G75*
G02*
X130585000Y-107472500I0J237500D01*
G01*
X130585000Y-106872500D01*
G75*
G02*
X130822500Y-106635000I237500J0D01*
G01*
G37*
%TD.AperFunction*%
%TO.P,C2,1*%
%TO.N,/BIAS2*%
%TA.AperFunction,SMDPad,CuDef*%
G36*
G01*
X130822500Y-104910000D02*
X131297500Y-104910000D01*
G75*
G02*
X131535000Y-105147500I0J-237500D01*
G01*
X131535000Y-105747500D01*
G75*
G02*
X131297500Y-105985000I-237500J0D01*
G01*
X130822500Y-105985000D01*
G75*
G02*
X130585000Y-105747500I0J237500D01*
G01*
X130585000Y-105147500D01*
G75*
G02*
X130822500Y-104910000I237500J0D01*
G01*
G37*
%TD.AperFunction*%
%TD*%
%TO.P,C4,1*%
%TO.N,/BIAS2*%
%TA.AperFunction,SMDPad,CuDef*%
G36*
G01*
X143632500Y-104910000D02*
X144107500Y-104910000D01*
G75*
G02*
X144345000Y-105147500I0J-237500D01*
G01*
X144345000Y-105747500D01*
G75*
G02*
X144107500Y-105985000I-237500J0D01*
G01*
X143632500Y-105985000D01*
G75*
G02*
X143395000Y-105747500I0J237500D01*
G01*
X143395000Y-105147500D01*
G75*
G02*
X143632500Y-104910000I237500J0D01*
G01*
G37*
%TD.AperFunction*%
%TO.P,C4,2*%
%TO.N,GND*%
%TA.AperFunction,SMDPad,CuDef*%
G36*
G01*
X143632500Y-106635000D02*
X144107500Y-106635000D01*
G75*
G02*
X144345000Y-106872500I0J-237500D01*
G01*
X144345000Y-107472500D01*
G75*
G02*
X144107500Y-107710000I-237500J0D01*
G01*
X143632500Y-107710000D01*
G75*
G02*
X143395000Y-107472500I0J237500D01*
G01*
X143395000Y-106872500D01*
G75*
G02*
X143632500Y-106635000I237500J0D01*
G01*
G37*
%TD.AperFunction*%
%TD*%
%TO.P,C10,2*%
%TO.N,GND*%
%TA.AperFunction,SMDPad,CuDef*%
G36*
G01*
X156072500Y-94015000D02*
X156547500Y-94015000D01*
G75*
G02*
X156785000Y-94252500I0J-237500D01*
G01*
X156785000Y-94852500D01*
G75*
G02*
X156547500Y-95090000I-237500J0D01*
G01*
X156072500Y-95090000D01*
G75*
G02*
X155835000Y-94852500I0J237500D01*
G01*
X155835000Y-94252500D01*
G75*
G02*
X156072500Y-94015000I237500J0D01*
G01*
G37*
%TD.AperFunction*%
%TO.P,C10,1*%
%TO.N,/BIAS3*%
%TA.AperFunction,SMDPad,CuDef*%
G36*
G01*
X156072500Y-92290000D02*
X156547500Y-92290000D01*
G75*
G02*
X156785000Y-92527500I0J-237500D01*
G01*
X156785000Y-93127500D01*
G75*
G02*
X156547500Y-93365000I-237500J0D01*
G01*
X156072500Y-93365000D01*
G75*
G02*
X155835000Y-93127500I0J237500D01*
G01*
X155835000Y-92527500D01*
G75*
G02*
X156072500Y-92290000I237500J0D01*
G01*
G37*
%TD.AperFunction*%
%TD*%
%TO.P,C12,1*%
%TO.N,/BIAS3*%
%TA.AperFunction,SMDPad,CuDef*%
G36*
G01*
X168702500Y-92290000D02*
X169177500Y-92290000D01*
G75*
G02*
X169415000Y-92527500I0J-237500D01*
G01*
X169415000Y-93127500D01*
G75*
G02*
X169177500Y-93365000I-237500J0D01*
G01*
X168702500Y-93365000D01*
G75*
G02*
X168465000Y-93127500I0J237500D01*
G01*
X168465000Y-92527500D01*
G75*
G02*
X168702500Y-92290000I237500J0D01*
G01*
G37*
%TD.AperFunction*%
%TO.P,C12,2*%
%TO.N,GND*%
%TA.AperFunction,SMDPad,CuDef*%
G36*
G01*
X168702500Y-94015000D02*
X169177500Y-94015000D01*
G75*
G02*
X169415000Y-94252500I0J-237500D01*
G01*
X169415000Y-94852500D01*
G75*
G02*
X169177500Y-95090000I-237500J0D01*
G01*
X168702500Y-95090000D01*
G75*
G02*
X168465000Y-94852500I0J237500D01*
G01*
X168465000Y-94252500D01*
G75*
G02*
X168702500Y-94015000I237500J0D01*
G01*
G37*
%TD.AperFunction*%
%TD*%
%TO.P,C11,2*%
%TO.N,GND*%
%TA.AperFunction,SMDPad,CuDef*%
G36*
G01*
X156072500Y-106635000D02*
X156547500Y-106635000D01*
G75*
G02*
X156785000Y-106872500I0J-237500D01*
G01*
X156785000Y-107472500D01*
G75*
G02*
X156547500Y-107710000I-237500J0D01*
G01*
X156072500Y-107710000D01*
G75*
G02*
X155835000Y-107472500I0J237500D01*
G01*
X155835000Y-106872500D01*
G75*
G02*
X156072500Y-106635000I237500J0D01*
G01*
G37*
%TD.AperFunction*%
%TO.P,C11,1*%
%TO.N,/BIAS4*%
%TA.AperFunction,SMDPad,CuDef*%
G36*
G01*
X156072500Y-104910000D02*
X156547500Y-104910000D01*
G75*
G02*
X156785000Y-105147500I0J-237500D01*
G01*
X156785000Y-105747500D01*
G75*
G02*
X156547500Y-105985000I-237500J0D01*
G01*
X156072500Y-105985000D01*
G75*
G02*
X155835000Y-105747500I0J237500D01*
G01*
X155835000Y-105147500D01*
G75*
G02*
X156072500Y-104910000I237500J0D01*
G01*
G37*
%TD.AperFunction*%
%TD*%
%TO.P,C13,1*%
%TO.N,/BIAS4*%
%TA.AperFunction,SMDPad,CuDef*%
G36*
G01*
X168702500Y-104910000D02*
X169177500Y-104910000D01*
G75*
G02*
X169415000Y-105147500I0J-237500D01*
G01*
X169415000Y-105747500D01*
G75*
G02*
X169177500Y-105985000I-237500J0D01*
G01*
X168702500Y-105985000D01*
G75*
G02*
X168465000Y-105747500I0J237500D01*
G01*
X168465000Y-105147500D01*
G75*
G02*
X168702500Y-104910000I237500J0D01*
G01*
G37*
%TD.AperFunction*%
%TO.P,C13,2*%
%TO.N,GND*%
%TA.AperFunction,SMDPad,CuDef*%
G36*
G01*
X168702500Y-106635000D02*
X169177500Y-106635000D01*
G75*
G02*
X169415000Y-106872500I0J-237500D01*
G01*
X169415000Y-107472500D01*
G75*
G02*
X169177500Y-107710000I-237500J0D01*
G01*
X168702500Y-107710000D01*
G75*
G02*
X168465000Y-107472500I0J237500D01*
G01*
X168465000Y-106872500D01*
G75*
G02*
X168702500Y-106635000I237500J0D01*
G01*
G37*
%TD.AperFunction*%
%TD*%
D12*
%TO.N,GND*%
X133707308Y-111522692D03*
X133707308Y-103522692D03*
X133707308Y-101522692D03*
X133707308Y-87522692D03*
X133707308Y-115522692D03*
X133707308Y-113522692D03*
X133707308Y-107522692D03*
X133707308Y-105522692D03*
X133707308Y-109522692D03*
X133827308Y-95432692D03*
X133707308Y-85522692D03*
X133707308Y-93522692D03*
X133707308Y-91522692D03*
X133707308Y-89522692D03*
X133707308Y-99522692D03*
X133707308Y-97522692D03*
X159077308Y-103512692D03*
X159077308Y-101512692D03*
X159077308Y-87512692D03*
X159077308Y-115512692D03*
X159077308Y-113512692D03*
X159077308Y-107512692D03*
X159077308Y-105512692D03*
X159077308Y-109512692D03*
X159077308Y-95512692D03*
X159077308Y-93512692D03*
X159077308Y-91512692D03*
X159077308Y-89512692D03*
X159077308Y-99512692D03*
X159077308Y-97512692D03*
X152860000Y-100000000D03*
X150000000Y-105400000D03*
X147935320Y-99344680D03*
X131060000Y-89460000D03*
X132152500Y-94552500D03*
X143870000Y-89430000D03*
X143870000Y-95770000D03*
X132300000Y-112900000D03*
X131060000Y-108240000D03*
X145400000Y-106700000D03*
X143820000Y-114680000D03*
X157452500Y-94552500D03*
X156310000Y-89390000D03*
X168940000Y-89360000D03*
X168940000Y-95740000D03*
X159177308Y-85512692D03*
X156310000Y-108290000D03*
X157600000Y-113000000D03*
X168940000Y-114640000D03*
X168940000Y-108860000D03*
X159175000Y-110575000D03*
%TO.N,/BIAS1*%
X133762700Y-83502700D03*
X128450000Y-76450000D03*
X128450000Y-82650000D03*
X128450000Y-88850000D03*
X128450000Y-95050000D03*
X134650000Y-76450000D03*
X134850000Y-81750000D03*
X137400000Y-89700000D03*
X137400000Y-94500000D03*
X141950000Y-78450000D03*
X141950000Y-84650000D03*
X141950000Y-90850000D03*
X143050000Y-98150000D03*
X147050000Y-79550000D03*
X147050000Y-85750000D03*
X147050000Y-91950000D03*
X147050000Y-98150000D03*
X131060000Y-85340000D03*
X131060000Y-91760000D03*
X144300000Y-85200000D03*
X143870000Y-91300000D03*
%TO.N,/BIAS2*%
X133757366Y-116502634D03*
X128450000Y-101950000D03*
X128450000Y-108150000D03*
X128450000Y-120550000D03*
X128450000Y-114350000D03*
X137400000Y-102500000D03*
X137400000Y-107000000D03*
X135750000Y-119350000D03*
X135100000Y-117400000D03*
X141950000Y-106150000D03*
X141950000Y-112350000D03*
X140850000Y-117450000D03*
X140850000Y-123650000D03*
X147050000Y-123650000D03*
X147050000Y-117450000D03*
X147050000Y-111250000D03*
X147050000Y-105050000D03*
X131060000Y-110540000D03*
X131060000Y-104360000D03*
X143870000Y-104230000D03*
X143820000Y-110320000D03*
%TO.N,Net-(J1-Pad63)*%
X141000000Y-114500000D03*
%TO.N,Net-(J1-Pad61)*%
X141000000Y-113500000D03*
%TO.N,Net-(J1-Pad59)*%
X137400000Y-113000000D03*
%TO.N,Net-(J1-Pad57)*%
X137400000Y-111800000D03*
%TO.N,Net-(J1-Pad55)*%
X140800000Y-110500000D03*
%TO.N,Net-(J1-Pad53)*%
X140800000Y-109500000D03*
%TO.N,Net-(J1-Pad51)*%
X137402650Y-109002650D03*
%TO.N,Net-(J1-Pad49)*%
X137400000Y-108000000D03*
%TO.N,Net-(J1-Pad47)*%
X140800000Y-106500000D03*
%TO.N,Net-(J1-Pad45)*%
X137400000Y-106100000D03*
%TO.N,Net-(J1-Pad43)*%
X137400000Y-104500000D03*
%TO.N,Net-(J1-Pad41)*%
X137400000Y-103500000D03*
%TO.N,Net-(J1-Pad39)*%
X140800000Y-102500000D03*
%TO.N,Net-(J1-Pad37)*%
X137400000Y-101500000D03*
%TO.N,Net-(J1-Pad35)*%
X137400000Y-100500000D03*
%TO.N,Net-(J1-Pad33)*%
X137400000Y-99500000D03*
%TO.N,Net-(J1-Pad31)*%
X140800000Y-98500000D03*
%TO.N,Net-(J1-Pad29)*%
X137400000Y-97900000D03*
%TO.N,Net-(J1-Pad27)*%
X137400000Y-96900000D03*
%TO.N,Net-(J1-Pad25)*%
X137497324Y-95502676D03*
%TO.N,Net-(J1-Pad23)*%
X140800000Y-94500000D03*
%TO.N,Net-(J1-Pad21)*%
X137400000Y-93500000D03*
%TO.N,Net-(J1-Pad19)*%
X137400000Y-92500000D03*
%TO.N,Net-(J1-Pad17)*%
X137400000Y-91500000D03*
%TO.N,Net-(J1-Pad15)*%
X140800000Y-90500000D03*
%TO.N,Net-(J1-Pad13)*%
X140800000Y-89500000D03*
%TO.N,Net-(J1-Pad11)*%
X137402690Y-88502690D03*
%TO.N,Net-(J1-Pad9)*%
X137400000Y-87500000D03*
%TO.N,Net-(J1-Pad7)*%
X140800000Y-86500000D03*
%TO.N,Net-(J1-Pad5)*%
X140800000Y-85500000D03*
%TO.N,Net-(J1-Pad3)*%
X137400000Y-84500000D03*
%TO.N,Net-(J1-Pad1)*%
X137400000Y-83500000D03*
%TO.N,Net-(J2-Pad63)*%
X166100000Y-114500000D03*
%TO.N,Net-(J2-Pad61)*%
X165997360Y-113502640D03*
%TO.N,Net-(J2-Pad59)*%
X162600000Y-115300000D03*
%TO.N,Net-(J2-Pad57)*%
X162600000Y-111700000D03*
%TO.N,Net-(J2-Pad55)*%
X166097354Y-110502646D03*
%TO.N,Net-(J2-Pad53)*%
X166097352Y-109502648D03*
%TO.N,Net-(J2-Pad51)*%
X162600000Y-109200000D03*
%TO.N,Net-(J2-Pad49)*%
X162600000Y-107983936D03*
%TO.N,Net-(J2-Pad47)*%
X165997346Y-106502654D03*
%TO.N,Net-(J2-Pad45)*%
X162600000Y-106000000D03*
%TO.N,Net-(J2-Pad43)*%
X162602658Y-104502658D03*
%TO.N,Net-(J2-Pad41)*%
X162600000Y-103500000D03*
%TO.N,Net-(J2-Pad39)*%
X165997338Y-102502662D03*
%TO.N,Net-(J2-Pad37)*%
X162600000Y-101500000D03*
%TO.N,Net-(J2-Pad35)*%
X162602666Y-100502666D03*
%TO.N,Net-(J2-Pad33)*%
X162602668Y-99502668D03*
%TO.N,Net-(J2-Pad31)*%
X165997330Y-98502670D03*
%TO.N,Net-(J2-Pad29)*%
X162702672Y-97502672D03*
%TO.N,Net-(J2-Pad27)*%
X162697326Y-96502674D03*
%TO.N,Net-(J2-Pad25)*%
X162602676Y-95502676D03*
%TO.N,Net-(J2-Pad23)*%
X166000000Y-94500000D03*
%TO.N,Net-(J2-Pad21)*%
X162600000Y-93500000D03*
%TO.N,Net-(J2-Pad19)*%
X162602682Y-92502682D03*
%TO.N,Net-(J2-Pad17)*%
X162602684Y-91502684D03*
%TO.N,Net-(J2-Pad15)*%
X166000000Y-90500000D03*
%TO.N,Net-(J2-Pad13)*%
X166000000Y-89500000D03*
%TO.N,Net-(J2-Pad11)*%
X162602690Y-88502690D03*
%TO.N,Net-(J2-Pad9)*%
X162600000Y-87500000D03*
%TO.N,Net-(J2-Pad7)*%
X166097306Y-86502694D03*
%TO.N,Net-(J2-Pad5)*%
X166100000Y-85502696D03*
%TO.N,Net-(J2-Pad3)*%
X162600000Y-84500000D03*
%TO.N,Net-(J2-Pad1)*%
X162602700Y-83502700D03*
%TO.N,/BIAS3*%
X153950000Y-76450000D03*
X159078000Y-83502700D03*
X153950000Y-82650000D03*
X153950000Y-88850000D03*
X153950000Y-95050000D03*
X160150000Y-76450000D03*
X160400000Y-81800000D03*
X162600000Y-94521416D03*
X167450000Y-78450000D03*
X167450000Y-84650000D03*
X167450000Y-90850000D03*
X168550000Y-98150000D03*
X172550000Y-79550000D03*
X172550000Y-85750000D03*
X172550000Y-91950000D03*
X172550000Y-98150000D03*
X156310000Y-91710000D03*
X156310000Y-85410000D03*
X169300000Y-85200000D03*
X168940000Y-91660000D03*
X162600000Y-89800000D03*
%TO.N,/BIAS4*%
X153950000Y-101950000D03*
X159078000Y-116502634D03*
X162600000Y-107000000D03*
X153950000Y-108150000D03*
X153950000Y-114350000D03*
X153950000Y-120550000D03*
X161250000Y-119450000D03*
X167450000Y-106150000D03*
X167450000Y-112350000D03*
X166350000Y-117450000D03*
X166350000Y-123650000D03*
X172550000Y-123650000D03*
X172550000Y-117450000D03*
X172550000Y-111250000D03*
X172550000Y-105050000D03*
X156310000Y-104310000D03*
X162600000Y-102600000D03*
X156310000Y-110610000D03*
X168940000Y-110540000D03*
X168940000Y-104060000D03*
X160500000Y-117600000D03*
X166197366Y-116502634D03*
%TD*%
D13*
%TO.N,GND*%
X135572000Y-109512696D02*
X133717304Y-109512696D01*
X133702694Y-113518078D02*
X133707308Y-113522692D01*
X133702694Y-103518078D02*
X133707308Y-103522692D01*
X135572000Y-103512696D02*
X133717304Y-103512696D01*
X133877302Y-112512698D02*
X133707308Y-112682692D01*
X133707308Y-102682692D02*
X133707308Y-103522692D01*
X135572000Y-102512698D02*
X133877302Y-102512698D01*
X133717304Y-103512696D02*
X133707308Y-103522692D01*
X133877302Y-102512698D02*
X133707308Y-102682692D01*
X133707308Y-103522692D02*
X133877308Y-103522692D01*
X133707308Y-115522692D02*
X133877308Y-115522692D01*
X133877302Y-110512698D02*
X133707308Y-110682692D01*
X133717304Y-111512696D02*
X133707308Y-111522692D01*
X133717304Y-107512696D02*
X133707308Y-107522692D01*
X133702694Y-107518078D02*
X133707308Y-107522692D01*
X133707308Y-109522692D02*
X133877308Y-109522692D01*
X135572000Y-110512698D02*
X133877302Y-110512698D01*
X133877302Y-86512698D02*
X133707308Y-86682692D01*
X133717304Y-87512696D02*
X133707308Y-87522692D01*
X135572000Y-86512698D02*
X133877302Y-86512698D01*
X133702694Y-87518078D02*
X133707308Y-87522692D01*
X133707308Y-86682692D02*
X133707308Y-87522692D01*
X135572000Y-87512696D02*
X133717304Y-87512696D01*
X133707308Y-87522692D02*
X133877308Y-87522692D01*
X133717304Y-109512696D02*
X133707308Y-109522692D01*
X133707308Y-108682692D02*
X133707308Y-109522692D01*
X135572000Y-105512696D02*
X133717304Y-105512696D01*
X135572000Y-115512696D02*
X133717304Y-115512696D01*
X135572000Y-106512698D02*
X133877302Y-106512698D01*
X135572000Y-112512698D02*
X133877302Y-112512698D01*
X133707308Y-106682692D02*
X133707308Y-107522692D01*
X133707308Y-112682692D02*
X133707308Y-113522692D01*
X135572000Y-108512698D02*
X133877302Y-108512698D01*
X135572000Y-107512696D02*
X133717304Y-107512696D01*
X133707308Y-113522692D02*
X133877308Y-113522692D01*
X133707308Y-105522692D02*
X133877308Y-105522692D01*
X133717304Y-101512696D02*
X133707308Y-101522692D01*
X133707308Y-111522692D02*
X133877308Y-111522692D01*
X135572000Y-114512698D02*
X133877302Y-114512698D01*
X133702694Y-111518078D02*
X133707308Y-111522692D01*
X133707308Y-100682692D02*
X133707308Y-101522692D01*
X135572000Y-104512698D02*
X133877302Y-104512698D01*
X133707308Y-101522692D02*
X133877308Y-101522692D01*
X133702694Y-115518078D02*
X133707308Y-115522692D01*
X133877302Y-100512698D02*
X133707308Y-100682692D01*
X133702694Y-105518078D02*
X133707308Y-105522692D01*
X133717304Y-115512696D02*
X133707308Y-115522692D01*
X133702694Y-109518078D02*
X133707308Y-109522692D01*
X133877302Y-106512698D02*
X133707308Y-106682692D01*
X135572000Y-101512696D02*
X133717304Y-101512696D01*
X135572000Y-111512696D02*
X133717304Y-111512696D01*
X133707308Y-104682692D02*
X133707308Y-105522692D01*
X135572000Y-100512698D02*
X133877302Y-100512698D01*
X133877302Y-104512698D02*
X133707308Y-104682692D01*
X133877302Y-114512698D02*
X133707308Y-114682692D01*
X133707308Y-107522692D02*
X133877308Y-107522692D01*
X135572000Y-113512696D02*
X133717304Y-113512696D01*
X133717304Y-105512696D02*
X133707308Y-105522692D01*
X133707308Y-114682692D02*
X133707308Y-115522692D01*
X133702694Y-101518078D02*
X133707308Y-101522692D01*
X133717304Y-113512696D02*
X133707308Y-113522692D01*
X133707308Y-110682692D02*
X133707308Y-111522692D01*
X133702694Y-97518078D02*
X133707308Y-97522692D01*
X133877302Y-96512698D02*
X133707308Y-96682692D01*
X135572000Y-93512696D02*
X133717304Y-93512696D01*
X135692000Y-94422698D02*
X133997302Y-94422698D01*
X133877302Y-92512698D02*
X133707308Y-92682692D01*
X133707308Y-99522692D02*
X133877308Y-99522692D01*
X133702694Y-91518078D02*
X133707308Y-91522692D01*
X133717304Y-91512696D02*
X133707308Y-91522692D01*
X133837304Y-95422696D02*
X133827308Y-95432692D01*
X133997302Y-94422698D02*
X133827308Y-94592692D01*
X133707308Y-93522692D02*
X133877308Y-93522692D01*
X133702694Y-99518078D02*
X133707308Y-99522692D01*
X133707308Y-97522692D02*
X133877308Y-97522692D01*
X133877302Y-90512698D02*
X133707308Y-90682692D01*
X135572000Y-98512698D02*
X133877302Y-98512698D01*
X133707308Y-85522692D02*
X133877308Y-85522692D01*
X133702694Y-89518078D02*
X133707308Y-89522692D01*
X133707308Y-98682692D02*
X133707308Y-99522692D01*
X133707308Y-89522692D02*
X133877308Y-89522692D01*
X133707308Y-88682692D02*
X133707308Y-89522692D01*
X135572000Y-97512696D02*
X133717304Y-97512696D01*
X133717304Y-97512696D02*
X133707308Y-97522692D01*
X133827308Y-95432692D02*
X133997308Y-95432692D01*
X133707308Y-91522692D02*
X133877308Y-91522692D01*
X133877302Y-84512698D02*
X133707308Y-84682692D01*
X133717304Y-85512696D02*
X133707308Y-85522692D01*
X135692000Y-95422696D02*
X133837304Y-95422696D01*
X135572000Y-84512698D02*
X133877302Y-84512698D01*
X135572000Y-85512696D02*
X133717304Y-85512696D01*
X133717304Y-99512696D02*
X133707308Y-99522692D01*
X135572000Y-91512696D02*
X133717304Y-91512696D01*
X133877302Y-88512698D02*
X133707308Y-88682692D01*
X135572000Y-88512698D02*
X133877302Y-88512698D01*
X133702694Y-93518078D02*
X133707308Y-93522692D01*
X133827308Y-94592692D02*
X133827308Y-95432692D01*
X133707308Y-84682692D02*
X133707308Y-85522692D01*
X133822694Y-95428078D02*
X133827308Y-95432692D01*
X133717304Y-89512696D02*
X133707308Y-89522692D01*
X133877302Y-98512698D02*
X133707308Y-98682692D01*
X135572000Y-96512698D02*
X133877302Y-96512698D01*
X133707308Y-96682692D02*
X133707308Y-97522692D01*
X133707308Y-92682692D02*
X133707308Y-93522692D01*
X133707308Y-90682692D02*
X133707308Y-91522692D01*
X135572000Y-89512696D02*
X133717304Y-89512696D01*
X135572000Y-92512698D02*
X133877302Y-92512698D01*
X135572000Y-90512698D02*
X133877302Y-90512698D01*
X135572000Y-99512696D02*
X133717304Y-99512696D01*
X133717304Y-93512696D02*
X133707308Y-93522692D01*
X160942000Y-109502696D02*
X159087304Y-109502696D01*
X159072694Y-113508078D02*
X159077308Y-113512692D01*
X159072694Y-103508078D02*
X159077308Y-103512692D01*
X160942000Y-103502696D02*
X159087304Y-103502696D01*
X159247302Y-112502698D02*
X159077308Y-112672692D01*
X159077308Y-102672692D02*
X159077308Y-103512692D01*
X160942000Y-102502698D02*
X159247302Y-102502698D01*
X159087304Y-103502696D02*
X159077308Y-103512692D01*
X159247302Y-102502698D02*
X159077308Y-102672692D01*
X159077308Y-103512692D02*
X159247308Y-103512692D01*
X159077308Y-115512692D02*
X159247308Y-115512692D01*
X159247302Y-110502698D02*
X159175000Y-110575000D01*
X159247302Y-108502698D02*
X159077308Y-108672692D01*
X159087304Y-111502696D02*
X159077308Y-111512692D01*
X159087304Y-107502696D02*
X159077308Y-107512692D01*
X159072694Y-107508078D02*
X159077308Y-107512692D01*
X159077308Y-109512692D02*
X159247308Y-109512692D01*
X160942000Y-110502698D02*
X159247302Y-110502698D01*
X159247302Y-86502698D02*
X159077308Y-86672692D01*
X159087304Y-87502696D02*
X159077308Y-87512692D01*
X160942000Y-86502698D02*
X159247302Y-86502698D01*
X159072694Y-87508078D02*
X159077308Y-87512692D01*
X159077308Y-86672692D02*
X159077308Y-87512692D01*
X160942000Y-87502696D02*
X159087304Y-87502696D01*
X159077308Y-87512692D02*
X159247308Y-87512692D01*
X159087304Y-109502696D02*
X159077308Y-109512692D01*
X159077308Y-108672692D02*
X159077308Y-109512692D01*
X160942000Y-105502696D02*
X159087304Y-105502696D01*
X160942000Y-115502696D02*
X159087304Y-115502696D01*
X160942000Y-106502698D02*
X159247302Y-106502698D01*
X160942000Y-112502698D02*
X159247302Y-112502698D01*
X159077308Y-106672692D02*
X159077308Y-107512692D01*
X159077308Y-112672692D02*
X159077308Y-113512692D01*
X160942000Y-108502698D02*
X159247302Y-108502698D01*
X160942000Y-107502696D02*
X159087304Y-107502696D01*
X159077308Y-113512692D02*
X159247308Y-113512692D01*
X159077308Y-105512692D02*
X159247308Y-105512692D01*
X159087304Y-101502696D02*
X159077308Y-101512692D01*
X159077308Y-111512692D02*
X159247308Y-111512692D01*
X160942000Y-114502698D02*
X159247302Y-114502698D01*
X159072694Y-111508078D02*
X159077308Y-111512692D01*
X159077308Y-100672692D02*
X159077308Y-101512692D01*
X160942000Y-104502698D02*
X159247302Y-104502698D01*
X159077308Y-101512692D02*
X159247308Y-101512692D01*
X159072694Y-115508078D02*
X159077308Y-115512692D01*
X159247302Y-100502698D02*
X159077308Y-100672692D01*
X159072694Y-105508078D02*
X159077308Y-105512692D01*
X159087304Y-115502696D02*
X159077308Y-115512692D01*
X159072694Y-109508078D02*
X159077308Y-109512692D01*
X159247302Y-106502698D02*
X159077308Y-106672692D01*
X160942000Y-101502696D02*
X159087304Y-101502696D01*
X160942000Y-111502696D02*
X159087304Y-111502696D01*
X159077308Y-104672692D02*
X159077308Y-105512692D01*
X160942000Y-100502698D02*
X159247302Y-100502698D01*
X159247302Y-104502698D02*
X159077308Y-104672692D01*
X159247302Y-114502698D02*
X159077308Y-114672692D01*
X159077308Y-107512692D02*
X159247308Y-107512692D01*
X160942000Y-113502696D02*
X159087304Y-113502696D01*
X159087304Y-105502696D02*
X159077308Y-105512692D01*
X159077308Y-114672692D02*
X159077308Y-115512692D01*
X159072694Y-101508078D02*
X159077308Y-101512692D01*
X159087304Y-113502696D02*
X159077308Y-113512692D01*
X159077308Y-110672692D02*
X159077308Y-111512692D01*
X159072694Y-97508078D02*
X159077308Y-97512692D01*
X159247302Y-96502698D02*
X159077308Y-96672692D01*
X160942000Y-93502696D02*
X159087304Y-93502696D01*
X160942000Y-94502698D02*
X159247302Y-94502698D01*
X159247302Y-92502698D02*
X159077308Y-92672692D01*
X159077308Y-99512692D02*
X159247308Y-99512692D01*
X159072694Y-91508078D02*
X159077308Y-91512692D01*
X159087304Y-91502696D02*
X159077308Y-91512692D01*
X159087304Y-95502696D02*
X159077308Y-95512692D01*
X159247302Y-94502698D02*
X159077308Y-94672692D01*
X159077308Y-93512692D02*
X159247308Y-93512692D01*
X159072694Y-99508078D02*
X159077308Y-99512692D01*
X159077308Y-97512692D02*
X159247308Y-97512692D01*
X159247302Y-90502698D02*
X159077308Y-90672692D01*
X160942000Y-98502698D02*
X159247302Y-98502698D01*
X159072694Y-89508078D02*
X159077308Y-89512692D01*
X159077308Y-98672692D02*
X159077308Y-99512692D01*
X159077308Y-89512692D02*
X159247308Y-89512692D01*
X159077308Y-88672692D02*
X159077308Y-89512692D01*
X160942000Y-97502696D02*
X159087304Y-97502696D01*
X159087304Y-97502696D02*
X159077308Y-97512692D01*
X159077308Y-95512692D02*
X159247308Y-95512692D01*
X159077308Y-91512692D02*
X159247308Y-91512692D01*
X160942000Y-95502696D02*
X159087304Y-95502696D01*
X159087304Y-99502696D02*
X159077308Y-99512692D01*
X160942000Y-91502696D02*
X159087304Y-91502696D01*
X159247302Y-88502698D02*
X159077308Y-88672692D01*
X160942000Y-88502698D02*
X159247302Y-88502698D01*
X159072694Y-93508078D02*
X159077308Y-93512692D01*
X159077308Y-94672692D02*
X159077308Y-95512692D01*
X159072694Y-95508078D02*
X159077308Y-95512692D01*
X159087304Y-89502696D02*
X159077308Y-89512692D01*
X159247302Y-98502698D02*
X159077308Y-98672692D01*
X160942000Y-96502698D02*
X159247302Y-96502698D01*
X159077308Y-96672692D02*
X159077308Y-97512692D01*
X159077308Y-92672692D02*
X159077308Y-93512692D01*
X159077308Y-90672692D02*
X159077308Y-91512692D01*
X160942000Y-89502696D02*
X159087304Y-89502696D01*
X160942000Y-92502698D02*
X159247302Y-92502698D01*
X160942000Y-90502698D02*
X159247302Y-90502698D01*
X160942000Y-99502696D02*
X159087304Y-99502696D01*
X159087304Y-93502696D02*
X159077308Y-93512692D01*
X143820000Y-113492500D02*
X144137500Y-113492500D01*
X133677116Y-113492500D02*
X133707308Y-113522692D01*
X159057116Y-113492500D02*
X159077308Y-113512692D01*
X152210000Y-99350000D02*
X152860000Y-100000000D01*
X151100000Y-99350000D02*
X152210000Y-99350000D01*
X133877302Y-108512698D02*
X133707308Y-108682692D01*
X150000000Y-104042500D02*
X150000000Y-105400000D01*
X150000000Y-105400000D02*
X150000000Y-105400000D01*
X151100000Y-100000000D02*
X152860000Y-100000000D01*
X148900180Y-99344680D02*
X147935320Y-99344680D01*
X131060000Y-88232500D02*
X131060000Y-89460000D01*
X131060000Y-89460000D02*
X131060000Y-89460000D01*
X131060000Y-94552500D02*
X132152500Y-94552500D01*
X132152500Y-94552500D02*
X132152500Y-94552500D01*
X143870000Y-88232500D02*
X143870000Y-89430000D01*
X143870000Y-89430000D02*
X143870000Y-89470000D01*
X143870000Y-94552500D02*
X143870000Y-95770000D01*
X143870000Y-95770000D02*
X143870000Y-95770000D01*
X131060000Y-113492500D02*
X131707500Y-113492500D01*
X131707500Y-113492500D02*
X132300000Y-112900000D01*
X132300000Y-112900000D02*
X132300000Y-112900000D01*
X131060000Y-107172500D02*
X131060000Y-108240000D01*
X143870000Y-107172500D02*
X144927500Y-107172500D01*
X144927500Y-107172500D02*
X145400000Y-106700000D01*
X145400000Y-106700000D02*
X145400000Y-106700000D01*
X143820000Y-113492500D02*
X143820000Y-114680000D01*
X143820000Y-114680000D02*
X143820000Y-114680000D01*
X156310000Y-94552500D02*
X157452500Y-94552500D01*
X157452500Y-94552500D02*
X157452500Y-94552500D01*
X156310000Y-88232500D02*
X156310000Y-89390000D01*
X156310000Y-89390000D02*
X156310000Y-89390000D01*
X168940000Y-88232500D02*
X168940000Y-89360000D01*
X168940000Y-89360000D02*
X168940000Y-89360000D01*
X168940000Y-94552500D02*
X168940000Y-95740000D01*
X168940000Y-95740000D02*
X168940000Y-95740000D01*
X159172694Y-85508078D02*
X159177308Y-85512692D01*
X159177308Y-85512692D02*
X159347308Y-85512692D01*
X159177308Y-84672692D02*
X159177308Y-85512692D01*
X159347302Y-84502698D02*
X159177308Y-84672692D01*
X161042000Y-84502698D02*
X159347302Y-84502698D01*
X159187304Y-85502696D02*
X159177308Y-85512692D01*
X161042000Y-85502696D02*
X159187304Y-85502696D01*
X156310000Y-107172500D02*
X156310000Y-108290000D01*
X156310000Y-108290000D02*
X156310000Y-108390000D01*
X156310000Y-113492500D02*
X157107500Y-113492500D01*
X157107500Y-113492500D02*
X157600000Y-113000000D01*
X157600000Y-113000000D02*
X157600000Y-113000000D01*
X168940000Y-113492500D02*
X168940000Y-114640000D01*
X168940000Y-114640000D02*
X168940000Y-114640000D01*
X168940000Y-107172500D02*
X168940000Y-108860000D01*
X168940000Y-108860000D02*
X168940000Y-108860000D01*
X159175000Y-110575000D02*
X159077308Y-110672692D01*
%TO.N,/BIAS1*%
X135532000Y-83502700D02*
X133762700Y-83502700D01*
X131060000Y-86507500D02*
X131060000Y-85340000D01*
X131060000Y-85340000D02*
X131060000Y-85340000D01*
X131060000Y-92827500D02*
X131060000Y-91760000D01*
X131060000Y-91760000D02*
X131060000Y-91760000D01*
X143870000Y-86507500D02*
X143870000Y-85630000D01*
X143870000Y-85630000D02*
X144300000Y-85200000D01*
X144300000Y-85200000D02*
X144300000Y-85200000D01*
X143870000Y-92827500D02*
X143870000Y-91300000D01*
X143870000Y-91300000D02*
X143870000Y-91300000D01*
%TO.N,/BIAS2*%
X135592000Y-116502634D02*
X135592000Y-116908000D01*
X135592000Y-116908000D02*
X135100000Y-117400000D01*
X135100000Y-117400000D02*
X135100000Y-117400000D01*
X131060000Y-111767500D02*
X131060000Y-110540000D01*
X131060000Y-110540000D02*
X131060000Y-110540000D01*
X131060000Y-105447500D02*
X131060000Y-104360000D01*
X131060000Y-104360000D02*
X131060000Y-104360000D01*
X143870000Y-105447500D02*
X143870000Y-104230000D01*
X143870000Y-104230000D02*
X143870000Y-104230000D01*
X143820000Y-111767500D02*
X143820000Y-110320000D01*
X143820000Y-110320000D02*
X143820000Y-110320000D01*
%TO.N,/VDD*%
X146221300Y-115502636D02*
X148800000Y-112923936D01*
X139148000Y-115502636D02*
X146221300Y-115502636D01*
X148800000Y-103517500D02*
X150000000Y-102317500D01*
X148800000Y-112923936D02*
X148800000Y-103517500D01*
X148900000Y-100650000D02*
X149620000Y-100650000D01*
X150000000Y-101030000D02*
X150000000Y-102317500D01*
X149620000Y-100650000D02*
X150000000Y-101030000D01*
%TO.N,/OUT*%
X151100000Y-100650000D02*
X151100000Y-113740000D01*
X148337366Y-116502634D02*
X139148000Y-116502634D01*
X151100000Y-113740000D02*
X148337366Y-116502634D01*
%TO.N,Net-(J1-Pad63)*%
X139148000Y-114502638D02*
X141000000Y-114500000D01*
X141000000Y-114500000D02*
X140997362Y-114502638D01*
%TO.N,Net-(J1-Pad61)*%
X139148000Y-113502640D02*
X141000000Y-113500000D01*
X141000000Y-113500000D02*
X140997360Y-113502640D01*
%TO.N,Net-(J1-Pad59)*%
X137897358Y-112502642D02*
X137400000Y-113000000D01*
X139148000Y-112502642D02*
X137897358Y-112502642D01*
%TO.N,Net-(J1-Pad57)*%
X139148000Y-111502644D02*
X137697356Y-111502644D01*
X137697356Y-111502644D02*
X137400000Y-111800000D01*
X137400000Y-111800000D02*
X137400000Y-111800000D01*
%TO.N,Net-(J1-Pad55)*%
X139148000Y-110502646D02*
X140800000Y-110500000D01*
X140800000Y-110500000D02*
X140797354Y-110502646D01*
%TO.N,Net-(J1-Pad53)*%
X140797352Y-109502648D02*
X140800000Y-109500000D01*
X139148000Y-109502648D02*
X140797352Y-109502648D01*
%TO.N,Net-(J1-Pad51)*%
X137902650Y-108502650D02*
X137402650Y-109002650D01*
X139148000Y-108502650D02*
X137902650Y-108502650D01*
%TO.N,Net-(J1-Pad49)*%
X137897348Y-107502652D02*
X137400000Y-108000000D01*
X139148000Y-107502652D02*
X137897348Y-107502652D01*
%TO.N,Net-(J1-Pad47)*%
X140797346Y-106502654D02*
X140800000Y-106500000D01*
X139148000Y-106502654D02*
X140797346Y-106502654D01*
%TO.N,Net-(J1-Pad45)*%
X139165344Y-105520000D02*
X139148000Y-105502656D01*
X137597344Y-105502656D02*
X137400000Y-105700000D01*
X139148000Y-105502656D02*
X137597344Y-105502656D01*
X137400000Y-105700000D02*
X137400000Y-106100000D01*
X137400000Y-106100000D02*
X137400000Y-106100000D01*
%TO.N,Net-(J1-Pad43)*%
X137402658Y-104502658D02*
X137400000Y-104500000D01*
X139148000Y-104502658D02*
X137402658Y-104502658D01*
%TO.N,Net-(J1-Pad41)*%
X137402660Y-103502660D02*
X137400000Y-103500000D01*
X139148000Y-103502660D02*
X137402660Y-103502660D01*
%TO.N,Net-(J1-Pad39)*%
X139148000Y-102502662D02*
X140800000Y-102500000D01*
X140800000Y-102500000D02*
X140797338Y-102502662D01*
%TO.N,Net-(J1-Pad37)*%
X139148000Y-101502664D02*
X137400000Y-101500000D01*
X137400000Y-101500000D02*
X137402664Y-101502664D01*
%TO.N,Net-(J1-Pad35)*%
X139148000Y-100502666D02*
X137400000Y-100500000D01*
X137400000Y-100500000D02*
X137402666Y-100502666D01*
%TO.N,Net-(J1-Pad33)*%
X139148000Y-99502668D02*
X137400000Y-99500000D01*
X137400000Y-99500000D02*
X137402668Y-99502668D01*
%TO.N,Net-(J1-Pad31)*%
X140797330Y-98502670D02*
X140800000Y-98500000D01*
X139148000Y-98502670D02*
X140797330Y-98502670D01*
%TO.N,Net-(J1-Pad29)*%
X139148000Y-97502672D02*
X137797328Y-97502672D01*
X137797328Y-97502672D02*
X137400000Y-97900000D01*
X137400000Y-97900000D02*
X137400000Y-97900000D01*
%TO.N,Net-(J1-Pad27)*%
X139148000Y-96502674D02*
X137797326Y-96502674D01*
X137797326Y-96502674D02*
X137400000Y-96900000D01*
X137400000Y-96900000D02*
X137400000Y-96900000D01*
%TO.N,Net-(J1-Pad25)*%
X139148000Y-95502676D02*
X137497324Y-95502676D01*
X137497324Y-95502676D02*
X137402676Y-95502676D01*
%TO.N,Net-(J1-Pad23)*%
X140797322Y-94502678D02*
X140800000Y-94500000D01*
X139148000Y-94502678D02*
X140797322Y-94502678D01*
%TO.N,Net-(J1-Pad21)*%
X137402680Y-93502680D02*
X137400000Y-93500000D01*
X139148000Y-93502680D02*
X137402680Y-93502680D01*
%TO.N,Net-(J1-Pad19)*%
X137402682Y-92502682D02*
X137400000Y-92500000D01*
X139148000Y-92502682D02*
X137402682Y-92502682D01*
%TO.N,Net-(J1-Pad17)*%
X137402684Y-91502684D02*
X137400000Y-91500000D01*
X139148000Y-91502684D02*
X137402684Y-91502684D01*
%TO.N,Net-(J1-Pad15)*%
X140797314Y-90502686D02*
X140800000Y-90500000D01*
X139148000Y-90502686D02*
X140797314Y-90502686D01*
%TO.N,Net-(J1-Pad13)*%
X140797312Y-89502688D02*
X140800000Y-89500000D01*
X139148000Y-89502688D02*
X140797312Y-89502688D01*
%TO.N,Net-(J1-Pad11)*%
X139148000Y-88502690D02*
X137402690Y-88502690D01*
X137402690Y-88502690D02*
X137402690Y-88502690D01*
%TO.N,Net-(J1-Pad9)*%
X139148000Y-87502692D02*
X137400000Y-87500000D01*
X137400000Y-87500000D02*
X137402692Y-87502692D01*
%TO.N,Net-(J1-Pad7)*%
X140797306Y-86502694D02*
X140800000Y-86500000D01*
X139148000Y-86502694D02*
X140797306Y-86502694D01*
%TO.N,Net-(J1-Pad5)*%
X140797304Y-85502696D02*
X140800000Y-85500000D01*
X139148000Y-85502696D02*
X140797304Y-85502696D01*
%TO.N,Net-(J1-Pad3)*%
X138802698Y-84502698D02*
X138800000Y-84500000D01*
X139148000Y-84502698D02*
X138802698Y-84502698D01*
X138800000Y-84500000D02*
X137400000Y-84500000D01*
X137400000Y-84500000D02*
X137400000Y-84500000D01*
%TO.N,Net-(J1-Pad1)*%
X139148000Y-83502700D02*
X139827300Y-83502700D01*
X139148000Y-83502700D02*
X137400000Y-83500000D01*
X137400000Y-83500000D02*
X137402700Y-83502700D01*
%TO.N,Net-(J2-Pad63)*%
X165197362Y-114502638D02*
X165200000Y-114500000D01*
X164408000Y-114502638D02*
X165197362Y-114502638D01*
X165200000Y-114500000D02*
X166100000Y-114500000D01*
X166100000Y-114500000D02*
X166100000Y-114500000D01*
%TO.N,Net-(J2-Pad61)*%
X164408000Y-113502640D02*
X165997360Y-113502640D01*
X165997360Y-113502640D02*
X165997360Y-113502640D01*
%TO.N,Net-(J2-Pad59)*%
X162906860Y-112502642D02*
X162600000Y-112809502D01*
X164408000Y-112502642D02*
X162906860Y-112502642D01*
X162600000Y-112809502D02*
X162600000Y-115300000D01*
X162600000Y-115300000D02*
X162600000Y-115300000D01*
%TO.N,Net-(J2-Pad57)*%
X164408000Y-111502644D02*
X162797356Y-111502644D01*
X162797356Y-111502644D02*
X162600000Y-111700000D01*
X162600000Y-111700000D02*
X162600000Y-111700000D01*
%TO.N,Net-(J2-Pad55)*%
X164408000Y-110502646D02*
X166097354Y-110502646D01*
X166097354Y-110502646D02*
X166097354Y-110502646D01*
%TO.N,Net-(J2-Pad53)*%
X164408000Y-109502648D02*
X166097352Y-109502648D01*
X166097352Y-109502648D02*
X166097352Y-109502648D01*
%TO.N,Net-(J2-Pad51)*%
X163296920Y-108502650D02*
X164408000Y-108502650D01*
X162600000Y-109200000D02*
X162600000Y-109199570D01*
X162600000Y-109199570D02*
X163296920Y-108502650D01*
%TO.N,Net-(J2-Pad49)*%
X163081284Y-107502652D02*
X162600000Y-107983936D01*
X164408000Y-107502652D02*
X163081284Y-107502652D01*
X162600000Y-107983936D02*
X162600000Y-107983936D01*
%TO.N,Net-(J2-Pad47)*%
X164408000Y-106502654D02*
X165997346Y-106502654D01*
X165997346Y-106502654D02*
X165997346Y-106502654D01*
%TO.N,Net-(J2-Pad45)*%
X164408000Y-105502656D02*
X162697344Y-105502656D01*
X162697344Y-105502656D02*
X162600000Y-105600000D01*
X162600000Y-105600000D02*
X162600000Y-106000000D01*
X162600000Y-106000000D02*
X162600000Y-106000000D01*
%TO.N,Net-(J2-Pad43)*%
X164408000Y-104502658D02*
X162602658Y-104502658D01*
X162602658Y-104502658D02*
X162602658Y-104502658D01*
%TO.N,Net-(J2-Pad41)*%
X164408000Y-103502660D02*
X162600000Y-103500000D01*
X162600000Y-103500000D02*
X162602660Y-103502660D01*
%TO.N,Net-(J2-Pad39)*%
X164408000Y-102502662D02*
X165997338Y-102502662D01*
X165997338Y-102502662D02*
X165997338Y-102502662D01*
%TO.N,Net-(J2-Pad37)*%
X163602664Y-101502664D02*
X163600000Y-101500000D01*
X164408000Y-101502664D02*
X163602664Y-101502664D01*
X163600000Y-101500000D02*
X162600000Y-101500000D01*
X162600000Y-101500000D02*
X162600000Y-101500000D01*
%TO.N,Net-(J2-Pad35)*%
X164408000Y-100502666D02*
X162602666Y-100502666D01*
X162602666Y-100502666D02*
X162602666Y-100502666D01*
%TO.N,Net-(J2-Pad33)*%
X164408000Y-99502668D02*
X162602668Y-99502668D01*
X162602668Y-99502668D02*
X162602668Y-99502668D01*
%TO.N,Net-(J2-Pad31)*%
X164408000Y-98502670D02*
X165997330Y-98502670D01*
X165997330Y-98502670D02*
X165997330Y-98502670D01*
%TO.N,Net-(J2-Pad29)*%
X164408000Y-97502672D02*
X162702672Y-97502672D01*
X162702672Y-97502672D02*
X162702672Y-97502672D01*
%TO.N,Net-(J2-Pad27)*%
X164408000Y-96502674D02*
X162697326Y-96502674D01*
X162697326Y-96502674D02*
X162697326Y-96502674D01*
%TO.N,Net-(J2-Pad25)*%
X164408000Y-95502676D02*
X162602676Y-95502676D01*
X162602676Y-95502676D02*
X162602676Y-95502676D01*
%TO.N,Net-(J2-Pad23)*%
X165997322Y-94502678D02*
X166000000Y-94500000D01*
X164408000Y-94502678D02*
X165997322Y-94502678D01*
%TO.N,Net-(J2-Pad21)*%
X164408000Y-93502680D02*
X162600000Y-93500000D01*
X162600000Y-93500000D02*
X162602680Y-93502680D01*
%TO.N,Net-(J2-Pad19)*%
X164408000Y-92502682D02*
X162602682Y-92502682D01*
X162602682Y-92502682D02*
X162602682Y-92502682D01*
%TO.N,Net-(J2-Pad17)*%
X164408000Y-91502684D02*
X162602684Y-91502684D01*
X162602684Y-91502684D02*
X162602684Y-91502684D01*
%TO.N,Net-(J2-Pad15)*%
X165997314Y-90502686D02*
X165997314Y-90502686D01*
X164408000Y-90502686D02*
X166000000Y-90500000D01*
%TO.N,Net-(J2-Pad13)*%
X164408000Y-89502688D02*
X166000000Y-89500000D01*
X166000000Y-89500000D02*
X165997312Y-89502688D01*
%TO.N,Net-(J2-Pad11)*%
X164438000Y-88532690D02*
X164408000Y-88502690D01*
X164408000Y-88502690D02*
X162602690Y-88502690D01*
X162602690Y-88502690D02*
X162602690Y-88502690D01*
%TO.N,Net-(J2-Pad9)*%
X164408000Y-87502692D02*
X162600000Y-87500000D01*
X162600000Y-87500000D02*
X162602692Y-87502692D01*
%TO.N,Net-(J2-Pad7)*%
X164408000Y-86502694D02*
X166097306Y-86502694D01*
X166097306Y-86502694D02*
X166097306Y-86502694D01*
%TO.N,Net-(J2-Pad5)*%
X165997304Y-85502696D02*
X165997304Y-85502696D01*
X164408000Y-85502696D02*
X166100000Y-85502696D01*
%TO.N,Net-(J2-Pad3)*%
X164408000Y-84502698D02*
X162600000Y-84500000D01*
X162600000Y-84500000D02*
X162602698Y-84502698D01*
%TO.N,Net-(J2-Pad1)*%
X164388000Y-83492700D02*
X165067300Y-83492700D01*
X164408000Y-83502700D02*
X162602700Y-83502700D01*
X162602700Y-83502700D02*
X162602700Y-83502700D01*
%TO.N,/BIAS3*%
X159078000Y-83502700D02*
X160857300Y-83502700D01*
X156310000Y-92827500D02*
X156310000Y-91710000D01*
X156310000Y-91710000D02*
X156310000Y-91710000D01*
X156310000Y-86507500D02*
X156310000Y-85410000D01*
X156310000Y-85410000D02*
X156310000Y-85410000D01*
X168940000Y-86507500D02*
X168940000Y-85560000D01*
X168940000Y-85560000D02*
X169300000Y-85200000D01*
X169300000Y-85200000D02*
X169300000Y-85200000D01*
X168940000Y-92827500D02*
X168940000Y-91660000D01*
X168940000Y-91660000D02*
X168940000Y-91660000D01*
%TO.N,/BIAS4*%
X156310000Y-105447500D02*
X156310000Y-104310000D01*
X156310000Y-104310000D02*
X156310000Y-104310000D01*
X156310000Y-111767500D02*
X156310000Y-110610000D01*
X156310000Y-110610000D02*
X156310000Y-110610000D01*
X168940000Y-111767500D02*
X168940000Y-110540000D01*
X168940000Y-110540000D02*
X168940000Y-110540000D01*
X168940000Y-105447500D02*
X168940000Y-104060000D01*
X168940000Y-104060000D02*
X168940000Y-104060000D01*
X160852000Y-116502634D02*
X160852000Y-117248000D01*
X160852000Y-117248000D02*
X160500000Y-117600000D01*
X160500000Y-117600000D02*
X160500000Y-117600000D01*
X164408000Y-116502634D02*
X166197366Y-116502634D01*
X166197366Y-116502634D02*
X166197366Y-116502634D01*
%TD*%
M02*
