%TF.GenerationSoftware,KiCad,Pcbnew,(5.1.9-0-10_14)*%
%TF.CreationDate,2021-05-13T13:45:13-04:00*%
%TF.ProjectId,SiPM_Board_RevB,5369504d-5f42-46f6-9172-645f52657642,rev?*%
%TF.SameCoordinates,Original*%
%TF.FileFunction,Legend,Bot*%
%TF.FilePolarity,Positive*%
%FSLAX46Y46*%
G04 Gerber Fmt 4.6, Leading zero omitted, Abs format (unit mm)*
G04 Created by KiCad (PCBNEW (5.1.9-0-10_14)) date 2021-05-13 13:45:13*
%MOMM*%
%LPD*%
G01*
G04 APERTURE LIST*
%ADD10C,0.165100*%
%ADD11C,0.100000*%
%ADD12C,0.120000*%
G04 APERTURE END LIST*
D10*
X159760857Y-119238328D02*
X159760857Y-117714328D01*
X159107714Y-119238328D02*
X159107714Y-118440042D01*
X159180285Y-118294900D01*
X159325428Y-118222328D01*
X159543142Y-118222328D01*
X159688285Y-118294900D01*
X159760857Y-118367471D01*
X158599714Y-118222328D02*
X158019142Y-118222328D01*
X158382000Y-117714328D02*
X158382000Y-119020614D01*
X158309428Y-119165757D01*
X158164285Y-119238328D01*
X158019142Y-119238328D01*
X157728857Y-118222328D02*
X157148285Y-118222328D01*
X157511142Y-117714328D02*
X157511142Y-119020614D01*
X157438571Y-119165757D01*
X157293428Y-119238328D01*
X157148285Y-119238328D01*
X156640285Y-118222328D02*
X156640285Y-119746328D01*
X156640285Y-118294900D02*
X156495142Y-118222328D01*
X156204857Y-118222328D01*
X156059714Y-118294900D01*
X155987142Y-118367471D01*
X155914571Y-118512614D01*
X155914571Y-118948042D01*
X155987142Y-119093185D01*
X156059714Y-119165757D01*
X156204857Y-119238328D01*
X156495142Y-119238328D01*
X156640285Y-119165757D01*
X155261428Y-119093185D02*
X155188857Y-119165757D01*
X155261428Y-119238328D01*
X155334000Y-119165757D01*
X155261428Y-119093185D01*
X155261428Y-119238328D01*
X155261428Y-118294900D02*
X155188857Y-118367471D01*
X155261428Y-118440042D01*
X155334000Y-118367471D01*
X155261428Y-118294900D01*
X155261428Y-118440042D01*
X153447142Y-117641757D02*
X154753428Y-119601185D01*
X151850571Y-117641757D02*
X153156857Y-119601185D01*
X150762000Y-119165757D02*
X150907142Y-119238328D01*
X151197428Y-119238328D01*
X151342571Y-119165757D01*
X151415142Y-119020614D01*
X151415142Y-118440042D01*
X151342571Y-118294900D01*
X151197428Y-118222328D01*
X150907142Y-118222328D01*
X150762000Y-118294900D01*
X150689428Y-118440042D01*
X150689428Y-118585185D01*
X151415142Y-118730328D01*
X149383142Y-119238328D02*
X149383142Y-117714328D01*
X149383142Y-119165757D02*
X149528285Y-119238328D01*
X149818571Y-119238328D01*
X149963714Y-119165757D01*
X150036285Y-119093185D01*
X150108857Y-118948042D01*
X150108857Y-118512614D01*
X150036285Y-118367471D01*
X149963714Y-118294900D01*
X149818571Y-118222328D01*
X149528285Y-118222328D01*
X149383142Y-118294900D01*
X148875142Y-118222328D02*
X148294571Y-118222328D01*
X148657428Y-119238328D02*
X148657428Y-117932042D01*
X148584857Y-117786900D01*
X148439714Y-117714328D01*
X148294571Y-117714328D01*
X147786571Y-119093185D02*
X147714000Y-119165757D01*
X147786571Y-119238328D01*
X147859142Y-119165757D01*
X147786571Y-119093185D01*
X147786571Y-119238328D01*
X147060857Y-119238328D02*
X147060857Y-117714328D01*
X147060857Y-118294900D02*
X146915714Y-118222328D01*
X146625428Y-118222328D01*
X146480285Y-118294900D01*
X146407714Y-118367471D01*
X146335142Y-118512614D01*
X146335142Y-118948042D01*
X146407714Y-119093185D01*
X146480285Y-119165757D01*
X146625428Y-119238328D01*
X146915714Y-119238328D01*
X147060857Y-119165757D01*
X145028857Y-118222328D02*
X145028857Y-119238328D01*
X145682000Y-118222328D02*
X145682000Y-119020614D01*
X145609428Y-119165757D01*
X145464285Y-119238328D01*
X145246571Y-119238328D01*
X145101428Y-119165757D01*
X145028857Y-119093185D01*
X144303142Y-119093185D02*
X144230571Y-119165757D01*
X144303142Y-119238328D01*
X144375714Y-119165757D01*
X144303142Y-119093185D01*
X144303142Y-119238328D01*
X142996857Y-119165757D02*
X143142000Y-119238328D01*
X143432285Y-119238328D01*
X143577428Y-119165757D01*
X143650000Y-119020614D01*
X143650000Y-118440042D01*
X143577428Y-118294900D01*
X143432285Y-118222328D01*
X143142000Y-118222328D01*
X142996857Y-118294900D01*
X142924285Y-118440042D01*
X142924285Y-118585185D01*
X143650000Y-118730328D01*
X141618000Y-119238328D02*
X141618000Y-117714328D01*
X141618000Y-119165757D02*
X141763142Y-119238328D01*
X142053428Y-119238328D01*
X142198571Y-119165757D01*
X142271142Y-119093185D01*
X142343714Y-118948042D01*
X142343714Y-118512614D01*
X142271142Y-118367471D01*
X142198571Y-118294900D01*
X142053428Y-118222328D01*
X141763142Y-118222328D01*
X141618000Y-118294900D01*
X140239142Y-118222328D02*
X140239142Y-119238328D01*
X140892285Y-118222328D02*
X140892285Y-119020614D01*
X140819714Y-119165757D01*
X140674571Y-119238328D01*
X140456857Y-119238328D01*
X140311714Y-119165757D01*
X140239142Y-119093185D01*
X162337142Y-120891142D02*
X161829142Y-120891142D01*
X161611428Y-121689428D02*
X162337142Y-121689428D01*
X162337142Y-120165428D01*
X161611428Y-120165428D01*
X160958285Y-121689428D02*
X160958285Y-120165428D01*
X160450285Y-121254000D01*
X159942285Y-120165428D01*
X159942285Y-121689428D01*
X159216571Y-121689428D02*
X159216571Y-120165428D01*
X158636000Y-120165428D01*
X158490857Y-120238000D01*
X158418285Y-120310571D01*
X158345714Y-120455714D01*
X158345714Y-120673428D01*
X158418285Y-120818571D01*
X158490857Y-120891142D01*
X158636000Y-120963714D01*
X159216571Y-120963714D01*
X157692571Y-121689428D02*
X157692571Y-120165428D01*
X157692571Y-120891142D02*
X156821714Y-120891142D01*
X156821714Y-121689428D02*
X156821714Y-120165428D01*
X156168571Y-121254000D02*
X155442857Y-121254000D01*
X156313714Y-121689428D02*
X155805714Y-120165428D01*
X155297714Y-121689428D01*
X155007428Y-120165428D02*
X154136571Y-120165428D01*
X154572000Y-121689428D02*
X154572000Y-120165428D01*
X153628571Y-121689428D02*
X153628571Y-120165428D01*
X152032000Y-121544285D02*
X152104571Y-121616857D01*
X152322285Y-121689428D01*
X152467428Y-121689428D01*
X152685142Y-121616857D01*
X152830285Y-121471714D01*
X152902857Y-121326571D01*
X152975428Y-121036285D01*
X152975428Y-120818571D01*
X152902857Y-120528285D01*
X152830285Y-120383142D01*
X152685142Y-120238000D01*
X152467428Y-120165428D01*
X152322285Y-120165428D01*
X152104571Y-120238000D01*
X152032000Y-120310571D01*
X150290285Y-121616857D02*
X150072571Y-121689428D01*
X149709714Y-121689428D01*
X149564571Y-121616857D01*
X149492000Y-121544285D01*
X149419428Y-121399142D01*
X149419428Y-121254000D01*
X149492000Y-121108857D01*
X149564571Y-121036285D01*
X149709714Y-120963714D01*
X150000000Y-120891142D01*
X150145142Y-120818571D01*
X150217714Y-120746000D01*
X150290285Y-120600857D01*
X150290285Y-120455714D01*
X150217714Y-120310571D01*
X150145142Y-120238000D01*
X150000000Y-120165428D01*
X149637142Y-120165428D01*
X149419428Y-120238000D01*
X148766285Y-121689428D02*
X148766285Y-120673428D01*
X148766285Y-120165428D02*
X148838857Y-120238000D01*
X148766285Y-120310571D01*
X148693714Y-120238000D01*
X148766285Y-120165428D01*
X148766285Y-120310571D01*
X148040571Y-121689428D02*
X148040571Y-120165428D01*
X147460000Y-120165428D01*
X147314857Y-120238000D01*
X147242285Y-120310571D01*
X147169714Y-120455714D01*
X147169714Y-120673428D01*
X147242285Y-120818571D01*
X147314857Y-120891142D01*
X147460000Y-120963714D01*
X148040571Y-120963714D01*
X146516571Y-121689428D02*
X146516571Y-120165428D01*
X146008571Y-121254000D01*
X145500571Y-120165428D01*
X145500571Y-121689428D01*
X142742857Y-121689428D02*
X143250857Y-120963714D01*
X143613714Y-121689428D02*
X143613714Y-120165428D01*
X143033142Y-120165428D01*
X142888000Y-120238000D01*
X142815428Y-120310571D01*
X142742857Y-120455714D01*
X142742857Y-120673428D01*
X142815428Y-120818571D01*
X142888000Y-120891142D01*
X143033142Y-120963714D01*
X143613714Y-120963714D01*
X141509142Y-121616857D02*
X141654285Y-121689428D01*
X141944571Y-121689428D01*
X142089714Y-121616857D01*
X142162285Y-121471714D01*
X142162285Y-120891142D01*
X142089714Y-120746000D01*
X141944571Y-120673428D01*
X141654285Y-120673428D01*
X141509142Y-120746000D01*
X141436571Y-120891142D01*
X141436571Y-121036285D01*
X142162285Y-121181428D01*
X140928571Y-120673428D02*
X140565714Y-121689428D01*
X140202857Y-120673428D01*
X137953142Y-120891142D02*
X137735428Y-120963714D01*
X137662857Y-121036285D01*
X137590285Y-121181428D01*
X137590285Y-121399142D01*
X137662857Y-121544285D01*
X137735428Y-121616857D01*
X137880571Y-121689428D01*
X138461142Y-121689428D01*
X138461142Y-120165428D01*
X137953142Y-120165428D01*
X137808000Y-120238000D01*
X137735428Y-120310571D01*
X137662857Y-120455714D01*
X137662857Y-120600857D01*
X137735428Y-120746000D01*
X137808000Y-120818571D01*
X137953142Y-120891142D01*
X138461142Y-120891142D01*
X163171714Y-122616528D02*
X162300857Y-122616528D01*
X162736285Y-124140528D02*
X162736285Y-122616528D01*
X161792857Y-123995385D02*
X161720285Y-124067957D01*
X161792857Y-124140528D01*
X161865428Y-124067957D01*
X161792857Y-123995385D01*
X161792857Y-124140528D01*
X159978571Y-123705100D02*
X159252857Y-123705100D01*
X160123714Y-124140528D02*
X159615714Y-122616528D01*
X159107714Y-124140528D01*
X157946571Y-123124528D02*
X157946571Y-124358242D01*
X158019142Y-124503385D01*
X158091714Y-124575957D01*
X158236857Y-124648528D01*
X158454571Y-124648528D01*
X158599714Y-124575957D01*
X157946571Y-124067957D02*
X158091714Y-124140528D01*
X158382000Y-124140528D01*
X158527142Y-124067957D01*
X158599714Y-123995385D01*
X158672285Y-123850242D01*
X158672285Y-123414814D01*
X158599714Y-123269671D01*
X158527142Y-123197100D01*
X158382000Y-123124528D01*
X158091714Y-123124528D01*
X157946571Y-123197100D01*
X156567714Y-124140528D02*
X156567714Y-123342242D01*
X156640285Y-123197100D01*
X156785428Y-123124528D01*
X157075714Y-123124528D01*
X157220857Y-123197100D01*
X156567714Y-124067957D02*
X156712857Y-124140528D01*
X157075714Y-124140528D01*
X157220857Y-124067957D01*
X157293428Y-123922814D01*
X157293428Y-123777671D01*
X157220857Y-123632528D01*
X157075714Y-123559957D01*
X156712857Y-123559957D01*
X156567714Y-123487385D01*
X155842000Y-124140528D02*
X155842000Y-123124528D01*
X155842000Y-123414814D02*
X155769428Y-123269671D01*
X155696857Y-123197100D01*
X155551714Y-123124528D01*
X155406571Y-123124528D01*
X155043714Y-123124528D02*
X154753428Y-124140528D01*
X154463142Y-123414814D01*
X154172857Y-124140528D01*
X153882571Y-123124528D01*
X152648857Y-124140528D02*
X152648857Y-123342242D01*
X152721428Y-123197100D01*
X152866571Y-123124528D01*
X153156857Y-123124528D01*
X153302000Y-123197100D01*
X152648857Y-124067957D02*
X152794000Y-124140528D01*
X153156857Y-124140528D01*
X153302000Y-124067957D01*
X153374571Y-123922814D01*
X153374571Y-123777671D01*
X153302000Y-123632528D01*
X153156857Y-123559957D01*
X152794000Y-123559957D01*
X152648857Y-123487385D01*
X151705428Y-124140528D02*
X151850571Y-124067957D01*
X151923142Y-123922814D01*
X151923142Y-122616528D01*
X149963714Y-123559957D02*
X148802571Y-123559957D01*
X146988285Y-122761671D02*
X146915714Y-122689100D01*
X146770571Y-122616528D01*
X146407714Y-122616528D01*
X146262571Y-122689100D01*
X146190000Y-122761671D01*
X146117428Y-122906814D01*
X146117428Y-123051957D01*
X146190000Y-123269671D01*
X147060857Y-124140528D01*
X146117428Y-124140528D01*
X145174000Y-122616528D02*
X145028857Y-122616528D01*
X144883714Y-122689100D01*
X144811142Y-122761671D01*
X144738571Y-122906814D01*
X144666000Y-123197100D01*
X144666000Y-123559957D01*
X144738571Y-123850242D01*
X144811142Y-123995385D01*
X144883714Y-124067957D01*
X145028857Y-124140528D01*
X145174000Y-124140528D01*
X145319142Y-124067957D01*
X145391714Y-123995385D01*
X145464285Y-123850242D01*
X145536857Y-123559957D01*
X145536857Y-123197100D01*
X145464285Y-122906814D01*
X145391714Y-122761671D01*
X145319142Y-122689100D01*
X145174000Y-122616528D01*
X144085428Y-122761671D02*
X144012857Y-122689100D01*
X143867714Y-122616528D01*
X143504857Y-122616528D01*
X143359714Y-122689100D01*
X143287142Y-122761671D01*
X143214571Y-122906814D01*
X143214571Y-123051957D01*
X143287142Y-123269671D01*
X144158000Y-124140528D01*
X143214571Y-124140528D01*
X141763142Y-124140528D02*
X142634000Y-124140528D01*
X142198571Y-124140528D02*
X142198571Y-122616528D01*
X142343714Y-122834242D01*
X142488857Y-122979385D01*
X142634000Y-123051957D01*
X141110000Y-123559957D02*
X139948857Y-123559957D01*
X138932857Y-122616528D02*
X138787714Y-122616528D01*
X138642571Y-122689100D01*
X138570000Y-122761671D01*
X138497428Y-122906814D01*
X138424857Y-123197100D01*
X138424857Y-123559957D01*
X138497428Y-123850242D01*
X138570000Y-123995385D01*
X138642571Y-124067957D01*
X138787714Y-124140528D01*
X138932857Y-124140528D01*
X139078000Y-124067957D01*
X139150571Y-123995385D01*
X139223142Y-123850242D01*
X139295714Y-123559957D01*
X139295714Y-123197100D01*
X139223142Y-122906814D01*
X139150571Y-122761671D01*
X139078000Y-122689100D01*
X138932857Y-122616528D01*
X137046000Y-122616528D02*
X137771714Y-122616528D01*
X137844285Y-123342242D01*
X137771714Y-123269671D01*
X137626571Y-123197100D01*
X137263714Y-123197100D01*
X137118571Y-123269671D01*
X137046000Y-123342242D01*
X136973428Y-123487385D01*
X136973428Y-123850242D01*
X137046000Y-123995385D01*
X137118571Y-124067957D01*
X137263714Y-124140528D01*
X137626571Y-124140528D01*
X137771714Y-124067957D01*
X137844285Y-123995385D01*
D11*
G36*
X157500000Y-82700000D02*
G01*
X142600000Y-82700000D01*
X142600000Y-75300000D01*
X157500000Y-75300000D01*
X157500000Y-82700000D01*
G37*
X157500000Y-82700000D02*
X142600000Y-82700000D01*
X142600000Y-75300000D01*
X157500000Y-75300000D01*
X157500000Y-82700000D01*
D10*
X163264857Y-79566857D02*
X163047142Y-79639428D01*
X162684285Y-79639428D01*
X162539142Y-79566857D01*
X162466571Y-79494285D01*
X162394000Y-79349142D01*
X162394000Y-79204000D01*
X162466571Y-79058857D01*
X162539142Y-78986285D01*
X162684285Y-78913714D01*
X162974571Y-78841142D01*
X163119714Y-78768571D01*
X163192285Y-78696000D01*
X163264857Y-78550857D01*
X163264857Y-78405714D01*
X163192285Y-78260571D01*
X163119714Y-78188000D01*
X162974571Y-78115428D01*
X162611714Y-78115428D01*
X162394000Y-78188000D01*
X160652285Y-78042857D02*
X161958571Y-80002285D01*
X160144285Y-79639428D02*
X160144285Y-78115428D01*
X159273428Y-79639428D01*
X159273428Y-78115428D01*
X158547714Y-79494285D02*
X158475142Y-79566857D01*
X158547714Y-79639428D01*
X158620285Y-79566857D01*
X158547714Y-79494285D01*
X158547714Y-79639428D01*
X158547714Y-78696000D02*
X158475142Y-78768571D01*
X158547714Y-78841142D01*
X158620285Y-78768571D01*
X158547714Y-78696000D01*
X158547714Y-78841142D01*
%TO.C,J2*%
X164154000Y-118288000D02*
X161106000Y-118288000D01*
X161106000Y-118288000D02*
X161106000Y-117272000D01*
X164154000Y-117272000D02*
X164154000Y-118288000D01*
X164154000Y-81712000D02*
X164154000Y-82728000D01*
X161106000Y-81712000D02*
X164154000Y-81712000D01*
X161106000Y-82728000D02*
X161106000Y-81712000D01*
D12*
%TO.C,U1*%
X150700000Y-101160000D02*
X149300000Y-101160000D01*
X149300000Y-98840000D02*
X151200000Y-98840000D01*
D10*
%TO.C,J1*%
X135846000Y-82728000D02*
X135846000Y-81712000D01*
X135846000Y-81712000D02*
X138894000Y-81712000D01*
X138894000Y-81712000D02*
X138894000Y-82728000D01*
X138894000Y-117272000D02*
X138894000Y-118288000D01*
X135846000Y-118288000D02*
X135846000Y-117272000D01*
X138894000Y-118288000D02*
X135846000Y-118288000D01*
D12*
%TO.C,C15*%
X156820000Y-112483733D02*
X156820000Y-112776267D01*
X155800000Y-112483733D02*
X155800000Y-112776267D01*
%TO.C,C9*%
X149490000Y-103033733D02*
X149490000Y-103326267D01*
X150510000Y-103033733D02*
X150510000Y-103326267D01*
%TO.C,C5*%
X130550000Y-87223733D02*
X130550000Y-87516267D01*
X131570000Y-87223733D02*
X131570000Y-87516267D01*
%TO.C,C7*%
X144380000Y-87223733D02*
X144380000Y-87516267D01*
X143360000Y-87223733D02*
X143360000Y-87516267D01*
%TO.C,C6*%
X130550000Y-112483733D02*
X130550000Y-112776267D01*
X131570000Y-112483733D02*
X131570000Y-112776267D01*
%TO.C,C8*%
X144330000Y-112483733D02*
X144330000Y-112776267D01*
X143310000Y-112483733D02*
X143310000Y-112776267D01*
%TO.C,C14*%
X155800000Y-87223733D02*
X155800000Y-87516267D01*
X156820000Y-87223733D02*
X156820000Y-87516267D01*
%TO.C,C16*%
X169450000Y-87223733D02*
X169450000Y-87516267D01*
X168430000Y-87223733D02*
X168430000Y-87516267D01*
%TO.C,C17*%
X168430000Y-112483733D02*
X168430000Y-112776267D01*
X169450000Y-112483733D02*
X169450000Y-112776267D01*
%TO.C,C1*%
X131570000Y-93543733D02*
X131570000Y-93836267D01*
X130550000Y-93543733D02*
X130550000Y-93836267D01*
%TO.C,C3*%
X143360000Y-93543733D02*
X143360000Y-93836267D01*
X144380000Y-93543733D02*
X144380000Y-93836267D01*
%TO.C,C2*%
X131570000Y-106163733D02*
X131570000Y-106456267D01*
X130550000Y-106163733D02*
X130550000Y-106456267D01*
%TO.C,C4*%
X143360000Y-106163733D02*
X143360000Y-106456267D01*
X144380000Y-106163733D02*
X144380000Y-106456267D01*
%TO.C,C10*%
X156820000Y-93543733D02*
X156820000Y-93836267D01*
X155800000Y-93543733D02*
X155800000Y-93836267D01*
%TO.C,C12*%
X168430000Y-93543733D02*
X168430000Y-93836267D01*
X169450000Y-93543733D02*
X169450000Y-93836267D01*
%TO.C,C11*%
X156820000Y-106163733D02*
X156820000Y-106456267D01*
X155800000Y-106163733D02*
X155800000Y-106456267D01*
%TO.C,C13*%
X168430000Y-106163733D02*
X168430000Y-106456267D01*
X169450000Y-106163733D02*
X169450000Y-106456267D01*
%TO.C,J2*%
D10*
X159808000Y-81345428D02*
X159808000Y-82434000D01*
X159880571Y-82651714D01*
X160025714Y-82796857D01*
X160243428Y-82869428D01*
X160388571Y-82869428D01*
X159154857Y-81490571D02*
X159082285Y-81418000D01*
X158937142Y-81345428D01*
X158574285Y-81345428D01*
X158429142Y-81418000D01*
X158356571Y-81490571D01*
X158284000Y-81635714D01*
X158284000Y-81780857D01*
X158356571Y-81998571D01*
X159227428Y-82869428D01*
X158284000Y-82869428D01*
X164480571Y-82909428D02*
X165351428Y-82909428D01*
X164916000Y-82909428D02*
X164916000Y-81385428D01*
X165061142Y-81603142D01*
X165206285Y-81748285D01*
X165351428Y-81820857D01*
%TO.C,U1*%
X151161142Y-96915428D02*
X151161142Y-98149142D01*
X151088571Y-98294285D01*
X151016000Y-98366857D01*
X150870857Y-98439428D01*
X150580571Y-98439428D01*
X150435428Y-98366857D01*
X150362857Y-98294285D01*
X150290285Y-98149142D01*
X150290285Y-96915428D01*
X148766285Y-98439428D02*
X149637142Y-98439428D01*
X149201714Y-98439428D02*
X149201714Y-96915428D01*
X149346857Y-97133142D01*
X149492000Y-97278285D01*
X149637142Y-97350857D01*
%TO.C,J1*%
X134208000Y-81305428D02*
X134208000Y-82394000D01*
X134280571Y-82611714D01*
X134425714Y-82756857D01*
X134643428Y-82829428D01*
X134788571Y-82829428D01*
X132684000Y-82829428D02*
X133554857Y-82829428D01*
X133119428Y-82829428D02*
X133119428Y-81305428D01*
X133264571Y-81523142D01*
X133409714Y-81668285D01*
X133554857Y-81740857D01*
X139220571Y-82909428D02*
X140091428Y-82909428D01*
X139656000Y-82909428D02*
X139656000Y-81385428D01*
X139801142Y-81603142D01*
X139946285Y-81748285D01*
X140091428Y-81820857D01*
%TO.C,C15*%
X155314285Y-111120285D02*
X155386857Y-111047714D01*
X155459428Y-110830000D01*
X155459428Y-110684857D01*
X155386857Y-110467142D01*
X155241714Y-110322000D01*
X155096571Y-110249428D01*
X154806285Y-110176857D01*
X154588571Y-110176857D01*
X154298285Y-110249428D01*
X154153142Y-110322000D01*
X154008000Y-110467142D01*
X153935428Y-110684857D01*
X153935428Y-110830000D01*
X154008000Y-111047714D01*
X154080571Y-111120285D01*
X155459428Y-112571714D02*
X155459428Y-111700857D01*
X155459428Y-112136285D02*
X153935428Y-112136285D01*
X154153142Y-111991142D01*
X154298285Y-111846000D01*
X154370857Y-111700857D01*
X153935428Y-113950571D02*
X153935428Y-113224857D01*
X154661142Y-113152285D01*
X154588571Y-113224857D01*
X154516000Y-113370000D01*
X154516000Y-113732857D01*
X154588571Y-113878000D01*
X154661142Y-113950571D01*
X154806285Y-114023142D01*
X155169142Y-114023142D01*
X155314285Y-113950571D01*
X155386857Y-113878000D01*
X155459428Y-113732857D01*
X155459428Y-113370000D01*
X155386857Y-113224857D01*
X155314285Y-113152285D01*
%TO.C,C9*%
X148994285Y-102916000D02*
X149066857Y-102843428D01*
X149139428Y-102625714D01*
X149139428Y-102480571D01*
X149066857Y-102262857D01*
X148921714Y-102117714D01*
X148776571Y-102045142D01*
X148486285Y-101972571D01*
X148268571Y-101972571D01*
X147978285Y-102045142D01*
X147833142Y-102117714D01*
X147688000Y-102262857D01*
X147615428Y-102480571D01*
X147615428Y-102625714D01*
X147688000Y-102843428D01*
X147760571Y-102916000D01*
X149139428Y-103641714D02*
X149139428Y-103932000D01*
X149066857Y-104077142D01*
X148994285Y-104149714D01*
X148776571Y-104294857D01*
X148486285Y-104367428D01*
X147905714Y-104367428D01*
X147760571Y-104294857D01*
X147688000Y-104222285D01*
X147615428Y-104077142D01*
X147615428Y-103786857D01*
X147688000Y-103641714D01*
X147760571Y-103569142D01*
X147905714Y-103496571D01*
X148268571Y-103496571D01*
X148413714Y-103569142D01*
X148486285Y-103641714D01*
X148558857Y-103786857D01*
X148558857Y-104077142D01*
X148486285Y-104222285D01*
X148413714Y-104294857D01*
X148268571Y-104367428D01*
%TO.C,C5*%
X130014285Y-87046000D02*
X130086857Y-86973428D01*
X130159428Y-86755714D01*
X130159428Y-86610571D01*
X130086857Y-86392857D01*
X129941714Y-86247714D01*
X129796571Y-86175142D01*
X129506285Y-86102571D01*
X129288571Y-86102571D01*
X128998285Y-86175142D01*
X128853142Y-86247714D01*
X128708000Y-86392857D01*
X128635428Y-86610571D01*
X128635428Y-86755714D01*
X128708000Y-86973428D01*
X128780571Y-87046000D01*
X128635428Y-88424857D02*
X128635428Y-87699142D01*
X129361142Y-87626571D01*
X129288571Y-87699142D01*
X129216000Y-87844285D01*
X129216000Y-88207142D01*
X129288571Y-88352285D01*
X129361142Y-88424857D01*
X129506285Y-88497428D01*
X129869142Y-88497428D01*
X130014285Y-88424857D01*
X130086857Y-88352285D01*
X130159428Y-88207142D01*
X130159428Y-87844285D01*
X130086857Y-87699142D01*
X130014285Y-87626571D01*
%TO.C,C7*%
X142844285Y-87146000D02*
X142916857Y-87073428D01*
X142989428Y-86855714D01*
X142989428Y-86710571D01*
X142916857Y-86492857D01*
X142771714Y-86347714D01*
X142626571Y-86275142D01*
X142336285Y-86202571D01*
X142118571Y-86202571D01*
X141828285Y-86275142D01*
X141683142Y-86347714D01*
X141538000Y-86492857D01*
X141465428Y-86710571D01*
X141465428Y-86855714D01*
X141538000Y-87073428D01*
X141610571Y-87146000D01*
X141465428Y-87654000D02*
X141465428Y-88670000D01*
X142989428Y-88016857D01*
%TO.C,C6*%
X130044285Y-112346000D02*
X130116857Y-112273428D01*
X130189428Y-112055714D01*
X130189428Y-111910571D01*
X130116857Y-111692857D01*
X129971714Y-111547714D01*
X129826571Y-111475142D01*
X129536285Y-111402571D01*
X129318571Y-111402571D01*
X129028285Y-111475142D01*
X128883142Y-111547714D01*
X128738000Y-111692857D01*
X128665428Y-111910571D01*
X128665428Y-112055714D01*
X128738000Y-112273428D01*
X128810571Y-112346000D01*
X128665428Y-113652285D02*
X128665428Y-113362000D01*
X128738000Y-113216857D01*
X128810571Y-113144285D01*
X129028285Y-112999142D01*
X129318571Y-112926571D01*
X129899142Y-112926571D01*
X130044285Y-112999142D01*
X130116857Y-113071714D01*
X130189428Y-113216857D01*
X130189428Y-113507142D01*
X130116857Y-113652285D01*
X130044285Y-113724857D01*
X129899142Y-113797428D01*
X129536285Y-113797428D01*
X129391142Y-113724857D01*
X129318571Y-113652285D01*
X129246000Y-113507142D01*
X129246000Y-113216857D01*
X129318571Y-113071714D01*
X129391142Y-112999142D01*
X129536285Y-112926571D01*
%TO.C,C8*%
X142744285Y-112346000D02*
X142816857Y-112273428D01*
X142889428Y-112055714D01*
X142889428Y-111910571D01*
X142816857Y-111692857D01*
X142671714Y-111547714D01*
X142526571Y-111475142D01*
X142236285Y-111402571D01*
X142018571Y-111402571D01*
X141728285Y-111475142D01*
X141583142Y-111547714D01*
X141438000Y-111692857D01*
X141365428Y-111910571D01*
X141365428Y-112055714D01*
X141438000Y-112273428D01*
X141510571Y-112346000D01*
X142018571Y-113216857D02*
X141946000Y-113071714D01*
X141873428Y-112999142D01*
X141728285Y-112926571D01*
X141655714Y-112926571D01*
X141510571Y-112999142D01*
X141438000Y-113071714D01*
X141365428Y-113216857D01*
X141365428Y-113507142D01*
X141438000Y-113652285D01*
X141510571Y-113724857D01*
X141655714Y-113797428D01*
X141728285Y-113797428D01*
X141873428Y-113724857D01*
X141946000Y-113652285D01*
X142018571Y-113507142D01*
X142018571Y-113216857D01*
X142091142Y-113071714D01*
X142163714Y-112999142D01*
X142308857Y-112926571D01*
X142599142Y-112926571D01*
X142744285Y-112999142D01*
X142816857Y-113071714D01*
X142889428Y-113216857D01*
X142889428Y-113507142D01*
X142816857Y-113652285D01*
X142744285Y-113724857D01*
X142599142Y-113797428D01*
X142308857Y-113797428D01*
X142163714Y-113724857D01*
X142091142Y-113652285D01*
X142018571Y-113507142D01*
%TO.C,C14*%
X155344285Y-86920285D02*
X155416857Y-86847714D01*
X155489428Y-86630000D01*
X155489428Y-86484857D01*
X155416857Y-86267142D01*
X155271714Y-86122000D01*
X155126571Y-86049428D01*
X154836285Y-85976857D01*
X154618571Y-85976857D01*
X154328285Y-86049428D01*
X154183142Y-86122000D01*
X154038000Y-86267142D01*
X153965428Y-86484857D01*
X153965428Y-86630000D01*
X154038000Y-86847714D01*
X154110571Y-86920285D01*
X155489428Y-88371714D02*
X155489428Y-87500857D01*
X155489428Y-87936285D02*
X153965428Y-87936285D01*
X154183142Y-87791142D01*
X154328285Y-87646000D01*
X154400857Y-87500857D01*
X154473428Y-89678000D02*
X155489428Y-89678000D01*
X153892857Y-89315142D02*
X154981428Y-88952285D01*
X154981428Y-89895714D01*
%TO.C,C16*%
X167944285Y-86420285D02*
X168016857Y-86347714D01*
X168089428Y-86130000D01*
X168089428Y-85984857D01*
X168016857Y-85767142D01*
X167871714Y-85622000D01*
X167726571Y-85549428D01*
X167436285Y-85476857D01*
X167218571Y-85476857D01*
X166928285Y-85549428D01*
X166783142Y-85622000D01*
X166638000Y-85767142D01*
X166565428Y-85984857D01*
X166565428Y-86130000D01*
X166638000Y-86347714D01*
X166710571Y-86420285D01*
X168089428Y-87871714D02*
X168089428Y-87000857D01*
X168089428Y-87436285D02*
X166565428Y-87436285D01*
X166783142Y-87291142D01*
X166928285Y-87146000D01*
X167000857Y-87000857D01*
X166565428Y-89178000D02*
X166565428Y-88887714D01*
X166638000Y-88742571D01*
X166710571Y-88670000D01*
X166928285Y-88524857D01*
X167218571Y-88452285D01*
X167799142Y-88452285D01*
X167944285Y-88524857D01*
X168016857Y-88597428D01*
X168089428Y-88742571D01*
X168089428Y-89032857D01*
X168016857Y-89178000D01*
X167944285Y-89250571D01*
X167799142Y-89323142D01*
X167436285Y-89323142D01*
X167291142Y-89250571D01*
X167218571Y-89178000D01*
X167146000Y-89032857D01*
X167146000Y-88742571D01*
X167218571Y-88597428D01*
X167291142Y-88524857D01*
X167436285Y-88452285D01*
%TO.C,C17*%
X167944285Y-111820285D02*
X168016857Y-111747714D01*
X168089428Y-111530000D01*
X168089428Y-111384857D01*
X168016857Y-111167142D01*
X167871714Y-111022000D01*
X167726571Y-110949428D01*
X167436285Y-110876857D01*
X167218571Y-110876857D01*
X166928285Y-110949428D01*
X166783142Y-111022000D01*
X166638000Y-111167142D01*
X166565428Y-111384857D01*
X166565428Y-111530000D01*
X166638000Y-111747714D01*
X166710571Y-111820285D01*
X168089428Y-113271714D02*
X168089428Y-112400857D01*
X168089428Y-112836285D02*
X166565428Y-112836285D01*
X166783142Y-112691142D01*
X166928285Y-112546000D01*
X167000857Y-112400857D01*
X166565428Y-113779714D02*
X166565428Y-114795714D01*
X168089428Y-114142571D01*
%TO.C,C1*%
X130044285Y-93446000D02*
X130116857Y-93373428D01*
X130189428Y-93155714D01*
X130189428Y-93010571D01*
X130116857Y-92792857D01*
X129971714Y-92647714D01*
X129826571Y-92575142D01*
X129536285Y-92502571D01*
X129318571Y-92502571D01*
X129028285Y-92575142D01*
X128883142Y-92647714D01*
X128738000Y-92792857D01*
X128665428Y-93010571D01*
X128665428Y-93155714D01*
X128738000Y-93373428D01*
X128810571Y-93446000D01*
X130189428Y-94897428D02*
X130189428Y-94026571D01*
X130189428Y-94462000D02*
X128665428Y-94462000D01*
X128883142Y-94316857D01*
X129028285Y-94171714D01*
X129100857Y-94026571D01*
%TO.C,C3*%
X142844285Y-93436000D02*
X142916857Y-93363428D01*
X142989428Y-93145714D01*
X142989428Y-93000571D01*
X142916857Y-92782857D01*
X142771714Y-92637714D01*
X142626571Y-92565142D01*
X142336285Y-92492571D01*
X142118571Y-92492571D01*
X141828285Y-92565142D01*
X141683142Y-92637714D01*
X141538000Y-92782857D01*
X141465428Y-93000571D01*
X141465428Y-93145714D01*
X141538000Y-93363428D01*
X141610571Y-93436000D01*
X141465428Y-93944000D02*
X141465428Y-94887428D01*
X142046000Y-94379428D01*
X142046000Y-94597142D01*
X142118571Y-94742285D01*
X142191142Y-94814857D01*
X142336285Y-94887428D01*
X142699142Y-94887428D01*
X142844285Y-94814857D01*
X142916857Y-94742285D01*
X142989428Y-94597142D01*
X142989428Y-94161714D01*
X142916857Y-94016571D01*
X142844285Y-93944000D01*
%TO.C,C2*%
X130044285Y-106046000D02*
X130116857Y-105973428D01*
X130189428Y-105755714D01*
X130189428Y-105610571D01*
X130116857Y-105392857D01*
X129971714Y-105247714D01*
X129826571Y-105175142D01*
X129536285Y-105102571D01*
X129318571Y-105102571D01*
X129028285Y-105175142D01*
X128883142Y-105247714D01*
X128738000Y-105392857D01*
X128665428Y-105610571D01*
X128665428Y-105755714D01*
X128738000Y-105973428D01*
X128810571Y-106046000D01*
X128810571Y-106626571D02*
X128738000Y-106699142D01*
X128665428Y-106844285D01*
X128665428Y-107207142D01*
X128738000Y-107352285D01*
X128810571Y-107424857D01*
X128955714Y-107497428D01*
X129100857Y-107497428D01*
X129318571Y-107424857D01*
X130189428Y-106554000D01*
X130189428Y-107497428D01*
%TO.C,C4*%
X142874285Y-106046000D02*
X142946857Y-105973428D01*
X143019428Y-105755714D01*
X143019428Y-105610571D01*
X142946857Y-105392857D01*
X142801714Y-105247714D01*
X142656571Y-105175142D01*
X142366285Y-105102571D01*
X142148571Y-105102571D01*
X141858285Y-105175142D01*
X141713142Y-105247714D01*
X141568000Y-105392857D01*
X141495428Y-105610571D01*
X141495428Y-105755714D01*
X141568000Y-105973428D01*
X141640571Y-106046000D01*
X142003428Y-107352285D02*
X143019428Y-107352285D01*
X141422857Y-106989428D02*
X142511428Y-106626571D01*
X142511428Y-107570000D01*
%TO.C,C10*%
X155344285Y-93220285D02*
X155416857Y-93147714D01*
X155489428Y-92930000D01*
X155489428Y-92784857D01*
X155416857Y-92567142D01*
X155271714Y-92422000D01*
X155126571Y-92349428D01*
X154836285Y-92276857D01*
X154618571Y-92276857D01*
X154328285Y-92349428D01*
X154183142Y-92422000D01*
X154038000Y-92567142D01*
X153965428Y-92784857D01*
X153965428Y-92930000D01*
X154038000Y-93147714D01*
X154110571Y-93220285D01*
X155489428Y-94671714D02*
X155489428Y-93800857D01*
X155489428Y-94236285D02*
X153965428Y-94236285D01*
X154183142Y-94091142D01*
X154328285Y-93946000D01*
X154400857Y-93800857D01*
X153965428Y-95615142D02*
X153965428Y-95760285D01*
X154038000Y-95905428D01*
X154110571Y-95978000D01*
X154255714Y-96050571D01*
X154546000Y-96123142D01*
X154908857Y-96123142D01*
X155199142Y-96050571D01*
X155344285Y-95978000D01*
X155416857Y-95905428D01*
X155489428Y-95760285D01*
X155489428Y-95615142D01*
X155416857Y-95470000D01*
X155344285Y-95397428D01*
X155199142Y-95324857D01*
X154908857Y-95252285D01*
X154546000Y-95252285D01*
X154255714Y-95324857D01*
X154110571Y-95397428D01*
X154038000Y-95470000D01*
X153965428Y-95615142D01*
%TO.C,C12*%
X167944285Y-92720285D02*
X168016857Y-92647714D01*
X168089428Y-92430000D01*
X168089428Y-92284857D01*
X168016857Y-92067142D01*
X167871714Y-91922000D01*
X167726571Y-91849428D01*
X167436285Y-91776857D01*
X167218571Y-91776857D01*
X166928285Y-91849428D01*
X166783142Y-91922000D01*
X166638000Y-92067142D01*
X166565428Y-92284857D01*
X166565428Y-92430000D01*
X166638000Y-92647714D01*
X166710571Y-92720285D01*
X168089428Y-94171714D02*
X168089428Y-93300857D01*
X168089428Y-93736285D02*
X166565428Y-93736285D01*
X166783142Y-93591142D01*
X166928285Y-93446000D01*
X167000857Y-93300857D01*
X166710571Y-94752285D02*
X166638000Y-94824857D01*
X166565428Y-94970000D01*
X166565428Y-95332857D01*
X166638000Y-95478000D01*
X166710571Y-95550571D01*
X166855714Y-95623142D01*
X167000857Y-95623142D01*
X167218571Y-95550571D01*
X168089428Y-94679714D01*
X168089428Y-95623142D01*
%TO.C,C11*%
X155244285Y-105320285D02*
X155316857Y-105247714D01*
X155389428Y-105030000D01*
X155389428Y-104884857D01*
X155316857Y-104667142D01*
X155171714Y-104522000D01*
X155026571Y-104449428D01*
X154736285Y-104376857D01*
X154518571Y-104376857D01*
X154228285Y-104449428D01*
X154083142Y-104522000D01*
X153938000Y-104667142D01*
X153865428Y-104884857D01*
X153865428Y-105030000D01*
X153938000Y-105247714D01*
X154010571Y-105320285D01*
X155389428Y-106771714D02*
X155389428Y-105900857D01*
X155389428Y-106336285D02*
X153865428Y-106336285D01*
X154083142Y-106191142D01*
X154228285Y-106046000D01*
X154300857Y-105900857D01*
X155389428Y-108223142D02*
X155389428Y-107352285D01*
X155389428Y-107787714D02*
X153865428Y-107787714D01*
X154083142Y-107642571D01*
X154228285Y-107497428D01*
X154300857Y-107352285D01*
%TO.C,C13*%
X167874285Y-105320285D02*
X167946857Y-105247714D01*
X168019428Y-105030000D01*
X168019428Y-104884857D01*
X167946857Y-104667142D01*
X167801714Y-104522000D01*
X167656571Y-104449428D01*
X167366285Y-104376857D01*
X167148571Y-104376857D01*
X166858285Y-104449428D01*
X166713142Y-104522000D01*
X166568000Y-104667142D01*
X166495428Y-104884857D01*
X166495428Y-105030000D01*
X166568000Y-105247714D01*
X166640571Y-105320285D01*
X168019428Y-106771714D02*
X168019428Y-105900857D01*
X168019428Y-106336285D02*
X166495428Y-106336285D01*
X166713142Y-106191142D01*
X166858285Y-106046000D01*
X166930857Y-105900857D01*
X166495428Y-107279714D02*
X166495428Y-108223142D01*
X167076000Y-107715142D01*
X167076000Y-107932857D01*
X167148571Y-108078000D01*
X167221142Y-108150571D01*
X167366285Y-108223142D01*
X167729142Y-108223142D01*
X167874285Y-108150571D01*
X167946857Y-108078000D01*
X168019428Y-107932857D01*
X168019428Y-107497428D01*
X167946857Y-107352285D01*
X167874285Y-107279714D01*
%TD*%
M02*
