M48
; DRILL file {KiCad (5.1.9-0-10_14)} date Thursday, May 13, 2021 at 01:43:38 PM
; FORMAT={-:-/ absolute / inch / decimal}
; #@! TF.CreationDate,2021-05-13T13:43:38-04:00
; #@! TF.GenerationSoftware,Kicad,Pcbnew,(5.1.9-0-10_14)
FMAT,2
INCH
T1C0.0150
%
G90
G05
T1
X5.0571Y-3.0098
X5.0571Y-3.2539
X5.0571Y-3.498
X5.0571Y-3.7421
X5.0571Y-4.0138
X5.0571Y-4.2579
X5.0571Y-4.502
X5.0571Y-4.7461
X5.1598Y-3.3598
X5.1598Y-3.522
X5.1598Y-3.6126
X5.1598Y-4.1087
X5.1598Y-4.2614
X5.1598Y-4.352
X5.2029Y-3.7225
X5.2087Y-4.4449
X5.2641Y-3.367
X5.2641Y-3.4458
X5.2641Y-3.5245
X5.2641Y-3.6033
X5.2641Y-3.682
X5.2641Y-3.8395
X5.2641Y-3.9182
X5.2641Y-3.997
X5.2641Y-4.0757
X5.2641Y-4.1544
X5.2641Y-4.2332
X5.2641Y-4.3119
X5.2641Y-4.3907
X5.2641Y-4.4694
X5.2641Y-4.5481
X5.266Y-4.5867
X5.2662Y-3.2875
X5.2688Y-3.7572
X5.3012Y-3.0098
X5.3091Y-3.2185
X5.3189Y-4.622
X5.3445Y-4.6988
X5.4094Y-3.2874
X5.4094Y-3.3268
X5.4094Y-3.4449
X5.4094Y-3.5315
X5.4094Y-3.6024
X5.4094Y-3.6417
X5.4094Y-3.6811
X5.4094Y-3.7205
X5.4094Y-3.815
X5.4094Y-3.8543
X5.4094Y-3.9173
X5.4094Y-3.9567
X5.4094Y-3.9961
X5.4094Y-4.0354
X5.4094Y-4.0748
X5.4094Y-4.1142
X5.4094Y-4.1772
X5.4094Y-4.2126
X5.4094Y-4.252
X5.4094Y-4.4016
X5.4094Y-4.4488
X5.4096Y-4.2914
X5.4096Y-3.4844
X5.4133Y-3.7599
X5.5433Y-3.3661
X5.5433Y-3.4055
X5.5433Y-3.5236
X5.5433Y-3.563
X5.5433Y-3.7205
X5.5433Y-3.878
X5.5433Y-4.0354
X5.5433Y-4.1929
X5.5433Y-4.311
X5.5433Y-4.3504
X5.5453Y-4.624
X5.5453Y-4.8681
X5.5512Y-4.4685
X5.5512Y-4.5079
X5.5886Y-3.0886
X5.5886Y-3.3327
X5.5886Y-3.5768
X5.5886Y-4.1791
X5.5886Y-4.4232
X5.6319Y-3.8642
X5.6622Y-4.3433
X5.6622Y-4.515
X5.6642Y-3.5209
X5.6642Y-3.5945
X5.6642Y-3.7705
X5.6642Y-4.1035
X5.6811Y-3.3543
X5.7244Y-4.2008
X5.7894Y-3.1319
X5.7894Y-3.376
X5.7894Y-3.6201
X5.7894Y-3.8642
X5.7894Y-4.1358
X5.7894Y-4.3799
X5.7894Y-4.624
X5.7894Y-4.8681
X5.8242Y-3.9112
X5.9055Y-4.1496
X6.0181Y-3.937
X6.061Y-3.0098
X6.061Y-3.2539
X6.061Y-3.498
X6.061Y-3.7421
X6.061Y-4.0138
X6.061Y-4.2579
X6.061Y-4.7461
X6.0748Y-4.5315
X6.1539Y-3.3626
X6.1539Y-3.5193
X6.1539Y-3.6106
X6.1539Y-4.1067
X6.1539Y-4.2634
X6.1539Y-4.3469
X6.1539Y-4.5472
X6.1554Y-3.7658
X6.2244Y-4.5748
X6.248Y-4.248
X6.2598Y-3.2874
X6.2598Y-3.3268
X6.2598Y-3.4449
X6.2598Y-3.4843
X6.2598Y-3.5315
X6.2598Y-3.7205
X6.2598Y-3.7598
X6.2598Y-4.5079
X6.2599Y-3.7991
X6.2599Y-3.9172
X6.2599Y-3.9566
X6.2599Y-4.0747
X6.2638Y-4.437
X6.2677Y-4.3937
X6.2678Y-3.6023
X6.2678Y-3.6416
X6.2718Y-4.3503
X6.2795Y-4.626
X6.3051Y-3.0098
X6.315Y-3.2205
X6.3484Y-4.7028
X6.3975Y-4.1928
X6.3975Y-3.8778
X6.3976Y-4.1142
X6.3976Y-4.1535
X6.4016Y-3.2795
X6.4016Y-3.4049
X6.4016Y-3.4606
X6.4016Y-3.563
X6.4016Y-3.6299
X6.4016Y-3.7205
X6.4016Y-3.7835
X6.4016Y-3.9567
X6.4016Y-3.9961
X6.4016Y-4.0354
X6.4016Y-4.2795
X6.4016Y-4.3898
X6.4016Y-4.437
X6.4016Y-4.7441
X6.547Y-3.3259
X6.547Y-3.4046
X6.547Y-3.4834
X6.547Y-3.5621
X6.547Y-3.6408
X6.547Y-3.7196
X6.547Y-3.7983
X6.547Y-3.8771
X6.547Y-3.9558
X6.547Y-4.0345
X6.547Y-4.1133
X6.547Y-4.192
X6.547Y-4.2708
X6.547Y-4.3495
X6.547Y-4.4282
X6.547Y-4.507
X6.5492Y-4.624
X6.5492Y-4.8681
X6.5669Y-4.5669
X6.5925Y-3.0886
X6.5925Y-3.4193
X6.5925Y-3.5768
X6.5925Y-4.1791
X6.5925Y-4.4232
X6.6358Y-3.8642
X6.6512Y-3.3646
X6.6512Y-3.526
X6.6512Y-3.6087
X6.6512Y-3.7693
X6.6512Y-4.0969
X6.6512Y-4.2622
X6.6512Y-4.352
X6.6512Y-4.5134
X6.7933Y-3.1319
X6.7933Y-3.376
X6.7933Y-3.6201
X6.7933Y-3.8642
X6.7933Y-4.1358
X6.7933Y-4.3799
X6.7933Y-4.624
X6.7933Y-4.8681
T0
M30
