G04 #@! TF.GenerationSoftware,KiCad,Pcbnew,5.1.10-88a1d61d58~88~ubuntu18.04.1*
G04 #@! TF.CreationDate,2021-07-16T13:52:33-04:00*
G04 #@! TF.ProjectId,SiPM_Board_RevC,5369504d-5f42-46f6-9172-645f52657643,rev?*
G04 #@! TF.SameCoordinates,PX8f0d180PY5f5e100*
G04 #@! TF.FileFunction,Copper,L3,Inr*
G04 #@! TF.FilePolarity,Positive*
%FSLAX46Y46*%
G04 Gerber Fmt 4.6, Leading zero omitted, Abs format (unit mm)*
G04 Created by KiCad (PCBNEW 5.1.10-88a1d61d58~88~ubuntu18.04.1) date 2021-07-16 13:52:33*
%MOMM*%
%LPD*%
G01*
G04 APERTURE LIST*
G04 #@! TA.AperFunction,ViaPad*
%ADD10C,0.635000*%
G04 #@! TD*
G04 #@! TA.AperFunction,Conductor*
%ADD11C,0.254000*%
G04 #@! TD*
G04 #@! TA.AperFunction,Conductor*
%ADD12C,0.100000*%
G04 #@! TD*
G04 APERTURE END LIST*
D10*
G04 #@! TO.N,GND*
X-16292692Y-3522692D03*
X-16292692Y-1522692D03*
X-16292692Y-7522692D03*
X-16292692Y-5522692D03*
X-16292692Y-9522692D03*
X-16172692Y4567308D03*
X-16292692Y14477308D03*
X-16292692Y6477308D03*
X-16292692Y8477308D03*
X-16292692Y10477308D03*
X-16292692Y477308D03*
X-16292692Y2477308D03*
X2860000Y0D03*
X0Y-5400000D03*
X-2064680Y655320D03*
X-18940000Y10540000D03*
X-17847500Y5447500D03*
X-6130000Y10570000D03*
X-6130000Y4230000D03*
X-18940000Y-8240000D03*
X-4600000Y-6700000D03*
X-6180000Y-14680000D03*
X6347500Y4347500D03*
X6310000Y10610000D03*
X18940000Y4260000D03*
X6310000Y-8290000D03*
X16292692Y15522692D03*
X16292692Y13522692D03*
X16292692Y11522692D03*
X16292692Y9522692D03*
X16292692Y7522692D03*
X16292692Y5522692D03*
X16292692Y3522692D03*
X16292692Y1522692D03*
X18940000Y10440000D03*
X16292692Y-477308D03*
X16292692Y-2477308D03*
X16292692Y-4477308D03*
X16292692Y-6477308D03*
X16292692Y-8477308D03*
X16292692Y-10477308D03*
X16292692Y-12477308D03*
X18940000Y-8260000D03*
X-16300000Y13000000D03*
X7180000Y-14920000D03*
X-21780000Y-12110000D03*
X-16120000Y-13020002D03*
X-16120000Y-11050000D03*
X19672500Y-12362500D03*
G04 #@! TO.N,/BIAS1*
X-16237300Y16497300D03*
X-21550000Y23550000D03*
X-21550000Y17350000D03*
X-21550000Y11150000D03*
X-21550000Y4950000D03*
X-15350000Y23550000D03*
X-15150000Y18250000D03*
X-8050000Y21550000D03*
X-8050000Y15350000D03*
X-8050000Y9150000D03*
X-6950000Y1850000D03*
X-2950000Y20450000D03*
X-2950000Y14250000D03*
X-2950000Y8050000D03*
X-2950000Y1850000D03*
X-18940000Y14660000D03*
X-18940000Y8240000D03*
X-5700000Y14800000D03*
X-6130000Y8700000D03*
X-12740000Y10320000D03*
X-12760000Y5500000D03*
G04 #@! TO.N,/BIAS2*
X-21550000Y-1950000D03*
X-21550000Y-8150000D03*
X-21550000Y-20550000D03*
X-21550000Y-14350000D03*
X-8050000Y-6150000D03*
X-8050000Y-12350000D03*
X-9150000Y-17450000D03*
X-9150000Y-23650000D03*
X-2950000Y-23650000D03*
X-2950000Y-17450000D03*
X-2950000Y-11250000D03*
X-2950000Y-5050000D03*
X-18940000Y-4360000D03*
X-6130000Y-4230000D03*
X-6180000Y-10320000D03*
X-12760000Y-2490000D03*
X-21787500Y-10107500D03*
X-14164894Y-19435106D03*
X-14530000Y-17430000D03*
X-12796705Y-6933770D03*
G04 #@! TO.N,Net-(J1-Pad63)*
X-9000000Y-14500000D03*
G04 #@! TO.N,Net-(J1-Pad61)*
X-9000000Y-13500000D03*
G04 #@! TO.N,Net-(J1-Pad59)*
X-12464894Y-17735106D03*
G04 #@! TO.N,Net-(J1-Pad57)*
X-12500000Y-11500000D03*
G04 #@! TO.N,Net-(J1-Pad55)*
X-9200000Y-10500000D03*
G04 #@! TO.N,Net-(J1-Pad53)*
X-9200000Y-9500000D03*
G04 #@! TO.N,Net-(J1-Pad51)*
X-12750000Y-9200000D03*
G04 #@! TO.N,Net-(J1-Pad49)*
X-12780000Y-7920000D03*
G04 #@! TO.N,Net-(J1-Pad47)*
X-9200000Y-6500000D03*
G04 #@! TO.N,Net-(J1-Pad45)*
X-12750000Y-6100000D03*
G04 #@! TO.N,Net-(J1-Pad43)*
X-12600000Y-4500000D03*
G04 #@! TO.N,Net-(J1-Pad41)*
X-12600000Y-3500000D03*
G04 #@! TO.N,Net-(J1-Pad39)*
X-9200000Y-2500000D03*
G04 #@! TO.N,Net-(J1-Pad37)*
X-12600000Y-1500000D03*
G04 #@! TO.N,Net-(J1-Pad35)*
X-12600000Y-500000D03*
G04 #@! TO.N,Net-(J1-Pad33)*
X-12600000Y500000D03*
G04 #@! TO.N,Net-(J1-Pad31)*
X-9200000Y1500000D03*
G04 #@! TO.N,Net-(J1-Pad29)*
X-12600000Y2100000D03*
G04 #@! TO.N,Net-(J1-Pad27)*
X-12600000Y3100000D03*
G04 #@! TO.N,Net-(J1-Pad25)*
X-12502676Y4497324D03*
G04 #@! TO.N,Net-(J1-Pad23)*
X-9200000Y5500000D03*
G04 #@! TO.N,Net-(J1-Pad21)*
X-12600000Y6500000D03*
G04 #@! TO.N,Net-(J1-Pad19)*
X-12600000Y7500000D03*
G04 #@! TO.N,Net-(J1-Pad17)*
X-12600000Y8500000D03*
G04 #@! TO.N,Net-(J1-Pad15)*
X-9200000Y9500000D03*
G04 #@! TO.N,Net-(J1-Pad13)*
X-9200000Y10500000D03*
G04 #@! TO.N,Net-(J1-Pad11)*
X-12597310Y11497310D03*
G04 #@! TO.N,Net-(J1-Pad9)*
X-12600000Y12500000D03*
G04 #@! TO.N,Net-(J1-Pad7)*
X-9200000Y13500000D03*
G04 #@! TO.N,Net-(J1-Pad5)*
X-9200000Y14500000D03*
G04 #@! TO.N,Net-(J1-Pad3)*
X-12600000Y15500000D03*
G04 #@! TO.N,Net-(J1-Pad1)*
X-12650000Y16770000D03*
G04 #@! TO.N,/BIAS3*
X3950000Y23550000D03*
X3950000Y17350000D03*
X3950000Y11150000D03*
X10150000Y23550000D03*
X10400000Y18200000D03*
X17450000Y21550000D03*
X18550000Y1850000D03*
X22550000Y20450000D03*
X22550000Y14250000D03*
X22550000Y8050000D03*
X22550000Y1850000D03*
X6310000Y8290000D03*
X6310000Y14590000D03*
X18940000Y8340000D03*
X3950000Y4950000D03*
X17450000Y9150000D03*
X17450000Y13150000D03*
X9000000Y10300000D03*
X9000000Y5500000D03*
X18940000Y14540000D03*
X14528000Y18702000D03*
G04 #@! TO.N,/BIAS4*
X3950000Y-1950000D03*
X3950000Y-8150000D03*
X3950000Y-20550000D03*
X11250000Y-19450000D03*
X17450000Y-6150000D03*
X17450000Y-12350000D03*
X16350000Y-17450000D03*
X16350000Y-23650000D03*
X22550000Y-23650000D03*
X22550000Y-17450000D03*
X22550000Y-11250000D03*
X22550000Y-5050000D03*
X18940000Y-4060000D03*
X4300000Y-15100000D03*
X6900000Y-10500000D03*
X6700000Y-4300000D03*
X12750000Y-490000D03*
X12690000Y-9000000D03*
X12760000Y-12700000D03*
X19667500Y-10637500D03*
X14420000Y-17150000D03*
G04 #@! TO.N,Net-(J2-Pad2)*
X7667300Y16497300D03*
G04 #@! TO.N,Net-(J2-Pad4)*
X9000000Y15500000D03*
G04 #@! TO.N,Net-(J2-Pad6)*
X12760000Y16720000D03*
G04 #@! TO.N,Net-(J2-Pad8)*
X12760000Y13710000D03*
X17320000Y15460000D03*
X22200000Y16310000D03*
G04 #@! TO.N,Net-(J2-Pad10)*
X7920000Y12500000D03*
G04 #@! TO.N,Net-(J2-Pad12)*
X9000000Y11500000D03*
G04 #@! TO.N,Net-(J2-Pad14)*
X12770000Y12220000D03*
G04 #@! TO.N,Net-(J2-Pad16)*
X12800000Y9710000D03*
G04 #@! TO.N,Net-(J2-Pad18)*
X9202650Y8502650D03*
G04 #@! TO.N,Net-(J2-Pad20)*
X9202652Y7502652D03*
G04 #@! TO.N,Net-(J2-Pad22)*
X12780000Y7960000D03*
G04 #@! TO.N,Net-(J2-Pad24)*
X12600000Y5500000D03*
G04 #@! TO.N,Net-(J2-Pad26)*
X9000000Y4500000D03*
G04 #@! TO.N,Net-(J2-Pad28)*
X9002660Y3502660D03*
G04 #@! TO.N,Net-(J2-Pad30)*
X12770000Y4000000D03*
G04 #@! TO.N,Net-(J2-Pad32)*
X12497336Y1502664D03*
G04 #@! TO.N,Net-(J2-Pad34)*
X9002666Y502666D03*
G04 #@! TO.N,Net-(J2-Pad36)*
X9002668Y-497332D03*
G04 #@! TO.N,Net-(J2-Pad38)*
X12600000Y-1500000D03*
G04 #@! TO.N,Net-(J2-Pad40)*
X12600000Y-2500000D03*
G04 #@! TO.N,Net-(J2-Pad42)*
X6300000Y-3500000D03*
G04 #@! TO.N,Net-(J2-Pad44)*
X12500000Y-4500000D03*
G04 #@! TO.N,Net-(J2-Pad46)*
X12500000Y-5500000D03*
G04 #@! TO.N,Net-(J2-Pad48)*
X12497320Y-6497320D03*
G04 #@! TO.N,Net-(J2-Pad50)*
X8700000Y-7500000D03*
G04 #@! TO.N,Net-(J2-Pad52)*
X8100000Y-16200000D03*
G04 #@! TO.N,Net-(J2-Pad54)*
X12750000Y-11300000D03*
G04 #@! TO.N,Net-(J2-Pad56)*
X9302688Y-10497312D03*
G04 #@! TO.N,Net-(J2-Pad58)*
X9200000Y-11600000D03*
G04 #@! TO.N,Net-(J2-Pad60)*
X9100000Y-12700000D03*
G04 #@! TO.N,Net-(J2-Pad62)*
X12640000Y-13810000D03*
G04 #@! TO.N,Net-(J2-Pad64)*
X14990000Y-17950000D03*
G04 #@! TD*
D11*
G04 #@! TO.N,/BIAS1*
X-387000Y387000D02*
X-1282308Y387000D01*
X-1270904Y414531D01*
X-1239180Y574015D01*
X-1239180Y736625D01*
X-1270904Y896109D01*
X-1333132Y1046341D01*
X-1423472Y1181545D01*
X-1538455Y1296528D01*
X-1673659Y1386868D01*
X-1823891Y1449096D01*
X-1983375Y1480820D01*
X-2145985Y1480820D01*
X-2305469Y1449096D01*
X-2455701Y1386868D01*
X-2590905Y1296528D01*
X-2705888Y1181545D01*
X-2796228Y1046341D01*
X-2858456Y896109D01*
X-2890180Y736625D01*
X-2890180Y574015D01*
X-2858456Y414531D01*
X-2847052Y387000D01*
X-11780805Y387000D01*
X-11774500Y418695D01*
X-11774500Y581305D01*
X-11806224Y740789D01*
X-11868452Y891021D01*
X-11958792Y1026225D01*
X-12073775Y1141208D01*
X-12208979Y1231548D01*
X-12359211Y1293776D01*
X-12390501Y1300000D01*
X-12359211Y1306224D01*
X-12208979Y1368452D01*
X-12073775Y1458792D01*
X-11958792Y1573775D01*
X-11953761Y1581305D01*
X-10025500Y1581305D01*
X-10025500Y1418695D01*
X-9993776Y1259211D01*
X-9931548Y1108979D01*
X-9841208Y973775D01*
X-9726225Y858792D01*
X-9591021Y768452D01*
X-9440789Y706224D01*
X-9281305Y674500D01*
X-9118695Y674500D01*
X-8959211Y706224D01*
X-8808979Y768452D01*
X-8673775Y858792D01*
X-8558792Y973775D01*
X-8468452Y1108979D01*
X-8406224Y1259211D01*
X-8374500Y1418695D01*
X-8374500Y1581305D01*
X-8406224Y1740789D01*
X-8468452Y1891021D01*
X-8558792Y2026225D01*
X-8673775Y2141208D01*
X-8808979Y2231548D01*
X-8959211Y2293776D01*
X-9118695Y2325500D01*
X-9281305Y2325500D01*
X-9440789Y2293776D01*
X-9591021Y2231548D01*
X-9726225Y2141208D01*
X-9841208Y2026225D01*
X-9931548Y1891021D01*
X-9993776Y1740789D01*
X-10025500Y1581305D01*
X-11953761Y1581305D01*
X-11868452Y1708979D01*
X-11806224Y1859211D01*
X-11774500Y2018695D01*
X-11774500Y2181305D01*
X-11806224Y2340789D01*
X-11868452Y2491021D01*
X-11941269Y2600000D01*
X-11868452Y2708979D01*
X-11806224Y2859211D01*
X-11774500Y3018695D01*
X-11774500Y3181305D01*
X-11806224Y3340789D01*
X-11868452Y3491021D01*
X-11958792Y3626225D01*
X-12073775Y3741208D01*
X-12111099Y3766147D01*
X-11976451Y3856116D01*
X-11861468Y3971099D01*
X-11771128Y4106303D01*
X-11708900Y4256535D01*
X-11698006Y4311305D01*
X-6955500Y4311305D01*
X-6955500Y4148695D01*
X-6923776Y3989211D01*
X-6861548Y3838979D01*
X-6771208Y3703775D01*
X-6656225Y3588792D01*
X-6521021Y3498452D01*
X-6370789Y3436224D01*
X-6211305Y3404500D01*
X-6048695Y3404500D01*
X-5889211Y3436224D01*
X-5738979Y3498452D01*
X-5603775Y3588792D01*
X-5488792Y3703775D01*
X-5398452Y3838979D01*
X-5336224Y3989211D01*
X-5304500Y4148695D01*
X-5304500Y4311305D01*
X-5336224Y4470789D01*
X-5398452Y4621021D01*
X-5488792Y4756225D01*
X-5603775Y4871208D01*
X-5738979Y4961548D01*
X-5889211Y5023776D01*
X-6048695Y5055500D01*
X-6211305Y5055500D01*
X-6370789Y5023776D01*
X-6521021Y4961548D01*
X-6656225Y4871208D01*
X-6771208Y4756225D01*
X-6861548Y4621021D01*
X-6923776Y4470789D01*
X-6955500Y4311305D01*
X-11698006Y4311305D01*
X-11677176Y4416019D01*
X-11677176Y4578629D01*
X-11708900Y4738113D01*
X-11771128Y4888345D01*
X-11861468Y5023549D01*
X-11976451Y5138532D01*
X-12111655Y5228872D01*
X-12261887Y5291100D01*
X-12421371Y5322824D01*
X-12583981Y5322824D01*
X-12743465Y5291100D01*
X-12893697Y5228872D01*
X-13028901Y5138532D01*
X-13143884Y5023549D01*
X-13234224Y4888345D01*
X-13296452Y4738113D01*
X-13328176Y4578629D01*
X-13328176Y4416019D01*
X-13296452Y4256535D01*
X-13234224Y4106303D01*
X-13143884Y3971099D01*
X-13028901Y3856116D01*
X-12991577Y3831177D01*
X-13126225Y3741208D01*
X-13241208Y3626225D01*
X-13331548Y3491021D01*
X-13393776Y3340789D01*
X-13425500Y3181305D01*
X-13425500Y3018695D01*
X-13393776Y2859211D01*
X-13331548Y2708979D01*
X-13258731Y2600000D01*
X-13331548Y2491021D01*
X-13393776Y2340789D01*
X-13425500Y2181305D01*
X-13425500Y2018695D01*
X-13393776Y1859211D01*
X-13331548Y1708979D01*
X-13241208Y1573775D01*
X-13126225Y1458792D01*
X-12991021Y1368452D01*
X-12840789Y1306224D01*
X-12809499Y1300000D01*
X-12840789Y1293776D01*
X-12991021Y1231548D01*
X-13126225Y1141208D01*
X-13241208Y1026225D01*
X-13331548Y891021D01*
X-13393776Y740789D01*
X-13425500Y581305D01*
X-13425500Y418695D01*
X-13419195Y387000D01*
X-15468983Y387000D01*
X-15467192Y396003D01*
X-15467192Y558613D01*
X-15498916Y718097D01*
X-15561144Y868329D01*
X-15651484Y1003533D01*
X-15766467Y1118516D01*
X-15901671Y1208856D01*
X-16051903Y1271084D01*
X-16211387Y1302808D01*
X-16373997Y1302808D01*
X-16533481Y1271084D01*
X-16683713Y1208856D01*
X-16818917Y1118516D01*
X-16933900Y1003533D01*
X-17024240Y868329D01*
X-17086468Y718097D01*
X-17118192Y558613D01*
X-17118192Y396003D01*
X-17116401Y387000D01*
X-24792000Y387000D01*
X-24792000Y2558613D01*
X-17118192Y2558613D01*
X-17118192Y2396003D01*
X-17086468Y2236519D01*
X-17024240Y2086287D01*
X-16933900Y1951083D01*
X-16818917Y1836100D01*
X-16683713Y1745760D01*
X-16533481Y1683532D01*
X-16373997Y1651808D01*
X-16211387Y1651808D01*
X-16051903Y1683532D01*
X-15901671Y1745760D01*
X-15766467Y1836100D01*
X-15651484Y1951083D01*
X-15561144Y2086287D01*
X-15498916Y2236519D01*
X-15467192Y2396003D01*
X-15467192Y2558613D01*
X-15498916Y2718097D01*
X-15561144Y2868329D01*
X-15651484Y3003533D01*
X-15766467Y3118516D01*
X-15901671Y3208856D01*
X-16051903Y3271084D01*
X-16211387Y3302808D01*
X-16373997Y3302808D01*
X-16533481Y3271084D01*
X-16683713Y3208856D01*
X-16818917Y3118516D01*
X-16933900Y3003533D01*
X-17024240Y2868329D01*
X-17086468Y2718097D01*
X-17118192Y2558613D01*
X-24792000Y2558613D01*
X-24792000Y5528805D01*
X-18673000Y5528805D01*
X-18673000Y5366195D01*
X-18641276Y5206711D01*
X-18579048Y5056479D01*
X-18488708Y4921275D01*
X-18373725Y4806292D01*
X-18238521Y4715952D01*
X-18088289Y4653724D01*
X-17928805Y4622000D01*
X-17766195Y4622000D01*
X-17632406Y4648613D01*
X-16998192Y4648613D01*
X-16998192Y4486003D01*
X-16966468Y4326519D01*
X-16904240Y4176287D01*
X-16813900Y4041083D01*
X-16698917Y3926100D01*
X-16563713Y3835760D01*
X-16413481Y3773532D01*
X-16253997Y3741808D01*
X-16091387Y3741808D01*
X-15931903Y3773532D01*
X-15781671Y3835760D01*
X-15646467Y3926100D01*
X-15531484Y4041083D01*
X-15441144Y4176287D01*
X-15378916Y4326519D01*
X-15347192Y4486003D01*
X-15347192Y4648613D01*
X-15378916Y4808097D01*
X-15441144Y4958329D01*
X-15531484Y5093533D01*
X-15646467Y5208516D01*
X-15781671Y5298856D01*
X-15931903Y5361084D01*
X-16091387Y5392808D01*
X-16253997Y5392808D01*
X-16413481Y5361084D01*
X-16563713Y5298856D01*
X-16698917Y5208516D01*
X-16813900Y5093533D01*
X-16904240Y4958329D01*
X-16966468Y4808097D01*
X-16998192Y4648613D01*
X-17632406Y4648613D01*
X-17606711Y4653724D01*
X-17456479Y4715952D01*
X-17321275Y4806292D01*
X-17206292Y4921275D01*
X-17115952Y5056479D01*
X-17053724Y5206711D01*
X-17022000Y5366195D01*
X-17022000Y5528805D01*
X-17032443Y5581305D01*
X-10025500Y5581305D01*
X-10025500Y5418695D01*
X-9993776Y5259211D01*
X-9931548Y5108979D01*
X-9841208Y4973775D01*
X-9726225Y4858792D01*
X-9591021Y4768452D01*
X-9440789Y4706224D01*
X-9281305Y4674500D01*
X-9118695Y4674500D01*
X-8959211Y4706224D01*
X-8808979Y4768452D01*
X-8673775Y4858792D01*
X-8558792Y4973775D01*
X-8468452Y5108979D01*
X-8406224Y5259211D01*
X-8374500Y5418695D01*
X-8374500Y5581305D01*
X-8406224Y5740789D01*
X-8468452Y5891021D01*
X-8558792Y6026225D01*
X-8673775Y6141208D01*
X-8808979Y6231548D01*
X-8959211Y6293776D01*
X-9118695Y6325500D01*
X-9281305Y6325500D01*
X-9440789Y6293776D01*
X-9591021Y6231548D01*
X-9726225Y6141208D01*
X-9841208Y6026225D01*
X-9931548Y5891021D01*
X-9993776Y5740789D01*
X-10025500Y5581305D01*
X-17032443Y5581305D01*
X-17053724Y5688289D01*
X-17115952Y5838521D01*
X-17206292Y5973725D01*
X-17321275Y6088708D01*
X-17456479Y6179048D01*
X-17606711Y6241276D01*
X-17766195Y6273000D01*
X-17928805Y6273000D01*
X-18088289Y6241276D01*
X-18238521Y6179048D01*
X-18373725Y6088708D01*
X-18488708Y5973725D01*
X-18579048Y5838521D01*
X-18641276Y5688289D01*
X-18673000Y5528805D01*
X-24792000Y5528805D01*
X-24792000Y6558613D01*
X-17118192Y6558613D01*
X-17118192Y6396003D01*
X-17086468Y6236519D01*
X-17024240Y6086287D01*
X-16933900Y5951083D01*
X-16818917Y5836100D01*
X-16683713Y5745760D01*
X-16533481Y5683532D01*
X-16373997Y5651808D01*
X-16211387Y5651808D01*
X-16051903Y5683532D01*
X-15901671Y5745760D01*
X-15766467Y5836100D01*
X-15651484Y5951083D01*
X-15561144Y6086287D01*
X-15498916Y6236519D01*
X-15467192Y6396003D01*
X-15467192Y6558613D01*
X-15498916Y6718097D01*
X-15561144Y6868329D01*
X-15651484Y7003533D01*
X-15766467Y7118516D01*
X-15901671Y7208856D01*
X-16051903Y7271084D01*
X-16211387Y7302808D01*
X-16373997Y7302808D01*
X-16533481Y7271084D01*
X-16683713Y7208856D01*
X-16818917Y7118516D01*
X-16933900Y7003533D01*
X-17024240Y6868329D01*
X-17086468Y6718097D01*
X-17118192Y6558613D01*
X-24792000Y6558613D01*
X-24792000Y8558613D01*
X-17118192Y8558613D01*
X-17118192Y8396003D01*
X-17086468Y8236519D01*
X-17024240Y8086287D01*
X-16933900Y7951083D01*
X-16818917Y7836100D01*
X-16683713Y7745760D01*
X-16533481Y7683532D01*
X-16373997Y7651808D01*
X-16211387Y7651808D01*
X-16051903Y7683532D01*
X-15901671Y7745760D01*
X-15766467Y7836100D01*
X-15651484Y7951083D01*
X-15561144Y8086287D01*
X-15498916Y8236519D01*
X-15467192Y8396003D01*
X-15467192Y8558613D01*
X-15471705Y8581305D01*
X-13425500Y8581305D01*
X-13425500Y8418695D01*
X-13393776Y8259211D01*
X-13331548Y8108979D01*
X-13258731Y8000000D01*
X-13331548Y7891021D01*
X-13393776Y7740789D01*
X-13425500Y7581305D01*
X-13425500Y7418695D01*
X-13393776Y7259211D01*
X-13331548Y7108979D01*
X-13258731Y7000000D01*
X-13331548Y6891021D01*
X-13393776Y6740789D01*
X-13425500Y6581305D01*
X-13425500Y6418695D01*
X-13393776Y6259211D01*
X-13331548Y6108979D01*
X-13241208Y5973775D01*
X-13126225Y5858792D01*
X-12991021Y5768452D01*
X-12840789Y5706224D01*
X-12681305Y5674500D01*
X-12518695Y5674500D01*
X-12359211Y5706224D01*
X-12208979Y5768452D01*
X-12073775Y5858792D01*
X-11958792Y5973775D01*
X-11868452Y6108979D01*
X-11806224Y6259211D01*
X-11774500Y6418695D01*
X-11774500Y6581305D01*
X-11806224Y6740789D01*
X-11868452Y6891021D01*
X-11941269Y7000000D01*
X-11868452Y7108979D01*
X-11806224Y7259211D01*
X-11774500Y7418695D01*
X-11774500Y7581305D01*
X-11806224Y7740789D01*
X-11868452Y7891021D01*
X-11941269Y8000000D01*
X-11868452Y8108979D01*
X-11806224Y8259211D01*
X-11774500Y8418695D01*
X-11774500Y8581305D01*
X-11806224Y8740789D01*
X-11868452Y8891021D01*
X-11958792Y9026225D01*
X-12073775Y9141208D01*
X-12208979Y9231548D01*
X-12359211Y9293776D01*
X-12518695Y9325500D01*
X-12681305Y9325500D01*
X-12840789Y9293776D01*
X-12991021Y9231548D01*
X-13126225Y9141208D01*
X-13241208Y9026225D01*
X-13331548Y8891021D01*
X-13393776Y8740789D01*
X-13425500Y8581305D01*
X-15471705Y8581305D01*
X-15498916Y8718097D01*
X-15561144Y8868329D01*
X-15651484Y9003533D01*
X-15766467Y9118516D01*
X-15901671Y9208856D01*
X-16051903Y9271084D01*
X-16211387Y9302808D01*
X-16373997Y9302808D01*
X-16533481Y9271084D01*
X-16683713Y9208856D01*
X-16818917Y9118516D01*
X-16933900Y9003533D01*
X-17024240Y8868329D01*
X-17086468Y8718097D01*
X-17118192Y8558613D01*
X-24792000Y8558613D01*
X-24792000Y10621305D01*
X-19765500Y10621305D01*
X-19765500Y10458695D01*
X-19733776Y10299211D01*
X-19671548Y10148979D01*
X-19581208Y10013775D01*
X-19466225Y9898792D01*
X-19331021Y9808452D01*
X-19180789Y9746224D01*
X-19021305Y9714500D01*
X-18858695Y9714500D01*
X-18699211Y9746224D01*
X-18548979Y9808452D01*
X-18413775Y9898792D01*
X-18298792Y10013775D01*
X-18208452Y10148979D01*
X-18146224Y10299211D01*
X-18114500Y10458695D01*
X-18114500Y10558613D01*
X-17118192Y10558613D01*
X-17118192Y10396003D01*
X-17086468Y10236519D01*
X-17024240Y10086287D01*
X-16933900Y9951083D01*
X-16818917Y9836100D01*
X-16683713Y9745760D01*
X-16533481Y9683532D01*
X-16373997Y9651808D01*
X-16211387Y9651808D01*
X-16051903Y9683532D01*
X-15901671Y9745760D01*
X-15766467Y9836100D01*
X-15651484Y9951083D01*
X-15561144Y10086287D01*
X-15498916Y10236519D01*
X-15467192Y10396003D01*
X-15467192Y10558613D01*
X-15471705Y10581305D01*
X-10025500Y10581305D01*
X-10025500Y10418695D01*
X-9993776Y10259211D01*
X-9931548Y10108979D01*
X-9858731Y10000000D01*
X-9931548Y9891021D01*
X-9993776Y9740789D01*
X-10025500Y9581305D01*
X-10025500Y9418695D01*
X-9993776Y9259211D01*
X-9931548Y9108979D01*
X-9841208Y8973775D01*
X-9726225Y8858792D01*
X-9591021Y8768452D01*
X-9440789Y8706224D01*
X-9281305Y8674500D01*
X-9118695Y8674500D01*
X-8959211Y8706224D01*
X-8808979Y8768452D01*
X-8673775Y8858792D01*
X-8558792Y8973775D01*
X-8468452Y9108979D01*
X-8406224Y9259211D01*
X-8374500Y9418695D01*
X-8374500Y9581305D01*
X-8406224Y9740789D01*
X-8468452Y9891021D01*
X-8541269Y10000000D01*
X-8468452Y10108979D01*
X-8406224Y10259211D01*
X-8374500Y10418695D01*
X-8374500Y10581305D01*
X-8388424Y10651305D01*
X-6955500Y10651305D01*
X-6955500Y10488695D01*
X-6923776Y10329211D01*
X-6861548Y10178979D01*
X-6771208Y10043775D01*
X-6656225Y9928792D01*
X-6521021Y9838452D01*
X-6370789Y9776224D01*
X-6211305Y9744500D01*
X-6048695Y9744500D01*
X-5889211Y9776224D01*
X-5738979Y9838452D01*
X-5603775Y9928792D01*
X-5488792Y10043775D01*
X-5398452Y10178979D01*
X-5336224Y10329211D01*
X-5304500Y10488695D01*
X-5304500Y10651305D01*
X-5336224Y10810789D01*
X-5398452Y10961021D01*
X-5488792Y11096225D01*
X-5603775Y11211208D01*
X-5738979Y11301548D01*
X-5889211Y11363776D01*
X-6048695Y11395500D01*
X-6211305Y11395500D01*
X-6370789Y11363776D01*
X-6521021Y11301548D01*
X-6656225Y11211208D01*
X-6771208Y11096225D01*
X-6861548Y10961021D01*
X-6923776Y10810789D01*
X-6955500Y10651305D01*
X-8388424Y10651305D01*
X-8406224Y10740789D01*
X-8468452Y10891021D01*
X-8558792Y11026225D01*
X-8673775Y11141208D01*
X-8808979Y11231548D01*
X-8959211Y11293776D01*
X-9118695Y11325500D01*
X-9281305Y11325500D01*
X-9440789Y11293776D01*
X-9591021Y11231548D01*
X-9726225Y11141208D01*
X-9841208Y11026225D01*
X-9931548Y10891021D01*
X-9993776Y10740789D01*
X-10025500Y10581305D01*
X-15471705Y10581305D01*
X-15498916Y10718097D01*
X-15561144Y10868329D01*
X-15651484Y11003533D01*
X-15766467Y11118516D01*
X-15901671Y11208856D01*
X-16051903Y11271084D01*
X-16211387Y11302808D01*
X-16373997Y11302808D01*
X-16533481Y11271084D01*
X-16683713Y11208856D01*
X-16818917Y11118516D01*
X-16933900Y11003533D01*
X-17024240Y10868329D01*
X-17086468Y10718097D01*
X-17118192Y10558613D01*
X-18114500Y10558613D01*
X-18114500Y10621305D01*
X-18146224Y10780789D01*
X-18208452Y10931021D01*
X-18298792Y11066225D01*
X-18413775Y11181208D01*
X-18548979Y11271548D01*
X-18699211Y11333776D01*
X-18858695Y11365500D01*
X-19021305Y11365500D01*
X-19180789Y11333776D01*
X-19331021Y11271548D01*
X-19466225Y11181208D01*
X-19581208Y11066225D01*
X-19671548Y10931021D01*
X-19733776Y10780789D01*
X-19765500Y10621305D01*
X-24792000Y10621305D01*
X-24792000Y13081305D01*
X-17125500Y13081305D01*
X-17125500Y12918695D01*
X-17093776Y12759211D01*
X-17031548Y12608979D01*
X-16941208Y12473775D01*
X-16826225Y12358792D01*
X-16691021Y12268452D01*
X-16540789Y12206224D01*
X-16381305Y12174500D01*
X-16218695Y12174500D01*
X-16059211Y12206224D01*
X-15908979Y12268452D01*
X-15773775Y12358792D01*
X-15658792Y12473775D01*
X-15586944Y12581305D01*
X-13425500Y12581305D01*
X-13425500Y12418695D01*
X-13393776Y12259211D01*
X-13331548Y12108979D01*
X-13256487Y11996642D01*
X-13328858Y11888331D01*
X-13391086Y11738099D01*
X-13422810Y11578615D01*
X-13422810Y11416005D01*
X-13391086Y11256521D01*
X-13328858Y11106289D01*
X-13238518Y10971085D01*
X-13123535Y10856102D01*
X-12988331Y10765762D01*
X-12838099Y10703534D01*
X-12678615Y10671810D01*
X-12516005Y10671810D01*
X-12356521Y10703534D01*
X-12206289Y10765762D01*
X-12071085Y10856102D01*
X-11956102Y10971085D01*
X-11865762Y11106289D01*
X-11803534Y11256521D01*
X-11771810Y11416005D01*
X-11771810Y11578615D01*
X-11803534Y11738099D01*
X-11865762Y11888331D01*
X-11940823Y12000668D01*
X-11868452Y12108979D01*
X-11806224Y12259211D01*
X-11774500Y12418695D01*
X-11774500Y12581305D01*
X-11806224Y12740789D01*
X-11868452Y12891021D01*
X-11958792Y13026225D01*
X-12073775Y13141208D01*
X-12208979Y13231548D01*
X-12359211Y13293776D01*
X-12518695Y13325500D01*
X-12681305Y13325500D01*
X-12840789Y13293776D01*
X-12991021Y13231548D01*
X-13126225Y13141208D01*
X-13241208Y13026225D01*
X-13331548Y12891021D01*
X-13393776Y12740789D01*
X-13425500Y12581305D01*
X-15586944Y12581305D01*
X-15568452Y12608979D01*
X-15506224Y12759211D01*
X-15474500Y12918695D01*
X-15474500Y13081305D01*
X-15506224Y13240789D01*
X-15568452Y13391021D01*
X-15658792Y13526225D01*
X-15773775Y13641208D01*
X-15908979Y13731548D01*
X-15922480Y13737140D01*
X-15901671Y13745760D01*
X-15766467Y13836100D01*
X-15651484Y13951083D01*
X-15561144Y14086287D01*
X-15498916Y14236519D01*
X-15467192Y14396003D01*
X-15467192Y14558613D01*
X-15471705Y14581305D01*
X-10025500Y14581305D01*
X-10025500Y14418695D01*
X-9993776Y14259211D01*
X-9931548Y14108979D01*
X-9858731Y14000000D01*
X-9931548Y13891021D01*
X-9993776Y13740789D01*
X-10025500Y13581305D01*
X-10025500Y13418695D01*
X-9993776Y13259211D01*
X-9931548Y13108979D01*
X-9841208Y12973775D01*
X-9726225Y12858792D01*
X-9591021Y12768452D01*
X-9440789Y12706224D01*
X-9281305Y12674500D01*
X-9118695Y12674500D01*
X-8959211Y12706224D01*
X-8808979Y12768452D01*
X-8673775Y12858792D01*
X-8558792Y12973775D01*
X-8468452Y13108979D01*
X-8406224Y13259211D01*
X-8374500Y13418695D01*
X-8374500Y13581305D01*
X-8406224Y13740789D01*
X-8468452Y13891021D01*
X-8541269Y14000000D01*
X-8468452Y14108979D01*
X-8406224Y14259211D01*
X-8374500Y14418695D01*
X-8374500Y14581305D01*
X-8406224Y14740789D01*
X-8468452Y14891021D01*
X-8558792Y15026225D01*
X-8673775Y15141208D01*
X-8808979Y15231548D01*
X-8959211Y15293776D01*
X-9118695Y15325500D01*
X-9281305Y15325500D01*
X-9440789Y15293776D01*
X-9591021Y15231548D01*
X-9726225Y15141208D01*
X-9841208Y15026225D01*
X-9931548Y14891021D01*
X-9993776Y14740789D01*
X-10025500Y14581305D01*
X-15471705Y14581305D01*
X-15498916Y14718097D01*
X-15561144Y14868329D01*
X-15651484Y15003533D01*
X-15766467Y15118516D01*
X-15901671Y15208856D01*
X-16051903Y15271084D01*
X-16211387Y15302808D01*
X-16373997Y15302808D01*
X-16533481Y15271084D01*
X-16683713Y15208856D01*
X-16818917Y15118516D01*
X-16933900Y15003533D01*
X-17024240Y14868329D01*
X-17086468Y14718097D01*
X-17118192Y14558613D01*
X-17118192Y14396003D01*
X-17086468Y14236519D01*
X-17024240Y14086287D01*
X-16933900Y13951083D01*
X-16818917Y13836100D01*
X-16683713Y13745760D01*
X-16670212Y13740168D01*
X-16691021Y13731548D01*
X-16826225Y13641208D01*
X-16941208Y13526225D01*
X-17031548Y13391021D01*
X-17093776Y13240789D01*
X-17125500Y13081305D01*
X-24792000Y13081305D01*
X-24792000Y18422616D01*
X-20002600Y18422616D01*
X-20002600Y18077384D01*
X-19935248Y17738785D01*
X-19803134Y17419833D01*
X-19611333Y17132783D01*
X-19367217Y16888667D01*
X-19080167Y16696866D01*
X-18761215Y16564752D01*
X-18422616Y16497400D01*
X-18077384Y16497400D01*
X-17738785Y16564752D01*
X-17419833Y16696866D01*
X-17188700Y16851305D01*
X-13475500Y16851305D01*
X-13475500Y16688695D01*
X-13443776Y16529211D01*
X-13381548Y16378979D01*
X-13291208Y16243775D01*
X-13176225Y16128792D01*
X-13153695Y16113738D01*
X-13241208Y16026225D01*
X-13331548Y15891021D01*
X-13393776Y15740789D01*
X-13425500Y15581305D01*
X-13425500Y15418695D01*
X-13393776Y15259211D01*
X-13331548Y15108979D01*
X-13241208Y14973775D01*
X-13126225Y14858792D01*
X-12991021Y14768452D01*
X-12840789Y14706224D01*
X-12681305Y14674500D01*
X-12518695Y14674500D01*
X-12359211Y14706224D01*
X-12208979Y14768452D01*
X-12073775Y14858792D01*
X-11958792Y14973775D01*
X-11868452Y15108979D01*
X-11806224Y15259211D01*
X-11774500Y15418695D01*
X-11774500Y15581305D01*
X-11806224Y15740789D01*
X-11868452Y15891021D01*
X-11958792Y16026225D01*
X-12073775Y16141208D01*
X-12096305Y16156262D01*
X-12008792Y16243775D01*
X-11918452Y16378979D01*
X-11856224Y16529211D01*
X-11824500Y16688695D01*
X-11824500Y16851305D01*
X-11856224Y17010789D01*
X-11918452Y17161021D01*
X-12008792Y17296225D01*
X-12123775Y17411208D01*
X-12258979Y17501548D01*
X-12409211Y17563776D01*
X-12568695Y17595500D01*
X-12731305Y17595500D01*
X-12890789Y17563776D01*
X-13041021Y17501548D01*
X-13176225Y17411208D01*
X-13291208Y17296225D01*
X-13381548Y17161021D01*
X-13443776Y17010789D01*
X-13475500Y16851305D01*
X-17188700Y16851305D01*
X-17132783Y16888667D01*
X-16888667Y17132783D01*
X-16696866Y17419833D01*
X-16564752Y17738785D01*
X-16497400Y18077384D01*
X-16497400Y18422616D01*
X-16564752Y18761215D01*
X-16696866Y19080167D01*
X-16888667Y19367217D01*
X-17132783Y19611333D01*
X-17419833Y19803134D01*
X-17738785Y19935248D01*
X-18077384Y20002600D01*
X-18422616Y20002600D01*
X-18761215Y19935248D01*
X-19080167Y19803134D01*
X-19367217Y19611333D01*
X-19611333Y19367217D01*
X-19803134Y19080167D01*
X-19935248Y18761215D01*
X-20002600Y18422616D01*
X-24792000Y18422616D01*
X-24792000Y24792000D01*
X-387000Y24792000D01*
X-387000Y387000D01*
G04 #@! TA.AperFunction,Conductor*
D12*
G36*
X-387000Y387000D02*
G01*
X-1282308Y387000D01*
X-1270904Y414531D01*
X-1239180Y574015D01*
X-1239180Y736625D01*
X-1270904Y896109D01*
X-1333132Y1046341D01*
X-1423472Y1181545D01*
X-1538455Y1296528D01*
X-1673659Y1386868D01*
X-1823891Y1449096D01*
X-1983375Y1480820D01*
X-2145985Y1480820D01*
X-2305469Y1449096D01*
X-2455701Y1386868D01*
X-2590905Y1296528D01*
X-2705888Y1181545D01*
X-2796228Y1046341D01*
X-2858456Y896109D01*
X-2890180Y736625D01*
X-2890180Y574015D01*
X-2858456Y414531D01*
X-2847052Y387000D01*
X-11780805Y387000D01*
X-11774500Y418695D01*
X-11774500Y581305D01*
X-11806224Y740789D01*
X-11868452Y891021D01*
X-11958792Y1026225D01*
X-12073775Y1141208D01*
X-12208979Y1231548D01*
X-12359211Y1293776D01*
X-12390501Y1300000D01*
X-12359211Y1306224D01*
X-12208979Y1368452D01*
X-12073775Y1458792D01*
X-11958792Y1573775D01*
X-11953761Y1581305D01*
X-10025500Y1581305D01*
X-10025500Y1418695D01*
X-9993776Y1259211D01*
X-9931548Y1108979D01*
X-9841208Y973775D01*
X-9726225Y858792D01*
X-9591021Y768452D01*
X-9440789Y706224D01*
X-9281305Y674500D01*
X-9118695Y674500D01*
X-8959211Y706224D01*
X-8808979Y768452D01*
X-8673775Y858792D01*
X-8558792Y973775D01*
X-8468452Y1108979D01*
X-8406224Y1259211D01*
X-8374500Y1418695D01*
X-8374500Y1581305D01*
X-8406224Y1740789D01*
X-8468452Y1891021D01*
X-8558792Y2026225D01*
X-8673775Y2141208D01*
X-8808979Y2231548D01*
X-8959211Y2293776D01*
X-9118695Y2325500D01*
X-9281305Y2325500D01*
X-9440789Y2293776D01*
X-9591021Y2231548D01*
X-9726225Y2141208D01*
X-9841208Y2026225D01*
X-9931548Y1891021D01*
X-9993776Y1740789D01*
X-10025500Y1581305D01*
X-11953761Y1581305D01*
X-11868452Y1708979D01*
X-11806224Y1859211D01*
X-11774500Y2018695D01*
X-11774500Y2181305D01*
X-11806224Y2340789D01*
X-11868452Y2491021D01*
X-11941269Y2600000D01*
X-11868452Y2708979D01*
X-11806224Y2859211D01*
X-11774500Y3018695D01*
X-11774500Y3181305D01*
X-11806224Y3340789D01*
X-11868452Y3491021D01*
X-11958792Y3626225D01*
X-12073775Y3741208D01*
X-12111099Y3766147D01*
X-11976451Y3856116D01*
X-11861468Y3971099D01*
X-11771128Y4106303D01*
X-11708900Y4256535D01*
X-11698006Y4311305D01*
X-6955500Y4311305D01*
X-6955500Y4148695D01*
X-6923776Y3989211D01*
X-6861548Y3838979D01*
X-6771208Y3703775D01*
X-6656225Y3588792D01*
X-6521021Y3498452D01*
X-6370789Y3436224D01*
X-6211305Y3404500D01*
X-6048695Y3404500D01*
X-5889211Y3436224D01*
X-5738979Y3498452D01*
X-5603775Y3588792D01*
X-5488792Y3703775D01*
X-5398452Y3838979D01*
X-5336224Y3989211D01*
X-5304500Y4148695D01*
X-5304500Y4311305D01*
X-5336224Y4470789D01*
X-5398452Y4621021D01*
X-5488792Y4756225D01*
X-5603775Y4871208D01*
X-5738979Y4961548D01*
X-5889211Y5023776D01*
X-6048695Y5055500D01*
X-6211305Y5055500D01*
X-6370789Y5023776D01*
X-6521021Y4961548D01*
X-6656225Y4871208D01*
X-6771208Y4756225D01*
X-6861548Y4621021D01*
X-6923776Y4470789D01*
X-6955500Y4311305D01*
X-11698006Y4311305D01*
X-11677176Y4416019D01*
X-11677176Y4578629D01*
X-11708900Y4738113D01*
X-11771128Y4888345D01*
X-11861468Y5023549D01*
X-11976451Y5138532D01*
X-12111655Y5228872D01*
X-12261887Y5291100D01*
X-12421371Y5322824D01*
X-12583981Y5322824D01*
X-12743465Y5291100D01*
X-12893697Y5228872D01*
X-13028901Y5138532D01*
X-13143884Y5023549D01*
X-13234224Y4888345D01*
X-13296452Y4738113D01*
X-13328176Y4578629D01*
X-13328176Y4416019D01*
X-13296452Y4256535D01*
X-13234224Y4106303D01*
X-13143884Y3971099D01*
X-13028901Y3856116D01*
X-12991577Y3831177D01*
X-13126225Y3741208D01*
X-13241208Y3626225D01*
X-13331548Y3491021D01*
X-13393776Y3340789D01*
X-13425500Y3181305D01*
X-13425500Y3018695D01*
X-13393776Y2859211D01*
X-13331548Y2708979D01*
X-13258731Y2600000D01*
X-13331548Y2491021D01*
X-13393776Y2340789D01*
X-13425500Y2181305D01*
X-13425500Y2018695D01*
X-13393776Y1859211D01*
X-13331548Y1708979D01*
X-13241208Y1573775D01*
X-13126225Y1458792D01*
X-12991021Y1368452D01*
X-12840789Y1306224D01*
X-12809499Y1300000D01*
X-12840789Y1293776D01*
X-12991021Y1231548D01*
X-13126225Y1141208D01*
X-13241208Y1026225D01*
X-13331548Y891021D01*
X-13393776Y740789D01*
X-13425500Y581305D01*
X-13425500Y418695D01*
X-13419195Y387000D01*
X-15468983Y387000D01*
X-15467192Y396003D01*
X-15467192Y558613D01*
X-15498916Y718097D01*
X-15561144Y868329D01*
X-15651484Y1003533D01*
X-15766467Y1118516D01*
X-15901671Y1208856D01*
X-16051903Y1271084D01*
X-16211387Y1302808D01*
X-16373997Y1302808D01*
X-16533481Y1271084D01*
X-16683713Y1208856D01*
X-16818917Y1118516D01*
X-16933900Y1003533D01*
X-17024240Y868329D01*
X-17086468Y718097D01*
X-17118192Y558613D01*
X-17118192Y396003D01*
X-17116401Y387000D01*
X-24792000Y387000D01*
X-24792000Y2558613D01*
X-17118192Y2558613D01*
X-17118192Y2396003D01*
X-17086468Y2236519D01*
X-17024240Y2086287D01*
X-16933900Y1951083D01*
X-16818917Y1836100D01*
X-16683713Y1745760D01*
X-16533481Y1683532D01*
X-16373997Y1651808D01*
X-16211387Y1651808D01*
X-16051903Y1683532D01*
X-15901671Y1745760D01*
X-15766467Y1836100D01*
X-15651484Y1951083D01*
X-15561144Y2086287D01*
X-15498916Y2236519D01*
X-15467192Y2396003D01*
X-15467192Y2558613D01*
X-15498916Y2718097D01*
X-15561144Y2868329D01*
X-15651484Y3003533D01*
X-15766467Y3118516D01*
X-15901671Y3208856D01*
X-16051903Y3271084D01*
X-16211387Y3302808D01*
X-16373997Y3302808D01*
X-16533481Y3271084D01*
X-16683713Y3208856D01*
X-16818917Y3118516D01*
X-16933900Y3003533D01*
X-17024240Y2868329D01*
X-17086468Y2718097D01*
X-17118192Y2558613D01*
X-24792000Y2558613D01*
X-24792000Y5528805D01*
X-18673000Y5528805D01*
X-18673000Y5366195D01*
X-18641276Y5206711D01*
X-18579048Y5056479D01*
X-18488708Y4921275D01*
X-18373725Y4806292D01*
X-18238521Y4715952D01*
X-18088289Y4653724D01*
X-17928805Y4622000D01*
X-17766195Y4622000D01*
X-17632406Y4648613D01*
X-16998192Y4648613D01*
X-16998192Y4486003D01*
X-16966468Y4326519D01*
X-16904240Y4176287D01*
X-16813900Y4041083D01*
X-16698917Y3926100D01*
X-16563713Y3835760D01*
X-16413481Y3773532D01*
X-16253997Y3741808D01*
X-16091387Y3741808D01*
X-15931903Y3773532D01*
X-15781671Y3835760D01*
X-15646467Y3926100D01*
X-15531484Y4041083D01*
X-15441144Y4176287D01*
X-15378916Y4326519D01*
X-15347192Y4486003D01*
X-15347192Y4648613D01*
X-15378916Y4808097D01*
X-15441144Y4958329D01*
X-15531484Y5093533D01*
X-15646467Y5208516D01*
X-15781671Y5298856D01*
X-15931903Y5361084D01*
X-16091387Y5392808D01*
X-16253997Y5392808D01*
X-16413481Y5361084D01*
X-16563713Y5298856D01*
X-16698917Y5208516D01*
X-16813900Y5093533D01*
X-16904240Y4958329D01*
X-16966468Y4808097D01*
X-16998192Y4648613D01*
X-17632406Y4648613D01*
X-17606711Y4653724D01*
X-17456479Y4715952D01*
X-17321275Y4806292D01*
X-17206292Y4921275D01*
X-17115952Y5056479D01*
X-17053724Y5206711D01*
X-17022000Y5366195D01*
X-17022000Y5528805D01*
X-17032443Y5581305D01*
X-10025500Y5581305D01*
X-10025500Y5418695D01*
X-9993776Y5259211D01*
X-9931548Y5108979D01*
X-9841208Y4973775D01*
X-9726225Y4858792D01*
X-9591021Y4768452D01*
X-9440789Y4706224D01*
X-9281305Y4674500D01*
X-9118695Y4674500D01*
X-8959211Y4706224D01*
X-8808979Y4768452D01*
X-8673775Y4858792D01*
X-8558792Y4973775D01*
X-8468452Y5108979D01*
X-8406224Y5259211D01*
X-8374500Y5418695D01*
X-8374500Y5581305D01*
X-8406224Y5740789D01*
X-8468452Y5891021D01*
X-8558792Y6026225D01*
X-8673775Y6141208D01*
X-8808979Y6231548D01*
X-8959211Y6293776D01*
X-9118695Y6325500D01*
X-9281305Y6325500D01*
X-9440789Y6293776D01*
X-9591021Y6231548D01*
X-9726225Y6141208D01*
X-9841208Y6026225D01*
X-9931548Y5891021D01*
X-9993776Y5740789D01*
X-10025500Y5581305D01*
X-17032443Y5581305D01*
X-17053724Y5688289D01*
X-17115952Y5838521D01*
X-17206292Y5973725D01*
X-17321275Y6088708D01*
X-17456479Y6179048D01*
X-17606711Y6241276D01*
X-17766195Y6273000D01*
X-17928805Y6273000D01*
X-18088289Y6241276D01*
X-18238521Y6179048D01*
X-18373725Y6088708D01*
X-18488708Y5973725D01*
X-18579048Y5838521D01*
X-18641276Y5688289D01*
X-18673000Y5528805D01*
X-24792000Y5528805D01*
X-24792000Y6558613D01*
X-17118192Y6558613D01*
X-17118192Y6396003D01*
X-17086468Y6236519D01*
X-17024240Y6086287D01*
X-16933900Y5951083D01*
X-16818917Y5836100D01*
X-16683713Y5745760D01*
X-16533481Y5683532D01*
X-16373997Y5651808D01*
X-16211387Y5651808D01*
X-16051903Y5683532D01*
X-15901671Y5745760D01*
X-15766467Y5836100D01*
X-15651484Y5951083D01*
X-15561144Y6086287D01*
X-15498916Y6236519D01*
X-15467192Y6396003D01*
X-15467192Y6558613D01*
X-15498916Y6718097D01*
X-15561144Y6868329D01*
X-15651484Y7003533D01*
X-15766467Y7118516D01*
X-15901671Y7208856D01*
X-16051903Y7271084D01*
X-16211387Y7302808D01*
X-16373997Y7302808D01*
X-16533481Y7271084D01*
X-16683713Y7208856D01*
X-16818917Y7118516D01*
X-16933900Y7003533D01*
X-17024240Y6868329D01*
X-17086468Y6718097D01*
X-17118192Y6558613D01*
X-24792000Y6558613D01*
X-24792000Y8558613D01*
X-17118192Y8558613D01*
X-17118192Y8396003D01*
X-17086468Y8236519D01*
X-17024240Y8086287D01*
X-16933900Y7951083D01*
X-16818917Y7836100D01*
X-16683713Y7745760D01*
X-16533481Y7683532D01*
X-16373997Y7651808D01*
X-16211387Y7651808D01*
X-16051903Y7683532D01*
X-15901671Y7745760D01*
X-15766467Y7836100D01*
X-15651484Y7951083D01*
X-15561144Y8086287D01*
X-15498916Y8236519D01*
X-15467192Y8396003D01*
X-15467192Y8558613D01*
X-15471705Y8581305D01*
X-13425500Y8581305D01*
X-13425500Y8418695D01*
X-13393776Y8259211D01*
X-13331548Y8108979D01*
X-13258731Y8000000D01*
X-13331548Y7891021D01*
X-13393776Y7740789D01*
X-13425500Y7581305D01*
X-13425500Y7418695D01*
X-13393776Y7259211D01*
X-13331548Y7108979D01*
X-13258731Y7000000D01*
X-13331548Y6891021D01*
X-13393776Y6740789D01*
X-13425500Y6581305D01*
X-13425500Y6418695D01*
X-13393776Y6259211D01*
X-13331548Y6108979D01*
X-13241208Y5973775D01*
X-13126225Y5858792D01*
X-12991021Y5768452D01*
X-12840789Y5706224D01*
X-12681305Y5674500D01*
X-12518695Y5674500D01*
X-12359211Y5706224D01*
X-12208979Y5768452D01*
X-12073775Y5858792D01*
X-11958792Y5973775D01*
X-11868452Y6108979D01*
X-11806224Y6259211D01*
X-11774500Y6418695D01*
X-11774500Y6581305D01*
X-11806224Y6740789D01*
X-11868452Y6891021D01*
X-11941269Y7000000D01*
X-11868452Y7108979D01*
X-11806224Y7259211D01*
X-11774500Y7418695D01*
X-11774500Y7581305D01*
X-11806224Y7740789D01*
X-11868452Y7891021D01*
X-11941269Y8000000D01*
X-11868452Y8108979D01*
X-11806224Y8259211D01*
X-11774500Y8418695D01*
X-11774500Y8581305D01*
X-11806224Y8740789D01*
X-11868452Y8891021D01*
X-11958792Y9026225D01*
X-12073775Y9141208D01*
X-12208979Y9231548D01*
X-12359211Y9293776D01*
X-12518695Y9325500D01*
X-12681305Y9325500D01*
X-12840789Y9293776D01*
X-12991021Y9231548D01*
X-13126225Y9141208D01*
X-13241208Y9026225D01*
X-13331548Y8891021D01*
X-13393776Y8740789D01*
X-13425500Y8581305D01*
X-15471705Y8581305D01*
X-15498916Y8718097D01*
X-15561144Y8868329D01*
X-15651484Y9003533D01*
X-15766467Y9118516D01*
X-15901671Y9208856D01*
X-16051903Y9271084D01*
X-16211387Y9302808D01*
X-16373997Y9302808D01*
X-16533481Y9271084D01*
X-16683713Y9208856D01*
X-16818917Y9118516D01*
X-16933900Y9003533D01*
X-17024240Y8868329D01*
X-17086468Y8718097D01*
X-17118192Y8558613D01*
X-24792000Y8558613D01*
X-24792000Y10621305D01*
X-19765500Y10621305D01*
X-19765500Y10458695D01*
X-19733776Y10299211D01*
X-19671548Y10148979D01*
X-19581208Y10013775D01*
X-19466225Y9898792D01*
X-19331021Y9808452D01*
X-19180789Y9746224D01*
X-19021305Y9714500D01*
X-18858695Y9714500D01*
X-18699211Y9746224D01*
X-18548979Y9808452D01*
X-18413775Y9898792D01*
X-18298792Y10013775D01*
X-18208452Y10148979D01*
X-18146224Y10299211D01*
X-18114500Y10458695D01*
X-18114500Y10558613D01*
X-17118192Y10558613D01*
X-17118192Y10396003D01*
X-17086468Y10236519D01*
X-17024240Y10086287D01*
X-16933900Y9951083D01*
X-16818917Y9836100D01*
X-16683713Y9745760D01*
X-16533481Y9683532D01*
X-16373997Y9651808D01*
X-16211387Y9651808D01*
X-16051903Y9683532D01*
X-15901671Y9745760D01*
X-15766467Y9836100D01*
X-15651484Y9951083D01*
X-15561144Y10086287D01*
X-15498916Y10236519D01*
X-15467192Y10396003D01*
X-15467192Y10558613D01*
X-15471705Y10581305D01*
X-10025500Y10581305D01*
X-10025500Y10418695D01*
X-9993776Y10259211D01*
X-9931548Y10108979D01*
X-9858731Y10000000D01*
X-9931548Y9891021D01*
X-9993776Y9740789D01*
X-10025500Y9581305D01*
X-10025500Y9418695D01*
X-9993776Y9259211D01*
X-9931548Y9108979D01*
X-9841208Y8973775D01*
X-9726225Y8858792D01*
X-9591021Y8768452D01*
X-9440789Y8706224D01*
X-9281305Y8674500D01*
X-9118695Y8674500D01*
X-8959211Y8706224D01*
X-8808979Y8768452D01*
X-8673775Y8858792D01*
X-8558792Y8973775D01*
X-8468452Y9108979D01*
X-8406224Y9259211D01*
X-8374500Y9418695D01*
X-8374500Y9581305D01*
X-8406224Y9740789D01*
X-8468452Y9891021D01*
X-8541269Y10000000D01*
X-8468452Y10108979D01*
X-8406224Y10259211D01*
X-8374500Y10418695D01*
X-8374500Y10581305D01*
X-8388424Y10651305D01*
X-6955500Y10651305D01*
X-6955500Y10488695D01*
X-6923776Y10329211D01*
X-6861548Y10178979D01*
X-6771208Y10043775D01*
X-6656225Y9928792D01*
X-6521021Y9838452D01*
X-6370789Y9776224D01*
X-6211305Y9744500D01*
X-6048695Y9744500D01*
X-5889211Y9776224D01*
X-5738979Y9838452D01*
X-5603775Y9928792D01*
X-5488792Y10043775D01*
X-5398452Y10178979D01*
X-5336224Y10329211D01*
X-5304500Y10488695D01*
X-5304500Y10651305D01*
X-5336224Y10810789D01*
X-5398452Y10961021D01*
X-5488792Y11096225D01*
X-5603775Y11211208D01*
X-5738979Y11301548D01*
X-5889211Y11363776D01*
X-6048695Y11395500D01*
X-6211305Y11395500D01*
X-6370789Y11363776D01*
X-6521021Y11301548D01*
X-6656225Y11211208D01*
X-6771208Y11096225D01*
X-6861548Y10961021D01*
X-6923776Y10810789D01*
X-6955500Y10651305D01*
X-8388424Y10651305D01*
X-8406224Y10740789D01*
X-8468452Y10891021D01*
X-8558792Y11026225D01*
X-8673775Y11141208D01*
X-8808979Y11231548D01*
X-8959211Y11293776D01*
X-9118695Y11325500D01*
X-9281305Y11325500D01*
X-9440789Y11293776D01*
X-9591021Y11231548D01*
X-9726225Y11141208D01*
X-9841208Y11026225D01*
X-9931548Y10891021D01*
X-9993776Y10740789D01*
X-10025500Y10581305D01*
X-15471705Y10581305D01*
X-15498916Y10718097D01*
X-15561144Y10868329D01*
X-15651484Y11003533D01*
X-15766467Y11118516D01*
X-15901671Y11208856D01*
X-16051903Y11271084D01*
X-16211387Y11302808D01*
X-16373997Y11302808D01*
X-16533481Y11271084D01*
X-16683713Y11208856D01*
X-16818917Y11118516D01*
X-16933900Y11003533D01*
X-17024240Y10868329D01*
X-17086468Y10718097D01*
X-17118192Y10558613D01*
X-18114500Y10558613D01*
X-18114500Y10621305D01*
X-18146224Y10780789D01*
X-18208452Y10931021D01*
X-18298792Y11066225D01*
X-18413775Y11181208D01*
X-18548979Y11271548D01*
X-18699211Y11333776D01*
X-18858695Y11365500D01*
X-19021305Y11365500D01*
X-19180789Y11333776D01*
X-19331021Y11271548D01*
X-19466225Y11181208D01*
X-19581208Y11066225D01*
X-19671548Y10931021D01*
X-19733776Y10780789D01*
X-19765500Y10621305D01*
X-24792000Y10621305D01*
X-24792000Y13081305D01*
X-17125500Y13081305D01*
X-17125500Y12918695D01*
X-17093776Y12759211D01*
X-17031548Y12608979D01*
X-16941208Y12473775D01*
X-16826225Y12358792D01*
X-16691021Y12268452D01*
X-16540789Y12206224D01*
X-16381305Y12174500D01*
X-16218695Y12174500D01*
X-16059211Y12206224D01*
X-15908979Y12268452D01*
X-15773775Y12358792D01*
X-15658792Y12473775D01*
X-15586944Y12581305D01*
X-13425500Y12581305D01*
X-13425500Y12418695D01*
X-13393776Y12259211D01*
X-13331548Y12108979D01*
X-13256487Y11996642D01*
X-13328858Y11888331D01*
X-13391086Y11738099D01*
X-13422810Y11578615D01*
X-13422810Y11416005D01*
X-13391086Y11256521D01*
X-13328858Y11106289D01*
X-13238518Y10971085D01*
X-13123535Y10856102D01*
X-12988331Y10765762D01*
X-12838099Y10703534D01*
X-12678615Y10671810D01*
X-12516005Y10671810D01*
X-12356521Y10703534D01*
X-12206289Y10765762D01*
X-12071085Y10856102D01*
X-11956102Y10971085D01*
X-11865762Y11106289D01*
X-11803534Y11256521D01*
X-11771810Y11416005D01*
X-11771810Y11578615D01*
X-11803534Y11738099D01*
X-11865762Y11888331D01*
X-11940823Y12000668D01*
X-11868452Y12108979D01*
X-11806224Y12259211D01*
X-11774500Y12418695D01*
X-11774500Y12581305D01*
X-11806224Y12740789D01*
X-11868452Y12891021D01*
X-11958792Y13026225D01*
X-12073775Y13141208D01*
X-12208979Y13231548D01*
X-12359211Y13293776D01*
X-12518695Y13325500D01*
X-12681305Y13325500D01*
X-12840789Y13293776D01*
X-12991021Y13231548D01*
X-13126225Y13141208D01*
X-13241208Y13026225D01*
X-13331548Y12891021D01*
X-13393776Y12740789D01*
X-13425500Y12581305D01*
X-15586944Y12581305D01*
X-15568452Y12608979D01*
X-15506224Y12759211D01*
X-15474500Y12918695D01*
X-15474500Y13081305D01*
X-15506224Y13240789D01*
X-15568452Y13391021D01*
X-15658792Y13526225D01*
X-15773775Y13641208D01*
X-15908979Y13731548D01*
X-15922480Y13737140D01*
X-15901671Y13745760D01*
X-15766467Y13836100D01*
X-15651484Y13951083D01*
X-15561144Y14086287D01*
X-15498916Y14236519D01*
X-15467192Y14396003D01*
X-15467192Y14558613D01*
X-15471705Y14581305D01*
X-10025500Y14581305D01*
X-10025500Y14418695D01*
X-9993776Y14259211D01*
X-9931548Y14108979D01*
X-9858731Y14000000D01*
X-9931548Y13891021D01*
X-9993776Y13740789D01*
X-10025500Y13581305D01*
X-10025500Y13418695D01*
X-9993776Y13259211D01*
X-9931548Y13108979D01*
X-9841208Y12973775D01*
X-9726225Y12858792D01*
X-9591021Y12768452D01*
X-9440789Y12706224D01*
X-9281305Y12674500D01*
X-9118695Y12674500D01*
X-8959211Y12706224D01*
X-8808979Y12768452D01*
X-8673775Y12858792D01*
X-8558792Y12973775D01*
X-8468452Y13108979D01*
X-8406224Y13259211D01*
X-8374500Y13418695D01*
X-8374500Y13581305D01*
X-8406224Y13740789D01*
X-8468452Y13891021D01*
X-8541269Y14000000D01*
X-8468452Y14108979D01*
X-8406224Y14259211D01*
X-8374500Y14418695D01*
X-8374500Y14581305D01*
X-8406224Y14740789D01*
X-8468452Y14891021D01*
X-8558792Y15026225D01*
X-8673775Y15141208D01*
X-8808979Y15231548D01*
X-8959211Y15293776D01*
X-9118695Y15325500D01*
X-9281305Y15325500D01*
X-9440789Y15293776D01*
X-9591021Y15231548D01*
X-9726225Y15141208D01*
X-9841208Y15026225D01*
X-9931548Y14891021D01*
X-9993776Y14740789D01*
X-10025500Y14581305D01*
X-15471705Y14581305D01*
X-15498916Y14718097D01*
X-15561144Y14868329D01*
X-15651484Y15003533D01*
X-15766467Y15118516D01*
X-15901671Y15208856D01*
X-16051903Y15271084D01*
X-16211387Y15302808D01*
X-16373997Y15302808D01*
X-16533481Y15271084D01*
X-16683713Y15208856D01*
X-16818917Y15118516D01*
X-16933900Y15003533D01*
X-17024240Y14868329D01*
X-17086468Y14718097D01*
X-17118192Y14558613D01*
X-17118192Y14396003D01*
X-17086468Y14236519D01*
X-17024240Y14086287D01*
X-16933900Y13951083D01*
X-16818917Y13836100D01*
X-16683713Y13745760D01*
X-16670212Y13740168D01*
X-16691021Y13731548D01*
X-16826225Y13641208D01*
X-16941208Y13526225D01*
X-17031548Y13391021D01*
X-17093776Y13240789D01*
X-17125500Y13081305D01*
X-24792000Y13081305D01*
X-24792000Y18422616D01*
X-20002600Y18422616D01*
X-20002600Y18077384D01*
X-19935248Y17738785D01*
X-19803134Y17419833D01*
X-19611333Y17132783D01*
X-19367217Y16888667D01*
X-19080167Y16696866D01*
X-18761215Y16564752D01*
X-18422616Y16497400D01*
X-18077384Y16497400D01*
X-17738785Y16564752D01*
X-17419833Y16696866D01*
X-17188700Y16851305D01*
X-13475500Y16851305D01*
X-13475500Y16688695D01*
X-13443776Y16529211D01*
X-13381548Y16378979D01*
X-13291208Y16243775D01*
X-13176225Y16128792D01*
X-13153695Y16113738D01*
X-13241208Y16026225D01*
X-13331548Y15891021D01*
X-13393776Y15740789D01*
X-13425500Y15581305D01*
X-13425500Y15418695D01*
X-13393776Y15259211D01*
X-13331548Y15108979D01*
X-13241208Y14973775D01*
X-13126225Y14858792D01*
X-12991021Y14768452D01*
X-12840789Y14706224D01*
X-12681305Y14674500D01*
X-12518695Y14674500D01*
X-12359211Y14706224D01*
X-12208979Y14768452D01*
X-12073775Y14858792D01*
X-11958792Y14973775D01*
X-11868452Y15108979D01*
X-11806224Y15259211D01*
X-11774500Y15418695D01*
X-11774500Y15581305D01*
X-11806224Y15740789D01*
X-11868452Y15891021D01*
X-11958792Y16026225D01*
X-12073775Y16141208D01*
X-12096305Y16156262D01*
X-12008792Y16243775D01*
X-11918452Y16378979D01*
X-11856224Y16529211D01*
X-11824500Y16688695D01*
X-11824500Y16851305D01*
X-11856224Y17010789D01*
X-11918452Y17161021D01*
X-12008792Y17296225D01*
X-12123775Y17411208D01*
X-12258979Y17501548D01*
X-12409211Y17563776D01*
X-12568695Y17595500D01*
X-12731305Y17595500D01*
X-12890789Y17563776D01*
X-13041021Y17501548D01*
X-13176225Y17411208D01*
X-13291208Y17296225D01*
X-13381548Y17161021D01*
X-13443776Y17010789D01*
X-13475500Y16851305D01*
X-17188700Y16851305D01*
X-17132783Y16888667D01*
X-16888667Y17132783D01*
X-16696866Y17419833D01*
X-16564752Y17738785D01*
X-16497400Y18077384D01*
X-16497400Y18422616D01*
X-16564752Y18761215D01*
X-16696866Y19080167D01*
X-16888667Y19367217D01*
X-17132783Y19611333D01*
X-17419833Y19803134D01*
X-17738785Y19935248D01*
X-18077384Y20002600D01*
X-18422616Y20002600D01*
X-18761215Y19935248D01*
X-19080167Y19803134D01*
X-19367217Y19611333D01*
X-19611333Y19367217D01*
X-19803134Y19080167D01*
X-19935248Y18761215D01*
X-20002600Y18422616D01*
X-24792000Y18422616D01*
X-24792000Y24792000D01*
X-387000Y24792000D01*
X-387000Y387000D01*
G37*
G04 #@! TD.AperFunction*
G04 #@! TD*
D11*
G04 #@! TO.N,/BIAS3*
X24892000Y387000D02*
X9821331Y387000D01*
X9828166Y421361D01*
X9828166Y583971D01*
X9796442Y743455D01*
X9734214Y893687D01*
X9643874Y1028891D01*
X9528891Y1143874D01*
X9393687Y1234214D01*
X9243455Y1296442D01*
X9083971Y1328166D01*
X8921361Y1328166D01*
X8761877Y1296442D01*
X8611645Y1234214D01*
X8476441Y1143874D01*
X8361458Y1028891D01*
X8271118Y893687D01*
X8208890Y743455D01*
X8177166Y583971D01*
X8177166Y421361D01*
X8184001Y387000D01*
X3593214Y387000D01*
X3591548Y391021D01*
X3501208Y526225D01*
X3386225Y641208D01*
X3251021Y731548D01*
X3100789Y793776D01*
X2941305Y825500D01*
X2778695Y825500D01*
X2619211Y793776D01*
X2468979Y731548D01*
X2333775Y641208D01*
X2218792Y526225D01*
X2128452Y391021D01*
X2126786Y387000D01*
X487000Y387000D01*
X487000Y1583969D01*
X11671836Y1583969D01*
X11671836Y1421359D01*
X11703560Y1261875D01*
X11765788Y1111643D01*
X11856128Y976439D01*
X11971111Y861456D01*
X12106315Y771116D01*
X12256547Y708888D01*
X12416031Y677164D01*
X12578641Y677164D01*
X12738125Y708888D01*
X12888357Y771116D01*
X13023561Y861456D01*
X13138544Y976439D01*
X13228884Y1111643D01*
X13291112Y1261875D01*
X13322836Y1421359D01*
X13322836Y1583969D01*
X13318853Y1603997D01*
X15467192Y1603997D01*
X15467192Y1441387D01*
X15498916Y1281903D01*
X15561144Y1131671D01*
X15651484Y996467D01*
X15766467Y881484D01*
X15901671Y791144D01*
X16051903Y728916D01*
X16211387Y697192D01*
X16373997Y697192D01*
X16533481Y728916D01*
X16683713Y791144D01*
X16818917Y881484D01*
X16933900Y996467D01*
X17024240Y1131671D01*
X17086468Y1281903D01*
X17118192Y1441387D01*
X17118192Y1603997D01*
X17086468Y1763481D01*
X17024240Y1913713D01*
X16933900Y2048917D01*
X16818917Y2163900D01*
X16683713Y2254240D01*
X16533481Y2316468D01*
X16373997Y2348192D01*
X16211387Y2348192D01*
X16051903Y2316468D01*
X15901671Y2254240D01*
X15766467Y2163900D01*
X15651484Y2048917D01*
X15561144Y1913713D01*
X15498916Y1763481D01*
X15467192Y1603997D01*
X13318853Y1603997D01*
X13291112Y1743453D01*
X13228884Y1893685D01*
X13138544Y2028889D01*
X13023561Y2143872D01*
X12888357Y2234212D01*
X12738125Y2296440D01*
X12578641Y2328164D01*
X12416031Y2328164D01*
X12256547Y2296440D01*
X12106315Y2234212D01*
X11971111Y2143872D01*
X11856128Y2028889D01*
X11765788Y1893685D01*
X11703560Y1743453D01*
X11671836Y1583969D01*
X487000Y1583969D01*
X487000Y4428805D01*
X5522000Y4428805D01*
X5522000Y4266195D01*
X5553724Y4106711D01*
X5615952Y3956479D01*
X5706292Y3821275D01*
X5821275Y3706292D01*
X5956479Y3615952D01*
X6106711Y3553724D01*
X6266195Y3522000D01*
X6428805Y3522000D01*
X6588289Y3553724D01*
X6738521Y3615952D01*
X6873725Y3706292D01*
X6988708Y3821275D01*
X7079048Y3956479D01*
X7141276Y4106711D01*
X7173000Y4266195D01*
X7173000Y4428805D01*
X7142666Y4581305D01*
X8174500Y4581305D01*
X8174500Y4418695D01*
X8206224Y4259211D01*
X8268452Y4108979D01*
X8341710Y3999340D01*
X8271112Y3893681D01*
X8208884Y3743449D01*
X8177160Y3583965D01*
X8177160Y3421355D01*
X8208884Y3261871D01*
X8271112Y3111639D01*
X8361452Y2976435D01*
X8476435Y2861452D01*
X8611639Y2771112D01*
X8761871Y2708884D01*
X8921355Y2677160D01*
X9083965Y2677160D01*
X9243449Y2708884D01*
X9393681Y2771112D01*
X9528885Y2861452D01*
X9643868Y2976435D01*
X9734208Y3111639D01*
X9796436Y3261871D01*
X9828160Y3421355D01*
X9828160Y3583965D01*
X9796436Y3743449D01*
X9734208Y3893681D01*
X9660950Y4003320D01*
X9731548Y4108979D01*
X9793776Y4259211D01*
X9825500Y4418695D01*
X9825500Y4581305D01*
X9793776Y4740789D01*
X9731548Y4891021D01*
X9641208Y5026225D01*
X9526225Y5141208D01*
X9391021Y5231548D01*
X9240789Y5293776D01*
X9081305Y5325500D01*
X8918695Y5325500D01*
X8759211Y5293776D01*
X8608979Y5231548D01*
X8473775Y5141208D01*
X8358792Y5026225D01*
X8268452Y4891021D01*
X8206224Y4740789D01*
X8174500Y4581305D01*
X7142666Y4581305D01*
X7141276Y4588289D01*
X7079048Y4738521D01*
X6988708Y4873725D01*
X6873725Y4988708D01*
X6738521Y5079048D01*
X6588289Y5141276D01*
X6428805Y5173000D01*
X6266195Y5173000D01*
X6106711Y5141276D01*
X5956479Y5079048D01*
X5821275Y4988708D01*
X5706292Y4873725D01*
X5615952Y4738521D01*
X5553724Y4588289D01*
X5522000Y4428805D01*
X487000Y4428805D01*
X487000Y5581305D01*
X11774500Y5581305D01*
X11774500Y5418695D01*
X11806224Y5259211D01*
X11868452Y5108979D01*
X11958792Y4973775D01*
X12073775Y4858792D01*
X12208979Y4768452D01*
X12348018Y4710860D01*
X12243775Y4641208D01*
X12128792Y4526225D01*
X12038452Y4391021D01*
X11976224Y4240789D01*
X11944500Y4081305D01*
X11944500Y3918695D01*
X11976224Y3759211D01*
X12038452Y3608979D01*
X12128792Y3473775D01*
X12243775Y3358792D01*
X12378979Y3268452D01*
X12529211Y3206224D01*
X12688695Y3174500D01*
X12851305Y3174500D01*
X13010789Y3206224D01*
X13161021Y3268452D01*
X13296225Y3358792D01*
X13411208Y3473775D01*
X13498219Y3603997D01*
X15467192Y3603997D01*
X15467192Y3441387D01*
X15498916Y3281903D01*
X15561144Y3131671D01*
X15651484Y2996467D01*
X15766467Y2881484D01*
X15901671Y2791144D01*
X16051903Y2728916D01*
X16211387Y2697192D01*
X16373997Y2697192D01*
X16533481Y2728916D01*
X16683713Y2791144D01*
X16818917Y2881484D01*
X16933900Y2996467D01*
X17024240Y3131671D01*
X17086468Y3281903D01*
X17118192Y3441387D01*
X17118192Y3603997D01*
X17086468Y3763481D01*
X17024240Y3913713D01*
X16933900Y4048917D01*
X16818917Y4163900D01*
X16683713Y4254240D01*
X16533481Y4316468D01*
X16408620Y4341305D01*
X18114500Y4341305D01*
X18114500Y4178695D01*
X18146224Y4019211D01*
X18208452Y3868979D01*
X18298792Y3733775D01*
X18413775Y3618792D01*
X18548979Y3528452D01*
X18699211Y3466224D01*
X18858695Y3434500D01*
X19021305Y3434500D01*
X19180789Y3466224D01*
X19331021Y3528452D01*
X19466225Y3618792D01*
X19581208Y3733775D01*
X19671548Y3868979D01*
X19733776Y4019211D01*
X19765500Y4178695D01*
X19765500Y4341305D01*
X19733776Y4500789D01*
X19671548Y4651021D01*
X19581208Y4786225D01*
X19466225Y4901208D01*
X19331021Y4991548D01*
X19180789Y5053776D01*
X19021305Y5085500D01*
X18858695Y5085500D01*
X18699211Y5053776D01*
X18548979Y4991548D01*
X18413775Y4901208D01*
X18298792Y4786225D01*
X18208452Y4651021D01*
X18146224Y4500789D01*
X18114500Y4341305D01*
X16408620Y4341305D01*
X16373997Y4348192D01*
X16211387Y4348192D01*
X16051903Y4316468D01*
X15901671Y4254240D01*
X15766467Y4163900D01*
X15651484Y4048917D01*
X15561144Y3913713D01*
X15498916Y3763481D01*
X15467192Y3603997D01*
X13498219Y3603997D01*
X13501548Y3608979D01*
X13563776Y3759211D01*
X13595500Y3918695D01*
X13595500Y4081305D01*
X13563776Y4240789D01*
X13501548Y4391021D01*
X13411208Y4526225D01*
X13296225Y4641208D01*
X13161021Y4731548D01*
X13021982Y4789140D01*
X13126225Y4858792D01*
X13241208Y4973775D01*
X13331548Y5108979D01*
X13393776Y5259211D01*
X13425500Y5418695D01*
X13425500Y5581305D01*
X13420987Y5603997D01*
X15467192Y5603997D01*
X15467192Y5441387D01*
X15498916Y5281903D01*
X15561144Y5131671D01*
X15651484Y4996467D01*
X15766467Y4881484D01*
X15901671Y4791144D01*
X16051903Y4728916D01*
X16211387Y4697192D01*
X16373997Y4697192D01*
X16533481Y4728916D01*
X16683713Y4791144D01*
X16818917Y4881484D01*
X16933900Y4996467D01*
X17024240Y5131671D01*
X17086468Y5281903D01*
X17118192Y5441387D01*
X17118192Y5603997D01*
X17086468Y5763481D01*
X17024240Y5913713D01*
X16933900Y6048917D01*
X16818917Y6163900D01*
X16683713Y6254240D01*
X16533481Y6316468D01*
X16373997Y6348192D01*
X16211387Y6348192D01*
X16051903Y6316468D01*
X15901671Y6254240D01*
X15766467Y6163900D01*
X15651484Y6048917D01*
X15561144Y5913713D01*
X15498916Y5763481D01*
X15467192Y5603997D01*
X13420987Y5603997D01*
X13393776Y5740789D01*
X13331548Y5891021D01*
X13241208Y6026225D01*
X13126225Y6141208D01*
X12991021Y6231548D01*
X12840789Y6293776D01*
X12681305Y6325500D01*
X12518695Y6325500D01*
X12359211Y6293776D01*
X12208979Y6231548D01*
X12073775Y6141208D01*
X11958792Y6026225D01*
X11868452Y5891021D01*
X11806224Y5740789D01*
X11774500Y5581305D01*
X487000Y5581305D01*
X487000Y8583955D01*
X8377150Y8583955D01*
X8377150Y8421345D01*
X8408874Y8261861D01*
X8471102Y8111629D01*
X8543919Y8002650D01*
X8471104Y7893673D01*
X8408876Y7743441D01*
X8377152Y7583957D01*
X8377152Y7421347D01*
X8408876Y7261863D01*
X8471104Y7111631D01*
X8561444Y6976427D01*
X8676427Y6861444D01*
X8811631Y6771104D01*
X8961863Y6708876D01*
X9121347Y6677152D01*
X9283957Y6677152D01*
X9443441Y6708876D01*
X9593673Y6771104D01*
X9728877Y6861444D01*
X9843860Y6976427D01*
X9934200Y7111631D01*
X9996428Y7261863D01*
X10028152Y7421347D01*
X10028152Y7583957D01*
X9996428Y7743441D01*
X9934200Y7893673D01*
X9861383Y8002652D01*
X9887209Y8041305D01*
X11954500Y8041305D01*
X11954500Y7878695D01*
X11986224Y7719211D01*
X12048452Y7568979D01*
X12138792Y7433775D01*
X12253775Y7318792D01*
X12388979Y7228452D01*
X12539211Y7166224D01*
X12698695Y7134500D01*
X12861305Y7134500D01*
X13020789Y7166224D01*
X13171021Y7228452D01*
X13306225Y7318792D01*
X13421208Y7433775D01*
X13511548Y7568979D01*
X13526052Y7603997D01*
X15467192Y7603997D01*
X15467192Y7441387D01*
X15498916Y7281903D01*
X15561144Y7131671D01*
X15651484Y6996467D01*
X15766467Y6881484D01*
X15901671Y6791144D01*
X16051903Y6728916D01*
X16211387Y6697192D01*
X16373997Y6697192D01*
X16533481Y6728916D01*
X16683713Y6791144D01*
X16818917Y6881484D01*
X16933900Y6996467D01*
X17024240Y7131671D01*
X17086468Y7281903D01*
X17118192Y7441387D01*
X17118192Y7603997D01*
X17086468Y7763481D01*
X17024240Y7913713D01*
X16933900Y8048917D01*
X16818917Y8163900D01*
X16683713Y8254240D01*
X16533481Y8316468D01*
X16373997Y8348192D01*
X16211387Y8348192D01*
X16051903Y8316468D01*
X15901671Y8254240D01*
X15766467Y8163900D01*
X15651484Y8048917D01*
X15561144Y7913713D01*
X15498916Y7763481D01*
X15467192Y7603997D01*
X13526052Y7603997D01*
X13573776Y7719211D01*
X13605500Y7878695D01*
X13605500Y8041305D01*
X13573776Y8200789D01*
X13511548Y8351021D01*
X13421208Y8486225D01*
X13306225Y8601208D01*
X13171021Y8691548D01*
X13020789Y8753776D01*
X12861305Y8785500D01*
X12698695Y8785500D01*
X12539211Y8753776D01*
X12388979Y8691548D01*
X12253775Y8601208D01*
X12138792Y8486225D01*
X12048452Y8351021D01*
X11986224Y8200789D01*
X11954500Y8041305D01*
X9887209Y8041305D01*
X9934198Y8111629D01*
X9996426Y8261861D01*
X10028150Y8421345D01*
X10028150Y8583955D01*
X9996426Y8743439D01*
X9934198Y8893671D01*
X9843858Y9028875D01*
X9728875Y9143858D01*
X9593671Y9234198D01*
X9443439Y9296426D01*
X9283955Y9328150D01*
X9121345Y9328150D01*
X8961861Y9296426D01*
X8811629Y9234198D01*
X8676425Y9143858D01*
X8561442Y9028875D01*
X8471102Y8893671D01*
X8408874Y8743439D01*
X8377150Y8583955D01*
X487000Y8583955D01*
X487000Y10691305D01*
X5484500Y10691305D01*
X5484500Y10528695D01*
X5516224Y10369211D01*
X5578452Y10218979D01*
X5668792Y10083775D01*
X5783775Y9968792D01*
X5918979Y9878452D01*
X6069211Y9816224D01*
X6228695Y9784500D01*
X6391305Y9784500D01*
X6425515Y9791305D01*
X11974500Y9791305D01*
X11974500Y9628695D01*
X12006224Y9469211D01*
X12068452Y9318979D01*
X12158792Y9183775D01*
X12273775Y9068792D01*
X12408979Y8978452D01*
X12559211Y8916224D01*
X12718695Y8884500D01*
X12881305Y8884500D01*
X13040789Y8916224D01*
X13191021Y8978452D01*
X13326225Y9068792D01*
X13441208Y9183775D01*
X13531548Y9318979D01*
X13593776Y9469211D01*
X13620587Y9603997D01*
X15467192Y9603997D01*
X15467192Y9441387D01*
X15498916Y9281903D01*
X15561144Y9131671D01*
X15651484Y8996467D01*
X15766467Y8881484D01*
X15901671Y8791144D01*
X16051903Y8728916D01*
X16211387Y8697192D01*
X16373997Y8697192D01*
X16533481Y8728916D01*
X16683713Y8791144D01*
X16818917Y8881484D01*
X16933900Y8996467D01*
X17024240Y9131671D01*
X17086468Y9281903D01*
X17118192Y9441387D01*
X17118192Y9603997D01*
X17086468Y9763481D01*
X17024240Y9913713D01*
X16933900Y10048917D01*
X16818917Y10163900D01*
X16683713Y10254240D01*
X16533481Y10316468D01*
X16373997Y10348192D01*
X16211387Y10348192D01*
X16051903Y10316468D01*
X15901671Y10254240D01*
X15766467Y10163900D01*
X15651484Y10048917D01*
X15561144Y9913713D01*
X15498916Y9763481D01*
X15467192Y9603997D01*
X13620587Y9603997D01*
X13625500Y9628695D01*
X13625500Y9791305D01*
X13593776Y9950789D01*
X13531548Y10101021D01*
X13441208Y10236225D01*
X13326225Y10351208D01*
X13191021Y10441548D01*
X13040789Y10503776D01*
X12952667Y10521305D01*
X18114500Y10521305D01*
X18114500Y10358695D01*
X18146224Y10199211D01*
X18208452Y10048979D01*
X18298792Y9913775D01*
X18413775Y9798792D01*
X18548979Y9708452D01*
X18699211Y9646224D01*
X18858695Y9614500D01*
X19021305Y9614500D01*
X19180789Y9646224D01*
X19331021Y9708452D01*
X19466225Y9798792D01*
X19581208Y9913775D01*
X19671548Y10048979D01*
X19733776Y10199211D01*
X19765500Y10358695D01*
X19765500Y10521305D01*
X19733776Y10680789D01*
X19671548Y10831021D01*
X19581208Y10966225D01*
X19466225Y11081208D01*
X19331021Y11171548D01*
X19180789Y11233776D01*
X19021305Y11265500D01*
X18858695Y11265500D01*
X18699211Y11233776D01*
X18548979Y11171548D01*
X18413775Y11081208D01*
X18298792Y10966225D01*
X18208452Y10831021D01*
X18146224Y10680789D01*
X18114500Y10521305D01*
X12952667Y10521305D01*
X12881305Y10535500D01*
X12718695Y10535500D01*
X12559211Y10503776D01*
X12408979Y10441548D01*
X12273775Y10351208D01*
X12158792Y10236225D01*
X12068452Y10101021D01*
X12006224Y9950789D01*
X11974500Y9791305D01*
X6425515Y9791305D01*
X6550789Y9816224D01*
X6701021Y9878452D01*
X6836225Y9968792D01*
X6951208Y10083775D01*
X7041548Y10218979D01*
X7103776Y10369211D01*
X7135500Y10528695D01*
X7135500Y10691305D01*
X7103776Y10850789D01*
X7041548Y11001021D01*
X6951208Y11136225D01*
X6836225Y11251208D01*
X6701021Y11341548D01*
X6550789Y11403776D01*
X6391305Y11435500D01*
X6228695Y11435500D01*
X6069211Y11403776D01*
X5918979Y11341548D01*
X5783775Y11251208D01*
X5668792Y11136225D01*
X5578452Y11001021D01*
X5516224Y10850789D01*
X5484500Y10691305D01*
X487000Y10691305D01*
X487000Y12581305D01*
X7094500Y12581305D01*
X7094500Y12418695D01*
X7126224Y12259211D01*
X7188452Y12108979D01*
X7278792Y11973775D01*
X7393775Y11858792D01*
X7528979Y11768452D01*
X7679211Y11706224D01*
X7838695Y11674500D01*
X8001305Y11674500D01*
X8160789Y11706224D01*
X8202811Y11723630D01*
X8174500Y11581305D01*
X8174500Y11418695D01*
X8206224Y11259211D01*
X8268452Y11108979D01*
X8358792Y10973775D01*
X8473775Y10858792D01*
X8608979Y10768452D01*
X8759211Y10706224D01*
X8918695Y10674500D01*
X9081305Y10674500D01*
X9240789Y10706224D01*
X9391021Y10768452D01*
X9526225Y10858792D01*
X9641208Y10973775D01*
X9731548Y11108979D01*
X9793776Y11259211D01*
X9825500Y11418695D01*
X9825500Y11581305D01*
X9793776Y11740789D01*
X9731548Y11891021D01*
X9641208Y12026225D01*
X9526225Y12141208D01*
X9391021Y12231548D01*
X9240789Y12293776D01*
X9081305Y12325500D01*
X8918695Y12325500D01*
X8759211Y12293776D01*
X8717189Y12276370D01*
X8745500Y12418695D01*
X8745500Y12581305D01*
X8713776Y12740789D01*
X8651548Y12891021D01*
X8561208Y13026225D01*
X8446225Y13141208D01*
X8311021Y13231548D01*
X8160789Y13293776D01*
X8001305Y13325500D01*
X7838695Y13325500D01*
X7679211Y13293776D01*
X7528979Y13231548D01*
X7393775Y13141208D01*
X7278792Y13026225D01*
X7188452Y12891021D01*
X7126224Y12740789D01*
X7094500Y12581305D01*
X487000Y12581305D01*
X487000Y13791305D01*
X11934500Y13791305D01*
X11934500Y13628695D01*
X11966224Y13469211D01*
X12028452Y13318979D01*
X12118792Y13183775D01*
X12233775Y13068792D01*
X12368979Y12978452D01*
X12406455Y12962929D01*
X12378979Y12951548D01*
X12243775Y12861208D01*
X12128792Y12746225D01*
X12038452Y12611021D01*
X11976224Y12460789D01*
X11944500Y12301305D01*
X11944500Y12138695D01*
X11976224Y11979211D01*
X12038452Y11828979D01*
X12128792Y11693775D01*
X12243775Y11578792D01*
X12378979Y11488452D01*
X12529211Y11426224D01*
X12688695Y11394500D01*
X12851305Y11394500D01*
X13010789Y11426224D01*
X13161021Y11488452D01*
X13296225Y11578792D01*
X13321430Y11603997D01*
X15467192Y11603997D01*
X15467192Y11441387D01*
X15498916Y11281903D01*
X15561144Y11131671D01*
X15651484Y10996467D01*
X15766467Y10881484D01*
X15901671Y10791144D01*
X16051903Y10728916D01*
X16211387Y10697192D01*
X16373997Y10697192D01*
X16533481Y10728916D01*
X16683713Y10791144D01*
X16818917Y10881484D01*
X16933900Y10996467D01*
X17024240Y11131671D01*
X17086468Y11281903D01*
X17118192Y11441387D01*
X17118192Y11603997D01*
X17086468Y11763481D01*
X17024240Y11913713D01*
X16933900Y12048917D01*
X16818917Y12163900D01*
X16683713Y12254240D01*
X16533481Y12316468D01*
X16373997Y12348192D01*
X16211387Y12348192D01*
X16051903Y12316468D01*
X15901671Y12254240D01*
X15766467Y12163900D01*
X15651484Y12048917D01*
X15561144Y11913713D01*
X15498916Y11763481D01*
X15467192Y11603997D01*
X13321430Y11603997D01*
X13411208Y11693775D01*
X13501548Y11828979D01*
X13563776Y11979211D01*
X13595500Y12138695D01*
X13595500Y12301305D01*
X13563776Y12460789D01*
X13501548Y12611021D01*
X13411208Y12746225D01*
X13296225Y12861208D01*
X13161021Y12951548D01*
X13123545Y12967071D01*
X13151021Y12978452D01*
X13286225Y13068792D01*
X13401208Y13183775D01*
X13491548Y13318979D01*
X13553776Y13469211D01*
X13580587Y13603997D01*
X15467192Y13603997D01*
X15467192Y13441387D01*
X15498916Y13281903D01*
X15561144Y13131671D01*
X15651484Y12996467D01*
X15766467Y12881484D01*
X15901671Y12791144D01*
X16051903Y12728916D01*
X16211387Y12697192D01*
X16373997Y12697192D01*
X16533481Y12728916D01*
X16683713Y12791144D01*
X16818917Y12881484D01*
X16933900Y12996467D01*
X17024240Y13131671D01*
X17086468Y13281903D01*
X17118192Y13441387D01*
X17118192Y13603997D01*
X17086468Y13763481D01*
X17024240Y13913713D01*
X16933900Y14048917D01*
X16818917Y14163900D01*
X16683713Y14254240D01*
X16533481Y14316468D01*
X16373997Y14348192D01*
X16211387Y14348192D01*
X16051903Y14316468D01*
X15901671Y14254240D01*
X15766467Y14163900D01*
X15651484Y14048917D01*
X15561144Y13913713D01*
X15498916Y13763481D01*
X15467192Y13603997D01*
X13580587Y13603997D01*
X13585500Y13628695D01*
X13585500Y13791305D01*
X13553776Y13950789D01*
X13491548Y14101021D01*
X13401208Y14236225D01*
X13286225Y14351208D01*
X13151021Y14441548D01*
X13000789Y14503776D01*
X12841305Y14535500D01*
X12678695Y14535500D01*
X12519211Y14503776D01*
X12368979Y14441548D01*
X12233775Y14351208D01*
X12118792Y14236225D01*
X12028452Y14101021D01*
X11966224Y13950789D01*
X11934500Y13791305D01*
X487000Y13791305D01*
X487000Y15581305D01*
X8174500Y15581305D01*
X8174500Y15418695D01*
X8206224Y15259211D01*
X8268452Y15108979D01*
X8358792Y14973775D01*
X8473775Y14858792D01*
X8608979Y14768452D01*
X8759211Y14706224D01*
X8918695Y14674500D01*
X9081305Y14674500D01*
X9240789Y14706224D01*
X9391021Y14768452D01*
X9526225Y14858792D01*
X9641208Y14973775D01*
X9731548Y15108979D01*
X9793776Y15259211D01*
X9825500Y15418695D01*
X9825500Y15581305D01*
X9820987Y15603997D01*
X15467192Y15603997D01*
X15467192Y15441387D01*
X15498916Y15281903D01*
X15561144Y15131671D01*
X15651484Y14996467D01*
X15766467Y14881484D01*
X15901671Y14791144D01*
X16051903Y14728916D01*
X16211387Y14697192D01*
X16373997Y14697192D01*
X16533481Y14728916D01*
X16683713Y14791144D01*
X16766264Y14846303D01*
X16793775Y14818792D01*
X16928979Y14728452D01*
X17079211Y14666224D01*
X17238695Y14634500D01*
X17401305Y14634500D01*
X17560789Y14666224D01*
X17711021Y14728452D01*
X17846225Y14818792D01*
X17961208Y14933775D01*
X18051548Y15068979D01*
X18113776Y15219211D01*
X18145500Y15378695D01*
X18145500Y15541305D01*
X18113776Y15700789D01*
X18051548Y15851021D01*
X17961208Y15986225D01*
X17846225Y16101208D01*
X17711021Y16191548D01*
X17560789Y16253776D01*
X17401305Y16285500D01*
X17238695Y16285500D01*
X17079211Y16253776D01*
X16928979Y16191548D01*
X16846428Y16136389D01*
X16818917Y16163900D01*
X16683713Y16254240D01*
X16533481Y16316468D01*
X16373997Y16348192D01*
X16211387Y16348192D01*
X16051903Y16316468D01*
X15901671Y16254240D01*
X15766467Y16163900D01*
X15651484Y16048917D01*
X15561144Y15913713D01*
X15498916Y15763481D01*
X15467192Y15603997D01*
X9820987Y15603997D01*
X9793776Y15740789D01*
X9731548Y15891021D01*
X9641208Y16026225D01*
X9526225Y16141208D01*
X9391021Y16231548D01*
X9240789Y16293776D01*
X9081305Y16325500D01*
X8918695Y16325500D01*
X8759211Y16293776D01*
X8608979Y16231548D01*
X8473775Y16141208D01*
X8358792Y16026225D01*
X8268452Y15891021D01*
X8206224Y15740789D01*
X8174500Y15581305D01*
X487000Y15581305D01*
X487000Y16578605D01*
X6841800Y16578605D01*
X6841800Y16415995D01*
X6873524Y16256511D01*
X6935752Y16106279D01*
X7026092Y15971075D01*
X7141075Y15856092D01*
X7276279Y15765752D01*
X7426511Y15703524D01*
X7585995Y15671800D01*
X7748605Y15671800D01*
X7908089Y15703524D01*
X8058321Y15765752D01*
X8193525Y15856092D01*
X8308508Y15971075D01*
X8398848Y16106279D01*
X8461076Y16256511D01*
X8492800Y16415995D01*
X8492800Y16578605D01*
X8461076Y16738089D01*
X8434892Y16801305D01*
X11934500Y16801305D01*
X11934500Y16638695D01*
X11966224Y16479211D01*
X12028452Y16328979D01*
X12118792Y16193775D01*
X12233775Y16078792D01*
X12368979Y15988452D01*
X12519211Y15926224D01*
X12678695Y15894500D01*
X12841305Y15894500D01*
X13000789Y15926224D01*
X13151021Y15988452D01*
X13286225Y16078792D01*
X13401208Y16193775D01*
X13491548Y16328979D01*
X13517364Y16391305D01*
X21374500Y16391305D01*
X21374500Y16228695D01*
X21406224Y16069211D01*
X21468452Y15918979D01*
X21558792Y15783775D01*
X21673775Y15668792D01*
X21808979Y15578452D01*
X21959211Y15516224D01*
X22118695Y15484500D01*
X22281305Y15484500D01*
X22440789Y15516224D01*
X22591021Y15578452D01*
X22726225Y15668792D01*
X22841208Y15783775D01*
X22931548Y15918979D01*
X22993776Y16069211D01*
X23025500Y16228695D01*
X23025500Y16391305D01*
X22993776Y16550789D01*
X22931548Y16701021D01*
X22841208Y16836225D01*
X22726225Y16951208D01*
X22591021Y17041548D01*
X22440789Y17103776D01*
X22281305Y17135500D01*
X22118695Y17135500D01*
X21959211Y17103776D01*
X21808979Y17041548D01*
X21673775Y16951208D01*
X21558792Y16836225D01*
X21468452Y16701021D01*
X21406224Y16550789D01*
X21374500Y16391305D01*
X13517364Y16391305D01*
X13553776Y16479211D01*
X13585500Y16638695D01*
X13585500Y16801305D01*
X13553776Y16960789D01*
X13491548Y17111021D01*
X13401208Y17246225D01*
X13286225Y17361208D01*
X13151021Y17451548D01*
X13000789Y17513776D01*
X12841305Y17545500D01*
X12678695Y17545500D01*
X12519211Y17513776D01*
X12368979Y17451548D01*
X12233775Y17361208D01*
X12118792Y17246225D01*
X12028452Y17111021D01*
X11966224Y16960789D01*
X11934500Y16801305D01*
X8434892Y16801305D01*
X8398848Y16888321D01*
X8308508Y17023525D01*
X8193525Y17138508D01*
X8058321Y17228848D01*
X7908089Y17291076D01*
X7748605Y17322800D01*
X7585995Y17322800D01*
X7426511Y17291076D01*
X7276279Y17228848D01*
X7141075Y17138508D01*
X7026092Y17023525D01*
X6935752Y16888321D01*
X6873524Y16738089D01*
X6841800Y16578605D01*
X487000Y16578605D01*
X487000Y18422616D01*
X16497400Y18422616D01*
X16497400Y18077384D01*
X16564752Y17738785D01*
X16696866Y17419833D01*
X16888667Y17132783D01*
X17132783Y16888667D01*
X17419833Y16696866D01*
X17738785Y16564752D01*
X18077384Y16497400D01*
X18422616Y16497400D01*
X18761215Y16564752D01*
X19080167Y16696866D01*
X19367217Y16888667D01*
X19611333Y17132783D01*
X19803134Y17419833D01*
X19935248Y17738785D01*
X20002600Y18077384D01*
X20002600Y18422616D01*
X19935248Y18761215D01*
X19803134Y19080167D01*
X19611333Y19367217D01*
X19367217Y19611333D01*
X19080167Y19803134D01*
X18761215Y19935248D01*
X18422616Y20002600D01*
X18077384Y20002600D01*
X17738785Y19935248D01*
X17419833Y19803134D01*
X17132783Y19611333D01*
X16888667Y19367217D01*
X16696866Y19080167D01*
X16564752Y18761215D01*
X16497400Y18422616D01*
X487000Y18422616D01*
X487000Y24792000D01*
X24892000Y24792000D01*
X24892000Y387000D01*
G04 #@! TA.AperFunction,Conductor*
D12*
G36*
X24892000Y387000D02*
G01*
X9821331Y387000D01*
X9828166Y421361D01*
X9828166Y583971D01*
X9796442Y743455D01*
X9734214Y893687D01*
X9643874Y1028891D01*
X9528891Y1143874D01*
X9393687Y1234214D01*
X9243455Y1296442D01*
X9083971Y1328166D01*
X8921361Y1328166D01*
X8761877Y1296442D01*
X8611645Y1234214D01*
X8476441Y1143874D01*
X8361458Y1028891D01*
X8271118Y893687D01*
X8208890Y743455D01*
X8177166Y583971D01*
X8177166Y421361D01*
X8184001Y387000D01*
X3593214Y387000D01*
X3591548Y391021D01*
X3501208Y526225D01*
X3386225Y641208D01*
X3251021Y731548D01*
X3100789Y793776D01*
X2941305Y825500D01*
X2778695Y825500D01*
X2619211Y793776D01*
X2468979Y731548D01*
X2333775Y641208D01*
X2218792Y526225D01*
X2128452Y391021D01*
X2126786Y387000D01*
X487000Y387000D01*
X487000Y1583969D01*
X11671836Y1583969D01*
X11671836Y1421359D01*
X11703560Y1261875D01*
X11765788Y1111643D01*
X11856128Y976439D01*
X11971111Y861456D01*
X12106315Y771116D01*
X12256547Y708888D01*
X12416031Y677164D01*
X12578641Y677164D01*
X12738125Y708888D01*
X12888357Y771116D01*
X13023561Y861456D01*
X13138544Y976439D01*
X13228884Y1111643D01*
X13291112Y1261875D01*
X13322836Y1421359D01*
X13322836Y1583969D01*
X13318853Y1603997D01*
X15467192Y1603997D01*
X15467192Y1441387D01*
X15498916Y1281903D01*
X15561144Y1131671D01*
X15651484Y996467D01*
X15766467Y881484D01*
X15901671Y791144D01*
X16051903Y728916D01*
X16211387Y697192D01*
X16373997Y697192D01*
X16533481Y728916D01*
X16683713Y791144D01*
X16818917Y881484D01*
X16933900Y996467D01*
X17024240Y1131671D01*
X17086468Y1281903D01*
X17118192Y1441387D01*
X17118192Y1603997D01*
X17086468Y1763481D01*
X17024240Y1913713D01*
X16933900Y2048917D01*
X16818917Y2163900D01*
X16683713Y2254240D01*
X16533481Y2316468D01*
X16373997Y2348192D01*
X16211387Y2348192D01*
X16051903Y2316468D01*
X15901671Y2254240D01*
X15766467Y2163900D01*
X15651484Y2048917D01*
X15561144Y1913713D01*
X15498916Y1763481D01*
X15467192Y1603997D01*
X13318853Y1603997D01*
X13291112Y1743453D01*
X13228884Y1893685D01*
X13138544Y2028889D01*
X13023561Y2143872D01*
X12888357Y2234212D01*
X12738125Y2296440D01*
X12578641Y2328164D01*
X12416031Y2328164D01*
X12256547Y2296440D01*
X12106315Y2234212D01*
X11971111Y2143872D01*
X11856128Y2028889D01*
X11765788Y1893685D01*
X11703560Y1743453D01*
X11671836Y1583969D01*
X487000Y1583969D01*
X487000Y4428805D01*
X5522000Y4428805D01*
X5522000Y4266195D01*
X5553724Y4106711D01*
X5615952Y3956479D01*
X5706292Y3821275D01*
X5821275Y3706292D01*
X5956479Y3615952D01*
X6106711Y3553724D01*
X6266195Y3522000D01*
X6428805Y3522000D01*
X6588289Y3553724D01*
X6738521Y3615952D01*
X6873725Y3706292D01*
X6988708Y3821275D01*
X7079048Y3956479D01*
X7141276Y4106711D01*
X7173000Y4266195D01*
X7173000Y4428805D01*
X7142666Y4581305D01*
X8174500Y4581305D01*
X8174500Y4418695D01*
X8206224Y4259211D01*
X8268452Y4108979D01*
X8341710Y3999340D01*
X8271112Y3893681D01*
X8208884Y3743449D01*
X8177160Y3583965D01*
X8177160Y3421355D01*
X8208884Y3261871D01*
X8271112Y3111639D01*
X8361452Y2976435D01*
X8476435Y2861452D01*
X8611639Y2771112D01*
X8761871Y2708884D01*
X8921355Y2677160D01*
X9083965Y2677160D01*
X9243449Y2708884D01*
X9393681Y2771112D01*
X9528885Y2861452D01*
X9643868Y2976435D01*
X9734208Y3111639D01*
X9796436Y3261871D01*
X9828160Y3421355D01*
X9828160Y3583965D01*
X9796436Y3743449D01*
X9734208Y3893681D01*
X9660950Y4003320D01*
X9731548Y4108979D01*
X9793776Y4259211D01*
X9825500Y4418695D01*
X9825500Y4581305D01*
X9793776Y4740789D01*
X9731548Y4891021D01*
X9641208Y5026225D01*
X9526225Y5141208D01*
X9391021Y5231548D01*
X9240789Y5293776D01*
X9081305Y5325500D01*
X8918695Y5325500D01*
X8759211Y5293776D01*
X8608979Y5231548D01*
X8473775Y5141208D01*
X8358792Y5026225D01*
X8268452Y4891021D01*
X8206224Y4740789D01*
X8174500Y4581305D01*
X7142666Y4581305D01*
X7141276Y4588289D01*
X7079048Y4738521D01*
X6988708Y4873725D01*
X6873725Y4988708D01*
X6738521Y5079048D01*
X6588289Y5141276D01*
X6428805Y5173000D01*
X6266195Y5173000D01*
X6106711Y5141276D01*
X5956479Y5079048D01*
X5821275Y4988708D01*
X5706292Y4873725D01*
X5615952Y4738521D01*
X5553724Y4588289D01*
X5522000Y4428805D01*
X487000Y4428805D01*
X487000Y5581305D01*
X11774500Y5581305D01*
X11774500Y5418695D01*
X11806224Y5259211D01*
X11868452Y5108979D01*
X11958792Y4973775D01*
X12073775Y4858792D01*
X12208979Y4768452D01*
X12348018Y4710860D01*
X12243775Y4641208D01*
X12128792Y4526225D01*
X12038452Y4391021D01*
X11976224Y4240789D01*
X11944500Y4081305D01*
X11944500Y3918695D01*
X11976224Y3759211D01*
X12038452Y3608979D01*
X12128792Y3473775D01*
X12243775Y3358792D01*
X12378979Y3268452D01*
X12529211Y3206224D01*
X12688695Y3174500D01*
X12851305Y3174500D01*
X13010789Y3206224D01*
X13161021Y3268452D01*
X13296225Y3358792D01*
X13411208Y3473775D01*
X13498219Y3603997D01*
X15467192Y3603997D01*
X15467192Y3441387D01*
X15498916Y3281903D01*
X15561144Y3131671D01*
X15651484Y2996467D01*
X15766467Y2881484D01*
X15901671Y2791144D01*
X16051903Y2728916D01*
X16211387Y2697192D01*
X16373997Y2697192D01*
X16533481Y2728916D01*
X16683713Y2791144D01*
X16818917Y2881484D01*
X16933900Y2996467D01*
X17024240Y3131671D01*
X17086468Y3281903D01*
X17118192Y3441387D01*
X17118192Y3603997D01*
X17086468Y3763481D01*
X17024240Y3913713D01*
X16933900Y4048917D01*
X16818917Y4163900D01*
X16683713Y4254240D01*
X16533481Y4316468D01*
X16408620Y4341305D01*
X18114500Y4341305D01*
X18114500Y4178695D01*
X18146224Y4019211D01*
X18208452Y3868979D01*
X18298792Y3733775D01*
X18413775Y3618792D01*
X18548979Y3528452D01*
X18699211Y3466224D01*
X18858695Y3434500D01*
X19021305Y3434500D01*
X19180789Y3466224D01*
X19331021Y3528452D01*
X19466225Y3618792D01*
X19581208Y3733775D01*
X19671548Y3868979D01*
X19733776Y4019211D01*
X19765500Y4178695D01*
X19765500Y4341305D01*
X19733776Y4500789D01*
X19671548Y4651021D01*
X19581208Y4786225D01*
X19466225Y4901208D01*
X19331021Y4991548D01*
X19180789Y5053776D01*
X19021305Y5085500D01*
X18858695Y5085500D01*
X18699211Y5053776D01*
X18548979Y4991548D01*
X18413775Y4901208D01*
X18298792Y4786225D01*
X18208452Y4651021D01*
X18146224Y4500789D01*
X18114500Y4341305D01*
X16408620Y4341305D01*
X16373997Y4348192D01*
X16211387Y4348192D01*
X16051903Y4316468D01*
X15901671Y4254240D01*
X15766467Y4163900D01*
X15651484Y4048917D01*
X15561144Y3913713D01*
X15498916Y3763481D01*
X15467192Y3603997D01*
X13498219Y3603997D01*
X13501548Y3608979D01*
X13563776Y3759211D01*
X13595500Y3918695D01*
X13595500Y4081305D01*
X13563776Y4240789D01*
X13501548Y4391021D01*
X13411208Y4526225D01*
X13296225Y4641208D01*
X13161021Y4731548D01*
X13021982Y4789140D01*
X13126225Y4858792D01*
X13241208Y4973775D01*
X13331548Y5108979D01*
X13393776Y5259211D01*
X13425500Y5418695D01*
X13425500Y5581305D01*
X13420987Y5603997D01*
X15467192Y5603997D01*
X15467192Y5441387D01*
X15498916Y5281903D01*
X15561144Y5131671D01*
X15651484Y4996467D01*
X15766467Y4881484D01*
X15901671Y4791144D01*
X16051903Y4728916D01*
X16211387Y4697192D01*
X16373997Y4697192D01*
X16533481Y4728916D01*
X16683713Y4791144D01*
X16818917Y4881484D01*
X16933900Y4996467D01*
X17024240Y5131671D01*
X17086468Y5281903D01*
X17118192Y5441387D01*
X17118192Y5603997D01*
X17086468Y5763481D01*
X17024240Y5913713D01*
X16933900Y6048917D01*
X16818917Y6163900D01*
X16683713Y6254240D01*
X16533481Y6316468D01*
X16373997Y6348192D01*
X16211387Y6348192D01*
X16051903Y6316468D01*
X15901671Y6254240D01*
X15766467Y6163900D01*
X15651484Y6048917D01*
X15561144Y5913713D01*
X15498916Y5763481D01*
X15467192Y5603997D01*
X13420987Y5603997D01*
X13393776Y5740789D01*
X13331548Y5891021D01*
X13241208Y6026225D01*
X13126225Y6141208D01*
X12991021Y6231548D01*
X12840789Y6293776D01*
X12681305Y6325500D01*
X12518695Y6325500D01*
X12359211Y6293776D01*
X12208979Y6231548D01*
X12073775Y6141208D01*
X11958792Y6026225D01*
X11868452Y5891021D01*
X11806224Y5740789D01*
X11774500Y5581305D01*
X487000Y5581305D01*
X487000Y8583955D01*
X8377150Y8583955D01*
X8377150Y8421345D01*
X8408874Y8261861D01*
X8471102Y8111629D01*
X8543919Y8002650D01*
X8471104Y7893673D01*
X8408876Y7743441D01*
X8377152Y7583957D01*
X8377152Y7421347D01*
X8408876Y7261863D01*
X8471104Y7111631D01*
X8561444Y6976427D01*
X8676427Y6861444D01*
X8811631Y6771104D01*
X8961863Y6708876D01*
X9121347Y6677152D01*
X9283957Y6677152D01*
X9443441Y6708876D01*
X9593673Y6771104D01*
X9728877Y6861444D01*
X9843860Y6976427D01*
X9934200Y7111631D01*
X9996428Y7261863D01*
X10028152Y7421347D01*
X10028152Y7583957D01*
X9996428Y7743441D01*
X9934200Y7893673D01*
X9861383Y8002652D01*
X9887209Y8041305D01*
X11954500Y8041305D01*
X11954500Y7878695D01*
X11986224Y7719211D01*
X12048452Y7568979D01*
X12138792Y7433775D01*
X12253775Y7318792D01*
X12388979Y7228452D01*
X12539211Y7166224D01*
X12698695Y7134500D01*
X12861305Y7134500D01*
X13020789Y7166224D01*
X13171021Y7228452D01*
X13306225Y7318792D01*
X13421208Y7433775D01*
X13511548Y7568979D01*
X13526052Y7603997D01*
X15467192Y7603997D01*
X15467192Y7441387D01*
X15498916Y7281903D01*
X15561144Y7131671D01*
X15651484Y6996467D01*
X15766467Y6881484D01*
X15901671Y6791144D01*
X16051903Y6728916D01*
X16211387Y6697192D01*
X16373997Y6697192D01*
X16533481Y6728916D01*
X16683713Y6791144D01*
X16818917Y6881484D01*
X16933900Y6996467D01*
X17024240Y7131671D01*
X17086468Y7281903D01*
X17118192Y7441387D01*
X17118192Y7603997D01*
X17086468Y7763481D01*
X17024240Y7913713D01*
X16933900Y8048917D01*
X16818917Y8163900D01*
X16683713Y8254240D01*
X16533481Y8316468D01*
X16373997Y8348192D01*
X16211387Y8348192D01*
X16051903Y8316468D01*
X15901671Y8254240D01*
X15766467Y8163900D01*
X15651484Y8048917D01*
X15561144Y7913713D01*
X15498916Y7763481D01*
X15467192Y7603997D01*
X13526052Y7603997D01*
X13573776Y7719211D01*
X13605500Y7878695D01*
X13605500Y8041305D01*
X13573776Y8200789D01*
X13511548Y8351021D01*
X13421208Y8486225D01*
X13306225Y8601208D01*
X13171021Y8691548D01*
X13020789Y8753776D01*
X12861305Y8785500D01*
X12698695Y8785500D01*
X12539211Y8753776D01*
X12388979Y8691548D01*
X12253775Y8601208D01*
X12138792Y8486225D01*
X12048452Y8351021D01*
X11986224Y8200789D01*
X11954500Y8041305D01*
X9887209Y8041305D01*
X9934198Y8111629D01*
X9996426Y8261861D01*
X10028150Y8421345D01*
X10028150Y8583955D01*
X9996426Y8743439D01*
X9934198Y8893671D01*
X9843858Y9028875D01*
X9728875Y9143858D01*
X9593671Y9234198D01*
X9443439Y9296426D01*
X9283955Y9328150D01*
X9121345Y9328150D01*
X8961861Y9296426D01*
X8811629Y9234198D01*
X8676425Y9143858D01*
X8561442Y9028875D01*
X8471102Y8893671D01*
X8408874Y8743439D01*
X8377150Y8583955D01*
X487000Y8583955D01*
X487000Y10691305D01*
X5484500Y10691305D01*
X5484500Y10528695D01*
X5516224Y10369211D01*
X5578452Y10218979D01*
X5668792Y10083775D01*
X5783775Y9968792D01*
X5918979Y9878452D01*
X6069211Y9816224D01*
X6228695Y9784500D01*
X6391305Y9784500D01*
X6425515Y9791305D01*
X11974500Y9791305D01*
X11974500Y9628695D01*
X12006224Y9469211D01*
X12068452Y9318979D01*
X12158792Y9183775D01*
X12273775Y9068792D01*
X12408979Y8978452D01*
X12559211Y8916224D01*
X12718695Y8884500D01*
X12881305Y8884500D01*
X13040789Y8916224D01*
X13191021Y8978452D01*
X13326225Y9068792D01*
X13441208Y9183775D01*
X13531548Y9318979D01*
X13593776Y9469211D01*
X13620587Y9603997D01*
X15467192Y9603997D01*
X15467192Y9441387D01*
X15498916Y9281903D01*
X15561144Y9131671D01*
X15651484Y8996467D01*
X15766467Y8881484D01*
X15901671Y8791144D01*
X16051903Y8728916D01*
X16211387Y8697192D01*
X16373997Y8697192D01*
X16533481Y8728916D01*
X16683713Y8791144D01*
X16818917Y8881484D01*
X16933900Y8996467D01*
X17024240Y9131671D01*
X17086468Y9281903D01*
X17118192Y9441387D01*
X17118192Y9603997D01*
X17086468Y9763481D01*
X17024240Y9913713D01*
X16933900Y10048917D01*
X16818917Y10163900D01*
X16683713Y10254240D01*
X16533481Y10316468D01*
X16373997Y10348192D01*
X16211387Y10348192D01*
X16051903Y10316468D01*
X15901671Y10254240D01*
X15766467Y10163900D01*
X15651484Y10048917D01*
X15561144Y9913713D01*
X15498916Y9763481D01*
X15467192Y9603997D01*
X13620587Y9603997D01*
X13625500Y9628695D01*
X13625500Y9791305D01*
X13593776Y9950789D01*
X13531548Y10101021D01*
X13441208Y10236225D01*
X13326225Y10351208D01*
X13191021Y10441548D01*
X13040789Y10503776D01*
X12952667Y10521305D01*
X18114500Y10521305D01*
X18114500Y10358695D01*
X18146224Y10199211D01*
X18208452Y10048979D01*
X18298792Y9913775D01*
X18413775Y9798792D01*
X18548979Y9708452D01*
X18699211Y9646224D01*
X18858695Y9614500D01*
X19021305Y9614500D01*
X19180789Y9646224D01*
X19331021Y9708452D01*
X19466225Y9798792D01*
X19581208Y9913775D01*
X19671548Y10048979D01*
X19733776Y10199211D01*
X19765500Y10358695D01*
X19765500Y10521305D01*
X19733776Y10680789D01*
X19671548Y10831021D01*
X19581208Y10966225D01*
X19466225Y11081208D01*
X19331021Y11171548D01*
X19180789Y11233776D01*
X19021305Y11265500D01*
X18858695Y11265500D01*
X18699211Y11233776D01*
X18548979Y11171548D01*
X18413775Y11081208D01*
X18298792Y10966225D01*
X18208452Y10831021D01*
X18146224Y10680789D01*
X18114500Y10521305D01*
X12952667Y10521305D01*
X12881305Y10535500D01*
X12718695Y10535500D01*
X12559211Y10503776D01*
X12408979Y10441548D01*
X12273775Y10351208D01*
X12158792Y10236225D01*
X12068452Y10101021D01*
X12006224Y9950789D01*
X11974500Y9791305D01*
X6425515Y9791305D01*
X6550789Y9816224D01*
X6701021Y9878452D01*
X6836225Y9968792D01*
X6951208Y10083775D01*
X7041548Y10218979D01*
X7103776Y10369211D01*
X7135500Y10528695D01*
X7135500Y10691305D01*
X7103776Y10850789D01*
X7041548Y11001021D01*
X6951208Y11136225D01*
X6836225Y11251208D01*
X6701021Y11341548D01*
X6550789Y11403776D01*
X6391305Y11435500D01*
X6228695Y11435500D01*
X6069211Y11403776D01*
X5918979Y11341548D01*
X5783775Y11251208D01*
X5668792Y11136225D01*
X5578452Y11001021D01*
X5516224Y10850789D01*
X5484500Y10691305D01*
X487000Y10691305D01*
X487000Y12581305D01*
X7094500Y12581305D01*
X7094500Y12418695D01*
X7126224Y12259211D01*
X7188452Y12108979D01*
X7278792Y11973775D01*
X7393775Y11858792D01*
X7528979Y11768452D01*
X7679211Y11706224D01*
X7838695Y11674500D01*
X8001305Y11674500D01*
X8160789Y11706224D01*
X8202811Y11723630D01*
X8174500Y11581305D01*
X8174500Y11418695D01*
X8206224Y11259211D01*
X8268452Y11108979D01*
X8358792Y10973775D01*
X8473775Y10858792D01*
X8608979Y10768452D01*
X8759211Y10706224D01*
X8918695Y10674500D01*
X9081305Y10674500D01*
X9240789Y10706224D01*
X9391021Y10768452D01*
X9526225Y10858792D01*
X9641208Y10973775D01*
X9731548Y11108979D01*
X9793776Y11259211D01*
X9825500Y11418695D01*
X9825500Y11581305D01*
X9793776Y11740789D01*
X9731548Y11891021D01*
X9641208Y12026225D01*
X9526225Y12141208D01*
X9391021Y12231548D01*
X9240789Y12293776D01*
X9081305Y12325500D01*
X8918695Y12325500D01*
X8759211Y12293776D01*
X8717189Y12276370D01*
X8745500Y12418695D01*
X8745500Y12581305D01*
X8713776Y12740789D01*
X8651548Y12891021D01*
X8561208Y13026225D01*
X8446225Y13141208D01*
X8311021Y13231548D01*
X8160789Y13293776D01*
X8001305Y13325500D01*
X7838695Y13325500D01*
X7679211Y13293776D01*
X7528979Y13231548D01*
X7393775Y13141208D01*
X7278792Y13026225D01*
X7188452Y12891021D01*
X7126224Y12740789D01*
X7094500Y12581305D01*
X487000Y12581305D01*
X487000Y13791305D01*
X11934500Y13791305D01*
X11934500Y13628695D01*
X11966224Y13469211D01*
X12028452Y13318979D01*
X12118792Y13183775D01*
X12233775Y13068792D01*
X12368979Y12978452D01*
X12406455Y12962929D01*
X12378979Y12951548D01*
X12243775Y12861208D01*
X12128792Y12746225D01*
X12038452Y12611021D01*
X11976224Y12460789D01*
X11944500Y12301305D01*
X11944500Y12138695D01*
X11976224Y11979211D01*
X12038452Y11828979D01*
X12128792Y11693775D01*
X12243775Y11578792D01*
X12378979Y11488452D01*
X12529211Y11426224D01*
X12688695Y11394500D01*
X12851305Y11394500D01*
X13010789Y11426224D01*
X13161021Y11488452D01*
X13296225Y11578792D01*
X13321430Y11603997D01*
X15467192Y11603997D01*
X15467192Y11441387D01*
X15498916Y11281903D01*
X15561144Y11131671D01*
X15651484Y10996467D01*
X15766467Y10881484D01*
X15901671Y10791144D01*
X16051903Y10728916D01*
X16211387Y10697192D01*
X16373997Y10697192D01*
X16533481Y10728916D01*
X16683713Y10791144D01*
X16818917Y10881484D01*
X16933900Y10996467D01*
X17024240Y11131671D01*
X17086468Y11281903D01*
X17118192Y11441387D01*
X17118192Y11603997D01*
X17086468Y11763481D01*
X17024240Y11913713D01*
X16933900Y12048917D01*
X16818917Y12163900D01*
X16683713Y12254240D01*
X16533481Y12316468D01*
X16373997Y12348192D01*
X16211387Y12348192D01*
X16051903Y12316468D01*
X15901671Y12254240D01*
X15766467Y12163900D01*
X15651484Y12048917D01*
X15561144Y11913713D01*
X15498916Y11763481D01*
X15467192Y11603997D01*
X13321430Y11603997D01*
X13411208Y11693775D01*
X13501548Y11828979D01*
X13563776Y11979211D01*
X13595500Y12138695D01*
X13595500Y12301305D01*
X13563776Y12460789D01*
X13501548Y12611021D01*
X13411208Y12746225D01*
X13296225Y12861208D01*
X13161021Y12951548D01*
X13123545Y12967071D01*
X13151021Y12978452D01*
X13286225Y13068792D01*
X13401208Y13183775D01*
X13491548Y13318979D01*
X13553776Y13469211D01*
X13580587Y13603997D01*
X15467192Y13603997D01*
X15467192Y13441387D01*
X15498916Y13281903D01*
X15561144Y13131671D01*
X15651484Y12996467D01*
X15766467Y12881484D01*
X15901671Y12791144D01*
X16051903Y12728916D01*
X16211387Y12697192D01*
X16373997Y12697192D01*
X16533481Y12728916D01*
X16683713Y12791144D01*
X16818917Y12881484D01*
X16933900Y12996467D01*
X17024240Y13131671D01*
X17086468Y13281903D01*
X17118192Y13441387D01*
X17118192Y13603997D01*
X17086468Y13763481D01*
X17024240Y13913713D01*
X16933900Y14048917D01*
X16818917Y14163900D01*
X16683713Y14254240D01*
X16533481Y14316468D01*
X16373997Y14348192D01*
X16211387Y14348192D01*
X16051903Y14316468D01*
X15901671Y14254240D01*
X15766467Y14163900D01*
X15651484Y14048917D01*
X15561144Y13913713D01*
X15498916Y13763481D01*
X15467192Y13603997D01*
X13580587Y13603997D01*
X13585500Y13628695D01*
X13585500Y13791305D01*
X13553776Y13950789D01*
X13491548Y14101021D01*
X13401208Y14236225D01*
X13286225Y14351208D01*
X13151021Y14441548D01*
X13000789Y14503776D01*
X12841305Y14535500D01*
X12678695Y14535500D01*
X12519211Y14503776D01*
X12368979Y14441548D01*
X12233775Y14351208D01*
X12118792Y14236225D01*
X12028452Y14101021D01*
X11966224Y13950789D01*
X11934500Y13791305D01*
X487000Y13791305D01*
X487000Y15581305D01*
X8174500Y15581305D01*
X8174500Y15418695D01*
X8206224Y15259211D01*
X8268452Y15108979D01*
X8358792Y14973775D01*
X8473775Y14858792D01*
X8608979Y14768452D01*
X8759211Y14706224D01*
X8918695Y14674500D01*
X9081305Y14674500D01*
X9240789Y14706224D01*
X9391021Y14768452D01*
X9526225Y14858792D01*
X9641208Y14973775D01*
X9731548Y15108979D01*
X9793776Y15259211D01*
X9825500Y15418695D01*
X9825500Y15581305D01*
X9820987Y15603997D01*
X15467192Y15603997D01*
X15467192Y15441387D01*
X15498916Y15281903D01*
X15561144Y15131671D01*
X15651484Y14996467D01*
X15766467Y14881484D01*
X15901671Y14791144D01*
X16051903Y14728916D01*
X16211387Y14697192D01*
X16373997Y14697192D01*
X16533481Y14728916D01*
X16683713Y14791144D01*
X16766264Y14846303D01*
X16793775Y14818792D01*
X16928979Y14728452D01*
X17079211Y14666224D01*
X17238695Y14634500D01*
X17401305Y14634500D01*
X17560789Y14666224D01*
X17711021Y14728452D01*
X17846225Y14818792D01*
X17961208Y14933775D01*
X18051548Y15068979D01*
X18113776Y15219211D01*
X18145500Y15378695D01*
X18145500Y15541305D01*
X18113776Y15700789D01*
X18051548Y15851021D01*
X17961208Y15986225D01*
X17846225Y16101208D01*
X17711021Y16191548D01*
X17560789Y16253776D01*
X17401305Y16285500D01*
X17238695Y16285500D01*
X17079211Y16253776D01*
X16928979Y16191548D01*
X16846428Y16136389D01*
X16818917Y16163900D01*
X16683713Y16254240D01*
X16533481Y16316468D01*
X16373997Y16348192D01*
X16211387Y16348192D01*
X16051903Y16316468D01*
X15901671Y16254240D01*
X15766467Y16163900D01*
X15651484Y16048917D01*
X15561144Y15913713D01*
X15498916Y15763481D01*
X15467192Y15603997D01*
X9820987Y15603997D01*
X9793776Y15740789D01*
X9731548Y15891021D01*
X9641208Y16026225D01*
X9526225Y16141208D01*
X9391021Y16231548D01*
X9240789Y16293776D01*
X9081305Y16325500D01*
X8918695Y16325500D01*
X8759211Y16293776D01*
X8608979Y16231548D01*
X8473775Y16141208D01*
X8358792Y16026225D01*
X8268452Y15891021D01*
X8206224Y15740789D01*
X8174500Y15581305D01*
X487000Y15581305D01*
X487000Y16578605D01*
X6841800Y16578605D01*
X6841800Y16415995D01*
X6873524Y16256511D01*
X6935752Y16106279D01*
X7026092Y15971075D01*
X7141075Y15856092D01*
X7276279Y15765752D01*
X7426511Y15703524D01*
X7585995Y15671800D01*
X7748605Y15671800D01*
X7908089Y15703524D01*
X8058321Y15765752D01*
X8193525Y15856092D01*
X8308508Y15971075D01*
X8398848Y16106279D01*
X8461076Y16256511D01*
X8492800Y16415995D01*
X8492800Y16578605D01*
X8461076Y16738089D01*
X8434892Y16801305D01*
X11934500Y16801305D01*
X11934500Y16638695D01*
X11966224Y16479211D01*
X12028452Y16328979D01*
X12118792Y16193775D01*
X12233775Y16078792D01*
X12368979Y15988452D01*
X12519211Y15926224D01*
X12678695Y15894500D01*
X12841305Y15894500D01*
X13000789Y15926224D01*
X13151021Y15988452D01*
X13286225Y16078792D01*
X13401208Y16193775D01*
X13491548Y16328979D01*
X13517364Y16391305D01*
X21374500Y16391305D01*
X21374500Y16228695D01*
X21406224Y16069211D01*
X21468452Y15918979D01*
X21558792Y15783775D01*
X21673775Y15668792D01*
X21808979Y15578452D01*
X21959211Y15516224D01*
X22118695Y15484500D01*
X22281305Y15484500D01*
X22440789Y15516224D01*
X22591021Y15578452D01*
X22726225Y15668792D01*
X22841208Y15783775D01*
X22931548Y15918979D01*
X22993776Y16069211D01*
X23025500Y16228695D01*
X23025500Y16391305D01*
X22993776Y16550789D01*
X22931548Y16701021D01*
X22841208Y16836225D01*
X22726225Y16951208D01*
X22591021Y17041548D01*
X22440789Y17103776D01*
X22281305Y17135500D01*
X22118695Y17135500D01*
X21959211Y17103776D01*
X21808979Y17041548D01*
X21673775Y16951208D01*
X21558792Y16836225D01*
X21468452Y16701021D01*
X21406224Y16550789D01*
X21374500Y16391305D01*
X13517364Y16391305D01*
X13553776Y16479211D01*
X13585500Y16638695D01*
X13585500Y16801305D01*
X13553776Y16960789D01*
X13491548Y17111021D01*
X13401208Y17246225D01*
X13286225Y17361208D01*
X13151021Y17451548D01*
X13000789Y17513776D01*
X12841305Y17545500D01*
X12678695Y17545500D01*
X12519211Y17513776D01*
X12368979Y17451548D01*
X12233775Y17361208D01*
X12118792Y17246225D01*
X12028452Y17111021D01*
X11966224Y16960789D01*
X11934500Y16801305D01*
X8434892Y16801305D01*
X8398848Y16888321D01*
X8308508Y17023525D01*
X8193525Y17138508D01*
X8058321Y17228848D01*
X7908089Y17291076D01*
X7748605Y17322800D01*
X7585995Y17322800D01*
X7426511Y17291076D01*
X7276279Y17228848D01*
X7141075Y17138508D01*
X7026092Y17023525D01*
X6935752Y16888321D01*
X6873524Y16738089D01*
X6841800Y16578605D01*
X487000Y16578605D01*
X487000Y18422616D01*
X16497400Y18422616D01*
X16497400Y18077384D01*
X16564752Y17738785D01*
X16696866Y17419833D01*
X16888667Y17132783D01*
X17132783Y16888667D01*
X17419833Y16696866D01*
X17738785Y16564752D01*
X18077384Y16497400D01*
X18422616Y16497400D01*
X18761215Y16564752D01*
X19080167Y16696866D01*
X19367217Y16888667D01*
X19611333Y17132783D01*
X19803134Y17419833D01*
X19935248Y17738785D01*
X20002600Y18077384D01*
X20002600Y18422616D01*
X19935248Y18761215D01*
X19803134Y19080167D01*
X19611333Y19367217D01*
X19367217Y19611333D01*
X19080167Y19803134D01*
X18761215Y19935248D01*
X18422616Y20002600D01*
X18077384Y20002600D01*
X17738785Y19935248D01*
X17419833Y19803134D01*
X17132783Y19611333D01*
X16888667Y19367217D01*
X16696866Y19080167D01*
X16564752Y18761215D01*
X16497400Y18422616D01*
X487000Y18422616D01*
X487000Y24792000D01*
X24892000Y24792000D01*
X24892000Y387000D01*
G37*
G04 #@! TD.AperFunction*
G04 #@! TD*
D11*
G04 #@! TO.N,/BIAS2*
X-13425500Y-581305D02*
X-13393776Y-740789D01*
X-13331548Y-891021D01*
X-13258731Y-1000000D01*
X-13331548Y-1108979D01*
X-13393776Y-1259211D01*
X-13425500Y-1418695D01*
X-13425500Y-1581305D01*
X-13393776Y-1740789D01*
X-13331548Y-1891021D01*
X-13241208Y-2026225D01*
X-13126225Y-2141208D01*
X-12991021Y-2231548D01*
X-12840789Y-2293776D01*
X-12681305Y-2325500D01*
X-12518695Y-2325500D01*
X-12359211Y-2293776D01*
X-12208979Y-2231548D01*
X-12073775Y-2141208D01*
X-11958792Y-2026225D01*
X-11868452Y-1891021D01*
X-11806224Y-1740789D01*
X-11774500Y-1581305D01*
X-11774500Y-1418695D01*
X-11806224Y-1259211D01*
X-11868452Y-1108979D01*
X-11941269Y-1000000D01*
X-11868452Y-891021D01*
X-11806224Y-740789D01*
X-11774500Y-581305D01*
X-11774500Y-487000D01*
X-387000Y-487000D01*
X-387000Y-4666786D01*
X-391021Y-4668452D01*
X-526225Y-4758792D01*
X-641208Y-4873775D01*
X-731548Y-5008979D01*
X-793776Y-5159211D01*
X-825500Y-5318695D01*
X-825500Y-5481305D01*
X-793776Y-5640789D01*
X-731548Y-5791021D01*
X-641208Y-5926225D01*
X-526225Y-6041208D01*
X-391021Y-6131548D01*
X-387000Y-6133214D01*
X-387000Y-24892000D01*
X-24792000Y-24892000D01*
X-24792000Y-17653801D01*
X-13290394Y-17653801D01*
X-13290394Y-17816411D01*
X-13258670Y-17975895D01*
X-13196442Y-18126127D01*
X-13106102Y-18261331D01*
X-12991119Y-18376314D01*
X-12855915Y-18466654D01*
X-12705683Y-18528882D01*
X-12546199Y-18560606D01*
X-12383589Y-18560606D01*
X-12224105Y-18528882D01*
X-12073873Y-18466654D01*
X-11938669Y-18376314D01*
X-11823686Y-18261331D01*
X-11733346Y-18126127D01*
X-11671118Y-17975895D01*
X-11639394Y-17816411D01*
X-11639394Y-17653801D01*
X-11671118Y-17494317D01*
X-11733346Y-17344085D01*
X-11823686Y-17208881D01*
X-11938669Y-17093898D01*
X-12073873Y-17003558D01*
X-12224105Y-16941330D01*
X-12383589Y-16909606D01*
X-12546199Y-16909606D01*
X-12705683Y-16941330D01*
X-12855915Y-17003558D01*
X-12991119Y-17093898D01*
X-13106102Y-17208881D01*
X-13196442Y-17344085D01*
X-13258670Y-17494317D01*
X-13290394Y-17653801D01*
X-24792000Y-17653801D01*
X-24792000Y-14827384D01*
X-20002600Y-14827384D01*
X-20002600Y-15172616D01*
X-19935248Y-15511215D01*
X-19803134Y-15830167D01*
X-19611333Y-16117217D01*
X-19367217Y-16361333D01*
X-19080167Y-16553134D01*
X-18761215Y-16685248D01*
X-18422616Y-16752600D01*
X-18077384Y-16752600D01*
X-17738785Y-16685248D01*
X-17419833Y-16553134D01*
X-17132783Y-16361333D01*
X-16888667Y-16117217D01*
X-16696866Y-15830167D01*
X-16564752Y-15511215D01*
X-16497400Y-15172616D01*
X-16497400Y-14827384D01*
X-16564752Y-14488785D01*
X-16696866Y-14169833D01*
X-16888667Y-13882783D01*
X-17132783Y-13638667D01*
X-17419833Y-13446866D01*
X-17738785Y-13314752D01*
X-18077384Y-13247400D01*
X-18422616Y-13247400D01*
X-18761215Y-13314752D01*
X-19080167Y-13446866D01*
X-19367217Y-13638667D01*
X-19611333Y-13882783D01*
X-19803134Y-14169833D01*
X-19935248Y-14488785D01*
X-20002600Y-14827384D01*
X-24792000Y-14827384D01*
X-24792000Y-12938697D01*
X-16945500Y-12938697D01*
X-16945500Y-13101307D01*
X-16913776Y-13260791D01*
X-16851548Y-13411023D01*
X-16761208Y-13546227D01*
X-16646225Y-13661210D01*
X-16511021Y-13751550D01*
X-16360789Y-13813778D01*
X-16201305Y-13845502D01*
X-16038695Y-13845502D01*
X-15879211Y-13813778D01*
X-15728979Y-13751550D01*
X-15593775Y-13661210D01*
X-15478792Y-13546227D01*
X-15393579Y-13418695D01*
X-9825500Y-13418695D01*
X-9825500Y-13581305D01*
X-9793776Y-13740789D01*
X-9731548Y-13891021D01*
X-9658731Y-14000000D01*
X-9731548Y-14108979D01*
X-9793776Y-14259211D01*
X-9825500Y-14418695D01*
X-9825500Y-14581305D01*
X-9793776Y-14740789D01*
X-9731548Y-14891021D01*
X-9641208Y-15026225D01*
X-9526225Y-15141208D01*
X-9391021Y-15231548D01*
X-9240789Y-15293776D01*
X-9081305Y-15325500D01*
X-8918695Y-15325500D01*
X-8759211Y-15293776D01*
X-8608979Y-15231548D01*
X-8473775Y-15141208D01*
X-8358792Y-15026225D01*
X-8268452Y-14891021D01*
X-8206224Y-14740789D01*
X-8177960Y-14598695D01*
X-7005500Y-14598695D01*
X-7005500Y-14761305D01*
X-6973776Y-14920789D01*
X-6911548Y-15071021D01*
X-6821208Y-15206225D01*
X-6706225Y-15321208D01*
X-6571021Y-15411548D01*
X-6420789Y-15473776D01*
X-6261305Y-15505500D01*
X-6098695Y-15505500D01*
X-5939211Y-15473776D01*
X-5788979Y-15411548D01*
X-5653775Y-15321208D01*
X-5538792Y-15206225D01*
X-5448452Y-15071021D01*
X-5386224Y-14920789D01*
X-5354500Y-14761305D01*
X-5354500Y-14598695D01*
X-5386224Y-14439211D01*
X-5448452Y-14288979D01*
X-5538792Y-14153775D01*
X-5653775Y-14038792D01*
X-5788979Y-13948452D01*
X-5939211Y-13886224D01*
X-6098695Y-13854500D01*
X-6261305Y-13854500D01*
X-6420789Y-13886224D01*
X-6571021Y-13948452D01*
X-6706225Y-14038792D01*
X-6821208Y-14153775D01*
X-6911548Y-14288979D01*
X-6973776Y-14439211D01*
X-7005500Y-14598695D01*
X-8177960Y-14598695D01*
X-8174500Y-14581305D01*
X-8174500Y-14418695D01*
X-8206224Y-14259211D01*
X-8268452Y-14108979D01*
X-8341269Y-14000000D01*
X-8268452Y-13891021D01*
X-8206224Y-13740789D01*
X-8174500Y-13581305D01*
X-8174500Y-13418695D01*
X-8206224Y-13259211D01*
X-8268452Y-13108979D01*
X-8358792Y-12973775D01*
X-8473775Y-12858792D01*
X-8608979Y-12768452D01*
X-8759211Y-12706224D01*
X-8918695Y-12674500D01*
X-9081305Y-12674500D01*
X-9240789Y-12706224D01*
X-9391021Y-12768452D01*
X-9526225Y-12858792D01*
X-9641208Y-12973775D01*
X-9731548Y-13108979D01*
X-9793776Y-13259211D01*
X-9825500Y-13418695D01*
X-15393579Y-13418695D01*
X-15388452Y-13411023D01*
X-15326224Y-13260791D01*
X-15294500Y-13101307D01*
X-15294500Y-12938697D01*
X-15326224Y-12779213D01*
X-15388452Y-12628981D01*
X-15478792Y-12493777D01*
X-15593775Y-12378794D01*
X-15728979Y-12288454D01*
X-15879211Y-12226226D01*
X-16038695Y-12194502D01*
X-16201305Y-12194502D01*
X-16360789Y-12226226D01*
X-16511021Y-12288454D01*
X-16646225Y-12378794D01*
X-16761208Y-12493777D01*
X-16851548Y-12628981D01*
X-16913776Y-12779213D01*
X-16945500Y-12938697D01*
X-24792000Y-12938697D01*
X-24792000Y-12028695D01*
X-22605500Y-12028695D01*
X-22605500Y-12191305D01*
X-22573776Y-12350789D01*
X-22511548Y-12501021D01*
X-22421208Y-12636225D01*
X-22306225Y-12751208D01*
X-22171021Y-12841548D01*
X-22020789Y-12903776D01*
X-21861305Y-12935500D01*
X-21698695Y-12935500D01*
X-21539211Y-12903776D01*
X-21388979Y-12841548D01*
X-21253775Y-12751208D01*
X-21138792Y-12636225D01*
X-21048452Y-12501021D01*
X-20986224Y-12350789D01*
X-20954500Y-12191305D01*
X-20954500Y-12028695D01*
X-20986224Y-11869211D01*
X-21048452Y-11718979D01*
X-21138792Y-11583775D01*
X-21253775Y-11468792D01*
X-21388979Y-11378452D01*
X-21539211Y-11316224D01*
X-21698695Y-11284500D01*
X-21861305Y-11284500D01*
X-22020789Y-11316224D01*
X-22171021Y-11378452D01*
X-22306225Y-11468792D01*
X-22421208Y-11583775D01*
X-22511548Y-11718979D01*
X-22573776Y-11869211D01*
X-22605500Y-12028695D01*
X-24792000Y-12028695D01*
X-24792000Y-9441387D01*
X-17118192Y-9441387D01*
X-17118192Y-9603997D01*
X-17086468Y-9763481D01*
X-17024240Y-9913713D01*
X-16933900Y-10048917D01*
X-16818917Y-10163900D01*
X-16683713Y-10254240D01*
X-16533481Y-10316468D01*
X-16513885Y-10320366D01*
X-16646225Y-10408792D01*
X-16761208Y-10523775D01*
X-16851548Y-10658979D01*
X-16913776Y-10809211D01*
X-16945500Y-10968695D01*
X-16945500Y-11131305D01*
X-16913776Y-11290789D01*
X-16851548Y-11441021D01*
X-16761208Y-11576225D01*
X-16646225Y-11691208D01*
X-16511021Y-11781548D01*
X-16360789Y-11843776D01*
X-16201305Y-11875500D01*
X-16038695Y-11875500D01*
X-15879211Y-11843776D01*
X-15728979Y-11781548D01*
X-15593775Y-11691208D01*
X-15478792Y-11576225D01*
X-15388452Y-11441021D01*
X-15379205Y-11418695D01*
X-13325500Y-11418695D01*
X-13325500Y-11581305D01*
X-13293776Y-11740789D01*
X-13231548Y-11891021D01*
X-13141208Y-12026225D01*
X-13026225Y-12141208D01*
X-12891021Y-12231548D01*
X-12740789Y-12293776D01*
X-12581305Y-12325500D01*
X-12418695Y-12325500D01*
X-12259211Y-12293776D01*
X-12108979Y-12231548D01*
X-11973775Y-12141208D01*
X-11858792Y-12026225D01*
X-11768452Y-11891021D01*
X-11706224Y-11740789D01*
X-11674500Y-11581305D01*
X-11674500Y-11418695D01*
X-11706224Y-11259211D01*
X-11768452Y-11108979D01*
X-11858792Y-10973775D01*
X-11973775Y-10858792D01*
X-12108979Y-10768452D01*
X-12259211Y-10706224D01*
X-12418695Y-10674500D01*
X-12581305Y-10674500D01*
X-12740789Y-10706224D01*
X-12891021Y-10768452D01*
X-13026225Y-10858792D01*
X-13141208Y-10973775D01*
X-13231548Y-11108979D01*
X-13293776Y-11259211D01*
X-13325500Y-11418695D01*
X-15379205Y-11418695D01*
X-15326224Y-11290789D01*
X-15294500Y-11131305D01*
X-15294500Y-10968695D01*
X-15326224Y-10809211D01*
X-15388452Y-10658979D01*
X-15478792Y-10523775D01*
X-15593775Y-10408792D01*
X-15728979Y-10318452D01*
X-15879211Y-10256224D01*
X-15898807Y-10252326D01*
X-15766467Y-10163900D01*
X-15651484Y-10048917D01*
X-15561144Y-9913713D01*
X-15498916Y-9763481D01*
X-15467192Y-9603997D01*
X-15467192Y-9441387D01*
X-15498916Y-9281903D01*
X-15561144Y-9131671D01*
X-15651484Y-8996467D01*
X-15766467Y-8881484D01*
X-15901671Y-8791144D01*
X-16051903Y-8728916D01*
X-16211387Y-8697192D01*
X-16373997Y-8697192D01*
X-16533481Y-8728916D01*
X-16683713Y-8791144D01*
X-16818917Y-8881484D01*
X-16933900Y-8996467D01*
X-17024240Y-9131671D01*
X-17086468Y-9281903D01*
X-17118192Y-9441387D01*
X-24792000Y-9441387D01*
X-24792000Y-8158695D01*
X-19765500Y-8158695D01*
X-19765500Y-8321305D01*
X-19733776Y-8480789D01*
X-19671548Y-8631021D01*
X-19581208Y-8766225D01*
X-19466225Y-8881208D01*
X-19331021Y-8971548D01*
X-19180789Y-9033776D01*
X-19021305Y-9065500D01*
X-18858695Y-9065500D01*
X-18699211Y-9033776D01*
X-18548979Y-8971548D01*
X-18413775Y-8881208D01*
X-18298792Y-8766225D01*
X-18208452Y-8631021D01*
X-18146224Y-8480789D01*
X-18114500Y-8321305D01*
X-18114500Y-8158695D01*
X-18146224Y-7999211D01*
X-18208452Y-7848979D01*
X-18298792Y-7713775D01*
X-18413775Y-7598792D01*
X-18548979Y-7508452D01*
X-18699211Y-7446224D01*
X-18723527Y-7441387D01*
X-17118192Y-7441387D01*
X-17118192Y-7603997D01*
X-17086468Y-7763481D01*
X-17024240Y-7913713D01*
X-16933900Y-8048917D01*
X-16818917Y-8163900D01*
X-16683713Y-8254240D01*
X-16533481Y-8316468D01*
X-16373997Y-8348192D01*
X-16211387Y-8348192D01*
X-16051903Y-8316468D01*
X-15901671Y-8254240D01*
X-15766467Y-8163900D01*
X-15651484Y-8048917D01*
X-15561144Y-7913713D01*
X-15530071Y-7838695D01*
X-13605500Y-7838695D01*
X-13605500Y-8001305D01*
X-13573776Y-8160789D01*
X-13511548Y-8311021D01*
X-13421208Y-8446225D01*
X-13306225Y-8561208D01*
X-13289690Y-8572257D01*
X-13391208Y-8673775D01*
X-13481548Y-8808979D01*
X-13543776Y-8959211D01*
X-13575500Y-9118695D01*
X-13575500Y-9281305D01*
X-13543776Y-9440789D01*
X-13481548Y-9591021D01*
X-13391208Y-9726225D01*
X-13276225Y-9841208D01*
X-13141021Y-9931548D01*
X-12990789Y-9993776D01*
X-12831305Y-10025500D01*
X-12668695Y-10025500D01*
X-12509211Y-9993776D01*
X-12358979Y-9931548D01*
X-12223775Y-9841208D01*
X-12108792Y-9726225D01*
X-12018452Y-9591021D01*
X-11956224Y-9440789D01*
X-11951830Y-9418695D01*
X-10025500Y-9418695D01*
X-10025500Y-9581305D01*
X-9993776Y-9740789D01*
X-9931548Y-9891021D01*
X-9858731Y-10000000D01*
X-9931548Y-10108979D01*
X-9993776Y-10259211D01*
X-10025500Y-10418695D01*
X-10025500Y-10581305D01*
X-9993776Y-10740789D01*
X-9931548Y-10891021D01*
X-9841208Y-11026225D01*
X-9726225Y-11141208D01*
X-9591021Y-11231548D01*
X-9440789Y-11293776D01*
X-9281305Y-11325500D01*
X-9118695Y-11325500D01*
X-8959211Y-11293776D01*
X-8808979Y-11231548D01*
X-8673775Y-11141208D01*
X-8558792Y-11026225D01*
X-8468452Y-10891021D01*
X-8406224Y-10740789D01*
X-8374500Y-10581305D01*
X-8374500Y-10418695D01*
X-8406224Y-10259211D01*
X-8468452Y-10108979D01*
X-8541269Y-10000000D01*
X-8468452Y-9891021D01*
X-8406224Y-9740789D01*
X-8374500Y-9581305D01*
X-8374500Y-9418695D01*
X-8406224Y-9259211D01*
X-8468452Y-9108979D01*
X-8558792Y-8973775D01*
X-8673775Y-8858792D01*
X-8808979Y-8768452D01*
X-8959211Y-8706224D01*
X-9118695Y-8674500D01*
X-9281305Y-8674500D01*
X-9440789Y-8706224D01*
X-9591021Y-8768452D01*
X-9726225Y-8858792D01*
X-9841208Y-8973775D01*
X-9931548Y-9108979D01*
X-9993776Y-9259211D01*
X-10025500Y-9418695D01*
X-11951830Y-9418695D01*
X-11924500Y-9281305D01*
X-11924500Y-9118695D01*
X-11956224Y-8959211D01*
X-12018452Y-8808979D01*
X-12108792Y-8673775D01*
X-12223775Y-8558792D01*
X-12240310Y-8547743D01*
X-12138792Y-8446225D01*
X-12048452Y-8311021D01*
X-11986224Y-8160789D01*
X-11954500Y-8001305D01*
X-11954500Y-7838695D01*
X-11986224Y-7679211D01*
X-12048452Y-7528979D01*
X-12138792Y-7393775D01*
X-12253775Y-7278792D01*
X-12388979Y-7188452D01*
X-12539211Y-7126224D01*
X-12698695Y-7094500D01*
X-12861305Y-7094500D01*
X-13020789Y-7126224D01*
X-13171021Y-7188452D01*
X-13306225Y-7278792D01*
X-13421208Y-7393775D01*
X-13511548Y-7528979D01*
X-13573776Y-7679211D01*
X-13605500Y-7838695D01*
X-15530071Y-7838695D01*
X-15498916Y-7763481D01*
X-15467192Y-7603997D01*
X-15467192Y-7441387D01*
X-15498916Y-7281903D01*
X-15561144Y-7131671D01*
X-15651484Y-6996467D01*
X-15766467Y-6881484D01*
X-15901671Y-6791144D01*
X-16051903Y-6728916D01*
X-16211387Y-6697192D01*
X-16373997Y-6697192D01*
X-16533481Y-6728916D01*
X-16683713Y-6791144D01*
X-16818917Y-6881484D01*
X-16933900Y-6996467D01*
X-17024240Y-7131671D01*
X-17086468Y-7281903D01*
X-17118192Y-7441387D01*
X-18723527Y-7441387D01*
X-18858695Y-7414500D01*
X-19021305Y-7414500D01*
X-19180789Y-7446224D01*
X-19331021Y-7508452D01*
X-19466225Y-7598792D01*
X-19581208Y-7713775D01*
X-19671548Y-7848979D01*
X-19733776Y-7999211D01*
X-19765500Y-8158695D01*
X-24792000Y-8158695D01*
X-24792000Y-5441387D01*
X-17118192Y-5441387D01*
X-17118192Y-5603997D01*
X-17086468Y-5763481D01*
X-17024240Y-5913713D01*
X-16933900Y-6048917D01*
X-16818917Y-6163900D01*
X-16683713Y-6254240D01*
X-16533481Y-6316468D01*
X-16373997Y-6348192D01*
X-16211387Y-6348192D01*
X-16051903Y-6316468D01*
X-15901671Y-6254240D01*
X-15766467Y-6163900D01*
X-15651484Y-6048917D01*
X-15631291Y-6018695D01*
X-13575500Y-6018695D01*
X-13575500Y-6181305D01*
X-13543776Y-6340789D01*
X-13481548Y-6491021D01*
X-13391208Y-6626225D01*
X-13276225Y-6741208D01*
X-13141021Y-6831548D01*
X-12990789Y-6893776D01*
X-12831305Y-6925500D01*
X-12668695Y-6925500D01*
X-12509211Y-6893776D01*
X-12358979Y-6831548D01*
X-12223775Y-6741208D01*
X-12108792Y-6626225D01*
X-12018452Y-6491021D01*
X-11988494Y-6418695D01*
X-10025500Y-6418695D01*
X-10025500Y-6581305D01*
X-9993776Y-6740789D01*
X-9931548Y-6891021D01*
X-9841208Y-7026225D01*
X-9726225Y-7141208D01*
X-9591021Y-7231548D01*
X-9440789Y-7293776D01*
X-9281305Y-7325500D01*
X-9118695Y-7325500D01*
X-8959211Y-7293776D01*
X-8808979Y-7231548D01*
X-8673775Y-7141208D01*
X-8558792Y-7026225D01*
X-8468452Y-6891021D01*
X-8406224Y-6740789D01*
X-8381938Y-6618695D01*
X-5425500Y-6618695D01*
X-5425500Y-6781305D01*
X-5393776Y-6940789D01*
X-5331548Y-7091021D01*
X-5241208Y-7226225D01*
X-5126225Y-7341208D01*
X-4991021Y-7431548D01*
X-4840789Y-7493776D01*
X-4681305Y-7525500D01*
X-4518695Y-7525500D01*
X-4359211Y-7493776D01*
X-4208979Y-7431548D01*
X-4073775Y-7341208D01*
X-3958792Y-7226225D01*
X-3868452Y-7091021D01*
X-3806224Y-6940789D01*
X-3774500Y-6781305D01*
X-3774500Y-6618695D01*
X-3806224Y-6459211D01*
X-3868452Y-6308979D01*
X-3958792Y-6173775D01*
X-4073775Y-6058792D01*
X-4208979Y-5968452D01*
X-4359211Y-5906224D01*
X-4518695Y-5874500D01*
X-4681305Y-5874500D01*
X-4840789Y-5906224D01*
X-4991021Y-5968452D01*
X-5126225Y-6058792D01*
X-5241208Y-6173775D01*
X-5331548Y-6308979D01*
X-5393776Y-6459211D01*
X-5425500Y-6618695D01*
X-8381938Y-6618695D01*
X-8374500Y-6581305D01*
X-8374500Y-6418695D01*
X-8406224Y-6259211D01*
X-8468452Y-6108979D01*
X-8558792Y-5973775D01*
X-8673775Y-5858792D01*
X-8808979Y-5768452D01*
X-8959211Y-5706224D01*
X-9118695Y-5674500D01*
X-9281305Y-5674500D01*
X-9440789Y-5706224D01*
X-9591021Y-5768452D01*
X-9726225Y-5858792D01*
X-9841208Y-5973775D01*
X-9931548Y-6108979D01*
X-9993776Y-6259211D01*
X-10025500Y-6418695D01*
X-11988494Y-6418695D01*
X-11956224Y-6340789D01*
X-11924500Y-6181305D01*
X-11924500Y-6018695D01*
X-11956224Y-5859211D01*
X-12018452Y-5708979D01*
X-12108792Y-5573775D01*
X-12223775Y-5458792D01*
X-12358979Y-5368452D01*
X-12480849Y-5317972D01*
X-12359211Y-5293776D01*
X-12208979Y-5231548D01*
X-12073775Y-5141208D01*
X-11958792Y-5026225D01*
X-11868452Y-4891021D01*
X-11806224Y-4740789D01*
X-11774500Y-4581305D01*
X-11774500Y-4418695D01*
X-11806224Y-4259211D01*
X-11868452Y-4108979D01*
X-11941269Y-4000000D01*
X-11868452Y-3891021D01*
X-11806224Y-3740789D01*
X-11774500Y-3581305D01*
X-11774500Y-3418695D01*
X-11806224Y-3259211D01*
X-11868452Y-3108979D01*
X-11958792Y-2973775D01*
X-12073775Y-2858792D01*
X-12208979Y-2768452D01*
X-12359211Y-2706224D01*
X-12518695Y-2674500D01*
X-12681305Y-2674500D01*
X-12840789Y-2706224D01*
X-12991021Y-2768452D01*
X-13126225Y-2858792D01*
X-13241208Y-2973775D01*
X-13331548Y-3108979D01*
X-13393776Y-3259211D01*
X-13425500Y-3418695D01*
X-13425500Y-3581305D01*
X-13393776Y-3740789D01*
X-13331548Y-3891021D01*
X-13258731Y-4000000D01*
X-13331548Y-4108979D01*
X-13393776Y-4259211D01*
X-13425500Y-4418695D01*
X-13425500Y-4581305D01*
X-13393776Y-4740789D01*
X-13331548Y-4891021D01*
X-13241208Y-5026225D01*
X-13126225Y-5141208D01*
X-12991021Y-5231548D01*
X-12869151Y-5282028D01*
X-12990789Y-5306224D01*
X-13141021Y-5368452D01*
X-13276225Y-5458792D01*
X-13391208Y-5573775D01*
X-13481548Y-5708979D01*
X-13543776Y-5859211D01*
X-13575500Y-6018695D01*
X-15631291Y-6018695D01*
X-15561144Y-5913713D01*
X-15498916Y-5763481D01*
X-15467192Y-5603997D01*
X-15467192Y-5441387D01*
X-15498916Y-5281903D01*
X-15561144Y-5131671D01*
X-15651484Y-4996467D01*
X-15766467Y-4881484D01*
X-15901671Y-4791144D01*
X-16051903Y-4728916D01*
X-16211387Y-4697192D01*
X-16373997Y-4697192D01*
X-16533481Y-4728916D01*
X-16683713Y-4791144D01*
X-16818917Y-4881484D01*
X-16933900Y-4996467D01*
X-17024240Y-5131671D01*
X-17086468Y-5281903D01*
X-17118192Y-5441387D01*
X-24792000Y-5441387D01*
X-24792000Y-3441387D01*
X-17118192Y-3441387D01*
X-17118192Y-3603997D01*
X-17086468Y-3763481D01*
X-17024240Y-3913713D01*
X-16933900Y-4048917D01*
X-16818917Y-4163900D01*
X-16683713Y-4254240D01*
X-16533481Y-4316468D01*
X-16373997Y-4348192D01*
X-16211387Y-4348192D01*
X-16051903Y-4316468D01*
X-15901671Y-4254240D01*
X-15766467Y-4163900D01*
X-15651484Y-4048917D01*
X-15561144Y-3913713D01*
X-15498916Y-3763481D01*
X-15467192Y-3603997D01*
X-15467192Y-3441387D01*
X-15498916Y-3281903D01*
X-15561144Y-3131671D01*
X-15651484Y-2996467D01*
X-15766467Y-2881484D01*
X-15901671Y-2791144D01*
X-16051903Y-2728916D01*
X-16211387Y-2697192D01*
X-16373997Y-2697192D01*
X-16533481Y-2728916D01*
X-16683713Y-2791144D01*
X-16818917Y-2881484D01*
X-16933900Y-2996467D01*
X-17024240Y-3131671D01*
X-17086468Y-3281903D01*
X-17118192Y-3441387D01*
X-24792000Y-3441387D01*
X-24792000Y-2418695D01*
X-10025500Y-2418695D01*
X-10025500Y-2581305D01*
X-9993776Y-2740789D01*
X-9931548Y-2891021D01*
X-9841208Y-3026225D01*
X-9726225Y-3141208D01*
X-9591021Y-3231548D01*
X-9440789Y-3293776D01*
X-9281305Y-3325500D01*
X-9118695Y-3325500D01*
X-8959211Y-3293776D01*
X-8808979Y-3231548D01*
X-8673775Y-3141208D01*
X-8558792Y-3026225D01*
X-8468452Y-2891021D01*
X-8406224Y-2740789D01*
X-8374500Y-2581305D01*
X-8374500Y-2418695D01*
X-8406224Y-2259211D01*
X-8468452Y-2108979D01*
X-8558792Y-1973775D01*
X-8673775Y-1858792D01*
X-8808979Y-1768452D01*
X-8959211Y-1706224D01*
X-9118695Y-1674500D01*
X-9281305Y-1674500D01*
X-9440789Y-1706224D01*
X-9591021Y-1768452D01*
X-9726225Y-1858792D01*
X-9841208Y-1973775D01*
X-9931548Y-2108979D01*
X-9993776Y-2259211D01*
X-10025500Y-2418695D01*
X-24792000Y-2418695D01*
X-24792000Y-1441387D01*
X-17118192Y-1441387D01*
X-17118192Y-1603997D01*
X-17086468Y-1763481D01*
X-17024240Y-1913713D01*
X-16933900Y-2048917D01*
X-16818917Y-2163900D01*
X-16683713Y-2254240D01*
X-16533481Y-2316468D01*
X-16373997Y-2348192D01*
X-16211387Y-2348192D01*
X-16051903Y-2316468D01*
X-15901671Y-2254240D01*
X-15766467Y-2163900D01*
X-15651484Y-2048917D01*
X-15561144Y-1913713D01*
X-15498916Y-1763481D01*
X-15467192Y-1603997D01*
X-15467192Y-1441387D01*
X-15498916Y-1281903D01*
X-15561144Y-1131671D01*
X-15651484Y-996467D01*
X-15766467Y-881484D01*
X-15901671Y-791144D01*
X-16051903Y-728916D01*
X-16211387Y-697192D01*
X-16373997Y-697192D01*
X-16533481Y-728916D01*
X-16683713Y-791144D01*
X-16818917Y-881484D01*
X-16933900Y-996467D01*
X-17024240Y-1131671D01*
X-17086468Y-1281903D01*
X-17118192Y-1441387D01*
X-24792000Y-1441387D01*
X-24792000Y-487000D01*
X-13425500Y-487000D01*
X-13425500Y-581305D01*
G04 #@! TA.AperFunction,Conductor*
D12*
G36*
X-13425500Y-581305D02*
G01*
X-13393776Y-740789D01*
X-13331548Y-891021D01*
X-13258731Y-1000000D01*
X-13331548Y-1108979D01*
X-13393776Y-1259211D01*
X-13425500Y-1418695D01*
X-13425500Y-1581305D01*
X-13393776Y-1740789D01*
X-13331548Y-1891021D01*
X-13241208Y-2026225D01*
X-13126225Y-2141208D01*
X-12991021Y-2231548D01*
X-12840789Y-2293776D01*
X-12681305Y-2325500D01*
X-12518695Y-2325500D01*
X-12359211Y-2293776D01*
X-12208979Y-2231548D01*
X-12073775Y-2141208D01*
X-11958792Y-2026225D01*
X-11868452Y-1891021D01*
X-11806224Y-1740789D01*
X-11774500Y-1581305D01*
X-11774500Y-1418695D01*
X-11806224Y-1259211D01*
X-11868452Y-1108979D01*
X-11941269Y-1000000D01*
X-11868452Y-891021D01*
X-11806224Y-740789D01*
X-11774500Y-581305D01*
X-11774500Y-487000D01*
X-387000Y-487000D01*
X-387000Y-4666786D01*
X-391021Y-4668452D01*
X-526225Y-4758792D01*
X-641208Y-4873775D01*
X-731548Y-5008979D01*
X-793776Y-5159211D01*
X-825500Y-5318695D01*
X-825500Y-5481305D01*
X-793776Y-5640789D01*
X-731548Y-5791021D01*
X-641208Y-5926225D01*
X-526225Y-6041208D01*
X-391021Y-6131548D01*
X-387000Y-6133214D01*
X-387000Y-24892000D01*
X-24792000Y-24892000D01*
X-24792000Y-17653801D01*
X-13290394Y-17653801D01*
X-13290394Y-17816411D01*
X-13258670Y-17975895D01*
X-13196442Y-18126127D01*
X-13106102Y-18261331D01*
X-12991119Y-18376314D01*
X-12855915Y-18466654D01*
X-12705683Y-18528882D01*
X-12546199Y-18560606D01*
X-12383589Y-18560606D01*
X-12224105Y-18528882D01*
X-12073873Y-18466654D01*
X-11938669Y-18376314D01*
X-11823686Y-18261331D01*
X-11733346Y-18126127D01*
X-11671118Y-17975895D01*
X-11639394Y-17816411D01*
X-11639394Y-17653801D01*
X-11671118Y-17494317D01*
X-11733346Y-17344085D01*
X-11823686Y-17208881D01*
X-11938669Y-17093898D01*
X-12073873Y-17003558D01*
X-12224105Y-16941330D01*
X-12383589Y-16909606D01*
X-12546199Y-16909606D01*
X-12705683Y-16941330D01*
X-12855915Y-17003558D01*
X-12991119Y-17093898D01*
X-13106102Y-17208881D01*
X-13196442Y-17344085D01*
X-13258670Y-17494317D01*
X-13290394Y-17653801D01*
X-24792000Y-17653801D01*
X-24792000Y-14827384D01*
X-20002600Y-14827384D01*
X-20002600Y-15172616D01*
X-19935248Y-15511215D01*
X-19803134Y-15830167D01*
X-19611333Y-16117217D01*
X-19367217Y-16361333D01*
X-19080167Y-16553134D01*
X-18761215Y-16685248D01*
X-18422616Y-16752600D01*
X-18077384Y-16752600D01*
X-17738785Y-16685248D01*
X-17419833Y-16553134D01*
X-17132783Y-16361333D01*
X-16888667Y-16117217D01*
X-16696866Y-15830167D01*
X-16564752Y-15511215D01*
X-16497400Y-15172616D01*
X-16497400Y-14827384D01*
X-16564752Y-14488785D01*
X-16696866Y-14169833D01*
X-16888667Y-13882783D01*
X-17132783Y-13638667D01*
X-17419833Y-13446866D01*
X-17738785Y-13314752D01*
X-18077384Y-13247400D01*
X-18422616Y-13247400D01*
X-18761215Y-13314752D01*
X-19080167Y-13446866D01*
X-19367217Y-13638667D01*
X-19611333Y-13882783D01*
X-19803134Y-14169833D01*
X-19935248Y-14488785D01*
X-20002600Y-14827384D01*
X-24792000Y-14827384D01*
X-24792000Y-12938697D01*
X-16945500Y-12938697D01*
X-16945500Y-13101307D01*
X-16913776Y-13260791D01*
X-16851548Y-13411023D01*
X-16761208Y-13546227D01*
X-16646225Y-13661210D01*
X-16511021Y-13751550D01*
X-16360789Y-13813778D01*
X-16201305Y-13845502D01*
X-16038695Y-13845502D01*
X-15879211Y-13813778D01*
X-15728979Y-13751550D01*
X-15593775Y-13661210D01*
X-15478792Y-13546227D01*
X-15393579Y-13418695D01*
X-9825500Y-13418695D01*
X-9825500Y-13581305D01*
X-9793776Y-13740789D01*
X-9731548Y-13891021D01*
X-9658731Y-14000000D01*
X-9731548Y-14108979D01*
X-9793776Y-14259211D01*
X-9825500Y-14418695D01*
X-9825500Y-14581305D01*
X-9793776Y-14740789D01*
X-9731548Y-14891021D01*
X-9641208Y-15026225D01*
X-9526225Y-15141208D01*
X-9391021Y-15231548D01*
X-9240789Y-15293776D01*
X-9081305Y-15325500D01*
X-8918695Y-15325500D01*
X-8759211Y-15293776D01*
X-8608979Y-15231548D01*
X-8473775Y-15141208D01*
X-8358792Y-15026225D01*
X-8268452Y-14891021D01*
X-8206224Y-14740789D01*
X-8177960Y-14598695D01*
X-7005500Y-14598695D01*
X-7005500Y-14761305D01*
X-6973776Y-14920789D01*
X-6911548Y-15071021D01*
X-6821208Y-15206225D01*
X-6706225Y-15321208D01*
X-6571021Y-15411548D01*
X-6420789Y-15473776D01*
X-6261305Y-15505500D01*
X-6098695Y-15505500D01*
X-5939211Y-15473776D01*
X-5788979Y-15411548D01*
X-5653775Y-15321208D01*
X-5538792Y-15206225D01*
X-5448452Y-15071021D01*
X-5386224Y-14920789D01*
X-5354500Y-14761305D01*
X-5354500Y-14598695D01*
X-5386224Y-14439211D01*
X-5448452Y-14288979D01*
X-5538792Y-14153775D01*
X-5653775Y-14038792D01*
X-5788979Y-13948452D01*
X-5939211Y-13886224D01*
X-6098695Y-13854500D01*
X-6261305Y-13854500D01*
X-6420789Y-13886224D01*
X-6571021Y-13948452D01*
X-6706225Y-14038792D01*
X-6821208Y-14153775D01*
X-6911548Y-14288979D01*
X-6973776Y-14439211D01*
X-7005500Y-14598695D01*
X-8177960Y-14598695D01*
X-8174500Y-14581305D01*
X-8174500Y-14418695D01*
X-8206224Y-14259211D01*
X-8268452Y-14108979D01*
X-8341269Y-14000000D01*
X-8268452Y-13891021D01*
X-8206224Y-13740789D01*
X-8174500Y-13581305D01*
X-8174500Y-13418695D01*
X-8206224Y-13259211D01*
X-8268452Y-13108979D01*
X-8358792Y-12973775D01*
X-8473775Y-12858792D01*
X-8608979Y-12768452D01*
X-8759211Y-12706224D01*
X-8918695Y-12674500D01*
X-9081305Y-12674500D01*
X-9240789Y-12706224D01*
X-9391021Y-12768452D01*
X-9526225Y-12858792D01*
X-9641208Y-12973775D01*
X-9731548Y-13108979D01*
X-9793776Y-13259211D01*
X-9825500Y-13418695D01*
X-15393579Y-13418695D01*
X-15388452Y-13411023D01*
X-15326224Y-13260791D01*
X-15294500Y-13101307D01*
X-15294500Y-12938697D01*
X-15326224Y-12779213D01*
X-15388452Y-12628981D01*
X-15478792Y-12493777D01*
X-15593775Y-12378794D01*
X-15728979Y-12288454D01*
X-15879211Y-12226226D01*
X-16038695Y-12194502D01*
X-16201305Y-12194502D01*
X-16360789Y-12226226D01*
X-16511021Y-12288454D01*
X-16646225Y-12378794D01*
X-16761208Y-12493777D01*
X-16851548Y-12628981D01*
X-16913776Y-12779213D01*
X-16945500Y-12938697D01*
X-24792000Y-12938697D01*
X-24792000Y-12028695D01*
X-22605500Y-12028695D01*
X-22605500Y-12191305D01*
X-22573776Y-12350789D01*
X-22511548Y-12501021D01*
X-22421208Y-12636225D01*
X-22306225Y-12751208D01*
X-22171021Y-12841548D01*
X-22020789Y-12903776D01*
X-21861305Y-12935500D01*
X-21698695Y-12935500D01*
X-21539211Y-12903776D01*
X-21388979Y-12841548D01*
X-21253775Y-12751208D01*
X-21138792Y-12636225D01*
X-21048452Y-12501021D01*
X-20986224Y-12350789D01*
X-20954500Y-12191305D01*
X-20954500Y-12028695D01*
X-20986224Y-11869211D01*
X-21048452Y-11718979D01*
X-21138792Y-11583775D01*
X-21253775Y-11468792D01*
X-21388979Y-11378452D01*
X-21539211Y-11316224D01*
X-21698695Y-11284500D01*
X-21861305Y-11284500D01*
X-22020789Y-11316224D01*
X-22171021Y-11378452D01*
X-22306225Y-11468792D01*
X-22421208Y-11583775D01*
X-22511548Y-11718979D01*
X-22573776Y-11869211D01*
X-22605500Y-12028695D01*
X-24792000Y-12028695D01*
X-24792000Y-9441387D01*
X-17118192Y-9441387D01*
X-17118192Y-9603997D01*
X-17086468Y-9763481D01*
X-17024240Y-9913713D01*
X-16933900Y-10048917D01*
X-16818917Y-10163900D01*
X-16683713Y-10254240D01*
X-16533481Y-10316468D01*
X-16513885Y-10320366D01*
X-16646225Y-10408792D01*
X-16761208Y-10523775D01*
X-16851548Y-10658979D01*
X-16913776Y-10809211D01*
X-16945500Y-10968695D01*
X-16945500Y-11131305D01*
X-16913776Y-11290789D01*
X-16851548Y-11441021D01*
X-16761208Y-11576225D01*
X-16646225Y-11691208D01*
X-16511021Y-11781548D01*
X-16360789Y-11843776D01*
X-16201305Y-11875500D01*
X-16038695Y-11875500D01*
X-15879211Y-11843776D01*
X-15728979Y-11781548D01*
X-15593775Y-11691208D01*
X-15478792Y-11576225D01*
X-15388452Y-11441021D01*
X-15379205Y-11418695D01*
X-13325500Y-11418695D01*
X-13325500Y-11581305D01*
X-13293776Y-11740789D01*
X-13231548Y-11891021D01*
X-13141208Y-12026225D01*
X-13026225Y-12141208D01*
X-12891021Y-12231548D01*
X-12740789Y-12293776D01*
X-12581305Y-12325500D01*
X-12418695Y-12325500D01*
X-12259211Y-12293776D01*
X-12108979Y-12231548D01*
X-11973775Y-12141208D01*
X-11858792Y-12026225D01*
X-11768452Y-11891021D01*
X-11706224Y-11740789D01*
X-11674500Y-11581305D01*
X-11674500Y-11418695D01*
X-11706224Y-11259211D01*
X-11768452Y-11108979D01*
X-11858792Y-10973775D01*
X-11973775Y-10858792D01*
X-12108979Y-10768452D01*
X-12259211Y-10706224D01*
X-12418695Y-10674500D01*
X-12581305Y-10674500D01*
X-12740789Y-10706224D01*
X-12891021Y-10768452D01*
X-13026225Y-10858792D01*
X-13141208Y-10973775D01*
X-13231548Y-11108979D01*
X-13293776Y-11259211D01*
X-13325500Y-11418695D01*
X-15379205Y-11418695D01*
X-15326224Y-11290789D01*
X-15294500Y-11131305D01*
X-15294500Y-10968695D01*
X-15326224Y-10809211D01*
X-15388452Y-10658979D01*
X-15478792Y-10523775D01*
X-15593775Y-10408792D01*
X-15728979Y-10318452D01*
X-15879211Y-10256224D01*
X-15898807Y-10252326D01*
X-15766467Y-10163900D01*
X-15651484Y-10048917D01*
X-15561144Y-9913713D01*
X-15498916Y-9763481D01*
X-15467192Y-9603997D01*
X-15467192Y-9441387D01*
X-15498916Y-9281903D01*
X-15561144Y-9131671D01*
X-15651484Y-8996467D01*
X-15766467Y-8881484D01*
X-15901671Y-8791144D01*
X-16051903Y-8728916D01*
X-16211387Y-8697192D01*
X-16373997Y-8697192D01*
X-16533481Y-8728916D01*
X-16683713Y-8791144D01*
X-16818917Y-8881484D01*
X-16933900Y-8996467D01*
X-17024240Y-9131671D01*
X-17086468Y-9281903D01*
X-17118192Y-9441387D01*
X-24792000Y-9441387D01*
X-24792000Y-8158695D01*
X-19765500Y-8158695D01*
X-19765500Y-8321305D01*
X-19733776Y-8480789D01*
X-19671548Y-8631021D01*
X-19581208Y-8766225D01*
X-19466225Y-8881208D01*
X-19331021Y-8971548D01*
X-19180789Y-9033776D01*
X-19021305Y-9065500D01*
X-18858695Y-9065500D01*
X-18699211Y-9033776D01*
X-18548979Y-8971548D01*
X-18413775Y-8881208D01*
X-18298792Y-8766225D01*
X-18208452Y-8631021D01*
X-18146224Y-8480789D01*
X-18114500Y-8321305D01*
X-18114500Y-8158695D01*
X-18146224Y-7999211D01*
X-18208452Y-7848979D01*
X-18298792Y-7713775D01*
X-18413775Y-7598792D01*
X-18548979Y-7508452D01*
X-18699211Y-7446224D01*
X-18723527Y-7441387D01*
X-17118192Y-7441387D01*
X-17118192Y-7603997D01*
X-17086468Y-7763481D01*
X-17024240Y-7913713D01*
X-16933900Y-8048917D01*
X-16818917Y-8163900D01*
X-16683713Y-8254240D01*
X-16533481Y-8316468D01*
X-16373997Y-8348192D01*
X-16211387Y-8348192D01*
X-16051903Y-8316468D01*
X-15901671Y-8254240D01*
X-15766467Y-8163900D01*
X-15651484Y-8048917D01*
X-15561144Y-7913713D01*
X-15530071Y-7838695D01*
X-13605500Y-7838695D01*
X-13605500Y-8001305D01*
X-13573776Y-8160789D01*
X-13511548Y-8311021D01*
X-13421208Y-8446225D01*
X-13306225Y-8561208D01*
X-13289690Y-8572257D01*
X-13391208Y-8673775D01*
X-13481548Y-8808979D01*
X-13543776Y-8959211D01*
X-13575500Y-9118695D01*
X-13575500Y-9281305D01*
X-13543776Y-9440789D01*
X-13481548Y-9591021D01*
X-13391208Y-9726225D01*
X-13276225Y-9841208D01*
X-13141021Y-9931548D01*
X-12990789Y-9993776D01*
X-12831305Y-10025500D01*
X-12668695Y-10025500D01*
X-12509211Y-9993776D01*
X-12358979Y-9931548D01*
X-12223775Y-9841208D01*
X-12108792Y-9726225D01*
X-12018452Y-9591021D01*
X-11956224Y-9440789D01*
X-11951830Y-9418695D01*
X-10025500Y-9418695D01*
X-10025500Y-9581305D01*
X-9993776Y-9740789D01*
X-9931548Y-9891021D01*
X-9858731Y-10000000D01*
X-9931548Y-10108979D01*
X-9993776Y-10259211D01*
X-10025500Y-10418695D01*
X-10025500Y-10581305D01*
X-9993776Y-10740789D01*
X-9931548Y-10891021D01*
X-9841208Y-11026225D01*
X-9726225Y-11141208D01*
X-9591021Y-11231548D01*
X-9440789Y-11293776D01*
X-9281305Y-11325500D01*
X-9118695Y-11325500D01*
X-8959211Y-11293776D01*
X-8808979Y-11231548D01*
X-8673775Y-11141208D01*
X-8558792Y-11026225D01*
X-8468452Y-10891021D01*
X-8406224Y-10740789D01*
X-8374500Y-10581305D01*
X-8374500Y-10418695D01*
X-8406224Y-10259211D01*
X-8468452Y-10108979D01*
X-8541269Y-10000000D01*
X-8468452Y-9891021D01*
X-8406224Y-9740789D01*
X-8374500Y-9581305D01*
X-8374500Y-9418695D01*
X-8406224Y-9259211D01*
X-8468452Y-9108979D01*
X-8558792Y-8973775D01*
X-8673775Y-8858792D01*
X-8808979Y-8768452D01*
X-8959211Y-8706224D01*
X-9118695Y-8674500D01*
X-9281305Y-8674500D01*
X-9440789Y-8706224D01*
X-9591021Y-8768452D01*
X-9726225Y-8858792D01*
X-9841208Y-8973775D01*
X-9931548Y-9108979D01*
X-9993776Y-9259211D01*
X-10025500Y-9418695D01*
X-11951830Y-9418695D01*
X-11924500Y-9281305D01*
X-11924500Y-9118695D01*
X-11956224Y-8959211D01*
X-12018452Y-8808979D01*
X-12108792Y-8673775D01*
X-12223775Y-8558792D01*
X-12240310Y-8547743D01*
X-12138792Y-8446225D01*
X-12048452Y-8311021D01*
X-11986224Y-8160789D01*
X-11954500Y-8001305D01*
X-11954500Y-7838695D01*
X-11986224Y-7679211D01*
X-12048452Y-7528979D01*
X-12138792Y-7393775D01*
X-12253775Y-7278792D01*
X-12388979Y-7188452D01*
X-12539211Y-7126224D01*
X-12698695Y-7094500D01*
X-12861305Y-7094500D01*
X-13020789Y-7126224D01*
X-13171021Y-7188452D01*
X-13306225Y-7278792D01*
X-13421208Y-7393775D01*
X-13511548Y-7528979D01*
X-13573776Y-7679211D01*
X-13605500Y-7838695D01*
X-15530071Y-7838695D01*
X-15498916Y-7763481D01*
X-15467192Y-7603997D01*
X-15467192Y-7441387D01*
X-15498916Y-7281903D01*
X-15561144Y-7131671D01*
X-15651484Y-6996467D01*
X-15766467Y-6881484D01*
X-15901671Y-6791144D01*
X-16051903Y-6728916D01*
X-16211387Y-6697192D01*
X-16373997Y-6697192D01*
X-16533481Y-6728916D01*
X-16683713Y-6791144D01*
X-16818917Y-6881484D01*
X-16933900Y-6996467D01*
X-17024240Y-7131671D01*
X-17086468Y-7281903D01*
X-17118192Y-7441387D01*
X-18723527Y-7441387D01*
X-18858695Y-7414500D01*
X-19021305Y-7414500D01*
X-19180789Y-7446224D01*
X-19331021Y-7508452D01*
X-19466225Y-7598792D01*
X-19581208Y-7713775D01*
X-19671548Y-7848979D01*
X-19733776Y-7999211D01*
X-19765500Y-8158695D01*
X-24792000Y-8158695D01*
X-24792000Y-5441387D01*
X-17118192Y-5441387D01*
X-17118192Y-5603997D01*
X-17086468Y-5763481D01*
X-17024240Y-5913713D01*
X-16933900Y-6048917D01*
X-16818917Y-6163900D01*
X-16683713Y-6254240D01*
X-16533481Y-6316468D01*
X-16373997Y-6348192D01*
X-16211387Y-6348192D01*
X-16051903Y-6316468D01*
X-15901671Y-6254240D01*
X-15766467Y-6163900D01*
X-15651484Y-6048917D01*
X-15631291Y-6018695D01*
X-13575500Y-6018695D01*
X-13575500Y-6181305D01*
X-13543776Y-6340789D01*
X-13481548Y-6491021D01*
X-13391208Y-6626225D01*
X-13276225Y-6741208D01*
X-13141021Y-6831548D01*
X-12990789Y-6893776D01*
X-12831305Y-6925500D01*
X-12668695Y-6925500D01*
X-12509211Y-6893776D01*
X-12358979Y-6831548D01*
X-12223775Y-6741208D01*
X-12108792Y-6626225D01*
X-12018452Y-6491021D01*
X-11988494Y-6418695D01*
X-10025500Y-6418695D01*
X-10025500Y-6581305D01*
X-9993776Y-6740789D01*
X-9931548Y-6891021D01*
X-9841208Y-7026225D01*
X-9726225Y-7141208D01*
X-9591021Y-7231548D01*
X-9440789Y-7293776D01*
X-9281305Y-7325500D01*
X-9118695Y-7325500D01*
X-8959211Y-7293776D01*
X-8808979Y-7231548D01*
X-8673775Y-7141208D01*
X-8558792Y-7026225D01*
X-8468452Y-6891021D01*
X-8406224Y-6740789D01*
X-8381938Y-6618695D01*
X-5425500Y-6618695D01*
X-5425500Y-6781305D01*
X-5393776Y-6940789D01*
X-5331548Y-7091021D01*
X-5241208Y-7226225D01*
X-5126225Y-7341208D01*
X-4991021Y-7431548D01*
X-4840789Y-7493776D01*
X-4681305Y-7525500D01*
X-4518695Y-7525500D01*
X-4359211Y-7493776D01*
X-4208979Y-7431548D01*
X-4073775Y-7341208D01*
X-3958792Y-7226225D01*
X-3868452Y-7091021D01*
X-3806224Y-6940789D01*
X-3774500Y-6781305D01*
X-3774500Y-6618695D01*
X-3806224Y-6459211D01*
X-3868452Y-6308979D01*
X-3958792Y-6173775D01*
X-4073775Y-6058792D01*
X-4208979Y-5968452D01*
X-4359211Y-5906224D01*
X-4518695Y-5874500D01*
X-4681305Y-5874500D01*
X-4840789Y-5906224D01*
X-4991021Y-5968452D01*
X-5126225Y-6058792D01*
X-5241208Y-6173775D01*
X-5331548Y-6308979D01*
X-5393776Y-6459211D01*
X-5425500Y-6618695D01*
X-8381938Y-6618695D01*
X-8374500Y-6581305D01*
X-8374500Y-6418695D01*
X-8406224Y-6259211D01*
X-8468452Y-6108979D01*
X-8558792Y-5973775D01*
X-8673775Y-5858792D01*
X-8808979Y-5768452D01*
X-8959211Y-5706224D01*
X-9118695Y-5674500D01*
X-9281305Y-5674500D01*
X-9440789Y-5706224D01*
X-9591021Y-5768452D01*
X-9726225Y-5858792D01*
X-9841208Y-5973775D01*
X-9931548Y-6108979D01*
X-9993776Y-6259211D01*
X-10025500Y-6418695D01*
X-11988494Y-6418695D01*
X-11956224Y-6340789D01*
X-11924500Y-6181305D01*
X-11924500Y-6018695D01*
X-11956224Y-5859211D01*
X-12018452Y-5708979D01*
X-12108792Y-5573775D01*
X-12223775Y-5458792D01*
X-12358979Y-5368452D01*
X-12480849Y-5317972D01*
X-12359211Y-5293776D01*
X-12208979Y-5231548D01*
X-12073775Y-5141208D01*
X-11958792Y-5026225D01*
X-11868452Y-4891021D01*
X-11806224Y-4740789D01*
X-11774500Y-4581305D01*
X-11774500Y-4418695D01*
X-11806224Y-4259211D01*
X-11868452Y-4108979D01*
X-11941269Y-4000000D01*
X-11868452Y-3891021D01*
X-11806224Y-3740789D01*
X-11774500Y-3581305D01*
X-11774500Y-3418695D01*
X-11806224Y-3259211D01*
X-11868452Y-3108979D01*
X-11958792Y-2973775D01*
X-12073775Y-2858792D01*
X-12208979Y-2768452D01*
X-12359211Y-2706224D01*
X-12518695Y-2674500D01*
X-12681305Y-2674500D01*
X-12840789Y-2706224D01*
X-12991021Y-2768452D01*
X-13126225Y-2858792D01*
X-13241208Y-2973775D01*
X-13331548Y-3108979D01*
X-13393776Y-3259211D01*
X-13425500Y-3418695D01*
X-13425500Y-3581305D01*
X-13393776Y-3740789D01*
X-13331548Y-3891021D01*
X-13258731Y-4000000D01*
X-13331548Y-4108979D01*
X-13393776Y-4259211D01*
X-13425500Y-4418695D01*
X-13425500Y-4581305D01*
X-13393776Y-4740789D01*
X-13331548Y-4891021D01*
X-13241208Y-5026225D01*
X-13126225Y-5141208D01*
X-12991021Y-5231548D01*
X-12869151Y-5282028D01*
X-12990789Y-5306224D01*
X-13141021Y-5368452D01*
X-13276225Y-5458792D01*
X-13391208Y-5573775D01*
X-13481548Y-5708979D01*
X-13543776Y-5859211D01*
X-13575500Y-6018695D01*
X-15631291Y-6018695D01*
X-15561144Y-5913713D01*
X-15498916Y-5763481D01*
X-15467192Y-5603997D01*
X-15467192Y-5441387D01*
X-15498916Y-5281903D01*
X-15561144Y-5131671D01*
X-15651484Y-4996467D01*
X-15766467Y-4881484D01*
X-15901671Y-4791144D01*
X-16051903Y-4728916D01*
X-16211387Y-4697192D01*
X-16373997Y-4697192D01*
X-16533481Y-4728916D01*
X-16683713Y-4791144D01*
X-16818917Y-4881484D01*
X-16933900Y-4996467D01*
X-17024240Y-5131671D01*
X-17086468Y-5281903D01*
X-17118192Y-5441387D01*
X-24792000Y-5441387D01*
X-24792000Y-3441387D01*
X-17118192Y-3441387D01*
X-17118192Y-3603997D01*
X-17086468Y-3763481D01*
X-17024240Y-3913713D01*
X-16933900Y-4048917D01*
X-16818917Y-4163900D01*
X-16683713Y-4254240D01*
X-16533481Y-4316468D01*
X-16373997Y-4348192D01*
X-16211387Y-4348192D01*
X-16051903Y-4316468D01*
X-15901671Y-4254240D01*
X-15766467Y-4163900D01*
X-15651484Y-4048917D01*
X-15561144Y-3913713D01*
X-15498916Y-3763481D01*
X-15467192Y-3603997D01*
X-15467192Y-3441387D01*
X-15498916Y-3281903D01*
X-15561144Y-3131671D01*
X-15651484Y-2996467D01*
X-15766467Y-2881484D01*
X-15901671Y-2791144D01*
X-16051903Y-2728916D01*
X-16211387Y-2697192D01*
X-16373997Y-2697192D01*
X-16533481Y-2728916D01*
X-16683713Y-2791144D01*
X-16818917Y-2881484D01*
X-16933900Y-2996467D01*
X-17024240Y-3131671D01*
X-17086468Y-3281903D01*
X-17118192Y-3441387D01*
X-24792000Y-3441387D01*
X-24792000Y-2418695D01*
X-10025500Y-2418695D01*
X-10025500Y-2581305D01*
X-9993776Y-2740789D01*
X-9931548Y-2891021D01*
X-9841208Y-3026225D01*
X-9726225Y-3141208D01*
X-9591021Y-3231548D01*
X-9440789Y-3293776D01*
X-9281305Y-3325500D01*
X-9118695Y-3325500D01*
X-8959211Y-3293776D01*
X-8808979Y-3231548D01*
X-8673775Y-3141208D01*
X-8558792Y-3026225D01*
X-8468452Y-2891021D01*
X-8406224Y-2740789D01*
X-8374500Y-2581305D01*
X-8374500Y-2418695D01*
X-8406224Y-2259211D01*
X-8468452Y-2108979D01*
X-8558792Y-1973775D01*
X-8673775Y-1858792D01*
X-8808979Y-1768452D01*
X-8959211Y-1706224D01*
X-9118695Y-1674500D01*
X-9281305Y-1674500D01*
X-9440789Y-1706224D01*
X-9591021Y-1768452D01*
X-9726225Y-1858792D01*
X-9841208Y-1973775D01*
X-9931548Y-2108979D01*
X-9993776Y-2259211D01*
X-10025500Y-2418695D01*
X-24792000Y-2418695D01*
X-24792000Y-1441387D01*
X-17118192Y-1441387D01*
X-17118192Y-1603997D01*
X-17086468Y-1763481D01*
X-17024240Y-1913713D01*
X-16933900Y-2048917D01*
X-16818917Y-2163900D01*
X-16683713Y-2254240D01*
X-16533481Y-2316468D01*
X-16373997Y-2348192D01*
X-16211387Y-2348192D01*
X-16051903Y-2316468D01*
X-15901671Y-2254240D01*
X-15766467Y-2163900D01*
X-15651484Y-2048917D01*
X-15561144Y-1913713D01*
X-15498916Y-1763481D01*
X-15467192Y-1603997D01*
X-15467192Y-1441387D01*
X-15498916Y-1281903D01*
X-15561144Y-1131671D01*
X-15651484Y-996467D01*
X-15766467Y-881484D01*
X-15901671Y-791144D01*
X-16051903Y-728916D01*
X-16211387Y-697192D01*
X-16373997Y-697192D01*
X-16533481Y-728916D01*
X-16683713Y-791144D01*
X-16818917Y-881484D01*
X-16933900Y-996467D01*
X-17024240Y-1131671D01*
X-17086468Y-1281903D01*
X-17118192Y-1441387D01*
X-24792000Y-1441387D01*
X-24792000Y-487000D01*
X-13425500Y-487000D01*
X-13425500Y-581305D01*
G37*
G04 #@! TD.AperFunction*
G04 #@! TD*
D11*
G04 #@! TO.N,/BIAS4*
X2218792Y-526225D02*
X2333775Y-641208D01*
X2468979Y-731548D01*
X2619211Y-793776D01*
X2778695Y-825500D01*
X2941305Y-825500D01*
X3100789Y-793776D01*
X3251021Y-731548D01*
X3386225Y-641208D01*
X3501208Y-526225D01*
X3527417Y-487000D01*
X8177168Y-487000D01*
X8177168Y-578637D01*
X8208892Y-738121D01*
X8271120Y-888353D01*
X8361460Y-1023557D01*
X8476443Y-1138540D01*
X8611647Y-1228880D01*
X8761879Y-1291108D01*
X8921363Y-1322832D01*
X9083973Y-1322832D01*
X9243457Y-1291108D01*
X9393689Y-1228880D01*
X9528893Y-1138540D01*
X9643876Y-1023557D01*
X9734216Y-888353D01*
X9796444Y-738121D01*
X9828168Y-578637D01*
X9828168Y-487000D01*
X15467192Y-487000D01*
X15467192Y-558613D01*
X15498916Y-718097D01*
X15561144Y-868329D01*
X15651484Y-1003533D01*
X15766467Y-1118516D01*
X15901671Y-1208856D01*
X16051903Y-1271084D01*
X16211387Y-1302808D01*
X16373997Y-1302808D01*
X16533481Y-1271084D01*
X16683713Y-1208856D01*
X16818917Y-1118516D01*
X16933900Y-1003533D01*
X17024240Y-868329D01*
X17086468Y-718097D01*
X17118192Y-558613D01*
X17118192Y-487000D01*
X24892001Y-487000D01*
X24892001Y-24892000D01*
X487000Y-24892000D01*
X487000Y-17868695D01*
X14164500Y-17868695D01*
X14164500Y-18031305D01*
X14196224Y-18190789D01*
X14258452Y-18341021D01*
X14348792Y-18476225D01*
X14463775Y-18591208D01*
X14598979Y-18681548D01*
X14749211Y-18743776D01*
X14908695Y-18775500D01*
X15071305Y-18775500D01*
X15230789Y-18743776D01*
X15381021Y-18681548D01*
X15516225Y-18591208D01*
X15631208Y-18476225D01*
X15721548Y-18341021D01*
X15783776Y-18190789D01*
X15815500Y-18031305D01*
X15815500Y-17868695D01*
X15783776Y-17709211D01*
X15721548Y-17558979D01*
X15631208Y-17423775D01*
X15516225Y-17308792D01*
X15381021Y-17218452D01*
X15230789Y-17156224D01*
X15071305Y-17124500D01*
X14908695Y-17124500D01*
X14749211Y-17156224D01*
X14598979Y-17218452D01*
X14463775Y-17308792D01*
X14348792Y-17423775D01*
X14258452Y-17558979D01*
X14196224Y-17709211D01*
X14164500Y-17868695D01*
X487000Y-17868695D01*
X487000Y-14838695D01*
X6354500Y-14838695D01*
X6354500Y-15001305D01*
X6386224Y-15160789D01*
X6448452Y-15311021D01*
X6538792Y-15446225D01*
X6653775Y-15561208D01*
X6788979Y-15651548D01*
X6939211Y-15713776D01*
X7098695Y-15745500D01*
X7261305Y-15745500D01*
X7420789Y-15713776D01*
X7436379Y-15707318D01*
X7368452Y-15808979D01*
X7306224Y-15959211D01*
X7274500Y-16118695D01*
X7274500Y-16281305D01*
X7306224Y-16440789D01*
X7368452Y-16591021D01*
X7458792Y-16726225D01*
X7573775Y-16841208D01*
X7708979Y-16931548D01*
X7859211Y-16993776D01*
X8018695Y-17025500D01*
X8181305Y-17025500D01*
X8340789Y-16993776D01*
X8491021Y-16931548D01*
X8626225Y-16841208D01*
X8741208Y-16726225D01*
X8831548Y-16591021D01*
X8893776Y-16440789D01*
X8925500Y-16281305D01*
X8925500Y-16118695D01*
X8893776Y-15959211D01*
X8831548Y-15808979D01*
X8741208Y-15673775D01*
X8626225Y-15558792D01*
X8491021Y-15468452D01*
X8340789Y-15406224D01*
X8181305Y-15374500D01*
X8018695Y-15374500D01*
X7859211Y-15406224D01*
X7843621Y-15412682D01*
X7900614Y-15327384D01*
X16747400Y-15327384D01*
X16747400Y-15672616D01*
X16814752Y-16011215D01*
X16946866Y-16330167D01*
X17138667Y-16617217D01*
X17382783Y-16861333D01*
X17669833Y-17053134D01*
X17988785Y-17185248D01*
X18327384Y-17252600D01*
X18672616Y-17252600D01*
X19011215Y-17185248D01*
X19330167Y-17053134D01*
X19617217Y-16861333D01*
X19861333Y-16617217D01*
X20053134Y-16330167D01*
X20185248Y-16011215D01*
X20252600Y-15672616D01*
X20252600Y-15327384D01*
X20185248Y-14988785D01*
X20053134Y-14669833D01*
X19861333Y-14382783D01*
X19617217Y-14138667D01*
X19330167Y-13946866D01*
X19011215Y-13814752D01*
X18672616Y-13747400D01*
X18327384Y-13747400D01*
X17988785Y-13814752D01*
X17669833Y-13946866D01*
X17382783Y-14138667D01*
X17138667Y-14382783D01*
X16946866Y-14669833D01*
X16814752Y-14988785D01*
X16747400Y-15327384D01*
X7900614Y-15327384D01*
X7911548Y-15311021D01*
X7973776Y-15160789D01*
X8005500Y-15001305D01*
X8005500Y-14838695D01*
X7973776Y-14679211D01*
X7911548Y-14528979D01*
X7821208Y-14393775D01*
X7706225Y-14278792D01*
X7571021Y-14188452D01*
X7420789Y-14126224D01*
X7261305Y-14094500D01*
X7098695Y-14094500D01*
X6939211Y-14126224D01*
X6788979Y-14188452D01*
X6653775Y-14278792D01*
X6538792Y-14393775D01*
X6448452Y-14528979D01*
X6386224Y-14679211D01*
X6354500Y-14838695D01*
X487000Y-14838695D01*
X487000Y-13728695D01*
X11814500Y-13728695D01*
X11814500Y-13891305D01*
X11846224Y-14050789D01*
X11908452Y-14201021D01*
X11998792Y-14336225D01*
X12113775Y-14451208D01*
X12248979Y-14541548D01*
X12399211Y-14603776D01*
X12558695Y-14635500D01*
X12721305Y-14635500D01*
X12880789Y-14603776D01*
X13031021Y-14541548D01*
X13166225Y-14451208D01*
X13281208Y-14336225D01*
X13371548Y-14201021D01*
X13433776Y-14050789D01*
X13465500Y-13891305D01*
X13465500Y-13728695D01*
X13433776Y-13569211D01*
X13371548Y-13418979D01*
X13281208Y-13283775D01*
X13166225Y-13168792D01*
X13031021Y-13078452D01*
X12880789Y-13016224D01*
X12721305Y-12984500D01*
X12558695Y-12984500D01*
X12399211Y-13016224D01*
X12248979Y-13078452D01*
X12113775Y-13168792D01*
X11998792Y-13283775D01*
X11908452Y-13418979D01*
X11846224Y-13569211D01*
X11814500Y-13728695D01*
X487000Y-13728695D01*
X487000Y-12618695D01*
X8274500Y-12618695D01*
X8274500Y-12781305D01*
X8306224Y-12940789D01*
X8368452Y-13091021D01*
X8458792Y-13226225D01*
X8573775Y-13341208D01*
X8708979Y-13431548D01*
X8859211Y-13493776D01*
X9018695Y-13525500D01*
X9181305Y-13525500D01*
X9340789Y-13493776D01*
X9491021Y-13431548D01*
X9626225Y-13341208D01*
X9741208Y-13226225D01*
X9831548Y-13091021D01*
X9893776Y-12940789D01*
X9925500Y-12781305D01*
X9925500Y-12618695D01*
X9893776Y-12459211D01*
X9867595Y-12396003D01*
X15467192Y-12396003D01*
X15467192Y-12558613D01*
X15498916Y-12718097D01*
X15561144Y-12868329D01*
X15651484Y-13003533D01*
X15766467Y-13118516D01*
X15901671Y-13208856D01*
X16051903Y-13271084D01*
X16211387Y-13302808D01*
X16373997Y-13302808D01*
X16533481Y-13271084D01*
X16683713Y-13208856D01*
X16818917Y-13118516D01*
X16933900Y-13003533D01*
X17024240Y-12868329D01*
X17086468Y-12718097D01*
X17118192Y-12558613D01*
X17118192Y-12396003D01*
X17095355Y-12281195D01*
X18847000Y-12281195D01*
X18847000Y-12443805D01*
X18878724Y-12603289D01*
X18940952Y-12753521D01*
X19031292Y-12888725D01*
X19146275Y-13003708D01*
X19281479Y-13094048D01*
X19431711Y-13156276D01*
X19591195Y-13188000D01*
X19753805Y-13188000D01*
X19913289Y-13156276D01*
X20063521Y-13094048D01*
X20198725Y-13003708D01*
X20313708Y-12888725D01*
X20404048Y-12753521D01*
X20466276Y-12603289D01*
X20498000Y-12443805D01*
X20498000Y-12281195D01*
X20466276Y-12121711D01*
X20404048Y-11971479D01*
X20313708Y-11836275D01*
X20198725Y-11721292D01*
X20063521Y-11630952D01*
X19913289Y-11568724D01*
X19753805Y-11537000D01*
X19591195Y-11537000D01*
X19431711Y-11568724D01*
X19281479Y-11630952D01*
X19146275Y-11721292D01*
X19031292Y-11836275D01*
X18940952Y-11971479D01*
X18878724Y-12121711D01*
X18847000Y-12281195D01*
X17095355Y-12281195D01*
X17086468Y-12236519D01*
X17024240Y-12086287D01*
X16933900Y-11951083D01*
X16818917Y-11836100D01*
X16683713Y-11745760D01*
X16533481Y-11683532D01*
X16373997Y-11651808D01*
X16211387Y-11651808D01*
X16051903Y-11683532D01*
X15901671Y-11745760D01*
X15766467Y-11836100D01*
X15651484Y-11951083D01*
X15561144Y-12086287D01*
X15498916Y-12236519D01*
X15467192Y-12396003D01*
X9867595Y-12396003D01*
X9831548Y-12308979D01*
X9762216Y-12205217D01*
X9841208Y-12126225D01*
X9931548Y-11991021D01*
X9993776Y-11840789D01*
X10025500Y-11681305D01*
X10025500Y-11518695D01*
X9993776Y-11359211D01*
X9935573Y-11218695D01*
X11924500Y-11218695D01*
X11924500Y-11381305D01*
X11956224Y-11540789D01*
X12018452Y-11691021D01*
X12108792Y-11826225D01*
X12223775Y-11941208D01*
X12358979Y-12031548D01*
X12509211Y-12093776D01*
X12668695Y-12125500D01*
X12831305Y-12125500D01*
X12990789Y-12093776D01*
X13141021Y-12031548D01*
X13276225Y-11941208D01*
X13391208Y-11826225D01*
X13481548Y-11691021D01*
X13543776Y-11540789D01*
X13575500Y-11381305D01*
X13575500Y-11218695D01*
X13543776Y-11059211D01*
X13481548Y-10908979D01*
X13391208Y-10773775D01*
X13276225Y-10658792D01*
X13141021Y-10568452D01*
X12990789Y-10506224D01*
X12831305Y-10474500D01*
X12668695Y-10474500D01*
X12509211Y-10506224D01*
X12358979Y-10568452D01*
X12223775Y-10658792D01*
X12108792Y-10773775D01*
X12018452Y-10908979D01*
X11956224Y-11059211D01*
X11924500Y-11218695D01*
X9935573Y-11218695D01*
X9931548Y-11208979D01*
X9862216Y-11105217D01*
X9943896Y-11023537D01*
X10034236Y-10888333D01*
X10096464Y-10738101D01*
X10128188Y-10578617D01*
X10128188Y-10416007D01*
X10124209Y-10396003D01*
X15467192Y-10396003D01*
X15467192Y-10558613D01*
X15498916Y-10718097D01*
X15561144Y-10868329D01*
X15651484Y-11003533D01*
X15766467Y-11118516D01*
X15901671Y-11208856D01*
X16051903Y-11271084D01*
X16211387Y-11302808D01*
X16373997Y-11302808D01*
X16533481Y-11271084D01*
X16683713Y-11208856D01*
X16818917Y-11118516D01*
X16933900Y-11003533D01*
X17024240Y-10868329D01*
X17086468Y-10718097D01*
X17118192Y-10558613D01*
X17118192Y-10396003D01*
X17086468Y-10236519D01*
X17024240Y-10086287D01*
X16933900Y-9951083D01*
X16818917Y-9836100D01*
X16683713Y-9745760D01*
X16533481Y-9683532D01*
X16373997Y-9651808D01*
X16211387Y-9651808D01*
X16051903Y-9683532D01*
X15901671Y-9745760D01*
X15766467Y-9836100D01*
X15651484Y-9951083D01*
X15561144Y-10086287D01*
X15498916Y-10236519D01*
X15467192Y-10396003D01*
X10124209Y-10396003D01*
X10096464Y-10256523D01*
X10034236Y-10106291D01*
X9943896Y-9971087D01*
X9828913Y-9856104D01*
X9693709Y-9765764D01*
X9543477Y-9703536D01*
X9383993Y-9671812D01*
X9221383Y-9671812D01*
X9061899Y-9703536D01*
X8911667Y-9765764D01*
X8776463Y-9856104D01*
X8661480Y-9971087D01*
X8571140Y-10106291D01*
X8508912Y-10256523D01*
X8477188Y-10416007D01*
X8477188Y-10578617D01*
X8508912Y-10738101D01*
X8571140Y-10888333D01*
X8640472Y-10992095D01*
X8558792Y-11073775D01*
X8468452Y-11208979D01*
X8406224Y-11359211D01*
X8374500Y-11518695D01*
X8374500Y-11681305D01*
X8406224Y-11840789D01*
X8468452Y-11991021D01*
X8537784Y-12094783D01*
X8458792Y-12173775D01*
X8368452Y-12308979D01*
X8306224Y-12459211D01*
X8274500Y-12618695D01*
X487000Y-12618695D01*
X487000Y-8208695D01*
X5484500Y-8208695D01*
X5484500Y-8371305D01*
X5516224Y-8530789D01*
X5578452Y-8681021D01*
X5668792Y-8816225D01*
X5783775Y-8931208D01*
X5918979Y-9021548D01*
X6069211Y-9083776D01*
X6228695Y-9115500D01*
X6391305Y-9115500D01*
X6550789Y-9083776D01*
X6701021Y-9021548D01*
X6836225Y-8931208D01*
X6951208Y-8816225D01*
X7041548Y-8681021D01*
X7103776Y-8530789D01*
X7130587Y-8396003D01*
X15467192Y-8396003D01*
X15467192Y-8558613D01*
X15498916Y-8718097D01*
X15561144Y-8868329D01*
X15651484Y-9003533D01*
X15766467Y-9118516D01*
X15901671Y-9208856D01*
X16051903Y-9271084D01*
X16211387Y-9302808D01*
X16373997Y-9302808D01*
X16533481Y-9271084D01*
X16683713Y-9208856D01*
X16818917Y-9118516D01*
X16933900Y-9003533D01*
X17024240Y-8868329D01*
X17086468Y-8718097D01*
X17118192Y-8558613D01*
X17118192Y-8396003D01*
X17086468Y-8236519D01*
X17062517Y-8178695D01*
X18114500Y-8178695D01*
X18114500Y-8341305D01*
X18146224Y-8500789D01*
X18208452Y-8651021D01*
X18298792Y-8786225D01*
X18413775Y-8901208D01*
X18548979Y-8991548D01*
X18699211Y-9053776D01*
X18858695Y-9085500D01*
X19021305Y-9085500D01*
X19180789Y-9053776D01*
X19331021Y-8991548D01*
X19466225Y-8901208D01*
X19581208Y-8786225D01*
X19671548Y-8651021D01*
X19733776Y-8500789D01*
X19765500Y-8341305D01*
X19765500Y-8178695D01*
X19733776Y-8019211D01*
X19671548Y-7868979D01*
X19581208Y-7733775D01*
X19466225Y-7618792D01*
X19331021Y-7528452D01*
X19180789Y-7466224D01*
X19021305Y-7434500D01*
X18858695Y-7434500D01*
X18699211Y-7466224D01*
X18548979Y-7528452D01*
X18413775Y-7618792D01*
X18298792Y-7733775D01*
X18208452Y-7868979D01*
X18146224Y-8019211D01*
X18114500Y-8178695D01*
X17062517Y-8178695D01*
X17024240Y-8086287D01*
X16933900Y-7951083D01*
X16818917Y-7836100D01*
X16683713Y-7745760D01*
X16533481Y-7683532D01*
X16373997Y-7651808D01*
X16211387Y-7651808D01*
X16051903Y-7683532D01*
X15901671Y-7745760D01*
X15766467Y-7836100D01*
X15651484Y-7951083D01*
X15561144Y-8086287D01*
X15498916Y-8236519D01*
X15467192Y-8396003D01*
X7130587Y-8396003D01*
X7135500Y-8371305D01*
X7135500Y-8208695D01*
X7103776Y-8049211D01*
X7041548Y-7898979D01*
X6951208Y-7763775D01*
X6836225Y-7648792D01*
X6701021Y-7558452D01*
X6550789Y-7496224D01*
X6391305Y-7464500D01*
X6228695Y-7464500D01*
X6069211Y-7496224D01*
X5918979Y-7558452D01*
X5783775Y-7648792D01*
X5668792Y-7763775D01*
X5578452Y-7898979D01*
X5516224Y-8049211D01*
X5484500Y-8208695D01*
X487000Y-8208695D01*
X487000Y-7418695D01*
X7874500Y-7418695D01*
X7874500Y-7581305D01*
X7906224Y-7740789D01*
X7968452Y-7891021D01*
X8058792Y-8026225D01*
X8173775Y-8141208D01*
X8308979Y-8231548D01*
X8459211Y-8293776D01*
X8618695Y-8325500D01*
X8781305Y-8325500D01*
X8940789Y-8293776D01*
X9091021Y-8231548D01*
X9226225Y-8141208D01*
X9341208Y-8026225D01*
X9431548Y-7891021D01*
X9493776Y-7740789D01*
X9525500Y-7581305D01*
X9525500Y-7418695D01*
X9493776Y-7259211D01*
X9431548Y-7108979D01*
X9341208Y-6973775D01*
X9226225Y-6858792D01*
X9091021Y-6768452D01*
X8940789Y-6706224D01*
X8781305Y-6674500D01*
X8618695Y-6674500D01*
X8459211Y-6706224D01*
X8308979Y-6768452D01*
X8173775Y-6858792D01*
X8058792Y-6973775D01*
X7968452Y-7108979D01*
X7906224Y-7259211D01*
X7874500Y-7418695D01*
X487000Y-7418695D01*
X487000Y-6416015D01*
X11671820Y-6416015D01*
X11671820Y-6578625D01*
X11703544Y-6738109D01*
X11765772Y-6888341D01*
X11856112Y-7023545D01*
X11971095Y-7138528D01*
X12106299Y-7228868D01*
X12256531Y-7291096D01*
X12416015Y-7322820D01*
X12578625Y-7322820D01*
X12738109Y-7291096D01*
X12888341Y-7228868D01*
X13023545Y-7138528D01*
X13138528Y-7023545D01*
X13228868Y-6888341D01*
X13291096Y-6738109D01*
X13322820Y-6578625D01*
X13322820Y-6416015D01*
X13318840Y-6396003D01*
X15467192Y-6396003D01*
X15467192Y-6558613D01*
X15498916Y-6718097D01*
X15561144Y-6868329D01*
X15651484Y-7003533D01*
X15766467Y-7118516D01*
X15901671Y-7208856D01*
X16051903Y-7271084D01*
X16211387Y-7302808D01*
X16373997Y-7302808D01*
X16533481Y-7271084D01*
X16683713Y-7208856D01*
X16818917Y-7118516D01*
X16933900Y-7003533D01*
X17024240Y-6868329D01*
X17086468Y-6718097D01*
X17118192Y-6558613D01*
X17118192Y-6396003D01*
X17086468Y-6236519D01*
X17024240Y-6086287D01*
X16933900Y-5951083D01*
X16818917Y-5836100D01*
X16683713Y-5745760D01*
X16533481Y-5683532D01*
X16373997Y-5651808D01*
X16211387Y-5651808D01*
X16051903Y-5683532D01*
X15901671Y-5745760D01*
X15766467Y-5836100D01*
X15651484Y-5951083D01*
X15561144Y-6086287D01*
X15498916Y-6236519D01*
X15467192Y-6396003D01*
X13318840Y-6396003D01*
X13291096Y-6256531D01*
X13228868Y-6106299D01*
X13158286Y-6000665D01*
X13231548Y-5891021D01*
X13293776Y-5740789D01*
X13325500Y-5581305D01*
X13325500Y-5418695D01*
X13293776Y-5259211D01*
X13231548Y-5108979D01*
X13158731Y-5000000D01*
X13231548Y-4891021D01*
X13293776Y-4740789D01*
X13325500Y-4581305D01*
X13325500Y-4418695D01*
X13320987Y-4396003D01*
X15467192Y-4396003D01*
X15467192Y-4558613D01*
X15498916Y-4718097D01*
X15561144Y-4868329D01*
X15651484Y-5003533D01*
X15766467Y-5118516D01*
X15901671Y-5208856D01*
X16051903Y-5271084D01*
X16211387Y-5302808D01*
X16373997Y-5302808D01*
X16533481Y-5271084D01*
X16683713Y-5208856D01*
X16818917Y-5118516D01*
X16933900Y-5003533D01*
X17024240Y-4868329D01*
X17086468Y-4718097D01*
X17118192Y-4558613D01*
X17118192Y-4396003D01*
X17086468Y-4236519D01*
X17024240Y-4086287D01*
X16933900Y-3951083D01*
X16818917Y-3836100D01*
X16683713Y-3745760D01*
X16533481Y-3683532D01*
X16373997Y-3651808D01*
X16211387Y-3651808D01*
X16051903Y-3683532D01*
X15901671Y-3745760D01*
X15766467Y-3836100D01*
X15651484Y-3951083D01*
X15561144Y-4086287D01*
X15498916Y-4236519D01*
X15467192Y-4396003D01*
X13320987Y-4396003D01*
X13293776Y-4259211D01*
X13231548Y-4108979D01*
X13141208Y-3973775D01*
X13026225Y-3858792D01*
X12891021Y-3768452D01*
X12740789Y-3706224D01*
X12581305Y-3674500D01*
X12418695Y-3674500D01*
X12259211Y-3706224D01*
X12108979Y-3768452D01*
X11973775Y-3858792D01*
X11858792Y-3973775D01*
X11768452Y-4108979D01*
X11706224Y-4259211D01*
X11674500Y-4418695D01*
X11674500Y-4581305D01*
X11706224Y-4740789D01*
X11768452Y-4891021D01*
X11841269Y-5000000D01*
X11768452Y-5108979D01*
X11706224Y-5259211D01*
X11674500Y-5418695D01*
X11674500Y-5581305D01*
X11706224Y-5740789D01*
X11768452Y-5891021D01*
X11839034Y-5996655D01*
X11765772Y-6106299D01*
X11703544Y-6256531D01*
X11671820Y-6416015D01*
X487000Y-6416015D01*
X487000Y-6067417D01*
X526225Y-6041208D01*
X641208Y-5926225D01*
X731548Y-5791021D01*
X793776Y-5640789D01*
X825500Y-5481305D01*
X825500Y-5318695D01*
X793776Y-5159211D01*
X731548Y-5008979D01*
X641208Y-4873775D01*
X526225Y-4758792D01*
X487000Y-4732583D01*
X487000Y-3418695D01*
X5474500Y-3418695D01*
X5474500Y-3581305D01*
X5506224Y-3740789D01*
X5568452Y-3891021D01*
X5658792Y-4026225D01*
X5773775Y-4141208D01*
X5908979Y-4231548D01*
X6059211Y-4293776D01*
X6218695Y-4325500D01*
X6381305Y-4325500D01*
X6540789Y-4293776D01*
X6691021Y-4231548D01*
X6826225Y-4141208D01*
X6941208Y-4026225D01*
X7031548Y-3891021D01*
X7093776Y-3740789D01*
X7125500Y-3581305D01*
X7125500Y-3418695D01*
X7093776Y-3259211D01*
X7031548Y-3108979D01*
X6941208Y-2973775D01*
X6826225Y-2858792D01*
X6691021Y-2768452D01*
X6540789Y-2706224D01*
X6381305Y-2674500D01*
X6218695Y-2674500D01*
X6059211Y-2706224D01*
X5908979Y-2768452D01*
X5773775Y-2858792D01*
X5658792Y-2973775D01*
X5568452Y-3108979D01*
X5506224Y-3259211D01*
X5474500Y-3418695D01*
X487000Y-3418695D01*
X487000Y-1418695D01*
X11774500Y-1418695D01*
X11774500Y-1581305D01*
X11806224Y-1740789D01*
X11868452Y-1891021D01*
X11941269Y-2000000D01*
X11868452Y-2108979D01*
X11806224Y-2259211D01*
X11774500Y-2418695D01*
X11774500Y-2581305D01*
X11806224Y-2740789D01*
X11868452Y-2891021D01*
X11958792Y-3026225D01*
X12073775Y-3141208D01*
X12208979Y-3231548D01*
X12359211Y-3293776D01*
X12518695Y-3325500D01*
X12681305Y-3325500D01*
X12840789Y-3293776D01*
X12991021Y-3231548D01*
X13126225Y-3141208D01*
X13241208Y-3026225D01*
X13331548Y-2891021D01*
X13393776Y-2740789D01*
X13425500Y-2581305D01*
X13425500Y-2418695D01*
X13420987Y-2396003D01*
X15467192Y-2396003D01*
X15467192Y-2558613D01*
X15498916Y-2718097D01*
X15561144Y-2868329D01*
X15651484Y-3003533D01*
X15766467Y-3118516D01*
X15901671Y-3208856D01*
X16051903Y-3271084D01*
X16211387Y-3302808D01*
X16373997Y-3302808D01*
X16533481Y-3271084D01*
X16683713Y-3208856D01*
X16818917Y-3118516D01*
X16933900Y-3003533D01*
X17024240Y-2868329D01*
X17086468Y-2718097D01*
X17118192Y-2558613D01*
X17118192Y-2396003D01*
X17086468Y-2236519D01*
X17024240Y-2086287D01*
X16933900Y-1951083D01*
X16818917Y-1836100D01*
X16683713Y-1745760D01*
X16533481Y-1683532D01*
X16373997Y-1651808D01*
X16211387Y-1651808D01*
X16051903Y-1683532D01*
X15901671Y-1745760D01*
X15766467Y-1836100D01*
X15651484Y-1951083D01*
X15561144Y-2086287D01*
X15498916Y-2236519D01*
X15467192Y-2396003D01*
X13420987Y-2396003D01*
X13393776Y-2259211D01*
X13331548Y-2108979D01*
X13258731Y-2000000D01*
X13331548Y-1891021D01*
X13393776Y-1740789D01*
X13425500Y-1581305D01*
X13425500Y-1418695D01*
X13393776Y-1259211D01*
X13331548Y-1108979D01*
X13241208Y-973775D01*
X13126225Y-858792D01*
X12991021Y-768452D01*
X12840789Y-706224D01*
X12681305Y-674500D01*
X12518695Y-674500D01*
X12359211Y-706224D01*
X12208979Y-768452D01*
X12073775Y-858792D01*
X11958792Y-973775D01*
X11868452Y-1108979D01*
X11806224Y-1259211D01*
X11774500Y-1418695D01*
X487000Y-1418695D01*
X487000Y-487000D01*
X2192583Y-487000D01*
X2218792Y-526225D01*
G04 #@! TA.AperFunction,Conductor*
D12*
G36*
X2218792Y-526225D02*
G01*
X2333775Y-641208D01*
X2468979Y-731548D01*
X2619211Y-793776D01*
X2778695Y-825500D01*
X2941305Y-825500D01*
X3100789Y-793776D01*
X3251021Y-731548D01*
X3386225Y-641208D01*
X3501208Y-526225D01*
X3527417Y-487000D01*
X8177168Y-487000D01*
X8177168Y-578637D01*
X8208892Y-738121D01*
X8271120Y-888353D01*
X8361460Y-1023557D01*
X8476443Y-1138540D01*
X8611647Y-1228880D01*
X8761879Y-1291108D01*
X8921363Y-1322832D01*
X9083973Y-1322832D01*
X9243457Y-1291108D01*
X9393689Y-1228880D01*
X9528893Y-1138540D01*
X9643876Y-1023557D01*
X9734216Y-888353D01*
X9796444Y-738121D01*
X9828168Y-578637D01*
X9828168Y-487000D01*
X15467192Y-487000D01*
X15467192Y-558613D01*
X15498916Y-718097D01*
X15561144Y-868329D01*
X15651484Y-1003533D01*
X15766467Y-1118516D01*
X15901671Y-1208856D01*
X16051903Y-1271084D01*
X16211387Y-1302808D01*
X16373997Y-1302808D01*
X16533481Y-1271084D01*
X16683713Y-1208856D01*
X16818917Y-1118516D01*
X16933900Y-1003533D01*
X17024240Y-868329D01*
X17086468Y-718097D01*
X17118192Y-558613D01*
X17118192Y-487000D01*
X24892001Y-487000D01*
X24892001Y-24892000D01*
X487000Y-24892000D01*
X487000Y-17868695D01*
X14164500Y-17868695D01*
X14164500Y-18031305D01*
X14196224Y-18190789D01*
X14258452Y-18341021D01*
X14348792Y-18476225D01*
X14463775Y-18591208D01*
X14598979Y-18681548D01*
X14749211Y-18743776D01*
X14908695Y-18775500D01*
X15071305Y-18775500D01*
X15230789Y-18743776D01*
X15381021Y-18681548D01*
X15516225Y-18591208D01*
X15631208Y-18476225D01*
X15721548Y-18341021D01*
X15783776Y-18190789D01*
X15815500Y-18031305D01*
X15815500Y-17868695D01*
X15783776Y-17709211D01*
X15721548Y-17558979D01*
X15631208Y-17423775D01*
X15516225Y-17308792D01*
X15381021Y-17218452D01*
X15230789Y-17156224D01*
X15071305Y-17124500D01*
X14908695Y-17124500D01*
X14749211Y-17156224D01*
X14598979Y-17218452D01*
X14463775Y-17308792D01*
X14348792Y-17423775D01*
X14258452Y-17558979D01*
X14196224Y-17709211D01*
X14164500Y-17868695D01*
X487000Y-17868695D01*
X487000Y-14838695D01*
X6354500Y-14838695D01*
X6354500Y-15001305D01*
X6386224Y-15160789D01*
X6448452Y-15311021D01*
X6538792Y-15446225D01*
X6653775Y-15561208D01*
X6788979Y-15651548D01*
X6939211Y-15713776D01*
X7098695Y-15745500D01*
X7261305Y-15745500D01*
X7420789Y-15713776D01*
X7436379Y-15707318D01*
X7368452Y-15808979D01*
X7306224Y-15959211D01*
X7274500Y-16118695D01*
X7274500Y-16281305D01*
X7306224Y-16440789D01*
X7368452Y-16591021D01*
X7458792Y-16726225D01*
X7573775Y-16841208D01*
X7708979Y-16931548D01*
X7859211Y-16993776D01*
X8018695Y-17025500D01*
X8181305Y-17025500D01*
X8340789Y-16993776D01*
X8491021Y-16931548D01*
X8626225Y-16841208D01*
X8741208Y-16726225D01*
X8831548Y-16591021D01*
X8893776Y-16440789D01*
X8925500Y-16281305D01*
X8925500Y-16118695D01*
X8893776Y-15959211D01*
X8831548Y-15808979D01*
X8741208Y-15673775D01*
X8626225Y-15558792D01*
X8491021Y-15468452D01*
X8340789Y-15406224D01*
X8181305Y-15374500D01*
X8018695Y-15374500D01*
X7859211Y-15406224D01*
X7843621Y-15412682D01*
X7900614Y-15327384D01*
X16747400Y-15327384D01*
X16747400Y-15672616D01*
X16814752Y-16011215D01*
X16946866Y-16330167D01*
X17138667Y-16617217D01*
X17382783Y-16861333D01*
X17669833Y-17053134D01*
X17988785Y-17185248D01*
X18327384Y-17252600D01*
X18672616Y-17252600D01*
X19011215Y-17185248D01*
X19330167Y-17053134D01*
X19617217Y-16861333D01*
X19861333Y-16617217D01*
X20053134Y-16330167D01*
X20185248Y-16011215D01*
X20252600Y-15672616D01*
X20252600Y-15327384D01*
X20185248Y-14988785D01*
X20053134Y-14669833D01*
X19861333Y-14382783D01*
X19617217Y-14138667D01*
X19330167Y-13946866D01*
X19011215Y-13814752D01*
X18672616Y-13747400D01*
X18327384Y-13747400D01*
X17988785Y-13814752D01*
X17669833Y-13946866D01*
X17382783Y-14138667D01*
X17138667Y-14382783D01*
X16946866Y-14669833D01*
X16814752Y-14988785D01*
X16747400Y-15327384D01*
X7900614Y-15327384D01*
X7911548Y-15311021D01*
X7973776Y-15160789D01*
X8005500Y-15001305D01*
X8005500Y-14838695D01*
X7973776Y-14679211D01*
X7911548Y-14528979D01*
X7821208Y-14393775D01*
X7706225Y-14278792D01*
X7571021Y-14188452D01*
X7420789Y-14126224D01*
X7261305Y-14094500D01*
X7098695Y-14094500D01*
X6939211Y-14126224D01*
X6788979Y-14188452D01*
X6653775Y-14278792D01*
X6538792Y-14393775D01*
X6448452Y-14528979D01*
X6386224Y-14679211D01*
X6354500Y-14838695D01*
X487000Y-14838695D01*
X487000Y-13728695D01*
X11814500Y-13728695D01*
X11814500Y-13891305D01*
X11846224Y-14050789D01*
X11908452Y-14201021D01*
X11998792Y-14336225D01*
X12113775Y-14451208D01*
X12248979Y-14541548D01*
X12399211Y-14603776D01*
X12558695Y-14635500D01*
X12721305Y-14635500D01*
X12880789Y-14603776D01*
X13031021Y-14541548D01*
X13166225Y-14451208D01*
X13281208Y-14336225D01*
X13371548Y-14201021D01*
X13433776Y-14050789D01*
X13465500Y-13891305D01*
X13465500Y-13728695D01*
X13433776Y-13569211D01*
X13371548Y-13418979D01*
X13281208Y-13283775D01*
X13166225Y-13168792D01*
X13031021Y-13078452D01*
X12880789Y-13016224D01*
X12721305Y-12984500D01*
X12558695Y-12984500D01*
X12399211Y-13016224D01*
X12248979Y-13078452D01*
X12113775Y-13168792D01*
X11998792Y-13283775D01*
X11908452Y-13418979D01*
X11846224Y-13569211D01*
X11814500Y-13728695D01*
X487000Y-13728695D01*
X487000Y-12618695D01*
X8274500Y-12618695D01*
X8274500Y-12781305D01*
X8306224Y-12940789D01*
X8368452Y-13091021D01*
X8458792Y-13226225D01*
X8573775Y-13341208D01*
X8708979Y-13431548D01*
X8859211Y-13493776D01*
X9018695Y-13525500D01*
X9181305Y-13525500D01*
X9340789Y-13493776D01*
X9491021Y-13431548D01*
X9626225Y-13341208D01*
X9741208Y-13226225D01*
X9831548Y-13091021D01*
X9893776Y-12940789D01*
X9925500Y-12781305D01*
X9925500Y-12618695D01*
X9893776Y-12459211D01*
X9867595Y-12396003D01*
X15467192Y-12396003D01*
X15467192Y-12558613D01*
X15498916Y-12718097D01*
X15561144Y-12868329D01*
X15651484Y-13003533D01*
X15766467Y-13118516D01*
X15901671Y-13208856D01*
X16051903Y-13271084D01*
X16211387Y-13302808D01*
X16373997Y-13302808D01*
X16533481Y-13271084D01*
X16683713Y-13208856D01*
X16818917Y-13118516D01*
X16933900Y-13003533D01*
X17024240Y-12868329D01*
X17086468Y-12718097D01*
X17118192Y-12558613D01*
X17118192Y-12396003D01*
X17095355Y-12281195D01*
X18847000Y-12281195D01*
X18847000Y-12443805D01*
X18878724Y-12603289D01*
X18940952Y-12753521D01*
X19031292Y-12888725D01*
X19146275Y-13003708D01*
X19281479Y-13094048D01*
X19431711Y-13156276D01*
X19591195Y-13188000D01*
X19753805Y-13188000D01*
X19913289Y-13156276D01*
X20063521Y-13094048D01*
X20198725Y-13003708D01*
X20313708Y-12888725D01*
X20404048Y-12753521D01*
X20466276Y-12603289D01*
X20498000Y-12443805D01*
X20498000Y-12281195D01*
X20466276Y-12121711D01*
X20404048Y-11971479D01*
X20313708Y-11836275D01*
X20198725Y-11721292D01*
X20063521Y-11630952D01*
X19913289Y-11568724D01*
X19753805Y-11537000D01*
X19591195Y-11537000D01*
X19431711Y-11568724D01*
X19281479Y-11630952D01*
X19146275Y-11721292D01*
X19031292Y-11836275D01*
X18940952Y-11971479D01*
X18878724Y-12121711D01*
X18847000Y-12281195D01*
X17095355Y-12281195D01*
X17086468Y-12236519D01*
X17024240Y-12086287D01*
X16933900Y-11951083D01*
X16818917Y-11836100D01*
X16683713Y-11745760D01*
X16533481Y-11683532D01*
X16373997Y-11651808D01*
X16211387Y-11651808D01*
X16051903Y-11683532D01*
X15901671Y-11745760D01*
X15766467Y-11836100D01*
X15651484Y-11951083D01*
X15561144Y-12086287D01*
X15498916Y-12236519D01*
X15467192Y-12396003D01*
X9867595Y-12396003D01*
X9831548Y-12308979D01*
X9762216Y-12205217D01*
X9841208Y-12126225D01*
X9931548Y-11991021D01*
X9993776Y-11840789D01*
X10025500Y-11681305D01*
X10025500Y-11518695D01*
X9993776Y-11359211D01*
X9935573Y-11218695D01*
X11924500Y-11218695D01*
X11924500Y-11381305D01*
X11956224Y-11540789D01*
X12018452Y-11691021D01*
X12108792Y-11826225D01*
X12223775Y-11941208D01*
X12358979Y-12031548D01*
X12509211Y-12093776D01*
X12668695Y-12125500D01*
X12831305Y-12125500D01*
X12990789Y-12093776D01*
X13141021Y-12031548D01*
X13276225Y-11941208D01*
X13391208Y-11826225D01*
X13481548Y-11691021D01*
X13543776Y-11540789D01*
X13575500Y-11381305D01*
X13575500Y-11218695D01*
X13543776Y-11059211D01*
X13481548Y-10908979D01*
X13391208Y-10773775D01*
X13276225Y-10658792D01*
X13141021Y-10568452D01*
X12990789Y-10506224D01*
X12831305Y-10474500D01*
X12668695Y-10474500D01*
X12509211Y-10506224D01*
X12358979Y-10568452D01*
X12223775Y-10658792D01*
X12108792Y-10773775D01*
X12018452Y-10908979D01*
X11956224Y-11059211D01*
X11924500Y-11218695D01*
X9935573Y-11218695D01*
X9931548Y-11208979D01*
X9862216Y-11105217D01*
X9943896Y-11023537D01*
X10034236Y-10888333D01*
X10096464Y-10738101D01*
X10128188Y-10578617D01*
X10128188Y-10416007D01*
X10124209Y-10396003D01*
X15467192Y-10396003D01*
X15467192Y-10558613D01*
X15498916Y-10718097D01*
X15561144Y-10868329D01*
X15651484Y-11003533D01*
X15766467Y-11118516D01*
X15901671Y-11208856D01*
X16051903Y-11271084D01*
X16211387Y-11302808D01*
X16373997Y-11302808D01*
X16533481Y-11271084D01*
X16683713Y-11208856D01*
X16818917Y-11118516D01*
X16933900Y-11003533D01*
X17024240Y-10868329D01*
X17086468Y-10718097D01*
X17118192Y-10558613D01*
X17118192Y-10396003D01*
X17086468Y-10236519D01*
X17024240Y-10086287D01*
X16933900Y-9951083D01*
X16818917Y-9836100D01*
X16683713Y-9745760D01*
X16533481Y-9683532D01*
X16373997Y-9651808D01*
X16211387Y-9651808D01*
X16051903Y-9683532D01*
X15901671Y-9745760D01*
X15766467Y-9836100D01*
X15651484Y-9951083D01*
X15561144Y-10086287D01*
X15498916Y-10236519D01*
X15467192Y-10396003D01*
X10124209Y-10396003D01*
X10096464Y-10256523D01*
X10034236Y-10106291D01*
X9943896Y-9971087D01*
X9828913Y-9856104D01*
X9693709Y-9765764D01*
X9543477Y-9703536D01*
X9383993Y-9671812D01*
X9221383Y-9671812D01*
X9061899Y-9703536D01*
X8911667Y-9765764D01*
X8776463Y-9856104D01*
X8661480Y-9971087D01*
X8571140Y-10106291D01*
X8508912Y-10256523D01*
X8477188Y-10416007D01*
X8477188Y-10578617D01*
X8508912Y-10738101D01*
X8571140Y-10888333D01*
X8640472Y-10992095D01*
X8558792Y-11073775D01*
X8468452Y-11208979D01*
X8406224Y-11359211D01*
X8374500Y-11518695D01*
X8374500Y-11681305D01*
X8406224Y-11840789D01*
X8468452Y-11991021D01*
X8537784Y-12094783D01*
X8458792Y-12173775D01*
X8368452Y-12308979D01*
X8306224Y-12459211D01*
X8274500Y-12618695D01*
X487000Y-12618695D01*
X487000Y-8208695D01*
X5484500Y-8208695D01*
X5484500Y-8371305D01*
X5516224Y-8530789D01*
X5578452Y-8681021D01*
X5668792Y-8816225D01*
X5783775Y-8931208D01*
X5918979Y-9021548D01*
X6069211Y-9083776D01*
X6228695Y-9115500D01*
X6391305Y-9115500D01*
X6550789Y-9083776D01*
X6701021Y-9021548D01*
X6836225Y-8931208D01*
X6951208Y-8816225D01*
X7041548Y-8681021D01*
X7103776Y-8530789D01*
X7130587Y-8396003D01*
X15467192Y-8396003D01*
X15467192Y-8558613D01*
X15498916Y-8718097D01*
X15561144Y-8868329D01*
X15651484Y-9003533D01*
X15766467Y-9118516D01*
X15901671Y-9208856D01*
X16051903Y-9271084D01*
X16211387Y-9302808D01*
X16373997Y-9302808D01*
X16533481Y-9271084D01*
X16683713Y-9208856D01*
X16818917Y-9118516D01*
X16933900Y-9003533D01*
X17024240Y-8868329D01*
X17086468Y-8718097D01*
X17118192Y-8558613D01*
X17118192Y-8396003D01*
X17086468Y-8236519D01*
X17062517Y-8178695D01*
X18114500Y-8178695D01*
X18114500Y-8341305D01*
X18146224Y-8500789D01*
X18208452Y-8651021D01*
X18298792Y-8786225D01*
X18413775Y-8901208D01*
X18548979Y-8991548D01*
X18699211Y-9053776D01*
X18858695Y-9085500D01*
X19021305Y-9085500D01*
X19180789Y-9053776D01*
X19331021Y-8991548D01*
X19466225Y-8901208D01*
X19581208Y-8786225D01*
X19671548Y-8651021D01*
X19733776Y-8500789D01*
X19765500Y-8341305D01*
X19765500Y-8178695D01*
X19733776Y-8019211D01*
X19671548Y-7868979D01*
X19581208Y-7733775D01*
X19466225Y-7618792D01*
X19331021Y-7528452D01*
X19180789Y-7466224D01*
X19021305Y-7434500D01*
X18858695Y-7434500D01*
X18699211Y-7466224D01*
X18548979Y-7528452D01*
X18413775Y-7618792D01*
X18298792Y-7733775D01*
X18208452Y-7868979D01*
X18146224Y-8019211D01*
X18114500Y-8178695D01*
X17062517Y-8178695D01*
X17024240Y-8086287D01*
X16933900Y-7951083D01*
X16818917Y-7836100D01*
X16683713Y-7745760D01*
X16533481Y-7683532D01*
X16373997Y-7651808D01*
X16211387Y-7651808D01*
X16051903Y-7683532D01*
X15901671Y-7745760D01*
X15766467Y-7836100D01*
X15651484Y-7951083D01*
X15561144Y-8086287D01*
X15498916Y-8236519D01*
X15467192Y-8396003D01*
X7130587Y-8396003D01*
X7135500Y-8371305D01*
X7135500Y-8208695D01*
X7103776Y-8049211D01*
X7041548Y-7898979D01*
X6951208Y-7763775D01*
X6836225Y-7648792D01*
X6701021Y-7558452D01*
X6550789Y-7496224D01*
X6391305Y-7464500D01*
X6228695Y-7464500D01*
X6069211Y-7496224D01*
X5918979Y-7558452D01*
X5783775Y-7648792D01*
X5668792Y-7763775D01*
X5578452Y-7898979D01*
X5516224Y-8049211D01*
X5484500Y-8208695D01*
X487000Y-8208695D01*
X487000Y-7418695D01*
X7874500Y-7418695D01*
X7874500Y-7581305D01*
X7906224Y-7740789D01*
X7968452Y-7891021D01*
X8058792Y-8026225D01*
X8173775Y-8141208D01*
X8308979Y-8231548D01*
X8459211Y-8293776D01*
X8618695Y-8325500D01*
X8781305Y-8325500D01*
X8940789Y-8293776D01*
X9091021Y-8231548D01*
X9226225Y-8141208D01*
X9341208Y-8026225D01*
X9431548Y-7891021D01*
X9493776Y-7740789D01*
X9525500Y-7581305D01*
X9525500Y-7418695D01*
X9493776Y-7259211D01*
X9431548Y-7108979D01*
X9341208Y-6973775D01*
X9226225Y-6858792D01*
X9091021Y-6768452D01*
X8940789Y-6706224D01*
X8781305Y-6674500D01*
X8618695Y-6674500D01*
X8459211Y-6706224D01*
X8308979Y-6768452D01*
X8173775Y-6858792D01*
X8058792Y-6973775D01*
X7968452Y-7108979D01*
X7906224Y-7259211D01*
X7874500Y-7418695D01*
X487000Y-7418695D01*
X487000Y-6416015D01*
X11671820Y-6416015D01*
X11671820Y-6578625D01*
X11703544Y-6738109D01*
X11765772Y-6888341D01*
X11856112Y-7023545D01*
X11971095Y-7138528D01*
X12106299Y-7228868D01*
X12256531Y-7291096D01*
X12416015Y-7322820D01*
X12578625Y-7322820D01*
X12738109Y-7291096D01*
X12888341Y-7228868D01*
X13023545Y-7138528D01*
X13138528Y-7023545D01*
X13228868Y-6888341D01*
X13291096Y-6738109D01*
X13322820Y-6578625D01*
X13322820Y-6416015D01*
X13318840Y-6396003D01*
X15467192Y-6396003D01*
X15467192Y-6558613D01*
X15498916Y-6718097D01*
X15561144Y-6868329D01*
X15651484Y-7003533D01*
X15766467Y-7118516D01*
X15901671Y-7208856D01*
X16051903Y-7271084D01*
X16211387Y-7302808D01*
X16373997Y-7302808D01*
X16533481Y-7271084D01*
X16683713Y-7208856D01*
X16818917Y-7118516D01*
X16933900Y-7003533D01*
X17024240Y-6868329D01*
X17086468Y-6718097D01*
X17118192Y-6558613D01*
X17118192Y-6396003D01*
X17086468Y-6236519D01*
X17024240Y-6086287D01*
X16933900Y-5951083D01*
X16818917Y-5836100D01*
X16683713Y-5745760D01*
X16533481Y-5683532D01*
X16373997Y-5651808D01*
X16211387Y-5651808D01*
X16051903Y-5683532D01*
X15901671Y-5745760D01*
X15766467Y-5836100D01*
X15651484Y-5951083D01*
X15561144Y-6086287D01*
X15498916Y-6236519D01*
X15467192Y-6396003D01*
X13318840Y-6396003D01*
X13291096Y-6256531D01*
X13228868Y-6106299D01*
X13158286Y-6000665D01*
X13231548Y-5891021D01*
X13293776Y-5740789D01*
X13325500Y-5581305D01*
X13325500Y-5418695D01*
X13293776Y-5259211D01*
X13231548Y-5108979D01*
X13158731Y-5000000D01*
X13231548Y-4891021D01*
X13293776Y-4740789D01*
X13325500Y-4581305D01*
X13325500Y-4418695D01*
X13320987Y-4396003D01*
X15467192Y-4396003D01*
X15467192Y-4558613D01*
X15498916Y-4718097D01*
X15561144Y-4868329D01*
X15651484Y-5003533D01*
X15766467Y-5118516D01*
X15901671Y-5208856D01*
X16051903Y-5271084D01*
X16211387Y-5302808D01*
X16373997Y-5302808D01*
X16533481Y-5271084D01*
X16683713Y-5208856D01*
X16818917Y-5118516D01*
X16933900Y-5003533D01*
X17024240Y-4868329D01*
X17086468Y-4718097D01*
X17118192Y-4558613D01*
X17118192Y-4396003D01*
X17086468Y-4236519D01*
X17024240Y-4086287D01*
X16933900Y-3951083D01*
X16818917Y-3836100D01*
X16683713Y-3745760D01*
X16533481Y-3683532D01*
X16373997Y-3651808D01*
X16211387Y-3651808D01*
X16051903Y-3683532D01*
X15901671Y-3745760D01*
X15766467Y-3836100D01*
X15651484Y-3951083D01*
X15561144Y-4086287D01*
X15498916Y-4236519D01*
X15467192Y-4396003D01*
X13320987Y-4396003D01*
X13293776Y-4259211D01*
X13231548Y-4108979D01*
X13141208Y-3973775D01*
X13026225Y-3858792D01*
X12891021Y-3768452D01*
X12740789Y-3706224D01*
X12581305Y-3674500D01*
X12418695Y-3674500D01*
X12259211Y-3706224D01*
X12108979Y-3768452D01*
X11973775Y-3858792D01*
X11858792Y-3973775D01*
X11768452Y-4108979D01*
X11706224Y-4259211D01*
X11674500Y-4418695D01*
X11674500Y-4581305D01*
X11706224Y-4740789D01*
X11768452Y-4891021D01*
X11841269Y-5000000D01*
X11768452Y-5108979D01*
X11706224Y-5259211D01*
X11674500Y-5418695D01*
X11674500Y-5581305D01*
X11706224Y-5740789D01*
X11768452Y-5891021D01*
X11839034Y-5996655D01*
X11765772Y-6106299D01*
X11703544Y-6256531D01*
X11671820Y-6416015D01*
X487000Y-6416015D01*
X487000Y-6067417D01*
X526225Y-6041208D01*
X641208Y-5926225D01*
X731548Y-5791021D01*
X793776Y-5640789D01*
X825500Y-5481305D01*
X825500Y-5318695D01*
X793776Y-5159211D01*
X731548Y-5008979D01*
X641208Y-4873775D01*
X526225Y-4758792D01*
X487000Y-4732583D01*
X487000Y-3418695D01*
X5474500Y-3418695D01*
X5474500Y-3581305D01*
X5506224Y-3740789D01*
X5568452Y-3891021D01*
X5658792Y-4026225D01*
X5773775Y-4141208D01*
X5908979Y-4231548D01*
X6059211Y-4293776D01*
X6218695Y-4325500D01*
X6381305Y-4325500D01*
X6540789Y-4293776D01*
X6691021Y-4231548D01*
X6826225Y-4141208D01*
X6941208Y-4026225D01*
X7031548Y-3891021D01*
X7093776Y-3740789D01*
X7125500Y-3581305D01*
X7125500Y-3418695D01*
X7093776Y-3259211D01*
X7031548Y-3108979D01*
X6941208Y-2973775D01*
X6826225Y-2858792D01*
X6691021Y-2768452D01*
X6540789Y-2706224D01*
X6381305Y-2674500D01*
X6218695Y-2674500D01*
X6059211Y-2706224D01*
X5908979Y-2768452D01*
X5773775Y-2858792D01*
X5658792Y-2973775D01*
X5568452Y-3108979D01*
X5506224Y-3259211D01*
X5474500Y-3418695D01*
X487000Y-3418695D01*
X487000Y-1418695D01*
X11774500Y-1418695D01*
X11774500Y-1581305D01*
X11806224Y-1740789D01*
X11868452Y-1891021D01*
X11941269Y-2000000D01*
X11868452Y-2108979D01*
X11806224Y-2259211D01*
X11774500Y-2418695D01*
X11774500Y-2581305D01*
X11806224Y-2740789D01*
X11868452Y-2891021D01*
X11958792Y-3026225D01*
X12073775Y-3141208D01*
X12208979Y-3231548D01*
X12359211Y-3293776D01*
X12518695Y-3325500D01*
X12681305Y-3325500D01*
X12840789Y-3293776D01*
X12991021Y-3231548D01*
X13126225Y-3141208D01*
X13241208Y-3026225D01*
X13331548Y-2891021D01*
X13393776Y-2740789D01*
X13425500Y-2581305D01*
X13425500Y-2418695D01*
X13420987Y-2396003D01*
X15467192Y-2396003D01*
X15467192Y-2558613D01*
X15498916Y-2718097D01*
X15561144Y-2868329D01*
X15651484Y-3003533D01*
X15766467Y-3118516D01*
X15901671Y-3208856D01*
X16051903Y-3271084D01*
X16211387Y-3302808D01*
X16373997Y-3302808D01*
X16533481Y-3271084D01*
X16683713Y-3208856D01*
X16818917Y-3118516D01*
X16933900Y-3003533D01*
X17024240Y-2868329D01*
X17086468Y-2718097D01*
X17118192Y-2558613D01*
X17118192Y-2396003D01*
X17086468Y-2236519D01*
X17024240Y-2086287D01*
X16933900Y-1951083D01*
X16818917Y-1836100D01*
X16683713Y-1745760D01*
X16533481Y-1683532D01*
X16373997Y-1651808D01*
X16211387Y-1651808D01*
X16051903Y-1683532D01*
X15901671Y-1745760D01*
X15766467Y-1836100D01*
X15651484Y-1951083D01*
X15561144Y-2086287D01*
X15498916Y-2236519D01*
X15467192Y-2396003D01*
X13420987Y-2396003D01*
X13393776Y-2259211D01*
X13331548Y-2108979D01*
X13258731Y-2000000D01*
X13331548Y-1891021D01*
X13393776Y-1740789D01*
X13425500Y-1581305D01*
X13425500Y-1418695D01*
X13393776Y-1259211D01*
X13331548Y-1108979D01*
X13241208Y-973775D01*
X13126225Y-858792D01*
X12991021Y-768452D01*
X12840789Y-706224D01*
X12681305Y-674500D01*
X12518695Y-674500D01*
X12359211Y-706224D01*
X12208979Y-768452D01*
X12073775Y-858792D01*
X11958792Y-973775D01*
X11868452Y-1108979D01*
X11806224Y-1259211D01*
X11774500Y-1418695D01*
X487000Y-1418695D01*
X487000Y-487000D01*
X2192583Y-487000D01*
X2218792Y-526225D01*
G37*
G04 #@! TD.AperFunction*
G04 #@! TD*
M02*
