M48
; DRILL file {KiCad 5.1.10-88a1d61d58~88~ubuntu18.04.1} date Fri Jul 16 13:52:29 2021
; FORMAT={-:-/ absolute / inch / decimal}
; #@! TF.CreationDate,2021-07-16T13:52:29-04:00
; #@! TF.GenerationSoftware,Kicad,Pcbnew,5.1.10-88a1d61d58~88~ubuntu18.04.1
; #@! TF.FileFunction,Plated,1,4,PTH
FMAT,2
INCH
T1C0.0150
%
G90
G05
T1
X-0.8578Y-0.3979
X-0.8575Y-0.4768
X-0.8484Y0.9272
X-0.8484Y0.6831
X-0.8484Y0.439
X-0.8484Y0.1949
X-0.8484Y-0.0768
X-0.8484Y-0.3209
X-0.8484Y-0.565
X-0.8484Y-0.8091
X-0.7457Y0.5772
X-0.7457Y0.415
X-0.7457Y0.3244
X-0.7457Y-0.1717
X-0.7457Y-0.3244
X-0.7027Y0.2145
X-0.6417Y0.5118
X-0.6414Y0.57
X-0.6414Y0.4125
X-0.6414Y0.3338
X-0.6414Y0.255
X-0.6414Y0.0975
X-0.6414Y0.0188
X-0.6414Y-0.0599
X-0.6414Y-0.1387
X-0.6414Y-0.2174
X-0.6414Y-0.2962
X-0.6414Y-0.3749
X-0.6393Y0.6495
X-0.6367Y0.1798
X-0.6346Y-0.435
X-0.6346Y-0.5126
X-0.6043Y0.9272
X-0.5965Y0.7185
X-0.572Y-0.6862
X-0.5577Y-0.7652
X-0.5038Y-0.273
X-0.5031Y-0.3118
X-0.5024Y0.2165
X-0.5024Y-0.098
X-0.502Y-0.2402
X-0.502Y-0.3622
X-0.5016Y0.4063
X-0.498Y0.6602
X-0.4961Y0.6102
X-0.4961Y0.4921
X-0.4961Y0.3346
X-0.4961Y0.2953
X-0.4961Y0.2559
X-0.4961Y0.122
X-0.4961Y0.0827
X-0.4961Y0.0197
X-0.4961Y-0.0197
X-0.4961Y-0.0591
X-0.4961Y-0.1378
X-0.4961Y-0.1772
X-0.496Y0.4526
X-0.4922Y0.1771
X-0.4921Y-0.4528
X-0.4907Y-0.6982
X-0.3622Y0.5709
X-0.3622Y0.5315
X-0.3622Y0.4134
X-0.3622Y0.374
X-0.3622Y0.2165
X-0.3622Y0.0591
X-0.3622Y-0.0984
X-0.3622Y-0.2559
X-0.3622Y-0.374
X-0.3622Y-0.4134
X-0.3602Y-0.687
X-0.3602Y-0.9311
X-0.3543Y-0.5315
X-0.3543Y-0.5709
X-0.3169Y0.8484
X-0.3169Y0.6043
X-0.3169Y0.3602
X-0.3169Y-0.2421
X-0.3169Y-0.4862
X-0.2736Y0.0728
X-0.2433Y-0.4063
X-0.2433Y-0.578
X-0.2413Y0.4161
X-0.2413Y0.3425
X-0.2413Y0.1665
X-0.2413Y-0.1665
X-0.2244Y0.5827
X-0.1811Y-0.2638
X-0.1161Y0.8051
X-0.1161Y0.561
X-0.1161Y0.3169
X-0.1161Y0.0728
X-0.1161Y-0.1988
X-0.1161Y-0.4429
X-0.1161Y-0.687
X-0.1161Y-0.9311
X-0.0813Y0.0258
X0.0Y-0.2126
X0.1126Y0.0
X0.1555Y0.9272
X0.1555Y0.6831
X0.1555Y0.439
X0.1555Y0.1949
X0.1555Y-0.0768
X0.1555Y-0.3209
X0.1555Y-0.8091
X0.1693Y-0.5945
X0.248Y-0.1378
X0.2484Y0.5744
X0.2484Y0.4177
X0.2484Y0.3264
X0.2484Y-0.3264
X0.2499Y0.1712
X0.2638Y-0.1693
X0.2717Y-0.4134
X0.2827Y-0.5874
X0.3019Y0.6495
X0.3118Y0.4921
X0.3189Y-0.6378
X0.3425Y-0.2953
X0.3543Y0.6102
X0.3543Y0.4528
X0.3543Y0.4055
X0.3543Y0.2165
X0.3543Y0.1772
X0.3544Y0.1379
X0.3544Y0.0198
X0.3544Y-0.0196
X0.3583Y-0.5
X0.3622Y-0.4567
X0.3623Y0.3347
X0.3623Y0.2954
X0.3662Y-0.4133
X0.3996Y0.9272
X0.4094Y0.7165
X0.4429Y-0.7657
X0.492Y-0.2558
X0.492Y0.0592
X0.4921Y-0.1772
X0.4921Y-0.2165
X0.4961Y0.2165
X0.4961Y-0.0591
X0.4961Y-0.0984
X0.4976Y-0.5437
X0.4996Y-0.3543
X0.502Y-0.0193
X0.502Y-0.4449
X0.5024Y0.6583
X0.5024Y0.5398
X0.5024Y-0.5
X0.5028Y0.4811
X0.5028Y0.1575
X0.5031Y0.3134
X0.5039Y0.3823
X0.5677Y-0.6752
X0.572Y0.7363
X0.5902Y-0.7067
X0.6414Y0.6111
X0.6414Y0.5324
X0.6414Y0.4536
X0.6414Y0.3749
X0.6414Y0.2962
X0.6414Y0.2174
X0.6414Y0.1387
X0.6414Y0.0599
X0.6414Y-0.0188
X0.6414Y-0.0975
X0.6414Y-0.1763
X0.6414Y-0.255
X0.6414Y-0.3338
X0.6414Y-0.4125
X0.6414Y-0.4912
X0.6437Y-0.687
X0.6437Y-0.9311
X0.6819Y0.6087
X0.687Y0.8484
X0.687Y0.5177
X0.687Y0.3602
X0.687Y-0.2421
X0.687Y-0.4862
X0.7303Y0.0728
X0.7457Y0.5724
X0.7457Y0.411
X0.7457Y0.3283
X0.7457Y0.1677
X0.7457Y-0.1598
X0.7457Y-0.3252
X0.7743Y-0.4188
X0.7745Y-0.4867
X0.874Y0.6421
X0.8878Y0.8051
X0.8878Y0.561
X0.8878Y0.3169
X0.8878Y0.0728
X0.8878Y-0.1988
X0.8878Y-0.4429
X0.8878Y-0.687
X0.8878Y-0.9311
T0
M30
