G04 #@! TF.GenerationSoftware,KiCad,Pcbnew,5.1.10-88a1d61d58~88~ubuntu18.04.1*
G04 #@! TF.CreationDate,2021-07-16T13:38:07-04:00*
G04 #@! TF.ProjectId,SiPM_Board_RevC,5369504d-5f42-46f6-9172-645f52657643,rev?*
G04 #@! TF.SameCoordinates,PX8f0d180PY5f5e100*
G04 #@! TF.FileFunction,Soldermask,Bot*
G04 #@! TF.FilePolarity,Negative*
%FSLAX46Y46*%
G04 Gerber Fmt 4.6, Leading zero omitted, Abs format (unit mm)*
G04 Created by KiCad (PCBNEW 5.1.10-88a1d61d58~88~ubuntu18.04.1) date 2021-07-16 13:38:07*
%MOMM*%
%LPD*%
G01*
G04 APERTURE LIST*
%ADD10C,4.191000*%
%ADD11R,2.413000X0.558800*%
%ADD12R,0.900000X0.400000*%
G04 APERTURE END LIST*
D10*
G04 #@! TO.C,H1*
X-18250000Y18250000D03*
G04 #@! TD*
G04 #@! TO.C,H2*
X18250000Y18250000D03*
G04 #@! TD*
G04 #@! TO.C,H3*
X-18250000Y-15000000D03*
G04 #@! TD*
G04 #@! TO.C,H4*
X18500000Y-15500000D03*
G04 #@! TD*
D11*
G04 #@! TO.C,J2*
X10972000Y16497300D03*
X14528000Y16497300D03*
X14528000Y15497302D03*
X10972000Y15497302D03*
X14528000Y14497304D03*
X10972000Y14497304D03*
X14528000Y13497306D03*
X10972000Y13497306D03*
X14528000Y12497308D03*
X10972000Y12497308D03*
X14528000Y11497310D03*
X10972000Y11497310D03*
X14528000Y10497312D03*
X10972000Y10497312D03*
X14528000Y9497314D03*
X10972000Y9497314D03*
X14528000Y8497316D03*
X10972000Y8497316D03*
X14528000Y7497318D03*
X10972000Y7497318D03*
X14528000Y6497320D03*
X10972000Y6497320D03*
X14528000Y5497322D03*
X10972000Y5497322D03*
X14528000Y4497324D03*
X10972000Y4497324D03*
X14528000Y3497326D03*
X10972000Y3497326D03*
X14528000Y2497328D03*
X10972000Y2497328D03*
X14528000Y1497330D03*
X10972000Y1497330D03*
X14528000Y497332D03*
X10972000Y497332D03*
X14528000Y-502666D03*
X10972000Y-502666D03*
X14528000Y-1502664D03*
X10972000Y-1502664D03*
X14528000Y-2502662D03*
X10972000Y-2502662D03*
X14528000Y-3502660D03*
X10972000Y-3502660D03*
X14528000Y-4502658D03*
X10972000Y-4502658D03*
X14528000Y-5502656D03*
X10972000Y-5502656D03*
X14528000Y-6502654D03*
X10972000Y-6502654D03*
X14528000Y-7502652D03*
X10972000Y-7502652D03*
X14528000Y-8502650D03*
X10972000Y-8502650D03*
X14528000Y-9502648D03*
X10972000Y-9502648D03*
X14528000Y-10502646D03*
X10972000Y-10502646D03*
X14528000Y-11502644D03*
X10972000Y-11502644D03*
X14528000Y-12502642D03*
X10972000Y-12502642D03*
X14528000Y-13502640D03*
X10972000Y-13502640D03*
X14528000Y-14502638D03*
X10972000Y-14502638D03*
X14528000Y-15502636D03*
X10972000Y-15502636D03*
X14528000Y-16502634D03*
X10972000Y-16502634D03*
G04 #@! TD*
G04 #@! TO.C,C16*
G36*
G01*
X18702500Y14030000D02*
X19177500Y14030000D01*
G75*
G02*
X19415000Y13792500I0J-237500D01*
G01*
X19415000Y13192500D01*
G75*
G02*
X19177500Y12955000I-237500J0D01*
G01*
X18702500Y12955000D01*
G75*
G02*
X18465000Y13192500I0J237500D01*
G01*
X18465000Y13792500D01*
G75*
G02*
X18702500Y14030000I237500J0D01*
G01*
G37*
G36*
G01*
X18702500Y12305000D02*
X19177500Y12305000D01*
G75*
G02*
X19415000Y12067500I0J-237500D01*
G01*
X19415000Y11467500D01*
G75*
G02*
X19177500Y11230000I-237500J0D01*
G01*
X18702500Y11230000D01*
G75*
G02*
X18465000Y11467500I0J237500D01*
G01*
X18465000Y12067500D01*
G75*
G02*
X18702500Y12305000I237500J0D01*
G01*
G37*
G04 #@! TD*
D12*
G04 #@! TO.C,U1*
X-1100000Y-650000D03*
X1100000Y0D03*
X-1099820Y655320D03*
X1100000Y-650000D03*
X1100000Y650000D03*
G04 #@! TD*
D11*
G04 #@! TO.C,J1*
X-14528000Y16497300D03*
X-10972000Y16497300D03*
X-10972000Y15497302D03*
X-14528000Y15497302D03*
X-10972000Y14497304D03*
X-14528000Y14497304D03*
X-10972000Y13497306D03*
X-14528000Y13497306D03*
X-10972000Y12497308D03*
X-14528000Y12497308D03*
X-10972000Y11497310D03*
X-14528000Y11497310D03*
X-10972000Y10497312D03*
X-14528000Y10497312D03*
X-10972000Y9497314D03*
X-14528000Y9497314D03*
X-10972000Y8497316D03*
X-14528000Y8497316D03*
X-10972000Y7497318D03*
X-14528000Y7497318D03*
X-10972000Y6497320D03*
X-14528000Y6497320D03*
X-10972000Y5497322D03*
X-14528000Y5497322D03*
X-10972000Y4497324D03*
X-14528000Y4497324D03*
X-10972000Y3497326D03*
X-14528000Y3497326D03*
X-10972000Y2497328D03*
X-14528000Y2497328D03*
X-10972000Y1497330D03*
X-14528000Y1497330D03*
X-10972000Y497332D03*
X-14528000Y497332D03*
X-10972000Y-502666D03*
X-14528000Y-502666D03*
X-10972000Y-1502664D03*
X-14528000Y-1502664D03*
X-10972000Y-2502662D03*
X-14528000Y-2502662D03*
X-10972000Y-3502660D03*
X-14528000Y-3502660D03*
X-10972000Y-4502658D03*
X-14528000Y-4502658D03*
X-10972000Y-5502656D03*
X-14528000Y-5502656D03*
X-10972000Y-6502654D03*
X-14528000Y-6502654D03*
X-10972000Y-7502652D03*
X-14528000Y-7502652D03*
X-10972000Y-8502650D03*
X-14528000Y-8502650D03*
X-10972000Y-9502648D03*
X-14528000Y-9502648D03*
X-10972000Y-10502646D03*
X-14528000Y-10502646D03*
X-10972000Y-11502644D03*
X-14528000Y-11502644D03*
X-10972000Y-12502642D03*
X-14528000Y-12502642D03*
X-10972000Y-13502640D03*
X-14528000Y-13502640D03*
X-10972000Y-14502638D03*
X-14528000Y-14502638D03*
X-10972000Y-15502636D03*
X-14528000Y-15502636D03*
X-10972000Y-16502634D03*
X-14528000Y-16502634D03*
G04 #@! TD*
G04 #@! TO.C,C15*
G36*
G01*
X6072500Y-11230000D02*
X6547500Y-11230000D01*
G75*
G02*
X6785000Y-11467500I0J-237500D01*
G01*
X6785000Y-12067500D01*
G75*
G02*
X6547500Y-12305000I-237500J0D01*
G01*
X6072500Y-12305000D01*
G75*
G02*
X5835000Y-12067500I0J237500D01*
G01*
X5835000Y-11467500D01*
G75*
G02*
X6072500Y-11230000I237500J0D01*
G01*
G37*
G36*
G01*
X6072500Y-12955000D02*
X6547500Y-12955000D01*
G75*
G02*
X6785000Y-13192500I0J-237500D01*
G01*
X6785000Y-13792500D01*
G75*
G02*
X6547500Y-14030000I-237500J0D01*
G01*
X6072500Y-14030000D01*
G75*
G02*
X5835000Y-13792500I0J237500D01*
G01*
X5835000Y-13192500D01*
G75*
G02*
X6072500Y-12955000I237500J0D01*
G01*
G37*
G04 #@! TD*
G04 #@! TO.C,C9*
G36*
G01*
X-237500Y-3505000D02*
X237500Y-3505000D01*
G75*
G02*
X475000Y-3742500I0J-237500D01*
G01*
X475000Y-4342500D01*
G75*
G02*
X237500Y-4580000I-237500J0D01*
G01*
X-237500Y-4580000D01*
G75*
G02*
X-475000Y-4342500I0J237500D01*
G01*
X-475000Y-3742500D01*
G75*
G02*
X-237500Y-3505000I237500J0D01*
G01*
G37*
G36*
G01*
X-237500Y-1780000D02*
X237500Y-1780000D01*
G75*
G02*
X475000Y-2017500I0J-237500D01*
G01*
X475000Y-2617500D01*
G75*
G02*
X237500Y-2855000I-237500J0D01*
G01*
X-237500Y-2855000D01*
G75*
G02*
X-475000Y-2617500I0J237500D01*
G01*
X-475000Y-2017500D01*
G75*
G02*
X-237500Y-1780000I237500J0D01*
G01*
G37*
G04 #@! TD*
G04 #@! TO.C,C5*
G36*
G01*
X-19177500Y12305000D02*
X-18702500Y12305000D01*
G75*
G02*
X-18465000Y12067500I0J-237500D01*
G01*
X-18465000Y11467500D01*
G75*
G02*
X-18702500Y11230000I-237500J0D01*
G01*
X-19177500Y11230000D01*
G75*
G02*
X-19415000Y11467500I0J237500D01*
G01*
X-19415000Y12067500D01*
G75*
G02*
X-19177500Y12305000I237500J0D01*
G01*
G37*
G36*
G01*
X-19177500Y14030000D02*
X-18702500Y14030000D01*
G75*
G02*
X-18465000Y13792500I0J-237500D01*
G01*
X-18465000Y13192500D01*
G75*
G02*
X-18702500Y12955000I-237500J0D01*
G01*
X-19177500Y12955000D01*
G75*
G02*
X-19415000Y13192500I0J237500D01*
G01*
X-19415000Y13792500D01*
G75*
G02*
X-19177500Y14030000I237500J0D01*
G01*
G37*
G04 #@! TD*
G04 #@! TO.C,C7*
G36*
G01*
X-6367500Y14030000D02*
X-5892500Y14030000D01*
G75*
G02*
X-5655000Y13792500I0J-237500D01*
G01*
X-5655000Y13192500D01*
G75*
G02*
X-5892500Y12955000I-237500J0D01*
G01*
X-6367500Y12955000D01*
G75*
G02*
X-6605000Y13192500I0J237500D01*
G01*
X-6605000Y13792500D01*
G75*
G02*
X-6367500Y14030000I237500J0D01*
G01*
G37*
G36*
G01*
X-6367500Y12305000D02*
X-5892500Y12305000D01*
G75*
G02*
X-5655000Y12067500I0J-237500D01*
G01*
X-5655000Y11467500D01*
G75*
G02*
X-5892500Y11230000I-237500J0D01*
G01*
X-6367500Y11230000D01*
G75*
G02*
X-6605000Y11467500I0J237500D01*
G01*
X-6605000Y12067500D01*
G75*
G02*
X-6367500Y12305000I237500J0D01*
G01*
G37*
G04 #@! TD*
G04 #@! TO.C,C6*
G36*
G01*
X-20797500Y-11295000D02*
X-20322500Y-11295000D01*
G75*
G02*
X-20085000Y-11532500I0J-237500D01*
G01*
X-20085000Y-12132500D01*
G75*
G02*
X-20322500Y-12370000I-237500J0D01*
G01*
X-20797500Y-12370000D01*
G75*
G02*
X-21035000Y-12132500I0J237500D01*
G01*
X-21035000Y-11532500D01*
G75*
G02*
X-20797500Y-11295000I237500J0D01*
G01*
G37*
G36*
G01*
X-20797500Y-9570000D02*
X-20322500Y-9570000D01*
G75*
G02*
X-20085000Y-9807500I0J-237500D01*
G01*
X-20085000Y-10407500D01*
G75*
G02*
X-20322500Y-10645000I-237500J0D01*
G01*
X-20797500Y-10645000D01*
G75*
G02*
X-21035000Y-10407500I0J237500D01*
G01*
X-21035000Y-9807500D01*
G75*
G02*
X-20797500Y-9570000I237500J0D01*
G01*
G37*
G04 #@! TD*
G04 #@! TO.C,C8*
G36*
G01*
X-6417500Y-11230000D02*
X-5942500Y-11230000D01*
G75*
G02*
X-5705000Y-11467500I0J-237500D01*
G01*
X-5705000Y-12067500D01*
G75*
G02*
X-5942500Y-12305000I-237500J0D01*
G01*
X-6417500Y-12305000D01*
G75*
G02*
X-6655000Y-12067500I0J237500D01*
G01*
X-6655000Y-11467500D01*
G75*
G02*
X-6417500Y-11230000I237500J0D01*
G01*
G37*
G36*
G01*
X-6417500Y-12955000D02*
X-5942500Y-12955000D01*
G75*
G02*
X-5705000Y-13192500I0J-237500D01*
G01*
X-5705000Y-13792500D01*
G75*
G02*
X-5942500Y-14030000I-237500J0D01*
G01*
X-6417500Y-14030000D01*
G75*
G02*
X-6655000Y-13792500I0J237500D01*
G01*
X-6655000Y-13192500D01*
G75*
G02*
X-6417500Y-12955000I237500J0D01*
G01*
G37*
G04 #@! TD*
G04 #@! TO.C,C14*
G36*
G01*
X6072500Y12305000D02*
X6547500Y12305000D01*
G75*
G02*
X6785000Y12067500I0J-237500D01*
G01*
X6785000Y11467500D01*
G75*
G02*
X6547500Y11230000I-237500J0D01*
G01*
X6072500Y11230000D01*
G75*
G02*
X5835000Y11467500I0J237500D01*
G01*
X5835000Y12067500D01*
G75*
G02*
X6072500Y12305000I237500J0D01*
G01*
G37*
G36*
G01*
X6072500Y14030000D02*
X6547500Y14030000D01*
G75*
G02*
X6785000Y13792500I0J-237500D01*
G01*
X6785000Y13192500D01*
G75*
G02*
X6547500Y12955000I-237500J0D01*
G01*
X6072500Y12955000D01*
G75*
G02*
X5835000Y13192500I0J237500D01*
G01*
X5835000Y13792500D01*
G75*
G02*
X6072500Y14030000I237500J0D01*
G01*
G37*
G04 #@! TD*
G04 #@! TO.C,C17*
G36*
G01*
X20562500Y-11825000D02*
X21037500Y-11825000D01*
G75*
G02*
X21275000Y-12062500I0J-237500D01*
G01*
X21275000Y-12662500D01*
G75*
G02*
X21037500Y-12900000I-237500J0D01*
G01*
X20562500Y-12900000D01*
G75*
G02*
X20325000Y-12662500I0J237500D01*
G01*
X20325000Y-12062500D01*
G75*
G02*
X20562500Y-11825000I237500J0D01*
G01*
G37*
G36*
G01*
X20562500Y-10100000D02*
X21037500Y-10100000D01*
G75*
G02*
X21275000Y-10337500I0J-237500D01*
G01*
X21275000Y-10937500D01*
G75*
G02*
X21037500Y-11175000I-237500J0D01*
G01*
X20562500Y-11175000D01*
G75*
G02*
X20325000Y-10937500I0J237500D01*
G01*
X20325000Y-10337500D01*
G75*
G02*
X20562500Y-10100000I237500J0D01*
G01*
G37*
G04 #@! TD*
G04 #@! TO.C,C1*
G36*
G01*
X-19177500Y5985000D02*
X-18702500Y5985000D01*
G75*
G02*
X-18465000Y5747500I0J-237500D01*
G01*
X-18465000Y5147500D01*
G75*
G02*
X-18702500Y4910000I-237500J0D01*
G01*
X-19177500Y4910000D01*
G75*
G02*
X-19415000Y5147500I0J237500D01*
G01*
X-19415000Y5747500D01*
G75*
G02*
X-19177500Y5985000I237500J0D01*
G01*
G37*
G36*
G01*
X-19177500Y7710000D02*
X-18702500Y7710000D01*
G75*
G02*
X-18465000Y7472500I0J-237500D01*
G01*
X-18465000Y6872500D01*
G75*
G02*
X-18702500Y6635000I-237500J0D01*
G01*
X-19177500Y6635000D01*
G75*
G02*
X-19415000Y6872500I0J237500D01*
G01*
X-19415000Y7472500D01*
G75*
G02*
X-19177500Y7710000I237500J0D01*
G01*
G37*
G04 #@! TD*
G04 #@! TO.C,C3*
G36*
G01*
X-6367500Y7710000D02*
X-5892500Y7710000D01*
G75*
G02*
X-5655000Y7472500I0J-237500D01*
G01*
X-5655000Y6872500D01*
G75*
G02*
X-5892500Y6635000I-237500J0D01*
G01*
X-6367500Y6635000D01*
G75*
G02*
X-6605000Y6872500I0J237500D01*
G01*
X-6605000Y7472500D01*
G75*
G02*
X-6367500Y7710000I237500J0D01*
G01*
G37*
G36*
G01*
X-6367500Y5985000D02*
X-5892500Y5985000D01*
G75*
G02*
X-5655000Y5747500I0J-237500D01*
G01*
X-5655000Y5147500D01*
G75*
G02*
X-5892500Y4910000I-237500J0D01*
G01*
X-6367500Y4910000D01*
G75*
G02*
X-6605000Y5147500I0J237500D01*
G01*
X-6605000Y5747500D01*
G75*
G02*
X-6367500Y5985000I237500J0D01*
G01*
G37*
G04 #@! TD*
G04 #@! TO.C,C2*
G36*
G01*
X-19177500Y-6635000D02*
X-18702500Y-6635000D01*
G75*
G02*
X-18465000Y-6872500I0J-237500D01*
G01*
X-18465000Y-7472500D01*
G75*
G02*
X-18702500Y-7710000I-237500J0D01*
G01*
X-19177500Y-7710000D01*
G75*
G02*
X-19415000Y-7472500I0J237500D01*
G01*
X-19415000Y-6872500D01*
G75*
G02*
X-19177500Y-6635000I237500J0D01*
G01*
G37*
G36*
G01*
X-19177500Y-4910000D02*
X-18702500Y-4910000D01*
G75*
G02*
X-18465000Y-5147500I0J-237500D01*
G01*
X-18465000Y-5747500D01*
G75*
G02*
X-18702500Y-5985000I-237500J0D01*
G01*
X-19177500Y-5985000D01*
G75*
G02*
X-19415000Y-5747500I0J237500D01*
G01*
X-19415000Y-5147500D01*
G75*
G02*
X-19177500Y-4910000I237500J0D01*
G01*
G37*
G04 #@! TD*
G04 #@! TO.C,C4*
G36*
G01*
X-6367500Y-4910000D02*
X-5892500Y-4910000D01*
G75*
G02*
X-5655000Y-5147500I0J-237500D01*
G01*
X-5655000Y-5747500D01*
G75*
G02*
X-5892500Y-5985000I-237500J0D01*
G01*
X-6367500Y-5985000D01*
G75*
G02*
X-6605000Y-5747500I0J237500D01*
G01*
X-6605000Y-5147500D01*
G75*
G02*
X-6367500Y-4910000I237500J0D01*
G01*
G37*
G36*
G01*
X-6367500Y-6635000D02*
X-5892500Y-6635000D01*
G75*
G02*
X-5655000Y-6872500I0J-237500D01*
G01*
X-5655000Y-7472500D01*
G75*
G02*
X-5892500Y-7710000I-237500J0D01*
G01*
X-6367500Y-7710000D01*
G75*
G02*
X-6605000Y-7472500I0J237500D01*
G01*
X-6605000Y-6872500D01*
G75*
G02*
X-6367500Y-6635000I237500J0D01*
G01*
G37*
G04 #@! TD*
G04 #@! TO.C,C10*
G36*
G01*
X6072500Y5985000D02*
X6547500Y5985000D01*
G75*
G02*
X6785000Y5747500I0J-237500D01*
G01*
X6785000Y5147500D01*
G75*
G02*
X6547500Y4910000I-237500J0D01*
G01*
X6072500Y4910000D01*
G75*
G02*
X5835000Y5147500I0J237500D01*
G01*
X5835000Y5747500D01*
G75*
G02*
X6072500Y5985000I237500J0D01*
G01*
G37*
G36*
G01*
X6072500Y7710000D02*
X6547500Y7710000D01*
G75*
G02*
X6785000Y7472500I0J-237500D01*
G01*
X6785000Y6872500D01*
G75*
G02*
X6547500Y6635000I-237500J0D01*
G01*
X6072500Y6635000D01*
G75*
G02*
X5835000Y6872500I0J237500D01*
G01*
X5835000Y7472500D01*
G75*
G02*
X6072500Y7710000I237500J0D01*
G01*
G37*
G04 #@! TD*
G04 #@! TO.C,C12*
G36*
G01*
X18702500Y7710000D02*
X19177500Y7710000D01*
G75*
G02*
X19415000Y7472500I0J-237500D01*
G01*
X19415000Y6872500D01*
G75*
G02*
X19177500Y6635000I-237500J0D01*
G01*
X18702500Y6635000D01*
G75*
G02*
X18465000Y6872500I0J237500D01*
G01*
X18465000Y7472500D01*
G75*
G02*
X18702500Y7710000I237500J0D01*
G01*
G37*
G36*
G01*
X18702500Y5985000D02*
X19177500Y5985000D01*
G75*
G02*
X19415000Y5747500I0J-237500D01*
G01*
X19415000Y5147500D01*
G75*
G02*
X19177500Y4910000I-237500J0D01*
G01*
X18702500Y4910000D01*
G75*
G02*
X18465000Y5147500I0J237500D01*
G01*
X18465000Y5747500D01*
G75*
G02*
X18702500Y5985000I237500J0D01*
G01*
G37*
G04 #@! TD*
G04 #@! TO.C,C11*
G36*
G01*
X6072500Y-6635000D02*
X6547500Y-6635000D01*
G75*
G02*
X6785000Y-6872500I0J-237500D01*
G01*
X6785000Y-7472500D01*
G75*
G02*
X6547500Y-7710000I-237500J0D01*
G01*
X6072500Y-7710000D01*
G75*
G02*
X5835000Y-7472500I0J237500D01*
G01*
X5835000Y-6872500D01*
G75*
G02*
X6072500Y-6635000I237500J0D01*
G01*
G37*
G36*
G01*
X6072500Y-4910000D02*
X6547500Y-4910000D01*
G75*
G02*
X6785000Y-5147500I0J-237500D01*
G01*
X6785000Y-5747500D01*
G75*
G02*
X6547500Y-5985000I-237500J0D01*
G01*
X6072500Y-5985000D01*
G75*
G02*
X5835000Y-5747500I0J237500D01*
G01*
X5835000Y-5147500D01*
G75*
G02*
X6072500Y-4910000I237500J0D01*
G01*
G37*
G04 #@! TD*
G04 #@! TO.C,C13*
G36*
G01*
X18702500Y-4910000D02*
X19177500Y-4910000D01*
G75*
G02*
X19415000Y-5147500I0J-237500D01*
G01*
X19415000Y-5747500D01*
G75*
G02*
X19177500Y-5985000I-237500J0D01*
G01*
X18702500Y-5985000D01*
G75*
G02*
X18465000Y-5747500I0J237500D01*
G01*
X18465000Y-5147500D01*
G75*
G02*
X18702500Y-4910000I237500J0D01*
G01*
G37*
G36*
G01*
X18702500Y-6635000D02*
X19177500Y-6635000D01*
G75*
G02*
X19415000Y-6872500I0J-237500D01*
G01*
X19415000Y-7472500D01*
G75*
G02*
X19177500Y-7710000I-237500J0D01*
G01*
X18702500Y-7710000D01*
G75*
G02*
X18465000Y-7472500I0J237500D01*
G01*
X18465000Y-6872500D01*
G75*
G02*
X18702500Y-6635000I237500J0D01*
G01*
G37*
G04 #@! TD*
M02*
