G04 #@! TF.GenerationSoftware,KiCad,Pcbnew,5.1.10-88a1d61d58~88~ubuntu18.04.1*
G04 #@! TF.CreationDate,2021-07-16T13:52:33-04:00*
G04 #@! TF.ProjectId,SiPM_Board_RevC,5369504d-5f42-46f6-9172-645f52657643,rev?*
G04 #@! TF.SameCoordinates,PX8f0d180PY5f5e100*
G04 #@! TF.FileFunction,Copper,L4,Bot*
G04 #@! TF.FilePolarity,Positive*
%FSLAX46Y46*%
G04 Gerber Fmt 4.6, Leading zero omitted, Abs format (unit mm)*
G04 Created by KiCad (PCBNEW 5.1.10-88a1d61d58~88~ubuntu18.04.1) date 2021-07-16 13:52:33*
%MOMM*%
%LPD*%
G01*
G04 APERTURE LIST*
G04 #@! TA.AperFunction,WasherPad*
%ADD10C,4.191000*%
G04 #@! TD*
G04 #@! TA.AperFunction,SMDPad,CuDef*
%ADD11R,2.413000X0.558800*%
G04 #@! TD*
G04 #@! TA.AperFunction,SMDPad,CuDef*
%ADD12R,0.900000X0.400000*%
G04 #@! TD*
G04 #@! TA.AperFunction,ViaPad*
%ADD13C,0.635000*%
G04 #@! TD*
G04 #@! TA.AperFunction,Conductor*
%ADD14C,0.294640*%
G04 #@! TD*
G04 #@! TA.AperFunction,Conductor*
%ADD15C,0.250000*%
G04 #@! TD*
G04 APERTURE END LIST*
D10*
G04 #@! TO.P,H1,*
G04 #@! TO.N,*
X-18250000Y18250000D03*
G04 #@! TD*
G04 #@! TO.P,H2,*
G04 #@! TO.N,*
X18250000Y18250000D03*
G04 #@! TD*
G04 #@! TO.P,H3,*
G04 #@! TO.N,*
X-18250000Y-15000000D03*
G04 #@! TD*
G04 #@! TO.P,H4,*
G04 #@! TO.N,*
X18500000Y-15500000D03*
G04 #@! TD*
D11*
G04 #@! TO.P,J2,2*
G04 #@! TO.N,Net-(J2-Pad2)*
X10972000Y16497300D03*
G04 #@! TO.P,J2,1*
G04 #@! TO.N,/BIAS3*
X14528000Y16497300D03*
G04 #@! TO.P,J2,3*
G04 #@! TO.N,GND*
X14528000Y15497302D03*
G04 #@! TO.P,J2,4*
G04 #@! TO.N,Net-(J2-Pad4)*
X10972000Y15497302D03*
G04 #@! TO.P,J2,5*
G04 #@! TO.N,GND*
X14528000Y14497304D03*
G04 #@! TO.P,J2,6*
G04 #@! TO.N,Net-(J2-Pad6)*
X10972000Y14497304D03*
G04 #@! TO.P,J2,7*
G04 #@! TO.N,GND*
X14528000Y13497306D03*
G04 #@! TO.P,J2,8*
G04 #@! TO.N,Net-(J2-Pad8)*
X10972000Y13497306D03*
G04 #@! TO.P,J2,9*
G04 #@! TO.N,GND*
X14528000Y12497308D03*
G04 #@! TO.P,J2,10*
G04 #@! TO.N,Net-(J2-Pad10)*
X10972000Y12497308D03*
G04 #@! TO.P,J2,11*
G04 #@! TO.N,GND*
X14528000Y11497310D03*
G04 #@! TO.P,J2,12*
G04 #@! TO.N,Net-(J2-Pad12)*
X10972000Y11497310D03*
G04 #@! TO.P,J2,13*
G04 #@! TO.N,GND*
X14528000Y10497312D03*
G04 #@! TO.P,J2,14*
G04 #@! TO.N,Net-(J2-Pad14)*
X10972000Y10497312D03*
G04 #@! TO.P,J2,15*
G04 #@! TO.N,GND*
X14528000Y9497314D03*
G04 #@! TO.P,J2,16*
G04 #@! TO.N,Net-(J2-Pad16)*
X10972000Y9497314D03*
G04 #@! TO.P,J2,17*
G04 #@! TO.N,GND*
X14528000Y8497316D03*
G04 #@! TO.P,J2,18*
G04 #@! TO.N,Net-(J2-Pad18)*
X10972000Y8497316D03*
G04 #@! TO.P,J2,19*
G04 #@! TO.N,GND*
X14528000Y7497318D03*
G04 #@! TO.P,J2,20*
G04 #@! TO.N,Net-(J2-Pad20)*
X10972000Y7497318D03*
G04 #@! TO.P,J2,21*
G04 #@! TO.N,GND*
X14528000Y6497320D03*
G04 #@! TO.P,J2,22*
G04 #@! TO.N,Net-(J2-Pad22)*
X10972000Y6497320D03*
G04 #@! TO.P,J2,23*
G04 #@! TO.N,GND*
X14528000Y5497322D03*
G04 #@! TO.P,J2,24*
G04 #@! TO.N,Net-(J2-Pad24)*
X10972000Y5497322D03*
G04 #@! TO.P,J2,25*
G04 #@! TO.N,GND*
X14528000Y4497324D03*
G04 #@! TO.P,J2,26*
G04 #@! TO.N,Net-(J2-Pad26)*
X10972000Y4497324D03*
G04 #@! TO.P,J2,27*
G04 #@! TO.N,GND*
X14528000Y3497326D03*
G04 #@! TO.P,J2,28*
G04 #@! TO.N,Net-(J2-Pad28)*
X10972000Y3497326D03*
G04 #@! TO.P,J2,29*
G04 #@! TO.N,GND*
X14528000Y2497328D03*
G04 #@! TO.P,J2,30*
G04 #@! TO.N,Net-(J2-Pad30)*
X10972000Y2497328D03*
G04 #@! TO.P,J2,31*
G04 #@! TO.N,GND*
X14528000Y1497330D03*
G04 #@! TO.P,J2,32*
G04 #@! TO.N,Net-(J2-Pad32)*
X10972000Y1497330D03*
G04 #@! TO.P,J2,33*
G04 #@! TO.N,GND*
X14528000Y497332D03*
G04 #@! TO.P,J2,34*
G04 #@! TO.N,Net-(J2-Pad34)*
X10972000Y497332D03*
G04 #@! TO.P,J2,35*
G04 #@! TO.N,GND*
X14528000Y-502666D03*
G04 #@! TO.P,J2,36*
G04 #@! TO.N,Net-(J2-Pad36)*
X10972000Y-502666D03*
G04 #@! TO.P,J2,37*
G04 #@! TO.N,GND*
X14528000Y-1502664D03*
G04 #@! TO.P,J2,38*
G04 #@! TO.N,Net-(J2-Pad38)*
X10972000Y-1502664D03*
G04 #@! TO.P,J2,39*
G04 #@! TO.N,GND*
X14528000Y-2502662D03*
G04 #@! TO.P,J2,40*
G04 #@! TO.N,Net-(J2-Pad40)*
X10972000Y-2502662D03*
G04 #@! TO.P,J2,41*
G04 #@! TO.N,GND*
X14528000Y-3502660D03*
G04 #@! TO.P,J2,42*
G04 #@! TO.N,Net-(J2-Pad42)*
X10972000Y-3502660D03*
G04 #@! TO.P,J2,43*
G04 #@! TO.N,GND*
X14528000Y-4502658D03*
G04 #@! TO.P,J2,44*
G04 #@! TO.N,Net-(J2-Pad44)*
X10972000Y-4502658D03*
G04 #@! TO.P,J2,45*
G04 #@! TO.N,GND*
X14528000Y-5502656D03*
G04 #@! TO.P,J2,46*
G04 #@! TO.N,Net-(J2-Pad46)*
X10972000Y-5502656D03*
G04 #@! TO.P,J2,47*
G04 #@! TO.N,GND*
X14528000Y-6502654D03*
G04 #@! TO.P,J2,48*
G04 #@! TO.N,Net-(J2-Pad48)*
X10972000Y-6502654D03*
G04 #@! TO.P,J2,49*
G04 #@! TO.N,GND*
X14528000Y-7502652D03*
G04 #@! TO.P,J2,50*
G04 #@! TO.N,Net-(J2-Pad50)*
X10972000Y-7502652D03*
G04 #@! TO.P,J2,51*
G04 #@! TO.N,GND*
X14528000Y-8502650D03*
G04 #@! TO.P,J2,52*
G04 #@! TO.N,Net-(J2-Pad52)*
X10972000Y-8502650D03*
G04 #@! TO.P,J2,53*
G04 #@! TO.N,GND*
X14528000Y-9502648D03*
G04 #@! TO.P,J2,54*
G04 #@! TO.N,Net-(J2-Pad54)*
X10972000Y-9502648D03*
G04 #@! TO.P,J2,55*
G04 #@! TO.N,GND*
X14528000Y-10502646D03*
G04 #@! TO.P,J2,56*
G04 #@! TO.N,Net-(J2-Pad56)*
X10972000Y-10502646D03*
G04 #@! TO.P,J2,57*
G04 #@! TO.N,GND*
X14528000Y-11502644D03*
G04 #@! TO.P,J2,58*
G04 #@! TO.N,Net-(J2-Pad58)*
X10972000Y-11502644D03*
G04 #@! TO.P,J2,59*
G04 #@! TO.N,GND*
X14528000Y-12502642D03*
G04 #@! TO.P,J2,60*
G04 #@! TO.N,Net-(J2-Pad60)*
X10972000Y-12502642D03*
G04 #@! TO.P,J2,61*
G04 #@! TO.N,GND*
X14528000Y-13502640D03*
G04 #@! TO.P,J2,62*
G04 #@! TO.N,Net-(J2-Pad62)*
X10972000Y-13502640D03*
G04 #@! TO.P,J2,63*
G04 #@! TO.N,GND*
X14528000Y-14502638D03*
G04 #@! TO.P,J2,64*
G04 #@! TO.N,Net-(J2-Pad64)*
X10972000Y-14502638D03*
G04 #@! TO.P,J2,65*
G04 #@! TO.N,GND*
X14528000Y-15502636D03*
G04 #@! TO.P,J2,66*
G04 #@! TO.N,Net-(J2-Pad66)*
X10972000Y-15502636D03*
G04 #@! TO.P,J2,67*
G04 #@! TO.N,/BIAS4*
X14528000Y-16502634D03*
G04 #@! TO.P,J2,68*
G04 #@! TO.N,Net-(J2-Pad68)*
X10972000Y-16502634D03*
G04 #@! TD*
G04 #@! TO.P,C16,1*
G04 #@! TO.N,/BIAS3*
G04 #@! TA.AperFunction,SMDPad,CuDef*
G36*
G01*
X18702500Y14030000D02*
X19177500Y14030000D01*
G75*
G02*
X19415000Y13792500I0J-237500D01*
G01*
X19415000Y13192500D01*
G75*
G02*
X19177500Y12955000I-237500J0D01*
G01*
X18702500Y12955000D01*
G75*
G02*
X18465000Y13192500I0J237500D01*
G01*
X18465000Y13792500D01*
G75*
G02*
X18702500Y14030000I237500J0D01*
G01*
G37*
G04 #@! TD.AperFunction*
G04 #@! TO.P,C16,2*
G04 #@! TO.N,GND*
G04 #@! TA.AperFunction,SMDPad,CuDef*
G36*
G01*
X18702500Y12305000D02*
X19177500Y12305000D01*
G75*
G02*
X19415000Y12067500I0J-237500D01*
G01*
X19415000Y11467500D01*
G75*
G02*
X19177500Y11230000I-237500J0D01*
G01*
X18702500Y11230000D01*
G75*
G02*
X18465000Y11467500I0J237500D01*
G01*
X18465000Y12067500D01*
G75*
G02*
X18702500Y12305000I237500J0D01*
G01*
G37*
G04 #@! TD.AperFunction*
G04 #@! TD*
D12*
G04 #@! TO.P,U1,4*
G04 #@! TO.N,/VDD*
X-1100000Y-650000D03*
G04 #@! TO.P,U1,2*
G04 #@! TO.N,GND*
X1100000Y0D03*
G04 #@! TO.P,U1,5*
X-1099820Y655320D03*
G04 #@! TO.P,U1,3*
G04 #@! TO.N,/OUT*
X1100000Y-650000D03*
G04 #@! TO.P,U1,1*
G04 #@! TO.N,GND*
X1100000Y650000D03*
G04 #@! TD*
D11*
G04 #@! TO.P,J1,2*
G04 #@! TO.N,/BIAS1*
X-14528000Y16497300D03*
G04 #@! TO.P,J1,1*
G04 #@! TO.N,Net-(J1-Pad1)*
X-10972000Y16497300D03*
G04 #@! TO.P,J1,3*
G04 #@! TO.N,Net-(J1-Pad3)*
X-10972000Y15497302D03*
G04 #@! TO.P,J1,4*
G04 #@! TO.N,GND*
X-14528000Y15497302D03*
G04 #@! TO.P,J1,5*
G04 #@! TO.N,Net-(J1-Pad5)*
X-10972000Y14497304D03*
G04 #@! TO.P,J1,6*
G04 #@! TO.N,GND*
X-14528000Y14497304D03*
G04 #@! TO.P,J1,7*
G04 #@! TO.N,Net-(J1-Pad7)*
X-10972000Y13497306D03*
G04 #@! TO.P,J1,8*
G04 #@! TO.N,GND*
X-14528000Y13497306D03*
G04 #@! TO.P,J1,9*
G04 #@! TO.N,Net-(J1-Pad9)*
X-10972000Y12497308D03*
G04 #@! TO.P,J1,10*
G04 #@! TO.N,GND*
X-14528000Y12497308D03*
G04 #@! TO.P,J1,11*
G04 #@! TO.N,Net-(J1-Pad11)*
X-10972000Y11497310D03*
G04 #@! TO.P,J1,12*
G04 #@! TO.N,GND*
X-14528000Y11497310D03*
G04 #@! TO.P,J1,13*
G04 #@! TO.N,Net-(J1-Pad13)*
X-10972000Y10497312D03*
G04 #@! TO.P,J1,14*
G04 #@! TO.N,GND*
X-14528000Y10497312D03*
G04 #@! TO.P,J1,15*
G04 #@! TO.N,Net-(J1-Pad15)*
X-10972000Y9497314D03*
G04 #@! TO.P,J1,16*
G04 #@! TO.N,GND*
X-14528000Y9497314D03*
G04 #@! TO.P,J1,17*
G04 #@! TO.N,Net-(J1-Pad17)*
X-10972000Y8497316D03*
G04 #@! TO.P,J1,18*
G04 #@! TO.N,GND*
X-14528000Y8497316D03*
G04 #@! TO.P,J1,19*
G04 #@! TO.N,Net-(J1-Pad19)*
X-10972000Y7497318D03*
G04 #@! TO.P,J1,20*
G04 #@! TO.N,GND*
X-14528000Y7497318D03*
G04 #@! TO.P,J1,21*
G04 #@! TO.N,Net-(J1-Pad21)*
X-10972000Y6497320D03*
G04 #@! TO.P,J1,22*
G04 #@! TO.N,GND*
X-14528000Y6497320D03*
G04 #@! TO.P,J1,23*
G04 #@! TO.N,Net-(J1-Pad23)*
X-10972000Y5497322D03*
G04 #@! TO.P,J1,24*
G04 #@! TO.N,GND*
X-14528000Y5497322D03*
G04 #@! TO.P,J1,25*
G04 #@! TO.N,Net-(J1-Pad25)*
X-10972000Y4497324D03*
G04 #@! TO.P,J1,26*
G04 #@! TO.N,GND*
X-14528000Y4497324D03*
G04 #@! TO.P,J1,27*
G04 #@! TO.N,Net-(J1-Pad27)*
X-10972000Y3497326D03*
G04 #@! TO.P,J1,28*
G04 #@! TO.N,GND*
X-14528000Y3497326D03*
G04 #@! TO.P,J1,29*
G04 #@! TO.N,Net-(J1-Pad29)*
X-10972000Y2497328D03*
G04 #@! TO.P,J1,30*
G04 #@! TO.N,GND*
X-14528000Y2497328D03*
G04 #@! TO.P,J1,31*
G04 #@! TO.N,Net-(J1-Pad31)*
X-10972000Y1497330D03*
G04 #@! TO.P,J1,32*
G04 #@! TO.N,GND*
X-14528000Y1497330D03*
G04 #@! TO.P,J1,33*
G04 #@! TO.N,Net-(J1-Pad33)*
X-10972000Y497332D03*
G04 #@! TO.P,J1,34*
G04 #@! TO.N,GND*
X-14528000Y497332D03*
G04 #@! TO.P,J1,35*
G04 #@! TO.N,Net-(J1-Pad35)*
X-10972000Y-502666D03*
G04 #@! TO.P,J1,36*
G04 #@! TO.N,GND*
X-14528000Y-502666D03*
G04 #@! TO.P,J1,37*
G04 #@! TO.N,Net-(J1-Pad37)*
X-10972000Y-1502664D03*
G04 #@! TO.P,J1,38*
G04 #@! TO.N,GND*
X-14528000Y-1502664D03*
G04 #@! TO.P,J1,39*
G04 #@! TO.N,Net-(J1-Pad39)*
X-10972000Y-2502662D03*
G04 #@! TO.P,J1,40*
G04 #@! TO.N,GND*
X-14528000Y-2502662D03*
G04 #@! TO.P,J1,41*
G04 #@! TO.N,Net-(J1-Pad41)*
X-10972000Y-3502660D03*
G04 #@! TO.P,J1,42*
G04 #@! TO.N,GND*
X-14528000Y-3502660D03*
G04 #@! TO.P,J1,43*
G04 #@! TO.N,Net-(J1-Pad43)*
X-10972000Y-4502658D03*
G04 #@! TO.P,J1,44*
G04 #@! TO.N,GND*
X-14528000Y-4502658D03*
G04 #@! TO.P,J1,45*
G04 #@! TO.N,Net-(J1-Pad45)*
X-10972000Y-5502656D03*
G04 #@! TO.P,J1,46*
G04 #@! TO.N,GND*
X-14528000Y-5502656D03*
G04 #@! TO.P,J1,47*
G04 #@! TO.N,Net-(J1-Pad47)*
X-10972000Y-6502654D03*
G04 #@! TO.P,J1,48*
G04 #@! TO.N,GND*
X-14528000Y-6502654D03*
G04 #@! TO.P,J1,49*
G04 #@! TO.N,Net-(J1-Pad49)*
X-10972000Y-7502652D03*
G04 #@! TO.P,J1,50*
G04 #@! TO.N,GND*
X-14528000Y-7502652D03*
G04 #@! TO.P,J1,51*
G04 #@! TO.N,Net-(J1-Pad51)*
X-10972000Y-8502650D03*
G04 #@! TO.P,J1,52*
G04 #@! TO.N,GND*
X-14528000Y-8502650D03*
G04 #@! TO.P,J1,53*
G04 #@! TO.N,Net-(J1-Pad53)*
X-10972000Y-9502648D03*
G04 #@! TO.P,J1,54*
G04 #@! TO.N,GND*
X-14528000Y-9502648D03*
G04 #@! TO.P,J1,55*
G04 #@! TO.N,Net-(J1-Pad55)*
X-10972000Y-10502646D03*
G04 #@! TO.P,J1,56*
G04 #@! TO.N,GND*
X-14528000Y-10502646D03*
G04 #@! TO.P,J1,57*
G04 #@! TO.N,Net-(J1-Pad57)*
X-10972000Y-11502644D03*
G04 #@! TO.P,J1,58*
G04 #@! TO.N,GND*
X-14528000Y-11502644D03*
G04 #@! TO.P,J1,59*
G04 #@! TO.N,Net-(J1-Pad59)*
X-10972000Y-12502642D03*
G04 #@! TO.P,J1,60*
G04 #@! TO.N,GND*
X-14528000Y-12502642D03*
G04 #@! TO.P,J1,61*
G04 #@! TO.N,Net-(J1-Pad61)*
X-10972000Y-13502640D03*
G04 #@! TO.P,J1,62*
G04 #@! TO.N,GND*
X-14528000Y-13502640D03*
G04 #@! TO.P,J1,63*
G04 #@! TO.N,Net-(J1-Pad63)*
X-10972000Y-14502638D03*
G04 #@! TO.P,J1,64*
G04 #@! TO.N,GND*
X-14528000Y-14502638D03*
G04 #@! TO.P,J1,65*
G04 #@! TO.N,/VDD*
X-10972000Y-15502636D03*
G04 #@! TO.P,J1,66*
G04 #@! TO.N,GND*
X-14528000Y-15502636D03*
G04 #@! TO.P,J1,67*
G04 #@! TO.N,/OUT*
X-10972000Y-16502634D03*
G04 #@! TO.P,J1,68*
G04 #@! TO.N,/BIAS2*
X-14528000Y-16502634D03*
G04 #@! TD*
G04 #@! TO.P,C15,1*
G04 #@! TO.N,/BIAS4*
G04 #@! TA.AperFunction,SMDPad,CuDef*
G36*
G01*
X6072500Y-11230000D02*
X6547500Y-11230000D01*
G75*
G02*
X6785000Y-11467500I0J-237500D01*
G01*
X6785000Y-12067500D01*
G75*
G02*
X6547500Y-12305000I-237500J0D01*
G01*
X6072500Y-12305000D01*
G75*
G02*
X5835000Y-12067500I0J237500D01*
G01*
X5835000Y-11467500D01*
G75*
G02*
X6072500Y-11230000I237500J0D01*
G01*
G37*
G04 #@! TD.AperFunction*
G04 #@! TO.P,C15,2*
G04 #@! TO.N,GND*
G04 #@! TA.AperFunction,SMDPad,CuDef*
G36*
G01*
X6072500Y-12955000D02*
X6547500Y-12955000D01*
G75*
G02*
X6785000Y-13192500I0J-237500D01*
G01*
X6785000Y-13792500D01*
G75*
G02*
X6547500Y-14030000I-237500J0D01*
G01*
X6072500Y-14030000D01*
G75*
G02*
X5835000Y-13792500I0J237500D01*
G01*
X5835000Y-13192500D01*
G75*
G02*
X6072500Y-12955000I237500J0D01*
G01*
G37*
G04 #@! TD.AperFunction*
G04 #@! TD*
G04 #@! TO.P,C9,2*
G04 #@! TO.N,GND*
G04 #@! TA.AperFunction,SMDPad,CuDef*
G36*
G01*
X-237500Y-3505000D02*
X237500Y-3505000D01*
G75*
G02*
X475000Y-3742500I0J-237500D01*
G01*
X475000Y-4342500D01*
G75*
G02*
X237500Y-4580000I-237500J0D01*
G01*
X-237500Y-4580000D01*
G75*
G02*
X-475000Y-4342500I0J237500D01*
G01*
X-475000Y-3742500D01*
G75*
G02*
X-237500Y-3505000I237500J0D01*
G01*
G37*
G04 #@! TD.AperFunction*
G04 #@! TO.P,C9,1*
G04 #@! TO.N,/VDD*
G04 #@! TA.AperFunction,SMDPad,CuDef*
G36*
G01*
X-237500Y-1780000D02*
X237500Y-1780000D01*
G75*
G02*
X475000Y-2017500I0J-237500D01*
G01*
X475000Y-2617500D01*
G75*
G02*
X237500Y-2855000I-237500J0D01*
G01*
X-237500Y-2855000D01*
G75*
G02*
X-475000Y-2617500I0J237500D01*
G01*
X-475000Y-2017500D01*
G75*
G02*
X-237500Y-1780000I237500J0D01*
G01*
G37*
G04 #@! TD.AperFunction*
G04 #@! TD*
G04 #@! TO.P,C5,2*
G04 #@! TO.N,GND*
G04 #@! TA.AperFunction,SMDPad,CuDef*
G36*
G01*
X-19177500Y12305000D02*
X-18702500Y12305000D01*
G75*
G02*
X-18465000Y12067500I0J-237500D01*
G01*
X-18465000Y11467500D01*
G75*
G02*
X-18702500Y11230000I-237500J0D01*
G01*
X-19177500Y11230000D01*
G75*
G02*
X-19415000Y11467500I0J237500D01*
G01*
X-19415000Y12067500D01*
G75*
G02*
X-19177500Y12305000I237500J0D01*
G01*
G37*
G04 #@! TD.AperFunction*
G04 #@! TO.P,C5,1*
G04 #@! TO.N,/BIAS1*
G04 #@! TA.AperFunction,SMDPad,CuDef*
G36*
G01*
X-19177500Y14030000D02*
X-18702500Y14030000D01*
G75*
G02*
X-18465000Y13792500I0J-237500D01*
G01*
X-18465000Y13192500D01*
G75*
G02*
X-18702500Y12955000I-237500J0D01*
G01*
X-19177500Y12955000D01*
G75*
G02*
X-19415000Y13192500I0J237500D01*
G01*
X-19415000Y13792500D01*
G75*
G02*
X-19177500Y14030000I237500J0D01*
G01*
G37*
G04 #@! TD.AperFunction*
G04 #@! TD*
G04 #@! TO.P,C7,1*
G04 #@! TO.N,/BIAS1*
G04 #@! TA.AperFunction,SMDPad,CuDef*
G36*
G01*
X-6367500Y14030000D02*
X-5892500Y14030000D01*
G75*
G02*
X-5655000Y13792500I0J-237500D01*
G01*
X-5655000Y13192500D01*
G75*
G02*
X-5892500Y12955000I-237500J0D01*
G01*
X-6367500Y12955000D01*
G75*
G02*
X-6605000Y13192500I0J237500D01*
G01*
X-6605000Y13792500D01*
G75*
G02*
X-6367500Y14030000I237500J0D01*
G01*
G37*
G04 #@! TD.AperFunction*
G04 #@! TO.P,C7,2*
G04 #@! TO.N,GND*
G04 #@! TA.AperFunction,SMDPad,CuDef*
G36*
G01*
X-6367500Y12305000D02*
X-5892500Y12305000D01*
G75*
G02*
X-5655000Y12067500I0J-237500D01*
G01*
X-5655000Y11467500D01*
G75*
G02*
X-5892500Y11230000I-237500J0D01*
G01*
X-6367500Y11230000D01*
G75*
G02*
X-6605000Y11467500I0J237500D01*
G01*
X-6605000Y12067500D01*
G75*
G02*
X-6367500Y12305000I237500J0D01*
G01*
G37*
G04 #@! TD.AperFunction*
G04 #@! TD*
G04 #@! TO.P,C6,2*
G04 #@! TO.N,GND*
G04 #@! TA.AperFunction,SMDPad,CuDef*
G36*
G01*
X-20797500Y-11295000D02*
X-20322500Y-11295000D01*
G75*
G02*
X-20085000Y-11532500I0J-237500D01*
G01*
X-20085000Y-12132500D01*
G75*
G02*
X-20322500Y-12370000I-237500J0D01*
G01*
X-20797500Y-12370000D01*
G75*
G02*
X-21035000Y-12132500I0J237500D01*
G01*
X-21035000Y-11532500D01*
G75*
G02*
X-20797500Y-11295000I237500J0D01*
G01*
G37*
G04 #@! TD.AperFunction*
G04 #@! TO.P,C6,1*
G04 #@! TO.N,/BIAS2*
G04 #@! TA.AperFunction,SMDPad,CuDef*
G36*
G01*
X-20797500Y-9570000D02*
X-20322500Y-9570000D01*
G75*
G02*
X-20085000Y-9807500I0J-237500D01*
G01*
X-20085000Y-10407500D01*
G75*
G02*
X-20322500Y-10645000I-237500J0D01*
G01*
X-20797500Y-10645000D01*
G75*
G02*
X-21035000Y-10407500I0J237500D01*
G01*
X-21035000Y-9807500D01*
G75*
G02*
X-20797500Y-9570000I237500J0D01*
G01*
G37*
G04 #@! TD.AperFunction*
G04 #@! TD*
G04 #@! TO.P,C8,1*
G04 #@! TO.N,/BIAS2*
G04 #@! TA.AperFunction,SMDPad,CuDef*
G36*
G01*
X-6417500Y-11230000D02*
X-5942500Y-11230000D01*
G75*
G02*
X-5705000Y-11467500I0J-237500D01*
G01*
X-5705000Y-12067500D01*
G75*
G02*
X-5942500Y-12305000I-237500J0D01*
G01*
X-6417500Y-12305000D01*
G75*
G02*
X-6655000Y-12067500I0J237500D01*
G01*
X-6655000Y-11467500D01*
G75*
G02*
X-6417500Y-11230000I237500J0D01*
G01*
G37*
G04 #@! TD.AperFunction*
G04 #@! TO.P,C8,2*
G04 #@! TO.N,GND*
G04 #@! TA.AperFunction,SMDPad,CuDef*
G36*
G01*
X-6417500Y-12955000D02*
X-5942500Y-12955000D01*
G75*
G02*
X-5705000Y-13192500I0J-237500D01*
G01*
X-5705000Y-13792500D01*
G75*
G02*
X-5942500Y-14030000I-237500J0D01*
G01*
X-6417500Y-14030000D01*
G75*
G02*
X-6655000Y-13792500I0J237500D01*
G01*
X-6655000Y-13192500D01*
G75*
G02*
X-6417500Y-12955000I237500J0D01*
G01*
G37*
G04 #@! TD.AperFunction*
G04 #@! TD*
G04 #@! TO.P,C14,2*
G04 #@! TO.N,GND*
G04 #@! TA.AperFunction,SMDPad,CuDef*
G36*
G01*
X6072500Y12305000D02*
X6547500Y12305000D01*
G75*
G02*
X6785000Y12067500I0J-237500D01*
G01*
X6785000Y11467500D01*
G75*
G02*
X6547500Y11230000I-237500J0D01*
G01*
X6072500Y11230000D01*
G75*
G02*
X5835000Y11467500I0J237500D01*
G01*
X5835000Y12067500D01*
G75*
G02*
X6072500Y12305000I237500J0D01*
G01*
G37*
G04 #@! TD.AperFunction*
G04 #@! TO.P,C14,1*
G04 #@! TO.N,/BIAS3*
G04 #@! TA.AperFunction,SMDPad,CuDef*
G36*
G01*
X6072500Y14030000D02*
X6547500Y14030000D01*
G75*
G02*
X6785000Y13792500I0J-237500D01*
G01*
X6785000Y13192500D01*
G75*
G02*
X6547500Y12955000I-237500J0D01*
G01*
X6072500Y12955000D01*
G75*
G02*
X5835000Y13192500I0J237500D01*
G01*
X5835000Y13792500D01*
G75*
G02*
X6072500Y14030000I237500J0D01*
G01*
G37*
G04 #@! TD.AperFunction*
G04 #@! TD*
G04 #@! TO.P,C17,2*
G04 #@! TO.N,GND*
G04 #@! TA.AperFunction,SMDPad,CuDef*
G36*
G01*
X20562500Y-11825000D02*
X21037500Y-11825000D01*
G75*
G02*
X21275000Y-12062500I0J-237500D01*
G01*
X21275000Y-12662500D01*
G75*
G02*
X21037500Y-12900000I-237500J0D01*
G01*
X20562500Y-12900000D01*
G75*
G02*
X20325000Y-12662500I0J237500D01*
G01*
X20325000Y-12062500D01*
G75*
G02*
X20562500Y-11825000I237500J0D01*
G01*
G37*
G04 #@! TD.AperFunction*
G04 #@! TO.P,C17,1*
G04 #@! TO.N,/BIAS4*
G04 #@! TA.AperFunction,SMDPad,CuDef*
G36*
G01*
X20562500Y-10100000D02*
X21037500Y-10100000D01*
G75*
G02*
X21275000Y-10337500I0J-237500D01*
G01*
X21275000Y-10937500D01*
G75*
G02*
X21037500Y-11175000I-237500J0D01*
G01*
X20562500Y-11175000D01*
G75*
G02*
X20325000Y-10937500I0J237500D01*
G01*
X20325000Y-10337500D01*
G75*
G02*
X20562500Y-10100000I237500J0D01*
G01*
G37*
G04 #@! TD.AperFunction*
G04 #@! TD*
G04 #@! TO.P,C1,2*
G04 #@! TO.N,GND*
G04 #@! TA.AperFunction,SMDPad,CuDef*
G36*
G01*
X-19177500Y5985000D02*
X-18702500Y5985000D01*
G75*
G02*
X-18465000Y5747500I0J-237500D01*
G01*
X-18465000Y5147500D01*
G75*
G02*
X-18702500Y4910000I-237500J0D01*
G01*
X-19177500Y4910000D01*
G75*
G02*
X-19415000Y5147500I0J237500D01*
G01*
X-19415000Y5747500D01*
G75*
G02*
X-19177500Y5985000I237500J0D01*
G01*
G37*
G04 #@! TD.AperFunction*
G04 #@! TO.P,C1,1*
G04 #@! TO.N,/BIAS1*
G04 #@! TA.AperFunction,SMDPad,CuDef*
G36*
G01*
X-19177500Y7710000D02*
X-18702500Y7710000D01*
G75*
G02*
X-18465000Y7472500I0J-237500D01*
G01*
X-18465000Y6872500D01*
G75*
G02*
X-18702500Y6635000I-237500J0D01*
G01*
X-19177500Y6635000D01*
G75*
G02*
X-19415000Y6872500I0J237500D01*
G01*
X-19415000Y7472500D01*
G75*
G02*
X-19177500Y7710000I237500J0D01*
G01*
G37*
G04 #@! TD.AperFunction*
G04 #@! TD*
G04 #@! TO.P,C3,1*
G04 #@! TO.N,/BIAS1*
G04 #@! TA.AperFunction,SMDPad,CuDef*
G36*
G01*
X-6367500Y7710000D02*
X-5892500Y7710000D01*
G75*
G02*
X-5655000Y7472500I0J-237500D01*
G01*
X-5655000Y6872500D01*
G75*
G02*
X-5892500Y6635000I-237500J0D01*
G01*
X-6367500Y6635000D01*
G75*
G02*
X-6605000Y6872500I0J237500D01*
G01*
X-6605000Y7472500D01*
G75*
G02*
X-6367500Y7710000I237500J0D01*
G01*
G37*
G04 #@! TD.AperFunction*
G04 #@! TO.P,C3,2*
G04 #@! TO.N,GND*
G04 #@! TA.AperFunction,SMDPad,CuDef*
G36*
G01*
X-6367500Y5985000D02*
X-5892500Y5985000D01*
G75*
G02*
X-5655000Y5747500I0J-237500D01*
G01*
X-5655000Y5147500D01*
G75*
G02*
X-5892500Y4910000I-237500J0D01*
G01*
X-6367500Y4910000D01*
G75*
G02*
X-6605000Y5147500I0J237500D01*
G01*
X-6605000Y5747500D01*
G75*
G02*
X-6367500Y5985000I237500J0D01*
G01*
G37*
G04 #@! TD.AperFunction*
G04 #@! TD*
G04 #@! TO.P,C2,2*
G04 #@! TO.N,GND*
G04 #@! TA.AperFunction,SMDPad,CuDef*
G36*
G01*
X-19177500Y-6635000D02*
X-18702500Y-6635000D01*
G75*
G02*
X-18465000Y-6872500I0J-237500D01*
G01*
X-18465000Y-7472500D01*
G75*
G02*
X-18702500Y-7710000I-237500J0D01*
G01*
X-19177500Y-7710000D01*
G75*
G02*
X-19415000Y-7472500I0J237500D01*
G01*
X-19415000Y-6872500D01*
G75*
G02*
X-19177500Y-6635000I237500J0D01*
G01*
G37*
G04 #@! TD.AperFunction*
G04 #@! TO.P,C2,1*
G04 #@! TO.N,/BIAS2*
G04 #@! TA.AperFunction,SMDPad,CuDef*
G36*
G01*
X-19177500Y-4910000D02*
X-18702500Y-4910000D01*
G75*
G02*
X-18465000Y-5147500I0J-237500D01*
G01*
X-18465000Y-5747500D01*
G75*
G02*
X-18702500Y-5985000I-237500J0D01*
G01*
X-19177500Y-5985000D01*
G75*
G02*
X-19415000Y-5747500I0J237500D01*
G01*
X-19415000Y-5147500D01*
G75*
G02*
X-19177500Y-4910000I237500J0D01*
G01*
G37*
G04 #@! TD.AperFunction*
G04 #@! TD*
G04 #@! TO.P,C4,1*
G04 #@! TO.N,/BIAS2*
G04 #@! TA.AperFunction,SMDPad,CuDef*
G36*
G01*
X-6367500Y-4910000D02*
X-5892500Y-4910000D01*
G75*
G02*
X-5655000Y-5147500I0J-237500D01*
G01*
X-5655000Y-5747500D01*
G75*
G02*
X-5892500Y-5985000I-237500J0D01*
G01*
X-6367500Y-5985000D01*
G75*
G02*
X-6605000Y-5747500I0J237500D01*
G01*
X-6605000Y-5147500D01*
G75*
G02*
X-6367500Y-4910000I237500J0D01*
G01*
G37*
G04 #@! TD.AperFunction*
G04 #@! TO.P,C4,2*
G04 #@! TO.N,GND*
G04 #@! TA.AperFunction,SMDPad,CuDef*
G36*
G01*
X-6367500Y-6635000D02*
X-5892500Y-6635000D01*
G75*
G02*
X-5655000Y-6872500I0J-237500D01*
G01*
X-5655000Y-7472500D01*
G75*
G02*
X-5892500Y-7710000I-237500J0D01*
G01*
X-6367500Y-7710000D01*
G75*
G02*
X-6605000Y-7472500I0J237500D01*
G01*
X-6605000Y-6872500D01*
G75*
G02*
X-6367500Y-6635000I237500J0D01*
G01*
G37*
G04 #@! TD.AperFunction*
G04 #@! TD*
G04 #@! TO.P,C10,2*
G04 #@! TO.N,GND*
G04 #@! TA.AperFunction,SMDPad,CuDef*
G36*
G01*
X6072500Y5985000D02*
X6547500Y5985000D01*
G75*
G02*
X6785000Y5747500I0J-237500D01*
G01*
X6785000Y5147500D01*
G75*
G02*
X6547500Y4910000I-237500J0D01*
G01*
X6072500Y4910000D01*
G75*
G02*
X5835000Y5147500I0J237500D01*
G01*
X5835000Y5747500D01*
G75*
G02*
X6072500Y5985000I237500J0D01*
G01*
G37*
G04 #@! TD.AperFunction*
G04 #@! TO.P,C10,1*
G04 #@! TO.N,/BIAS3*
G04 #@! TA.AperFunction,SMDPad,CuDef*
G36*
G01*
X6072500Y7710000D02*
X6547500Y7710000D01*
G75*
G02*
X6785000Y7472500I0J-237500D01*
G01*
X6785000Y6872500D01*
G75*
G02*
X6547500Y6635000I-237500J0D01*
G01*
X6072500Y6635000D01*
G75*
G02*
X5835000Y6872500I0J237500D01*
G01*
X5835000Y7472500D01*
G75*
G02*
X6072500Y7710000I237500J0D01*
G01*
G37*
G04 #@! TD.AperFunction*
G04 #@! TD*
G04 #@! TO.P,C12,1*
G04 #@! TO.N,/BIAS3*
G04 #@! TA.AperFunction,SMDPad,CuDef*
G36*
G01*
X18702500Y7710000D02*
X19177500Y7710000D01*
G75*
G02*
X19415000Y7472500I0J-237500D01*
G01*
X19415000Y6872500D01*
G75*
G02*
X19177500Y6635000I-237500J0D01*
G01*
X18702500Y6635000D01*
G75*
G02*
X18465000Y6872500I0J237500D01*
G01*
X18465000Y7472500D01*
G75*
G02*
X18702500Y7710000I237500J0D01*
G01*
G37*
G04 #@! TD.AperFunction*
G04 #@! TO.P,C12,2*
G04 #@! TO.N,GND*
G04 #@! TA.AperFunction,SMDPad,CuDef*
G36*
G01*
X18702500Y5985000D02*
X19177500Y5985000D01*
G75*
G02*
X19415000Y5747500I0J-237500D01*
G01*
X19415000Y5147500D01*
G75*
G02*
X19177500Y4910000I-237500J0D01*
G01*
X18702500Y4910000D01*
G75*
G02*
X18465000Y5147500I0J237500D01*
G01*
X18465000Y5747500D01*
G75*
G02*
X18702500Y5985000I237500J0D01*
G01*
G37*
G04 #@! TD.AperFunction*
G04 #@! TD*
G04 #@! TO.P,C11,2*
G04 #@! TO.N,GND*
G04 #@! TA.AperFunction,SMDPad,CuDef*
G36*
G01*
X6072500Y-6635000D02*
X6547500Y-6635000D01*
G75*
G02*
X6785000Y-6872500I0J-237500D01*
G01*
X6785000Y-7472500D01*
G75*
G02*
X6547500Y-7710000I-237500J0D01*
G01*
X6072500Y-7710000D01*
G75*
G02*
X5835000Y-7472500I0J237500D01*
G01*
X5835000Y-6872500D01*
G75*
G02*
X6072500Y-6635000I237500J0D01*
G01*
G37*
G04 #@! TD.AperFunction*
G04 #@! TO.P,C11,1*
G04 #@! TO.N,/BIAS4*
G04 #@! TA.AperFunction,SMDPad,CuDef*
G36*
G01*
X6072500Y-4910000D02*
X6547500Y-4910000D01*
G75*
G02*
X6785000Y-5147500I0J-237500D01*
G01*
X6785000Y-5747500D01*
G75*
G02*
X6547500Y-5985000I-237500J0D01*
G01*
X6072500Y-5985000D01*
G75*
G02*
X5835000Y-5747500I0J237500D01*
G01*
X5835000Y-5147500D01*
G75*
G02*
X6072500Y-4910000I237500J0D01*
G01*
G37*
G04 #@! TD.AperFunction*
G04 #@! TD*
G04 #@! TO.P,C13,1*
G04 #@! TO.N,/BIAS4*
G04 #@! TA.AperFunction,SMDPad,CuDef*
G36*
G01*
X18702500Y-4910000D02*
X19177500Y-4910000D01*
G75*
G02*
X19415000Y-5147500I0J-237500D01*
G01*
X19415000Y-5747500D01*
G75*
G02*
X19177500Y-5985000I-237500J0D01*
G01*
X18702500Y-5985000D01*
G75*
G02*
X18465000Y-5747500I0J237500D01*
G01*
X18465000Y-5147500D01*
G75*
G02*
X18702500Y-4910000I237500J0D01*
G01*
G37*
G04 #@! TD.AperFunction*
G04 #@! TO.P,C13,2*
G04 #@! TO.N,GND*
G04 #@! TA.AperFunction,SMDPad,CuDef*
G36*
G01*
X18702500Y-6635000D02*
X19177500Y-6635000D01*
G75*
G02*
X19415000Y-6872500I0J-237500D01*
G01*
X19415000Y-7472500D01*
G75*
G02*
X19177500Y-7710000I-237500J0D01*
G01*
X18702500Y-7710000D01*
G75*
G02*
X18465000Y-7472500I0J237500D01*
G01*
X18465000Y-6872500D01*
G75*
G02*
X18702500Y-6635000I237500J0D01*
G01*
G37*
G04 #@! TD.AperFunction*
G04 #@! TD*
D13*
G04 #@! TO.N,GND*
X-16292692Y-3522692D03*
X-16292692Y-1522692D03*
X-16292692Y-7522692D03*
X-16292692Y-5522692D03*
X-16292692Y-9522692D03*
X-16172692Y4567308D03*
X-16292692Y14477308D03*
X-16292692Y6477308D03*
X-16292692Y8477308D03*
X-16292692Y10477308D03*
X-16292692Y477308D03*
X-16292692Y2477308D03*
X2860000Y0D03*
X0Y-5400000D03*
X-2064680Y655320D03*
X-18940000Y10540000D03*
X-17847500Y5447500D03*
X-6130000Y10570000D03*
X-6130000Y4230000D03*
X-18940000Y-8240000D03*
X-4600000Y-6700000D03*
X-6180000Y-14680000D03*
X6347500Y4347500D03*
X6310000Y10610000D03*
X18940000Y4260000D03*
X6310000Y-8290000D03*
X16292692Y15522692D03*
X16292692Y13522692D03*
X16292692Y11522692D03*
X16292692Y9522692D03*
X16292692Y7522692D03*
X16292692Y5522692D03*
X16292692Y3522692D03*
X16292692Y1522692D03*
X18940000Y10440000D03*
X16292692Y-477308D03*
X16292692Y-2477308D03*
X16292692Y-4477308D03*
X16292692Y-6477308D03*
X16292692Y-8477308D03*
X16292692Y-10477308D03*
X16292692Y-12477308D03*
X18940000Y-8260000D03*
X-16300000Y13000000D03*
X7180000Y-14920000D03*
X-21780000Y-12110000D03*
X-16120000Y-13020002D03*
X-16120000Y-11050000D03*
X19672500Y-12362500D03*
G04 #@! TO.N,/BIAS1*
X-16237300Y16497300D03*
X-21550000Y23550000D03*
X-21550000Y17350000D03*
X-21550000Y11150000D03*
X-21550000Y4950000D03*
X-15350000Y23550000D03*
X-15150000Y18250000D03*
X-8050000Y21550000D03*
X-8050000Y15350000D03*
X-8050000Y9150000D03*
X-6950000Y1850000D03*
X-2950000Y20450000D03*
X-2950000Y14250000D03*
X-2950000Y8050000D03*
X-2950000Y1850000D03*
X-18940000Y14660000D03*
X-18940000Y8240000D03*
X-5700000Y14800000D03*
X-6130000Y8700000D03*
X-12740000Y10320000D03*
X-12760000Y5500000D03*
G04 #@! TO.N,/BIAS2*
X-21550000Y-1950000D03*
X-21550000Y-8150000D03*
X-21550000Y-20550000D03*
X-21550000Y-14350000D03*
X-8050000Y-6150000D03*
X-8050000Y-12350000D03*
X-9150000Y-17450000D03*
X-9150000Y-23650000D03*
X-2950000Y-23650000D03*
X-2950000Y-17450000D03*
X-2950000Y-11250000D03*
X-2950000Y-5050000D03*
X-18940000Y-4360000D03*
X-6130000Y-4230000D03*
X-6180000Y-10320000D03*
X-12760000Y-2490000D03*
X-21787500Y-10107500D03*
X-14164894Y-19435106D03*
X-14530000Y-17430000D03*
X-12796705Y-6933770D03*
G04 #@! TO.N,Net-(J1-Pad63)*
X-9000000Y-14500000D03*
G04 #@! TO.N,Net-(J1-Pad61)*
X-9000000Y-13500000D03*
G04 #@! TO.N,Net-(J1-Pad59)*
X-12464894Y-17735106D03*
G04 #@! TO.N,Net-(J1-Pad57)*
X-12500000Y-11500000D03*
G04 #@! TO.N,Net-(J1-Pad55)*
X-9200000Y-10500000D03*
G04 #@! TO.N,Net-(J1-Pad53)*
X-9200000Y-9500000D03*
G04 #@! TO.N,Net-(J1-Pad51)*
X-12750000Y-9200000D03*
G04 #@! TO.N,Net-(J1-Pad49)*
X-12780000Y-7920000D03*
G04 #@! TO.N,Net-(J1-Pad47)*
X-9200000Y-6500000D03*
G04 #@! TO.N,Net-(J1-Pad45)*
X-12750000Y-6100000D03*
G04 #@! TO.N,Net-(J1-Pad43)*
X-12600000Y-4500000D03*
G04 #@! TO.N,Net-(J1-Pad41)*
X-12600000Y-3500000D03*
G04 #@! TO.N,Net-(J1-Pad39)*
X-9200000Y-2500000D03*
G04 #@! TO.N,Net-(J1-Pad37)*
X-12600000Y-1500000D03*
G04 #@! TO.N,Net-(J1-Pad35)*
X-12600000Y-500000D03*
G04 #@! TO.N,Net-(J1-Pad33)*
X-12600000Y500000D03*
G04 #@! TO.N,Net-(J1-Pad31)*
X-9200000Y1500000D03*
G04 #@! TO.N,Net-(J1-Pad29)*
X-12600000Y2100000D03*
G04 #@! TO.N,Net-(J1-Pad27)*
X-12600000Y3100000D03*
G04 #@! TO.N,Net-(J1-Pad25)*
X-12502676Y4497324D03*
G04 #@! TO.N,Net-(J1-Pad23)*
X-9200000Y5500000D03*
G04 #@! TO.N,Net-(J1-Pad21)*
X-12600000Y6500000D03*
G04 #@! TO.N,Net-(J1-Pad19)*
X-12600000Y7500000D03*
G04 #@! TO.N,Net-(J1-Pad17)*
X-12600000Y8500000D03*
G04 #@! TO.N,Net-(J1-Pad15)*
X-9200000Y9500000D03*
G04 #@! TO.N,Net-(J1-Pad13)*
X-9200000Y10500000D03*
G04 #@! TO.N,Net-(J1-Pad11)*
X-12597310Y11497310D03*
G04 #@! TO.N,Net-(J1-Pad9)*
X-12600000Y12500000D03*
G04 #@! TO.N,Net-(J1-Pad7)*
X-9200000Y13500000D03*
G04 #@! TO.N,Net-(J1-Pad5)*
X-9200000Y14500000D03*
G04 #@! TO.N,Net-(J1-Pad3)*
X-12600000Y15500000D03*
G04 #@! TO.N,Net-(J1-Pad1)*
X-12650000Y16770000D03*
G04 #@! TO.N,/BIAS3*
X3950000Y23550000D03*
X3950000Y17350000D03*
X3950000Y11150000D03*
X10150000Y23550000D03*
X10400000Y18200000D03*
X17450000Y21550000D03*
X18550000Y1850000D03*
X22550000Y20450000D03*
X22550000Y14250000D03*
X22550000Y8050000D03*
X22550000Y1850000D03*
X6310000Y8290000D03*
X6310000Y14590000D03*
X18940000Y8340000D03*
X3950000Y4950000D03*
X17450000Y9150000D03*
X17450000Y13150000D03*
X9000000Y10300000D03*
X9000000Y5500000D03*
X18940000Y14540000D03*
X14528000Y18702000D03*
G04 #@! TO.N,/BIAS4*
X3950000Y-1950000D03*
X3950000Y-8150000D03*
X3950000Y-20550000D03*
X11250000Y-19450000D03*
X17450000Y-6150000D03*
X17450000Y-12350000D03*
X16350000Y-17450000D03*
X16350000Y-23650000D03*
X22550000Y-23650000D03*
X22550000Y-17450000D03*
X22550000Y-11250000D03*
X22550000Y-5050000D03*
X18940000Y-4060000D03*
X4300000Y-15100000D03*
X6900000Y-10500000D03*
X6700000Y-4300000D03*
X12750000Y-490000D03*
X12690000Y-9000000D03*
X12760000Y-12700000D03*
X19667500Y-10637500D03*
X14420000Y-17150000D03*
G04 #@! TO.N,Net-(J2-Pad2)*
X7667300Y16497300D03*
G04 #@! TO.N,Net-(J2-Pad4)*
X9000000Y15500000D03*
G04 #@! TO.N,Net-(J2-Pad6)*
X12760000Y16720000D03*
G04 #@! TO.N,Net-(J2-Pad8)*
X12760000Y13710000D03*
X17320000Y15460000D03*
X22200000Y16310000D03*
G04 #@! TO.N,Net-(J2-Pad10)*
X7920000Y12500000D03*
G04 #@! TO.N,Net-(J2-Pad12)*
X9000000Y11500000D03*
G04 #@! TO.N,Net-(J2-Pad14)*
X12770000Y12220000D03*
G04 #@! TO.N,Net-(J2-Pad16)*
X12800000Y9710000D03*
G04 #@! TO.N,Net-(J2-Pad18)*
X9202650Y8502650D03*
G04 #@! TO.N,Net-(J2-Pad20)*
X9202652Y7502652D03*
G04 #@! TO.N,Net-(J2-Pad22)*
X12780000Y7960000D03*
G04 #@! TO.N,Net-(J2-Pad24)*
X12600000Y5500000D03*
G04 #@! TO.N,Net-(J2-Pad26)*
X9000000Y4500000D03*
G04 #@! TO.N,Net-(J2-Pad28)*
X9002660Y3502660D03*
G04 #@! TO.N,Net-(J2-Pad30)*
X12770000Y4000000D03*
G04 #@! TO.N,Net-(J2-Pad32)*
X12497336Y1502664D03*
G04 #@! TO.N,Net-(J2-Pad34)*
X9002666Y502666D03*
G04 #@! TO.N,Net-(J2-Pad36)*
X9002668Y-497332D03*
G04 #@! TO.N,Net-(J2-Pad38)*
X12600000Y-1500000D03*
G04 #@! TO.N,Net-(J2-Pad40)*
X12600000Y-2500000D03*
G04 #@! TO.N,Net-(J2-Pad42)*
X6300000Y-3500000D03*
G04 #@! TO.N,Net-(J2-Pad44)*
X12500000Y-4500000D03*
G04 #@! TO.N,Net-(J2-Pad46)*
X12500000Y-5500000D03*
G04 #@! TO.N,Net-(J2-Pad48)*
X12497320Y-6497320D03*
G04 #@! TO.N,Net-(J2-Pad50)*
X8700000Y-7500000D03*
G04 #@! TO.N,Net-(J2-Pad52)*
X8100000Y-16200000D03*
G04 #@! TO.N,Net-(J2-Pad54)*
X12750000Y-11300000D03*
G04 #@! TO.N,Net-(J2-Pad56)*
X9302688Y-10497312D03*
G04 #@! TO.N,Net-(J2-Pad58)*
X9200000Y-11600000D03*
G04 #@! TO.N,Net-(J2-Pad60)*
X9100000Y-12700000D03*
G04 #@! TO.N,Net-(J2-Pad62)*
X12640000Y-13810000D03*
G04 #@! TO.N,Net-(J2-Pad64)*
X14990000Y-17950000D03*
G04 #@! TD*
D14*
G04 #@! TO.N,GND*
X-14428000Y-9512696D02*
X-16282696Y-9512696D01*
X-16297306Y-3518078D02*
X-16292692Y-3522692D01*
X-14428000Y-3512696D02*
X-16282696Y-3512696D01*
X-16292692Y-2682692D02*
X-16292692Y-3522692D01*
X-14428000Y-2512698D02*
X-16122698Y-2512698D01*
X-16282696Y-3512696D02*
X-16292692Y-3522692D01*
X-16122698Y-2512698D02*
X-16292692Y-2682692D01*
X-16292692Y-3522692D02*
X-16122692Y-3522692D01*
X-16282696Y-7512696D02*
X-16292692Y-7522692D01*
X-16297306Y-7518078D02*
X-16292692Y-7522692D01*
X-16292692Y-9522692D02*
X-16122692Y-9522692D01*
X-16282696Y-9512696D02*
X-16292692Y-9522692D01*
X-16292692Y-8682692D02*
X-16292692Y-9522692D01*
X-14428000Y-5512696D02*
X-16282696Y-5512696D01*
X-14428000Y-6512698D02*
X-16122698Y-6512698D01*
X-16292692Y-6682692D02*
X-16292692Y-7522692D01*
X-14428000Y-8512698D02*
X-16122698Y-8512698D01*
X-14428000Y-7512696D02*
X-16282696Y-7512696D01*
X-16292692Y-5522692D02*
X-16122692Y-5522692D01*
X-16282696Y-1512696D02*
X-16292692Y-1522692D01*
X-16292692Y-682692D02*
X-16292692Y-1522692D01*
X-14428000Y-4512698D02*
X-16122698Y-4512698D01*
X-16292692Y-1522692D02*
X-16122692Y-1522692D01*
X-16122698Y-512698D02*
X-16292692Y-682692D01*
X-16297306Y-5518078D02*
X-16292692Y-5522692D01*
X-16297306Y-9518078D02*
X-16292692Y-9522692D01*
X-16122698Y-6512698D02*
X-16292692Y-6682692D01*
X-14428000Y-1512696D02*
X-16282696Y-1512696D01*
X-16292692Y-4682692D02*
X-16292692Y-5522692D01*
X-14428000Y-512698D02*
X-16122698Y-512698D01*
X-16122698Y-4512698D02*
X-16292692Y-4682692D01*
X-16292692Y-7522692D02*
X-16122692Y-7522692D01*
X-16282696Y-5512696D02*
X-16292692Y-5522692D01*
X-16297306Y-1518078D02*
X-16292692Y-1522692D01*
X-16297306Y2481922D02*
X-16292692Y2477308D01*
X-16122698Y3487302D02*
X-16292692Y3317308D01*
X-14428000Y6487304D02*
X-16282696Y6487304D01*
X-14308000Y5577302D02*
X-16002698Y5577302D01*
X-16122698Y7487302D02*
X-16292692Y7317308D01*
X-16292692Y477308D02*
X-16122692Y477308D01*
X-16297306Y8481922D02*
X-16292692Y8477308D01*
X-16282696Y8487304D02*
X-16292692Y8477308D01*
X-16162696Y4577304D02*
X-16172692Y4567308D01*
X-16002698Y5577302D02*
X-16172692Y5407308D01*
X-16292692Y6477308D02*
X-16122692Y6477308D01*
X-16297306Y481922D02*
X-16292692Y477308D01*
X-16292692Y2477308D02*
X-16122692Y2477308D01*
X-16122698Y9487302D02*
X-16292692Y9317308D01*
X-14428000Y1487302D02*
X-16122698Y1487302D01*
X-16292692Y14477308D02*
X-16122692Y14477308D01*
X-16297306Y10481922D02*
X-16292692Y10477308D01*
X-16292692Y1317308D02*
X-16292692Y477308D01*
X-16292692Y10477308D02*
X-16122692Y10477308D01*
X-16292692Y11317308D02*
X-16292692Y10477308D01*
X-14428000Y2487304D02*
X-16282696Y2487304D01*
X-16282696Y2487304D02*
X-16292692Y2477308D01*
X-16172692Y4567308D02*
X-16002692Y4567308D01*
X-16292692Y8477308D02*
X-16122692Y8477308D01*
X-16122698Y15487302D02*
X-16292692Y15317308D01*
X-16282696Y14487304D02*
X-16292692Y14477308D01*
X-14308000Y4577304D02*
X-16162696Y4577304D01*
X-14428000Y15487302D02*
X-16122698Y15487302D01*
X-14428000Y14487304D02*
X-16282696Y14487304D01*
X-16282696Y487304D02*
X-16292692Y477308D01*
X-14428000Y8487304D02*
X-16282696Y8487304D01*
X-16122698Y11487302D02*
X-16292692Y11317308D01*
X-14428000Y11487302D02*
X-16122698Y11487302D01*
X-16297306Y6481922D02*
X-16292692Y6477308D01*
X-16172692Y5407308D02*
X-16172692Y4567308D01*
X-16292692Y15317308D02*
X-16292692Y14477308D01*
X-16177306Y4571922D02*
X-16172692Y4567308D01*
X-16282696Y10487304D02*
X-16292692Y10477308D01*
X-16122698Y1487302D02*
X-16292692Y1317308D01*
X-14428000Y3487302D02*
X-16122698Y3487302D01*
X-16292692Y3317308D02*
X-16292692Y2477308D01*
X-16292692Y7317308D02*
X-16292692Y6477308D01*
X-16292692Y9317308D02*
X-16292692Y8477308D01*
X-14428000Y10487304D02*
X-16282696Y10487304D01*
X-14428000Y7487302D02*
X-16122698Y7487302D01*
X-14428000Y9487302D02*
X-16122698Y9487302D01*
X-14428000Y487304D02*
X-16282696Y487304D01*
X-16282696Y6487304D02*
X-16292692Y6477308D01*
X-6180000Y-13492500D02*
X-5862500Y-13492500D01*
X2210000Y650000D02*
X2860000Y0D01*
X1100000Y650000D02*
X2210000Y650000D01*
X-16122698Y-8512698D02*
X-16292692Y-8682692D01*
X0Y-4042500D02*
X0Y-5400000D01*
X0Y-5400000D02*
X0Y-5400000D01*
X1100000Y0D02*
X2860000Y0D01*
X-1099820Y655320D02*
X-2064680Y655320D01*
X-18940000Y11767500D02*
X-18940000Y10540000D01*
X-18940000Y10540000D02*
X-18940000Y10540000D01*
X-18940000Y5447500D02*
X-17847500Y5447500D01*
X-17847500Y5447500D02*
X-17847500Y5447500D01*
X-6130000Y11767500D02*
X-6130000Y10570000D01*
X-6130000Y10570000D02*
X-6130000Y10530000D01*
X-6130000Y5447500D02*
X-6130000Y4230000D01*
X-6130000Y4230000D02*
X-6130000Y4230000D01*
X-18940000Y-7172500D02*
X-18940000Y-8240000D01*
X-6130000Y-7172500D02*
X-5072500Y-7172500D01*
X-5072500Y-7172500D02*
X-4600000Y-6700000D01*
X-4600000Y-6700000D02*
X-4600000Y-6700000D01*
X-6180000Y-13492500D02*
X-6180000Y-14680000D01*
X-6180000Y-14680000D02*
X-6180000Y-14680000D01*
X6347500Y5490000D02*
X6347500Y4347500D01*
X6347500Y4347500D02*
X6347500Y4347500D01*
X6310000Y11767500D02*
X6310000Y10610000D01*
X6310000Y10610000D02*
X6310000Y10610000D01*
X18940000Y5447500D02*
X18940000Y4260000D01*
X18940000Y4260000D02*
X18940000Y4260000D01*
X6310000Y-7172500D02*
X6310000Y-8290000D01*
X6310000Y-8290000D02*
X6310000Y-8390000D01*
X13602664Y-1502664D02*
X13600000Y-1500000D01*
X14408000Y-1502664D02*
X13602664Y-1502664D01*
X14438000Y11467310D02*
X14408000Y11497310D01*
X16292692Y14682692D02*
X16292692Y15522692D01*
X16292692Y15522692D02*
X16122692Y15522692D01*
X16297306Y15518078D02*
X16292692Y15522692D01*
X16282696Y15512696D02*
X16292692Y15522692D01*
X14428000Y15512696D02*
X16282696Y15512696D01*
X14428000Y14512698D02*
X16122698Y14512698D01*
X16122698Y14512698D02*
X16292692Y14682692D01*
X14428000Y12512698D02*
X16122698Y12512698D01*
X16292692Y12682692D02*
X16292692Y13522692D01*
X16122698Y12512698D02*
X16292692Y12682692D01*
X16297306Y13518078D02*
X16292692Y13522692D01*
X16292692Y13522692D02*
X16122692Y13522692D01*
X14428000Y13512696D02*
X16282696Y13512696D01*
X16282696Y13512696D02*
X16292692Y13522692D01*
X16122698Y10512698D02*
X16292692Y10682692D01*
X16297306Y11518078D02*
X16292692Y11522692D01*
X16292692Y11522692D02*
X16122692Y11522692D01*
X16292692Y10682692D02*
X16292692Y11522692D01*
X14428000Y10512698D02*
X16122698Y10512698D01*
X16282696Y11512696D02*
X16292692Y11522692D01*
X14428000Y11512696D02*
X16282696Y11512696D01*
X16292692Y8682692D02*
X16292692Y9522692D01*
X16297306Y9518078D02*
X16292692Y9522692D01*
X14428000Y8512698D02*
X16122698Y8512698D01*
X16282696Y9512696D02*
X16292692Y9522692D01*
X16122698Y8512698D02*
X16292692Y8682692D01*
X16292692Y9522692D02*
X16122692Y9522692D01*
X14428000Y9512696D02*
X16282696Y9512696D01*
X16292692Y7522692D02*
X16122692Y7522692D01*
X16282696Y7512696D02*
X16292692Y7522692D01*
X16297306Y7518078D02*
X16292692Y7522692D01*
X16292692Y6682692D02*
X16292692Y7522692D01*
X16122698Y6512698D02*
X16292692Y6682692D01*
X14428000Y7512696D02*
X16282696Y7512696D01*
X14428000Y6512698D02*
X16122698Y6512698D01*
X16292692Y5522692D02*
X16122692Y5522692D01*
X16122698Y4512698D02*
X16292692Y4682692D01*
X16297306Y5518078D02*
X16292692Y5522692D01*
X14428000Y4512698D02*
X16122698Y4512698D01*
X16292692Y4682692D02*
X16292692Y5522692D01*
X14428000Y5512696D02*
X16282696Y5512696D01*
X16282696Y5512696D02*
X16292692Y5522692D01*
X14428000Y2512698D02*
X16122698Y2512698D01*
X16292692Y3522692D02*
X16122692Y3522692D01*
X16122698Y2512698D02*
X16292692Y2682692D01*
X16292692Y2682692D02*
X16292692Y3522692D01*
X16282696Y3512696D02*
X16292692Y3522692D01*
X14428000Y3512696D02*
X16282696Y3512696D01*
X16297306Y3518078D02*
X16292692Y3522692D01*
X16292692Y1522692D02*
X16122692Y1522692D01*
X16292692Y682692D02*
X16292692Y1522692D01*
X16122698Y512698D02*
X16292692Y682692D01*
X14428000Y1512696D02*
X16282696Y1512696D01*
X16297306Y1518078D02*
X16292692Y1522692D01*
X14428000Y512698D02*
X16122698Y512698D01*
X16282696Y1512696D02*
X16292692Y1522692D01*
X18940000Y11767500D02*
X18940000Y10440000D01*
X18940000Y10440000D02*
X18940000Y10440000D01*
X14428000Y-487304D02*
X16282696Y-487304D01*
X14428000Y-1487302D02*
X16122698Y-1487302D01*
X16282696Y-487304D02*
X16292692Y-477308D01*
X16292692Y-477308D02*
X16122692Y-477308D01*
X16292692Y-1317308D02*
X16292692Y-477308D01*
X16122698Y-1487302D02*
X16292692Y-1317308D01*
X16297306Y-481922D02*
X16292692Y-477308D01*
X16122698Y-3487302D02*
X16292692Y-3317308D01*
X16297306Y-2481922D02*
X16292692Y-2477308D01*
X16292692Y-3317308D02*
X16292692Y-2477308D01*
X14428000Y-2487304D02*
X16282696Y-2487304D01*
X14428000Y-3487302D02*
X16122698Y-3487302D01*
X16292692Y-2477308D02*
X16122692Y-2477308D01*
X16282696Y-2487304D02*
X16292692Y-2477308D01*
X16292692Y-5317308D02*
X16292692Y-4477308D01*
X14428000Y-5487302D02*
X16122698Y-5487302D01*
X14428000Y-4487304D02*
X16282696Y-4487304D01*
X16297306Y-4481922D02*
X16292692Y-4477308D01*
X16122698Y-5487302D02*
X16292692Y-5317308D01*
X16282696Y-4487304D02*
X16292692Y-4477308D01*
X16292692Y-4477308D02*
X16122692Y-4477308D01*
X16282696Y-6487304D02*
X16292692Y-6477308D01*
X16122698Y-7487302D02*
X16292692Y-7317308D01*
X16297306Y-6481922D02*
X16292692Y-6477308D01*
X16292692Y-7317308D02*
X16292692Y-6477308D01*
X14428000Y-7487302D02*
X16122698Y-7487302D01*
X16292692Y-6477308D02*
X16122692Y-6477308D01*
X14428000Y-6487304D02*
X16282696Y-6487304D01*
X14428000Y-9487302D02*
X16122698Y-9487302D01*
X16292692Y-9317308D02*
X16292692Y-8477308D01*
X16282696Y-8487304D02*
X16292692Y-8477308D01*
X16297306Y-8481922D02*
X16292692Y-8477308D01*
X16292692Y-8477308D02*
X16122692Y-8477308D01*
X16122698Y-9487302D02*
X16292692Y-9317308D01*
X14428000Y-8487304D02*
X16282696Y-8487304D01*
X16292692Y-11317308D02*
X16292692Y-10477308D01*
X16292692Y-10477308D02*
X16122692Y-10477308D01*
X14428000Y-10487304D02*
X16282696Y-10487304D01*
X16122698Y-11487302D02*
X16292692Y-11317308D01*
X16297306Y-10481922D02*
X16292692Y-10477308D01*
X14428000Y-11487302D02*
X16122698Y-11487302D01*
X16282696Y-10487304D02*
X16292692Y-10477308D01*
X16122698Y-13487302D02*
X16292692Y-13317308D01*
X14428000Y-12487304D02*
X16282696Y-12487304D01*
X14428000Y-13487302D02*
X16122698Y-13487302D01*
X16292692Y-12477308D02*
X16122692Y-12477308D01*
X16292692Y-13317308D02*
X16292692Y-12477308D01*
X16282696Y-12487304D02*
X16292692Y-12477308D01*
X16297306Y-12481922D02*
X16292692Y-12477308D01*
X18940000Y-7172500D02*
X18940000Y-8260000D01*
X18940000Y-8260000D02*
X18940000Y-8260000D01*
X-16122698Y13487302D02*
X-14428000Y13487302D01*
X-16292692Y13317308D02*
X-16122698Y13487302D01*
X-16300000Y13000000D02*
X-16292692Y13317308D01*
X-16282696Y12487304D02*
X-14428000Y12487304D01*
X-16297306Y12481922D02*
X-16300000Y13000000D01*
X6785000Y-13492500D02*
X7180000Y-13887500D01*
X6310000Y-13492500D02*
X6785000Y-13492500D01*
X7180000Y-13887500D02*
X7180000Y-14920000D01*
X7180000Y-14920000D02*
X7180000Y-14920000D01*
X-20560000Y-11832500D02*
X-21502500Y-11832500D01*
X-21502500Y-11832500D02*
X-21780000Y-12110000D01*
X-14528000Y-13502640D02*
X-14528000Y-14502638D01*
X-14528000Y-14502638D02*
X-14528000Y-15502636D01*
X-14528000Y-13502640D02*
X-15637362Y-13502640D01*
X-15637362Y-13502640D02*
X-16120000Y-13020002D01*
X-14528000Y-12502642D02*
X-15602640Y-12502642D01*
X-15602640Y-12502642D02*
X-16120000Y-13020002D01*
X-14528000Y-10502646D02*
X-15572646Y-10502646D01*
X-15572646Y-10502646D02*
X-16120000Y-11050000D01*
X-16120000Y-11050000D02*
X-16120000Y-11220000D01*
X-15837356Y-11502644D02*
X-14528000Y-11502644D01*
X-16120000Y-11220000D02*
X-15837356Y-11502644D01*
X20800000Y-12362500D02*
X19672500Y-12362500D01*
X14528000Y-13502640D02*
X14528000Y-14502638D01*
X14528000Y-14502638D02*
X14528000Y-15502636D01*
G04 #@! TO.N,/BIAS1*
X-14468000Y16497300D02*
X-16237300Y16497300D01*
X-18940000Y13492500D02*
X-18940000Y14660000D01*
X-18940000Y14660000D02*
X-18940000Y14660000D01*
X-18940000Y7172500D02*
X-18940000Y8240000D01*
X-18940000Y8240000D02*
X-18940000Y8240000D01*
X-6130000Y13492500D02*
X-6130000Y14370000D01*
X-6130000Y14370000D02*
X-5700000Y14800000D01*
X-5700000Y14800000D02*
X-5700000Y14800000D01*
X-6130000Y7172500D02*
X-6130000Y8700000D01*
X-6130000Y8700000D02*
X-6130000Y8700000D01*
G04 #@! TO.N,/BIAS2*
X-18940000Y-5447500D02*
X-18940000Y-4360000D01*
X-18940000Y-4360000D02*
X-18940000Y-4360000D01*
X-6130000Y-5447500D02*
X-6130000Y-4230000D01*
X-6130000Y-4230000D02*
X-6130000Y-4230000D01*
X-6180000Y-11767500D02*
X-6180000Y-10320000D01*
X-6180000Y-10320000D02*
X-6180000Y-10320000D01*
X-20560000Y-10107500D02*
X-21787500Y-10107500D01*
X-14528000Y-16502634D02*
X-14528000Y-17428000D01*
X-14528000Y-17428000D02*
X-14530000Y-17430000D01*
G04 #@! TO.N,/VDD*
X-3778700Y-15502636D02*
X-1200000Y-12923936D01*
X-10852000Y-15502636D02*
X-3778700Y-15502636D01*
X-1200000Y-3517500D02*
X0Y-2317500D01*
X-1200000Y-12923936D02*
X-1200000Y-3517500D01*
X-1100000Y-650000D02*
X-380000Y-650000D01*
X0Y-1030000D02*
X0Y-2317500D01*
X-380000Y-650000D02*
X0Y-1030000D01*
G04 #@! TO.N,/OUT*
X1100000Y-650000D02*
X1100000Y-13740000D01*
X-1662634Y-16502634D02*
X-10852000Y-16502634D01*
X1100000Y-13740000D02*
X-1662634Y-16502634D01*
G04 #@! TO.N,Net-(J1-Pad63)*
X-10852000Y-14502638D02*
X-9000000Y-14500000D01*
X-9000000Y-14500000D02*
X-9002638Y-14502638D01*
G04 #@! TO.N,Net-(J1-Pad61)*
X-10852000Y-13502640D02*
X-9000000Y-13500000D01*
X-9000000Y-13500000D02*
X-9002640Y-13502640D01*
G04 #@! TO.N,Net-(J1-Pad59)*
X-12600000Y-17600000D02*
X-12600000Y-17600000D01*
X-12402642Y-12502642D02*
X-12782393Y-12882393D01*
X-12782393Y-17417607D02*
X-12464894Y-17735106D01*
X-10852000Y-12502642D02*
X-12402642Y-12502642D01*
X-12782393Y-12882393D02*
X-12782393Y-17417607D01*
G04 #@! TO.N,Net-(J1-Pad57)*
X-12353140Y-11502644D02*
X-12355784Y-11500000D01*
X-10852000Y-11502644D02*
X-12353140Y-11502644D01*
X-12355784Y-11500000D02*
X-12500000Y-11500000D01*
X-12500000Y-11500000D02*
X-12500000Y-11500000D01*
G04 #@! TO.N,Net-(J1-Pad55)*
X-10852000Y-10502646D02*
X-9200000Y-10500000D01*
X-9200000Y-10500000D02*
X-9202646Y-10502646D01*
G04 #@! TO.N,Net-(J1-Pad53)*
X-9202648Y-9502648D02*
X-9200000Y-9500000D01*
X-10852000Y-9502648D02*
X-9202648Y-9502648D01*
G04 #@! TO.N,Net-(J1-Pad51)*
X-10972000Y-8502650D02*
X-12052650Y-8502650D01*
X-12052650Y-8502650D02*
X-12750000Y-9200000D01*
G04 #@! TO.N,Net-(J1-Pad49)*
X-10972000Y-7502652D02*
X-12362652Y-7502652D01*
X-12362652Y-7502652D02*
X-12780000Y-7920000D01*
G04 #@! TO.N,Net-(J1-Pad47)*
X-9202654Y-6502654D02*
X-9200000Y-6500000D01*
X-10852000Y-6502654D02*
X-9202654Y-6502654D01*
G04 #@! TO.N,Net-(J1-Pad45)*
X-10852000Y-5502656D02*
X-10834656Y-5520000D01*
X-12152656Y-5502656D02*
X-12750000Y-6100000D01*
X-10972000Y-5502656D02*
X-12152656Y-5502656D01*
G04 #@! TO.N,Net-(J1-Pad43)*
X-12597342Y-4502658D02*
X-12600000Y-4500000D01*
X-10852000Y-4502658D02*
X-12597342Y-4502658D01*
G04 #@! TO.N,Net-(J1-Pad41)*
X-12597340Y-3502660D02*
X-12600000Y-3500000D01*
X-10852000Y-3502660D02*
X-12597340Y-3502660D01*
G04 #@! TO.N,Net-(J1-Pad39)*
X-10852000Y-2502662D02*
X-9200000Y-2500000D01*
X-9200000Y-2500000D02*
X-9202662Y-2502662D01*
G04 #@! TO.N,Net-(J1-Pad37)*
X-10852000Y-1502664D02*
X-12600000Y-1500000D01*
X-12600000Y-1500000D02*
X-12597336Y-1502664D01*
G04 #@! TO.N,Net-(J1-Pad35)*
X-10852000Y-502666D02*
X-12600000Y-500000D01*
X-12600000Y-500000D02*
X-12597334Y-502666D01*
G04 #@! TO.N,Net-(J1-Pad33)*
X-10852000Y497332D02*
X-12600000Y500000D01*
X-12600000Y500000D02*
X-12597332Y497332D01*
G04 #@! TO.N,Net-(J1-Pad31)*
X-9202670Y1497330D02*
X-9200000Y1500000D01*
X-10852000Y1497330D02*
X-9202670Y1497330D01*
G04 #@! TO.N,Net-(J1-Pad29)*
X-10852000Y2497328D02*
X-12202672Y2497328D01*
X-12202672Y2497328D02*
X-12600000Y2100000D01*
X-12600000Y2100000D02*
X-12600000Y2100000D01*
G04 #@! TO.N,Net-(J1-Pad27)*
X-10852000Y3497326D02*
X-12202674Y3497326D01*
X-12202674Y3497326D02*
X-12600000Y3100000D01*
X-12600000Y3100000D02*
X-12600000Y3100000D01*
G04 #@! TO.N,Net-(J1-Pad25)*
X-10852000Y4497324D02*
X-12502676Y4497324D01*
G04 #@! TO.N,Net-(J1-Pad23)*
X-9202678Y5497322D02*
X-9200000Y5500000D01*
X-10852000Y5497322D02*
X-9202678Y5497322D01*
G04 #@! TO.N,Net-(J1-Pad21)*
X-12597320Y6497320D02*
X-12600000Y6500000D01*
X-10852000Y6497320D02*
X-12597320Y6497320D01*
G04 #@! TO.N,Net-(J1-Pad19)*
X-12597318Y7497318D02*
X-12600000Y7500000D01*
X-10852000Y7497318D02*
X-12597318Y7497318D01*
G04 #@! TO.N,Net-(J1-Pad17)*
X-12597316Y8497316D02*
X-12600000Y8500000D01*
X-10852000Y8497316D02*
X-12597316Y8497316D01*
G04 #@! TO.N,Net-(J1-Pad15)*
X-9202686Y9497314D02*
X-9200000Y9500000D01*
X-10852000Y9497314D02*
X-9202686Y9497314D01*
G04 #@! TO.N,Net-(J1-Pad13)*
X-9202688Y10497312D02*
X-9200000Y10500000D01*
X-10852000Y10497312D02*
X-9202688Y10497312D01*
G04 #@! TO.N,Net-(J1-Pad11)*
X-10852000Y11497310D02*
X-12597310Y11497310D01*
X-12597310Y11497310D02*
X-12597310Y11497310D01*
G04 #@! TO.N,Net-(J1-Pad9)*
X-10852000Y12497308D02*
X-12600000Y12500000D01*
X-12600000Y12500000D02*
X-12597308Y12497308D01*
G04 #@! TO.N,Net-(J1-Pad7)*
X-9202694Y13497306D02*
X-9200000Y13500000D01*
X-10852000Y13497306D02*
X-9202694Y13497306D01*
G04 #@! TO.N,Net-(J1-Pad5)*
X-9202696Y14497304D02*
X-9200000Y14500000D01*
X-10852000Y14497304D02*
X-9202696Y14497304D01*
G04 #@! TO.N,Net-(J1-Pad3)*
X-11197302Y15497302D02*
X-11200000Y15500000D01*
X-10852000Y15497302D02*
X-11197302Y15497302D01*
X-11200000Y15500000D02*
X-12600000Y15500000D01*
X-12600000Y15500000D02*
X-12600000Y15500000D01*
G04 #@! TO.N,Net-(J1-Pad1)*
X-10972000Y16497300D02*
X-12377300Y16497300D01*
X-12377300Y16497300D02*
X-12650000Y16770000D01*
G04 #@! TO.N,/BIAS3*
X6310000Y7172500D02*
X6310000Y8290000D01*
X6310000Y8290000D02*
X6310000Y8290000D01*
X6310000Y13492500D02*
X6310000Y14590000D01*
X6310000Y14590000D02*
X6310000Y14590000D01*
X18940000Y7172500D02*
X18940000Y8340000D01*
X18940000Y8340000D02*
X18940000Y8340000D01*
X18940000Y13492500D02*
X18940000Y14540000D01*
X18940000Y14540000D02*
X18940000Y14540000D01*
X14528000Y16497300D02*
X14528000Y18702000D01*
G04 #@! TO.N,/BIAS4*
X18940000Y-5447500D02*
X18940000Y-4060000D01*
X18940000Y-4060000D02*
X18940000Y-4060000D01*
D15*
X6310000Y-11767500D02*
X6310000Y-11090000D01*
X6310000Y-11090000D02*
X6900000Y-10500000D01*
X6900000Y-10500000D02*
X6900000Y-10500000D01*
X6310000Y-4890000D02*
X6310000Y-5447500D01*
X6700000Y-4300000D02*
X6310000Y-4890000D01*
D14*
X20800000Y-10637500D02*
X19667500Y-10637500D01*
X14528000Y-16502634D02*
X14528000Y-17042000D01*
X14528000Y-17042000D02*
X14420000Y-17150000D01*
G04 #@! TO.N,Net-(J2-Pad2)*
X10852000Y16497300D02*
X7667300Y16497300D01*
X7667300Y16497300D02*
X7667300Y16497300D01*
G04 #@! TO.N,Net-(J2-Pad4)*
X9002636Y15502636D02*
X9000000Y15500000D01*
X10852000Y15502636D02*
X9002636Y15502636D01*
G04 #@! TO.N,Net-(J2-Pad6)*
X11963080Y14502638D02*
X10852000Y14502638D01*
X12760000Y16270988D02*
X12760000Y16720000D01*
X12760000Y14784164D02*
X12760000Y16270988D01*
X12473140Y14497304D02*
X12760000Y14784164D01*
X10972000Y14497304D02*
X12473140Y14497304D01*
G04 #@! TO.N,Net-(J2-Pad8)*
X10972000Y13497306D02*
X12547306Y13497306D01*
X12547306Y13497306D02*
X12760000Y13710000D01*
X17320000Y15460000D02*
X21350000Y15460000D01*
X21350000Y15460000D02*
X22200000Y16310000D01*
G04 #@! TO.N,Net-(J2-Pad10)*
X7920000Y12500000D02*
X9002642Y12502642D01*
X9002642Y12502642D02*
X10852000Y12502642D01*
G04 #@! TO.N,Net-(J2-Pad12)*
X9002644Y11502644D02*
X9000000Y11500000D01*
X10852000Y11502644D02*
X9002644Y11502644D01*
G04 #@! TO.N,Net-(J2-Pad14)*
X12600000Y12100000D02*
X12600000Y12100000D01*
X12770000Y11770988D02*
X12770000Y12220000D01*
X12770000Y10794172D02*
X12770000Y11770988D01*
X12473140Y10497312D02*
X12770000Y10794172D01*
X10972000Y10497312D02*
X12473140Y10497312D01*
G04 #@! TO.N,Net-(J2-Pad16)*
X10972000Y9497314D02*
X12587314Y9497314D01*
X12587314Y9497314D02*
X12800000Y9710000D01*
G04 #@! TO.N,Net-(J2-Pad18)*
X10852000Y8502650D02*
X9202650Y8502650D01*
X9202650Y8502650D02*
X9202650Y8502650D01*
G04 #@! TO.N,Net-(J2-Pad20)*
X10852000Y7502652D02*
X9202652Y7502652D01*
X9202652Y7502652D02*
X9202652Y7502652D01*
G04 #@! TO.N,Net-(J2-Pad22)*
X12473140Y6497320D02*
X12780000Y6804180D01*
X12780000Y7510988D02*
X12780000Y7960000D01*
X12780000Y6804180D02*
X12780000Y7510988D01*
X10972000Y6497320D02*
X12473140Y6497320D01*
G04 #@! TO.N,Net-(J2-Pad24)*
X12597344Y5502656D02*
X12600000Y5500000D01*
X10852000Y5502656D02*
X12597344Y5502656D01*
G04 #@! TO.N,Net-(J2-Pad26)*
X9002658Y4502658D02*
X9000000Y4500000D01*
X10852000Y4502658D02*
X9002658Y4502658D01*
G04 #@! TO.N,Net-(J2-Pad28)*
X10852000Y3502660D02*
X9002660Y3502660D01*
X9002660Y3502660D02*
X9002660Y3502660D01*
G04 #@! TO.N,Net-(J2-Pad30)*
X12770000Y3550988D02*
X12770000Y4000000D01*
X12770000Y2794188D02*
X12770000Y3550988D01*
X12473140Y2497328D02*
X12770000Y2794188D01*
X10972000Y2497328D02*
X12473140Y2497328D01*
G04 #@! TO.N,Net-(J2-Pad32)*
X10852000Y1502664D02*
X12497336Y1502664D01*
X12497336Y1502664D02*
X12497336Y1502664D01*
G04 #@! TO.N,Net-(J2-Pad34)*
X10852000Y502666D02*
X9002666Y502666D01*
X9002666Y502666D02*
X9002666Y502666D01*
G04 #@! TO.N,Net-(J2-Pad36)*
X10852000Y-497332D02*
X9002668Y-497332D01*
X9002668Y-497332D02*
X9002668Y-497332D01*
G04 #@! TO.N,Net-(J2-Pad38)*
X12597330Y-1497330D02*
X12600000Y-1500000D01*
X10852000Y-1497330D02*
X12597330Y-1497330D01*
G04 #@! TO.N,Net-(J2-Pad40)*
X12597328Y-2497328D02*
X12600000Y-2500000D01*
X10852000Y-2497328D02*
X12597328Y-2497328D01*
G04 #@! TO.N,Net-(J2-Pad42)*
X9002674Y-3497326D02*
X9002674Y-3497326D01*
X10852000Y-3497326D02*
X6300000Y-3500000D01*
G04 #@! TO.N,Net-(J2-Pad44)*
X12497324Y-4497324D02*
X12500000Y-4500000D01*
X10852000Y-4497324D02*
X12497324Y-4497324D01*
G04 #@! TO.N,Net-(J2-Pad46)*
X12497322Y-5497322D02*
X12500000Y-5500000D01*
X10852000Y-5497322D02*
X12497322Y-5497322D01*
G04 #@! TO.N,Net-(J2-Pad48)*
X12497320Y-6497320D02*
X12497320Y-6497320D01*
X10852000Y-6497320D02*
X12497320Y-6497320D01*
G04 #@! TO.N,Net-(J2-Pad50)*
X8700000Y-7500000D02*
X9102682Y-7497318D01*
X9102682Y-7497318D02*
X10852000Y-7497318D01*
G04 #@! TO.N,Net-(J2-Pad52)*
X9350860Y-8497316D02*
X8100000Y-9748176D01*
X10852000Y-8497316D02*
X9350860Y-8497316D01*
X8100000Y-9748176D02*
X8100000Y-16200000D01*
X8100000Y-16200000D02*
X8100000Y-16200000D01*
G04 #@! TO.N,Net-(J2-Pad54)*
X12750000Y-10284234D02*
X12750000Y-11300000D01*
X11963080Y-9497314D02*
X12750000Y-10284234D01*
X10852000Y-9497314D02*
X11963080Y-9497314D01*
G04 #@! TO.N,Net-(J2-Pad56)*
X10852000Y-10497312D02*
X9302688Y-10497312D01*
X9302688Y-10497312D02*
X9302688Y-10497312D01*
G04 #@! TO.N,Net-(J2-Pad58)*
X10852000Y-11497310D02*
X9302690Y-11497310D01*
X9302690Y-11497310D02*
X9200000Y-11600000D01*
G04 #@! TO.N,Net-(J2-Pad60)*
X10852000Y-12497308D02*
X9302692Y-12497308D01*
X9302692Y-12497308D02*
X9100000Y-12700000D01*
X9100000Y-12700000D02*
X9100000Y-12700000D01*
G04 #@! TO.N,Net-(J2-Pad62)*
X12332640Y-13502640D02*
X12640000Y-13810000D01*
X10852000Y-13502640D02*
X12332640Y-13502640D01*
G04 #@! TO.N,Net-(J2-Pad64)*
X12353140Y-14502638D02*
X12600000Y-14749498D01*
X10852000Y-14502638D02*
X12353140Y-14502638D01*
X12600000Y-16805712D02*
X13744288Y-17950000D01*
X12600000Y-14749498D02*
X12600000Y-16805712D01*
X13744288Y-17950000D02*
X14990000Y-17950000D01*
X14990000Y-17950000D02*
X14990000Y-17950000D01*
G04 #@! TD*
M02*
