G04 #@! TF.GenerationSoftware,KiCad,Pcbnew,5.1.10-88a1d61d58~88~ubuntu18.04.1*
G04 #@! TF.CreationDate,2021-07-16T13:52:33-04:00*
G04 #@! TF.ProjectId,SiPM_Board_RevC,5369504d-5f42-46f6-9172-645f52657643,rev?*
G04 #@! TF.SameCoordinates,PX8f0d180PY5f5e100*
G04 #@! TF.FileFunction,Legend,Bot*
G04 #@! TF.FilePolarity,Positive*
%FSLAX46Y46*%
G04 Gerber Fmt 4.6, Leading zero omitted, Abs format (unit mm)*
G04 Created by KiCad (PCBNEW 5.1.10-88a1d61d58~88~ubuntu18.04.1) date 2021-07-16 13:52:33*
%MOMM*%
%LPD*%
G01*
G04 APERTURE LIST*
%ADD10C,0.165100*%
%ADD11C,0.100000*%
%ADD12C,0.120000*%
%ADD13C,0.150000*%
G04 APERTURE END LIST*
D10*
X8960857Y-19238328D02*
X8960857Y-17714328D01*
X8307714Y-19238328D02*
X8307714Y-18440042D01*
X8380285Y-18294900D01*
X8525428Y-18222328D01*
X8743142Y-18222328D01*
X8888285Y-18294900D01*
X8960857Y-18367471D01*
X7799714Y-18222328D02*
X7219142Y-18222328D01*
X7582000Y-17714328D02*
X7582000Y-19020614D01*
X7509428Y-19165757D01*
X7364285Y-19238328D01*
X7219142Y-19238328D01*
X6928857Y-18222328D02*
X6348285Y-18222328D01*
X6711142Y-17714328D02*
X6711142Y-19020614D01*
X6638571Y-19165757D01*
X6493428Y-19238328D01*
X6348285Y-19238328D01*
X5840285Y-18222328D02*
X5840285Y-19746328D01*
X5840285Y-18294900D02*
X5695142Y-18222328D01*
X5404857Y-18222328D01*
X5259714Y-18294900D01*
X5187142Y-18367471D01*
X5114571Y-18512614D01*
X5114571Y-18948042D01*
X5187142Y-19093185D01*
X5259714Y-19165757D01*
X5404857Y-19238328D01*
X5695142Y-19238328D01*
X5840285Y-19165757D01*
X4461428Y-19093185D02*
X4388857Y-19165757D01*
X4461428Y-19238328D01*
X4534000Y-19165757D01*
X4461428Y-19093185D01*
X4461428Y-19238328D01*
X4461428Y-18294900D02*
X4388857Y-18367471D01*
X4461428Y-18440042D01*
X4534000Y-18367471D01*
X4461428Y-18294900D01*
X4461428Y-18440042D01*
X2647142Y-17641757D02*
X3953428Y-19601185D01*
X1050571Y-17641757D02*
X2356857Y-19601185D01*
X-38000Y-19165757D02*
X107142Y-19238328D01*
X397428Y-19238328D01*
X542571Y-19165757D01*
X615142Y-19020614D01*
X615142Y-18440042D01*
X542571Y-18294900D01*
X397428Y-18222328D01*
X107142Y-18222328D01*
X-38000Y-18294900D01*
X-110572Y-18440042D01*
X-110572Y-18585185D01*
X615142Y-18730328D01*
X-1416858Y-19238328D02*
X-1416858Y-17714328D01*
X-1416858Y-19165757D02*
X-1271715Y-19238328D01*
X-981429Y-19238328D01*
X-836286Y-19165757D01*
X-763715Y-19093185D01*
X-691143Y-18948042D01*
X-691143Y-18512614D01*
X-763715Y-18367471D01*
X-836286Y-18294900D01*
X-981429Y-18222328D01*
X-1271715Y-18222328D01*
X-1416858Y-18294900D01*
X-1924858Y-18222328D02*
X-2505429Y-18222328D01*
X-2142572Y-19238328D02*
X-2142572Y-17932042D01*
X-2215143Y-17786900D01*
X-2360286Y-17714328D01*
X-2505429Y-17714328D01*
X-3013429Y-19093185D02*
X-3086000Y-19165757D01*
X-3013429Y-19238328D01*
X-2940858Y-19165757D01*
X-3013429Y-19093185D01*
X-3013429Y-19238328D01*
X-3739143Y-19238328D02*
X-3739143Y-17714328D01*
X-3739143Y-18294900D02*
X-3884286Y-18222328D01*
X-4174572Y-18222328D01*
X-4319715Y-18294900D01*
X-4392286Y-18367471D01*
X-4464858Y-18512614D01*
X-4464858Y-18948042D01*
X-4392286Y-19093185D01*
X-4319715Y-19165757D01*
X-4174572Y-19238328D01*
X-3884286Y-19238328D01*
X-3739143Y-19165757D01*
X-5771143Y-18222328D02*
X-5771143Y-19238328D01*
X-5118000Y-18222328D02*
X-5118000Y-19020614D01*
X-5190572Y-19165757D01*
X-5335715Y-19238328D01*
X-5553429Y-19238328D01*
X-5698572Y-19165757D01*
X-5771143Y-19093185D01*
X-6496858Y-19093185D02*
X-6569429Y-19165757D01*
X-6496858Y-19238328D01*
X-6424286Y-19165757D01*
X-6496858Y-19093185D01*
X-6496858Y-19238328D01*
X-7803143Y-19165757D02*
X-7658000Y-19238328D01*
X-7367715Y-19238328D01*
X-7222572Y-19165757D01*
X-7150000Y-19020614D01*
X-7150000Y-18440042D01*
X-7222572Y-18294900D01*
X-7367715Y-18222328D01*
X-7658000Y-18222328D01*
X-7803143Y-18294900D01*
X-7875715Y-18440042D01*
X-7875715Y-18585185D01*
X-7150000Y-18730328D01*
X-9182000Y-19238328D02*
X-9182000Y-17714328D01*
X-9182000Y-19165757D02*
X-9036858Y-19238328D01*
X-8746572Y-19238328D01*
X-8601429Y-19165757D01*
X-8528858Y-19093185D01*
X-8456286Y-18948042D01*
X-8456286Y-18512614D01*
X-8528858Y-18367471D01*
X-8601429Y-18294900D01*
X-8746572Y-18222328D01*
X-9036858Y-18222328D01*
X-9182000Y-18294900D01*
X-10560858Y-18222328D02*
X-10560858Y-19238328D01*
X-9907715Y-18222328D02*
X-9907715Y-19020614D01*
X-9980286Y-19165757D01*
X-10125429Y-19238328D01*
X-10343143Y-19238328D01*
X-10488286Y-19165757D01*
X-10560858Y-19093185D01*
X11537142Y-20891142D02*
X11029142Y-20891142D01*
X10811428Y-21689428D02*
X11537142Y-21689428D01*
X11537142Y-20165428D01*
X10811428Y-20165428D01*
X10158285Y-21689428D02*
X10158285Y-20165428D01*
X9650285Y-21254000D01*
X9142285Y-20165428D01*
X9142285Y-21689428D01*
X8416571Y-21689428D02*
X8416571Y-20165428D01*
X7836000Y-20165428D01*
X7690857Y-20238000D01*
X7618285Y-20310571D01*
X7545714Y-20455714D01*
X7545714Y-20673428D01*
X7618285Y-20818571D01*
X7690857Y-20891142D01*
X7836000Y-20963714D01*
X8416571Y-20963714D01*
X6892571Y-21689428D02*
X6892571Y-20165428D01*
X6892571Y-20891142D02*
X6021714Y-20891142D01*
X6021714Y-21689428D02*
X6021714Y-20165428D01*
X5368571Y-21254000D02*
X4642857Y-21254000D01*
X5513714Y-21689428D02*
X5005714Y-20165428D01*
X4497714Y-21689428D01*
X4207428Y-20165428D02*
X3336571Y-20165428D01*
X3772000Y-21689428D02*
X3772000Y-20165428D01*
X2828571Y-21689428D02*
X2828571Y-20165428D01*
X1232000Y-21544285D02*
X1304571Y-21616857D01*
X1522285Y-21689428D01*
X1667428Y-21689428D01*
X1885142Y-21616857D01*
X2030285Y-21471714D01*
X2102857Y-21326571D01*
X2175428Y-21036285D01*
X2175428Y-20818571D01*
X2102857Y-20528285D01*
X2030285Y-20383142D01*
X1885142Y-20238000D01*
X1667428Y-20165428D01*
X1522285Y-20165428D01*
X1304571Y-20238000D01*
X1232000Y-20310571D01*
X-509715Y-21616857D02*
X-727429Y-21689428D01*
X-1090286Y-21689428D01*
X-1235429Y-21616857D01*
X-1308000Y-21544285D01*
X-1380572Y-21399142D01*
X-1380572Y-21254000D01*
X-1308000Y-21108857D01*
X-1235429Y-21036285D01*
X-1090286Y-20963714D01*
X-800000Y-20891142D01*
X-654858Y-20818571D01*
X-582286Y-20746000D01*
X-509715Y-20600857D01*
X-509715Y-20455714D01*
X-582286Y-20310571D01*
X-654858Y-20238000D01*
X-800000Y-20165428D01*
X-1162858Y-20165428D01*
X-1380572Y-20238000D01*
X-2033715Y-21689428D02*
X-2033715Y-20673428D01*
X-2033715Y-20165428D02*
X-1961143Y-20238000D01*
X-2033715Y-20310571D01*
X-2106286Y-20238000D01*
X-2033715Y-20165428D01*
X-2033715Y-20310571D01*
X-2759429Y-21689428D02*
X-2759429Y-20165428D01*
X-3340000Y-20165428D01*
X-3485143Y-20238000D01*
X-3557715Y-20310571D01*
X-3630286Y-20455714D01*
X-3630286Y-20673428D01*
X-3557715Y-20818571D01*
X-3485143Y-20891142D01*
X-3340000Y-20963714D01*
X-2759429Y-20963714D01*
X-4283429Y-21689428D02*
X-4283429Y-20165428D01*
X-4791429Y-21254000D01*
X-5299429Y-20165428D01*
X-5299429Y-21689428D01*
X-8057143Y-21689428D02*
X-7549143Y-20963714D01*
X-7186286Y-21689428D02*
X-7186286Y-20165428D01*
X-7766858Y-20165428D01*
X-7912000Y-20238000D01*
X-7984572Y-20310571D01*
X-8057143Y-20455714D01*
X-8057143Y-20673428D01*
X-7984572Y-20818571D01*
X-7912000Y-20891142D01*
X-7766858Y-20963714D01*
X-7186286Y-20963714D01*
X-9290858Y-21616857D02*
X-9145715Y-21689428D01*
X-8855429Y-21689428D01*
X-8710286Y-21616857D01*
X-8637715Y-21471714D01*
X-8637715Y-20891142D01*
X-8710286Y-20746000D01*
X-8855429Y-20673428D01*
X-9145715Y-20673428D01*
X-9290858Y-20746000D01*
X-9363429Y-20891142D01*
X-9363429Y-21036285D01*
X-8637715Y-21181428D01*
X-9871429Y-20673428D02*
X-10234286Y-21689428D01*
X-10597143Y-20673428D01*
X-13209715Y-21544285D02*
X-13137143Y-21616857D01*
X-12919429Y-21689428D01*
X-12774286Y-21689428D01*
X-12556572Y-21616857D01*
X-12411429Y-21471714D01*
X-12338858Y-21326571D01*
X-12266286Y-21036285D01*
X-12266286Y-20818571D01*
X-12338858Y-20528285D01*
X-12411429Y-20383142D01*
X-12556572Y-20238000D01*
X-12774286Y-20165428D01*
X-12919429Y-20165428D01*
X-13137143Y-20238000D01*
X-13209715Y-20310571D01*
X12371714Y-22616528D02*
X11500857Y-22616528D01*
X11936285Y-24140528D02*
X11936285Y-22616528D01*
X10992857Y-23995385D02*
X10920285Y-24067957D01*
X10992857Y-24140528D01*
X11065428Y-24067957D01*
X10992857Y-23995385D01*
X10992857Y-24140528D01*
X9178571Y-23705100D02*
X8452857Y-23705100D01*
X9323714Y-24140528D02*
X8815714Y-22616528D01*
X8307714Y-24140528D01*
X7146571Y-23124528D02*
X7146571Y-24358242D01*
X7219142Y-24503385D01*
X7291714Y-24575957D01*
X7436857Y-24648528D01*
X7654571Y-24648528D01*
X7799714Y-24575957D01*
X7146571Y-24067957D02*
X7291714Y-24140528D01*
X7582000Y-24140528D01*
X7727142Y-24067957D01*
X7799714Y-23995385D01*
X7872285Y-23850242D01*
X7872285Y-23414814D01*
X7799714Y-23269671D01*
X7727142Y-23197100D01*
X7582000Y-23124528D01*
X7291714Y-23124528D01*
X7146571Y-23197100D01*
X5767714Y-24140528D02*
X5767714Y-23342242D01*
X5840285Y-23197100D01*
X5985428Y-23124528D01*
X6275714Y-23124528D01*
X6420857Y-23197100D01*
X5767714Y-24067957D02*
X5912857Y-24140528D01*
X6275714Y-24140528D01*
X6420857Y-24067957D01*
X6493428Y-23922814D01*
X6493428Y-23777671D01*
X6420857Y-23632528D01*
X6275714Y-23559957D01*
X5912857Y-23559957D01*
X5767714Y-23487385D01*
X5042000Y-24140528D02*
X5042000Y-23124528D01*
X5042000Y-23414814D02*
X4969428Y-23269671D01*
X4896857Y-23197100D01*
X4751714Y-23124528D01*
X4606571Y-23124528D01*
X4243714Y-23124528D02*
X3953428Y-24140528D01*
X3663142Y-23414814D01*
X3372857Y-24140528D01*
X3082571Y-23124528D01*
X1848857Y-24140528D02*
X1848857Y-23342242D01*
X1921428Y-23197100D01*
X2066571Y-23124528D01*
X2356857Y-23124528D01*
X2502000Y-23197100D01*
X1848857Y-24067957D02*
X1994000Y-24140528D01*
X2356857Y-24140528D01*
X2502000Y-24067957D01*
X2574571Y-23922814D01*
X2574571Y-23777671D01*
X2502000Y-23632528D01*
X2356857Y-23559957D01*
X1994000Y-23559957D01*
X1848857Y-23487385D01*
X905428Y-24140528D02*
X1050571Y-24067957D01*
X1123142Y-23922814D01*
X1123142Y-22616528D01*
X-836286Y-23559957D02*
X-1997429Y-23559957D01*
X-3811715Y-22761671D02*
X-3884286Y-22689100D01*
X-4029429Y-22616528D01*
X-4392286Y-22616528D01*
X-4537429Y-22689100D01*
X-4610000Y-22761671D01*
X-4682572Y-22906814D01*
X-4682572Y-23051957D01*
X-4610000Y-23269671D01*
X-3739143Y-24140528D01*
X-4682572Y-24140528D01*
X-5626000Y-22616528D02*
X-5771143Y-22616528D01*
X-5916286Y-22689100D01*
X-5988858Y-22761671D01*
X-6061429Y-22906814D01*
X-6134000Y-23197100D01*
X-6134000Y-23559957D01*
X-6061429Y-23850242D01*
X-5988858Y-23995385D01*
X-5916286Y-24067957D01*
X-5771143Y-24140528D01*
X-5626000Y-24140528D01*
X-5480858Y-24067957D01*
X-5408286Y-23995385D01*
X-5335715Y-23850242D01*
X-5263143Y-23559957D01*
X-5263143Y-23197100D01*
X-5335715Y-22906814D01*
X-5408286Y-22761671D01*
X-5480858Y-22689100D01*
X-5626000Y-22616528D01*
X-6714572Y-22761671D02*
X-6787143Y-22689100D01*
X-6932286Y-22616528D01*
X-7295143Y-22616528D01*
X-7440286Y-22689100D01*
X-7512858Y-22761671D01*
X-7585429Y-22906814D01*
X-7585429Y-23051957D01*
X-7512858Y-23269671D01*
X-6642000Y-24140528D01*
X-7585429Y-24140528D01*
X-9036858Y-24140528D02*
X-8166000Y-24140528D01*
X-8601429Y-24140528D02*
X-8601429Y-22616528D01*
X-8456286Y-22834242D01*
X-8311143Y-22979385D01*
X-8166000Y-23051957D01*
X-9690000Y-23559957D02*
X-10851143Y-23559957D01*
X-11867143Y-22616528D02*
X-12012286Y-22616528D01*
X-12157429Y-22689100D01*
X-12230000Y-22761671D01*
X-12302572Y-22906814D01*
X-12375143Y-23197100D01*
X-12375143Y-23559957D01*
X-12302572Y-23850242D01*
X-12230000Y-23995385D01*
X-12157429Y-24067957D01*
X-12012286Y-24140528D01*
X-11867143Y-24140528D01*
X-11722000Y-24067957D01*
X-11649429Y-23995385D01*
X-11576858Y-23850242D01*
X-11504286Y-23559957D01*
X-11504286Y-23197100D01*
X-11576858Y-22906814D01*
X-11649429Y-22761671D01*
X-11722000Y-22689100D01*
X-11867143Y-22616528D01*
X-13754000Y-22616528D02*
X-13028286Y-22616528D01*
X-12955715Y-23342242D01*
X-13028286Y-23269671D01*
X-13173429Y-23197100D01*
X-13536286Y-23197100D01*
X-13681429Y-23269671D01*
X-13754000Y-23342242D01*
X-13826572Y-23487385D01*
X-13826572Y-23850242D01*
X-13754000Y-23995385D01*
X-13681429Y-24067957D01*
X-13536286Y-24140528D01*
X-13173429Y-24140528D01*
X-13028286Y-24067957D01*
X-12955715Y-23995385D01*
D11*
G36*
X7500000Y17400000D02*
G01*
X-7400000Y17400000D01*
X-7400000Y24800000D01*
X7500000Y24800000D01*
X7500000Y17400000D01*
G37*
X7500000Y17400000D02*
X-7400000Y17400000D01*
X-7400000Y24800000D01*
X7500000Y24800000D01*
X7500000Y17400000D01*
D10*
X12948257Y21328943D02*
X12730542Y21256372D01*
X12367685Y21256372D01*
X12222542Y21328943D01*
X12149971Y21401515D01*
X12077400Y21546658D01*
X12077400Y21691800D01*
X12149971Y21836943D01*
X12222542Y21909515D01*
X12367685Y21982086D01*
X12657971Y22054658D01*
X12803114Y22127229D01*
X12875685Y22199800D01*
X12948257Y22344943D01*
X12948257Y22490086D01*
X12875685Y22635229D01*
X12803114Y22707800D01*
X12657971Y22780372D01*
X12295114Y22780372D01*
X12077400Y22707800D01*
X10335685Y22852943D02*
X11641971Y20893515D01*
X9827685Y21256372D02*
X9827685Y22780372D01*
X8956828Y21256372D01*
X8956828Y22780372D01*
X8231114Y21401515D02*
X8158542Y21328943D01*
X8231114Y21256372D01*
X8303685Y21328943D01*
X8231114Y21401515D01*
X8231114Y21256372D01*
X8231114Y22199800D02*
X8158542Y22127229D01*
X8231114Y22054658D01*
X8303685Y22127229D01*
X8231114Y22199800D01*
X8231114Y22054658D01*
G04 #@! TO.C,J2*
X14274000Y-18288000D02*
X11226000Y-18288000D01*
X11226000Y-18288000D02*
X11226000Y-17272000D01*
X14274000Y-17272000D02*
X14274000Y-18288000D01*
X14274000Y18288000D02*
X14274000Y17272000D01*
X11226000Y18288000D02*
X14274000Y18288000D01*
X11226000Y17272000D02*
X11226000Y18288000D01*
D12*
G04 #@! TO.C,C16*
X18430000Y12776267D02*
X18430000Y12483733D01*
X19450000Y12776267D02*
X19450000Y12483733D01*
G04 #@! TO.C,U1*
X-700000Y1160000D02*
X1200000Y1160000D01*
X700000Y-1160000D02*
X-700000Y-1160000D01*
D10*
G04 #@! TO.C,J1*
X-11226000Y-18288000D02*
X-14274000Y-18288000D01*
X-14274000Y-18288000D02*
X-14274000Y-17272000D01*
X-11226000Y-17272000D02*
X-11226000Y-18288000D01*
X-11226000Y18288000D02*
X-11226000Y17272000D01*
X-14274000Y18288000D02*
X-11226000Y18288000D01*
X-14274000Y17272000D02*
X-14274000Y18288000D01*
D12*
G04 #@! TO.C,C15*
X5800000Y-12483733D02*
X5800000Y-12776267D01*
X6820000Y-12483733D02*
X6820000Y-12776267D01*
G04 #@! TO.C,C9*
X510000Y-3033733D02*
X510000Y-3326267D01*
X-510000Y-3033733D02*
X-510000Y-3326267D01*
G04 #@! TO.C,C5*
X-18430000Y12776267D02*
X-18430000Y12483733D01*
X-19450000Y12776267D02*
X-19450000Y12483733D01*
G04 #@! TO.C,C7*
X-6640000Y12776267D02*
X-6640000Y12483733D01*
X-5620000Y12776267D02*
X-5620000Y12483733D01*
G04 #@! TO.C,C6*
X-20050000Y-10823733D02*
X-20050000Y-11116267D01*
X-21070000Y-10823733D02*
X-21070000Y-11116267D01*
G04 #@! TO.C,C8*
X-6690000Y-12483733D02*
X-6690000Y-12776267D01*
X-5670000Y-12483733D02*
X-5670000Y-12776267D01*
G04 #@! TO.C,C14*
X6820000Y12776267D02*
X6820000Y12483733D01*
X5800000Y12776267D02*
X5800000Y12483733D01*
G04 #@! TO.C,C17*
X21310000Y-11353733D02*
X21310000Y-11646267D01*
X20290000Y-11353733D02*
X20290000Y-11646267D01*
G04 #@! TO.C,C1*
X-19450000Y6456267D02*
X-19450000Y6163733D01*
X-18430000Y6456267D02*
X-18430000Y6163733D01*
G04 #@! TO.C,C3*
X-5620000Y6456267D02*
X-5620000Y6163733D01*
X-6640000Y6456267D02*
X-6640000Y6163733D01*
G04 #@! TO.C,C2*
X-19450000Y-6163733D02*
X-19450000Y-6456267D01*
X-18430000Y-6163733D02*
X-18430000Y-6456267D01*
G04 #@! TO.C,C4*
X-5620000Y-6163733D02*
X-5620000Y-6456267D01*
X-6640000Y-6163733D02*
X-6640000Y-6456267D01*
G04 #@! TO.C,C10*
X5800000Y6456267D02*
X5800000Y6163733D01*
X6820000Y6456267D02*
X6820000Y6163733D01*
G04 #@! TO.C,C12*
X19450000Y6456267D02*
X19450000Y6163733D01*
X18430000Y6456267D02*
X18430000Y6163733D01*
G04 #@! TO.C,C11*
X5800000Y-6163733D02*
X5800000Y-6456267D01*
X6820000Y-6163733D02*
X6820000Y-6456267D01*
G04 #@! TO.C,C13*
X19450000Y-6163733D02*
X19450000Y-6456267D01*
X18430000Y-6163733D02*
X18430000Y-6456267D01*
G04 #@! TO.C,H1*
D13*
X-17488096Y18297620D02*
X-17488096Y19297620D01*
X-17488096Y18821429D02*
X-18059524Y18821429D01*
X-18059524Y18297620D02*
X-18059524Y19297620D01*
X-19059524Y18297620D02*
X-18488096Y18297620D01*
X-18773810Y18297620D02*
X-18773810Y19297620D01*
X-18678572Y19154762D01*
X-18583334Y19059524D01*
X-18488096Y19011905D01*
G04 #@! TO.C,H2*
X19011904Y18297620D02*
X19011904Y19297620D01*
X19011904Y18821429D02*
X18440476Y18821429D01*
X18440476Y18297620D02*
X18440476Y19297620D01*
X18011904Y19202381D02*
X17964285Y19250000D01*
X17869047Y19297620D01*
X17630952Y19297620D01*
X17535714Y19250000D01*
X17488095Y19202381D01*
X17440476Y19107143D01*
X17440476Y19011905D01*
X17488095Y18869048D01*
X18059523Y18297620D01*
X17440476Y18297620D01*
G04 #@! TO.C,H3*
X-17488096Y-14952380D02*
X-17488096Y-13952380D01*
X-17488096Y-14428571D02*
X-18059524Y-14428571D01*
X-18059524Y-14952380D02*
X-18059524Y-13952380D01*
X-18440477Y-13952380D02*
X-19059524Y-13952380D01*
X-18726191Y-14333333D01*
X-18869048Y-14333333D01*
X-18964286Y-14380952D01*
X-19011905Y-14428571D01*
X-19059524Y-14523809D01*
X-19059524Y-14761904D01*
X-19011905Y-14857142D01*
X-18964286Y-14904761D01*
X-18869048Y-14952380D01*
X-18583334Y-14952380D01*
X-18488096Y-14904761D01*
X-18440477Y-14857142D01*
G04 #@! TO.C,H4*
X19261904Y-15452380D02*
X19261904Y-14452380D01*
X19261904Y-14928571D02*
X18690476Y-14928571D01*
X18690476Y-15452380D02*
X18690476Y-14452380D01*
X17785714Y-14785714D02*
X17785714Y-15452380D01*
X18023809Y-14404761D02*
X18261904Y-15119047D01*
X17642857Y-15119047D01*
G04 #@! TO.C,J2*
D10*
X13245800Y20392772D02*
X13245800Y19304200D01*
X13318371Y19086486D01*
X13463514Y18941343D01*
X13681228Y18868772D01*
X13826371Y18868772D01*
X12592657Y20247629D02*
X12520085Y20320200D01*
X12374942Y20392772D01*
X12012085Y20392772D01*
X11866942Y20320200D01*
X11794371Y20247629D01*
X11721800Y20102486D01*
X11721800Y19957343D01*
X11794371Y19739629D01*
X12665228Y18868772D01*
X11721800Y18868772D01*
X14600571Y17090572D02*
X15471428Y17090572D01*
X15036000Y17090572D02*
X15036000Y18614572D01*
X15181142Y18396858D01*
X15326285Y18251715D01*
X15471428Y18179143D01*
G04 #@! TO.C,C16*
X21689485Y13527515D02*
X21762057Y13600086D01*
X21834628Y13817800D01*
X21834628Y13962943D01*
X21762057Y14180658D01*
X21616914Y14325800D01*
X21471771Y14398372D01*
X21181485Y14470943D01*
X20963771Y14470943D01*
X20673485Y14398372D01*
X20528342Y14325800D01*
X20383200Y14180658D01*
X20310628Y13962943D01*
X20310628Y13817800D01*
X20383200Y13600086D01*
X20455771Y13527515D01*
X21834628Y12076086D02*
X21834628Y12946943D01*
X21834628Y12511515D02*
X20310628Y12511515D01*
X20528342Y12656658D01*
X20673485Y12801800D01*
X20746057Y12946943D01*
X20310628Y10769800D02*
X20310628Y11060086D01*
X20383200Y11205229D01*
X20455771Y11277800D01*
X20673485Y11422943D01*
X20963771Y11495515D01*
X21544342Y11495515D01*
X21689485Y11422943D01*
X21762057Y11350372D01*
X21834628Y11205229D01*
X21834628Y10914943D01*
X21762057Y10769800D01*
X21689485Y10697229D01*
X21544342Y10624658D01*
X21181485Y10624658D01*
X21036342Y10697229D01*
X20963771Y10769800D01*
X20891200Y10914943D01*
X20891200Y11205229D01*
X20963771Y11350372D01*
X21036342Y11422943D01*
X21181485Y11495515D01*
G04 #@! TO.C,U1*
X1161142Y3084572D02*
X1161142Y1850858D01*
X1088571Y1705715D01*
X1016000Y1633143D01*
X870857Y1560572D01*
X580571Y1560572D01*
X435428Y1633143D01*
X362857Y1705715D01*
X290285Y1850858D01*
X290285Y3084572D01*
X-1233715Y1560572D02*
X-362858Y1560572D01*
X-798286Y1560572D02*
X-798286Y3084572D01*
X-653143Y2866858D01*
X-508000Y2721715D01*
X-362858Y2649143D01*
G04 #@! TO.C,J1*
X-12078000Y21180172D02*
X-12078000Y20091600D01*
X-12005429Y19873886D01*
X-11860286Y19728743D01*
X-11642572Y19656172D01*
X-11497429Y19656172D01*
X-13602000Y19656172D02*
X-12731143Y19656172D01*
X-13166572Y19656172D02*
X-13166572Y21180172D01*
X-13021429Y20962458D01*
X-12876286Y20817315D01*
X-12731143Y20744743D01*
X-10899429Y17090572D02*
X-10028572Y17090572D01*
X-10464000Y17090572D02*
X-10464000Y18614572D01*
X-10318858Y18396858D01*
X-10173715Y18251715D01*
X-10028572Y18179143D01*
G04 #@! TO.C,C15*
X5314285Y-11120285D02*
X5386857Y-11047714D01*
X5459428Y-10830000D01*
X5459428Y-10684857D01*
X5386857Y-10467142D01*
X5241714Y-10322000D01*
X5096571Y-10249428D01*
X4806285Y-10176857D01*
X4588571Y-10176857D01*
X4298285Y-10249428D01*
X4153142Y-10322000D01*
X4008000Y-10467142D01*
X3935428Y-10684857D01*
X3935428Y-10830000D01*
X4008000Y-11047714D01*
X4080571Y-11120285D01*
X5459428Y-12571714D02*
X5459428Y-11700857D01*
X5459428Y-12136285D02*
X3935428Y-12136285D01*
X4153142Y-11991142D01*
X4298285Y-11846000D01*
X4370857Y-11700857D01*
X3935428Y-13950571D02*
X3935428Y-13224857D01*
X4661142Y-13152285D01*
X4588571Y-13224857D01*
X4516000Y-13370000D01*
X4516000Y-13732857D01*
X4588571Y-13878000D01*
X4661142Y-13950571D01*
X4806285Y-14023142D01*
X5169142Y-14023142D01*
X5314285Y-13950571D01*
X5386857Y-13878000D01*
X5459428Y-13732857D01*
X5459428Y-13370000D01*
X5386857Y-13224857D01*
X5314285Y-13152285D01*
G04 #@! TO.C,C9*
X-1005715Y-2916000D02*
X-933143Y-2843428D01*
X-860572Y-2625714D01*
X-860572Y-2480571D01*
X-933143Y-2262857D01*
X-1078286Y-2117714D01*
X-1223429Y-2045142D01*
X-1513715Y-1972571D01*
X-1731429Y-1972571D01*
X-2021715Y-2045142D01*
X-2166858Y-2117714D01*
X-2312000Y-2262857D01*
X-2384572Y-2480571D01*
X-2384572Y-2625714D01*
X-2312000Y-2843428D01*
X-2239429Y-2916000D01*
X-860572Y-3641714D02*
X-860572Y-3932000D01*
X-933143Y-4077142D01*
X-1005715Y-4149714D01*
X-1223429Y-4294857D01*
X-1513715Y-4367428D01*
X-2094286Y-4367428D01*
X-2239429Y-4294857D01*
X-2312000Y-4222285D01*
X-2384572Y-4077142D01*
X-2384572Y-3786857D01*
X-2312000Y-3641714D01*
X-2239429Y-3569142D01*
X-2094286Y-3496571D01*
X-1731429Y-3496571D01*
X-1586286Y-3569142D01*
X-1513715Y-3641714D01*
X-1441143Y-3786857D01*
X-1441143Y-4077142D01*
X-1513715Y-4222285D01*
X-1586286Y-4294857D01*
X-1731429Y-4367428D01*
G04 #@! TO.C,C5*
X-19985715Y12954000D02*
X-19913143Y13026572D01*
X-19840572Y13244286D01*
X-19840572Y13389429D01*
X-19913143Y13607143D01*
X-20058286Y13752286D01*
X-20203429Y13824858D01*
X-20493715Y13897429D01*
X-20711429Y13897429D01*
X-21001715Y13824858D01*
X-21146858Y13752286D01*
X-21292000Y13607143D01*
X-21364572Y13389429D01*
X-21364572Y13244286D01*
X-21292000Y13026572D01*
X-21219429Y12954000D01*
X-21364572Y11575143D02*
X-21364572Y12300858D01*
X-20638858Y12373429D01*
X-20711429Y12300858D01*
X-20784000Y12155715D01*
X-20784000Y11792858D01*
X-20711429Y11647715D01*
X-20638858Y11575143D01*
X-20493715Y11502572D01*
X-20130858Y11502572D01*
X-19985715Y11575143D01*
X-19913143Y11647715D01*
X-19840572Y11792858D01*
X-19840572Y12155715D01*
X-19913143Y12300858D01*
X-19985715Y12373429D01*
G04 #@! TO.C,C7*
X-7155715Y12854000D02*
X-7083143Y12926572D01*
X-7010572Y13144286D01*
X-7010572Y13289429D01*
X-7083143Y13507143D01*
X-7228286Y13652286D01*
X-7373429Y13724858D01*
X-7663715Y13797429D01*
X-7881429Y13797429D01*
X-8171715Y13724858D01*
X-8316858Y13652286D01*
X-8462000Y13507143D01*
X-8534572Y13289429D01*
X-8534572Y13144286D01*
X-8462000Y12926572D01*
X-8389429Y12854000D01*
X-8534572Y12346000D02*
X-8534572Y11330000D01*
X-7010572Y11983143D01*
G04 #@! TO.C,C6*
X-22125515Y-10617000D02*
X-22052943Y-10544428D01*
X-21980372Y-10326714D01*
X-21980372Y-10181571D01*
X-22052943Y-9963857D01*
X-22198086Y-9818714D01*
X-22343229Y-9746142D01*
X-22633515Y-9673571D01*
X-22851229Y-9673571D01*
X-23141515Y-9746142D01*
X-23286658Y-9818714D01*
X-23431800Y-9963857D01*
X-23504372Y-10181571D01*
X-23504372Y-10326714D01*
X-23431800Y-10544428D01*
X-23359229Y-10617000D01*
X-23504372Y-11923285D02*
X-23504372Y-11633000D01*
X-23431800Y-11487857D01*
X-23359229Y-11415285D01*
X-23141515Y-11270142D01*
X-22851229Y-11197571D01*
X-22270658Y-11197571D01*
X-22125515Y-11270142D01*
X-22052943Y-11342714D01*
X-21980372Y-11487857D01*
X-21980372Y-11778142D01*
X-22052943Y-11923285D01*
X-22125515Y-11995857D01*
X-22270658Y-12068428D01*
X-22633515Y-12068428D01*
X-22778658Y-11995857D01*
X-22851229Y-11923285D01*
X-22923800Y-11778142D01*
X-22923800Y-11487857D01*
X-22851229Y-11342714D01*
X-22778658Y-11270142D01*
X-22633515Y-11197571D01*
G04 #@! TO.C,C8*
X-7255715Y-12346000D02*
X-7183143Y-12273428D01*
X-7110572Y-12055714D01*
X-7110572Y-11910571D01*
X-7183143Y-11692857D01*
X-7328286Y-11547714D01*
X-7473429Y-11475142D01*
X-7763715Y-11402571D01*
X-7981429Y-11402571D01*
X-8271715Y-11475142D01*
X-8416858Y-11547714D01*
X-8562000Y-11692857D01*
X-8634572Y-11910571D01*
X-8634572Y-12055714D01*
X-8562000Y-12273428D01*
X-8489429Y-12346000D01*
X-7981429Y-13216857D02*
X-8054000Y-13071714D01*
X-8126572Y-12999142D01*
X-8271715Y-12926571D01*
X-8344286Y-12926571D01*
X-8489429Y-12999142D01*
X-8562000Y-13071714D01*
X-8634572Y-13216857D01*
X-8634572Y-13507142D01*
X-8562000Y-13652285D01*
X-8489429Y-13724857D01*
X-8344286Y-13797428D01*
X-8271715Y-13797428D01*
X-8126572Y-13724857D01*
X-8054000Y-13652285D01*
X-7981429Y-13507142D01*
X-7981429Y-13216857D01*
X-7908858Y-13071714D01*
X-7836286Y-12999142D01*
X-7691143Y-12926571D01*
X-7400858Y-12926571D01*
X-7255715Y-12999142D01*
X-7183143Y-13071714D01*
X-7110572Y-13216857D01*
X-7110572Y-13507142D01*
X-7183143Y-13652285D01*
X-7255715Y-13724857D01*
X-7400858Y-13797428D01*
X-7691143Y-13797428D01*
X-7836286Y-13724857D01*
X-7908858Y-13652285D01*
X-7981429Y-13507142D01*
G04 #@! TO.C,C14*
X4976285Y13248115D02*
X5048857Y13320686D01*
X5121428Y13538400D01*
X5121428Y13683543D01*
X5048857Y13901258D01*
X4903714Y14046400D01*
X4758571Y14118972D01*
X4468285Y14191543D01*
X4250571Y14191543D01*
X3960285Y14118972D01*
X3815142Y14046400D01*
X3670000Y13901258D01*
X3597428Y13683543D01*
X3597428Y13538400D01*
X3670000Y13320686D01*
X3742571Y13248115D01*
X5121428Y11796686D02*
X5121428Y12667543D01*
X5121428Y12232115D02*
X3597428Y12232115D01*
X3815142Y12377258D01*
X3960285Y12522400D01*
X4032857Y12667543D01*
X4105428Y10490400D02*
X5121428Y10490400D01*
X3524857Y10853258D02*
X4613428Y11216115D01*
X4613428Y10272686D01*
G04 #@! TO.C,C17*
X23873885Y-10221485D02*
X23946457Y-10148914D01*
X24019028Y-9931200D01*
X24019028Y-9786057D01*
X23946457Y-9568342D01*
X23801314Y-9423200D01*
X23656171Y-9350628D01*
X23365885Y-9278057D01*
X23148171Y-9278057D01*
X22857885Y-9350628D01*
X22712742Y-9423200D01*
X22567600Y-9568342D01*
X22495028Y-9786057D01*
X22495028Y-9931200D01*
X22567600Y-10148914D01*
X22640171Y-10221485D01*
X24019028Y-11672914D02*
X24019028Y-10802057D01*
X24019028Y-11237485D02*
X22495028Y-11237485D01*
X22712742Y-11092342D01*
X22857885Y-10947200D01*
X22930457Y-10802057D01*
X22495028Y-12180914D02*
X22495028Y-13196914D01*
X24019028Y-12543771D01*
G04 #@! TO.C,C1*
X-19955715Y6554000D02*
X-19883143Y6626572D01*
X-19810572Y6844286D01*
X-19810572Y6989429D01*
X-19883143Y7207143D01*
X-20028286Y7352286D01*
X-20173429Y7424858D01*
X-20463715Y7497429D01*
X-20681429Y7497429D01*
X-20971715Y7424858D01*
X-21116858Y7352286D01*
X-21262000Y7207143D01*
X-21334572Y6989429D01*
X-21334572Y6844286D01*
X-21262000Y6626572D01*
X-21189429Y6554000D01*
X-19810572Y5102572D02*
X-19810572Y5973429D01*
X-19810572Y5538000D02*
X-21334572Y5538000D01*
X-21116858Y5683143D01*
X-20971715Y5828286D01*
X-20899143Y5973429D01*
G04 #@! TO.C,C3*
X-7155715Y6564000D02*
X-7083143Y6636572D01*
X-7010572Y6854286D01*
X-7010572Y6999429D01*
X-7083143Y7217143D01*
X-7228286Y7362286D01*
X-7373429Y7434858D01*
X-7663715Y7507429D01*
X-7881429Y7507429D01*
X-8171715Y7434858D01*
X-8316858Y7362286D01*
X-8462000Y7217143D01*
X-8534572Y6999429D01*
X-8534572Y6854286D01*
X-8462000Y6636572D01*
X-8389429Y6564000D01*
X-8534572Y6056000D02*
X-8534572Y5112572D01*
X-7954000Y5620572D01*
X-7954000Y5402858D01*
X-7881429Y5257715D01*
X-7808858Y5185143D01*
X-7663715Y5112572D01*
X-7300858Y5112572D01*
X-7155715Y5185143D01*
X-7083143Y5257715D01*
X-7010572Y5402858D01*
X-7010572Y5838286D01*
X-7083143Y5983429D01*
X-7155715Y6056000D01*
G04 #@! TO.C,C2*
X-20296715Y-5841800D02*
X-20224143Y-5769228D01*
X-20151572Y-5551514D01*
X-20151572Y-5406371D01*
X-20224143Y-5188657D01*
X-20369286Y-5043514D01*
X-20514429Y-4970942D01*
X-20804715Y-4898371D01*
X-21022429Y-4898371D01*
X-21312715Y-4970942D01*
X-21457858Y-5043514D01*
X-21603000Y-5188657D01*
X-21675572Y-5406371D01*
X-21675572Y-5551514D01*
X-21603000Y-5769228D01*
X-21530429Y-5841800D01*
X-21530429Y-6422371D02*
X-21603000Y-6494942D01*
X-21675572Y-6640085D01*
X-21675572Y-7002942D01*
X-21603000Y-7148085D01*
X-21530429Y-7220657D01*
X-21385286Y-7293228D01*
X-21240143Y-7293228D01*
X-21022429Y-7220657D01*
X-20151572Y-6349800D01*
X-20151572Y-7293228D01*
G04 #@! TO.C,C4*
X-7125715Y-6046000D02*
X-7053143Y-5973428D01*
X-6980572Y-5755714D01*
X-6980572Y-5610571D01*
X-7053143Y-5392857D01*
X-7198286Y-5247714D01*
X-7343429Y-5175142D01*
X-7633715Y-5102571D01*
X-7851429Y-5102571D01*
X-8141715Y-5175142D01*
X-8286858Y-5247714D01*
X-8432000Y-5392857D01*
X-8504572Y-5610571D01*
X-8504572Y-5755714D01*
X-8432000Y-5973428D01*
X-8359429Y-6046000D01*
X-7996572Y-7352285D02*
X-6980572Y-7352285D01*
X-8577143Y-6989428D02*
X-7488572Y-6626571D01*
X-7488572Y-7570000D01*
G04 #@! TO.C,C10*
X5077885Y6948915D02*
X5150457Y7021486D01*
X5223028Y7239200D01*
X5223028Y7384343D01*
X5150457Y7602058D01*
X5005314Y7747200D01*
X4860171Y7819772D01*
X4569885Y7892343D01*
X4352171Y7892343D01*
X4061885Y7819772D01*
X3916742Y7747200D01*
X3771600Y7602058D01*
X3699028Y7384343D01*
X3699028Y7239200D01*
X3771600Y7021486D01*
X3844171Y6948915D01*
X5223028Y5497486D02*
X5223028Y6368343D01*
X5223028Y5932915D02*
X3699028Y5932915D01*
X3916742Y6078058D01*
X4061885Y6223200D01*
X4134457Y6368343D01*
X3699028Y4554058D02*
X3699028Y4408915D01*
X3771600Y4263772D01*
X3844171Y4191200D01*
X3989314Y4118629D01*
X4279600Y4046058D01*
X4642457Y4046058D01*
X4932742Y4118629D01*
X5077885Y4191200D01*
X5150457Y4263772D01*
X5223028Y4408915D01*
X5223028Y4554058D01*
X5150457Y4699200D01*
X5077885Y4771772D01*
X4932742Y4844343D01*
X4642457Y4916915D01*
X4279600Y4916915D01*
X3989314Y4844343D01*
X3844171Y4771772D01*
X3771600Y4699200D01*
X3699028Y4554058D01*
G04 #@! TO.C,C12*
X21638685Y7025115D02*
X21711257Y7097686D01*
X21783828Y7315400D01*
X21783828Y7460543D01*
X21711257Y7678258D01*
X21566114Y7823400D01*
X21420971Y7895972D01*
X21130685Y7968543D01*
X20912971Y7968543D01*
X20622685Y7895972D01*
X20477542Y7823400D01*
X20332400Y7678258D01*
X20259828Y7460543D01*
X20259828Y7315400D01*
X20332400Y7097686D01*
X20404971Y7025115D01*
X21783828Y5573686D02*
X21783828Y6444543D01*
X21783828Y6009115D02*
X20259828Y6009115D01*
X20477542Y6154258D01*
X20622685Y6299400D01*
X20695257Y6444543D01*
X20404971Y4993115D02*
X20332400Y4920543D01*
X20259828Y4775400D01*
X20259828Y4412543D01*
X20332400Y4267400D01*
X20404971Y4194829D01*
X20550114Y4122258D01*
X20695257Y4122258D01*
X20912971Y4194829D01*
X21783828Y5065686D01*
X21783828Y4122258D01*
G04 #@! TO.C,C11*
X5244285Y-5320285D02*
X5316857Y-5247714D01*
X5389428Y-5030000D01*
X5389428Y-4884857D01*
X5316857Y-4667142D01*
X5171714Y-4522000D01*
X5026571Y-4449428D01*
X4736285Y-4376857D01*
X4518571Y-4376857D01*
X4228285Y-4449428D01*
X4083142Y-4522000D01*
X3938000Y-4667142D01*
X3865428Y-4884857D01*
X3865428Y-5030000D01*
X3938000Y-5247714D01*
X4010571Y-5320285D01*
X5389428Y-6771714D02*
X5389428Y-5900857D01*
X5389428Y-6336285D02*
X3865428Y-6336285D01*
X4083142Y-6191142D01*
X4228285Y-6046000D01*
X4300857Y-5900857D01*
X5389428Y-8223142D02*
X5389428Y-7352285D01*
X5389428Y-7787714D02*
X3865428Y-7787714D01*
X4083142Y-7642571D01*
X4228285Y-7497428D01*
X4300857Y-7352285D01*
G04 #@! TO.C,C13*
X21537085Y-5217685D02*
X21609657Y-5145114D01*
X21682228Y-4927400D01*
X21682228Y-4782257D01*
X21609657Y-4564542D01*
X21464514Y-4419400D01*
X21319371Y-4346828D01*
X21029085Y-4274257D01*
X20811371Y-4274257D01*
X20521085Y-4346828D01*
X20375942Y-4419400D01*
X20230800Y-4564542D01*
X20158228Y-4782257D01*
X20158228Y-4927400D01*
X20230800Y-5145114D01*
X20303371Y-5217685D01*
X21682228Y-6669114D02*
X21682228Y-5798257D01*
X21682228Y-6233685D02*
X20158228Y-6233685D01*
X20375942Y-6088542D01*
X20521085Y-5943400D01*
X20593657Y-5798257D01*
X20158228Y-7177114D02*
X20158228Y-8120542D01*
X20738800Y-7612542D01*
X20738800Y-7830257D01*
X20811371Y-7975400D01*
X20883942Y-8047971D01*
X21029085Y-8120542D01*
X21391942Y-8120542D01*
X21537085Y-8047971D01*
X21609657Y-7975400D01*
X21682228Y-7830257D01*
X21682228Y-7394828D01*
X21609657Y-7249685D01*
X21537085Y-7177114D01*
G04 #@! TD*
M02*
