M48
; DRILL file {KiCad (5.1.9-0-10_14)} date Tuesday, June 01, 2021 at 11:48:37 AM
; FORMAT={-:-/ absolute / inch / decimal}
; #@! TF.CreationDate,2021-06-01T11:48:37-04:00
; #@! TF.GenerationSoftware,Kicad,Pcbnew,(5.1.9-0-10_14)
FMAT,2
INCH
T1C0.0120
T2C0.0157
T3C0.0571
%
G90
G05
T1
X2.4811Y-3.4457
X2.4821Y-9.4102
X2.4821Y-15.3748
X2.4827Y-2.2642
X2.4833Y-8.2283
X2.4837Y-14.1933
X2.4846Y-2.3035
X2.4846Y-6.2012
X2.4846Y-6.2406
X2.4846Y-6.3193
X2.4846Y-6.3587
X2.4846Y-6.4374
X2.4846Y-6.4768
X2.4846Y-6.5555
X2.4846Y-6.5949
X2.4846Y-6.6736
X2.4846Y-6.713
X2.4846Y-6.7917
X2.4846Y-6.8311
X2.4846Y-6.9098
X2.4846Y-6.9492
X2.4846Y-7.028
X2.4846Y-7.0673
X2.4846Y-7.1461
X2.4846Y-7.1854
X2.4846Y-7.2642
X2.4846Y-7.3035
X2.4846Y-7.3823
X2.4846Y-7.4217
X2.485Y-2.3827
X2.485Y-2.422
X2.485Y-2.5008
X2.485Y-2.5402
X2.485Y-2.6189
X2.485Y-2.6583
X2.485Y-2.737
X2.485Y-2.7764
X2.485Y-2.8551
X2.485Y-2.8945
X2.485Y-2.9732
X2.485Y-3.0126
X2.485Y-3.0913
X2.485Y-3.1307
X2.485Y-3.2094
X2.485Y-3.2488
X2.485Y-3.3276
X2.485Y-3.3669
X2.4856Y-8.2681
X2.4856Y-12.1657
X2.4856Y-12.2051
X2.4856Y-12.2839
X2.4856Y-12.3232
X2.4856Y-12.402
X2.4856Y-12.4413
X2.4856Y-12.5201
X2.4856Y-12.5594
X2.4856Y-12.6382
X2.4856Y-12.6776
X2.4856Y-12.7563
X2.4856Y-12.7957
X2.4856Y-12.8744
X2.4856Y-12.9138
X2.4856Y-12.9925
X2.4856Y-13.0319
X2.4856Y-13.1106
X2.4856Y-13.15
X2.4856Y-13.2287
X2.4856Y-13.2681
X2.4856Y-13.3469
X2.4856Y-13.3862
X2.4856Y-14.2327
X2.4856Y-18.1303
X2.4856Y-18.1697
X2.4856Y-18.2484
X2.4856Y-18.2878
X2.4856Y-18.3665
X2.4856Y-18.4059
X2.4856Y-18.4846
X2.4856Y-18.524
X2.4856Y-18.6028
X2.4856Y-18.6421
X2.4856Y-18.7209
X2.4856Y-18.7602
X2.4856Y-18.839
X2.4856Y-18.8783
X2.4856Y-18.9571
X2.4856Y-18.9965
X2.4856Y-19.0752
X2.4856Y-19.1146
X2.4856Y-19.1933
X2.4856Y-19.2327
X2.4856Y-19.3114
X2.4856Y-19.3508
X2.486Y-8.3472
X2.486Y-8.3866
X2.486Y-8.4654
X2.486Y-8.5047
X2.486Y-8.5835
X2.486Y-8.6228
X2.486Y-8.7016
X2.486Y-8.7409
X2.486Y-8.8197
X2.486Y-8.8591
X2.486Y-8.9378
X2.486Y-8.9772
X2.486Y-9.0559
X2.486Y-9.0953
X2.486Y-9.174
X2.486Y-9.2134
X2.486Y-9.2921
X2.486Y-9.3315
X2.486Y-14.3118
X2.486Y-14.3512
X2.486Y-14.4299
X2.486Y-14.4693
X2.486Y-14.548
X2.486Y-14.5874
X2.486Y-14.6661
X2.486Y-14.7055
X2.486Y-14.7843
X2.486Y-14.8236
X2.486Y-14.9024
X2.486Y-14.9417
X2.486Y-15.0205
X2.486Y-15.0598
X2.486Y-15.1386
X2.486Y-15.178
X2.486Y-15.2567
X2.486Y-15.2961
X2.4913Y-4.2134
X2.4913Y-4.2921
X2.4913Y-4.3315
X2.4913Y-4.4102
X2.4913Y-4.4496
X2.4913Y-4.5283
X2.4913Y-4.5677
X2.4913Y-4.6465
X2.4913Y-4.6858
X2.4913Y-4.7646
X2.4913Y-4.8039
X2.4913Y-4.8827
X2.4913Y-4.922
X2.4913Y-5.0008
X2.4913Y-5.0402
X2.4913Y-5.1189
X2.4913Y-5.1583
X2.4913Y-5.237
X2.4913Y-5.2764
X2.4913Y-5.3551
X2.4913Y-5.3945
X2.4923Y-10.178
X2.4923Y-10.2567
X2.4923Y-10.2961
X2.4923Y-10.3748
X2.4923Y-10.4142
X2.4923Y-10.4929
X2.4923Y-10.5323
X2.4923Y-10.611
X2.4923Y-10.6504
X2.4923Y-10.7291
X2.4923Y-10.7685
X2.4923Y-10.8472
X2.4923Y-10.8866
X2.4923Y-10.9654
X2.4923Y-11.0047
X2.4923Y-11.0835
X2.4923Y-11.1228
X2.4923Y-11.2016
X2.4923Y-11.2409
X2.4923Y-11.3197
X2.4923Y-11.3591
X2.4923Y-16.1425
X2.4923Y-16.2213
X2.4923Y-16.2606
X2.4923Y-16.3394
X2.4923Y-16.3787
X2.4923Y-16.4575
X2.4923Y-16.4969
X2.4923Y-16.5756
X2.4923Y-16.615
X2.4923Y-16.6937
X2.4923Y-16.7331
X2.4923Y-16.8118
X2.4923Y-16.8512
X2.4923Y-16.9299
X2.4923Y-16.9693
X2.4923Y-17.048
X2.4923Y-17.0874
X2.4923Y-17.1661
X2.4923Y-17.2055
X2.4923Y-17.2843
X2.4923Y-17.3236
X2.7272Y-2.4732
X2.7272Y-2.5047
X2.7272Y-2.5677
X2.7272Y-2.5992
X2.7272Y-2.6622
X2.7272Y-2.6937
X2.7272Y-2.7882
X2.7272Y-2.8197
X2.7272Y-2.8827
X2.7272Y-2.9142
X2.7272Y-2.9772
X2.7272Y-3.0402
X2.7272Y-3.1031
X2.7272Y-3.1346
X2.7272Y-3.1976
X2.7272Y-3.2291
X2.7272Y-3.3236
X2.7272Y-3.3551
X2.7272Y-3.4181
X2.7272Y-3.4496
X2.7272Y-3.5126
X2.7272Y-3.5441
X2.7272Y-6.0854
X2.7272Y-6.1484
X2.7272Y-6.1799
X2.7272Y-6.2429
X2.7272Y-6.2744
X2.7272Y-6.3689
X2.7272Y-6.4004
X2.7272Y-6.4634
X2.7272Y-6.4949
X2.7272Y-6.5579
X2.7272Y-6.5894
X2.7272Y-6.6839
X2.7272Y-6.7154
X2.7272Y-6.7783
X2.7272Y-6.8098
X2.7272Y-6.8728
X2.7272Y-6.9358
X2.7272Y-6.9988
X2.7272Y-7.0303
X2.7272Y-7.0933
X2.7272Y-7.1248
X2.7276Y-3.7646
X2.7276Y-3.7961
X2.7276Y-3.8591
X2.7276Y-3.8906
X2.7276Y-3.9535
X2.7276Y-4.0165
X2.7276Y-4.0795
X2.7276Y-4.111
X2.7276Y-4.174
X2.7276Y-4.2055
X2.7276Y-4.3
X2.7276Y-5.424
X2.7276Y-5.487
X2.7276Y-5.5185
X2.7276Y-5.5815
X2.7276Y-5.613
X2.7276Y-5.7075
X2.7276Y-5.739
X2.7276Y-5.802
X2.7276Y-5.8335
X2.7276Y-5.8965
X2.7281Y-8.4378
X2.7281Y-8.4693
X2.7281Y-8.5323
X2.7281Y-8.5638
X2.7281Y-8.6268
X2.7281Y-8.6583
X2.7281Y-8.7528
X2.7281Y-8.7843
X2.7281Y-8.8472
X2.7281Y-8.8787
X2.7281Y-8.9417
X2.7281Y-9.0047
X2.7281Y-9.0677
X2.7281Y-9.0992
X2.7281Y-9.1622
X2.7281Y-9.1937
X2.7281Y-9.2882
X2.7281Y-9.3197
X2.7281Y-9.3827
X2.7281Y-9.4142
X2.7281Y-9.4772
X2.7281Y-9.5087
X2.7281Y-12.05
X2.7281Y-12.113
X2.7281Y-12.1445
X2.7281Y-12.2075
X2.7281Y-12.239
X2.7281Y-12.3335
X2.7281Y-12.365
X2.7281Y-12.428
X2.7281Y-12.4594
X2.7281Y-12.5224
X2.7281Y-12.5539
X2.7281Y-12.6484
X2.7281Y-12.6799
X2.7281Y-12.7429
X2.7281Y-12.7744
X2.7281Y-12.8374
X2.7281Y-12.9004
X2.7281Y-12.9634
X2.7281Y-12.9949
X2.7281Y-13.0579
X2.7281Y-13.0894
X2.7281Y-14.4024
X2.7281Y-14.4339
X2.7281Y-14.4969
X2.7281Y-14.5283
X2.7281Y-14.5913
X2.7281Y-14.6228
X2.7281Y-14.7173
X2.7281Y-14.7488
X2.7281Y-14.8118
X2.7281Y-14.8433
X2.7281Y-14.9063
X2.7281Y-14.9693
X2.7281Y-15.0323
X2.7281Y-15.0638
X2.7281Y-15.1268
X2.7281Y-15.1583
X2.7281Y-15.2528
X2.7281Y-15.2843
X2.7281Y-15.3472
X2.7281Y-15.3787
X2.7281Y-15.4417
X2.7281Y-15.4732
X2.7281Y-18.0146
X2.7281Y-18.0776
X2.7281Y-18.1091
X2.7281Y-18.172
X2.7281Y-18.2035
X2.7281Y-18.298
X2.7281Y-18.3295
X2.7281Y-18.3925
X2.7281Y-18.424
X2.7281Y-18.487
X2.7281Y-18.5185
X2.7281Y-18.613
X2.7281Y-18.6445
X2.7281Y-18.7075
X2.7281Y-18.739
X2.7281Y-18.802
X2.7281Y-18.865
X2.7281Y-18.928
X2.7281Y-18.9594
X2.7281Y-19.0224
X2.7281Y-19.0539
X2.7285Y-9.7291
X2.7285Y-9.7606
X2.7285Y-9.8236
X2.7285Y-9.8551
X2.7285Y-9.9181
X2.7285Y-9.9811
X2.7285Y-10.0441
X2.7285Y-10.0756
X2.7285Y-10.1386
X2.7285Y-10.1701
X2.7285Y-10.2646
X2.7285Y-11.3886
X2.7285Y-11.4516
X2.7285Y-11.4831
X2.7285Y-11.5461
X2.7285Y-11.5776
X2.7285Y-11.672
X2.7285Y-11.7035
X2.7285Y-11.7665
X2.7285Y-11.798
X2.7285Y-11.861
X2.7285Y-15.6937
X2.7285Y-15.7252
X2.7285Y-15.7882
X2.7285Y-15.8197
X2.7285Y-15.8827
X2.7285Y-15.9457
X2.7285Y-16.0087
X2.7285Y-16.0402
X2.7285Y-16.1031
X2.7285Y-16.1346
X2.7285Y-16.2291
X2.7285Y-17.3531
X2.7285Y-17.4161
X2.7285Y-17.4476
X2.7285Y-17.5106
X2.7285Y-17.5421
X2.7285Y-17.6366
X2.7285Y-17.6681
X2.7285Y-17.7311
X2.7285Y-17.7626
X2.7285Y-17.8256
X3.0197Y-3.7644
X3.0197Y-3.7959
X3.0197Y-3.8589
X3.0197Y-3.8904
X3.0197Y-3.9533
X3.0197Y-4.0163
X3.0197Y-4.0793
X3.0197Y-4.1108
X3.0197Y-4.1738
X3.0197Y-4.2053
X3.0197Y-4.2998
X3.0197Y-5.4238
X3.0197Y-5.4868
X3.0197Y-5.5183
X3.0197Y-5.5813
X3.0197Y-5.6128
X3.0197Y-5.7073
X3.0197Y-5.7388
X3.0197Y-5.8018
X3.0197Y-5.8333
X3.0197Y-5.8963
X3.0201Y-2.473
X3.0201Y-2.5045
X3.0201Y-2.5675
X3.0201Y-2.599
X3.0201Y-2.662
X3.0201Y-2.6935
X3.0201Y-2.788
X3.0201Y-2.8195
X3.0201Y-2.8825
X3.0201Y-2.914
X3.0201Y-2.977
X3.0201Y-3.04
X3.0201Y-3.103
X3.0201Y-3.1344
X3.0201Y-3.1974
X3.0201Y-3.2289
X3.0201Y-3.3234
X3.0201Y-3.3549
X3.0201Y-3.4179
X3.0201Y-3.4494
X3.0201Y-3.5124
X3.0201Y-3.5439
X3.0201Y-6.0852
X3.0201Y-6.1482
X3.0201Y-6.1797
X3.0201Y-6.2427
X3.0201Y-6.2742
X3.0201Y-6.3687
X3.0201Y-6.4002
X3.0201Y-6.4632
X3.0201Y-6.4947
X3.0201Y-6.5577
X3.0201Y-6.5892
X3.0201Y-6.6837
X3.0201Y-6.7152
X3.0201Y-6.7781
X3.0201Y-6.8096
X3.0201Y-6.8726
X3.0201Y-6.9356
X3.0201Y-6.9986
X3.0201Y-7.0301
X3.0201Y-7.0931
X3.0201Y-7.1246
X3.0207Y-9.7289
X3.0207Y-9.7604
X3.0207Y-9.8234
X3.0207Y-9.8549
X3.0207Y-9.9179
X3.0207Y-9.9809
X3.0207Y-10.0439
X3.0207Y-10.0754
X3.0207Y-10.1384
X3.0207Y-10.1699
X3.0207Y-10.2644
X3.0207Y-11.3884
X3.0207Y-11.4514
X3.0207Y-11.4829
X3.0207Y-11.5459
X3.0207Y-11.5774
X3.0207Y-11.6719
X3.0207Y-11.7033
X3.0207Y-11.7663
X3.0207Y-11.7978
X3.0207Y-11.8608
X3.0207Y-15.6935
X3.0207Y-15.725
X3.0207Y-15.788
X3.0207Y-15.8195
X3.0207Y-15.8825
X3.0207Y-15.9455
X3.0207Y-16.0085
X3.0207Y-16.04
X3.0207Y-16.103
X3.0207Y-16.1344
X3.0207Y-16.2289
X3.0207Y-17.353
X3.0207Y-17.4159
X3.0207Y-17.4474
X3.0207Y-17.5104
X3.0207Y-17.5419
X3.0207Y-17.6364
X3.0207Y-17.6679
X3.0207Y-17.7309
X3.0207Y-17.7624
X3.0207Y-17.8254
X3.0211Y-8.4376
X3.0211Y-8.4691
X3.0211Y-8.5321
X3.0211Y-8.5636
X3.0211Y-8.6266
X3.0211Y-8.6581
X3.0211Y-8.7526
X3.0211Y-8.7841
X3.0211Y-8.847
X3.0211Y-8.8785
X3.0211Y-8.9415
X3.0211Y-9.0045
X3.0211Y-9.0675
X3.0211Y-9.099
X3.0211Y-9.162
X3.0211Y-9.1935
X3.0211Y-9.288
X3.0211Y-9.3195
X3.0211Y-9.3825
X3.0211Y-9.414
X3.0211Y-9.477
X3.0211Y-9.5085
X3.0211Y-12.0498
X3.0211Y-12.1128
X3.0211Y-12.1443
X3.0211Y-12.2073
X3.0211Y-12.2388
X3.0211Y-12.3333
X3.0211Y-12.3648
X3.0211Y-12.4278
X3.0211Y-12.4593
X3.0211Y-12.5222
X3.0211Y-12.5537
X3.0211Y-12.6482
X3.0211Y-12.6797
X3.0211Y-12.7427
X3.0211Y-12.7742
X3.0211Y-12.8372
X3.0211Y-12.9002
X3.0211Y-12.9632
X3.0211Y-12.9947
X3.0211Y-13.0577
X3.0211Y-13.0892
X3.0211Y-14.4022
X3.0211Y-14.4337
X3.0211Y-14.4967
X3.0211Y-14.5281
X3.0211Y-14.5911
X3.0211Y-14.6226
X3.0211Y-14.7171
X3.0211Y-14.7486
X3.0211Y-14.8116
X3.0211Y-14.8431
X3.0211Y-14.9061
X3.0211Y-14.9691
X3.0211Y-15.0321
X3.0211Y-15.0636
X3.0211Y-15.1266
X3.0211Y-15.1581
X3.0211Y-15.2526
X3.0211Y-15.2841
X3.0211Y-15.347
X3.0211Y-15.3785
X3.0211Y-15.4415
X3.0211Y-15.473
X3.0211Y-18.0144
X3.0211Y-18.0774
X3.0211Y-18.1089
X3.0211Y-18.1719
X3.0211Y-18.2033
X3.0211Y-18.2978
X3.0211Y-18.3293
X3.0211Y-18.3923
X3.0211Y-18.4238
X3.0211Y-18.4868
X3.0211Y-18.5183
X3.0211Y-18.6128
X3.0211Y-18.6443
X3.0211Y-18.7073
X3.0211Y-18.7388
X3.0211Y-18.8018
X3.0211Y-18.8648
X3.0211Y-18.9278
X3.0211Y-18.9593
X3.0211Y-19.0222
X3.0211Y-19.0537
X3.2559Y-4.2132
X3.2559Y-4.2919
X3.2559Y-4.3313
X3.2559Y-4.41
X3.2559Y-4.4494
X3.2559Y-4.5281
X3.2559Y-4.5675
X3.2559Y-4.6463
X3.2559Y-4.6856
X3.2559Y-4.7644
X3.2559Y-4.8037
X3.2559Y-4.8825
X3.2559Y-4.9219
X3.2559Y-5.0006
X3.2559Y-5.04
X3.2559Y-5.1187
X3.2559Y-5.1581
X3.2559Y-5.2368
X3.2559Y-5.2762
X3.2559Y-5.3549
X3.2559Y-5.3943
X3.2569Y-10.1778
X3.2569Y-10.2565
X3.2569Y-10.2959
X3.2569Y-10.3746
X3.2569Y-10.414
X3.2569Y-10.4927
X3.2569Y-10.5321
X3.2569Y-10.6108
X3.2569Y-10.6502
X3.2569Y-10.7289
X3.2569Y-10.7683
X3.2569Y-10.847
X3.2569Y-10.8864
X3.2569Y-10.9652
X3.2569Y-11.0045
X3.2569Y-11.0833
X3.2569Y-11.1226
X3.2569Y-11.2014
X3.2569Y-11.2407
X3.2569Y-11.3195
X3.2569Y-11.3589
X3.2569Y-16.1423
X3.2569Y-16.2211
X3.2569Y-16.2604
X3.2569Y-16.3392
X3.2569Y-16.3785
X3.2569Y-16.4573
X3.2569Y-16.4967
X3.2569Y-16.5754
X3.2569Y-16.6148
X3.2569Y-16.6935
X3.2569Y-16.7329
X3.2569Y-16.8116
X3.2569Y-16.851
X3.2569Y-16.9297
X3.2569Y-16.9691
X3.2569Y-17.0478
X3.2569Y-17.0872
X3.2569Y-17.1659
X3.2569Y-17.2053
X3.2569Y-17.2841
X3.2569Y-17.3234
X3.2622Y-2.3825
X3.2622Y-2.4219
X3.2622Y-2.5006
X3.2622Y-2.54
X3.2622Y-2.6187
X3.2622Y-2.6581
X3.2622Y-2.7368
X3.2622Y-2.7762
X3.2622Y-2.8549
X3.2622Y-2.8943
X3.2622Y-2.973
X3.2622Y-3.0124
X3.2622Y-3.0911
X3.2622Y-3.1305
X3.2622Y-3.2093
X3.2622Y-3.2486
X3.2622Y-3.3274
X3.2622Y-3.3667
X3.2626Y-2.3033
X3.2626Y-6.201
X3.2626Y-6.2404
X3.2626Y-6.3191
X3.2626Y-6.3585
X3.2626Y-6.4372
X3.2626Y-6.4766
X3.2626Y-6.5553
X3.2626Y-6.5947
X3.2626Y-6.6734
X3.2626Y-6.7128
X3.2626Y-6.7915
X3.2626Y-6.8309
X3.2626Y-6.9096
X3.2626Y-6.949
X3.2626Y-7.0278
X3.2626Y-7.0671
X3.2626Y-7.1459
X3.2626Y-7.1852
X3.2626Y-7.264
X3.2626Y-7.3033
X3.2626Y-7.3821
X3.2626Y-7.4215
X3.2632Y-8.347
X3.2632Y-8.3864
X3.2632Y-8.4652
X3.2632Y-8.5045
X3.2632Y-8.5833
X3.2632Y-8.6226
X3.2632Y-8.7014
X3.2632Y-8.7407
X3.2632Y-8.8195
X3.2632Y-8.8589
X3.2632Y-8.9376
X3.2632Y-8.977
X3.2632Y-9.0557
X3.2632Y-9.0951
X3.2632Y-9.1738
X3.2632Y-9.2132
X3.2632Y-9.2919
X3.2632Y-9.3313
X3.2632Y-14.3116
X3.2632Y-14.351
X3.2632Y-14.4297
X3.2632Y-14.4691
X3.2632Y-14.5478
X3.2632Y-14.5872
X3.2632Y-14.6659
X3.2632Y-14.7053
X3.2632Y-14.7841
X3.2632Y-14.8234
X3.2632Y-14.9022
X3.2632Y-14.9415
X3.2632Y-15.0203
X3.2632Y-15.0596
X3.2632Y-15.1384
X3.2632Y-15.1778
X3.2632Y-15.2565
X3.2632Y-15.2959
X3.2636Y-8.2679
X3.2636Y-12.1656
X3.2636Y-12.2049
X3.2636Y-12.2837
X3.2636Y-12.323
X3.2636Y-12.4018
X3.2636Y-12.4411
X3.2636Y-12.5199
X3.2636Y-12.5593
X3.2636Y-12.638
X3.2636Y-12.6774
X3.2636Y-12.7561
X3.2636Y-12.7955
X3.2636Y-12.8742
X3.2636Y-12.9136
X3.2636Y-12.9923
X3.2636Y-13.0317
X3.2636Y-13.1104
X3.2636Y-13.1498
X3.2636Y-13.2285
X3.2636Y-13.2679
X3.2636Y-13.3467
X3.2636Y-13.386
X3.2636Y-14.2325
X3.2636Y-18.1301
X3.2636Y-18.1695
X3.2636Y-18.2482
X3.2636Y-18.2876
X3.2636Y-18.3663
X3.2636Y-18.4057
X3.2636Y-18.4844
X3.2636Y-18.5238
X3.2636Y-18.6026
X3.2636Y-18.6419
X3.2636Y-18.7207
X3.2636Y-18.76
X3.2636Y-18.8388
X3.2636Y-18.8781
X3.2636Y-18.9569
X3.2636Y-18.9963
X3.2636Y-19.075
X3.2636Y-19.1144
X3.2636Y-19.1931
X3.2636Y-19.2325
X3.2636Y-19.3112
X3.2636Y-19.3506
X3.2646Y-2.264
X3.2656Y-8.2285
X3.2656Y-14.1931
X3.2661Y-3.4455
X3.2671Y-9.41
X3.2671Y-15.3746
X4.4693Y-3.4457
X4.4703Y-9.4102
X4.4703Y-15.3748
X4.4709Y-2.2642
X4.4715Y-8.2283
X4.4719Y-14.1933
X4.4728Y-2.3035
X4.4728Y-6.2012
X4.4728Y-6.2406
X4.4728Y-6.3193
X4.4728Y-6.3587
X4.4728Y-6.4374
X4.4728Y-6.4768
X4.4728Y-6.5555
X4.4728Y-6.5949
X4.4728Y-6.6736
X4.4728Y-6.713
X4.4728Y-6.7917
X4.4728Y-6.8311
X4.4728Y-6.9098
X4.4728Y-6.9492
X4.4728Y-7.028
X4.4728Y-7.0673
X4.4728Y-7.1461
X4.4728Y-7.1854
X4.4728Y-7.2642
X4.4728Y-7.3035
X4.4728Y-7.3823
X4.4728Y-7.4217
X4.4732Y-2.3827
X4.4732Y-2.422
X4.4732Y-2.5008
X4.4732Y-2.5402
X4.4732Y-2.6189
X4.4732Y-2.6583
X4.4732Y-2.737
X4.4732Y-2.7764
X4.4732Y-2.8551
X4.4732Y-2.8945
X4.4732Y-2.9732
X4.4732Y-3.0126
X4.4732Y-3.0913
X4.4732Y-3.1307
X4.4732Y-3.2094
X4.4732Y-3.2488
X4.4732Y-3.3276
X4.4732Y-3.3669
X4.4738Y-8.2681
X4.4738Y-12.1657
X4.4738Y-12.2051
X4.4738Y-12.2839
X4.4738Y-12.3232
X4.4738Y-12.402
X4.4738Y-12.4413
X4.4738Y-12.5201
X4.4738Y-12.5594
X4.4738Y-12.6382
X4.4738Y-12.6776
X4.4738Y-12.7563
X4.4738Y-12.7957
X4.4738Y-12.8744
X4.4738Y-12.9138
X4.4738Y-12.9925
X4.4738Y-13.0319
X4.4738Y-13.1106
X4.4738Y-13.15
X4.4738Y-13.2287
X4.4738Y-13.2681
X4.4738Y-13.3469
X4.4738Y-13.3862
X4.4738Y-14.2327
X4.4738Y-18.1303
X4.4738Y-18.1697
X4.4738Y-18.2484
X4.4738Y-18.2878
X4.4738Y-18.3665
X4.4738Y-18.4059
X4.4738Y-18.4846
X4.4738Y-18.524
X4.4738Y-18.6028
X4.4738Y-18.6421
X4.4738Y-18.7209
X4.4738Y-18.7602
X4.4738Y-18.839
X4.4738Y-18.8783
X4.4738Y-18.9571
X4.4738Y-18.9965
X4.4738Y-19.0752
X4.4738Y-19.1146
X4.4738Y-19.1933
X4.4738Y-19.2327
X4.4738Y-19.3114
X4.4738Y-19.3508
X4.4742Y-8.3472
X4.4742Y-8.3866
X4.4742Y-8.4654
X4.4742Y-8.5047
X4.4742Y-8.5835
X4.4742Y-8.6228
X4.4742Y-8.7016
X4.4742Y-8.7409
X4.4742Y-8.8197
X4.4742Y-8.8591
X4.4742Y-8.9378
X4.4742Y-8.9772
X4.4742Y-9.0559
X4.4742Y-9.0953
X4.4742Y-9.174
X4.4742Y-9.2134
X4.4742Y-9.2921
X4.4742Y-9.3315
X4.4742Y-14.3118
X4.4742Y-14.3512
X4.4742Y-14.4299
X4.4742Y-14.4693
X4.4742Y-14.548
X4.4742Y-14.5874
X4.4742Y-14.6661
X4.4742Y-14.7055
X4.4742Y-14.7843
X4.4742Y-14.8236
X4.4742Y-14.9024
X4.4742Y-14.9417
X4.4742Y-15.0205
X4.4742Y-15.0598
X4.4742Y-15.1386
X4.4742Y-15.178
X4.4742Y-15.2567
X4.4742Y-15.2961
X4.4795Y-4.2134
X4.4795Y-4.2921
X4.4795Y-4.3315
X4.4795Y-4.4102
X4.4795Y-4.4496
X4.4795Y-4.5283
X4.4795Y-4.5677
X4.4795Y-4.6465
X4.4795Y-4.6858
X4.4795Y-4.7646
X4.4795Y-4.8039
X4.4795Y-4.8827
X4.4795Y-4.922
X4.4795Y-5.0008
X4.4795Y-5.0402
X4.4795Y-5.1189
X4.4795Y-5.1583
X4.4795Y-5.237
X4.4795Y-5.2764
X4.4795Y-5.3551
X4.4795Y-5.3945
X4.4805Y-10.178
X4.4805Y-10.2567
X4.4805Y-10.2961
X4.4805Y-10.3748
X4.4805Y-10.4142
X4.4805Y-10.4929
X4.4805Y-10.5323
X4.4805Y-10.611
X4.4805Y-10.6504
X4.4805Y-10.7291
X4.4805Y-10.7685
X4.4805Y-10.8472
X4.4805Y-10.8866
X4.4805Y-10.9654
X4.4805Y-11.0047
X4.4805Y-11.0835
X4.4805Y-11.1228
X4.4805Y-11.2016
X4.4805Y-11.2409
X4.4805Y-11.3197
X4.4805Y-11.3591
X4.4805Y-16.1425
X4.4805Y-16.2213
X4.4805Y-16.2606
X4.4805Y-16.3394
X4.4805Y-16.3787
X4.4805Y-16.4575
X4.4805Y-16.4969
X4.4805Y-16.5756
X4.4805Y-16.615
X4.4805Y-16.6937
X4.4805Y-16.7331
X4.4805Y-16.8118
X4.4805Y-16.8512
X4.4805Y-16.9299
X4.4805Y-16.9693
X4.4805Y-17.048
X4.4805Y-17.0874
X4.4805Y-17.1661
X4.4805Y-17.2055
X4.4805Y-17.2843
X4.4805Y-17.3236
X4.7154Y-2.4732
X4.7154Y-2.5047
X4.7154Y-2.5677
X4.7154Y-2.5992
X4.7154Y-2.6622
X4.7154Y-2.6937
X4.7154Y-2.7882
X4.7154Y-2.8197
X4.7154Y-2.8827
X4.7154Y-2.9142
X4.7154Y-2.9772
X4.7154Y-3.0402
X4.7154Y-3.1031
X4.7154Y-3.1346
X4.7154Y-3.1976
X4.7154Y-3.2291
X4.7154Y-3.3236
X4.7154Y-3.3551
X4.7154Y-3.4181
X4.7154Y-3.4496
X4.7154Y-3.5126
X4.7154Y-3.5441
X4.7154Y-6.0854
X4.7154Y-6.1484
X4.7154Y-6.1799
X4.7154Y-6.2429
X4.7154Y-6.2744
X4.7154Y-6.3689
X4.7154Y-6.4004
X4.7154Y-6.4634
X4.7154Y-6.4949
X4.7154Y-6.5579
X4.7154Y-6.5894
X4.7154Y-6.6839
X4.7154Y-6.7154
X4.7154Y-6.7783
X4.7154Y-6.8098
X4.7154Y-6.8728
X4.7154Y-6.9358
X4.7154Y-6.9988
X4.7154Y-7.0303
X4.7154Y-7.0933
X4.7154Y-7.1248
X4.7157Y-3.7646
X4.7157Y-3.7961
X4.7157Y-3.8591
X4.7157Y-3.8906
X4.7157Y-3.9535
X4.7157Y-4.0165
X4.7157Y-4.0795
X4.7157Y-4.111
X4.7157Y-4.174
X4.7157Y-4.2055
X4.7157Y-4.3
X4.7157Y-5.424
X4.7157Y-5.487
X4.7157Y-5.5185
X4.7157Y-5.5815
X4.7157Y-5.613
X4.7157Y-5.7075
X4.7157Y-5.739
X4.7157Y-5.802
X4.7157Y-5.8335
X4.7157Y-5.8965
X4.7163Y-8.4378
X4.7163Y-8.4693
X4.7163Y-8.5323
X4.7163Y-8.5638
X4.7163Y-8.6268
X4.7163Y-8.6583
X4.7163Y-8.7528
X4.7163Y-8.7843
X4.7163Y-8.8472
X4.7163Y-8.8787
X4.7163Y-8.9417
X4.7163Y-9.0047
X4.7163Y-9.0677
X4.7163Y-9.0992
X4.7163Y-9.1622
X4.7163Y-9.1937
X4.7163Y-9.2882
X4.7163Y-9.3197
X4.7163Y-9.3827
X4.7163Y-9.4142
X4.7163Y-9.4772
X4.7163Y-9.5087
X4.7163Y-12.05
X4.7163Y-12.113
X4.7163Y-12.1445
X4.7163Y-12.2075
X4.7163Y-12.239
X4.7163Y-12.3335
X4.7163Y-12.365
X4.7163Y-12.428
X4.7163Y-12.4594
X4.7163Y-12.5224
X4.7163Y-12.5539
X4.7163Y-12.6484
X4.7163Y-12.6799
X4.7163Y-12.7429
X4.7163Y-12.7744
X4.7163Y-12.8374
X4.7163Y-12.9004
X4.7163Y-12.9634
X4.7163Y-12.9949
X4.7163Y-13.0579
X4.7163Y-13.0894
X4.7163Y-14.4024
X4.7163Y-14.4339
X4.7163Y-14.4969
X4.7163Y-14.5283
X4.7163Y-14.5913
X4.7163Y-14.6228
X4.7163Y-14.7173
X4.7163Y-14.7488
X4.7163Y-14.8118
X4.7163Y-14.8433
X4.7163Y-14.9063
X4.7163Y-14.9693
X4.7163Y-15.0323
X4.7163Y-15.0638
X4.7163Y-15.1268
X4.7163Y-15.1583
X4.7163Y-15.2528
X4.7163Y-15.2843
X4.7163Y-15.3472
X4.7163Y-15.3787
X4.7163Y-15.4417
X4.7163Y-15.4732
X4.7163Y-18.0146
X4.7163Y-18.0776
X4.7163Y-18.1091
X4.7163Y-18.172
X4.7163Y-18.2035
X4.7163Y-18.298
X4.7163Y-18.3295
X4.7163Y-18.3925
X4.7163Y-18.424
X4.7163Y-18.487
X4.7163Y-18.5185
X4.7163Y-18.613
X4.7163Y-18.6445
X4.7163Y-18.7075
X4.7163Y-18.739
X4.7163Y-18.802
X4.7163Y-18.865
X4.7163Y-18.928
X4.7163Y-18.9594
X4.7163Y-19.0224
X4.7163Y-19.0539
X4.7167Y-9.7291
X4.7167Y-9.7606
X4.7167Y-9.8236
X4.7167Y-9.8551
X4.7167Y-9.9181
X4.7167Y-9.9811
X4.7167Y-10.0441
X4.7167Y-10.0756
X4.7167Y-10.1386
X4.7167Y-10.1701
X4.7167Y-10.2646
X4.7167Y-11.3886
X4.7167Y-11.4516
X4.7167Y-11.4831
X4.7167Y-11.5461
X4.7167Y-11.5776
X4.7167Y-11.672
X4.7167Y-11.7035
X4.7167Y-11.7665
X4.7167Y-11.798
X4.7167Y-11.861
X4.7167Y-15.6937
X4.7167Y-15.7252
X4.7167Y-15.7882
X4.7167Y-15.8197
X4.7167Y-15.8827
X4.7167Y-15.9457
X4.7167Y-16.0087
X4.7167Y-16.0402
X4.7167Y-16.1031
X4.7167Y-16.1346
X4.7167Y-16.2291
X4.7167Y-17.3531
X4.7167Y-17.4161
X4.7167Y-17.4476
X4.7167Y-17.5106
X4.7167Y-17.5421
X4.7167Y-17.6366
X4.7167Y-17.6681
X4.7167Y-17.7311
X4.7167Y-17.7626
X4.7167Y-17.8256
X5.0079Y-3.7644
X5.0079Y-3.7959
X5.0079Y-3.8589
X5.0079Y-3.8904
X5.0079Y-3.9533
X5.0079Y-4.0163
X5.0079Y-4.0793
X5.0079Y-4.1108
X5.0079Y-4.1738
X5.0079Y-4.2053
X5.0079Y-4.2998
X5.0079Y-5.4238
X5.0079Y-5.4868
X5.0079Y-5.5183
X5.0079Y-5.5813
X5.0079Y-5.6128
X5.0079Y-5.7073
X5.0079Y-5.7388
X5.0079Y-5.8018
X5.0079Y-5.8333
X5.0079Y-5.8963
X5.0083Y-2.473
X5.0083Y-2.5045
X5.0083Y-2.5675
X5.0083Y-2.599
X5.0083Y-2.662
X5.0083Y-2.6935
X5.0083Y-2.788
X5.0083Y-2.8195
X5.0083Y-2.8825
X5.0083Y-2.914
X5.0083Y-2.977
X5.0083Y-3.04
X5.0083Y-3.103
X5.0083Y-3.1344
X5.0083Y-3.1974
X5.0083Y-3.2289
X5.0083Y-3.3234
X5.0083Y-3.3549
X5.0083Y-3.4179
X5.0083Y-3.4494
X5.0083Y-3.5124
X5.0083Y-3.5439
X5.0083Y-6.0852
X5.0083Y-6.1482
X5.0083Y-6.1797
X5.0083Y-6.2427
X5.0083Y-6.2742
X5.0083Y-6.3687
X5.0083Y-6.4002
X5.0083Y-6.4632
X5.0083Y-6.4947
X5.0083Y-6.5577
X5.0083Y-6.5892
X5.0083Y-6.6837
X5.0083Y-6.7152
X5.0083Y-6.7781
X5.0083Y-6.8096
X5.0083Y-6.8726
X5.0083Y-6.9356
X5.0083Y-6.9986
X5.0083Y-7.0301
X5.0083Y-7.0931
X5.0083Y-7.1246
X5.0089Y-9.7289
X5.0089Y-9.7604
X5.0089Y-9.8234
X5.0089Y-9.8549
X5.0089Y-9.9179
X5.0089Y-9.9809
X5.0089Y-10.0439
X5.0089Y-10.0754
X5.0089Y-10.1384
X5.0089Y-10.1699
X5.0089Y-10.2644
X5.0089Y-11.3884
X5.0089Y-11.4514
X5.0089Y-11.4829
X5.0089Y-11.5459
X5.0089Y-11.5774
X5.0089Y-11.6719
X5.0089Y-11.7033
X5.0089Y-11.7663
X5.0089Y-11.7978
X5.0089Y-11.8608
X5.0089Y-15.6935
X5.0089Y-15.725
X5.0089Y-15.788
X5.0089Y-15.8195
X5.0089Y-15.8825
X5.0089Y-15.9455
X5.0089Y-16.0085
X5.0089Y-16.04
X5.0089Y-16.103
X5.0089Y-16.1344
X5.0089Y-16.2289
X5.0089Y-17.353
X5.0089Y-17.4159
X5.0089Y-17.4474
X5.0089Y-17.5104
X5.0089Y-17.5419
X5.0089Y-17.6364
X5.0089Y-17.6679
X5.0089Y-17.7309
X5.0089Y-17.7624
X5.0089Y-17.8254
X5.0093Y-8.4376
X5.0093Y-8.4691
X5.0093Y-8.5321
X5.0093Y-8.5636
X5.0093Y-8.6266
X5.0093Y-8.6581
X5.0093Y-8.7526
X5.0093Y-8.7841
X5.0093Y-8.847
X5.0093Y-8.8785
X5.0093Y-8.9415
X5.0093Y-9.0045
X5.0093Y-9.0675
X5.0093Y-9.099
X5.0093Y-9.162
X5.0093Y-9.1935
X5.0093Y-9.288
X5.0093Y-9.3195
X5.0093Y-9.3825
X5.0093Y-9.414
X5.0093Y-9.477
X5.0093Y-9.5085
X5.0093Y-12.0498
X5.0093Y-12.1128
X5.0093Y-12.1443
X5.0093Y-12.2073
X5.0093Y-12.2388
X5.0093Y-12.3333
X5.0093Y-12.3648
X5.0093Y-12.4278
X5.0093Y-12.4593
X5.0093Y-12.5222
X5.0093Y-12.5537
X5.0093Y-12.6482
X5.0093Y-12.6797
X5.0093Y-12.7427
X5.0093Y-12.7742
X5.0093Y-12.8372
X5.0093Y-12.9002
X5.0093Y-12.9632
X5.0093Y-12.9947
X5.0093Y-13.0577
X5.0093Y-13.0892
X5.0093Y-14.4022
X5.0093Y-14.4337
X5.0093Y-14.4967
X5.0093Y-14.5281
X5.0093Y-14.5911
X5.0093Y-14.6226
X5.0093Y-14.7171
X5.0093Y-14.7486
X5.0093Y-14.8116
X5.0093Y-14.8431
X5.0093Y-14.9061
X5.0093Y-14.9691
X5.0093Y-15.0321
X5.0093Y-15.0636
X5.0093Y-15.1266
X5.0093Y-15.1581
X5.0093Y-15.2526
X5.0093Y-15.2841
X5.0093Y-15.347
X5.0093Y-15.3785
X5.0093Y-15.4415
X5.0093Y-15.473
X5.0093Y-18.0144
X5.0093Y-18.0774
X5.0093Y-18.1089
X5.0093Y-18.1719
X5.0093Y-18.2033
X5.0093Y-18.2978
X5.0093Y-18.3293
X5.0093Y-18.3923
X5.0093Y-18.4238
X5.0093Y-18.4868
X5.0093Y-18.5183
X5.0093Y-18.6128
X5.0093Y-18.6443
X5.0093Y-18.7073
X5.0093Y-18.7388
X5.0093Y-18.8018
X5.0093Y-18.8648
X5.0093Y-18.9278
X5.0093Y-18.9593
X5.0093Y-19.0222
X5.0093Y-19.0537
X5.2441Y-4.2132
X5.2441Y-4.2919
X5.2441Y-4.3313
X5.2441Y-4.41
X5.2441Y-4.4494
X5.2441Y-4.5281
X5.2441Y-4.5675
X5.2441Y-4.6463
X5.2441Y-4.6856
X5.2441Y-4.7644
X5.2441Y-4.8037
X5.2441Y-4.8825
X5.2441Y-4.9219
X5.2441Y-5.0006
X5.2441Y-5.04
X5.2441Y-5.1187
X5.2441Y-5.1581
X5.2441Y-5.2368
X5.2441Y-5.2762
X5.2441Y-5.3549
X5.2441Y-5.3943
X5.2451Y-10.1778
X5.2451Y-10.2565
X5.2451Y-10.2959
X5.2451Y-10.3746
X5.2451Y-10.414
X5.2451Y-10.4927
X5.2451Y-10.5321
X5.2451Y-10.6108
X5.2451Y-10.6502
X5.2451Y-10.7289
X5.2451Y-10.7683
X5.2451Y-10.847
X5.2451Y-10.8864
X5.2451Y-10.9652
X5.2451Y-11.0045
X5.2451Y-11.0833
X5.2451Y-11.1226
X5.2451Y-11.2014
X5.2451Y-11.2407
X5.2451Y-11.3195
X5.2451Y-11.3589
X5.2451Y-16.1423
X5.2451Y-16.2211
X5.2451Y-16.2604
X5.2451Y-16.3392
X5.2451Y-16.3785
X5.2451Y-16.4573
X5.2451Y-16.4967
X5.2451Y-16.5754
X5.2451Y-16.6148
X5.2451Y-16.6935
X5.2451Y-16.7329
X5.2451Y-16.8116
X5.2451Y-16.851
X5.2451Y-16.9297
X5.2451Y-16.9691
X5.2451Y-17.0478
X5.2451Y-17.0872
X5.2451Y-17.1659
X5.2451Y-17.2053
X5.2451Y-17.2841
X5.2451Y-17.3234
X5.2504Y-2.3825
X5.2504Y-2.4219
X5.2504Y-2.5006
X5.2504Y-2.54
X5.2504Y-2.6187
X5.2504Y-2.6581
X5.2504Y-2.7368
X5.2504Y-2.7762
X5.2504Y-2.8549
X5.2504Y-2.8943
X5.2504Y-2.973
X5.2504Y-3.0124
X5.2504Y-3.0911
X5.2504Y-3.1305
X5.2504Y-3.2093
X5.2504Y-3.2486
X5.2504Y-3.3274
X5.2504Y-3.3667
X5.2508Y-2.3033
X5.2508Y-6.201
X5.2508Y-6.2404
X5.2508Y-6.3191
X5.2508Y-6.3585
X5.2508Y-6.4372
X5.2508Y-6.4766
X5.2508Y-6.5553
X5.2508Y-6.5947
X5.2508Y-6.6734
X5.2508Y-6.7128
X5.2508Y-6.7915
X5.2508Y-6.8309
X5.2508Y-6.9096
X5.2508Y-6.949
X5.2508Y-7.0278
X5.2508Y-7.0671
X5.2508Y-7.1459
X5.2508Y-7.1852
X5.2508Y-7.264
X5.2508Y-7.3033
X5.2508Y-7.3821
X5.2508Y-7.4215
X5.2514Y-8.347
X5.2514Y-8.3864
X5.2514Y-8.4652
X5.2514Y-8.5045
X5.2514Y-8.5833
X5.2514Y-8.6226
X5.2514Y-8.7014
X5.2514Y-8.7407
X5.2514Y-8.8195
X5.2514Y-8.8589
X5.2514Y-8.9376
X5.2514Y-8.977
X5.2514Y-9.0557
X5.2514Y-9.0951
X5.2514Y-9.1738
X5.2514Y-9.2132
X5.2514Y-9.2919
X5.2514Y-9.3313
X5.2514Y-14.3116
X5.2514Y-14.351
X5.2514Y-14.4297
X5.2514Y-14.4691
X5.2514Y-14.5478
X5.2514Y-14.5872
X5.2514Y-14.6659
X5.2514Y-14.7053
X5.2514Y-14.7841
X5.2514Y-14.8234
X5.2514Y-14.9022
X5.2514Y-14.9415
X5.2514Y-15.0203
X5.2514Y-15.0596
X5.2514Y-15.1384
X5.2514Y-15.1778
X5.2514Y-15.2565
X5.2514Y-15.2959
X5.2518Y-8.2679
X5.2518Y-12.1656
X5.2518Y-12.2049
X5.2518Y-12.2837
X5.2518Y-12.323
X5.2518Y-12.4018
X5.2518Y-12.4411
X5.2518Y-12.5199
X5.2518Y-12.5593
X5.2518Y-12.638
X5.2518Y-12.6774
X5.2518Y-12.7561
X5.2518Y-12.7955
X5.2518Y-12.8742
X5.2518Y-12.9136
X5.2518Y-12.9923
X5.2518Y-13.0317
X5.2518Y-13.1104
X5.2518Y-13.1498
X5.2518Y-13.2285
X5.2518Y-13.2679
X5.2518Y-13.3467
X5.2518Y-13.386
X5.2518Y-14.2325
X5.2518Y-18.1301
X5.2518Y-18.1695
X5.2518Y-18.2482
X5.2518Y-18.2876
X5.2518Y-18.3663
X5.2518Y-18.4057
X5.2518Y-18.4844
X5.2518Y-18.5238
X5.2518Y-18.6026
X5.2518Y-18.6419
X5.2518Y-18.7207
X5.2518Y-18.76
X5.2518Y-18.8388
X5.2518Y-18.8781
X5.2518Y-18.9569
X5.2518Y-18.9963
X5.2518Y-19.075
X5.2518Y-19.1144
X5.2518Y-19.1931
X5.2518Y-19.2325
X5.2518Y-19.3112
X5.2518Y-19.3506
X5.2528Y-2.264
X5.2537Y-8.2285
X5.2537Y-14.1931
X5.2543Y-3.4455
X5.2553Y-9.41
X5.2553Y-15.3746
X6.4575Y-3.4457
X6.4585Y-9.4102
X6.4585Y-15.3748
X6.4591Y-2.2642
X6.4596Y-8.2283
X6.46Y-14.1933
X6.461Y-2.3035
X6.461Y-6.2012
X6.461Y-6.2406
X6.461Y-6.3193
X6.461Y-6.3587
X6.461Y-6.4374
X6.461Y-6.4768
X6.461Y-6.5555
X6.461Y-6.5949
X6.461Y-6.6736
X6.461Y-6.713
X6.461Y-6.7917
X6.461Y-6.8311
X6.461Y-6.9098
X6.461Y-6.9492
X6.461Y-7.028
X6.461Y-7.0673
X6.461Y-7.1461
X6.461Y-7.1854
X6.461Y-7.2642
X6.461Y-7.3035
X6.461Y-7.3823
X6.461Y-7.4217
X6.4614Y-2.3827
X6.4614Y-2.422
X6.4614Y-2.5008
X6.4614Y-2.5402
X6.4614Y-2.6189
X6.4614Y-2.6583
X6.4614Y-2.737
X6.4614Y-2.7764
X6.4614Y-2.8551
X6.4614Y-2.8945
X6.4614Y-2.9732
X6.4614Y-3.0126
X6.4614Y-3.0913
X6.4614Y-3.1307
X6.4614Y-3.2094
X6.4614Y-3.2488
X6.4614Y-3.3276
X6.4614Y-3.3669
X6.462Y-8.2681
X6.462Y-12.1657
X6.462Y-12.2051
X6.462Y-12.2839
X6.462Y-12.3232
X6.462Y-12.402
X6.462Y-12.4413
X6.462Y-12.5201
X6.462Y-12.5594
X6.462Y-12.6382
X6.462Y-12.6776
X6.462Y-12.7563
X6.462Y-12.7957
X6.462Y-12.8744
X6.462Y-12.9138
X6.462Y-12.9925
X6.462Y-13.0319
X6.462Y-13.1106
X6.462Y-13.15
X6.462Y-13.2287
X6.462Y-13.2681
X6.462Y-13.3469
X6.462Y-13.3862
X6.462Y-14.2327
X6.462Y-18.1303
X6.462Y-18.1697
X6.462Y-18.2484
X6.462Y-18.2878
X6.462Y-18.3665
X6.462Y-18.4059
X6.462Y-18.4846
X6.462Y-18.524
X6.462Y-18.6028
X6.462Y-18.6421
X6.462Y-18.7209
X6.462Y-18.7602
X6.462Y-18.839
X6.462Y-18.8783
X6.462Y-18.9571
X6.462Y-18.9965
X6.462Y-19.0752
X6.462Y-19.1146
X6.462Y-19.1933
X6.462Y-19.2327
X6.462Y-19.3114
X6.462Y-19.3508
X6.4624Y-8.3472
X6.4624Y-8.3866
X6.4624Y-8.4654
X6.4624Y-8.5047
X6.4624Y-8.5835
X6.4624Y-8.6228
X6.4624Y-8.7016
X6.4624Y-8.7409
X6.4624Y-8.8197
X6.4624Y-8.8591
X6.4624Y-8.9378
X6.4624Y-8.9772
X6.4624Y-9.0559
X6.4624Y-9.0953
X6.4624Y-9.174
X6.4624Y-9.2134
X6.4624Y-9.2921
X6.4624Y-9.3315
X6.4624Y-14.3118
X6.4624Y-14.3512
X6.4624Y-14.4299
X6.4624Y-14.4693
X6.4624Y-14.548
X6.4624Y-14.5874
X6.4624Y-14.6661
X6.4624Y-14.7055
X6.4624Y-14.7843
X6.4624Y-14.8236
X6.4624Y-14.9024
X6.4624Y-14.9417
X6.4624Y-15.0205
X6.4624Y-15.0598
X6.4624Y-15.1386
X6.4624Y-15.178
X6.4624Y-15.2567
X6.4624Y-15.2961
X6.4677Y-4.2134
X6.4677Y-4.2921
X6.4677Y-4.3315
X6.4677Y-4.4102
X6.4677Y-4.4496
X6.4677Y-4.5283
X6.4677Y-4.5677
X6.4677Y-4.6465
X6.4677Y-4.6858
X6.4677Y-4.7646
X6.4677Y-4.8039
X6.4677Y-4.8827
X6.4677Y-4.922
X6.4677Y-5.0008
X6.4677Y-5.0402
X6.4677Y-5.1189
X6.4677Y-5.1583
X6.4677Y-5.237
X6.4677Y-5.2764
X6.4677Y-5.3551
X6.4677Y-5.3945
X6.4687Y-10.178
X6.4687Y-10.2567
X6.4687Y-10.2961
X6.4687Y-10.3748
X6.4687Y-10.4142
X6.4687Y-10.4929
X6.4687Y-10.5323
X6.4687Y-10.611
X6.4687Y-10.6504
X6.4687Y-10.7291
X6.4687Y-10.7685
X6.4687Y-10.8472
X6.4687Y-10.8866
X6.4687Y-10.9654
X6.4687Y-11.0047
X6.4687Y-11.0835
X6.4687Y-11.1228
X6.4687Y-11.2016
X6.4687Y-11.2409
X6.4687Y-11.3197
X6.4687Y-11.3591
X6.4687Y-16.1425
X6.4687Y-16.2213
X6.4687Y-16.2606
X6.4687Y-16.3394
X6.4687Y-16.3787
X6.4687Y-16.4575
X6.4687Y-16.4969
X6.4687Y-16.5756
X6.4687Y-16.615
X6.4687Y-16.6937
X6.4687Y-16.7331
X6.4687Y-16.8118
X6.4687Y-16.8512
X6.4687Y-16.9299
X6.4687Y-16.9693
X6.4687Y-17.048
X6.4687Y-17.0874
X6.4687Y-17.1661
X6.4687Y-17.2055
X6.4687Y-17.2843
X6.4687Y-17.3236
X6.7035Y-2.4732
X6.7035Y-2.5047
X6.7035Y-2.5677
X6.7035Y-2.5992
X6.7035Y-2.6622
X6.7035Y-2.6937
X6.7035Y-2.7882
X6.7035Y-2.8197
X6.7035Y-2.8827
X6.7035Y-2.9142
X6.7035Y-2.9772
X6.7035Y-3.0402
X6.7035Y-3.1031
X6.7035Y-3.1346
X6.7035Y-3.1976
X6.7035Y-3.2291
X6.7035Y-3.3236
X6.7035Y-3.3551
X6.7035Y-3.4181
X6.7035Y-3.4496
X6.7035Y-3.5126
X6.7035Y-3.5441
X6.7035Y-6.0854
X6.7035Y-6.1484
X6.7035Y-6.1799
X6.7035Y-6.2429
X6.7035Y-6.2744
X6.7035Y-6.3689
X6.7035Y-6.4004
X6.7035Y-6.4634
X6.7035Y-6.4949
X6.7035Y-6.5579
X6.7035Y-6.5894
X6.7035Y-6.6839
X6.7035Y-6.7154
X6.7035Y-6.7783
X6.7035Y-6.8098
X6.7035Y-6.8728
X6.7035Y-6.9358
X6.7035Y-6.9988
X6.7035Y-7.0303
X6.7035Y-7.0933
X6.7035Y-7.1248
X6.7039Y-3.7646
X6.7039Y-3.7961
X6.7039Y-3.8591
X6.7039Y-3.8906
X6.7039Y-3.9535
X6.7039Y-4.0165
X6.7039Y-4.0795
X6.7039Y-4.111
X6.7039Y-4.174
X6.7039Y-4.2055
X6.7039Y-4.3
X6.7039Y-5.424
X6.7039Y-5.487
X6.7039Y-5.5185
X6.7039Y-5.5815
X6.7039Y-5.613
X6.7039Y-5.7075
X6.7039Y-5.739
X6.7039Y-5.802
X6.7039Y-5.8335
X6.7039Y-5.8965
X6.7045Y-8.4378
X6.7045Y-8.4693
X6.7045Y-8.5323
X6.7045Y-8.5638
X6.7045Y-8.6268
X6.7045Y-8.6583
X6.7045Y-8.7528
X6.7045Y-8.7843
X6.7045Y-8.8472
X6.7045Y-8.8787
X6.7045Y-8.9417
X6.7045Y-9.0047
X6.7045Y-9.0677
X6.7045Y-9.0992
X6.7045Y-9.1622
X6.7045Y-9.1937
X6.7045Y-9.2882
X6.7045Y-9.3197
X6.7045Y-9.3827
X6.7045Y-9.4142
X6.7045Y-9.4772
X6.7045Y-9.5087
X6.7045Y-12.05
X6.7045Y-12.113
X6.7045Y-12.1445
X6.7045Y-12.2075
X6.7045Y-12.239
X6.7045Y-12.3335
X6.7045Y-12.365
X6.7045Y-12.428
X6.7045Y-12.4594
X6.7045Y-12.5224
X6.7045Y-12.5539
X6.7045Y-12.6484
X6.7045Y-12.6799
X6.7045Y-12.7429
X6.7045Y-12.7744
X6.7045Y-12.8374
X6.7045Y-12.9004
X6.7045Y-12.9634
X6.7045Y-12.9949
X6.7045Y-13.0579
X6.7045Y-13.0894
X6.7045Y-14.4024
X6.7045Y-14.4339
X6.7045Y-14.4969
X6.7045Y-14.5283
X6.7045Y-14.5913
X6.7045Y-14.6228
X6.7045Y-14.7173
X6.7045Y-14.7488
X6.7045Y-14.8118
X6.7045Y-14.8433
X6.7045Y-14.9063
X6.7045Y-14.9693
X6.7045Y-15.0323
X6.7045Y-15.0638
X6.7045Y-15.1268
X6.7045Y-15.1583
X6.7045Y-15.2528
X6.7045Y-15.2843
X6.7045Y-15.3472
X6.7045Y-15.3787
X6.7045Y-15.4417
X6.7045Y-15.4732
X6.7045Y-18.0146
X6.7045Y-18.0776
X6.7045Y-18.1091
X6.7045Y-18.172
X6.7045Y-18.2035
X6.7045Y-18.298
X6.7045Y-18.3295
X6.7045Y-18.3925
X6.7045Y-18.424
X6.7045Y-18.487
X6.7045Y-18.5185
X6.7045Y-18.613
X6.7045Y-18.6445
X6.7045Y-18.7075
X6.7045Y-18.739
X6.7045Y-18.802
X6.7045Y-18.865
X6.7045Y-18.928
X6.7045Y-18.9594
X6.7045Y-19.0224
X6.7045Y-19.0539
X6.7049Y-9.7291
X6.7049Y-9.7606
X6.7049Y-9.8236
X6.7049Y-9.8551
X6.7049Y-9.9181
X6.7049Y-9.9811
X6.7049Y-10.0441
X6.7049Y-10.0756
X6.7049Y-10.1386
X6.7049Y-10.1701
X6.7049Y-10.2646
X6.7049Y-11.3886
X6.7049Y-11.4516
X6.7049Y-11.4831
X6.7049Y-11.5461
X6.7049Y-11.5776
X6.7049Y-11.672
X6.7049Y-11.7035
X6.7049Y-11.7665
X6.7049Y-11.798
X6.7049Y-11.861
X6.7049Y-15.6937
X6.7049Y-15.7252
X6.7049Y-15.7882
X6.7049Y-15.8197
X6.7049Y-15.8827
X6.7049Y-15.9457
X6.7049Y-16.0087
X6.7049Y-16.0402
X6.7049Y-16.1031
X6.7049Y-16.1346
X6.7049Y-16.2291
X6.7049Y-17.3531
X6.7049Y-17.4161
X6.7049Y-17.4476
X6.7049Y-17.5106
X6.7049Y-17.5421
X6.7049Y-17.6366
X6.7049Y-17.6681
X6.7049Y-17.7311
X6.7049Y-17.7626
X6.7049Y-17.8256
X6.9961Y-3.7644
X6.9961Y-3.7959
X6.9961Y-3.8589
X6.9961Y-3.8904
X6.9961Y-3.9533
X6.9961Y-4.0163
X6.9961Y-4.0793
X6.9961Y-4.1108
X6.9961Y-4.1738
X6.9961Y-4.2053
X6.9961Y-4.2998
X6.9961Y-5.4238
X6.9961Y-5.4868
X6.9961Y-5.5183
X6.9961Y-5.5813
X6.9961Y-5.6128
X6.9961Y-5.7073
X6.9961Y-5.7388
X6.9961Y-5.8018
X6.9961Y-5.8333
X6.9961Y-5.8963
X6.9965Y-2.473
X6.9965Y-2.5045
X6.9965Y-2.5675
X6.9965Y-2.599
X6.9965Y-2.662
X6.9965Y-2.6935
X6.9965Y-2.788
X6.9965Y-2.8195
X6.9965Y-2.8825
X6.9965Y-2.914
X6.9965Y-2.977
X6.9965Y-3.04
X6.9965Y-3.103
X6.9965Y-3.1344
X6.9965Y-3.1974
X6.9965Y-3.2289
X6.9965Y-3.3234
X6.9965Y-3.3549
X6.9965Y-3.4179
X6.9965Y-3.4494
X6.9965Y-3.5124
X6.9965Y-3.5439
X6.9965Y-6.0852
X6.9965Y-6.1482
X6.9965Y-6.1797
X6.9965Y-6.2427
X6.9965Y-6.2742
X6.9965Y-6.3687
X6.9965Y-6.4002
X6.9965Y-6.4632
X6.9965Y-6.4947
X6.9965Y-6.5577
X6.9965Y-6.5892
X6.9965Y-6.6837
X6.9965Y-6.7152
X6.9965Y-6.7781
X6.9965Y-6.8096
X6.9965Y-6.8726
X6.9965Y-6.9356
X6.9965Y-6.9986
X6.9965Y-7.0301
X6.9965Y-7.0931
X6.9965Y-7.1246
X6.997Y-9.7289
X6.997Y-9.7604
X6.997Y-9.8234
X6.997Y-9.8549
X6.997Y-9.9179
X6.997Y-9.9809
X6.997Y-10.0439
X6.997Y-10.0754
X6.997Y-10.1384
X6.997Y-10.1699
X6.997Y-10.2644
X6.997Y-11.3884
X6.997Y-11.4514
X6.997Y-11.4829
X6.997Y-11.5459
X6.997Y-11.5774
X6.997Y-11.6719
X6.997Y-11.7033
X6.997Y-11.7663
X6.997Y-11.7978
X6.997Y-11.8608
X6.997Y-15.6935
X6.997Y-15.725
X6.997Y-15.788
X6.997Y-15.8195
X6.997Y-15.8825
X6.997Y-15.9455
X6.997Y-16.0085
X6.997Y-16.04
X6.997Y-16.103
X6.997Y-16.1344
X6.997Y-16.2289
X6.997Y-17.353
X6.997Y-17.4159
X6.997Y-17.4474
X6.997Y-17.5104
X6.997Y-17.5419
X6.997Y-17.6364
X6.997Y-17.6679
X6.997Y-17.7309
X6.997Y-17.7624
X6.997Y-17.8254
X6.9974Y-8.4376
X6.9974Y-8.4691
X6.9974Y-8.5321
X6.9974Y-8.5636
X6.9974Y-8.6266
X6.9974Y-8.6581
X6.9974Y-8.7526
X6.9974Y-8.7841
X6.9974Y-8.847
X6.9974Y-8.8785
X6.9974Y-8.9415
X6.9974Y-9.0045
X6.9974Y-9.0675
X6.9974Y-9.099
X6.9974Y-9.162
X6.9974Y-9.1935
X6.9974Y-9.288
X6.9974Y-9.3195
X6.9974Y-9.3825
X6.9974Y-9.414
X6.9974Y-9.477
X6.9974Y-9.5085
X6.9974Y-12.0498
X6.9974Y-12.1128
X6.9974Y-12.1443
X6.9974Y-12.2073
X6.9974Y-12.2388
X6.9974Y-12.3333
X6.9974Y-12.3648
X6.9974Y-12.4278
X6.9974Y-12.4593
X6.9974Y-12.5222
X6.9974Y-12.5537
X6.9974Y-12.6482
X6.9974Y-12.6797
X6.9974Y-12.7427
X6.9974Y-12.7742
X6.9974Y-12.8372
X6.9974Y-12.9002
X6.9974Y-12.9632
X6.9974Y-12.9947
X6.9974Y-13.0577
X6.9974Y-13.0892
X6.9974Y-14.4022
X6.9974Y-14.4337
X6.9974Y-14.4967
X6.9974Y-14.5281
X6.9974Y-14.5911
X6.9974Y-14.6226
X6.9974Y-14.7171
X6.9974Y-14.7486
X6.9974Y-14.8116
X6.9974Y-14.8431
X6.9974Y-14.9061
X6.9974Y-14.9691
X6.9974Y-15.0321
X6.9974Y-15.0636
X6.9974Y-15.1266
X6.9974Y-15.1581
X6.9974Y-15.2526
X6.9974Y-15.2841
X6.9974Y-15.347
X6.9974Y-15.3785
X6.9974Y-15.4415
X6.9974Y-15.473
X6.9974Y-18.0144
X6.9974Y-18.0774
X6.9974Y-18.1089
X6.9974Y-18.1719
X6.9974Y-18.2033
X6.9974Y-18.2978
X6.9974Y-18.3293
X6.9974Y-18.3923
X6.9974Y-18.4238
X6.9974Y-18.4868
X6.9974Y-18.5183
X6.9974Y-18.6128
X6.9974Y-18.6443
X6.9974Y-18.7073
X6.9974Y-18.7388
X6.9974Y-18.8018
X6.9974Y-18.8648
X6.9974Y-18.9278
X6.9974Y-18.9593
X6.9974Y-19.0222
X6.9974Y-19.0537
X7.2323Y-4.2132
X7.2323Y-4.2919
X7.2323Y-4.3313
X7.2323Y-4.41
X7.2323Y-4.4494
X7.2323Y-4.5281
X7.2323Y-4.5675
X7.2323Y-4.6463
X7.2323Y-4.6856
X7.2323Y-4.7644
X7.2323Y-4.8037
X7.2323Y-4.8825
X7.2323Y-4.9219
X7.2323Y-5.0006
X7.2323Y-5.04
X7.2323Y-5.1187
X7.2323Y-5.1581
X7.2323Y-5.2368
X7.2323Y-5.2762
X7.2323Y-5.3549
X7.2323Y-5.3943
X7.2333Y-10.1778
X7.2333Y-10.2565
X7.2333Y-10.2959
X7.2333Y-10.3746
X7.2333Y-10.414
X7.2333Y-10.4927
X7.2333Y-10.5321
X7.2333Y-10.6108
X7.2333Y-10.6502
X7.2333Y-10.7289
X7.2333Y-10.7683
X7.2333Y-10.847
X7.2333Y-10.8864
X7.2333Y-10.9652
X7.2333Y-11.0045
X7.2333Y-11.0833
X7.2333Y-11.1226
X7.2333Y-11.2014
X7.2333Y-11.2407
X7.2333Y-11.3195
X7.2333Y-11.3589
X7.2333Y-16.1423
X7.2333Y-16.2211
X7.2333Y-16.2604
X7.2333Y-16.3392
X7.2333Y-16.3785
X7.2333Y-16.4573
X7.2333Y-16.4967
X7.2333Y-16.5754
X7.2333Y-16.6148
X7.2333Y-16.6935
X7.2333Y-16.7329
X7.2333Y-16.8116
X7.2333Y-16.851
X7.2333Y-16.9297
X7.2333Y-16.9691
X7.2333Y-17.0478
X7.2333Y-17.0872
X7.2333Y-17.1659
X7.2333Y-17.2053
X7.2333Y-17.2841
X7.2333Y-17.3234
X7.2386Y-2.3825
X7.2386Y-2.4219
X7.2386Y-2.5006
X7.2386Y-2.54
X7.2386Y-2.6187
X7.2386Y-2.6581
X7.2386Y-2.7368
X7.2386Y-2.7762
X7.2386Y-2.8549
X7.2386Y-2.8943
X7.2386Y-2.973
X7.2386Y-3.0124
X7.2386Y-3.0911
X7.2386Y-3.1305
X7.2386Y-3.2093
X7.2386Y-3.2486
X7.2386Y-3.3274
X7.2386Y-3.3667
X7.239Y-2.3033
X7.239Y-6.201
X7.239Y-6.2404
X7.239Y-6.3191
X7.239Y-6.3585
X7.239Y-6.4372
X7.239Y-6.4766
X7.239Y-6.5553
X7.239Y-6.5947
X7.239Y-6.6734
X7.239Y-6.7128
X7.239Y-6.7915
X7.239Y-6.8309
X7.239Y-6.9096
X7.239Y-6.949
X7.239Y-7.0278
X7.239Y-7.0671
X7.239Y-7.1459
X7.239Y-7.1852
X7.239Y-7.264
X7.239Y-7.3033
X7.239Y-7.3821
X7.239Y-7.4215
X7.2396Y-8.347
X7.2396Y-8.3864
X7.2396Y-8.4652
X7.2396Y-8.5045
X7.2396Y-8.5833
X7.2396Y-8.6226
X7.2396Y-8.7014
X7.2396Y-8.7407
X7.2396Y-8.8195
X7.2396Y-8.8589
X7.2396Y-8.9376
X7.2396Y-8.977
X7.2396Y-9.0557
X7.2396Y-9.0951
X7.2396Y-9.1738
X7.2396Y-9.2132
X7.2396Y-9.2919
X7.2396Y-9.3313
X7.2396Y-14.3116
X7.2396Y-14.351
X7.2396Y-14.4297
X7.2396Y-14.4691
X7.2396Y-14.5478
X7.2396Y-14.5872
X7.2396Y-14.6659
X7.2396Y-14.7053
X7.2396Y-14.7841
X7.2396Y-14.8234
X7.2396Y-14.9022
X7.2396Y-14.9415
X7.2396Y-15.0203
X7.2396Y-15.0596
X7.2396Y-15.1384
X7.2396Y-15.1778
X7.2396Y-15.2565
X7.2396Y-15.2959
X7.24Y-8.2679
X7.24Y-12.1656
X7.24Y-12.2049
X7.24Y-12.2837
X7.24Y-12.323
X7.24Y-12.4018
X7.24Y-12.4411
X7.24Y-12.5199
X7.24Y-12.5593
X7.24Y-12.638
X7.24Y-12.6774
X7.24Y-12.7561
X7.24Y-12.7955
X7.24Y-12.8742
X7.24Y-12.9136
X7.24Y-12.9923
X7.24Y-13.0317
X7.24Y-13.1104
X7.24Y-13.1498
X7.24Y-13.2285
X7.24Y-13.2679
X7.24Y-13.3467
X7.24Y-13.386
X7.24Y-14.2325
X7.24Y-18.1301
X7.24Y-18.1695
X7.24Y-18.2482
X7.24Y-18.2876
X7.24Y-18.3663
X7.24Y-18.4057
X7.24Y-18.4844
X7.24Y-18.5238
X7.24Y-18.6026
X7.24Y-18.6419
X7.24Y-18.7207
X7.24Y-18.76
X7.24Y-18.8388
X7.24Y-18.8781
X7.24Y-18.9569
X7.24Y-18.9963
X7.24Y-19.075
X7.24Y-19.1144
X7.24Y-19.1931
X7.24Y-19.2325
X7.24Y-19.3112
X7.24Y-19.3506
X7.2409Y-2.264
X7.2419Y-8.2285
X7.2419Y-14.1931
X7.2425Y-3.4455
X7.2435Y-9.41
X7.2435Y-15.3746
X8.4457Y-3.4457
X8.4467Y-9.4102
X8.4467Y-15.3748
X8.4472Y-2.2642
X8.4478Y-8.2283
X8.4482Y-14.1933
X8.4492Y-2.3035
X8.4492Y-6.2012
X8.4492Y-6.2406
X8.4492Y-6.3193
X8.4492Y-6.3587
X8.4492Y-6.4374
X8.4492Y-6.4768
X8.4492Y-6.5555
X8.4492Y-6.5949
X8.4492Y-6.6736
X8.4492Y-6.713
X8.4492Y-6.7917
X8.4492Y-6.8311
X8.4492Y-6.9098
X8.4492Y-6.9492
X8.4492Y-7.028
X8.4492Y-7.0673
X8.4492Y-7.1461
X8.4492Y-7.1854
X8.4492Y-7.2642
X8.4492Y-7.3035
X8.4492Y-7.3823
X8.4492Y-7.4217
X8.4496Y-2.3827
X8.4496Y-2.422
X8.4496Y-2.5008
X8.4496Y-2.5402
X8.4496Y-2.6189
X8.4496Y-2.6583
X8.4496Y-2.737
X8.4496Y-2.7764
X8.4496Y-2.8551
X8.4496Y-2.8945
X8.4496Y-2.9732
X8.4496Y-3.0126
X8.4496Y-3.0913
X8.4496Y-3.1307
X8.4496Y-3.2094
X8.4496Y-3.2488
X8.4496Y-3.3276
X8.4496Y-3.3669
X8.4502Y-8.2681
X8.4502Y-12.1657
X8.4502Y-12.2051
X8.4502Y-12.2839
X8.4502Y-12.3232
X8.4502Y-12.402
X8.4502Y-12.4413
X8.4502Y-12.5201
X8.4502Y-12.5594
X8.4502Y-12.6382
X8.4502Y-12.6776
X8.4502Y-12.7563
X8.4502Y-12.7957
X8.4502Y-12.8744
X8.4502Y-12.9138
X8.4502Y-12.9925
X8.4502Y-13.0319
X8.4502Y-13.1106
X8.4502Y-13.15
X8.4502Y-13.2287
X8.4502Y-13.2681
X8.4502Y-13.3469
X8.4502Y-13.3862
X8.4502Y-14.2327
X8.4502Y-18.1303
X8.4502Y-18.1697
X8.4502Y-18.2484
X8.4502Y-18.2878
X8.4502Y-18.3665
X8.4502Y-18.4059
X8.4502Y-18.4846
X8.4502Y-18.524
X8.4502Y-18.6028
X8.4502Y-18.6421
X8.4502Y-18.7209
X8.4502Y-18.7602
X8.4502Y-18.839
X8.4502Y-18.8783
X8.4502Y-18.9571
X8.4502Y-18.9965
X8.4502Y-19.0752
X8.4502Y-19.1146
X8.4502Y-19.1933
X8.4502Y-19.2327
X8.4502Y-19.3114
X8.4502Y-19.3508
X8.4506Y-8.3472
X8.4506Y-8.3866
X8.4506Y-8.4654
X8.4506Y-8.5047
X8.4506Y-8.5835
X8.4506Y-8.6228
X8.4506Y-8.7016
X8.4506Y-8.7409
X8.4506Y-8.8197
X8.4506Y-8.8591
X8.4506Y-8.9378
X8.4506Y-8.9772
X8.4506Y-9.0559
X8.4506Y-9.0953
X8.4506Y-9.174
X8.4506Y-9.2134
X8.4506Y-9.2921
X8.4506Y-9.3315
X8.4506Y-14.3118
X8.4506Y-14.3512
X8.4506Y-14.4299
X8.4506Y-14.4693
X8.4506Y-14.548
X8.4506Y-14.5874
X8.4506Y-14.6661
X8.4506Y-14.7055
X8.4506Y-14.7843
X8.4506Y-14.8236
X8.4506Y-14.9024
X8.4506Y-14.9417
X8.4506Y-15.0205
X8.4506Y-15.0598
X8.4506Y-15.1386
X8.4506Y-15.178
X8.4506Y-15.2567
X8.4506Y-15.2961
X8.4559Y-4.2134
X8.4559Y-4.2921
X8.4559Y-4.3315
X8.4559Y-4.4102
X8.4559Y-4.4496
X8.4559Y-4.5283
X8.4559Y-4.5677
X8.4559Y-4.6465
X8.4559Y-4.6858
X8.4559Y-4.7646
X8.4559Y-4.8039
X8.4559Y-4.8827
X8.4559Y-4.922
X8.4559Y-5.0008
X8.4559Y-5.0402
X8.4559Y-5.1189
X8.4559Y-5.1583
X8.4559Y-5.237
X8.4559Y-5.2764
X8.4559Y-5.3551
X8.4559Y-5.3945
X8.4569Y-10.178
X8.4569Y-10.2567
X8.4569Y-10.2961
X8.4569Y-10.3748
X8.4569Y-10.4142
X8.4569Y-10.4929
X8.4569Y-10.5323
X8.4569Y-10.611
X8.4569Y-10.6504
X8.4569Y-10.7291
X8.4569Y-10.7685
X8.4569Y-10.8472
X8.4569Y-10.8866
X8.4569Y-10.9654
X8.4569Y-11.0047
X8.4569Y-11.0835
X8.4569Y-11.1228
X8.4569Y-11.2016
X8.4569Y-11.2409
X8.4569Y-11.3197
X8.4569Y-11.3591
X8.4569Y-16.1425
X8.4569Y-16.2213
X8.4569Y-16.2606
X8.4569Y-16.3394
X8.4569Y-16.3787
X8.4569Y-16.4575
X8.4569Y-16.4969
X8.4569Y-16.5756
X8.4569Y-16.615
X8.4569Y-16.6937
X8.4569Y-16.7331
X8.4569Y-16.8118
X8.4569Y-16.8512
X8.4569Y-16.9299
X8.4569Y-16.9693
X8.4569Y-17.048
X8.4569Y-17.0874
X8.4569Y-17.1661
X8.4569Y-17.2055
X8.4569Y-17.2843
X8.4569Y-17.3236
X8.6917Y-2.4732
X8.6917Y-2.5047
X8.6917Y-2.5677
X8.6917Y-2.5992
X8.6917Y-2.6622
X8.6917Y-2.6937
X8.6917Y-2.7882
X8.6917Y-2.8197
X8.6917Y-2.8827
X8.6917Y-2.9142
X8.6917Y-2.9772
X8.6917Y-3.0402
X8.6917Y-3.1031
X8.6917Y-3.1346
X8.6917Y-3.1976
X8.6917Y-3.2291
X8.6917Y-3.3236
X8.6917Y-3.3551
X8.6917Y-3.4181
X8.6917Y-3.4496
X8.6917Y-3.5126
X8.6917Y-3.5441
X8.6917Y-6.0854
X8.6917Y-6.1484
X8.6917Y-6.1799
X8.6917Y-6.2429
X8.6917Y-6.2744
X8.6917Y-6.3689
X8.6917Y-6.4004
X8.6917Y-6.4634
X8.6917Y-6.4949
X8.6917Y-6.5579
X8.6917Y-6.5894
X8.6917Y-6.6839
X8.6917Y-6.7154
X8.6917Y-6.7783
X8.6917Y-6.8098
X8.6917Y-6.8728
X8.6917Y-6.9358
X8.6917Y-6.9988
X8.6917Y-7.0303
X8.6917Y-7.0933
X8.6917Y-7.1248
X8.6921Y-3.7646
X8.6921Y-3.7961
X8.6921Y-3.8591
X8.6921Y-3.8906
X8.6921Y-3.9535
X8.6921Y-4.0165
X8.6921Y-4.0795
X8.6921Y-4.111
X8.6921Y-4.174
X8.6921Y-4.2055
X8.6921Y-4.3
X8.6921Y-5.424
X8.6921Y-5.487
X8.6921Y-5.5185
X8.6921Y-5.5815
X8.6921Y-5.613
X8.6921Y-5.7075
X8.6921Y-5.739
X8.6921Y-5.802
X8.6921Y-5.8335
X8.6921Y-5.8965
X8.6927Y-8.4378
X8.6927Y-8.4693
X8.6927Y-8.5323
X8.6927Y-8.5638
X8.6927Y-8.6268
X8.6927Y-8.6583
X8.6927Y-8.7528
X8.6927Y-8.7843
X8.6927Y-8.8472
X8.6927Y-8.8787
X8.6927Y-8.9417
X8.6927Y-9.0047
X8.6927Y-9.0677
X8.6927Y-9.0992
X8.6927Y-9.1622
X8.6927Y-9.1937
X8.6927Y-9.2882
X8.6927Y-9.3197
X8.6927Y-9.3827
X8.6927Y-9.4142
X8.6927Y-9.4772
X8.6927Y-9.5087
X8.6927Y-12.05
X8.6927Y-12.113
X8.6927Y-12.1445
X8.6927Y-12.2075
X8.6927Y-12.239
X8.6927Y-12.3335
X8.6927Y-12.365
X8.6927Y-12.428
X8.6927Y-12.4594
X8.6927Y-12.5224
X8.6927Y-12.5539
X8.6927Y-12.6484
X8.6927Y-12.6799
X8.6927Y-12.7429
X8.6927Y-12.7744
X8.6927Y-12.8374
X8.6927Y-12.9004
X8.6927Y-12.9634
X8.6927Y-12.9949
X8.6927Y-13.0579
X8.6927Y-13.0894
X8.6927Y-14.4024
X8.6927Y-14.4339
X8.6927Y-14.4969
X8.6927Y-14.5283
X8.6927Y-14.5913
X8.6927Y-14.6228
X8.6927Y-14.7173
X8.6927Y-14.7488
X8.6927Y-14.8118
X8.6927Y-14.8433
X8.6927Y-14.9063
X8.6927Y-14.9693
X8.6927Y-15.0323
X8.6927Y-15.0638
X8.6927Y-15.1268
X8.6927Y-15.1583
X8.6927Y-15.2528
X8.6927Y-15.2843
X8.6927Y-15.3472
X8.6927Y-15.3787
X8.6927Y-15.4417
X8.6927Y-15.4732
X8.6927Y-18.0146
X8.6927Y-18.0776
X8.6927Y-18.1091
X8.6927Y-18.172
X8.6927Y-18.2035
X8.6927Y-18.298
X8.6927Y-18.3295
X8.6927Y-18.3925
X8.6927Y-18.424
X8.6927Y-18.487
X8.6927Y-18.5185
X8.6927Y-18.613
X8.6927Y-18.6445
X8.6927Y-18.7075
X8.6927Y-18.739
X8.6927Y-18.802
X8.6927Y-18.865
X8.6927Y-18.928
X8.6927Y-18.9594
X8.6927Y-19.0224
X8.6927Y-19.0539
X8.6931Y-9.7291
X8.6931Y-9.7606
X8.6931Y-9.8236
X8.6931Y-9.8551
X8.6931Y-9.9181
X8.6931Y-9.9811
X8.6931Y-10.0441
X8.6931Y-10.0756
X8.6931Y-10.1386
X8.6931Y-10.1701
X8.6931Y-10.2646
X8.6931Y-11.3886
X8.6931Y-11.4516
X8.6931Y-11.4831
X8.6931Y-11.5461
X8.6931Y-11.5776
X8.6931Y-11.672
X8.6931Y-11.7035
X8.6931Y-11.7665
X8.6931Y-11.798
X8.6931Y-11.861
X8.6931Y-15.6937
X8.6931Y-15.7252
X8.6931Y-15.7882
X8.6931Y-15.8197
X8.6931Y-15.8827
X8.6931Y-15.9457
X8.6931Y-16.0087
X8.6931Y-16.0402
X8.6931Y-16.1031
X8.6931Y-16.1346
X8.6931Y-16.2291
X8.6931Y-17.3531
X8.6931Y-17.4161
X8.6931Y-17.4476
X8.6931Y-17.5106
X8.6931Y-17.5421
X8.6931Y-17.6366
X8.6931Y-17.6681
X8.6931Y-17.7311
X8.6931Y-17.7626
X8.6931Y-17.8256
X8.9843Y-3.7644
X8.9843Y-3.7959
X8.9843Y-3.8589
X8.9843Y-3.8904
X8.9843Y-3.9533
X8.9843Y-4.0163
X8.9843Y-4.0793
X8.9843Y-4.1108
X8.9843Y-4.1738
X8.9843Y-4.2053
X8.9843Y-4.2998
X8.9843Y-5.4238
X8.9843Y-5.4868
X8.9843Y-5.5183
X8.9843Y-5.5813
X8.9843Y-5.6128
X8.9843Y-5.7073
X8.9843Y-5.7388
X8.9843Y-5.8018
X8.9843Y-5.8333
X8.9843Y-5.8963
X8.9846Y-2.473
X8.9846Y-2.5045
X8.9846Y-2.5675
X8.9846Y-2.599
X8.9846Y-2.662
X8.9846Y-2.6935
X8.9846Y-2.788
X8.9846Y-2.8195
X8.9846Y-2.8825
X8.9846Y-2.914
X8.9846Y-2.977
X8.9846Y-3.04
X8.9846Y-3.103
X8.9846Y-3.1344
X8.9846Y-3.1974
X8.9846Y-3.2289
X8.9846Y-3.3234
X8.9846Y-3.3549
X8.9846Y-3.4179
X8.9846Y-3.4494
X8.9846Y-3.5124
X8.9846Y-3.5439
X8.9846Y-6.0852
X8.9846Y-6.1482
X8.9846Y-6.1797
X8.9846Y-6.2427
X8.9846Y-6.2742
X8.9846Y-6.3687
X8.9846Y-6.4002
X8.9846Y-6.4632
X8.9846Y-6.4947
X8.9846Y-6.5577
X8.9846Y-6.5892
X8.9846Y-6.6837
X8.9846Y-6.7152
X8.9846Y-6.7781
X8.9846Y-6.8096
X8.9846Y-6.8726
X8.9846Y-6.9356
X8.9846Y-6.9986
X8.9846Y-7.0301
X8.9846Y-7.0931
X8.9846Y-7.1246
X8.9852Y-9.7289
X8.9852Y-9.7604
X8.9852Y-9.8234
X8.9852Y-9.8549
X8.9852Y-9.9179
X8.9852Y-9.9809
X8.9852Y-10.0439
X8.9852Y-10.0754
X8.9852Y-10.1384
X8.9852Y-10.1699
X8.9852Y-10.2644
X8.9852Y-11.3884
X8.9852Y-11.4514
X8.9852Y-11.4829
X8.9852Y-11.5459
X8.9852Y-11.5774
X8.9852Y-11.6719
X8.9852Y-11.7033
X8.9852Y-11.7663
X8.9852Y-11.7978
X8.9852Y-11.8608
X8.9852Y-15.6935
X8.9852Y-15.725
X8.9852Y-15.788
X8.9852Y-15.8195
X8.9852Y-15.8825
X8.9852Y-15.9455
X8.9852Y-16.0085
X8.9852Y-16.04
X8.9852Y-16.103
X8.9852Y-16.1344
X8.9852Y-16.2289
X8.9852Y-17.353
X8.9852Y-17.4159
X8.9852Y-17.4474
X8.9852Y-17.5104
X8.9852Y-17.5419
X8.9852Y-17.6364
X8.9852Y-17.6679
X8.9852Y-17.7309
X8.9852Y-17.7624
X8.9852Y-17.8254
X8.9856Y-8.4376
X8.9856Y-8.4691
X8.9856Y-8.5321
X8.9856Y-8.5636
X8.9856Y-8.6266
X8.9856Y-8.6581
X8.9856Y-8.7526
X8.9856Y-8.7841
X8.9856Y-8.847
X8.9856Y-8.8785
X8.9856Y-8.9415
X8.9856Y-9.0045
X8.9856Y-9.0675
X8.9856Y-9.099
X8.9856Y-9.162
X8.9856Y-9.1935
X8.9856Y-9.288
X8.9856Y-9.3195
X8.9856Y-9.3825
X8.9856Y-9.414
X8.9856Y-9.477
X8.9856Y-9.5085
X8.9856Y-12.0498
X8.9856Y-12.1128
X8.9856Y-12.1443
X8.9856Y-12.2073
X8.9856Y-12.2388
X8.9856Y-12.3333
X8.9856Y-12.3648
X8.9856Y-12.4278
X8.9856Y-12.4593
X8.9856Y-12.5222
X8.9856Y-12.5537
X8.9856Y-12.6482
X8.9856Y-12.6797
X8.9856Y-12.7427
X8.9856Y-12.7742
X8.9856Y-12.8372
X8.9856Y-12.9002
X8.9856Y-12.9632
X8.9856Y-12.9947
X8.9856Y-13.0577
X8.9856Y-13.0892
X8.9856Y-14.4022
X8.9856Y-14.4337
X8.9856Y-14.4967
X8.9856Y-14.5281
X8.9856Y-14.5911
X8.9856Y-14.6226
X8.9856Y-14.7171
X8.9856Y-14.7486
X8.9856Y-14.8116
X8.9856Y-14.8431
X8.9856Y-14.9061
X8.9856Y-14.9691
X8.9856Y-15.0321
X8.9856Y-15.0636
X8.9856Y-15.1266
X8.9856Y-15.1581
X8.9856Y-15.2526
X8.9856Y-15.2841
X8.9856Y-15.347
X8.9856Y-15.3785
X8.9856Y-15.4415
X8.9856Y-15.473
X8.9856Y-18.0144
X8.9856Y-18.0774
X8.9856Y-18.1089
X8.9856Y-18.1719
X8.9856Y-18.2033
X8.9856Y-18.2978
X8.9856Y-18.3293
X8.9856Y-18.3923
X8.9856Y-18.4238
X8.9856Y-18.4868
X8.9856Y-18.5183
X8.9856Y-18.6128
X8.9856Y-18.6443
X8.9856Y-18.7073
X8.9856Y-18.7388
X8.9856Y-18.8018
X8.9856Y-18.8648
X8.9856Y-18.9278
X8.9856Y-18.9593
X8.9856Y-19.0222
X8.9856Y-19.0537
X9.2205Y-4.2132
X9.2205Y-4.2919
X9.2205Y-4.3313
X9.2205Y-4.41
X9.2205Y-4.4494
X9.2205Y-4.5281
X9.2205Y-4.5675
X9.2205Y-4.6463
X9.2205Y-4.6856
X9.2205Y-4.7644
X9.2205Y-4.8037
X9.2205Y-4.8825
X9.2205Y-4.9219
X9.2205Y-5.0006
X9.2205Y-5.04
X9.2205Y-5.1187
X9.2205Y-5.1581
X9.2205Y-5.2368
X9.2205Y-5.2762
X9.2205Y-5.3549
X9.2205Y-5.3943
X9.2215Y-10.1778
X9.2215Y-10.2565
X9.2215Y-10.2959
X9.2215Y-10.3746
X9.2215Y-10.414
X9.2215Y-10.4927
X9.2215Y-10.5321
X9.2215Y-10.6108
X9.2215Y-10.6502
X9.2215Y-10.7289
X9.2215Y-10.7683
X9.2215Y-10.847
X9.2215Y-10.8864
X9.2215Y-10.9652
X9.2215Y-11.0045
X9.2215Y-11.0833
X9.2215Y-11.1226
X9.2215Y-11.2014
X9.2215Y-11.2407
X9.2215Y-11.3195
X9.2215Y-11.3589
X9.2215Y-16.1423
X9.2215Y-16.2211
X9.2215Y-16.2604
X9.2215Y-16.3392
X9.2215Y-16.3785
X9.2215Y-16.4573
X9.2215Y-16.4967
X9.2215Y-16.5754
X9.2215Y-16.6148
X9.2215Y-16.6935
X9.2215Y-16.7329
X9.2215Y-16.8116
X9.2215Y-16.851
X9.2215Y-16.9297
X9.2215Y-16.9691
X9.2215Y-17.0478
X9.2215Y-17.0872
X9.2215Y-17.1659
X9.2215Y-17.2053
X9.2215Y-17.2841
X9.2215Y-17.3234
X9.2268Y-2.3825
X9.2268Y-2.4219
X9.2268Y-2.5006
X9.2268Y-2.54
X9.2268Y-2.6187
X9.2268Y-2.6581
X9.2268Y-2.7368
X9.2268Y-2.7762
X9.2268Y-2.8549
X9.2268Y-2.8943
X9.2268Y-2.973
X9.2268Y-3.0124
X9.2268Y-3.0911
X9.2268Y-3.1305
X9.2268Y-3.2093
X9.2268Y-3.2486
X9.2268Y-3.3274
X9.2268Y-3.3667
X9.2272Y-2.3033
X9.2272Y-6.201
X9.2272Y-6.2404
X9.2272Y-6.3191
X9.2272Y-6.3585
X9.2272Y-6.4372
X9.2272Y-6.4766
X9.2272Y-6.5553
X9.2272Y-6.5947
X9.2272Y-6.6734
X9.2272Y-6.7128
X9.2272Y-6.7915
X9.2272Y-6.8309
X9.2272Y-6.9096
X9.2272Y-6.949
X9.2272Y-7.0278
X9.2272Y-7.0671
X9.2272Y-7.1459
X9.2272Y-7.1852
X9.2272Y-7.264
X9.2272Y-7.3033
X9.2272Y-7.3821
X9.2272Y-7.4215
X9.2278Y-8.347
X9.2278Y-8.3864
X9.2278Y-8.4652
X9.2278Y-8.5045
X9.2278Y-8.5833
X9.2278Y-8.6226
X9.2278Y-8.7014
X9.2278Y-8.7407
X9.2278Y-8.8195
X9.2278Y-8.8589
X9.2278Y-8.9376
X9.2278Y-8.977
X9.2278Y-9.0557
X9.2278Y-9.0951
X9.2278Y-9.1738
X9.2278Y-9.2132
X9.2278Y-9.2919
X9.2278Y-9.3313
X9.2278Y-14.3116
X9.2278Y-14.351
X9.2278Y-14.4297
X9.2278Y-14.4691
X9.2278Y-14.5478
X9.2278Y-14.5872
X9.2278Y-14.6659
X9.2278Y-14.7053
X9.2278Y-14.7841
X9.2278Y-14.8234
X9.2278Y-14.9022
X9.2278Y-14.9415
X9.2278Y-15.0203
X9.2278Y-15.0596
X9.2278Y-15.1384
X9.2278Y-15.1778
X9.2278Y-15.2565
X9.2278Y-15.2959
X9.2281Y-8.2679
X9.2281Y-12.1656
X9.2281Y-12.2049
X9.2281Y-12.2837
X9.2281Y-12.323
X9.2281Y-12.4018
X9.2281Y-12.4411
X9.2281Y-12.5199
X9.2281Y-12.5593
X9.2281Y-12.638
X9.2281Y-12.6774
X9.2281Y-12.7561
X9.2281Y-12.7955
X9.2281Y-12.8742
X9.2281Y-12.9136
X9.2281Y-12.9923
X9.2281Y-13.0317
X9.2281Y-13.1104
X9.2281Y-13.1498
X9.2281Y-13.2285
X9.2281Y-13.2679
X9.2281Y-13.3467
X9.2281Y-13.386
X9.2281Y-14.2325
X9.2281Y-18.1301
X9.2281Y-18.1695
X9.2281Y-18.2482
X9.2281Y-18.2876
X9.2281Y-18.3663
X9.2281Y-18.4057
X9.2281Y-18.4844
X9.2281Y-18.5238
X9.2281Y-18.6026
X9.2281Y-18.6419
X9.2281Y-18.7207
X9.2281Y-18.76
X9.2281Y-18.8388
X9.2281Y-18.8781
X9.2281Y-18.9569
X9.2281Y-18.9963
X9.2281Y-19.075
X9.2281Y-19.1144
X9.2281Y-19.1931
X9.2281Y-19.2325
X9.2281Y-19.3112
X9.2281Y-19.3506
X9.2291Y-2.264
X9.2301Y-8.2285
X9.2301Y-14.1931
X9.2307Y-3.4455
X9.2317Y-9.41
X9.2317Y-15.3746
X10.4339Y-3.4457
X10.4348Y-9.4102
X10.4348Y-15.3748
X10.4354Y-2.2642
X10.436Y-8.2283
X10.4364Y-14.1933
X10.4374Y-2.3035
X10.4374Y-6.2012
X10.4374Y-6.2406
X10.4374Y-6.3193
X10.4374Y-6.3587
X10.4374Y-6.4374
X10.4374Y-6.4768
X10.4374Y-6.5555
X10.4374Y-6.5949
X10.4374Y-6.6736
X10.4374Y-6.713
X10.4374Y-6.7917
X10.4374Y-6.8311
X10.4374Y-6.9098
X10.4374Y-6.9492
X10.4374Y-7.028
X10.4374Y-7.0673
X10.4374Y-7.1461
X10.4374Y-7.1854
X10.4374Y-7.2642
X10.4374Y-7.3035
X10.4374Y-7.3823
X10.4374Y-7.4217
X10.4378Y-2.3827
X10.4378Y-2.422
X10.4378Y-2.5008
X10.4378Y-2.5402
X10.4378Y-2.6189
X10.4378Y-2.6583
X10.4378Y-2.737
X10.4378Y-2.7764
X10.4378Y-2.8551
X10.4378Y-2.8945
X10.4378Y-2.9732
X10.4378Y-3.0126
X10.4378Y-3.0913
X10.4378Y-3.1307
X10.4378Y-3.2094
X10.4378Y-3.2488
X10.4378Y-3.3276
X10.4378Y-3.3669
X10.4384Y-8.2681
X10.4384Y-12.1657
X10.4384Y-12.2051
X10.4384Y-12.2839
X10.4384Y-12.3232
X10.4384Y-12.402
X10.4384Y-12.4413
X10.4384Y-12.5201
X10.4384Y-12.5594
X10.4384Y-12.6382
X10.4384Y-12.6776
X10.4384Y-12.7563
X10.4384Y-12.7957
X10.4384Y-12.8744
X10.4384Y-12.9138
X10.4384Y-12.9925
X10.4384Y-13.0319
X10.4384Y-13.1106
X10.4384Y-13.15
X10.4384Y-13.2287
X10.4384Y-13.2681
X10.4384Y-13.3469
X10.4384Y-13.3862
X10.4384Y-14.2327
X10.4384Y-18.1303
X10.4384Y-18.1697
X10.4384Y-18.2484
X10.4384Y-18.2878
X10.4384Y-18.3665
X10.4384Y-18.4059
X10.4384Y-18.4846
X10.4384Y-18.524
X10.4384Y-18.6028
X10.4384Y-18.6421
X10.4384Y-18.7209
X10.4384Y-18.7602
X10.4384Y-18.839
X10.4384Y-18.8783
X10.4384Y-18.9571
X10.4384Y-18.9965
X10.4384Y-19.0752
X10.4384Y-19.1146
X10.4384Y-19.1933
X10.4384Y-19.2327
X10.4384Y-19.3114
X10.4384Y-19.3508
X10.4388Y-8.3472
X10.4388Y-8.3866
X10.4388Y-8.4654
X10.4388Y-8.5047
X10.4388Y-8.5835
X10.4388Y-8.6228
X10.4388Y-8.7016
X10.4388Y-8.7409
X10.4388Y-8.8197
X10.4388Y-8.8591
X10.4388Y-8.9378
X10.4388Y-8.9772
X10.4388Y-9.0559
X10.4388Y-9.0953
X10.4388Y-9.174
X10.4388Y-9.2134
X10.4388Y-9.2921
X10.4388Y-9.3315
X10.4388Y-14.3118
X10.4388Y-14.3512
X10.4388Y-14.4299
X10.4388Y-14.4693
X10.4388Y-14.548
X10.4388Y-14.5874
X10.4388Y-14.6661
X10.4388Y-14.7055
X10.4388Y-14.7843
X10.4388Y-14.8236
X10.4388Y-14.9024
X10.4388Y-14.9417
X10.4388Y-15.0205
X10.4388Y-15.0598
X10.4388Y-15.1386
X10.4388Y-15.178
X10.4388Y-15.2567
X10.4388Y-15.2961
X10.4441Y-4.2134
X10.4441Y-4.2921
X10.4441Y-4.3315
X10.4441Y-4.4102
X10.4441Y-4.4496
X10.4441Y-4.5283
X10.4441Y-4.5677
X10.4441Y-4.6465
X10.4441Y-4.6858
X10.4441Y-4.7646
X10.4441Y-4.8039
X10.4441Y-4.8827
X10.4441Y-4.922
X10.4441Y-5.0008
X10.4441Y-5.0402
X10.4441Y-5.1189
X10.4441Y-5.1583
X10.4441Y-5.237
X10.4441Y-5.2764
X10.4441Y-5.3551
X10.4441Y-5.3945
X10.4451Y-10.178
X10.4451Y-10.2567
X10.4451Y-10.2961
X10.4451Y-10.3748
X10.4451Y-10.4142
X10.4451Y-10.4929
X10.4451Y-10.5323
X10.4451Y-10.611
X10.4451Y-10.6504
X10.4451Y-10.7291
X10.4451Y-10.7685
X10.4451Y-10.8472
X10.4451Y-10.8866
X10.4451Y-10.9654
X10.4451Y-11.0047
X10.4451Y-11.0835
X10.4451Y-11.1228
X10.4451Y-11.2016
X10.4451Y-11.2409
X10.4451Y-11.3197
X10.4451Y-11.3591
X10.4451Y-16.1425
X10.4451Y-16.2213
X10.4451Y-16.2606
X10.4451Y-16.3394
X10.4451Y-16.3787
X10.4451Y-16.4575
X10.4451Y-16.4969
X10.4451Y-16.5756
X10.4451Y-16.615
X10.4451Y-16.6937
X10.4451Y-16.7331
X10.4451Y-16.8118
X10.4451Y-16.8512
X10.4451Y-16.9299
X10.4451Y-16.9693
X10.4451Y-17.048
X10.4451Y-17.0874
X10.4451Y-17.1661
X10.4451Y-17.2055
X10.4451Y-17.2843
X10.4451Y-17.3236
X10.6799Y-2.4732
X10.6799Y-2.5047
X10.6799Y-2.5677
X10.6799Y-2.5992
X10.6799Y-2.6622
X10.6799Y-2.6937
X10.6799Y-2.7882
X10.6799Y-2.8197
X10.6799Y-2.8827
X10.6799Y-2.9142
X10.6799Y-2.9772
X10.6799Y-3.0402
X10.6799Y-3.1031
X10.6799Y-3.1346
X10.6799Y-3.1976
X10.6799Y-3.2291
X10.6799Y-3.3236
X10.6799Y-3.3551
X10.6799Y-3.4181
X10.6799Y-3.4496
X10.6799Y-3.5126
X10.6799Y-3.5441
X10.6799Y-6.0854
X10.6799Y-6.1484
X10.6799Y-6.1799
X10.6799Y-6.2429
X10.6799Y-6.2744
X10.6799Y-6.3689
X10.6799Y-6.4004
X10.6799Y-6.4634
X10.6799Y-6.4949
X10.6799Y-6.5579
X10.6799Y-6.5894
X10.6799Y-6.6839
X10.6799Y-6.7154
X10.6799Y-6.7783
X10.6799Y-6.8098
X10.6799Y-6.8728
X10.6799Y-6.9358
X10.6799Y-6.9988
X10.6799Y-7.0303
X10.6799Y-7.0933
X10.6799Y-7.1248
X10.6803Y-3.7646
X10.6803Y-3.7961
X10.6803Y-3.8591
X10.6803Y-3.8906
X10.6803Y-3.9535
X10.6803Y-4.0165
X10.6803Y-4.0795
X10.6803Y-4.111
X10.6803Y-4.174
X10.6803Y-4.2055
X10.6803Y-4.3
X10.6803Y-5.424
X10.6803Y-5.487
X10.6803Y-5.5185
X10.6803Y-5.5815
X10.6803Y-5.613
X10.6803Y-5.7075
X10.6803Y-5.739
X10.6803Y-5.802
X10.6803Y-5.8335
X10.6803Y-5.8965
X10.6809Y-8.4378
X10.6809Y-8.4693
X10.6809Y-8.5323
X10.6809Y-8.5638
X10.6809Y-8.6268
X10.6809Y-8.6583
X10.6809Y-8.7528
X10.6809Y-8.7843
X10.6809Y-8.8472
X10.6809Y-8.8787
X10.6809Y-8.9417
X10.6809Y-9.0047
X10.6809Y-9.0677
X10.6809Y-9.0992
X10.6809Y-9.1622
X10.6809Y-9.1937
X10.6809Y-9.2882
X10.6809Y-9.3197
X10.6809Y-9.3827
X10.6809Y-9.4142
X10.6809Y-9.4772
X10.6809Y-9.5087
X10.6809Y-12.05
X10.6809Y-12.113
X10.6809Y-12.1445
X10.6809Y-12.2075
X10.6809Y-12.239
X10.6809Y-12.3335
X10.6809Y-12.365
X10.6809Y-12.428
X10.6809Y-12.4594
X10.6809Y-12.5224
X10.6809Y-12.5539
X10.6809Y-12.6484
X10.6809Y-12.6799
X10.6809Y-12.7429
X10.6809Y-12.7744
X10.6809Y-12.8374
X10.6809Y-12.9004
X10.6809Y-12.9634
X10.6809Y-12.9949
X10.6809Y-13.0579
X10.6809Y-13.0894
X10.6809Y-14.4024
X10.6809Y-14.4339
X10.6809Y-14.4969
X10.6809Y-14.5283
X10.6809Y-14.5913
X10.6809Y-14.6228
X10.6809Y-14.7173
X10.6809Y-14.7488
X10.6809Y-14.8118
X10.6809Y-14.8433
X10.6809Y-14.9063
X10.6809Y-14.9693
X10.6809Y-15.0323
X10.6809Y-15.0638
X10.6809Y-15.1268
X10.6809Y-15.1583
X10.6809Y-15.2528
X10.6809Y-15.2843
X10.6809Y-15.3472
X10.6809Y-15.3787
X10.6809Y-15.4417
X10.6809Y-15.4732
X10.6809Y-18.0146
X10.6809Y-18.0776
X10.6809Y-18.1091
X10.6809Y-18.172
X10.6809Y-18.2035
X10.6809Y-18.298
X10.6809Y-18.3295
X10.6809Y-18.3925
X10.6809Y-18.424
X10.6809Y-18.487
X10.6809Y-18.5185
X10.6809Y-18.613
X10.6809Y-18.6445
X10.6809Y-18.7075
X10.6809Y-18.739
X10.6809Y-18.802
X10.6809Y-18.865
X10.6809Y-18.928
X10.6809Y-18.9594
X10.6809Y-19.0224
X10.6809Y-19.0539
X10.6813Y-9.7291
X10.6813Y-9.7606
X10.6813Y-9.8236
X10.6813Y-9.8551
X10.6813Y-9.9181
X10.6813Y-9.9811
X10.6813Y-10.0441
X10.6813Y-10.0756
X10.6813Y-10.1386
X10.6813Y-10.1701
X10.6813Y-10.2646
X10.6813Y-11.3886
X10.6813Y-11.4516
X10.6813Y-11.4831
X10.6813Y-11.5461
X10.6813Y-11.5776
X10.6813Y-11.672
X10.6813Y-11.7035
X10.6813Y-11.7665
X10.6813Y-11.798
X10.6813Y-11.861
X10.6813Y-15.6937
X10.6813Y-15.7252
X10.6813Y-15.7882
X10.6813Y-15.8197
X10.6813Y-15.8827
X10.6813Y-15.9457
X10.6813Y-16.0087
X10.6813Y-16.0402
X10.6813Y-16.1031
X10.6813Y-16.1346
X10.6813Y-16.2291
X10.6813Y-17.3531
X10.6813Y-17.4161
X10.6813Y-17.4476
X10.6813Y-17.5106
X10.6813Y-17.5421
X10.6813Y-17.6366
X10.6813Y-17.6681
X10.6813Y-17.7311
X10.6813Y-17.7626
X10.6813Y-17.8256
X10.9724Y-3.7644
X10.9724Y-3.7959
X10.9724Y-3.8589
X10.9724Y-3.8904
X10.9724Y-3.9533
X10.9724Y-4.0163
X10.9724Y-4.0793
X10.9724Y-4.1108
X10.9724Y-4.1738
X10.9724Y-4.2053
X10.9724Y-4.2998
X10.9724Y-5.4238
X10.9724Y-5.4868
X10.9724Y-5.5183
X10.9724Y-5.5813
X10.9724Y-5.6128
X10.9724Y-5.7073
X10.9724Y-5.7388
X10.9724Y-5.8018
X10.9724Y-5.8333
X10.9724Y-5.8963
X10.9728Y-2.473
X10.9728Y-2.5045
X10.9728Y-2.5675
X10.9728Y-2.599
X10.9728Y-2.662
X10.9728Y-2.6935
X10.9728Y-2.788
X10.9728Y-2.8195
X10.9728Y-2.8825
X10.9728Y-2.914
X10.9728Y-2.977
X10.9728Y-3.04
X10.9728Y-3.103
X10.9728Y-3.1344
X10.9728Y-3.1974
X10.9728Y-3.2289
X10.9728Y-3.3234
X10.9728Y-3.3549
X10.9728Y-3.4179
X10.9728Y-3.4494
X10.9728Y-3.5124
X10.9728Y-3.5439
X10.9728Y-6.0852
X10.9728Y-6.1482
X10.9728Y-6.1797
X10.9728Y-6.2427
X10.9728Y-6.2742
X10.9728Y-6.3687
X10.9728Y-6.4002
X10.9728Y-6.4632
X10.9728Y-6.4947
X10.9728Y-6.5577
X10.9728Y-6.5892
X10.9728Y-6.6837
X10.9728Y-6.7152
X10.9728Y-6.7781
X10.9728Y-6.8096
X10.9728Y-6.8726
X10.9728Y-6.9356
X10.9728Y-6.9986
X10.9728Y-7.0301
X10.9728Y-7.0931
X10.9728Y-7.1246
X10.9734Y-9.7289
X10.9734Y-9.7604
X10.9734Y-9.8234
X10.9734Y-9.8549
X10.9734Y-9.9179
X10.9734Y-9.9809
X10.9734Y-10.0439
X10.9734Y-10.0754
X10.9734Y-10.1384
X10.9734Y-10.1699
X10.9734Y-10.2644
X10.9734Y-11.3884
X10.9734Y-11.4514
X10.9734Y-11.4829
X10.9734Y-11.5459
X10.9734Y-11.5774
X10.9734Y-11.6719
X10.9734Y-11.7033
X10.9734Y-11.7663
X10.9734Y-11.7978
X10.9734Y-11.8608
X10.9734Y-15.6935
X10.9734Y-15.725
X10.9734Y-15.788
X10.9734Y-15.8195
X10.9734Y-15.8825
X10.9734Y-15.9455
X10.9734Y-16.0085
X10.9734Y-16.04
X10.9734Y-16.103
X10.9734Y-16.1344
X10.9734Y-16.2289
X10.9734Y-17.353
X10.9734Y-17.4159
X10.9734Y-17.4474
X10.9734Y-17.5104
X10.9734Y-17.5419
X10.9734Y-17.6364
X10.9734Y-17.6679
X10.9734Y-17.7309
X10.9734Y-17.7624
X10.9734Y-17.8254
X10.9738Y-8.4376
X10.9738Y-8.4691
X10.9738Y-8.5321
X10.9738Y-8.5636
X10.9738Y-8.6266
X10.9738Y-8.6581
X10.9738Y-8.7526
X10.9738Y-8.7841
X10.9738Y-8.847
X10.9738Y-8.8785
X10.9738Y-8.9415
X10.9738Y-9.0045
X10.9738Y-9.0675
X10.9738Y-9.099
X10.9738Y-9.162
X10.9738Y-9.1935
X10.9738Y-9.288
X10.9738Y-9.3195
X10.9738Y-9.3825
X10.9738Y-9.414
X10.9738Y-9.477
X10.9738Y-9.5085
X10.9738Y-12.0498
X10.9738Y-12.1128
X10.9738Y-12.1443
X10.9738Y-12.2073
X10.9738Y-12.2388
X10.9738Y-12.3333
X10.9738Y-12.3648
X10.9738Y-12.4278
X10.9738Y-12.4593
X10.9738Y-12.5222
X10.9738Y-12.5537
X10.9738Y-12.6482
X10.9738Y-12.6797
X10.9738Y-12.7427
X10.9738Y-12.7742
X10.9738Y-12.8372
X10.9738Y-12.9002
X10.9738Y-12.9632
X10.9738Y-12.9947
X10.9738Y-13.0577
X10.9738Y-13.0892
X10.9738Y-14.4022
X10.9738Y-14.4337
X10.9738Y-14.4967
X10.9738Y-14.5281
X10.9738Y-14.5911
X10.9738Y-14.6226
X10.9738Y-14.7171
X10.9738Y-14.7486
X10.9738Y-14.8116
X10.9738Y-14.8431
X10.9738Y-14.9061
X10.9738Y-14.9691
X10.9738Y-15.0321
X10.9738Y-15.0636
X10.9738Y-15.1266
X10.9738Y-15.1581
X10.9738Y-15.2526
X10.9738Y-15.2841
X10.9738Y-15.347
X10.9738Y-15.3785
X10.9738Y-15.4415
X10.9738Y-15.473
X10.9738Y-18.0144
X10.9738Y-18.0774
X10.9738Y-18.1089
X10.9738Y-18.1719
X10.9738Y-18.2033
X10.9738Y-18.2978
X10.9738Y-18.3293
X10.9738Y-18.3923
X10.9738Y-18.4238
X10.9738Y-18.4868
X10.9738Y-18.5183
X10.9738Y-18.6128
X10.9738Y-18.6443
X10.9738Y-18.7073
X10.9738Y-18.7388
X10.9738Y-18.8018
X10.9738Y-18.8648
X10.9738Y-18.9278
X10.9738Y-18.9593
X10.9738Y-19.0222
X10.9738Y-19.0537
X11.2087Y-4.2132
X11.2087Y-4.2919
X11.2087Y-4.3313
X11.2087Y-4.41
X11.2087Y-4.4494
X11.2087Y-4.5281
X11.2087Y-4.5675
X11.2087Y-4.6463
X11.2087Y-4.6856
X11.2087Y-4.7644
X11.2087Y-4.8037
X11.2087Y-4.8825
X11.2087Y-4.9219
X11.2087Y-5.0006
X11.2087Y-5.04
X11.2087Y-5.1187
X11.2087Y-5.1581
X11.2087Y-5.2368
X11.2087Y-5.2762
X11.2087Y-5.3549
X11.2087Y-5.3943
X11.2096Y-10.1778
X11.2096Y-10.2565
X11.2096Y-10.2959
X11.2096Y-10.3746
X11.2096Y-10.414
X11.2096Y-10.4927
X11.2096Y-10.5321
X11.2096Y-10.6108
X11.2096Y-10.6502
X11.2096Y-10.7289
X11.2096Y-10.7683
X11.2096Y-10.847
X11.2096Y-10.8864
X11.2096Y-10.9652
X11.2096Y-11.0045
X11.2096Y-11.0833
X11.2096Y-11.1226
X11.2096Y-11.2014
X11.2096Y-11.2407
X11.2096Y-11.3195
X11.2096Y-11.3589
X11.2096Y-16.1423
X11.2096Y-16.2211
X11.2096Y-16.2604
X11.2096Y-16.3392
X11.2096Y-16.3785
X11.2096Y-16.4573
X11.2096Y-16.4967
X11.2096Y-16.5754
X11.2096Y-16.6148
X11.2096Y-16.6935
X11.2096Y-16.7329
X11.2096Y-16.8116
X11.2096Y-16.851
X11.2096Y-16.9297
X11.2096Y-16.9691
X11.2096Y-17.0478
X11.2096Y-17.0872
X11.2096Y-17.1659
X11.2096Y-17.2053
X11.2096Y-17.2841
X11.2096Y-17.3234
X11.215Y-2.3825
X11.215Y-2.4219
X11.215Y-2.5006
X11.215Y-2.54
X11.215Y-2.6187
X11.215Y-2.6581
X11.215Y-2.7368
X11.215Y-2.7762
X11.215Y-2.8549
X11.215Y-2.8943
X11.215Y-2.973
X11.215Y-3.0124
X11.215Y-3.0911
X11.215Y-3.1305
X11.215Y-3.2093
X11.215Y-3.2486
X11.215Y-3.3274
X11.215Y-3.3667
X11.2154Y-2.3033
X11.2154Y-6.201
X11.2154Y-6.2404
X11.2154Y-6.3191
X11.2154Y-6.3585
X11.2154Y-6.4372
X11.2154Y-6.4766
X11.2154Y-6.5553
X11.2154Y-6.5947
X11.2154Y-6.6734
X11.2154Y-6.7128
X11.2154Y-6.7915
X11.2154Y-6.8309
X11.2154Y-6.9096
X11.2154Y-6.949
X11.2154Y-7.0278
X11.2154Y-7.0671
X11.2154Y-7.1459
X11.2154Y-7.1852
X11.2154Y-7.264
X11.2154Y-7.3033
X11.2154Y-7.3821
X11.2154Y-7.4215
X11.2159Y-8.347
X11.2159Y-8.3864
X11.2159Y-8.4652
X11.2159Y-8.5045
X11.2159Y-8.5833
X11.2159Y-8.6226
X11.2159Y-8.7014
X11.2159Y-8.7407
X11.2159Y-8.8195
X11.2159Y-8.8589
X11.2159Y-8.9376
X11.2159Y-8.977
X11.2159Y-9.0557
X11.2159Y-9.0951
X11.2159Y-9.1738
X11.2159Y-9.2132
X11.2159Y-9.2919
X11.2159Y-9.3313
X11.2159Y-14.3116
X11.2159Y-14.351
X11.2159Y-14.4297
X11.2159Y-14.4691
X11.2159Y-14.5478
X11.2159Y-14.5872
X11.2159Y-14.6659
X11.2159Y-14.7053
X11.2159Y-14.7841
X11.2159Y-14.8234
X11.2159Y-14.9022
X11.2159Y-14.9415
X11.2159Y-15.0203
X11.2159Y-15.0596
X11.2159Y-15.1384
X11.2159Y-15.1778
X11.2159Y-15.2565
X11.2159Y-15.2959
X11.2163Y-8.2679
X11.2163Y-12.1656
X11.2163Y-12.2049
X11.2163Y-12.2837
X11.2163Y-12.323
X11.2163Y-12.4018
X11.2163Y-12.4411
X11.2163Y-12.5199
X11.2163Y-12.5593
X11.2163Y-12.638
X11.2163Y-12.6774
X11.2163Y-12.7561
X11.2163Y-12.7955
X11.2163Y-12.8742
X11.2163Y-12.9136
X11.2163Y-12.9923
X11.2163Y-13.0317
X11.2163Y-13.1104
X11.2163Y-13.1498
X11.2163Y-13.2285
X11.2163Y-13.2679
X11.2163Y-13.3467
X11.2163Y-13.386
X11.2163Y-14.2325
X11.2163Y-18.1301
X11.2163Y-18.1695
X11.2163Y-18.2482
X11.2163Y-18.2876
X11.2163Y-18.3663
X11.2163Y-18.4057
X11.2163Y-18.4844
X11.2163Y-18.5238
X11.2163Y-18.6026
X11.2163Y-18.6419
X11.2163Y-18.7207
X11.2163Y-18.76
X11.2163Y-18.8388
X11.2163Y-18.8781
X11.2163Y-18.9569
X11.2163Y-18.9963
X11.2163Y-19.075
X11.2163Y-19.1144
X11.2163Y-19.1931
X11.2163Y-19.2325
X11.2163Y-19.3112
X11.2163Y-19.3506
X11.2173Y-2.264
X11.2183Y-8.2285
X11.2183Y-14.1931
X11.2189Y-3.4455
X11.2199Y-9.41
X11.2199Y-15.3746
X12.422Y-3.4457
X12.423Y-9.4102
X12.423Y-15.3748
X12.4236Y-2.2642
X12.4242Y-8.2283
X12.4246Y-14.1933
X12.4256Y-2.3035
X12.4256Y-6.2012
X12.4256Y-6.2406
X12.4256Y-6.3193
X12.4256Y-6.3587
X12.4256Y-6.4374
X12.4256Y-6.4768
X12.4256Y-6.5555
X12.4256Y-6.5949
X12.4256Y-6.6736
X12.4256Y-6.713
X12.4256Y-6.7917
X12.4256Y-6.8311
X12.4256Y-6.9098
X12.4256Y-6.9492
X12.4256Y-7.028
X12.4256Y-7.0673
X12.4256Y-7.1461
X12.4256Y-7.1854
X12.4256Y-7.2642
X12.4256Y-7.3035
X12.4256Y-7.3823
X12.4256Y-7.4217
X12.426Y-2.3827
X12.426Y-2.422
X12.426Y-2.5008
X12.426Y-2.5402
X12.426Y-2.6189
X12.426Y-2.6583
X12.426Y-2.737
X12.426Y-2.7764
X12.426Y-2.8551
X12.426Y-2.8945
X12.426Y-2.9732
X12.426Y-3.0126
X12.426Y-3.0913
X12.426Y-3.1307
X12.426Y-3.2094
X12.426Y-3.2488
X12.426Y-3.3276
X12.426Y-3.3669
X12.4266Y-8.2681
X12.4266Y-12.1657
X12.4266Y-12.2051
X12.4266Y-12.2839
X12.4266Y-12.3232
X12.4266Y-12.402
X12.4266Y-12.4413
X12.4266Y-12.5201
X12.4266Y-12.5594
X12.4266Y-12.6382
X12.4266Y-12.6776
X12.4266Y-12.7563
X12.4266Y-12.7957
X12.4266Y-12.8744
X12.4266Y-12.9138
X12.4266Y-12.9925
X12.4266Y-13.0319
X12.4266Y-13.1106
X12.4266Y-13.15
X12.4266Y-13.2287
X12.4266Y-13.2681
X12.4266Y-13.3469
X12.4266Y-13.3862
X12.4266Y-14.2327
X12.4266Y-18.1303
X12.4266Y-18.1697
X12.4266Y-18.2484
X12.4266Y-18.2878
X12.4266Y-18.3665
X12.4266Y-18.4059
X12.4266Y-18.4846
X12.4266Y-18.524
X12.4266Y-18.6028
X12.4266Y-18.6421
X12.4266Y-18.7209
X12.4266Y-18.7602
X12.4266Y-18.839
X12.4266Y-18.8783
X12.4266Y-18.9571
X12.4266Y-18.9965
X12.4266Y-19.0752
X12.4266Y-19.1146
X12.4266Y-19.1933
X12.4266Y-19.2327
X12.4266Y-19.3114
X12.4266Y-19.3508
X12.427Y-8.3472
X12.427Y-8.3866
X12.427Y-8.4654
X12.427Y-8.5047
X12.427Y-8.5835
X12.427Y-8.6228
X12.427Y-8.7016
X12.427Y-8.7409
X12.427Y-8.8197
X12.427Y-8.8591
X12.427Y-8.9378
X12.427Y-8.9772
X12.427Y-9.0559
X12.427Y-9.0953
X12.427Y-9.174
X12.427Y-9.2134
X12.427Y-9.2921
X12.427Y-9.3315
X12.427Y-14.3118
X12.427Y-14.3512
X12.427Y-14.4299
X12.427Y-14.4693
X12.427Y-14.548
X12.427Y-14.5874
X12.427Y-14.6661
X12.427Y-14.7055
X12.427Y-14.7843
X12.427Y-14.8236
X12.427Y-14.9024
X12.427Y-14.9417
X12.427Y-15.0205
X12.427Y-15.0598
X12.427Y-15.1386
X12.427Y-15.178
X12.427Y-15.2567
X12.427Y-15.2961
X12.4323Y-4.2134
X12.4323Y-4.2921
X12.4323Y-4.3315
X12.4323Y-4.4102
X12.4323Y-4.4496
X12.4323Y-4.5283
X12.4323Y-4.5677
X12.4323Y-4.6465
X12.4323Y-4.6858
X12.4323Y-4.7646
X12.4323Y-4.8039
X12.4323Y-4.8827
X12.4323Y-4.922
X12.4323Y-5.0008
X12.4323Y-5.0402
X12.4323Y-5.1189
X12.4323Y-5.1583
X12.4323Y-5.237
X12.4323Y-5.2764
X12.4323Y-5.3551
X12.4323Y-5.3945
X12.4333Y-10.178
X12.4333Y-10.2567
X12.4333Y-10.2961
X12.4333Y-10.3748
X12.4333Y-10.4142
X12.4333Y-10.4929
X12.4333Y-10.5323
X12.4333Y-10.611
X12.4333Y-10.6504
X12.4333Y-10.7291
X12.4333Y-10.7685
X12.4333Y-10.8472
X12.4333Y-10.8866
X12.4333Y-10.9654
X12.4333Y-11.0047
X12.4333Y-11.0835
X12.4333Y-11.1228
X12.4333Y-11.2016
X12.4333Y-11.2409
X12.4333Y-11.3197
X12.4333Y-11.3591
X12.4333Y-16.1425
X12.4333Y-16.2213
X12.4333Y-16.2606
X12.4333Y-16.3394
X12.4333Y-16.3787
X12.4333Y-16.4575
X12.4333Y-16.4969
X12.4333Y-16.5756
X12.4333Y-16.615
X12.4333Y-16.6937
X12.4333Y-16.7331
X12.4333Y-16.8118
X12.4333Y-16.8512
X12.4333Y-16.9299
X12.4333Y-16.9693
X12.4333Y-17.048
X12.4333Y-17.0874
X12.4333Y-17.1661
X12.4333Y-17.2055
X12.4333Y-17.2843
X12.4333Y-17.3236
X12.6681Y-2.4732
X12.6681Y-2.5047
X12.6681Y-2.5677
X12.6681Y-2.5992
X12.6681Y-2.6622
X12.6681Y-2.6937
X12.6681Y-2.7882
X12.6681Y-2.8197
X12.6681Y-2.8827
X12.6681Y-2.9142
X12.6681Y-2.9772
X12.6681Y-3.0402
X12.6681Y-3.1031
X12.6681Y-3.1346
X12.6681Y-3.1976
X12.6681Y-3.2291
X12.6681Y-3.3236
X12.6681Y-3.3551
X12.6681Y-3.4181
X12.6681Y-3.4496
X12.6681Y-3.5126
X12.6681Y-3.5441
X12.6681Y-6.0854
X12.6681Y-6.1484
X12.6681Y-6.1799
X12.6681Y-6.2429
X12.6681Y-6.2744
X12.6681Y-6.3689
X12.6681Y-6.4004
X12.6681Y-6.4634
X12.6681Y-6.4949
X12.6681Y-6.5579
X12.6681Y-6.5894
X12.6681Y-6.6839
X12.6681Y-6.7154
X12.6681Y-6.7783
X12.6681Y-6.8098
X12.6681Y-6.8728
X12.6681Y-6.9358
X12.6681Y-6.9988
X12.6681Y-7.0303
X12.6681Y-7.0933
X12.6681Y-7.1248
X12.6685Y-3.7646
X12.6685Y-3.7961
X12.6685Y-3.8591
X12.6685Y-3.8906
X12.6685Y-3.9535
X12.6685Y-4.0165
X12.6685Y-4.0795
X12.6685Y-4.111
X12.6685Y-4.174
X12.6685Y-4.2055
X12.6685Y-4.3
X12.6685Y-5.424
X12.6685Y-5.487
X12.6685Y-5.5185
X12.6685Y-5.5815
X12.6685Y-5.613
X12.6685Y-5.7075
X12.6685Y-5.739
X12.6685Y-5.802
X12.6685Y-5.8335
X12.6685Y-5.8965
X12.6691Y-8.4378
X12.6691Y-8.4693
X12.6691Y-8.5323
X12.6691Y-8.5638
X12.6691Y-8.6268
X12.6691Y-8.6583
X12.6691Y-8.7528
X12.6691Y-8.7843
X12.6691Y-8.8472
X12.6691Y-8.8787
X12.6691Y-8.9417
X12.6691Y-9.0047
X12.6691Y-9.0677
X12.6691Y-9.0992
X12.6691Y-9.1622
X12.6691Y-9.1937
X12.6691Y-9.2882
X12.6691Y-9.3197
X12.6691Y-9.3827
X12.6691Y-9.4142
X12.6691Y-9.4772
X12.6691Y-9.5087
X12.6691Y-12.05
X12.6691Y-12.113
X12.6691Y-12.1445
X12.6691Y-12.2075
X12.6691Y-12.239
X12.6691Y-12.3335
X12.6691Y-12.365
X12.6691Y-12.428
X12.6691Y-12.4594
X12.6691Y-12.5224
X12.6691Y-12.5539
X12.6691Y-12.6484
X12.6691Y-12.6799
X12.6691Y-12.7429
X12.6691Y-12.7744
X12.6691Y-12.8374
X12.6691Y-12.9004
X12.6691Y-12.9634
X12.6691Y-12.9949
X12.6691Y-13.0579
X12.6691Y-13.0894
X12.6691Y-14.4024
X12.6691Y-14.4339
X12.6691Y-14.4969
X12.6691Y-14.5283
X12.6691Y-14.5913
X12.6691Y-14.6228
X12.6691Y-14.7173
X12.6691Y-14.7488
X12.6691Y-14.8118
X12.6691Y-14.8433
X12.6691Y-14.9063
X12.6691Y-14.9693
X12.6691Y-15.0323
X12.6691Y-15.0638
X12.6691Y-15.1268
X12.6691Y-15.1583
X12.6691Y-15.2528
X12.6691Y-15.2843
X12.6691Y-15.3472
X12.6691Y-15.3787
X12.6691Y-15.4417
X12.6691Y-15.4732
X12.6691Y-18.0146
X12.6691Y-18.0776
X12.6691Y-18.1091
X12.6691Y-18.172
X12.6691Y-18.2035
X12.6691Y-18.298
X12.6691Y-18.3295
X12.6691Y-18.3925
X12.6691Y-18.424
X12.6691Y-18.487
X12.6691Y-18.5185
X12.6691Y-18.613
X12.6691Y-18.6445
X12.6691Y-18.7075
X12.6691Y-18.739
X12.6691Y-18.802
X12.6691Y-18.865
X12.6691Y-18.928
X12.6691Y-18.9594
X12.6691Y-19.0224
X12.6691Y-19.0539
X12.6695Y-9.7291
X12.6695Y-9.7606
X12.6695Y-9.8236
X12.6695Y-9.8551
X12.6695Y-9.9181
X12.6695Y-9.9811
X12.6695Y-10.0441
X12.6695Y-10.0756
X12.6695Y-10.1386
X12.6695Y-10.1701
X12.6695Y-10.2646
X12.6695Y-11.3886
X12.6695Y-11.4516
X12.6695Y-11.4831
X12.6695Y-11.5461
X12.6695Y-11.5776
X12.6695Y-11.672
X12.6695Y-11.7035
X12.6695Y-11.7665
X12.6695Y-11.798
X12.6695Y-11.861
X12.6695Y-15.6937
X12.6695Y-15.7252
X12.6695Y-15.7882
X12.6695Y-15.8197
X12.6695Y-15.8827
X12.6695Y-15.9457
X12.6695Y-16.0087
X12.6695Y-16.0402
X12.6695Y-16.1031
X12.6695Y-16.1346
X12.6695Y-16.2291
X12.6695Y-17.3531
X12.6695Y-17.4161
X12.6695Y-17.4476
X12.6695Y-17.5106
X12.6695Y-17.5421
X12.6695Y-17.6366
X12.6695Y-17.6681
X12.6695Y-17.7311
X12.6695Y-17.7626
X12.6695Y-17.8256
X12.9606Y-3.7644
X12.9606Y-3.7959
X12.9606Y-3.8589
X12.9606Y-3.8904
X12.9606Y-3.9533
X12.9606Y-4.0163
X12.9606Y-4.0793
X12.9606Y-4.1108
X12.9606Y-4.1738
X12.9606Y-4.2053
X12.9606Y-4.2998
X12.9606Y-5.4238
X12.9606Y-5.4868
X12.9606Y-5.5183
X12.9606Y-5.5813
X12.9606Y-5.6128
X12.9606Y-5.7073
X12.9606Y-5.7388
X12.9606Y-5.8018
X12.9606Y-5.8333
X12.9606Y-5.8963
X12.961Y-2.473
X12.961Y-2.5045
X12.961Y-2.5675
X12.961Y-2.599
X12.961Y-2.662
X12.961Y-2.6935
X12.961Y-2.788
X12.961Y-2.8195
X12.961Y-2.8825
X12.961Y-2.914
X12.961Y-2.977
X12.961Y-3.04
X12.961Y-3.103
X12.961Y-3.1344
X12.961Y-3.1974
X12.961Y-3.2289
X12.961Y-3.3234
X12.961Y-3.3549
X12.961Y-3.4179
X12.961Y-3.4494
X12.961Y-3.5124
X12.961Y-3.5439
X12.961Y-6.0852
X12.961Y-6.1482
X12.961Y-6.1797
X12.961Y-6.2427
X12.961Y-6.2742
X12.961Y-6.3687
X12.961Y-6.4002
X12.961Y-6.4632
X12.961Y-6.4947
X12.961Y-6.5577
X12.961Y-6.5892
X12.961Y-6.6837
X12.961Y-6.7152
X12.961Y-6.7781
X12.961Y-6.8096
X12.961Y-6.8726
X12.961Y-6.9356
X12.961Y-6.9986
X12.961Y-7.0301
X12.961Y-7.0931
X12.961Y-7.1246
X12.9616Y-9.7289
X12.9616Y-9.7604
X12.9616Y-9.8234
X12.9616Y-9.8549
X12.9616Y-9.9179
X12.9616Y-9.9809
X12.9616Y-10.0439
X12.9616Y-10.0754
X12.9616Y-10.1384
X12.9616Y-10.1699
X12.9616Y-10.2644
X12.9616Y-11.3884
X12.9616Y-11.4514
X12.9616Y-11.4829
X12.9616Y-11.5459
X12.9616Y-11.5774
X12.9616Y-11.6719
X12.9616Y-11.7033
X12.9616Y-11.7663
X12.9616Y-11.7978
X12.9616Y-11.8608
X12.9616Y-15.6935
X12.9616Y-15.725
X12.9616Y-15.788
X12.9616Y-15.8195
X12.9616Y-15.8825
X12.9616Y-15.9455
X12.9616Y-16.0085
X12.9616Y-16.04
X12.9616Y-16.103
X12.9616Y-16.1344
X12.9616Y-16.2289
X12.9616Y-17.353
X12.9616Y-17.4159
X12.9616Y-17.4474
X12.9616Y-17.5104
X12.9616Y-17.5419
X12.9616Y-17.6364
X12.9616Y-17.6679
X12.9616Y-17.7309
X12.9616Y-17.7624
X12.9616Y-17.8254
X12.962Y-8.4376
X12.962Y-8.4691
X12.962Y-8.5321
X12.962Y-8.5636
X12.962Y-8.6266
X12.962Y-8.6581
X12.962Y-8.7526
X12.962Y-8.7841
X12.962Y-8.847
X12.962Y-8.8785
X12.962Y-8.9415
X12.962Y-9.0045
X12.962Y-9.0675
X12.962Y-9.099
X12.962Y-9.162
X12.962Y-9.1935
X12.962Y-9.288
X12.962Y-9.3195
X12.962Y-9.3825
X12.962Y-9.414
X12.962Y-9.477
X12.962Y-9.5085
X12.962Y-12.0498
X12.962Y-12.1128
X12.962Y-12.1443
X12.962Y-12.2073
X12.962Y-12.2388
X12.962Y-12.3333
X12.962Y-12.3648
X12.962Y-12.4278
X12.962Y-12.4593
X12.962Y-12.5222
X12.962Y-12.5537
X12.962Y-12.6482
X12.962Y-12.6797
X12.962Y-12.7427
X12.962Y-12.7742
X12.962Y-12.8372
X12.962Y-12.9002
X12.962Y-12.9632
X12.962Y-12.9947
X12.962Y-13.0577
X12.962Y-13.0892
X12.962Y-14.4022
X12.962Y-14.4337
X12.962Y-14.4967
X12.962Y-14.5281
X12.962Y-14.5911
X12.962Y-14.6226
X12.962Y-14.7171
X12.962Y-14.7486
X12.962Y-14.8116
X12.962Y-14.8431
X12.962Y-14.9061
X12.962Y-14.9691
X12.962Y-15.0321
X12.962Y-15.0636
X12.962Y-15.1266
X12.962Y-15.1581
X12.962Y-15.2526
X12.962Y-15.2841
X12.962Y-15.347
X12.962Y-15.3785
X12.962Y-15.4415
X12.962Y-15.473
X12.962Y-18.0144
X12.962Y-18.0774
X12.962Y-18.1089
X12.962Y-18.1719
X12.962Y-18.2033
X12.962Y-18.2978
X12.962Y-18.3293
X12.962Y-18.3923
X12.962Y-18.4238
X12.962Y-18.4868
X12.962Y-18.5183
X12.962Y-18.6128
X12.962Y-18.6443
X12.962Y-18.7073
X12.962Y-18.7388
X12.962Y-18.8018
X12.962Y-18.8648
X12.962Y-18.9278
X12.962Y-18.9593
X12.962Y-19.0222
X12.962Y-19.0537
X13.1969Y-4.2132
X13.1969Y-4.2919
X13.1969Y-4.3313
X13.1969Y-4.41
X13.1969Y-4.4494
X13.1969Y-4.5281
X13.1969Y-4.5675
X13.1969Y-4.6463
X13.1969Y-4.6856
X13.1969Y-4.7644
X13.1969Y-4.8037
X13.1969Y-4.8825
X13.1969Y-4.9219
X13.1969Y-5.0006
X13.1969Y-5.04
X13.1969Y-5.1187
X13.1969Y-5.1581
X13.1969Y-5.2368
X13.1969Y-5.2762
X13.1969Y-5.3549
X13.1969Y-5.3943
X13.1978Y-10.1778
X13.1978Y-10.2565
X13.1978Y-10.2959
X13.1978Y-10.3746
X13.1978Y-10.414
X13.1978Y-10.4927
X13.1978Y-10.5321
X13.1978Y-10.6108
X13.1978Y-10.6502
X13.1978Y-10.7289
X13.1978Y-10.7683
X13.1978Y-10.847
X13.1978Y-10.8864
X13.1978Y-10.9652
X13.1978Y-11.0045
X13.1978Y-11.0833
X13.1978Y-11.1226
X13.1978Y-11.2014
X13.1978Y-11.2407
X13.1978Y-11.3195
X13.1978Y-11.3589
X13.1978Y-16.1423
X13.1978Y-16.2211
X13.1978Y-16.2604
X13.1978Y-16.3392
X13.1978Y-16.3785
X13.1978Y-16.4573
X13.1978Y-16.4967
X13.1978Y-16.5754
X13.1978Y-16.6148
X13.1978Y-16.6935
X13.1978Y-16.7329
X13.1978Y-16.8116
X13.1978Y-16.851
X13.1978Y-16.9297
X13.1978Y-16.9691
X13.1978Y-17.0478
X13.1978Y-17.0872
X13.1978Y-17.1659
X13.1978Y-17.2053
X13.1978Y-17.2841
X13.1978Y-17.3234
X13.2031Y-2.3825
X13.2031Y-2.4219
X13.2031Y-2.5006
X13.2031Y-2.54
X13.2031Y-2.6187
X13.2031Y-2.6581
X13.2031Y-2.7368
X13.2031Y-2.7762
X13.2031Y-2.8549
X13.2031Y-2.8943
X13.2031Y-2.973
X13.2031Y-3.0124
X13.2031Y-3.0911
X13.2031Y-3.1305
X13.2031Y-3.2093
X13.2031Y-3.2486
X13.2031Y-3.3274
X13.2031Y-3.3667
X13.2035Y-2.3033
X13.2035Y-6.201
X13.2035Y-6.2404
X13.2035Y-6.3191
X13.2035Y-6.3585
X13.2035Y-6.4372
X13.2035Y-6.4766
X13.2035Y-6.5553
X13.2035Y-6.5947
X13.2035Y-6.6734
X13.2035Y-6.7128
X13.2035Y-6.7915
X13.2035Y-6.8309
X13.2035Y-6.9096
X13.2035Y-6.949
X13.2035Y-7.0278
X13.2035Y-7.0671
X13.2035Y-7.1459
X13.2035Y-7.1852
X13.2035Y-7.264
X13.2035Y-7.3033
X13.2035Y-7.3821
X13.2035Y-7.4215
X13.2041Y-8.347
X13.2041Y-8.3864
X13.2041Y-8.4652
X13.2041Y-8.5045
X13.2041Y-8.5833
X13.2041Y-8.6226
X13.2041Y-8.7014
X13.2041Y-8.7407
X13.2041Y-8.8195
X13.2041Y-8.8589
X13.2041Y-8.9376
X13.2041Y-8.977
X13.2041Y-9.0557
X13.2041Y-9.0951
X13.2041Y-9.1738
X13.2041Y-9.2132
X13.2041Y-9.2919
X13.2041Y-9.3313
X13.2041Y-14.3116
X13.2041Y-14.351
X13.2041Y-14.4297
X13.2041Y-14.4691
X13.2041Y-14.5478
X13.2041Y-14.5872
X13.2041Y-14.6659
X13.2041Y-14.7053
X13.2041Y-14.7841
X13.2041Y-14.8234
X13.2041Y-14.9022
X13.2041Y-14.9415
X13.2041Y-15.0203
X13.2041Y-15.0596
X13.2041Y-15.1384
X13.2041Y-15.1778
X13.2041Y-15.2565
X13.2041Y-15.2959
X13.2045Y-8.2679
X13.2045Y-12.1656
X13.2045Y-12.2049
X13.2045Y-12.2837
X13.2045Y-12.323
X13.2045Y-12.4018
X13.2045Y-12.4411
X13.2045Y-12.5199
X13.2045Y-12.5593
X13.2045Y-12.638
X13.2045Y-12.6774
X13.2045Y-12.7561
X13.2045Y-12.7955
X13.2045Y-12.8742
X13.2045Y-12.9136
X13.2045Y-12.9923
X13.2045Y-13.0317
X13.2045Y-13.1104
X13.2045Y-13.1498
X13.2045Y-13.2285
X13.2045Y-13.2679
X13.2045Y-13.3467
X13.2045Y-13.386
X13.2045Y-14.2325
X13.2045Y-18.1301
X13.2045Y-18.1695
X13.2045Y-18.2482
X13.2045Y-18.2876
X13.2045Y-18.3663
X13.2045Y-18.4057
X13.2045Y-18.4844
X13.2045Y-18.5238
X13.2045Y-18.6026
X13.2045Y-18.6419
X13.2045Y-18.7207
X13.2045Y-18.76
X13.2045Y-18.8388
X13.2045Y-18.8781
X13.2045Y-18.9569
X13.2045Y-18.9963
X13.2045Y-19.075
X13.2045Y-19.1144
X13.2045Y-19.1931
X13.2045Y-19.2325
X13.2045Y-19.3112
X13.2045Y-19.3506
X13.2055Y-2.264
X13.2065Y-8.2285
X13.2065Y-14.1931
X13.2071Y-3.4455
X13.2081Y-9.41
X13.2081Y-15.3746
X14.4102Y-3.4457
X14.4112Y-9.4102
X14.4112Y-15.3748
X14.4118Y-2.2642
X14.4124Y-8.2283
X14.4128Y-14.1933
X14.4138Y-2.3035
X14.4138Y-6.2012
X14.4138Y-6.2406
X14.4138Y-6.3193
X14.4138Y-6.3587
X14.4138Y-6.4374
X14.4138Y-6.4768
X14.4138Y-6.5555
X14.4138Y-6.5949
X14.4138Y-6.6736
X14.4138Y-6.713
X14.4138Y-6.7917
X14.4138Y-6.8311
X14.4138Y-6.9098
X14.4138Y-6.9492
X14.4138Y-7.028
X14.4138Y-7.0673
X14.4138Y-7.1461
X14.4138Y-7.1854
X14.4138Y-7.2642
X14.4138Y-7.3035
X14.4138Y-7.3823
X14.4138Y-7.4217
X14.4142Y-2.3827
X14.4142Y-2.422
X14.4142Y-2.5008
X14.4142Y-2.5402
X14.4142Y-2.6189
X14.4142Y-2.6583
X14.4142Y-2.737
X14.4142Y-2.7764
X14.4142Y-2.8551
X14.4142Y-2.8945
X14.4142Y-2.9732
X14.4142Y-3.0126
X14.4142Y-3.0913
X14.4142Y-3.1307
X14.4142Y-3.2094
X14.4142Y-3.2488
X14.4142Y-3.3276
X14.4142Y-3.3669
X14.4148Y-8.2681
X14.4148Y-12.1657
X14.4148Y-12.2051
X14.4148Y-12.2839
X14.4148Y-12.3232
X14.4148Y-12.402
X14.4148Y-12.4413
X14.4148Y-12.5201
X14.4148Y-12.5594
X14.4148Y-12.6382
X14.4148Y-12.6776
X14.4148Y-12.7563
X14.4148Y-12.7957
X14.4148Y-12.8744
X14.4148Y-12.9138
X14.4148Y-12.9925
X14.4148Y-13.0319
X14.4148Y-13.1106
X14.4148Y-13.15
X14.4148Y-13.2287
X14.4148Y-13.2681
X14.4148Y-13.3469
X14.4148Y-13.3862
X14.4148Y-14.2327
X14.4148Y-18.1303
X14.4148Y-18.1697
X14.4148Y-18.2484
X14.4148Y-18.2878
X14.4148Y-18.3665
X14.4148Y-18.4059
X14.4148Y-18.4846
X14.4148Y-18.524
X14.4148Y-18.6028
X14.4148Y-18.6421
X14.4148Y-18.7209
X14.4148Y-18.7602
X14.4148Y-18.839
X14.4148Y-18.8783
X14.4148Y-18.9571
X14.4148Y-18.9965
X14.4148Y-19.0752
X14.4148Y-19.1146
X14.4148Y-19.1933
X14.4148Y-19.2327
X14.4148Y-19.3114
X14.4148Y-19.3508
X14.4152Y-8.3472
X14.4152Y-8.3866
X14.4152Y-8.4654
X14.4152Y-8.5047
X14.4152Y-8.5835
X14.4152Y-8.6228
X14.4152Y-8.7016
X14.4152Y-8.7409
X14.4152Y-8.8197
X14.4152Y-8.8591
X14.4152Y-8.9378
X14.4152Y-8.9772
X14.4152Y-9.0559
X14.4152Y-9.0953
X14.4152Y-9.174
X14.4152Y-9.2134
X14.4152Y-9.2921
X14.4152Y-9.3315
X14.4152Y-14.3118
X14.4152Y-14.3512
X14.4152Y-14.4299
X14.4152Y-14.4693
X14.4152Y-14.548
X14.4152Y-14.5874
X14.4152Y-14.6661
X14.4152Y-14.7055
X14.4152Y-14.7843
X14.4152Y-14.8236
X14.4152Y-14.9024
X14.4152Y-14.9417
X14.4152Y-15.0205
X14.4152Y-15.0598
X14.4152Y-15.1386
X14.4152Y-15.178
X14.4152Y-15.2567
X14.4152Y-15.2961
X14.4205Y-4.2134
X14.4205Y-4.2921
X14.4205Y-4.3315
X14.4205Y-4.4102
X14.4205Y-4.4496
X14.4205Y-4.5283
X14.4205Y-4.5677
X14.4205Y-4.6465
X14.4205Y-4.6858
X14.4205Y-4.7646
X14.4205Y-4.8039
X14.4205Y-4.8827
X14.4205Y-4.922
X14.4205Y-5.0008
X14.4205Y-5.0402
X14.4205Y-5.1189
X14.4205Y-5.1583
X14.4205Y-5.237
X14.4205Y-5.2764
X14.4205Y-5.3551
X14.4205Y-5.3945
X14.4215Y-10.178
X14.4215Y-10.2567
X14.4215Y-10.2961
X14.4215Y-10.3748
X14.4215Y-10.4142
X14.4215Y-10.4929
X14.4215Y-10.5323
X14.4215Y-10.611
X14.4215Y-10.6504
X14.4215Y-10.7291
X14.4215Y-10.7685
X14.4215Y-10.8472
X14.4215Y-10.8866
X14.4215Y-10.9654
X14.4215Y-11.0047
X14.4215Y-11.0835
X14.4215Y-11.1228
X14.4215Y-11.2016
X14.4215Y-11.2409
X14.4215Y-11.3197
X14.4215Y-11.3591
X14.4215Y-16.1425
X14.4215Y-16.2213
X14.4215Y-16.2606
X14.4215Y-16.3394
X14.4215Y-16.3787
X14.4215Y-16.4575
X14.4215Y-16.4969
X14.4215Y-16.5756
X14.4215Y-16.615
X14.4215Y-16.6937
X14.4215Y-16.7331
X14.4215Y-16.8118
X14.4215Y-16.8512
X14.4215Y-16.9299
X14.4215Y-16.9693
X14.4215Y-17.048
X14.4215Y-17.0874
X14.4215Y-17.1661
X14.4215Y-17.2055
X14.4215Y-17.2843
X14.4215Y-17.3236
X14.6563Y-2.4732
X14.6563Y-2.5047
X14.6563Y-2.5677
X14.6563Y-2.5992
X14.6563Y-2.6622
X14.6563Y-2.6937
X14.6563Y-2.7882
X14.6563Y-2.8197
X14.6563Y-2.8827
X14.6563Y-2.9142
X14.6563Y-2.9772
X14.6563Y-3.0402
X14.6563Y-3.1031
X14.6563Y-3.1346
X14.6563Y-3.1976
X14.6563Y-3.2291
X14.6563Y-3.3236
X14.6563Y-3.3551
X14.6563Y-3.4181
X14.6563Y-3.4496
X14.6563Y-3.5126
X14.6563Y-3.5441
X14.6563Y-6.0854
X14.6563Y-6.1484
X14.6563Y-6.1799
X14.6563Y-6.2429
X14.6563Y-6.2744
X14.6563Y-6.3689
X14.6563Y-6.4004
X14.6563Y-6.4634
X14.6563Y-6.4949
X14.6563Y-6.5579
X14.6563Y-6.5894
X14.6563Y-6.6839
X14.6563Y-6.7154
X14.6563Y-6.7783
X14.6563Y-6.8098
X14.6563Y-6.8728
X14.6563Y-6.9358
X14.6563Y-6.9988
X14.6563Y-7.0303
X14.6563Y-7.0933
X14.6563Y-7.1248
X14.6567Y-3.7646
X14.6567Y-3.7961
X14.6567Y-3.8591
X14.6567Y-3.8906
X14.6567Y-3.9535
X14.6567Y-4.0165
X14.6567Y-4.0795
X14.6567Y-4.111
X14.6567Y-4.174
X14.6567Y-4.2055
X14.6567Y-4.3
X14.6567Y-5.424
X14.6567Y-5.487
X14.6567Y-5.5185
X14.6567Y-5.5815
X14.6567Y-5.613
X14.6567Y-5.7075
X14.6567Y-5.739
X14.6567Y-5.802
X14.6567Y-5.8335
X14.6567Y-5.8965
X14.6573Y-8.4378
X14.6573Y-8.4693
X14.6573Y-8.5323
X14.6573Y-8.5638
X14.6573Y-8.6268
X14.6573Y-8.6583
X14.6573Y-8.7528
X14.6573Y-8.7843
X14.6573Y-8.8472
X14.6573Y-8.8787
X14.6573Y-8.9417
X14.6573Y-9.0047
X14.6573Y-9.0677
X14.6573Y-9.0992
X14.6573Y-9.1622
X14.6573Y-9.1937
X14.6573Y-9.2882
X14.6573Y-9.3197
X14.6573Y-9.3827
X14.6573Y-9.4142
X14.6573Y-9.4772
X14.6573Y-9.5087
X14.6573Y-12.05
X14.6573Y-12.113
X14.6573Y-12.1445
X14.6573Y-12.2075
X14.6573Y-12.239
X14.6573Y-12.3335
X14.6573Y-12.365
X14.6573Y-12.428
X14.6573Y-12.4594
X14.6573Y-12.5224
X14.6573Y-12.5539
X14.6573Y-12.6484
X14.6573Y-12.6799
X14.6573Y-12.7429
X14.6573Y-12.7744
X14.6573Y-12.8374
X14.6573Y-12.9004
X14.6573Y-12.9634
X14.6573Y-12.9949
X14.6573Y-13.0579
X14.6573Y-13.0894
X14.6573Y-14.4024
X14.6573Y-14.4339
X14.6573Y-14.4969
X14.6573Y-14.5283
X14.6573Y-14.5913
X14.6573Y-14.6228
X14.6573Y-14.7173
X14.6573Y-14.7488
X14.6573Y-14.8118
X14.6573Y-14.8433
X14.6573Y-14.9063
X14.6573Y-14.9693
X14.6573Y-15.0323
X14.6573Y-15.0638
X14.6573Y-15.1268
X14.6573Y-15.1583
X14.6573Y-15.2528
X14.6573Y-15.2843
X14.6573Y-15.3472
X14.6573Y-15.3787
X14.6573Y-15.4417
X14.6573Y-15.4732
X14.6573Y-18.0146
X14.6573Y-18.0776
X14.6573Y-18.1091
X14.6573Y-18.172
X14.6573Y-18.2035
X14.6573Y-18.298
X14.6573Y-18.3295
X14.6573Y-18.3925
X14.6573Y-18.424
X14.6573Y-18.487
X14.6573Y-18.5185
X14.6573Y-18.613
X14.6573Y-18.6445
X14.6573Y-18.7075
X14.6573Y-18.739
X14.6573Y-18.802
X14.6573Y-18.865
X14.6573Y-18.928
X14.6573Y-18.9594
X14.6573Y-19.0224
X14.6573Y-19.0539
X14.6577Y-9.7291
X14.6577Y-9.7606
X14.6577Y-9.8236
X14.6577Y-9.8551
X14.6577Y-9.9181
X14.6577Y-9.9811
X14.6577Y-10.0441
X14.6577Y-10.0756
X14.6577Y-10.1386
X14.6577Y-10.1701
X14.6577Y-10.2646
X14.6577Y-11.3886
X14.6577Y-11.4516
X14.6577Y-11.4831
X14.6577Y-11.5461
X14.6577Y-11.5776
X14.6577Y-11.672
X14.6577Y-11.7035
X14.6577Y-11.7665
X14.6577Y-11.798
X14.6577Y-11.861
X14.6577Y-15.6937
X14.6577Y-15.7252
X14.6577Y-15.7882
X14.6577Y-15.8197
X14.6577Y-15.8827
X14.6577Y-15.9457
X14.6577Y-16.0087
X14.6577Y-16.0402
X14.6577Y-16.1031
X14.6577Y-16.1346
X14.6577Y-16.2291
X14.6577Y-17.3531
X14.6577Y-17.4161
X14.6577Y-17.4476
X14.6577Y-17.5106
X14.6577Y-17.5421
X14.6577Y-17.6366
X14.6577Y-17.6681
X14.6577Y-17.7311
X14.6577Y-17.7626
X14.6577Y-17.8256
X14.9488Y-3.7644
X14.9488Y-3.7959
X14.9488Y-3.8589
X14.9488Y-3.8904
X14.9488Y-3.9533
X14.9488Y-4.0163
X14.9488Y-4.0793
X14.9488Y-4.1108
X14.9488Y-4.1738
X14.9488Y-4.2053
X14.9488Y-4.2998
X14.9488Y-5.4238
X14.9488Y-5.4868
X14.9488Y-5.5183
X14.9488Y-5.5813
X14.9488Y-5.6128
X14.9488Y-5.7073
X14.9488Y-5.7388
X14.9488Y-5.8018
X14.9488Y-5.8333
X14.9488Y-5.8963
X14.9492Y-2.473
X14.9492Y-2.5045
X14.9492Y-2.5675
X14.9492Y-2.599
X14.9492Y-2.662
X14.9492Y-2.6935
X14.9492Y-2.788
X14.9492Y-2.8195
X14.9492Y-2.8825
X14.9492Y-2.914
X14.9492Y-2.977
X14.9492Y-3.04
X14.9492Y-3.103
X14.9492Y-3.1344
X14.9492Y-3.1974
X14.9492Y-3.2289
X14.9492Y-3.3234
X14.9492Y-3.3549
X14.9492Y-3.4179
X14.9492Y-3.4494
X14.9492Y-3.5124
X14.9492Y-3.5439
X14.9492Y-6.0852
X14.9492Y-6.1482
X14.9492Y-6.1797
X14.9492Y-6.2427
X14.9492Y-6.2742
X14.9492Y-6.3687
X14.9492Y-6.4002
X14.9492Y-6.4632
X14.9492Y-6.4947
X14.9492Y-6.5577
X14.9492Y-6.5892
X14.9492Y-6.6837
X14.9492Y-6.7152
X14.9492Y-6.7781
X14.9492Y-6.8096
X14.9492Y-6.8726
X14.9492Y-6.9356
X14.9492Y-6.9986
X14.9492Y-7.0301
X14.9492Y-7.0931
X14.9492Y-7.1246
X14.9498Y-9.7289
X14.9498Y-9.7604
X14.9498Y-9.8234
X14.9498Y-9.8549
X14.9498Y-9.9179
X14.9498Y-9.9809
X14.9498Y-10.0439
X14.9498Y-10.0754
X14.9498Y-10.1384
X14.9498Y-10.1699
X14.9498Y-10.2644
X14.9498Y-11.3884
X14.9498Y-11.4514
X14.9498Y-11.4829
X14.9498Y-11.5459
X14.9498Y-11.5774
X14.9498Y-11.6719
X14.9498Y-11.7033
X14.9498Y-11.7663
X14.9498Y-11.7978
X14.9498Y-11.8608
X14.9498Y-15.6935
X14.9498Y-15.725
X14.9498Y-15.788
X14.9498Y-15.8195
X14.9498Y-15.8825
X14.9498Y-15.9455
X14.9498Y-16.0085
X14.9498Y-16.04
X14.9498Y-16.103
X14.9498Y-16.1344
X14.9498Y-16.2289
X14.9498Y-17.353
X14.9498Y-17.4159
X14.9498Y-17.4474
X14.9498Y-17.5104
X14.9498Y-17.5419
X14.9498Y-17.6364
X14.9498Y-17.6679
X14.9498Y-17.7309
X14.9498Y-17.7624
X14.9498Y-17.8254
X14.9502Y-8.4376
X14.9502Y-8.4691
X14.9502Y-8.5321
X14.9502Y-8.5636
X14.9502Y-8.6266
X14.9502Y-8.6581
X14.9502Y-8.7526
X14.9502Y-8.7841
X14.9502Y-8.847
X14.9502Y-8.8785
X14.9502Y-8.9415
X14.9502Y-9.0045
X14.9502Y-9.0675
X14.9502Y-9.099
X14.9502Y-9.162
X14.9502Y-9.1935
X14.9502Y-9.288
X14.9502Y-9.3195
X14.9502Y-9.3825
X14.9502Y-9.414
X14.9502Y-9.477
X14.9502Y-9.5085
X14.9502Y-12.0498
X14.9502Y-12.1128
X14.9502Y-12.1443
X14.9502Y-12.2073
X14.9502Y-12.2388
X14.9502Y-12.3333
X14.9502Y-12.3648
X14.9502Y-12.4278
X14.9502Y-12.4593
X14.9502Y-12.5222
X14.9502Y-12.5537
X14.9502Y-12.6482
X14.9502Y-12.6797
X14.9502Y-12.7427
X14.9502Y-12.7742
X14.9502Y-12.8372
X14.9502Y-12.9002
X14.9502Y-12.9632
X14.9502Y-12.9947
X14.9502Y-13.0577
X14.9502Y-13.0892
X14.9502Y-14.4022
X14.9502Y-14.4337
X14.9502Y-14.4967
X14.9502Y-14.5281
X14.9502Y-14.5911
X14.9502Y-14.6226
X14.9502Y-14.7171
X14.9502Y-14.7486
X14.9502Y-14.8116
X14.9502Y-14.8431
X14.9502Y-14.9061
X14.9502Y-14.9691
X14.9502Y-15.0321
X14.9502Y-15.0636
X14.9502Y-15.1266
X14.9502Y-15.1581
X14.9502Y-15.2526
X14.9502Y-15.2841
X14.9502Y-15.347
X14.9502Y-15.3785
X14.9502Y-15.4415
X14.9502Y-15.473
X14.9502Y-18.0144
X14.9502Y-18.0774
X14.9502Y-18.1089
X14.9502Y-18.1719
X14.9502Y-18.2033
X14.9502Y-18.2978
X14.9502Y-18.3293
X14.9502Y-18.3923
X14.9502Y-18.4238
X14.9502Y-18.4868
X14.9502Y-18.5183
X14.9502Y-18.6128
X14.9502Y-18.6443
X14.9502Y-18.7073
X14.9502Y-18.7388
X14.9502Y-18.8018
X14.9502Y-18.8648
X14.9502Y-18.9278
X14.9502Y-18.9593
X14.9502Y-19.0222
X14.9502Y-19.0537
X15.185Y-4.2132
X15.185Y-4.2919
X15.185Y-4.3313
X15.185Y-4.41
X15.185Y-4.4494
X15.185Y-4.5281
X15.185Y-4.5675
X15.185Y-4.6463
X15.185Y-4.6856
X15.185Y-4.7644
X15.185Y-4.8037
X15.185Y-4.8825
X15.185Y-4.9219
X15.185Y-5.0006
X15.185Y-5.04
X15.185Y-5.1187
X15.185Y-5.1581
X15.185Y-5.2368
X15.185Y-5.2762
X15.185Y-5.3549
X15.185Y-5.3943
X15.186Y-10.1778
X15.186Y-10.2565
X15.186Y-10.2959
X15.186Y-10.3746
X15.186Y-10.414
X15.186Y-10.4927
X15.186Y-10.5321
X15.186Y-10.6108
X15.186Y-10.6502
X15.186Y-10.7289
X15.186Y-10.7683
X15.186Y-10.847
X15.186Y-10.8864
X15.186Y-10.9652
X15.186Y-11.0045
X15.186Y-11.0833
X15.186Y-11.1226
X15.186Y-11.2014
X15.186Y-11.2407
X15.186Y-11.3195
X15.186Y-11.3589
X15.186Y-16.1423
X15.186Y-16.2211
X15.186Y-16.2604
X15.186Y-16.3392
X15.186Y-16.3785
X15.186Y-16.4573
X15.186Y-16.4967
X15.186Y-16.5754
X15.186Y-16.6148
X15.186Y-16.6935
X15.186Y-16.7329
X15.186Y-16.8116
X15.186Y-16.851
X15.186Y-16.9297
X15.186Y-16.9691
X15.186Y-17.0478
X15.186Y-17.0872
X15.186Y-17.1659
X15.186Y-17.2053
X15.186Y-17.2841
X15.186Y-17.3234
X15.1913Y-2.3825
X15.1913Y-2.4219
X15.1913Y-2.5006
X15.1913Y-2.54
X15.1913Y-2.6187
X15.1913Y-2.6581
X15.1913Y-2.7368
X15.1913Y-2.7762
X15.1913Y-2.8549
X15.1913Y-2.8943
X15.1913Y-2.973
X15.1913Y-3.0124
X15.1913Y-3.0911
X15.1913Y-3.1305
X15.1913Y-3.2093
X15.1913Y-3.2486
X15.1913Y-3.3274
X15.1913Y-3.3667
X15.1917Y-2.3033
X15.1917Y-6.201
X15.1917Y-6.2404
X15.1917Y-6.3191
X15.1917Y-6.3585
X15.1917Y-6.4372
X15.1917Y-6.4766
X15.1917Y-6.5553
X15.1917Y-6.5947
X15.1917Y-6.6734
X15.1917Y-6.7128
X15.1917Y-6.7915
X15.1917Y-6.8309
X15.1917Y-6.9096
X15.1917Y-6.949
X15.1917Y-7.0278
X15.1917Y-7.0671
X15.1917Y-7.1459
X15.1917Y-7.1852
X15.1917Y-7.264
X15.1917Y-7.3033
X15.1917Y-7.3821
X15.1917Y-7.4215
X15.1923Y-8.347
X15.1923Y-8.3864
X15.1923Y-8.4652
X15.1923Y-8.5045
X15.1923Y-8.5833
X15.1923Y-8.6226
X15.1923Y-8.7014
X15.1923Y-8.7407
X15.1923Y-8.8195
X15.1923Y-8.8589
X15.1923Y-8.9376
X15.1923Y-8.977
X15.1923Y-9.0557
X15.1923Y-9.0951
X15.1923Y-9.1738
X15.1923Y-9.2132
X15.1923Y-9.2919
X15.1923Y-9.3313
X15.1923Y-14.3116
X15.1923Y-14.351
X15.1923Y-14.4297
X15.1923Y-14.4691
X15.1923Y-14.5478
X15.1923Y-14.5872
X15.1923Y-14.6659
X15.1923Y-14.7053
X15.1923Y-14.7841
X15.1923Y-14.8234
X15.1923Y-14.9022
X15.1923Y-14.9415
X15.1923Y-15.0203
X15.1923Y-15.0596
X15.1923Y-15.1384
X15.1923Y-15.1778
X15.1923Y-15.2565
X15.1923Y-15.2959
X15.1927Y-8.2679
X15.1927Y-12.1656
X15.1927Y-12.2049
X15.1927Y-12.2837
X15.1927Y-12.323
X15.1927Y-12.4018
X15.1927Y-12.4411
X15.1927Y-12.5199
X15.1927Y-12.5593
X15.1927Y-12.638
X15.1927Y-12.6774
X15.1927Y-12.7561
X15.1927Y-12.7955
X15.1927Y-12.8742
X15.1927Y-12.9136
X15.1927Y-12.9923
X15.1927Y-13.0317
X15.1927Y-13.1104
X15.1927Y-13.1498
X15.1927Y-13.2285
X15.1927Y-13.2679
X15.1927Y-13.3467
X15.1927Y-13.386
X15.1927Y-14.2325
X15.1927Y-18.1301
X15.1927Y-18.1695
X15.1927Y-18.2482
X15.1927Y-18.2876
X15.1927Y-18.3663
X15.1927Y-18.4057
X15.1927Y-18.4844
X15.1927Y-18.5238
X15.1927Y-18.6026
X15.1927Y-18.6419
X15.1927Y-18.7207
X15.1927Y-18.76
X15.1927Y-18.8388
X15.1927Y-18.8781
X15.1927Y-18.9569
X15.1927Y-18.9963
X15.1927Y-19.075
X15.1927Y-19.1144
X15.1927Y-19.1931
X15.1927Y-19.2325
X15.1927Y-19.3112
X15.1927Y-19.3506
X15.1937Y-2.264
X15.1947Y-8.2285
X15.1947Y-14.1931
X15.1953Y-3.4455
X15.1963Y-9.41
X15.1963Y-15.3746
X16.3984Y-3.4457
X16.3994Y-9.4102
X16.3994Y-15.3748
X16.4Y-2.2642
X16.4006Y-8.2283
X16.401Y-14.1933
X16.402Y-2.3035
X16.402Y-6.2012
X16.402Y-6.2406
X16.402Y-6.3193
X16.402Y-6.3587
X16.402Y-6.4374
X16.402Y-6.4768
X16.402Y-6.5555
X16.402Y-6.5949
X16.402Y-6.6736
X16.402Y-6.713
X16.402Y-6.7917
X16.402Y-6.8311
X16.402Y-6.9098
X16.402Y-6.9492
X16.402Y-7.028
X16.402Y-7.0673
X16.402Y-7.1461
X16.402Y-7.1854
X16.402Y-7.2642
X16.402Y-7.3035
X16.402Y-7.3823
X16.402Y-7.4217
X16.4024Y-2.3827
X16.4024Y-2.422
X16.4024Y-2.5008
X16.4024Y-2.5402
X16.4024Y-2.6189
X16.4024Y-2.6583
X16.4024Y-2.737
X16.4024Y-2.7764
X16.4024Y-2.8551
X16.4024Y-2.8945
X16.4024Y-2.9732
X16.4024Y-3.0126
X16.4024Y-3.0913
X16.4024Y-3.1307
X16.4024Y-3.2094
X16.4024Y-3.2488
X16.4024Y-3.3276
X16.4024Y-3.3669
X16.403Y-8.2681
X16.403Y-12.1657
X16.403Y-12.2051
X16.403Y-12.2839
X16.403Y-12.3232
X16.403Y-12.402
X16.403Y-12.4413
X16.403Y-12.5201
X16.403Y-12.5594
X16.403Y-12.6382
X16.403Y-12.6776
X16.403Y-12.7563
X16.403Y-12.7957
X16.403Y-12.8744
X16.403Y-12.9138
X16.403Y-12.9925
X16.403Y-13.0319
X16.403Y-13.1106
X16.403Y-13.15
X16.403Y-13.2287
X16.403Y-13.2681
X16.403Y-13.3469
X16.403Y-13.3862
X16.403Y-14.2327
X16.403Y-18.1303
X16.403Y-18.1697
X16.403Y-18.2484
X16.403Y-18.2878
X16.403Y-18.3665
X16.403Y-18.4059
X16.403Y-18.4846
X16.403Y-18.524
X16.403Y-18.6028
X16.403Y-18.6421
X16.403Y-18.7209
X16.403Y-18.7602
X16.403Y-18.839
X16.403Y-18.8783
X16.403Y-18.9571
X16.403Y-18.9965
X16.403Y-19.0752
X16.403Y-19.1146
X16.403Y-19.1933
X16.403Y-19.2327
X16.403Y-19.3114
X16.403Y-19.3508
X16.4033Y-8.3472
X16.4033Y-8.3866
X16.4033Y-8.4654
X16.4033Y-8.5047
X16.4033Y-8.5835
X16.4033Y-8.6228
X16.4033Y-8.7016
X16.4033Y-8.7409
X16.4033Y-8.8197
X16.4033Y-8.8591
X16.4033Y-8.9378
X16.4033Y-8.9772
X16.4033Y-9.0559
X16.4033Y-9.0953
X16.4033Y-9.174
X16.4033Y-9.2134
X16.4033Y-9.2921
X16.4033Y-9.3315
X16.4033Y-14.3118
X16.4033Y-14.3512
X16.4033Y-14.4299
X16.4033Y-14.4693
X16.4033Y-14.548
X16.4033Y-14.5874
X16.4033Y-14.6661
X16.4033Y-14.7055
X16.4033Y-14.7843
X16.4033Y-14.8236
X16.4033Y-14.9024
X16.4033Y-14.9417
X16.4033Y-15.0205
X16.4033Y-15.0598
X16.4033Y-15.1386
X16.4033Y-15.178
X16.4033Y-15.2567
X16.4033Y-15.2961
X16.4087Y-4.2134
X16.4087Y-4.2921
X16.4087Y-4.3315
X16.4087Y-4.4102
X16.4087Y-4.4496
X16.4087Y-4.5283
X16.4087Y-4.5677
X16.4087Y-4.6465
X16.4087Y-4.6858
X16.4087Y-4.7646
X16.4087Y-4.8039
X16.4087Y-4.8827
X16.4087Y-4.922
X16.4087Y-5.0008
X16.4087Y-5.0402
X16.4087Y-5.1189
X16.4087Y-5.1583
X16.4087Y-5.237
X16.4087Y-5.2764
X16.4087Y-5.3551
X16.4087Y-5.3945
X16.4096Y-10.178
X16.4096Y-10.2567
X16.4096Y-10.2961
X16.4096Y-10.3748
X16.4096Y-10.4142
X16.4096Y-10.4929
X16.4096Y-10.5323
X16.4096Y-10.611
X16.4096Y-10.6504
X16.4096Y-10.7291
X16.4096Y-10.7685
X16.4096Y-10.8472
X16.4096Y-10.8866
X16.4096Y-10.9654
X16.4096Y-11.0047
X16.4096Y-11.0835
X16.4096Y-11.1228
X16.4096Y-11.2016
X16.4096Y-11.2409
X16.4096Y-11.3197
X16.4096Y-11.3591
X16.4096Y-16.1425
X16.4096Y-16.2213
X16.4096Y-16.2606
X16.4096Y-16.3394
X16.4096Y-16.3787
X16.4096Y-16.4575
X16.4096Y-16.4969
X16.4096Y-16.5756
X16.4096Y-16.615
X16.4096Y-16.6937
X16.4096Y-16.7331
X16.4096Y-16.8118
X16.4096Y-16.8512
X16.4096Y-16.9299
X16.4096Y-16.9693
X16.4096Y-17.048
X16.4096Y-17.0874
X16.4096Y-17.1661
X16.4096Y-17.2055
X16.4096Y-17.2843
X16.4096Y-17.3236
X16.6445Y-2.4732
X16.6445Y-2.5047
X16.6445Y-2.5677
X16.6445Y-2.5992
X16.6445Y-2.6622
X16.6445Y-2.6937
X16.6445Y-2.7882
X16.6445Y-2.8197
X16.6445Y-2.8827
X16.6445Y-2.9142
X16.6445Y-2.9772
X16.6445Y-3.0402
X16.6445Y-3.1031
X16.6445Y-3.1346
X16.6445Y-3.1976
X16.6445Y-3.2291
X16.6445Y-3.3236
X16.6445Y-3.3551
X16.6445Y-3.4181
X16.6445Y-3.4496
X16.6445Y-3.5126
X16.6445Y-3.5441
X16.6445Y-6.0854
X16.6445Y-6.1484
X16.6445Y-6.1799
X16.6445Y-6.2429
X16.6445Y-6.2744
X16.6445Y-6.3689
X16.6445Y-6.4004
X16.6445Y-6.4634
X16.6445Y-6.4949
X16.6445Y-6.5579
X16.6445Y-6.5894
X16.6445Y-6.6839
X16.6445Y-6.7154
X16.6445Y-6.7783
X16.6445Y-6.8098
X16.6445Y-6.8728
X16.6445Y-6.9358
X16.6445Y-6.9988
X16.6445Y-7.0303
X16.6445Y-7.0933
X16.6445Y-7.1248
X16.6449Y-3.7646
X16.6449Y-3.7961
X16.6449Y-3.8591
X16.6449Y-3.8906
X16.6449Y-3.9535
X16.6449Y-4.0165
X16.6449Y-4.0795
X16.6449Y-4.111
X16.6449Y-4.174
X16.6449Y-4.2055
X16.6449Y-4.3
X16.6449Y-5.424
X16.6449Y-5.487
X16.6449Y-5.5185
X16.6449Y-5.5815
X16.6449Y-5.613
X16.6449Y-5.7075
X16.6449Y-5.739
X16.6449Y-5.802
X16.6449Y-5.8335
X16.6449Y-5.8965
X16.6455Y-8.4378
X16.6455Y-8.4693
X16.6455Y-8.5323
X16.6455Y-8.5638
X16.6455Y-8.6268
X16.6455Y-8.6583
X16.6455Y-8.7528
X16.6455Y-8.7843
X16.6455Y-8.8472
X16.6455Y-8.8787
X16.6455Y-8.9417
X16.6455Y-9.0047
X16.6455Y-9.0677
X16.6455Y-9.0992
X16.6455Y-9.1622
X16.6455Y-9.1937
X16.6455Y-9.2882
X16.6455Y-9.3197
X16.6455Y-9.3827
X16.6455Y-9.4142
X16.6455Y-9.4772
X16.6455Y-9.5087
X16.6455Y-12.05
X16.6455Y-12.113
X16.6455Y-12.1445
X16.6455Y-12.2075
X16.6455Y-12.239
X16.6455Y-12.3335
X16.6455Y-12.365
X16.6455Y-12.428
X16.6455Y-12.4594
X16.6455Y-12.5224
X16.6455Y-12.5539
X16.6455Y-12.6484
X16.6455Y-12.6799
X16.6455Y-12.7429
X16.6455Y-12.7744
X16.6455Y-12.8374
X16.6455Y-12.9004
X16.6455Y-12.9634
X16.6455Y-12.9949
X16.6455Y-13.0579
X16.6455Y-13.0894
X16.6455Y-14.4024
X16.6455Y-14.4339
X16.6455Y-14.4969
X16.6455Y-14.5283
X16.6455Y-14.5913
X16.6455Y-14.6228
X16.6455Y-14.7173
X16.6455Y-14.7488
X16.6455Y-14.8118
X16.6455Y-14.8433
X16.6455Y-14.9063
X16.6455Y-14.9693
X16.6455Y-15.0323
X16.6455Y-15.0638
X16.6455Y-15.1268
X16.6455Y-15.1583
X16.6455Y-15.2528
X16.6455Y-15.2843
X16.6455Y-15.3472
X16.6455Y-15.3787
X16.6455Y-15.4417
X16.6455Y-15.4732
X16.6455Y-18.0146
X16.6455Y-18.0776
X16.6455Y-18.1091
X16.6455Y-18.172
X16.6455Y-18.2035
X16.6455Y-18.298
X16.6455Y-18.3295
X16.6455Y-18.3925
X16.6455Y-18.424
X16.6455Y-18.487
X16.6455Y-18.5185
X16.6455Y-18.613
X16.6455Y-18.6445
X16.6455Y-18.7075
X16.6455Y-18.739
X16.6455Y-18.802
X16.6455Y-18.865
X16.6455Y-18.928
X16.6455Y-18.9594
X16.6455Y-19.0224
X16.6455Y-19.0539
X16.6459Y-9.7291
X16.6459Y-9.7606
X16.6459Y-9.8236
X16.6459Y-9.8551
X16.6459Y-9.9181
X16.6459Y-9.9811
X16.6459Y-10.0441
X16.6459Y-10.0756
X16.6459Y-10.1386
X16.6459Y-10.1701
X16.6459Y-10.2646
X16.6459Y-11.3886
X16.6459Y-11.4516
X16.6459Y-11.4831
X16.6459Y-11.5461
X16.6459Y-11.5776
X16.6459Y-11.672
X16.6459Y-11.7035
X16.6459Y-11.7665
X16.6459Y-11.798
X16.6459Y-11.861
X16.6459Y-15.6937
X16.6459Y-15.7252
X16.6459Y-15.7882
X16.6459Y-15.8197
X16.6459Y-15.8827
X16.6459Y-15.9457
X16.6459Y-16.0087
X16.6459Y-16.0402
X16.6459Y-16.1031
X16.6459Y-16.1346
X16.6459Y-16.2291
X16.6459Y-17.3531
X16.6459Y-17.4161
X16.6459Y-17.4476
X16.6459Y-17.5106
X16.6459Y-17.5421
X16.6459Y-17.6366
X16.6459Y-17.6681
X16.6459Y-17.7311
X16.6459Y-17.7626
X16.6459Y-17.8256
X16.937Y-3.7644
X16.937Y-3.7959
X16.937Y-3.8589
X16.937Y-3.8904
X16.937Y-3.9533
X16.937Y-4.0163
X16.937Y-4.0793
X16.937Y-4.1108
X16.937Y-4.1738
X16.937Y-4.2053
X16.937Y-4.2998
X16.937Y-5.4238
X16.937Y-5.4868
X16.937Y-5.5183
X16.937Y-5.5813
X16.937Y-5.6128
X16.937Y-5.7073
X16.937Y-5.7388
X16.937Y-5.8018
X16.937Y-5.8333
X16.937Y-5.8963
X16.9374Y-2.473
X16.9374Y-2.5045
X16.9374Y-2.5675
X16.9374Y-2.599
X16.9374Y-2.662
X16.9374Y-2.6935
X16.9374Y-2.788
X16.9374Y-2.8195
X16.9374Y-2.8825
X16.9374Y-2.914
X16.9374Y-2.977
X16.9374Y-3.04
X16.9374Y-3.103
X16.9374Y-3.1344
X16.9374Y-3.1974
X16.9374Y-3.2289
X16.9374Y-3.3234
X16.9374Y-3.3549
X16.9374Y-3.4179
X16.9374Y-3.4494
X16.9374Y-3.5124
X16.9374Y-3.5439
X16.9374Y-6.0852
X16.9374Y-6.1482
X16.9374Y-6.1797
X16.9374Y-6.2427
X16.9374Y-6.2742
X16.9374Y-6.3687
X16.9374Y-6.4002
X16.9374Y-6.4632
X16.9374Y-6.4947
X16.9374Y-6.5577
X16.9374Y-6.5892
X16.9374Y-6.6837
X16.9374Y-6.7152
X16.9374Y-6.7781
X16.9374Y-6.8096
X16.9374Y-6.8726
X16.9374Y-6.9356
X16.9374Y-6.9986
X16.9374Y-7.0301
X16.9374Y-7.0931
X16.9374Y-7.1246
X16.938Y-9.7289
X16.938Y-9.7604
X16.938Y-9.8234
X16.938Y-9.8549
X16.938Y-9.9179
X16.938Y-9.9809
X16.938Y-10.0439
X16.938Y-10.0754
X16.938Y-10.1384
X16.938Y-10.1699
X16.938Y-10.2644
X16.938Y-11.3884
X16.938Y-11.4514
X16.938Y-11.4829
X16.938Y-11.5459
X16.938Y-11.5774
X16.938Y-11.6719
X16.938Y-11.7033
X16.938Y-11.7663
X16.938Y-11.7978
X16.938Y-11.8608
X16.938Y-15.6935
X16.938Y-15.725
X16.938Y-15.788
X16.938Y-15.8195
X16.938Y-15.8825
X16.938Y-15.9455
X16.938Y-16.0085
X16.938Y-16.04
X16.938Y-16.103
X16.938Y-16.1344
X16.938Y-16.2289
X16.938Y-17.353
X16.938Y-17.4159
X16.938Y-17.4474
X16.938Y-17.5104
X16.938Y-17.5419
X16.938Y-17.6364
X16.938Y-17.6679
X16.938Y-17.7309
X16.938Y-17.7624
X16.938Y-17.8254
X16.9384Y-8.4376
X16.9384Y-8.4691
X16.9384Y-8.5321
X16.9384Y-8.5636
X16.9384Y-8.6266
X16.9384Y-8.6581
X16.9384Y-8.7526
X16.9384Y-8.7841
X16.9384Y-8.847
X16.9384Y-8.8785
X16.9384Y-8.9415
X16.9384Y-9.0045
X16.9384Y-9.0675
X16.9384Y-9.099
X16.9384Y-9.162
X16.9384Y-9.1935
X16.9384Y-9.288
X16.9384Y-9.3195
X16.9384Y-9.3825
X16.9384Y-9.414
X16.9384Y-9.477
X16.9384Y-9.5085
X16.9384Y-12.0498
X16.9384Y-12.1128
X16.9384Y-12.1443
X16.9384Y-12.2073
X16.9384Y-12.2388
X16.9384Y-12.3333
X16.9384Y-12.3648
X16.9384Y-12.4278
X16.9384Y-12.4593
X16.9384Y-12.5222
X16.9384Y-12.5537
X16.9384Y-12.6482
X16.9384Y-12.6797
X16.9384Y-12.7427
X16.9384Y-12.7742
X16.9384Y-12.8372
X16.9384Y-12.9002
X16.9384Y-12.9632
X16.9384Y-12.9947
X16.9384Y-13.0577
X16.9384Y-13.0892
X16.9384Y-14.4022
X16.9384Y-14.4337
X16.9384Y-14.4967
X16.9384Y-14.5281
X16.9384Y-14.5911
X16.9384Y-14.6226
X16.9384Y-14.7171
X16.9384Y-14.7486
X16.9384Y-14.8116
X16.9384Y-14.8431
X16.9384Y-14.9061
X16.9384Y-14.9691
X16.9384Y-15.0321
X16.9384Y-15.0636
X16.9384Y-15.1266
X16.9384Y-15.1581
X16.9384Y-15.2526
X16.9384Y-15.2841
X16.9384Y-15.347
X16.9384Y-15.3785
X16.9384Y-15.4415
X16.9384Y-15.473
X16.9384Y-18.0144
X16.9384Y-18.0774
X16.9384Y-18.1089
X16.9384Y-18.1719
X16.9384Y-18.2033
X16.9384Y-18.2978
X16.9384Y-18.3293
X16.9384Y-18.3923
X16.9384Y-18.4238
X16.9384Y-18.4868
X16.9384Y-18.5183
X16.9384Y-18.6128
X16.9384Y-18.6443
X16.9384Y-18.7073
X16.9384Y-18.7388
X16.9384Y-18.8018
X16.9384Y-18.8648
X16.9384Y-18.9278
X16.9384Y-18.9593
X16.9384Y-19.0222
X16.9384Y-19.0537
X17.1732Y-4.2132
X17.1732Y-4.2919
X17.1732Y-4.3313
X17.1732Y-4.41
X17.1732Y-4.4494
X17.1732Y-4.5281
X17.1732Y-4.5675
X17.1732Y-4.6463
X17.1732Y-4.6856
X17.1732Y-4.7644
X17.1732Y-4.8037
X17.1732Y-4.8825
X17.1732Y-4.9219
X17.1732Y-5.0006
X17.1732Y-5.04
X17.1732Y-5.1187
X17.1732Y-5.1581
X17.1732Y-5.2368
X17.1732Y-5.2762
X17.1732Y-5.3549
X17.1732Y-5.3943
X17.1742Y-10.1778
X17.1742Y-10.2565
X17.1742Y-10.2959
X17.1742Y-10.3746
X17.1742Y-10.414
X17.1742Y-10.4927
X17.1742Y-10.5321
X17.1742Y-10.6108
X17.1742Y-10.6502
X17.1742Y-10.7289
X17.1742Y-10.7683
X17.1742Y-10.847
X17.1742Y-10.8864
X17.1742Y-10.9652
X17.1742Y-11.0045
X17.1742Y-11.0833
X17.1742Y-11.1226
X17.1742Y-11.2014
X17.1742Y-11.2407
X17.1742Y-11.3195
X17.1742Y-11.3589
X17.1742Y-16.1423
X17.1742Y-16.2211
X17.1742Y-16.2604
X17.1742Y-16.3392
X17.1742Y-16.3785
X17.1742Y-16.4573
X17.1742Y-16.4967
X17.1742Y-16.5754
X17.1742Y-16.6148
X17.1742Y-16.6935
X17.1742Y-16.7329
X17.1742Y-16.8116
X17.1742Y-16.851
X17.1742Y-16.9297
X17.1742Y-16.9691
X17.1742Y-17.0478
X17.1742Y-17.0872
X17.1742Y-17.1659
X17.1742Y-17.2053
X17.1742Y-17.2841
X17.1742Y-17.3234
X17.1795Y-2.3825
X17.1795Y-2.4219
X17.1795Y-2.5006
X17.1795Y-2.54
X17.1795Y-2.6187
X17.1795Y-2.6581
X17.1795Y-2.7368
X17.1795Y-2.7762
X17.1795Y-2.8549
X17.1795Y-2.8943
X17.1795Y-2.973
X17.1795Y-3.0124
X17.1795Y-3.0911
X17.1795Y-3.1305
X17.1795Y-3.2093
X17.1795Y-3.2486
X17.1795Y-3.3274
X17.1795Y-3.3667
X17.1799Y-2.3033
X17.1799Y-6.201
X17.1799Y-6.2404
X17.1799Y-6.3191
X17.1799Y-6.3585
X17.1799Y-6.4372
X17.1799Y-6.4766
X17.1799Y-6.5553
X17.1799Y-6.5947
X17.1799Y-6.6734
X17.1799Y-6.7128
X17.1799Y-6.7915
X17.1799Y-6.8309
X17.1799Y-6.9096
X17.1799Y-6.949
X17.1799Y-7.0278
X17.1799Y-7.0671
X17.1799Y-7.1459
X17.1799Y-7.1852
X17.1799Y-7.264
X17.1799Y-7.3033
X17.1799Y-7.3821
X17.1799Y-7.4215
X17.1805Y-8.347
X17.1805Y-8.3864
X17.1805Y-8.4652
X17.1805Y-8.5045
X17.1805Y-8.5833
X17.1805Y-8.6226
X17.1805Y-8.7014
X17.1805Y-8.7407
X17.1805Y-8.8195
X17.1805Y-8.8589
X17.1805Y-8.9376
X17.1805Y-8.977
X17.1805Y-9.0557
X17.1805Y-9.0951
X17.1805Y-9.1738
X17.1805Y-9.2132
X17.1805Y-9.2919
X17.1805Y-9.3313
X17.1805Y-14.3116
X17.1805Y-14.351
X17.1805Y-14.4297
X17.1805Y-14.4691
X17.1805Y-14.5478
X17.1805Y-14.5872
X17.1805Y-14.6659
X17.1805Y-14.7053
X17.1805Y-14.7841
X17.1805Y-14.8234
X17.1805Y-14.9022
X17.1805Y-14.9415
X17.1805Y-15.0203
X17.1805Y-15.0596
X17.1805Y-15.1384
X17.1805Y-15.1778
X17.1805Y-15.2565
X17.1805Y-15.2959
X17.1809Y-8.2679
X17.1809Y-12.1656
X17.1809Y-12.2049
X17.1809Y-12.2837
X17.1809Y-12.323
X17.1809Y-12.4018
X17.1809Y-12.4411
X17.1809Y-12.5199
X17.1809Y-12.5593
X17.1809Y-12.638
X17.1809Y-12.6774
X17.1809Y-12.7561
X17.1809Y-12.7955
X17.1809Y-12.8742
X17.1809Y-12.9136
X17.1809Y-12.9923
X17.1809Y-13.0317
X17.1809Y-13.1104
X17.1809Y-13.1498
X17.1809Y-13.2285
X17.1809Y-13.2679
X17.1809Y-13.3467
X17.1809Y-13.386
X17.1809Y-14.2325
X17.1809Y-18.1301
X17.1809Y-18.1695
X17.1809Y-18.2482
X17.1809Y-18.2876
X17.1809Y-18.3663
X17.1809Y-18.4057
X17.1809Y-18.4844
X17.1809Y-18.5238
X17.1809Y-18.6026
X17.1809Y-18.6419
X17.1809Y-18.7207
X17.1809Y-18.76
X17.1809Y-18.8388
X17.1809Y-18.8781
X17.1809Y-18.9569
X17.1809Y-18.9963
X17.1809Y-19.075
X17.1809Y-19.1144
X17.1809Y-19.1931
X17.1809Y-19.2325
X17.1809Y-19.3112
X17.1809Y-19.3506
X17.1819Y-2.264
X17.1829Y-8.2285
X17.1829Y-14.1931
X17.1835Y-3.4455
X17.1844Y-9.41
X17.1844Y-15.3746
X18.3866Y-3.4457
X18.3876Y-9.4102
X18.3876Y-15.3748
X18.3882Y-2.2642
X18.3888Y-8.2283
X18.3892Y-14.1933
X18.3902Y-2.3035
X18.3902Y-6.2012
X18.3902Y-6.2406
X18.3902Y-6.3193
X18.3902Y-6.3587
X18.3902Y-6.4374
X18.3902Y-6.4768
X18.3902Y-6.5555
X18.3902Y-6.5949
X18.3902Y-6.6736
X18.3902Y-6.713
X18.3902Y-6.7917
X18.3902Y-6.8311
X18.3902Y-6.9098
X18.3902Y-6.9492
X18.3902Y-7.028
X18.3902Y-7.0673
X18.3902Y-7.1461
X18.3902Y-7.1854
X18.3902Y-7.2642
X18.3902Y-7.3035
X18.3902Y-7.3823
X18.3902Y-7.4217
X18.3906Y-2.3827
X18.3906Y-2.422
X18.3906Y-2.5008
X18.3906Y-2.5402
X18.3906Y-2.6189
X18.3906Y-2.6583
X18.3906Y-2.737
X18.3906Y-2.7764
X18.3906Y-2.8551
X18.3906Y-2.8945
X18.3906Y-2.9732
X18.3906Y-3.0126
X18.3906Y-3.0913
X18.3906Y-3.1307
X18.3906Y-3.2094
X18.3906Y-3.2488
X18.3906Y-3.3276
X18.3906Y-3.3669
X18.3911Y-8.2681
X18.3911Y-12.1657
X18.3911Y-12.2051
X18.3911Y-12.2839
X18.3911Y-12.3232
X18.3911Y-12.402
X18.3911Y-12.4413
X18.3911Y-12.5201
X18.3911Y-12.5594
X18.3911Y-12.6382
X18.3911Y-12.6776
X18.3911Y-12.7563
X18.3911Y-12.7957
X18.3911Y-12.8744
X18.3911Y-12.9138
X18.3911Y-12.9925
X18.3911Y-13.0319
X18.3911Y-13.1106
X18.3911Y-13.15
X18.3911Y-13.2287
X18.3911Y-13.2681
X18.3911Y-13.3469
X18.3911Y-13.3862
X18.3911Y-14.2327
X18.3911Y-18.1303
X18.3911Y-18.1697
X18.3911Y-18.2484
X18.3911Y-18.2878
X18.3911Y-18.3665
X18.3911Y-18.4059
X18.3911Y-18.4846
X18.3911Y-18.524
X18.3911Y-18.6028
X18.3911Y-18.6421
X18.3911Y-18.7209
X18.3911Y-18.7602
X18.3911Y-18.839
X18.3911Y-18.8783
X18.3911Y-18.9571
X18.3911Y-18.9965
X18.3911Y-19.0752
X18.3911Y-19.1146
X18.3911Y-19.1933
X18.3911Y-19.2327
X18.3911Y-19.3114
X18.3911Y-19.3508
X18.3915Y-8.3472
X18.3915Y-8.3866
X18.3915Y-8.4654
X18.3915Y-8.5047
X18.3915Y-8.5835
X18.3915Y-8.6228
X18.3915Y-8.7016
X18.3915Y-8.7409
X18.3915Y-8.8197
X18.3915Y-8.8591
X18.3915Y-8.9378
X18.3915Y-8.9772
X18.3915Y-9.0559
X18.3915Y-9.0953
X18.3915Y-9.174
X18.3915Y-9.2134
X18.3915Y-9.2921
X18.3915Y-9.3315
X18.3915Y-14.3118
X18.3915Y-14.3512
X18.3915Y-14.4299
X18.3915Y-14.4693
X18.3915Y-14.548
X18.3915Y-14.5874
X18.3915Y-14.6661
X18.3915Y-14.7055
X18.3915Y-14.7843
X18.3915Y-14.8236
X18.3915Y-14.9024
X18.3915Y-14.9417
X18.3915Y-15.0205
X18.3915Y-15.0598
X18.3915Y-15.1386
X18.3915Y-15.178
X18.3915Y-15.2567
X18.3915Y-15.2961
X18.3969Y-4.2134
X18.3969Y-4.2921
X18.3969Y-4.3315
X18.3969Y-4.4102
X18.3969Y-4.4496
X18.3969Y-4.5283
X18.3969Y-4.5677
X18.3969Y-4.6465
X18.3969Y-4.6858
X18.3969Y-4.7646
X18.3969Y-4.8039
X18.3969Y-4.8827
X18.3969Y-4.922
X18.3969Y-5.0008
X18.3969Y-5.0402
X18.3969Y-5.1189
X18.3969Y-5.1583
X18.3969Y-5.237
X18.3969Y-5.2764
X18.3969Y-5.3551
X18.3969Y-5.3945
X18.3978Y-10.178
X18.3978Y-10.2567
X18.3978Y-10.2961
X18.3978Y-10.3748
X18.3978Y-10.4142
X18.3978Y-10.4929
X18.3978Y-10.5323
X18.3978Y-10.611
X18.3978Y-10.6504
X18.3978Y-10.7291
X18.3978Y-10.7685
X18.3978Y-10.8472
X18.3978Y-10.8866
X18.3978Y-10.9654
X18.3978Y-11.0047
X18.3978Y-11.0835
X18.3978Y-11.1228
X18.3978Y-11.2016
X18.3978Y-11.2409
X18.3978Y-11.3197
X18.3978Y-11.3591
X18.3978Y-16.1425
X18.3978Y-16.2213
X18.3978Y-16.2606
X18.3978Y-16.3394
X18.3978Y-16.3787
X18.3978Y-16.4575
X18.3978Y-16.4969
X18.3978Y-16.5756
X18.3978Y-16.615
X18.3978Y-16.6937
X18.3978Y-16.7331
X18.3978Y-16.8118
X18.3978Y-16.8512
X18.3978Y-16.9299
X18.3978Y-16.9693
X18.3978Y-17.048
X18.3978Y-17.0874
X18.3978Y-17.1661
X18.3978Y-17.2055
X18.3978Y-17.2843
X18.3978Y-17.3236
X18.6327Y-2.4732
X18.6327Y-2.5047
X18.6327Y-2.5677
X18.6327Y-2.5992
X18.6327Y-2.6622
X18.6327Y-2.6937
X18.6327Y-2.7882
X18.6327Y-2.8197
X18.6327Y-2.8827
X18.6327Y-2.9142
X18.6327Y-2.9772
X18.6327Y-3.0402
X18.6327Y-3.1031
X18.6327Y-3.1346
X18.6327Y-3.1976
X18.6327Y-3.2291
X18.6327Y-3.3236
X18.6327Y-3.3551
X18.6327Y-3.4181
X18.6327Y-3.4496
X18.6327Y-3.5126
X18.6327Y-3.5441
X18.6327Y-6.0854
X18.6327Y-6.1484
X18.6327Y-6.1799
X18.6327Y-6.2429
X18.6327Y-6.2744
X18.6327Y-6.3689
X18.6327Y-6.4004
X18.6327Y-6.4634
X18.6327Y-6.4949
X18.6327Y-6.5579
X18.6327Y-6.5894
X18.6327Y-6.6839
X18.6327Y-6.7154
X18.6327Y-6.7783
X18.6327Y-6.8098
X18.6327Y-6.8728
X18.6327Y-6.9358
X18.6327Y-6.9988
X18.6327Y-7.0303
X18.6327Y-7.0933
X18.6327Y-7.1248
X18.6331Y-3.7646
X18.6331Y-3.7961
X18.6331Y-3.8591
X18.6331Y-3.8906
X18.6331Y-3.9535
X18.6331Y-4.0165
X18.6331Y-4.0795
X18.6331Y-4.111
X18.6331Y-4.174
X18.6331Y-4.2055
X18.6331Y-4.3
X18.6331Y-5.424
X18.6331Y-5.487
X18.6331Y-5.5185
X18.6331Y-5.5815
X18.6331Y-5.613
X18.6331Y-5.7075
X18.6331Y-5.739
X18.6331Y-5.802
X18.6331Y-5.8335
X18.6331Y-5.8965
X18.6337Y-8.4378
X18.6337Y-8.4693
X18.6337Y-8.5323
X18.6337Y-8.5638
X18.6337Y-8.6268
X18.6337Y-8.6583
X18.6337Y-8.7528
X18.6337Y-8.7843
X18.6337Y-8.8472
X18.6337Y-8.8787
X18.6337Y-8.9417
X18.6337Y-9.0047
X18.6337Y-9.0677
X18.6337Y-9.0992
X18.6337Y-9.1622
X18.6337Y-9.1937
X18.6337Y-9.2882
X18.6337Y-9.3197
X18.6337Y-9.3827
X18.6337Y-9.4142
X18.6337Y-9.4772
X18.6337Y-9.5087
X18.6337Y-12.05
X18.6337Y-12.113
X18.6337Y-12.1445
X18.6337Y-12.2075
X18.6337Y-12.239
X18.6337Y-12.3335
X18.6337Y-12.365
X18.6337Y-12.428
X18.6337Y-12.4594
X18.6337Y-12.5224
X18.6337Y-12.5539
X18.6337Y-12.6484
X18.6337Y-12.6799
X18.6337Y-12.7429
X18.6337Y-12.7744
X18.6337Y-12.8374
X18.6337Y-12.9004
X18.6337Y-12.9634
X18.6337Y-12.9949
X18.6337Y-13.0579
X18.6337Y-13.0894
X18.6337Y-14.4024
X18.6337Y-14.4339
X18.6337Y-14.4969
X18.6337Y-14.5283
X18.6337Y-14.5913
X18.6337Y-14.6228
X18.6337Y-14.7173
X18.6337Y-14.7488
X18.6337Y-14.8118
X18.6337Y-14.8433
X18.6337Y-14.9063
X18.6337Y-14.9693
X18.6337Y-15.0323
X18.6337Y-15.0638
X18.6337Y-15.1268
X18.6337Y-15.1583
X18.6337Y-15.2528
X18.6337Y-15.2843
X18.6337Y-15.3472
X18.6337Y-15.3787
X18.6337Y-15.4417
X18.6337Y-15.4732
X18.6337Y-18.0146
X18.6337Y-18.0776
X18.6337Y-18.1091
X18.6337Y-18.172
X18.6337Y-18.2035
X18.6337Y-18.298
X18.6337Y-18.3295
X18.6337Y-18.3925
X18.6337Y-18.424
X18.6337Y-18.487
X18.6337Y-18.5185
X18.6337Y-18.613
X18.6337Y-18.6445
X18.6337Y-18.7075
X18.6337Y-18.739
X18.6337Y-18.802
X18.6337Y-18.865
X18.6337Y-18.928
X18.6337Y-18.9594
X18.6337Y-19.0224
X18.6337Y-19.0539
X18.6341Y-9.7291
X18.6341Y-9.7606
X18.6341Y-9.8236
X18.6341Y-9.8551
X18.6341Y-9.9181
X18.6341Y-9.9811
X18.6341Y-10.0441
X18.6341Y-10.0756
X18.6341Y-10.1386
X18.6341Y-10.1701
X18.6341Y-10.2646
X18.6341Y-11.3886
X18.6341Y-11.4516
X18.6341Y-11.4831
X18.6341Y-11.5461
X18.6341Y-11.5776
X18.6341Y-11.672
X18.6341Y-11.7035
X18.6341Y-11.7665
X18.6341Y-11.798
X18.6341Y-11.861
X18.6341Y-15.6937
X18.6341Y-15.7252
X18.6341Y-15.7882
X18.6341Y-15.8197
X18.6341Y-15.8827
X18.6341Y-15.9457
X18.6341Y-16.0087
X18.6341Y-16.0402
X18.6341Y-16.1031
X18.6341Y-16.1346
X18.6341Y-16.2291
X18.6341Y-17.3531
X18.6341Y-17.4161
X18.6341Y-17.4476
X18.6341Y-17.5106
X18.6341Y-17.5421
X18.6341Y-17.6366
X18.6341Y-17.6681
X18.6341Y-17.7311
X18.6341Y-17.7626
X18.6341Y-17.8256
X18.9252Y-3.7644
X18.9252Y-3.7959
X18.9252Y-3.8589
X18.9252Y-3.8904
X18.9252Y-3.9533
X18.9252Y-4.0163
X18.9252Y-4.0793
X18.9252Y-4.1108
X18.9252Y-4.1738
X18.9252Y-4.2053
X18.9252Y-4.2998
X18.9252Y-5.4238
X18.9252Y-5.4868
X18.9252Y-5.5183
X18.9252Y-5.5813
X18.9252Y-5.6128
X18.9252Y-5.7073
X18.9252Y-5.7388
X18.9252Y-5.8018
X18.9252Y-5.8333
X18.9252Y-5.8963
X18.9256Y-2.473
X18.9256Y-2.5045
X18.9256Y-2.5675
X18.9256Y-2.599
X18.9256Y-2.662
X18.9256Y-2.6935
X18.9256Y-2.788
X18.9256Y-2.8195
X18.9256Y-2.8825
X18.9256Y-2.914
X18.9256Y-2.977
X18.9256Y-3.04
X18.9256Y-3.103
X18.9256Y-3.1344
X18.9256Y-3.1974
X18.9256Y-3.2289
X18.9256Y-3.3234
X18.9256Y-3.3549
X18.9256Y-3.4179
X18.9256Y-3.4494
X18.9256Y-3.5124
X18.9256Y-3.5439
X18.9256Y-6.0852
X18.9256Y-6.1482
X18.9256Y-6.1797
X18.9256Y-6.2427
X18.9256Y-6.2742
X18.9256Y-6.3687
X18.9256Y-6.4002
X18.9256Y-6.4632
X18.9256Y-6.4947
X18.9256Y-6.5577
X18.9256Y-6.5892
X18.9256Y-6.6837
X18.9256Y-6.7152
X18.9256Y-6.7781
X18.9256Y-6.8096
X18.9256Y-6.8726
X18.9256Y-6.9356
X18.9256Y-6.9986
X18.9256Y-7.0301
X18.9256Y-7.0931
X18.9256Y-7.1246
X18.9262Y-9.7289
X18.9262Y-9.7604
X18.9262Y-9.8234
X18.9262Y-9.8549
X18.9262Y-9.9179
X18.9262Y-9.9809
X18.9262Y-10.0439
X18.9262Y-10.0754
X18.9262Y-10.1384
X18.9262Y-10.1699
X18.9262Y-10.2644
X18.9262Y-11.3884
X18.9262Y-11.4514
X18.9262Y-11.4829
X18.9262Y-11.5459
X18.9262Y-11.5774
X18.9262Y-11.6719
X18.9262Y-11.7033
X18.9262Y-11.7663
X18.9262Y-11.7978
X18.9262Y-11.8608
X18.9262Y-15.6935
X18.9262Y-15.725
X18.9262Y-15.788
X18.9262Y-15.8195
X18.9262Y-15.8825
X18.9262Y-15.9455
X18.9262Y-16.0085
X18.9262Y-16.04
X18.9262Y-16.103
X18.9262Y-16.1344
X18.9262Y-16.2289
X18.9262Y-17.353
X18.9262Y-17.4159
X18.9262Y-17.4474
X18.9262Y-17.5104
X18.9262Y-17.5419
X18.9262Y-17.6364
X18.9262Y-17.6679
X18.9262Y-17.7309
X18.9262Y-17.7624
X18.9262Y-17.8254
X18.9266Y-8.4376
X18.9266Y-8.4691
X18.9266Y-8.5321
X18.9266Y-8.5636
X18.9266Y-8.6266
X18.9266Y-8.6581
X18.9266Y-8.7526
X18.9266Y-8.7841
X18.9266Y-8.847
X18.9266Y-8.8785
X18.9266Y-8.9415
X18.9266Y-9.0045
X18.9266Y-9.0675
X18.9266Y-9.099
X18.9266Y-9.162
X18.9266Y-9.1935
X18.9266Y-9.288
X18.9266Y-9.3195
X18.9266Y-9.3825
X18.9266Y-9.414
X18.9266Y-9.477
X18.9266Y-9.5085
X18.9266Y-12.0498
X18.9266Y-12.1128
X18.9266Y-12.1443
X18.9266Y-12.2073
X18.9266Y-12.2388
X18.9266Y-12.3333
X18.9266Y-12.3648
X18.9266Y-12.4278
X18.9266Y-12.4593
X18.9266Y-12.5222
X18.9266Y-12.5537
X18.9266Y-12.6482
X18.9266Y-12.6797
X18.9266Y-12.7427
X18.9266Y-12.7742
X18.9266Y-12.8372
X18.9266Y-12.9002
X18.9266Y-12.9632
X18.9266Y-12.9947
X18.9266Y-13.0577
X18.9266Y-13.0892
X18.9266Y-14.4022
X18.9266Y-14.4337
X18.9266Y-14.4967
X18.9266Y-14.5281
X18.9266Y-14.5911
X18.9266Y-14.6226
X18.9266Y-14.7171
X18.9266Y-14.7486
X18.9266Y-14.8116
X18.9266Y-14.8431
X18.9266Y-14.9061
X18.9266Y-14.9691
X18.9266Y-15.0321
X18.9266Y-15.0636
X18.9266Y-15.1266
X18.9266Y-15.1581
X18.9266Y-15.2526
X18.9266Y-15.2841
X18.9266Y-15.347
X18.9266Y-15.3785
X18.9266Y-15.4415
X18.9266Y-15.473
X18.9266Y-18.0144
X18.9266Y-18.0774
X18.9266Y-18.1089
X18.9266Y-18.1719
X18.9266Y-18.2033
X18.9266Y-18.2978
X18.9266Y-18.3293
X18.9266Y-18.3923
X18.9266Y-18.4238
X18.9266Y-18.4868
X18.9266Y-18.5183
X18.9266Y-18.6128
X18.9266Y-18.6443
X18.9266Y-18.7073
X18.9266Y-18.7388
X18.9266Y-18.8018
X18.9266Y-18.8648
X18.9266Y-18.9278
X18.9266Y-18.9593
X18.9266Y-19.0222
X18.9266Y-19.0537
X19.1614Y-4.2132
X19.1614Y-4.2919
X19.1614Y-4.3313
X19.1614Y-4.41
X19.1614Y-4.4494
X19.1614Y-4.5281
X19.1614Y-4.5675
X19.1614Y-4.6463
X19.1614Y-4.6856
X19.1614Y-4.7644
X19.1614Y-4.8037
X19.1614Y-4.8825
X19.1614Y-4.9219
X19.1614Y-5.0006
X19.1614Y-5.04
X19.1614Y-5.1187
X19.1614Y-5.1581
X19.1614Y-5.2368
X19.1614Y-5.2762
X19.1614Y-5.3549
X19.1614Y-5.3943
X19.1624Y-10.1778
X19.1624Y-10.2565
X19.1624Y-10.2959
X19.1624Y-10.3746
X19.1624Y-10.414
X19.1624Y-10.4927
X19.1624Y-10.5321
X19.1624Y-10.6108
X19.1624Y-10.6502
X19.1624Y-10.7289
X19.1624Y-10.7683
X19.1624Y-10.847
X19.1624Y-10.8864
X19.1624Y-10.9652
X19.1624Y-11.0045
X19.1624Y-11.0833
X19.1624Y-11.1226
X19.1624Y-11.2014
X19.1624Y-11.2407
X19.1624Y-11.3195
X19.1624Y-11.3589
X19.1624Y-16.1423
X19.1624Y-16.2211
X19.1624Y-16.2604
X19.1624Y-16.3392
X19.1624Y-16.3785
X19.1624Y-16.4573
X19.1624Y-16.4967
X19.1624Y-16.5754
X19.1624Y-16.6148
X19.1624Y-16.6935
X19.1624Y-16.7329
X19.1624Y-16.8116
X19.1624Y-16.851
X19.1624Y-16.9297
X19.1624Y-16.9691
X19.1624Y-17.0478
X19.1624Y-17.0872
X19.1624Y-17.1659
X19.1624Y-17.2053
X19.1624Y-17.2841
X19.1624Y-17.3234
X19.1677Y-2.3825
X19.1677Y-2.4219
X19.1677Y-2.5006
X19.1677Y-2.54
X19.1677Y-2.6187
X19.1677Y-2.6581
X19.1677Y-2.7368
X19.1677Y-2.7762
X19.1677Y-2.8549
X19.1677Y-2.8943
X19.1677Y-2.973
X19.1677Y-3.0124
X19.1677Y-3.0911
X19.1677Y-3.1305
X19.1677Y-3.2093
X19.1677Y-3.2486
X19.1677Y-3.3274
X19.1677Y-3.3667
X19.1681Y-2.3033
X19.1681Y-6.201
X19.1681Y-6.2404
X19.1681Y-6.3191
X19.1681Y-6.3585
X19.1681Y-6.4372
X19.1681Y-6.4766
X19.1681Y-6.5553
X19.1681Y-6.5947
X19.1681Y-6.6734
X19.1681Y-6.7128
X19.1681Y-6.7915
X19.1681Y-6.8309
X19.1681Y-6.9096
X19.1681Y-6.949
X19.1681Y-7.0278
X19.1681Y-7.0671
X19.1681Y-7.1459
X19.1681Y-7.1852
X19.1681Y-7.264
X19.1681Y-7.3033
X19.1681Y-7.3821
X19.1681Y-7.4215
X19.1687Y-8.347
X19.1687Y-8.3864
X19.1687Y-8.4652
X19.1687Y-8.5045
X19.1687Y-8.5833
X19.1687Y-8.6226
X19.1687Y-8.7014
X19.1687Y-8.7407
X19.1687Y-8.8195
X19.1687Y-8.8589
X19.1687Y-8.9376
X19.1687Y-8.977
X19.1687Y-9.0557
X19.1687Y-9.0951
X19.1687Y-9.1738
X19.1687Y-9.2132
X19.1687Y-9.2919
X19.1687Y-9.3313
X19.1687Y-14.3116
X19.1687Y-14.351
X19.1687Y-14.4297
X19.1687Y-14.4691
X19.1687Y-14.5478
X19.1687Y-14.5872
X19.1687Y-14.6659
X19.1687Y-14.7053
X19.1687Y-14.7841
X19.1687Y-14.8234
X19.1687Y-14.9022
X19.1687Y-14.9415
X19.1687Y-15.0203
X19.1687Y-15.0596
X19.1687Y-15.1384
X19.1687Y-15.1778
X19.1687Y-15.2565
X19.1687Y-15.2959
X19.1691Y-8.2679
X19.1691Y-12.1656
X19.1691Y-12.2049
X19.1691Y-12.2837
X19.1691Y-12.323
X19.1691Y-12.4018
X19.1691Y-12.4411
X19.1691Y-12.5199
X19.1691Y-12.5593
X19.1691Y-12.638
X19.1691Y-12.6774
X19.1691Y-12.7561
X19.1691Y-12.7955
X19.1691Y-12.8742
X19.1691Y-12.9136
X19.1691Y-12.9923
X19.1691Y-13.0317
X19.1691Y-13.1104
X19.1691Y-13.1498
X19.1691Y-13.2285
X19.1691Y-13.2679
X19.1691Y-13.3467
X19.1691Y-13.386
X19.1691Y-14.2325
X19.1691Y-18.1301
X19.1691Y-18.1695
X19.1691Y-18.2482
X19.1691Y-18.2876
X19.1691Y-18.3663
X19.1691Y-18.4057
X19.1691Y-18.4844
X19.1691Y-18.5238
X19.1691Y-18.6026
X19.1691Y-18.6419
X19.1691Y-18.7207
X19.1691Y-18.76
X19.1691Y-18.8388
X19.1691Y-18.8781
X19.1691Y-18.9569
X19.1691Y-18.9963
X19.1691Y-19.075
X19.1691Y-19.1144
X19.1691Y-19.1931
X19.1691Y-19.2325
X19.1691Y-19.3112
X19.1691Y-19.3506
X19.1701Y-2.264
X19.1711Y-8.2285
X19.1711Y-14.1931
X19.1717Y-3.4455
X19.1726Y-9.41
X19.1726Y-15.3746
T2
X2.2047Y-5.9583
X2.2057Y-11.9228
X2.2057Y-17.8874
X2.25Y-6.2598
X2.25Y-6.3386
X2.25Y-6.4173
X2.25Y-6.4961
X2.25Y-6.5748
X2.25Y-6.6535
X2.25Y-6.7323
X2.25Y-6.811
X2.25Y-6.8898
X2.25Y-6.9685
X2.25Y-7.0472
X2.25Y-7.126
X2.25Y-7.2047
X2.25Y-7.2835
X2.25Y-7.3622
X2.25Y-7.4409
X2.251Y-12.2244
X2.251Y-12.3031
X2.251Y-12.3819
X2.251Y-12.4606
X2.251Y-12.5394
X2.251Y-12.6181
X2.251Y-12.6969
X2.251Y-12.7756
X2.251Y-12.8543
X2.251Y-12.9331
X2.251Y-13.0118
X2.251Y-13.0906
X2.251Y-13.1693
X2.251Y-13.248
X2.251Y-13.3268
X2.251Y-13.4055
X2.251Y-18.189
X2.251Y-18.2677
X2.251Y-18.3465
X2.251Y-18.4252
X2.251Y-18.5039
X2.251Y-18.5827
X2.251Y-18.6614
X2.251Y-18.7402
X2.251Y-18.8189
X2.251Y-18.8976
X2.251Y-18.9764
X2.251Y-19.0551
X2.251Y-19.1339
X2.251Y-19.2126
X2.251Y-19.2913
X2.251Y-19.3701
X2.2512Y-2.2831
X2.2512Y-2.3618
X2.2512Y-2.4406
X2.2512Y-2.5193
X2.2512Y-2.598
X2.2512Y-2.6768
X2.2512Y-2.7555
X2.2512Y-2.8343
X2.2512Y-2.913
X2.2512Y-2.9917
X2.2512Y-3.0705
X2.2512Y-3.1492
X2.2512Y-3.228
X2.2512Y-3.3067
X2.2512Y-3.3854
X2.2512Y-3.4642
X2.2522Y-8.2476
X2.2522Y-8.3264
X2.2522Y-8.4051
X2.2522Y-8.4839
X2.2522Y-8.5626
X2.2522Y-8.6413
X2.2522Y-8.7201
X2.2522Y-8.7988
X2.2522Y-8.8776
X2.2522Y-8.9563
X2.2522Y-9.035
X2.2522Y-9.1138
X2.2522Y-9.1925
X2.2522Y-9.2713
X2.2522Y-9.35
X2.2522Y-9.4287
X2.2522Y-14.2122
X2.2522Y-14.2909
X2.2522Y-14.3697
X2.2522Y-14.4484
X2.2522Y-14.5272
X2.2522Y-14.6059
X2.2522Y-14.6846
X2.2522Y-14.7634
X2.2522Y-14.8421
X2.2522Y-14.9209
X2.2522Y-14.9996
X2.2522Y-15.0783
X2.2522Y-15.1571
X2.2522Y-15.2358
X2.2522Y-15.3146
X2.2522Y-15.3933
X2.2602Y-4.2717
X2.2602Y-4.3504
X2.2602Y-4.4291
X2.2602Y-4.5079
X2.2602Y-4.5866
X2.2602Y-4.6654
X2.2602Y-4.7441
X2.2602Y-4.8228
X2.2602Y-4.9016
X2.2602Y-4.9803
X2.2602Y-5.0591
X2.2602Y-5.1378
X2.2602Y-5.2165
X2.2602Y-5.2953
X2.2602Y-5.374
X2.2602Y-5.4528
X2.2612Y-10.2362
X2.2612Y-10.315
X2.2612Y-10.3937
X2.2612Y-10.4724
X2.2612Y-10.5512
X2.2612Y-10.6299
X2.2612Y-10.7087
X2.2612Y-10.7874
X2.2612Y-10.8661
X2.2612Y-10.9449
X2.2612Y-11.0236
X2.2612Y-11.1024
X2.2612Y-11.1811
X2.2612Y-11.2598
X2.2612Y-11.3386
X2.2612Y-11.4173
X2.2612Y-16.2008
X2.2612Y-16.2795
X2.2612Y-16.3583
X2.2612Y-16.437
X2.2612Y-16.5157
X2.2612Y-16.5945
X2.2612Y-16.6732
X2.2612Y-16.752
X2.2612Y-16.8307
X2.2612Y-16.9094
X2.2612Y-16.9882
X2.2612Y-17.0669
X2.2612Y-17.1457
X2.2612Y-17.2244
X2.2612Y-17.3031
X2.2612Y-17.3819
X2.3083Y-6.0193
X2.3085Y-7.6344
X2.3091Y-3.6724
X2.3093Y-11.9839
X2.3093Y-17.9484
X2.3095Y-13.599
X2.3095Y-19.5636
X2.31Y-9.637
X2.31Y-15.6016
X2.372Y-3.6071
X2.372Y-7.5591
X2.373Y-9.5717
X2.373Y-13.5236
X2.373Y-15.5362
X2.373Y-19.4882
X2.8339Y-3.5756
X2.8348Y-9.5402
X2.8348Y-15.5047
X2.835Y-7.2508
X2.8354Y-2.4417
X2.8354Y-2.7252
X2.8354Y-3.0087
X2.8354Y-3.2921
X2.8354Y-5.9902
X2.8354Y-6.3374
X2.8354Y-6.6209
X2.8354Y-6.9043
X2.8354Y-7.1878
X2.8358Y-3.6378
X2.8358Y-3.7016
X2.8358Y-3.985
X2.8358Y-4.2685
X2.8358Y-5.6445
X2.8358Y-6.0539
X2.836Y-13.2154
X2.836Y-19.1799
X2.8364Y-8.4063
X2.8364Y-8.6898
X2.8364Y-8.9732
X2.8364Y-9.2567
X2.8364Y-11.9547
X2.8364Y-12.302
X2.8364Y-12.5854
X2.8364Y-12.8689
X2.8364Y-13.1524
X2.8364Y-14.3709
X2.8364Y-14.6543
X2.8364Y-14.9378
X2.8364Y-15.2213
X2.8364Y-17.9193
X2.8364Y-18.2665
X2.8364Y-18.55
X2.8364Y-18.8335
X2.8364Y-19.1169
X2.8368Y-9.6024
X2.8368Y-9.6661
X2.8368Y-9.9496
X2.8368Y-10.2331
X2.8368Y-11.6091
X2.8368Y-12.0185
X2.8368Y-15.5669
X2.8368Y-15.6307
X2.8368Y-15.9142
X2.8368Y-16.1976
X2.8368Y-17.5736
X2.8368Y-17.9831
X2.839Y-5.9276
X2.84Y-11.8921
X2.84Y-17.8567
X2.9083Y-5.9274
X2.9093Y-11.8919
X2.9093Y-17.8565
X2.9114Y-3.7014
X2.9114Y-3.9848
X2.9114Y-4.2683
X2.9114Y-5.6443
X2.9114Y-6.0537
X2.9118Y-2.4415
X2.9118Y-2.725
X2.9118Y-3.0085
X2.9118Y-3.2919
X2.9118Y-6.3372
X2.9118Y-6.6207
X2.9118Y-6.9041
X2.9118Y-7.1876
X2.9124Y-9.6659
X2.9124Y-9.9494
X2.9124Y-10.2329
X2.9124Y-11.6089
X2.9124Y-12.0183
X2.9124Y-15.6305
X2.9124Y-15.914
X2.9124Y-16.1974
X2.9124Y-17.5734
X2.9124Y-17.9829
X2.9126Y-3.6398
X2.9128Y-8.4061
X2.9128Y-8.6896
X2.9128Y-8.973
X2.9128Y-9.2565
X2.9128Y-12.3018
X2.9128Y-12.5852
X2.9128Y-12.8687
X2.9128Y-13.1522
X2.9128Y-14.3707
X2.9128Y-14.6541
X2.9128Y-14.9376
X2.9128Y-15.2211
X2.9128Y-18.2663
X2.9128Y-18.5498
X2.9128Y-18.8333
X2.9128Y-19.1167
X2.9134Y-3.5754
X2.9136Y-9.6043
X2.9136Y-15.5689
X2.9144Y-9.54
X2.9144Y-15.5045
X2.9146Y-5.9921
X2.915Y-7.2508
X2.9156Y-11.9567
X2.9156Y-17.9213
X2.9159Y-13.2154
X2.9159Y-19.1799
X3.376Y-3.5925
X3.376Y-7.5591
X3.377Y-9.5571
X3.377Y-13.5236
X3.377Y-15.5217
X3.377Y-19.4882
X3.438Y-6.0226
X3.439Y-11.9872
X3.439Y-17.9518
X3.4395Y-7.6344
X3.4398Y-3.6559
X3.4405Y-13.599
X3.4405Y-19.5636
X3.4407Y-9.6205
X3.4407Y-15.585
X3.4873Y-4.2716
X3.4873Y-4.3504
X3.4873Y-4.4291
X3.4873Y-4.5078
X3.4873Y-4.5866
X3.4873Y-4.6653
X3.4873Y-4.7441
X3.4873Y-4.8228
X3.4873Y-4.9015
X3.4873Y-4.9803
X3.4873Y-5.059
X3.4873Y-5.1378
X3.4873Y-5.2165
X3.4873Y-5.2952
X3.4873Y-5.374
X3.4873Y-5.4527
X3.4883Y-10.2362
X3.4883Y-10.3149
X3.4883Y-10.3937
X3.4883Y-10.4724
X3.4883Y-10.5511
X3.4883Y-10.6299
X3.4883Y-10.7086
X3.4883Y-10.7874
X3.4883Y-10.8661
X3.4883Y-10.9449
X3.4883Y-11.0236
X3.4883Y-11.1023
X3.4883Y-11.1811
X3.4883Y-11.2598
X3.4883Y-11.3386
X3.4883Y-11.4173
X3.4883Y-16.2008
X3.4883Y-16.2795
X3.4883Y-16.3582
X3.4883Y-16.437
X3.4883Y-16.5157
X3.4883Y-16.5945
X3.4883Y-16.6732
X3.4883Y-16.7519
X3.4883Y-16.8307
X3.4883Y-16.9094
X3.4883Y-16.9882
X3.4883Y-17.0669
X3.4883Y-17.1456
X3.4883Y-17.2244
X3.4883Y-17.3031
X3.4883Y-17.3819
X3.4953Y-2.2831
X3.4953Y-2.3618
X3.4953Y-2.4406
X3.4953Y-2.5193
X3.4953Y-2.598
X3.4953Y-2.6768
X3.4953Y-2.7555
X3.4953Y-2.8343
X3.4953Y-2.913
X3.4953Y-2.9917
X3.4953Y-3.0705
X3.4953Y-3.1492
X3.4953Y-3.228
X3.4953Y-3.3067
X3.4953Y-3.3854
X3.4953Y-3.4642
X3.4963Y-8.2476
X3.4963Y-8.3264
X3.4963Y-8.4051
X3.4963Y-8.4839
X3.4963Y-8.5626
X3.4963Y-8.6413
X3.4963Y-8.7201
X3.4963Y-8.7988
X3.4963Y-8.8776
X3.4963Y-8.9563
X3.4963Y-9.035
X3.4963Y-9.1138
X3.4963Y-9.1925
X3.4963Y-9.2713
X3.4963Y-9.35
X3.4963Y-9.4287
X3.4963Y-14.2122
X3.4963Y-14.2909
X3.4963Y-14.3697
X3.4963Y-14.4484
X3.4963Y-14.5272
X3.4963Y-14.6059
X3.4963Y-14.6846
X3.4963Y-14.7634
X3.4963Y-14.8421
X3.4963Y-14.9209
X3.4963Y-14.9996
X3.4963Y-15.0783
X3.4963Y-15.1571
X3.4963Y-15.2358
X3.4963Y-15.3146
X3.4963Y-15.3933
X3.498Y-6.2598
X3.498Y-6.3386
X3.498Y-6.4173
X3.498Y-6.4961
X3.498Y-6.5748
X3.498Y-6.6535
X3.498Y-6.7323
X3.498Y-6.811
X3.498Y-6.8898
X3.498Y-6.9685
X3.498Y-7.0472
X3.498Y-7.126
X3.498Y-7.2047
X3.498Y-7.2835
X3.498Y-7.3622
X3.498Y-7.4409
X3.499Y-12.2244
X3.499Y-12.3031
X3.499Y-12.3819
X3.499Y-12.4606
X3.499Y-12.5394
X3.499Y-12.6181
X3.499Y-12.6969
X3.499Y-12.7756
X3.499Y-12.8543
X3.499Y-12.9331
X3.499Y-13.0118
X3.499Y-13.0906
X3.499Y-13.1693
X3.499Y-13.248
X3.499Y-13.3268
X3.499Y-13.4055
X3.499Y-18.189
X3.499Y-18.2677
X3.499Y-18.3465
X3.499Y-18.4252
X3.499Y-18.5039
X3.499Y-18.5827
X3.499Y-18.6614
X3.499Y-18.7402
X3.499Y-18.8189
X3.499Y-18.8976
X3.499Y-18.9764
X3.499Y-19.0551
X3.499Y-19.1339
X3.499Y-19.2126
X3.499Y-19.2913
X3.499Y-19.3701
X3.5443Y-5.9596
X3.5453Y-11.9242
X3.5453Y-17.8888
X4.1929Y-5.9583
X4.1939Y-11.9228
X4.1939Y-17.8874
X4.2382Y-6.2598
X4.2382Y-6.3386
X4.2382Y-6.4173
X4.2382Y-6.4961
X4.2382Y-6.5748
X4.2382Y-6.6535
X4.2382Y-6.7323
X4.2382Y-6.811
X4.2382Y-6.8898
X4.2382Y-6.9685
X4.2382Y-7.0472
X4.2382Y-7.126
X4.2382Y-7.2047
X4.2382Y-7.2835
X4.2382Y-7.3622
X4.2382Y-7.4409
X4.2392Y-12.2244
X4.2392Y-12.3031
X4.2392Y-12.3819
X4.2392Y-12.4606
X4.2392Y-12.5394
X4.2392Y-12.6181
X4.2392Y-12.6969
X4.2392Y-12.7756
X4.2392Y-12.8543
X4.2392Y-12.9331
X4.2392Y-13.0118
X4.2392Y-13.0906
X4.2392Y-13.1693
X4.2392Y-13.248
X4.2392Y-13.3268
X4.2392Y-13.4055
X4.2392Y-18.189
X4.2392Y-18.2677
X4.2392Y-18.3465
X4.2392Y-18.4252
X4.2392Y-18.5039
X4.2392Y-18.5827
X4.2392Y-18.6614
X4.2392Y-18.7402
X4.2392Y-18.8189
X4.2392Y-18.8976
X4.2392Y-18.9764
X4.2392Y-19.0551
X4.2392Y-19.1339
X4.2392Y-19.2126
X4.2392Y-19.2913
X4.2392Y-19.3701
X4.2394Y-2.2831
X4.2394Y-2.3618
X4.2394Y-2.4406
X4.2394Y-2.5193
X4.2394Y-2.598
X4.2394Y-2.6768
X4.2394Y-2.7555
X4.2394Y-2.8343
X4.2394Y-2.913
X4.2394Y-2.9917
X4.2394Y-3.0705
X4.2394Y-3.1492
X4.2394Y-3.228
X4.2394Y-3.3067
X4.2394Y-3.3854
X4.2394Y-3.4642
X4.2404Y-8.2476
X4.2404Y-8.3264
X4.2404Y-8.4051
X4.2404Y-8.4839
X4.2404Y-8.5626
X4.2404Y-8.6413
X4.2404Y-8.7201
X4.2404Y-8.7988
X4.2404Y-8.8776
X4.2404Y-8.9563
X4.2404Y-9.035
X4.2404Y-9.1138
X4.2404Y-9.1925
X4.2404Y-9.2713
X4.2404Y-9.35
X4.2404Y-9.4287
X4.2404Y-14.2122
X4.2404Y-14.2909
X4.2404Y-14.3697
X4.2404Y-14.4484
X4.2404Y-14.5272
X4.2404Y-14.6059
X4.2404Y-14.6846
X4.2404Y-14.7634
X4.2404Y-14.8421
X4.2404Y-14.9209
X4.2404Y-14.9996
X4.2404Y-15.0783
X4.2404Y-15.1571
X4.2404Y-15.2358
X4.2404Y-15.3146
X4.2404Y-15.3933
X4.2484Y-4.2717
X4.2484Y-4.3504
X4.2484Y-4.4291
X4.2484Y-4.5079
X4.2484Y-4.5866
X4.2484Y-4.6654
X4.2484Y-4.7441
X4.2484Y-4.8228
X4.2484Y-4.9016
X4.2484Y-4.9803
X4.2484Y-5.0591
X4.2484Y-5.1378
X4.2484Y-5.2165
X4.2484Y-5.2953
X4.2484Y-5.374
X4.2484Y-5.4528
X4.2494Y-10.2362
X4.2494Y-10.315
X4.2494Y-10.3937
X4.2494Y-10.4724
X4.2494Y-10.5512
X4.2494Y-10.6299
X4.2494Y-10.7087
X4.2494Y-10.7874
X4.2494Y-10.8661
X4.2494Y-10.9449
X4.2494Y-11.0236
X4.2494Y-11.1024
X4.2494Y-11.1811
X4.2494Y-11.2598
X4.2494Y-11.3386
X4.2494Y-11.4173
X4.2494Y-16.2008
X4.2494Y-16.2795
X4.2494Y-16.3583
X4.2494Y-16.437
X4.2494Y-16.5157
X4.2494Y-16.5945
X4.2494Y-16.6732
X4.2494Y-16.752
X4.2494Y-16.8307
X4.2494Y-16.9094
X4.2494Y-16.9882
X4.2494Y-17.0669
X4.2494Y-17.1457
X4.2494Y-17.2244
X4.2494Y-17.3031
X4.2494Y-17.3819
X4.2965Y-6.0193
X4.2967Y-7.6344
X4.2972Y-3.6724
X4.2974Y-11.9839
X4.2974Y-17.9484
X4.2977Y-13.599
X4.2977Y-19.5636
X4.2982Y-9.637
X4.2982Y-15.6016
X4.3602Y-3.6071
X4.3602Y-7.5591
X4.3612Y-9.5717
X4.3612Y-13.5236
X4.3612Y-15.5362
X4.3612Y-19.4882
X4.822Y-3.5756
X4.823Y-9.5402
X4.823Y-15.5047
X4.8232Y-7.2508
X4.8236Y-2.4417
X4.8236Y-2.7252
X4.8236Y-3.0087
X4.8236Y-3.2921
X4.8236Y-5.9902
X4.8236Y-6.3374
X4.8236Y-6.6209
X4.8236Y-6.9043
X4.8236Y-7.1878
X4.824Y-3.6378
X4.824Y-3.7016
X4.824Y-3.985
X4.824Y-4.2685
X4.824Y-5.6445
X4.824Y-6.0539
X4.8242Y-13.2154
X4.8242Y-19.1799
X4.8246Y-8.4063
X4.8246Y-8.6898
X4.8246Y-8.9732
X4.8246Y-9.2567
X4.8246Y-11.9547
X4.8246Y-12.302
X4.8246Y-12.5854
X4.8246Y-12.8689
X4.8246Y-13.1524
X4.8246Y-14.3709
X4.8246Y-14.6543
X4.8246Y-14.9378
X4.8246Y-15.2213
X4.8246Y-17.9193
X4.8246Y-18.2665
X4.8246Y-18.55
X4.8246Y-18.8335
X4.8246Y-19.1169
X4.825Y-9.6024
X4.825Y-9.6661
X4.825Y-9.9496
X4.825Y-10.2331
X4.825Y-11.6091
X4.825Y-12.0185
X4.825Y-15.5669
X4.825Y-15.6307
X4.825Y-15.9142
X4.825Y-16.1976
X4.825Y-17.5736
X4.825Y-17.9831
X4.8272Y-5.9276
X4.8281Y-11.8921
X4.8281Y-17.8567
X4.8965Y-5.9274
X4.8974Y-11.8919
X4.8974Y-17.8565
X4.8996Y-3.7014
X4.8996Y-3.9848
X4.8996Y-4.2683
X4.8996Y-5.6443
X4.8996Y-6.0537
X4.9Y-2.4415
X4.9Y-2.725
X4.9Y-3.0085
X4.9Y-3.2919
X4.9Y-6.3372
X4.9Y-6.6207
X4.9Y-6.9041
X4.9Y-7.1876
X4.9006Y-9.6659
X4.9006Y-9.9494
X4.9006Y-10.2329
X4.9006Y-11.6089
X4.9006Y-12.0183
X4.9006Y-15.6305
X4.9006Y-15.914
X4.9006Y-16.1974
X4.9006Y-17.5734
X4.9006Y-17.9829
X4.9008Y-3.6398
X4.901Y-8.4061
X4.901Y-8.6896
X4.901Y-8.973
X4.901Y-9.2565
X4.901Y-12.3018
X4.901Y-12.5852
X4.901Y-12.8687
X4.901Y-13.1522
X4.901Y-14.3707
X4.901Y-14.6541
X4.901Y-14.9376
X4.901Y-15.2211
X4.901Y-18.2663
X4.901Y-18.5498
X4.901Y-18.8333
X4.901Y-19.1167
X4.9016Y-3.5754
X4.9018Y-9.6043
X4.9018Y-15.5689
X4.9026Y-9.54
X4.9026Y-15.5045
X4.9028Y-5.9921
X4.9031Y-7.2508
X4.9037Y-11.9567
X4.9037Y-17.9213
X4.9041Y-13.2154
X4.9041Y-19.1799
X5.3642Y-3.5925
X5.3642Y-7.5591
X5.3652Y-9.5571
X5.3652Y-13.5236
X5.3652Y-15.5217
X5.3652Y-19.4882
X5.4262Y-6.0226
X5.4272Y-11.9872
X5.4272Y-17.9518
X5.4277Y-7.6344
X5.428Y-3.6559
X5.4287Y-13.599
X5.4287Y-19.5636
X5.4289Y-9.6205
X5.4289Y-15.585
X5.4755Y-4.2716
X5.4755Y-4.3504
X5.4755Y-4.4291
X5.4755Y-4.5078
X5.4755Y-4.5866
X5.4755Y-4.6653
X5.4755Y-4.7441
X5.4755Y-4.8228
X5.4755Y-4.9015
X5.4755Y-4.9803
X5.4755Y-5.059
X5.4755Y-5.1378
X5.4755Y-5.2165
X5.4755Y-5.2952
X5.4755Y-5.374
X5.4755Y-5.4527
X5.4764Y-10.2362
X5.4764Y-10.3149
X5.4764Y-10.3937
X5.4764Y-10.4724
X5.4764Y-10.5511
X5.4764Y-10.6299
X5.4764Y-10.7086
X5.4764Y-10.7874
X5.4764Y-10.8661
X5.4764Y-10.9449
X5.4764Y-11.0236
X5.4764Y-11.1023
X5.4764Y-11.1811
X5.4764Y-11.2598
X5.4764Y-11.3386
X5.4764Y-11.4173
X5.4764Y-16.2008
X5.4764Y-16.2795
X5.4764Y-16.3582
X5.4764Y-16.437
X5.4764Y-16.5157
X5.4764Y-16.5945
X5.4764Y-16.6732
X5.4764Y-16.7519
X5.4764Y-16.8307
X5.4764Y-16.9094
X5.4764Y-16.9882
X5.4764Y-17.0669
X5.4764Y-17.1456
X5.4764Y-17.2244
X5.4764Y-17.3031
X5.4764Y-17.3819
X5.4835Y-2.2831
X5.4835Y-2.3618
X5.4835Y-2.4406
X5.4835Y-2.5193
X5.4835Y-2.598
X5.4835Y-2.6768
X5.4835Y-2.7555
X5.4835Y-2.8343
X5.4835Y-2.913
X5.4835Y-2.9917
X5.4835Y-3.0705
X5.4835Y-3.1492
X5.4835Y-3.228
X5.4835Y-3.3067
X5.4835Y-3.3854
X5.4835Y-3.4642
X5.4844Y-8.2476
X5.4844Y-8.3264
X5.4844Y-8.4051
X5.4844Y-8.4839
X5.4844Y-8.5626
X5.4844Y-8.6413
X5.4844Y-8.7201
X5.4844Y-8.7988
X5.4844Y-8.8776
X5.4844Y-8.9563
X5.4844Y-9.035
X5.4844Y-9.1138
X5.4844Y-9.1925
X5.4844Y-9.2713
X5.4844Y-9.35
X5.4844Y-9.4287
X5.4844Y-14.2122
X5.4844Y-14.2909
X5.4844Y-14.3697
X5.4844Y-14.4484
X5.4844Y-14.5272
X5.4844Y-14.6059
X5.4844Y-14.6846
X5.4844Y-14.7634
X5.4844Y-14.8421
X5.4844Y-14.9209
X5.4844Y-14.9996
X5.4844Y-15.0783
X5.4844Y-15.1571
X5.4844Y-15.2358
X5.4844Y-15.3146
X5.4844Y-15.3933
X5.4862Y-6.2598
X5.4862Y-6.3386
X5.4862Y-6.4173
X5.4862Y-6.4961
X5.4862Y-6.5748
X5.4862Y-6.6535
X5.4862Y-6.7323
X5.4862Y-6.811
X5.4862Y-6.8898
X5.4862Y-6.9685
X5.4862Y-7.0472
X5.4862Y-7.126
X5.4862Y-7.2047
X5.4862Y-7.2835
X5.4862Y-7.3622
X5.4862Y-7.4409
X5.4872Y-12.2244
X5.4872Y-12.3031
X5.4872Y-12.3819
X5.4872Y-12.4606
X5.4872Y-12.5394
X5.4872Y-12.6181
X5.4872Y-12.6969
X5.4872Y-12.7756
X5.4872Y-12.8543
X5.4872Y-12.9331
X5.4872Y-13.0118
X5.4872Y-13.0906
X5.4872Y-13.1693
X5.4872Y-13.248
X5.4872Y-13.3268
X5.4872Y-13.4055
X5.4872Y-18.189
X5.4872Y-18.2677
X5.4872Y-18.3465
X5.4872Y-18.4252
X5.4872Y-18.5039
X5.4872Y-18.5827
X5.4872Y-18.6614
X5.4872Y-18.7402
X5.4872Y-18.8189
X5.4872Y-18.8976
X5.4872Y-18.9764
X5.4872Y-19.0551
X5.4872Y-19.1339
X5.4872Y-19.2126
X5.4872Y-19.2913
X5.4872Y-19.3701
X5.5325Y-5.9596
X5.5335Y-11.9242
X5.5335Y-17.8888
X6.1811Y-5.9583
X6.1821Y-11.9228
X6.1821Y-17.8874
X6.2264Y-6.2598
X6.2264Y-6.3386
X6.2264Y-6.4173
X6.2264Y-6.4961
X6.2264Y-6.5748
X6.2264Y-6.6535
X6.2264Y-6.7323
X6.2264Y-6.811
X6.2264Y-6.8898
X6.2264Y-6.9685
X6.2264Y-7.0472
X6.2264Y-7.126
X6.2264Y-7.2047
X6.2264Y-7.2835
X6.2264Y-7.3622
X6.2264Y-7.4409
X6.2274Y-12.2244
X6.2274Y-12.3031
X6.2274Y-12.3819
X6.2274Y-12.4606
X6.2274Y-12.5394
X6.2274Y-12.6181
X6.2274Y-12.6969
X6.2274Y-12.7756
X6.2274Y-12.8543
X6.2274Y-12.9331
X6.2274Y-13.0118
X6.2274Y-13.0906
X6.2274Y-13.1693
X6.2274Y-13.248
X6.2274Y-13.3268
X6.2274Y-13.4055
X6.2274Y-18.189
X6.2274Y-18.2677
X6.2274Y-18.3465
X6.2274Y-18.4252
X6.2274Y-18.5039
X6.2274Y-18.5827
X6.2274Y-18.6614
X6.2274Y-18.7402
X6.2274Y-18.8189
X6.2274Y-18.8976
X6.2274Y-18.9764
X6.2274Y-19.0551
X6.2274Y-19.1339
X6.2274Y-19.2126
X6.2274Y-19.2913
X6.2274Y-19.3701
X6.2276Y-2.2831
X6.2276Y-2.3618
X6.2276Y-2.4406
X6.2276Y-2.5193
X6.2276Y-2.598
X6.2276Y-2.6768
X6.2276Y-2.7555
X6.2276Y-2.8343
X6.2276Y-2.913
X6.2276Y-2.9917
X6.2276Y-3.0705
X6.2276Y-3.1492
X6.2276Y-3.228
X6.2276Y-3.3067
X6.2276Y-3.3854
X6.2276Y-3.4642
X6.2285Y-8.2476
X6.2285Y-8.3264
X6.2285Y-8.4051
X6.2285Y-8.4839
X6.2285Y-8.5626
X6.2285Y-8.6413
X6.2285Y-8.7201
X6.2285Y-8.7988
X6.2285Y-8.8776
X6.2285Y-8.9563
X6.2285Y-9.035
X6.2285Y-9.1138
X6.2285Y-9.1925
X6.2285Y-9.2713
X6.2285Y-9.35
X6.2285Y-9.4287
X6.2285Y-14.2122
X6.2285Y-14.2909
X6.2285Y-14.3697
X6.2285Y-14.4484
X6.2285Y-14.5272
X6.2285Y-14.6059
X6.2285Y-14.6846
X6.2285Y-14.7634
X6.2285Y-14.8421
X6.2285Y-14.9209
X6.2285Y-14.9996
X6.2285Y-15.0783
X6.2285Y-15.1571
X6.2285Y-15.2358
X6.2285Y-15.3146
X6.2285Y-15.3933
X6.2366Y-4.2717
X6.2366Y-4.3504
X6.2366Y-4.4291
X6.2366Y-4.5079
X6.2366Y-4.5866
X6.2366Y-4.6654
X6.2366Y-4.7441
X6.2366Y-4.8228
X6.2366Y-4.9016
X6.2366Y-4.9803
X6.2366Y-5.0591
X6.2366Y-5.1378
X6.2366Y-5.2165
X6.2366Y-5.2953
X6.2366Y-5.374
X6.2366Y-5.4528
X6.2376Y-10.2362
X6.2376Y-10.315
X6.2376Y-10.3937
X6.2376Y-10.4724
X6.2376Y-10.5512
X6.2376Y-10.6299
X6.2376Y-10.7087
X6.2376Y-10.7874
X6.2376Y-10.8661
X6.2376Y-10.9449
X6.2376Y-11.0236
X6.2376Y-11.1024
X6.2376Y-11.1811
X6.2376Y-11.2598
X6.2376Y-11.3386
X6.2376Y-11.4173
X6.2376Y-16.2008
X6.2376Y-16.2795
X6.2376Y-16.3583
X6.2376Y-16.437
X6.2376Y-16.5157
X6.2376Y-16.5945
X6.2376Y-16.6732
X6.2376Y-16.752
X6.2376Y-16.8307
X6.2376Y-16.9094
X6.2376Y-16.9882
X6.2376Y-17.0669
X6.2376Y-17.1457
X6.2376Y-17.2244
X6.2376Y-17.3031
X6.2376Y-17.3819
X6.2846Y-6.0193
X6.2849Y-7.6344
X6.2854Y-3.6724
X6.2856Y-11.9839
X6.2856Y-17.9484
X6.2858Y-13.599
X6.2858Y-19.5636
X6.2864Y-9.637
X6.2864Y-15.6016
X6.3484Y-3.6071
X6.3484Y-7.5591
X6.3494Y-9.5717
X6.3494Y-13.5236
X6.3494Y-15.5362
X6.3494Y-19.4882
X6.8102Y-3.5756
X6.8112Y-9.5402
X6.8112Y-15.5047
X6.8114Y-7.2508
X6.8118Y-2.4417
X6.8118Y-2.7252
X6.8118Y-3.0087
X6.8118Y-3.2921
X6.8118Y-5.9902
X6.8118Y-6.3374
X6.8118Y-6.6209
X6.8118Y-6.9043
X6.8118Y-7.1878
X6.8122Y-3.6378
X6.8122Y-3.7016
X6.8122Y-3.985
X6.8122Y-4.2685
X6.8122Y-5.6445
X6.8122Y-6.0539
X6.8124Y-13.2154
X6.8124Y-19.1799
X6.8128Y-8.4063
X6.8128Y-8.6898
X6.8128Y-8.9732
X6.8128Y-9.2567
X6.8128Y-11.9547
X6.8128Y-12.302
X6.8128Y-12.5854
X6.8128Y-12.8689
X6.8128Y-13.1524
X6.8128Y-14.3709
X6.8128Y-14.6543
X6.8128Y-14.9378
X6.8128Y-15.2213
X6.8128Y-17.9193
X6.8128Y-18.2665
X6.8128Y-18.55
X6.8128Y-18.8335
X6.8128Y-19.1169
X6.8132Y-9.6024
X6.8132Y-9.6661
X6.8132Y-9.9496
X6.8132Y-10.2331
X6.8132Y-11.6091
X6.8132Y-12.0185
X6.8132Y-15.5669
X6.8132Y-15.6307
X6.8132Y-15.9142
X6.8132Y-16.1976
X6.8132Y-17.5736
X6.8132Y-17.9831
X6.8154Y-5.9276
X6.8163Y-11.8921
X6.8163Y-17.8567
X6.8846Y-5.9274
X6.8856Y-11.8919
X6.8856Y-17.8565
X6.8878Y-3.7014
X6.8878Y-3.9848
X6.8878Y-4.2683
X6.8878Y-5.6443
X6.8878Y-6.0537
X6.8882Y-2.4415
X6.8882Y-2.725
X6.8882Y-3.0085
X6.8882Y-3.2919
X6.8882Y-6.3372
X6.8882Y-6.6207
X6.8882Y-6.9041
X6.8882Y-7.1876
X6.8888Y-9.6659
X6.8888Y-9.9494
X6.8888Y-10.2329
X6.8888Y-11.6089
X6.8888Y-12.0183
X6.8888Y-15.6305
X6.8888Y-15.914
X6.8888Y-16.1974
X6.8888Y-17.5734
X6.8888Y-17.9829
X6.889Y-3.6398
X6.8892Y-8.4061
X6.8892Y-8.6896
X6.8892Y-8.973
X6.8892Y-9.2565
X6.8892Y-12.3018
X6.8892Y-12.5852
X6.8892Y-12.8687
X6.8892Y-13.1522
X6.8892Y-14.3707
X6.8892Y-14.6541
X6.8892Y-14.9376
X6.8892Y-15.2211
X6.8892Y-18.2663
X6.8892Y-18.5498
X6.8892Y-18.8333
X6.8892Y-19.1167
X6.8898Y-3.5754
X6.89Y-9.6043
X6.89Y-15.5689
X6.8907Y-9.54
X6.8907Y-15.5045
X6.8909Y-5.9921
X6.8913Y-7.2508
X6.8919Y-11.9567
X6.8919Y-17.9213
X6.8923Y-13.2154
X6.8923Y-19.1799
X7.3524Y-3.5925
X7.3524Y-7.5591
X7.3533Y-9.5571
X7.3533Y-13.5236
X7.3533Y-15.5217
X7.3533Y-19.4882
X7.4144Y-6.0226
X7.4154Y-11.9872
X7.4154Y-17.9518
X7.4159Y-7.6344
X7.4161Y-3.6559
X7.4169Y-13.599
X7.4169Y-19.5636
X7.4171Y-9.6205
X7.4171Y-15.585
X7.4636Y-4.2716
X7.4636Y-4.3504
X7.4636Y-4.4291
X7.4636Y-4.5078
X7.4636Y-4.5866
X7.4636Y-4.6653
X7.4636Y-4.7441
X7.4636Y-4.8228
X7.4636Y-4.9015
X7.4636Y-4.9803
X7.4636Y-5.059
X7.4636Y-5.1378
X7.4636Y-5.2165
X7.4636Y-5.2952
X7.4636Y-5.374
X7.4636Y-5.4527
X7.4646Y-10.2362
X7.4646Y-10.3149
X7.4646Y-10.3937
X7.4646Y-10.4724
X7.4646Y-10.5511
X7.4646Y-10.6299
X7.4646Y-10.7086
X7.4646Y-10.7874
X7.4646Y-10.8661
X7.4646Y-10.9449
X7.4646Y-11.0236
X7.4646Y-11.1023
X7.4646Y-11.1811
X7.4646Y-11.2598
X7.4646Y-11.3386
X7.4646Y-11.4173
X7.4646Y-16.2008
X7.4646Y-16.2795
X7.4646Y-16.3582
X7.4646Y-16.437
X7.4646Y-16.5157
X7.4646Y-16.5945
X7.4646Y-16.6732
X7.4646Y-16.7519
X7.4646Y-16.8307
X7.4646Y-16.9094
X7.4646Y-16.9882
X7.4646Y-17.0669
X7.4646Y-17.1456
X7.4646Y-17.2244
X7.4646Y-17.3031
X7.4646Y-17.3819
X7.4717Y-2.2831
X7.4717Y-2.3618
X7.4717Y-2.4406
X7.4717Y-2.5193
X7.4717Y-2.598
X7.4717Y-2.6768
X7.4717Y-2.7555
X7.4717Y-2.8343
X7.4717Y-2.913
X7.4717Y-2.9917
X7.4717Y-3.0705
X7.4717Y-3.1492
X7.4717Y-3.228
X7.4717Y-3.3067
X7.4717Y-3.3854
X7.4717Y-3.4642
X7.4726Y-8.2476
X7.4726Y-8.3264
X7.4726Y-8.4051
X7.4726Y-8.4839
X7.4726Y-8.5626
X7.4726Y-8.6413
X7.4726Y-8.7201
X7.4726Y-8.7988
X7.4726Y-8.8776
X7.4726Y-8.9563
X7.4726Y-9.035
X7.4726Y-9.1138
X7.4726Y-9.1925
X7.4726Y-9.2713
X7.4726Y-9.35
X7.4726Y-9.4287
X7.4726Y-14.2122
X7.4726Y-14.2909
X7.4726Y-14.3697
X7.4726Y-14.4484
X7.4726Y-14.5272
X7.4726Y-14.6059
X7.4726Y-14.6846
X7.4726Y-14.7634
X7.4726Y-14.8421
X7.4726Y-14.9209
X7.4726Y-14.9996
X7.4726Y-15.0783
X7.4726Y-15.1571
X7.4726Y-15.2358
X7.4726Y-15.3146
X7.4726Y-15.3933
X7.4744Y-6.2598
X7.4744Y-6.3386
X7.4744Y-6.4173
X7.4744Y-6.4961
X7.4744Y-6.5748
X7.4744Y-6.6535
X7.4744Y-6.7323
X7.4744Y-6.811
X7.4744Y-6.8898
X7.4744Y-6.9685
X7.4744Y-7.0472
X7.4744Y-7.126
X7.4744Y-7.2047
X7.4744Y-7.2835
X7.4744Y-7.3622
X7.4744Y-7.4409
X7.4754Y-12.2244
X7.4754Y-12.3031
X7.4754Y-12.3819
X7.4754Y-12.4606
X7.4754Y-12.5394
X7.4754Y-12.6181
X7.4754Y-12.6969
X7.4754Y-12.7756
X7.4754Y-12.8543
X7.4754Y-12.9331
X7.4754Y-13.0118
X7.4754Y-13.0906
X7.4754Y-13.1693
X7.4754Y-13.248
X7.4754Y-13.3268
X7.4754Y-13.4055
X7.4754Y-18.189
X7.4754Y-18.2677
X7.4754Y-18.3465
X7.4754Y-18.4252
X7.4754Y-18.5039
X7.4754Y-18.5827
X7.4754Y-18.6614
X7.4754Y-18.7402
X7.4754Y-18.8189
X7.4754Y-18.8976
X7.4754Y-18.9764
X7.4754Y-19.0551
X7.4754Y-19.1339
X7.4754Y-19.2126
X7.4754Y-19.2913
X7.4754Y-19.3701
X7.5207Y-5.9596
X7.5217Y-11.9242
X7.5217Y-17.8888
X8.1693Y-5.9583
X8.1703Y-11.9228
X8.1703Y-17.8874
X8.2146Y-6.2598
X8.2146Y-6.3386
X8.2146Y-6.4173
X8.2146Y-6.4961
X8.2146Y-6.5748
X8.2146Y-6.6535
X8.2146Y-6.7323
X8.2146Y-6.811
X8.2146Y-6.8898
X8.2146Y-6.9685
X8.2146Y-7.0472
X8.2146Y-7.126
X8.2146Y-7.2047
X8.2146Y-7.2835
X8.2146Y-7.3622
X8.2146Y-7.4409
X8.2156Y-12.2244
X8.2156Y-12.3031
X8.2156Y-12.3819
X8.2156Y-12.4606
X8.2156Y-12.5394
X8.2156Y-12.6181
X8.2156Y-12.6969
X8.2156Y-12.7756
X8.2156Y-12.8543
X8.2156Y-12.9331
X8.2156Y-13.0118
X8.2156Y-13.0906
X8.2156Y-13.1693
X8.2156Y-13.248
X8.2156Y-13.3268
X8.2156Y-13.4055
X8.2156Y-18.189
X8.2156Y-18.2677
X8.2156Y-18.3465
X8.2156Y-18.4252
X8.2156Y-18.5039
X8.2156Y-18.5827
X8.2156Y-18.6614
X8.2156Y-18.7402
X8.2156Y-18.8189
X8.2156Y-18.8976
X8.2156Y-18.9764
X8.2156Y-19.0551
X8.2156Y-19.1339
X8.2156Y-19.2126
X8.2156Y-19.2913
X8.2156Y-19.3701
X8.2157Y-2.2831
X8.2157Y-2.3618
X8.2157Y-2.4406
X8.2157Y-2.5193
X8.2157Y-2.598
X8.2157Y-2.6768
X8.2157Y-2.7555
X8.2157Y-2.8343
X8.2157Y-2.913
X8.2157Y-2.9917
X8.2157Y-3.0705
X8.2157Y-3.1492
X8.2157Y-3.228
X8.2157Y-3.3067
X8.2157Y-3.3854
X8.2157Y-3.4642
X8.2167Y-8.2476
X8.2167Y-8.3264
X8.2167Y-8.4051
X8.2167Y-8.4839
X8.2167Y-8.5626
X8.2167Y-8.6413
X8.2167Y-8.7201
X8.2167Y-8.7988
X8.2167Y-8.8776
X8.2167Y-8.9563
X8.2167Y-9.035
X8.2167Y-9.1138
X8.2167Y-9.1925
X8.2167Y-9.2713
X8.2167Y-9.35
X8.2167Y-9.4287
X8.2167Y-14.2122
X8.2167Y-14.2909
X8.2167Y-14.3697
X8.2167Y-14.4484
X8.2167Y-14.5272
X8.2167Y-14.6059
X8.2167Y-14.6846
X8.2167Y-14.7634
X8.2167Y-14.8421
X8.2167Y-14.9209
X8.2167Y-14.9996
X8.2167Y-15.0783
X8.2167Y-15.1571
X8.2167Y-15.2358
X8.2167Y-15.3146
X8.2167Y-15.3933
X8.2248Y-4.2717
X8.2248Y-4.3504
X8.2248Y-4.4291
X8.2248Y-4.5079
X8.2248Y-4.5866
X8.2248Y-4.6654
X8.2248Y-4.7441
X8.2248Y-4.8228
X8.2248Y-4.9016
X8.2248Y-4.9803
X8.2248Y-5.0591
X8.2248Y-5.1378
X8.2248Y-5.2165
X8.2248Y-5.2953
X8.2248Y-5.374
X8.2248Y-5.4528
X8.2258Y-10.2362
X8.2258Y-10.315
X8.2258Y-10.3937
X8.2258Y-10.4724
X8.2258Y-10.5512
X8.2258Y-10.6299
X8.2258Y-10.7087
X8.2258Y-10.7874
X8.2258Y-10.8661
X8.2258Y-10.9449
X8.2258Y-11.0236
X8.2258Y-11.1024
X8.2258Y-11.1811
X8.2258Y-11.2598
X8.2258Y-11.3386
X8.2258Y-11.4173
X8.2258Y-16.2008
X8.2258Y-16.2795
X8.2258Y-16.3583
X8.2258Y-16.437
X8.2258Y-16.5157
X8.2258Y-16.5945
X8.2258Y-16.6732
X8.2258Y-16.752
X8.2258Y-16.8307
X8.2258Y-16.9094
X8.2258Y-16.9882
X8.2258Y-17.0669
X8.2258Y-17.1457
X8.2258Y-17.2244
X8.2258Y-17.3031
X8.2258Y-17.3819
X8.2728Y-6.0193
X8.2731Y-7.6344
X8.2736Y-3.6724
X8.2738Y-11.9839
X8.2738Y-17.9484
X8.274Y-13.599
X8.274Y-19.5636
X8.2746Y-9.637
X8.2746Y-15.6016
X8.3366Y-3.6071
X8.3366Y-7.5591
X8.3376Y-9.5717
X8.3376Y-13.5236
X8.3376Y-15.5362
X8.3376Y-19.4882
X8.7984Y-3.5756
X8.7994Y-9.5402
X8.7994Y-15.5047
X8.7996Y-7.2508
X8.8Y-2.4417
X8.8Y-2.7252
X8.8Y-3.0087
X8.8Y-3.2921
X8.8Y-5.9902
X8.8Y-6.3374
X8.8Y-6.6209
X8.8Y-6.9043
X8.8Y-7.1878
X8.8004Y-3.6378
X8.8004Y-3.7016
X8.8004Y-3.985
X8.8004Y-4.2685
X8.8004Y-5.6445
X8.8004Y-6.0539
X8.8006Y-13.2154
X8.8006Y-19.1799
X8.801Y-8.4063
X8.801Y-8.6898
X8.801Y-8.9732
X8.801Y-9.2567
X8.801Y-11.9547
X8.801Y-12.302
X8.801Y-12.5854
X8.801Y-12.8689
X8.801Y-13.1524
X8.801Y-14.3709
X8.801Y-14.6543
X8.801Y-14.9378
X8.801Y-15.2213
X8.801Y-17.9193
X8.801Y-18.2665
X8.801Y-18.55
X8.801Y-18.8335
X8.801Y-19.1169
X8.8014Y-9.6024
X8.8014Y-9.6661
X8.8014Y-9.9496
X8.8014Y-10.2331
X8.8014Y-11.6091
X8.8014Y-12.0185
X8.8014Y-15.5669
X8.8014Y-15.6307
X8.8014Y-15.9142
X8.8014Y-16.1976
X8.8014Y-17.5736
X8.8014Y-17.9831
X8.8035Y-5.9276
X8.8045Y-11.8921
X8.8045Y-17.8567
X8.8728Y-5.9274
X8.8738Y-11.8919
X8.8738Y-17.8565
X8.876Y-3.7014
X8.876Y-3.9848
X8.876Y-4.2683
X8.876Y-5.6443
X8.876Y-6.0537
X8.8764Y-2.4415
X8.8764Y-2.725
X8.8764Y-3.0085
X8.8764Y-3.2919
X8.8764Y-6.3372
X8.8764Y-6.6207
X8.8764Y-6.9041
X8.8764Y-7.1876
X8.877Y-9.6659
X8.877Y-9.9494
X8.877Y-10.2329
X8.877Y-11.6089
X8.877Y-12.0183
X8.877Y-15.6305
X8.877Y-15.914
X8.877Y-16.1974
X8.877Y-17.5734
X8.877Y-17.9829
X8.8772Y-3.6398
X8.8774Y-8.4061
X8.8774Y-8.6896
X8.8774Y-8.973
X8.8774Y-9.2565
X8.8774Y-12.3018
X8.8774Y-12.5852
X8.8774Y-12.8687
X8.8774Y-13.1522
X8.8774Y-14.3707
X8.8774Y-14.6541
X8.8774Y-14.9376
X8.8774Y-15.2211
X8.8774Y-18.2663
X8.8774Y-18.5498
X8.8774Y-18.8333
X8.8774Y-19.1167
X8.878Y-3.5754
X8.8781Y-9.6043
X8.8781Y-15.5689
X8.8789Y-9.54
X8.8789Y-15.5045
X8.8791Y-5.9921
X8.8795Y-7.2508
X8.8801Y-11.9567
X8.8801Y-17.9213
X8.8805Y-13.2154
X8.8805Y-19.1799
X9.3406Y-3.5925
X9.3406Y-7.5591
X9.3415Y-9.5571
X9.3415Y-13.5236
X9.3415Y-15.5217
X9.3415Y-19.4882
X9.4026Y-6.0226
X9.4035Y-11.9872
X9.4035Y-17.9518
X9.4041Y-7.6344
X9.4043Y-3.6559
X9.4051Y-13.599
X9.4051Y-19.5636
X9.4053Y-9.6205
X9.4053Y-15.585
X9.4518Y-4.2716
X9.4518Y-4.3504
X9.4518Y-4.4291
X9.4518Y-4.5078
X9.4518Y-4.5866
X9.4518Y-4.6653
X9.4518Y-4.7441
X9.4518Y-4.8228
X9.4518Y-4.9015
X9.4518Y-4.9803
X9.4518Y-5.059
X9.4518Y-5.1378
X9.4518Y-5.2165
X9.4518Y-5.2952
X9.4518Y-5.374
X9.4518Y-5.4527
X9.4528Y-10.2362
X9.4528Y-10.3149
X9.4528Y-10.3937
X9.4528Y-10.4724
X9.4528Y-10.5511
X9.4528Y-10.6299
X9.4528Y-10.7086
X9.4528Y-10.7874
X9.4528Y-10.8661
X9.4528Y-10.9449
X9.4528Y-11.0236
X9.4528Y-11.1023
X9.4528Y-11.1811
X9.4528Y-11.2598
X9.4528Y-11.3386
X9.4528Y-11.4173
X9.4528Y-16.2008
X9.4528Y-16.2795
X9.4528Y-16.3582
X9.4528Y-16.437
X9.4528Y-16.5157
X9.4528Y-16.5945
X9.4528Y-16.6732
X9.4528Y-16.7519
X9.4528Y-16.8307
X9.4528Y-16.9094
X9.4528Y-16.9882
X9.4528Y-17.0669
X9.4528Y-17.1456
X9.4528Y-17.2244
X9.4528Y-17.3031
X9.4528Y-17.3819
X9.4598Y-2.2831
X9.4598Y-2.3618
X9.4598Y-2.4406
X9.4598Y-2.5193
X9.4598Y-2.598
X9.4598Y-2.6768
X9.4598Y-2.7555
X9.4598Y-2.8343
X9.4598Y-2.913
X9.4598Y-2.9917
X9.4598Y-3.0705
X9.4598Y-3.1492
X9.4598Y-3.228
X9.4598Y-3.3067
X9.4598Y-3.3854
X9.4598Y-3.4642
X9.4608Y-8.2476
X9.4608Y-8.3264
X9.4608Y-8.4051
X9.4608Y-8.4839
X9.4608Y-8.5626
X9.4608Y-8.6413
X9.4608Y-8.7201
X9.4608Y-8.7988
X9.4608Y-8.8776
X9.4608Y-8.9563
X9.4608Y-9.035
X9.4608Y-9.1138
X9.4608Y-9.1925
X9.4608Y-9.2713
X9.4608Y-9.35
X9.4608Y-9.4287
X9.4608Y-14.2122
X9.4608Y-14.2909
X9.4608Y-14.3697
X9.4608Y-14.4484
X9.4608Y-14.5272
X9.4608Y-14.6059
X9.4608Y-14.6846
X9.4608Y-14.7634
X9.4608Y-14.8421
X9.4608Y-14.9209
X9.4608Y-14.9996
X9.4608Y-15.0783
X9.4608Y-15.1571
X9.4608Y-15.2358
X9.4608Y-15.3146
X9.4608Y-15.3933
X9.4626Y-6.2598
X9.4626Y-6.3386
X9.4626Y-6.4173
X9.4626Y-6.4961
X9.4626Y-6.5748
X9.4626Y-6.6535
X9.4626Y-6.7323
X9.4626Y-6.811
X9.4626Y-6.8898
X9.4626Y-6.9685
X9.4626Y-7.0472
X9.4626Y-7.126
X9.4626Y-7.2047
X9.4626Y-7.2835
X9.4626Y-7.3622
X9.4626Y-7.4409
X9.4636Y-12.2244
X9.4636Y-12.3031
X9.4636Y-12.3819
X9.4636Y-12.4606
X9.4636Y-12.5394
X9.4636Y-12.6181
X9.4636Y-12.6969
X9.4636Y-12.7756
X9.4636Y-12.8543
X9.4636Y-12.9331
X9.4636Y-13.0118
X9.4636Y-13.0906
X9.4636Y-13.1693
X9.4636Y-13.248
X9.4636Y-13.3268
X9.4636Y-13.4055
X9.4636Y-18.189
X9.4636Y-18.2677
X9.4636Y-18.3465
X9.4636Y-18.4252
X9.4636Y-18.5039
X9.4636Y-18.5827
X9.4636Y-18.6614
X9.4636Y-18.7402
X9.4636Y-18.8189
X9.4636Y-18.8976
X9.4636Y-18.9764
X9.4636Y-19.0551
X9.4636Y-19.1339
X9.4636Y-19.2126
X9.4636Y-19.2913
X9.4636Y-19.3701
X9.5089Y-5.9596
X9.5098Y-11.9242
X9.5098Y-17.8888
X10.1575Y-5.9583
X10.1585Y-11.9228
X10.1585Y-17.8874
X10.2028Y-6.2598
X10.2028Y-6.3386
X10.2028Y-6.4173
X10.2028Y-6.4961
X10.2028Y-6.5748
X10.2028Y-6.6535
X10.2028Y-6.7323
X10.2028Y-6.811
X10.2028Y-6.8898
X10.2028Y-6.9685
X10.2028Y-7.0472
X10.2028Y-7.126
X10.2028Y-7.2047
X10.2028Y-7.2835
X10.2028Y-7.3622
X10.2028Y-7.4409
X10.2037Y-12.2244
X10.2037Y-12.3031
X10.2037Y-12.3819
X10.2037Y-12.4606
X10.2037Y-12.5394
X10.2037Y-12.6181
X10.2037Y-12.6969
X10.2037Y-12.7756
X10.2037Y-12.8543
X10.2037Y-12.9331
X10.2037Y-13.0118
X10.2037Y-13.0906
X10.2037Y-13.1693
X10.2037Y-13.248
X10.2037Y-13.3268
X10.2037Y-13.4055
X10.2037Y-18.189
X10.2037Y-18.2677
X10.2037Y-18.3465
X10.2037Y-18.4252
X10.2037Y-18.5039
X10.2037Y-18.5827
X10.2037Y-18.6614
X10.2037Y-18.7402
X10.2037Y-18.8189
X10.2037Y-18.8976
X10.2037Y-18.9764
X10.2037Y-19.0551
X10.2037Y-19.1339
X10.2037Y-19.2126
X10.2037Y-19.2913
X10.2037Y-19.3701
X10.2039Y-2.2831
X10.2039Y-2.3618
X10.2039Y-2.4406
X10.2039Y-2.5193
X10.2039Y-2.598
X10.2039Y-2.6768
X10.2039Y-2.7555
X10.2039Y-2.8343
X10.2039Y-2.913
X10.2039Y-2.9917
X10.2039Y-3.0705
X10.2039Y-3.1492
X10.2039Y-3.228
X10.2039Y-3.3067
X10.2039Y-3.3854
X10.2039Y-3.4642
X10.2049Y-8.2476
X10.2049Y-8.3264
X10.2049Y-8.4051
X10.2049Y-8.4839
X10.2049Y-8.5626
X10.2049Y-8.6413
X10.2049Y-8.7201
X10.2049Y-8.7988
X10.2049Y-8.8776
X10.2049Y-8.9563
X10.2049Y-9.035
X10.2049Y-9.1138
X10.2049Y-9.1925
X10.2049Y-9.2713
X10.2049Y-9.35
X10.2049Y-9.4287
X10.2049Y-14.2122
X10.2049Y-14.2909
X10.2049Y-14.3697
X10.2049Y-14.4484
X10.2049Y-14.5272
X10.2049Y-14.6059
X10.2049Y-14.6846
X10.2049Y-14.7634
X10.2049Y-14.8421
X10.2049Y-14.9209
X10.2049Y-14.9996
X10.2049Y-15.0783
X10.2049Y-15.1571
X10.2049Y-15.2358
X10.2049Y-15.3146
X10.2049Y-15.3933
X10.213Y-4.2717
X10.213Y-4.3504
X10.213Y-4.4291
X10.213Y-4.5079
X10.213Y-4.5866
X10.213Y-4.6654
X10.213Y-4.7441
X10.213Y-4.8228
X10.213Y-4.9016
X10.213Y-4.9803
X10.213Y-5.0591
X10.213Y-5.1378
X10.213Y-5.2165
X10.213Y-5.2953
X10.213Y-5.374
X10.213Y-5.4528
X10.214Y-10.2362
X10.214Y-10.315
X10.214Y-10.3937
X10.214Y-10.4724
X10.214Y-10.5512
X10.214Y-10.6299
X10.214Y-10.7087
X10.214Y-10.7874
X10.214Y-10.8661
X10.214Y-10.9449
X10.214Y-11.0236
X10.214Y-11.1024
X10.214Y-11.1811
X10.214Y-11.2598
X10.214Y-11.3386
X10.214Y-11.4173
X10.214Y-16.2008
X10.214Y-16.2795
X10.214Y-16.3583
X10.214Y-16.437
X10.214Y-16.5157
X10.214Y-16.5945
X10.214Y-16.6732
X10.214Y-16.752
X10.214Y-16.8307
X10.214Y-16.9094
X10.214Y-16.9882
X10.214Y-17.0669
X10.214Y-17.1457
X10.214Y-17.2244
X10.214Y-17.3031
X10.214Y-17.3819
X10.261Y-6.0193
X10.2612Y-7.6344
X10.2618Y-3.6724
X10.262Y-11.9839
X10.262Y-17.9484
X10.2622Y-13.599
X10.2622Y-19.5636
X10.2628Y-9.637
X10.2628Y-15.6016
X10.3248Y-3.6071
X10.3248Y-7.5591
X10.3258Y-9.5717
X10.3258Y-13.5236
X10.3258Y-15.5362
X10.3258Y-19.4882
X10.7866Y-3.5756
X10.7876Y-9.5402
X10.7876Y-15.5047
X10.7878Y-7.2508
X10.7882Y-2.4417
X10.7882Y-2.7252
X10.7882Y-3.0087
X10.7882Y-3.2921
X10.7882Y-5.9902
X10.7882Y-6.3374
X10.7882Y-6.6209
X10.7882Y-6.9043
X10.7882Y-7.1878
X10.7886Y-3.6378
X10.7886Y-3.7016
X10.7886Y-3.985
X10.7886Y-4.2685
X10.7886Y-5.6445
X10.7886Y-6.0539
X10.7888Y-13.2154
X10.7888Y-19.1799
X10.7892Y-8.4063
X10.7892Y-8.6898
X10.7892Y-8.9732
X10.7892Y-9.2567
X10.7892Y-11.9547
X10.7892Y-12.302
X10.7892Y-12.5854
X10.7892Y-12.8689
X10.7892Y-13.1524
X10.7892Y-14.3709
X10.7892Y-14.6543
X10.7892Y-14.9378
X10.7892Y-15.2213
X10.7892Y-17.9193
X10.7892Y-18.2665
X10.7892Y-18.55
X10.7892Y-18.8335
X10.7892Y-19.1169
X10.7896Y-9.6024
X10.7896Y-9.6661
X10.7896Y-9.9496
X10.7896Y-10.2331
X10.7896Y-11.6091
X10.7896Y-12.0185
X10.7896Y-15.5669
X10.7896Y-15.6307
X10.7896Y-15.9142
X10.7896Y-16.1976
X10.7896Y-17.5736
X10.7896Y-17.9831
X10.7917Y-5.9276
X10.7927Y-11.8921
X10.7927Y-17.8567
X10.861Y-5.9274
X10.862Y-11.8919
X10.862Y-17.8565
X10.8642Y-3.7014
X10.8642Y-3.9848
X10.8642Y-4.2683
X10.8642Y-5.6443
X10.8642Y-6.0537
X10.8646Y-2.4415
X10.8646Y-2.725
X10.8646Y-3.0085
X10.8646Y-3.2919
X10.8646Y-6.3372
X10.8646Y-6.6207
X10.8646Y-6.9041
X10.8646Y-7.1876
X10.8652Y-9.6659
X10.8652Y-9.9494
X10.8652Y-10.2329
X10.8652Y-11.6089
X10.8652Y-12.0183
X10.8652Y-15.6305
X10.8652Y-15.914
X10.8652Y-16.1974
X10.8652Y-17.5734
X10.8652Y-17.9829
X10.8654Y-3.6398
X10.8656Y-8.4061
X10.8656Y-8.6896
X10.8656Y-8.973
X10.8656Y-9.2565
X10.8656Y-12.3018
X10.8656Y-12.5852
X10.8656Y-12.8687
X10.8656Y-13.1522
X10.8656Y-14.3707
X10.8656Y-14.6541
X10.8656Y-14.9376
X10.8656Y-15.2211
X10.8656Y-18.2663
X10.8656Y-18.5498
X10.8656Y-18.8333
X10.8656Y-19.1167
X10.8661Y-3.5754
X10.8663Y-9.6043
X10.8663Y-15.5689
X10.8671Y-9.54
X10.8671Y-15.5045
X10.8673Y-5.9921
X10.8677Y-7.2508
X10.8683Y-11.9567
X10.8683Y-17.9213
X10.8687Y-13.2154
X10.8687Y-19.1799
X11.3287Y-3.5925
X11.3287Y-7.5591
X11.3297Y-9.5571
X11.3297Y-13.5236
X11.3297Y-15.5217
X11.3297Y-19.4882
X11.3907Y-6.0226
X11.3917Y-11.9872
X11.3917Y-17.9518
X11.3923Y-7.6344
X11.3925Y-3.6559
X11.3933Y-13.599
X11.3933Y-19.5636
X11.3935Y-9.6205
X11.3935Y-15.585
X11.44Y-4.2716
X11.44Y-4.3504
X11.44Y-4.4291
X11.44Y-4.5078
X11.44Y-4.5866
X11.44Y-4.6653
X11.44Y-4.7441
X11.44Y-4.8228
X11.44Y-4.9015
X11.44Y-4.9803
X11.44Y-5.059
X11.44Y-5.1378
X11.44Y-5.2165
X11.44Y-5.2952
X11.44Y-5.374
X11.44Y-5.4527
X11.441Y-10.2362
X11.441Y-10.3149
X11.441Y-10.3937
X11.441Y-10.4724
X11.441Y-10.5511
X11.441Y-10.6299
X11.441Y-10.7086
X11.441Y-10.7874
X11.441Y-10.8661
X11.441Y-10.9449
X11.441Y-11.0236
X11.441Y-11.1023
X11.441Y-11.1811
X11.441Y-11.2598
X11.441Y-11.3386
X11.441Y-11.4173
X11.441Y-16.2008
X11.441Y-16.2795
X11.441Y-16.3582
X11.441Y-16.437
X11.441Y-16.5157
X11.441Y-16.5945
X11.441Y-16.6732
X11.441Y-16.7519
X11.441Y-16.8307
X11.441Y-16.9094
X11.441Y-16.9882
X11.441Y-17.0669
X11.441Y-17.1456
X11.441Y-17.2244
X11.441Y-17.3031
X11.441Y-17.3819
X11.448Y-2.2831
X11.448Y-2.3618
X11.448Y-2.4406
X11.448Y-2.5193
X11.448Y-2.598
X11.448Y-2.6768
X11.448Y-2.7555
X11.448Y-2.8343
X11.448Y-2.913
X11.448Y-2.9917
X11.448Y-3.0705
X11.448Y-3.1492
X11.448Y-3.228
X11.448Y-3.3067
X11.448Y-3.3854
X11.448Y-3.4642
X11.449Y-8.2476
X11.449Y-8.3264
X11.449Y-8.4051
X11.449Y-8.4839
X11.449Y-8.5626
X11.449Y-8.6413
X11.449Y-8.7201
X11.449Y-8.7988
X11.449Y-8.8776
X11.449Y-8.9563
X11.449Y-9.035
X11.449Y-9.1138
X11.449Y-9.1925
X11.449Y-9.2713
X11.449Y-9.35
X11.449Y-9.4287
X11.449Y-14.2122
X11.449Y-14.2909
X11.449Y-14.3697
X11.449Y-14.4484
X11.449Y-14.5272
X11.449Y-14.6059
X11.449Y-14.6846
X11.449Y-14.7634
X11.449Y-14.8421
X11.449Y-14.9209
X11.449Y-14.9996
X11.449Y-15.0783
X11.449Y-15.1571
X11.449Y-15.2358
X11.449Y-15.3146
X11.449Y-15.3933
X11.4508Y-6.2598
X11.4508Y-6.3386
X11.4508Y-6.4173
X11.4508Y-6.4961
X11.4508Y-6.5748
X11.4508Y-6.6535
X11.4508Y-6.7323
X11.4508Y-6.811
X11.4508Y-6.8898
X11.4508Y-6.9685
X11.4508Y-7.0472
X11.4508Y-7.126
X11.4508Y-7.2047
X11.4508Y-7.2835
X11.4508Y-7.3622
X11.4508Y-7.4409
X11.4518Y-12.2244
X11.4518Y-12.3031
X11.4518Y-12.3819
X11.4518Y-12.4606
X11.4518Y-12.5394
X11.4518Y-12.6181
X11.4518Y-12.6969
X11.4518Y-12.7756
X11.4518Y-12.8543
X11.4518Y-12.9331
X11.4518Y-13.0118
X11.4518Y-13.0906
X11.4518Y-13.1693
X11.4518Y-13.248
X11.4518Y-13.3268
X11.4518Y-13.4055
X11.4518Y-18.189
X11.4518Y-18.2677
X11.4518Y-18.3465
X11.4518Y-18.4252
X11.4518Y-18.5039
X11.4518Y-18.5827
X11.4518Y-18.6614
X11.4518Y-18.7402
X11.4518Y-18.8189
X11.4518Y-18.8976
X11.4518Y-18.9764
X11.4518Y-19.0551
X11.4518Y-19.1339
X11.4518Y-19.2126
X11.4518Y-19.2913
X11.4518Y-19.3701
X11.497Y-5.9596
X11.498Y-11.9242
X11.498Y-17.8888
X12.1457Y-5.9583
X12.1467Y-11.9228
X12.1467Y-17.8874
X12.1909Y-6.2598
X12.1909Y-6.3386
X12.1909Y-6.4173
X12.1909Y-6.4961
X12.1909Y-6.5748
X12.1909Y-6.6535
X12.1909Y-6.7323
X12.1909Y-6.811
X12.1909Y-6.8898
X12.1909Y-6.9685
X12.1909Y-7.0472
X12.1909Y-7.126
X12.1909Y-7.2047
X12.1909Y-7.2835
X12.1909Y-7.3622
X12.1909Y-7.4409
X12.1919Y-12.2244
X12.1919Y-12.3031
X12.1919Y-12.3819
X12.1919Y-12.4606
X12.1919Y-12.5394
X12.1919Y-12.6181
X12.1919Y-12.6969
X12.1919Y-12.7756
X12.1919Y-12.8543
X12.1919Y-12.9331
X12.1919Y-13.0118
X12.1919Y-13.0906
X12.1919Y-13.1693
X12.1919Y-13.248
X12.1919Y-13.3268
X12.1919Y-13.4055
X12.1919Y-18.189
X12.1919Y-18.2677
X12.1919Y-18.3465
X12.1919Y-18.4252
X12.1919Y-18.5039
X12.1919Y-18.5827
X12.1919Y-18.6614
X12.1919Y-18.7402
X12.1919Y-18.8189
X12.1919Y-18.8976
X12.1919Y-18.9764
X12.1919Y-19.0551
X12.1919Y-19.1339
X12.1919Y-19.2126
X12.1919Y-19.2913
X12.1919Y-19.3701
X12.1921Y-2.2831
X12.1921Y-2.3618
X12.1921Y-2.4406
X12.1921Y-2.5193
X12.1921Y-2.598
X12.1921Y-2.6768
X12.1921Y-2.7555
X12.1921Y-2.8343
X12.1921Y-2.913
X12.1921Y-2.9917
X12.1921Y-3.0705
X12.1921Y-3.1492
X12.1921Y-3.228
X12.1921Y-3.3067
X12.1921Y-3.3854
X12.1921Y-3.4642
X12.1931Y-8.2476
X12.1931Y-8.3264
X12.1931Y-8.4051
X12.1931Y-8.4839
X12.1931Y-8.5626
X12.1931Y-8.6413
X12.1931Y-8.7201
X12.1931Y-8.7988
X12.1931Y-8.8776
X12.1931Y-8.9563
X12.1931Y-9.035
X12.1931Y-9.1138
X12.1931Y-9.1925
X12.1931Y-9.2713
X12.1931Y-9.35
X12.1931Y-9.4287
X12.1931Y-14.2122
X12.1931Y-14.2909
X12.1931Y-14.3697
X12.1931Y-14.4484
X12.1931Y-14.5272
X12.1931Y-14.6059
X12.1931Y-14.6846
X12.1931Y-14.7634
X12.1931Y-14.8421
X12.1931Y-14.9209
X12.1931Y-14.9996
X12.1931Y-15.0783
X12.1931Y-15.1571
X12.1931Y-15.2358
X12.1931Y-15.3146
X12.1931Y-15.3933
X12.2012Y-4.2717
X12.2012Y-4.3504
X12.2012Y-4.4291
X12.2012Y-4.5079
X12.2012Y-4.5866
X12.2012Y-4.6654
X12.2012Y-4.7441
X12.2012Y-4.8228
X12.2012Y-4.9016
X12.2012Y-4.9803
X12.2012Y-5.0591
X12.2012Y-5.1378
X12.2012Y-5.2165
X12.2012Y-5.2953
X12.2012Y-5.374
X12.2012Y-5.4528
X12.2022Y-10.2362
X12.2022Y-10.315
X12.2022Y-10.3937
X12.2022Y-10.4724
X12.2022Y-10.5512
X12.2022Y-10.6299
X12.2022Y-10.7087
X12.2022Y-10.7874
X12.2022Y-10.8661
X12.2022Y-10.9449
X12.2022Y-11.0236
X12.2022Y-11.1024
X12.2022Y-11.1811
X12.2022Y-11.2598
X12.2022Y-11.3386
X12.2022Y-11.4173
X12.2022Y-16.2008
X12.2022Y-16.2795
X12.2022Y-16.3583
X12.2022Y-16.437
X12.2022Y-16.5157
X12.2022Y-16.5945
X12.2022Y-16.6732
X12.2022Y-16.752
X12.2022Y-16.8307
X12.2022Y-16.9094
X12.2022Y-16.9882
X12.2022Y-17.0669
X12.2022Y-17.1457
X12.2022Y-17.2244
X12.2022Y-17.3031
X12.2022Y-17.3819
X12.2492Y-6.0193
X12.2494Y-7.6344
X12.25Y-3.6724
X12.2502Y-11.9839
X12.2502Y-17.9484
X12.2504Y-13.599
X12.2504Y-19.5636
X12.251Y-9.637
X12.251Y-15.6016
X12.313Y-3.6071
X12.313Y-7.5591
X12.314Y-9.5717
X12.314Y-13.5236
X12.314Y-15.5362
X12.314Y-19.4882
X12.7748Y-3.5756
X12.7758Y-9.5402
X12.7758Y-15.5047
X12.776Y-7.2508
X12.7764Y-2.4417
X12.7764Y-2.7252
X12.7764Y-3.0087
X12.7764Y-3.2921
X12.7764Y-5.9902
X12.7764Y-6.3374
X12.7764Y-6.6209
X12.7764Y-6.9043
X12.7764Y-7.1878
X12.7768Y-3.6378
X12.7768Y-3.7016
X12.7768Y-3.985
X12.7768Y-4.2685
X12.7768Y-5.6445
X12.7768Y-6.0539
X12.777Y-13.2154
X12.777Y-19.1799
X12.7774Y-8.4063
X12.7774Y-8.6898
X12.7774Y-8.9732
X12.7774Y-9.2567
X12.7774Y-11.9547
X12.7774Y-12.302
X12.7774Y-12.5854
X12.7774Y-12.8689
X12.7774Y-13.1524
X12.7774Y-14.3709
X12.7774Y-14.6543
X12.7774Y-14.9378
X12.7774Y-15.2213
X12.7774Y-17.9193
X12.7774Y-18.2665
X12.7774Y-18.55
X12.7774Y-18.8335
X12.7774Y-19.1169
X12.7778Y-9.6024
X12.7778Y-9.6661
X12.7778Y-9.9496
X12.7778Y-10.2331
X12.7778Y-11.6091
X12.7778Y-12.0185
X12.7778Y-15.5669
X12.7778Y-15.6307
X12.7778Y-15.9142
X12.7778Y-16.1976
X12.7778Y-17.5736
X12.7778Y-17.9831
X12.7799Y-5.9276
X12.7809Y-11.8921
X12.7809Y-17.8567
X12.8492Y-5.9274
X12.8502Y-11.8919
X12.8502Y-17.8565
X12.8524Y-3.7014
X12.8524Y-3.9848
X12.8524Y-4.2683
X12.8524Y-5.6443
X12.8524Y-6.0537
X12.8528Y-2.4415
X12.8528Y-2.725
X12.8528Y-3.0085
X12.8528Y-3.2919
X12.8528Y-6.3372
X12.8528Y-6.6207
X12.8528Y-6.9041
X12.8528Y-7.1876
X12.8533Y-9.6659
X12.8533Y-9.9494
X12.8533Y-10.2329
X12.8533Y-11.6089
X12.8533Y-12.0183
X12.8533Y-15.6305
X12.8533Y-15.914
X12.8533Y-16.1974
X12.8533Y-17.5734
X12.8533Y-17.9829
X12.8535Y-3.6398
X12.8537Y-8.4061
X12.8537Y-8.6896
X12.8537Y-8.973
X12.8537Y-9.2565
X12.8537Y-12.3018
X12.8537Y-12.5852
X12.8537Y-12.8687
X12.8537Y-13.1522
X12.8537Y-14.3707
X12.8537Y-14.6541
X12.8537Y-14.9376
X12.8537Y-15.2211
X12.8537Y-18.2663
X12.8537Y-18.5498
X12.8537Y-18.8333
X12.8537Y-19.1167
X12.8543Y-3.5754
X12.8545Y-9.6043
X12.8545Y-15.5689
X12.8553Y-9.54
X12.8553Y-15.5045
X12.8555Y-5.9921
X12.8559Y-7.2508
X12.8565Y-11.9567
X12.8565Y-17.9213
X12.8569Y-13.2154
X12.8569Y-19.1799
X13.3169Y-3.5925
X13.3169Y-7.5591
X13.3179Y-9.5571
X13.3179Y-13.5236
X13.3179Y-15.5217
X13.3179Y-19.4882
X13.3789Y-6.0226
X13.3799Y-11.9872
X13.3799Y-17.9518
X13.3805Y-7.6344
X13.3807Y-3.6559
X13.3815Y-13.599
X13.3815Y-19.5636
X13.3817Y-9.6205
X13.3817Y-15.585
X13.4282Y-4.2716
X13.4282Y-4.3504
X13.4282Y-4.4291
X13.4282Y-4.5078
X13.4282Y-4.5866
X13.4282Y-4.6653
X13.4282Y-4.7441
X13.4282Y-4.8228
X13.4282Y-4.9015
X13.4282Y-4.9803
X13.4282Y-5.059
X13.4282Y-5.1378
X13.4282Y-5.2165
X13.4282Y-5.2952
X13.4282Y-5.374
X13.4282Y-5.4527
X13.4292Y-10.2362
X13.4292Y-10.3149
X13.4292Y-10.3937
X13.4292Y-10.4724
X13.4292Y-10.5511
X13.4292Y-10.6299
X13.4292Y-10.7086
X13.4292Y-10.7874
X13.4292Y-10.8661
X13.4292Y-10.9449
X13.4292Y-11.0236
X13.4292Y-11.1023
X13.4292Y-11.1811
X13.4292Y-11.2598
X13.4292Y-11.3386
X13.4292Y-11.4173
X13.4292Y-16.2008
X13.4292Y-16.2795
X13.4292Y-16.3582
X13.4292Y-16.437
X13.4292Y-16.5157
X13.4292Y-16.5945
X13.4292Y-16.6732
X13.4292Y-16.7519
X13.4292Y-16.8307
X13.4292Y-16.9094
X13.4292Y-16.9882
X13.4292Y-17.0669
X13.4292Y-17.1456
X13.4292Y-17.2244
X13.4292Y-17.3031
X13.4292Y-17.3819
X13.4362Y-2.2831
X13.4362Y-2.3618
X13.4362Y-2.4406
X13.4362Y-2.5193
X13.4362Y-2.598
X13.4362Y-2.6768
X13.4362Y-2.7555
X13.4362Y-2.8343
X13.4362Y-2.913
X13.4362Y-2.9917
X13.4362Y-3.0705
X13.4362Y-3.1492
X13.4362Y-3.228
X13.4362Y-3.3067
X13.4362Y-3.3854
X13.4362Y-3.4642
X13.4372Y-8.2476
X13.4372Y-8.3264
X13.4372Y-8.4051
X13.4372Y-8.4839
X13.4372Y-8.5626
X13.4372Y-8.6413
X13.4372Y-8.7201
X13.4372Y-8.7988
X13.4372Y-8.8776
X13.4372Y-8.9563
X13.4372Y-9.035
X13.4372Y-9.1138
X13.4372Y-9.1925
X13.4372Y-9.2713
X13.4372Y-9.35
X13.4372Y-9.4287
X13.4372Y-14.2122
X13.4372Y-14.2909
X13.4372Y-14.3697
X13.4372Y-14.4484
X13.4372Y-14.5272
X13.4372Y-14.6059
X13.4372Y-14.6846
X13.4372Y-14.7634
X13.4372Y-14.8421
X13.4372Y-14.9209
X13.4372Y-14.9996
X13.4372Y-15.0783
X13.4372Y-15.1571
X13.4372Y-15.2358
X13.4372Y-15.3146
X13.4372Y-15.3933
X13.439Y-6.2598
X13.439Y-6.3386
X13.439Y-6.4173
X13.439Y-6.4961
X13.439Y-6.5748
X13.439Y-6.6535
X13.439Y-6.7323
X13.439Y-6.811
X13.439Y-6.8898
X13.439Y-6.9685
X13.439Y-7.0472
X13.439Y-7.126
X13.439Y-7.2047
X13.439Y-7.2835
X13.439Y-7.3622
X13.439Y-7.4409
X13.44Y-12.2244
X13.44Y-12.3031
X13.44Y-12.3819
X13.44Y-12.4606
X13.44Y-12.5394
X13.44Y-12.6181
X13.44Y-12.6969
X13.44Y-12.7756
X13.44Y-12.8543
X13.44Y-12.9331
X13.44Y-13.0118
X13.44Y-13.0906
X13.44Y-13.1693
X13.44Y-13.248
X13.44Y-13.3268
X13.44Y-13.4055
X13.44Y-18.189
X13.44Y-18.2677
X13.44Y-18.3465
X13.44Y-18.4252
X13.44Y-18.5039
X13.44Y-18.5827
X13.44Y-18.6614
X13.44Y-18.7402
X13.44Y-18.8189
X13.44Y-18.8976
X13.44Y-18.9764
X13.44Y-19.0551
X13.44Y-19.1339
X13.44Y-19.2126
X13.44Y-19.2913
X13.44Y-19.3701
X13.4852Y-5.9596
X13.4862Y-11.9242
X13.4862Y-17.8888
X14.1339Y-5.9583
X14.1348Y-11.9228
X14.1348Y-17.8874
X14.1791Y-6.2598
X14.1791Y-6.3386
X14.1791Y-6.4173
X14.1791Y-6.4961
X14.1791Y-6.5748
X14.1791Y-6.6535
X14.1791Y-6.7323
X14.1791Y-6.811
X14.1791Y-6.8898
X14.1791Y-6.9685
X14.1791Y-7.0472
X14.1791Y-7.126
X14.1791Y-7.2047
X14.1791Y-7.2835
X14.1791Y-7.3622
X14.1791Y-7.4409
X14.1801Y-12.2244
X14.1801Y-12.3031
X14.1801Y-12.3819
X14.1801Y-12.4606
X14.1801Y-12.5394
X14.1801Y-12.6181
X14.1801Y-12.6969
X14.1801Y-12.7756
X14.1801Y-12.8543
X14.1801Y-12.9331
X14.1801Y-13.0118
X14.1801Y-13.0906
X14.1801Y-13.1693
X14.1801Y-13.248
X14.1801Y-13.3268
X14.1801Y-13.4055
X14.1801Y-18.189
X14.1801Y-18.2677
X14.1801Y-18.3465
X14.1801Y-18.4252
X14.1801Y-18.5039
X14.1801Y-18.5827
X14.1801Y-18.6614
X14.1801Y-18.7402
X14.1801Y-18.8189
X14.1801Y-18.8976
X14.1801Y-18.9764
X14.1801Y-19.0551
X14.1801Y-19.1339
X14.1801Y-19.2126
X14.1801Y-19.2913
X14.1801Y-19.3701
X14.1803Y-2.2831
X14.1803Y-2.3618
X14.1803Y-2.4406
X14.1803Y-2.5193
X14.1803Y-2.598
X14.1803Y-2.6768
X14.1803Y-2.7555
X14.1803Y-2.8343
X14.1803Y-2.913
X14.1803Y-2.9917
X14.1803Y-3.0705
X14.1803Y-3.1492
X14.1803Y-3.228
X14.1803Y-3.3067
X14.1803Y-3.3854
X14.1803Y-3.4642
X14.1813Y-8.2476
X14.1813Y-8.3264
X14.1813Y-8.4051
X14.1813Y-8.4839
X14.1813Y-8.5626
X14.1813Y-8.6413
X14.1813Y-8.7201
X14.1813Y-8.7988
X14.1813Y-8.8776
X14.1813Y-8.9563
X14.1813Y-9.035
X14.1813Y-9.1138
X14.1813Y-9.1925
X14.1813Y-9.2713
X14.1813Y-9.35
X14.1813Y-9.4287
X14.1813Y-14.2122
X14.1813Y-14.2909
X14.1813Y-14.3697
X14.1813Y-14.4484
X14.1813Y-14.5272
X14.1813Y-14.6059
X14.1813Y-14.6846
X14.1813Y-14.7634
X14.1813Y-14.8421
X14.1813Y-14.9209
X14.1813Y-14.9996
X14.1813Y-15.0783
X14.1813Y-15.1571
X14.1813Y-15.2358
X14.1813Y-15.3146
X14.1813Y-15.3933
X14.1894Y-4.2717
X14.1894Y-4.3504
X14.1894Y-4.4291
X14.1894Y-4.5079
X14.1894Y-4.5866
X14.1894Y-4.6654
X14.1894Y-4.7441
X14.1894Y-4.8228
X14.1894Y-4.9016
X14.1894Y-4.9803
X14.1894Y-5.0591
X14.1894Y-5.1378
X14.1894Y-5.2165
X14.1894Y-5.2953
X14.1894Y-5.374
X14.1894Y-5.4528
X14.1904Y-10.2362
X14.1904Y-10.315
X14.1904Y-10.3937
X14.1904Y-10.4724
X14.1904Y-10.5512
X14.1904Y-10.6299
X14.1904Y-10.7087
X14.1904Y-10.7874
X14.1904Y-10.8661
X14.1904Y-10.9449
X14.1904Y-11.0236
X14.1904Y-11.1024
X14.1904Y-11.1811
X14.1904Y-11.2598
X14.1904Y-11.3386
X14.1904Y-11.4173
X14.1904Y-16.2008
X14.1904Y-16.2795
X14.1904Y-16.3583
X14.1904Y-16.437
X14.1904Y-16.5157
X14.1904Y-16.5945
X14.1904Y-16.6732
X14.1904Y-16.752
X14.1904Y-16.8307
X14.1904Y-16.9094
X14.1904Y-16.9882
X14.1904Y-17.0669
X14.1904Y-17.1457
X14.1904Y-17.2244
X14.1904Y-17.3031
X14.1904Y-17.3819
X14.2374Y-6.0193
X14.2376Y-7.6344
X14.2382Y-3.6724
X14.2384Y-11.9839
X14.2384Y-17.9484
X14.2386Y-13.599
X14.2386Y-19.5636
X14.2392Y-9.637
X14.2392Y-15.6016
X14.3012Y-3.6071
X14.3012Y-7.5591
X14.3022Y-9.5717
X14.3022Y-13.5236
X14.3022Y-15.5362
X14.3022Y-19.4882
X14.763Y-3.5756
X14.764Y-9.5402
X14.764Y-15.5047
X14.7642Y-7.2508
X14.7646Y-2.4417
X14.7646Y-2.7252
X14.7646Y-3.0087
X14.7646Y-3.2921
X14.7646Y-5.9902
X14.7646Y-6.3374
X14.7646Y-6.6209
X14.7646Y-6.9043
X14.7646Y-7.1878
X14.765Y-3.6378
X14.765Y-3.7016
X14.765Y-3.985
X14.765Y-4.2685
X14.765Y-5.6445
X14.765Y-6.0539
X14.7652Y-13.2154
X14.7652Y-19.1799
X14.7656Y-8.4063
X14.7656Y-8.6898
X14.7656Y-8.9732
X14.7656Y-9.2567
X14.7656Y-11.9547
X14.7656Y-12.302
X14.7656Y-12.5854
X14.7656Y-12.8689
X14.7656Y-13.1524
X14.7656Y-14.3709
X14.7656Y-14.6543
X14.7656Y-14.9378
X14.7656Y-15.2213
X14.7656Y-17.9193
X14.7656Y-18.2665
X14.7656Y-18.55
X14.7656Y-18.8335
X14.7656Y-19.1169
X14.7659Y-9.6024
X14.7659Y-9.6661
X14.7659Y-9.9496
X14.7659Y-10.2331
X14.7659Y-11.6091
X14.7659Y-12.0185
X14.7659Y-15.5669
X14.7659Y-15.6307
X14.7659Y-15.9142
X14.7659Y-16.1976
X14.7659Y-17.5736
X14.7659Y-17.9831
X14.7681Y-5.9276
X14.7691Y-11.8921
X14.7691Y-17.8567
X14.8374Y-5.9274
X14.8384Y-11.8919
X14.8384Y-17.8565
X14.8406Y-3.7014
X14.8406Y-3.9848
X14.8406Y-4.2683
X14.8406Y-5.6443
X14.8406Y-6.0537
X14.8409Y-2.4415
X14.8409Y-2.725
X14.8409Y-3.0085
X14.8409Y-3.2919
X14.8409Y-6.3372
X14.8409Y-6.6207
X14.8409Y-6.9041
X14.8409Y-7.1876
X14.8415Y-9.6659
X14.8415Y-9.9494
X14.8415Y-10.2329
X14.8415Y-11.6089
X14.8415Y-12.0183
X14.8415Y-15.6305
X14.8415Y-15.914
X14.8415Y-16.1974
X14.8415Y-17.5734
X14.8415Y-17.9829
X14.8417Y-3.6398
X14.8419Y-8.4061
X14.8419Y-8.6896
X14.8419Y-8.973
X14.8419Y-9.2565
X14.8419Y-12.3018
X14.8419Y-12.5852
X14.8419Y-12.8687
X14.8419Y-13.1522
X14.8419Y-14.3707
X14.8419Y-14.6541
X14.8419Y-14.9376
X14.8419Y-15.2211
X14.8419Y-18.2663
X14.8419Y-18.5498
X14.8419Y-18.8333
X14.8419Y-19.1167
X14.8425Y-3.5754
X14.8427Y-9.6043
X14.8427Y-15.5689
X14.8435Y-9.54
X14.8435Y-15.5045
X14.8437Y-5.9921
X14.8441Y-7.2508
X14.8447Y-11.9567
X14.8447Y-17.9213
X14.8451Y-13.2154
X14.8451Y-19.1799
X15.3051Y-3.5925
X15.3051Y-7.5591
X15.3061Y-9.5571
X15.3061Y-13.5236
X15.3061Y-15.5217
X15.3061Y-19.4882
X15.3671Y-6.0226
X15.3681Y-11.9872
X15.3681Y-17.9518
X15.3687Y-7.6344
X15.3689Y-3.6559
X15.3697Y-13.599
X15.3697Y-19.5636
X15.3699Y-9.6205
X15.3699Y-15.585
X15.4164Y-4.2716
X15.4164Y-4.3504
X15.4164Y-4.4291
X15.4164Y-4.5078
X15.4164Y-4.5866
X15.4164Y-4.6653
X15.4164Y-4.7441
X15.4164Y-4.8228
X15.4164Y-4.9015
X15.4164Y-4.9803
X15.4164Y-5.059
X15.4164Y-5.1378
X15.4164Y-5.2165
X15.4164Y-5.2952
X15.4164Y-5.374
X15.4164Y-5.4527
X15.4174Y-10.2362
X15.4174Y-10.3149
X15.4174Y-10.3937
X15.4174Y-10.4724
X15.4174Y-10.5511
X15.4174Y-10.6299
X15.4174Y-10.7086
X15.4174Y-10.7874
X15.4174Y-10.8661
X15.4174Y-10.9449
X15.4174Y-11.0236
X15.4174Y-11.1023
X15.4174Y-11.1811
X15.4174Y-11.2598
X15.4174Y-11.3386
X15.4174Y-11.4173
X15.4174Y-16.2008
X15.4174Y-16.2795
X15.4174Y-16.3582
X15.4174Y-16.437
X15.4174Y-16.5157
X15.4174Y-16.5945
X15.4174Y-16.6732
X15.4174Y-16.7519
X15.4174Y-16.8307
X15.4174Y-16.9094
X15.4174Y-16.9882
X15.4174Y-17.0669
X15.4174Y-17.1456
X15.4174Y-17.2244
X15.4174Y-17.3031
X15.4174Y-17.3819
X15.4244Y-2.2831
X15.4244Y-2.3618
X15.4244Y-2.4406
X15.4244Y-2.5193
X15.4244Y-2.598
X15.4244Y-2.6768
X15.4244Y-2.7555
X15.4244Y-2.8343
X15.4244Y-2.913
X15.4244Y-2.9917
X15.4244Y-3.0705
X15.4244Y-3.1492
X15.4244Y-3.228
X15.4244Y-3.3067
X15.4244Y-3.3854
X15.4244Y-3.4642
X15.4254Y-8.2476
X15.4254Y-8.3264
X15.4254Y-8.4051
X15.4254Y-8.4839
X15.4254Y-8.5626
X15.4254Y-8.6413
X15.4254Y-8.7201
X15.4254Y-8.7988
X15.4254Y-8.8776
X15.4254Y-8.9563
X15.4254Y-9.035
X15.4254Y-9.1138
X15.4254Y-9.1925
X15.4254Y-9.2713
X15.4254Y-9.35
X15.4254Y-9.4287
X15.4254Y-14.2122
X15.4254Y-14.2909
X15.4254Y-14.3697
X15.4254Y-14.4484
X15.4254Y-14.5272
X15.4254Y-14.6059
X15.4254Y-14.6846
X15.4254Y-14.7634
X15.4254Y-14.8421
X15.4254Y-14.9209
X15.4254Y-14.9996
X15.4254Y-15.0783
X15.4254Y-15.1571
X15.4254Y-15.2358
X15.4254Y-15.3146
X15.4254Y-15.3933
X15.4272Y-6.2598
X15.4272Y-6.3386
X15.4272Y-6.4173
X15.4272Y-6.4961
X15.4272Y-6.5748
X15.4272Y-6.6535
X15.4272Y-6.7323
X15.4272Y-6.811
X15.4272Y-6.8898
X15.4272Y-6.9685
X15.4272Y-7.0472
X15.4272Y-7.126
X15.4272Y-7.2047
X15.4272Y-7.2835
X15.4272Y-7.3622
X15.4272Y-7.4409
X15.4281Y-12.2244
X15.4281Y-12.3031
X15.4281Y-12.3819
X15.4281Y-12.4606
X15.4281Y-12.5394
X15.4281Y-12.6181
X15.4281Y-12.6969
X15.4281Y-12.7756
X15.4281Y-12.8543
X15.4281Y-12.9331
X15.4281Y-13.0118
X15.4281Y-13.0906
X15.4281Y-13.1693
X15.4281Y-13.248
X15.4281Y-13.3268
X15.4281Y-13.4055
X15.4281Y-18.189
X15.4281Y-18.2677
X15.4281Y-18.3465
X15.4281Y-18.4252
X15.4281Y-18.5039
X15.4281Y-18.5827
X15.4281Y-18.6614
X15.4281Y-18.7402
X15.4281Y-18.8189
X15.4281Y-18.8976
X15.4281Y-18.9764
X15.4281Y-19.0551
X15.4281Y-19.1339
X15.4281Y-19.2126
X15.4281Y-19.2913
X15.4281Y-19.3701
X15.4734Y-5.9596
X15.4744Y-11.9242
X15.4744Y-17.8888
X16.122Y-5.9583
X16.123Y-11.9228
X16.123Y-17.8874
X16.1673Y-6.2598
X16.1673Y-6.3386
X16.1673Y-6.4173
X16.1673Y-6.4961
X16.1673Y-6.5748
X16.1673Y-6.6535
X16.1673Y-6.7323
X16.1673Y-6.811
X16.1673Y-6.8898
X16.1673Y-6.9685
X16.1673Y-7.0472
X16.1673Y-7.126
X16.1673Y-7.2047
X16.1673Y-7.2835
X16.1673Y-7.3622
X16.1673Y-7.4409
X16.1683Y-12.2244
X16.1683Y-12.3031
X16.1683Y-12.3819
X16.1683Y-12.4606
X16.1683Y-12.5394
X16.1683Y-12.6181
X16.1683Y-12.6969
X16.1683Y-12.7756
X16.1683Y-12.8543
X16.1683Y-12.9331
X16.1683Y-13.0118
X16.1683Y-13.0906
X16.1683Y-13.1693
X16.1683Y-13.248
X16.1683Y-13.3268
X16.1683Y-13.4055
X16.1683Y-18.189
X16.1683Y-18.2677
X16.1683Y-18.3465
X16.1683Y-18.4252
X16.1683Y-18.5039
X16.1683Y-18.5827
X16.1683Y-18.6614
X16.1683Y-18.7402
X16.1683Y-18.8189
X16.1683Y-18.8976
X16.1683Y-18.9764
X16.1683Y-19.0551
X16.1683Y-19.1339
X16.1683Y-19.2126
X16.1683Y-19.2913
X16.1683Y-19.3701
X16.1685Y-2.2831
X16.1685Y-2.3618
X16.1685Y-2.4406
X16.1685Y-2.5193
X16.1685Y-2.598
X16.1685Y-2.6768
X16.1685Y-2.7555
X16.1685Y-2.8343
X16.1685Y-2.913
X16.1685Y-2.9917
X16.1685Y-3.0705
X16.1685Y-3.1492
X16.1685Y-3.228
X16.1685Y-3.3067
X16.1685Y-3.3854
X16.1685Y-3.4642
X16.1695Y-8.2476
X16.1695Y-8.3264
X16.1695Y-8.4051
X16.1695Y-8.4839
X16.1695Y-8.5626
X16.1695Y-8.6413
X16.1695Y-8.7201
X16.1695Y-8.7988
X16.1695Y-8.8776
X16.1695Y-8.9563
X16.1695Y-9.035
X16.1695Y-9.1138
X16.1695Y-9.1925
X16.1695Y-9.2713
X16.1695Y-9.35
X16.1695Y-9.4287
X16.1695Y-14.2122
X16.1695Y-14.2909
X16.1695Y-14.3697
X16.1695Y-14.4484
X16.1695Y-14.5272
X16.1695Y-14.6059
X16.1695Y-14.6846
X16.1695Y-14.7634
X16.1695Y-14.8421
X16.1695Y-14.9209
X16.1695Y-14.9996
X16.1695Y-15.0783
X16.1695Y-15.1571
X16.1695Y-15.2358
X16.1695Y-15.3146
X16.1695Y-15.3933
X16.1776Y-4.2717
X16.1776Y-4.3504
X16.1776Y-4.4291
X16.1776Y-4.5079
X16.1776Y-4.5866
X16.1776Y-4.6654
X16.1776Y-4.7441
X16.1776Y-4.8228
X16.1776Y-4.9016
X16.1776Y-4.9803
X16.1776Y-5.0591
X16.1776Y-5.1378
X16.1776Y-5.2165
X16.1776Y-5.2953
X16.1776Y-5.374
X16.1776Y-5.4528
X16.1785Y-10.2362
X16.1785Y-10.315
X16.1785Y-10.3937
X16.1785Y-10.4724
X16.1785Y-10.5512
X16.1785Y-10.6299
X16.1785Y-10.7087
X16.1785Y-10.7874
X16.1785Y-10.8661
X16.1785Y-10.9449
X16.1785Y-11.0236
X16.1785Y-11.1024
X16.1785Y-11.1811
X16.1785Y-11.2598
X16.1785Y-11.3386
X16.1785Y-11.4173
X16.1785Y-16.2008
X16.1785Y-16.2795
X16.1785Y-16.3583
X16.1785Y-16.437
X16.1785Y-16.5157
X16.1785Y-16.5945
X16.1785Y-16.6732
X16.1785Y-16.752
X16.1785Y-16.8307
X16.1785Y-16.9094
X16.1785Y-16.9882
X16.1785Y-17.0669
X16.1785Y-17.1457
X16.1785Y-17.2244
X16.1785Y-17.3031
X16.1785Y-17.3819
X16.2256Y-6.0193
X16.2258Y-7.6344
X16.2264Y-3.6724
X16.2266Y-11.9839
X16.2266Y-17.9484
X16.2268Y-13.599
X16.2268Y-19.5636
X16.2274Y-9.637
X16.2274Y-15.6016
X16.2894Y-3.6071
X16.2894Y-7.5591
X16.2904Y-9.5717
X16.2904Y-13.5236
X16.2904Y-15.5362
X16.2904Y-19.4882
X16.7512Y-3.5756
X16.7522Y-9.5402
X16.7522Y-15.5047
X16.7524Y-7.2508
X16.7528Y-2.4417
X16.7528Y-2.7252
X16.7528Y-3.0087
X16.7528Y-3.2921
X16.7528Y-5.9902
X16.7528Y-6.3374
X16.7528Y-6.6209
X16.7528Y-6.9043
X16.7528Y-7.1878
X16.7531Y-3.6378
X16.7531Y-3.7016
X16.7531Y-3.985
X16.7531Y-4.2685
X16.7531Y-5.6445
X16.7531Y-6.0539
X16.7533Y-13.2154
X16.7533Y-19.1799
X16.7537Y-8.4063
X16.7537Y-8.6898
X16.7537Y-8.9732
X16.7537Y-9.2567
X16.7537Y-11.9547
X16.7537Y-12.302
X16.7537Y-12.5854
X16.7537Y-12.8689
X16.7537Y-13.1524
X16.7537Y-14.3709
X16.7537Y-14.6543
X16.7537Y-14.9378
X16.7537Y-15.2213
X16.7537Y-17.9193
X16.7537Y-18.2665
X16.7537Y-18.55
X16.7537Y-18.8335
X16.7537Y-19.1169
X16.7541Y-9.6024
X16.7541Y-9.6661
X16.7541Y-9.9496
X16.7541Y-10.2331
X16.7541Y-11.6091
X16.7541Y-12.0185
X16.7541Y-15.5669
X16.7541Y-15.6307
X16.7541Y-15.9142
X16.7541Y-16.1976
X16.7541Y-17.5736
X16.7541Y-17.9831
X16.7563Y-5.9276
X16.7573Y-11.8921
X16.7573Y-17.8567
X16.8256Y-5.9274
X16.8266Y-11.8919
X16.8266Y-17.8565
X16.8287Y-3.7014
X16.8287Y-3.9848
X16.8287Y-4.2683
X16.8287Y-5.6443
X16.8287Y-6.0537
X16.8291Y-2.4415
X16.8291Y-2.725
X16.8291Y-3.0085
X16.8291Y-3.2919
X16.8291Y-6.3372
X16.8291Y-6.6207
X16.8291Y-6.9041
X16.8291Y-7.1876
X16.8297Y-9.6659
X16.8297Y-9.9494
X16.8297Y-10.2329
X16.8297Y-11.6089
X16.8297Y-12.0183
X16.8297Y-15.6305
X16.8297Y-15.914
X16.8297Y-16.1974
X16.8297Y-17.5734
X16.8297Y-17.9829
X16.8299Y-3.6398
X16.8301Y-8.4061
X16.8301Y-8.6896
X16.8301Y-8.973
X16.8301Y-9.2565
X16.8301Y-12.3018
X16.8301Y-12.5852
X16.8301Y-12.8687
X16.8301Y-13.1522
X16.8301Y-14.3707
X16.8301Y-14.6541
X16.8301Y-14.9376
X16.8301Y-15.2211
X16.8301Y-18.2663
X16.8301Y-18.5498
X16.8301Y-18.8333
X16.8301Y-19.1167
X16.8307Y-3.5754
X16.8309Y-9.6043
X16.8309Y-15.5689
X16.8317Y-9.54
X16.8317Y-15.5045
X16.8319Y-5.9921
X16.8323Y-7.2508
X16.8329Y-11.9567
X16.8329Y-17.9213
X16.8333Y-13.2154
X16.8333Y-19.1799
X17.2933Y-3.5925
X17.2933Y-7.5591
X17.2943Y-9.5571
X17.2943Y-13.5236
X17.2943Y-15.5217
X17.2943Y-19.4882
X17.3553Y-6.0226
X17.3563Y-11.9872
X17.3563Y-17.9518
X17.3569Y-7.6344
X17.3571Y-3.6559
X17.3579Y-13.599
X17.3579Y-19.5636
X17.3581Y-9.6205
X17.3581Y-15.585
X17.4046Y-4.2716
X17.4046Y-4.3504
X17.4046Y-4.4291
X17.4046Y-4.5078
X17.4046Y-4.5866
X17.4046Y-4.6653
X17.4046Y-4.7441
X17.4046Y-4.8228
X17.4046Y-4.9015
X17.4046Y-4.9803
X17.4046Y-5.059
X17.4046Y-5.1378
X17.4046Y-5.2165
X17.4046Y-5.2952
X17.4046Y-5.374
X17.4046Y-5.4527
X17.4056Y-10.2362
X17.4056Y-10.3149
X17.4056Y-10.3937
X17.4056Y-10.4724
X17.4056Y-10.5511
X17.4056Y-10.6299
X17.4056Y-10.7086
X17.4056Y-10.7874
X17.4056Y-10.8661
X17.4056Y-10.9449
X17.4056Y-11.0236
X17.4056Y-11.1023
X17.4056Y-11.1811
X17.4056Y-11.2598
X17.4056Y-11.3386
X17.4056Y-11.4173
X17.4056Y-16.2008
X17.4056Y-16.2795
X17.4056Y-16.3582
X17.4056Y-16.437
X17.4056Y-16.5157
X17.4056Y-16.5945
X17.4056Y-16.6732
X17.4056Y-16.7519
X17.4056Y-16.8307
X17.4056Y-16.9094
X17.4056Y-16.9882
X17.4056Y-17.0669
X17.4056Y-17.1456
X17.4056Y-17.2244
X17.4056Y-17.3031
X17.4056Y-17.3819
X17.4126Y-2.2831
X17.4126Y-2.3618
X17.4126Y-2.4406
X17.4126Y-2.5193
X17.4126Y-2.598
X17.4126Y-2.6768
X17.4126Y-2.7555
X17.4126Y-2.8343
X17.4126Y-2.913
X17.4126Y-2.9917
X17.4126Y-3.0705
X17.4126Y-3.1492
X17.4126Y-3.228
X17.4126Y-3.3067
X17.4126Y-3.3854
X17.4126Y-3.4642
X17.4136Y-8.2476
X17.4136Y-8.3264
X17.4136Y-8.4051
X17.4136Y-8.4839
X17.4136Y-8.5626
X17.4136Y-8.6413
X17.4136Y-8.7201
X17.4136Y-8.7988
X17.4136Y-8.8776
X17.4136Y-8.9563
X17.4136Y-9.035
X17.4136Y-9.1138
X17.4136Y-9.1925
X17.4136Y-9.2713
X17.4136Y-9.35
X17.4136Y-9.4287
X17.4136Y-14.2122
X17.4136Y-14.2909
X17.4136Y-14.3697
X17.4136Y-14.4484
X17.4136Y-14.5272
X17.4136Y-14.6059
X17.4136Y-14.6846
X17.4136Y-14.7634
X17.4136Y-14.8421
X17.4136Y-14.9209
X17.4136Y-14.9996
X17.4136Y-15.0783
X17.4136Y-15.1571
X17.4136Y-15.2358
X17.4136Y-15.3146
X17.4136Y-15.3933
X17.4154Y-6.2598
X17.4154Y-6.3386
X17.4154Y-6.4173
X17.4154Y-6.4961
X17.4154Y-6.5748
X17.4154Y-6.6535
X17.4154Y-6.7323
X17.4154Y-6.811
X17.4154Y-6.8898
X17.4154Y-6.9685
X17.4154Y-7.0472
X17.4154Y-7.126
X17.4154Y-7.2047
X17.4154Y-7.2835
X17.4154Y-7.3622
X17.4154Y-7.4409
X17.4163Y-12.2244
X17.4163Y-12.3031
X17.4163Y-12.3819
X17.4163Y-12.4606
X17.4163Y-12.5394
X17.4163Y-12.6181
X17.4163Y-12.6969
X17.4163Y-12.7756
X17.4163Y-12.8543
X17.4163Y-12.9331
X17.4163Y-13.0118
X17.4163Y-13.0906
X17.4163Y-13.1693
X17.4163Y-13.248
X17.4163Y-13.3268
X17.4163Y-13.4055
X17.4163Y-18.189
X17.4163Y-18.2677
X17.4163Y-18.3465
X17.4163Y-18.4252
X17.4163Y-18.5039
X17.4163Y-18.5827
X17.4163Y-18.6614
X17.4163Y-18.7402
X17.4163Y-18.8189
X17.4163Y-18.8976
X17.4163Y-18.9764
X17.4163Y-19.0551
X17.4163Y-19.1339
X17.4163Y-19.2126
X17.4163Y-19.2913
X17.4163Y-19.3701
X17.4616Y-5.9596
X17.4626Y-11.9242
X17.4626Y-17.8888
X18.1102Y-5.9583
X18.1112Y-11.9228
X18.1112Y-17.8874
X18.1555Y-6.2598
X18.1555Y-6.3386
X18.1555Y-6.4173
X18.1555Y-6.4961
X18.1555Y-6.5748
X18.1555Y-6.6535
X18.1555Y-6.7323
X18.1555Y-6.811
X18.1555Y-6.8898
X18.1555Y-6.9685
X18.1555Y-7.0472
X18.1555Y-7.126
X18.1555Y-7.2047
X18.1555Y-7.2835
X18.1555Y-7.3622
X18.1555Y-7.4409
X18.1565Y-12.2244
X18.1565Y-12.3031
X18.1565Y-12.3819
X18.1565Y-12.4606
X18.1565Y-12.5394
X18.1565Y-12.6181
X18.1565Y-12.6969
X18.1565Y-12.7756
X18.1565Y-12.8543
X18.1565Y-12.9331
X18.1565Y-13.0118
X18.1565Y-13.0906
X18.1565Y-13.1693
X18.1565Y-13.248
X18.1565Y-13.3268
X18.1565Y-13.4055
X18.1565Y-18.189
X18.1565Y-18.2677
X18.1565Y-18.3465
X18.1565Y-18.4252
X18.1565Y-18.5039
X18.1565Y-18.5827
X18.1565Y-18.6614
X18.1565Y-18.7402
X18.1565Y-18.8189
X18.1565Y-18.8976
X18.1565Y-18.9764
X18.1565Y-19.0551
X18.1565Y-19.1339
X18.1565Y-19.2126
X18.1565Y-19.2913
X18.1565Y-19.3701
X18.1567Y-2.2831
X18.1567Y-2.3618
X18.1567Y-2.4406
X18.1567Y-2.5193
X18.1567Y-2.598
X18.1567Y-2.6768
X18.1567Y-2.7555
X18.1567Y-2.8343
X18.1567Y-2.913
X18.1567Y-2.9917
X18.1567Y-3.0705
X18.1567Y-3.1492
X18.1567Y-3.228
X18.1567Y-3.3067
X18.1567Y-3.3854
X18.1567Y-3.4642
X18.1577Y-8.2476
X18.1577Y-8.3264
X18.1577Y-8.4051
X18.1577Y-8.4839
X18.1577Y-8.5626
X18.1577Y-8.6413
X18.1577Y-8.7201
X18.1577Y-8.7988
X18.1577Y-8.8776
X18.1577Y-8.9563
X18.1577Y-9.035
X18.1577Y-9.1138
X18.1577Y-9.1925
X18.1577Y-9.2713
X18.1577Y-9.35
X18.1577Y-9.4287
X18.1577Y-14.2122
X18.1577Y-14.2909
X18.1577Y-14.3697
X18.1577Y-14.4484
X18.1577Y-14.5272
X18.1577Y-14.6059
X18.1577Y-14.6846
X18.1577Y-14.7634
X18.1577Y-14.8421
X18.1577Y-14.9209
X18.1577Y-14.9996
X18.1577Y-15.0783
X18.1577Y-15.1571
X18.1577Y-15.2358
X18.1577Y-15.3146
X18.1577Y-15.3933
X18.1657Y-4.2717
X18.1657Y-4.3504
X18.1657Y-4.4291
X18.1657Y-4.5079
X18.1657Y-4.5866
X18.1657Y-4.6654
X18.1657Y-4.7441
X18.1657Y-4.8228
X18.1657Y-4.9016
X18.1657Y-4.9803
X18.1657Y-5.0591
X18.1657Y-5.1378
X18.1657Y-5.2165
X18.1657Y-5.2953
X18.1657Y-5.374
X18.1657Y-5.4528
X18.1667Y-10.2362
X18.1667Y-10.315
X18.1667Y-10.3937
X18.1667Y-10.4724
X18.1667Y-10.5512
X18.1667Y-10.6299
X18.1667Y-10.7087
X18.1667Y-10.7874
X18.1667Y-10.8661
X18.1667Y-10.9449
X18.1667Y-11.0236
X18.1667Y-11.1024
X18.1667Y-11.1811
X18.1667Y-11.2598
X18.1667Y-11.3386
X18.1667Y-11.4173
X18.1667Y-16.2008
X18.1667Y-16.2795
X18.1667Y-16.3583
X18.1667Y-16.437
X18.1667Y-16.5157
X18.1667Y-16.5945
X18.1667Y-16.6732
X18.1667Y-16.752
X18.1667Y-16.8307
X18.1667Y-16.9094
X18.1667Y-16.9882
X18.1667Y-17.0669
X18.1667Y-17.1457
X18.1667Y-17.2244
X18.1667Y-17.3031
X18.1667Y-17.3819
X18.2138Y-6.0193
X18.214Y-7.6344
X18.2146Y-3.6724
X18.2148Y-11.9839
X18.2148Y-17.9484
X18.215Y-13.599
X18.215Y-19.5636
X18.2156Y-9.637
X18.2156Y-15.6016
X18.2776Y-3.6071
X18.2776Y-7.5591
X18.2785Y-9.5717
X18.2785Y-13.5236
X18.2785Y-15.5362
X18.2785Y-19.4882
X18.7394Y-3.5756
X18.7404Y-9.5402
X18.7404Y-15.5047
X18.7406Y-7.2508
X18.7409Y-2.4417
X18.7409Y-2.7252
X18.7409Y-3.0087
X18.7409Y-3.2921
X18.7409Y-5.9902
X18.7409Y-6.3374
X18.7409Y-6.6209
X18.7409Y-6.9043
X18.7409Y-7.1878
X18.7413Y-3.6378
X18.7413Y-3.7016
X18.7413Y-3.985
X18.7413Y-4.2685
X18.7413Y-5.6445
X18.7413Y-6.0539
X18.7415Y-13.2154
X18.7415Y-19.1799
X18.7419Y-8.4063
X18.7419Y-8.6898
X18.7419Y-8.9732
X18.7419Y-9.2567
X18.7419Y-11.9547
X18.7419Y-12.302
X18.7419Y-12.5854
X18.7419Y-12.8689
X18.7419Y-13.1524
X18.7419Y-14.3709
X18.7419Y-14.6543
X18.7419Y-14.9378
X18.7419Y-15.2213
X18.7419Y-17.9193
X18.7419Y-18.2665
X18.7419Y-18.55
X18.7419Y-18.8335
X18.7419Y-19.1169
X18.7423Y-9.6024
X18.7423Y-9.6661
X18.7423Y-9.9496
X18.7423Y-10.2331
X18.7423Y-11.6091
X18.7423Y-12.0185
X18.7423Y-15.5669
X18.7423Y-15.6307
X18.7423Y-15.9142
X18.7423Y-16.1976
X18.7423Y-17.5736
X18.7423Y-17.9831
X18.7445Y-5.9276
X18.7455Y-11.8921
X18.7455Y-17.8567
X18.8138Y-5.9274
X18.8148Y-11.8919
X18.8148Y-17.8565
X18.8169Y-3.7014
X18.8169Y-3.9848
X18.8169Y-4.2683
X18.8169Y-5.6443
X18.8169Y-6.0537
X18.8173Y-2.4415
X18.8173Y-2.725
X18.8173Y-3.0085
X18.8173Y-3.2919
X18.8173Y-6.3372
X18.8173Y-6.6207
X18.8173Y-6.9041
X18.8173Y-7.1876
X18.8179Y-9.6659
X18.8179Y-9.9494
X18.8179Y-10.2329
X18.8179Y-11.6089
X18.8179Y-12.0183
X18.8179Y-15.6305
X18.8179Y-15.914
X18.8179Y-16.1974
X18.8179Y-17.5734
X18.8179Y-17.9829
X18.8181Y-3.6398
X18.8183Y-8.4061
X18.8183Y-8.6896
X18.8183Y-8.973
X18.8183Y-9.2565
X18.8183Y-12.3018
X18.8183Y-12.5852
X18.8183Y-12.8687
X18.8183Y-13.1522
X18.8183Y-14.3707
X18.8183Y-14.6541
X18.8183Y-14.9376
X18.8183Y-15.2211
X18.8183Y-18.2663
X18.8183Y-18.5498
X18.8183Y-18.8333
X18.8183Y-19.1167
X18.8189Y-3.5754
X18.8191Y-9.6043
X18.8191Y-15.5689
X18.8199Y-9.54
X18.8199Y-15.5045
X18.8201Y-5.9921
X18.8205Y-7.2508
X18.8211Y-11.9567
X18.8211Y-17.9213
X18.8215Y-13.2154
X18.8215Y-19.1799
X19.2815Y-3.5925
X19.2815Y-7.5591
X19.2825Y-9.5571
X19.2825Y-13.5236
X19.2825Y-15.5217
X19.2825Y-19.4882
X19.3435Y-6.0226
X19.3445Y-11.9872
X19.3445Y-17.9518
X19.3451Y-7.6344
X19.3453Y-3.6559
X19.346Y-13.599
X19.346Y-19.5636
X19.3463Y-9.6205
X19.3463Y-15.585
X19.3928Y-4.2716
X19.3928Y-4.3504
X19.3928Y-4.4291
X19.3928Y-4.5078
X19.3928Y-4.5866
X19.3928Y-4.6653
X19.3928Y-4.7441
X19.3928Y-4.8228
X19.3928Y-4.9015
X19.3928Y-4.9803
X19.3928Y-5.059
X19.3928Y-5.1378
X19.3928Y-5.2165
X19.3928Y-5.2952
X19.3928Y-5.374
X19.3928Y-5.4527
X19.3938Y-10.2362
X19.3938Y-10.3149
X19.3938Y-10.3937
X19.3938Y-10.4724
X19.3938Y-10.5511
X19.3938Y-10.6299
X19.3938Y-10.7086
X19.3938Y-10.7874
X19.3938Y-10.8661
X19.3938Y-10.9449
X19.3938Y-11.0236
X19.3938Y-11.1023
X19.3938Y-11.1811
X19.3938Y-11.2598
X19.3938Y-11.3386
X19.3938Y-11.4173
X19.3938Y-16.2008
X19.3938Y-16.2795
X19.3938Y-16.3582
X19.3938Y-16.437
X19.3938Y-16.5157
X19.3938Y-16.5945
X19.3938Y-16.6732
X19.3938Y-16.7519
X19.3938Y-16.8307
X19.3938Y-16.9094
X19.3938Y-16.9882
X19.3938Y-17.0669
X19.3938Y-17.1456
X19.3938Y-17.2244
X19.3938Y-17.3031
X19.3938Y-17.3819
X19.4008Y-2.2831
X19.4008Y-2.3618
X19.4008Y-2.4406
X19.4008Y-2.5193
X19.4008Y-2.598
X19.4008Y-2.6768
X19.4008Y-2.7555
X19.4008Y-2.8343
X19.4008Y-2.913
X19.4008Y-2.9917
X19.4008Y-3.0705
X19.4008Y-3.1492
X19.4008Y-3.228
X19.4008Y-3.3067
X19.4008Y-3.3854
X19.4008Y-3.4642
X19.4018Y-8.2476
X19.4018Y-8.3264
X19.4018Y-8.4051
X19.4018Y-8.4839
X19.4018Y-8.5626
X19.4018Y-8.6413
X19.4018Y-8.7201
X19.4018Y-8.7988
X19.4018Y-8.8776
X19.4018Y-8.9563
X19.4018Y-9.035
X19.4018Y-9.1138
X19.4018Y-9.1925
X19.4018Y-9.2713
X19.4018Y-9.35
X19.4018Y-9.4287
X19.4018Y-14.2122
X19.4018Y-14.2909
X19.4018Y-14.3697
X19.4018Y-14.4484
X19.4018Y-14.5272
X19.4018Y-14.6059
X19.4018Y-14.6846
X19.4018Y-14.7634
X19.4018Y-14.8421
X19.4018Y-14.9209
X19.4018Y-14.9996
X19.4018Y-15.0783
X19.4018Y-15.1571
X19.4018Y-15.2358
X19.4018Y-15.3146
X19.4018Y-15.3933
X19.4035Y-6.2598
X19.4035Y-6.3386
X19.4035Y-6.4173
X19.4035Y-6.4961
X19.4035Y-6.5748
X19.4035Y-6.6535
X19.4035Y-6.7323
X19.4035Y-6.811
X19.4035Y-6.8898
X19.4035Y-6.9685
X19.4035Y-7.0472
X19.4035Y-7.126
X19.4035Y-7.2047
X19.4035Y-7.2835
X19.4035Y-7.3622
X19.4035Y-7.4409
X19.4045Y-12.2244
X19.4045Y-12.3031
X19.4045Y-12.3819
X19.4045Y-12.4606
X19.4045Y-12.5394
X19.4045Y-12.6181
X19.4045Y-12.6969
X19.4045Y-12.7756
X19.4045Y-12.8543
X19.4045Y-12.9331
X19.4045Y-13.0118
X19.4045Y-13.0906
X19.4045Y-13.1693
X19.4045Y-13.248
X19.4045Y-13.3268
X19.4045Y-13.4055
X19.4045Y-18.189
X19.4045Y-18.2677
X19.4045Y-18.3465
X19.4045Y-18.4252
X19.4045Y-18.5039
X19.4045Y-18.5827
X19.4045Y-18.6614
X19.4045Y-18.7402
X19.4045Y-18.8189
X19.4045Y-18.8976
X19.4045Y-18.9764
X19.4045Y-19.0551
X19.4045Y-19.1339
X19.4045Y-19.2126
X19.4045Y-19.2913
X19.4045Y-19.3701
X19.4498Y-5.9596
X19.4508Y-11.9242
X19.4508Y-17.8888
T3
X2.815Y-2.3711
X2.815Y-4.3711
X2.815Y-5.3533
X2.815Y-7.3533
X2.815Y-8.3356
X2.815Y-10.3356
X2.815Y-11.3179
X2.815Y-13.3179
X2.815Y-14.3002
X2.815Y-16.3002
X2.815Y-17.2825
X2.815Y-19.2825
X4.8031Y-2.3711
X4.8031Y-4.3711
X4.8031Y-5.3533
X4.8031Y-7.3533
X4.8031Y-8.3356
X4.8031Y-10.3356
X4.8031Y-11.3179
X4.8031Y-13.3179
X4.8031Y-14.3002
X4.8031Y-16.3002
X4.8031Y-17.2825
X4.8031Y-19.2825
X6.7913Y-2.3711
X6.7913Y-4.3711
X6.7913Y-5.3533
X6.7913Y-7.3533
X6.7913Y-8.3356
X6.7913Y-10.3356
X6.7913Y-11.3179
X6.7913Y-13.3179
X6.7913Y-14.3002
X6.7913Y-16.3002
X6.7913Y-17.2825
X6.7913Y-19.2825
X8.7795Y-2.3711
X8.7795Y-4.3711
X8.7795Y-5.3533
X8.7795Y-7.3533
X8.7795Y-8.3356
X8.7795Y-10.3356
X8.7795Y-11.3179
X8.7795Y-13.3179
X8.7795Y-14.3002
X8.7795Y-16.3002
X8.7795Y-17.2825
X8.7795Y-19.2825
X10.7677Y-2.3711
X10.7677Y-4.3711
X10.7677Y-5.3533
X10.7677Y-7.3533
X10.7677Y-8.3356
X10.7677Y-10.3356
X10.7677Y-11.3179
X10.7677Y-13.3179
X10.7677Y-14.3002
X10.7677Y-16.3002
X10.7677Y-17.2825
X10.7677Y-19.2825
X12.7559Y-2.3711
X12.7559Y-4.3711
X12.7559Y-5.3533
X12.7559Y-7.3533
X12.7559Y-8.3356
X12.7559Y-10.3356
X12.7559Y-11.3179
X12.7559Y-13.3179
X12.7559Y-14.3002
X12.7559Y-16.3002
X12.7559Y-17.2825
X12.7559Y-19.2825
X14.7441Y-2.3711
X14.7441Y-4.3711
X14.7441Y-5.3533
X14.7441Y-7.3533
X14.7441Y-8.3356
X14.7441Y-10.3356
X14.7441Y-11.3179
X14.7441Y-13.3179
X14.7441Y-14.3002
X14.7441Y-16.3002
X14.7441Y-17.2825
X14.7441Y-19.2825
X16.7323Y-2.3711
X16.7323Y-4.3711
X16.7323Y-5.3533
X16.7323Y-7.3533
X16.7323Y-8.3356
X16.7323Y-10.3356
X16.7323Y-11.3179
X16.7323Y-13.3179
X16.7323Y-14.3002
X16.7323Y-16.3002
X16.7323Y-17.2825
X16.7323Y-19.2825
X18.7205Y-2.3711
X18.7205Y-4.3711
X18.7205Y-5.3533
X18.7205Y-7.3533
X18.7205Y-8.3356
X18.7205Y-10.3356
X18.7205Y-11.3179
X18.7205Y-13.3179
X18.7205Y-14.3002
X18.7205Y-16.3002
X18.7205Y-17.2825
X18.7205Y-19.2825
T0
M30
