M48
; DRILL file {KiCad 5.1.10-88a1d61d58~88~ubuntu18.04.1} date Wed Jun  9 13:35:41 2021
; FORMAT={-:-/ absolute / inch / decimal}
; #@! TF.CreationDate,2021-06-09T13:35:41-04:00
; #@! TF.GenerationSoftware,Kicad,Pcbnew,5.1.10-88a1d61d58~88~ubuntu18.04.1
; #@! TF.FileFunction,NonPlated,1,4,NPTH
FMAT,2
INCH
T1C0.0571
%
G90
G05
T1
X1.4882Y-1.3868
X1.4882Y-3.3868
X1.4882Y-4.3691
X1.4882Y-6.3691
X1.4882Y-7.3514
X1.4882Y-9.3514
X1.4882Y-10.3337
X1.4882Y-12.3337
X1.4882Y-13.3159
X1.4882Y-15.3159
X1.4882Y-16.2982
X1.4882Y-18.2982
X3.4764Y-1.3868
X3.4764Y-3.3868
X3.4764Y-4.3691
X3.4764Y-6.3691
X3.4764Y-7.3514
X3.4764Y-9.3514
X3.4764Y-10.3337
X3.4764Y-12.3337
X3.4764Y-13.3159
X3.4764Y-15.3159
X3.4764Y-16.2982
X3.4764Y-18.2982
X5.4646Y-1.3868
X5.4646Y-3.3868
X5.4646Y-4.3691
X5.4646Y-6.3691
X5.4646Y-7.3514
X5.4646Y-9.3514
X5.4646Y-10.3337
X5.4646Y-12.3337
X5.4646Y-13.3159
X5.4646Y-15.3159
X5.4646Y-16.2982
X5.4646Y-18.2982
X7.4527Y-1.3868
X7.4527Y-3.3868
X7.4527Y-4.3691
X7.4527Y-6.3691
X7.4527Y-7.3514
X7.4527Y-9.3514
X7.4527Y-10.3337
X7.4527Y-12.3337
X7.4527Y-13.3159
X7.4527Y-15.3159
X7.4527Y-16.2982
X7.4527Y-18.2982
X9.4409Y-1.3868
X9.4409Y-3.3868
X9.4409Y-4.3691
X9.4409Y-6.3691
X9.4409Y-7.3514
X9.4409Y-9.3514
X9.4409Y-10.3337
X9.4409Y-12.3337
X9.4409Y-13.3159
X9.4409Y-15.3159
X9.4409Y-16.2982
X9.4409Y-18.2982
X11.4291Y-1.3868
X11.4291Y-3.3868
X11.4291Y-4.3691
X11.4291Y-6.3691
X11.4291Y-7.3514
X11.4291Y-9.3514
X11.4291Y-10.3337
X11.4291Y-12.3337
X11.4291Y-13.3159
X11.4291Y-15.3159
X11.4291Y-16.2982
X11.4291Y-18.2982
X13.4173Y-1.3868
X13.4173Y-3.3868
X13.4173Y-4.3691
X13.4173Y-6.3691
X13.4173Y-7.3514
X13.4173Y-9.3514
X13.4173Y-10.3337
X13.4173Y-12.3337
X13.4173Y-13.3159
X13.4173Y-15.3159
X13.4173Y-16.2982
X13.4173Y-18.2982
X15.4055Y-1.3868
X15.4055Y-3.3868
X15.4055Y-4.3691
X15.4055Y-6.3691
X15.4055Y-7.3514
X15.4055Y-9.3514
X15.4055Y-10.3337
X15.4055Y-12.3337
X15.4055Y-13.3159
X15.4055Y-15.3159
X15.4055Y-16.2982
X15.4055Y-18.2982
X17.3937Y-1.3868
X17.3937Y-3.3868
X17.3937Y-4.3691
X17.3937Y-6.3691
X17.3937Y-7.3514
X17.3937Y-9.3514
X17.3937Y-10.3337
X17.3937Y-12.3337
X17.3937Y-13.3159
X17.3937Y-15.3159
X17.3937Y-16.2982
X17.3937Y-18.2982
T0
M30
