M48
; DRILL file {KiCad (5.1.9-0-10_14)} date Wednesday, June 02, 2021 at 05:00:21 PM
; FORMAT={-:-/ absolute / inch / decimal}
; #@! TF.CreationDate,2021-06-02T17:00:21-04:00
; #@! TF.GenerationSoftware,Kicad,Pcbnew,(5.1.9-0-10_14)
FMAT,2
INCH
T1C0.0120
T2C0.0157
T3C0.2087
T4C0.0571
%
G90
G05
T1
X1.1543Y-2.4614
X1.1553Y-8.426
X1.1553Y-14.3906
X1.1559Y-1.2799
X1.1565Y-7.2441
X1.1569Y-13.2091
X1.1579Y-1.3193
X1.1579Y-5.2169
X1.1579Y-5.2563
X1.1579Y-5.335
X1.1579Y-5.3744
X1.1579Y-5.4531
X1.1579Y-5.4925
X1.1579Y-5.5713
X1.1579Y-5.6106
X1.1579Y-5.6894
X1.1579Y-5.7287
X1.1579Y-5.8075
X1.1579Y-5.8469
X1.1579Y-5.9256
X1.1579Y-5.965
X1.1579Y-6.0437
X1.1579Y-6.0831
X1.1579Y-6.1618
X1.1579Y-6.2012
X1.1579Y-6.2799
X1.1579Y-6.3193
X1.1579Y-6.398
X1.1579Y-6.4374
X1.1583Y-1.3984
X1.1583Y-1.4378
X1.1583Y-1.5165
X1.1583Y-1.5559
X1.1583Y-1.6346
X1.1583Y-1.674
X1.1583Y-1.7528
X1.1583Y-1.7921
X1.1583Y-1.8709
X1.1583Y-1.9102
X1.1583Y-1.989
X1.1583Y-2.0283
X1.1583Y-2.1071
X1.1583Y-2.1465
X1.1583Y-2.2252
X1.1583Y-2.2646
X1.1583Y-2.3433
X1.1583Y-2.3827
X1.1588Y-7.2839
X1.1588Y-11.1815
X1.1588Y-11.2209
X1.1588Y-11.2996
X1.1588Y-11.339
X1.1588Y-11.4177
X1.1588Y-11.4571
X1.1588Y-11.5358
X1.1588Y-11.5752
X1.1588Y-11.6539
X1.1588Y-11.6933
X1.1588Y-11.772
X1.1588Y-11.8114
X1.1588Y-11.8902
X1.1588Y-11.9295
X1.1588Y-12.0083
X1.1588Y-12.0476
X1.1588Y-12.1264
X1.1588Y-12.1657
X1.1588Y-12.2445
X1.1588Y-12.2839
X1.1588Y-12.3626
X1.1588Y-12.402
X1.1588Y-13.2484
X1.1588Y-17.1461
X1.1588Y-17.1854
X1.1588Y-17.2642
X1.1588Y-17.3035
X1.1588Y-17.3823
X1.1588Y-17.4217
X1.1588Y-17.5004
X1.1588Y-17.5398
X1.1588Y-17.6185
X1.1588Y-17.6579
X1.1588Y-17.7366
X1.1588Y-17.776
X1.1588Y-17.8547
X1.1588Y-17.8941
X1.1588Y-17.9728
X1.1588Y-18.0122
X1.1588Y-18.0909
X1.1588Y-18.1303
X1.1588Y-18.2091
X1.1588Y-18.2484
X1.1588Y-18.3272
X1.1588Y-18.3665
X1.1592Y-7.363
X1.1592Y-7.4024
X1.1592Y-7.4811
X1.1592Y-7.5205
X1.1592Y-7.5992
X1.1592Y-7.6386
X1.1592Y-7.7173
X1.1592Y-7.7567
X1.1592Y-7.8354
X1.1592Y-7.8748
X1.1592Y-7.9535
X1.1592Y-7.9929
X1.1592Y-8.0717
X1.1592Y-8.111
X1.1592Y-8.1898
X1.1592Y-8.2291
X1.1592Y-8.3079
X1.1592Y-8.3472
X1.1592Y-13.3276
X1.1592Y-13.3669
X1.1592Y-13.4457
X1.1592Y-13.485
X1.1592Y-13.5638
X1.1592Y-13.6031
X1.1592Y-13.6819
X1.1592Y-13.7213
X1.1592Y-13.8
X1.1592Y-13.8394
X1.1592Y-13.9181
X1.1592Y-13.9575
X1.1592Y-14.0362
X1.1592Y-14.0756
X1.1592Y-14.1543
X1.1592Y-14.1937
X1.1592Y-14.2724
X1.1592Y-14.3118
X1.1646Y-3.2291
X1.1646Y-3.3079
X1.1646Y-3.3472
X1.1646Y-3.426
X1.1646Y-3.4654
X1.1646Y-3.5441
X1.1646Y-3.5835
X1.1646Y-3.6622
X1.1646Y-3.7016
X1.1646Y-3.7803
X1.1646Y-3.8197
X1.1646Y-3.8984
X1.1646Y-3.9378
X1.1646Y-4.0165
X1.1646Y-4.0559
X1.1646Y-4.1346
X1.1646Y-4.174
X1.1646Y-4.2528
X1.1646Y-4.2921
X1.1646Y-4.3709
X1.1646Y-4.4102
X1.1655Y-9.1937
X1.1655Y-9.2724
X1.1655Y-9.3118
X1.1655Y-9.3906
X1.1655Y-9.4299
X1.1655Y-9.5087
X1.1655Y-9.548
X1.1655Y-9.6268
X1.1655Y-9.6661
X1.1655Y-9.7449
X1.1655Y-9.7843
X1.1655Y-9.863
X1.1655Y-9.9024
X1.1655Y-9.9811
X1.1655Y-10.0205
X1.1655Y-10.0992
X1.1655Y-10.1386
X1.1655Y-10.2173
X1.1655Y-10.2567
X1.1655Y-10.3354
X1.1655Y-10.3748
X1.1655Y-15.1583
X1.1655Y-15.237
X1.1655Y-15.2764
X1.1655Y-15.3551
X1.1655Y-15.3945
X1.1655Y-15.4732
X1.1655Y-15.5126
X1.1655Y-15.5913
X1.1655Y-15.6307
X1.1655Y-15.7094
X1.1655Y-15.7488
X1.1655Y-15.8276
X1.1655Y-15.8669
X1.1655Y-15.9457
X1.1655Y-15.985
X1.1655Y-16.0638
X1.1655Y-16.1031
X1.1655Y-16.1819
X1.1655Y-16.2213
X1.1655Y-16.3
X1.1655Y-16.3394
X1.4004Y-1.489
X1.4004Y-1.5205
X1.4004Y-1.5835
X1.4004Y-1.615
X1.4004Y-1.678
X1.4004Y-1.7094
X1.4004Y-1.8039
X1.4004Y-1.8354
X1.4004Y-1.8984
X1.4004Y-1.9299
X1.4004Y-1.9929
X1.4004Y-2.0559
X1.4004Y-2.1189
X1.4004Y-2.1504
X1.4004Y-2.2134
X1.4004Y-2.2449
X1.4004Y-2.3394
X1.4004Y-2.3709
X1.4004Y-2.4339
X1.4004Y-2.4654
X1.4004Y-2.5283
X1.4004Y-2.5598
X1.4004Y-5.1012
X1.4004Y-5.1642
X1.4004Y-5.1957
X1.4004Y-5.2587
X1.4004Y-5.2902
X1.4004Y-5.3846
X1.4004Y-5.4161
X1.4004Y-5.4791
X1.4004Y-5.5106
X1.4004Y-5.5736
X1.4004Y-5.6051
X1.4004Y-5.6996
X1.4004Y-5.7311
X1.4004Y-5.7941
X1.4004Y-5.8256
X1.4004Y-5.8886
X1.4004Y-5.9516
X1.4004Y-6.0146
X1.4004Y-6.0461
X1.4004Y-6.1091
X1.4004Y-6.1406
X1.4008Y-2.7803
X1.4008Y-2.8118
X1.4008Y-2.8748
X1.4008Y-2.9063
X1.4008Y-2.9693
X1.4008Y-3.0323
X1.4008Y-3.0953
X1.4008Y-3.1268
X1.4008Y-3.1898
X1.4008Y-3.2213
X1.4008Y-3.3157
X1.4008Y-4.4398
X1.4008Y-4.5028
X1.4008Y-4.5343
X1.4008Y-4.5972
X1.4008Y-4.6287
X1.4008Y-4.7232
X1.4008Y-4.7547
X1.4008Y-4.8177
X1.4008Y-4.8492
X1.4008Y-4.9122
X1.4014Y-7.4535
X1.4014Y-7.485
X1.4014Y-7.548
X1.4014Y-7.5795
X1.4014Y-7.6425
X1.4014Y-7.674
X1.4014Y-7.7685
X1.4014Y-7.8
X1.4014Y-7.863
X1.4014Y-7.8945
X1.4014Y-7.9575
X1.4014Y-8.0205
X1.4014Y-8.0835
X1.4014Y-8.115
X1.4014Y-8.178
X1.4014Y-8.2094
X1.4014Y-8.3039
X1.4014Y-8.3354
X1.4014Y-8.3984
X1.4014Y-8.4299
X1.4014Y-8.4929
X1.4014Y-8.5244
X1.4014Y-11.0657
X1.4014Y-11.1287
X1.4014Y-11.1602
X1.4014Y-11.2232
X1.4014Y-11.2547
X1.4014Y-11.3492
X1.4014Y-11.3807
X1.4014Y-11.4437
X1.4014Y-11.4752
X1.4014Y-11.5382
X1.4014Y-11.5697
X1.4014Y-11.6642
X1.4014Y-11.6957
X1.4014Y-11.7587
X1.4014Y-11.7902
X1.4014Y-11.8531
X1.4014Y-11.9161
X1.4014Y-11.9791
X1.4014Y-12.0106
X1.4014Y-12.0736
X1.4014Y-12.1051
X1.4014Y-13.4181
X1.4014Y-13.4496
X1.4014Y-13.5126
X1.4014Y-13.5441
X1.4014Y-13.6071
X1.4014Y-13.6386
X1.4014Y-13.7331
X1.4014Y-13.7646
X1.4014Y-13.8276
X1.4014Y-13.8591
X1.4014Y-13.922
X1.4014Y-13.985
X1.4014Y-14.048
X1.4014Y-14.0795
X1.4014Y-14.1425
X1.4014Y-14.174
X1.4014Y-14.2685
X1.4014Y-14.3
X1.4014Y-14.363
X1.4014Y-14.3945
X1.4014Y-14.4575
X1.4014Y-14.489
X1.4014Y-17.0303
X1.4014Y-17.0933
X1.4014Y-17.1248
X1.4014Y-17.1878
X1.4014Y-17.2193
X1.4014Y-17.3138
X1.4014Y-17.3453
X1.4014Y-17.4083
X1.4014Y-17.4398
X1.4014Y-17.5028
X1.4014Y-17.5343
X1.4014Y-17.6287
X1.4014Y-17.6602
X1.4014Y-17.7232
X1.4014Y-17.7547
X1.4014Y-17.8177
X1.4014Y-17.8807
X1.4014Y-17.9437
X1.4014Y-17.9752
X1.4014Y-18.0382
X1.4014Y-18.0697
X1.4018Y-8.7449
X1.4018Y-8.7764
X1.4018Y-8.8394
X1.4018Y-8.8709
X1.4018Y-8.9339
X1.4018Y-8.9969
X1.4018Y-9.0598
X1.4018Y-9.0913
X1.4018Y-9.1543
X1.4018Y-9.1858
X1.4018Y-9.2803
X1.4018Y-10.4043
X1.4018Y-10.4673
X1.4018Y-10.4988
X1.4018Y-10.5618
X1.4018Y-10.5933
X1.4018Y-10.6878
X1.4018Y-10.7193
X1.4018Y-10.7823
X1.4018Y-10.8138
X1.4018Y-10.8768
X1.4018Y-14.7094
X1.4018Y-14.7409
X1.4018Y-14.8039
X1.4018Y-14.8354
X1.4018Y-14.8984
X1.4018Y-14.9614
X1.4018Y-15.0244
X1.4018Y-15.0559
X1.4018Y-15.1189
X1.4018Y-15.1504
X1.4018Y-15.2449
X1.4018Y-16.3689
X1.4018Y-16.4319
X1.4018Y-16.4634
X1.4018Y-16.5264
X1.4018Y-16.5579
X1.4018Y-16.6524
X1.4018Y-16.6839
X1.4018Y-16.7469
X1.4018Y-16.7783
X1.4018Y-16.8413
X1.6929Y-2.7801
X1.6929Y-2.8116
X1.6929Y-2.8746
X1.6929Y-2.9061
X1.6929Y-2.9691
X1.6929Y-3.0321
X1.6929Y-3.0951
X1.6929Y-3.1266
X1.6929Y-3.1896
X1.6929Y-3.2211
X1.6929Y-3.3156
X1.6929Y-4.4396
X1.6929Y-4.5026
X1.6929Y-4.5341
X1.6929Y-4.597
X1.6929Y-4.6285
X1.6929Y-4.723
X1.6929Y-4.7545
X1.6929Y-4.8175
X1.6929Y-4.849
X1.6929Y-4.912
X1.6933Y-1.4888
X1.6933Y-1.5203
X1.6933Y-1.5833
X1.6933Y-1.6148
X1.6933Y-1.6778
X1.6933Y-1.7093
X1.6933Y-1.8037
X1.6933Y-1.8352
X1.6933Y-1.8982
X1.6933Y-1.9297
X1.6933Y-1.9927
X1.6933Y-2.0557
X1.6933Y-2.1187
X1.6933Y-2.1502
X1.6933Y-2.2132
X1.6933Y-2.2447
X1.6933Y-2.3392
X1.6933Y-2.3707
X1.6933Y-2.4337
X1.6933Y-2.4652
X1.6933Y-2.5281
X1.6933Y-2.5596
X1.6933Y-5.101
X1.6933Y-5.164
X1.6933Y-5.1955
X1.6933Y-5.2585
X1.6933Y-5.29
X1.6933Y-5.3844
X1.6933Y-5.4159
X1.6933Y-5.4789
X1.6933Y-5.5104
X1.6933Y-5.5734
X1.6933Y-5.6049
X1.6933Y-5.6994
X1.6933Y-5.7309
X1.6933Y-5.7939
X1.6933Y-5.8254
X1.6933Y-5.8884
X1.6933Y-5.9514
X1.6933Y-6.0144
X1.6933Y-6.0459
X1.6933Y-6.1089
X1.6933Y-6.1404
X1.6939Y-8.7447
X1.6939Y-8.7762
X1.6939Y-8.8392
X1.6939Y-8.8707
X1.6939Y-8.9337
X1.6939Y-8.9967
X1.6939Y-9.0596
X1.6939Y-9.0911
X1.6939Y-9.1541
X1.6939Y-9.1856
X1.6939Y-9.2801
X1.6939Y-10.4041
X1.6939Y-10.4671
X1.6939Y-10.4986
X1.6939Y-10.5616
X1.6939Y-10.5931
X1.6939Y-10.6876
X1.6939Y-10.7191
X1.6939Y-10.7821
X1.6939Y-10.8136
X1.6939Y-10.8766
X1.6939Y-14.7093
X1.6939Y-14.7407
X1.6939Y-14.8037
X1.6939Y-14.8352
X1.6939Y-14.8982
X1.6939Y-14.9612
X1.6939Y-15.0242
X1.6939Y-15.0557
X1.6939Y-15.1187
X1.6939Y-15.1502
X1.6939Y-15.2447
X1.6939Y-16.3687
X1.6939Y-16.4317
X1.6939Y-16.4632
X1.6939Y-16.5262
X1.6939Y-16.5577
X1.6939Y-16.6522
X1.6939Y-16.6837
X1.6939Y-16.7467
X1.6939Y-16.7781
X1.6939Y-16.8411
X1.6943Y-7.4533
X1.6943Y-7.4848
X1.6943Y-7.5478
X1.6943Y-7.5793
X1.6943Y-7.6423
X1.6943Y-7.6738
X1.6943Y-7.7683
X1.6943Y-7.7998
X1.6943Y-7.8628
X1.6943Y-7.8943
X1.6943Y-7.9573
X1.6943Y-8.0203
X1.6943Y-8.0833
X1.6943Y-8.1148
X1.6943Y-8.1778
X1.6943Y-8.2093
X1.6943Y-8.3037
X1.6943Y-8.3352
X1.6943Y-8.3982
X1.6943Y-8.4297
X1.6943Y-8.4927
X1.6943Y-8.5242
X1.6943Y-11.0656
X1.6943Y-11.1285
X1.6943Y-11.16
X1.6943Y-11.223
X1.6943Y-11.2545
X1.6943Y-11.349
X1.6943Y-11.3805
X1.6943Y-11.4435
X1.6943Y-11.475
X1.6943Y-11.538
X1.6943Y-11.5695
X1.6943Y-11.664
X1.6943Y-11.6955
X1.6943Y-11.7585
X1.6943Y-11.79
X1.6943Y-11.853
X1.6943Y-11.9159
X1.6943Y-11.9789
X1.6943Y-12.0104
X1.6943Y-12.0734
X1.6943Y-12.1049
X1.6943Y-13.4179
X1.6943Y-13.4494
X1.6943Y-13.5124
X1.6943Y-13.5439
X1.6943Y-13.6069
X1.6943Y-13.6384
X1.6943Y-13.7329
X1.6943Y-13.7644
X1.6943Y-13.8274
X1.6943Y-13.8589
X1.6943Y-13.9219
X1.6943Y-13.9848
X1.6943Y-14.0478
X1.6943Y-14.0793
X1.6943Y-14.1423
X1.6943Y-14.1738
X1.6943Y-14.2683
X1.6943Y-14.2998
X1.6943Y-14.3628
X1.6943Y-14.3943
X1.6943Y-14.4573
X1.6943Y-14.4888
X1.6943Y-17.0301
X1.6943Y-17.0931
X1.6943Y-17.1246
X1.6943Y-17.1876
X1.6943Y-17.2191
X1.6943Y-17.3136
X1.6943Y-17.3451
X1.6943Y-17.4081
X1.6943Y-17.4396
X1.6943Y-17.5026
X1.6943Y-17.5341
X1.6943Y-17.6285
X1.6943Y-17.66
X1.6943Y-17.723
X1.6943Y-17.7545
X1.6943Y-17.8175
X1.6943Y-17.8805
X1.6943Y-17.9435
X1.6943Y-17.975
X1.6943Y-18.038
X1.6943Y-18.0695
X1.9291Y-3.2289
X1.9291Y-3.3077
X1.9291Y-3.347
X1.9291Y-3.4258
X1.9291Y-3.4652
X1.9291Y-3.5439
X1.9291Y-3.5833
X1.9291Y-3.662
X1.9291Y-3.7014
X1.9291Y-3.7801
X1.9291Y-3.8195
X1.9291Y-3.8982
X1.9291Y-3.9376
X1.9291Y-4.0163
X1.9291Y-4.0557
X1.9291Y-4.1344
X1.9291Y-4.1738
X1.9291Y-4.2526
X1.9291Y-4.2919
X1.9291Y-4.3707
X1.9291Y-4.41
X1.9301Y-9.1935
X1.9301Y-9.2722
X1.9301Y-9.3116
X1.9301Y-9.3904
X1.9301Y-9.4297
X1.9301Y-9.5085
X1.9301Y-9.5478
X1.9301Y-9.6266
X1.9301Y-9.6659
X1.9301Y-9.7447
X1.9301Y-9.7841
X1.9301Y-9.8628
X1.9301Y-9.9022
X1.9301Y-9.9809
X1.9301Y-10.0203
X1.9301Y-10.099
X1.9301Y-10.1384
X1.9301Y-10.2171
X1.9301Y-10.2565
X1.9301Y-10.3352
X1.9301Y-10.3746
X1.9301Y-15.1581
X1.9301Y-15.2368
X1.9301Y-15.2762
X1.9301Y-15.3549
X1.9301Y-15.3943
X1.9301Y-15.473
X1.9301Y-15.5124
X1.9301Y-15.5911
X1.9301Y-15.6305
X1.9301Y-15.7093
X1.9301Y-15.7486
X1.9301Y-15.8274
X1.9301Y-15.8667
X1.9301Y-15.9455
X1.9301Y-15.9848
X1.9301Y-16.0636
X1.9301Y-16.103
X1.9301Y-16.1817
X1.9301Y-16.2211
X1.9301Y-16.2998
X1.9301Y-16.3392
X1.9354Y-1.3982
X1.9354Y-1.4376
X1.9354Y-1.5163
X1.9354Y-1.5557
X1.9354Y-1.6344
X1.9354Y-1.6738
X1.9354Y-1.7526
X1.9354Y-1.7919
X1.9354Y-1.8707
X1.9354Y-1.91
X1.9354Y-1.9888
X1.9354Y-2.0281
X1.9354Y-2.1069
X1.9354Y-2.1463
X1.9354Y-2.225
X1.9354Y-2.2644
X1.9354Y-2.3431
X1.9354Y-2.3825
X1.9358Y-1.3191
X1.9358Y-5.2167
X1.9358Y-5.2561
X1.9358Y-5.3348
X1.9358Y-5.3742
X1.9358Y-5.453
X1.9358Y-5.4923
X1.9358Y-5.5711
X1.9358Y-5.6104
X1.9358Y-5.6892
X1.9358Y-5.7285
X1.9358Y-5.8073
X1.9358Y-5.8467
X1.9358Y-5.9254
X1.9358Y-5.9648
X1.9358Y-6.0435
X1.9358Y-6.0829
X1.9358Y-6.1616
X1.9358Y-6.201
X1.9358Y-6.2797
X1.9358Y-6.3191
X1.9358Y-6.3978
X1.9358Y-6.4372
X1.9364Y-7.3628
X1.9364Y-7.4022
X1.9364Y-7.4809
X1.9364Y-7.5203
X1.9364Y-7.599
X1.9364Y-7.6384
X1.9364Y-7.7171
X1.9364Y-7.7565
X1.9364Y-7.8352
X1.9364Y-7.8746
X1.9364Y-7.9533
X1.9364Y-7.9927
X1.9364Y-8.0715
X1.9364Y-8.1108
X1.9364Y-8.1896
X1.9364Y-8.2289
X1.9364Y-8.3077
X1.9364Y-8.347
X1.9364Y-13.3274
X1.9364Y-13.3667
X1.9364Y-13.4455
X1.9364Y-13.4848
X1.9364Y-13.5636
X1.9364Y-13.603
X1.9364Y-13.6817
X1.9364Y-13.7211
X1.9364Y-13.7998
X1.9364Y-13.8392
X1.9364Y-13.9179
X1.9364Y-13.9573
X1.9364Y-14.036
X1.9364Y-14.0754
X1.9364Y-14.1541
X1.9364Y-14.1935
X1.9364Y-14.2722
X1.9364Y-14.3116
X1.9368Y-7.2837
X1.9368Y-11.1813
X1.9368Y-11.2207
X1.9368Y-11.2994
X1.9368Y-11.3388
X1.9368Y-11.4175
X1.9368Y-11.4569
X1.9368Y-11.5356
X1.9368Y-11.575
X1.9368Y-11.6537
X1.9368Y-11.6931
X1.9368Y-11.7719
X1.9368Y-11.8112
X1.9368Y-11.89
X1.9368Y-11.9293
X1.9368Y-12.0081
X1.9368Y-12.0474
X1.9368Y-12.1262
X1.9368Y-12.1656
X1.9368Y-12.2443
X1.9368Y-12.2837
X1.9368Y-12.3624
X1.9368Y-12.4018
X1.9368Y-13.2482
X1.9368Y-17.1459
X1.9368Y-17.1852
X1.9368Y-17.264
X1.9368Y-17.3033
X1.9368Y-17.3821
X1.9368Y-17.4215
X1.9368Y-17.5002
X1.9368Y-17.5396
X1.9368Y-17.6183
X1.9368Y-17.6577
X1.9368Y-17.7364
X1.9368Y-17.7758
X1.9368Y-17.8545
X1.9368Y-17.8939
X1.9368Y-17.9726
X1.9368Y-18.012
X1.9368Y-18.0907
X1.9368Y-18.1301
X1.9368Y-18.2089
X1.9368Y-18.2482
X1.9368Y-18.327
X1.9368Y-18.3663
X1.9378Y-1.2797
X1.9388Y-7.2443
X1.9388Y-13.2089
X1.9394Y-2.4612
X1.9403Y-8.4258
X1.9403Y-14.3904
X3.1425Y-2.4614
X3.1435Y-8.426
X3.1435Y-14.3906
X3.1441Y-1.2799
X3.1447Y-7.2441
X3.1451Y-13.2091
X3.1461Y-1.3193
X3.1461Y-5.2169
X3.1461Y-5.2563
X3.1461Y-5.335
X3.1461Y-5.3744
X3.1461Y-5.4531
X3.1461Y-5.4925
X3.1461Y-5.5713
X3.1461Y-5.6106
X3.1461Y-5.6894
X3.1461Y-5.7287
X3.1461Y-5.8075
X3.1461Y-5.8469
X3.1461Y-5.9256
X3.1461Y-5.965
X3.1461Y-6.0437
X3.1461Y-6.0831
X3.1461Y-6.1618
X3.1461Y-6.2012
X3.1461Y-6.2799
X3.1461Y-6.3193
X3.1461Y-6.398
X3.1461Y-6.4374
X3.1464Y-1.3984
X3.1464Y-1.4378
X3.1464Y-1.5165
X3.1464Y-1.5559
X3.1464Y-1.6346
X3.1464Y-1.674
X3.1464Y-1.7528
X3.1464Y-1.7921
X3.1464Y-1.8709
X3.1464Y-1.9102
X3.1464Y-1.989
X3.1464Y-2.0283
X3.1464Y-2.1071
X3.1464Y-2.1465
X3.1464Y-2.2252
X3.1464Y-2.2646
X3.1464Y-2.3433
X3.1464Y-2.3827
X3.147Y-7.2839
X3.147Y-11.1815
X3.147Y-11.2209
X3.147Y-11.2996
X3.147Y-11.339
X3.147Y-11.4177
X3.147Y-11.4571
X3.147Y-11.5358
X3.147Y-11.5752
X3.147Y-11.6539
X3.147Y-11.6933
X3.147Y-11.772
X3.147Y-11.8114
X3.147Y-11.8902
X3.147Y-11.9295
X3.147Y-12.0083
X3.147Y-12.0476
X3.147Y-12.1264
X3.147Y-12.1657
X3.147Y-12.2445
X3.147Y-12.2839
X3.147Y-12.3626
X3.147Y-12.402
X3.147Y-13.2484
X3.147Y-17.1461
X3.147Y-17.1854
X3.147Y-17.2642
X3.147Y-17.3035
X3.147Y-17.3823
X3.147Y-17.4217
X3.147Y-17.5004
X3.147Y-17.5398
X3.147Y-17.6185
X3.147Y-17.6579
X3.147Y-17.7366
X3.147Y-17.776
X3.147Y-17.8547
X3.147Y-17.8941
X3.147Y-17.9728
X3.147Y-18.0122
X3.147Y-18.0909
X3.147Y-18.1303
X3.147Y-18.2091
X3.147Y-18.2484
X3.147Y-18.3272
X3.147Y-18.3665
X3.1474Y-7.363
X3.1474Y-7.4024
X3.1474Y-7.4811
X3.1474Y-7.5205
X3.1474Y-7.5992
X3.1474Y-7.6386
X3.1474Y-7.7173
X3.1474Y-7.7567
X3.1474Y-7.8354
X3.1474Y-7.8748
X3.1474Y-7.9535
X3.1474Y-7.9929
X3.1474Y-8.0717
X3.1474Y-8.111
X3.1474Y-8.1898
X3.1474Y-8.2291
X3.1474Y-8.3079
X3.1474Y-8.3472
X3.1474Y-13.3276
X3.1474Y-13.3669
X3.1474Y-13.4457
X3.1474Y-13.485
X3.1474Y-13.5638
X3.1474Y-13.6031
X3.1474Y-13.6819
X3.1474Y-13.7213
X3.1474Y-13.8
X3.1474Y-13.8394
X3.1474Y-13.9181
X3.1474Y-13.9575
X3.1474Y-14.0362
X3.1474Y-14.0756
X3.1474Y-14.1543
X3.1474Y-14.1937
X3.1474Y-14.2724
X3.1474Y-14.3118
X3.1527Y-3.2291
X3.1527Y-3.3079
X3.1527Y-3.3472
X3.1527Y-3.426
X3.1527Y-3.4654
X3.1527Y-3.5441
X3.1527Y-3.5835
X3.1527Y-3.6622
X3.1527Y-3.7016
X3.1527Y-3.7803
X3.1527Y-3.8197
X3.1527Y-3.8984
X3.1527Y-3.9378
X3.1527Y-4.0165
X3.1527Y-4.0559
X3.1527Y-4.1346
X3.1527Y-4.174
X3.1527Y-4.2528
X3.1527Y-4.2921
X3.1527Y-4.3709
X3.1527Y-4.4102
X3.1537Y-9.1937
X3.1537Y-9.2724
X3.1537Y-9.3118
X3.1537Y-9.3906
X3.1537Y-9.4299
X3.1537Y-9.5087
X3.1537Y-9.548
X3.1537Y-9.6268
X3.1537Y-9.6661
X3.1537Y-9.7449
X3.1537Y-9.7843
X3.1537Y-9.863
X3.1537Y-9.9024
X3.1537Y-9.9811
X3.1537Y-10.0205
X3.1537Y-10.0992
X3.1537Y-10.1386
X3.1537Y-10.2173
X3.1537Y-10.2567
X3.1537Y-10.3354
X3.1537Y-10.3748
X3.1537Y-15.1583
X3.1537Y-15.237
X3.1537Y-15.2764
X3.1537Y-15.3551
X3.1537Y-15.3945
X3.1537Y-15.4732
X3.1537Y-15.5126
X3.1537Y-15.5913
X3.1537Y-15.6307
X3.1537Y-15.7094
X3.1537Y-15.7488
X3.1537Y-15.8276
X3.1537Y-15.8669
X3.1537Y-15.9457
X3.1537Y-15.985
X3.1537Y-16.0638
X3.1537Y-16.1031
X3.1537Y-16.1819
X3.1537Y-16.2213
X3.1537Y-16.3
X3.1537Y-16.3394
X3.3886Y-1.489
X3.3886Y-1.5205
X3.3886Y-1.5835
X3.3886Y-1.615
X3.3886Y-1.678
X3.3886Y-1.7094
X3.3886Y-1.8039
X3.3886Y-1.8354
X3.3886Y-1.8984
X3.3886Y-1.9299
X3.3886Y-1.9929
X3.3886Y-2.0559
X3.3886Y-2.1189
X3.3886Y-2.1504
X3.3886Y-2.2134
X3.3886Y-2.2449
X3.3886Y-2.3394
X3.3886Y-2.3709
X3.3886Y-2.4339
X3.3886Y-2.4654
X3.3886Y-2.5283
X3.3886Y-2.5598
X3.3886Y-5.1012
X3.3886Y-5.1642
X3.3886Y-5.1957
X3.3886Y-5.2587
X3.3886Y-5.2902
X3.3886Y-5.3846
X3.3886Y-5.4161
X3.3886Y-5.4791
X3.3886Y-5.5106
X3.3886Y-5.5736
X3.3886Y-5.6051
X3.3886Y-5.6996
X3.3886Y-5.7311
X3.3886Y-5.7941
X3.3886Y-5.8256
X3.3886Y-5.8886
X3.3886Y-5.9516
X3.3886Y-6.0146
X3.3886Y-6.0461
X3.3886Y-6.1091
X3.3886Y-6.1406
X3.389Y-2.7803
X3.389Y-2.8118
X3.389Y-2.8748
X3.389Y-2.9063
X3.389Y-2.9693
X3.389Y-3.0323
X3.389Y-3.0953
X3.389Y-3.1268
X3.389Y-3.1898
X3.389Y-3.2213
X3.389Y-3.3157
X3.389Y-4.4398
X3.389Y-4.5028
X3.389Y-4.5343
X3.389Y-4.5972
X3.389Y-4.6287
X3.389Y-4.7232
X3.389Y-4.7547
X3.389Y-4.8177
X3.389Y-4.8492
X3.389Y-4.9122
X3.3896Y-7.4535
X3.3896Y-7.485
X3.3896Y-7.548
X3.3896Y-7.5795
X3.3896Y-7.6425
X3.3896Y-7.674
X3.3896Y-7.7685
X3.3896Y-7.8
X3.3896Y-7.863
X3.3896Y-7.8945
X3.3896Y-7.9575
X3.3896Y-8.0205
X3.3896Y-8.0835
X3.3896Y-8.115
X3.3896Y-8.178
X3.3896Y-8.2094
X3.3896Y-8.3039
X3.3896Y-8.3354
X3.3896Y-8.3984
X3.3896Y-8.4299
X3.3896Y-8.4929
X3.3896Y-8.5244
X3.3896Y-11.0657
X3.3896Y-11.1287
X3.3896Y-11.1602
X3.3896Y-11.2232
X3.3896Y-11.2547
X3.3896Y-11.3492
X3.3896Y-11.3807
X3.3896Y-11.4437
X3.3896Y-11.4752
X3.3896Y-11.5382
X3.3896Y-11.5697
X3.3896Y-11.6642
X3.3896Y-11.6957
X3.3896Y-11.7587
X3.3896Y-11.7902
X3.3896Y-11.8531
X3.3896Y-11.9161
X3.3896Y-11.9791
X3.3896Y-12.0106
X3.3896Y-12.0736
X3.3896Y-12.1051
X3.3896Y-13.4181
X3.3896Y-13.4496
X3.3896Y-13.5126
X3.3896Y-13.5441
X3.3896Y-13.6071
X3.3896Y-13.6386
X3.3896Y-13.7331
X3.3896Y-13.7646
X3.3896Y-13.8276
X3.3896Y-13.8591
X3.3896Y-13.922
X3.3896Y-13.985
X3.3896Y-14.048
X3.3896Y-14.0795
X3.3896Y-14.1425
X3.3896Y-14.174
X3.3896Y-14.2685
X3.3896Y-14.3
X3.3896Y-14.363
X3.3896Y-14.3945
X3.3896Y-14.4575
X3.3896Y-14.489
X3.3896Y-17.0303
X3.3896Y-17.0933
X3.3896Y-17.1248
X3.3896Y-17.1878
X3.3896Y-17.2193
X3.3896Y-17.3138
X3.3896Y-17.3453
X3.3896Y-17.4083
X3.3896Y-17.4398
X3.3896Y-17.5028
X3.3896Y-17.5343
X3.3896Y-17.6287
X3.3896Y-17.6602
X3.3896Y-17.7232
X3.3896Y-17.7547
X3.3896Y-17.8177
X3.3896Y-17.8807
X3.3896Y-17.9437
X3.3896Y-17.9752
X3.3896Y-18.0382
X3.3896Y-18.0697
X3.3899Y-8.7449
X3.3899Y-8.7764
X3.3899Y-8.8394
X3.3899Y-8.8709
X3.3899Y-8.9339
X3.3899Y-8.9969
X3.3899Y-9.0598
X3.3899Y-9.0913
X3.3899Y-9.1543
X3.3899Y-9.1858
X3.3899Y-9.2803
X3.3899Y-10.4043
X3.3899Y-10.4673
X3.3899Y-10.4988
X3.3899Y-10.5618
X3.3899Y-10.5933
X3.3899Y-10.6878
X3.3899Y-10.7193
X3.3899Y-10.7823
X3.3899Y-10.8138
X3.3899Y-10.8768
X3.3899Y-14.7094
X3.3899Y-14.7409
X3.3899Y-14.8039
X3.3899Y-14.8354
X3.3899Y-14.8984
X3.3899Y-14.9614
X3.3899Y-15.0244
X3.3899Y-15.0559
X3.3899Y-15.1189
X3.3899Y-15.1504
X3.3899Y-15.2449
X3.3899Y-16.3689
X3.3899Y-16.4319
X3.3899Y-16.4634
X3.3899Y-16.5264
X3.3899Y-16.5579
X3.3899Y-16.6524
X3.3899Y-16.6839
X3.3899Y-16.7469
X3.3899Y-16.7783
X3.3899Y-16.8413
X3.6811Y-2.7801
X3.6811Y-2.8116
X3.6811Y-2.8746
X3.6811Y-2.9061
X3.6811Y-2.9691
X3.6811Y-3.0321
X3.6811Y-3.0951
X3.6811Y-3.1266
X3.6811Y-3.1896
X3.6811Y-3.2211
X3.6811Y-3.3156
X3.6811Y-4.4396
X3.6811Y-4.5026
X3.6811Y-4.5341
X3.6811Y-4.597
X3.6811Y-4.6285
X3.6811Y-4.723
X3.6811Y-4.7545
X3.6811Y-4.8175
X3.6811Y-4.849
X3.6811Y-4.912
X3.6815Y-1.4888
X3.6815Y-1.5203
X3.6815Y-1.5833
X3.6815Y-1.6148
X3.6815Y-1.6778
X3.6815Y-1.7093
X3.6815Y-1.8037
X3.6815Y-1.8352
X3.6815Y-1.8982
X3.6815Y-1.9297
X3.6815Y-1.9927
X3.6815Y-2.0557
X3.6815Y-2.1187
X3.6815Y-2.1502
X3.6815Y-2.2132
X3.6815Y-2.2447
X3.6815Y-2.3392
X3.6815Y-2.3707
X3.6815Y-2.4337
X3.6815Y-2.4652
X3.6815Y-2.5281
X3.6815Y-2.5596
X3.6815Y-5.101
X3.6815Y-5.164
X3.6815Y-5.1955
X3.6815Y-5.2585
X3.6815Y-5.29
X3.6815Y-5.3844
X3.6815Y-5.4159
X3.6815Y-5.4789
X3.6815Y-5.5104
X3.6815Y-5.5734
X3.6815Y-5.6049
X3.6815Y-5.6994
X3.6815Y-5.7309
X3.6815Y-5.7939
X3.6815Y-5.8254
X3.6815Y-5.8884
X3.6815Y-5.9514
X3.6815Y-6.0144
X3.6815Y-6.0459
X3.6815Y-6.1089
X3.6815Y-6.1404
X3.6821Y-8.7447
X3.6821Y-8.7762
X3.6821Y-8.8392
X3.6821Y-8.8707
X3.6821Y-8.9337
X3.6821Y-8.9967
X3.6821Y-9.0596
X3.6821Y-9.0911
X3.6821Y-9.1541
X3.6821Y-9.1856
X3.6821Y-9.2801
X3.6821Y-10.4041
X3.6821Y-10.4671
X3.6821Y-10.4986
X3.6821Y-10.5616
X3.6821Y-10.5931
X3.6821Y-10.6876
X3.6821Y-10.7191
X3.6821Y-10.7821
X3.6821Y-10.8136
X3.6821Y-10.8766
X3.6821Y-14.7093
X3.6821Y-14.7407
X3.6821Y-14.8037
X3.6821Y-14.8352
X3.6821Y-14.8982
X3.6821Y-14.9612
X3.6821Y-15.0242
X3.6821Y-15.0557
X3.6821Y-15.1187
X3.6821Y-15.1502
X3.6821Y-15.2447
X3.6821Y-16.3687
X3.6821Y-16.4317
X3.6821Y-16.4632
X3.6821Y-16.5262
X3.6821Y-16.5577
X3.6821Y-16.6522
X3.6821Y-16.6837
X3.6821Y-16.7467
X3.6821Y-16.7781
X3.6821Y-16.8411
X3.6825Y-7.4533
X3.6825Y-7.4848
X3.6825Y-7.5478
X3.6825Y-7.5793
X3.6825Y-7.6423
X3.6825Y-7.6738
X3.6825Y-7.7683
X3.6825Y-7.7998
X3.6825Y-7.8628
X3.6825Y-7.8943
X3.6825Y-7.9573
X3.6825Y-8.0203
X3.6825Y-8.0833
X3.6825Y-8.1148
X3.6825Y-8.1778
X3.6825Y-8.2093
X3.6825Y-8.3037
X3.6825Y-8.3352
X3.6825Y-8.3982
X3.6825Y-8.4297
X3.6825Y-8.4927
X3.6825Y-8.5242
X3.6825Y-11.0656
X3.6825Y-11.1285
X3.6825Y-11.16
X3.6825Y-11.223
X3.6825Y-11.2545
X3.6825Y-11.349
X3.6825Y-11.3805
X3.6825Y-11.4435
X3.6825Y-11.475
X3.6825Y-11.538
X3.6825Y-11.5695
X3.6825Y-11.664
X3.6825Y-11.6955
X3.6825Y-11.7585
X3.6825Y-11.79
X3.6825Y-11.853
X3.6825Y-11.9159
X3.6825Y-11.9789
X3.6825Y-12.0104
X3.6825Y-12.0734
X3.6825Y-12.1049
X3.6825Y-13.4179
X3.6825Y-13.4494
X3.6825Y-13.5124
X3.6825Y-13.5439
X3.6825Y-13.6069
X3.6825Y-13.6384
X3.6825Y-13.7329
X3.6825Y-13.7644
X3.6825Y-13.8274
X3.6825Y-13.8589
X3.6825Y-13.9219
X3.6825Y-13.9848
X3.6825Y-14.0478
X3.6825Y-14.0793
X3.6825Y-14.1423
X3.6825Y-14.1738
X3.6825Y-14.2683
X3.6825Y-14.2998
X3.6825Y-14.3628
X3.6825Y-14.3943
X3.6825Y-14.4573
X3.6825Y-14.4888
X3.6825Y-17.0301
X3.6825Y-17.0931
X3.6825Y-17.1246
X3.6825Y-17.1876
X3.6825Y-17.2191
X3.6825Y-17.3136
X3.6825Y-17.3451
X3.6825Y-17.4081
X3.6825Y-17.4396
X3.6825Y-17.5026
X3.6825Y-17.5341
X3.6825Y-17.6285
X3.6825Y-17.66
X3.6825Y-17.723
X3.6825Y-17.7545
X3.6825Y-17.8175
X3.6825Y-17.8805
X3.6825Y-17.9435
X3.6825Y-17.975
X3.6825Y-18.038
X3.6825Y-18.0695
X3.9173Y-3.2289
X3.9173Y-3.3077
X3.9173Y-3.347
X3.9173Y-3.4258
X3.9173Y-3.4652
X3.9173Y-3.5439
X3.9173Y-3.5833
X3.9173Y-3.662
X3.9173Y-3.7014
X3.9173Y-3.7801
X3.9173Y-3.8195
X3.9173Y-3.8982
X3.9173Y-3.9376
X3.9173Y-4.0163
X3.9173Y-4.0557
X3.9173Y-4.1344
X3.9173Y-4.1738
X3.9173Y-4.2526
X3.9173Y-4.2919
X3.9173Y-4.3707
X3.9173Y-4.41
X3.9183Y-9.1935
X3.9183Y-9.2722
X3.9183Y-9.3116
X3.9183Y-9.3904
X3.9183Y-9.4297
X3.9183Y-9.5085
X3.9183Y-9.5478
X3.9183Y-9.6266
X3.9183Y-9.6659
X3.9183Y-9.7447
X3.9183Y-9.7841
X3.9183Y-9.8628
X3.9183Y-9.9022
X3.9183Y-9.9809
X3.9183Y-10.0203
X3.9183Y-10.099
X3.9183Y-10.1384
X3.9183Y-10.2171
X3.9183Y-10.2565
X3.9183Y-10.3352
X3.9183Y-10.3746
X3.9183Y-15.1581
X3.9183Y-15.2368
X3.9183Y-15.2762
X3.9183Y-15.3549
X3.9183Y-15.3943
X3.9183Y-15.473
X3.9183Y-15.5124
X3.9183Y-15.5911
X3.9183Y-15.6305
X3.9183Y-15.7093
X3.9183Y-15.7486
X3.9183Y-15.8274
X3.9183Y-15.8667
X3.9183Y-15.9455
X3.9183Y-15.9848
X3.9183Y-16.0636
X3.9183Y-16.103
X3.9183Y-16.1817
X3.9183Y-16.2211
X3.9183Y-16.2998
X3.9183Y-16.3392
X3.9236Y-1.3982
X3.9236Y-1.4376
X3.9236Y-1.5163
X3.9236Y-1.5557
X3.9236Y-1.6344
X3.9236Y-1.6738
X3.9236Y-1.7526
X3.9236Y-1.7919
X3.9236Y-1.8707
X3.9236Y-1.91
X3.9236Y-1.9888
X3.9236Y-2.0281
X3.9236Y-2.1069
X3.9236Y-2.1463
X3.9236Y-2.225
X3.9236Y-2.2644
X3.9236Y-2.3431
X3.9236Y-2.3825
X3.924Y-1.3191
X3.924Y-5.2167
X3.924Y-5.2561
X3.924Y-5.3348
X3.924Y-5.3742
X3.924Y-5.453
X3.924Y-5.4923
X3.924Y-5.5711
X3.924Y-5.6104
X3.924Y-5.6892
X3.924Y-5.7285
X3.924Y-5.8073
X3.924Y-5.8467
X3.924Y-5.9254
X3.924Y-5.9648
X3.924Y-6.0435
X3.924Y-6.0829
X3.924Y-6.1616
X3.924Y-6.201
X3.924Y-6.2797
X3.924Y-6.3191
X3.924Y-6.3978
X3.924Y-6.4372
X3.9246Y-7.3628
X3.9246Y-7.4022
X3.9246Y-7.4809
X3.9246Y-7.5203
X3.9246Y-7.599
X3.9246Y-7.6384
X3.9246Y-7.7171
X3.9246Y-7.7565
X3.9246Y-7.8352
X3.9246Y-7.8746
X3.9246Y-7.9533
X3.9246Y-7.9927
X3.9246Y-8.0715
X3.9246Y-8.1108
X3.9246Y-8.1896
X3.9246Y-8.2289
X3.9246Y-8.3077
X3.9246Y-8.347
X3.9246Y-13.3274
X3.9246Y-13.3667
X3.9246Y-13.4455
X3.9246Y-13.4848
X3.9246Y-13.5636
X3.9246Y-13.603
X3.9246Y-13.6817
X3.9246Y-13.7211
X3.9246Y-13.7998
X3.9246Y-13.8392
X3.9246Y-13.9179
X3.9246Y-13.9573
X3.9246Y-14.036
X3.9246Y-14.0754
X3.9246Y-14.1541
X3.9246Y-14.1935
X3.9246Y-14.2722
X3.9246Y-14.3116
X3.925Y-7.2837
X3.925Y-11.1813
X3.925Y-11.2207
X3.925Y-11.2994
X3.925Y-11.3388
X3.925Y-11.4175
X3.925Y-11.4569
X3.925Y-11.5356
X3.925Y-11.575
X3.925Y-11.6537
X3.925Y-11.6931
X3.925Y-11.7719
X3.925Y-11.8112
X3.925Y-11.89
X3.925Y-11.9293
X3.925Y-12.0081
X3.925Y-12.0474
X3.925Y-12.1262
X3.925Y-12.1656
X3.925Y-12.2443
X3.925Y-12.2837
X3.925Y-12.3624
X3.925Y-12.4018
X3.925Y-13.2482
X3.925Y-17.1459
X3.925Y-17.1852
X3.925Y-17.264
X3.925Y-17.3033
X3.925Y-17.3821
X3.925Y-17.4215
X3.925Y-17.5002
X3.925Y-17.5396
X3.925Y-17.6183
X3.925Y-17.6577
X3.925Y-17.7364
X3.925Y-17.7758
X3.925Y-17.8545
X3.925Y-17.8939
X3.925Y-17.9726
X3.925Y-18.012
X3.925Y-18.0907
X3.925Y-18.1301
X3.925Y-18.2089
X3.925Y-18.2482
X3.925Y-18.327
X3.925Y-18.3663
X3.926Y-1.2797
X3.927Y-7.2443
X3.927Y-13.2089
X3.9275Y-2.4612
X3.9285Y-8.4258
X3.9285Y-14.3904
X5.1307Y-2.4614
X5.1317Y-8.426
X5.1317Y-14.3906
X5.1323Y-1.2799
X5.1329Y-7.2441
X5.1333Y-13.2091
X5.1342Y-1.3193
X5.1342Y-5.2169
X5.1342Y-5.2563
X5.1342Y-5.335
X5.1342Y-5.3744
X5.1342Y-5.4531
X5.1342Y-5.4925
X5.1342Y-5.5713
X5.1342Y-5.6106
X5.1342Y-5.6894
X5.1342Y-5.7287
X5.1342Y-5.8075
X5.1342Y-5.8469
X5.1342Y-5.9256
X5.1342Y-5.965
X5.1342Y-6.0437
X5.1342Y-6.0831
X5.1342Y-6.1618
X5.1342Y-6.2012
X5.1342Y-6.2799
X5.1342Y-6.3193
X5.1342Y-6.398
X5.1342Y-6.4374
X5.1346Y-1.3984
X5.1346Y-1.4378
X5.1346Y-1.5165
X5.1346Y-1.5559
X5.1346Y-1.6346
X5.1346Y-1.674
X5.1346Y-1.7528
X5.1346Y-1.7921
X5.1346Y-1.8709
X5.1346Y-1.9102
X5.1346Y-1.989
X5.1346Y-2.0283
X5.1346Y-2.1071
X5.1346Y-2.1465
X5.1346Y-2.2252
X5.1346Y-2.2646
X5.1346Y-2.3433
X5.1346Y-2.3827
X5.1352Y-7.2839
X5.1352Y-11.1815
X5.1352Y-11.2209
X5.1352Y-11.2996
X5.1352Y-11.339
X5.1352Y-11.4177
X5.1352Y-11.4571
X5.1352Y-11.5358
X5.1352Y-11.5752
X5.1352Y-11.6539
X5.1352Y-11.6933
X5.1352Y-11.772
X5.1352Y-11.8114
X5.1352Y-11.8902
X5.1352Y-11.9295
X5.1352Y-12.0083
X5.1352Y-12.0476
X5.1352Y-12.1264
X5.1352Y-12.1657
X5.1352Y-12.2445
X5.1352Y-12.2839
X5.1352Y-12.3626
X5.1352Y-12.402
X5.1352Y-13.2484
X5.1352Y-17.1461
X5.1352Y-17.1854
X5.1352Y-17.2642
X5.1352Y-17.3035
X5.1352Y-17.3823
X5.1352Y-17.4217
X5.1352Y-17.5004
X5.1352Y-17.5398
X5.1352Y-17.6185
X5.1352Y-17.6579
X5.1352Y-17.7366
X5.1352Y-17.776
X5.1352Y-17.8547
X5.1352Y-17.8941
X5.1352Y-17.9728
X5.1352Y-18.0122
X5.1352Y-18.0909
X5.1352Y-18.1303
X5.1352Y-18.2091
X5.1352Y-18.2484
X5.1352Y-18.3272
X5.1352Y-18.3665
X5.1356Y-7.363
X5.1356Y-7.4024
X5.1356Y-7.4811
X5.1356Y-7.5205
X5.1356Y-7.5992
X5.1356Y-7.6386
X5.1356Y-7.7173
X5.1356Y-7.7567
X5.1356Y-7.8354
X5.1356Y-7.8748
X5.1356Y-7.9535
X5.1356Y-7.9929
X5.1356Y-8.0717
X5.1356Y-8.111
X5.1356Y-8.1898
X5.1356Y-8.2291
X5.1356Y-8.3079
X5.1356Y-8.3472
X5.1356Y-13.3276
X5.1356Y-13.3669
X5.1356Y-13.4457
X5.1356Y-13.485
X5.1356Y-13.5638
X5.1356Y-13.6031
X5.1356Y-13.6819
X5.1356Y-13.7213
X5.1356Y-13.8
X5.1356Y-13.8394
X5.1356Y-13.9181
X5.1356Y-13.9575
X5.1356Y-14.0362
X5.1356Y-14.0756
X5.1356Y-14.1543
X5.1356Y-14.1937
X5.1356Y-14.2724
X5.1356Y-14.3118
X5.1409Y-3.2291
X5.1409Y-3.3079
X5.1409Y-3.3472
X5.1409Y-3.426
X5.1409Y-3.4654
X5.1409Y-3.5441
X5.1409Y-3.5835
X5.1409Y-3.6622
X5.1409Y-3.7016
X5.1409Y-3.7803
X5.1409Y-3.8197
X5.1409Y-3.8984
X5.1409Y-3.9378
X5.1409Y-4.0165
X5.1409Y-4.0559
X5.1409Y-4.1346
X5.1409Y-4.174
X5.1409Y-4.2528
X5.1409Y-4.2921
X5.1409Y-4.3709
X5.1409Y-4.4102
X5.1419Y-9.1937
X5.1419Y-9.2724
X5.1419Y-9.3118
X5.1419Y-9.3906
X5.1419Y-9.4299
X5.1419Y-9.5087
X5.1419Y-9.548
X5.1419Y-9.6268
X5.1419Y-9.6661
X5.1419Y-9.7449
X5.1419Y-9.7843
X5.1419Y-9.863
X5.1419Y-9.9024
X5.1419Y-9.9811
X5.1419Y-10.0205
X5.1419Y-10.0992
X5.1419Y-10.1386
X5.1419Y-10.2173
X5.1419Y-10.2567
X5.1419Y-10.3354
X5.1419Y-10.3748
X5.1419Y-15.1583
X5.1419Y-15.237
X5.1419Y-15.2764
X5.1419Y-15.3551
X5.1419Y-15.3945
X5.1419Y-15.4732
X5.1419Y-15.5126
X5.1419Y-15.5913
X5.1419Y-15.6307
X5.1419Y-15.7094
X5.1419Y-15.7488
X5.1419Y-15.8276
X5.1419Y-15.8669
X5.1419Y-15.9457
X5.1419Y-15.985
X5.1419Y-16.0638
X5.1419Y-16.1031
X5.1419Y-16.1819
X5.1419Y-16.2213
X5.1419Y-16.3
X5.1419Y-16.3394
X5.3768Y-1.489
X5.3768Y-1.5205
X5.3768Y-1.5835
X5.3768Y-1.615
X5.3768Y-1.678
X5.3768Y-1.7094
X5.3768Y-1.8039
X5.3768Y-1.8354
X5.3768Y-1.8984
X5.3768Y-1.9299
X5.3768Y-1.9929
X5.3768Y-2.0559
X5.3768Y-2.1189
X5.3768Y-2.1504
X5.3768Y-2.2134
X5.3768Y-2.2449
X5.3768Y-2.3394
X5.3768Y-2.3709
X5.3768Y-2.4339
X5.3768Y-2.4654
X5.3768Y-2.5283
X5.3768Y-2.5598
X5.3768Y-5.1012
X5.3768Y-5.1642
X5.3768Y-5.1957
X5.3768Y-5.2587
X5.3768Y-5.2902
X5.3768Y-5.3846
X5.3768Y-5.4161
X5.3768Y-5.4791
X5.3768Y-5.5106
X5.3768Y-5.5736
X5.3768Y-5.6051
X5.3768Y-5.6996
X5.3768Y-5.7311
X5.3768Y-5.7941
X5.3768Y-5.8256
X5.3768Y-5.8886
X5.3768Y-5.9516
X5.3768Y-6.0146
X5.3768Y-6.0461
X5.3768Y-6.1091
X5.3768Y-6.1406
X5.3772Y-2.7803
X5.3772Y-2.8118
X5.3772Y-2.8748
X5.3772Y-2.9063
X5.3772Y-2.9693
X5.3772Y-3.0323
X5.3772Y-3.0953
X5.3772Y-3.1268
X5.3772Y-3.1898
X5.3772Y-3.2213
X5.3772Y-3.3157
X5.3772Y-4.4398
X5.3772Y-4.5028
X5.3772Y-4.5343
X5.3772Y-4.5972
X5.3772Y-4.6287
X5.3772Y-4.7232
X5.3772Y-4.7547
X5.3772Y-4.8177
X5.3772Y-4.8492
X5.3772Y-4.9122
X5.3777Y-7.4535
X5.3777Y-7.485
X5.3777Y-7.548
X5.3777Y-7.5795
X5.3777Y-7.6425
X5.3777Y-7.674
X5.3777Y-7.7685
X5.3777Y-7.8
X5.3777Y-7.863
X5.3777Y-7.8945
X5.3777Y-7.9575
X5.3777Y-8.0205
X5.3777Y-8.0835
X5.3777Y-8.115
X5.3777Y-8.178
X5.3777Y-8.2094
X5.3777Y-8.3039
X5.3777Y-8.3354
X5.3777Y-8.3984
X5.3777Y-8.4299
X5.3777Y-8.4929
X5.3777Y-8.5244
X5.3777Y-11.0657
X5.3777Y-11.1287
X5.3777Y-11.1602
X5.3777Y-11.2232
X5.3777Y-11.2547
X5.3777Y-11.3492
X5.3777Y-11.3807
X5.3777Y-11.4437
X5.3777Y-11.4752
X5.3777Y-11.5382
X5.3777Y-11.5697
X5.3777Y-11.6642
X5.3777Y-11.6957
X5.3777Y-11.7587
X5.3777Y-11.7902
X5.3777Y-11.8531
X5.3777Y-11.9161
X5.3777Y-11.9791
X5.3777Y-12.0106
X5.3777Y-12.0736
X5.3777Y-12.1051
X5.3777Y-13.4181
X5.3777Y-13.4496
X5.3777Y-13.5126
X5.3777Y-13.5441
X5.3777Y-13.6071
X5.3777Y-13.6386
X5.3777Y-13.7331
X5.3777Y-13.7646
X5.3777Y-13.8276
X5.3777Y-13.8591
X5.3777Y-13.922
X5.3777Y-13.985
X5.3777Y-14.048
X5.3777Y-14.0795
X5.3777Y-14.1425
X5.3777Y-14.174
X5.3777Y-14.2685
X5.3777Y-14.3
X5.3777Y-14.363
X5.3777Y-14.3945
X5.3777Y-14.4575
X5.3777Y-14.489
X5.3777Y-17.0303
X5.3777Y-17.0933
X5.3777Y-17.1248
X5.3777Y-17.1878
X5.3777Y-17.2193
X5.3777Y-17.3138
X5.3777Y-17.3453
X5.3777Y-17.4083
X5.3777Y-17.4398
X5.3777Y-17.5028
X5.3777Y-17.5343
X5.3777Y-17.6287
X5.3777Y-17.6602
X5.3777Y-17.7232
X5.3777Y-17.7547
X5.3777Y-17.8177
X5.3777Y-17.8807
X5.3777Y-17.9437
X5.3777Y-17.9752
X5.3777Y-18.0382
X5.3777Y-18.0697
X5.3781Y-8.7449
X5.3781Y-8.7764
X5.3781Y-8.8394
X5.3781Y-8.8709
X5.3781Y-8.9339
X5.3781Y-8.9969
X5.3781Y-9.0598
X5.3781Y-9.0913
X5.3781Y-9.1543
X5.3781Y-9.1858
X5.3781Y-9.2803
X5.3781Y-10.4043
X5.3781Y-10.4673
X5.3781Y-10.4988
X5.3781Y-10.5618
X5.3781Y-10.5933
X5.3781Y-10.6878
X5.3781Y-10.7193
X5.3781Y-10.7823
X5.3781Y-10.8138
X5.3781Y-10.8768
X5.3781Y-14.7094
X5.3781Y-14.7409
X5.3781Y-14.8039
X5.3781Y-14.8354
X5.3781Y-14.8984
X5.3781Y-14.9614
X5.3781Y-15.0244
X5.3781Y-15.0559
X5.3781Y-15.1189
X5.3781Y-15.1504
X5.3781Y-15.2449
X5.3781Y-16.3689
X5.3781Y-16.4319
X5.3781Y-16.4634
X5.3781Y-16.5264
X5.3781Y-16.5579
X5.3781Y-16.6524
X5.3781Y-16.6839
X5.3781Y-16.7469
X5.3781Y-16.7783
X5.3781Y-16.8413
X5.6693Y-2.7801
X5.6693Y-2.8116
X5.6693Y-2.8746
X5.6693Y-2.9061
X5.6693Y-2.9691
X5.6693Y-3.0321
X5.6693Y-3.0951
X5.6693Y-3.1266
X5.6693Y-3.1896
X5.6693Y-3.2211
X5.6693Y-3.3156
X5.6693Y-4.4396
X5.6693Y-4.5026
X5.6693Y-4.5341
X5.6693Y-4.597
X5.6693Y-4.6285
X5.6693Y-4.723
X5.6693Y-4.7545
X5.6693Y-4.8175
X5.6693Y-4.849
X5.6693Y-4.912
X5.6697Y-1.4888
X5.6697Y-1.5203
X5.6697Y-1.5833
X5.6697Y-1.6148
X5.6697Y-1.6778
X5.6697Y-1.7093
X5.6697Y-1.8037
X5.6697Y-1.8352
X5.6697Y-1.8982
X5.6697Y-1.9297
X5.6697Y-1.9927
X5.6697Y-2.0557
X5.6697Y-2.1187
X5.6697Y-2.1502
X5.6697Y-2.2132
X5.6697Y-2.2447
X5.6697Y-2.3392
X5.6697Y-2.3707
X5.6697Y-2.4337
X5.6697Y-2.4652
X5.6697Y-2.5281
X5.6697Y-2.5596
X5.6697Y-5.101
X5.6697Y-5.164
X5.6697Y-5.1955
X5.6697Y-5.2585
X5.6697Y-5.29
X5.6697Y-5.3844
X5.6697Y-5.4159
X5.6697Y-5.4789
X5.6697Y-5.5104
X5.6697Y-5.5734
X5.6697Y-5.6049
X5.6697Y-5.6994
X5.6697Y-5.7309
X5.6697Y-5.7939
X5.6697Y-5.8254
X5.6697Y-5.8884
X5.6697Y-5.9514
X5.6697Y-6.0144
X5.6697Y-6.0459
X5.6697Y-6.1089
X5.6697Y-6.1404
X5.6703Y-8.7447
X5.6703Y-8.7762
X5.6703Y-8.8392
X5.6703Y-8.8707
X5.6703Y-8.9337
X5.6703Y-8.9967
X5.6703Y-9.0596
X5.6703Y-9.0911
X5.6703Y-9.1541
X5.6703Y-9.1856
X5.6703Y-9.2801
X5.6703Y-10.4041
X5.6703Y-10.4671
X5.6703Y-10.4986
X5.6703Y-10.5616
X5.6703Y-10.5931
X5.6703Y-10.6876
X5.6703Y-10.7191
X5.6703Y-10.7821
X5.6703Y-10.8136
X5.6703Y-10.8766
X5.6703Y-14.7093
X5.6703Y-14.7407
X5.6703Y-14.8037
X5.6703Y-14.8352
X5.6703Y-14.8982
X5.6703Y-14.9612
X5.6703Y-15.0242
X5.6703Y-15.0557
X5.6703Y-15.1187
X5.6703Y-15.1502
X5.6703Y-15.2447
X5.6703Y-16.3687
X5.6703Y-16.4317
X5.6703Y-16.4632
X5.6703Y-16.5262
X5.6703Y-16.5577
X5.6703Y-16.6522
X5.6703Y-16.6837
X5.6703Y-16.7467
X5.6703Y-16.7781
X5.6703Y-16.8411
X5.6707Y-7.4533
X5.6707Y-7.4848
X5.6707Y-7.5478
X5.6707Y-7.5793
X5.6707Y-7.6423
X5.6707Y-7.6738
X5.6707Y-7.7683
X5.6707Y-7.7998
X5.6707Y-7.8628
X5.6707Y-7.8943
X5.6707Y-7.9573
X5.6707Y-8.0203
X5.6707Y-8.0833
X5.6707Y-8.1148
X5.6707Y-8.1778
X5.6707Y-8.2093
X5.6707Y-8.3037
X5.6707Y-8.3352
X5.6707Y-8.3982
X5.6707Y-8.4297
X5.6707Y-8.4927
X5.6707Y-8.5242
X5.6707Y-11.0656
X5.6707Y-11.1285
X5.6707Y-11.16
X5.6707Y-11.223
X5.6707Y-11.2545
X5.6707Y-11.349
X5.6707Y-11.3805
X5.6707Y-11.4435
X5.6707Y-11.475
X5.6707Y-11.538
X5.6707Y-11.5695
X5.6707Y-11.664
X5.6707Y-11.6955
X5.6707Y-11.7585
X5.6707Y-11.79
X5.6707Y-11.853
X5.6707Y-11.9159
X5.6707Y-11.9789
X5.6707Y-12.0104
X5.6707Y-12.0734
X5.6707Y-12.1049
X5.6707Y-13.4179
X5.6707Y-13.4494
X5.6707Y-13.5124
X5.6707Y-13.5439
X5.6707Y-13.6069
X5.6707Y-13.6384
X5.6707Y-13.7329
X5.6707Y-13.7644
X5.6707Y-13.8274
X5.6707Y-13.8589
X5.6707Y-13.9219
X5.6707Y-13.9848
X5.6707Y-14.0478
X5.6707Y-14.0793
X5.6707Y-14.1423
X5.6707Y-14.1738
X5.6707Y-14.2683
X5.6707Y-14.2998
X5.6707Y-14.3628
X5.6707Y-14.3943
X5.6707Y-14.4573
X5.6707Y-14.4888
X5.6707Y-17.0301
X5.6707Y-17.0931
X5.6707Y-17.1246
X5.6707Y-17.1876
X5.6707Y-17.2191
X5.6707Y-17.3136
X5.6707Y-17.3451
X5.6707Y-17.4081
X5.6707Y-17.4396
X5.6707Y-17.5026
X5.6707Y-17.5341
X5.6707Y-17.6285
X5.6707Y-17.66
X5.6707Y-17.723
X5.6707Y-17.7545
X5.6707Y-17.8175
X5.6707Y-17.8805
X5.6707Y-17.9435
X5.6707Y-17.975
X5.6707Y-18.038
X5.6707Y-18.0695
X5.9055Y-3.2289
X5.9055Y-3.3077
X5.9055Y-3.347
X5.9055Y-3.4258
X5.9055Y-3.4652
X5.9055Y-3.5439
X5.9055Y-3.5833
X5.9055Y-3.662
X5.9055Y-3.7014
X5.9055Y-3.7801
X5.9055Y-3.8195
X5.9055Y-3.8982
X5.9055Y-3.9376
X5.9055Y-4.0163
X5.9055Y-4.0557
X5.9055Y-4.1344
X5.9055Y-4.1738
X5.9055Y-4.2526
X5.9055Y-4.2919
X5.9055Y-4.3707
X5.9055Y-4.41
X5.9065Y-9.1935
X5.9065Y-9.2722
X5.9065Y-9.3116
X5.9065Y-9.3904
X5.9065Y-9.4297
X5.9065Y-9.5085
X5.9065Y-9.5478
X5.9065Y-9.6266
X5.9065Y-9.6659
X5.9065Y-9.7447
X5.9065Y-9.7841
X5.9065Y-9.8628
X5.9065Y-9.9022
X5.9065Y-9.9809
X5.9065Y-10.0203
X5.9065Y-10.099
X5.9065Y-10.1384
X5.9065Y-10.2171
X5.9065Y-10.2565
X5.9065Y-10.3352
X5.9065Y-10.3746
X5.9065Y-15.1581
X5.9065Y-15.2368
X5.9065Y-15.2762
X5.9065Y-15.3549
X5.9065Y-15.3943
X5.9065Y-15.473
X5.9065Y-15.5124
X5.9065Y-15.5911
X5.9065Y-15.6305
X5.9065Y-15.7093
X5.9065Y-15.7486
X5.9065Y-15.8274
X5.9065Y-15.8667
X5.9065Y-15.9455
X5.9065Y-15.9848
X5.9065Y-16.0636
X5.9065Y-16.103
X5.9065Y-16.1817
X5.9065Y-16.2211
X5.9065Y-16.2998
X5.9065Y-16.3392
X5.9118Y-1.3982
X5.9118Y-1.4376
X5.9118Y-1.5163
X5.9118Y-1.5557
X5.9118Y-1.6344
X5.9118Y-1.6738
X5.9118Y-1.7526
X5.9118Y-1.7919
X5.9118Y-1.8707
X5.9118Y-1.91
X5.9118Y-1.9888
X5.9118Y-2.0281
X5.9118Y-2.1069
X5.9118Y-2.1463
X5.9118Y-2.225
X5.9118Y-2.2644
X5.9118Y-2.3431
X5.9118Y-2.3825
X5.9122Y-1.3191
X5.9122Y-5.2167
X5.9122Y-5.2561
X5.9122Y-5.3348
X5.9122Y-5.3742
X5.9122Y-5.453
X5.9122Y-5.4923
X5.9122Y-5.5711
X5.9122Y-5.6104
X5.9122Y-5.6892
X5.9122Y-5.7285
X5.9122Y-5.8073
X5.9122Y-5.8467
X5.9122Y-5.9254
X5.9122Y-5.9648
X5.9122Y-6.0435
X5.9122Y-6.0829
X5.9122Y-6.1616
X5.9122Y-6.201
X5.9122Y-6.2797
X5.9122Y-6.3191
X5.9122Y-6.3978
X5.9122Y-6.4372
X5.9128Y-7.3628
X5.9128Y-7.4022
X5.9128Y-7.4809
X5.9128Y-7.5203
X5.9128Y-7.599
X5.9128Y-7.6384
X5.9128Y-7.7171
X5.9128Y-7.7565
X5.9128Y-7.8352
X5.9128Y-7.8746
X5.9128Y-7.9533
X5.9128Y-7.9927
X5.9128Y-8.0715
X5.9128Y-8.1108
X5.9128Y-8.1896
X5.9128Y-8.2289
X5.9128Y-8.3077
X5.9128Y-8.347
X5.9128Y-13.3274
X5.9128Y-13.3667
X5.9128Y-13.4455
X5.9128Y-13.4848
X5.9128Y-13.5636
X5.9128Y-13.603
X5.9128Y-13.6817
X5.9128Y-13.7211
X5.9128Y-13.7998
X5.9128Y-13.8392
X5.9128Y-13.9179
X5.9128Y-13.9573
X5.9128Y-14.036
X5.9128Y-14.0754
X5.9128Y-14.1541
X5.9128Y-14.1935
X5.9128Y-14.2722
X5.9128Y-14.3116
X5.9132Y-7.2837
X5.9132Y-11.1813
X5.9132Y-11.2207
X5.9132Y-11.2994
X5.9132Y-11.3388
X5.9132Y-11.4175
X5.9132Y-11.4569
X5.9132Y-11.5356
X5.9132Y-11.575
X5.9132Y-11.6537
X5.9132Y-11.6931
X5.9132Y-11.7719
X5.9132Y-11.8112
X5.9132Y-11.89
X5.9132Y-11.9293
X5.9132Y-12.0081
X5.9132Y-12.0474
X5.9132Y-12.1262
X5.9132Y-12.1656
X5.9132Y-12.2443
X5.9132Y-12.2837
X5.9132Y-12.3624
X5.9132Y-12.4018
X5.9132Y-13.2482
X5.9132Y-17.1459
X5.9132Y-17.1852
X5.9132Y-17.264
X5.9132Y-17.3033
X5.9132Y-17.3821
X5.9132Y-17.4215
X5.9132Y-17.5002
X5.9132Y-17.5396
X5.9132Y-17.6183
X5.9132Y-17.6577
X5.9132Y-17.7364
X5.9132Y-17.7758
X5.9132Y-17.8545
X5.9132Y-17.8939
X5.9132Y-17.9726
X5.9132Y-18.012
X5.9132Y-18.0907
X5.9132Y-18.1301
X5.9132Y-18.2089
X5.9132Y-18.2482
X5.9132Y-18.327
X5.9132Y-18.3663
X5.9142Y-1.2797
X5.9151Y-7.2443
X5.9151Y-13.2089
X5.9157Y-2.4612
X5.9167Y-8.4258
X5.9167Y-14.3904
X7.1189Y-2.4614
X7.1199Y-8.426
X7.1199Y-14.3906
X7.1205Y-1.2799
X7.1211Y-7.2441
X7.1214Y-13.2091
X7.1224Y-1.3193
X7.1224Y-5.2169
X7.1224Y-5.2563
X7.1224Y-5.335
X7.1224Y-5.3744
X7.1224Y-5.4531
X7.1224Y-5.4925
X7.1224Y-5.5713
X7.1224Y-5.6106
X7.1224Y-5.6894
X7.1224Y-5.7287
X7.1224Y-5.8075
X7.1224Y-5.8469
X7.1224Y-5.9256
X7.1224Y-5.965
X7.1224Y-6.0437
X7.1224Y-6.0831
X7.1224Y-6.1618
X7.1224Y-6.2012
X7.1224Y-6.2799
X7.1224Y-6.3193
X7.1224Y-6.398
X7.1224Y-6.4374
X7.1228Y-1.3984
X7.1228Y-1.4378
X7.1228Y-1.5165
X7.1228Y-1.5559
X7.1228Y-1.6346
X7.1228Y-1.674
X7.1228Y-1.7528
X7.1228Y-1.7921
X7.1228Y-1.8709
X7.1228Y-1.9102
X7.1228Y-1.989
X7.1228Y-2.0283
X7.1228Y-2.1071
X7.1228Y-2.1465
X7.1228Y-2.2252
X7.1228Y-2.2646
X7.1228Y-2.3433
X7.1228Y-2.3827
X7.1234Y-7.2839
X7.1234Y-11.1815
X7.1234Y-11.2209
X7.1234Y-11.2996
X7.1234Y-11.339
X7.1234Y-11.4177
X7.1234Y-11.4571
X7.1234Y-11.5358
X7.1234Y-11.5752
X7.1234Y-11.6539
X7.1234Y-11.6933
X7.1234Y-11.772
X7.1234Y-11.8114
X7.1234Y-11.8902
X7.1234Y-11.9295
X7.1234Y-12.0083
X7.1234Y-12.0476
X7.1234Y-12.1264
X7.1234Y-12.1657
X7.1234Y-12.2445
X7.1234Y-12.2839
X7.1234Y-12.3626
X7.1234Y-12.402
X7.1234Y-13.2484
X7.1234Y-17.1461
X7.1234Y-17.1854
X7.1234Y-17.2642
X7.1234Y-17.3035
X7.1234Y-17.3823
X7.1234Y-17.4217
X7.1234Y-17.5004
X7.1234Y-17.5398
X7.1234Y-17.6185
X7.1234Y-17.6579
X7.1234Y-17.7366
X7.1234Y-17.776
X7.1234Y-17.8547
X7.1234Y-17.8941
X7.1234Y-17.9728
X7.1234Y-18.0122
X7.1234Y-18.0909
X7.1234Y-18.1303
X7.1234Y-18.2091
X7.1234Y-18.2484
X7.1234Y-18.3272
X7.1234Y-18.3665
X7.1238Y-7.363
X7.1238Y-7.4024
X7.1238Y-7.4811
X7.1238Y-7.5205
X7.1238Y-7.5992
X7.1238Y-7.6386
X7.1238Y-7.7173
X7.1238Y-7.7567
X7.1238Y-7.8354
X7.1238Y-7.8748
X7.1238Y-7.9535
X7.1238Y-7.9929
X7.1238Y-8.0717
X7.1238Y-8.111
X7.1238Y-8.1898
X7.1238Y-8.2291
X7.1238Y-8.3079
X7.1238Y-8.3472
X7.1238Y-13.3276
X7.1238Y-13.3669
X7.1238Y-13.4457
X7.1238Y-13.485
X7.1238Y-13.5638
X7.1238Y-13.6031
X7.1238Y-13.6819
X7.1238Y-13.7213
X7.1238Y-13.8
X7.1238Y-13.8394
X7.1238Y-13.9181
X7.1238Y-13.9575
X7.1238Y-14.0362
X7.1238Y-14.0756
X7.1238Y-14.1543
X7.1238Y-14.1937
X7.1238Y-14.2724
X7.1238Y-14.3118
X7.1291Y-3.2291
X7.1291Y-3.3079
X7.1291Y-3.3472
X7.1291Y-3.426
X7.1291Y-3.4654
X7.1291Y-3.5441
X7.1291Y-3.5835
X7.1291Y-3.6622
X7.1291Y-3.7016
X7.1291Y-3.7803
X7.1291Y-3.8197
X7.1291Y-3.8984
X7.1291Y-3.9378
X7.1291Y-4.0165
X7.1291Y-4.0559
X7.1291Y-4.1346
X7.1291Y-4.174
X7.1291Y-4.2528
X7.1291Y-4.2921
X7.1291Y-4.3709
X7.1291Y-4.4102
X7.1301Y-9.1937
X7.1301Y-9.2724
X7.1301Y-9.3118
X7.1301Y-9.3906
X7.1301Y-9.4299
X7.1301Y-9.5087
X7.1301Y-9.548
X7.1301Y-9.6268
X7.1301Y-9.6661
X7.1301Y-9.7449
X7.1301Y-9.7843
X7.1301Y-9.863
X7.1301Y-9.9024
X7.1301Y-9.9811
X7.1301Y-10.0205
X7.1301Y-10.0992
X7.1301Y-10.1386
X7.1301Y-10.2173
X7.1301Y-10.2567
X7.1301Y-10.3354
X7.1301Y-10.3748
X7.1301Y-15.1583
X7.1301Y-15.237
X7.1301Y-15.2764
X7.1301Y-15.3551
X7.1301Y-15.3945
X7.1301Y-15.4732
X7.1301Y-15.5126
X7.1301Y-15.5913
X7.1301Y-15.6307
X7.1301Y-15.7094
X7.1301Y-15.7488
X7.1301Y-15.8276
X7.1301Y-15.8669
X7.1301Y-15.9457
X7.1301Y-15.985
X7.1301Y-16.0638
X7.1301Y-16.1031
X7.1301Y-16.1819
X7.1301Y-16.2213
X7.1301Y-16.3
X7.1301Y-16.3394
X7.3649Y-1.489
X7.3649Y-1.5205
X7.3649Y-1.5835
X7.3649Y-1.615
X7.3649Y-1.678
X7.3649Y-1.7094
X7.3649Y-1.8039
X7.3649Y-1.8354
X7.3649Y-1.8984
X7.3649Y-1.9299
X7.3649Y-1.9929
X7.3649Y-2.0559
X7.3649Y-2.1189
X7.3649Y-2.1504
X7.3649Y-2.2134
X7.3649Y-2.2449
X7.3649Y-2.3394
X7.3649Y-2.3709
X7.3649Y-2.4339
X7.3649Y-2.4654
X7.3649Y-2.5283
X7.3649Y-2.5598
X7.3649Y-5.1012
X7.3649Y-5.1642
X7.3649Y-5.1957
X7.3649Y-5.2587
X7.3649Y-5.2902
X7.3649Y-5.3846
X7.3649Y-5.4161
X7.3649Y-5.4791
X7.3649Y-5.5106
X7.3649Y-5.5736
X7.3649Y-5.6051
X7.3649Y-5.6996
X7.3649Y-5.7311
X7.3649Y-5.7941
X7.3649Y-5.8256
X7.3649Y-5.8886
X7.3649Y-5.9516
X7.3649Y-6.0146
X7.3649Y-6.0461
X7.3649Y-6.1091
X7.3649Y-6.1406
X7.3653Y-2.7803
X7.3653Y-2.8118
X7.3653Y-2.8748
X7.3653Y-2.9063
X7.3653Y-2.9693
X7.3653Y-3.0323
X7.3653Y-3.0953
X7.3653Y-3.1268
X7.3653Y-3.1898
X7.3653Y-3.2213
X7.3653Y-3.3157
X7.3653Y-4.4398
X7.3653Y-4.5028
X7.3653Y-4.5343
X7.3653Y-4.5972
X7.3653Y-4.6287
X7.3653Y-4.7232
X7.3653Y-4.7547
X7.3653Y-4.8177
X7.3653Y-4.8492
X7.3653Y-4.9122
X7.3659Y-7.4535
X7.3659Y-7.485
X7.3659Y-7.548
X7.3659Y-7.5795
X7.3659Y-7.6425
X7.3659Y-7.674
X7.3659Y-7.7685
X7.3659Y-7.8
X7.3659Y-7.863
X7.3659Y-7.8945
X7.3659Y-7.9575
X7.3659Y-8.0205
X7.3659Y-8.0835
X7.3659Y-8.115
X7.3659Y-8.178
X7.3659Y-8.2094
X7.3659Y-8.3039
X7.3659Y-8.3354
X7.3659Y-8.3984
X7.3659Y-8.4299
X7.3659Y-8.4929
X7.3659Y-8.5244
X7.3659Y-11.0657
X7.3659Y-11.1287
X7.3659Y-11.1602
X7.3659Y-11.2232
X7.3659Y-11.2547
X7.3659Y-11.3492
X7.3659Y-11.3807
X7.3659Y-11.4437
X7.3659Y-11.4752
X7.3659Y-11.5382
X7.3659Y-11.5697
X7.3659Y-11.6642
X7.3659Y-11.6957
X7.3659Y-11.7587
X7.3659Y-11.7902
X7.3659Y-11.8531
X7.3659Y-11.9161
X7.3659Y-11.9791
X7.3659Y-12.0106
X7.3659Y-12.0736
X7.3659Y-12.1051
X7.3659Y-13.4181
X7.3659Y-13.4496
X7.3659Y-13.5126
X7.3659Y-13.5441
X7.3659Y-13.6071
X7.3659Y-13.6386
X7.3659Y-13.7331
X7.3659Y-13.7646
X7.3659Y-13.8276
X7.3659Y-13.8591
X7.3659Y-13.922
X7.3659Y-13.985
X7.3659Y-14.048
X7.3659Y-14.0795
X7.3659Y-14.1425
X7.3659Y-14.174
X7.3659Y-14.2685
X7.3659Y-14.3
X7.3659Y-14.363
X7.3659Y-14.3945
X7.3659Y-14.4575
X7.3659Y-14.489
X7.3659Y-17.0303
X7.3659Y-17.0933
X7.3659Y-17.1248
X7.3659Y-17.1878
X7.3659Y-17.2193
X7.3659Y-17.3138
X7.3659Y-17.3453
X7.3659Y-17.4083
X7.3659Y-17.4398
X7.3659Y-17.5028
X7.3659Y-17.5343
X7.3659Y-17.6287
X7.3659Y-17.6602
X7.3659Y-17.7232
X7.3659Y-17.7547
X7.3659Y-17.8177
X7.3659Y-17.8807
X7.3659Y-17.9437
X7.3659Y-17.9752
X7.3659Y-18.0382
X7.3659Y-18.0697
X7.3663Y-8.7449
X7.3663Y-8.7764
X7.3663Y-8.8394
X7.3663Y-8.8709
X7.3663Y-8.9339
X7.3663Y-8.9969
X7.3663Y-9.0598
X7.3663Y-9.0913
X7.3663Y-9.1543
X7.3663Y-9.1858
X7.3663Y-9.2803
X7.3663Y-10.4043
X7.3663Y-10.4673
X7.3663Y-10.4988
X7.3663Y-10.5618
X7.3663Y-10.5933
X7.3663Y-10.6878
X7.3663Y-10.7193
X7.3663Y-10.7823
X7.3663Y-10.8138
X7.3663Y-10.8768
X7.3663Y-14.7094
X7.3663Y-14.7409
X7.3663Y-14.8039
X7.3663Y-14.8354
X7.3663Y-14.8984
X7.3663Y-14.9614
X7.3663Y-15.0244
X7.3663Y-15.0559
X7.3663Y-15.1189
X7.3663Y-15.1504
X7.3663Y-15.2449
X7.3663Y-16.3689
X7.3663Y-16.4319
X7.3663Y-16.4634
X7.3663Y-16.5264
X7.3663Y-16.5579
X7.3663Y-16.6524
X7.3663Y-16.6839
X7.3663Y-16.7469
X7.3663Y-16.7783
X7.3663Y-16.8413
X7.6575Y-2.7801
X7.6575Y-2.8116
X7.6575Y-2.8746
X7.6575Y-2.9061
X7.6575Y-2.9691
X7.6575Y-3.0321
X7.6575Y-3.0951
X7.6575Y-3.1266
X7.6575Y-3.1896
X7.6575Y-3.2211
X7.6575Y-3.3156
X7.6575Y-4.4396
X7.6575Y-4.5026
X7.6575Y-4.5341
X7.6575Y-4.597
X7.6575Y-4.6285
X7.6575Y-4.723
X7.6575Y-4.7545
X7.6575Y-4.8175
X7.6575Y-4.849
X7.6575Y-4.912
X7.6579Y-1.4888
X7.6579Y-1.5203
X7.6579Y-1.5833
X7.6579Y-1.6148
X7.6579Y-1.6778
X7.6579Y-1.7093
X7.6579Y-1.8037
X7.6579Y-1.8352
X7.6579Y-1.8982
X7.6579Y-1.9297
X7.6579Y-1.9927
X7.6579Y-2.0557
X7.6579Y-2.1187
X7.6579Y-2.1502
X7.6579Y-2.2132
X7.6579Y-2.2447
X7.6579Y-2.3392
X7.6579Y-2.3707
X7.6579Y-2.4337
X7.6579Y-2.4652
X7.6579Y-2.5281
X7.6579Y-2.5596
X7.6579Y-5.101
X7.6579Y-5.164
X7.6579Y-5.1955
X7.6579Y-5.2585
X7.6579Y-5.29
X7.6579Y-5.3844
X7.6579Y-5.4159
X7.6579Y-5.4789
X7.6579Y-5.5104
X7.6579Y-5.5734
X7.6579Y-5.6049
X7.6579Y-5.6994
X7.6579Y-5.7309
X7.6579Y-5.7939
X7.6579Y-5.8254
X7.6579Y-5.8884
X7.6579Y-5.9514
X7.6579Y-6.0144
X7.6579Y-6.0459
X7.6579Y-6.1089
X7.6579Y-6.1404
X7.6585Y-8.7447
X7.6585Y-8.7762
X7.6585Y-8.8392
X7.6585Y-8.8707
X7.6585Y-8.9337
X7.6585Y-8.9967
X7.6585Y-9.0596
X7.6585Y-9.0911
X7.6585Y-9.1541
X7.6585Y-9.1856
X7.6585Y-9.2801
X7.6585Y-10.4041
X7.6585Y-10.4671
X7.6585Y-10.4986
X7.6585Y-10.5616
X7.6585Y-10.5931
X7.6585Y-10.6876
X7.6585Y-10.7191
X7.6585Y-10.7821
X7.6585Y-10.8136
X7.6585Y-10.8766
X7.6585Y-14.7093
X7.6585Y-14.7407
X7.6585Y-14.8037
X7.6585Y-14.8352
X7.6585Y-14.8982
X7.6585Y-14.9612
X7.6585Y-15.0242
X7.6585Y-15.0557
X7.6585Y-15.1187
X7.6585Y-15.1502
X7.6585Y-15.2447
X7.6585Y-16.3687
X7.6585Y-16.4317
X7.6585Y-16.4632
X7.6585Y-16.5262
X7.6585Y-16.5577
X7.6585Y-16.6522
X7.6585Y-16.6837
X7.6585Y-16.7467
X7.6585Y-16.7781
X7.6585Y-16.8411
X7.6588Y-7.4533
X7.6588Y-7.4848
X7.6588Y-7.5478
X7.6588Y-7.5793
X7.6588Y-7.6423
X7.6588Y-7.6738
X7.6588Y-7.7683
X7.6588Y-7.7998
X7.6588Y-7.8628
X7.6588Y-7.8943
X7.6588Y-7.9573
X7.6588Y-8.0203
X7.6588Y-8.0833
X7.6588Y-8.1148
X7.6588Y-8.1778
X7.6588Y-8.2093
X7.6588Y-8.3037
X7.6588Y-8.3352
X7.6588Y-8.3982
X7.6588Y-8.4297
X7.6588Y-8.4927
X7.6588Y-8.5242
X7.6588Y-11.0656
X7.6588Y-11.1285
X7.6588Y-11.16
X7.6588Y-11.223
X7.6588Y-11.2545
X7.6588Y-11.349
X7.6588Y-11.3805
X7.6588Y-11.4435
X7.6588Y-11.475
X7.6588Y-11.538
X7.6588Y-11.5695
X7.6588Y-11.664
X7.6588Y-11.6955
X7.6588Y-11.7585
X7.6588Y-11.79
X7.6588Y-11.853
X7.6588Y-11.9159
X7.6588Y-11.9789
X7.6588Y-12.0104
X7.6588Y-12.0734
X7.6588Y-12.1049
X7.6588Y-13.4179
X7.6588Y-13.4494
X7.6588Y-13.5124
X7.6588Y-13.5439
X7.6588Y-13.6069
X7.6588Y-13.6384
X7.6588Y-13.7329
X7.6588Y-13.7644
X7.6588Y-13.8274
X7.6588Y-13.8589
X7.6588Y-13.9219
X7.6588Y-13.9848
X7.6588Y-14.0478
X7.6588Y-14.0793
X7.6588Y-14.1423
X7.6588Y-14.1738
X7.6588Y-14.2683
X7.6588Y-14.2998
X7.6588Y-14.3628
X7.6588Y-14.3943
X7.6588Y-14.4573
X7.6588Y-14.4888
X7.6588Y-17.0301
X7.6588Y-17.0931
X7.6588Y-17.1246
X7.6588Y-17.1876
X7.6588Y-17.2191
X7.6588Y-17.3136
X7.6588Y-17.3451
X7.6588Y-17.4081
X7.6588Y-17.4396
X7.6588Y-17.5026
X7.6588Y-17.5341
X7.6588Y-17.6285
X7.6588Y-17.66
X7.6588Y-17.723
X7.6588Y-17.7545
X7.6588Y-17.8175
X7.6588Y-17.8805
X7.6588Y-17.9435
X7.6588Y-17.975
X7.6588Y-18.038
X7.6588Y-18.0695
X7.8937Y-3.2289
X7.8937Y-3.3077
X7.8937Y-3.347
X7.8937Y-3.4258
X7.8937Y-3.4652
X7.8937Y-3.5439
X7.8937Y-3.5833
X7.8937Y-3.662
X7.8937Y-3.7014
X7.8937Y-3.7801
X7.8937Y-3.8195
X7.8937Y-3.8982
X7.8937Y-3.9376
X7.8937Y-4.0163
X7.8937Y-4.0557
X7.8937Y-4.1344
X7.8937Y-4.1738
X7.8937Y-4.2526
X7.8937Y-4.2919
X7.8937Y-4.3707
X7.8937Y-4.41
X7.8947Y-9.1935
X7.8947Y-9.2722
X7.8947Y-9.3116
X7.8947Y-9.3904
X7.8947Y-9.4297
X7.8947Y-9.5085
X7.8947Y-9.5478
X7.8947Y-9.6266
X7.8947Y-9.6659
X7.8947Y-9.7447
X7.8947Y-9.7841
X7.8947Y-9.8628
X7.8947Y-9.9022
X7.8947Y-9.9809
X7.8947Y-10.0203
X7.8947Y-10.099
X7.8947Y-10.1384
X7.8947Y-10.2171
X7.8947Y-10.2565
X7.8947Y-10.3352
X7.8947Y-10.3746
X7.8947Y-15.1581
X7.8947Y-15.2368
X7.8947Y-15.2762
X7.8947Y-15.3549
X7.8947Y-15.3943
X7.8947Y-15.473
X7.8947Y-15.5124
X7.8947Y-15.5911
X7.8947Y-15.6305
X7.8947Y-15.7093
X7.8947Y-15.7486
X7.8947Y-15.8274
X7.8947Y-15.8667
X7.8947Y-15.9455
X7.8947Y-15.9848
X7.8947Y-16.0636
X7.8947Y-16.103
X7.8947Y-16.1817
X7.8947Y-16.2211
X7.8947Y-16.2998
X7.8947Y-16.3392
X7.9Y-1.3982
X7.9Y-1.4376
X7.9Y-1.5163
X7.9Y-1.5557
X7.9Y-1.6344
X7.9Y-1.6738
X7.9Y-1.7526
X7.9Y-1.7919
X7.9Y-1.8707
X7.9Y-1.91
X7.9Y-1.9888
X7.9Y-2.0281
X7.9Y-2.1069
X7.9Y-2.1463
X7.9Y-2.225
X7.9Y-2.2644
X7.9Y-2.3431
X7.9Y-2.3825
X7.9004Y-1.3191
X7.9004Y-5.2167
X7.9004Y-5.2561
X7.9004Y-5.3348
X7.9004Y-5.3742
X7.9004Y-5.453
X7.9004Y-5.4923
X7.9004Y-5.5711
X7.9004Y-5.6104
X7.9004Y-5.6892
X7.9004Y-5.7285
X7.9004Y-5.8073
X7.9004Y-5.8467
X7.9004Y-5.9254
X7.9004Y-5.9648
X7.9004Y-6.0435
X7.9004Y-6.0829
X7.9004Y-6.1616
X7.9004Y-6.201
X7.9004Y-6.2797
X7.9004Y-6.3191
X7.9004Y-6.3978
X7.9004Y-6.4372
X7.901Y-7.3628
X7.901Y-7.4022
X7.901Y-7.4809
X7.901Y-7.5203
X7.901Y-7.599
X7.901Y-7.6384
X7.901Y-7.7171
X7.901Y-7.7565
X7.901Y-7.8352
X7.901Y-7.8746
X7.901Y-7.9533
X7.901Y-7.9927
X7.901Y-8.0715
X7.901Y-8.1108
X7.901Y-8.1896
X7.901Y-8.2289
X7.901Y-8.3077
X7.901Y-8.347
X7.901Y-13.3274
X7.901Y-13.3667
X7.901Y-13.4455
X7.901Y-13.4848
X7.901Y-13.5636
X7.901Y-13.603
X7.901Y-13.6817
X7.901Y-13.7211
X7.901Y-13.7998
X7.901Y-13.8392
X7.901Y-13.9179
X7.901Y-13.9573
X7.901Y-14.036
X7.901Y-14.0754
X7.901Y-14.1541
X7.901Y-14.1935
X7.901Y-14.2722
X7.901Y-14.3116
X7.9014Y-7.2837
X7.9014Y-11.1813
X7.9014Y-11.2207
X7.9014Y-11.2994
X7.9014Y-11.3388
X7.9014Y-11.4175
X7.9014Y-11.4569
X7.9014Y-11.5356
X7.9014Y-11.575
X7.9014Y-11.6537
X7.9014Y-11.6931
X7.9014Y-11.7719
X7.9014Y-11.8112
X7.9014Y-11.89
X7.9014Y-11.9293
X7.9014Y-12.0081
X7.9014Y-12.0474
X7.9014Y-12.1262
X7.9014Y-12.1656
X7.9014Y-12.2443
X7.9014Y-12.2837
X7.9014Y-12.3624
X7.9014Y-12.4018
X7.9014Y-13.2482
X7.9014Y-17.1459
X7.9014Y-17.1852
X7.9014Y-17.264
X7.9014Y-17.3033
X7.9014Y-17.3821
X7.9014Y-17.4215
X7.9014Y-17.5002
X7.9014Y-17.5396
X7.9014Y-17.6183
X7.9014Y-17.6577
X7.9014Y-17.7364
X7.9014Y-17.7758
X7.9014Y-17.8545
X7.9014Y-17.8939
X7.9014Y-17.9726
X7.9014Y-18.012
X7.9014Y-18.0907
X7.9014Y-18.1301
X7.9014Y-18.2089
X7.9014Y-18.2482
X7.9014Y-18.327
X7.9014Y-18.3663
X7.9023Y-1.2797
X7.9033Y-7.2443
X7.9033Y-13.2089
X7.9039Y-2.4612
X7.9049Y-8.4258
X7.9049Y-14.3904
X9.1071Y-2.4614
X9.1081Y-8.426
X9.1081Y-14.3906
X9.1086Y-1.2799
X9.1092Y-7.2441
X9.1096Y-13.2091
X9.1106Y-1.3193
X9.1106Y-5.2169
X9.1106Y-5.2563
X9.1106Y-5.335
X9.1106Y-5.3744
X9.1106Y-5.4531
X9.1106Y-5.4925
X9.1106Y-5.5713
X9.1106Y-5.6106
X9.1106Y-5.6894
X9.1106Y-5.7287
X9.1106Y-5.8075
X9.1106Y-5.8469
X9.1106Y-5.9256
X9.1106Y-5.965
X9.1106Y-6.0437
X9.1106Y-6.0831
X9.1106Y-6.1618
X9.1106Y-6.2012
X9.1106Y-6.2799
X9.1106Y-6.3193
X9.1106Y-6.398
X9.1106Y-6.4374
X9.111Y-1.3984
X9.111Y-1.4378
X9.111Y-1.5165
X9.111Y-1.5559
X9.111Y-1.6346
X9.111Y-1.674
X9.111Y-1.7528
X9.111Y-1.7921
X9.111Y-1.8709
X9.111Y-1.9102
X9.111Y-1.989
X9.111Y-2.0283
X9.111Y-2.1071
X9.111Y-2.1465
X9.111Y-2.2252
X9.111Y-2.2646
X9.111Y-2.3433
X9.111Y-2.3827
X9.1116Y-7.2839
X9.1116Y-11.1815
X9.1116Y-11.2209
X9.1116Y-11.2996
X9.1116Y-11.339
X9.1116Y-11.4177
X9.1116Y-11.4571
X9.1116Y-11.5358
X9.1116Y-11.5752
X9.1116Y-11.6539
X9.1116Y-11.6933
X9.1116Y-11.772
X9.1116Y-11.8114
X9.1116Y-11.8902
X9.1116Y-11.9295
X9.1116Y-12.0083
X9.1116Y-12.0476
X9.1116Y-12.1264
X9.1116Y-12.1657
X9.1116Y-12.2445
X9.1116Y-12.2839
X9.1116Y-12.3626
X9.1116Y-12.402
X9.1116Y-13.2484
X9.1116Y-17.1461
X9.1116Y-17.1854
X9.1116Y-17.2642
X9.1116Y-17.3035
X9.1116Y-17.3823
X9.1116Y-17.4217
X9.1116Y-17.5004
X9.1116Y-17.5398
X9.1116Y-17.6185
X9.1116Y-17.6579
X9.1116Y-17.7366
X9.1116Y-17.776
X9.1116Y-17.8547
X9.1116Y-17.8941
X9.1116Y-17.9728
X9.1116Y-18.0122
X9.1116Y-18.0909
X9.1116Y-18.1303
X9.1116Y-18.2091
X9.1116Y-18.2484
X9.1116Y-18.3272
X9.1116Y-18.3665
X9.112Y-7.363
X9.112Y-7.4024
X9.112Y-7.4811
X9.112Y-7.5205
X9.112Y-7.5992
X9.112Y-7.6386
X9.112Y-7.7173
X9.112Y-7.7567
X9.112Y-7.8354
X9.112Y-7.8748
X9.112Y-7.9535
X9.112Y-7.9929
X9.112Y-8.0717
X9.112Y-8.111
X9.112Y-8.1898
X9.112Y-8.2291
X9.112Y-8.3079
X9.112Y-8.3472
X9.112Y-13.3276
X9.112Y-13.3669
X9.112Y-13.4457
X9.112Y-13.485
X9.112Y-13.5638
X9.112Y-13.6031
X9.112Y-13.6819
X9.112Y-13.7213
X9.112Y-13.8
X9.112Y-13.8394
X9.112Y-13.9181
X9.112Y-13.9575
X9.112Y-14.0362
X9.112Y-14.0756
X9.112Y-14.1543
X9.112Y-14.1937
X9.112Y-14.2724
X9.112Y-14.3118
X9.1173Y-3.2291
X9.1173Y-3.3079
X9.1173Y-3.3472
X9.1173Y-3.426
X9.1173Y-3.4654
X9.1173Y-3.5441
X9.1173Y-3.5835
X9.1173Y-3.6622
X9.1173Y-3.7016
X9.1173Y-3.7803
X9.1173Y-3.8197
X9.1173Y-3.8984
X9.1173Y-3.9378
X9.1173Y-4.0165
X9.1173Y-4.0559
X9.1173Y-4.1346
X9.1173Y-4.174
X9.1173Y-4.2528
X9.1173Y-4.2921
X9.1173Y-4.3709
X9.1173Y-4.4102
X9.1183Y-9.1937
X9.1183Y-9.2724
X9.1183Y-9.3118
X9.1183Y-9.3906
X9.1183Y-9.4299
X9.1183Y-9.5087
X9.1183Y-9.548
X9.1183Y-9.6268
X9.1183Y-9.6661
X9.1183Y-9.7449
X9.1183Y-9.7843
X9.1183Y-9.863
X9.1183Y-9.9024
X9.1183Y-9.9811
X9.1183Y-10.0205
X9.1183Y-10.0992
X9.1183Y-10.1386
X9.1183Y-10.2173
X9.1183Y-10.2567
X9.1183Y-10.3354
X9.1183Y-10.3748
X9.1183Y-15.1583
X9.1183Y-15.237
X9.1183Y-15.2764
X9.1183Y-15.3551
X9.1183Y-15.3945
X9.1183Y-15.4732
X9.1183Y-15.5126
X9.1183Y-15.5913
X9.1183Y-15.6307
X9.1183Y-15.7094
X9.1183Y-15.7488
X9.1183Y-15.8276
X9.1183Y-15.8669
X9.1183Y-15.9457
X9.1183Y-15.985
X9.1183Y-16.0638
X9.1183Y-16.1031
X9.1183Y-16.1819
X9.1183Y-16.2213
X9.1183Y-16.3
X9.1183Y-16.3394
X9.3531Y-1.489
X9.3531Y-1.5205
X9.3531Y-1.5835
X9.3531Y-1.615
X9.3531Y-1.678
X9.3531Y-1.7094
X9.3531Y-1.8039
X9.3531Y-1.8354
X9.3531Y-1.8984
X9.3531Y-1.9299
X9.3531Y-1.9929
X9.3531Y-2.0559
X9.3531Y-2.1189
X9.3531Y-2.1504
X9.3531Y-2.2134
X9.3531Y-2.2449
X9.3531Y-2.3394
X9.3531Y-2.3709
X9.3531Y-2.4339
X9.3531Y-2.4654
X9.3531Y-2.5283
X9.3531Y-2.5598
X9.3531Y-5.1012
X9.3531Y-5.1642
X9.3531Y-5.1957
X9.3531Y-5.2587
X9.3531Y-5.2902
X9.3531Y-5.3846
X9.3531Y-5.4161
X9.3531Y-5.4791
X9.3531Y-5.5106
X9.3531Y-5.5736
X9.3531Y-5.6051
X9.3531Y-5.6996
X9.3531Y-5.7311
X9.3531Y-5.7941
X9.3531Y-5.8256
X9.3531Y-5.8886
X9.3531Y-5.9516
X9.3531Y-6.0146
X9.3531Y-6.0461
X9.3531Y-6.1091
X9.3531Y-6.1406
X9.3535Y-2.7803
X9.3535Y-2.8118
X9.3535Y-2.8748
X9.3535Y-2.9063
X9.3535Y-2.9693
X9.3535Y-3.0323
X9.3535Y-3.0953
X9.3535Y-3.1268
X9.3535Y-3.1898
X9.3535Y-3.2213
X9.3535Y-3.3157
X9.3535Y-4.4398
X9.3535Y-4.5028
X9.3535Y-4.5343
X9.3535Y-4.5972
X9.3535Y-4.6287
X9.3535Y-4.7232
X9.3535Y-4.7547
X9.3535Y-4.8177
X9.3535Y-4.8492
X9.3535Y-4.9122
X9.3541Y-7.4535
X9.3541Y-7.485
X9.3541Y-7.548
X9.3541Y-7.5795
X9.3541Y-7.6425
X9.3541Y-7.674
X9.3541Y-7.7685
X9.3541Y-7.8
X9.3541Y-7.863
X9.3541Y-7.8945
X9.3541Y-7.9575
X9.3541Y-8.0205
X9.3541Y-8.0835
X9.3541Y-8.115
X9.3541Y-8.178
X9.3541Y-8.2094
X9.3541Y-8.3039
X9.3541Y-8.3354
X9.3541Y-8.3984
X9.3541Y-8.4299
X9.3541Y-8.4929
X9.3541Y-8.5244
X9.3541Y-11.0657
X9.3541Y-11.1287
X9.3541Y-11.1602
X9.3541Y-11.2232
X9.3541Y-11.2547
X9.3541Y-11.3492
X9.3541Y-11.3807
X9.3541Y-11.4437
X9.3541Y-11.4752
X9.3541Y-11.5382
X9.3541Y-11.5697
X9.3541Y-11.6642
X9.3541Y-11.6957
X9.3541Y-11.7587
X9.3541Y-11.7902
X9.3541Y-11.8531
X9.3541Y-11.9161
X9.3541Y-11.9791
X9.3541Y-12.0106
X9.3541Y-12.0736
X9.3541Y-12.1051
X9.3541Y-13.4181
X9.3541Y-13.4496
X9.3541Y-13.5126
X9.3541Y-13.5441
X9.3541Y-13.6071
X9.3541Y-13.6386
X9.3541Y-13.7331
X9.3541Y-13.7646
X9.3541Y-13.8276
X9.3541Y-13.8591
X9.3541Y-13.922
X9.3541Y-13.985
X9.3541Y-14.048
X9.3541Y-14.0795
X9.3541Y-14.1425
X9.3541Y-14.174
X9.3541Y-14.2685
X9.3541Y-14.3
X9.3541Y-14.363
X9.3541Y-14.3945
X9.3541Y-14.4575
X9.3541Y-14.489
X9.3541Y-17.0303
X9.3541Y-17.0933
X9.3541Y-17.1248
X9.3541Y-17.1878
X9.3541Y-17.2193
X9.3541Y-17.3138
X9.3541Y-17.3453
X9.3541Y-17.4083
X9.3541Y-17.4398
X9.3541Y-17.5028
X9.3541Y-17.5343
X9.3541Y-17.6287
X9.3541Y-17.6602
X9.3541Y-17.7232
X9.3541Y-17.7547
X9.3541Y-17.8177
X9.3541Y-17.8807
X9.3541Y-17.9437
X9.3541Y-17.9752
X9.3541Y-18.0382
X9.3541Y-18.0697
X9.3545Y-8.7449
X9.3545Y-8.7764
X9.3545Y-8.8394
X9.3545Y-8.8709
X9.3545Y-8.9339
X9.3545Y-8.9969
X9.3545Y-9.0598
X9.3545Y-9.0913
X9.3545Y-9.1543
X9.3545Y-9.1858
X9.3545Y-9.2803
X9.3545Y-10.4043
X9.3545Y-10.4673
X9.3545Y-10.4988
X9.3545Y-10.5618
X9.3545Y-10.5933
X9.3545Y-10.6878
X9.3545Y-10.7193
X9.3545Y-10.7823
X9.3545Y-10.8138
X9.3545Y-10.8768
X9.3545Y-14.7094
X9.3545Y-14.7409
X9.3545Y-14.8039
X9.3545Y-14.8354
X9.3545Y-14.8984
X9.3545Y-14.9614
X9.3545Y-15.0244
X9.3545Y-15.0559
X9.3545Y-15.1189
X9.3545Y-15.1504
X9.3545Y-15.2449
X9.3545Y-16.3689
X9.3545Y-16.4319
X9.3545Y-16.4634
X9.3545Y-16.5264
X9.3545Y-16.5579
X9.3545Y-16.6524
X9.3545Y-16.6839
X9.3545Y-16.7469
X9.3545Y-16.7783
X9.3545Y-16.8413
X9.6457Y-2.7801
X9.6457Y-2.8116
X9.6457Y-2.8746
X9.6457Y-2.9061
X9.6457Y-2.9691
X9.6457Y-3.0321
X9.6457Y-3.0951
X9.6457Y-3.1266
X9.6457Y-3.1896
X9.6457Y-3.2211
X9.6457Y-3.3156
X9.6457Y-4.4396
X9.6457Y-4.5026
X9.6457Y-4.5341
X9.6457Y-4.597
X9.6457Y-4.6285
X9.6457Y-4.723
X9.6457Y-4.7545
X9.6457Y-4.8175
X9.6457Y-4.849
X9.6457Y-4.912
X9.6461Y-1.4888
X9.6461Y-1.5203
X9.6461Y-1.5833
X9.6461Y-1.6148
X9.6461Y-1.6778
X9.6461Y-1.7093
X9.6461Y-1.8037
X9.6461Y-1.8352
X9.6461Y-1.8982
X9.6461Y-1.9297
X9.6461Y-1.9927
X9.6461Y-2.0557
X9.6461Y-2.1187
X9.6461Y-2.1502
X9.6461Y-2.2132
X9.6461Y-2.2447
X9.6461Y-2.3392
X9.6461Y-2.3707
X9.6461Y-2.4337
X9.6461Y-2.4652
X9.6461Y-2.5281
X9.6461Y-2.5596
X9.6461Y-5.101
X9.6461Y-5.164
X9.6461Y-5.1955
X9.6461Y-5.2585
X9.6461Y-5.29
X9.6461Y-5.3844
X9.6461Y-5.4159
X9.6461Y-5.4789
X9.6461Y-5.5104
X9.6461Y-5.5734
X9.6461Y-5.6049
X9.6461Y-5.6994
X9.6461Y-5.7309
X9.6461Y-5.7939
X9.6461Y-5.8254
X9.6461Y-5.8884
X9.6461Y-5.9514
X9.6461Y-6.0144
X9.6461Y-6.0459
X9.6461Y-6.1089
X9.6461Y-6.1404
X9.6466Y-8.7447
X9.6466Y-8.7762
X9.6466Y-8.8392
X9.6466Y-8.8707
X9.6466Y-8.9337
X9.6466Y-8.9967
X9.6466Y-9.0596
X9.6466Y-9.0911
X9.6466Y-9.1541
X9.6466Y-9.1856
X9.6466Y-9.2801
X9.6466Y-10.4041
X9.6466Y-10.4671
X9.6466Y-10.4986
X9.6466Y-10.5616
X9.6466Y-10.5931
X9.6466Y-10.6876
X9.6466Y-10.7191
X9.6466Y-10.7821
X9.6466Y-10.8136
X9.6466Y-10.8766
X9.6466Y-14.7093
X9.6466Y-14.7407
X9.6466Y-14.8037
X9.6466Y-14.8352
X9.6466Y-14.8982
X9.6466Y-14.9612
X9.6466Y-15.0242
X9.6466Y-15.0557
X9.6466Y-15.1187
X9.6466Y-15.1502
X9.6466Y-15.2447
X9.6466Y-16.3687
X9.6466Y-16.4317
X9.6466Y-16.4632
X9.6466Y-16.5262
X9.6466Y-16.5577
X9.6466Y-16.6522
X9.6466Y-16.6837
X9.6466Y-16.7467
X9.6466Y-16.7781
X9.6466Y-16.8411
X9.647Y-7.4533
X9.647Y-7.4848
X9.647Y-7.5478
X9.647Y-7.5793
X9.647Y-7.6423
X9.647Y-7.6738
X9.647Y-7.7683
X9.647Y-7.7998
X9.647Y-7.8628
X9.647Y-7.8943
X9.647Y-7.9573
X9.647Y-8.0203
X9.647Y-8.0833
X9.647Y-8.1148
X9.647Y-8.1778
X9.647Y-8.2093
X9.647Y-8.3037
X9.647Y-8.3352
X9.647Y-8.3982
X9.647Y-8.4297
X9.647Y-8.4927
X9.647Y-8.5242
X9.647Y-11.0656
X9.647Y-11.1285
X9.647Y-11.16
X9.647Y-11.223
X9.647Y-11.2545
X9.647Y-11.349
X9.647Y-11.3805
X9.647Y-11.4435
X9.647Y-11.475
X9.647Y-11.538
X9.647Y-11.5695
X9.647Y-11.664
X9.647Y-11.6955
X9.647Y-11.7585
X9.647Y-11.79
X9.647Y-11.853
X9.647Y-11.9159
X9.647Y-11.9789
X9.647Y-12.0104
X9.647Y-12.0734
X9.647Y-12.1049
X9.647Y-13.4179
X9.647Y-13.4494
X9.647Y-13.5124
X9.647Y-13.5439
X9.647Y-13.6069
X9.647Y-13.6384
X9.647Y-13.7329
X9.647Y-13.7644
X9.647Y-13.8274
X9.647Y-13.8589
X9.647Y-13.9219
X9.647Y-13.9848
X9.647Y-14.0478
X9.647Y-14.0793
X9.647Y-14.1423
X9.647Y-14.1738
X9.647Y-14.2683
X9.647Y-14.2998
X9.647Y-14.3628
X9.647Y-14.3943
X9.647Y-14.4573
X9.647Y-14.4888
X9.647Y-17.0301
X9.647Y-17.0931
X9.647Y-17.1246
X9.647Y-17.1876
X9.647Y-17.2191
X9.647Y-17.3136
X9.647Y-17.3451
X9.647Y-17.4081
X9.647Y-17.4396
X9.647Y-17.5026
X9.647Y-17.5341
X9.647Y-17.6285
X9.647Y-17.66
X9.647Y-17.723
X9.647Y-17.7545
X9.647Y-17.8175
X9.647Y-17.8805
X9.647Y-17.9435
X9.647Y-17.975
X9.647Y-18.038
X9.647Y-18.0695
X9.8819Y-3.2289
X9.8819Y-3.3077
X9.8819Y-3.347
X9.8819Y-3.4258
X9.8819Y-3.4652
X9.8819Y-3.5439
X9.8819Y-3.5833
X9.8819Y-3.662
X9.8819Y-3.7014
X9.8819Y-3.7801
X9.8819Y-3.8195
X9.8819Y-3.8982
X9.8819Y-3.9376
X9.8819Y-4.0163
X9.8819Y-4.0557
X9.8819Y-4.1344
X9.8819Y-4.1738
X9.8819Y-4.2526
X9.8819Y-4.2919
X9.8819Y-4.3707
X9.8819Y-4.41
X9.8829Y-9.1935
X9.8829Y-9.2722
X9.8829Y-9.3116
X9.8829Y-9.3904
X9.8829Y-9.4297
X9.8829Y-9.5085
X9.8829Y-9.5478
X9.8829Y-9.6266
X9.8829Y-9.6659
X9.8829Y-9.7447
X9.8829Y-9.7841
X9.8829Y-9.8628
X9.8829Y-9.9022
X9.8829Y-9.9809
X9.8829Y-10.0203
X9.8829Y-10.099
X9.8829Y-10.1384
X9.8829Y-10.2171
X9.8829Y-10.2565
X9.8829Y-10.3352
X9.8829Y-10.3746
X9.8829Y-15.1581
X9.8829Y-15.2368
X9.8829Y-15.2762
X9.8829Y-15.3549
X9.8829Y-15.3943
X9.8829Y-15.473
X9.8829Y-15.5124
X9.8829Y-15.5911
X9.8829Y-15.6305
X9.8829Y-15.7093
X9.8829Y-15.7486
X9.8829Y-15.8274
X9.8829Y-15.8667
X9.8829Y-15.9455
X9.8829Y-15.9848
X9.8829Y-16.0636
X9.8829Y-16.103
X9.8829Y-16.1817
X9.8829Y-16.2211
X9.8829Y-16.2998
X9.8829Y-16.3392
X9.8882Y-1.3982
X9.8882Y-1.4376
X9.8882Y-1.5163
X9.8882Y-1.5557
X9.8882Y-1.6344
X9.8882Y-1.6738
X9.8882Y-1.7526
X9.8882Y-1.7919
X9.8882Y-1.8707
X9.8882Y-1.91
X9.8882Y-1.9888
X9.8882Y-2.0281
X9.8882Y-2.1069
X9.8882Y-2.1463
X9.8882Y-2.225
X9.8882Y-2.2644
X9.8882Y-2.3431
X9.8882Y-2.3825
X9.8886Y-1.3191
X9.8886Y-5.2167
X9.8886Y-5.2561
X9.8886Y-5.3348
X9.8886Y-5.3742
X9.8886Y-5.453
X9.8886Y-5.4923
X9.8886Y-5.5711
X9.8886Y-5.6104
X9.8886Y-5.6892
X9.8886Y-5.7285
X9.8886Y-5.8073
X9.8886Y-5.8467
X9.8886Y-5.9254
X9.8886Y-5.9648
X9.8886Y-6.0435
X9.8886Y-6.0829
X9.8886Y-6.1616
X9.8886Y-6.201
X9.8886Y-6.2797
X9.8886Y-6.3191
X9.8886Y-6.3978
X9.8886Y-6.4372
X9.8892Y-7.3628
X9.8892Y-7.4022
X9.8892Y-7.4809
X9.8892Y-7.5203
X9.8892Y-7.599
X9.8892Y-7.6384
X9.8892Y-7.7171
X9.8892Y-7.7565
X9.8892Y-7.8352
X9.8892Y-7.8746
X9.8892Y-7.9533
X9.8892Y-7.9927
X9.8892Y-8.0715
X9.8892Y-8.1108
X9.8892Y-8.1896
X9.8892Y-8.2289
X9.8892Y-8.3077
X9.8892Y-8.347
X9.8892Y-13.3274
X9.8892Y-13.3667
X9.8892Y-13.4455
X9.8892Y-13.4848
X9.8892Y-13.5636
X9.8892Y-13.603
X9.8892Y-13.6817
X9.8892Y-13.7211
X9.8892Y-13.7998
X9.8892Y-13.8392
X9.8892Y-13.9179
X9.8892Y-13.9573
X9.8892Y-14.036
X9.8892Y-14.0754
X9.8892Y-14.1541
X9.8892Y-14.1935
X9.8892Y-14.2722
X9.8892Y-14.3116
X9.8896Y-7.2837
X9.8896Y-11.1813
X9.8896Y-11.2207
X9.8896Y-11.2994
X9.8896Y-11.3388
X9.8896Y-11.4175
X9.8896Y-11.4569
X9.8896Y-11.5356
X9.8896Y-11.575
X9.8896Y-11.6537
X9.8896Y-11.6931
X9.8896Y-11.7719
X9.8896Y-11.8112
X9.8896Y-11.89
X9.8896Y-11.9293
X9.8896Y-12.0081
X9.8896Y-12.0474
X9.8896Y-12.1262
X9.8896Y-12.1656
X9.8896Y-12.2443
X9.8896Y-12.2837
X9.8896Y-12.3624
X9.8896Y-12.4018
X9.8896Y-13.2482
X9.8896Y-17.1459
X9.8896Y-17.1852
X9.8896Y-17.264
X9.8896Y-17.3033
X9.8896Y-17.3821
X9.8896Y-17.4215
X9.8896Y-17.5002
X9.8896Y-17.5396
X9.8896Y-17.6183
X9.8896Y-17.6577
X9.8896Y-17.7364
X9.8896Y-17.7758
X9.8896Y-17.8545
X9.8896Y-17.8939
X9.8896Y-17.9726
X9.8896Y-18.012
X9.8896Y-18.0907
X9.8896Y-18.1301
X9.8896Y-18.2089
X9.8896Y-18.2482
X9.8896Y-18.327
X9.8896Y-18.3663
X9.8905Y-1.2797
X9.8915Y-7.2443
X9.8915Y-13.2089
X9.8921Y-2.4612
X9.8931Y-8.4258
X9.8931Y-14.3904
X11.0953Y-2.4614
X11.0962Y-8.426
X11.0962Y-14.3906
X11.0968Y-1.2799
X11.0974Y-7.2441
X11.0978Y-13.2091
X11.0988Y-1.3193
X11.0988Y-5.2169
X11.0988Y-5.2563
X11.0988Y-5.335
X11.0988Y-5.3744
X11.0988Y-5.4531
X11.0988Y-5.4925
X11.0988Y-5.5713
X11.0988Y-5.6106
X11.0988Y-5.6894
X11.0988Y-5.7287
X11.0988Y-5.8075
X11.0988Y-5.8469
X11.0988Y-5.9256
X11.0988Y-5.965
X11.0988Y-6.0437
X11.0988Y-6.0831
X11.0988Y-6.1618
X11.0988Y-6.2012
X11.0988Y-6.2799
X11.0988Y-6.3193
X11.0988Y-6.398
X11.0988Y-6.4374
X11.0992Y-1.3984
X11.0992Y-1.4378
X11.0992Y-1.5165
X11.0992Y-1.5559
X11.0992Y-1.6346
X11.0992Y-1.674
X11.0992Y-1.7528
X11.0992Y-1.7921
X11.0992Y-1.8709
X11.0992Y-1.9102
X11.0992Y-1.989
X11.0992Y-2.0283
X11.0992Y-2.1071
X11.0992Y-2.1465
X11.0992Y-2.2252
X11.0992Y-2.2646
X11.0992Y-2.3433
X11.0992Y-2.3827
X11.0998Y-7.2839
X11.0998Y-11.1815
X11.0998Y-11.2209
X11.0998Y-11.2996
X11.0998Y-11.339
X11.0998Y-11.4177
X11.0998Y-11.4571
X11.0998Y-11.5358
X11.0998Y-11.5752
X11.0998Y-11.6539
X11.0998Y-11.6933
X11.0998Y-11.772
X11.0998Y-11.8114
X11.0998Y-11.8902
X11.0998Y-11.9295
X11.0998Y-12.0083
X11.0998Y-12.0476
X11.0998Y-12.1264
X11.0998Y-12.1657
X11.0998Y-12.2445
X11.0998Y-12.2839
X11.0998Y-12.3626
X11.0998Y-12.402
X11.0998Y-13.2484
X11.0998Y-17.1461
X11.0998Y-17.1854
X11.0998Y-17.2642
X11.0998Y-17.3035
X11.0998Y-17.3823
X11.0998Y-17.4217
X11.0998Y-17.5004
X11.0998Y-17.5398
X11.0998Y-17.6185
X11.0998Y-17.6579
X11.0998Y-17.7366
X11.0998Y-17.776
X11.0998Y-17.8547
X11.0998Y-17.8941
X11.0998Y-17.9728
X11.0998Y-18.0122
X11.0998Y-18.0909
X11.0998Y-18.1303
X11.0998Y-18.2091
X11.0998Y-18.2484
X11.0998Y-18.3272
X11.0998Y-18.3665
X11.1002Y-7.363
X11.1002Y-7.4024
X11.1002Y-7.4811
X11.1002Y-7.5205
X11.1002Y-7.5992
X11.1002Y-7.6386
X11.1002Y-7.7173
X11.1002Y-7.7567
X11.1002Y-7.8354
X11.1002Y-7.8748
X11.1002Y-7.9535
X11.1002Y-7.9929
X11.1002Y-8.0717
X11.1002Y-8.111
X11.1002Y-8.1898
X11.1002Y-8.2291
X11.1002Y-8.3079
X11.1002Y-8.3472
X11.1002Y-13.3276
X11.1002Y-13.3669
X11.1002Y-13.4457
X11.1002Y-13.485
X11.1002Y-13.5638
X11.1002Y-13.6031
X11.1002Y-13.6819
X11.1002Y-13.7213
X11.1002Y-13.8
X11.1002Y-13.8394
X11.1002Y-13.9181
X11.1002Y-13.9575
X11.1002Y-14.0362
X11.1002Y-14.0756
X11.1002Y-14.1543
X11.1002Y-14.1937
X11.1002Y-14.2724
X11.1002Y-14.3118
X11.1055Y-3.2291
X11.1055Y-3.3079
X11.1055Y-3.3472
X11.1055Y-3.426
X11.1055Y-3.4654
X11.1055Y-3.5441
X11.1055Y-3.5835
X11.1055Y-3.6622
X11.1055Y-3.7016
X11.1055Y-3.7803
X11.1055Y-3.8197
X11.1055Y-3.8984
X11.1055Y-3.9378
X11.1055Y-4.0165
X11.1055Y-4.0559
X11.1055Y-4.1346
X11.1055Y-4.174
X11.1055Y-4.2528
X11.1055Y-4.2921
X11.1055Y-4.3709
X11.1055Y-4.4102
X11.1065Y-9.1937
X11.1065Y-9.2724
X11.1065Y-9.3118
X11.1065Y-9.3906
X11.1065Y-9.4299
X11.1065Y-9.5087
X11.1065Y-9.548
X11.1065Y-9.6268
X11.1065Y-9.6661
X11.1065Y-9.7449
X11.1065Y-9.7843
X11.1065Y-9.863
X11.1065Y-9.9024
X11.1065Y-9.9811
X11.1065Y-10.0205
X11.1065Y-10.0992
X11.1065Y-10.1386
X11.1065Y-10.2173
X11.1065Y-10.2567
X11.1065Y-10.3354
X11.1065Y-10.3748
X11.1065Y-15.1583
X11.1065Y-15.237
X11.1065Y-15.2764
X11.1065Y-15.3551
X11.1065Y-15.3945
X11.1065Y-15.4732
X11.1065Y-15.5126
X11.1065Y-15.5913
X11.1065Y-15.6307
X11.1065Y-15.7094
X11.1065Y-15.7488
X11.1065Y-15.8276
X11.1065Y-15.8669
X11.1065Y-15.9457
X11.1065Y-15.985
X11.1065Y-16.0638
X11.1065Y-16.1031
X11.1065Y-16.1819
X11.1065Y-16.2213
X11.1065Y-16.3
X11.1065Y-16.3394
X11.3413Y-1.489
X11.3413Y-1.5205
X11.3413Y-1.5835
X11.3413Y-1.615
X11.3413Y-1.678
X11.3413Y-1.7094
X11.3413Y-1.8039
X11.3413Y-1.8354
X11.3413Y-1.8984
X11.3413Y-1.9299
X11.3413Y-1.9929
X11.3413Y-2.0559
X11.3413Y-2.1189
X11.3413Y-2.1504
X11.3413Y-2.2134
X11.3413Y-2.2449
X11.3413Y-2.3394
X11.3413Y-2.3709
X11.3413Y-2.4339
X11.3413Y-2.4654
X11.3413Y-2.5283
X11.3413Y-2.5598
X11.3413Y-5.1012
X11.3413Y-5.1642
X11.3413Y-5.1957
X11.3413Y-5.2587
X11.3413Y-5.2902
X11.3413Y-5.3846
X11.3413Y-5.4161
X11.3413Y-5.4791
X11.3413Y-5.5106
X11.3413Y-5.5736
X11.3413Y-5.6051
X11.3413Y-5.6996
X11.3413Y-5.7311
X11.3413Y-5.7941
X11.3413Y-5.8256
X11.3413Y-5.8886
X11.3413Y-5.9516
X11.3413Y-6.0146
X11.3413Y-6.0461
X11.3413Y-6.1091
X11.3413Y-6.1406
X11.3417Y-2.7803
X11.3417Y-2.8118
X11.3417Y-2.8748
X11.3417Y-2.9063
X11.3417Y-2.9693
X11.3417Y-3.0323
X11.3417Y-3.0953
X11.3417Y-3.1268
X11.3417Y-3.1898
X11.3417Y-3.2213
X11.3417Y-3.3157
X11.3417Y-4.4398
X11.3417Y-4.5028
X11.3417Y-4.5343
X11.3417Y-4.5972
X11.3417Y-4.6287
X11.3417Y-4.7232
X11.3417Y-4.7547
X11.3417Y-4.8177
X11.3417Y-4.8492
X11.3417Y-4.9122
X11.3423Y-7.4535
X11.3423Y-7.485
X11.3423Y-7.548
X11.3423Y-7.5795
X11.3423Y-7.6425
X11.3423Y-7.674
X11.3423Y-7.7685
X11.3423Y-7.8
X11.3423Y-7.863
X11.3423Y-7.8945
X11.3423Y-7.9575
X11.3423Y-8.0205
X11.3423Y-8.0835
X11.3423Y-8.115
X11.3423Y-8.178
X11.3423Y-8.2094
X11.3423Y-8.3039
X11.3423Y-8.3354
X11.3423Y-8.3984
X11.3423Y-8.4299
X11.3423Y-8.4929
X11.3423Y-8.5244
X11.3423Y-11.0657
X11.3423Y-11.1287
X11.3423Y-11.1602
X11.3423Y-11.2232
X11.3423Y-11.2547
X11.3423Y-11.3492
X11.3423Y-11.3807
X11.3423Y-11.4437
X11.3423Y-11.4752
X11.3423Y-11.5382
X11.3423Y-11.5697
X11.3423Y-11.6642
X11.3423Y-11.6957
X11.3423Y-11.7587
X11.3423Y-11.7902
X11.3423Y-11.8531
X11.3423Y-11.9161
X11.3423Y-11.9791
X11.3423Y-12.0106
X11.3423Y-12.0736
X11.3423Y-12.1051
X11.3423Y-13.4181
X11.3423Y-13.4496
X11.3423Y-13.5126
X11.3423Y-13.5441
X11.3423Y-13.6071
X11.3423Y-13.6386
X11.3423Y-13.7331
X11.3423Y-13.7646
X11.3423Y-13.8276
X11.3423Y-13.8591
X11.3423Y-13.922
X11.3423Y-13.985
X11.3423Y-14.048
X11.3423Y-14.0795
X11.3423Y-14.1425
X11.3423Y-14.174
X11.3423Y-14.2685
X11.3423Y-14.3
X11.3423Y-14.363
X11.3423Y-14.3945
X11.3423Y-14.4575
X11.3423Y-14.489
X11.3423Y-17.0303
X11.3423Y-17.0933
X11.3423Y-17.1248
X11.3423Y-17.1878
X11.3423Y-17.2193
X11.3423Y-17.3138
X11.3423Y-17.3453
X11.3423Y-17.4083
X11.3423Y-17.4398
X11.3423Y-17.5028
X11.3423Y-17.5343
X11.3423Y-17.6287
X11.3423Y-17.6602
X11.3423Y-17.7232
X11.3423Y-17.7547
X11.3423Y-17.8177
X11.3423Y-17.8807
X11.3423Y-17.9437
X11.3423Y-17.9752
X11.3423Y-18.0382
X11.3423Y-18.0697
X11.3427Y-8.7449
X11.3427Y-8.7764
X11.3427Y-8.8394
X11.3427Y-8.8709
X11.3427Y-8.9339
X11.3427Y-8.9969
X11.3427Y-9.0598
X11.3427Y-9.0913
X11.3427Y-9.1543
X11.3427Y-9.1858
X11.3427Y-9.2803
X11.3427Y-10.4043
X11.3427Y-10.4673
X11.3427Y-10.4988
X11.3427Y-10.5618
X11.3427Y-10.5933
X11.3427Y-10.6878
X11.3427Y-10.7193
X11.3427Y-10.7823
X11.3427Y-10.8138
X11.3427Y-10.8768
X11.3427Y-14.7094
X11.3427Y-14.7409
X11.3427Y-14.8039
X11.3427Y-14.8354
X11.3427Y-14.8984
X11.3427Y-14.9614
X11.3427Y-15.0244
X11.3427Y-15.0559
X11.3427Y-15.1189
X11.3427Y-15.1504
X11.3427Y-15.2449
X11.3427Y-16.3689
X11.3427Y-16.4319
X11.3427Y-16.4634
X11.3427Y-16.5264
X11.3427Y-16.5579
X11.3427Y-16.6524
X11.3427Y-16.6839
X11.3427Y-16.7469
X11.3427Y-16.7783
X11.3427Y-16.8413
X11.6338Y-2.7801
X11.6338Y-2.8116
X11.6338Y-2.8746
X11.6338Y-2.9061
X11.6338Y-2.9691
X11.6338Y-3.0321
X11.6338Y-3.0951
X11.6338Y-3.1266
X11.6338Y-3.1896
X11.6338Y-3.2211
X11.6338Y-3.3156
X11.6338Y-4.4396
X11.6338Y-4.5026
X11.6338Y-4.5341
X11.6338Y-4.597
X11.6338Y-4.6285
X11.6338Y-4.723
X11.6338Y-4.7545
X11.6338Y-4.8175
X11.6338Y-4.849
X11.6338Y-4.912
X11.6342Y-1.4888
X11.6342Y-1.5203
X11.6342Y-1.5833
X11.6342Y-1.6148
X11.6342Y-1.6778
X11.6342Y-1.7093
X11.6342Y-1.8037
X11.6342Y-1.8352
X11.6342Y-1.8982
X11.6342Y-1.9297
X11.6342Y-1.9927
X11.6342Y-2.0557
X11.6342Y-2.1187
X11.6342Y-2.1502
X11.6342Y-2.2132
X11.6342Y-2.2447
X11.6342Y-2.3392
X11.6342Y-2.3707
X11.6342Y-2.4337
X11.6342Y-2.4652
X11.6342Y-2.5281
X11.6342Y-2.5596
X11.6342Y-5.101
X11.6342Y-5.164
X11.6342Y-5.1955
X11.6342Y-5.2585
X11.6342Y-5.29
X11.6342Y-5.3844
X11.6342Y-5.4159
X11.6342Y-5.4789
X11.6342Y-5.5104
X11.6342Y-5.5734
X11.6342Y-5.6049
X11.6342Y-5.6994
X11.6342Y-5.7309
X11.6342Y-5.7939
X11.6342Y-5.8254
X11.6342Y-5.8884
X11.6342Y-5.9514
X11.6342Y-6.0144
X11.6342Y-6.0459
X11.6342Y-6.1089
X11.6342Y-6.1404
X11.6348Y-8.7447
X11.6348Y-8.7762
X11.6348Y-8.8392
X11.6348Y-8.8707
X11.6348Y-8.9337
X11.6348Y-8.9967
X11.6348Y-9.0596
X11.6348Y-9.0911
X11.6348Y-9.1541
X11.6348Y-9.1856
X11.6348Y-9.2801
X11.6348Y-10.4041
X11.6348Y-10.4671
X11.6348Y-10.4986
X11.6348Y-10.5616
X11.6348Y-10.5931
X11.6348Y-10.6876
X11.6348Y-10.7191
X11.6348Y-10.7821
X11.6348Y-10.8136
X11.6348Y-10.8766
X11.6348Y-14.7093
X11.6348Y-14.7407
X11.6348Y-14.8037
X11.6348Y-14.8352
X11.6348Y-14.8982
X11.6348Y-14.9612
X11.6348Y-15.0242
X11.6348Y-15.0557
X11.6348Y-15.1187
X11.6348Y-15.1502
X11.6348Y-15.2447
X11.6348Y-16.3687
X11.6348Y-16.4317
X11.6348Y-16.4632
X11.6348Y-16.5262
X11.6348Y-16.5577
X11.6348Y-16.6522
X11.6348Y-16.6837
X11.6348Y-16.7467
X11.6348Y-16.7781
X11.6348Y-16.8411
X11.6352Y-7.4533
X11.6352Y-7.4848
X11.6352Y-7.5478
X11.6352Y-7.5793
X11.6352Y-7.6423
X11.6352Y-7.6738
X11.6352Y-7.7683
X11.6352Y-7.7998
X11.6352Y-7.8628
X11.6352Y-7.8943
X11.6352Y-7.9573
X11.6352Y-8.0203
X11.6352Y-8.0833
X11.6352Y-8.1148
X11.6352Y-8.1778
X11.6352Y-8.2093
X11.6352Y-8.3037
X11.6352Y-8.3352
X11.6352Y-8.3982
X11.6352Y-8.4297
X11.6352Y-8.4927
X11.6352Y-8.5242
X11.6352Y-11.0656
X11.6352Y-11.1285
X11.6352Y-11.16
X11.6352Y-11.223
X11.6352Y-11.2545
X11.6352Y-11.349
X11.6352Y-11.3805
X11.6352Y-11.4435
X11.6352Y-11.475
X11.6352Y-11.538
X11.6352Y-11.5695
X11.6352Y-11.664
X11.6352Y-11.6955
X11.6352Y-11.7585
X11.6352Y-11.79
X11.6352Y-11.853
X11.6352Y-11.9159
X11.6352Y-11.9789
X11.6352Y-12.0104
X11.6352Y-12.0734
X11.6352Y-12.1049
X11.6352Y-13.4179
X11.6352Y-13.4494
X11.6352Y-13.5124
X11.6352Y-13.5439
X11.6352Y-13.6069
X11.6352Y-13.6384
X11.6352Y-13.7329
X11.6352Y-13.7644
X11.6352Y-13.8274
X11.6352Y-13.8589
X11.6352Y-13.9219
X11.6352Y-13.9848
X11.6352Y-14.0478
X11.6352Y-14.0793
X11.6352Y-14.1423
X11.6352Y-14.1738
X11.6352Y-14.2683
X11.6352Y-14.2998
X11.6352Y-14.3628
X11.6352Y-14.3943
X11.6352Y-14.4573
X11.6352Y-14.4888
X11.6352Y-17.0301
X11.6352Y-17.0931
X11.6352Y-17.1246
X11.6352Y-17.1876
X11.6352Y-17.2191
X11.6352Y-17.3136
X11.6352Y-17.3451
X11.6352Y-17.4081
X11.6352Y-17.4396
X11.6352Y-17.5026
X11.6352Y-17.5341
X11.6352Y-17.6285
X11.6352Y-17.66
X11.6352Y-17.723
X11.6352Y-17.7545
X11.6352Y-17.8175
X11.6352Y-17.8805
X11.6352Y-17.9435
X11.6352Y-17.975
X11.6352Y-18.038
X11.6352Y-18.0695
X11.8701Y-3.2289
X11.8701Y-3.3077
X11.8701Y-3.347
X11.8701Y-3.4258
X11.8701Y-3.4652
X11.8701Y-3.5439
X11.8701Y-3.5833
X11.8701Y-3.662
X11.8701Y-3.7014
X11.8701Y-3.7801
X11.8701Y-3.8195
X11.8701Y-3.8982
X11.8701Y-3.9376
X11.8701Y-4.0163
X11.8701Y-4.0557
X11.8701Y-4.1344
X11.8701Y-4.1738
X11.8701Y-4.2526
X11.8701Y-4.2919
X11.8701Y-4.3707
X11.8701Y-4.41
X11.8711Y-9.1935
X11.8711Y-9.2722
X11.8711Y-9.3116
X11.8711Y-9.3904
X11.8711Y-9.4297
X11.8711Y-9.5085
X11.8711Y-9.5478
X11.8711Y-9.6266
X11.8711Y-9.6659
X11.8711Y-9.7447
X11.8711Y-9.7841
X11.8711Y-9.8628
X11.8711Y-9.9022
X11.8711Y-9.9809
X11.8711Y-10.0203
X11.8711Y-10.099
X11.8711Y-10.1384
X11.8711Y-10.2171
X11.8711Y-10.2565
X11.8711Y-10.3352
X11.8711Y-10.3746
X11.8711Y-15.1581
X11.8711Y-15.2368
X11.8711Y-15.2762
X11.8711Y-15.3549
X11.8711Y-15.3943
X11.8711Y-15.473
X11.8711Y-15.5124
X11.8711Y-15.5911
X11.8711Y-15.6305
X11.8711Y-15.7093
X11.8711Y-15.7486
X11.8711Y-15.8274
X11.8711Y-15.8667
X11.8711Y-15.9455
X11.8711Y-15.9848
X11.8711Y-16.0636
X11.8711Y-16.103
X11.8711Y-16.1817
X11.8711Y-16.2211
X11.8711Y-16.2998
X11.8711Y-16.3392
X11.8764Y-1.3982
X11.8764Y-1.4376
X11.8764Y-1.5163
X11.8764Y-1.5557
X11.8764Y-1.6344
X11.8764Y-1.6738
X11.8764Y-1.7526
X11.8764Y-1.7919
X11.8764Y-1.8707
X11.8764Y-1.91
X11.8764Y-1.9888
X11.8764Y-2.0281
X11.8764Y-2.1069
X11.8764Y-2.1463
X11.8764Y-2.225
X11.8764Y-2.2644
X11.8764Y-2.3431
X11.8764Y-2.3825
X11.8768Y-1.3191
X11.8768Y-5.2167
X11.8768Y-5.2561
X11.8768Y-5.3348
X11.8768Y-5.3742
X11.8768Y-5.453
X11.8768Y-5.4923
X11.8768Y-5.5711
X11.8768Y-5.6104
X11.8768Y-5.6892
X11.8768Y-5.7285
X11.8768Y-5.8073
X11.8768Y-5.8467
X11.8768Y-5.9254
X11.8768Y-5.9648
X11.8768Y-6.0435
X11.8768Y-6.0829
X11.8768Y-6.1616
X11.8768Y-6.201
X11.8768Y-6.2797
X11.8768Y-6.3191
X11.8768Y-6.3978
X11.8768Y-6.4372
X11.8773Y-7.3628
X11.8773Y-7.4022
X11.8773Y-7.4809
X11.8773Y-7.5203
X11.8773Y-7.599
X11.8773Y-7.6384
X11.8773Y-7.7171
X11.8773Y-7.7565
X11.8773Y-7.8352
X11.8773Y-7.8746
X11.8773Y-7.9533
X11.8773Y-7.9927
X11.8773Y-8.0715
X11.8773Y-8.1108
X11.8773Y-8.1896
X11.8773Y-8.2289
X11.8773Y-8.3077
X11.8773Y-8.347
X11.8773Y-13.3274
X11.8773Y-13.3667
X11.8773Y-13.4455
X11.8773Y-13.4848
X11.8773Y-13.5636
X11.8773Y-13.603
X11.8773Y-13.6817
X11.8773Y-13.7211
X11.8773Y-13.7998
X11.8773Y-13.8392
X11.8773Y-13.9179
X11.8773Y-13.9573
X11.8773Y-14.036
X11.8773Y-14.0754
X11.8773Y-14.1541
X11.8773Y-14.1935
X11.8773Y-14.2722
X11.8773Y-14.3116
X11.8777Y-7.2837
X11.8777Y-11.1813
X11.8777Y-11.2207
X11.8777Y-11.2994
X11.8777Y-11.3388
X11.8777Y-11.4175
X11.8777Y-11.4569
X11.8777Y-11.5356
X11.8777Y-11.575
X11.8777Y-11.6537
X11.8777Y-11.6931
X11.8777Y-11.7719
X11.8777Y-11.8112
X11.8777Y-11.89
X11.8777Y-11.9293
X11.8777Y-12.0081
X11.8777Y-12.0474
X11.8777Y-12.1262
X11.8777Y-12.1656
X11.8777Y-12.2443
X11.8777Y-12.2837
X11.8777Y-12.3624
X11.8777Y-12.4018
X11.8777Y-13.2482
X11.8777Y-17.1459
X11.8777Y-17.1852
X11.8777Y-17.264
X11.8777Y-17.3033
X11.8777Y-17.3821
X11.8777Y-17.4215
X11.8777Y-17.5002
X11.8777Y-17.5396
X11.8777Y-17.6183
X11.8777Y-17.6577
X11.8777Y-17.7364
X11.8777Y-17.7758
X11.8777Y-17.8545
X11.8777Y-17.8939
X11.8777Y-17.9726
X11.8777Y-18.012
X11.8777Y-18.0907
X11.8777Y-18.1301
X11.8777Y-18.2089
X11.8777Y-18.2482
X11.8777Y-18.327
X11.8777Y-18.3663
X11.8787Y-1.2797
X11.8797Y-7.2443
X11.8797Y-13.2089
X11.8803Y-2.4612
X11.8813Y-8.4258
X11.8813Y-14.3904
X13.0835Y-2.4614
X13.0844Y-8.426
X13.0844Y-14.3906
X13.085Y-1.2799
X13.0856Y-7.2441
X13.086Y-13.2091
X13.087Y-1.3193
X13.087Y-5.2169
X13.087Y-5.2563
X13.087Y-5.335
X13.087Y-5.3744
X13.087Y-5.4531
X13.087Y-5.4925
X13.087Y-5.5713
X13.087Y-5.6106
X13.087Y-5.6894
X13.087Y-5.7287
X13.087Y-5.8075
X13.087Y-5.8469
X13.087Y-5.9256
X13.087Y-5.965
X13.087Y-6.0437
X13.087Y-6.0831
X13.087Y-6.1618
X13.087Y-6.2012
X13.087Y-6.2799
X13.087Y-6.3193
X13.087Y-6.398
X13.087Y-6.4374
X13.0874Y-1.3984
X13.0874Y-1.4378
X13.0874Y-1.5165
X13.0874Y-1.5559
X13.0874Y-1.6346
X13.0874Y-1.674
X13.0874Y-1.7528
X13.0874Y-1.7921
X13.0874Y-1.8709
X13.0874Y-1.9102
X13.0874Y-1.989
X13.0874Y-2.0283
X13.0874Y-2.1071
X13.0874Y-2.1465
X13.0874Y-2.2252
X13.0874Y-2.2646
X13.0874Y-2.3433
X13.0874Y-2.3827
X13.088Y-7.2839
X13.088Y-11.1815
X13.088Y-11.2209
X13.088Y-11.2996
X13.088Y-11.339
X13.088Y-11.4177
X13.088Y-11.4571
X13.088Y-11.5358
X13.088Y-11.5752
X13.088Y-11.6539
X13.088Y-11.6933
X13.088Y-11.772
X13.088Y-11.8114
X13.088Y-11.8902
X13.088Y-11.9295
X13.088Y-12.0083
X13.088Y-12.0476
X13.088Y-12.1264
X13.088Y-12.1657
X13.088Y-12.2445
X13.088Y-12.2839
X13.088Y-12.3626
X13.088Y-12.402
X13.088Y-13.2484
X13.088Y-17.1461
X13.088Y-17.1854
X13.088Y-17.2642
X13.088Y-17.3035
X13.088Y-17.3823
X13.088Y-17.4217
X13.088Y-17.5004
X13.088Y-17.5398
X13.088Y-17.6185
X13.088Y-17.6579
X13.088Y-17.7366
X13.088Y-17.776
X13.088Y-17.8547
X13.088Y-17.8941
X13.088Y-17.9728
X13.088Y-18.0122
X13.088Y-18.0909
X13.088Y-18.1303
X13.088Y-18.2091
X13.088Y-18.2484
X13.088Y-18.3272
X13.088Y-18.3665
X13.0884Y-7.363
X13.0884Y-7.4024
X13.0884Y-7.4811
X13.0884Y-7.5205
X13.0884Y-7.5992
X13.0884Y-7.6386
X13.0884Y-7.7173
X13.0884Y-7.7567
X13.0884Y-7.8354
X13.0884Y-7.8748
X13.0884Y-7.9535
X13.0884Y-7.9929
X13.0884Y-8.0717
X13.0884Y-8.111
X13.0884Y-8.1898
X13.0884Y-8.2291
X13.0884Y-8.3079
X13.0884Y-8.3472
X13.0884Y-13.3276
X13.0884Y-13.3669
X13.0884Y-13.4457
X13.0884Y-13.485
X13.0884Y-13.5638
X13.0884Y-13.6031
X13.0884Y-13.6819
X13.0884Y-13.7213
X13.0884Y-13.8
X13.0884Y-13.8394
X13.0884Y-13.9181
X13.0884Y-13.9575
X13.0884Y-14.0362
X13.0884Y-14.0756
X13.0884Y-14.1543
X13.0884Y-14.1937
X13.0884Y-14.2724
X13.0884Y-14.3118
X13.0937Y-3.2291
X13.0937Y-3.3079
X13.0937Y-3.3472
X13.0937Y-3.426
X13.0937Y-3.4654
X13.0937Y-3.5441
X13.0937Y-3.5835
X13.0937Y-3.6622
X13.0937Y-3.7016
X13.0937Y-3.7803
X13.0937Y-3.8197
X13.0937Y-3.8984
X13.0937Y-3.9378
X13.0937Y-4.0165
X13.0937Y-4.0559
X13.0937Y-4.1346
X13.0937Y-4.174
X13.0937Y-4.2528
X13.0937Y-4.2921
X13.0937Y-4.3709
X13.0937Y-4.4102
X13.0947Y-9.1937
X13.0947Y-9.2724
X13.0947Y-9.3118
X13.0947Y-9.3906
X13.0947Y-9.4299
X13.0947Y-9.5087
X13.0947Y-9.548
X13.0947Y-9.6268
X13.0947Y-9.6661
X13.0947Y-9.7449
X13.0947Y-9.7843
X13.0947Y-9.863
X13.0947Y-9.9024
X13.0947Y-9.9811
X13.0947Y-10.0205
X13.0947Y-10.0992
X13.0947Y-10.1386
X13.0947Y-10.2173
X13.0947Y-10.2567
X13.0947Y-10.3354
X13.0947Y-10.3748
X13.0947Y-15.1583
X13.0947Y-15.237
X13.0947Y-15.2764
X13.0947Y-15.3551
X13.0947Y-15.3945
X13.0947Y-15.4732
X13.0947Y-15.5126
X13.0947Y-15.5913
X13.0947Y-15.6307
X13.0947Y-15.7094
X13.0947Y-15.7488
X13.0947Y-15.8276
X13.0947Y-15.8669
X13.0947Y-15.9457
X13.0947Y-15.985
X13.0947Y-16.0638
X13.0947Y-16.1031
X13.0947Y-16.1819
X13.0947Y-16.2213
X13.0947Y-16.3
X13.0947Y-16.3394
X13.3295Y-1.489
X13.3295Y-1.5205
X13.3295Y-1.5835
X13.3295Y-1.615
X13.3295Y-1.678
X13.3295Y-1.7094
X13.3295Y-1.8039
X13.3295Y-1.8354
X13.3295Y-1.8984
X13.3295Y-1.9299
X13.3295Y-1.9929
X13.3295Y-2.0559
X13.3295Y-2.1189
X13.3295Y-2.1504
X13.3295Y-2.2134
X13.3295Y-2.2449
X13.3295Y-2.3394
X13.3295Y-2.3709
X13.3295Y-2.4339
X13.3295Y-2.4654
X13.3295Y-2.5283
X13.3295Y-2.5598
X13.3295Y-5.1012
X13.3295Y-5.1642
X13.3295Y-5.1957
X13.3295Y-5.2587
X13.3295Y-5.2902
X13.3295Y-5.3846
X13.3295Y-5.4161
X13.3295Y-5.4791
X13.3295Y-5.5106
X13.3295Y-5.5736
X13.3295Y-5.6051
X13.3295Y-5.6996
X13.3295Y-5.7311
X13.3295Y-5.7941
X13.3295Y-5.8256
X13.3295Y-5.8886
X13.3295Y-5.9516
X13.3295Y-6.0146
X13.3295Y-6.0461
X13.3295Y-6.1091
X13.3295Y-6.1406
X13.3299Y-2.7803
X13.3299Y-2.8118
X13.3299Y-2.8748
X13.3299Y-2.9063
X13.3299Y-2.9693
X13.3299Y-3.0323
X13.3299Y-3.0953
X13.3299Y-3.1268
X13.3299Y-3.1898
X13.3299Y-3.2213
X13.3299Y-3.3157
X13.3299Y-4.4398
X13.3299Y-4.5028
X13.3299Y-4.5343
X13.3299Y-4.5972
X13.3299Y-4.6287
X13.3299Y-4.7232
X13.3299Y-4.7547
X13.3299Y-4.8177
X13.3299Y-4.8492
X13.3299Y-4.9122
X13.3305Y-7.4535
X13.3305Y-7.485
X13.3305Y-7.548
X13.3305Y-7.5795
X13.3305Y-7.6425
X13.3305Y-7.674
X13.3305Y-7.7685
X13.3305Y-7.8
X13.3305Y-7.863
X13.3305Y-7.8945
X13.3305Y-7.9575
X13.3305Y-8.0205
X13.3305Y-8.0835
X13.3305Y-8.115
X13.3305Y-8.178
X13.3305Y-8.2094
X13.3305Y-8.3039
X13.3305Y-8.3354
X13.3305Y-8.3984
X13.3305Y-8.4299
X13.3305Y-8.4929
X13.3305Y-8.5244
X13.3305Y-11.0657
X13.3305Y-11.1287
X13.3305Y-11.1602
X13.3305Y-11.2232
X13.3305Y-11.2547
X13.3305Y-11.3492
X13.3305Y-11.3807
X13.3305Y-11.4437
X13.3305Y-11.4752
X13.3305Y-11.5382
X13.3305Y-11.5697
X13.3305Y-11.6642
X13.3305Y-11.6957
X13.3305Y-11.7587
X13.3305Y-11.7902
X13.3305Y-11.8531
X13.3305Y-11.9161
X13.3305Y-11.9791
X13.3305Y-12.0106
X13.3305Y-12.0736
X13.3305Y-12.1051
X13.3305Y-13.4181
X13.3305Y-13.4496
X13.3305Y-13.5126
X13.3305Y-13.5441
X13.3305Y-13.6071
X13.3305Y-13.6386
X13.3305Y-13.7331
X13.3305Y-13.7646
X13.3305Y-13.8276
X13.3305Y-13.8591
X13.3305Y-13.922
X13.3305Y-13.985
X13.3305Y-14.048
X13.3305Y-14.0795
X13.3305Y-14.1425
X13.3305Y-14.174
X13.3305Y-14.2685
X13.3305Y-14.3
X13.3305Y-14.363
X13.3305Y-14.3945
X13.3305Y-14.4575
X13.3305Y-14.489
X13.3305Y-17.0303
X13.3305Y-17.0933
X13.3305Y-17.1248
X13.3305Y-17.1878
X13.3305Y-17.2193
X13.3305Y-17.3138
X13.3305Y-17.3453
X13.3305Y-17.4083
X13.3305Y-17.4398
X13.3305Y-17.5028
X13.3305Y-17.5343
X13.3305Y-17.6287
X13.3305Y-17.6602
X13.3305Y-17.7232
X13.3305Y-17.7547
X13.3305Y-17.8177
X13.3305Y-17.8807
X13.3305Y-17.9437
X13.3305Y-17.9752
X13.3305Y-18.0382
X13.3305Y-18.0697
X13.3309Y-8.7449
X13.3309Y-8.7764
X13.3309Y-8.8394
X13.3309Y-8.8709
X13.3309Y-8.9339
X13.3309Y-8.9969
X13.3309Y-9.0598
X13.3309Y-9.0913
X13.3309Y-9.1543
X13.3309Y-9.1858
X13.3309Y-9.2803
X13.3309Y-10.4043
X13.3309Y-10.4673
X13.3309Y-10.4988
X13.3309Y-10.5618
X13.3309Y-10.5933
X13.3309Y-10.6878
X13.3309Y-10.7193
X13.3309Y-10.7823
X13.3309Y-10.8138
X13.3309Y-10.8768
X13.3309Y-14.7094
X13.3309Y-14.7409
X13.3309Y-14.8039
X13.3309Y-14.8354
X13.3309Y-14.8984
X13.3309Y-14.9614
X13.3309Y-15.0244
X13.3309Y-15.0559
X13.3309Y-15.1189
X13.3309Y-15.1504
X13.3309Y-15.2449
X13.3309Y-16.3689
X13.3309Y-16.4319
X13.3309Y-16.4634
X13.3309Y-16.5264
X13.3309Y-16.5579
X13.3309Y-16.6524
X13.3309Y-16.6839
X13.3309Y-16.7469
X13.3309Y-16.7783
X13.3309Y-16.8413
X13.622Y-2.7801
X13.622Y-2.8116
X13.622Y-2.8746
X13.622Y-2.9061
X13.622Y-2.9691
X13.622Y-3.0321
X13.622Y-3.0951
X13.622Y-3.1266
X13.622Y-3.1896
X13.622Y-3.2211
X13.622Y-3.3156
X13.622Y-4.4396
X13.622Y-4.5026
X13.622Y-4.5341
X13.622Y-4.597
X13.622Y-4.6285
X13.622Y-4.723
X13.622Y-4.7545
X13.622Y-4.8175
X13.622Y-4.849
X13.622Y-4.912
X13.6224Y-1.4888
X13.6224Y-1.5203
X13.6224Y-1.5833
X13.6224Y-1.6148
X13.6224Y-1.6778
X13.6224Y-1.7093
X13.6224Y-1.8037
X13.6224Y-1.8352
X13.6224Y-1.8982
X13.6224Y-1.9297
X13.6224Y-1.9927
X13.6224Y-2.0557
X13.6224Y-2.1187
X13.6224Y-2.1502
X13.6224Y-2.2132
X13.6224Y-2.2447
X13.6224Y-2.3392
X13.6224Y-2.3707
X13.6224Y-2.4337
X13.6224Y-2.4652
X13.6224Y-2.5281
X13.6224Y-2.5596
X13.6224Y-5.101
X13.6224Y-5.164
X13.6224Y-5.1955
X13.6224Y-5.2585
X13.6224Y-5.29
X13.6224Y-5.3844
X13.6224Y-5.4159
X13.6224Y-5.4789
X13.6224Y-5.5104
X13.6224Y-5.5734
X13.6224Y-5.6049
X13.6224Y-5.6994
X13.6224Y-5.7309
X13.6224Y-5.7939
X13.6224Y-5.8254
X13.6224Y-5.8884
X13.6224Y-5.9514
X13.6224Y-6.0144
X13.6224Y-6.0459
X13.6224Y-6.1089
X13.6224Y-6.1404
X13.623Y-8.7447
X13.623Y-8.7762
X13.623Y-8.8392
X13.623Y-8.8707
X13.623Y-8.9337
X13.623Y-8.9967
X13.623Y-9.0596
X13.623Y-9.0911
X13.623Y-9.1541
X13.623Y-9.1856
X13.623Y-9.2801
X13.623Y-10.4041
X13.623Y-10.4671
X13.623Y-10.4986
X13.623Y-10.5616
X13.623Y-10.5931
X13.623Y-10.6876
X13.623Y-10.7191
X13.623Y-10.7821
X13.623Y-10.8136
X13.623Y-10.8766
X13.623Y-14.7093
X13.623Y-14.7407
X13.623Y-14.8037
X13.623Y-14.8352
X13.623Y-14.8982
X13.623Y-14.9612
X13.623Y-15.0242
X13.623Y-15.0557
X13.623Y-15.1187
X13.623Y-15.1502
X13.623Y-15.2447
X13.623Y-16.3687
X13.623Y-16.4317
X13.623Y-16.4632
X13.623Y-16.5262
X13.623Y-16.5577
X13.623Y-16.6522
X13.623Y-16.6837
X13.623Y-16.7467
X13.623Y-16.7781
X13.623Y-16.8411
X13.6234Y-7.4533
X13.6234Y-7.4848
X13.6234Y-7.5478
X13.6234Y-7.5793
X13.6234Y-7.6423
X13.6234Y-7.6738
X13.6234Y-7.7683
X13.6234Y-7.7998
X13.6234Y-7.8628
X13.6234Y-7.8943
X13.6234Y-7.9573
X13.6234Y-8.0203
X13.6234Y-8.0833
X13.6234Y-8.1148
X13.6234Y-8.1778
X13.6234Y-8.2093
X13.6234Y-8.3037
X13.6234Y-8.3352
X13.6234Y-8.3982
X13.6234Y-8.4297
X13.6234Y-8.4927
X13.6234Y-8.5242
X13.6234Y-11.0656
X13.6234Y-11.1285
X13.6234Y-11.16
X13.6234Y-11.223
X13.6234Y-11.2545
X13.6234Y-11.349
X13.6234Y-11.3805
X13.6234Y-11.4435
X13.6234Y-11.475
X13.6234Y-11.538
X13.6234Y-11.5695
X13.6234Y-11.664
X13.6234Y-11.6955
X13.6234Y-11.7585
X13.6234Y-11.79
X13.6234Y-11.853
X13.6234Y-11.9159
X13.6234Y-11.9789
X13.6234Y-12.0104
X13.6234Y-12.0734
X13.6234Y-12.1049
X13.6234Y-13.4179
X13.6234Y-13.4494
X13.6234Y-13.5124
X13.6234Y-13.5439
X13.6234Y-13.6069
X13.6234Y-13.6384
X13.6234Y-13.7329
X13.6234Y-13.7644
X13.6234Y-13.8274
X13.6234Y-13.8589
X13.6234Y-13.9219
X13.6234Y-13.9848
X13.6234Y-14.0478
X13.6234Y-14.0793
X13.6234Y-14.1423
X13.6234Y-14.1738
X13.6234Y-14.2683
X13.6234Y-14.2998
X13.6234Y-14.3628
X13.6234Y-14.3943
X13.6234Y-14.4573
X13.6234Y-14.4888
X13.6234Y-17.0301
X13.6234Y-17.0931
X13.6234Y-17.1246
X13.6234Y-17.1876
X13.6234Y-17.2191
X13.6234Y-17.3136
X13.6234Y-17.3451
X13.6234Y-17.4081
X13.6234Y-17.4396
X13.6234Y-17.5026
X13.6234Y-17.5341
X13.6234Y-17.6285
X13.6234Y-17.66
X13.6234Y-17.723
X13.6234Y-17.7545
X13.6234Y-17.8175
X13.6234Y-17.8805
X13.6234Y-17.9435
X13.6234Y-17.975
X13.6234Y-18.038
X13.6234Y-18.0695
X13.8583Y-3.2289
X13.8583Y-3.3077
X13.8583Y-3.347
X13.8583Y-3.4258
X13.8583Y-3.4652
X13.8583Y-3.5439
X13.8583Y-3.5833
X13.8583Y-3.662
X13.8583Y-3.7014
X13.8583Y-3.7801
X13.8583Y-3.8195
X13.8583Y-3.8982
X13.8583Y-3.9376
X13.8583Y-4.0163
X13.8583Y-4.0557
X13.8583Y-4.1344
X13.8583Y-4.1738
X13.8583Y-4.2526
X13.8583Y-4.2919
X13.8583Y-4.3707
X13.8583Y-4.41
X13.8592Y-9.1935
X13.8592Y-9.2722
X13.8592Y-9.3116
X13.8592Y-9.3904
X13.8592Y-9.4297
X13.8592Y-9.5085
X13.8592Y-9.5478
X13.8592Y-9.6266
X13.8592Y-9.6659
X13.8592Y-9.7447
X13.8592Y-9.7841
X13.8592Y-9.8628
X13.8592Y-9.9022
X13.8592Y-9.9809
X13.8592Y-10.0203
X13.8592Y-10.099
X13.8592Y-10.1384
X13.8592Y-10.2171
X13.8592Y-10.2565
X13.8592Y-10.3352
X13.8592Y-10.3746
X13.8592Y-15.1581
X13.8592Y-15.2368
X13.8592Y-15.2762
X13.8592Y-15.3549
X13.8592Y-15.3943
X13.8592Y-15.473
X13.8592Y-15.5124
X13.8592Y-15.5911
X13.8592Y-15.6305
X13.8592Y-15.7093
X13.8592Y-15.7486
X13.8592Y-15.8274
X13.8592Y-15.8667
X13.8592Y-15.9455
X13.8592Y-15.9848
X13.8592Y-16.0636
X13.8592Y-16.103
X13.8592Y-16.1817
X13.8592Y-16.2211
X13.8592Y-16.2998
X13.8592Y-16.3392
X13.8646Y-1.3982
X13.8646Y-1.4376
X13.8646Y-1.5163
X13.8646Y-1.5557
X13.8646Y-1.6344
X13.8646Y-1.6738
X13.8646Y-1.7526
X13.8646Y-1.7919
X13.8646Y-1.8707
X13.8646Y-1.91
X13.8646Y-1.9888
X13.8646Y-2.0281
X13.8646Y-2.1069
X13.8646Y-2.1463
X13.8646Y-2.225
X13.8646Y-2.2644
X13.8646Y-2.3431
X13.8646Y-2.3825
X13.8649Y-1.3191
X13.8649Y-5.2167
X13.8649Y-5.2561
X13.8649Y-5.3348
X13.8649Y-5.3742
X13.8649Y-5.453
X13.8649Y-5.4923
X13.8649Y-5.5711
X13.8649Y-5.6104
X13.8649Y-5.6892
X13.8649Y-5.7285
X13.8649Y-5.8073
X13.8649Y-5.8467
X13.8649Y-5.9254
X13.8649Y-5.9648
X13.8649Y-6.0435
X13.8649Y-6.0829
X13.8649Y-6.1616
X13.8649Y-6.201
X13.8649Y-6.2797
X13.8649Y-6.3191
X13.8649Y-6.3978
X13.8649Y-6.4372
X13.8655Y-7.3628
X13.8655Y-7.4022
X13.8655Y-7.4809
X13.8655Y-7.5203
X13.8655Y-7.599
X13.8655Y-7.6384
X13.8655Y-7.7171
X13.8655Y-7.7565
X13.8655Y-7.8352
X13.8655Y-7.8746
X13.8655Y-7.9533
X13.8655Y-7.9927
X13.8655Y-8.0715
X13.8655Y-8.1108
X13.8655Y-8.1896
X13.8655Y-8.2289
X13.8655Y-8.3077
X13.8655Y-8.347
X13.8655Y-13.3274
X13.8655Y-13.3667
X13.8655Y-13.4455
X13.8655Y-13.4848
X13.8655Y-13.5636
X13.8655Y-13.603
X13.8655Y-13.6817
X13.8655Y-13.7211
X13.8655Y-13.7998
X13.8655Y-13.8392
X13.8655Y-13.9179
X13.8655Y-13.9573
X13.8655Y-14.036
X13.8655Y-14.0754
X13.8655Y-14.1541
X13.8655Y-14.1935
X13.8655Y-14.2722
X13.8655Y-14.3116
X13.8659Y-7.2837
X13.8659Y-11.1813
X13.8659Y-11.2207
X13.8659Y-11.2994
X13.8659Y-11.3388
X13.8659Y-11.4175
X13.8659Y-11.4569
X13.8659Y-11.5356
X13.8659Y-11.575
X13.8659Y-11.6537
X13.8659Y-11.6931
X13.8659Y-11.7719
X13.8659Y-11.8112
X13.8659Y-11.89
X13.8659Y-11.9293
X13.8659Y-12.0081
X13.8659Y-12.0474
X13.8659Y-12.1262
X13.8659Y-12.1656
X13.8659Y-12.2443
X13.8659Y-12.2837
X13.8659Y-12.3624
X13.8659Y-12.4018
X13.8659Y-13.2482
X13.8659Y-17.1459
X13.8659Y-17.1852
X13.8659Y-17.264
X13.8659Y-17.3033
X13.8659Y-17.3821
X13.8659Y-17.4215
X13.8659Y-17.5002
X13.8659Y-17.5396
X13.8659Y-17.6183
X13.8659Y-17.6577
X13.8659Y-17.7364
X13.8659Y-17.7758
X13.8659Y-17.8545
X13.8659Y-17.8939
X13.8659Y-17.9726
X13.8659Y-18.012
X13.8659Y-18.0907
X13.8659Y-18.1301
X13.8659Y-18.2089
X13.8659Y-18.2482
X13.8659Y-18.327
X13.8659Y-18.3663
X13.8669Y-1.2797
X13.8679Y-7.2443
X13.8679Y-13.2089
X13.8685Y-2.4612
X13.8695Y-8.4258
X13.8695Y-14.3904
X15.0716Y-2.4614
X15.0726Y-8.426
X15.0726Y-14.3906
X15.0732Y-1.2799
X15.0738Y-7.2441
X15.0742Y-13.2091
X15.0752Y-1.3193
X15.0752Y-5.2169
X15.0752Y-5.2563
X15.0752Y-5.335
X15.0752Y-5.3744
X15.0752Y-5.4531
X15.0752Y-5.4925
X15.0752Y-5.5713
X15.0752Y-5.6106
X15.0752Y-5.6894
X15.0752Y-5.7287
X15.0752Y-5.8075
X15.0752Y-5.8469
X15.0752Y-5.9256
X15.0752Y-5.965
X15.0752Y-6.0437
X15.0752Y-6.0831
X15.0752Y-6.1618
X15.0752Y-6.2012
X15.0752Y-6.2799
X15.0752Y-6.3193
X15.0752Y-6.398
X15.0752Y-6.4374
X15.0756Y-1.3984
X15.0756Y-1.4378
X15.0756Y-1.5165
X15.0756Y-1.5559
X15.0756Y-1.6346
X15.0756Y-1.674
X15.0756Y-1.7528
X15.0756Y-1.7921
X15.0756Y-1.8709
X15.0756Y-1.9102
X15.0756Y-1.989
X15.0756Y-2.0283
X15.0756Y-2.1071
X15.0756Y-2.1465
X15.0756Y-2.2252
X15.0756Y-2.2646
X15.0756Y-2.3433
X15.0756Y-2.3827
X15.0762Y-7.2839
X15.0762Y-11.1815
X15.0762Y-11.2209
X15.0762Y-11.2996
X15.0762Y-11.339
X15.0762Y-11.4177
X15.0762Y-11.4571
X15.0762Y-11.5358
X15.0762Y-11.5752
X15.0762Y-11.6539
X15.0762Y-11.6933
X15.0762Y-11.772
X15.0762Y-11.8114
X15.0762Y-11.8902
X15.0762Y-11.9295
X15.0762Y-12.0083
X15.0762Y-12.0476
X15.0762Y-12.1264
X15.0762Y-12.1657
X15.0762Y-12.2445
X15.0762Y-12.2839
X15.0762Y-12.3626
X15.0762Y-12.402
X15.0762Y-13.2484
X15.0762Y-17.1461
X15.0762Y-17.1854
X15.0762Y-17.2642
X15.0762Y-17.3035
X15.0762Y-17.3823
X15.0762Y-17.4217
X15.0762Y-17.5004
X15.0762Y-17.5398
X15.0762Y-17.6185
X15.0762Y-17.6579
X15.0762Y-17.7366
X15.0762Y-17.776
X15.0762Y-17.8547
X15.0762Y-17.8941
X15.0762Y-17.9728
X15.0762Y-18.0122
X15.0762Y-18.0909
X15.0762Y-18.1303
X15.0762Y-18.2091
X15.0762Y-18.2484
X15.0762Y-18.3272
X15.0762Y-18.3665
X15.0766Y-7.363
X15.0766Y-7.4024
X15.0766Y-7.4811
X15.0766Y-7.5205
X15.0766Y-7.5992
X15.0766Y-7.6386
X15.0766Y-7.7173
X15.0766Y-7.7567
X15.0766Y-7.8354
X15.0766Y-7.8748
X15.0766Y-7.9535
X15.0766Y-7.9929
X15.0766Y-8.0717
X15.0766Y-8.111
X15.0766Y-8.1898
X15.0766Y-8.2291
X15.0766Y-8.3079
X15.0766Y-8.3472
X15.0766Y-13.3276
X15.0766Y-13.3669
X15.0766Y-13.4457
X15.0766Y-13.485
X15.0766Y-13.5638
X15.0766Y-13.6031
X15.0766Y-13.6819
X15.0766Y-13.7213
X15.0766Y-13.8
X15.0766Y-13.8394
X15.0766Y-13.9181
X15.0766Y-13.9575
X15.0766Y-14.0362
X15.0766Y-14.0756
X15.0766Y-14.1543
X15.0766Y-14.1937
X15.0766Y-14.2724
X15.0766Y-14.3118
X15.0819Y-3.2291
X15.0819Y-3.3079
X15.0819Y-3.3472
X15.0819Y-3.426
X15.0819Y-3.4654
X15.0819Y-3.5441
X15.0819Y-3.5835
X15.0819Y-3.6622
X15.0819Y-3.7016
X15.0819Y-3.7803
X15.0819Y-3.8197
X15.0819Y-3.8984
X15.0819Y-3.9378
X15.0819Y-4.0165
X15.0819Y-4.0559
X15.0819Y-4.1346
X15.0819Y-4.174
X15.0819Y-4.2528
X15.0819Y-4.2921
X15.0819Y-4.3709
X15.0819Y-4.4102
X15.0829Y-9.1937
X15.0829Y-9.2724
X15.0829Y-9.3118
X15.0829Y-9.3906
X15.0829Y-9.4299
X15.0829Y-9.5087
X15.0829Y-9.548
X15.0829Y-9.6268
X15.0829Y-9.6661
X15.0829Y-9.7449
X15.0829Y-9.7843
X15.0829Y-9.863
X15.0829Y-9.9024
X15.0829Y-9.9811
X15.0829Y-10.0205
X15.0829Y-10.0992
X15.0829Y-10.1386
X15.0829Y-10.2173
X15.0829Y-10.2567
X15.0829Y-10.3354
X15.0829Y-10.3748
X15.0829Y-15.1583
X15.0829Y-15.237
X15.0829Y-15.2764
X15.0829Y-15.3551
X15.0829Y-15.3945
X15.0829Y-15.4732
X15.0829Y-15.5126
X15.0829Y-15.5913
X15.0829Y-15.6307
X15.0829Y-15.7094
X15.0829Y-15.7488
X15.0829Y-15.8276
X15.0829Y-15.8669
X15.0829Y-15.9457
X15.0829Y-15.985
X15.0829Y-16.0638
X15.0829Y-16.1031
X15.0829Y-16.1819
X15.0829Y-16.2213
X15.0829Y-16.3
X15.0829Y-16.3394
X15.3177Y-1.489
X15.3177Y-1.5205
X15.3177Y-1.5835
X15.3177Y-1.615
X15.3177Y-1.678
X15.3177Y-1.7094
X15.3177Y-1.8039
X15.3177Y-1.8354
X15.3177Y-1.8984
X15.3177Y-1.9299
X15.3177Y-1.9929
X15.3177Y-2.0559
X15.3177Y-2.1189
X15.3177Y-2.1504
X15.3177Y-2.2134
X15.3177Y-2.2449
X15.3177Y-2.3394
X15.3177Y-2.3709
X15.3177Y-2.4339
X15.3177Y-2.4654
X15.3177Y-2.5283
X15.3177Y-2.5598
X15.3177Y-5.1012
X15.3177Y-5.1642
X15.3177Y-5.1957
X15.3177Y-5.2587
X15.3177Y-5.2902
X15.3177Y-5.3846
X15.3177Y-5.4161
X15.3177Y-5.4791
X15.3177Y-5.5106
X15.3177Y-5.5736
X15.3177Y-5.6051
X15.3177Y-5.6996
X15.3177Y-5.7311
X15.3177Y-5.7941
X15.3177Y-5.8256
X15.3177Y-5.8886
X15.3177Y-5.9516
X15.3177Y-6.0146
X15.3177Y-6.0461
X15.3177Y-6.1091
X15.3177Y-6.1406
X15.3181Y-2.7803
X15.3181Y-2.8118
X15.3181Y-2.8748
X15.3181Y-2.9063
X15.3181Y-2.9693
X15.3181Y-3.0323
X15.3181Y-3.0953
X15.3181Y-3.1268
X15.3181Y-3.1898
X15.3181Y-3.2213
X15.3181Y-3.3157
X15.3181Y-4.4398
X15.3181Y-4.5028
X15.3181Y-4.5343
X15.3181Y-4.5972
X15.3181Y-4.6287
X15.3181Y-4.7232
X15.3181Y-4.7547
X15.3181Y-4.8177
X15.3181Y-4.8492
X15.3181Y-4.9122
X15.3187Y-7.4535
X15.3187Y-7.485
X15.3187Y-7.548
X15.3187Y-7.5795
X15.3187Y-7.6425
X15.3187Y-7.674
X15.3187Y-7.7685
X15.3187Y-7.8
X15.3187Y-7.863
X15.3187Y-7.8945
X15.3187Y-7.9575
X15.3187Y-8.0205
X15.3187Y-8.0835
X15.3187Y-8.115
X15.3187Y-8.178
X15.3187Y-8.2094
X15.3187Y-8.3039
X15.3187Y-8.3354
X15.3187Y-8.3984
X15.3187Y-8.4299
X15.3187Y-8.4929
X15.3187Y-8.5244
X15.3187Y-11.0657
X15.3187Y-11.1287
X15.3187Y-11.1602
X15.3187Y-11.2232
X15.3187Y-11.2547
X15.3187Y-11.3492
X15.3187Y-11.3807
X15.3187Y-11.4437
X15.3187Y-11.4752
X15.3187Y-11.5382
X15.3187Y-11.5697
X15.3187Y-11.6642
X15.3187Y-11.6957
X15.3187Y-11.7587
X15.3187Y-11.7902
X15.3187Y-11.8531
X15.3187Y-11.9161
X15.3187Y-11.9791
X15.3187Y-12.0106
X15.3187Y-12.0736
X15.3187Y-12.1051
X15.3187Y-13.4181
X15.3187Y-13.4496
X15.3187Y-13.5126
X15.3187Y-13.5441
X15.3187Y-13.6071
X15.3187Y-13.6386
X15.3187Y-13.7331
X15.3187Y-13.7646
X15.3187Y-13.8276
X15.3187Y-13.8591
X15.3187Y-13.922
X15.3187Y-13.985
X15.3187Y-14.048
X15.3187Y-14.0795
X15.3187Y-14.1425
X15.3187Y-14.174
X15.3187Y-14.2685
X15.3187Y-14.3
X15.3187Y-14.363
X15.3187Y-14.3945
X15.3187Y-14.4575
X15.3187Y-14.489
X15.3187Y-17.0303
X15.3187Y-17.0933
X15.3187Y-17.1248
X15.3187Y-17.1878
X15.3187Y-17.2193
X15.3187Y-17.3138
X15.3187Y-17.3453
X15.3187Y-17.4083
X15.3187Y-17.4398
X15.3187Y-17.5028
X15.3187Y-17.5343
X15.3187Y-17.6287
X15.3187Y-17.6602
X15.3187Y-17.7232
X15.3187Y-17.7547
X15.3187Y-17.8177
X15.3187Y-17.8807
X15.3187Y-17.9437
X15.3187Y-17.9752
X15.3187Y-18.0382
X15.3187Y-18.0697
X15.3191Y-8.7449
X15.3191Y-8.7764
X15.3191Y-8.8394
X15.3191Y-8.8709
X15.3191Y-8.9339
X15.3191Y-8.9969
X15.3191Y-9.0598
X15.3191Y-9.0913
X15.3191Y-9.1543
X15.3191Y-9.1858
X15.3191Y-9.2803
X15.3191Y-10.4043
X15.3191Y-10.4673
X15.3191Y-10.4988
X15.3191Y-10.5618
X15.3191Y-10.5933
X15.3191Y-10.6878
X15.3191Y-10.7193
X15.3191Y-10.7823
X15.3191Y-10.8138
X15.3191Y-10.8768
X15.3191Y-14.7094
X15.3191Y-14.7409
X15.3191Y-14.8039
X15.3191Y-14.8354
X15.3191Y-14.8984
X15.3191Y-14.9614
X15.3191Y-15.0244
X15.3191Y-15.0559
X15.3191Y-15.1189
X15.3191Y-15.1504
X15.3191Y-15.2449
X15.3191Y-16.3689
X15.3191Y-16.4319
X15.3191Y-16.4634
X15.3191Y-16.5264
X15.3191Y-16.5579
X15.3191Y-16.6524
X15.3191Y-16.6839
X15.3191Y-16.7469
X15.3191Y-16.7783
X15.3191Y-16.8413
X15.6102Y-2.7801
X15.6102Y-2.8116
X15.6102Y-2.8746
X15.6102Y-2.9061
X15.6102Y-2.9691
X15.6102Y-3.0321
X15.6102Y-3.0951
X15.6102Y-3.1266
X15.6102Y-3.1896
X15.6102Y-3.2211
X15.6102Y-3.3156
X15.6102Y-4.4396
X15.6102Y-4.5026
X15.6102Y-4.5341
X15.6102Y-4.597
X15.6102Y-4.6285
X15.6102Y-4.723
X15.6102Y-4.7545
X15.6102Y-4.8175
X15.6102Y-4.849
X15.6102Y-4.912
X15.6106Y-1.4888
X15.6106Y-1.5203
X15.6106Y-1.5833
X15.6106Y-1.6148
X15.6106Y-1.6778
X15.6106Y-1.7093
X15.6106Y-1.8037
X15.6106Y-1.8352
X15.6106Y-1.8982
X15.6106Y-1.9297
X15.6106Y-1.9927
X15.6106Y-2.0557
X15.6106Y-2.1187
X15.6106Y-2.1502
X15.6106Y-2.2132
X15.6106Y-2.2447
X15.6106Y-2.3392
X15.6106Y-2.3707
X15.6106Y-2.4337
X15.6106Y-2.4652
X15.6106Y-2.5281
X15.6106Y-2.5596
X15.6106Y-5.101
X15.6106Y-5.164
X15.6106Y-5.1955
X15.6106Y-5.2585
X15.6106Y-5.29
X15.6106Y-5.3844
X15.6106Y-5.4159
X15.6106Y-5.4789
X15.6106Y-5.5104
X15.6106Y-5.5734
X15.6106Y-5.6049
X15.6106Y-5.6994
X15.6106Y-5.7309
X15.6106Y-5.7939
X15.6106Y-5.8254
X15.6106Y-5.8884
X15.6106Y-5.9514
X15.6106Y-6.0144
X15.6106Y-6.0459
X15.6106Y-6.1089
X15.6106Y-6.1404
X15.6112Y-8.7447
X15.6112Y-8.7762
X15.6112Y-8.8392
X15.6112Y-8.8707
X15.6112Y-8.9337
X15.6112Y-8.9967
X15.6112Y-9.0596
X15.6112Y-9.0911
X15.6112Y-9.1541
X15.6112Y-9.1856
X15.6112Y-9.2801
X15.6112Y-10.4041
X15.6112Y-10.4671
X15.6112Y-10.4986
X15.6112Y-10.5616
X15.6112Y-10.5931
X15.6112Y-10.6876
X15.6112Y-10.7191
X15.6112Y-10.7821
X15.6112Y-10.8136
X15.6112Y-10.8766
X15.6112Y-14.7093
X15.6112Y-14.7407
X15.6112Y-14.8037
X15.6112Y-14.8352
X15.6112Y-14.8982
X15.6112Y-14.9612
X15.6112Y-15.0242
X15.6112Y-15.0557
X15.6112Y-15.1187
X15.6112Y-15.1502
X15.6112Y-15.2447
X15.6112Y-16.3687
X15.6112Y-16.4317
X15.6112Y-16.4632
X15.6112Y-16.5262
X15.6112Y-16.5577
X15.6112Y-16.6522
X15.6112Y-16.6837
X15.6112Y-16.7467
X15.6112Y-16.7781
X15.6112Y-16.8411
X15.6116Y-7.4533
X15.6116Y-7.4848
X15.6116Y-7.5478
X15.6116Y-7.5793
X15.6116Y-7.6423
X15.6116Y-7.6738
X15.6116Y-7.7683
X15.6116Y-7.7998
X15.6116Y-7.8628
X15.6116Y-7.8943
X15.6116Y-7.9573
X15.6116Y-8.0203
X15.6116Y-8.0833
X15.6116Y-8.1148
X15.6116Y-8.1778
X15.6116Y-8.2093
X15.6116Y-8.3037
X15.6116Y-8.3352
X15.6116Y-8.3982
X15.6116Y-8.4297
X15.6116Y-8.4927
X15.6116Y-8.5242
X15.6116Y-11.0656
X15.6116Y-11.1285
X15.6116Y-11.16
X15.6116Y-11.223
X15.6116Y-11.2545
X15.6116Y-11.349
X15.6116Y-11.3805
X15.6116Y-11.4435
X15.6116Y-11.475
X15.6116Y-11.538
X15.6116Y-11.5695
X15.6116Y-11.664
X15.6116Y-11.6955
X15.6116Y-11.7585
X15.6116Y-11.79
X15.6116Y-11.853
X15.6116Y-11.9159
X15.6116Y-11.9789
X15.6116Y-12.0104
X15.6116Y-12.0734
X15.6116Y-12.1049
X15.6116Y-13.4179
X15.6116Y-13.4494
X15.6116Y-13.5124
X15.6116Y-13.5439
X15.6116Y-13.6069
X15.6116Y-13.6384
X15.6116Y-13.7329
X15.6116Y-13.7644
X15.6116Y-13.8274
X15.6116Y-13.8589
X15.6116Y-13.9219
X15.6116Y-13.9848
X15.6116Y-14.0478
X15.6116Y-14.0793
X15.6116Y-14.1423
X15.6116Y-14.1738
X15.6116Y-14.2683
X15.6116Y-14.2998
X15.6116Y-14.3628
X15.6116Y-14.3943
X15.6116Y-14.4573
X15.6116Y-14.4888
X15.6116Y-17.0301
X15.6116Y-17.0931
X15.6116Y-17.1246
X15.6116Y-17.1876
X15.6116Y-17.2191
X15.6116Y-17.3136
X15.6116Y-17.3451
X15.6116Y-17.4081
X15.6116Y-17.4396
X15.6116Y-17.5026
X15.6116Y-17.5341
X15.6116Y-17.6285
X15.6116Y-17.66
X15.6116Y-17.723
X15.6116Y-17.7545
X15.6116Y-17.8175
X15.6116Y-17.8805
X15.6116Y-17.9435
X15.6116Y-17.975
X15.6116Y-18.038
X15.6116Y-18.0695
X15.8464Y-3.2289
X15.8464Y-3.3077
X15.8464Y-3.347
X15.8464Y-3.4258
X15.8464Y-3.4652
X15.8464Y-3.5439
X15.8464Y-3.5833
X15.8464Y-3.662
X15.8464Y-3.7014
X15.8464Y-3.7801
X15.8464Y-3.8195
X15.8464Y-3.8982
X15.8464Y-3.9376
X15.8464Y-4.0163
X15.8464Y-4.0557
X15.8464Y-4.1344
X15.8464Y-4.1738
X15.8464Y-4.2526
X15.8464Y-4.2919
X15.8464Y-4.3707
X15.8464Y-4.41
X15.8474Y-9.1935
X15.8474Y-9.2722
X15.8474Y-9.3116
X15.8474Y-9.3904
X15.8474Y-9.4297
X15.8474Y-9.5085
X15.8474Y-9.5478
X15.8474Y-9.6266
X15.8474Y-9.6659
X15.8474Y-9.7447
X15.8474Y-9.7841
X15.8474Y-9.8628
X15.8474Y-9.9022
X15.8474Y-9.9809
X15.8474Y-10.0203
X15.8474Y-10.099
X15.8474Y-10.1384
X15.8474Y-10.2171
X15.8474Y-10.2565
X15.8474Y-10.3352
X15.8474Y-10.3746
X15.8474Y-15.1581
X15.8474Y-15.2368
X15.8474Y-15.2762
X15.8474Y-15.3549
X15.8474Y-15.3943
X15.8474Y-15.473
X15.8474Y-15.5124
X15.8474Y-15.5911
X15.8474Y-15.6305
X15.8474Y-15.7093
X15.8474Y-15.7486
X15.8474Y-15.8274
X15.8474Y-15.8667
X15.8474Y-15.9455
X15.8474Y-15.9848
X15.8474Y-16.0636
X15.8474Y-16.103
X15.8474Y-16.1817
X15.8474Y-16.2211
X15.8474Y-16.2998
X15.8474Y-16.3392
X15.8527Y-1.3982
X15.8527Y-1.4376
X15.8527Y-1.5163
X15.8527Y-1.5557
X15.8527Y-1.6344
X15.8527Y-1.6738
X15.8527Y-1.7526
X15.8527Y-1.7919
X15.8527Y-1.8707
X15.8527Y-1.91
X15.8527Y-1.9888
X15.8527Y-2.0281
X15.8527Y-2.1069
X15.8527Y-2.1463
X15.8527Y-2.225
X15.8527Y-2.2644
X15.8527Y-2.3431
X15.8527Y-2.3825
X15.8531Y-1.3191
X15.8531Y-5.2167
X15.8531Y-5.2561
X15.8531Y-5.3348
X15.8531Y-5.3742
X15.8531Y-5.453
X15.8531Y-5.4923
X15.8531Y-5.5711
X15.8531Y-5.6104
X15.8531Y-5.6892
X15.8531Y-5.7285
X15.8531Y-5.8073
X15.8531Y-5.8467
X15.8531Y-5.9254
X15.8531Y-5.9648
X15.8531Y-6.0435
X15.8531Y-6.0829
X15.8531Y-6.1616
X15.8531Y-6.201
X15.8531Y-6.2797
X15.8531Y-6.3191
X15.8531Y-6.3978
X15.8531Y-6.4372
X15.8537Y-7.3628
X15.8537Y-7.4022
X15.8537Y-7.4809
X15.8537Y-7.5203
X15.8537Y-7.599
X15.8537Y-7.6384
X15.8537Y-7.7171
X15.8537Y-7.7565
X15.8537Y-7.8352
X15.8537Y-7.8746
X15.8537Y-7.9533
X15.8537Y-7.9927
X15.8537Y-8.0715
X15.8537Y-8.1108
X15.8537Y-8.1896
X15.8537Y-8.2289
X15.8537Y-8.3077
X15.8537Y-8.347
X15.8537Y-13.3274
X15.8537Y-13.3667
X15.8537Y-13.4455
X15.8537Y-13.4848
X15.8537Y-13.5636
X15.8537Y-13.603
X15.8537Y-13.6817
X15.8537Y-13.7211
X15.8537Y-13.7998
X15.8537Y-13.8392
X15.8537Y-13.9179
X15.8537Y-13.9573
X15.8537Y-14.036
X15.8537Y-14.0754
X15.8537Y-14.1541
X15.8537Y-14.1935
X15.8537Y-14.2722
X15.8537Y-14.3116
X15.8541Y-7.2837
X15.8541Y-11.1813
X15.8541Y-11.2207
X15.8541Y-11.2994
X15.8541Y-11.3388
X15.8541Y-11.4175
X15.8541Y-11.4569
X15.8541Y-11.5356
X15.8541Y-11.575
X15.8541Y-11.6537
X15.8541Y-11.6931
X15.8541Y-11.7719
X15.8541Y-11.8112
X15.8541Y-11.89
X15.8541Y-11.9293
X15.8541Y-12.0081
X15.8541Y-12.0474
X15.8541Y-12.1262
X15.8541Y-12.1656
X15.8541Y-12.2443
X15.8541Y-12.2837
X15.8541Y-12.3624
X15.8541Y-12.4018
X15.8541Y-13.2482
X15.8541Y-17.1459
X15.8541Y-17.1852
X15.8541Y-17.264
X15.8541Y-17.3033
X15.8541Y-17.3821
X15.8541Y-17.4215
X15.8541Y-17.5002
X15.8541Y-17.5396
X15.8541Y-17.6183
X15.8541Y-17.6577
X15.8541Y-17.7364
X15.8541Y-17.7758
X15.8541Y-17.8545
X15.8541Y-17.8939
X15.8541Y-17.9726
X15.8541Y-18.012
X15.8541Y-18.0907
X15.8541Y-18.1301
X15.8541Y-18.2089
X15.8541Y-18.2482
X15.8541Y-18.327
X15.8541Y-18.3663
X15.8551Y-1.2797
X15.8561Y-7.2443
X15.8561Y-13.2089
X15.8567Y-2.4612
X15.8577Y-8.4258
X15.8577Y-14.3904
X17.0598Y-2.4614
X17.0608Y-8.426
X17.0608Y-14.3906
X17.0614Y-1.2799
X17.062Y-7.2441
X17.0624Y-13.2091
X17.0634Y-1.3193
X17.0634Y-5.2169
X17.0634Y-5.2563
X17.0634Y-5.335
X17.0634Y-5.3744
X17.0634Y-5.4531
X17.0634Y-5.4925
X17.0634Y-5.5713
X17.0634Y-5.6106
X17.0634Y-5.6894
X17.0634Y-5.7287
X17.0634Y-5.8075
X17.0634Y-5.8469
X17.0634Y-5.9256
X17.0634Y-5.965
X17.0634Y-6.0437
X17.0634Y-6.0831
X17.0634Y-6.1618
X17.0634Y-6.2012
X17.0634Y-6.2799
X17.0634Y-6.3193
X17.0634Y-6.398
X17.0634Y-6.4374
X17.0638Y-1.3984
X17.0638Y-1.4378
X17.0638Y-1.5165
X17.0638Y-1.5559
X17.0638Y-1.6346
X17.0638Y-1.674
X17.0638Y-1.7528
X17.0638Y-1.7921
X17.0638Y-1.8709
X17.0638Y-1.9102
X17.0638Y-1.989
X17.0638Y-2.0283
X17.0638Y-2.1071
X17.0638Y-2.1465
X17.0638Y-2.2252
X17.0638Y-2.2646
X17.0638Y-2.3433
X17.0638Y-2.3827
X17.0644Y-7.2839
X17.0644Y-11.1815
X17.0644Y-11.2209
X17.0644Y-11.2996
X17.0644Y-11.339
X17.0644Y-11.4177
X17.0644Y-11.4571
X17.0644Y-11.5358
X17.0644Y-11.5752
X17.0644Y-11.6539
X17.0644Y-11.6933
X17.0644Y-11.772
X17.0644Y-11.8114
X17.0644Y-11.8902
X17.0644Y-11.9295
X17.0644Y-12.0083
X17.0644Y-12.0476
X17.0644Y-12.1264
X17.0644Y-12.1657
X17.0644Y-12.2445
X17.0644Y-12.2839
X17.0644Y-12.3626
X17.0644Y-12.402
X17.0644Y-13.2484
X17.0644Y-17.1461
X17.0644Y-17.1854
X17.0644Y-17.2642
X17.0644Y-17.3035
X17.0644Y-17.3823
X17.0644Y-17.4217
X17.0644Y-17.5004
X17.0644Y-17.5398
X17.0644Y-17.6185
X17.0644Y-17.6579
X17.0644Y-17.7366
X17.0644Y-17.776
X17.0644Y-17.8547
X17.0644Y-17.8941
X17.0644Y-17.9728
X17.0644Y-18.0122
X17.0644Y-18.0909
X17.0644Y-18.1303
X17.0644Y-18.2091
X17.0644Y-18.2484
X17.0644Y-18.3272
X17.0644Y-18.3665
X17.0648Y-7.363
X17.0648Y-7.4024
X17.0648Y-7.4811
X17.0648Y-7.5205
X17.0648Y-7.5992
X17.0648Y-7.6386
X17.0648Y-7.7173
X17.0648Y-7.7567
X17.0648Y-7.8354
X17.0648Y-7.8748
X17.0648Y-7.9535
X17.0648Y-7.9929
X17.0648Y-8.0717
X17.0648Y-8.111
X17.0648Y-8.1898
X17.0648Y-8.2291
X17.0648Y-8.3079
X17.0648Y-8.3472
X17.0648Y-13.3276
X17.0648Y-13.3669
X17.0648Y-13.4457
X17.0648Y-13.485
X17.0648Y-13.5638
X17.0648Y-13.6031
X17.0648Y-13.6819
X17.0648Y-13.7213
X17.0648Y-13.8
X17.0648Y-13.8394
X17.0648Y-13.9181
X17.0648Y-13.9575
X17.0648Y-14.0362
X17.0648Y-14.0756
X17.0648Y-14.1543
X17.0648Y-14.1937
X17.0648Y-14.2724
X17.0648Y-14.3118
X17.0701Y-3.2291
X17.0701Y-3.3079
X17.0701Y-3.3472
X17.0701Y-3.426
X17.0701Y-3.4654
X17.0701Y-3.5441
X17.0701Y-3.5835
X17.0701Y-3.6622
X17.0701Y-3.7016
X17.0701Y-3.7803
X17.0701Y-3.8197
X17.0701Y-3.8984
X17.0701Y-3.9378
X17.0701Y-4.0165
X17.0701Y-4.0559
X17.0701Y-4.1346
X17.0701Y-4.174
X17.0701Y-4.2528
X17.0701Y-4.2921
X17.0701Y-4.3709
X17.0701Y-4.4102
X17.0711Y-9.1937
X17.0711Y-9.2724
X17.0711Y-9.3118
X17.0711Y-9.3906
X17.0711Y-9.4299
X17.0711Y-9.5087
X17.0711Y-9.548
X17.0711Y-9.6268
X17.0711Y-9.6661
X17.0711Y-9.7449
X17.0711Y-9.7843
X17.0711Y-9.863
X17.0711Y-9.9024
X17.0711Y-9.9811
X17.0711Y-10.0205
X17.0711Y-10.0992
X17.0711Y-10.1386
X17.0711Y-10.2173
X17.0711Y-10.2567
X17.0711Y-10.3354
X17.0711Y-10.3748
X17.0711Y-15.1583
X17.0711Y-15.237
X17.0711Y-15.2764
X17.0711Y-15.3551
X17.0711Y-15.3945
X17.0711Y-15.4732
X17.0711Y-15.5126
X17.0711Y-15.5913
X17.0711Y-15.6307
X17.0711Y-15.7094
X17.0711Y-15.7488
X17.0711Y-15.8276
X17.0711Y-15.8669
X17.0711Y-15.9457
X17.0711Y-15.985
X17.0711Y-16.0638
X17.0711Y-16.1031
X17.0711Y-16.1819
X17.0711Y-16.2213
X17.0711Y-16.3
X17.0711Y-16.3394
X17.3059Y-1.489
X17.3059Y-1.5205
X17.3059Y-1.5835
X17.3059Y-1.615
X17.3059Y-1.678
X17.3059Y-1.7094
X17.3059Y-1.8039
X17.3059Y-1.8354
X17.3059Y-1.8984
X17.3059Y-1.9299
X17.3059Y-1.9929
X17.3059Y-2.0559
X17.3059Y-2.1189
X17.3059Y-2.1504
X17.3059Y-2.2134
X17.3059Y-2.2449
X17.3059Y-2.3394
X17.3059Y-2.3709
X17.3059Y-2.4339
X17.3059Y-2.4654
X17.3059Y-2.5283
X17.3059Y-2.5598
X17.3059Y-5.1012
X17.3059Y-5.1642
X17.3059Y-5.1957
X17.3059Y-5.2587
X17.3059Y-5.2902
X17.3059Y-5.3846
X17.3059Y-5.4161
X17.3059Y-5.4791
X17.3059Y-5.5106
X17.3059Y-5.5736
X17.3059Y-5.6051
X17.3059Y-5.6996
X17.3059Y-5.7311
X17.3059Y-5.7941
X17.3059Y-5.8256
X17.3059Y-5.8886
X17.3059Y-5.9516
X17.3059Y-6.0146
X17.3059Y-6.0461
X17.3059Y-6.1091
X17.3059Y-6.1406
X17.3063Y-2.7803
X17.3063Y-2.8118
X17.3063Y-2.8748
X17.3063Y-2.9063
X17.3063Y-2.9693
X17.3063Y-3.0323
X17.3063Y-3.0953
X17.3063Y-3.1268
X17.3063Y-3.1898
X17.3063Y-3.2213
X17.3063Y-3.3157
X17.3063Y-4.4398
X17.3063Y-4.5028
X17.3063Y-4.5343
X17.3063Y-4.5972
X17.3063Y-4.6287
X17.3063Y-4.7232
X17.3063Y-4.7547
X17.3063Y-4.8177
X17.3063Y-4.8492
X17.3063Y-4.9122
X17.3069Y-7.4535
X17.3069Y-7.485
X17.3069Y-7.548
X17.3069Y-7.5795
X17.3069Y-7.6425
X17.3069Y-7.674
X17.3069Y-7.7685
X17.3069Y-7.8
X17.3069Y-7.863
X17.3069Y-7.8945
X17.3069Y-7.9575
X17.3069Y-8.0205
X17.3069Y-8.0835
X17.3069Y-8.115
X17.3069Y-8.178
X17.3069Y-8.2094
X17.3069Y-8.3039
X17.3069Y-8.3354
X17.3069Y-8.3984
X17.3069Y-8.4299
X17.3069Y-8.4929
X17.3069Y-8.5244
X17.3069Y-11.0657
X17.3069Y-11.1287
X17.3069Y-11.1602
X17.3069Y-11.2232
X17.3069Y-11.2547
X17.3069Y-11.3492
X17.3069Y-11.3807
X17.3069Y-11.4437
X17.3069Y-11.4752
X17.3069Y-11.5382
X17.3069Y-11.5697
X17.3069Y-11.6642
X17.3069Y-11.6957
X17.3069Y-11.7587
X17.3069Y-11.7902
X17.3069Y-11.8531
X17.3069Y-11.9161
X17.3069Y-11.9791
X17.3069Y-12.0106
X17.3069Y-12.0736
X17.3069Y-12.1051
X17.3069Y-13.4181
X17.3069Y-13.4496
X17.3069Y-13.5126
X17.3069Y-13.5441
X17.3069Y-13.6071
X17.3069Y-13.6386
X17.3069Y-13.7331
X17.3069Y-13.7646
X17.3069Y-13.8276
X17.3069Y-13.8591
X17.3069Y-13.922
X17.3069Y-13.985
X17.3069Y-14.048
X17.3069Y-14.0795
X17.3069Y-14.1425
X17.3069Y-14.174
X17.3069Y-14.2685
X17.3069Y-14.3
X17.3069Y-14.363
X17.3069Y-14.3945
X17.3069Y-14.4575
X17.3069Y-14.489
X17.3069Y-17.0303
X17.3069Y-17.0933
X17.3069Y-17.1248
X17.3069Y-17.1878
X17.3069Y-17.2193
X17.3069Y-17.3138
X17.3069Y-17.3453
X17.3069Y-17.4083
X17.3069Y-17.4398
X17.3069Y-17.5028
X17.3069Y-17.5343
X17.3069Y-17.6287
X17.3069Y-17.6602
X17.3069Y-17.7232
X17.3069Y-17.7547
X17.3069Y-17.8177
X17.3069Y-17.8807
X17.3069Y-17.9437
X17.3069Y-17.9752
X17.3069Y-18.0382
X17.3069Y-18.0697
X17.3073Y-8.7449
X17.3073Y-8.7764
X17.3073Y-8.8394
X17.3073Y-8.8709
X17.3073Y-8.9339
X17.3073Y-8.9969
X17.3073Y-9.0598
X17.3073Y-9.0913
X17.3073Y-9.1543
X17.3073Y-9.1858
X17.3073Y-9.2803
X17.3073Y-10.4043
X17.3073Y-10.4673
X17.3073Y-10.4988
X17.3073Y-10.5618
X17.3073Y-10.5933
X17.3073Y-10.6878
X17.3073Y-10.7193
X17.3073Y-10.7823
X17.3073Y-10.8138
X17.3073Y-10.8768
X17.3073Y-14.7094
X17.3073Y-14.7409
X17.3073Y-14.8039
X17.3073Y-14.8354
X17.3073Y-14.8984
X17.3073Y-14.9614
X17.3073Y-15.0244
X17.3073Y-15.0559
X17.3073Y-15.1189
X17.3073Y-15.1504
X17.3073Y-15.2449
X17.3073Y-16.3689
X17.3073Y-16.4319
X17.3073Y-16.4634
X17.3073Y-16.5264
X17.3073Y-16.5579
X17.3073Y-16.6524
X17.3073Y-16.6839
X17.3073Y-16.7469
X17.3073Y-16.7783
X17.3073Y-16.8413
X17.5984Y-2.7801
X17.5984Y-2.8116
X17.5984Y-2.8746
X17.5984Y-2.9061
X17.5984Y-2.9691
X17.5984Y-3.0321
X17.5984Y-3.0951
X17.5984Y-3.1266
X17.5984Y-3.1896
X17.5984Y-3.2211
X17.5984Y-3.3156
X17.5984Y-4.4396
X17.5984Y-4.5026
X17.5984Y-4.5341
X17.5984Y-4.597
X17.5984Y-4.6285
X17.5984Y-4.723
X17.5984Y-4.7545
X17.5984Y-4.8175
X17.5984Y-4.849
X17.5984Y-4.912
X17.5988Y-1.4888
X17.5988Y-1.5203
X17.5988Y-1.5833
X17.5988Y-1.6148
X17.5988Y-1.6778
X17.5988Y-1.7093
X17.5988Y-1.8037
X17.5988Y-1.8352
X17.5988Y-1.8982
X17.5988Y-1.9297
X17.5988Y-1.9927
X17.5988Y-2.0557
X17.5988Y-2.1187
X17.5988Y-2.1502
X17.5988Y-2.2132
X17.5988Y-2.2447
X17.5988Y-2.3392
X17.5988Y-2.3707
X17.5988Y-2.4337
X17.5988Y-2.4652
X17.5988Y-2.5281
X17.5988Y-2.5596
X17.5988Y-5.101
X17.5988Y-5.164
X17.5988Y-5.1955
X17.5988Y-5.2585
X17.5988Y-5.29
X17.5988Y-5.3844
X17.5988Y-5.4159
X17.5988Y-5.4789
X17.5988Y-5.5104
X17.5988Y-5.5734
X17.5988Y-5.6049
X17.5988Y-5.6994
X17.5988Y-5.7309
X17.5988Y-5.7939
X17.5988Y-5.8254
X17.5988Y-5.8884
X17.5988Y-5.9514
X17.5988Y-6.0144
X17.5988Y-6.0459
X17.5988Y-6.1089
X17.5988Y-6.1404
X17.5994Y-8.7447
X17.5994Y-8.7762
X17.5994Y-8.8392
X17.5994Y-8.8707
X17.5994Y-8.9337
X17.5994Y-8.9967
X17.5994Y-9.0596
X17.5994Y-9.0911
X17.5994Y-9.1541
X17.5994Y-9.1856
X17.5994Y-9.2801
X17.5994Y-10.4041
X17.5994Y-10.4671
X17.5994Y-10.4986
X17.5994Y-10.5616
X17.5994Y-10.5931
X17.5994Y-10.6876
X17.5994Y-10.7191
X17.5994Y-10.7821
X17.5994Y-10.8136
X17.5994Y-10.8766
X17.5994Y-14.7093
X17.5994Y-14.7407
X17.5994Y-14.8037
X17.5994Y-14.8352
X17.5994Y-14.8982
X17.5994Y-14.9612
X17.5994Y-15.0242
X17.5994Y-15.0557
X17.5994Y-15.1187
X17.5994Y-15.1502
X17.5994Y-15.2447
X17.5994Y-16.3687
X17.5994Y-16.4317
X17.5994Y-16.4632
X17.5994Y-16.5262
X17.5994Y-16.5577
X17.5994Y-16.6522
X17.5994Y-16.6837
X17.5994Y-16.7467
X17.5994Y-16.7781
X17.5994Y-16.8411
X17.5998Y-7.4533
X17.5998Y-7.4848
X17.5998Y-7.5478
X17.5998Y-7.5793
X17.5998Y-7.6423
X17.5998Y-7.6738
X17.5998Y-7.7683
X17.5998Y-7.7998
X17.5998Y-7.8628
X17.5998Y-7.8943
X17.5998Y-7.9573
X17.5998Y-8.0203
X17.5998Y-8.0833
X17.5998Y-8.1148
X17.5998Y-8.1778
X17.5998Y-8.2093
X17.5998Y-8.3037
X17.5998Y-8.3352
X17.5998Y-8.3982
X17.5998Y-8.4297
X17.5998Y-8.4927
X17.5998Y-8.5242
X17.5998Y-11.0656
X17.5998Y-11.1285
X17.5998Y-11.16
X17.5998Y-11.223
X17.5998Y-11.2545
X17.5998Y-11.349
X17.5998Y-11.3805
X17.5998Y-11.4435
X17.5998Y-11.475
X17.5998Y-11.538
X17.5998Y-11.5695
X17.5998Y-11.664
X17.5998Y-11.6955
X17.5998Y-11.7585
X17.5998Y-11.79
X17.5998Y-11.853
X17.5998Y-11.9159
X17.5998Y-11.9789
X17.5998Y-12.0104
X17.5998Y-12.0734
X17.5998Y-12.1049
X17.5998Y-13.4179
X17.5998Y-13.4494
X17.5998Y-13.5124
X17.5998Y-13.5439
X17.5998Y-13.6069
X17.5998Y-13.6384
X17.5998Y-13.7329
X17.5998Y-13.7644
X17.5998Y-13.8274
X17.5998Y-13.8589
X17.5998Y-13.9219
X17.5998Y-13.9848
X17.5998Y-14.0478
X17.5998Y-14.0793
X17.5998Y-14.1423
X17.5998Y-14.1738
X17.5998Y-14.2683
X17.5998Y-14.2998
X17.5998Y-14.3628
X17.5998Y-14.3943
X17.5998Y-14.4573
X17.5998Y-14.4888
X17.5998Y-17.0301
X17.5998Y-17.0931
X17.5998Y-17.1246
X17.5998Y-17.1876
X17.5998Y-17.2191
X17.5998Y-17.3136
X17.5998Y-17.3451
X17.5998Y-17.4081
X17.5998Y-17.4396
X17.5998Y-17.5026
X17.5998Y-17.5341
X17.5998Y-17.6285
X17.5998Y-17.66
X17.5998Y-17.723
X17.5998Y-17.7545
X17.5998Y-17.8175
X17.5998Y-17.8805
X17.5998Y-17.9435
X17.5998Y-17.975
X17.5998Y-18.038
X17.5998Y-18.0695
X17.8346Y-3.2289
X17.8346Y-3.3077
X17.8346Y-3.347
X17.8346Y-3.4258
X17.8346Y-3.4652
X17.8346Y-3.5439
X17.8346Y-3.5833
X17.8346Y-3.662
X17.8346Y-3.7014
X17.8346Y-3.7801
X17.8346Y-3.8195
X17.8346Y-3.8982
X17.8346Y-3.9376
X17.8346Y-4.0163
X17.8346Y-4.0557
X17.8346Y-4.1344
X17.8346Y-4.1738
X17.8346Y-4.2526
X17.8346Y-4.2919
X17.8346Y-4.3707
X17.8346Y-4.41
X17.8356Y-9.1935
X17.8356Y-9.2722
X17.8356Y-9.3116
X17.8356Y-9.3904
X17.8356Y-9.4297
X17.8356Y-9.5085
X17.8356Y-9.5478
X17.8356Y-9.6266
X17.8356Y-9.6659
X17.8356Y-9.7447
X17.8356Y-9.7841
X17.8356Y-9.8628
X17.8356Y-9.9022
X17.8356Y-9.9809
X17.8356Y-10.0203
X17.8356Y-10.099
X17.8356Y-10.1384
X17.8356Y-10.2171
X17.8356Y-10.2565
X17.8356Y-10.3352
X17.8356Y-10.3746
X17.8356Y-15.1581
X17.8356Y-15.2368
X17.8356Y-15.2762
X17.8356Y-15.3549
X17.8356Y-15.3943
X17.8356Y-15.473
X17.8356Y-15.5124
X17.8356Y-15.5911
X17.8356Y-15.6305
X17.8356Y-15.7093
X17.8356Y-15.7486
X17.8356Y-15.8274
X17.8356Y-15.8667
X17.8356Y-15.9455
X17.8356Y-15.9848
X17.8356Y-16.0636
X17.8356Y-16.103
X17.8356Y-16.1817
X17.8356Y-16.2211
X17.8356Y-16.2998
X17.8356Y-16.3392
X17.8409Y-1.3982
X17.8409Y-1.4376
X17.8409Y-1.5163
X17.8409Y-1.5557
X17.8409Y-1.6344
X17.8409Y-1.6738
X17.8409Y-1.7526
X17.8409Y-1.7919
X17.8409Y-1.8707
X17.8409Y-1.91
X17.8409Y-1.9888
X17.8409Y-2.0281
X17.8409Y-2.1069
X17.8409Y-2.1463
X17.8409Y-2.225
X17.8409Y-2.2644
X17.8409Y-2.3431
X17.8409Y-2.3825
X17.8413Y-1.3191
X17.8413Y-5.2167
X17.8413Y-5.2561
X17.8413Y-5.3348
X17.8413Y-5.3742
X17.8413Y-5.453
X17.8413Y-5.4923
X17.8413Y-5.5711
X17.8413Y-5.6104
X17.8413Y-5.6892
X17.8413Y-5.7285
X17.8413Y-5.8073
X17.8413Y-5.8467
X17.8413Y-5.9254
X17.8413Y-5.9648
X17.8413Y-6.0435
X17.8413Y-6.0829
X17.8413Y-6.1616
X17.8413Y-6.201
X17.8413Y-6.2797
X17.8413Y-6.3191
X17.8413Y-6.3978
X17.8413Y-6.4372
X17.8419Y-7.3628
X17.8419Y-7.4022
X17.8419Y-7.4809
X17.8419Y-7.5203
X17.8419Y-7.599
X17.8419Y-7.6384
X17.8419Y-7.7171
X17.8419Y-7.7565
X17.8419Y-7.8352
X17.8419Y-7.8746
X17.8419Y-7.9533
X17.8419Y-7.9927
X17.8419Y-8.0715
X17.8419Y-8.1108
X17.8419Y-8.1896
X17.8419Y-8.2289
X17.8419Y-8.3077
X17.8419Y-8.347
X17.8419Y-13.3274
X17.8419Y-13.3667
X17.8419Y-13.4455
X17.8419Y-13.4848
X17.8419Y-13.5636
X17.8419Y-13.603
X17.8419Y-13.6817
X17.8419Y-13.7211
X17.8419Y-13.7998
X17.8419Y-13.8392
X17.8419Y-13.9179
X17.8419Y-13.9573
X17.8419Y-14.036
X17.8419Y-14.0754
X17.8419Y-14.1541
X17.8419Y-14.1935
X17.8419Y-14.2722
X17.8419Y-14.3116
X17.8423Y-7.2837
X17.8423Y-11.1813
X17.8423Y-11.2207
X17.8423Y-11.2994
X17.8423Y-11.3388
X17.8423Y-11.4175
X17.8423Y-11.4569
X17.8423Y-11.5356
X17.8423Y-11.575
X17.8423Y-11.6537
X17.8423Y-11.6931
X17.8423Y-11.7719
X17.8423Y-11.8112
X17.8423Y-11.89
X17.8423Y-11.9293
X17.8423Y-12.0081
X17.8423Y-12.0474
X17.8423Y-12.1262
X17.8423Y-12.1656
X17.8423Y-12.2443
X17.8423Y-12.2837
X17.8423Y-12.3624
X17.8423Y-12.4018
X17.8423Y-13.2482
X17.8423Y-17.1459
X17.8423Y-17.1852
X17.8423Y-17.264
X17.8423Y-17.3033
X17.8423Y-17.3821
X17.8423Y-17.4215
X17.8423Y-17.5002
X17.8423Y-17.5396
X17.8423Y-17.6183
X17.8423Y-17.6577
X17.8423Y-17.7364
X17.8423Y-17.7758
X17.8423Y-17.8545
X17.8423Y-17.8939
X17.8423Y-17.9726
X17.8423Y-18.012
X17.8423Y-18.0907
X17.8423Y-18.1301
X17.8423Y-18.2089
X17.8423Y-18.2482
X17.8423Y-18.327
X17.8423Y-18.3663
X17.8433Y-1.2797
X17.8443Y-7.2443
X17.8443Y-13.2089
X17.8449Y-2.4612
X17.8459Y-8.4258
X17.8459Y-14.3904
T2
X0.8779Y-4.974
X0.8789Y-10.9386
X0.8789Y-16.9031
X0.9232Y-5.2756
X0.9232Y-5.3543
X0.9232Y-5.4331
X0.9232Y-5.5118
X0.9232Y-5.5906
X0.9232Y-5.6693
X0.9232Y-5.748
X0.9232Y-5.8268
X0.9232Y-5.9055
X0.9232Y-5.9843
X0.9232Y-6.063
X0.9232Y-6.1417
X0.9232Y-6.2205
X0.9232Y-6.2992
X0.9232Y-6.378
X0.9232Y-6.4567
X0.9242Y-11.2402
X0.9242Y-11.3189
X0.9242Y-11.3976
X0.9242Y-11.4764
X0.9242Y-11.5551
X0.9242Y-11.6339
X0.9242Y-11.7126
X0.9242Y-11.7913
X0.9242Y-11.8701
X0.9242Y-11.9488
X0.9242Y-12.0276
X0.9242Y-12.1063
X0.9242Y-12.185
X0.9242Y-12.2638
X0.9242Y-12.3425
X0.9242Y-12.4213
X0.9242Y-17.2047
X0.9242Y-17.2835
X0.9242Y-17.3622
X0.9242Y-17.4409
X0.9242Y-17.5197
X0.9242Y-17.5984
X0.9242Y-17.6772
X0.9242Y-17.7559
X0.9242Y-17.8346
X0.9242Y-17.9134
X0.9242Y-17.9921
X0.9242Y-18.0709
X0.9242Y-18.1496
X0.9242Y-18.2283
X0.9242Y-18.3071
X0.9242Y-18.3858
X0.9244Y-1.2988
X0.9244Y-1.3776
X0.9244Y-1.4563
X0.9244Y-1.535
X0.9244Y-1.6138
X0.9244Y-1.6925
X0.9244Y-1.7713
X0.9244Y-1.85
X0.9244Y-1.9287
X0.9244Y-2.0075
X0.9244Y-2.0862
X0.9244Y-2.165
X0.9244Y-2.2437
X0.9244Y-2.3224
X0.9244Y-2.4012
X0.9244Y-2.4799
X0.9254Y-7.2634
X0.9254Y-7.3421
X0.9254Y-7.4209
X0.9254Y-7.4996
X0.9254Y-7.5783
X0.9254Y-7.6571
X0.9254Y-7.7358
X0.9254Y-7.8146
X0.9254Y-7.8933
X0.9254Y-7.972
X0.9254Y-8.0508
X0.9254Y-8.1295
X0.9254Y-8.2083
X0.9254Y-8.287
X0.9254Y-8.3657
X0.9254Y-8.4445
X0.9254Y-13.228
X0.9254Y-13.3067
X0.9254Y-13.3854
X0.9254Y-13.4642
X0.9254Y-13.5429
X0.9254Y-13.6217
X0.9254Y-13.7004
X0.9254Y-13.7791
X0.9254Y-13.8579
X0.9254Y-13.9366
X0.9254Y-14.0154
X0.9254Y-14.0941
X0.9254Y-14.1728
X0.9254Y-14.2516
X0.9254Y-14.3303
X0.9254Y-14.4091
X0.9335Y-3.2874
X0.9335Y-3.3661
X0.9335Y-3.4449
X0.9335Y-3.5236
X0.9335Y-3.6024
X0.9335Y-3.6811
X0.9335Y-3.7598
X0.9335Y-3.8386
X0.9335Y-3.9173
X0.9335Y-3.9961
X0.9335Y-4.0748
X0.9335Y-4.1535
X0.9335Y-4.2323
X0.9335Y-4.311
X0.9335Y-4.3898
X0.9335Y-4.4685
X0.9344Y-9.252
X0.9344Y-9.3307
X0.9344Y-9.4094
X0.9344Y-9.4882
X0.9344Y-9.5669
X0.9344Y-9.6457
X0.9344Y-9.7244
X0.9344Y-9.8031
X0.9344Y-9.8819
X0.9344Y-9.9606
X0.9344Y-10.0394
X0.9344Y-10.1181
X0.9344Y-10.1969
X0.9344Y-10.2756
X0.9344Y-10.3543
X0.9344Y-10.4331
X0.9344Y-15.2165
X0.9344Y-15.2953
X0.9344Y-15.374
X0.9344Y-15.4528
X0.9344Y-15.5315
X0.9344Y-15.6102
X0.9344Y-15.689
X0.9344Y-15.7677
X0.9344Y-15.8465
X0.9344Y-15.9252
X0.9344Y-16.0039
X0.9344Y-16.0827
X0.9344Y-16.1614
X0.9344Y-16.2402
X0.9344Y-16.3189
X0.9344Y-16.3976
X0.9815Y-5.035
X0.9817Y-6.6502
X0.9823Y-2.6882
X0.9825Y-10.9996
X0.9825Y-16.9642
X0.9827Y-12.6147
X0.9827Y-18.5793
X0.9833Y-8.6528
X0.9833Y-14.6173
X1.0453Y-2.6228
X1.0453Y-6.5748
X1.0462Y-8.5874
X1.0462Y-12.5394
X1.0462Y-14.552
X1.0462Y-18.5039
X1.5071Y-2.5913
X1.5081Y-8.5559
X1.5081Y-14.5205
X1.5083Y-6.2665
X1.5086Y-1.4575
X1.5086Y-1.7409
X1.5086Y-2.0244
X1.5086Y-2.3079
X1.5086Y-5.0059
X1.5086Y-5.3531
X1.5086Y-5.6366
X1.5086Y-5.9201
X1.5086Y-6.2035
X1.509Y-2.6535
X1.509Y-2.7173
X1.509Y-3.0008
X1.509Y-3.2843
X1.509Y-4.6602
X1.509Y-5.0697
X1.5092Y-12.2311
X1.5092Y-18.1957
X1.5096Y-7.422
X1.5096Y-7.7055
X1.5096Y-7.989
X1.5096Y-8.2724
X1.5096Y-10.9705
X1.5096Y-11.3177
X1.5096Y-11.6012
X1.5096Y-11.8846
X1.5096Y-12.1681
X1.5096Y-13.3866
X1.5096Y-13.6701
X1.5096Y-13.9535
X1.5096Y-14.237
X1.5096Y-16.935
X1.5096Y-17.2823
X1.5096Y-17.5657
X1.5096Y-17.8492
X1.5096Y-18.1327
X1.51Y-8.6181
X1.51Y-8.6819
X1.51Y-8.9654
X1.51Y-9.2488
X1.51Y-10.6248
X1.51Y-11.0343
X1.51Y-14.5827
X1.51Y-14.6465
X1.51Y-14.9299
X1.51Y-15.2134
X1.51Y-16.5894
X1.51Y-16.9988
X1.5122Y-4.9433
X1.5132Y-10.9079
X1.5132Y-16.8724
X1.5815Y-4.9431
X1.5825Y-10.9077
X1.5825Y-16.8722
X1.5846Y-2.7171
X1.5846Y-3.0006
X1.5846Y-3.2841
X1.5846Y-4.66
X1.5846Y-5.0695
X1.585Y-1.4573
X1.585Y-1.7407
X1.585Y-2.0242
X1.585Y-2.3077
X1.585Y-5.353
X1.585Y-5.6364
X1.585Y-5.9199
X1.585Y-6.2033
X1.5856Y-8.6817
X1.5856Y-8.9652
X1.5856Y-9.2486
X1.5856Y-10.6246
X1.5856Y-11.0341
X1.5856Y-14.6463
X1.5856Y-14.9297
X1.5856Y-15.2132
X1.5856Y-16.5892
X1.5856Y-16.9986
X1.5858Y-2.6555
X1.586Y-7.4219
X1.586Y-7.7053
X1.586Y-7.9888
X1.586Y-8.2722
X1.586Y-11.3175
X1.586Y-11.601
X1.586Y-11.8844
X1.586Y-12.1679
X1.586Y-13.3864
X1.586Y-13.6699
X1.586Y-13.9533
X1.586Y-14.2368
X1.586Y-17.2821
X1.586Y-17.5656
X1.586Y-17.849
X1.586Y-18.1325
X1.5866Y-2.5911
X1.5868Y-8.6201
X1.5868Y-14.5846
X1.5876Y-8.5557
X1.5876Y-14.5203
X1.5878Y-5.0079
X1.5882Y-6.2665
X1.5888Y-10.9724
X1.5888Y-16.937
X1.5892Y-12.2311
X1.5892Y-18.1957
X2.0492Y-2.6083
X2.0492Y-6.5748
X2.0502Y-8.5728
X2.0502Y-12.5394
X2.0502Y-14.5374
X2.0502Y-18.5039
X2.1112Y-5.0384
X2.1122Y-11.003
X2.1122Y-16.9675
X2.1128Y-6.6502
X2.113Y-2.6717
X2.1137Y-12.6147
X2.1137Y-18.5793
X2.114Y-8.6362
X2.114Y-14.6008
X2.1605Y-3.2874
X2.1605Y-3.3661
X2.1605Y-3.4449
X2.1605Y-3.5236
X2.1605Y-3.6023
X2.1605Y-3.6811
X2.1605Y-3.7598
X2.1605Y-3.8386
X2.1605Y-3.9173
X2.1605Y-3.996
X2.1605Y-4.0748
X2.1605Y-4.1535
X2.1605Y-4.2323
X2.1605Y-4.311
X2.1605Y-4.3897
X2.1605Y-4.4685
X2.1615Y-9.2519
X2.1615Y-9.3307
X2.1615Y-9.4094
X2.1615Y-9.4882
X2.1615Y-9.5669
X2.1615Y-9.6456
X2.1615Y-9.7244
X2.1615Y-9.8031
X2.1615Y-9.8819
X2.1615Y-9.9606
X2.1615Y-10.0393
X2.1615Y-10.1181
X2.1615Y-10.1968
X2.1615Y-10.2756
X2.1615Y-10.3543
X2.1615Y-10.433
X2.1615Y-15.2165
X2.1615Y-15.2952
X2.1615Y-15.374
X2.1615Y-15.4527
X2.1615Y-15.5315
X2.1615Y-15.6102
X2.1615Y-15.6889
X2.1615Y-15.7677
X2.1615Y-15.8464
X2.1615Y-15.9252
X2.1615Y-16.0039
X2.1615Y-16.0826
X2.1615Y-16.1614
X2.1615Y-16.2401
X2.1615Y-16.3189
X2.1615Y-16.3976
X2.1685Y-1.2988
X2.1685Y-1.3776
X2.1685Y-1.4563
X2.1685Y-1.535
X2.1685Y-1.6138
X2.1685Y-1.6925
X2.1685Y-1.7713
X2.1685Y-1.85
X2.1685Y-1.9287
X2.1685Y-2.0075
X2.1685Y-2.0862
X2.1685Y-2.165
X2.1685Y-2.2437
X2.1685Y-2.3224
X2.1685Y-2.4012
X2.1685Y-2.4799
X2.1695Y-7.2634
X2.1695Y-7.3421
X2.1695Y-7.4209
X2.1695Y-7.4996
X2.1695Y-7.5783
X2.1695Y-7.6571
X2.1695Y-7.7358
X2.1695Y-7.8146
X2.1695Y-7.8933
X2.1695Y-7.972
X2.1695Y-8.0508
X2.1695Y-8.1295
X2.1695Y-8.2083
X2.1695Y-8.287
X2.1695Y-8.3657
X2.1695Y-8.4445
X2.1695Y-13.228
X2.1695Y-13.3067
X2.1695Y-13.3854
X2.1695Y-13.4642
X2.1695Y-13.5429
X2.1695Y-13.6217
X2.1695Y-13.7004
X2.1695Y-13.7791
X2.1695Y-13.8579
X2.1695Y-13.9366
X2.1695Y-14.0154
X2.1695Y-14.0941
X2.1695Y-14.1728
X2.1695Y-14.2516
X2.1695Y-14.3303
X2.1695Y-14.4091
X2.1712Y-5.2756
X2.1712Y-5.3543
X2.1712Y-5.4331
X2.1712Y-5.5118
X2.1712Y-5.5906
X2.1712Y-5.6693
X2.1712Y-5.748
X2.1712Y-5.8268
X2.1712Y-5.9055
X2.1712Y-5.9843
X2.1712Y-6.063
X2.1712Y-6.1417
X2.1712Y-6.2205
X2.1712Y-6.2992
X2.1712Y-6.378
X2.1712Y-6.4567
X2.1722Y-11.2402
X2.1722Y-11.3189
X2.1722Y-11.3976
X2.1722Y-11.4764
X2.1722Y-11.5551
X2.1722Y-11.6339
X2.1722Y-11.7126
X2.1722Y-11.7913
X2.1722Y-11.8701
X2.1722Y-11.9488
X2.1722Y-12.0276
X2.1722Y-12.1063
X2.1722Y-12.185
X2.1722Y-12.2638
X2.1722Y-12.3425
X2.1722Y-12.4213
X2.1722Y-17.2047
X2.1722Y-17.2835
X2.1722Y-17.3622
X2.1722Y-17.4409
X2.1722Y-17.5197
X2.1722Y-17.5984
X2.1722Y-17.6772
X2.1722Y-17.7559
X2.1722Y-17.8346
X2.1722Y-17.9134
X2.1722Y-17.9921
X2.1722Y-18.0709
X2.1722Y-18.1496
X2.1722Y-18.2283
X2.1722Y-18.3071
X2.1722Y-18.3858
X2.2175Y-4.9754
X2.2185Y-10.94
X2.2185Y-16.9045
X2.8661Y-4.974
X2.8671Y-10.9386
X2.8671Y-16.9031
X2.9114Y-5.2756
X2.9114Y-5.3543
X2.9114Y-5.4331
X2.9114Y-5.5118
X2.9114Y-5.5906
X2.9114Y-5.6693
X2.9114Y-5.748
X2.9114Y-5.8268
X2.9114Y-5.9055
X2.9114Y-5.9843
X2.9114Y-6.063
X2.9114Y-6.1417
X2.9114Y-6.2205
X2.9114Y-6.2992
X2.9114Y-6.378
X2.9114Y-6.4567
X2.9124Y-11.2402
X2.9124Y-11.3189
X2.9124Y-11.3976
X2.9124Y-11.4764
X2.9124Y-11.5551
X2.9124Y-11.6339
X2.9124Y-11.7126
X2.9124Y-11.7913
X2.9124Y-11.8701
X2.9124Y-11.9488
X2.9124Y-12.0276
X2.9124Y-12.1063
X2.9124Y-12.185
X2.9124Y-12.2638
X2.9124Y-12.3425
X2.9124Y-12.4213
X2.9124Y-17.2047
X2.9124Y-17.2835
X2.9124Y-17.3622
X2.9124Y-17.4409
X2.9124Y-17.5197
X2.9124Y-17.5984
X2.9124Y-17.6772
X2.9124Y-17.7559
X2.9124Y-17.8346
X2.9124Y-17.9134
X2.9124Y-17.9921
X2.9124Y-18.0709
X2.9124Y-18.1496
X2.9124Y-18.2283
X2.9124Y-18.3071
X2.9124Y-18.3858
X2.9126Y-1.2988
X2.9126Y-1.3776
X2.9126Y-1.4563
X2.9126Y-1.535
X2.9126Y-1.6138
X2.9126Y-1.6925
X2.9126Y-1.7713
X2.9126Y-1.85
X2.9126Y-1.9287
X2.9126Y-2.0075
X2.9126Y-2.0862
X2.9126Y-2.165
X2.9126Y-2.2437
X2.9126Y-2.3224
X2.9126Y-2.4012
X2.9126Y-2.4799
X2.9136Y-7.2634
X2.9136Y-7.3421
X2.9136Y-7.4209
X2.9136Y-7.4996
X2.9136Y-7.5783
X2.9136Y-7.6571
X2.9136Y-7.7358
X2.9136Y-7.8146
X2.9136Y-7.8933
X2.9136Y-7.972
X2.9136Y-8.0508
X2.9136Y-8.1295
X2.9136Y-8.2083
X2.9136Y-8.287
X2.9136Y-8.3657
X2.9136Y-8.4445
X2.9136Y-13.228
X2.9136Y-13.3067
X2.9136Y-13.3854
X2.9136Y-13.4642
X2.9136Y-13.5429
X2.9136Y-13.6217
X2.9136Y-13.7004
X2.9136Y-13.7791
X2.9136Y-13.8579
X2.9136Y-13.9366
X2.9136Y-14.0154
X2.9136Y-14.0941
X2.9136Y-14.1728
X2.9136Y-14.2516
X2.9136Y-14.3303
X2.9136Y-14.4091
X2.9216Y-3.2874
X2.9216Y-3.3661
X2.9216Y-3.4449
X2.9216Y-3.5236
X2.9216Y-3.6024
X2.9216Y-3.6811
X2.9216Y-3.7598
X2.9216Y-3.8386
X2.9216Y-3.9173
X2.9216Y-3.9961
X2.9216Y-4.0748
X2.9216Y-4.1535
X2.9216Y-4.2323
X2.9216Y-4.311
X2.9216Y-4.3898
X2.9216Y-4.4685
X2.9226Y-9.252
X2.9226Y-9.3307
X2.9226Y-9.4094
X2.9226Y-9.4882
X2.9226Y-9.5669
X2.9226Y-9.6457
X2.9226Y-9.7244
X2.9226Y-9.8031
X2.9226Y-9.8819
X2.9226Y-9.9606
X2.9226Y-10.0394
X2.9226Y-10.1181
X2.9226Y-10.1969
X2.9226Y-10.2756
X2.9226Y-10.3543
X2.9226Y-10.4331
X2.9226Y-15.2165
X2.9226Y-15.2953
X2.9226Y-15.374
X2.9226Y-15.4528
X2.9226Y-15.5315
X2.9226Y-15.6102
X2.9226Y-15.689
X2.9226Y-15.7677
X2.9226Y-15.8465
X2.9226Y-15.9252
X2.9226Y-16.0039
X2.9226Y-16.0827
X2.9226Y-16.1614
X2.9226Y-16.2402
X2.9226Y-16.3189
X2.9226Y-16.3976
X2.9697Y-5.035
X2.9699Y-6.6502
X2.9705Y-2.6882
X2.9707Y-10.9996
X2.9707Y-16.9642
X2.9709Y-12.6147
X2.9709Y-18.5793
X2.9714Y-8.6528
X2.9714Y-14.6173
X3.0335Y-2.6228
X3.0335Y-6.5748
X3.0344Y-8.5874
X3.0344Y-12.5394
X3.0344Y-14.552
X3.0344Y-18.5039
X3.4953Y-2.5913
X3.4962Y-8.5559
X3.4962Y-14.5205
X3.4964Y-6.2665
X3.4968Y-1.4575
X3.4968Y-1.7409
X3.4968Y-2.0244
X3.4968Y-2.3079
X3.4968Y-5.0059
X3.4968Y-5.3531
X3.4968Y-5.6366
X3.4968Y-5.9201
X3.4968Y-6.2035
X3.4972Y-2.6535
X3.4972Y-2.7173
X3.4972Y-3.0008
X3.4972Y-3.2843
X3.4972Y-4.6602
X3.4972Y-5.0697
X3.4974Y-12.2311
X3.4974Y-18.1957
X3.4978Y-7.422
X3.4978Y-7.7055
X3.4978Y-7.989
X3.4978Y-8.2724
X3.4978Y-10.9705
X3.4978Y-11.3177
X3.4978Y-11.6012
X3.4978Y-11.8846
X3.4978Y-12.1681
X3.4978Y-13.3866
X3.4978Y-13.6701
X3.4978Y-13.9535
X3.4978Y-14.237
X3.4978Y-16.935
X3.4978Y-17.2823
X3.4978Y-17.5657
X3.4978Y-17.8492
X3.4978Y-18.1327
X3.4982Y-8.6181
X3.4982Y-8.6819
X3.4982Y-8.9654
X3.4982Y-9.2488
X3.4982Y-10.6248
X3.4982Y-11.0343
X3.4982Y-14.5827
X3.4982Y-14.6465
X3.4982Y-14.9299
X3.4982Y-15.2134
X3.4982Y-16.5894
X3.4982Y-16.9988
X3.5004Y-4.9433
X3.5014Y-10.9079
X3.5014Y-16.8724
X3.5697Y-4.9431
X3.5707Y-10.9077
X3.5707Y-16.8722
X3.5728Y-2.7171
X3.5728Y-3.0006
X3.5728Y-3.2841
X3.5728Y-4.66
X3.5728Y-5.0695
X3.5732Y-1.4573
X3.5732Y-1.7407
X3.5732Y-2.0242
X3.5732Y-2.3077
X3.5732Y-5.353
X3.5732Y-5.6364
X3.5732Y-5.9199
X3.5732Y-6.2033
X3.5738Y-8.6817
X3.5738Y-8.9652
X3.5738Y-9.2486
X3.5738Y-10.6246
X3.5738Y-11.0341
X3.5738Y-14.6463
X3.5738Y-14.9297
X3.5738Y-15.2132
X3.5738Y-16.5892
X3.5738Y-16.9986
X3.574Y-2.6555
X3.5742Y-7.4219
X3.5742Y-7.7053
X3.5742Y-7.9888
X3.5742Y-8.2722
X3.5742Y-11.3175
X3.5742Y-11.601
X3.5742Y-11.8844
X3.5742Y-12.1679
X3.5742Y-13.3864
X3.5742Y-13.6699
X3.5742Y-13.9533
X3.5742Y-14.2368
X3.5742Y-17.2821
X3.5742Y-17.5656
X3.5742Y-17.849
X3.5742Y-18.1325
X3.5748Y-2.5911
X3.575Y-8.6201
X3.575Y-14.5846
X3.5758Y-8.5557
X3.5758Y-14.5203
X3.576Y-5.0079
X3.5764Y-6.2665
X3.577Y-10.9724
X3.577Y-16.937
X3.5773Y-12.2311
X3.5773Y-18.1957
X4.0374Y-2.6083
X4.0374Y-6.5748
X4.0384Y-8.5728
X4.0384Y-12.5394
X4.0384Y-14.5374
X4.0384Y-18.5039
X4.0994Y-5.0384
X4.1004Y-11.003
X4.1004Y-16.9675
X4.101Y-6.6502
X4.1012Y-2.6717
X4.1019Y-12.6147
X4.1019Y-18.5793
X4.1022Y-8.6362
X4.1022Y-14.6008
X4.1487Y-3.2874
X4.1487Y-3.3661
X4.1487Y-3.4449
X4.1487Y-3.5236
X4.1487Y-3.6023
X4.1487Y-3.6811
X4.1487Y-3.7598
X4.1487Y-3.8386
X4.1487Y-3.9173
X4.1487Y-3.996
X4.1487Y-4.0748
X4.1487Y-4.1535
X4.1487Y-4.2323
X4.1487Y-4.311
X4.1487Y-4.3897
X4.1487Y-4.4685
X4.1497Y-9.2519
X4.1497Y-9.3307
X4.1497Y-9.4094
X4.1497Y-9.4882
X4.1497Y-9.5669
X4.1497Y-9.6456
X4.1497Y-9.7244
X4.1497Y-9.8031
X4.1497Y-9.8819
X4.1497Y-9.9606
X4.1497Y-10.0393
X4.1497Y-10.1181
X4.1497Y-10.1968
X4.1497Y-10.2756
X4.1497Y-10.3543
X4.1497Y-10.433
X4.1497Y-15.2165
X4.1497Y-15.2952
X4.1497Y-15.374
X4.1497Y-15.4527
X4.1497Y-15.5315
X4.1497Y-15.6102
X4.1497Y-15.6889
X4.1497Y-15.7677
X4.1497Y-15.8464
X4.1497Y-15.9252
X4.1497Y-16.0039
X4.1497Y-16.0826
X4.1497Y-16.1614
X4.1497Y-16.2401
X4.1497Y-16.3189
X4.1497Y-16.3976
X4.1567Y-1.2988
X4.1567Y-1.3776
X4.1567Y-1.4563
X4.1567Y-1.535
X4.1567Y-1.6138
X4.1567Y-1.6925
X4.1567Y-1.7713
X4.1567Y-1.85
X4.1567Y-1.9287
X4.1567Y-2.0075
X4.1567Y-2.0862
X4.1567Y-2.165
X4.1567Y-2.2437
X4.1567Y-2.3224
X4.1567Y-2.4012
X4.1567Y-2.4799
X4.1577Y-7.2634
X4.1577Y-7.3421
X4.1577Y-7.4209
X4.1577Y-7.4996
X4.1577Y-7.5783
X4.1577Y-7.6571
X4.1577Y-7.7358
X4.1577Y-7.8146
X4.1577Y-7.8933
X4.1577Y-7.972
X4.1577Y-8.0508
X4.1577Y-8.1295
X4.1577Y-8.2083
X4.1577Y-8.287
X4.1577Y-8.3657
X4.1577Y-8.4445
X4.1577Y-13.228
X4.1577Y-13.3067
X4.1577Y-13.3854
X4.1577Y-13.4642
X4.1577Y-13.5429
X4.1577Y-13.6217
X4.1577Y-13.7004
X4.1577Y-13.7791
X4.1577Y-13.8579
X4.1577Y-13.9366
X4.1577Y-14.0154
X4.1577Y-14.0941
X4.1577Y-14.1728
X4.1577Y-14.2516
X4.1577Y-14.3303
X4.1577Y-14.4091
X4.1594Y-5.2756
X4.1594Y-5.3543
X4.1594Y-5.4331
X4.1594Y-5.5118
X4.1594Y-5.5906
X4.1594Y-5.6693
X4.1594Y-5.748
X4.1594Y-5.8268
X4.1594Y-5.9055
X4.1594Y-5.9843
X4.1594Y-6.063
X4.1594Y-6.1417
X4.1594Y-6.2205
X4.1594Y-6.2992
X4.1594Y-6.378
X4.1594Y-6.4567
X4.1604Y-11.2402
X4.1604Y-11.3189
X4.1604Y-11.3976
X4.1604Y-11.4764
X4.1604Y-11.5551
X4.1604Y-11.6339
X4.1604Y-11.7126
X4.1604Y-11.7913
X4.1604Y-11.8701
X4.1604Y-11.9488
X4.1604Y-12.0276
X4.1604Y-12.1063
X4.1604Y-12.185
X4.1604Y-12.2638
X4.1604Y-12.3425
X4.1604Y-12.4213
X4.1604Y-17.2047
X4.1604Y-17.2835
X4.1604Y-17.3622
X4.1604Y-17.4409
X4.1604Y-17.5197
X4.1604Y-17.5984
X4.1604Y-17.6772
X4.1604Y-17.7559
X4.1604Y-17.8346
X4.1604Y-17.9134
X4.1604Y-17.9921
X4.1604Y-18.0709
X4.1604Y-18.1496
X4.1604Y-18.2283
X4.1604Y-18.3071
X4.1604Y-18.3858
X4.2057Y-4.9754
X4.2067Y-10.94
X4.2067Y-16.9045
X4.8543Y-4.974
X4.8553Y-10.9386
X4.8553Y-16.9031
X4.8996Y-5.2756
X4.8996Y-5.3543
X4.8996Y-5.4331
X4.8996Y-5.5118
X4.8996Y-5.5906
X4.8996Y-5.6693
X4.8996Y-5.748
X4.8996Y-5.8268
X4.8996Y-5.9055
X4.8996Y-5.9843
X4.8996Y-6.063
X4.8996Y-6.1417
X4.8996Y-6.2205
X4.8996Y-6.2992
X4.8996Y-6.378
X4.8996Y-6.4567
X4.9006Y-11.2402
X4.9006Y-11.3189
X4.9006Y-11.3976
X4.9006Y-11.4764
X4.9006Y-11.5551
X4.9006Y-11.6339
X4.9006Y-11.7126
X4.9006Y-11.7913
X4.9006Y-11.8701
X4.9006Y-11.9488
X4.9006Y-12.0276
X4.9006Y-12.1063
X4.9006Y-12.185
X4.9006Y-12.2638
X4.9006Y-12.3425
X4.9006Y-12.4213
X4.9006Y-17.2047
X4.9006Y-17.2835
X4.9006Y-17.3622
X4.9006Y-17.4409
X4.9006Y-17.5197
X4.9006Y-17.5984
X4.9006Y-17.6772
X4.9006Y-17.7559
X4.9006Y-17.8346
X4.9006Y-17.9134
X4.9006Y-17.9921
X4.9006Y-18.0709
X4.9006Y-18.1496
X4.9006Y-18.2283
X4.9006Y-18.3071
X4.9006Y-18.3858
X4.9008Y-1.2988
X4.9008Y-1.3776
X4.9008Y-1.4563
X4.9008Y-1.535
X4.9008Y-1.6138
X4.9008Y-1.6925
X4.9008Y-1.7713
X4.9008Y-1.85
X4.9008Y-1.9287
X4.9008Y-2.0075
X4.9008Y-2.0862
X4.9008Y-2.165
X4.9008Y-2.2437
X4.9008Y-2.3224
X4.9008Y-2.4012
X4.9008Y-2.4799
X4.9018Y-7.2634
X4.9018Y-7.3421
X4.9018Y-7.4209
X4.9018Y-7.4996
X4.9018Y-7.5783
X4.9018Y-7.6571
X4.9018Y-7.7358
X4.9018Y-7.8146
X4.9018Y-7.8933
X4.9018Y-7.972
X4.9018Y-8.0508
X4.9018Y-8.1295
X4.9018Y-8.2083
X4.9018Y-8.287
X4.9018Y-8.3657
X4.9018Y-8.4445
X4.9018Y-13.228
X4.9018Y-13.3067
X4.9018Y-13.3854
X4.9018Y-13.4642
X4.9018Y-13.5429
X4.9018Y-13.6217
X4.9018Y-13.7004
X4.9018Y-13.7791
X4.9018Y-13.8579
X4.9018Y-13.9366
X4.9018Y-14.0154
X4.9018Y-14.0941
X4.9018Y-14.1728
X4.9018Y-14.2516
X4.9018Y-14.3303
X4.9018Y-14.4091
X4.9098Y-3.2874
X4.9098Y-3.3661
X4.9098Y-3.4449
X4.9098Y-3.5236
X4.9098Y-3.6024
X4.9098Y-3.6811
X4.9098Y-3.7598
X4.9098Y-3.8386
X4.9098Y-3.9173
X4.9098Y-3.9961
X4.9098Y-4.0748
X4.9098Y-4.1535
X4.9098Y-4.2323
X4.9098Y-4.311
X4.9098Y-4.3898
X4.9098Y-4.4685
X4.9108Y-9.252
X4.9108Y-9.3307
X4.9108Y-9.4094
X4.9108Y-9.4882
X4.9108Y-9.5669
X4.9108Y-9.6457
X4.9108Y-9.7244
X4.9108Y-9.8031
X4.9108Y-9.8819
X4.9108Y-9.9606
X4.9108Y-10.0394
X4.9108Y-10.1181
X4.9108Y-10.1969
X4.9108Y-10.2756
X4.9108Y-10.3543
X4.9108Y-10.4331
X4.9108Y-15.2165
X4.9108Y-15.2953
X4.9108Y-15.374
X4.9108Y-15.4528
X4.9108Y-15.5315
X4.9108Y-15.6102
X4.9108Y-15.689
X4.9108Y-15.7677
X4.9108Y-15.8465
X4.9108Y-15.9252
X4.9108Y-16.0039
X4.9108Y-16.0827
X4.9108Y-16.1614
X4.9108Y-16.2402
X4.9108Y-16.3189
X4.9108Y-16.3976
X4.9579Y-5.035
X4.9581Y-6.6502
X4.9586Y-2.6882
X4.9588Y-10.9996
X4.9588Y-16.9642
X4.9591Y-12.6147
X4.9591Y-18.5793
X4.9596Y-8.6528
X4.9596Y-14.6173
X5.0216Y-2.6228
X5.0216Y-6.5748
X5.0226Y-8.5874
X5.0226Y-12.5394
X5.0226Y-14.552
X5.0226Y-18.5039
X5.4835Y-2.5913
X5.4844Y-8.5559
X5.4844Y-14.5205
X5.4846Y-6.2665
X5.485Y-1.4575
X5.485Y-1.7409
X5.485Y-2.0244
X5.485Y-2.3079
X5.485Y-5.0059
X5.485Y-5.3531
X5.485Y-5.6366
X5.485Y-5.9201
X5.485Y-6.2035
X5.4854Y-2.6535
X5.4854Y-2.7173
X5.4854Y-3.0008
X5.4854Y-3.2843
X5.4854Y-4.6602
X5.4854Y-5.0697
X5.4856Y-12.2311
X5.4856Y-18.1957
X5.486Y-7.422
X5.486Y-7.7055
X5.486Y-7.989
X5.486Y-8.2724
X5.486Y-10.9705
X5.486Y-11.3177
X5.486Y-11.6012
X5.486Y-11.8846
X5.486Y-12.1681
X5.486Y-13.3866
X5.486Y-13.6701
X5.486Y-13.9535
X5.486Y-14.237
X5.486Y-16.935
X5.486Y-17.2823
X5.486Y-17.5657
X5.486Y-17.8492
X5.486Y-18.1327
X5.4864Y-8.6181
X5.4864Y-8.6819
X5.4864Y-8.9654
X5.4864Y-9.2488
X5.4864Y-10.6248
X5.4864Y-11.0343
X5.4864Y-14.5827
X5.4864Y-14.6465
X5.4864Y-14.9299
X5.4864Y-15.2134
X5.4864Y-16.5894
X5.4864Y-16.9988
X5.4886Y-4.9433
X5.4896Y-10.9079
X5.4896Y-16.8724
X5.5579Y-4.9431
X5.5588Y-10.9077
X5.5588Y-16.8722
X5.561Y-2.7171
X5.561Y-3.0006
X5.561Y-3.2841
X5.561Y-4.66
X5.561Y-5.0695
X5.5614Y-1.4573
X5.5614Y-1.7407
X5.5614Y-2.0242
X5.5614Y-2.3077
X5.5614Y-5.353
X5.5614Y-5.6364
X5.5614Y-5.9199
X5.5614Y-6.2033
X5.562Y-8.6817
X5.562Y-8.9652
X5.562Y-9.2486
X5.562Y-10.6246
X5.562Y-11.0341
X5.562Y-14.6463
X5.562Y-14.9297
X5.562Y-15.2132
X5.562Y-16.5892
X5.562Y-16.9986
X5.5622Y-2.6555
X5.5624Y-7.4219
X5.5624Y-7.7053
X5.5624Y-7.9888
X5.5624Y-8.2722
X5.5624Y-11.3175
X5.5624Y-11.601
X5.5624Y-11.8844
X5.5624Y-12.1679
X5.5624Y-13.3864
X5.5624Y-13.6699
X5.5624Y-13.9533
X5.5624Y-14.2368
X5.5624Y-17.2821
X5.5624Y-17.5656
X5.5624Y-17.849
X5.5624Y-18.1325
X5.563Y-2.5911
X5.5632Y-8.6201
X5.5632Y-14.5846
X5.564Y-8.5557
X5.564Y-14.5203
X5.5642Y-5.0079
X5.5646Y-6.2665
X5.5651Y-10.9724
X5.5651Y-16.937
X5.5655Y-12.2311
X5.5655Y-18.1957
X6.0256Y-2.6083
X6.0256Y-6.5748
X6.0266Y-8.5728
X6.0266Y-12.5394
X6.0266Y-14.5374
X6.0266Y-18.5039
X6.0876Y-5.0384
X6.0886Y-11.003
X6.0886Y-16.9675
X6.0891Y-6.6502
X6.0894Y-2.6717
X6.0901Y-12.6147
X6.0901Y-18.5793
X6.0903Y-8.6362
X6.0903Y-14.6008
X6.1369Y-3.2874
X6.1369Y-3.3661
X6.1369Y-3.4449
X6.1369Y-3.5236
X6.1369Y-3.6023
X6.1369Y-3.6811
X6.1369Y-3.7598
X6.1369Y-3.8386
X6.1369Y-3.9173
X6.1369Y-3.996
X6.1369Y-4.0748
X6.1369Y-4.1535
X6.1369Y-4.2323
X6.1369Y-4.311
X6.1369Y-4.3897
X6.1369Y-4.4685
X6.1378Y-9.2519
X6.1378Y-9.3307
X6.1378Y-9.4094
X6.1378Y-9.4882
X6.1378Y-9.5669
X6.1378Y-9.6456
X6.1378Y-9.7244
X6.1378Y-9.8031
X6.1378Y-9.8819
X6.1378Y-9.9606
X6.1378Y-10.0393
X6.1378Y-10.1181
X6.1378Y-10.1968
X6.1378Y-10.2756
X6.1378Y-10.3543
X6.1378Y-10.433
X6.1378Y-15.2165
X6.1378Y-15.2952
X6.1378Y-15.374
X6.1378Y-15.4527
X6.1378Y-15.5315
X6.1378Y-15.6102
X6.1378Y-15.6889
X6.1378Y-15.7677
X6.1378Y-15.8464
X6.1378Y-15.9252
X6.1378Y-16.0039
X6.1378Y-16.0826
X6.1378Y-16.1614
X6.1378Y-16.2401
X6.1378Y-16.3189
X6.1378Y-16.3976
X6.1449Y-1.2988
X6.1449Y-1.3776
X6.1449Y-1.4563
X6.1449Y-1.535
X6.1449Y-1.6138
X6.1449Y-1.6925
X6.1449Y-1.7713
X6.1449Y-1.85
X6.1449Y-1.9287
X6.1449Y-2.0075
X6.1449Y-2.0862
X6.1449Y-2.165
X6.1449Y-2.2437
X6.1449Y-2.3224
X6.1449Y-2.4012
X6.1449Y-2.4799
X6.1459Y-7.2634
X6.1459Y-7.3421
X6.1459Y-7.4209
X6.1459Y-7.4996
X6.1459Y-7.5783
X6.1459Y-7.6571
X6.1459Y-7.7358
X6.1459Y-7.8146
X6.1459Y-7.8933
X6.1459Y-7.972
X6.1459Y-8.0508
X6.1459Y-8.1295
X6.1459Y-8.2083
X6.1459Y-8.287
X6.1459Y-8.3657
X6.1459Y-8.4445
X6.1459Y-13.228
X6.1459Y-13.3067
X6.1459Y-13.3854
X6.1459Y-13.4642
X6.1459Y-13.5429
X6.1459Y-13.6217
X6.1459Y-13.7004
X6.1459Y-13.7791
X6.1459Y-13.8579
X6.1459Y-13.9366
X6.1459Y-14.0154
X6.1459Y-14.0941
X6.1459Y-14.1728
X6.1459Y-14.2516
X6.1459Y-14.3303
X6.1459Y-14.4091
X6.1476Y-5.2756
X6.1476Y-5.3543
X6.1476Y-5.4331
X6.1476Y-5.5118
X6.1476Y-5.5906
X6.1476Y-5.6693
X6.1476Y-5.748
X6.1476Y-5.8268
X6.1476Y-5.9055
X6.1476Y-5.9843
X6.1476Y-6.063
X6.1476Y-6.1417
X6.1476Y-6.2205
X6.1476Y-6.2992
X6.1476Y-6.378
X6.1476Y-6.4567
X6.1486Y-11.2402
X6.1486Y-11.3189
X6.1486Y-11.3976
X6.1486Y-11.4764
X6.1486Y-11.5551
X6.1486Y-11.6339
X6.1486Y-11.7126
X6.1486Y-11.7913
X6.1486Y-11.8701
X6.1486Y-11.9488
X6.1486Y-12.0276
X6.1486Y-12.1063
X6.1486Y-12.185
X6.1486Y-12.2638
X6.1486Y-12.3425
X6.1486Y-12.4213
X6.1486Y-17.2047
X6.1486Y-17.2835
X6.1486Y-17.3622
X6.1486Y-17.4409
X6.1486Y-17.5197
X6.1486Y-17.5984
X6.1486Y-17.6772
X6.1486Y-17.7559
X6.1486Y-17.8346
X6.1486Y-17.9134
X6.1486Y-17.9921
X6.1486Y-18.0709
X6.1486Y-18.1496
X6.1486Y-18.2283
X6.1486Y-18.3071
X6.1486Y-18.3858
X6.1939Y-4.9754
X6.1949Y-10.94
X6.1949Y-16.9045
X6.8425Y-4.974
X6.8435Y-10.9386
X6.8435Y-16.9031
X6.8878Y-5.2756
X6.8878Y-5.3543
X6.8878Y-5.4331
X6.8878Y-5.5118
X6.8878Y-5.5906
X6.8878Y-5.6693
X6.8878Y-5.748
X6.8878Y-5.8268
X6.8878Y-5.9055
X6.8878Y-5.9843
X6.8878Y-6.063
X6.8878Y-6.1417
X6.8878Y-6.2205
X6.8878Y-6.2992
X6.8878Y-6.378
X6.8878Y-6.4567
X6.8888Y-11.2402
X6.8888Y-11.3189
X6.8888Y-11.3976
X6.8888Y-11.4764
X6.8888Y-11.5551
X6.8888Y-11.6339
X6.8888Y-11.7126
X6.8888Y-11.7913
X6.8888Y-11.8701
X6.8888Y-11.9488
X6.8888Y-12.0276
X6.8888Y-12.1063
X6.8888Y-12.185
X6.8888Y-12.2638
X6.8888Y-12.3425
X6.8888Y-12.4213
X6.8888Y-17.2047
X6.8888Y-17.2835
X6.8888Y-17.3622
X6.8888Y-17.4409
X6.8888Y-17.5197
X6.8888Y-17.5984
X6.8888Y-17.6772
X6.8888Y-17.7559
X6.8888Y-17.8346
X6.8888Y-17.9134
X6.8888Y-17.9921
X6.8888Y-18.0709
X6.8888Y-18.1496
X6.8888Y-18.2283
X6.8888Y-18.3071
X6.8888Y-18.3858
X6.889Y-1.2988
X6.889Y-1.3776
X6.889Y-1.4563
X6.889Y-1.535
X6.889Y-1.6138
X6.889Y-1.6925
X6.889Y-1.7713
X6.889Y-1.85
X6.889Y-1.9287
X6.889Y-2.0075
X6.889Y-2.0862
X6.889Y-2.165
X6.889Y-2.2437
X6.889Y-2.3224
X6.889Y-2.4012
X6.889Y-2.4799
X6.8899Y-7.2634
X6.8899Y-7.3421
X6.8899Y-7.4209
X6.8899Y-7.4996
X6.8899Y-7.5783
X6.8899Y-7.6571
X6.8899Y-7.7358
X6.8899Y-7.8146
X6.8899Y-7.8933
X6.8899Y-7.972
X6.8899Y-8.0508
X6.8899Y-8.1295
X6.8899Y-8.2083
X6.8899Y-8.287
X6.8899Y-8.3657
X6.8899Y-8.4445
X6.8899Y-13.228
X6.8899Y-13.3067
X6.8899Y-13.3854
X6.8899Y-13.4642
X6.8899Y-13.5429
X6.8899Y-13.6217
X6.8899Y-13.7004
X6.8899Y-13.7791
X6.8899Y-13.8579
X6.8899Y-13.9366
X6.8899Y-14.0154
X6.8899Y-14.0941
X6.8899Y-14.1728
X6.8899Y-14.2516
X6.8899Y-14.3303
X6.8899Y-14.4091
X6.898Y-3.2874
X6.898Y-3.3661
X6.898Y-3.4449
X6.898Y-3.5236
X6.898Y-3.6024
X6.898Y-3.6811
X6.898Y-3.7598
X6.898Y-3.8386
X6.898Y-3.9173
X6.898Y-3.9961
X6.898Y-4.0748
X6.898Y-4.1535
X6.898Y-4.2323
X6.898Y-4.311
X6.898Y-4.3898
X6.898Y-4.4685
X6.899Y-9.252
X6.899Y-9.3307
X6.899Y-9.4094
X6.899Y-9.4882
X6.899Y-9.5669
X6.899Y-9.6457
X6.899Y-9.7244
X6.899Y-9.8031
X6.899Y-9.8819
X6.899Y-9.9606
X6.899Y-10.0394
X6.899Y-10.1181
X6.899Y-10.1969
X6.899Y-10.2756
X6.899Y-10.3543
X6.899Y-10.4331
X6.899Y-15.2165
X6.899Y-15.2953
X6.899Y-15.374
X6.899Y-15.4528
X6.899Y-15.5315
X6.899Y-15.6102
X6.899Y-15.689
X6.899Y-15.7677
X6.899Y-15.8465
X6.899Y-15.9252
X6.899Y-16.0039
X6.899Y-16.0827
X6.899Y-16.1614
X6.899Y-16.2402
X6.899Y-16.3189
X6.899Y-16.3976
X6.9461Y-5.035
X6.9463Y-6.6502
X6.9468Y-2.6882
X6.947Y-10.9996
X6.947Y-16.9642
X6.9473Y-12.6147
X6.9473Y-18.5793
X6.9478Y-8.6528
X6.9478Y-14.6173
X7.0098Y-2.6228
X7.0098Y-6.5748
X7.0108Y-8.5874
X7.0108Y-12.5394
X7.0108Y-14.552
X7.0108Y-18.5039
X7.4716Y-2.5913
X7.4726Y-8.5559
X7.4726Y-14.5205
X7.4728Y-6.2665
X7.4732Y-1.4575
X7.4732Y-1.7409
X7.4732Y-2.0244
X7.4732Y-2.3079
X7.4732Y-5.0059
X7.4732Y-5.3531
X7.4732Y-5.6366
X7.4732Y-5.9201
X7.4732Y-6.2035
X7.4736Y-2.6535
X7.4736Y-2.7173
X7.4736Y-3.0008
X7.4736Y-3.2843
X7.4736Y-4.6602
X7.4736Y-5.0697
X7.4738Y-12.2311
X7.4738Y-18.1957
X7.4742Y-7.422
X7.4742Y-7.7055
X7.4742Y-7.989
X7.4742Y-8.2724
X7.4742Y-10.9705
X7.4742Y-11.3177
X7.4742Y-11.6012
X7.4742Y-11.8846
X7.4742Y-12.1681
X7.4742Y-13.3866
X7.4742Y-13.6701
X7.4742Y-13.9535
X7.4742Y-14.237
X7.4742Y-16.935
X7.4742Y-17.2823
X7.4742Y-17.5657
X7.4742Y-17.8492
X7.4742Y-18.1327
X7.4746Y-8.6181
X7.4746Y-8.6819
X7.4746Y-8.9654
X7.4746Y-9.2488
X7.4746Y-10.6248
X7.4746Y-11.0343
X7.4746Y-14.5827
X7.4746Y-14.6465
X7.4746Y-14.9299
X7.4746Y-15.2134
X7.4746Y-16.5894
X7.4746Y-16.9988
X7.4768Y-4.9433
X7.4777Y-10.9079
X7.4777Y-16.8724
X7.5461Y-4.9431
X7.547Y-10.9077
X7.547Y-16.8722
X7.5492Y-2.7171
X7.5492Y-3.0006
X7.5492Y-3.2841
X7.5492Y-4.66
X7.5492Y-5.0695
X7.5496Y-1.4573
X7.5496Y-1.7407
X7.5496Y-2.0242
X7.5496Y-2.3077
X7.5496Y-5.353
X7.5496Y-5.6364
X7.5496Y-5.9199
X7.5496Y-6.2033
X7.5502Y-8.6817
X7.5502Y-8.9652
X7.5502Y-9.2486
X7.5502Y-10.6246
X7.5502Y-11.0341
X7.5502Y-14.6463
X7.5502Y-14.9297
X7.5502Y-15.2132
X7.5502Y-16.5892
X7.5502Y-16.9986
X7.5504Y-2.6555
X7.5506Y-7.4219
X7.5506Y-7.7053
X7.5506Y-7.9888
X7.5506Y-8.2722
X7.5506Y-11.3175
X7.5506Y-11.601
X7.5506Y-11.8844
X7.5506Y-12.1679
X7.5506Y-13.3864
X7.5506Y-13.6699
X7.5506Y-13.9533
X7.5506Y-14.2368
X7.5506Y-17.2821
X7.5506Y-17.5656
X7.5506Y-17.849
X7.5506Y-18.1325
X7.5512Y-2.5911
X7.5514Y-8.6201
X7.5514Y-14.5846
X7.5522Y-8.5557
X7.5522Y-14.5203
X7.5523Y-5.0079
X7.5527Y-6.2665
X7.5533Y-10.9724
X7.5533Y-16.937
X7.5537Y-12.2311
X7.5537Y-18.1957
X8.0138Y-2.6083
X8.0138Y-6.5748
X8.0148Y-8.5728
X8.0148Y-12.5394
X8.0148Y-14.5374
X8.0148Y-18.5039
X8.0758Y-5.0384
X8.0768Y-11.003
X8.0768Y-16.9675
X8.0773Y-6.6502
X8.0775Y-2.6717
X8.0783Y-12.6147
X8.0783Y-18.5793
X8.0785Y-8.6362
X8.0785Y-14.6008
X8.1251Y-3.2874
X8.1251Y-3.3661
X8.1251Y-3.4449
X8.1251Y-3.5236
X8.1251Y-3.6023
X8.1251Y-3.6811
X8.1251Y-3.7598
X8.1251Y-3.8386
X8.1251Y-3.9173
X8.1251Y-3.996
X8.1251Y-4.0748
X8.1251Y-4.1535
X8.1251Y-4.2323
X8.1251Y-4.311
X8.1251Y-4.3897
X8.1251Y-4.4685
X8.126Y-9.2519
X8.126Y-9.3307
X8.126Y-9.4094
X8.126Y-9.4882
X8.126Y-9.5669
X8.126Y-9.6456
X8.126Y-9.7244
X8.126Y-9.8031
X8.126Y-9.8819
X8.126Y-9.9606
X8.126Y-10.0393
X8.126Y-10.1181
X8.126Y-10.1968
X8.126Y-10.2756
X8.126Y-10.3543
X8.126Y-10.433
X8.126Y-15.2165
X8.126Y-15.2952
X8.126Y-15.374
X8.126Y-15.4527
X8.126Y-15.5315
X8.126Y-15.6102
X8.126Y-15.6889
X8.126Y-15.7677
X8.126Y-15.8464
X8.126Y-15.9252
X8.126Y-16.0039
X8.126Y-16.0826
X8.126Y-16.1614
X8.126Y-16.2401
X8.126Y-16.3189
X8.126Y-16.3976
X8.1331Y-1.2988
X8.1331Y-1.3776
X8.1331Y-1.4563
X8.1331Y-1.535
X8.1331Y-1.6138
X8.1331Y-1.6925
X8.1331Y-1.7713
X8.1331Y-1.85
X8.1331Y-1.9287
X8.1331Y-2.0075
X8.1331Y-2.0862
X8.1331Y-2.165
X8.1331Y-2.2437
X8.1331Y-2.3224
X8.1331Y-2.4012
X8.1331Y-2.4799
X8.134Y-7.2634
X8.134Y-7.3421
X8.134Y-7.4209
X8.134Y-7.4996
X8.134Y-7.5783
X8.134Y-7.6571
X8.134Y-7.7358
X8.134Y-7.8146
X8.134Y-7.8933
X8.134Y-7.972
X8.134Y-8.0508
X8.134Y-8.1295
X8.134Y-8.2083
X8.134Y-8.287
X8.134Y-8.3657
X8.134Y-8.4445
X8.134Y-13.228
X8.134Y-13.3067
X8.134Y-13.3854
X8.134Y-13.4642
X8.134Y-13.5429
X8.134Y-13.6217
X8.134Y-13.7004
X8.134Y-13.7791
X8.134Y-13.8579
X8.134Y-13.9366
X8.134Y-14.0154
X8.134Y-14.0941
X8.134Y-14.1728
X8.134Y-14.2516
X8.134Y-14.3303
X8.134Y-14.4091
X8.1358Y-5.2756
X8.1358Y-5.3543
X8.1358Y-5.4331
X8.1358Y-5.5118
X8.1358Y-5.5906
X8.1358Y-5.6693
X8.1358Y-5.748
X8.1358Y-5.8268
X8.1358Y-5.9055
X8.1358Y-5.9843
X8.1358Y-6.063
X8.1358Y-6.1417
X8.1358Y-6.2205
X8.1358Y-6.2992
X8.1358Y-6.378
X8.1358Y-6.4567
X8.1368Y-11.2402
X8.1368Y-11.3189
X8.1368Y-11.3976
X8.1368Y-11.4764
X8.1368Y-11.5551
X8.1368Y-11.6339
X8.1368Y-11.7126
X8.1368Y-11.7913
X8.1368Y-11.8701
X8.1368Y-11.9488
X8.1368Y-12.0276
X8.1368Y-12.1063
X8.1368Y-12.185
X8.1368Y-12.2638
X8.1368Y-12.3425
X8.1368Y-12.4213
X8.1368Y-17.2047
X8.1368Y-17.2835
X8.1368Y-17.3622
X8.1368Y-17.4409
X8.1368Y-17.5197
X8.1368Y-17.5984
X8.1368Y-17.6772
X8.1368Y-17.7559
X8.1368Y-17.8346
X8.1368Y-17.9134
X8.1368Y-17.9921
X8.1368Y-18.0709
X8.1368Y-18.1496
X8.1368Y-18.2283
X8.1368Y-18.3071
X8.1368Y-18.3858
X8.1821Y-4.9754
X8.1831Y-10.94
X8.1831Y-16.9045
X8.8307Y-4.974
X8.8317Y-10.9386
X8.8317Y-16.9031
X8.876Y-5.2756
X8.876Y-5.3543
X8.876Y-5.4331
X8.876Y-5.5118
X8.876Y-5.5906
X8.876Y-5.6693
X8.876Y-5.748
X8.876Y-5.8268
X8.876Y-5.9055
X8.876Y-5.9843
X8.876Y-6.063
X8.876Y-6.1417
X8.876Y-6.2205
X8.876Y-6.2992
X8.876Y-6.378
X8.876Y-6.4567
X8.877Y-11.2402
X8.877Y-11.3189
X8.877Y-11.3976
X8.877Y-11.4764
X8.877Y-11.5551
X8.877Y-11.6339
X8.877Y-11.7126
X8.877Y-11.7913
X8.877Y-11.8701
X8.877Y-11.9488
X8.877Y-12.0276
X8.877Y-12.1063
X8.877Y-12.185
X8.877Y-12.2638
X8.877Y-12.3425
X8.877Y-12.4213
X8.877Y-17.2047
X8.877Y-17.2835
X8.877Y-17.3622
X8.877Y-17.4409
X8.877Y-17.5197
X8.877Y-17.5984
X8.877Y-17.6772
X8.877Y-17.7559
X8.877Y-17.8346
X8.877Y-17.9134
X8.877Y-17.9921
X8.877Y-18.0709
X8.877Y-18.1496
X8.877Y-18.2283
X8.877Y-18.3071
X8.877Y-18.3858
X8.8772Y-1.2988
X8.8772Y-1.3776
X8.8772Y-1.4563
X8.8772Y-1.535
X8.8772Y-1.6138
X8.8772Y-1.6925
X8.8772Y-1.7713
X8.8772Y-1.85
X8.8772Y-1.9287
X8.8772Y-2.0075
X8.8772Y-2.0862
X8.8772Y-2.165
X8.8772Y-2.2437
X8.8772Y-2.3224
X8.8772Y-2.4012
X8.8772Y-2.4799
X8.8781Y-7.2634
X8.8781Y-7.3421
X8.8781Y-7.4209
X8.8781Y-7.4996
X8.8781Y-7.5783
X8.8781Y-7.6571
X8.8781Y-7.7358
X8.8781Y-7.8146
X8.8781Y-7.8933
X8.8781Y-7.972
X8.8781Y-8.0508
X8.8781Y-8.1295
X8.8781Y-8.2083
X8.8781Y-8.287
X8.8781Y-8.3657
X8.8781Y-8.4445
X8.8781Y-13.228
X8.8781Y-13.3067
X8.8781Y-13.3854
X8.8781Y-13.4642
X8.8781Y-13.5429
X8.8781Y-13.6217
X8.8781Y-13.7004
X8.8781Y-13.7791
X8.8781Y-13.8579
X8.8781Y-13.9366
X8.8781Y-14.0154
X8.8781Y-14.0941
X8.8781Y-14.1728
X8.8781Y-14.2516
X8.8781Y-14.3303
X8.8781Y-14.4091
X8.8862Y-3.2874
X8.8862Y-3.3661
X8.8862Y-3.4449
X8.8862Y-3.5236
X8.8862Y-3.6024
X8.8862Y-3.6811
X8.8862Y-3.7598
X8.8862Y-3.8386
X8.8862Y-3.9173
X8.8862Y-3.9961
X8.8862Y-4.0748
X8.8862Y-4.1535
X8.8862Y-4.2323
X8.8862Y-4.311
X8.8862Y-4.3898
X8.8862Y-4.4685
X8.8872Y-9.252
X8.8872Y-9.3307
X8.8872Y-9.4094
X8.8872Y-9.4882
X8.8872Y-9.5669
X8.8872Y-9.6457
X8.8872Y-9.7244
X8.8872Y-9.8031
X8.8872Y-9.8819
X8.8872Y-9.9606
X8.8872Y-10.0394
X8.8872Y-10.1181
X8.8872Y-10.1969
X8.8872Y-10.2756
X8.8872Y-10.3543
X8.8872Y-10.4331
X8.8872Y-15.2165
X8.8872Y-15.2953
X8.8872Y-15.374
X8.8872Y-15.4528
X8.8872Y-15.5315
X8.8872Y-15.6102
X8.8872Y-15.689
X8.8872Y-15.7677
X8.8872Y-15.8465
X8.8872Y-15.9252
X8.8872Y-16.0039
X8.8872Y-16.0827
X8.8872Y-16.1614
X8.8872Y-16.2402
X8.8872Y-16.3189
X8.8872Y-16.3976
X8.9342Y-5.035
X8.9345Y-6.6502
X8.935Y-2.6882
X8.9352Y-10.9996
X8.9352Y-16.9642
X8.9354Y-12.6147
X8.9354Y-18.5793
X8.936Y-8.6528
X8.936Y-14.6173
X8.998Y-2.6228
X8.998Y-6.5748
X8.999Y-8.5874
X8.999Y-12.5394
X8.999Y-14.552
X8.999Y-18.5039
X9.4598Y-2.5913
X9.4608Y-8.5559
X9.4608Y-14.5205
X9.461Y-6.2665
X9.4614Y-1.4575
X9.4614Y-1.7409
X9.4614Y-2.0244
X9.4614Y-2.3079
X9.4614Y-5.0059
X9.4614Y-5.3531
X9.4614Y-5.6366
X9.4614Y-5.9201
X9.4614Y-6.2035
X9.4618Y-2.6535
X9.4618Y-2.7173
X9.4618Y-3.0008
X9.4618Y-3.2843
X9.4618Y-4.6602
X9.4618Y-5.0697
X9.462Y-12.2311
X9.462Y-18.1957
X9.4624Y-7.422
X9.4624Y-7.7055
X9.4624Y-7.989
X9.4624Y-8.2724
X9.4624Y-10.9705
X9.4624Y-11.3177
X9.4624Y-11.6012
X9.4624Y-11.8846
X9.4624Y-12.1681
X9.4624Y-13.3866
X9.4624Y-13.6701
X9.4624Y-13.9535
X9.4624Y-14.237
X9.4624Y-16.935
X9.4624Y-17.2823
X9.4624Y-17.5657
X9.4624Y-17.8492
X9.4624Y-18.1327
X9.4628Y-8.6181
X9.4628Y-8.6819
X9.4628Y-8.9654
X9.4628Y-9.2488
X9.4628Y-10.6248
X9.4628Y-11.0343
X9.4628Y-14.5827
X9.4628Y-14.6465
X9.4628Y-14.9299
X9.4628Y-15.2134
X9.4628Y-16.5894
X9.4628Y-16.9988
X9.4649Y-4.9433
X9.4659Y-10.9079
X9.4659Y-16.8724
X9.5342Y-4.9431
X9.5352Y-10.9077
X9.5352Y-16.8722
X9.5374Y-2.7171
X9.5374Y-3.0006
X9.5374Y-3.2841
X9.5374Y-4.66
X9.5374Y-5.0695
X9.5378Y-1.4573
X9.5378Y-1.7407
X9.5378Y-2.0242
X9.5378Y-2.3077
X9.5378Y-5.353
X9.5378Y-5.6364
X9.5378Y-5.9199
X9.5378Y-6.2033
X9.5384Y-8.6817
X9.5384Y-8.9652
X9.5384Y-9.2486
X9.5384Y-10.6246
X9.5384Y-11.0341
X9.5384Y-14.6463
X9.5384Y-14.9297
X9.5384Y-15.2132
X9.5384Y-16.5892
X9.5384Y-16.9986
X9.5386Y-2.6555
X9.5388Y-7.4219
X9.5388Y-7.7053
X9.5388Y-7.9888
X9.5388Y-8.2722
X9.5388Y-11.3175
X9.5388Y-11.601
X9.5388Y-11.8844
X9.5388Y-12.1679
X9.5388Y-13.3864
X9.5388Y-13.6699
X9.5388Y-13.9533
X9.5388Y-14.2368
X9.5388Y-17.2821
X9.5388Y-17.5656
X9.5388Y-17.849
X9.5388Y-18.1325
X9.5394Y-2.5911
X9.5396Y-8.6201
X9.5396Y-14.5846
X9.5403Y-8.5557
X9.5403Y-14.5203
X9.5405Y-5.0079
X9.5409Y-6.2665
X9.5415Y-10.9724
X9.5415Y-16.937
X9.5419Y-12.2311
X9.5419Y-18.1957
X10.002Y-2.6083
X10.002Y-6.5748
X10.0029Y-8.5728
X10.0029Y-12.5394
X10.0029Y-14.5374
X10.0029Y-18.5039
X10.064Y-5.0384
X10.0649Y-11.003
X10.0649Y-16.9675
X10.0655Y-6.6502
X10.0657Y-2.6717
X10.0665Y-12.6147
X10.0665Y-18.5793
X10.0667Y-8.6362
X10.0667Y-14.6008
X10.1132Y-3.2874
X10.1132Y-3.3661
X10.1132Y-3.4449
X10.1132Y-3.5236
X10.1132Y-3.6023
X10.1132Y-3.6811
X10.1132Y-3.7598
X10.1132Y-3.8386
X10.1132Y-3.9173
X10.1132Y-3.996
X10.1132Y-4.0748
X10.1132Y-4.1535
X10.1132Y-4.2323
X10.1132Y-4.311
X10.1132Y-4.3897
X10.1132Y-4.4685
X10.1142Y-9.2519
X10.1142Y-9.3307
X10.1142Y-9.4094
X10.1142Y-9.4882
X10.1142Y-9.5669
X10.1142Y-9.6456
X10.1142Y-9.7244
X10.1142Y-9.8031
X10.1142Y-9.8819
X10.1142Y-9.9606
X10.1142Y-10.0393
X10.1142Y-10.1181
X10.1142Y-10.1968
X10.1142Y-10.2756
X10.1142Y-10.3543
X10.1142Y-10.433
X10.1142Y-15.2165
X10.1142Y-15.2952
X10.1142Y-15.374
X10.1142Y-15.4527
X10.1142Y-15.5315
X10.1142Y-15.6102
X10.1142Y-15.6889
X10.1142Y-15.7677
X10.1142Y-15.8464
X10.1142Y-15.9252
X10.1142Y-16.0039
X10.1142Y-16.0826
X10.1142Y-16.1614
X10.1142Y-16.2401
X10.1142Y-16.3189
X10.1142Y-16.3976
X10.1212Y-1.2988
X10.1212Y-1.3776
X10.1212Y-1.4563
X10.1212Y-1.535
X10.1212Y-1.6138
X10.1212Y-1.6925
X10.1212Y-1.7713
X10.1212Y-1.85
X10.1212Y-1.9287
X10.1212Y-2.0075
X10.1212Y-2.0862
X10.1212Y-2.165
X10.1212Y-2.2437
X10.1212Y-2.3224
X10.1212Y-2.4012
X10.1212Y-2.4799
X10.1222Y-7.2634
X10.1222Y-7.3421
X10.1222Y-7.4209
X10.1222Y-7.4996
X10.1222Y-7.5783
X10.1222Y-7.6571
X10.1222Y-7.7358
X10.1222Y-7.8146
X10.1222Y-7.8933
X10.1222Y-7.972
X10.1222Y-8.0508
X10.1222Y-8.1295
X10.1222Y-8.2083
X10.1222Y-8.287
X10.1222Y-8.3657
X10.1222Y-8.4445
X10.1222Y-13.228
X10.1222Y-13.3067
X10.1222Y-13.3854
X10.1222Y-13.4642
X10.1222Y-13.5429
X10.1222Y-13.6217
X10.1222Y-13.7004
X10.1222Y-13.7791
X10.1222Y-13.8579
X10.1222Y-13.9366
X10.1222Y-14.0154
X10.1222Y-14.0941
X10.1222Y-14.1728
X10.1222Y-14.2516
X10.1222Y-14.3303
X10.1222Y-14.4091
X10.124Y-5.2756
X10.124Y-5.3543
X10.124Y-5.4331
X10.124Y-5.5118
X10.124Y-5.5906
X10.124Y-5.6693
X10.124Y-5.748
X10.124Y-5.8268
X10.124Y-5.9055
X10.124Y-5.9843
X10.124Y-6.063
X10.124Y-6.1417
X10.124Y-6.2205
X10.124Y-6.2992
X10.124Y-6.378
X10.124Y-6.4567
X10.125Y-11.2402
X10.125Y-11.3189
X10.125Y-11.3976
X10.125Y-11.4764
X10.125Y-11.5551
X10.125Y-11.6339
X10.125Y-11.7126
X10.125Y-11.7913
X10.125Y-11.8701
X10.125Y-11.9488
X10.125Y-12.0276
X10.125Y-12.1063
X10.125Y-12.185
X10.125Y-12.2638
X10.125Y-12.3425
X10.125Y-12.4213
X10.125Y-17.2047
X10.125Y-17.2835
X10.125Y-17.3622
X10.125Y-17.4409
X10.125Y-17.5197
X10.125Y-17.5984
X10.125Y-17.6772
X10.125Y-17.7559
X10.125Y-17.8346
X10.125Y-17.9134
X10.125Y-17.9921
X10.125Y-18.0709
X10.125Y-18.1496
X10.125Y-18.2283
X10.125Y-18.3071
X10.125Y-18.3858
X10.1703Y-4.9754
X10.1712Y-10.94
X10.1712Y-16.9045
X10.8189Y-4.974
X10.8199Y-10.9386
X10.8199Y-16.9031
X10.8642Y-5.2756
X10.8642Y-5.3543
X10.8642Y-5.4331
X10.8642Y-5.5118
X10.8642Y-5.5906
X10.8642Y-5.6693
X10.8642Y-5.748
X10.8642Y-5.8268
X10.8642Y-5.9055
X10.8642Y-5.9843
X10.8642Y-6.063
X10.8642Y-6.1417
X10.8642Y-6.2205
X10.8642Y-6.2992
X10.8642Y-6.378
X10.8642Y-6.4567
X10.8651Y-11.2402
X10.8651Y-11.3189
X10.8651Y-11.3976
X10.8651Y-11.4764
X10.8651Y-11.5551
X10.8651Y-11.6339
X10.8651Y-11.7126
X10.8651Y-11.7913
X10.8651Y-11.8701
X10.8651Y-11.9488
X10.8651Y-12.0276
X10.8651Y-12.1063
X10.8651Y-12.185
X10.8651Y-12.2638
X10.8651Y-12.3425
X10.8651Y-12.4213
X10.8651Y-17.2047
X10.8651Y-17.2835
X10.8651Y-17.3622
X10.8651Y-17.4409
X10.8651Y-17.5197
X10.8651Y-17.5984
X10.8651Y-17.6772
X10.8651Y-17.7559
X10.8651Y-17.8346
X10.8651Y-17.9134
X10.8651Y-17.9921
X10.8651Y-18.0709
X10.8651Y-18.1496
X10.8651Y-18.2283
X10.8651Y-18.3071
X10.8651Y-18.3858
X10.8653Y-1.2988
X10.8653Y-1.3776
X10.8653Y-1.4563
X10.8653Y-1.535
X10.8653Y-1.6138
X10.8653Y-1.6925
X10.8653Y-1.7713
X10.8653Y-1.85
X10.8653Y-1.9287
X10.8653Y-2.0075
X10.8653Y-2.0862
X10.8653Y-2.165
X10.8653Y-2.2437
X10.8653Y-2.3224
X10.8653Y-2.4012
X10.8653Y-2.4799
X10.8663Y-7.2634
X10.8663Y-7.3421
X10.8663Y-7.4209
X10.8663Y-7.4996
X10.8663Y-7.5783
X10.8663Y-7.6571
X10.8663Y-7.7358
X10.8663Y-7.8146
X10.8663Y-7.8933
X10.8663Y-7.972
X10.8663Y-8.0508
X10.8663Y-8.1295
X10.8663Y-8.2083
X10.8663Y-8.287
X10.8663Y-8.3657
X10.8663Y-8.4445
X10.8663Y-13.228
X10.8663Y-13.3067
X10.8663Y-13.3854
X10.8663Y-13.4642
X10.8663Y-13.5429
X10.8663Y-13.6217
X10.8663Y-13.7004
X10.8663Y-13.7791
X10.8663Y-13.8579
X10.8663Y-13.9366
X10.8663Y-14.0154
X10.8663Y-14.0941
X10.8663Y-14.1728
X10.8663Y-14.2516
X10.8663Y-14.3303
X10.8663Y-14.4091
X10.8744Y-3.2874
X10.8744Y-3.3661
X10.8744Y-3.4449
X10.8744Y-3.5236
X10.8744Y-3.6024
X10.8744Y-3.6811
X10.8744Y-3.7598
X10.8744Y-3.8386
X10.8744Y-3.9173
X10.8744Y-3.9961
X10.8744Y-4.0748
X10.8744Y-4.1535
X10.8744Y-4.2323
X10.8744Y-4.311
X10.8744Y-4.3898
X10.8744Y-4.4685
X10.8754Y-9.252
X10.8754Y-9.3307
X10.8754Y-9.4094
X10.8754Y-9.4882
X10.8754Y-9.5669
X10.8754Y-9.6457
X10.8754Y-9.7244
X10.8754Y-9.8031
X10.8754Y-9.8819
X10.8754Y-9.9606
X10.8754Y-10.0394
X10.8754Y-10.1181
X10.8754Y-10.1969
X10.8754Y-10.2756
X10.8754Y-10.3543
X10.8754Y-10.4331
X10.8754Y-15.2165
X10.8754Y-15.2953
X10.8754Y-15.374
X10.8754Y-15.4528
X10.8754Y-15.5315
X10.8754Y-15.6102
X10.8754Y-15.689
X10.8754Y-15.7677
X10.8754Y-15.8465
X10.8754Y-15.9252
X10.8754Y-16.0039
X10.8754Y-16.0827
X10.8754Y-16.1614
X10.8754Y-16.2402
X10.8754Y-16.3189
X10.8754Y-16.3976
X10.9224Y-5.035
X10.9226Y-6.6502
X10.9232Y-2.6882
X10.9234Y-10.9996
X10.9234Y-16.9642
X10.9236Y-12.6147
X10.9236Y-18.5793
X10.9242Y-8.6528
X10.9242Y-14.6173
X10.9862Y-2.6228
X10.9862Y-6.5748
X10.9872Y-8.5874
X10.9872Y-12.5394
X10.9872Y-14.552
X10.9872Y-18.5039
X11.448Y-2.5913
X11.449Y-8.5559
X11.449Y-14.5205
X11.4492Y-6.2665
X11.4496Y-1.4575
X11.4496Y-1.7409
X11.4496Y-2.0244
X11.4496Y-2.3079
X11.4496Y-5.0059
X11.4496Y-5.3531
X11.4496Y-5.6366
X11.4496Y-5.9201
X11.4496Y-6.2035
X11.45Y-2.6535
X11.45Y-2.7173
X11.45Y-3.0008
X11.45Y-3.2843
X11.45Y-4.6602
X11.45Y-5.0697
X11.4502Y-12.2311
X11.4502Y-18.1957
X11.4506Y-7.422
X11.4506Y-7.7055
X11.4506Y-7.989
X11.4506Y-8.2724
X11.4506Y-10.9705
X11.4506Y-11.3177
X11.4506Y-11.6012
X11.4506Y-11.8846
X11.4506Y-12.1681
X11.4506Y-13.3866
X11.4506Y-13.6701
X11.4506Y-13.9535
X11.4506Y-14.237
X11.4506Y-16.935
X11.4506Y-17.2823
X11.4506Y-17.5657
X11.4506Y-17.8492
X11.4506Y-18.1327
X11.451Y-8.6181
X11.451Y-8.6819
X11.451Y-8.9654
X11.451Y-9.2488
X11.451Y-10.6248
X11.451Y-11.0343
X11.451Y-14.5827
X11.451Y-14.6465
X11.451Y-14.9299
X11.451Y-15.2134
X11.451Y-16.5894
X11.451Y-16.9988
X11.4531Y-4.9433
X11.4541Y-10.9079
X11.4541Y-16.8724
X11.5224Y-4.9431
X11.5234Y-10.9077
X11.5234Y-16.8722
X11.5256Y-2.7171
X11.5256Y-3.0006
X11.5256Y-3.2841
X11.5256Y-4.66
X11.5256Y-5.0695
X11.526Y-1.4573
X11.526Y-1.7407
X11.526Y-2.0242
X11.526Y-2.3077
X11.526Y-5.353
X11.526Y-5.6364
X11.526Y-5.9199
X11.526Y-6.2033
X11.5266Y-8.6817
X11.5266Y-8.9652
X11.5266Y-9.2486
X11.5266Y-10.6246
X11.5266Y-11.0341
X11.5266Y-14.6463
X11.5266Y-14.9297
X11.5266Y-15.2132
X11.5266Y-16.5892
X11.5266Y-16.9986
X11.5268Y-2.6555
X11.527Y-7.4219
X11.527Y-7.7053
X11.527Y-7.9888
X11.527Y-8.2722
X11.527Y-11.3175
X11.527Y-11.601
X11.527Y-11.8844
X11.527Y-12.1679
X11.527Y-13.3864
X11.527Y-13.6699
X11.527Y-13.9533
X11.527Y-14.2368
X11.527Y-17.2821
X11.527Y-17.5656
X11.527Y-17.849
X11.527Y-18.1325
X11.5275Y-2.5911
X11.5277Y-8.6201
X11.5277Y-14.5846
X11.5285Y-8.5557
X11.5285Y-14.5203
X11.5287Y-5.0079
X11.5291Y-6.2665
X11.5297Y-10.9724
X11.5297Y-16.937
X11.5301Y-12.2311
X11.5301Y-18.1957
X11.9901Y-2.6083
X11.9901Y-6.5748
X11.9911Y-8.5728
X11.9911Y-12.5394
X11.9911Y-14.5374
X11.9911Y-18.5039
X12.0522Y-5.0384
X12.0531Y-11.003
X12.0531Y-16.9675
X12.0537Y-6.6502
X12.0539Y-2.6717
X12.0547Y-12.6147
X12.0547Y-18.5793
X12.0549Y-8.6362
X12.0549Y-14.6008
X12.1014Y-3.2874
X12.1014Y-3.3661
X12.1014Y-3.4449
X12.1014Y-3.5236
X12.1014Y-3.6023
X12.1014Y-3.6811
X12.1014Y-3.7598
X12.1014Y-3.8386
X12.1014Y-3.9173
X12.1014Y-3.996
X12.1014Y-4.0748
X12.1014Y-4.1535
X12.1014Y-4.2323
X12.1014Y-4.311
X12.1014Y-4.3897
X12.1014Y-4.4685
X12.1024Y-9.2519
X12.1024Y-9.3307
X12.1024Y-9.4094
X12.1024Y-9.4882
X12.1024Y-9.5669
X12.1024Y-9.6456
X12.1024Y-9.7244
X12.1024Y-9.8031
X12.1024Y-9.8819
X12.1024Y-9.9606
X12.1024Y-10.0393
X12.1024Y-10.1181
X12.1024Y-10.1968
X12.1024Y-10.2756
X12.1024Y-10.3543
X12.1024Y-10.433
X12.1024Y-15.2165
X12.1024Y-15.2952
X12.1024Y-15.374
X12.1024Y-15.4527
X12.1024Y-15.5315
X12.1024Y-15.6102
X12.1024Y-15.6889
X12.1024Y-15.7677
X12.1024Y-15.8464
X12.1024Y-15.9252
X12.1024Y-16.0039
X12.1024Y-16.0826
X12.1024Y-16.1614
X12.1024Y-16.2401
X12.1024Y-16.3189
X12.1024Y-16.3976
X12.1094Y-1.2988
X12.1094Y-1.3776
X12.1094Y-1.4563
X12.1094Y-1.535
X12.1094Y-1.6138
X12.1094Y-1.6925
X12.1094Y-1.7713
X12.1094Y-1.85
X12.1094Y-1.9287
X12.1094Y-2.0075
X12.1094Y-2.0862
X12.1094Y-2.165
X12.1094Y-2.2437
X12.1094Y-2.3224
X12.1094Y-2.4012
X12.1094Y-2.4799
X12.1104Y-7.2634
X12.1104Y-7.3421
X12.1104Y-7.4209
X12.1104Y-7.4996
X12.1104Y-7.5783
X12.1104Y-7.6571
X12.1104Y-7.7358
X12.1104Y-7.8146
X12.1104Y-7.8933
X12.1104Y-7.972
X12.1104Y-8.0508
X12.1104Y-8.1295
X12.1104Y-8.2083
X12.1104Y-8.287
X12.1104Y-8.3657
X12.1104Y-8.4445
X12.1104Y-13.228
X12.1104Y-13.3067
X12.1104Y-13.3854
X12.1104Y-13.4642
X12.1104Y-13.5429
X12.1104Y-13.6217
X12.1104Y-13.7004
X12.1104Y-13.7791
X12.1104Y-13.8579
X12.1104Y-13.9366
X12.1104Y-14.0154
X12.1104Y-14.0941
X12.1104Y-14.1728
X12.1104Y-14.2516
X12.1104Y-14.3303
X12.1104Y-14.4091
X12.1122Y-5.2756
X12.1122Y-5.3543
X12.1122Y-5.4331
X12.1122Y-5.5118
X12.1122Y-5.5906
X12.1122Y-5.6693
X12.1122Y-5.748
X12.1122Y-5.8268
X12.1122Y-5.9055
X12.1122Y-5.9843
X12.1122Y-6.063
X12.1122Y-6.1417
X12.1122Y-6.2205
X12.1122Y-6.2992
X12.1122Y-6.378
X12.1122Y-6.4567
X12.1132Y-11.2402
X12.1132Y-11.3189
X12.1132Y-11.3976
X12.1132Y-11.4764
X12.1132Y-11.5551
X12.1132Y-11.6339
X12.1132Y-11.7126
X12.1132Y-11.7913
X12.1132Y-11.8701
X12.1132Y-11.9488
X12.1132Y-12.0276
X12.1132Y-12.1063
X12.1132Y-12.185
X12.1132Y-12.2638
X12.1132Y-12.3425
X12.1132Y-12.4213
X12.1132Y-17.2047
X12.1132Y-17.2835
X12.1132Y-17.3622
X12.1132Y-17.4409
X12.1132Y-17.5197
X12.1132Y-17.5984
X12.1132Y-17.6772
X12.1132Y-17.7559
X12.1132Y-17.8346
X12.1132Y-17.9134
X12.1132Y-17.9921
X12.1132Y-18.0709
X12.1132Y-18.1496
X12.1132Y-18.2283
X12.1132Y-18.3071
X12.1132Y-18.3858
X12.1585Y-4.9754
X12.1594Y-10.94
X12.1594Y-16.9045
X12.8071Y-4.974
X12.8081Y-10.9386
X12.8081Y-16.9031
X12.8523Y-5.2756
X12.8523Y-5.3543
X12.8523Y-5.4331
X12.8523Y-5.5118
X12.8523Y-5.5906
X12.8523Y-5.6693
X12.8523Y-5.748
X12.8523Y-5.8268
X12.8523Y-5.9055
X12.8523Y-5.9843
X12.8523Y-6.063
X12.8523Y-6.1417
X12.8523Y-6.2205
X12.8523Y-6.2992
X12.8523Y-6.378
X12.8523Y-6.4567
X12.8533Y-11.2402
X12.8533Y-11.3189
X12.8533Y-11.3976
X12.8533Y-11.4764
X12.8533Y-11.5551
X12.8533Y-11.6339
X12.8533Y-11.7126
X12.8533Y-11.7913
X12.8533Y-11.8701
X12.8533Y-11.9488
X12.8533Y-12.0276
X12.8533Y-12.1063
X12.8533Y-12.185
X12.8533Y-12.2638
X12.8533Y-12.3425
X12.8533Y-12.4213
X12.8533Y-17.2047
X12.8533Y-17.2835
X12.8533Y-17.3622
X12.8533Y-17.4409
X12.8533Y-17.5197
X12.8533Y-17.5984
X12.8533Y-17.6772
X12.8533Y-17.7559
X12.8533Y-17.8346
X12.8533Y-17.9134
X12.8533Y-17.9921
X12.8533Y-18.0709
X12.8533Y-18.1496
X12.8533Y-18.2283
X12.8533Y-18.3071
X12.8533Y-18.3858
X12.8535Y-1.2988
X12.8535Y-1.3776
X12.8535Y-1.4563
X12.8535Y-1.535
X12.8535Y-1.6138
X12.8535Y-1.6925
X12.8535Y-1.7713
X12.8535Y-1.85
X12.8535Y-1.9287
X12.8535Y-2.0075
X12.8535Y-2.0862
X12.8535Y-2.165
X12.8535Y-2.2437
X12.8535Y-2.3224
X12.8535Y-2.4012
X12.8535Y-2.4799
X12.8545Y-7.2634
X12.8545Y-7.3421
X12.8545Y-7.4209
X12.8545Y-7.4996
X12.8545Y-7.5783
X12.8545Y-7.6571
X12.8545Y-7.7358
X12.8545Y-7.8146
X12.8545Y-7.8933
X12.8545Y-7.972
X12.8545Y-8.0508
X12.8545Y-8.1295
X12.8545Y-8.2083
X12.8545Y-8.287
X12.8545Y-8.3657
X12.8545Y-8.4445
X12.8545Y-13.228
X12.8545Y-13.3067
X12.8545Y-13.3854
X12.8545Y-13.4642
X12.8545Y-13.5429
X12.8545Y-13.6217
X12.8545Y-13.7004
X12.8545Y-13.7791
X12.8545Y-13.8579
X12.8545Y-13.9366
X12.8545Y-14.0154
X12.8545Y-14.0941
X12.8545Y-14.1728
X12.8545Y-14.2516
X12.8545Y-14.3303
X12.8545Y-14.4091
X12.8626Y-3.2874
X12.8626Y-3.3661
X12.8626Y-3.4449
X12.8626Y-3.5236
X12.8626Y-3.6024
X12.8626Y-3.6811
X12.8626Y-3.7598
X12.8626Y-3.8386
X12.8626Y-3.9173
X12.8626Y-3.9961
X12.8626Y-4.0748
X12.8626Y-4.1535
X12.8626Y-4.2323
X12.8626Y-4.311
X12.8626Y-4.3898
X12.8626Y-4.4685
X12.8636Y-9.252
X12.8636Y-9.3307
X12.8636Y-9.4094
X12.8636Y-9.4882
X12.8636Y-9.5669
X12.8636Y-9.6457
X12.8636Y-9.7244
X12.8636Y-9.8031
X12.8636Y-9.8819
X12.8636Y-9.9606
X12.8636Y-10.0394
X12.8636Y-10.1181
X12.8636Y-10.1969
X12.8636Y-10.2756
X12.8636Y-10.3543
X12.8636Y-10.4331
X12.8636Y-15.2165
X12.8636Y-15.2953
X12.8636Y-15.374
X12.8636Y-15.4528
X12.8636Y-15.5315
X12.8636Y-15.6102
X12.8636Y-15.689
X12.8636Y-15.7677
X12.8636Y-15.8465
X12.8636Y-15.9252
X12.8636Y-16.0039
X12.8636Y-16.0827
X12.8636Y-16.1614
X12.8636Y-16.2402
X12.8636Y-16.3189
X12.8636Y-16.3976
X12.9106Y-5.035
X12.9108Y-6.6502
X12.9114Y-2.6882
X12.9116Y-10.9996
X12.9116Y-16.9642
X12.9118Y-12.6147
X12.9118Y-18.5793
X12.9124Y-8.6528
X12.9124Y-14.6173
X12.9744Y-2.6228
X12.9744Y-6.5748
X12.9754Y-8.5874
X12.9754Y-12.5394
X12.9754Y-14.552
X12.9754Y-18.5039
X13.4362Y-2.5913
X13.4372Y-8.5559
X13.4372Y-14.5205
X13.4374Y-6.2665
X13.4378Y-1.4575
X13.4378Y-1.7409
X13.4378Y-2.0244
X13.4378Y-2.3079
X13.4378Y-5.0059
X13.4378Y-5.3531
X13.4378Y-5.6366
X13.4378Y-5.9201
X13.4378Y-6.2035
X13.4382Y-2.6535
X13.4382Y-2.7173
X13.4382Y-3.0008
X13.4382Y-3.2843
X13.4382Y-4.6602
X13.4382Y-5.0697
X13.4384Y-12.2311
X13.4384Y-18.1957
X13.4388Y-7.422
X13.4388Y-7.7055
X13.4388Y-7.989
X13.4388Y-8.2724
X13.4388Y-10.9705
X13.4388Y-11.3177
X13.4388Y-11.6012
X13.4388Y-11.8846
X13.4388Y-12.1681
X13.4388Y-13.3866
X13.4388Y-13.6701
X13.4388Y-13.9535
X13.4388Y-14.237
X13.4388Y-16.935
X13.4388Y-17.2823
X13.4388Y-17.5657
X13.4388Y-17.8492
X13.4388Y-18.1327
X13.4392Y-8.6181
X13.4392Y-8.6819
X13.4392Y-8.9654
X13.4392Y-9.2488
X13.4392Y-10.6248
X13.4392Y-11.0343
X13.4392Y-14.5827
X13.4392Y-14.6465
X13.4392Y-14.9299
X13.4392Y-15.2134
X13.4392Y-16.5894
X13.4392Y-16.9988
X13.4413Y-4.9433
X13.4423Y-10.9079
X13.4423Y-16.8724
X13.5106Y-4.9431
X13.5116Y-10.9077
X13.5116Y-16.8722
X13.5138Y-2.7171
X13.5138Y-3.0006
X13.5138Y-3.2841
X13.5138Y-4.66
X13.5138Y-5.0695
X13.5142Y-1.4573
X13.5142Y-1.7407
X13.5142Y-2.0242
X13.5142Y-2.3077
X13.5142Y-5.353
X13.5142Y-5.6364
X13.5142Y-5.9199
X13.5142Y-6.2033
X13.5148Y-8.6817
X13.5148Y-8.9652
X13.5148Y-9.2486
X13.5148Y-10.6246
X13.5148Y-11.0341
X13.5148Y-14.6463
X13.5148Y-14.9297
X13.5148Y-15.2132
X13.5148Y-16.5892
X13.5148Y-16.9986
X13.5149Y-2.6555
X13.5151Y-7.4219
X13.5151Y-7.7053
X13.5151Y-7.9888
X13.5151Y-8.2722
X13.5151Y-11.3175
X13.5151Y-11.601
X13.5151Y-11.8844
X13.5151Y-12.1679
X13.5151Y-13.3864
X13.5151Y-13.6699
X13.5151Y-13.9533
X13.5151Y-14.2368
X13.5151Y-17.2821
X13.5151Y-17.5656
X13.5151Y-17.849
X13.5151Y-18.1325
X13.5157Y-2.5911
X13.5159Y-8.6201
X13.5159Y-14.5846
X13.5167Y-8.5557
X13.5167Y-14.5203
X13.5169Y-5.0079
X13.5173Y-6.2665
X13.5179Y-10.9724
X13.5179Y-16.937
X13.5183Y-12.2311
X13.5183Y-18.1957
X13.9783Y-2.6083
X13.9783Y-6.5748
X13.9793Y-8.5728
X13.9793Y-12.5394
X13.9793Y-14.5374
X13.9793Y-18.5039
X14.0403Y-5.0384
X14.0413Y-11.003
X14.0413Y-16.9675
X14.0419Y-6.6502
X14.0421Y-2.6717
X14.0429Y-12.6147
X14.0429Y-18.5793
X14.0431Y-8.6362
X14.0431Y-14.6008
X14.0896Y-3.2874
X14.0896Y-3.3661
X14.0896Y-3.4449
X14.0896Y-3.5236
X14.0896Y-3.6023
X14.0896Y-3.6811
X14.0896Y-3.7598
X14.0896Y-3.8386
X14.0896Y-3.9173
X14.0896Y-3.996
X14.0896Y-4.0748
X14.0896Y-4.1535
X14.0896Y-4.2323
X14.0896Y-4.311
X14.0896Y-4.3897
X14.0896Y-4.4685
X14.0906Y-9.2519
X14.0906Y-9.3307
X14.0906Y-9.4094
X14.0906Y-9.4882
X14.0906Y-9.5669
X14.0906Y-9.6456
X14.0906Y-9.7244
X14.0906Y-9.8031
X14.0906Y-9.8819
X14.0906Y-9.9606
X14.0906Y-10.0393
X14.0906Y-10.1181
X14.0906Y-10.1968
X14.0906Y-10.2756
X14.0906Y-10.3543
X14.0906Y-10.433
X14.0906Y-15.2165
X14.0906Y-15.2952
X14.0906Y-15.374
X14.0906Y-15.4527
X14.0906Y-15.5315
X14.0906Y-15.6102
X14.0906Y-15.6889
X14.0906Y-15.7677
X14.0906Y-15.8464
X14.0906Y-15.9252
X14.0906Y-16.0039
X14.0906Y-16.0826
X14.0906Y-16.1614
X14.0906Y-16.2401
X14.0906Y-16.3189
X14.0906Y-16.3976
X14.0976Y-1.2988
X14.0976Y-1.3776
X14.0976Y-1.4563
X14.0976Y-1.535
X14.0976Y-1.6138
X14.0976Y-1.6925
X14.0976Y-1.7713
X14.0976Y-1.85
X14.0976Y-1.9287
X14.0976Y-2.0075
X14.0976Y-2.0862
X14.0976Y-2.165
X14.0976Y-2.2437
X14.0976Y-2.3224
X14.0976Y-2.4012
X14.0976Y-2.4799
X14.0986Y-7.2634
X14.0986Y-7.3421
X14.0986Y-7.4209
X14.0986Y-7.4996
X14.0986Y-7.5783
X14.0986Y-7.6571
X14.0986Y-7.7358
X14.0986Y-7.8146
X14.0986Y-7.8933
X14.0986Y-7.972
X14.0986Y-8.0508
X14.0986Y-8.1295
X14.0986Y-8.2083
X14.0986Y-8.287
X14.0986Y-8.3657
X14.0986Y-8.4445
X14.0986Y-13.228
X14.0986Y-13.3067
X14.0986Y-13.3854
X14.0986Y-13.4642
X14.0986Y-13.5429
X14.0986Y-13.6217
X14.0986Y-13.7004
X14.0986Y-13.7791
X14.0986Y-13.8579
X14.0986Y-13.9366
X14.0986Y-14.0154
X14.0986Y-14.0941
X14.0986Y-14.1728
X14.0986Y-14.2516
X14.0986Y-14.3303
X14.0986Y-14.4091
X14.1004Y-5.2756
X14.1004Y-5.3543
X14.1004Y-5.4331
X14.1004Y-5.5118
X14.1004Y-5.5906
X14.1004Y-5.6693
X14.1004Y-5.748
X14.1004Y-5.8268
X14.1004Y-5.9055
X14.1004Y-5.9843
X14.1004Y-6.063
X14.1004Y-6.1417
X14.1004Y-6.2205
X14.1004Y-6.2992
X14.1004Y-6.378
X14.1004Y-6.4567
X14.1014Y-11.2402
X14.1014Y-11.3189
X14.1014Y-11.3976
X14.1014Y-11.4764
X14.1014Y-11.5551
X14.1014Y-11.6339
X14.1014Y-11.7126
X14.1014Y-11.7913
X14.1014Y-11.8701
X14.1014Y-11.9488
X14.1014Y-12.0276
X14.1014Y-12.1063
X14.1014Y-12.185
X14.1014Y-12.2638
X14.1014Y-12.3425
X14.1014Y-12.4213
X14.1014Y-17.2047
X14.1014Y-17.2835
X14.1014Y-17.3622
X14.1014Y-17.4409
X14.1014Y-17.5197
X14.1014Y-17.5984
X14.1014Y-17.6772
X14.1014Y-17.7559
X14.1014Y-17.8346
X14.1014Y-17.9134
X14.1014Y-17.9921
X14.1014Y-18.0709
X14.1014Y-18.1496
X14.1014Y-18.2283
X14.1014Y-18.3071
X14.1014Y-18.3858
X14.1466Y-4.9754
X14.1476Y-10.94
X14.1476Y-16.9045
X14.7953Y-4.974
X14.7962Y-10.9386
X14.7962Y-16.9031
X14.8405Y-5.2756
X14.8405Y-5.3543
X14.8405Y-5.4331
X14.8405Y-5.5118
X14.8405Y-5.5906
X14.8405Y-5.6693
X14.8405Y-5.748
X14.8405Y-5.8268
X14.8405Y-5.9055
X14.8405Y-5.9843
X14.8405Y-6.063
X14.8405Y-6.1417
X14.8405Y-6.2205
X14.8405Y-6.2992
X14.8405Y-6.378
X14.8405Y-6.4567
X14.8415Y-11.2402
X14.8415Y-11.3189
X14.8415Y-11.3976
X14.8415Y-11.4764
X14.8415Y-11.5551
X14.8415Y-11.6339
X14.8415Y-11.7126
X14.8415Y-11.7913
X14.8415Y-11.8701
X14.8415Y-11.9488
X14.8415Y-12.0276
X14.8415Y-12.1063
X14.8415Y-12.185
X14.8415Y-12.2638
X14.8415Y-12.3425
X14.8415Y-12.4213
X14.8415Y-17.2047
X14.8415Y-17.2835
X14.8415Y-17.3622
X14.8415Y-17.4409
X14.8415Y-17.5197
X14.8415Y-17.5984
X14.8415Y-17.6772
X14.8415Y-17.7559
X14.8415Y-17.8346
X14.8415Y-17.9134
X14.8415Y-17.9921
X14.8415Y-18.0709
X14.8415Y-18.1496
X14.8415Y-18.2283
X14.8415Y-18.3071
X14.8415Y-18.3858
X14.8417Y-1.2988
X14.8417Y-1.3776
X14.8417Y-1.4563
X14.8417Y-1.535
X14.8417Y-1.6138
X14.8417Y-1.6925
X14.8417Y-1.7713
X14.8417Y-1.85
X14.8417Y-1.9287
X14.8417Y-2.0075
X14.8417Y-2.0862
X14.8417Y-2.165
X14.8417Y-2.2437
X14.8417Y-2.3224
X14.8417Y-2.4012
X14.8417Y-2.4799
X14.8427Y-7.2634
X14.8427Y-7.3421
X14.8427Y-7.4209
X14.8427Y-7.4996
X14.8427Y-7.5783
X14.8427Y-7.6571
X14.8427Y-7.7358
X14.8427Y-7.8146
X14.8427Y-7.8933
X14.8427Y-7.972
X14.8427Y-8.0508
X14.8427Y-8.1295
X14.8427Y-8.2083
X14.8427Y-8.287
X14.8427Y-8.3657
X14.8427Y-8.4445
X14.8427Y-13.228
X14.8427Y-13.3067
X14.8427Y-13.3854
X14.8427Y-13.4642
X14.8427Y-13.5429
X14.8427Y-13.6217
X14.8427Y-13.7004
X14.8427Y-13.7791
X14.8427Y-13.8579
X14.8427Y-13.9366
X14.8427Y-14.0154
X14.8427Y-14.0941
X14.8427Y-14.1728
X14.8427Y-14.2516
X14.8427Y-14.3303
X14.8427Y-14.4091
X14.8508Y-3.2874
X14.8508Y-3.3661
X14.8508Y-3.4449
X14.8508Y-3.5236
X14.8508Y-3.6024
X14.8508Y-3.6811
X14.8508Y-3.7598
X14.8508Y-3.8386
X14.8508Y-3.9173
X14.8508Y-3.9961
X14.8508Y-4.0748
X14.8508Y-4.1535
X14.8508Y-4.2323
X14.8508Y-4.311
X14.8508Y-4.3898
X14.8508Y-4.4685
X14.8518Y-9.252
X14.8518Y-9.3307
X14.8518Y-9.4094
X14.8518Y-9.4882
X14.8518Y-9.5669
X14.8518Y-9.6457
X14.8518Y-9.7244
X14.8518Y-9.8031
X14.8518Y-9.8819
X14.8518Y-9.9606
X14.8518Y-10.0394
X14.8518Y-10.1181
X14.8518Y-10.1969
X14.8518Y-10.2756
X14.8518Y-10.3543
X14.8518Y-10.4331
X14.8518Y-15.2165
X14.8518Y-15.2953
X14.8518Y-15.374
X14.8518Y-15.4528
X14.8518Y-15.5315
X14.8518Y-15.6102
X14.8518Y-15.689
X14.8518Y-15.7677
X14.8518Y-15.8465
X14.8518Y-15.9252
X14.8518Y-16.0039
X14.8518Y-16.0827
X14.8518Y-16.1614
X14.8518Y-16.2402
X14.8518Y-16.3189
X14.8518Y-16.3976
X14.8988Y-5.035
X14.899Y-6.6502
X14.8996Y-2.6882
X14.8998Y-10.9996
X14.8998Y-16.9642
X14.9Y-12.6147
X14.9Y-18.5793
X14.9006Y-8.6528
X14.9006Y-14.6173
X14.9626Y-2.6228
X14.9626Y-6.5748
X14.9636Y-8.5874
X14.9636Y-12.5394
X14.9636Y-14.552
X14.9636Y-18.5039
X15.4244Y-2.5913
X15.4254Y-8.5559
X15.4254Y-14.5205
X15.4256Y-6.2665
X15.426Y-1.4575
X15.426Y-1.7409
X15.426Y-2.0244
X15.426Y-2.3079
X15.426Y-5.0059
X15.426Y-5.3531
X15.426Y-5.6366
X15.426Y-5.9201
X15.426Y-6.2035
X15.4264Y-2.6535
X15.4264Y-2.7173
X15.4264Y-3.0008
X15.4264Y-3.2843
X15.4264Y-4.6602
X15.4264Y-5.0697
X15.4266Y-12.2311
X15.4266Y-18.1957
X15.427Y-7.422
X15.427Y-7.7055
X15.427Y-7.989
X15.427Y-8.2724
X15.427Y-10.9705
X15.427Y-11.3177
X15.427Y-11.6012
X15.427Y-11.8846
X15.427Y-12.1681
X15.427Y-13.3866
X15.427Y-13.6701
X15.427Y-13.9535
X15.427Y-14.237
X15.427Y-16.935
X15.427Y-17.2823
X15.427Y-17.5657
X15.427Y-17.8492
X15.427Y-18.1327
X15.4273Y-8.6181
X15.4273Y-8.6819
X15.4273Y-8.9654
X15.4273Y-9.2488
X15.4273Y-10.6248
X15.4273Y-11.0343
X15.4273Y-14.5827
X15.4273Y-14.6465
X15.4273Y-14.9299
X15.4273Y-15.2134
X15.4273Y-16.5894
X15.4273Y-16.9988
X15.4295Y-4.9433
X15.4305Y-10.9079
X15.4305Y-16.8724
X15.4988Y-4.9431
X15.4998Y-10.9077
X15.4998Y-16.8722
X15.502Y-2.7171
X15.502Y-3.0006
X15.502Y-3.2841
X15.502Y-4.66
X15.502Y-5.0695
X15.5023Y-1.4573
X15.5023Y-1.7407
X15.5023Y-2.0242
X15.5023Y-2.3077
X15.5023Y-5.353
X15.5023Y-5.6364
X15.5023Y-5.9199
X15.5023Y-6.2033
X15.5029Y-8.6817
X15.5029Y-8.9652
X15.5029Y-9.2486
X15.5029Y-10.6246
X15.5029Y-11.0341
X15.5029Y-14.6463
X15.5029Y-14.9297
X15.5029Y-15.2132
X15.5029Y-16.5892
X15.5029Y-16.9986
X15.5031Y-2.6555
X15.5033Y-7.4219
X15.5033Y-7.7053
X15.5033Y-7.9888
X15.5033Y-8.2722
X15.5033Y-11.3175
X15.5033Y-11.601
X15.5033Y-11.8844
X15.5033Y-12.1679
X15.5033Y-13.3864
X15.5033Y-13.6699
X15.5033Y-13.9533
X15.5033Y-14.2368
X15.5033Y-17.2821
X15.5033Y-17.5656
X15.5033Y-17.849
X15.5033Y-18.1325
X15.5039Y-2.5911
X15.5041Y-8.6201
X15.5041Y-14.5846
X15.5049Y-8.5557
X15.5049Y-14.5203
X15.5051Y-5.0079
X15.5055Y-6.2665
X15.5061Y-10.9724
X15.5061Y-16.937
X15.5065Y-12.2311
X15.5065Y-18.1957
X15.9665Y-2.6083
X15.9665Y-6.5748
X15.9675Y-8.5728
X15.9675Y-12.5394
X15.9675Y-14.5374
X15.9675Y-18.5039
X16.0285Y-5.0384
X16.0295Y-11.003
X16.0295Y-16.9675
X16.0301Y-6.6502
X16.0303Y-2.6717
X16.0311Y-12.6147
X16.0311Y-18.5793
X16.0313Y-8.6362
X16.0313Y-14.6008
X16.0778Y-3.2874
X16.0778Y-3.3661
X16.0778Y-3.4449
X16.0778Y-3.5236
X16.0778Y-3.6023
X16.0778Y-3.6811
X16.0778Y-3.7598
X16.0778Y-3.8386
X16.0778Y-3.9173
X16.0778Y-3.996
X16.0778Y-4.0748
X16.0778Y-4.1535
X16.0778Y-4.2323
X16.0778Y-4.311
X16.0778Y-4.3897
X16.0778Y-4.4685
X16.0788Y-9.2519
X16.0788Y-9.3307
X16.0788Y-9.4094
X16.0788Y-9.4882
X16.0788Y-9.5669
X16.0788Y-9.6456
X16.0788Y-9.7244
X16.0788Y-9.8031
X16.0788Y-9.8819
X16.0788Y-9.9606
X16.0788Y-10.0393
X16.0788Y-10.1181
X16.0788Y-10.1968
X16.0788Y-10.2756
X16.0788Y-10.3543
X16.0788Y-10.433
X16.0788Y-15.2165
X16.0788Y-15.2952
X16.0788Y-15.374
X16.0788Y-15.4527
X16.0788Y-15.5315
X16.0788Y-15.6102
X16.0788Y-15.6889
X16.0788Y-15.7677
X16.0788Y-15.8464
X16.0788Y-15.9252
X16.0788Y-16.0039
X16.0788Y-16.0826
X16.0788Y-16.1614
X16.0788Y-16.2401
X16.0788Y-16.3189
X16.0788Y-16.3976
X16.0858Y-1.2988
X16.0858Y-1.3776
X16.0858Y-1.4563
X16.0858Y-1.535
X16.0858Y-1.6138
X16.0858Y-1.6925
X16.0858Y-1.7713
X16.0858Y-1.85
X16.0858Y-1.9287
X16.0858Y-2.0075
X16.0858Y-2.0862
X16.0858Y-2.165
X16.0858Y-2.2437
X16.0858Y-2.3224
X16.0858Y-2.4012
X16.0858Y-2.4799
X16.0868Y-7.2634
X16.0868Y-7.3421
X16.0868Y-7.4209
X16.0868Y-7.4996
X16.0868Y-7.5783
X16.0868Y-7.6571
X16.0868Y-7.7358
X16.0868Y-7.8146
X16.0868Y-7.8933
X16.0868Y-7.972
X16.0868Y-8.0508
X16.0868Y-8.1295
X16.0868Y-8.2083
X16.0868Y-8.287
X16.0868Y-8.3657
X16.0868Y-8.4445
X16.0868Y-13.228
X16.0868Y-13.3067
X16.0868Y-13.3854
X16.0868Y-13.4642
X16.0868Y-13.5429
X16.0868Y-13.6217
X16.0868Y-13.7004
X16.0868Y-13.7791
X16.0868Y-13.8579
X16.0868Y-13.9366
X16.0868Y-14.0154
X16.0868Y-14.0941
X16.0868Y-14.1728
X16.0868Y-14.2516
X16.0868Y-14.3303
X16.0868Y-14.4091
X16.0886Y-5.2756
X16.0886Y-5.3543
X16.0886Y-5.4331
X16.0886Y-5.5118
X16.0886Y-5.5906
X16.0886Y-5.6693
X16.0886Y-5.748
X16.0886Y-5.8268
X16.0886Y-5.9055
X16.0886Y-5.9843
X16.0886Y-6.063
X16.0886Y-6.1417
X16.0886Y-6.2205
X16.0886Y-6.2992
X16.0886Y-6.378
X16.0886Y-6.4567
X16.0896Y-11.2402
X16.0896Y-11.3189
X16.0896Y-11.3976
X16.0896Y-11.4764
X16.0896Y-11.5551
X16.0896Y-11.6339
X16.0896Y-11.7126
X16.0896Y-11.7913
X16.0896Y-11.8701
X16.0896Y-11.9488
X16.0896Y-12.0276
X16.0896Y-12.1063
X16.0896Y-12.185
X16.0896Y-12.2638
X16.0896Y-12.3425
X16.0896Y-12.4213
X16.0896Y-17.2047
X16.0896Y-17.2835
X16.0896Y-17.3622
X16.0896Y-17.4409
X16.0896Y-17.5197
X16.0896Y-17.5984
X16.0896Y-17.6772
X16.0896Y-17.7559
X16.0896Y-17.8346
X16.0896Y-17.9134
X16.0896Y-17.9921
X16.0896Y-18.0709
X16.0896Y-18.1496
X16.0896Y-18.2283
X16.0896Y-18.3071
X16.0896Y-18.3858
X16.1348Y-4.9754
X16.1358Y-10.94
X16.1358Y-16.9045
X16.7835Y-4.974
X16.7844Y-10.9386
X16.7844Y-16.9031
X16.8287Y-5.2756
X16.8287Y-5.3543
X16.8287Y-5.4331
X16.8287Y-5.5118
X16.8287Y-5.5906
X16.8287Y-5.6693
X16.8287Y-5.748
X16.8287Y-5.8268
X16.8287Y-5.9055
X16.8287Y-5.9843
X16.8287Y-6.063
X16.8287Y-6.1417
X16.8287Y-6.2205
X16.8287Y-6.2992
X16.8287Y-6.378
X16.8287Y-6.4567
X16.8297Y-11.2402
X16.8297Y-11.3189
X16.8297Y-11.3976
X16.8297Y-11.4764
X16.8297Y-11.5551
X16.8297Y-11.6339
X16.8297Y-11.7126
X16.8297Y-11.7913
X16.8297Y-11.8701
X16.8297Y-11.9488
X16.8297Y-12.0276
X16.8297Y-12.1063
X16.8297Y-12.185
X16.8297Y-12.2638
X16.8297Y-12.3425
X16.8297Y-12.4213
X16.8297Y-17.2047
X16.8297Y-17.2835
X16.8297Y-17.3622
X16.8297Y-17.4409
X16.8297Y-17.5197
X16.8297Y-17.5984
X16.8297Y-17.6772
X16.8297Y-17.7559
X16.8297Y-17.8346
X16.8297Y-17.9134
X16.8297Y-17.9921
X16.8297Y-18.0709
X16.8297Y-18.1496
X16.8297Y-18.2283
X16.8297Y-18.3071
X16.8297Y-18.3858
X16.8299Y-1.2988
X16.8299Y-1.3776
X16.8299Y-1.4563
X16.8299Y-1.535
X16.8299Y-1.6138
X16.8299Y-1.6925
X16.8299Y-1.7713
X16.8299Y-1.85
X16.8299Y-1.9287
X16.8299Y-2.0075
X16.8299Y-2.0862
X16.8299Y-2.165
X16.8299Y-2.2437
X16.8299Y-2.3224
X16.8299Y-2.4012
X16.8299Y-2.4799
X16.8309Y-7.2634
X16.8309Y-7.3421
X16.8309Y-7.4209
X16.8309Y-7.4996
X16.8309Y-7.5783
X16.8309Y-7.6571
X16.8309Y-7.7358
X16.8309Y-7.8146
X16.8309Y-7.8933
X16.8309Y-7.972
X16.8309Y-8.0508
X16.8309Y-8.1295
X16.8309Y-8.2083
X16.8309Y-8.287
X16.8309Y-8.3657
X16.8309Y-8.4445
X16.8309Y-13.228
X16.8309Y-13.3067
X16.8309Y-13.3854
X16.8309Y-13.4642
X16.8309Y-13.5429
X16.8309Y-13.6217
X16.8309Y-13.7004
X16.8309Y-13.7791
X16.8309Y-13.8579
X16.8309Y-13.9366
X16.8309Y-14.0154
X16.8309Y-14.0941
X16.8309Y-14.1728
X16.8309Y-14.2516
X16.8309Y-14.3303
X16.8309Y-14.4091
X16.839Y-3.2874
X16.839Y-3.3661
X16.839Y-3.4449
X16.839Y-3.5236
X16.839Y-3.6024
X16.839Y-3.6811
X16.839Y-3.7598
X16.839Y-3.8386
X16.839Y-3.9173
X16.839Y-3.9961
X16.839Y-4.0748
X16.839Y-4.1535
X16.839Y-4.2323
X16.839Y-4.311
X16.839Y-4.3898
X16.839Y-4.4685
X16.8399Y-9.252
X16.8399Y-9.3307
X16.8399Y-9.4094
X16.8399Y-9.4882
X16.8399Y-9.5669
X16.8399Y-9.6457
X16.8399Y-9.7244
X16.8399Y-9.8031
X16.8399Y-9.8819
X16.8399Y-9.9606
X16.8399Y-10.0394
X16.8399Y-10.1181
X16.8399Y-10.1969
X16.8399Y-10.2756
X16.8399Y-10.3543
X16.8399Y-10.4331
X16.8399Y-15.2165
X16.8399Y-15.2953
X16.8399Y-15.374
X16.8399Y-15.4528
X16.8399Y-15.5315
X16.8399Y-15.6102
X16.8399Y-15.689
X16.8399Y-15.7677
X16.8399Y-15.8465
X16.8399Y-15.9252
X16.8399Y-16.0039
X16.8399Y-16.0827
X16.8399Y-16.1614
X16.8399Y-16.2402
X16.8399Y-16.3189
X16.8399Y-16.3976
X16.887Y-5.035
X16.8872Y-6.6502
X16.8878Y-2.6882
X16.888Y-10.9996
X16.888Y-16.9642
X16.8882Y-12.6147
X16.8882Y-18.5793
X16.8888Y-8.6528
X16.8888Y-14.6173
X16.9508Y-2.6228
X16.9508Y-6.5748
X16.9518Y-8.5874
X16.9518Y-12.5394
X16.9518Y-14.552
X16.9518Y-18.5039
X17.4126Y-2.5913
X17.4136Y-8.5559
X17.4136Y-14.5205
X17.4138Y-6.2665
X17.4142Y-1.4575
X17.4142Y-1.7409
X17.4142Y-2.0244
X17.4142Y-2.3079
X17.4142Y-5.0059
X17.4142Y-5.3531
X17.4142Y-5.6366
X17.4142Y-5.9201
X17.4142Y-6.2035
X17.4146Y-2.6535
X17.4146Y-2.7173
X17.4146Y-3.0008
X17.4146Y-3.2843
X17.4146Y-4.6602
X17.4146Y-5.0697
X17.4148Y-12.2311
X17.4148Y-18.1957
X17.4151Y-7.422
X17.4151Y-7.7055
X17.4151Y-7.989
X17.4151Y-8.2724
X17.4151Y-10.9705
X17.4151Y-11.3177
X17.4151Y-11.6012
X17.4151Y-11.8846
X17.4151Y-12.1681
X17.4151Y-13.3866
X17.4151Y-13.6701
X17.4151Y-13.9535
X17.4151Y-14.237
X17.4151Y-16.935
X17.4151Y-17.2823
X17.4151Y-17.5657
X17.4151Y-17.8492
X17.4151Y-18.1327
X17.4155Y-8.6181
X17.4155Y-8.6819
X17.4155Y-8.9654
X17.4155Y-9.2488
X17.4155Y-10.6248
X17.4155Y-11.0343
X17.4155Y-14.5827
X17.4155Y-14.6465
X17.4155Y-14.9299
X17.4155Y-15.2134
X17.4155Y-16.5894
X17.4155Y-16.9988
X17.4177Y-4.9433
X17.4187Y-10.9079
X17.4187Y-16.8724
X17.487Y-4.9431
X17.488Y-10.9077
X17.488Y-16.8722
X17.4901Y-2.7171
X17.4901Y-3.0006
X17.4901Y-3.2841
X17.4901Y-4.66
X17.4901Y-5.0695
X17.4905Y-1.4573
X17.4905Y-1.7407
X17.4905Y-2.0242
X17.4905Y-2.3077
X17.4905Y-5.353
X17.4905Y-5.6364
X17.4905Y-5.9199
X17.4905Y-6.2033
X17.4911Y-8.6817
X17.4911Y-8.9652
X17.4911Y-9.2486
X17.4911Y-10.6246
X17.4911Y-11.0341
X17.4911Y-14.6463
X17.4911Y-14.9297
X17.4911Y-15.2132
X17.4911Y-16.5892
X17.4911Y-16.9986
X17.4913Y-2.6555
X17.4915Y-7.4219
X17.4915Y-7.7053
X17.4915Y-7.9888
X17.4915Y-8.2722
X17.4915Y-11.3175
X17.4915Y-11.601
X17.4915Y-11.8844
X17.4915Y-12.1679
X17.4915Y-13.3864
X17.4915Y-13.6699
X17.4915Y-13.9533
X17.4915Y-14.2368
X17.4915Y-17.2821
X17.4915Y-17.5656
X17.4915Y-17.849
X17.4915Y-18.1325
X17.4921Y-2.5911
X17.4923Y-8.6201
X17.4923Y-14.5846
X17.4931Y-8.5557
X17.4931Y-14.5203
X17.4933Y-5.0079
X17.4937Y-6.2665
X17.4943Y-10.9724
X17.4943Y-16.937
X17.4947Y-12.2311
X17.4947Y-18.1957
X17.9547Y-2.6083
X17.9547Y-6.5748
X17.9557Y-8.5728
X17.9557Y-12.5394
X17.9557Y-14.5374
X17.9557Y-18.5039
X18.0167Y-5.0384
X18.0177Y-11.003
X18.0177Y-16.9675
X18.0183Y-6.6502
X18.0185Y-2.6717
X18.0193Y-12.6147
X18.0193Y-18.5793
X18.0195Y-8.6362
X18.0195Y-14.6008
X18.066Y-3.2874
X18.066Y-3.3661
X18.066Y-3.4449
X18.066Y-3.5236
X18.066Y-3.6023
X18.066Y-3.6811
X18.066Y-3.7598
X18.066Y-3.8386
X18.066Y-3.9173
X18.066Y-3.996
X18.066Y-4.0748
X18.066Y-4.1535
X18.066Y-4.2323
X18.066Y-4.311
X18.066Y-4.3897
X18.066Y-4.4685
X18.067Y-9.2519
X18.067Y-9.3307
X18.067Y-9.4094
X18.067Y-9.4882
X18.067Y-9.5669
X18.067Y-9.6456
X18.067Y-9.7244
X18.067Y-9.8031
X18.067Y-9.8819
X18.067Y-9.9606
X18.067Y-10.0393
X18.067Y-10.1181
X18.067Y-10.1968
X18.067Y-10.2756
X18.067Y-10.3543
X18.067Y-10.433
X18.067Y-15.2165
X18.067Y-15.2952
X18.067Y-15.374
X18.067Y-15.4527
X18.067Y-15.5315
X18.067Y-15.6102
X18.067Y-15.6889
X18.067Y-15.7677
X18.067Y-15.8464
X18.067Y-15.9252
X18.067Y-16.0039
X18.067Y-16.0826
X18.067Y-16.1614
X18.067Y-16.2401
X18.067Y-16.3189
X18.067Y-16.3976
X18.074Y-1.2988
X18.074Y-1.3776
X18.074Y-1.4563
X18.074Y-1.535
X18.074Y-1.6138
X18.074Y-1.6925
X18.074Y-1.7713
X18.074Y-1.85
X18.074Y-1.9287
X18.074Y-2.0075
X18.074Y-2.0862
X18.074Y-2.165
X18.074Y-2.2437
X18.074Y-2.3224
X18.074Y-2.4012
X18.074Y-2.4799
X18.075Y-7.2634
X18.075Y-7.3421
X18.075Y-7.4209
X18.075Y-7.4996
X18.075Y-7.5783
X18.075Y-7.6571
X18.075Y-7.7358
X18.075Y-7.8146
X18.075Y-7.8933
X18.075Y-7.972
X18.075Y-8.0508
X18.075Y-8.1295
X18.075Y-8.2083
X18.075Y-8.287
X18.075Y-8.3657
X18.075Y-8.4445
X18.075Y-13.228
X18.075Y-13.3067
X18.075Y-13.3854
X18.075Y-13.4642
X18.075Y-13.5429
X18.075Y-13.6217
X18.075Y-13.7004
X18.075Y-13.7791
X18.075Y-13.8579
X18.075Y-13.9366
X18.075Y-14.0154
X18.075Y-14.0941
X18.075Y-14.1728
X18.075Y-14.2516
X18.075Y-14.3303
X18.075Y-14.4091
X18.0768Y-5.2756
X18.0768Y-5.3543
X18.0768Y-5.4331
X18.0768Y-5.5118
X18.0768Y-5.5906
X18.0768Y-5.6693
X18.0768Y-5.748
X18.0768Y-5.8268
X18.0768Y-5.9055
X18.0768Y-5.9843
X18.0768Y-6.063
X18.0768Y-6.1417
X18.0768Y-6.2205
X18.0768Y-6.2992
X18.0768Y-6.378
X18.0768Y-6.4567
X18.0777Y-11.2402
X18.0777Y-11.3189
X18.0777Y-11.3976
X18.0777Y-11.4764
X18.0777Y-11.5551
X18.0777Y-11.6339
X18.0777Y-11.7126
X18.0777Y-11.7913
X18.0777Y-11.8701
X18.0777Y-11.9488
X18.0777Y-12.0276
X18.0777Y-12.1063
X18.0777Y-12.185
X18.0777Y-12.2638
X18.0777Y-12.3425
X18.0777Y-12.4213
X18.0777Y-17.2047
X18.0777Y-17.2835
X18.0777Y-17.3622
X18.0777Y-17.4409
X18.0777Y-17.5197
X18.0777Y-17.5984
X18.0777Y-17.6772
X18.0777Y-17.7559
X18.0777Y-17.8346
X18.0777Y-17.9134
X18.0777Y-17.9921
X18.0777Y-18.0709
X18.0777Y-18.1496
X18.0777Y-18.2283
X18.0777Y-18.3071
X18.0777Y-18.3858
X18.123Y-4.9754
X18.124Y-10.94
X18.124Y-16.9045
T3
X0.2756Y-0.2756
X0.2756Y-2.9134
X0.2756Y-4.8819
X0.2756Y-6.8898
X0.2756Y-8.8583
X0.2756Y-10.8661
X0.2756Y-12.8346
X0.2756Y-14.8425
X0.2756Y-16.811
X0.2756Y-19.4094
X2.5591Y-0.2756
X2.5591Y-19.4094
X4.5276Y-0.2756
X4.5276Y-19.4094
X6.5354Y-0.2756
X6.5354Y-19.4094
X8.5039Y-0.2756
X8.5039Y-19.4094
X10.5118Y-0.2756
X10.5118Y-19.4094
X12.4803Y-0.2756
X12.4803Y-19.4094
X14.4882Y-0.2756
X14.4882Y-19.4094
X16.4567Y-0.2756
X16.4567Y-19.4094
X18.7402Y-0.2756
X18.7402Y-2.9134
X18.7402Y-4.8819
X18.7402Y-6.8898
X18.7402Y-8.8583
X18.7402Y-10.8661
X18.7402Y-12.8346
X18.7402Y-14.8425
X18.7402Y-16.811
X18.7402Y-19.4094
T4
X1.4882Y-1.3868
X1.4882Y-3.3868
X1.4882Y-4.3691
X1.4882Y-6.3691
X1.4882Y-7.3514
X1.4882Y-9.3514
X1.4882Y-10.3337
X1.4882Y-12.3337
X1.4882Y-13.3159
X1.4882Y-15.3159
X1.4882Y-16.2982
X1.4882Y-18.2982
X3.4764Y-1.3868
X3.4764Y-3.3868
X3.4764Y-4.3691
X3.4764Y-6.3691
X3.4764Y-7.3514
X3.4764Y-9.3514
X3.4764Y-10.3337
X3.4764Y-12.3337
X3.4764Y-13.3159
X3.4764Y-15.3159
X3.4764Y-16.2982
X3.4764Y-18.2982
X5.4646Y-1.3868
X5.4646Y-3.3868
X5.4646Y-4.3691
X5.4646Y-6.3691
X5.4646Y-7.3514
X5.4646Y-9.3514
X5.4646Y-10.3337
X5.4646Y-12.3337
X5.4646Y-13.3159
X5.4646Y-15.3159
X5.4646Y-16.2982
X5.4646Y-18.2982
X7.4527Y-1.3868
X7.4527Y-3.3868
X7.4527Y-4.3691
X7.4527Y-6.3691
X7.4527Y-7.3514
X7.4527Y-9.3514
X7.4527Y-10.3337
X7.4527Y-12.3337
X7.4527Y-13.3159
X7.4527Y-15.3159
X7.4527Y-16.2982
X7.4527Y-18.2982
X9.4409Y-1.3868
X9.4409Y-3.3868
X9.4409Y-4.3691
X9.4409Y-6.3691
X9.4409Y-7.3514
X9.4409Y-9.3514
X9.4409Y-10.3337
X9.4409Y-12.3337
X9.4409Y-13.3159
X9.4409Y-15.3159
X9.4409Y-16.2982
X9.4409Y-18.2982
X11.4291Y-1.3868
X11.4291Y-3.3868
X11.4291Y-4.3691
X11.4291Y-6.3691
X11.4291Y-7.3514
X11.4291Y-9.3514
X11.4291Y-10.3337
X11.4291Y-12.3337
X11.4291Y-13.3159
X11.4291Y-15.3159
X11.4291Y-16.2982
X11.4291Y-18.2982
X13.4173Y-1.3868
X13.4173Y-3.3868
X13.4173Y-4.3691
X13.4173Y-6.3691
X13.4173Y-7.3514
X13.4173Y-9.3514
X13.4173Y-10.3337
X13.4173Y-12.3337
X13.4173Y-13.3159
X13.4173Y-15.3159
X13.4173Y-16.2982
X13.4173Y-18.2982
X15.4055Y-1.3868
X15.4055Y-3.3868
X15.4055Y-4.3691
X15.4055Y-6.3691
X15.4055Y-7.3514
X15.4055Y-9.3514
X15.4055Y-10.3337
X15.4055Y-12.3337
X15.4055Y-13.3159
X15.4055Y-15.3159
X15.4055Y-16.2982
X15.4055Y-18.2982
X17.3937Y-1.3868
X17.3937Y-3.3868
X17.3937Y-4.3691
X17.3937Y-6.3691
X17.3937Y-7.3514
X17.3937Y-9.3514
X17.3937Y-10.3337
X17.3937Y-12.3337
X17.3937Y-13.3159
X17.3937Y-15.3159
X17.3937Y-16.2982
X17.3937Y-18.2982
T0
M30
