M48
; DRILL file {KiCad (5.1.9-0-10_14)} date Wednesday, May 26, 2021 at 03:43:46 PM
; FORMAT={-:-/ absolute / inch / decimal}
; #@! TF.CreationDate,2021-05-26T15:43:46-04:00
; #@! TF.GenerationSoftware,Kicad,Pcbnew,(5.1.9-0-10_14)
FMAT,2
INCH
T1C0.0120
T2C0.0157
T3C0.0571
%
G90
G05
T1
X5.4154Y-1.5748
X5.4154Y-7.5394
X5.4154Y-13.5039
X5.4169Y-0.3933
X5.4169Y-6.3579
X5.4169Y-12.3224
X5.4189Y-0.4327
X5.4189Y-4.3303
X5.4189Y-4.3697
X5.4189Y-4.4484
X5.4189Y-4.4878
X5.4189Y-4.5665
X5.4189Y-4.6059
X5.4189Y-4.6846
X5.4189Y-4.724
X5.4189Y-4.8028
X5.4189Y-4.8421
X5.4189Y-4.9209
X5.4189Y-4.9602
X5.4189Y-5.039
X5.4189Y-5.0783
X5.4189Y-5.1571
X5.4189Y-5.1965
X5.4189Y-5.2752
X5.4189Y-5.3146
X5.4189Y-5.3933
X5.4189Y-5.4327
X5.4189Y-5.5114
X5.4189Y-5.5508
X5.4189Y-6.3972
X5.4189Y-10.2949
X5.4189Y-10.3343
X5.4189Y-10.413
X5.4189Y-10.4524
X5.4189Y-10.5311
X5.4189Y-10.5705
X5.4189Y-10.6492
X5.4189Y-10.6886
X5.4189Y-10.7673
X5.4189Y-10.8067
X5.4189Y-10.8854
X5.4189Y-10.9248
X5.4189Y-11.0035
X5.4189Y-11.0429
X5.4189Y-11.1217
X5.4189Y-11.161
X5.4189Y-11.2398
X5.4189Y-11.2791
X5.4189Y-11.3579
X5.4189Y-11.3972
X5.4189Y-11.476
X5.4189Y-11.5154
X5.4189Y-12.3618
X5.4189Y-16.2594
X5.4189Y-16.2988
X5.4189Y-16.3776
X5.4189Y-16.4169
X5.4189Y-16.4957
X5.4189Y-16.535
X5.4189Y-16.6138
X5.4189Y-16.6531
X5.4189Y-16.7319
X5.4189Y-16.7713
X5.4189Y-16.85
X5.4189Y-16.8894
X5.4189Y-16.9681
X5.4189Y-17.0075
X5.4189Y-17.0862
X5.4189Y-17.1256
X5.4189Y-17.2043
X5.4189Y-17.2437
X5.4189Y-17.3224
X5.4189Y-17.3618
X5.4189Y-17.4406
X5.4189Y-17.4799
X5.4193Y-0.5118
X5.4193Y-0.5512
X5.4193Y-0.6299
X5.4193Y-0.6693
X5.4193Y-0.748
X5.4193Y-0.7874
X5.4193Y-0.8661
X5.4193Y-0.9055
X5.4193Y-0.9843
X5.4193Y-1.0236
X5.4193Y-1.1024
X5.4193Y-1.1417
X5.4193Y-1.2205
X5.4193Y-1.2598
X5.4193Y-1.3386
X5.4193Y-1.378
X5.4193Y-1.4567
X5.4193Y-1.4961
X5.4193Y-6.4764
X5.4193Y-6.5157
X5.4193Y-6.5945
X5.4193Y-6.6339
X5.4193Y-6.7126
X5.4193Y-6.752
X5.4193Y-6.8307
X5.4193Y-6.8701
X5.4193Y-6.9488
X5.4193Y-6.9882
X5.4193Y-7.0669
X5.4193Y-7.1063
X5.4193Y-7.185
X5.4193Y-7.2244
X5.4193Y-7.3031
X5.4193Y-7.3425
X5.4193Y-7.4213
X5.4193Y-7.4606
X5.4193Y-12.4409
X5.4193Y-12.4803
X5.4193Y-12.5591
X5.4193Y-12.5984
X5.4193Y-12.6772
X5.4193Y-12.7165
X5.4193Y-12.7953
X5.4193Y-12.8346
X5.4193Y-12.9134
X5.4193Y-12.9528
X5.4193Y-13.0315
X5.4193Y-13.0709
X5.4193Y-13.1496
X5.4193Y-13.189
X5.4193Y-13.2677
X5.4193Y-13.3071
X5.4193Y-13.3858
X5.4193Y-13.4252
X5.4256Y-2.3425
X5.4256Y-2.4213
X5.4256Y-2.4606
X5.4256Y-2.5394
X5.4256Y-2.5787
X5.4256Y-2.6575
X5.4256Y-2.6969
X5.4256Y-2.7756
X5.4256Y-2.815
X5.4256Y-2.8937
X5.4256Y-2.9331
X5.4256Y-3.0118
X5.4256Y-3.0512
X5.4256Y-3.1299
X5.4256Y-3.1693
X5.4256Y-3.248
X5.4256Y-3.2874
X5.4256Y-3.3661
X5.4256Y-3.4055
X5.4256Y-3.4843
X5.4256Y-3.5236
X5.4256Y-8.3071
X5.4256Y-8.3858
X5.4256Y-8.4252
X5.4256Y-8.5039
X5.4256Y-8.5433
X5.4256Y-8.622
X5.4256Y-8.6614
X5.4256Y-8.7402
X5.4256Y-8.7795
X5.4256Y-8.8583
X5.4256Y-8.8976
X5.4256Y-8.9764
X5.4256Y-9.0157
X5.4256Y-9.0945
X5.4256Y-9.1339
X5.4256Y-9.2126
X5.4256Y-9.252
X5.4256Y-9.3307
X5.4256Y-9.3701
X5.4256Y-9.4488
X5.4256Y-9.4882
X5.4256Y-14.2717
X5.4256Y-14.3504
X5.4256Y-14.3898
X5.4256Y-14.4685
X5.4256Y-14.5079
X5.4256Y-14.5866
X5.4256Y-14.626
X5.4256Y-14.7047
X5.4256Y-14.7441
X5.4256Y-14.8228
X5.4256Y-14.8622
X5.4256Y-14.9409
X5.4256Y-14.9803
X5.4256Y-15.0591
X5.4256Y-15.0984
X5.4256Y-15.1772
X5.4256Y-15.2165
X5.4256Y-15.2953
X5.4256Y-15.3346
X5.4256Y-15.4134
X5.4256Y-15.4528
X5.6614Y-0.5886
X5.6614Y-0.6201
X5.6614Y-0.6831
X5.6614Y-0.7146
X5.6614Y-0.7776
X5.6614Y-0.8091
X5.6614Y-0.9035
X5.6614Y-0.935
X5.6614Y-0.998
X5.6614Y-1.0295
X5.6614Y-1.0925
X5.6614Y-1.1555
X5.6614Y-1.2185
X5.6614Y-1.25
X5.6614Y-1.313
X5.6614Y-1.3445
X5.6614Y-1.439
X5.6614Y-1.4705
X5.6614Y-1.5335
X5.6614Y-1.565
X5.6614Y-1.628
X5.6614Y-1.6594
X5.6614Y-4.2008
X5.6614Y-4.2638
X5.6614Y-4.2953
X5.6614Y-4.3583
X5.6614Y-4.3898
X5.6614Y-4.4843
X5.6614Y-4.5157
X5.6614Y-4.5787
X5.6614Y-4.6102
X5.6614Y-4.6732
X5.6614Y-4.7047
X5.6614Y-4.7992
X5.6614Y-4.8307
X5.6614Y-4.8937
X5.6614Y-4.9252
X5.6614Y-4.9882
X5.6614Y-5.0512
X5.6614Y-5.1142
X5.6614Y-5.1457
X5.6614Y-5.2087
X5.6614Y-5.2402
X5.6614Y-6.5531
X5.6614Y-6.5846
X5.6614Y-6.6476
X5.6614Y-6.6791
X5.6614Y-6.7421
X5.6614Y-6.7736
X5.6614Y-6.8681
X5.6614Y-6.8996
X5.6614Y-6.9626
X5.6614Y-6.9941
X5.6614Y-7.0571
X5.6614Y-7.1201
X5.6614Y-7.1831
X5.6614Y-7.2146
X5.6614Y-7.2776
X5.6614Y-7.3091
X5.6614Y-7.4035
X5.6614Y-7.435
X5.6614Y-7.498
X5.6614Y-7.5295
X5.6614Y-7.5925
X5.6614Y-7.624
X5.6614Y-10.1654
X5.6614Y-10.2283
X5.6614Y-10.2598
X5.6614Y-10.3228
X5.6614Y-10.3543
X5.6614Y-10.4488
X5.6614Y-10.4803
X5.6614Y-10.5433
X5.6614Y-10.5748
X5.6614Y-10.6378
X5.6614Y-10.6693
X5.6614Y-10.7638
X5.6614Y-10.7953
X5.6614Y-10.8583
X5.6614Y-10.8898
X5.6614Y-10.9528
X5.6614Y-11.0157
X5.6614Y-11.0787
X5.6614Y-11.1102
X5.6614Y-11.1732
X5.6614Y-11.2047
X5.6614Y-12.5177
X5.6614Y-12.5492
X5.6614Y-12.6122
X5.6614Y-12.6437
X5.6614Y-12.7067
X5.6614Y-12.7382
X5.6614Y-12.8327
X5.6614Y-12.8642
X5.6614Y-12.9272
X5.6614Y-12.9587
X5.6614Y-13.0217
X5.6614Y-13.0846
X5.6614Y-13.1476
X5.6614Y-13.1791
X5.6614Y-13.2421
X5.6614Y-13.2736
X5.6614Y-13.3681
X5.6614Y-13.3996
X5.6614Y-13.4626
X5.6614Y-13.4941
X5.6614Y-13.5571
X5.6614Y-13.5886
X5.6614Y-16.1299
X5.6614Y-16.1929
X5.6614Y-16.2244
X5.6614Y-16.2874
X5.6614Y-16.3189
X5.6614Y-16.4134
X5.6614Y-16.4449
X5.6614Y-16.5079
X5.6614Y-16.5394
X5.6614Y-16.6024
X5.6614Y-16.6339
X5.6614Y-16.7283
X5.6614Y-16.7598
X5.6614Y-16.8228
X5.6614Y-16.8543
X5.6614Y-16.9173
X5.6614Y-16.9803
X5.6614Y-17.0433
X5.6614Y-17.0748
X5.6614Y-17.1378
X5.6614Y-17.1693
X5.6618Y-1.8799
X5.6618Y-1.9114
X5.6618Y-1.9744
X5.6618Y-2.0059
X5.6618Y-2.0689
X5.6618Y-2.1319
X5.6618Y-2.1949
X5.6618Y-2.2264
X5.6618Y-2.2894
X5.6618Y-2.3209
X5.6618Y-2.4154
X5.6618Y-3.5394
X5.6618Y-3.6024
X5.6618Y-3.6339
X5.6618Y-3.6969
X5.6618Y-3.7283
X5.6618Y-3.8228
X5.6618Y-3.8543
X5.6618Y-3.9173
X5.6618Y-3.9488
X5.6618Y-4.0118
X5.6618Y-7.8445
X5.6618Y-7.876
X5.6618Y-7.939
X5.6618Y-7.9705
X5.6618Y-8.0335
X5.6618Y-8.0965
X5.6618Y-8.1594
X5.6618Y-8.1909
X5.6618Y-8.2539
X5.6618Y-8.2854
X5.6618Y-8.3799
X5.6618Y-9.5039
X5.6618Y-9.5669
X5.6618Y-9.5984
X5.6618Y-9.6614
X5.6618Y-9.6929
X5.6618Y-9.7874
X5.6618Y-9.8189
X5.6618Y-9.8819
X5.6618Y-9.9134
X5.6618Y-9.9764
X5.6618Y-13.8091
X5.6618Y-13.8406
X5.6618Y-13.9035
X5.6618Y-13.935
X5.6618Y-13.998
X5.6618Y-14.061
X5.6618Y-14.124
X5.6618Y-14.1555
X5.6618Y-14.2185
X5.6618Y-14.25
X5.6618Y-14.3445
X5.6618Y-15.4685
X5.6618Y-15.5315
X5.6618Y-15.563
X5.6618Y-15.626
X5.6618Y-15.6575
X5.6618Y-15.752
X5.6618Y-15.7835
X5.6618Y-15.8465
X5.6618Y-15.878
X5.6618Y-15.9409
X5.9518Y-1.8799
X5.9518Y-1.9114
X5.9518Y-1.9744
X5.9518Y-2.0059
X5.9518Y-2.0689
X5.9518Y-2.1319
X5.9518Y-2.1949
X5.9518Y-2.2263
X5.9518Y-2.2893
X5.9518Y-2.3208
X5.9518Y-2.4153
X5.9518Y-7.8445
X5.9518Y-7.876
X5.9518Y-7.9389
X5.9518Y-7.9704
X5.9518Y-8.0334
X5.9518Y-8.0964
X5.9518Y-8.1594
X5.9518Y-8.1909
X5.9518Y-8.2539
X5.9518Y-8.2854
X5.9518Y-8.3799
X5.9518Y-13.809
X5.9518Y-13.8405
X5.9518Y-13.9035
X5.9518Y-13.935
X5.9518Y-13.998
X5.9518Y-14.061
X5.9518Y-14.124
X5.9518Y-14.1555
X5.9518Y-14.2185
X5.9518Y-14.25
X5.9518Y-14.3445
X5.9528Y-0.5886
X5.9528Y-0.6201
X5.9528Y-0.6831
X5.9528Y-0.7146
X5.9528Y-0.7776
X5.9528Y-0.8091
X5.9528Y-0.9035
X5.9528Y-0.935
X5.9528Y-0.998
X5.9528Y-1.0295
X5.9528Y-1.0925
X5.9528Y-1.1555
X5.9528Y-1.2185
X5.9528Y-1.25
X5.9528Y-1.313
X5.9528Y-1.3445
X5.9528Y-1.439
X5.9528Y-1.4705
X5.9528Y-1.5335
X5.9528Y-1.565
X5.9528Y-1.628
X5.9528Y-1.6594
X5.9528Y-3.5394
X5.9528Y-3.6024
X5.9528Y-3.6339
X5.9528Y-3.6969
X5.9528Y-3.7283
X5.9528Y-3.8228
X5.9528Y-3.8543
X5.9528Y-3.9173
X5.9528Y-3.9488
X5.9528Y-4.0118
X5.9528Y-6.5531
X5.9528Y-6.5846
X5.9528Y-6.6476
X5.9528Y-6.6791
X5.9528Y-6.7421
X5.9528Y-6.7736
X5.9528Y-6.8681
X5.9528Y-6.8996
X5.9528Y-6.9626
X5.9528Y-6.9941
X5.9528Y-7.0571
X5.9528Y-7.1201
X5.9528Y-7.1831
X5.9528Y-7.2146
X5.9528Y-7.2776
X5.9528Y-7.3091
X5.9528Y-7.4035
X5.9528Y-7.435
X5.9528Y-7.498
X5.9528Y-7.5295
X5.9528Y-7.5925
X5.9528Y-7.624
X5.9528Y-9.5039
X5.9528Y-9.5669
X5.9528Y-9.5984
X5.9528Y-9.6614
X5.9528Y-9.6929
X5.9528Y-9.7874
X5.9528Y-9.8189
X5.9528Y-9.8819
X5.9528Y-9.9134
X5.9528Y-9.9764
X5.9528Y-12.5177
X5.9528Y-12.5492
X5.9528Y-12.6122
X5.9528Y-12.6437
X5.9528Y-12.7067
X5.9528Y-12.7382
X5.9528Y-12.8327
X5.9528Y-12.8642
X5.9528Y-12.9272
X5.9528Y-12.9587
X5.9528Y-13.0217
X5.9528Y-13.0846
X5.9528Y-13.1476
X5.9528Y-13.1791
X5.9528Y-13.2421
X5.9528Y-13.2736
X5.9528Y-13.3681
X5.9528Y-13.3996
X5.9528Y-13.4626
X5.9528Y-13.4941
X5.9528Y-13.5571
X5.9528Y-13.5886
X5.9528Y-15.4685
X5.9528Y-15.5315
X5.9528Y-15.563
X5.9528Y-15.626
X5.9528Y-15.6575
X5.9528Y-15.752
X5.9528Y-15.7835
X5.9528Y-15.8465
X5.9528Y-15.878
X5.9528Y-15.9409
X5.9531Y-4.2008
X5.9531Y-4.2638
X5.9531Y-4.2953
X5.9531Y-4.3583
X5.9531Y-4.3898
X5.9531Y-4.4843
X5.9531Y-4.5157
X5.9531Y-4.5787
X5.9531Y-4.6102
X5.9531Y-4.6732
X5.9531Y-4.7047
X5.9531Y-4.7992
X5.9531Y-4.8307
X5.9531Y-4.8937
X5.9531Y-4.9252
X5.9531Y-4.9882
X5.9531Y-5.0512
X5.9531Y-5.1142
X5.9531Y-5.1457
X5.9531Y-5.2087
X5.9531Y-5.2402
X5.9531Y-10.1654
X5.9531Y-10.2283
X5.9531Y-10.2598
X5.9531Y-10.3228
X5.9531Y-10.3543
X5.9531Y-10.4488
X5.9531Y-10.4803
X5.9531Y-10.5433
X5.9531Y-10.5748
X5.9531Y-10.6378
X5.9531Y-10.6693
X5.9531Y-10.7638
X5.9531Y-10.7953
X5.9531Y-10.8583
X5.9531Y-10.8898
X5.9531Y-10.9528
X5.9531Y-11.0157
X5.9531Y-11.0787
X5.9531Y-11.1102
X5.9531Y-11.1732
X5.9531Y-11.2047
X5.9531Y-16.1299
X5.9531Y-16.1929
X5.9531Y-16.2244
X5.9531Y-16.2874
X5.9531Y-16.3189
X5.9531Y-16.4134
X5.9531Y-16.4449
X5.9531Y-16.5079
X5.9531Y-16.5394
X5.9531Y-16.6024
X5.9531Y-16.6339
X5.9531Y-16.7283
X5.9531Y-16.7598
X5.9531Y-16.8228
X5.9531Y-16.8543
X5.9531Y-16.9173
X5.9531Y-16.9803
X5.9531Y-17.0433
X5.9531Y-17.0748
X5.9531Y-17.1378
X5.9531Y-17.1693
X6.1881Y-2.3425
X6.1881Y-2.4212
X6.1881Y-2.4606
X6.1881Y-2.5393
X6.1881Y-2.5787
X6.1881Y-2.6574
X6.1881Y-2.6968
X6.1881Y-2.7756
X6.1881Y-2.8149
X6.1881Y-2.8937
X6.1881Y-2.933
X6.1881Y-8.3071
X6.1881Y-8.3858
X6.1881Y-8.4252
X6.1881Y-8.5039
X6.1881Y-8.5433
X6.1881Y-8.622
X6.1881Y-8.6614
X6.1881Y-8.7401
X6.1881Y-8.7795
X6.1881Y-8.8582
X6.1881Y-8.8976
X6.1881Y-14.2716
X6.1881Y-14.3504
X6.1881Y-14.3897
X6.1881Y-14.4685
X6.1881Y-14.5078
X6.1881Y-14.5866
X6.1881Y-14.626
X6.1881Y-14.7047
X6.1881Y-14.7441
X6.1881Y-14.8228
X6.1881Y-14.8622
X6.189Y-3.0118
X6.189Y-3.0512
X6.189Y-3.1299
X6.189Y-3.1693
X6.189Y-3.248
X6.189Y-3.2874
X6.189Y-3.3661
X6.189Y-3.4055
X6.189Y-3.4843
X6.189Y-3.5236
X6.189Y-8.9764
X6.189Y-9.0157
X6.189Y-9.0945
X6.189Y-9.1339
X6.189Y-9.2126
X6.189Y-9.252
X6.189Y-9.3307
X6.189Y-9.3701
X6.189Y-9.4488
X6.189Y-9.4882
X6.189Y-14.9409
X6.189Y-14.9803
X6.189Y-15.0591
X6.189Y-15.0984
X6.189Y-15.1772
X6.189Y-15.2165
X6.189Y-15.2953
X6.189Y-15.3346
X6.189Y-15.4134
X6.189Y-15.4528
X6.1949Y-0.5118
X6.1949Y-0.5512
X6.1949Y-0.6299
X6.1949Y-0.6693
X6.1949Y-0.748
X6.1949Y-0.7874
X6.1949Y-0.8661
X6.1949Y-0.9055
X6.1949Y-0.9843
X6.1949Y-1.0236
X6.1949Y-1.1024
X6.1949Y-1.1417
X6.1949Y-1.2205
X6.1949Y-1.2598
X6.1949Y-1.3386
X6.1949Y-1.378
X6.1949Y-1.4567
X6.1949Y-1.4961
X6.1949Y-6.4764
X6.1949Y-6.5157
X6.1949Y-6.5945
X6.1949Y-6.6339
X6.1949Y-6.7126
X6.1949Y-6.752
X6.1949Y-6.8307
X6.1949Y-6.8701
X6.1949Y-6.9488
X6.1949Y-6.9882
X6.1949Y-7.0669
X6.1949Y-7.1063
X6.1949Y-7.185
X6.1949Y-7.2244
X6.1949Y-7.3031
X6.1949Y-7.3425
X6.1949Y-7.4213
X6.1949Y-7.4606
X6.1949Y-12.4409
X6.1949Y-12.4803
X6.1949Y-12.5591
X6.1949Y-12.5984
X6.1949Y-12.6772
X6.1949Y-12.7165
X6.1949Y-12.7953
X6.1949Y-12.8346
X6.1949Y-12.9134
X6.1949Y-12.9528
X6.1949Y-13.0315
X6.1949Y-13.0709
X6.1949Y-13.1496
X6.1949Y-13.189
X6.1949Y-13.2677
X6.1949Y-13.3071
X6.1949Y-13.3858
X6.1949Y-13.4252
X6.1953Y-0.4327
X6.1953Y-6.3972
X6.1953Y-12.3618
X6.1957Y-4.3303
X6.1957Y-4.3697
X6.1957Y-4.4484
X6.1957Y-4.4878
X6.1957Y-4.5665
X6.1957Y-4.6059
X6.1957Y-4.6846
X6.1957Y-4.724
X6.1957Y-4.8028
X6.1957Y-4.8421
X6.1957Y-4.9209
X6.1957Y-4.9602
X6.1957Y-5.039
X6.1957Y-5.0783
X6.1957Y-5.1571
X6.1957Y-5.1965
X6.1957Y-5.2752
X6.1957Y-5.3146
X6.1957Y-5.3933
X6.1957Y-5.4327
X6.1957Y-5.5114
X6.1957Y-5.5508
X6.1957Y-10.2949
X6.1957Y-10.3343
X6.1957Y-10.413
X6.1957Y-10.4524
X6.1957Y-10.5311
X6.1957Y-10.5705
X6.1957Y-10.6492
X6.1957Y-10.6886
X6.1957Y-10.7673
X6.1957Y-10.8067
X6.1957Y-10.8854
X6.1957Y-10.9248
X6.1957Y-11.0035
X6.1957Y-11.0429
X6.1957Y-11.1217
X6.1957Y-11.161
X6.1957Y-11.2398
X6.1957Y-11.2791
X6.1957Y-11.3579
X6.1957Y-11.3972
X6.1957Y-11.476
X6.1957Y-11.5154
X6.1957Y-16.2594
X6.1957Y-16.2988
X6.1957Y-16.3776
X6.1957Y-16.4169
X6.1957Y-16.4957
X6.1957Y-16.535
X6.1957Y-16.6138
X6.1957Y-16.6531
X6.1957Y-16.7319
X6.1957Y-16.7713
X6.1957Y-16.85
X6.1957Y-16.8894
X6.1957Y-16.9681
X6.1957Y-17.0075
X6.1957Y-17.0862
X6.1957Y-17.1256
X6.1957Y-17.2043
X6.1957Y-17.2437
X6.1957Y-17.3224
X6.1957Y-17.3618
X6.1957Y-17.4406
X6.1957Y-17.4799
X6.1972Y-0.3933
X6.1972Y-6.3579
X6.1972Y-12.3224
X6.1988Y-1.5748
X6.1988Y-7.5394
X6.1988Y-13.5039
X7.4035Y-1.5748
X7.4035Y-7.5394
X7.4035Y-13.5039
X7.4051Y-0.3933
X7.4051Y-6.3579
X7.4051Y-12.3224
X7.4071Y-0.4327
X7.4071Y-4.3303
X7.4071Y-4.3697
X7.4071Y-4.4484
X7.4071Y-4.4878
X7.4071Y-4.5665
X7.4071Y-4.6059
X7.4071Y-4.6846
X7.4071Y-4.724
X7.4071Y-4.8028
X7.4071Y-4.8421
X7.4071Y-4.9209
X7.4071Y-4.9602
X7.4071Y-5.039
X7.4071Y-5.0783
X7.4071Y-5.1571
X7.4071Y-5.1965
X7.4071Y-5.2752
X7.4071Y-5.3146
X7.4071Y-5.3933
X7.4071Y-5.4327
X7.4071Y-5.5114
X7.4071Y-5.5508
X7.4071Y-6.3972
X7.4071Y-10.2949
X7.4071Y-10.3343
X7.4071Y-10.413
X7.4071Y-10.4524
X7.4071Y-10.5311
X7.4071Y-10.5705
X7.4071Y-10.6492
X7.4071Y-10.6886
X7.4071Y-10.7673
X7.4071Y-10.8067
X7.4071Y-10.8854
X7.4071Y-10.9248
X7.4071Y-11.0035
X7.4071Y-11.0429
X7.4071Y-11.1217
X7.4071Y-11.161
X7.4071Y-11.2398
X7.4071Y-11.2791
X7.4071Y-11.3579
X7.4071Y-11.3972
X7.4071Y-11.476
X7.4071Y-11.5154
X7.4071Y-12.3618
X7.4071Y-16.2594
X7.4071Y-16.2988
X7.4071Y-16.3776
X7.4071Y-16.4169
X7.4071Y-16.4957
X7.4071Y-16.535
X7.4071Y-16.6138
X7.4071Y-16.6531
X7.4071Y-16.7319
X7.4071Y-16.7713
X7.4071Y-16.85
X7.4071Y-16.8894
X7.4071Y-16.9681
X7.4071Y-17.0075
X7.4071Y-17.0862
X7.4071Y-17.1256
X7.4071Y-17.2043
X7.4071Y-17.2437
X7.4071Y-17.3224
X7.4071Y-17.3618
X7.4071Y-17.4406
X7.4071Y-17.4799
X7.4075Y-0.5118
X7.4075Y-0.5512
X7.4075Y-0.6299
X7.4075Y-0.6693
X7.4075Y-0.748
X7.4075Y-0.7874
X7.4075Y-0.8661
X7.4075Y-0.9055
X7.4075Y-0.9843
X7.4075Y-1.0236
X7.4075Y-1.1024
X7.4075Y-1.1417
X7.4075Y-1.2205
X7.4075Y-1.2598
X7.4075Y-1.3386
X7.4075Y-1.378
X7.4075Y-1.4567
X7.4075Y-1.4961
X7.4075Y-6.4764
X7.4075Y-6.5157
X7.4075Y-6.5945
X7.4075Y-6.6339
X7.4075Y-6.7126
X7.4075Y-6.752
X7.4075Y-6.8307
X7.4075Y-6.8701
X7.4075Y-6.9488
X7.4075Y-6.9882
X7.4075Y-7.0669
X7.4075Y-7.1063
X7.4075Y-7.185
X7.4075Y-7.2244
X7.4075Y-7.3031
X7.4075Y-7.3425
X7.4075Y-7.4213
X7.4075Y-7.4606
X7.4075Y-12.4409
X7.4075Y-12.4803
X7.4075Y-12.5591
X7.4075Y-12.5984
X7.4075Y-12.6772
X7.4075Y-12.7165
X7.4075Y-12.7953
X7.4075Y-12.8346
X7.4075Y-12.9134
X7.4075Y-12.9528
X7.4075Y-13.0315
X7.4075Y-13.0709
X7.4075Y-13.1496
X7.4075Y-13.189
X7.4075Y-13.2677
X7.4075Y-13.3071
X7.4075Y-13.3858
X7.4075Y-13.4252
X7.4138Y-2.3425
X7.4138Y-2.4213
X7.4138Y-2.4606
X7.4138Y-2.5394
X7.4138Y-2.5787
X7.4138Y-2.6575
X7.4138Y-2.6969
X7.4138Y-2.7756
X7.4138Y-2.815
X7.4138Y-2.8937
X7.4138Y-2.9331
X7.4138Y-3.0118
X7.4138Y-3.0512
X7.4138Y-3.1299
X7.4138Y-3.1693
X7.4138Y-3.248
X7.4138Y-3.2874
X7.4138Y-3.3661
X7.4138Y-3.4055
X7.4138Y-3.4843
X7.4138Y-3.5236
X7.4138Y-8.3071
X7.4138Y-8.3858
X7.4138Y-8.4252
X7.4138Y-8.5039
X7.4138Y-8.5433
X7.4138Y-8.622
X7.4138Y-8.6614
X7.4138Y-8.7402
X7.4138Y-8.7795
X7.4138Y-8.8583
X7.4138Y-8.8976
X7.4138Y-8.9764
X7.4138Y-9.0157
X7.4138Y-9.0945
X7.4138Y-9.1339
X7.4138Y-9.2126
X7.4138Y-9.252
X7.4138Y-9.3307
X7.4138Y-9.3701
X7.4138Y-9.4488
X7.4138Y-9.4882
X7.4138Y-14.2717
X7.4138Y-14.3504
X7.4138Y-14.3898
X7.4138Y-14.4685
X7.4138Y-14.5079
X7.4138Y-14.5866
X7.4138Y-14.626
X7.4138Y-14.7047
X7.4138Y-14.7441
X7.4138Y-14.8228
X7.4138Y-14.8622
X7.4138Y-14.9409
X7.4138Y-14.9803
X7.4138Y-15.0591
X7.4138Y-15.0984
X7.4138Y-15.1772
X7.4138Y-15.2165
X7.4138Y-15.2953
X7.4138Y-15.3346
X7.4138Y-15.4134
X7.4138Y-15.4528
X7.6496Y-0.5886
X7.6496Y-0.6201
X7.6496Y-0.6831
X7.6496Y-0.7146
X7.6496Y-0.7776
X7.6496Y-0.8091
X7.6496Y-0.9035
X7.6496Y-0.935
X7.6496Y-0.998
X7.6496Y-1.0295
X7.6496Y-1.0925
X7.6496Y-1.1555
X7.6496Y-1.2185
X7.6496Y-1.25
X7.6496Y-1.313
X7.6496Y-1.3445
X7.6496Y-1.439
X7.6496Y-1.4705
X7.6496Y-1.5335
X7.6496Y-1.565
X7.6496Y-1.628
X7.6496Y-1.6594
X7.6496Y-4.2008
X7.6496Y-4.2638
X7.6496Y-4.2953
X7.6496Y-4.3583
X7.6496Y-4.3898
X7.6496Y-4.4843
X7.6496Y-4.5157
X7.6496Y-4.5787
X7.6496Y-4.6102
X7.6496Y-4.6732
X7.6496Y-4.7047
X7.6496Y-4.7992
X7.6496Y-4.8307
X7.6496Y-4.8937
X7.6496Y-4.9252
X7.6496Y-4.9882
X7.6496Y-5.0512
X7.6496Y-5.1142
X7.6496Y-5.1457
X7.6496Y-5.2087
X7.6496Y-5.2402
X7.6496Y-6.5531
X7.6496Y-6.5846
X7.6496Y-6.6476
X7.6496Y-6.6791
X7.6496Y-6.7421
X7.6496Y-6.7736
X7.6496Y-6.8681
X7.6496Y-6.8996
X7.6496Y-6.9626
X7.6496Y-6.9941
X7.6496Y-7.0571
X7.6496Y-7.1201
X7.6496Y-7.1831
X7.6496Y-7.2146
X7.6496Y-7.2776
X7.6496Y-7.3091
X7.6496Y-7.4035
X7.6496Y-7.435
X7.6496Y-7.498
X7.6496Y-7.5295
X7.6496Y-7.5925
X7.6496Y-7.624
X7.6496Y-10.1654
X7.6496Y-10.2283
X7.6496Y-10.2598
X7.6496Y-10.3228
X7.6496Y-10.3543
X7.6496Y-10.4488
X7.6496Y-10.4803
X7.6496Y-10.5433
X7.6496Y-10.5748
X7.6496Y-10.6378
X7.6496Y-10.6693
X7.6496Y-10.7638
X7.6496Y-10.7953
X7.6496Y-10.8583
X7.6496Y-10.8898
X7.6496Y-10.9528
X7.6496Y-11.0157
X7.6496Y-11.0787
X7.6496Y-11.1102
X7.6496Y-11.1732
X7.6496Y-11.2047
X7.6496Y-12.5177
X7.6496Y-12.5492
X7.6496Y-12.6122
X7.6496Y-12.6437
X7.6496Y-12.7067
X7.6496Y-12.7382
X7.6496Y-12.8327
X7.6496Y-12.8642
X7.6496Y-12.9272
X7.6496Y-12.9587
X7.6496Y-13.0217
X7.6496Y-13.0846
X7.6496Y-13.1476
X7.6496Y-13.1791
X7.6496Y-13.2421
X7.6496Y-13.2736
X7.6496Y-13.3681
X7.6496Y-13.3996
X7.6496Y-13.4626
X7.6496Y-13.4941
X7.6496Y-13.5571
X7.6496Y-13.5886
X7.6496Y-16.1299
X7.6496Y-16.1929
X7.6496Y-16.2244
X7.6496Y-16.2874
X7.6496Y-16.3189
X7.6496Y-16.4134
X7.6496Y-16.4449
X7.6496Y-16.5079
X7.6496Y-16.5394
X7.6496Y-16.6024
X7.6496Y-16.6339
X7.6496Y-16.7283
X7.6496Y-16.7598
X7.6496Y-16.8228
X7.6496Y-16.8543
X7.6496Y-16.9173
X7.6496Y-16.9803
X7.6496Y-17.0433
X7.6496Y-17.0748
X7.6496Y-17.1378
X7.6496Y-17.1693
X7.65Y-1.8799
X7.65Y-1.9114
X7.65Y-1.9744
X7.65Y-2.0059
X7.65Y-2.0689
X7.65Y-2.1319
X7.65Y-2.1949
X7.65Y-2.2264
X7.65Y-2.2894
X7.65Y-2.3209
X7.65Y-2.4154
X7.65Y-3.5394
X7.65Y-3.6024
X7.65Y-3.6339
X7.65Y-3.6969
X7.65Y-3.7283
X7.65Y-3.8228
X7.65Y-3.8543
X7.65Y-3.9173
X7.65Y-3.9488
X7.65Y-4.0118
X7.65Y-7.8445
X7.65Y-7.876
X7.65Y-7.939
X7.65Y-7.9705
X7.65Y-8.0335
X7.65Y-8.0965
X7.65Y-8.1594
X7.65Y-8.1909
X7.65Y-8.2539
X7.65Y-8.2854
X7.65Y-8.3799
X7.65Y-9.5039
X7.65Y-9.5669
X7.65Y-9.5984
X7.65Y-9.6614
X7.65Y-9.6929
X7.65Y-9.7874
X7.65Y-9.8189
X7.65Y-9.8819
X7.65Y-9.9134
X7.65Y-9.9764
X7.65Y-13.8091
X7.65Y-13.8406
X7.65Y-13.9035
X7.65Y-13.935
X7.65Y-13.998
X7.65Y-14.061
X7.65Y-14.124
X7.65Y-14.1555
X7.65Y-14.2185
X7.65Y-14.25
X7.65Y-14.3445
X7.65Y-15.4685
X7.65Y-15.5315
X7.65Y-15.563
X7.65Y-15.626
X7.65Y-15.6575
X7.65Y-15.752
X7.65Y-15.7835
X7.65Y-15.8465
X7.65Y-15.878
X7.65Y-15.9409
X7.94Y-1.8799
X7.94Y-1.9114
X7.94Y-1.9744
X7.94Y-2.0059
X7.94Y-2.0689
X7.94Y-2.1319
X7.94Y-2.1949
X7.94Y-2.2263
X7.94Y-2.2893
X7.94Y-2.3208
X7.94Y-2.4153
X7.94Y-7.8445
X7.94Y-7.876
X7.94Y-7.9389
X7.94Y-7.9704
X7.94Y-8.0334
X7.94Y-8.0964
X7.94Y-8.1594
X7.94Y-8.1909
X7.94Y-8.2539
X7.94Y-8.2854
X7.94Y-8.3799
X7.94Y-13.809
X7.94Y-13.8405
X7.94Y-13.9035
X7.94Y-13.935
X7.94Y-13.998
X7.94Y-14.061
X7.94Y-14.124
X7.94Y-14.1555
X7.94Y-14.2185
X7.94Y-14.25
X7.94Y-14.3445
X7.9409Y-0.5886
X7.9409Y-0.6201
X7.9409Y-0.6831
X7.9409Y-0.7146
X7.9409Y-0.7776
X7.9409Y-0.8091
X7.9409Y-0.9035
X7.9409Y-0.935
X7.9409Y-0.998
X7.9409Y-1.0295
X7.9409Y-1.0925
X7.9409Y-1.1555
X7.9409Y-1.2185
X7.9409Y-1.25
X7.9409Y-1.313
X7.9409Y-1.3445
X7.9409Y-1.439
X7.9409Y-1.4705
X7.9409Y-1.5335
X7.9409Y-1.565
X7.9409Y-1.628
X7.9409Y-1.6594
X7.9409Y-3.5394
X7.9409Y-3.6024
X7.9409Y-3.6339
X7.9409Y-3.6969
X7.9409Y-3.7283
X7.9409Y-3.8228
X7.9409Y-3.8543
X7.9409Y-3.9173
X7.9409Y-3.9488
X7.9409Y-4.0118
X7.9409Y-6.5531
X7.9409Y-6.5846
X7.9409Y-6.6476
X7.9409Y-6.6791
X7.9409Y-6.7421
X7.9409Y-6.7736
X7.9409Y-6.8681
X7.9409Y-6.8996
X7.9409Y-6.9626
X7.9409Y-6.9941
X7.9409Y-7.0571
X7.9409Y-7.1201
X7.9409Y-7.1831
X7.9409Y-7.2146
X7.9409Y-7.2776
X7.9409Y-7.3091
X7.9409Y-7.4035
X7.9409Y-7.435
X7.9409Y-7.498
X7.9409Y-7.5295
X7.9409Y-7.5925
X7.9409Y-7.624
X7.9409Y-9.5039
X7.9409Y-9.5669
X7.9409Y-9.5984
X7.9409Y-9.6614
X7.9409Y-9.6929
X7.9409Y-9.7874
X7.9409Y-9.8189
X7.9409Y-9.8819
X7.9409Y-9.9134
X7.9409Y-9.9764
X7.9409Y-12.5177
X7.9409Y-12.5492
X7.9409Y-12.6122
X7.9409Y-12.6437
X7.9409Y-12.7067
X7.9409Y-12.7382
X7.9409Y-12.8327
X7.9409Y-12.8642
X7.9409Y-12.9272
X7.9409Y-12.9587
X7.9409Y-13.0217
X7.9409Y-13.0846
X7.9409Y-13.1476
X7.9409Y-13.1791
X7.9409Y-13.2421
X7.9409Y-13.2736
X7.9409Y-13.3681
X7.9409Y-13.3996
X7.9409Y-13.4626
X7.9409Y-13.4941
X7.9409Y-13.5571
X7.9409Y-13.5886
X7.9409Y-15.4685
X7.9409Y-15.5315
X7.9409Y-15.563
X7.9409Y-15.626
X7.9409Y-15.6575
X7.9409Y-15.752
X7.9409Y-15.7835
X7.9409Y-15.8465
X7.9409Y-15.878
X7.9409Y-15.9409
X7.9413Y-4.2008
X7.9413Y-4.2638
X7.9413Y-4.2953
X7.9413Y-4.3583
X7.9413Y-4.3898
X7.9413Y-4.4843
X7.9413Y-4.5157
X7.9413Y-4.5787
X7.9413Y-4.6102
X7.9413Y-4.6732
X7.9413Y-4.7047
X7.9413Y-4.7992
X7.9413Y-4.8307
X7.9413Y-4.8937
X7.9413Y-4.9252
X7.9413Y-4.9882
X7.9413Y-5.0512
X7.9413Y-5.1142
X7.9413Y-5.1457
X7.9413Y-5.2087
X7.9413Y-5.2402
X7.9413Y-10.1654
X7.9413Y-10.2283
X7.9413Y-10.2598
X7.9413Y-10.3228
X7.9413Y-10.3543
X7.9413Y-10.4488
X7.9413Y-10.4803
X7.9413Y-10.5433
X7.9413Y-10.5748
X7.9413Y-10.6378
X7.9413Y-10.6693
X7.9413Y-10.7638
X7.9413Y-10.7953
X7.9413Y-10.8583
X7.9413Y-10.8898
X7.9413Y-10.9528
X7.9413Y-11.0157
X7.9413Y-11.0787
X7.9413Y-11.1102
X7.9413Y-11.1732
X7.9413Y-11.2047
X7.9413Y-16.1299
X7.9413Y-16.1929
X7.9413Y-16.2244
X7.9413Y-16.2874
X7.9413Y-16.3189
X7.9413Y-16.4134
X7.9413Y-16.4449
X7.9413Y-16.5079
X7.9413Y-16.5394
X7.9413Y-16.6024
X7.9413Y-16.6339
X7.9413Y-16.7283
X7.9413Y-16.7598
X7.9413Y-16.8228
X7.9413Y-16.8543
X7.9413Y-16.9173
X7.9413Y-16.9803
X7.9413Y-17.0433
X7.9413Y-17.0748
X7.9413Y-17.1378
X7.9413Y-17.1693
X8.1762Y-2.3425
X8.1762Y-2.4212
X8.1762Y-2.4606
X8.1762Y-2.5393
X8.1762Y-2.5787
X8.1762Y-2.6574
X8.1762Y-2.6968
X8.1762Y-2.7756
X8.1762Y-2.8149
X8.1762Y-2.8937
X8.1762Y-2.933
X8.1762Y-8.3071
X8.1762Y-8.3858
X8.1762Y-8.4252
X8.1762Y-8.5039
X8.1762Y-8.5433
X8.1762Y-8.622
X8.1762Y-8.6614
X8.1762Y-8.7401
X8.1762Y-8.7795
X8.1762Y-8.8582
X8.1762Y-8.8976
X8.1762Y-14.2716
X8.1762Y-14.3504
X8.1762Y-14.3897
X8.1762Y-14.4685
X8.1762Y-14.5078
X8.1762Y-14.5866
X8.1762Y-14.626
X8.1762Y-14.7047
X8.1762Y-14.7441
X8.1762Y-14.8228
X8.1762Y-14.8622
X8.1772Y-3.0118
X8.1772Y-3.0512
X8.1772Y-3.1299
X8.1772Y-3.1693
X8.1772Y-3.248
X8.1772Y-3.2874
X8.1772Y-3.3661
X8.1772Y-3.4055
X8.1772Y-3.4843
X8.1772Y-3.5236
X8.1772Y-8.9764
X8.1772Y-9.0157
X8.1772Y-9.0945
X8.1772Y-9.1339
X8.1772Y-9.2126
X8.1772Y-9.252
X8.1772Y-9.3307
X8.1772Y-9.3701
X8.1772Y-9.4488
X8.1772Y-9.4882
X8.1772Y-14.9409
X8.1772Y-14.9803
X8.1772Y-15.0591
X8.1772Y-15.0984
X8.1772Y-15.1772
X8.1772Y-15.2165
X8.1772Y-15.2953
X8.1772Y-15.3346
X8.1772Y-15.4134
X8.1772Y-15.4528
X8.1831Y-0.5118
X8.1831Y-0.5512
X8.1831Y-0.6299
X8.1831Y-0.6693
X8.1831Y-0.748
X8.1831Y-0.7874
X8.1831Y-0.8661
X8.1831Y-0.9055
X8.1831Y-0.9843
X8.1831Y-1.0236
X8.1831Y-1.1024
X8.1831Y-1.1417
X8.1831Y-1.2205
X8.1831Y-1.2598
X8.1831Y-1.3386
X8.1831Y-1.378
X8.1831Y-1.4567
X8.1831Y-1.4961
X8.1831Y-6.4764
X8.1831Y-6.5157
X8.1831Y-6.5945
X8.1831Y-6.6339
X8.1831Y-6.7126
X8.1831Y-6.752
X8.1831Y-6.8307
X8.1831Y-6.8701
X8.1831Y-6.9488
X8.1831Y-6.9882
X8.1831Y-7.0669
X8.1831Y-7.1063
X8.1831Y-7.185
X8.1831Y-7.2244
X8.1831Y-7.3031
X8.1831Y-7.3425
X8.1831Y-7.4213
X8.1831Y-7.4606
X8.1831Y-12.4409
X8.1831Y-12.4803
X8.1831Y-12.5591
X8.1831Y-12.5984
X8.1831Y-12.6772
X8.1831Y-12.7165
X8.1831Y-12.7953
X8.1831Y-12.8346
X8.1831Y-12.9134
X8.1831Y-12.9528
X8.1831Y-13.0315
X8.1831Y-13.0709
X8.1831Y-13.1496
X8.1831Y-13.189
X8.1831Y-13.2677
X8.1831Y-13.3071
X8.1831Y-13.3858
X8.1831Y-13.4252
X8.1835Y-0.4327
X8.1835Y-6.3972
X8.1835Y-12.3618
X8.1839Y-4.3303
X8.1839Y-4.3697
X8.1839Y-4.4484
X8.1839Y-4.4878
X8.1839Y-4.5665
X8.1839Y-4.6059
X8.1839Y-4.6846
X8.1839Y-4.724
X8.1839Y-4.8028
X8.1839Y-4.8421
X8.1839Y-4.9209
X8.1839Y-4.9602
X8.1839Y-5.039
X8.1839Y-5.0783
X8.1839Y-5.1571
X8.1839Y-5.1965
X8.1839Y-5.2752
X8.1839Y-5.3146
X8.1839Y-5.3933
X8.1839Y-5.4327
X8.1839Y-5.5114
X8.1839Y-5.5508
X8.1839Y-10.2949
X8.1839Y-10.3343
X8.1839Y-10.413
X8.1839Y-10.4524
X8.1839Y-10.5311
X8.1839Y-10.5705
X8.1839Y-10.6492
X8.1839Y-10.6886
X8.1839Y-10.7673
X8.1839Y-10.8067
X8.1839Y-10.8854
X8.1839Y-10.9248
X8.1839Y-11.0035
X8.1839Y-11.0429
X8.1839Y-11.1217
X8.1839Y-11.161
X8.1839Y-11.2398
X8.1839Y-11.2791
X8.1839Y-11.3579
X8.1839Y-11.3972
X8.1839Y-11.476
X8.1839Y-11.5154
X8.1839Y-16.2594
X8.1839Y-16.2988
X8.1839Y-16.3776
X8.1839Y-16.4169
X8.1839Y-16.4957
X8.1839Y-16.535
X8.1839Y-16.6138
X8.1839Y-16.6531
X8.1839Y-16.7319
X8.1839Y-16.7713
X8.1839Y-16.85
X8.1839Y-16.8894
X8.1839Y-16.9681
X8.1839Y-17.0075
X8.1839Y-17.0862
X8.1839Y-17.1256
X8.1839Y-17.2043
X8.1839Y-17.2437
X8.1839Y-17.3224
X8.1839Y-17.3618
X8.1839Y-17.4406
X8.1839Y-17.4799
X8.1854Y-0.3933
X8.1854Y-6.3579
X8.1854Y-12.3224
X8.187Y-1.5748
X8.187Y-7.5394
X8.187Y-13.5039
X9.3917Y-1.5748
X9.3917Y-7.5394
X9.3917Y-13.5039
X9.3933Y-0.3933
X9.3933Y-6.3579
X9.3933Y-12.3224
X9.3953Y-0.4327
X9.3953Y-4.3303
X9.3953Y-4.3697
X9.3953Y-4.4484
X9.3953Y-4.4878
X9.3953Y-4.5665
X9.3953Y-4.6059
X9.3953Y-4.6846
X9.3953Y-4.724
X9.3953Y-4.8028
X9.3953Y-4.8421
X9.3953Y-4.9209
X9.3953Y-4.9602
X9.3953Y-5.039
X9.3953Y-5.0783
X9.3953Y-5.1571
X9.3953Y-5.1965
X9.3953Y-5.2752
X9.3953Y-5.3146
X9.3953Y-5.3933
X9.3953Y-5.4327
X9.3953Y-5.5114
X9.3953Y-5.5508
X9.3953Y-6.3972
X9.3953Y-10.2949
X9.3953Y-10.3343
X9.3953Y-10.413
X9.3953Y-10.4524
X9.3953Y-10.5311
X9.3953Y-10.5705
X9.3953Y-10.6492
X9.3953Y-10.6886
X9.3953Y-10.7673
X9.3953Y-10.8067
X9.3953Y-10.8854
X9.3953Y-10.9248
X9.3953Y-11.0035
X9.3953Y-11.0429
X9.3953Y-11.1217
X9.3953Y-11.161
X9.3953Y-11.2398
X9.3953Y-11.2791
X9.3953Y-11.3579
X9.3953Y-11.3972
X9.3953Y-11.476
X9.3953Y-11.5154
X9.3953Y-12.3618
X9.3953Y-16.2594
X9.3953Y-16.2988
X9.3953Y-16.3776
X9.3953Y-16.4169
X9.3953Y-16.4957
X9.3953Y-16.535
X9.3953Y-16.6138
X9.3953Y-16.6531
X9.3953Y-16.7319
X9.3953Y-16.7713
X9.3953Y-16.85
X9.3953Y-16.8894
X9.3953Y-16.9681
X9.3953Y-17.0075
X9.3953Y-17.0862
X9.3953Y-17.1256
X9.3953Y-17.2043
X9.3953Y-17.2437
X9.3953Y-17.3224
X9.3953Y-17.3618
X9.3953Y-17.4406
X9.3953Y-17.4799
X9.3957Y-0.5118
X9.3957Y-0.5512
X9.3957Y-0.6299
X9.3957Y-0.6693
X9.3957Y-0.748
X9.3957Y-0.7874
X9.3957Y-0.8661
X9.3957Y-0.9055
X9.3957Y-0.9843
X9.3957Y-1.0236
X9.3957Y-1.1024
X9.3957Y-1.1417
X9.3957Y-1.2205
X9.3957Y-1.2598
X9.3957Y-1.3386
X9.3957Y-1.378
X9.3957Y-1.4567
X9.3957Y-1.4961
X9.3957Y-6.4764
X9.3957Y-6.5157
X9.3957Y-6.5945
X9.3957Y-6.6339
X9.3957Y-6.7126
X9.3957Y-6.752
X9.3957Y-6.8307
X9.3957Y-6.8701
X9.3957Y-6.9488
X9.3957Y-6.9882
X9.3957Y-7.0669
X9.3957Y-7.1063
X9.3957Y-7.185
X9.3957Y-7.2244
X9.3957Y-7.3031
X9.3957Y-7.3425
X9.3957Y-7.4213
X9.3957Y-7.4606
X9.3957Y-12.4409
X9.3957Y-12.4803
X9.3957Y-12.5591
X9.3957Y-12.5984
X9.3957Y-12.6772
X9.3957Y-12.7165
X9.3957Y-12.7953
X9.3957Y-12.8346
X9.3957Y-12.9134
X9.3957Y-12.9528
X9.3957Y-13.0315
X9.3957Y-13.0709
X9.3957Y-13.1496
X9.3957Y-13.189
X9.3957Y-13.2677
X9.3957Y-13.3071
X9.3957Y-13.3858
X9.3957Y-13.4252
X9.402Y-2.3425
X9.402Y-2.4213
X9.402Y-2.4606
X9.402Y-2.5394
X9.402Y-2.5787
X9.402Y-2.6575
X9.402Y-2.6969
X9.402Y-2.7756
X9.402Y-2.815
X9.402Y-2.8937
X9.402Y-2.9331
X9.402Y-3.0118
X9.402Y-3.0512
X9.402Y-3.1299
X9.402Y-3.1693
X9.402Y-3.248
X9.402Y-3.2874
X9.402Y-3.3661
X9.402Y-3.4055
X9.402Y-3.4843
X9.402Y-3.5236
X9.402Y-8.3071
X9.402Y-8.3858
X9.402Y-8.4252
X9.402Y-8.5039
X9.402Y-8.5433
X9.402Y-8.622
X9.402Y-8.6614
X9.402Y-8.7402
X9.402Y-8.7795
X9.402Y-8.8583
X9.402Y-8.8976
X9.402Y-8.9764
X9.402Y-9.0157
X9.402Y-9.0945
X9.402Y-9.1339
X9.402Y-9.2126
X9.402Y-9.252
X9.402Y-9.3307
X9.402Y-9.3701
X9.402Y-9.4488
X9.402Y-9.4882
X9.402Y-14.2717
X9.402Y-14.3504
X9.402Y-14.3898
X9.402Y-14.4685
X9.402Y-14.5079
X9.402Y-14.5866
X9.402Y-14.626
X9.402Y-14.7047
X9.402Y-14.7441
X9.402Y-14.8228
X9.402Y-14.8622
X9.402Y-14.9409
X9.402Y-14.9803
X9.402Y-15.0591
X9.402Y-15.0984
X9.402Y-15.1772
X9.402Y-15.2165
X9.402Y-15.2953
X9.402Y-15.3346
X9.402Y-15.4134
X9.402Y-15.4528
X9.6378Y-0.5886
X9.6378Y-0.6201
X9.6378Y-0.6831
X9.6378Y-0.7146
X9.6378Y-0.7776
X9.6378Y-0.8091
X9.6378Y-0.9035
X9.6378Y-0.935
X9.6378Y-0.998
X9.6378Y-1.0295
X9.6378Y-1.0925
X9.6378Y-1.1555
X9.6378Y-1.2185
X9.6378Y-1.25
X9.6378Y-1.313
X9.6378Y-1.3445
X9.6378Y-1.439
X9.6378Y-1.4705
X9.6378Y-1.5335
X9.6378Y-1.565
X9.6378Y-1.628
X9.6378Y-1.6594
X9.6378Y-4.2008
X9.6378Y-4.2638
X9.6378Y-4.2953
X9.6378Y-4.3583
X9.6378Y-4.3898
X9.6378Y-4.4843
X9.6378Y-4.5157
X9.6378Y-4.5787
X9.6378Y-4.6102
X9.6378Y-4.6732
X9.6378Y-4.7047
X9.6378Y-4.7992
X9.6378Y-4.8307
X9.6378Y-4.8937
X9.6378Y-4.9252
X9.6378Y-4.9882
X9.6378Y-5.0512
X9.6378Y-5.1142
X9.6378Y-5.1457
X9.6378Y-5.2087
X9.6378Y-5.2402
X9.6378Y-6.5531
X9.6378Y-6.5846
X9.6378Y-6.6476
X9.6378Y-6.6791
X9.6378Y-6.7421
X9.6378Y-6.7736
X9.6378Y-6.8681
X9.6378Y-6.8996
X9.6378Y-6.9626
X9.6378Y-6.9941
X9.6378Y-7.0571
X9.6378Y-7.1201
X9.6378Y-7.1831
X9.6378Y-7.2146
X9.6378Y-7.2776
X9.6378Y-7.3091
X9.6378Y-7.4035
X9.6378Y-7.435
X9.6378Y-7.498
X9.6378Y-7.5295
X9.6378Y-7.5925
X9.6378Y-7.624
X9.6378Y-10.1654
X9.6378Y-10.2283
X9.6378Y-10.2598
X9.6378Y-10.3228
X9.6378Y-10.3543
X9.6378Y-10.4488
X9.6378Y-10.4803
X9.6378Y-10.5433
X9.6378Y-10.5748
X9.6378Y-10.6378
X9.6378Y-10.6693
X9.6378Y-10.7638
X9.6378Y-10.7953
X9.6378Y-10.8583
X9.6378Y-10.8898
X9.6378Y-10.9528
X9.6378Y-11.0157
X9.6378Y-11.0787
X9.6378Y-11.1102
X9.6378Y-11.1732
X9.6378Y-11.2047
X9.6378Y-12.5177
X9.6378Y-12.5492
X9.6378Y-12.6122
X9.6378Y-12.6437
X9.6378Y-12.7067
X9.6378Y-12.7382
X9.6378Y-12.8327
X9.6378Y-12.8642
X9.6378Y-12.9272
X9.6378Y-12.9587
X9.6378Y-13.0217
X9.6378Y-13.0846
X9.6378Y-13.1476
X9.6378Y-13.1791
X9.6378Y-13.2421
X9.6378Y-13.2736
X9.6378Y-13.3681
X9.6378Y-13.3996
X9.6378Y-13.4626
X9.6378Y-13.4941
X9.6378Y-13.5571
X9.6378Y-13.5886
X9.6378Y-16.1299
X9.6378Y-16.1929
X9.6378Y-16.2244
X9.6378Y-16.2874
X9.6378Y-16.3189
X9.6378Y-16.4134
X9.6378Y-16.4449
X9.6378Y-16.5079
X9.6378Y-16.5394
X9.6378Y-16.6024
X9.6378Y-16.6339
X9.6378Y-16.7283
X9.6378Y-16.7598
X9.6378Y-16.8228
X9.6378Y-16.8543
X9.6378Y-16.9173
X9.6378Y-16.9803
X9.6378Y-17.0433
X9.6378Y-17.0748
X9.6378Y-17.1378
X9.6378Y-17.1693
X9.6382Y-1.8799
X9.6382Y-1.9114
X9.6382Y-1.9744
X9.6382Y-2.0059
X9.6382Y-2.0689
X9.6382Y-2.1319
X9.6382Y-2.1949
X9.6382Y-2.2264
X9.6382Y-2.2894
X9.6382Y-2.3209
X9.6382Y-2.4154
X9.6382Y-3.5394
X9.6382Y-3.6024
X9.6382Y-3.6339
X9.6382Y-3.6969
X9.6382Y-3.7283
X9.6382Y-3.8228
X9.6382Y-3.8543
X9.6382Y-3.9173
X9.6382Y-3.9488
X9.6382Y-4.0118
X9.6382Y-7.8445
X9.6382Y-7.876
X9.6382Y-7.939
X9.6382Y-7.9705
X9.6382Y-8.0335
X9.6382Y-8.0965
X9.6382Y-8.1594
X9.6382Y-8.1909
X9.6382Y-8.2539
X9.6382Y-8.2854
X9.6382Y-8.3799
X9.6382Y-9.5039
X9.6382Y-9.5669
X9.6382Y-9.5984
X9.6382Y-9.6614
X9.6382Y-9.6929
X9.6382Y-9.7874
X9.6382Y-9.8189
X9.6382Y-9.8819
X9.6382Y-9.9134
X9.6382Y-9.9764
X9.6382Y-13.8091
X9.6382Y-13.8406
X9.6382Y-13.9035
X9.6382Y-13.935
X9.6382Y-13.998
X9.6382Y-14.061
X9.6382Y-14.124
X9.6382Y-14.1555
X9.6382Y-14.2185
X9.6382Y-14.25
X9.6382Y-14.3445
X9.6382Y-15.4685
X9.6382Y-15.5315
X9.6382Y-15.563
X9.6382Y-15.626
X9.6382Y-15.6575
X9.6382Y-15.752
X9.6382Y-15.7835
X9.6382Y-15.8465
X9.6382Y-15.878
X9.6382Y-15.9409
X9.9282Y-1.8799
X9.9282Y-1.9114
X9.9282Y-1.9744
X9.9282Y-2.0059
X9.9282Y-2.0689
X9.9282Y-2.1319
X9.9282Y-2.1949
X9.9282Y-2.2263
X9.9282Y-2.2893
X9.9282Y-2.3208
X9.9282Y-2.4153
X9.9282Y-7.8445
X9.9282Y-7.876
X9.9282Y-7.9389
X9.9282Y-7.9704
X9.9282Y-8.0334
X9.9282Y-8.0964
X9.9282Y-8.1594
X9.9282Y-8.1909
X9.9282Y-8.2539
X9.9282Y-8.2854
X9.9282Y-8.3799
X9.9282Y-13.809
X9.9282Y-13.8405
X9.9282Y-13.9035
X9.9282Y-13.935
X9.9282Y-13.998
X9.9282Y-14.061
X9.9282Y-14.124
X9.9282Y-14.1555
X9.9282Y-14.2185
X9.9282Y-14.25
X9.9282Y-14.3445
X9.9291Y-0.5886
X9.9291Y-0.6201
X9.9291Y-0.6831
X9.9291Y-0.7146
X9.9291Y-0.7776
X9.9291Y-0.8091
X9.9291Y-0.9035
X9.9291Y-0.935
X9.9291Y-0.998
X9.9291Y-1.0295
X9.9291Y-1.0925
X9.9291Y-1.1555
X9.9291Y-1.2185
X9.9291Y-1.25
X9.9291Y-1.313
X9.9291Y-1.3445
X9.9291Y-1.439
X9.9291Y-1.4705
X9.9291Y-1.5335
X9.9291Y-1.565
X9.9291Y-1.628
X9.9291Y-1.6594
X9.9291Y-3.5394
X9.9291Y-3.6024
X9.9291Y-3.6339
X9.9291Y-3.6969
X9.9291Y-3.7283
X9.9291Y-3.8228
X9.9291Y-3.8543
X9.9291Y-3.9173
X9.9291Y-3.9488
X9.9291Y-4.0118
X9.9291Y-6.5531
X9.9291Y-6.5846
X9.9291Y-6.6476
X9.9291Y-6.6791
X9.9291Y-6.7421
X9.9291Y-6.7736
X9.9291Y-6.8681
X9.9291Y-6.8996
X9.9291Y-6.9626
X9.9291Y-6.9941
X9.9291Y-7.0571
X9.9291Y-7.1201
X9.9291Y-7.1831
X9.9291Y-7.2146
X9.9291Y-7.2776
X9.9291Y-7.3091
X9.9291Y-7.4035
X9.9291Y-7.435
X9.9291Y-7.498
X9.9291Y-7.5295
X9.9291Y-7.5925
X9.9291Y-7.624
X9.9291Y-9.5039
X9.9291Y-9.5669
X9.9291Y-9.5984
X9.9291Y-9.6614
X9.9291Y-9.6929
X9.9291Y-9.7874
X9.9291Y-9.8189
X9.9291Y-9.8819
X9.9291Y-9.9134
X9.9291Y-9.9764
X9.9291Y-12.5177
X9.9291Y-12.5492
X9.9291Y-12.6122
X9.9291Y-12.6437
X9.9291Y-12.7067
X9.9291Y-12.7382
X9.9291Y-12.8327
X9.9291Y-12.8642
X9.9291Y-12.9272
X9.9291Y-12.9587
X9.9291Y-13.0217
X9.9291Y-13.0846
X9.9291Y-13.1476
X9.9291Y-13.1791
X9.9291Y-13.2421
X9.9291Y-13.2736
X9.9291Y-13.3681
X9.9291Y-13.3996
X9.9291Y-13.4626
X9.9291Y-13.4941
X9.9291Y-13.5571
X9.9291Y-13.5886
X9.9291Y-15.4685
X9.9291Y-15.5315
X9.9291Y-15.563
X9.9291Y-15.626
X9.9291Y-15.6575
X9.9291Y-15.752
X9.9291Y-15.7835
X9.9291Y-15.8465
X9.9291Y-15.878
X9.9291Y-15.9409
X9.9295Y-4.2008
X9.9295Y-4.2638
X9.9295Y-4.2953
X9.9295Y-4.3583
X9.9295Y-4.3898
X9.9295Y-4.4843
X9.9295Y-4.5157
X9.9295Y-4.5787
X9.9295Y-4.6102
X9.9295Y-4.6732
X9.9295Y-4.7047
X9.9295Y-4.7992
X9.9295Y-4.8307
X9.9295Y-4.8937
X9.9295Y-4.9252
X9.9295Y-4.9882
X9.9295Y-5.0512
X9.9295Y-5.1142
X9.9295Y-5.1457
X9.9295Y-5.2087
X9.9295Y-5.2402
X9.9295Y-10.1654
X9.9295Y-10.2283
X9.9295Y-10.2598
X9.9295Y-10.3228
X9.9295Y-10.3543
X9.9295Y-10.4488
X9.9295Y-10.4803
X9.9295Y-10.5433
X9.9295Y-10.5748
X9.9295Y-10.6378
X9.9295Y-10.6693
X9.9295Y-10.7638
X9.9295Y-10.7953
X9.9295Y-10.8583
X9.9295Y-10.8898
X9.9295Y-10.9528
X9.9295Y-11.0157
X9.9295Y-11.0787
X9.9295Y-11.1102
X9.9295Y-11.1732
X9.9295Y-11.2047
X9.9295Y-16.1299
X9.9295Y-16.1929
X9.9295Y-16.2244
X9.9295Y-16.2874
X9.9295Y-16.3189
X9.9295Y-16.4134
X9.9295Y-16.4449
X9.9295Y-16.5079
X9.9295Y-16.5394
X9.9295Y-16.6024
X9.9295Y-16.6339
X9.9295Y-16.7283
X9.9295Y-16.7598
X9.9295Y-16.8228
X9.9295Y-16.8543
X9.9295Y-16.9173
X9.9295Y-16.9803
X9.9295Y-17.0433
X9.9295Y-17.0748
X9.9295Y-17.1378
X9.9295Y-17.1693
X10.1644Y-2.3425
X10.1644Y-2.4212
X10.1644Y-2.4606
X10.1644Y-2.5393
X10.1644Y-2.5787
X10.1644Y-2.6574
X10.1644Y-2.6968
X10.1644Y-2.7756
X10.1644Y-2.8149
X10.1644Y-2.8937
X10.1644Y-2.933
X10.1644Y-8.3071
X10.1644Y-8.3858
X10.1644Y-8.4252
X10.1644Y-8.5039
X10.1644Y-8.5433
X10.1644Y-8.622
X10.1644Y-8.6614
X10.1644Y-8.7401
X10.1644Y-8.7795
X10.1644Y-8.8582
X10.1644Y-8.8976
X10.1644Y-14.2716
X10.1644Y-14.3504
X10.1644Y-14.3897
X10.1644Y-14.4685
X10.1644Y-14.5078
X10.1644Y-14.5866
X10.1644Y-14.626
X10.1644Y-14.7047
X10.1644Y-14.7441
X10.1644Y-14.8228
X10.1644Y-14.8622
X10.1654Y-3.0118
X10.1654Y-3.0512
X10.1654Y-3.1299
X10.1654Y-3.1693
X10.1654Y-3.248
X10.1654Y-3.2874
X10.1654Y-3.3661
X10.1654Y-3.4055
X10.1654Y-3.4843
X10.1654Y-3.5236
X10.1654Y-8.9764
X10.1654Y-9.0157
X10.1654Y-9.0945
X10.1654Y-9.1339
X10.1654Y-9.2126
X10.1654Y-9.252
X10.1654Y-9.3307
X10.1654Y-9.3701
X10.1654Y-9.4488
X10.1654Y-9.4882
X10.1654Y-14.9409
X10.1654Y-14.9803
X10.1654Y-15.0591
X10.1654Y-15.0984
X10.1654Y-15.1772
X10.1654Y-15.2165
X10.1654Y-15.2953
X10.1654Y-15.3346
X10.1654Y-15.4134
X10.1654Y-15.4528
X10.1713Y-0.5118
X10.1713Y-0.5512
X10.1713Y-0.6299
X10.1713Y-0.6693
X10.1713Y-0.748
X10.1713Y-0.7874
X10.1713Y-0.8661
X10.1713Y-0.9055
X10.1713Y-0.9843
X10.1713Y-1.0236
X10.1713Y-1.1024
X10.1713Y-1.1417
X10.1713Y-1.2205
X10.1713Y-1.2598
X10.1713Y-1.3386
X10.1713Y-1.378
X10.1713Y-1.4567
X10.1713Y-1.4961
X10.1713Y-6.4764
X10.1713Y-6.5157
X10.1713Y-6.5945
X10.1713Y-6.6339
X10.1713Y-6.7126
X10.1713Y-6.752
X10.1713Y-6.8307
X10.1713Y-6.8701
X10.1713Y-6.9488
X10.1713Y-6.9882
X10.1713Y-7.0669
X10.1713Y-7.1063
X10.1713Y-7.185
X10.1713Y-7.2244
X10.1713Y-7.3031
X10.1713Y-7.3425
X10.1713Y-7.4213
X10.1713Y-7.4606
X10.1713Y-12.4409
X10.1713Y-12.4803
X10.1713Y-12.5591
X10.1713Y-12.5984
X10.1713Y-12.6772
X10.1713Y-12.7165
X10.1713Y-12.7953
X10.1713Y-12.8346
X10.1713Y-12.9134
X10.1713Y-12.9528
X10.1713Y-13.0315
X10.1713Y-13.0709
X10.1713Y-13.1496
X10.1713Y-13.189
X10.1713Y-13.2677
X10.1713Y-13.3071
X10.1713Y-13.3858
X10.1713Y-13.4252
X10.1717Y-0.4327
X10.1717Y-6.3972
X10.1717Y-12.3618
X10.172Y-4.3303
X10.172Y-4.3697
X10.172Y-4.4484
X10.172Y-4.4878
X10.172Y-4.5665
X10.172Y-4.6059
X10.172Y-4.6846
X10.172Y-4.724
X10.172Y-4.8028
X10.172Y-4.8421
X10.172Y-4.9209
X10.172Y-4.9602
X10.172Y-5.039
X10.172Y-5.0783
X10.172Y-5.1571
X10.172Y-5.1965
X10.172Y-5.2752
X10.172Y-5.3146
X10.172Y-5.3933
X10.172Y-5.4327
X10.172Y-5.5114
X10.172Y-5.5508
X10.172Y-10.2949
X10.172Y-10.3343
X10.172Y-10.413
X10.172Y-10.4524
X10.172Y-10.5311
X10.172Y-10.5705
X10.172Y-10.6492
X10.172Y-10.6886
X10.172Y-10.7673
X10.172Y-10.8067
X10.172Y-10.8854
X10.172Y-10.9248
X10.172Y-11.0035
X10.172Y-11.0429
X10.172Y-11.1217
X10.172Y-11.161
X10.172Y-11.2398
X10.172Y-11.2791
X10.172Y-11.3579
X10.172Y-11.3972
X10.172Y-11.476
X10.172Y-11.5154
X10.172Y-16.2594
X10.172Y-16.2988
X10.172Y-16.3776
X10.172Y-16.4169
X10.172Y-16.4957
X10.172Y-16.535
X10.172Y-16.6138
X10.172Y-16.6531
X10.172Y-16.7319
X10.172Y-16.7713
X10.172Y-16.85
X10.172Y-16.8894
X10.172Y-16.9681
X10.172Y-17.0075
X10.172Y-17.0862
X10.172Y-17.1256
X10.172Y-17.2043
X10.172Y-17.2437
X10.172Y-17.3224
X10.172Y-17.3618
X10.172Y-17.4406
X10.172Y-17.4799
X10.1736Y-0.3933
X10.1736Y-6.3579
X10.1736Y-12.3224
X10.1752Y-1.5748
X10.1752Y-7.5394
X10.1752Y-13.5039
X11.3799Y-1.5748
X11.3799Y-7.5394
X11.3799Y-13.5039
X11.3815Y-0.3933
X11.3815Y-6.3579
X11.3815Y-12.3224
X11.3835Y-0.4327
X11.3835Y-4.3303
X11.3835Y-4.3697
X11.3835Y-4.4484
X11.3835Y-4.4878
X11.3835Y-4.5665
X11.3835Y-4.6059
X11.3835Y-4.6846
X11.3835Y-4.724
X11.3835Y-4.8028
X11.3835Y-4.8421
X11.3835Y-4.9209
X11.3835Y-4.9602
X11.3835Y-5.039
X11.3835Y-5.0783
X11.3835Y-5.1571
X11.3835Y-5.1965
X11.3835Y-5.2752
X11.3835Y-5.3146
X11.3835Y-5.3933
X11.3835Y-5.4327
X11.3835Y-5.5114
X11.3835Y-5.5508
X11.3835Y-6.3972
X11.3835Y-10.2949
X11.3835Y-10.3343
X11.3835Y-10.413
X11.3835Y-10.4524
X11.3835Y-10.5311
X11.3835Y-10.5705
X11.3835Y-10.6492
X11.3835Y-10.6886
X11.3835Y-10.7673
X11.3835Y-10.8067
X11.3835Y-10.8854
X11.3835Y-10.9248
X11.3835Y-11.0035
X11.3835Y-11.0429
X11.3835Y-11.1217
X11.3835Y-11.161
X11.3835Y-11.2398
X11.3835Y-11.2791
X11.3835Y-11.3579
X11.3835Y-11.3972
X11.3835Y-11.476
X11.3835Y-11.5154
X11.3835Y-12.3618
X11.3835Y-16.2594
X11.3835Y-16.2988
X11.3835Y-16.3776
X11.3835Y-16.4169
X11.3835Y-16.4957
X11.3835Y-16.535
X11.3835Y-16.6138
X11.3835Y-16.6531
X11.3835Y-16.7319
X11.3835Y-16.7713
X11.3835Y-16.85
X11.3835Y-16.8894
X11.3835Y-16.9681
X11.3835Y-17.0075
X11.3835Y-17.0862
X11.3835Y-17.1256
X11.3835Y-17.2043
X11.3835Y-17.2437
X11.3835Y-17.3224
X11.3835Y-17.3618
X11.3835Y-17.4406
X11.3835Y-17.4799
X11.3839Y-0.5118
X11.3839Y-0.5512
X11.3839Y-0.6299
X11.3839Y-0.6693
X11.3839Y-0.748
X11.3839Y-0.7874
X11.3839Y-0.8661
X11.3839Y-0.9055
X11.3839Y-0.9843
X11.3839Y-1.0236
X11.3839Y-1.1024
X11.3839Y-1.1417
X11.3839Y-1.2205
X11.3839Y-1.2598
X11.3839Y-1.3386
X11.3839Y-1.378
X11.3839Y-1.4567
X11.3839Y-1.4961
X11.3839Y-6.4764
X11.3839Y-6.5157
X11.3839Y-6.5945
X11.3839Y-6.6339
X11.3839Y-6.7126
X11.3839Y-6.752
X11.3839Y-6.8307
X11.3839Y-6.8701
X11.3839Y-6.9488
X11.3839Y-6.9882
X11.3839Y-7.0669
X11.3839Y-7.1063
X11.3839Y-7.185
X11.3839Y-7.2244
X11.3839Y-7.3031
X11.3839Y-7.3425
X11.3839Y-7.4213
X11.3839Y-7.4606
X11.3839Y-12.4409
X11.3839Y-12.4803
X11.3839Y-12.5591
X11.3839Y-12.5984
X11.3839Y-12.6772
X11.3839Y-12.7165
X11.3839Y-12.7953
X11.3839Y-12.8346
X11.3839Y-12.9134
X11.3839Y-12.9528
X11.3839Y-13.0315
X11.3839Y-13.0709
X11.3839Y-13.1496
X11.3839Y-13.189
X11.3839Y-13.2677
X11.3839Y-13.3071
X11.3839Y-13.3858
X11.3839Y-13.4252
X11.3902Y-2.3425
X11.3902Y-2.4213
X11.3902Y-2.4606
X11.3902Y-2.5394
X11.3902Y-2.5787
X11.3902Y-2.6575
X11.3902Y-2.6969
X11.3902Y-2.7756
X11.3902Y-2.815
X11.3902Y-2.8937
X11.3902Y-2.9331
X11.3902Y-3.0118
X11.3902Y-3.0512
X11.3902Y-3.1299
X11.3902Y-3.1693
X11.3902Y-3.248
X11.3902Y-3.2874
X11.3902Y-3.3661
X11.3902Y-3.4055
X11.3902Y-3.4843
X11.3902Y-3.5236
X11.3902Y-8.3071
X11.3902Y-8.3858
X11.3902Y-8.4252
X11.3902Y-8.5039
X11.3902Y-8.5433
X11.3902Y-8.622
X11.3902Y-8.6614
X11.3902Y-8.7402
X11.3902Y-8.7795
X11.3902Y-8.8583
X11.3902Y-8.8976
X11.3902Y-8.9764
X11.3902Y-9.0157
X11.3902Y-9.0945
X11.3902Y-9.1339
X11.3902Y-9.2126
X11.3902Y-9.252
X11.3902Y-9.3307
X11.3902Y-9.3701
X11.3902Y-9.4488
X11.3902Y-9.4882
X11.3902Y-14.2717
X11.3902Y-14.3504
X11.3902Y-14.3898
X11.3902Y-14.4685
X11.3902Y-14.5079
X11.3902Y-14.5866
X11.3902Y-14.626
X11.3902Y-14.7047
X11.3902Y-14.7441
X11.3902Y-14.8228
X11.3902Y-14.8622
X11.3902Y-14.9409
X11.3902Y-14.9803
X11.3902Y-15.0591
X11.3902Y-15.0984
X11.3902Y-15.1772
X11.3902Y-15.2165
X11.3902Y-15.2953
X11.3902Y-15.3346
X11.3902Y-15.4134
X11.3902Y-15.4528
X11.626Y-0.5886
X11.626Y-0.6201
X11.626Y-0.6831
X11.626Y-0.7146
X11.626Y-0.7776
X11.626Y-0.8091
X11.626Y-0.9035
X11.626Y-0.935
X11.626Y-0.998
X11.626Y-1.0295
X11.626Y-1.0925
X11.626Y-1.1555
X11.626Y-1.2185
X11.626Y-1.25
X11.626Y-1.313
X11.626Y-1.3445
X11.626Y-1.439
X11.626Y-1.4705
X11.626Y-1.5335
X11.626Y-1.565
X11.626Y-1.628
X11.626Y-1.6594
X11.626Y-4.2008
X11.626Y-4.2638
X11.626Y-4.2953
X11.626Y-4.3583
X11.626Y-4.3898
X11.626Y-4.4843
X11.626Y-4.5157
X11.626Y-4.5787
X11.626Y-4.6102
X11.626Y-4.6732
X11.626Y-4.7047
X11.626Y-4.7992
X11.626Y-4.8307
X11.626Y-4.8937
X11.626Y-4.9252
X11.626Y-4.9882
X11.626Y-5.0512
X11.626Y-5.1142
X11.626Y-5.1457
X11.626Y-5.2087
X11.626Y-5.2402
X11.626Y-6.5531
X11.626Y-6.5846
X11.626Y-6.6476
X11.626Y-6.6791
X11.626Y-6.7421
X11.626Y-6.7736
X11.626Y-6.8681
X11.626Y-6.8996
X11.626Y-6.9626
X11.626Y-6.9941
X11.626Y-7.0571
X11.626Y-7.1201
X11.626Y-7.1831
X11.626Y-7.2146
X11.626Y-7.2776
X11.626Y-7.3091
X11.626Y-7.4035
X11.626Y-7.435
X11.626Y-7.498
X11.626Y-7.5295
X11.626Y-7.5925
X11.626Y-7.624
X11.626Y-10.1654
X11.626Y-10.2283
X11.626Y-10.2598
X11.626Y-10.3228
X11.626Y-10.3543
X11.626Y-10.4488
X11.626Y-10.4803
X11.626Y-10.5433
X11.626Y-10.5748
X11.626Y-10.6378
X11.626Y-10.6693
X11.626Y-10.7638
X11.626Y-10.7953
X11.626Y-10.8583
X11.626Y-10.8898
X11.626Y-10.9528
X11.626Y-11.0157
X11.626Y-11.0787
X11.626Y-11.1102
X11.626Y-11.1732
X11.626Y-11.2047
X11.626Y-12.5177
X11.626Y-12.5492
X11.626Y-12.6122
X11.626Y-12.6437
X11.626Y-12.7067
X11.626Y-12.7382
X11.626Y-12.8327
X11.626Y-12.8642
X11.626Y-12.9272
X11.626Y-12.9587
X11.626Y-13.0217
X11.626Y-13.0846
X11.626Y-13.1476
X11.626Y-13.1791
X11.626Y-13.2421
X11.626Y-13.2736
X11.626Y-13.3681
X11.626Y-13.3996
X11.626Y-13.4626
X11.626Y-13.4941
X11.626Y-13.5571
X11.626Y-13.5886
X11.626Y-16.1299
X11.626Y-16.1929
X11.626Y-16.2244
X11.626Y-16.2874
X11.626Y-16.3189
X11.626Y-16.4134
X11.626Y-16.4449
X11.626Y-16.5079
X11.626Y-16.5394
X11.626Y-16.6024
X11.626Y-16.6339
X11.626Y-16.7283
X11.626Y-16.7598
X11.626Y-16.8228
X11.626Y-16.8543
X11.626Y-16.9173
X11.626Y-16.9803
X11.626Y-17.0433
X11.626Y-17.0748
X11.626Y-17.1378
X11.626Y-17.1693
X11.6264Y-1.8799
X11.6264Y-1.9114
X11.6264Y-1.9744
X11.6264Y-2.0059
X11.6264Y-2.0689
X11.6264Y-2.1319
X11.6264Y-2.1949
X11.6264Y-2.2264
X11.6264Y-2.2894
X11.6264Y-2.3209
X11.6264Y-2.4154
X11.6264Y-3.5394
X11.6264Y-3.6024
X11.6264Y-3.6339
X11.6264Y-3.6969
X11.6264Y-3.7283
X11.6264Y-3.8228
X11.6264Y-3.8543
X11.6264Y-3.9173
X11.6264Y-3.9488
X11.6264Y-4.0118
X11.6264Y-7.8445
X11.6264Y-7.876
X11.6264Y-7.939
X11.6264Y-7.9705
X11.6264Y-8.0335
X11.6264Y-8.0965
X11.6264Y-8.1594
X11.6264Y-8.1909
X11.6264Y-8.2539
X11.6264Y-8.2854
X11.6264Y-8.3799
X11.6264Y-9.5039
X11.6264Y-9.5669
X11.6264Y-9.5984
X11.6264Y-9.6614
X11.6264Y-9.6929
X11.6264Y-9.7874
X11.6264Y-9.8189
X11.6264Y-9.8819
X11.6264Y-9.9134
X11.6264Y-9.9764
X11.6264Y-13.8091
X11.6264Y-13.8406
X11.6264Y-13.9035
X11.6264Y-13.935
X11.6264Y-13.998
X11.6264Y-14.061
X11.6264Y-14.124
X11.6264Y-14.1555
X11.6264Y-14.2185
X11.6264Y-14.25
X11.6264Y-14.3445
X11.6264Y-15.4685
X11.6264Y-15.5315
X11.6264Y-15.563
X11.6264Y-15.626
X11.6264Y-15.6575
X11.6264Y-15.752
X11.6264Y-15.7835
X11.6264Y-15.8465
X11.6264Y-15.878
X11.6264Y-15.9409
X11.9164Y-1.8799
X11.9164Y-1.9114
X11.9164Y-1.9744
X11.9164Y-2.0059
X11.9164Y-2.0689
X11.9164Y-2.1319
X11.9164Y-2.1949
X11.9164Y-2.2263
X11.9164Y-2.2893
X11.9164Y-2.3208
X11.9164Y-2.4153
X11.9164Y-7.8445
X11.9164Y-7.876
X11.9164Y-7.9389
X11.9164Y-7.9704
X11.9164Y-8.0334
X11.9164Y-8.0964
X11.9164Y-8.1594
X11.9164Y-8.1909
X11.9164Y-8.2539
X11.9164Y-8.2854
X11.9164Y-8.3799
X11.9164Y-13.809
X11.9164Y-13.8405
X11.9164Y-13.9035
X11.9164Y-13.935
X11.9164Y-13.998
X11.9164Y-14.061
X11.9164Y-14.124
X11.9164Y-14.1555
X11.9164Y-14.2185
X11.9164Y-14.25
X11.9164Y-14.3445
X11.9173Y-0.5886
X11.9173Y-0.6201
X11.9173Y-0.6831
X11.9173Y-0.7146
X11.9173Y-0.7776
X11.9173Y-0.8091
X11.9173Y-0.9035
X11.9173Y-0.935
X11.9173Y-0.998
X11.9173Y-1.0295
X11.9173Y-1.0925
X11.9173Y-1.1555
X11.9173Y-1.2185
X11.9173Y-1.25
X11.9173Y-1.313
X11.9173Y-1.3445
X11.9173Y-1.439
X11.9173Y-1.4705
X11.9173Y-1.5335
X11.9173Y-1.565
X11.9173Y-1.628
X11.9173Y-1.6594
X11.9173Y-3.5394
X11.9173Y-3.6024
X11.9173Y-3.6339
X11.9173Y-3.6969
X11.9173Y-3.7283
X11.9173Y-3.8228
X11.9173Y-3.8543
X11.9173Y-3.9173
X11.9173Y-3.9488
X11.9173Y-4.0118
X11.9173Y-6.5531
X11.9173Y-6.5846
X11.9173Y-6.6476
X11.9173Y-6.6791
X11.9173Y-6.7421
X11.9173Y-6.7736
X11.9173Y-6.8681
X11.9173Y-6.8996
X11.9173Y-6.9626
X11.9173Y-6.9941
X11.9173Y-7.0571
X11.9173Y-7.1201
X11.9173Y-7.1831
X11.9173Y-7.2146
X11.9173Y-7.2776
X11.9173Y-7.3091
X11.9173Y-7.4035
X11.9173Y-7.435
X11.9173Y-7.498
X11.9173Y-7.5295
X11.9173Y-7.5925
X11.9173Y-7.624
X11.9173Y-9.5039
X11.9173Y-9.5669
X11.9173Y-9.5984
X11.9173Y-9.6614
X11.9173Y-9.6929
X11.9173Y-9.7874
X11.9173Y-9.8189
X11.9173Y-9.8819
X11.9173Y-9.9134
X11.9173Y-9.9764
X11.9173Y-12.5177
X11.9173Y-12.5492
X11.9173Y-12.6122
X11.9173Y-12.6437
X11.9173Y-12.7067
X11.9173Y-12.7382
X11.9173Y-12.8327
X11.9173Y-12.8642
X11.9173Y-12.9272
X11.9173Y-12.9587
X11.9173Y-13.0217
X11.9173Y-13.0846
X11.9173Y-13.1476
X11.9173Y-13.1791
X11.9173Y-13.2421
X11.9173Y-13.2736
X11.9173Y-13.3681
X11.9173Y-13.3996
X11.9173Y-13.4626
X11.9173Y-13.4941
X11.9173Y-13.5571
X11.9173Y-13.5886
X11.9173Y-15.4685
X11.9173Y-15.5315
X11.9173Y-15.563
X11.9173Y-15.626
X11.9173Y-15.6575
X11.9173Y-15.752
X11.9173Y-15.7835
X11.9173Y-15.8465
X11.9173Y-15.878
X11.9173Y-15.9409
X11.9177Y-4.2008
X11.9177Y-4.2638
X11.9177Y-4.2953
X11.9177Y-4.3583
X11.9177Y-4.3898
X11.9177Y-4.4843
X11.9177Y-4.5157
X11.9177Y-4.5787
X11.9177Y-4.6102
X11.9177Y-4.6732
X11.9177Y-4.7047
X11.9177Y-4.7992
X11.9177Y-4.8307
X11.9177Y-4.8937
X11.9177Y-4.9252
X11.9177Y-4.9882
X11.9177Y-5.0512
X11.9177Y-5.1142
X11.9177Y-5.1457
X11.9177Y-5.2087
X11.9177Y-5.2402
X11.9177Y-10.1654
X11.9177Y-10.2283
X11.9177Y-10.2598
X11.9177Y-10.3228
X11.9177Y-10.3543
X11.9177Y-10.4488
X11.9177Y-10.4803
X11.9177Y-10.5433
X11.9177Y-10.5748
X11.9177Y-10.6378
X11.9177Y-10.6693
X11.9177Y-10.7638
X11.9177Y-10.7953
X11.9177Y-10.8583
X11.9177Y-10.8898
X11.9177Y-10.9528
X11.9177Y-11.0157
X11.9177Y-11.0787
X11.9177Y-11.1102
X11.9177Y-11.1732
X11.9177Y-11.2047
X11.9177Y-16.1299
X11.9177Y-16.1929
X11.9177Y-16.2244
X11.9177Y-16.2874
X11.9177Y-16.3189
X11.9177Y-16.4134
X11.9177Y-16.4449
X11.9177Y-16.5079
X11.9177Y-16.5394
X11.9177Y-16.6024
X11.9177Y-16.6339
X11.9177Y-16.7283
X11.9177Y-16.7598
X11.9177Y-16.8228
X11.9177Y-16.8543
X11.9177Y-16.9173
X11.9177Y-16.9803
X11.9177Y-17.0433
X11.9177Y-17.0748
X11.9177Y-17.1378
X11.9177Y-17.1693
X12.1526Y-2.3425
X12.1526Y-2.4212
X12.1526Y-2.4606
X12.1526Y-2.5393
X12.1526Y-2.5787
X12.1526Y-2.6574
X12.1526Y-2.6968
X12.1526Y-2.7756
X12.1526Y-2.8149
X12.1526Y-2.8937
X12.1526Y-2.933
X12.1526Y-8.3071
X12.1526Y-8.3858
X12.1526Y-8.4252
X12.1526Y-8.5039
X12.1526Y-8.5433
X12.1526Y-8.622
X12.1526Y-8.6614
X12.1526Y-8.7401
X12.1526Y-8.7795
X12.1526Y-8.8582
X12.1526Y-8.8976
X12.1526Y-14.2716
X12.1526Y-14.3504
X12.1526Y-14.3897
X12.1526Y-14.4685
X12.1526Y-14.5078
X12.1526Y-14.5866
X12.1526Y-14.626
X12.1526Y-14.7047
X12.1526Y-14.7441
X12.1526Y-14.8228
X12.1526Y-14.8622
X12.1535Y-3.0118
X12.1535Y-3.0512
X12.1535Y-3.1299
X12.1535Y-3.1693
X12.1535Y-3.248
X12.1535Y-3.2874
X12.1535Y-3.3661
X12.1535Y-3.4055
X12.1535Y-3.4843
X12.1535Y-3.5236
X12.1535Y-8.9764
X12.1535Y-9.0157
X12.1535Y-9.0945
X12.1535Y-9.1339
X12.1535Y-9.2126
X12.1535Y-9.252
X12.1535Y-9.3307
X12.1535Y-9.3701
X12.1535Y-9.4488
X12.1535Y-9.4882
X12.1535Y-14.9409
X12.1535Y-14.9803
X12.1535Y-15.0591
X12.1535Y-15.0984
X12.1535Y-15.1772
X12.1535Y-15.2165
X12.1535Y-15.2953
X12.1535Y-15.3346
X12.1535Y-15.4134
X12.1535Y-15.4528
X12.1594Y-0.5118
X12.1594Y-0.5512
X12.1594Y-0.6299
X12.1594Y-0.6693
X12.1594Y-0.748
X12.1594Y-0.7874
X12.1594Y-0.8661
X12.1594Y-0.9055
X12.1594Y-0.9843
X12.1594Y-1.0236
X12.1594Y-1.1024
X12.1594Y-1.1417
X12.1594Y-1.2205
X12.1594Y-1.2598
X12.1594Y-1.3386
X12.1594Y-1.378
X12.1594Y-1.4567
X12.1594Y-1.4961
X12.1594Y-6.4764
X12.1594Y-6.5157
X12.1594Y-6.5945
X12.1594Y-6.6339
X12.1594Y-6.7126
X12.1594Y-6.752
X12.1594Y-6.8307
X12.1594Y-6.8701
X12.1594Y-6.9488
X12.1594Y-6.9882
X12.1594Y-7.0669
X12.1594Y-7.1063
X12.1594Y-7.185
X12.1594Y-7.2244
X12.1594Y-7.3031
X12.1594Y-7.3425
X12.1594Y-7.4213
X12.1594Y-7.4606
X12.1594Y-12.4409
X12.1594Y-12.4803
X12.1594Y-12.5591
X12.1594Y-12.5984
X12.1594Y-12.6772
X12.1594Y-12.7165
X12.1594Y-12.7953
X12.1594Y-12.8346
X12.1594Y-12.9134
X12.1594Y-12.9528
X12.1594Y-13.0315
X12.1594Y-13.0709
X12.1594Y-13.1496
X12.1594Y-13.189
X12.1594Y-13.2677
X12.1594Y-13.3071
X12.1594Y-13.3858
X12.1594Y-13.4252
X12.1598Y-0.4327
X12.1598Y-6.3972
X12.1598Y-12.3618
X12.1602Y-4.3303
X12.1602Y-4.3697
X12.1602Y-4.4484
X12.1602Y-4.4878
X12.1602Y-4.5665
X12.1602Y-4.6059
X12.1602Y-4.6846
X12.1602Y-4.724
X12.1602Y-4.8028
X12.1602Y-4.8421
X12.1602Y-4.9209
X12.1602Y-4.9602
X12.1602Y-5.039
X12.1602Y-5.0783
X12.1602Y-5.1571
X12.1602Y-5.1965
X12.1602Y-5.2752
X12.1602Y-5.3146
X12.1602Y-5.3933
X12.1602Y-5.4327
X12.1602Y-5.5114
X12.1602Y-5.5508
X12.1602Y-10.2949
X12.1602Y-10.3343
X12.1602Y-10.413
X12.1602Y-10.4524
X12.1602Y-10.5311
X12.1602Y-10.5705
X12.1602Y-10.6492
X12.1602Y-10.6886
X12.1602Y-10.7673
X12.1602Y-10.8067
X12.1602Y-10.8854
X12.1602Y-10.9248
X12.1602Y-11.0035
X12.1602Y-11.0429
X12.1602Y-11.1217
X12.1602Y-11.161
X12.1602Y-11.2398
X12.1602Y-11.2791
X12.1602Y-11.3579
X12.1602Y-11.3972
X12.1602Y-11.476
X12.1602Y-11.5154
X12.1602Y-16.2594
X12.1602Y-16.2988
X12.1602Y-16.3776
X12.1602Y-16.4169
X12.1602Y-16.4957
X12.1602Y-16.535
X12.1602Y-16.6138
X12.1602Y-16.6531
X12.1602Y-16.7319
X12.1602Y-16.7713
X12.1602Y-16.85
X12.1602Y-16.8894
X12.1602Y-16.9681
X12.1602Y-17.0075
X12.1602Y-17.0862
X12.1602Y-17.1256
X12.1602Y-17.2043
X12.1602Y-17.2437
X12.1602Y-17.3224
X12.1602Y-17.3618
X12.1602Y-17.4406
X12.1602Y-17.4799
X12.1618Y-0.3933
X12.1618Y-6.3579
X12.1618Y-12.3224
X12.1634Y-1.5748
X12.1634Y-7.5394
X12.1634Y-13.5039
X13.3681Y-1.5748
X13.3681Y-7.5394
X13.3681Y-13.5039
X13.3697Y-0.3933
X13.3697Y-6.3579
X13.3697Y-12.3224
X13.3717Y-0.4327
X13.3717Y-4.3303
X13.3717Y-4.3697
X13.3717Y-4.4484
X13.3717Y-4.4878
X13.3717Y-4.5665
X13.3717Y-4.6059
X13.3717Y-4.6846
X13.3717Y-4.724
X13.3717Y-4.8028
X13.3717Y-4.8421
X13.3717Y-4.9209
X13.3717Y-4.9602
X13.3717Y-5.039
X13.3717Y-5.0783
X13.3717Y-5.1571
X13.3717Y-5.1965
X13.3717Y-5.2752
X13.3717Y-5.3146
X13.3717Y-5.3933
X13.3717Y-5.4327
X13.3717Y-5.5114
X13.3717Y-5.5508
X13.3717Y-6.3972
X13.3717Y-10.2949
X13.3717Y-10.3343
X13.3717Y-10.413
X13.3717Y-10.4524
X13.3717Y-10.5311
X13.3717Y-10.5705
X13.3717Y-10.6492
X13.3717Y-10.6886
X13.3717Y-10.7673
X13.3717Y-10.8067
X13.3717Y-10.8854
X13.3717Y-10.9248
X13.3717Y-11.0035
X13.3717Y-11.0429
X13.3717Y-11.1217
X13.3717Y-11.161
X13.3717Y-11.2398
X13.3717Y-11.2791
X13.3717Y-11.3579
X13.3717Y-11.3972
X13.3717Y-11.476
X13.3717Y-11.5154
X13.3717Y-12.3618
X13.3717Y-16.2594
X13.3717Y-16.2988
X13.3717Y-16.3776
X13.3717Y-16.4169
X13.3717Y-16.4957
X13.3717Y-16.535
X13.3717Y-16.6138
X13.3717Y-16.6531
X13.3717Y-16.7319
X13.3717Y-16.7713
X13.3717Y-16.85
X13.3717Y-16.8894
X13.3717Y-16.9681
X13.3717Y-17.0075
X13.3717Y-17.0862
X13.3717Y-17.1256
X13.3717Y-17.2043
X13.3717Y-17.2437
X13.3717Y-17.3224
X13.3717Y-17.3618
X13.3717Y-17.4406
X13.3717Y-17.4799
X13.372Y-0.5118
X13.372Y-0.5512
X13.372Y-0.6299
X13.372Y-0.6693
X13.372Y-0.748
X13.372Y-0.7874
X13.372Y-0.8661
X13.372Y-0.9055
X13.372Y-0.9843
X13.372Y-1.0236
X13.372Y-1.1024
X13.372Y-1.1417
X13.372Y-1.2205
X13.372Y-1.2598
X13.372Y-1.3386
X13.372Y-1.378
X13.372Y-1.4567
X13.372Y-1.4961
X13.372Y-6.4764
X13.372Y-6.5157
X13.372Y-6.5945
X13.372Y-6.6339
X13.372Y-6.7126
X13.372Y-6.752
X13.372Y-6.8307
X13.372Y-6.8701
X13.372Y-6.9488
X13.372Y-6.9882
X13.372Y-7.0669
X13.372Y-7.1063
X13.372Y-7.185
X13.372Y-7.2244
X13.372Y-7.3031
X13.372Y-7.3425
X13.372Y-7.4213
X13.372Y-7.4606
X13.372Y-12.4409
X13.372Y-12.4803
X13.372Y-12.5591
X13.372Y-12.5984
X13.372Y-12.6772
X13.372Y-12.7165
X13.372Y-12.7953
X13.372Y-12.8346
X13.372Y-12.9134
X13.372Y-12.9528
X13.372Y-13.0315
X13.372Y-13.0709
X13.372Y-13.1496
X13.372Y-13.189
X13.372Y-13.2677
X13.372Y-13.3071
X13.372Y-13.3858
X13.372Y-13.4252
X13.3783Y-2.3425
X13.3783Y-2.4213
X13.3783Y-2.4606
X13.3783Y-2.5394
X13.3783Y-2.5787
X13.3783Y-2.6575
X13.3783Y-2.6969
X13.3783Y-2.7756
X13.3783Y-2.815
X13.3783Y-2.8937
X13.3783Y-2.9331
X13.3783Y-3.0118
X13.3783Y-3.0512
X13.3783Y-3.1299
X13.3783Y-3.1693
X13.3783Y-3.248
X13.3783Y-3.2874
X13.3783Y-3.3661
X13.3783Y-3.4055
X13.3783Y-3.4843
X13.3783Y-3.5236
X13.3783Y-8.3071
X13.3783Y-8.3858
X13.3783Y-8.4252
X13.3783Y-8.5039
X13.3783Y-8.5433
X13.3783Y-8.622
X13.3783Y-8.6614
X13.3783Y-8.7402
X13.3783Y-8.7795
X13.3783Y-8.8583
X13.3783Y-8.8976
X13.3783Y-8.9764
X13.3783Y-9.0157
X13.3783Y-9.0945
X13.3783Y-9.1339
X13.3783Y-9.2126
X13.3783Y-9.252
X13.3783Y-9.3307
X13.3783Y-9.3701
X13.3783Y-9.4488
X13.3783Y-9.4882
X13.3783Y-14.2717
X13.3783Y-14.3504
X13.3783Y-14.3898
X13.3783Y-14.4685
X13.3783Y-14.5079
X13.3783Y-14.5866
X13.3783Y-14.626
X13.3783Y-14.7047
X13.3783Y-14.7441
X13.3783Y-14.8228
X13.3783Y-14.8622
X13.3783Y-14.9409
X13.3783Y-14.9803
X13.3783Y-15.0591
X13.3783Y-15.0984
X13.3783Y-15.1772
X13.3783Y-15.2165
X13.3783Y-15.2953
X13.3783Y-15.3346
X13.3783Y-15.4134
X13.3783Y-15.4528
X13.6142Y-0.5886
X13.6142Y-0.6201
X13.6142Y-0.6831
X13.6142Y-0.7146
X13.6142Y-0.7776
X13.6142Y-0.8091
X13.6142Y-0.9035
X13.6142Y-0.935
X13.6142Y-0.998
X13.6142Y-1.0295
X13.6142Y-1.0925
X13.6142Y-1.1555
X13.6142Y-1.2185
X13.6142Y-1.25
X13.6142Y-1.313
X13.6142Y-1.3445
X13.6142Y-1.439
X13.6142Y-1.4705
X13.6142Y-1.5335
X13.6142Y-1.565
X13.6142Y-1.628
X13.6142Y-1.6594
X13.6142Y-4.2008
X13.6142Y-4.2638
X13.6142Y-4.2953
X13.6142Y-4.3583
X13.6142Y-4.3898
X13.6142Y-4.4843
X13.6142Y-4.5157
X13.6142Y-4.5787
X13.6142Y-4.6102
X13.6142Y-4.6732
X13.6142Y-4.7047
X13.6142Y-4.7992
X13.6142Y-4.8307
X13.6142Y-4.8937
X13.6142Y-4.9252
X13.6142Y-4.9882
X13.6142Y-5.0512
X13.6142Y-5.1142
X13.6142Y-5.1457
X13.6142Y-5.2087
X13.6142Y-5.2402
X13.6142Y-6.5531
X13.6142Y-6.5846
X13.6142Y-6.6476
X13.6142Y-6.6791
X13.6142Y-6.7421
X13.6142Y-6.7736
X13.6142Y-6.8681
X13.6142Y-6.8996
X13.6142Y-6.9626
X13.6142Y-6.9941
X13.6142Y-7.0571
X13.6142Y-7.1201
X13.6142Y-7.1831
X13.6142Y-7.2146
X13.6142Y-7.2776
X13.6142Y-7.3091
X13.6142Y-7.4035
X13.6142Y-7.435
X13.6142Y-7.498
X13.6142Y-7.5295
X13.6142Y-7.5925
X13.6142Y-7.624
X13.6142Y-10.1654
X13.6142Y-10.2283
X13.6142Y-10.2598
X13.6142Y-10.3228
X13.6142Y-10.3543
X13.6142Y-10.4488
X13.6142Y-10.4803
X13.6142Y-10.5433
X13.6142Y-10.5748
X13.6142Y-10.6378
X13.6142Y-10.6693
X13.6142Y-10.7638
X13.6142Y-10.7953
X13.6142Y-10.8583
X13.6142Y-10.8898
X13.6142Y-10.9528
X13.6142Y-11.0157
X13.6142Y-11.0787
X13.6142Y-11.1102
X13.6142Y-11.1732
X13.6142Y-11.2047
X13.6142Y-12.5177
X13.6142Y-12.5492
X13.6142Y-12.6122
X13.6142Y-12.6437
X13.6142Y-12.7067
X13.6142Y-12.7382
X13.6142Y-12.8327
X13.6142Y-12.8642
X13.6142Y-12.9272
X13.6142Y-12.9587
X13.6142Y-13.0217
X13.6142Y-13.0846
X13.6142Y-13.1476
X13.6142Y-13.1791
X13.6142Y-13.2421
X13.6142Y-13.2736
X13.6142Y-13.3681
X13.6142Y-13.3996
X13.6142Y-13.4626
X13.6142Y-13.4941
X13.6142Y-13.5571
X13.6142Y-13.5886
X13.6142Y-16.1299
X13.6142Y-16.1929
X13.6142Y-16.2244
X13.6142Y-16.2874
X13.6142Y-16.3189
X13.6142Y-16.4134
X13.6142Y-16.4449
X13.6142Y-16.5079
X13.6142Y-16.5394
X13.6142Y-16.6024
X13.6142Y-16.6339
X13.6142Y-16.7283
X13.6142Y-16.7598
X13.6142Y-16.8228
X13.6142Y-16.8543
X13.6142Y-16.9173
X13.6142Y-16.9803
X13.6142Y-17.0433
X13.6142Y-17.0748
X13.6142Y-17.1378
X13.6142Y-17.1693
X13.6146Y-1.8799
X13.6146Y-1.9114
X13.6146Y-1.9744
X13.6146Y-2.0059
X13.6146Y-2.0689
X13.6146Y-2.1319
X13.6146Y-2.1949
X13.6146Y-2.2264
X13.6146Y-2.2894
X13.6146Y-2.3209
X13.6146Y-2.4154
X13.6146Y-3.5394
X13.6146Y-3.6024
X13.6146Y-3.6339
X13.6146Y-3.6969
X13.6146Y-3.7283
X13.6146Y-3.8228
X13.6146Y-3.8543
X13.6146Y-3.9173
X13.6146Y-3.9488
X13.6146Y-4.0118
X13.6146Y-7.8445
X13.6146Y-7.876
X13.6146Y-7.939
X13.6146Y-7.9705
X13.6146Y-8.0335
X13.6146Y-8.0965
X13.6146Y-8.1594
X13.6146Y-8.1909
X13.6146Y-8.2539
X13.6146Y-8.2854
X13.6146Y-8.3799
X13.6146Y-9.5039
X13.6146Y-9.5669
X13.6146Y-9.5984
X13.6146Y-9.6614
X13.6146Y-9.6929
X13.6146Y-9.7874
X13.6146Y-9.8189
X13.6146Y-9.8819
X13.6146Y-9.9134
X13.6146Y-9.9764
X13.6146Y-13.8091
X13.6146Y-13.8406
X13.6146Y-13.9035
X13.6146Y-13.935
X13.6146Y-13.998
X13.6146Y-14.061
X13.6146Y-14.124
X13.6146Y-14.1555
X13.6146Y-14.2185
X13.6146Y-14.25
X13.6146Y-14.3445
X13.6146Y-15.4685
X13.6146Y-15.5315
X13.6146Y-15.563
X13.6146Y-15.626
X13.6146Y-15.6575
X13.6146Y-15.752
X13.6146Y-15.7835
X13.6146Y-15.8465
X13.6146Y-15.878
X13.6146Y-15.9409
X13.9046Y-1.8799
X13.9046Y-1.9114
X13.9046Y-1.9744
X13.9046Y-2.0059
X13.9046Y-2.0689
X13.9046Y-2.1319
X13.9046Y-2.1949
X13.9046Y-2.2263
X13.9046Y-2.2893
X13.9046Y-2.3208
X13.9046Y-2.4153
X13.9046Y-7.8445
X13.9046Y-7.876
X13.9046Y-7.9389
X13.9046Y-7.9704
X13.9046Y-8.0334
X13.9046Y-8.0964
X13.9046Y-8.1594
X13.9046Y-8.1909
X13.9046Y-8.2539
X13.9046Y-8.2854
X13.9046Y-8.3799
X13.9046Y-13.809
X13.9046Y-13.8405
X13.9046Y-13.9035
X13.9046Y-13.935
X13.9046Y-13.998
X13.9046Y-14.061
X13.9046Y-14.124
X13.9046Y-14.1555
X13.9046Y-14.2185
X13.9046Y-14.25
X13.9046Y-14.3445
X13.9055Y-0.5886
X13.9055Y-0.6201
X13.9055Y-0.6831
X13.9055Y-0.7146
X13.9055Y-0.7776
X13.9055Y-0.8091
X13.9055Y-0.9035
X13.9055Y-0.935
X13.9055Y-0.998
X13.9055Y-1.0295
X13.9055Y-1.0925
X13.9055Y-1.1555
X13.9055Y-1.2185
X13.9055Y-1.25
X13.9055Y-1.313
X13.9055Y-1.3445
X13.9055Y-1.439
X13.9055Y-1.4705
X13.9055Y-1.5335
X13.9055Y-1.565
X13.9055Y-1.628
X13.9055Y-1.6594
X13.9055Y-3.5394
X13.9055Y-3.6024
X13.9055Y-3.6339
X13.9055Y-3.6969
X13.9055Y-3.7283
X13.9055Y-3.8228
X13.9055Y-3.8543
X13.9055Y-3.9173
X13.9055Y-3.9488
X13.9055Y-4.0118
X13.9055Y-6.5531
X13.9055Y-6.5846
X13.9055Y-6.6476
X13.9055Y-6.6791
X13.9055Y-6.7421
X13.9055Y-6.7736
X13.9055Y-6.8681
X13.9055Y-6.8996
X13.9055Y-6.9626
X13.9055Y-6.9941
X13.9055Y-7.0571
X13.9055Y-7.1201
X13.9055Y-7.1831
X13.9055Y-7.2146
X13.9055Y-7.2776
X13.9055Y-7.3091
X13.9055Y-7.4035
X13.9055Y-7.435
X13.9055Y-7.498
X13.9055Y-7.5295
X13.9055Y-7.5925
X13.9055Y-7.624
X13.9055Y-9.5039
X13.9055Y-9.5669
X13.9055Y-9.5984
X13.9055Y-9.6614
X13.9055Y-9.6929
X13.9055Y-9.7874
X13.9055Y-9.8189
X13.9055Y-9.8819
X13.9055Y-9.9134
X13.9055Y-9.9764
X13.9055Y-12.5177
X13.9055Y-12.5492
X13.9055Y-12.6122
X13.9055Y-12.6437
X13.9055Y-12.7067
X13.9055Y-12.7382
X13.9055Y-12.8327
X13.9055Y-12.8642
X13.9055Y-12.9272
X13.9055Y-12.9587
X13.9055Y-13.0217
X13.9055Y-13.0846
X13.9055Y-13.1476
X13.9055Y-13.1791
X13.9055Y-13.2421
X13.9055Y-13.2736
X13.9055Y-13.3681
X13.9055Y-13.3996
X13.9055Y-13.4626
X13.9055Y-13.4941
X13.9055Y-13.5571
X13.9055Y-13.5886
X13.9055Y-15.4685
X13.9055Y-15.5315
X13.9055Y-15.563
X13.9055Y-15.626
X13.9055Y-15.6575
X13.9055Y-15.752
X13.9055Y-15.7835
X13.9055Y-15.8465
X13.9055Y-15.878
X13.9055Y-15.9409
X13.9059Y-4.2008
X13.9059Y-4.2638
X13.9059Y-4.2953
X13.9059Y-4.3583
X13.9059Y-4.3898
X13.9059Y-4.4843
X13.9059Y-4.5157
X13.9059Y-4.5787
X13.9059Y-4.6102
X13.9059Y-4.6732
X13.9059Y-4.7047
X13.9059Y-4.7992
X13.9059Y-4.8307
X13.9059Y-4.8937
X13.9059Y-4.9252
X13.9059Y-4.9882
X13.9059Y-5.0512
X13.9059Y-5.1142
X13.9059Y-5.1457
X13.9059Y-5.2087
X13.9059Y-5.2402
X13.9059Y-10.1654
X13.9059Y-10.2283
X13.9059Y-10.2598
X13.9059Y-10.3228
X13.9059Y-10.3543
X13.9059Y-10.4488
X13.9059Y-10.4803
X13.9059Y-10.5433
X13.9059Y-10.5748
X13.9059Y-10.6378
X13.9059Y-10.6693
X13.9059Y-10.7638
X13.9059Y-10.7953
X13.9059Y-10.8583
X13.9059Y-10.8898
X13.9059Y-10.9528
X13.9059Y-11.0157
X13.9059Y-11.0787
X13.9059Y-11.1102
X13.9059Y-11.1732
X13.9059Y-11.2047
X13.9059Y-16.1299
X13.9059Y-16.1929
X13.9059Y-16.2244
X13.9059Y-16.2874
X13.9059Y-16.3189
X13.9059Y-16.4134
X13.9059Y-16.4449
X13.9059Y-16.5079
X13.9059Y-16.5394
X13.9059Y-16.6024
X13.9059Y-16.6339
X13.9059Y-16.7283
X13.9059Y-16.7598
X13.9059Y-16.8228
X13.9059Y-16.8543
X13.9059Y-16.9173
X13.9059Y-16.9803
X13.9059Y-17.0433
X13.9059Y-17.0748
X13.9059Y-17.1378
X13.9059Y-17.1693
X14.1408Y-2.3425
X14.1408Y-2.4212
X14.1408Y-2.4606
X14.1408Y-2.5393
X14.1408Y-2.5787
X14.1408Y-2.6574
X14.1408Y-2.6968
X14.1408Y-2.7756
X14.1408Y-2.8149
X14.1408Y-2.8937
X14.1408Y-2.933
X14.1408Y-8.3071
X14.1408Y-8.3858
X14.1408Y-8.4252
X14.1408Y-8.5039
X14.1408Y-8.5433
X14.1408Y-8.622
X14.1408Y-8.6614
X14.1408Y-8.7401
X14.1408Y-8.7795
X14.1408Y-8.8582
X14.1408Y-8.8976
X14.1408Y-14.2716
X14.1408Y-14.3504
X14.1408Y-14.3897
X14.1408Y-14.4685
X14.1408Y-14.5078
X14.1408Y-14.5866
X14.1408Y-14.626
X14.1408Y-14.7047
X14.1408Y-14.7441
X14.1408Y-14.8228
X14.1408Y-14.8622
X14.1417Y-3.0118
X14.1417Y-3.0512
X14.1417Y-3.1299
X14.1417Y-3.1693
X14.1417Y-3.248
X14.1417Y-3.2874
X14.1417Y-3.3661
X14.1417Y-3.4055
X14.1417Y-3.4843
X14.1417Y-3.5236
X14.1417Y-8.9764
X14.1417Y-9.0157
X14.1417Y-9.0945
X14.1417Y-9.1339
X14.1417Y-9.2126
X14.1417Y-9.252
X14.1417Y-9.3307
X14.1417Y-9.3701
X14.1417Y-9.4488
X14.1417Y-9.4882
X14.1417Y-14.9409
X14.1417Y-14.9803
X14.1417Y-15.0591
X14.1417Y-15.0984
X14.1417Y-15.1772
X14.1417Y-15.2165
X14.1417Y-15.2953
X14.1417Y-15.3346
X14.1417Y-15.4134
X14.1417Y-15.4528
X14.1476Y-0.5118
X14.1476Y-0.5512
X14.1476Y-0.6299
X14.1476Y-0.6693
X14.1476Y-0.748
X14.1476Y-0.7874
X14.1476Y-0.8661
X14.1476Y-0.9055
X14.1476Y-0.9843
X14.1476Y-1.0236
X14.1476Y-1.1024
X14.1476Y-1.1417
X14.1476Y-1.2205
X14.1476Y-1.2598
X14.1476Y-1.3386
X14.1476Y-1.378
X14.1476Y-1.4567
X14.1476Y-1.4961
X14.1476Y-6.4764
X14.1476Y-6.5157
X14.1476Y-6.5945
X14.1476Y-6.6339
X14.1476Y-6.7126
X14.1476Y-6.752
X14.1476Y-6.8307
X14.1476Y-6.8701
X14.1476Y-6.9488
X14.1476Y-6.9882
X14.1476Y-7.0669
X14.1476Y-7.1063
X14.1476Y-7.185
X14.1476Y-7.2244
X14.1476Y-7.3031
X14.1476Y-7.3425
X14.1476Y-7.4213
X14.1476Y-7.4606
X14.1476Y-12.4409
X14.1476Y-12.4803
X14.1476Y-12.5591
X14.1476Y-12.5984
X14.1476Y-12.6772
X14.1476Y-12.7165
X14.1476Y-12.7953
X14.1476Y-12.8346
X14.1476Y-12.9134
X14.1476Y-12.9528
X14.1476Y-13.0315
X14.1476Y-13.0709
X14.1476Y-13.1496
X14.1476Y-13.189
X14.1476Y-13.2677
X14.1476Y-13.3071
X14.1476Y-13.3858
X14.1476Y-13.4252
X14.148Y-0.4327
X14.148Y-6.3972
X14.148Y-12.3618
X14.1484Y-4.3303
X14.1484Y-4.3697
X14.1484Y-4.4484
X14.1484Y-4.4878
X14.1484Y-4.5665
X14.1484Y-4.6059
X14.1484Y-4.6846
X14.1484Y-4.724
X14.1484Y-4.8028
X14.1484Y-4.8421
X14.1484Y-4.9209
X14.1484Y-4.9602
X14.1484Y-5.039
X14.1484Y-5.0783
X14.1484Y-5.1571
X14.1484Y-5.1965
X14.1484Y-5.2752
X14.1484Y-5.3146
X14.1484Y-5.3933
X14.1484Y-5.4327
X14.1484Y-5.5114
X14.1484Y-5.5508
X14.1484Y-10.2949
X14.1484Y-10.3343
X14.1484Y-10.413
X14.1484Y-10.4524
X14.1484Y-10.5311
X14.1484Y-10.5705
X14.1484Y-10.6492
X14.1484Y-10.6886
X14.1484Y-10.7673
X14.1484Y-10.8067
X14.1484Y-10.8854
X14.1484Y-10.9248
X14.1484Y-11.0035
X14.1484Y-11.0429
X14.1484Y-11.1217
X14.1484Y-11.161
X14.1484Y-11.2398
X14.1484Y-11.2791
X14.1484Y-11.3579
X14.1484Y-11.3972
X14.1484Y-11.476
X14.1484Y-11.5154
X14.1484Y-16.2594
X14.1484Y-16.2988
X14.1484Y-16.3776
X14.1484Y-16.4169
X14.1484Y-16.4957
X14.1484Y-16.535
X14.1484Y-16.6138
X14.1484Y-16.6531
X14.1484Y-16.7319
X14.1484Y-16.7713
X14.1484Y-16.85
X14.1484Y-16.8894
X14.1484Y-16.9681
X14.1484Y-17.0075
X14.1484Y-17.0862
X14.1484Y-17.1256
X14.1484Y-17.2043
X14.1484Y-17.2437
X14.1484Y-17.3224
X14.1484Y-17.3618
X14.1484Y-17.4406
X14.1484Y-17.4799
X14.15Y-0.3933
X14.15Y-6.3579
X14.15Y-12.3224
X14.1516Y-1.5748
X14.1516Y-7.5394
X14.1516Y-13.5039
X15.3563Y-1.5748
X15.3563Y-7.5394
X15.3563Y-13.5039
X15.3579Y-0.3933
X15.3579Y-6.3579
X15.3579Y-12.3224
X15.3598Y-0.4327
X15.3598Y-4.3303
X15.3598Y-4.3697
X15.3598Y-4.4484
X15.3598Y-4.4878
X15.3598Y-4.5665
X15.3598Y-4.6059
X15.3598Y-4.6846
X15.3598Y-4.724
X15.3598Y-4.8028
X15.3598Y-4.8421
X15.3598Y-4.9209
X15.3598Y-4.9602
X15.3598Y-5.039
X15.3598Y-5.0783
X15.3598Y-5.1571
X15.3598Y-5.1965
X15.3598Y-5.2752
X15.3598Y-5.3146
X15.3598Y-5.3933
X15.3598Y-5.4327
X15.3598Y-5.5114
X15.3598Y-5.5508
X15.3598Y-6.3972
X15.3598Y-10.2949
X15.3598Y-10.3343
X15.3598Y-10.413
X15.3598Y-10.4524
X15.3598Y-10.5311
X15.3598Y-10.5705
X15.3598Y-10.6492
X15.3598Y-10.6886
X15.3598Y-10.7673
X15.3598Y-10.8067
X15.3598Y-10.8854
X15.3598Y-10.9248
X15.3598Y-11.0035
X15.3598Y-11.0429
X15.3598Y-11.1217
X15.3598Y-11.161
X15.3598Y-11.2398
X15.3598Y-11.2791
X15.3598Y-11.3579
X15.3598Y-11.3972
X15.3598Y-11.476
X15.3598Y-11.5154
X15.3598Y-12.3618
X15.3598Y-16.2594
X15.3598Y-16.2988
X15.3598Y-16.3776
X15.3598Y-16.4169
X15.3598Y-16.4957
X15.3598Y-16.535
X15.3598Y-16.6138
X15.3598Y-16.6531
X15.3598Y-16.7319
X15.3598Y-16.7713
X15.3598Y-16.85
X15.3598Y-16.8894
X15.3598Y-16.9681
X15.3598Y-17.0075
X15.3598Y-17.0862
X15.3598Y-17.1256
X15.3598Y-17.2043
X15.3598Y-17.2437
X15.3598Y-17.3224
X15.3598Y-17.3618
X15.3598Y-17.4406
X15.3598Y-17.4799
X15.3602Y-0.5118
X15.3602Y-0.5512
X15.3602Y-0.6299
X15.3602Y-0.6693
X15.3602Y-0.748
X15.3602Y-0.7874
X15.3602Y-0.8661
X15.3602Y-0.9055
X15.3602Y-0.9843
X15.3602Y-1.0236
X15.3602Y-1.1024
X15.3602Y-1.1417
X15.3602Y-1.2205
X15.3602Y-1.2598
X15.3602Y-1.3386
X15.3602Y-1.378
X15.3602Y-1.4567
X15.3602Y-1.4961
X15.3602Y-6.4764
X15.3602Y-6.5157
X15.3602Y-6.5945
X15.3602Y-6.6339
X15.3602Y-6.7126
X15.3602Y-6.752
X15.3602Y-6.8307
X15.3602Y-6.8701
X15.3602Y-6.9488
X15.3602Y-6.9882
X15.3602Y-7.0669
X15.3602Y-7.1063
X15.3602Y-7.185
X15.3602Y-7.2244
X15.3602Y-7.3031
X15.3602Y-7.3425
X15.3602Y-7.4213
X15.3602Y-7.4606
X15.3602Y-12.4409
X15.3602Y-12.4803
X15.3602Y-12.5591
X15.3602Y-12.5984
X15.3602Y-12.6772
X15.3602Y-12.7165
X15.3602Y-12.7953
X15.3602Y-12.8346
X15.3602Y-12.9134
X15.3602Y-12.9528
X15.3602Y-13.0315
X15.3602Y-13.0709
X15.3602Y-13.1496
X15.3602Y-13.189
X15.3602Y-13.2677
X15.3602Y-13.3071
X15.3602Y-13.3858
X15.3602Y-13.4252
X15.3665Y-2.3425
X15.3665Y-2.4213
X15.3665Y-2.4606
X15.3665Y-2.5394
X15.3665Y-2.5787
X15.3665Y-2.6575
X15.3665Y-2.6969
X15.3665Y-2.7756
X15.3665Y-2.815
X15.3665Y-2.8937
X15.3665Y-2.9331
X15.3665Y-3.0118
X15.3665Y-3.0512
X15.3665Y-3.1299
X15.3665Y-3.1693
X15.3665Y-3.248
X15.3665Y-3.2874
X15.3665Y-3.3661
X15.3665Y-3.4055
X15.3665Y-3.4843
X15.3665Y-3.5236
X15.3665Y-8.3071
X15.3665Y-8.3858
X15.3665Y-8.4252
X15.3665Y-8.5039
X15.3665Y-8.5433
X15.3665Y-8.622
X15.3665Y-8.6614
X15.3665Y-8.7402
X15.3665Y-8.7795
X15.3665Y-8.8583
X15.3665Y-8.8976
X15.3665Y-8.9764
X15.3665Y-9.0157
X15.3665Y-9.0945
X15.3665Y-9.1339
X15.3665Y-9.2126
X15.3665Y-9.252
X15.3665Y-9.3307
X15.3665Y-9.3701
X15.3665Y-9.4488
X15.3665Y-9.4882
X15.3665Y-14.2717
X15.3665Y-14.3504
X15.3665Y-14.3898
X15.3665Y-14.4685
X15.3665Y-14.5079
X15.3665Y-14.5866
X15.3665Y-14.626
X15.3665Y-14.7047
X15.3665Y-14.7441
X15.3665Y-14.8228
X15.3665Y-14.8622
X15.3665Y-14.9409
X15.3665Y-14.9803
X15.3665Y-15.0591
X15.3665Y-15.0984
X15.3665Y-15.1772
X15.3665Y-15.2165
X15.3665Y-15.2953
X15.3665Y-15.3346
X15.3665Y-15.4134
X15.3665Y-15.4528
X15.6024Y-0.5886
X15.6024Y-0.6201
X15.6024Y-0.6831
X15.6024Y-0.7146
X15.6024Y-0.7776
X15.6024Y-0.8091
X15.6024Y-0.9035
X15.6024Y-0.935
X15.6024Y-0.998
X15.6024Y-1.0295
X15.6024Y-1.0925
X15.6024Y-1.1555
X15.6024Y-1.2185
X15.6024Y-1.25
X15.6024Y-1.313
X15.6024Y-1.3445
X15.6024Y-1.439
X15.6024Y-1.4705
X15.6024Y-1.5335
X15.6024Y-1.565
X15.6024Y-1.628
X15.6024Y-1.6594
X15.6024Y-4.2008
X15.6024Y-4.2638
X15.6024Y-4.2953
X15.6024Y-4.3583
X15.6024Y-4.3898
X15.6024Y-4.4843
X15.6024Y-4.5157
X15.6024Y-4.5787
X15.6024Y-4.6102
X15.6024Y-4.6732
X15.6024Y-4.7047
X15.6024Y-4.7992
X15.6024Y-4.8307
X15.6024Y-4.8937
X15.6024Y-4.9252
X15.6024Y-4.9882
X15.6024Y-5.0512
X15.6024Y-5.1142
X15.6024Y-5.1457
X15.6024Y-5.2087
X15.6024Y-5.2402
X15.6024Y-6.5531
X15.6024Y-6.5846
X15.6024Y-6.6476
X15.6024Y-6.6791
X15.6024Y-6.7421
X15.6024Y-6.7736
X15.6024Y-6.8681
X15.6024Y-6.8996
X15.6024Y-6.9626
X15.6024Y-6.9941
X15.6024Y-7.0571
X15.6024Y-7.1201
X15.6024Y-7.1831
X15.6024Y-7.2146
X15.6024Y-7.2776
X15.6024Y-7.3091
X15.6024Y-7.4035
X15.6024Y-7.435
X15.6024Y-7.498
X15.6024Y-7.5295
X15.6024Y-7.5925
X15.6024Y-7.624
X15.6024Y-10.1654
X15.6024Y-10.2283
X15.6024Y-10.2598
X15.6024Y-10.3228
X15.6024Y-10.3543
X15.6024Y-10.4488
X15.6024Y-10.4803
X15.6024Y-10.5433
X15.6024Y-10.5748
X15.6024Y-10.6378
X15.6024Y-10.6693
X15.6024Y-10.7638
X15.6024Y-10.7953
X15.6024Y-10.8583
X15.6024Y-10.8898
X15.6024Y-10.9528
X15.6024Y-11.0157
X15.6024Y-11.0787
X15.6024Y-11.1102
X15.6024Y-11.1732
X15.6024Y-11.2047
X15.6024Y-12.5177
X15.6024Y-12.5492
X15.6024Y-12.6122
X15.6024Y-12.6437
X15.6024Y-12.7067
X15.6024Y-12.7382
X15.6024Y-12.8327
X15.6024Y-12.8642
X15.6024Y-12.9272
X15.6024Y-12.9587
X15.6024Y-13.0217
X15.6024Y-13.0846
X15.6024Y-13.1476
X15.6024Y-13.1791
X15.6024Y-13.2421
X15.6024Y-13.2736
X15.6024Y-13.3681
X15.6024Y-13.3996
X15.6024Y-13.4626
X15.6024Y-13.4941
X15.6024Y-13.5571
X15.6024Y-13.5886
X15.6024Y-16.1299
X15.6024Y-16.1929
X15.6024Y-16.2244
X15.6024Y-16.2874
X15.6024Y-16.3189
X15.6024Y-16.4134
X15.6024Y-16.4449
X15.6024Y-16.5079
X15.6024Y-16.5394
X15.6024Y-16.6024
X15.6024Y-16.6339
X15.6024Y-16.7283
X15.6024Y-16.7598
X15.6024Y-16.8228
X15.6024Y-16.8543
X15.6024Y-16.9173
X15.6024Y-16.9803
X15.6024Y-17.0433
X15.6024Y-17.0748
X15.6024Y-17.1378
X15.6024Y-17.1693
X15.6028Y-1.8799
X15.6028Y-1.9114
X15.6028Y-1.9744
X15.6028Y-2.0059
X15.6028Y-2.0689
X15.6028Y-2.1319
X15.6028Y-2.1949
X15.6028Y-2.2264
X15.6028Y-2.2894
X15.6028Y-2.3209
X15.6028Y-2.4154
X15.6028Y-3.5394
X15.6028Y-3.6024
X15.6028Y-3.6339
X15.6028Y-3.6969
X15.6028Y-3.7283
X15.6028Y-3.8228
X15.6028Y-3.8543
X15.6028Y-3.9173
X15.6028Y-3.9488
X15.6028Y-4.0118
X15.6028Y-7.8445
X15.6028Y-7.876
X15.6028Y-7.939
X15.6028Y-7.9705
X15.6028Y-8.0335
X15.6028Y-8.0965
X15.6028Y-8.1594
X15.6028Y-8.1909
X15.6028Y-8.2539
X15.6028Y-8.2854
X15.6028Y-8.3799
X15.6028Y-9.5039
X15.6028Y-9.5669
X15.6028Y-9.5984
X15.6028Y-9.6614
X15.6028Y-9.6929
X15.6028Y-9.7874
X15.6028Y-9.8189
X15.6028Y-9.8819
X15.6028Y-9.9134
X15.6028Y-9.9764
X15.6028Y-13.8091
X15.6028Y-13.8406
X15.6028Y-13.9035
X15.6028Y-13.935
X15.6028Y-13.998
X15.6028Y-14.061
X15.6028Y-14.124
X15.6028Y-14.1555
X15.6028Y-14.2185
X15.6028Y-14.25
X15.6028Y-14.3445
X15.6028Y-15.4685
X15.6028Y-15.5315
X15.6028Y-15.563
X15.6028Y-15.626
X15.6028Y-15.6575
X15.6028Y-15.752
X15.6028Y-15.7835
X15.6028Y-15.8465
X15.6028Y-15.878
X15.6028Y-15.9409
X15.8928Y-1.8799
X15.8928Y-1.9114
X15.8928Y-1.9744
X15.8928Y-2.0059
X15.8928Y-2.0689
X15.8928Y-2.1319
X15.8928Y-2.1949
X15.8928Y-2.2263
X15.8928Y-2.2893
X15.8928Y-2.3208
X15.8928Y-2.4153
X15.8928Y-7.8445
X15.8928Y-7.876
X15.8928Y-7.9389
X15.8928Y-7.9704
X15.8928Y-8.0334
X15.8928Y-8.0964
X15.8928Y-8.1594
X15.8928Y-8.1909
X15.8928Y-8.2539
X15.8928Y-8.2854
X15.8928Y-8.3799
X15.8928Y-13.809
X15.8928Y-13.8405
X15.8928Y-13.9035
X15.8928Y-13.935
X15.8928Y-13.998
X15.8928Y-14.061
X15.8928Y-14.124
X15.8928Y-14.1555
X15.8928Y-14.2185
X15.8928Y-14.25
X15.8928Y-14.3445
X15.8937Y-0.5886
X15.8937Y-0.6201
X15.8937Y-0.6831
X15.8937Y-0.7146
X15.8937Y-0.7776
X15.8937Y-0.8091
X15.8937Y-0.9035
X15.8937Y-0.935
X15.8937Y-0.998
X15.8937Y-1.0295
X15.8937Y-1.0925
X15.8937Y-1.1555
X15.8937Y-1.2185
X15.8937Y-1.25
X15.8937Y-1.313
X15.8937Y-1.3445
X15.8937Y-1.439
X15.8937Y-1.4705
X15.8937Y-1.5335
X15.8937Y-1.565
X15.8937Y-1.628
X15.8937Y-1.6594
X15.8937Y-3.5394
X15.8937Y-3.6024
X15.8937Y-3.6339
X15.8937Y-3.6969
X15.8937Y-3.7283
X15.8937Y-3.8228
X15.8937Y-3.8543
X15.8937Y-3.9173
X15.8937Y-3.9488
X15.8937Y-4.0118
X15.8937Y-6.5531
X15.8937Y-6.5846
X15.8937Y-6.6476
X15.8937Y-6.6791
X15.8937Y-6.7421
X15.8937Y-6.7736
X15.8937Y-6.8681
X15.8937Y-6.8996
X15.8937Y-6.9626
X15.8937Y-6.9941
X15.8937Y-7.0571
X15.8937Y-7.1201
X15.8937Y-7.1831
X15.8937Y-7.2146
X15.8937Y-7.2776
X15.8937Y-7.3091
X15.8937Y-7.4035
X15.8937Y-7.435
X15.8937Y-7.498
X15.8937Y-7.5295
X15.8937Y-7.5925
X15.8937Y-7.624
X15.8937Y-9.5039
X15.8937Y-9.5669
X15.8937Y-9.5984
X15.8937Y-9.6614
X15.8937Y-9.6929
X15.8937Y-9.7874
X15.8937Y-9.8189
X15.8937Y-9.8819
X15.8937Y-9.9134
X15.8937Y-9.9764
X15.8937Y-12.5177
X15.8937Y-12.5492
X15.8937Y-12.6122
X15.8937Y-12.6437
X15.8937Y-12.7067
X15.8937Y-12.7382
X15.8937Y-12.8327
X15.8937Y-12.8642
X15.8937Y-12.9272
X15.8937Y-12.9587
X15.8937Y-13.0217
X15.8937Y-13.0846
X15.8937Y-13.1476
X15.8937Y-13.1791
X15.8937Y-13.2421
X15.8937Y-13.2736
X15.8937Y-13.3681
X15.8937Y-13.3996
X15.8937Y-13.4626
X15.8937Y-13.4941
X15.8937Y-13.5571
X15.8937Y-13.5886
X15.8937Y-15.4685
X15.8937Y-15.5315
X15.8937Y-15.563
X15.8937Y-15.626
X15.8937Y-15.6575
X15.8937Y-15.752
X15.8937Y-15.7835
X15.8937Y-15.8465
X15.8937Y-15.878
X15.8937Y-15.9409
X15.8941Y-4.2008
X15.8941Y-4.2638
X15.8941Y-4.2953
X15.8941Y-4.3583
X15.8941Y-4.3898
X15.8941Y-4.4843
X15.8941Y-4.5157
X15.8941Y-4.5787
X15.8941Y-4.6102
X15.8941Y-4.6732
X15.8941Y-4.7047
X15.8941Y-4.7992
X15.8941Y-4.8307
X15.8941Y-4.8937
X15.8941Y-4.9252
X15.8941Y-4.9882
X15.8941Y-5.0512
X15.8941Y-5.1142
X15.8941Y-5.1457
X15.8941Y-5.2087
X15.8941Y-5.2402
X15.8941Y-10.1654
X15.8941Y-10.2283
X15.8941Y-10.2598
X15.8941Y-10.3228
X15.8941Y-10.3543
X15.8941Y-10.4488
X15.8941Y-10.4803
X15.8941Y-10.5433
X15.8941Y-10.5748
X15.8941Y-10.6378
X15.8941Y-10.6693
X15.8941Y-10.7638
X15.8941Y-10.7953
X15.8941Y-10.8583
X15.8941Y-10.8898
X15.8941Y-10.9528
X15.8941Y-11.0157
X15.8941Y-11.0787
X15.8941Y-11.1102
X15.8941Y-11.1732
X15.8941Y-11.2047
X15.8941Y-16.1299
X15.8941Y-16.1929
X15.8941Y-16.2244
X15.8941Y-16.2874
X15.8941Y-16.3189
X15.8941Y-16.4134
X15.8941Y-16.4449
X15.8941Y-16.5079
X15.8941Y-16.5394
X15.8941Y-16.6024
X15.8941Y-16.6339
X15.8941Y-16.7283
X15.8941Y-16.7598
X15.8941Y-16.8228
X15.8941Y-16.8543
X15.8941Y-16.9173
X15.8941Y-16.9803
X15.8941Y-17.0433
X15.8941Y-17.0748
X15.8941Y-17.1378
X15.8941Y-17.1693
X16.129Y-2.3425
X16.129Y-2.4212
X16.129Y-2.4606
X16.129Y-2.5393
X16.129Y-2.5787
X16.129Y-2.6574
X16.129Y-2.6968
X16.129Y-2.7756
X16.129Y-2.8149
X16.129Y-2.8937
X16.129Y-2.933
X16.129Y-8.3071
X16.129Y-8.3858
X16.129Y-8.4252
X16.129Y-8.5039
X16.129Y-8.5433
X16.129Y-8.622
X16.129Y-8.6614
X16.129Y-8.7401
X16.129Y-8.7795
X16.129Y-8.8582
X16.129Y-8.8976
X16.129Y-14.2716
X16.129Y-14.3504
X16.129Y-14.3897
X16.129Y-14.4685
X16.129Y-14.5078
X16.129Y-14.5866
X16.129Y-14.626
X16.129Y-14.7047
X16.129Y-14.7441
X16.129Y-14.8228
X16.129Y-14.8622
X16.1299Y-3.0118
X16.1299Y-3.0512
X16.1299Y-3.1299
X16.1299Y-3.1693
X16.1299Y-3.248
X16.1299Y-3.2874
X16.1299Y-3.3661
X16.1299Y-3.4055
X16.1299Y-3.4843
X16.1299Y-3.5236
X16.1299Y-8.9764
X16.1299Y-9.0157
X16.1299Y-9.0945
X16.1299Y-9.1339
X16.1299Y-9.2126
X16.1299Y-9.252
X16.1299Y-9.3307
X16.1299Y-9.3701
X16.1299Y-9.4488
X16.1299Y-9.4882
X16.1299Y-14.9409
X16.1299Y-14.9803
X16.1299Y-15.0591
X16.1299Y-15.0984
X16.1299Y-15.1772
X16.1299Y-15.2165
X16.1299Y-15.2953
X16.1299Y-15.3346
X16.1299Y-15.4134
X16.1299Y-15.4528
X16.1358Y-0.5118
X16.1358Y-0.5512
X16.1358Y-0.6299
X16.1358Y-0.6693
X16.1358Y-0.748
X16.1358Y-0.7874
X16.1358Y-0.8661
X16.1358Y-0.9055
X16.1358Y-0.9843
X16.1358Y-1.0236
X16.1358Y-1.1024
X16.1358Y-1.1417
X16.1358Y-1.2205
X16.1358Y-1.2598
X16.1358Y-1.3386
X16.1358Y-1.378
X16.1358Y-1.4567
X16.1358Y-1.4961
X16.1358Y-6.4764
X16.1358Y-6.5157
X16.1358Y-6.5945
X16.1358Y-6.6339
X16.1358Y-6.7126
X16.1358Y-6.752
X16.1358Y-6.8307
X16.1358Y-6.8701
X16.1358Y-6.9488
X16.1358Y-6.9882
X16.1358Y-7.0669
X16.1358Y-7.1063
X16.1358Y-7.185
X16.1358Y-7.2244
X16.1358Y-7.3031
X16.1358Y-7.3425
X16.1358Y-7.4213
X16.1358Y-7.4606
X16.1358Y-12.4409
X16.1358Y-12.4803
X16.1358Y-12.5591
X16.1358Y-12.5984
X16.1358Y-12.6772
X16.1358Y-12.7165
X16.1358Y-12.7953
X16.1358Y-12.8346
X16.1358Y-12.9134
X16.1358Y-12.9528
X16.1358Y-13.0315
X16.1358Y-13.0709
X16.1358Y-13.1496
X16.1358Y-13.189
X16.1358Y-13.2677
X16.1358Y-13.3071
X16.1358Y-13.3858
X16.1358Y-13.4252
X16.1362Y-0.4327
X16.1362Y-6.3972
X16.1362Y-12.3618
X16.1366Y-4.3303
X16.1366Y-4.3697
X16.1366Y-4.4484
X16.1366Y-4.4878
X16.1366Y-4.5665
X16.1366Y-4.6059
X16.1366Y-4.6846
X16.1366Y-4.724
X16.1366Y-4.8028
X16.1366Y-4.8421
X16.1366Y-4.9209
X16.1366Y-4.9602
X16.1366Y-5.039
X16.1366Y-5.0783
X16.1366Y-5.1571
X16.1366Y-5.1965
X16.1366Y-5.2752
X16.1366Y-5.3146
X16.1366Y-5.3933
X16.1366Y-5.4327
X16.1366Y-5.5114
X16.1366Y-5.5508
X16.1366Y-10.2949
X16.1366Y-10.3343
X16.1366Y-10.413
X16.1366Y-10.4524
X16.1366Y-10.5311
X16.1366Y-10.5705
X16.1366Y-10.6492
X16.1366Y-10.6886
X16.1366Y-10.7673
X16.1366Y-10.8067
X16.1366Y-10.8854
X16.1366Y-10.9248
X16.1366Y-11.0035
X16.1366Y-11.0429
X16.1366Y-11.1217
X16.1366Y-11.161
X16.1366Y-11.2398
X16.1366Y-11.2791
X16.1366Y-11.3579
X16.1366Y-11.3972
X16.1366Y-11.476
X16.1366Y-11.5154
X16.1366Y-16.2594
X16.1366Y-16.2988
X16.1366Y-16.3776
X16.1366Y-16.4169
X16.1366Y-16.4957
X16.1366Y-16.535
X16.1366Y-16.6138
X16.1366Y-16.6531
X16.1366Y-16.7319
X16.1366Y-16.7713
X16.1366Y-16.85
X16.1366Y-16.8894
X16.1366Y-16.9681
X16.1366Y-17.0075
X16.1366Y-17.0862
X16.1366Y-17.1256
X16.1366Y-17.2043
X16.1366Y-17.2437
X16.1366Y-17.3224
X16.1366Y-17.3618
X16.1366Y-17.4406
X16.1366Y-17.4799
X16.1382Y-0.3933
X16.1382Y-6.3579
X16.1382Y-12.3224
X16.1398Y-1.5748
X16.1398Y-7.5394
X16.1398Y-13.5039
X17.3445Y-1.5748
X17.3445Y-7.5394
X17.3445Y-13.5039
X17.3461Y-0.3933
X17.3461Y-6.3579
X17.3461Y-12.3224
X17.348Y-0.4327
X17.348Y-4.3303
X17.348Y-4.3697
X17.348Y-4.4484
X17.348Y-4.4878
X17.348Y-4.5665
X17.348Y-4.6059
X17.348Y-4.6846
X17.348Y-4.724
X17.348Y-4.8028
X17.348Y-4.8421
X17.348Y-4.9209
X17.348Y-4.9602
X17.348Y-5.039
X17.348Y-5.0783
X17.348Y-5.1571
X17.348Y-5.1965
X17.348Y-5.2752
X17.348Y-5.3146
X17.348Y-5.3933
X17.348Y-5.4327
X17.348Y-5.5114
X17.348Y-5.5508
X17.348Y-6.3972
X17.348Y-10.2949
X17.348Y-10.3343
X17.348Y-10.413
X17.348Y-10.4524
X17.348Y-10.5311
X17.348Y-10.5705
X17.348Y-10.6492
X17.348Y-10.6886
X17.348Y-10.7673
X17.348Y-10.8067
X17.348Y-10.8854
X17.348Y-10.9248
X17.348Y-11.0035
X17.348Y-11.0429
X17.348Y-11.1217
X17.348Y-11.161
X17.348Y-11.2398
X17.348Y-11.2791
X17.348Y-11.3579
X17.348Y-11.3972
X17.348Y-11.476
X17.348Y-11.5154
X17.348Y-12.3618
X17.348Y-16.2594
X17.348Y-16.2988
X17.348Y-16.3776
X17.348Y-16.4169
X17.348Y-16.4957
X17.348Y-16.535
X17.348Y-16.6138
X17.348Y-16.6531
X17.348Y-16.7319
X17.348Y-16.7713
X17.348Y-16.85
X17.348Y-16.8894
X17.348Y-16.9681
X17.348Y-17.0075
X17.348Y-17.0862
X17.348Y-17.1256
X17.348Y-17.2043
X17.348Y-17.2437
X17.348Y-17.3224
X17.348Y-17.3618
X17.348Y-17.4406
X17.348Y-17.4799
X17.3484Y-0.5118
X17.3484Y-0.5512
X17.3484Y-0.6299
X17.3484Y-0.6693
X17.3484Y-0.748
X17.3484Y-0.7874
X17.3484Y-0.8661
X17.3484Y-0.9055
X17.3484Y-0.9843
X17.3484Y-1.0236
X17.3484Y-1.1024
X17.3484Y-1.1417
X17.3484Y-1.2205
X17.3484Y-1.2598
X17.3484Y-1.3386
X17.3484Y-1.378
X17.3484Y-1.4567
X17.3484Y-1.4961
X17.3484Y-6.4764
X17.3484Y-6.5157
X17.3484Y-6.5945
X17.3484Y-6.6339
X17.3484Y-6.7126
X17.3484Y-6.752
X17.3484Y-6.8307
X17.3484Y-6.8701
X17.3484Y-6.9488
X17.3484Y-6.9882
X17.3484Y-7.0669
X17.3484Y-7.1063
X17.3484Y-7.185
X17.3484Y-7.2244
X17.3484Y-7.3031
X17.3484Y-7.3425
X17.3484Y-7.4213
X17.3484Y-7.4606
X17.3484Y-12.4409
X17.3484Y-12.4803
X17.3484Y-12.5591
X17.3484Y-12.5984
X17.3484Y-12.6772
X17.3484Y-12.7165
X17.3484Y-12.7953
X17.3484Y-12.8346
X17.3484Y-12.9134
X17.3484Y-12.9528
X17.3484Y-13.0315
X17.3484Y-13.0709
X17.3484Y-13.1496
X17.3484Y-13.189
X17.3484Y-13.2677
X17.3484Y-13.3071
X17.3484Y-13.3858
X17.3484Y-13.4252
X17.3547Y-2.3425
X17.3547Y-2.4213
X17.3547Y-2.4606
X17.3547Y-2.5394
X17.3547Y-2.5787
X17.3547Y-2.6575
X17.3547Y-2.6969
X17.3547Y-2.7756
X17.3547Y-2.815
X17.3547Y-2.8937
X17.3547Y-2.9331
X17.3547Y-3.0118
X17.3547Y-3.0512
X17.3547Y-3.1299
X17.3547Y-3.1693
X17.3547Y-3.248
X17.3547Y-3.2874
X17.3547Y-3.3661
X17.3547Y-3.4055
X17.3547Y-3.4843
X17.3547Y-3.5236
X17.3547Y-8.3071
X17.3547Y-8.3858
X17.3547Y-8.4252
X17.3547Y-8.5039
X17.3547Y-8.5433
X17.3547Y-8.622
X17.3547Y-8.6614
X17.3547Y-8.7402
X17.3547Y-8.7795
X17.3547Y-8.8583
X17.3547Y-8.8976
X17.3547Y-8.9764
X17.3547Y-9.0157
X17.3547Y-9.0945
X17.3547Y-9.1339
X17.3547Y-9.2126
X17.3547Y-9.252
X17.3547Y-9.3307
X17.3547Y-9.3701
X17.3547Y-9.4488
X17.3547Y-9.4882
X17.3547Y-14.2717
X17.3547Y-14.3504
X17.3547Y-14.3898
X17.3547Y-14.4685
X17.3547Y-14.5079
X17.3547Y-14.5866
X17.3547Y-14.626
X17.3547Y-14.7047
X17.3547Y-14.7441
X17.3547Y-14.8228
X17.3547Y-14.8622
X17.3547Y-14.9409
X17.3547Y-14.9803
X17.3547Y-15.0591
X17.3547Y-15.0984
X17.3547Y-15.1772
X17.3547Y-15.2165
X17.3547Y-15.2953
X17.3547Y-15.3346
X17.3547Y-15.4134
X17.3547Y-15.4528
X17.5906Y-0.5886
X17.5906Y-0.6201
X17.5906Y-0.6831
X17.5906Y-0.7146
X17.5906Y-0.7776
X17.5906Y-0.8091
X17.5906Y-0.9035
X17.5906Y-0.935
X17.5906Y-0.998
X17.5906Y-1.0295
X17.5906Y-1.0925
X17.5906Y-1.1555
X17.5906Y-1.2185
X17.5906Y-1.25
X17.5906Y-1.313
X17.5906Y-1.3445
X17.5906Y-1.439
X17.5906Y-1.4705
X17.5906Y-1.5335
X17.5906Y-1.565
X17.5906Y-1.628
X17.5906Y-1.6594
X17.5906Y-4.2008
X17.5906Y-4.2638
X17.5906Y-4.2953
X17.5906Y-4.3583
X17.5906Y-4.3898
X17.5906Y-4.4843
X17.5906Y-4.5157
X17.5906Y-4.5787
X17.5906Y-4.6102
X17.5906Y-4.6732
X17.5906Y-4.7047
X17.5906Y-4.7992
X17.5906Y-4.8307
X17.5906Y-4.8937
X17.5906Y-4.9252
X17.5906Y-4.9882
X17.5906Y-5.0512
X17.5906Y-5.1142
X17.5906Y-5.1457
X17.5906Y-5.2087
X17.5906Y-5.2402
X17.5906Y-6.5531
X17.5906Y-6.5846
X17.5906Y-6.6476
X17.5906Y-6.6791
X17.5906Y-6.7421
X17.5906Y-6.7736
X17.5906Y-6.8681
X17.5906Y-6.8996
X17.5906Y-6.9626
X17.5906Y-6.9941
X17.5906Y-7.0571
X17.5906Y-7.1201
X17.5906Y-7.1831
X17.5906Y-7.2146
X17.5906Y-7.2776
X17.5906Y-7.3091
X17.5906Y-7.4035
X17.5906Y-7.435
X17.5906Y-7.498
X17.5906Y-7.5295
X17.5906Y-7.5925
X17.5906Y-7.624
X17.5906Y-10.1654
X17.5906Y-10.2283
X17.5906Y-10.2598
X17.5906Y-10.3228
X17.5906Y-10.3543
X17.5906Y-10.4488
X17.5906Y-10.4803
X17.5906Y-10.5433
X17.5906Y-10.5748
X17.5906Y-10.6378
X17.5906Y-10.6693
X17.5906Y-10.7638
X17.5906Y-10.7953
X17.5906Y-10.8583
X17.5906Y-10.8898
X17.5906Y-10.9528
X17.5906Y-11.0157
X17.5906Y-11.0787
X17.5906Y-11.1102
X17.5906Y-11.1732
X17.5906Y-11.2047
X17.5906Y-12.5177
X17.5906Y-12.5492
X17.5906Y-12.6122
X17.5906Y-12.6437
X17.5906Y-12.7067
X17.5906Y-12.7382
X17.5906Y-12.8327
X17.5906Y-12.8642
X17.5906Y-12.9272
X17.5906Y-12.9587
X17.5906Y-13.0217
X17.5906Y-13.0846
X17.5906Y-13.1476
X17.5906Y-13.1791
X17.5906Y-13.2421
X17.5906Y-13.2736
X17.5906Y-13.3681
X17.5906Y-13.3996
X17.5906Y-13.4626
X17.5906Y-13.4941
X17.5906Y-13.5571
X17.5906Y-13.5886
X17.5906Y-16.1299
X17.5906Y-16.1929
X17.5906Y-16.2244
X17.5906Y-16.2874
X17.5906Y-16.3189
X17.5906Y-16.4134
X17.5906Y-16.4449
X17.5906Y-16.5079
X17.5906Y-16.5394
X17.5906Y-16.6024
X17.5906Y-16.6339
X17.5906Y-16.7283
X17.5906Y-16.7598
X17.5906Y-16.8228
X17.5906Y-16.8543
X17.5906Y-16.9173
X17.5906Y-16.9803
X17.5906Y-17.0433
X17.5906Y-17.0748
X17.5906Y-17.1378
X17.5906Y-17.1693
X17.5909Y-1.8799
X17.5909Y-1.9114
X17.5909Y-1.9744
X17.5909Y-2.0059
X17.5909Y-2.0689
X17.5909Y-2.1319
X17.5909Y-2.1949
X17.5909Y-2.2264
X17.5909Y-2.2894
X17.5909Y-2.3209
X17.5909Y-2.4154
X17.5909Y-3.5394
X17.5909Y-3.6024
X17.5909Y-3.6339
X17.5909Y-3.6969
X17.5909Y-3.7283
X17.5909Y-3.8228
X17.5909Y-3.8543
X17.5909Y-3.9173
X17.5909Y-3.9488
X17.5909Y-4.0118
X17.5909Y-7.8445
X17.5909Y-7.876
X17.5909Y-7.939
X17.5909Y-7.9705
X17.5909Y-8.0335
X17.5909Y-8.0965
X17.5909Y-8.1594
X17.5909Y-8.1909
X17.5909Y-8.2539
X17.5909Y-8.2854
X17.5909Y-8.3799
X17.5909Y-9.5039
X17.5909Y-9.5669
X17.5909Y-9.5984
X17.5909Y-9.6614
X17.5909Y-9.6929
X17.5909Y-9.7874
X17.5909Y-9.8189
X17.5909Y-9.8819
X17.5909Y-9.9134
X17.5909Y-9.9764
X17.5909Y-13.8091
X17.5909Y-13.8406
X17.5909Y-13.9035
X17.5909Y-13.935
X17.5909Y-13.998
X17.5909Y-14.061
X17.5909Y-14.124
X17.5909Y-14.1555
X17.5909Y-14.2185
X17.5909Y-14.25
X17.5909Y-14.3445
X17.5909Y-15.4685
X17.5909Y-15.5315
X17.5909Y-15.563
X17.5909Y-15.626
X17.5909Y-15.6575
X17.5909Y-15.752
X17.5909Y-15.7835
X17.5909Y-15.8465
X17.5909Y-15.878
X17.5909Y-15.9409
X17.881Y-1.8799
X17.881Y-1.9114
X17.881Y-1.9744
X17.881Y-2.0059
X17.881Y-2.0689
X17.881Y-2.1319
X17.881Y-2.1949
X17.881Y-2.2263
X17.881Y-2.2893
X17.881Y-2.3208
X17.881Y-2.4153
X17.881Y-7.8445
X17.881Y-7.876
X17.881Y-7.9389
X17.881Y-7.9704
X17.881Y-8.0334
X17.881Y-8.0964
X17.881Y-8.1594
X17.881Y-8.1909
X17.881Y-8.2539
X17.881Y-8.2854
X17.881Y-8.3799
X17.881Y-13.809
X17.881Y-13.8405
X17.881Y-13.9035
X17.881Y-13.935
X17.881Y-13.998
X17.881Y-14.061
X17.881Y-14.124
X17.881Y-14.1555
X17.881Y-14.2185
X17.881Y-14.25
X17.881Y-14.3445
X17.8819Y-0.5886
X17.8819Y-0.6201
X17.8819Y-0.6831
X17.8819Y-0.7146
X17.8819Y-0.7776
X17.8819Y-0.8091
X17.8819Y-0.9035
X17.8819Y-0.935
X17.8819Y-0.998
X17.8819Y-1.0295
X17.8819Y-1.0925
X17.8819Y-1.1555
X17.8819Y-1.2185
X17.8819Y-1.25
X17.8819Y-1.313
X17.8819Y-1.3445
X17.8819Y-1.439
X17.8819Y-1.4705
X17.8819Y-1.5335
X17.8819Y-1.565
X17.8819Y-1.628
X17.8819Y-1.6594
X17.8819Y-3.5394
X17.8819Y-3.6024
X17.8819Y-3.6339
X17.8819Y-3.6969
X17.8819Y-3.7283
X17.8819Y-3.8228
X17.8819Y-3.8543
X17.8819Y-3.9173
X17.8819Y-3.9488
X17.8819Y-4.0118
X17.8819Y-6.5531
X17.8819Y-6.5846
X17.8819Y-6.6476
X17.8819Y-6.6791
X17.8819Y-6.7421
X17.8819Y-6.7736
X17.8819Y-6.8681
X17.8819Y-6.8996
X17.8819Y-6.9626
X17.8819Y-6.9941
X17.8819Y-7.0571
X17.8819Y-7.1201
X17.8819Y-7.1831
X17.8819Y-7.2146
X17.8819Y-7.2776
X17.8819Y-7.3091
X17.8819Y-7.4035
X17.8819Y-7.435
X17.8819Y-7.498
X17.8819Y-7.5295
X17.8819Y-7.5925
X17.8819Y-7.624
X17.8819Y-9.5039
X17.8819Y-9.5669
X17.8819Y-9.5984
X17.8819Y-9.6614
X17.8819Y-9.6929
X17.8819Y-9.7874
X17.8819Y-9.8189
X17.8819Y-9.8819
X17.8819Y-9.9134
X17.8819Y-9.9764
X17.8819Y-12.5177
X17.8819Y-12.5492
X17.8819Y-12.6122
X17.8819Y-12.6437
X17.8819Y-12.7067
X17.8819Y-12.7382
X17.8819Y-12.8327
X17.8819Y-12.8642
X17.8819Y-12.9272
X17.8819Y-12.9587
X17.8819Y-13.0217
X17.8819Y-13.0846
X17.8819Y-13.1476
X17.8819Y-13.1791
X17.8819Y-13.2421
X17.8819Y-13.2736
X17.8819Y-13.3681
X17.8819Y-13.3996
X17.8819Y-13.4626
X17.8819Y-13.4941
X17.8819Y-13.5571
X17.8819Y-13.5886
X17.8819Y-15.4685
X17.8819Y-15.5315
X17.8819Y-15.563
X17.8819Y-15.626
X17.8819Y-15.6575
X17.8819Y-15.752
X17.8819Y-15.7835
X17.8819Y-15.8465
X17.8819Y-15.878
X17.8819Y-15.9409
X17.8823Y-4.2008
X17.8823Y-4.2638
X17.8823Y-4.2953
X17.8823Y-4.3583
X17.8823Y-4.3898
X17.8823Y-4.4843
X17.8823Y-4.5157
X17.8823Y-4.5787
X17.8823Y-4.6102
X17.8823Y-4.6732
X17.8823Y-4.7047
X17.8823Y-4.7992
X17.8823Y-4.8307
X17.8823Y-4.8937
X17.8823Y-4.9252
X17.8823Y-4.9882
X17.8823Y-5.0512
X17.8823Y-5.1142
X17.8823Y-5.1457
X17.8823Y-5.2087
X17.8823Y-5.2402
X17.8823Y-10.1654
X17.8823Y-10.2283
X17.8823Y-10.2598
X17.8823Y-10.3228
X17.8823Y-10.3543
X17.8823Y-10.4488
X17.8823Y-10.4803
X17.8823Y-10.5433
X17.8823Y-10.5748
X17.8823Y-10.6378
X17.8823Y-10.6693
X17.8823Y-10.7638
X17.8823Y-10.7953
X17.8823Y-10.8583
X17.8823Y-10.8898
X17.8823Y-10.9528
X17.8823Y-11.0157
X17.8823Y-11.0787
X17.8823Y-11.1102
X17.8823Y-11.1732
X17.8823Y-11.2047
X17.8823Y-16.1299
X17.8823Y-16.1929
X17.8823Y-16.2244
X17.8823Y-16.2874
X17.8823Y-16.3189
X17.8823Y-16.4134
X17.8823Y-16.4449
X17.8823Y-16.5079
X17.8823Y-16.5394
X17.8823Y-16.6024
X17.8823Y-16.6339
X17.8823Y-16.7283
X17.8823Y-16.7598
X17.8823Y-16.8228
X17.8823Y-16.8543
X17.8823Y-16.9173
X17.8823Y-16.9803
X17.8823Y-17.0433
X17.8823Y-17.0748
X17.8823Y-17.1378
X17.8823Y-17.1693
X18.1172Y-2.3425
X18.1172Y-2.4212
X18.1172Y-2.4606
X18.1172Y-2.5393
X18.1172Y-2.5787
X18.1172Y-2.6574
X18.1172Y-2.6968
X18.1172Y-2.7756
X18.1172Y-2.8149
X18.1172Y-2.8937
X18.1172Y-2.933
X18.1172Y-8.3071
X18.1172Y-8.3858
X18.1172Y-8.4252
X18.1172Y-8.5039
X18.1172Y-8.5433
X18.1172Y-8.622
X18.1172Y-8.6614
X18.1172Y-8.7401
X18.1172Y-8.7795
X18.1172Y-8.8582
X18.1172Y-8.8976
X18.1172Y-14.2716
X18.1172Y-14.3504
X18.1172Y-14.3897
X18.1172Y-14.4685
X18.1172Y-14.5078
X18.1172Y-14.5866
X18.1172Y-14.626
X18.1172Y-14.7047
X18.1172Y-14.7441
X18.1172Y-14.8228
X18.1172Y-14.8622
X18.1181Y-3.0118
X18.1181Y-3.0512
X18.1181Y-3.1299
X18.1181Y-3.1693
X18.1181Y-3.248
X18.1181Y-3.2874
X18.1181Y-3.3661
X18.1181Y-3.4055
X18.1181Y-3.4843
X18.1181Y-3.5236
X18.1181Y-8.9764
X18.1181Y-9.0157
X18.1181Y-9.0945
X18.1181Y-9.1339
X18.1181Y-9.2126
X18.1181Y-9.252
X18.1181Y-9.3307
X18.1181Y-9.3701
X18.1181Y-9.4488
X18.1181Y-9.4882
X18.1181Y-14.9409
X18.1181Y-14.9803
X18.1181Y-15.0591
X18.1181Y-15.0984
X18.1181Y-15.1772
X18.1181Y-15.2165
X18.1181Y-15.2953
X18.1181Y-15.3346
X18.1181Y-15.4134
X18.1181Y-15.4528
X18.124Y-0.5118
X18.124Y-0.5512
X18.124Y-0.6299
X18.124Y-0.6693
X18.124Y-0.748
X18.124Y-0.7874
X18.124Y-0.8661
X18.124Y-0.9055
X18.124Y-0.9843
X18.124Y-1.0236
X18.124Y-1.1024
X18.124Y-1.1417
X18.124Y-1.2205
X18.124Y-1.2598
X18.124Y-1.3386
X18.124Y-1.378
X18.124Y-1.4567
X18.124Y-1.4961
X18.124Y-6.4764
X18.124Y-6.5157
X18.124Y-6.5945
X18.124Y-6.6339
X18.124Y-6.7126
X18.124Y-6.752
X18.124Y-6.8307
X18.124Y-6.8701
X18.124Y-6.9488
X18.124Y-6.9882
X18.124Y-7.0669
X18.124Y-7.1063
X18.124Y-7.185
X18.124Y-7.2244
X18.124Y-7.3031
X18.124Y-7.3425
X18.124Y-7.4213
X18.124Y-7.4606
X18.124Y-12.4409
X18.124Y-12.4803
X18.124Y-12.5591
X18.124Y-12.5984
X18.124Y-12.6772
X18.124Y-12.7165
X18.124Y-12.7953
X18.124Y-12.8346
X18.124Y-12.9134
X18.124Y-12.9528
X18.124Y-13.0315
X18.124Y-13.0709
X18.124Y-13.1496
X18.124Y-13.189
X18.124Y-13.2677
X18.124Y-13.3071
X18.124Y-13.3858
X18.124Y-13.4252
X18.1244Y-0.4327
X18.1244Y-6.3972
X18.1244Y-12.3618
X18.1248Y-4.3303
X18.1248Y-4.3697
X18.1248Y-4.4484
X18.1248Y-4.4878
X18.1248Y-4.5665
X18.1248Y-4.6059
X18.1248Y-4.6846
X18.1248Y-4.724
X18.1248Y-4.8028
X18.1248Y-4.8421
X18.1248Y-4.9209
X18.1248Y-4.9602
X18.1248Y-5.039
X18.1248Y-5.0783
X18.1248Y-5.1571
X18.1248Y-5.1965
X18.1248Y-5.2752
X18.1248Y-5.3146
X18.1248Y-5.3933
X18.1248Y-5.4327
X18.1248Y-5.5114
X18.1248Y-5.5508
X18.1248Y-10.2949
X18.1248Y-10.3343
X18.1248Y-10.413
X18.1248Y-10.4524
X18.1248Y-10.5311
X18.1248Y-10.5705
X18.1248Y-10.6492
X18.1248Y-10.6886
X18.1248Y-10.7673
X18.1248Y-10.8067
X18.1248Y-10.8854
X18.1248Y-10.9248
X18.1248Y-11.0035
X18.1248Y-11.0429
X18.1248Y-11.1217
X18.1248Y-11.161
X18.1248Y-11.2398
X18.1248Y-11.2791
X18.1248Y-11.3579
X18.1248Y-11.3972
X18.1248Y-11.476
X18.1248Y-11.5154
X18.1248Y-16.2594
X18.1248Y-16.2988
X18.1248Y-16.3776
X18.1248Y-16.4169
X18.1248Y-16.4957
X18.1248Y-16.535
X18.1248Y-16.6138
X18.1248Y-16.6531
X18.1248Y-16.7319
X18.1248Y-16.7713
X18.1248Y-16.85
X18.1248Y-16.8894
X18.1248Y-16.9681
X18.1248Y-17.0075
X18.1248Y-17.0862
X18.1248Y-17.1256
X18.1248Y-17.2043
X18.1248Y-17.2437
X18.1248Y-17.3224
X18.1248Y-17.3618
X18.1248Y-17.4406
X18.1248Y-17.4799
X18.1264Y-0.3933
X18.1264Y-6.3579
X18.1264Y-12.3224
X18.128Y-1.5748
X18.128Y-7.5394
X18.128Y-13.5039
X19.3327Y-1.5748
X19.3327Y-7.5394
X19.3327Y-13.5039
X19.3343Y-0.3933
X19.3343Y-6.3579
X19.3343Y-12.3224
X19.3362Y-0.4327
X19.3362Y-4.3303
X19.3362Y-4.3697
X19.3362Y-4.4484
X19.3362Y-4.4878
X19.3362Y-4.5665
X19.3362Y-4.6059
X19.3362Y-4.6846
X19.3362Y-4.724
X19.3362Y-4.8028
X19.3362Y-4.8421
X19.3362Y-4.9209
X19.3362Y-4.9602
X19.3362Y-5.039
X19.3362Y-5.0783
X19.3362Y-5.1571
X19.3362Y-5.1965
X19.3362Y-5.2752
X19.3362Y-5.3146
X19.3362Y-5.3933
X19.3362Y-5.4327
X19.3362Y-5.5114
X19.3362Y-5.5508
X19.3362Y-6.3972
X19.3362Y-10.2949
X19.3362Y-10.3343
X19.3362Y-10.413
X19.3362Y-10.4524
X19.3362Y-10.5311
X19.3362Y-10.5705
X19.3362Y-10.6492
X19.3362Y-10.6886
X19.3362Y-10.7673
X19.3362Y-10.8067
X19.3362Y-10.8854
X19.3362Y-10.9248
X19.3362Y-11.0035
X19.3362Y-11.0429
X19.3362Y-11.1217
X19.3362Y-11.161
X19.3362Y-11.2398
X19.3362Y-11.2791
X19.3362Y-11.3579
X19.3362Y-11.3972
X19.3362Y-11.476
X19.3362Y-11.5154
X19.3362Y-12.3618
X19.3362Y-16.2594
X19.3362Y-16.2988
X19.3362Y-16.3776
X19.3362Y-16.4169
X19.3362Y-16.4957
X19.3362Y-16.535
X19.3362Y-16.6138
X19.3362Y-16.6531
X19.3362Y-16.7319
X19.3362Y-16.7713
X19.3362Y-16.85
X19.3362Y-16.8894
X19.3362Y-16.9681
X19.3362Y-17.0075
X19.3362Y-17.0862
X19.3362Y-17.1256
X19.3362Y-17.2043
X19.3362Y-17.2437
X19.3362Y-17.3224
X19.3362Y-17.3618
X19.3362Y-17.4406
X19.3362Y-17.4799
X19.3366Y-0.5118
X19.3366Y-0.5512
X19.3366Y-0.6299
X19.3366Y-0.6693
X19.3366Y-0.748
X19.3366Y-0.7874
X19.3366Y-0.8661
X19.3366Y-0.9055
X19.3366Y-0.9843
X19.3366Y-1.0236
X19.3366Y-1.1024
X19.3366Y-1.1417
X19.3366Y-1.2205
X19.3366Y-1.2598
X19.3366Y-1.3386
X19.3366Y-1.378
X19.3366Y-1.4567
X19.3366Y-1.4961
X19.3366Y-6.4764
X19.3366Y-6.5157
X19.3366Y-6.5945
X19.3366Y-6.6339
X19.3366Y-6.7126
X19.3366Y-6.752
X19.3366Y-6.8307
X19.3366Y-6.8701
X19.3366Y-6.9488
X19.3366Y-6.9882
X19.3366Y-7.0669
X19.3366Y-7.1063
X19.3366Y-7.185
X19.3366Y-7.2244
X19.3366Y-7.3031
X19.3366Y-7.3425
X19.3366Y-7.4213
X19.3366Y-7.4606
X19.3366Y-12.4409
X19.3366Y-12.4803
X19.3366Y-12.5591
X19.3366Y-12.5984
X19.3366Y-12.6772
X19.3366Y-12.7165
X19.3366Y-12.7953
X19.3366Y-12.8346
X19.3366Y-12.9134
X19.3366Y-12.9528
X19.3366Y-13.0315
X19.3366Y-13.0709
X19.3366Y-13.1496
X19.3366Y-13.189
X19.3366Y-13.2677
X19.3366Y-13.3071
X19.3366Y-13.3858
X19.3366Y-13.4252
X19.3429Y-2.3425
X19.3429Y-2.4213
X19.3429Y-2.4606
X19.3429Y-2.5394
X19.3429Y-2.5787
X19.3429Y-2.6575
X19.3429Y-2.6969
X19.3429Y-2.7756
X19.3429Y-2.815
X19.3429Y-2.8937
X19.3429Y-2.9331
X19.3429Y-3.0118
X19.3429Y-3.0512
X19.3429Y-3.1299
X19.3429Y-3.1693
X19.3429Y-3.248
X19.3429Y-3.2874
X19.3429Y-3.3661
X19.3429Y-3.4055
X19.3429Y-3.4843
X19.3429Y-3.5236
X19.3429Y-8.3071
X19.3429Y-8.3858
X19.3429Y-8.4252
X19.3429Y-8.5039
X19.3429Y-8.5433
X19.3429Y-8.622
X19.3429Y-8.6614
X19.3429Y-8.7402
X19.3429Y-8.7795
X19.3429Y-8.8583
X19.3429Y-8.8976
X19.3429Y-8.9764
X19.3429Y-9.0157
X19.3429Y-9.0945
X19.3429Y-9.1339
X19.3429Y-9.2126
X19.3429Y-9.252
X19.3429Y-9.3307
X19.3429Y-9.3701
X19.3429Y-9.4488
X19.3429Y-9.4882
X19.3429Y-14.2717
X19.3429Y-14.3504
X19.3429Y-14.3898
X19.3429Y-14.4685
X19.3429Y-14.5079
X19.3429Y-14.5866
X19.3429Y-14.626
X19.3429Y-14.7047
X19.3429Y-14.7441
X19.3429Y-14.8228
X19.3429Y-14.8622
X19.3429Y-14.9409
X19.3429Y-14.9803
X19.3429Y-15.0591
X19.3429Y-15.0984
X19.3429Y-15.1772
X19.3429Y-15.2165
X19.3429Y-15.2953
X19.3429Y-15.3346
X19.3429Y-15.4134
X19.3429Y-15.4528
X19.5787Y-0.5886
X19.5787Y-0.6201
X19.5787Y-0.6831
X19.5787Y-0.7146
X19.5787Y-0.7776
X19.5787Y-0.8091
X19.5787Y-0.9035
X19.5787Y-0.935
X19.5787Y-0.998
X19.5787Y-1.0295
X19.5787Y-1.0925
X19.5787Y-1.1555
X19.5787Y-1.2185
X19.5787Y-1.25
X19.5787Y-1.313
X19.5787Y-1.3445
X19.5787Y-1.439
X19.5787Y-1.4705
X19.5787Y-1.5335
X19.5787Y-1.565
X19.5787Y-1.628
X19.5787Y-1.6594
X19.5787Y-4.2008
X19.5787Y-4.2638
X19.5787Y-4.2953
X19.5787Y-4.3583
X19.5787Y-4.3898
X19.5787Y-4.4843
X19.5787Y-4.5157
X19.5787Y-4.5787
X19.5787Y-4.6102
X19.5787Y-4.6732
X19.5787Y-4.7047
X19.5787Y-4.7992
X19.5787Y-4.8307
X19.5787Y-4.8937
X19.5787Y-4.9252
X19.5787Y-4.9882
X19.5787Y-5.0512
X19.5787Y-5.1142
X19.5787Y-5.1457
X19.5787Y-5.2087
X19.5787Y-5.2402
X19.5787Y-6.5531
X19.5787Y-6.5846
X19.5787Y-6.6476
X19.5787Y-6.6791
X19.5787Y-6.7421
X19.5787Y-6.7736
X19.5787Y-6.8681
X19.5787Y-6.8996
X19.5787Y-6.9626
X19.5787Y-6.9941
X19.5787Y-7.0571
X19.5787Y-7.1201
X19.5787Y-7.1831
X19.5787Y-7.2146
X19.5787Y-7.2776
X19.5787Y-7.3091
X19.5787Y-7.4035
X19.5787Y-7.435
X19.5787Y-7.498
X19.5787Y-7.5295
X19.5787Y-7.5925
X19.5787Y-7.624
X19.5787Y-10.1654
X19.5787Y-10.2283
X19.5787Y-10.2598
X19.5787Y-10.3228
X19.5787Y-10.3543
X19.5787Y-10.4488
X19.5787Y-10.4803
X19.5787Y-10.5433
X19.5787Y-10.5748
X19.5787Y-10.6378
X19.5787Y-10.6693
X19.5787Y-10.7638
X19.5787Y-10.7953
X19.5787Y-10.8583
X19.5787Y-10.8898
X19.5787Y-10.9528
X19.5787Y-11.0157
X19.5787Y-11.0787
X19.5787Y-11.1102
X19.5787Y-11.1732
X19.5787Y-11.2047
X19.5787Y-12.5177
X19.5787Y-12.5492
X19.5787Y-12.6122
X19.5787Y-12.6437
X19.5787Y-12.7067
X19.5787Y-12.7382
X19.5787Y-12.8327
X19.5787Y-12.8642
X19.5787Y-12.9272
X19.5787Y-12.9587
X19.5787Y-13.0217
X19.5787Y-13.0846
X19.5787Y-13.1476
X19.5787Y-13.1791
X19.5787Y-13.2421
X19.5787Y-13.2736
X19.5787Y-13.3681
X19.5787Y-13.3996
X19.5787Y-13.4626
X19.5787Y-13.4941
X19.5787Y-13.5571
X19.5787Y-13.5886
X19.5787Y-16.1299
X19.5787Y-16.1929
X19.5787Y-16.2244
X19.5787Y-16.2874
X19.5787Y-16.3189
X19.5787Y-16.4134
X19.5787Y-16.4449
X19.5787Y-16.5079
X19.5787Y-16.5394
X19.5787Y-16.6024
X19.5787Y-16.6339
X19.5787Y-16.7283
X19.5787Y-16.7598
X19.5787Y-16.8228
X19.5787Y-16.8543
X19.5787Y-16.9173
X19.5787Y-16.9803
X19.5787Y-17.0433
X19.5787Y-17.0748
X19.5787Y-17.1378
X19.5787Y-17.1693
X19.5791Y-1.8799
X19.5791Y-1.9114
X19.5791Y-1.9744
X19.5791Y-2.0059
X19.5791Y-2.0689
X19.5791Y-2.1319
X19.5791Y-2.1949
X19.5791Y-2.2264
X19.5791Y-2.2894
X19.5791Y-2.3209
X19.5791Y-2.4154
X19.5791Y-3.5394
X19.5791Y-3.6024
X19.5791Y-3.6339
X19.5791Y-3.6969
X19.5791Y-3.7283
X19.5791Y-3.8228
X19.5791Y-3.8543
X19.5791Y-3.9173
X19.5791Y-3.9488
X19.5791Y-4.0118
X19.5791Y-7.8445
X19.5791Y-7.876
X19.5791Y-7.939
X19.5791Y-7.9705
X19.5791Y-8.0335
X19.5791Y-8.0965
X19.5791Y-8.1594
X19.5791Y-8.1909
X19.5791Y-8.2539
X19.5791Y-8.2854
X19.5791Y-8.3799
X19.5791Y-9.5039
X19.5791Y-9.5669
X19.5791Y-9.5984
X19.5791Y-9.6614
X19.5791Y-9.6929
X19.5791Y-9.7874
X19.5791Y-9.8189
X19.5791Y-9.8819
X19.5791Y-9.9134
X19.5791Y-9.9764
X19.5791Y-13.8091
X19.5791Y-13.8406
X19.5791Y-13.9035
X19.5791Y-13.935
X19.5791Y-13.998
X19.5791Y-14.061
X19.5791Y-14.124
X19.5791Y-14.1555
X19.5791Y-14.2185
X19.5791Y-14.25
X19.5791Y-14.3445
X19.5791Y-15.4685
X19.5791Y-15.5315
X19.5791Y-15.563
X19.5791Y-15.626
X19.5791Y-15.6575
X19.5791Y-15.752
X19.5791Y-15.7835
X19.5791Y-15.8465
X19.5791Y-15.878
X19.5791Y-15.9409
X19.8692Y-1.8799
X19.8692Y-1.9114
X19.8692Y-1.9744
X19.8692Y-2.0059
X19.8692Y-2.0689
X19.8692Y-2.1319
X19.8692Y-2.1949
X19.8692Y-2.2263
X19.8692Y-2.2893
X19.8692Y-2.3208
X19.8692Y-2.4153
X19.8692Y-7.8445
X19.8692Y-7.876
X19.8692Y-7.9389
X19.8692Y-7.9704
X19.8692Y-8.0334
X19.8692Y-8.0964
X19.8692Y-8.1594
X19.8692Y-8.1909
X19.8692Y-8.2539
X19.8692Y-8.2854
X19.8692Y-8.3799
X19.8692Y-13.809
X19.8692Y-13.8405
X19.8692Y-13.9035
X19.8692Y-13.935
X19.8692Y-13.998
X19.8692Y-14.061
X19.8692Y-14.124
X19.8692Y-14.1555
X19.8692Y-14.2185
X19.8692Y-14.25
X19.8692Y-14.3445
X19.8701Y-0.5886
X19.8701Y-0.6201
X19.8701Y-0.6831
X19.8701Y-0.7146
X19.8701Y-0.7776
X19.8701Y-0.8091
X19.8701Y-0.9035
X19.8701Y-0.935
X19.8701Y-0.998
X19.8701Y-1.0295
X19.8701Y-1.0925
X19.8701Y-1.1555
X19.8701Y-1.2185
X19.8701Y-1.25
X19.8701Y-1.313
X19.8701Y-1.3445
X19.8701Y-1.439
X19.8701Y-1.4705
X19.8701Y-1.5335
X19.8701Y-1.565
X19.8701Y-1.628
X19.8701Y-1.6594
X19.8701Y-3.5394
X19.8701Y-3.6024
X19.8701Y-3.6339
X19.8701Y-3.6969
X19.8701Y-3.7283
X19.8701Y-3.8228
X19.8701Y-3.8543
X19.8701Y-3.9173
X19.8701Y-3.9488
X19.8701Y-4.0118
X19.8701Y-6.5531
X19.8701Y-6.5846
X19.8701Y-6.6476
X19.8701Y-6.6791
X19.8701Y-6.7421
X19.8701Y-6.7736
X19.8701Y-6.8681
X19.8701Y-6.8996
X19.8701Y-6.9626
X19.8701Y-6.9941
X19.8701Y-7.0571
X19.8701Y-7.1201
X19.8701Y-7.1831
X19.8701Y-7.2146
X19.8701Y-7.2776
X19.8701Y-7.3091
X19.8701Y-7.4035
X19.8701Y-7.435
X19.8701Y-7.498
X19.8701Y-7.5295
X19.8701Y-7.5925
X19.8701Y-7.624
X19.8701Y-9.5039
X19.8701Y-9.5669
X19.8701Y-9.5984
X19.8701Y-9.6614
X19.8701Y-9.6929
X19.8701Y-9.7874
X19.8701Y-9.8189
X19.8701Y-9.8819
X19.8701Y-9.9134
X19.8701Y-9.9764
X19.8701Y-12.5177
X19.8701Y-12.5492
X19.8701Y-12.6122
X19.8701Y-12.6437
X19.8701Y-12.7067
X19.8701Y-12.7382
X19.8701Y-12.8327
X19.8701Y-12.8642
X19.8701Y-12.9272
X19.8701Y-12.9587
X19.8701Y-13.0217
X19.8701Y-13.0846
X19.8701Y-13.1476
X19.8701Y-13.1791
X19.8701Y-13.2421
X19.8701Y-13.2736
X19.8701Y-13.3681
X19.8701Y-13.3996
X19.8701Y-13.4626
X19.8701Y-13.4941
X19.8701Y-13.5571
X19.8701Y-13.5886
X19.8701Y-15.4685
X19.8701Y-15.5315
X19.8701Y-15.563
X19.8701Y-15.626
X19.8701Y-15.6575
X19.8701Y-15.752
X19.8701Y-15.7835
X19.8701Y-15.8465
X19.8701Y-15.878
X19.8701Y-15.9409
X19.8705Y-4.2008
X19.8705Y-4.2638
X19.8705Y-4.2953
X19.8705Y-4.3583
X19.8705Y-4.3898
X19.8705Y-4.4843
X19.8705Y-4.5157
X19.8705Y-4.5787
X19.8705Y-4.6102
X19.8705Y-4.6732
X19.8705Y-4.7047
X19.8705Y-4.7992
X19.8705Y-4.8307
X19.8705Y-4.8937
X19.8705Y-4.9252
X19.8705Y-4.9882
X19.8705Y-5.0512
X19.8705Y-5.1142
X19.8705Y-5.1457
X19.8705Y-5.2087
X19.8705Y-5.2402
X19.8705Y-10.1654
X19.8705Y-10.2283
X19.8705Y-10.2598
X19.8705Y-10.3228
X19.8705Y-10.3543
X19.8705Y-10.4488
X19.8705Y-10.4803
X19.8705Y-10.5433
X19.8705Y-10.5748
X19.8705Y-10.6378
X19.8705Y-10.6693
X19.8705Y-10.7638
X19.8705Y-10.7953
X19.8705Y-10.8583
X19.8705Y-10.8898
X19.8705Y-10.9528
X19.8705Y-11.0157
X19.8705Y-11.0787
X19.8705Y-11.1102
X19.8705Y-11.1732
X19.8705Y-11.2047
X19.8705Y-16.1299
X19.8705Y-16.1929
X19.8705Y-16.2244
X19.8705Y-16.2874
X19.8705Y-16.3189
X19.8705Y-16.4134
X19.8705Y-16.4449
X19.8705Y-16.5079
X19.8705Y-16.5394
X19.8705Y-16.6024
X19.8705Y-16.6339
X19.8705Y-16.7283
X19.8705Y-16.7598
X19.8705Y-16.8228
X19.8705Y-16.8543
X19.8705Y-16.9173
X19.8705Y-16.9803
X19.8705Y-17.0433
X19.8705Y-17.0748
X19.8705Y-17.1378
X19.8705Y-17.1693
X20.1054Y-2.3425
X20.1054Y-2.4212
X20.1054Y-2.4606
X20.1054Y-2.5393
X20.1054Y-2.5787
X20.1054Y-2.6574
X20.1054Y-2.6968
X20.1054Y-2.7756
X20.1054Y-2.8149
X20.1054Y-2.8937
X20.1054Y-2.933
X20.1054Y-8.3071
X20.1054Y-8.3858
X20.1054Y-8.4252
X20.1054Y-8.5039
X20.1054Y-8.5433
X20.1054Y-8.622
X20.1054Y-8.6614
X20.1054Y-8.7401
X20.1054Y-8.7795
X20.1054Y-8.8582
X20.1054Y-8.8976
X20.1054Y-14.2716
X20.1054Y-14.3504
X20.1054Y-14.3897
X20.1054Y-14.4685
X20.1054Y-14.5078
X20.1054Y-14.5866
X20.1054Y-14.626
X20.1054Y-14.7047
X20.1054Y-14.7441
X20.1054Y-14.8228
X20.1054Y-14.8622
X20.1063Y-3.0118
X20.1063Y-3.0512
X20.1063Y-3.1299
X20.1063Y-3.1693
X20.1063Y-3.248
X20.1063Y-3.2874
X20.1063Y-3.3661
X20.1063Y-3.4055
X20.1063Y-3.4843
X20.1063Y-3.5236
X20.1063Y-8.9764
X20.1063Y-9.0157
X20.1063Y-9.0945
X20.1063Y-9.1339
X20.1063Y-9.2126
X20.1063Y-9.252
X20.1063Y-9.3307
X20.1063Y-9.3701
X20.1063Y-9.4488
X20.1063Y-9.4882
X20.1063Y-14.9409
X20.1063Y-14.9803
X20.1063Y-15.0591
X20.1063Y-15.0984
X20.1063Y-15.1772
X20.1063Y-15.2165
X20.1063Y-15.2953
X20.1063Y-15.3346
X20.1063Y-15.4134
X20.1063Y-15.4528
X20.1122Y-0.5118
X20.1122Y-0.5512
X20.1122Y-0.6299
X20.1122Y-0.6693
X20.1122Y-0.748
X20.1122Y-0.7874
X20.1122Y-0.8661
X20.1122Y-0.9055
X20.1122Y-0.9843
X20.1122Y-1.0236
X20.1122Y-1.1024
X20.1122Y-1.1417
X20.1122Y-1.2205
X20.1122Y-1.2598
X20.1122Y-1.3386
X20.1122Y-1.378
X20.1122Y-1.4567
X20.1122Y-1.4961
X20.1122Y-6.4764
X20.1122Y-6.5157
X20.1122Y-6.5945
X20.1122Y-6.6339
X20.1122Y-6.7126
X20.1122Y-6.752
X20.1122Y-6.8307
X20.1122Y-6.8701
X20.1122Y-6.9488
X20.1122Y-6.9882
X20.1122Y-7.0669
X20.1122Y-7.1063
X20.1122Y-7.185
X20.1122Y-7.2244
X20.1122Y-7.3031
X20.1122Y-7.3425
X20.1122Y-7.4213
X20.1122Y-7.4606
X20.1122Y-12.4409
X20.1122Y-12.4803
X20.1122Y-12.5591
X20.1122Y-12.5984
X20.1122Y-12.6772
X20.1122Y-12.7165
X20.1122Y-12.7953
X20.1122Y-12.8346
X20.1122Y-12.9134
X20.1122Y-12.9528
X20.1122Y-13.0315
X20.1122Y-13.0709
X20.1122Y-13.1496
X20.1122Y-13.189
X20.1122Y-13.2677
X20.1122Y-13.3071
X20.1122Y-13.3858
X20.1122Y-13.4252
X20.1126Y-0.4327
X20.1126Y-6.3972
X20.1126Y-12.3618
X20.113Y-4.3303
X20.113Y-4.3697
X20.113Y-4.4484
X20.113Y-4.4878
X20.113Y-4.5665
X20.113Y-4.6059
X20.113Y-4.6846
X20.113Y-4.724
X20.113Y-4.8028
X20.113Y-4.8421
X20.113Y-4.9209
X20.113Y-4.9602
X20.113Y-5.039
X20.113Y-5.0783
X20.113Y-5.1571
X20.113Y-5.1965
X20.113Y-5.2752
X20.113Y-5.3146
X20.113Y-5.3933
X20.113Y-5.4327
X20.113Y-5.5114
X20.113Y-5.5508
X20.113Y-10.2949
X20.113Y-10.3343
X20.113Y-10.413
X20.113Y-10.4524
X20.113Y-10.5311
X20.113Y-10.5705
X20.113Y-10.6492
X20.113Y-10.6886
X20.113Y-10.7673
X20.113Y-10.8067
X20.113Y-10.8854
X20.113Y-10.9248
X20.113Y-11.0035
X20.113Y-11.0429
X20.113Y-11.1217
X20.113Y-11.161
X20.113Y-11.2398
X20.113Y-11.2791
X20.113Y-11.3579
X20.113Y-11.3972
X20.113Y-11.476
X20.113Y-11.5154
X20.113Y-16.2594
X20.113Y-16.2988
X20.113Y-16.3776
X20.113Y-16.4169
X20.113Y-16.4957
X20.113Y-16.535
X20.113Y-16.6138
X20.113Y-16.6531
X20.113Y-16.7319
X20.113Y-16.7713
X20.113Y-16.85
X20.113Y-16.8894
X20.113Y-16.9681
X20.113Y-17.0075
X20.113Y-17.0862
X20.113Y-17.1256
X20.113Y-17.2043
X20.113Y-17.2437
X20.113Y-17.3224
X20.113Y-17.3618
X20.113Y-17.4406
X20.113Y-17.4799
X20.1146Y-0.3933
X20.1146Y-6.3579
X20.1146Y-12.3224
X20.1161Y-1.5748
X20.1161Y-7.5394
X20.1161Y-13.5039
X21.3209Y-1.5748
X21.3209Y-7.5394
X21.3209Y-13.5039
X21.3224Y-0.3933
X21.3224Y-6.3579
X21.3224Y-12.3224
X21.3244Y-0.4327
X21.3244Y-4.3303
X21.3244Y-4.3697
X21.3244Y-4.4484
X21.3244Y-4.4878
X21.3244Y-4.5665
X21.3244Y-4.6059
X21.3244Y-4.6846
X21.3244Y-4.724
X21.3244Y-4.8028
X21.3244Y-4.8421
X21.3244Y-4.9209
X21.3244Y-4.9602
X21.3244Y-5.039
X21.3244Y-5.0783
X21.3244Y-5.1571
X21.3244Y-5.1965
X21.3244Y-5.2752
X21.3244Y-5.3146
X21.3244Y-5.3933
X21.3244Y-5.4327
X21.3244Y-5.5114
X21.3244Y-5.5508
X21.3244Y-6.3972
X21.3244Y-10.2949
X21.3244Y-10.3343
X21.3244Y-10.413
X21.3244Y-10.4524
X21.3244Y-10.5311
X21.3244Y-10.5705
X21.3244Y-10.6492
X21.3244Y-10.6886
X21.3244Y-10.7673
X21.3244Y-10.8067
X21.3244Y-10.8854
X21.3244Y-10.9248
X21.3244Y-11.0035
X21.3244Y-11.0429
X21.3244Y-11.1217
X21.3244Y-11.161
X21.3244Y-11.2398
X21.3244Y-11.2791
X21.3244Y-11.3579
X21.3244Y-11.3972
X21.3244Y-11.476
X21.3244Y-11.5154
X21.3244Y-12.3618
X21.3244Y-16.2594
X21.3244Y-16.2988
X21.3244Y-16.3776
X21.3244Y-16.4169
X21.3244Y-16.4957
X21.3244Y-16.535
X21.3244Y-16.6138
X21.3244Y-16.6531
X21.3244Y-16.7319
X21.3244Y-16.7713
X21.3244Y-16.85
X21.3244Y-16.8894
X21.3244Y-16.9681
X21.3244Y-17.0075
X21.3244Y-17.0862
X21.3244Y-17.1256
X21.3244Y-17.2043
X21.3244Y-17.2437
X21.3244Y-17.3224
X21.3244Y-17.3618
X21.3244Y-17.4406
X21.3244Y-17.4799
X21.3248Y-0.5118
X21.3248Y-0.5512
X21.3248Y-0.6299
X21.3248Y-0.6693
X21.3248Y-0.748
X21.3248Y-0.7874
X21.3248Y-0.8661
X21.3248Y-0.9055
X21.3248Y-0.9843
X21.3248Y-1.0236
X21.3248Y-1.1024
X21.3248Y-1.1417
X21.3248Y-1.2205
X21.3248Y-1.2598
X21.3248Y-1.3386
X21.3248Y-1.378
X21.3248Y-1.4567
X21.3248Y-1.4961
X21.3248Y-6.4764
X21.3248Y-6.5157
X21.3248Y-6.5945
X21.3248Y-6.6339
X21.3248Y-6.7126
X21.3248Y-6.752
X21.3248Y-6.8307
X21.3248Y-6.8701
X21.3248Y-6.9488
X21.3248Y-6.9882
X21.3248Y-7.0669
X21.3248Y-7.1063
X21.3248Y-7.185
X21.3248Y-7.2244
X21.3248Y-7.3031
X21.3248Y-7.3425
X21.3248Y-7.4213
X21.3248Y-7.4606
X21.3248Y-12.4409
X21.3248Y-12.4803
X21.3248Y-12.5591
X21.3248Y-12.5984
X21.3248Y-12.6772
X21.3248Y-12.7165
X21.3248Y-12.7953
X21.3248Y-12.8346
X21.3248Y-12.9134
X21.3248Y-12.9528
X21.3248Y-13.0315
X21.3248Y-13.0709
X21.3248Y-13.1496
X21.3248Y-13.189
X21.3248Y-13.2677
X21.3248Y-13.3071
X21.3248Y-13.3858
X21.3248Y-13.4252
X21.3311Y-2.3425
X21.3311Y-2.4213
X21.3311Y-2.4606
X21.3311Y-2.5394
X21.3311Y-2.5787
X21.3311Y-2.6575
X21.3311Y-2.6969
X21.3311Y-2.7756
X21.3311Y-2.815
X21.3311Y-2.8937
X21.3311Y-2.9331
X21.3311Y-3.0118
X21.3311Y-3.0512
X21.3311Y-3.1299
X21.3311Y-3.1693
X21.3311Y-3.248
X21.3311Y-3.2874
X21.3311Y-3.3661
X21.3311Y-3.4055
X21.3311Y-3.4843
X21.3311Y-3.5236
X21.3311Y-8.3071
X21.3311Y-8.3858
X21.3311Y-8.4252
X21.3311Y-8.5039
X21.3311Y-8.5433
X21.3311Y-8.622
X21.3311Y-8.6614
X21.3311Y-8.7402
X21.3311Y-8.7795
X21.3311Y-8.8583
X21.3311Y-8.8976
X21.3311Y-8.9764
X21.3311Y-9.0157
X21.3311Y-9.0945
X21.3311Y-9.1339
X21.3311Y-9.2126
X21.3311Y-9.252
X21.3311Y-9.3307
X21.3311Y-9.3701
X21.3311Y-9.4488
X21.3311Y-9.4882
X21.3311Y-14.2717
X21.3311Y-14.3504
X21.3311Y-14.3898
X21.3311Y-14.4685
X21.3311Y-14.5079
X21.3311Y-14.5866
X21.3311Y-14.626
X21.3311Y-14.7047
X21.3311Y-14.7441
X21.3311Y-14.8228
X21.3311Y-14.8622
X21.3311Y-14.9409
X21.3311Y-14.9803
X21.3311Y-15.0591
X21.3311Y-15.0984
X21.3311Y-15.1772
X21.3311Y-15.2165
X21.3311Y-15.2953
X21.3311Y-15.3346
X21.3311Y-15.4134
X21.3311Y-15.4528
X21.5669Y-0.5886
X21.5669Y-0.6201
X21.5669Y-0.6831
X21.5669Y-0.7146
X21.5669Y-0.7776
X21.5669Y-0.8091
X21.5669Y-0.9035
X21.5669Y-0.935
X21.5669Y-0.998
X21.5669Y-1.0295
X21.5669Y-1.0925
X21.5669Y-1.1555
X21.5669Y-1.2185
X21.5669Y-1.25
X21.5669Y-1.313
X21.5669Y-1.3445
X21.5669Y-1.439
X21.5669Y-1.4705
X21.5669Y-1.5335
X21.5669Y-1.565
X21.5669Y-1.628
X21.5669Y-1.6594
X21.5669Y-4.2008
X21.5669Y-4.2638
X21.5669Y-4.2953
X21.5669Y-4.3583
X21.5669Y-4.3898
X21.5669Y-4.4843
X21.5669Y-4.5157
X21.5669Y-4.5787
X21.5669Y-4.6102
X21.5669Y-4.6732
X21.5669Y-4.7047
X21.5669Y-4.7992
X21.5669Y-4.8307
X21.5669Y-4.8937
X21.5669Y-4.9252
X21.5669Y-4.9882
X21.5669Y-5.0512
X21.5669Y-5.1142
X21.5669Y-5.1457
X21.5669Y-5.2087
X21.5669Y-5.2402
X21.5669Y-6.5531
X21.5669Y-6.5846
X21.5669Y-6.6476
X21.5669Y-6.6791
X21.5669Y-6.7421
X21.5669Y-6.7736
X21.5669Y-6.8681
X21.5669Y-6.8996
X21.5669Y-6.9626
X21.5669Y-6.9941
X21.5669Y-7.0571
X21.5669Y-7.1201
X21.5669Y-7.1831
X21.5669Y-7.2146
X21.5669Y-7.2776
X21.5669Y-7.3091
X21.5669Y-7.4035
X21.5669Y-7.435
X21.5669Y-7.498
X21.5669Y-7.5295
X21.5669Y-7.5925
X21.5669Y-7.624
X21.5669Y-10.1654
X21.5669Y-10.2283
X21.5669Y-10.2598
X21.5669Y-10.3228
X21.5669Y-10.3543
X21.5669Y-10.4488
X21.5669Y-10.4803
X21.5669Y-10.5433
X21.5669Y-10.5748
X21.5669Y-10.6378
X21.5669Y-10.6693
X21.5669Y-10.7638
X21.5669Y-10.7953
X21.5669Y-10.8583
X21.5669Y-10.8898
X21.5669Y-10.9528
X21.5669Y-11.0157
X21.5669Y-11.0787
X21.5669Y-11.1102
X21.5669Y-11.1732
X21.5669Y-11.2047
X21.5669Y-12.5177
X21.5669Y-12.5492
X21.5669Y-12.6122
X21.5669Y-12.6437
X21.5669Y-12.7067
X21.5669Y-12.7382
X21.5669Y-12.8327
X21.5669Y-12.8642
X21.5669Y-12.9272
X21.5669Y-12.9587
X21.5669Y-13.0217
X21.5669Y-13.0846
X21.5669Y-13.1476
X21.5669Y-13.1791
X21.5669Y-13.2421
X21.5669Y-13.2736
X21.5669Y-13.3681
X21.5669Y-13.3996
X21.5669Y-13.4626
X21.5669Y-13.4941
X21.5669Y-13.5571
X21.5669Y-13.5886
X21.5669Y-16.1299
X21.5669Y-16.1929
X21.5669Y-16.2244
X21.5669Y-16.2874
X21.5669Y-16.3189
X21.5669Y-16.4134
X21.5669Y-16.4449
X21.5669Y-16.5079
X21.5669Y-16.5394
X21.5669Y-16.6024
X21.5669Y-16.6339
X21.5669Y-16.7283
X21.5669Y-16.7598
X21.5669Y-16.8228
X21.5669Y-16.8543
X21.5669Y-16.9173
X21.5669Y-16.9803
X21.5669Y-17.0433
X21.5669Y-17.0748
X21.5669Y-17.1378
X21.5669Y-17.1693
X21.5673Y-1.8799
X21.5673Y-1.9114
X21.5673Y-1.9744
X21.5673Y-2.0059
X21.5673Y-2.0689
X21.5673Y-2.1319
X21.5673Y-2.1949
X21.5673Y-2.2264
X21.5673Y-2.2894
X21.5673Y-2.3209
X21.5673Y-2.4154
X21.5673Y-3.5394
X21.5673Y-3.6024
X21.5673Y-3.6339
X21.5673Y-3.6969
X21.5673Y-3.7283
X21.5673Y-3.8228
X21.5673Y-3.8543
X21.5673Y-3.9173
X21.5673Y-3.9488
X21.5673Y-4.0118
X21.5673Y-7.8445
X21.5673Y-7.876
X21.5673Y-7.939
X21.5673Y-7.9705
X21.5673Y-8.0335
X21.5673Y-8.0965
X21.5673Y-8.1594
X21.5673Y-8.1909
X21.5673Y-8.2539
X21.5673Y-8.2854
X21.5673Y-8.3799
X21.5673Y-9.5039
X21.5673Y-9.5669
X21.5673Y-9.5984
X21.5673Y-9.6614
X21.5673Y-9.6929
X21.5673Y-9.7874
X21.5673Y-9.8189
X21.5673Y-9.8819
X21.5673Y-9.9134
X21.5673Y-9.9764
X21.5673Y-13.8091
X21.5673Y-13.8406
X21.5673Y-13.9035
X21.5673Y-13.935
X21.5673Y-13.998
X21.5673Y-14.061
X21.5673Y-14.124
X21.5673Y-14.1555
X21.5673Y-14.2185
X21.5673Y-14.25
X21.5673Y-14.3445
X21.5673Y-15.4685
X21.5673Y-15.5315
X21.5673Y-15.563
X21.5673Y-15.626
X21.5673Y-15.6575
X21.5673Y-15.752
X21.5673Y-15.7835
X21.5673Y-15.8465
X21.5673Y-15.878
X21.5673Y-15.9409
X21.8573Y-1.8799
X21.8573Y-1.9114
X21.8573Y-1.9744
X21.8573Y-2.0059
X21.8573Y-2.0689
X21.8573Y-2.1319
X21.8573Y-2.1949
X21.8573Y-2.2263
X21.8573Y-2.2893
X21.8573Y-2.3208
X21.8573Y-2.4153
X21.8573Y-7.8445
X21.8573Y-7.876
X21.8573Y-7.9389
X21.8573Y-7.9704
X21.8573Y-8.0334
X21.8573Y-8.0964
X21.8573Y-8.1594
X21.8573Y-8.1909
X21.8573Y-8.2539
X21.8573Y-8.2854
X21.8573Y-8.3799
X21.8573Y-13.809
X21.8573Y-13.8405
X21.8573Y-13.9035
X21.8573Y-13.935
X21.8573Y-13.998
X21.8573Y-14.061
X21.8573Y-14.124
X21.8573Y-14.1555
X21.8573Y-14.2185
X21.8573Y-14.25
X21.8573Y-14.3445
X21.8583Y-0.5886
X21.8583Y-0.6201
X21.8583Y-0.6831
X21.8583Y-0.7146
X21.8583Y-0.7776
X21.8583Y-0.8091
X21.8583Y-0.9035
X21.8583Y-0.935
X21.8583Y-0.998
X21.8583Y-1.0295
X21.8583Y-1.0925
X21.8583Y-1.1555
X21.8583Y-1.2185
X21.8583Y-1.25
X21.8583Y-1.313
X21.8583Y-1.3445
X21.8583Y-1.439
X21.8583Y-1.4705
X21.8583Y-1.5335
X21.8583Y-1.565
X21.8583Y-1.628
X21.8583Y-1.6594
X21.8583Y-3.5394
X21.8583Y-3.6024
X21.8583Y-3.6339
X21.8583Y-3.6969
X21.8583Y-3.7283
X21.8583Y-3.8228
X21.8583Y-3.8543
X21.8583Y-3.9173
X21.8583Y-3.9488
X21.8583Y-4.0118
X21.8583Y-6.5531
X21.8583Y-6.5846
X21.8583Y-6.6476
X21.8583Y-6.6791
X21.8583Y-6.7421
X21.8583Y-6.7736
X21.8583Y-6.8681
X21.8583Y-6.8996
X21.8583Y-6.9626
X21.8583Y-6.9941
X21.8583Y-7.0571
X21.8583Y-7.1201
X21.8583Y-7.1831
X21.8583Y-7.2146
X21.8583Y-7.2776
X21.8583Y-7.3091
X21.8583Y-7.4035
X21.8583Y-7.435
X21.8583Y-7.498
X21.8583Y-7.5295
X21.8583Y-7.5925
X21.8583Y-7.624
X21.8583Y-9.5039
X21.8583Y-9.5669
X21.8583Y-9.5984
X21.8583Y-9.6614
X21.8583Y-9.6929
X21.8583Y-9.7874
X21.8583Y-9.8189
X21.8583Y-9.8819
X21.8583Y-9.9134
X21.8583Y-9.9764
X21.8583Y-12.5177
X21.8583Y-12.5492
X21.8583Y-12.6122
X21.8583Y-12.6437
X21.8583Y-12.7067
X21.8583Y-12.7382
X21.8583Y-12.8327
X21.8583Y-12.8642
X21.8583Y-12.9272
X21.8583Y-12.9587
X21.8583Y-13.0217
X21.8583Y-13.0846
X21.8583Y-13.1476
X21.8583Y-13.1791
X21.8583Y-13.2421
X21.8583Y-13.2736
X21.8583Y-13.3681
X21.8583Y-13.3996
X21.8583Y-13.4626
X21.8583Y-13.4941
X21.8583Y-13.5571
X21.8583Y-13.5886
X21.8583Y-15.4685
X21.8583Y-15.5315
X21.8583Y-15.563
X21.8583Y-15.626
X21.8583Y-15.6575
X21.8583Y-15.752
X21.8583Y-15.7835
X21.8583Y-15.8465
X21.8583Y-15.878
X21.8583Y-15.9409
X21.8587Y-4.2008
X21.8587Y-4.2638
X21.8587Y-4.2953
X21.8587Y-4.3583
X21.8587Y-4.3898
X21.8587Y-4.4843
X21.8587Y-4.5157
X21.8587Y-4.5787
X21.8587Y-4.6102
X21.8587Y-4.6732
X21.8587Y-4.7047
X21.8587Y-4.7992
X21.8587Y-4.8307
X21.8587Y-4.8937
X21.8587Y-4.9252
X21.8587Y-4.9882
X21.8587Y-5.0512
X21.8587Y-5.1142
X21.8587Y-5.1457
X21.8587Y-5.2087
X21.8587Y-5.2402
X21.8587Y-10.1654
X21.8587Y-10.2283
X21.8587Y-10.2598
X21.8587Y-10.3228
X21.8587Y-10.3543
X21.8587Y-10.4488
X21.8587Y-10.4803
X21.8587Y-10.5433
X21.8587Y-10.5748
X21.8587Y-10.6378
X21.8587Y-10.6693
X21.8587Y-10.7638
X21.8587Y-10.7953
X21.8587Y-10.8583
X21.8587Y-10.8898
X21.8587Y-10.9528
X21.8587Y-11.0157
X21.8587Y-11.0787
X21.8587Y-11.1102
X21.8587Y-11.1732
X21.8587Y-11.2047
X21.8587Y-16.1299
X21.8587Y-16.1929
X21.8587Y-16.2244
X21.8587Y-16.2874
X21.8587Y-16.3189
X21.8587Y-16.4134
X21.8587Y-16.4449
X21.8587Y-16.5079
X21.8587Y-16.5394
X21.8587Y-16.6024
X21.8587Y-16.6339
X21.8587Y-16.7283
X21.8587Y-16.7598
X21.8587Y-16.8228
X21.8587Y-16.8543
X21.8587Y-16.9173
X21.8587Y-16.9803
X21.8587Y-17.0433
X21.8587Y-17.0748
X21.8587Y-17.1378
X21.8587Y-17.1693
X22.0936Y-2.3425
X22.0936Y-2.4212
X22.0936Y-2.4606
X22.0936Y-2.5393
X22.0936Y-2.5787
X22.0936Y-2.6574
X22.0936Y-2.6968
X22.0936Y-2.7756
X22.0936Y-2.8149
X22.0936Y-2.8937
X22.0936Y-2.933
X22.0936Y-8.3071
X22.0936Y-8.3858
X22.0936Y-8.4252
X22.0936Y-8.5039
X22.0936Y-8.5433
X22.0936Y-8.622
X22.0936Y-8.6614
X22.0936Y-8.7401
X22.0936Y-8.7795
X22.0936Y-8.8582
X22.0936Y-8.8976
X22.0936Y-14.2716
X22.0936Y-14.3504
X22.0936Y-14.3897
X22.0936Y-14.4685
X22.0936Y-14.5078
X22.0936Y-14.5866
X22.0936Y-14.626
X22.0936Y-14.7047
X22.0936Y-14.7441
X22.0936Y-14.8228
X22.0936Y-14.8622
X22.0945Y-3.0118
X22.0945Y-3.0512
X22.0945Y-3.1299
X22.0945Y-3.1693
X22.0945Y-3.248
X22.0945Y-3.2874
X22.0945Y-3.3661
X22.0945Y-3.4055
X22.0945Y-3.4843
X22.0945Y-3.5236
X22.0945Y-8.9764
X22.0945Y-9.0157
X22.0945Y-9.0945
X22.0945Y-9.1339
X22.0945Y-9.2126
X22.0945Y-9.252
X22.0945Y-9.3307
X22.0945Y-9.3701
X22.0945Y-9.4488
X22.0945Y-9.4882
X22.0945Y-14.9409
X22.0945Y-14.9803
X22.0945Y-15.0591
X22.0945Y-15.0984
X22.0945Y-15.1772
X22.0945Y-15.2165
X22.0945Y-15.2953
X22.0945Y-15.3346
X22.0945Y-15.4134
X22.0945Y-15.4528
X22.1004Y-0.5118
X22.1004Y-0.5512
X22.1004Y-0.6299
X22.1004Y-0.6693
X22.1004Y-0.748
X22.1004Y-0.7874
X22.1004Y-0.8661
X22.1004Y-0.9055
X22.1004Y-0.9843
X22.1004Y-1.0236
X22.1004Y-1.1024
X22.1004Y-1.1417
X22.1004Y-1.2205
X22.1004Y-1.2598
X22.1004Y-1.3386
X22.1004Y-1.378
X22.1004Y-1.4567
X22.1004Y-1.4961
X22.1004Y-6.4764
X22.1004Y-6.5157
X22.1004Y-6.5945
X22.1004Y-6.6339
X22.1004Y-6.7126
X22.1004Y-6.752
X22.1004Y-6.8307
X22.1004Y-6.8701
X22.1004Y-6.9488
X22.1004Y-6.9882
X22.1004Y-7.0669
X22.1004Y-7.1063
X22.1004Y-7.185
X22.1004Y-7.2244
X22.1004Y-7.3031
X22.1004Y-7.3425
X22.1004Y-7.4213
X22.1004Y-7.4606
X22.1004Y-12.4409
X22.1004Y-12.4803
X22.1004Y-12.5591
X22.1004Y-12.5984
X22.1004Y-12.6772
X22.1004Y-12.7165
X22.1004Y-12.7953
X22.1004Y-12.8346
X22.1004Y-12.9134
X22.1004Y-12.9528
X22.1004Y-13.0315
X22.1004Y-13.0709
X22.1004Y-13.1496
X22.1004Y-13.189
X22.1004Y-13.2677
X22.1004Y-13.3071
X22.1004Y-13.3858
X22.1004Y-13.4252
X22.1008Y-0.4327
X22.1008Y-6.3972
X22.1008Y-12.3618
X22.1012Y-4.3303
X22.1012Y-4.3697
X22.1012Y-4.4484
X22.1012Y-4.4878
X22.1012Y-4.5665
X22.1012Y-4.6059
X22.1012Y-4.6846
X22.1012Y-4.724
X22.1012Y-4.8028
X22.1012Y-4.8421
X22.1012Y-4.9209
X22.1012Y-4.9602
X22.1012Y-5.039
X22.1012Y-5.0783
X22.1012Y-5.1571
X22.1012Y-5.1965
X22.1012Y-5.2752
X22.1012Y-5.3146
X22.1012Y-5.3933
X22.1012Y-5.4327
X22.1012Y-5.5114
X22.1012Y-5.5508
X22.1012Y-10.2949
X22.1012Y-10.3343
X22.1012Y-10.413
X22.1012Y-10.4524
X22.1012Y-10.5311
X22.1012Y-10.5705
X22.1012Y-10.6492
X22.1012Y-10.6886
X22.1012Y-10.7673
X22.1012Y-10.8067
X22.1012Y-10.8854
X22.1012Y-10.9248
X22.1012Y-11.0035
X22.1012Y-11.0429
X22.1012Y-11.1217
X22.1012Y-11.161
X22.1012Y-11.2398
X22.1012Y-11.2791
X22.1012Y-11.3579
X22.1012Y-11.3972
X22.1012Y-11.476
X22.1012Y-11.5154
X22.1012Y-16.2594
X22.1012Y-16.2988
X22.1012Y-16.3776
X22.1012Y-16.4169
X22.1012Y-16.4957
X22.1012Y-16.535
X22.1012Y-16.6138
X22.1012Y-16.6531
X22.1012Y-16.7319
X22.1012Y-16.7713
X22.1012Y-16.85
X22.1012Y-16.8894
X22.1012Y-16.9681
X22.1012Y-17.0075
X22.1012Y-17.0862
X22.1012Y-17.1256
X22.1012Y-17.2043
X22.1012Y-17.2437
X22.1012Y-17.3224
X22.1012Y-17.3618
X22.1012Y-17.4406
X22.1012Y-17.4799
X22.1028Y-0.3933
X22.1028Y-6.3579
X22.1028Y-12.3224
X22.1043Y-1.5748
X22.1043Y-7.5394
X22.1043Y-13.5039
T2
X5.1378Y-4.0748
X5.1378Y-10.0394
X5.1378Y-16.0039
X5.1831Y-4.3898
X5.1831Y-4.4685
X5.1831Y-4.5472
X5.1831Y-4.626
X5.1831Y-4.7047
X5.1831Y-4.7835
X5.1831Y-4.8622
X5.1831Y-4.9409
X5.1831Y-5.0197
X5.1831Y-5.0984
X5.1831Y-5.1772
X5.1831Y-5.2559
X5.1831Y-5.3346
X5.1831Y-5.4134
X5.1831Y-5.4921
X5.1831Y-5.5709
X5.1831Y-10.3543
X5.1831Y-10.4331
X5.1831Y-10.5118
X5.1831Y-10.5906
X5.1831Y-10.6693
X5.1831Y-10.748
X5.1831Y-10.8268
X5.1831Y-10.9055
X5.1831Y-10.9843
X5.1831Y-11.063
X5.1831Y-11.1417
X5.1831Y-11.2205
X5.1831Y-11.2992
X5.1831Y-11.378
X5.1831Y-11.4567
X5.1831Y-11.5354
X5.1831Y-16.3189
X5.1831Y-16.3976
X5.1831Y-16.4764
X5.1831Y-16.5551
X5.1831Y-16.6339
X5.1831Y-16.7126
X5.1831Y-16.7913
X5.1831Y-16.8701
X5.1831Y-16.9488
X5.1831Y-17.0276
X5.1831Y-17.1063
X5.1831Y-17.185
X5.1831Y-17.2638
X5.1831Y-17.3425
X5.1831Y-17.4213
X5.1831Y-17.5
X5.1843Y-0.413
X5.1843Y-0.4917
X5.1843Y-0.5705
X5.1843Y-0.6492
X5.1843Y-0.728
X5.1843Y-0.8067
X5.1843Y-0.8854
X5.1843Y-0.9642
X5.1843Y-1.0429
X5.1843Y-1.1217
X5.1843Y-1.2004
X5.1843Y-1.2791
X5.1843Y-1.3579
X5.1843Y-1.4366
X5.1843Y-1.5154
X5.1843Y-1.5941
X5.1843Y-6.3776
X5.1843Y-6.4563
X5.1843Y-6.535
X5.1843Y-6.6138
X5.1843Y-6.6925
X5.1843Y-6.7713
X5.1843Y-6.85
X5.1843Y-6.9287
X5.1843Y-7.0075
X5.1843Y-7.0862
X5.1843Y-7.165
X5.1843Y-7.2437
X5.1843Y-7.3224
X5.1843Y-7.4012
X5.1843Y-7.4799
X5.1843Y-7.5587
X5.1843Y-12.3421
X5.1843Y-12.4209
X5.1843Y-12.4996
X5.1843Y-12.5783
X5.1843Y-12.6571
X5.1843Y-12.7358
X5.1843Y-12.8146
X5.1843Y-12.8933
X5.1843Y-12.972
X5.1843Y-13.0508
X5.1843Y-13.1295
X5.1843Y-13.2083
X5.1843Y-13.287
X5.1843Y-13.3657
X5.1843Y-13.4445
X5.1843Y-13.5232
X5.1933Y-2.4016
X5.1933Y-2.4803
X5.1933Y-2.5591
X5.1933Y-2.6378
X5.1933Y-2.7165
X5.1933Y-2.7953
X5.1933Y-2.874
X5.1933Y-2.9528
X5.1933Y-3.0315
X5.1933Y-3.1102
X5.1933Y-3.189
X5.1933Y-3.2677
X5.1933Y-3.3465
X5.1933Y-3.4252
X5.1933Y-3.5039
X5.1933Y-3.5827
X5.1933Y-8.3661
X5.1933Y-8.4449
X5.1933Y-8.5236
X5.1933Y-8.6024
X5.1933Y-8.6811
X5.1933Y-8.7598
X5.1933Y-8.8386
X5.1933Y-8.9173
X5.1933Y-8.9961
X5.1933Y-9.0748
X5.1933Y-9.1535
X5.1933Y-9.2323
X5.1933Y-9.311
X5.1933Y-9.3898
X5.1933Y-9.4685
X5.1933Y-9.5472
X5.1933Y-14.3307
X5.1933Y-14.4094
X5.1933Y-14.4882
X5.1933Y-14.5669
X5.1933Y-14.6457
X5.1933Y-14.7244
X5.1933Y-14.8031
X5.1933Y-14.8819
X5.1933Y-14.9606
X5.1933Y-15.0394
X5.1933Y-15.1181
X5.1933Y-15.1969
X5.1933Y-15.2756
X5.1933Y-15.3543
X5.1933Y-15.4331
X5.1933Y-15.5118
X5.2413Y-1.7858
X5.2413Y-7.7504
X5.2413Y-13.715
X5.2416Y-4.1376
X5.2416Y-5.7644
X5.2416Y-10.1022
X5.2416Y-11.7289
X5.2416Y-16.0668
X5.2416Y-17.6935
X5.3051Y-1.7224
X5.3051Y-5.689
X5.3051Y-7.687
X5.3051Y-11.6535
X5.3051Y-13.6516
X5.3051Y-17.6181
X5.7677Y-1.6732
X5.7677Y-7.6378
X5.7677Y-13.6024
X5.7693Y-5.3661
X5.7693Y-11.3307
X5.7693Y-17.2953
X5.7697Y-0.5571
X5.7697Y-0.8406
X5.7697Y-1.124
X5.7697Y-1.4075
X5.7697Y-4.4528
X5.7697Y-4.7362
X5.7697Y-5.0197
X5.7697Y-5.3031
X5.7697Y-6.5217
X5.7697Y-6.8051
X5.7697Y-7.0886
X5.7697Y-7.372
X5.7697Y-10.4173
X5.7697Y-10.7008
X5.7697Y-10.9843
X5.7697Y-11.2677
X5.7697Y-12.4862
X5.7697Y-12.7697
X5.7697Y-13.0531
X5.7697Y-13.3366
X5.7697Y-16.3819
X5.7697Y-16.6654
X5.7697Y-16.9488
X5.7697Y-17.2323
X5.7701Y-1.8169
X5.7701Y-2.1004
X5.7701Y-2.3839
X5.7701Y-3.7598
X5.7701Y-4.1693
X5.7701Y-7.7815
X5.7701Y-8.065
X5.7701Y-8.3484
X5.7701Y-9.7244
X5.7701Y-10.1339
X5.7701Y-13.7461
X5.7701Y-14.0295
X5.7701Y-14.313
X5.7701Y-15.689
X5.7701Y-16.0984
X5.772Y-4.0256
X5.772Y-9.9902
X5.772Y-15.9547
X5.8055Y-4.1063
X5.8055Y-10.0709
X5.8055Y-16.0354
X5.8071Y-1.7087
X5.8071Y-1.7559
X5.8071Y-7.6732
X5.8071Y-7.7205
X5.8071Y-13.6378
X5.8071Y-13.685
X5.8075Y-4.061
X5.8075Y-10.0256
X5.8075Y-15.9902
X5.8425Y-4.0256
X5.8425Y-9.9902
X5.8425Y-15.9547
X5.8436Y-2.1004
X5.8436Y-2.3838
X5.8436Y-8.0649
X5.8436Y-8.3484
X5.8436Y-14.0295
X5.8436Y-14.313
X5.8441Y-1.8169
X5.8441Y-7.7815
X5.8441Y-13.7461
X5.8445Y-0.5571
X5.8445Y-0.8406
X5.8445Y-1.124
X5.8445Y-1.4075
X5.8445Y-3.7598
X5.8445Y-4.1693
X5.8445Y-6.5217
X5.8445Y-6.8051
X5.8445Y-7.0886
X5.8445Y-7.372
X5.8445Y-9.7244
X5.8445Y-10.1339
X5.8445Y-12.4862
X5.8445Y-12.7697
X5.8445Y-13.0531
X5.8445Y-13.3366
X5.8445Y-15.689
X5.8445Y-16.0984
X5.8449Y-4.4528
X5.8449Y-4.7362
X5.8449Y-5.0197
X5.8449Y-5.3031
X5.8449Y-5.3661
X5.8449Y-10.4173
X5.8449Y-10.7008
X5.8449Y-10.9843
X5.8449Y-11.2677
X5.8449Y-11.3307
X5.8449Y-16.3819
X5.8449Y-16.6654
X5.8449Y-16.9488
X5.8449Y-17.2323
X5.8449Y-17.2953
X5.8465Y-1.6732
X5.8465Y-7.6378
X5.8465Y-13.6024
X6.3091Y-1.7224
X6.3091Y-5.689
X6.3091Y-7.687
X6.3091Y-11.6535
X6.3091Y-13.6516
X6.3091Y-17.6181
X6.3726Y-5.7644
X6.3726Y-11.7289
X6.3726Y-17.6935
X6.3728Y-1.7858
X6.3728Y-7.7504
X6.3728Y-13.715
X6.373Y-4.1376
X6.373Y-10.1022
X6.373Y-16.0668
X6.4203Y-2.4015
X6.4203Y-2.4803
X6.4203Y-2.559
X6.4203Y-2.6378
X6.4203Y-2.7165
X6.4203Y-2.7952
X6.4203Y-2.874
X6.4203Y-2.9527
X6.4203Y-3.0315
X6.4203Y-3.1102
X6.4203Y-3.1889
X6.4203Y-3.2677
X6.4203Y-3.3464
X6.4203Y-3.4252
X6.4203Y-3.5039
X6.4203Y-3.5826
X6.4203Y-8.3661
X6.4203Y-8.4449
X6.4203Y-8.5236
X6.4203Y-8.6023
X6.4203Y-8.6811
X6.4203Y-8.7598
X6.4203Y-8.8386
X6.4203Y-8.9173
X6.4203Y-8.996
X6.4203Y-9.0748
X6.4203Y-9.1535
X6.4203Y-9.2323
X6.4203Y-9.311
X6.4203Y-9.3897
X6.4203Y-9.4685
X6.4203Y-9.5472
X6.4203Y-14.3307
X6.4203Y-14.4094
X6.4203Y-14.4882
X6.4203Y-14.5669
X6.4203Y-14.6456
X6.4203Y-14.7244
X6.4203Y-14.8031
X6.4203Y-14.8819
X6.4203Y-14.9606
X6.4203Y-15.0393
X6.4203Y-15.1181
X6.4203Y-15.1968
X6.4203Y-15.2756
X6.4203Y-15.3543
X6.4203Y-15.433
X6.4203Y-15.5118
X6.4283Y-0.413
X6.4283Y-0.4917
X6.4283Y-0.5705
X6.4283Y-0.6492
X6.4283Y-0.728
X6.4283Y-0.8067
X6.4283Y-0.8854
X6.4283Y-0.9642
X6.4283Y-1.0429
X6.4283Y-1.1217
X6.4283Y-1.2004
X6.4283Y-1.2791
X6.4283Y-1.3579
X6.4283Y-1.4366
X6.4283Y-1.5154
X6.4283Y-1.5941
X6.4283Y-6.3776
X6.4283Y-6.4563
X6.4283Y-6.535
X6.4283Y-6.6138
X6.4283Y-6.6925
X6.4283Y-6.7713
X6.4283Y-6.85
X6.4283Y-6.9287
X6.4283Y-7.0075
X6.4283Y-7.0862
X6.4283Y-7.165
X6.4283Y-7.2437
X6.4283Y-7.3224
X6.4283Y-7.4012
X6.4283Y-7.4799
X6.4283Y-7.5587
X6.4283Y-12.3421
X6.4283Y-12.4209
X6.4283Y-12.4996
X6.4283Y-12.5783
X6.4283Y-12.6571
X6.4283Y-12.7358
X6.4283Y-12.8146
X6.4283Y-12.8933
X6.4283Y-12.972
X6.4283Y-13.0508
X6.4283Y-13.1295
X6.4283Y-13.2083
X6.4283Y-13.287
X6.4283Y-13.3657
X6.4283Y-13.4445
X6.4283Y-13.5232
X6.4311Y-4.3898
X6.4311Y-4.4685
X6.4311Y-4.5472
X6.4311Y-4.626
X6.4311Y-4.7047
X6.4311Y-4.7835
X6.4311Y-4.8622
X6.4311Y-4.9409
X6.4311Y-5.0197
X6.4311Y-5.0984
X6.4311Y-5.1772
X6.4311Y-5.2559
X6.4311Y-5.3346
X6.4311Y-5.4134
X6.4311Y-5.4921
X6.4311Y-5.5709
X6.4311Y-10.3543
X6.4311Y-10.4331
X6.4311Y-10.5118
X6.4311Y-10.5906
X6.4311Y-10.6693
X6.4311Y-10.748
X6.4311Y-10.8268
X6.4311Y-10.9055
X6.4311Y-10.9843
X6.4311Y-11.063
X6.4311Y-11.1417
X6.4311Y-11.2205
X6.4311Y-11.2992
X6.4311Y-11.378
X6.4311Y-11.4567
X6.4311Y-11.5354
X6.4311Y-16.3189
X6.4311Y-16.3976
X6.4311Y-16.4764
X6.4311Y-16.5551
X6.4311Y-16.6339
X6.4311Y-16.7126
X6.4311Y-16.7913
X6.4311Y-16.8701
X6.4311Y-16.9488
X6.4311Y-17.0276
X6.4311Y-17.1063
X6.4311Y-17.185
X6.4311Y-17.2638
X6.4311Y-17.3425
X6.4311Y-17.4213
X6.4311Y-17.5
X6.4774Y-4.0748
X6.4774Y-10.0394
X6.4774Y-16.0039
X7.126Y-4.0748
X7.126Y-10.0394
X7.126Y-16.0039
X7.1713Y-4.3898
X7.1713Y-4.4685
X7.1713Y-4.5472
X7.1713Y-4.626
X7.1713Y-4.7047
X7.1713Y-4.7835
X7.1713Y-4.8622
X7.1713Y-4.9409
X7.1713Y-5.0197
X7.1713Y-5.0984
X7.1713Y-5.1772
X7.1713Y-5.2559
X7.1713Y-5.3346
X7.1713Y-5.4134
X7.1713Y-5.4921
X7.1713Y-5.5709
X7.1713Y-10.3543
X7.1713Y-10.4331
X7.1713Y-10.5118
X7.1713Y-10.5906
X7.1713Y-10.6693
X7.1713Y-10.748
X7.1713Y-10.8268
X7.1713Y-10.9055
X7.1713Y-10.9843
X7.1713Y-11.063
X7.1713Y-11.1417
X7.1713Y-11.2205
X7.1713Y-11.2992
X7.1713Y-11.378
X7.1713Y-11.4567
X7.1713Y-11.5354
X7.1713Y-16.3189
X7.1713Y-16.3976
X7.1713Y-16.4764
X7.1713Y-16.5551
X7.1713Y-16.6339
X7.1713Y-16.7126
X7.1713Y-16.7913
X7.1713Y-16.8701
X7.1713Y-16.9488
X7.1713Y-17.0276
X7.1713Y-17.1063
X7.1713Y-17.185
X7.1713Y-17.2638
X7.1713Y-17.3425
X7.1713Y-17.4213
X7.1713Y-17.5
X7.1724Y-0.413
X7.1724Y-0.4917
X7.1724Y-0.5705
X7.1724Y-0.6492
X7.1724Y-0.728
X7.1724Y-0.8067
X7.1724Y-0.8854
X7.1724Y-0.9642
X7.1724Y-1.0429
X7.1724Y-1.1217
X7.1724Y-1.2004
X7.1724Y-1.2791
X7.1724Y-1.3579
X7.1724Y-1.4366
X7.1724Y-1.5154
X7.1724Y-1.5941
X7.1724Y-6.3776
X7.1724Y-6.4563
X7.1724Y-6.535
X7.1724Y-6.6138
X7.1724Y-6.6925
X7.1724Y-6.7713
X7.1724Y-6.85
X7.1724Y-6.9287
X7.1724Y-7.0075
X7.1724Y-7.0862
X7.1724Y-7.165
X7.1724Y-7.2437
X7.1724Y-7.3224
X7.1724Y-7.4012
X7.1724Y-7.4799
X7.1724Y-7.5587
X7.1724Y-12.3421
X7.1724Y-12.4209
X7.1724Y-12.4996
X7.1724Y-12.5783
X7.1724Y-12.6571
X7.1724Y-12.7358
X7.1724Y-12.8146
X7.1724Y-12.8933
X7.1724Y-12.972
X7.1724Y-13.0508
X7.1724Y-13.1295
X7.1724Y-13.2083
X7.1724Y-13.287
X7.1724Y-13.3657
X7.1724Y-13.4445
X7.1724Y-13.5232
X7.1815Y-2.4016
X7.1815Y-2.4803
X7.1815Y-2.5591
X7.1815Y-2.6378
X7.1815Y-2.7165
X7.1815Y-2.7953
X7.1815Y-2.874
X7.1815Y-2.9528
X7.1815Y-3.0315
X7.1815Y-3.1102
X7.1815Y-3.189
X7.1815Y-3.2677
X7.1815Y-3.3465
X7.1815Y-3.4252
X7.1815Y-3.5039
X7.1815Y-3.5827
X7.1815Y-8.3661
X7.1815Y-8.4449
X7.1815Y-8.5236
X7.1815Y-8.6024
X7.1815Y-8.6811
X7.1815Y-8.7598
X7.1815Y-8.8386
X7.1815Y-8.9173
X7.1815Y-8.9961
X7.1815Y-9.0748
X7.1815Y-9.1535
X7.1815Y-9.2323
X7.1815Y-9.311
X7.1815Y-9.3898
X7.1815Y-9.4685
X7.1815Y-9.5472
X7.1815Y-14.3307
X7.1815Y-14.4094
X7.1815Y-14.4882
X7.1815Y-14.5669
X7.1815Y-14.6457
X7.1815Y-14.7244
X7.1815Y-14.8031
X7.1815Y-14.8819
X7.1815Y-14.9606
X7.1815Y-15.0394
X7.1815Y-15.1181
X7.1815Y-15.1969
X7.1815Y-15.2756
X7.1815Y-15.3543
X7.1815Y-15.4331
X7.1815Y-15.5118
X7.2295Y-1.7858
X7.2295Y-7.7504
X7.2295Y-13.715
X7.2297Y-4.1376
X7.2297Y-5.7644
X7.2297Y-10.1022
X7.2297Y-11.7289
X7.2297Y-16.0668
X7.2297Y-17.6935
X7.2933Y-1.7224
X7.2933Y-5.689
X7.2933Y-7.687
X7.2933Y-11.6535
X7.2933Y-13.6516
X7.2933Y-17.6181
X7.7559Y-1.6732
X7.7559Y-7.6378
X7.7559Y-13.6024
X7.7575Y-5.3661
X7.7575Y-11.3307
X7.7575Y-17.2953
X7.7579Y-0.5571
X7.7579Y-0.8406
X7.7579Y-1.124
X7.7579Y-1.4075
X7.7579Y-4.4528
X7.7579Y-4.7362
X7.7579Y-5.0197
X7.7579Y-5.3031
X7.7579Y-6.5217
X7.7579Y-6.8051
X7.7579Y-7.0886
X7.7579Y-7.372
X7.7579Y-10.4173
X7.7579Y-10.7008
X7.7579Y-10.9843
X7.7579Y-11.2677
X7.7579Y-12.4862
X7.7579Y-12.7697
X7.7579Y-13.0531
X7.7579Y-13.3366
X7.7579Y-16.3819
X7.7579Y-16.6654
X7.7579Y-16.9488
X7.7579Y-17.2323
X7.7583Y-1.8169
X7.7583Y-2.1004
X7.7583Y-2.3839
X7.7583Y-3.7598
X7.7583Y-4.1693
X7.7583Y-7.7815
X7.7583Y-8.065
X7.7583Y-8.3484
X7.7583Y-9.7244
X7.7583Y-10.1339
X7.7583Y-13.7461
X7.7583Y-14.0295
X7.7583Y-14.313
X7.7583Y-15.689
X7.7583Y-16.0984
X7.7602Y-4.0256
X7.7602Y-9.9902
X7.7602Y-15.9547
X7.7937Y-4.1063
X7.7937Y-10.0709
X7.7937Y-16.0354
X7.7953Y-1.7087
X7.7953Y-1.7559
X7.7953Y-7.6732
X7.7953Y-7.7205
X7.7953Y-13.6378
X7.7953Y-13.685
X7.7957Y-4.061
X7.7957Y-10.0256
X7.7957Y-15.9902
X7.8307Y-4.0256
X7.8307Y-9.9902
X7.8307Y-15.9547
X7.8318Y-2.1004
X7.8318Y-2.3838
X7.8318Y-8.0649
X7.8318Y-8.3484
X7.8318Y-14.0295
X7.8318Y-14.313
X7.8323Y-1.8169
X7.8323Y-7.7815
X7.8323Y-13.7461
X7.8327Y-0.5571
X7.8327Y-0.8406
X7.8327Y-1.124
X7.8327Y-1.4075
X7.8327Y-3.7598
X7.8327Y-4.1693
X7.8327Y-6.5217
X7.8327Y-6.8051
X7.8327Y-7.0886
X7.8327Y-7.372
X7.8327Y-9.7244
X7.8327Y-10.1339
X7.8327Y-12.4862
X7.8327Y-12.7697
X7.8327Y-13.0531
X7.8327Y-13.3366
X7.8327Y-15.689
X7.8327Y-16.0984
X7.8331Y-4.4528
X7.8331Y-4.7362
X7.8331Y-5.0197
X7.8331Y-5.3031
X7.8331Y-5.3661
X7.8331Y-10.4173
X7.8331Y-10.7008
X7.8331Y-10.9843
X7.8331Y-11.2677
X7.8331Y-11.3307
X7.8331Y-16.3819
X7.8331Y-16.6654
X7.8331Y-16.9488
X7.8331Y-17.2323
X7.8331Y-17.2953
X7.8346Y-1.6732
X7.8346Y-7.6378
X7.8346Y-13.6024
X8.2972Y-1.7224
X8.2972Y-5.689
X8.2972Y-7.687
X8.2972Y-11.6535
X8.2972Y-13.6516
X8.2972Y-17.6181
X8.3608Y-5.7644
X8.3608Y-11.7289
X8.3608Y-17.6935
X8.361Y-1.7858
X8.361Y-7.7504
X8.361Y-13.715
X8.3612Y-4.1376
X8.3612Y-10.1022
X8.3612Y-16.0668
X8.4085Y-2.4015
X8.4085Y-2.4803
X8.4085Y-2.559
X8.4085Y-2.6378
X8.4085Y-2.7165
X8.4085Y-2.7952
X8.4085Y-2.874
X8.4085Y-2.9527
X8.4085Y-3.0315
X8.4085Y-3.1102
X8.4085Y-3.1889
X8.4085Y-3.2677
X8.4085Y-3.3464
X8.4085Y-3.4252
X8.4085Y-3.5039
X8.4085Y-3.5826
X8.4085Y-8.3661
X8.4085Y-8.4449
X8.4085Y-8.5236
X8.4085Y-8.6023
X8.4085Y-8.6811
X8.4085Y-8.7598
X8.4085Y-8.8386
X8.4085Y-8.9173
X8.4085Y-8.996
X8.4085Y-9.0748
X8.4085Y-9.1535
X8.4085Y-9.2323
X8.4085Y-9.311
X8.4085Y-9.3897
X8.4085Y-9.4685
X8.4085Y-9.5472
X8.4085Y-14.3307
X8.4085Y-14.4094
X8.4085Y-14.4882
X8.4085Y-14.5669
X8.4085Y-14.6456
X8.4085Y-14.7244
X8.4085Y-14.8031
X8.4085Y-14.8819
X8.4085Y-14.9606
X8.4085Y-15.0393
X8.4085Y-15.1181
X8.4085Y-15.1968
X8.4085Y-15.2756
X8.4085Y-15.3543
X8.4085Y-15.433
X8.4085Y-15.5118
X8.4165Y-0.413
X8.4165Y-0.4917
X8.4165Y-0.5705
X8.4165Y-0.6492
X8.4165Y-0.728
X8.4165Y-0.8067
X8.4165Y-0.8854
X8.4165Y-0.9642
X8.4165Y-1.0429
X8.4165Y-1.1217
X8.4165Y-1.2004
X8.4165Y-1.2791
X8.4165Y-1.3579
X8.4165Y-1.4366
X8.4165Y-1.5154
X8.4165Y-1.5941
X8.4165Y-6.3776
X8.4165Y-6.4563
X8.4165Y-6.535
X8.4165Y-6.6138
X8.4165Y-6.6925
X8.4165Y-6.7713
X8.4165Y-6.85
X8.4165Y-6.9287
X8.4165Y-7.0075
X8.4165Y-7.0862
X8.4165Y-7.165
X8.4165Y-7.2437
X8.4165Y-7.3224
X8.4165Y-7.4012
X8.4165Y-7.4799
X8.4165Y-7.5587
X8.4165Y-12.3421
X8.4165Y-12.4209
X8.4165Y-12.4996
X8.4165Y-12.5783
X8.4165Y-12.6571
X8.4165Y-12.7358
X8.4165Y-12.8146
X8.4165Y-12.8933
X8.4165Y-12.972
X8.4165Y-13.0508
X8.4165Y-13.1295
X8.4165Y-13.2083
X8.4165Y-13.287
X8.4165Y-13.3657
X8.4165Y-13.4445
X8.4165Y-13.5232
X8.4193Y-4.3898
X8.4193Y-4.4685
X8.4193Y-4.5472
X8.4193Y-4.626
X8.4193Y-4.7047
X8.4193Y-4.7835
X8.4193Y-4.8622
X8.4193Y-4.9409
X8.4193Y-5.0197
X8.4193Y-5.0984
X8.4193Y-5.1772
X8.4193Y-5.2559
X8.4193Y-5.3346
X8.4193Y-5.4134
X8.4193Y-5.4921
X8.4193Y-5.5709
X8.4193Y-10.3543
X8.4193Y-10.4331
X8.4193Y-10.5118
X8.4193Y-10.5906
X8.4193Y-10.6693
X8.4193Y-10.748
X8.4193Y-10.8268
X8.4193Y-10.9055
X8.4193Y-10.9843
X8.4193Y-11.063
X8.4193Y-11.1417
X8.4193Y-11.2205
X8.4193Y-11.2992
X8.4193Y-11.378
X8.4193Y-11.4567
X8.4193Y-11.5354
X8.4193Y-16.3189
X8.4193Y-16.3976
X8.4193Y-16.4764
X8.4193Y-16.5551
X8.4193Y-16.6339
X8.4193Y-16.7126
X8.4193Y-16.7913
X8.4193Y-16.8701
X8.4193Y-16.9488
X8.4193Y-17.0276
X8.4193Y-17.1063
X8.4193Y-17.185
X8.4193Y-17.2638
X8.4193Y-17.3425
X8.4193Y-17.4213
X8.4193Y-17.5
X8.4656Y-4.0748
X8.4656Y-10.0394
X8.4656Y-16.0039
X9.1142Y-4.0748
X9.1142Y-10.0394
X9.1142Y-16.0039
X9.1594Y-4.3898
X9.1594Y-4.4685
X9.1594Y-4.5472
X9.1594Y-4.626
X9.1594Y-4.7047
X9.1594Y-4.7835
X9.1594Y-4.8622
X9.1594Y-4.9409
X9.1594Y-5.0197
X9.1594Y-5.0984
X9.1594Y-5.1772
X9.1594Y-5.2559
X9.1594Y-5.3346
X9.1594Y-5.4134
X9.1594Y-5.4921
X9.1594Y-5.5709
X9.1594Y-10.3543
X9.1594Y-10.4331
X9.1594Y-10.5118
X9.1594Y-10.5906
X9.1594Y-10.6693
X9.1594Y-10.748
X9.1594Y-10.8268
X9.1594Y-10.9055
X9.1594Y-10.9843
X9.1594Y-11.063
X9.1594Y-11.1417
X9.1594Y-11.2205
X9.1594Y-11.2992
X9.1594Y-11.378
X9.1594Y-11.4567
X9.1594Y-11.5354
X9.1594Y-16.3189
X9.1594Y-16.3976
X9.1594Y-16.4764
X9.1594Y-16.5551
X9.1594Y-16.6339
X9.1594Y-16.7126
X9.1594Y-16.7913
X9.1594Y-16.8701
X9.1594Y-16.9488
X9.1594Y-17.0276
X9.1594Y-17.1063
X9.1594Y-17.185
X9.1594Y-17.2638
X9.1594Y-17.3425
X9.1594Y-17.4213
X9.1594Y-17.5
X9.1606Y-0.413
X9.1606Y-0.4917
X9.1606Y-0.5705
X9.1606Y-0.6492
X9.1606Y-0.728
X9.1606Y-0.8067
X9.1606Y-0.8854
X9.1606Y-0.9642
X9.1606Y-1.0429
X9.1606Y-1.1217
X9.1606Y-1.2004
X9.1606Y-1.2791
X9.1606Y-1.3579
X9.1606Y-1.4366
X9.1606Y-1.5154
X9.1606Y-1.5941
X9.1606Y-6.3776
X9.1606Y-6.4563
X9.1606Y-6.535
X9.1606Y-6.6138
X9.1606Y-6.6925
X9.1606Y-6.7713
X9.1606Y-6.85
X9.1606Y-6.9287
X9.1606Y-7.0075
X9.1606Y-7.0862
X9.1606Y-7.165
X9.1606Y-7.2437
X9.1606Y-7.3224
X9.1606Y-7.4012
X9.1606Y-7.4799
X9.1606Y-7.5587
X9.1606Y-12.3421
X9.1606Y-12.4209
X9.1606Y-12.4996
X9.1606Y-12.5783
X9.1606Y-12.6571
X9.1606Y-12.7358
X9.1606Y-12.8146
X9.1606Y-12.8933
X9.1606Y-12.972
X9.1606Y-13.0508
X9.1606Y-13.1295
X9.1606Y-13.2083
X9.1606Y-13.287
X9.1606Y-13.3657
X9.1606Y-13.4445
X9.1606Y-13.5232
X9.1697Y-2.4016
X9.1697Y-2.4803
X9.1697Y-2.5591
X9.1697Y-2.6378
X9.1697Y-2.7165
X9.1697Y-2.7953
X9.1697Y-2.874
X9.1697Y-2.9528
X9.1697Y-3.0315
X9.1697Y-3.1102
X9.1697Y-3.189
X9.1697Y-3.2677
X9.1697Y-3.3465
X9.1697Y-3.4252
X9.1697Y-3.5039
X9.1697Y-3.5827
X9.1697Y-8.3661
X9.1697Y-8.4449
X9.1697Y-8.5236
X9.1697Y-8.6024
X9.1697Y-8.6811
X9.1697Y-8.7598
X9.1697Y-8.8386
X9.1697Y-8.9173
X9.1697Y-8.9961
X9.1697Y-9.0748
X9.1697Y-9.1535
X9.1697Y-9.2323
X9.1697Y-9.311
X9.1697Y-9.3898
X9.1697Y-9.4685
X9.1697Y-9.5472
X9.1697Y-14.3307
X9.1697Y-14.4094
X9.1697Y-14.4882
X9.1697Y-14.5669
X9.1697Y-14.6457
X9.1697Y-14.7244
X9.1697Y-14.8031
X9.1697Y-14.8819
X9.1697Y-14.9606
X9.1697Y-15.0394
X9.1697Y-15.1181
X9.1697Y-15.1969
X9.1697Y-15.2756
X9.1697Y-15.3543
X9.1697Y-15.4331
X9.1697Y-15.5118
X9.2177Y-1.7858
X9.2177Y-7.7504
X9.2177Y-13.715
X9.2179Y-4.1376
X9.2179Y-5.7644
X9.2179Y-10.1022
X9.2179Y-11.7289
X9.2179Y-16.0668
X9.2179Y-17.6935
X9.2815Y-1.7224
X9.2815Y-5.689
X9.2815Y-7.687
X9.2815Y-11.6535
X9.2815Y-13.6516
X9.2815Y-17.6181
X9.7441Y-1.6732
X9.7441Y-7.6378
X9.7441Y-13.6024
X9.7457Y-5.3661
X9.7457Y-11.3307
X9.7457Y-17.2953
X9.7461Y-0.5571
X9.7461Y-0.8406
X9.7461Y-1.124
X9.7461Y-1.4075
X9.7461Y-4.4528
X9.7461Y-4.7362
X9.7461Y-5.0197
X9.7461Y-5.3031
X9.7461Y-6.5217
X9.7461Y-6.8051
X9.7461Y-7.0886
X9.7461Y-7.372
X9.7461Y-10.4173
X9.7461Y-10.7008
X9.7461Y-10.9843
X9.7461Y-11.2677
X9.7461Y-12.4862
X9.7461Y-12.7697
X9.7461Y-13.0531
X9.7461Y-13.3366
X9.7461Y-16.3819
X9.7461Y-16.6654
X9.7461Y-16.9488
X9.7461Y-17.2323
X9.7465Y-1.8169
X9.7465Y-2.1004
X9.7465Y-2.3839
X9.7465Y-3.7598
X9.7465Y-4.1693
X9.7465Y-7.7815
X9.7465Y-8.065
X9.7465Y-8.3484
X9.7465Y-9.7244
X9.7465Y-10.1339
X9.7465Y-13.7461
X9.7465Y-14.0295
X9.7465Y-14.313
X9.7465Y-15.689
X9.7465Y-16.0984
X9.7484Y-4.0256
X9.7484Y-9.9902
X9.7484Y-15.9547
X9.7819Y-4.1063
X9.7819Y-10.0709
X9.7819Y-16.0354
X9.7835Y-1.7087
X9.7835Y-1.7559
X9.7835Y-7.6732
X9.7835Y-7.7205
X9.7835Y-13.6378
X9.7835Y-13.685
X9.7839Y-4.061
X9.7839Y-10.0256
X9.7839Y-15.9902
X9.8189Y-4.0256
X9.8189Y-9.9902
X9.8189Y-15.9547
X9.8199Y-2.1004
X9.8199Y-2.3838
X9.8199Y-8.0649
X9.8199Y-8.3484
X9.8199Y-14.0295
X9.8199Y-14.313
X9.8205Y-1.8169
X9.8205Y-7.7815
X9.8205Y-13.7461
X9.8209Y-0.5571
X9.8209Y-0.8406
X9.8209Y-1.124
X9.8209Y-1.4075
X9.8209Y-3.7598
X9.8209Y-4.1693
X9.8209Y-6.5217
X9.8209Y-6.8051
X9.8209Y-7.0886
X9.8209Y-7.372
X9.8209Y-9.7244
X9.8209Y-10.1339
X9.8209Y-12.4862
X9.8209Y-12.7697
X9.8209Y-13.0531
X9.8209Y-13.3366
X9.8209Y-15.689
X9.8209Y-16.0984
X9.8213Y-4.4528
X9.8213Y-4.7362
X9.8213Y-5.0197
X9.8213Y-5.3031
X9.8213Y-5.3661
X9.8213Y-10.4173
X9.8213Y-10.7008
X9.8213Y-10.9843
X9.8213Y-11.2677
X9.8213Y-11.3307
X9.8213Y-16.3819
X9.8213Y-16.6654
X9.8213Y-16.9488
X9.8213Y-17.2323
X9.8213Y-17.2953
X9.8228Y-1.6732
X9.8228Y-7.6378
X9.8228Y-13.6024
X10.2854Y-1.7224
X10.2854Y-5.689
X10.2854Y-7.687
X10.2854Y-11.6535
X10.2854Y-13.6516
X10.2854Y-17.6181
X10.349Y-5.7644
X10.349Y-11.7289
X10.349Y-17.6935
X10.3492Y-1.7858
X10.3492Y-7.7504
X10.3492Y-13.715
X10.3494Y-4.1376
X10.3494Y-10.1022
X10.3494Y-16.0668
X10.3967Y-2.4015
X10.3967Y-2.4803
X10.3967Y-2.559
X10.3967Y-2.6378
X10.3967Y-2.7165
X10.3967Y-2.7952
X10.3967Y-2.874
X10.3967Y-2.9527
X10.3967Y-3.0315
X10.3967Y-3.1102
X10.3967Y-3.1889
X10.3967Y-3.2677
X10.3967Y-3.3464
X10.3967Y-3.4252
X10.3967Y-3.5039
X10.3967Y-3.5826
X10.3967Y-8.3661
X10.3967Y-8.4449
X10.3967Y-8.5236
X10.3967Y-8.6023
X10.3967Y-8.6811
X10.3967Y-8.7598
X10.3967Y-8.8386
X10.3967Y-8.9173
X10.3967Y-8.996
X10.3967Y-9.0748
X10.3967Y-9.1535
X10.3967Y-9.2323
X10.3967Y-9.311
X10.3967Y-9.3897
X10.3967Y-9.4685
X10.3967Y-9.5472
X10.3967Y-14.3307
X10.3967Y-14.4094
X10.3967Y-14.4882
X10.3967Y-14.5669
X10.3967Y-14.6456
X10.3967Y-14.7244
X10.3967Y-14.8031
X10.3967Y-14.8819
X10.3967Y-14.9606
X10.3967Y-15.0393
X10.3967Y-15.1181
X10.3967Y-15.1968
X10.3967Y-15.2756
X10.3967Y-15.3543
X10.3967Y-15.433
X10.3967Y-15.5118
X10.4047Y-0.413
X10.4047Y-0.4917
X10.4047Y-0.5705
X10.4047Y-0.6492
X10.4047Y-0.728
X10.4047Y-0.8067
X10.4047Y-0.8854
X10.4047Y-0.9642
X10.4047Y-1.0429
X10.4047Y-1.1217
X10.4047Y-1.2004
X10.4047Y-1.2791
X10.4047Y-1.3579
X10.4047Y-1.4366
X10.4047Y-1.5154
X10.4047Y-1.5941
X10.4047Y-6.3776
X10.4047Y-6.4563
X10.4047Y-6.535
X10.4047Y-6.6138
X10.4047Y-6.6925
X10.4047Y-6.7713
X10.4047Y-6.85
X10.4047Y-6.9287
X10.4047Y-7.0075
X10.4047Y-7.0862
X10.4047Y-7.165
X10.4047Y-7.2437
X10.4047Y-7.3224
X10.4047Y-7.4012
X10.4047Y-7.4799
X10.4047Y-7.5587
X10.4047Y-12.3421
X10.4047Y-12.4209
X10.4047Y-12.4996
X10.4047Y-12.5783
X10.4047Y-12.6571
X10.4047Y-12.7358
X10.4047Y-12.8146
X10.4047Y-12.8933
X10.4047Y-12.972
X10.4047Y-13.0508
X10.4047Y-13.1295
X10.4047Y-13.2083
X10.4047Y-13.287
X10.4047Y-13.3657
X10.4047Y-13.4445
X10.4047Y-13.5232
X10.4075Y-4.3898
X10.4075Y-4.4685
X10.4075Y-4.5472
X10.4075Y-4.626
X10.4075Y-4.7047
X10.4075Y-4.7835
X10.4075Y-4.8622
X10.4075Y-4.9409
X10.4075Y-5.0197
X10.4075Y-5.0984
X10.4075Y-5.1772
X10.4075Y-5.2559
X10.4075Y-5.3346
X10.4075Y-5.4134
X10.4075Y-5.4921
X10.4075Y-5.5709
X10.4075Y-10.3543
X10.4075Y-10.4331
X10.4075Y-10.5118
X10.4075Y-10.5906
X10.4075Y-10.6693
X10.4075Y-10.748
X10.4075Y-10.8268
X10.4075Y-10.9055
X10.4075Y-10.9843
X10.4075Y-11.063
X10.4075Y-11.1417
X10.4075Y-11.2205
X10.4075Y-11.2992
X10.4075Y-11.378
X10.4075Y-11.4567
X10.4075Y-11.5354
X10.4075Y-16.3189
X10.4075Y-16.3976
X10.4075Y-16.4764
X10.4075Y-16.5551
X10.4075Y-16.6339
X10.4075Y-16.7126
X10.4075Y-16.7913
X10.4075Y-16.8701
X10.4075Y-16.9488
X10.4075Y-17.0276
X10.4075Y-17.1063
X10.4075Y-17.185
X10.4075Y-17.2638
X10.4075Y-17.3425
X10.4075Y-17.4213
X10.4075Y-17.5
X10.4538Y-4.0748
X10.4538Y-10.0394
X10.4538Y-16.0039
X11.1024Y-4.0748
X11.1024Y-10.0394
X11.1024Y-16.0039
X11.1476Y-4.3898
X11.1476Y-4.4685
X11.1476Y-4.5472
X11.1476Y-4.626
X11.1476Y-4.7047
X11.1476Y-4.7835
X11.1476Y-4.8622
X11.1476Y-4.9409
X11.1476Y-5.0197
X11.1476Y-5.0984
X11.1476Y-5.1772
X11.1476Y-5.2559
X11.1476Y-5.3346
X11.1476Y-5.4134
X11.1476Y-5.4921
X11.1476Y-5.5709
X11.1476Y-10.3543
X11.1476Y-10.4331
X11.1476Y-10.5118
X11.1476Y-10.5906
X11.1476Y-10.6693
X11.1476Y-10.748
X11.1476Y-10.8268
X11.1476Y-10.9055
X11.1476Y-10.9843
X11.1476Y-11.063
X11.1476Y-11.1417
X11.1476Y-11.2205
X11.1476Y-11.2992
X11.1476Y-11.378
X11.1476Y-11.4567
X11.1476Y-11.5354
X11.1476Y-16.3189
X11.1476Y-16.3976
X11.1476Y-16.4764
X11.1476Y-16.5551
X11.1476Y-16.6339
X11.1476Y-16.7126
X11.1476Y-16.7913
X11.1476Y-16.8701
X11.1476Y-16.9488
X11.1476Y-17.0276
X11.1476Y-17.1063
X11.1476Y-17.185
X11.1476Y-17.2638
X11.1476Y-17.3425
X11.1476Y-17.4213
X11.1476Y-17.5
X11.1488Y-0.413
X11.1488Y-0.4917
X11.1488Y-0.5705
X11.1488Y-0.6492
X11.1488Y-0.728
X11.1488Y-0.8067
X11.1488Y-0.8854
X11.1488Y-0.9642
X11.1488Y-1.0429
X11.1488Y-1.1217
X11.1488Y-1.2004
X11.1488Y-1.2791
X11.1488Y-1.3579
X11.1488Y-1.4366
X11.1488Y-1.5154
X11.1488Y-1.5941
X11.1488Y-6.3776
X11.1488Y-6.4563
X11.1488Y-6.535
X11.1488Y-6.6138
X11.1488Y-6.6925
X11.1488Y-6.7713
X11.1488Y-6.85
X11.1488Y-6.9287
X11.1488Y-7.0075
X11.1488Y-7.0862
X11.1488Y-7.165
X11.1488Y-7.2437
X11.1488Y-7.3224
X11.1488Y-7.4012
X11.1488Y-7.4799
X11.1488Y-7.5587
X11.1488Y-12.3421
X11.1488Y-12.4209
X11.1488Y-12.4996
X11.1488Y-12.5783
X11.1488Y-12.6571
X11.1488Y-12.7358
X11.1488Y-12.8146
X11.1488Y-12.8933
X11.1488Y-12.972
X11.1488Y-13.0508
X11.1488Y-13.1295
X11.1488Y-13.2083
X11.1488Y-13.287
X11.1488Y-13.3657
X11.1488Y-13.4445
X11.1488Y-13.5232
X11.1579Y-2.4016
X11.1579Y-2.4803
X11.1579Y-2.5591
X11.1579Y-2.6378
X11.1579Y-2.7165
X11.1579Y-2.7953
X11.1579Y-2.874
X11.1579Y-2.9528
X11.1579Y-3.0315
X11.1579Y-3.1102
X11.1579Y-3.189
X11.1579Y-3.2677
X11.1579Y-3.3465
X11.1579Y-3.4252
X11.1579Y-3.5039
X11.1579Y-3.5827
X11.1579Y-8.3661
X11.1579Y-8.4449
X11.1579Y-8.5236
X11.1579Y-8.6024
X11.1579Y-8.6811
X11.1579Y-8.7598
X11.1579Y-8.8386
X11.1579Y-8.9173
X11.1579Y-8.9961
X11.1579Y-9.0748
X11.1579Y-9.1535
X11.1579Y-9.2323
X11.1579Y-9.311
X11.1579Y-9.3898
X11.1579Y-9.4685
X11.1579Y-9.5472
X11.1579Y-14.3307
X11.1579Y-14.4094
X11.1579Y-14.4882
X11.1579Y-14.5669
X11.1579Y-14.6457
X11.1579Y-14.7244
X11.1579Y-14.8031
X11.1579Y-14.8819
X11.1579Y-14.9606
X11.1579Y-15.0394
X11.1579Y-15.1181
X11.1579Y-15.1969
X11.1579Y-15.2756
X11.1579Y-15.3543
X11.1579Y-15.4331
X11.1579Y-15.5118
X11.2059Y-1.7858
X11.2059Y-7.7504
X11.2059Y-13.715
X11.2061Y-4.1376
X11.2061Y-5.7644
X11.2061Y-10.1022
X11.2061Y-11.7289
X11.2061Y-16.0668
X11.2061Y-17.6935
X11.2697Y-1.7224
X11.2697Y-5.689
X11.2697Y-7.687
X11.2697Y-11.6535
X11.2697Y-13.6516
X11.2697Y-17.6181
X11.7323Y-1.6732
X11.7323Y-7.6378
X11.7323Y-13.6024
X11.7339Y-5.3661
X11.7339Y-11.3307
X11.7339Y-17.2953
X11.7343Y-0.5571
X11.7343Y-0.8406
X11.7343Y-1.124
X11.7343Y-1.4075
X11.7343Y-4.4528
X11.7343Y-4.7362
X11.7343Y-5.0197
X11.7343Y-5.3031
X11.7343Y-6.5217
X11.7343Y-6.8051
X11.7343Y-7.0886
X11.7343Y-7.372
X11.7343Y-10.4173
X11.7343Y-10.7008
X11.7343Y-10.9843
X11.7343Y-11.2677
X11.7343Y-12.4862
X11.7343Y-12.7697
X11.7343Y-13.0531
X11.7343Y-13.3366
X11.7343Y-16.3819
X11.7343Y-16.6654
X11.7343Y-16.9488
X11.7343Y-17.2323
X11.7346Y-1.8169
X11.7346Y-2.1004
X11.7346Y-2.3839
X11.7346Y-3.7598
X11.7346Y-4.1693
X11.7346Y-7.7815
X11.7346Y-8.065
X11.7346Y-8.3484
X11.7346Y-9.7244
X11.7346Y-10.1339
X11.7346Y-13.7461
X11.7346Y-14.0295
X11.7346Y-14.313
X11.7346Y-15.689
X11.7346Y-16.0984
X11.7366Y-4.0256
X11.7366Y-9.9902
X11.7366Y-15.9547
X11.7701Y-4.1063
X11.7701Y-10.0709
X11.7701Y-16.0354
X11.7717Y-1.7087
X11.7717Y-1.7559
X11.7717Y-7.6732
X11.7717Y-7.7205
X11.7717Y-13.6378
X11.7717Y-13.685
X11.772Y-4.061
X11.772Y-10.0256
X11.772Y-15.9902
X11.8071Y-4.0256
X11.8071Y-9.9902
X11.8071Y-15.9547
X11.8081Y-2.1004
X11.8081Y-2.3838
X11.8081Y-8.0649
X11.8081Y-8.3484
X11.8081Y-14.0295
X11.8081Y-14.313
X11.8087Y-1.8169
X11.8087Y-7.7815
X11.8087Y-13.7461
X11.8091Y-0.5571
X11.8091Y-0.8406
X11.8091Y-1.124
X11.8091Y-1.4075
X11.8091Y-3.7598
X11.8091Y-4.1693
X11.8091Y-6.5217
X11.8091Y-6.8051
X11.8091Y-7.0886
X11.8091Y-7.372
X11.8091Y-9.7244
X11.8091Y-10.1339
X11.8091Y-12.4862
X11.8091Y-12.7697
X11.8091Y-13.0531
X11.8091Y-13.3366
X11.8091Y-15.689
X11.8091Y-16.0984
X11.8094Y-4.4528
X11.8094Y-4.7362
X11.8094Y-5.0197
X11.8094Y-5.3031
X11.8094Y-5.3661
X11.8094Y-10.4173
X11.8094Y-10.7008
X11.8094Y-10.9843
X11.8094Y-11.2677
X11.8094Y-11.3307
X11.8094Y-16.3819
X11.8094Y-16.6654
X11.8094Y-16.9488
X11.8094Y-17.2323
X11.8094Y-17.2953
X11.811Y-1.6732
X11.811Y-7.6378
X11.811Y-13.6024
X12.2736Y-1.7224
X12.2736Y-5.689
X12.2736Y-7.687
X12.2736Y-11.6535
X12.2736Y-13.6516
X12.2736Y-17.6181
X12.3372Y-5.7644
X12.3372Y-11.7289
X12.3372Y-17.6935
X12.3374Y-1.7858
X12.3374Y-7.7504
X12.3374Y-13.715
X12.3376Y-4.1376
X12.3376Y-10.1022
X12.3376Y-16.0668
X12.3849Y-2.4015
X12.3849Y-2.4803
X12.3849Y-2.559
X12.3849Y-2.6378
X12.3849Y-2.7165
X12.3849Y-2.7952
X12.3849Y-2.874
X12.3849Y-2.9527
X12.3849Y-3.0315
X12.3849Y-3.1102
X12.3849Y-3.1889
X12.3849Y-3.2677
X12.3849Y-3.3464
X12.3849Y-3.4252
X12.3849Y-3.5039
X12.3849Y-3.5826
X12.3849Y-8.3661
X12.3849Y-8.4449
X12.3849Y-8.5236
X12.3849Y-8.6023
X12.3849Y-8.6811
X12.3849Y-8.7598
X12.3849Y-8.8386
X12.3849Y-8.9173
X12.3849Y-8.996
X12.3849Y-9.0748
X12.3849Y-9.1535
X12.3849Y-9.2323
X12.3849Y-9.311
X12.3849Y-9.3897
X12.3849Y-9.4685
X12.3849Y-9.5472
X12.3849Y-14.3307
X12.3849Y-14.4094
X12.3849Y-14.4882
X12.3849Y-14.5669
X12.3849Y-14.6456
X12.3849Y-14.7244
X12.3849Y-14.8031
X12.3849Y-14.8819
X12.3849Y-14.9606
X12.3849Y-15.0393
X12.3849Y-15.1181
X12.3849Y-15.1968
X12.3849Y-15.2756
X12.3849Y-15.3543
X12.3849Y-15.433
X12.3849Y-15.5118
X12.3929Y-0.413
X12.3929Y-0.4917
X12.3929Y-0.5705
X12.3929Y-0.6492
X12.3929Y-0.728
X12.3929Y-0.8067
X12.3929Y-0.8854
X12.3929Y-0.9642
X12.3929Y-1.0429
X12.3929Y-1.1217
X12.3929Y-1.2004
X12.3929Y-1.2791
X12.3929Y-1.3579
X12.3929Y-1.4366
X12.3929Y-1.5154
X12.3929Y-1.5941
X12.3929Y-6.3776
X12.3929Y-6.4563
X12.3929Y-6.535
X12.3929Y-6.6138
X12.3929Y-6.6925
X12.3929Y-6.7713
X12.3929Y-6.85
X12.3929Y-6.9287
X12.3929Y-7.0075
X12.3929Y-7.0862
X12.3929Y-7.165
X12.3929Y-7.2437
X12.3929Y-7.3224
X12.3929Y-7.4012
X12.3929Y-7.4799
X12.3929Y-7.5587
X12.3929Y-12.3421
X12.3929Y-12.4209
X12.3929Y-12.4996
X12.3929Y-12.5783
X12.3929Y-12.6571
X12.3929Y-12.7358
X12.3929Y-12.8146
X12.3929Y-12.8933
X12.3929Y-12.972
X12.3929Y-13.0508
X12.3929Y-13.1295
X12.3929Y-13.2083
X12.3929Y-13.287
X12.3929Y-13.3657
X12.3929Y-13.4445
X12.3929Y-13.5232
X12.3957Y-4.3898
X12.3957Y-4.4685
X12.3957Y-4.5472
X12.3957Y-4.626
X12.3957Y-4.7047
X12.3957Y-4.7835
X12.3957Y-4.8622
X12.3957Y-4.9409
X12.3957Y-5.0197
X12.3957Y-5.0984
X12.3957Y-5.1772
X12.3957Y-5.2559
X12.3957Y-5.3346
X12.3957Y-5.4134
X12.3957Y-5.4921
X12.3957Y-5.5709
X12.3957Y-10.3543
X12.3957Y-10.4331
X12.3957Y-10.5118
X12.3957Y-10.5906
X12.3957Y-10.6693
X12.3957Y-10.748
X12.3957Y-10.8268
X12.3957Y-10.9055
X12.3957Y-10.9843
X12.3957Y-11.063
X12.3957Y-11.1417
X12.3957Y-11.2205
X12.3957Y-11.2992
X12.3957Y-11.378
X12.3957Y-11.4567
X12.3957Y-11.5354
X12.3957Y-16.3189
X12.3957Y-16.3976
X12.3957Y-16.4764
X12.3957Y-16.5551
X12.3957Y-16.6339
X12.3957Y-16.7126
X12.3957Y-16.7913
X12.3957Y-16.8701
X12.3957Y-16.9488
X12.3957Y-17.0276
X12.3957Y-17.1063
X12.3957Y-17.185
X12.3957Y-17.2638
X12.3957Y-17.3425
X12.3957Y-17.4213
X12.3957Y-17.5
X12.442Y-4.0748
X12.442Y-10.0394
X12.442Y-16.0039
X13.0906Y-4.0748
X13.0906Y-10.0394
X13.0906Y-16.0039
X13.1358Y-4.3898
X13.1358Y-4.4685
X13.1358Y-4.5472
X13.1358Y-4.626
X13.1358Y-4.7047
X13.1358Y-4.7835
X13.1358Y-4.8622
X13.1358Y-4.9409
X13.1358Y-5.0197
X13.1358Y-5.0984
X13.1358Y-5.1772
X13.1358Y-5.2559
X13.1358Y-5.3346
X13.1358Y-5.4134
X13.1358Y-5.4921
X13.1358Y-5.5709
X13.1358Y-10.3543
X13.1358Y-10.4331
X13.1358Y-10.5118
X13.1358Y-10.5906
X13.1358Y-10.6693
X13.1358Y-10.748
X13.1358Y-10.8268
X13.1358Y-10.9055
X13.1358Y-10.9843
X13.1358Y-11.063
X13.1358Y-11.1417
X13.1358Y-11.2205
X13.1358Y-11.2992
X13.1358Y-11.378
X13.1358Y-11.4567
X13.1358Y-11.5354
X13.1358Y-16.3189
X13.1358Y-16.3976
X13.1358Y-16.4764
X13.1358Y-16.5551
X13.1358Y-16.6339
X13.1358Y-16.7126
X13.1358Y-16.7913
X13.1358Y-16.8701
X13.1358Y-16.9488
X13.1358Y-17.0276
X13.1358Y-17.1063
X13.1358Y-17.185
X13.1358Y-17.2638
X13.1358Y-17.3425
X13.1358Y-17.4213
X13.1358Y-17.5
X13.137Y-0.413
X13.137Y-0.4917
X13.137Y-0.5705
X13.137Y-0.6492
X13.137Y-0.728
X13.137Y-0.8067
X13.137Y-0.8854
X13.137Y-0.9642
X13.137Y-1.0429
X13.137Y-1.1217
X13.137Y-1.2004
X13.137Y-1.2791
X13.137Y-1.3579
X13.137Y-1.4366
X13.137Y-1.5154
X13.137Y-1.5941
X13.137Y-6.3776
X13.137Y-6.4563
X13.137Y-6.535
X13.137Y-6.6138
X13.137Y-6.6925
X13.137Y-6.7713
X13.137Y-6.85
X13.137Y-6.9287
X13.137Y-7.0075
X13.137Y-7.0862
X13.137Y-7.165
X13.137Y-7.2437
X13.137Y-7.3224
X13.137Y-7.4012
X13.137Y-7.4799
X13.137Y-7.5587
X13.137Y-12.3421
X13.137Y-12.4209
X13.137Y-12.4996
X13.137Y-12.5783
X13.137Y-12.6571
X13.137Y-12.7358
X13.137Y-12.8146
X13.137Y-12.8933
X13.137Y-12.972
X13.137Y-13.0508
X13.137Y-13.1295
X13.137Y-13.2083
X13.137Y-13.287
X13.137Y-13.3657
X13.137Y-13.4445
X13.137Y-13.5232
X13.1461Y-2.4016
X13.1461Y-2.4803
X13.1461Y-2.5591
X13.1461Y-2.6378
X13.1461Y-2.7165
X13.1461Y-2.7953
X13.1461Y-2.874
X13.1461Y-2.9528
X13.1461Y-3.0315
X13.1461Y-3.1102
X13.1461Y-3.189
X13.1461Y-3.2677
X13.1461Y-3.3465
X13.1461Y-3.4252
X13.1461Y-3.5039
X13.1461Y-3.5827
X13.1461Y-8.3661
X13.1461Y-8.4449
X13.1461Y-8.5236
X13.1461Y-8.6024
X13.1461Y-8.6811
X13.1461Y-8.7598
X13.1461Y-8.8386
X13.1461Y-8.9173
X13.1461Y-8.9961
X13.1461Y-9.0748
X13.1461Y-9.1535
X13.1461Y-9.2323
X13.1461Y-9.311
X13.1461Y-9.3898
X13.1461Y-9.4685
X13.1461Y-9.5472
X13.1461Y-14.3307
X13.1461Y-14.4094
X13.1461Y-14.4882
X13.1461Y-14.5669
X13.1461Y-14.6457
X13.1461Y-14.7244
X13.1461Y-14.8031
X13.1461Y-14.8819
X13.1461Y-14.9606
X13.1461Y-15.0394
X13.1461Y-15.1181
X13.1461Y-15.1969
X13.1461Y-15.2756
X13.1461Y-15.3543
X13.1461Y-15.4331
X13.1461Y-15.5118
X13.1941Y-1.7858
X13.1941Y-7.7504
X13.1941Y-13.715
X13.1943Y-4.1376
X13.1943Y-5.7644
X13.1943Y-10.1022
X13.1943Y-11.7289
X13.1943Y-16.0668
X13.1943Y-17.6935
X13.2579Y-1.7224
X13.2579Y-5.689
X13.2579Y-7.687
X13.2579Y-11.6535
X13.2579Y-13.6516
X13.2579Y-17.6181
X13.7205Y-1.6732
X13.7205Y-7.6378
X13.7205Y-13.6024
X13.722Y-5.3661
X13.722Y-11.3307
X13.722Y-17.2953
X13.7224Y-0.5571
X13.7224Y-0.8406
X13.7224Y-1.124
X13.7224Y-1.4075
X13.7224Y-4.4528
X13.7224Y-4.7362
X13.7224Y-5.0197
X13.7224Y-5.3031
X13.7224Y-6.5217
X13.7224Y-6.8051
X13.7224Y-7.0886
X13.7224Y-7.372
X13.7224Y-10.4173
X13.7224Y-10.7008
X13.7224Y-10.9843
X13.7224Y-11.2677
X13.7224Y-12.4862
X13.7224Y-12.7697
X13.7224Y-13.0531
X13.7224Y-13.3366
X13.7224Y-16.3819
X13.7224Y-16.6654
X13.7224Y-16.9488
X13.7224Y-17.2323
X13.7228Y-1.8169
X13.7228Y-2.1004
X13.7228Y-2.3839
X13.7228Y-3.7598
X13.7228Y-4.1693
X13.7228Y-7.7815
X13.7228Y-8.065
X13.7228Y-8.3484
X13.7228Y-9.7244
X13.7228Y-10.1339
X13.7228Y-13.7461
X13.7228Y-14.0295
X13.7228Y-14.313
X13.7228Y-15.689
X13.7228Y-16.0984
X13.7248Y-4.0256
X13.7248Y-9.9902
X13.7248Y-15.9547
X13.7583Y-4.1063
X13.7583Y-10.0709
X13.7583Y-16.0354
X13.7598Y-1.7087
X13.7598Y-1.7559
X13.7598Y-7.6732
X13.7598Y-7.7205
X13.7598Y-13.6378
X13.7598Y-13.685
X13.7602Y-4.061
X13.7602Y-10.0256
X13.7602Y-15.9902
X13.7953Y-4.0256
X13.7953Y-9.9902
X13.7953Y-15.9547
X13.7963Y-2.1004
X13.7963Y-2.3838
X13.7963Y-8.0649
X13.7963Y-8.3484
X13.7963Y-14.0295
X13.7963Y-14.313
X13.7969Y-1.8169
X13.7969Y-7.7815
X13.7969Y-13.7461
X13.7972Y-0.5571
X13.7972Y-0.8406
X13.7972Y-1.124
X13.7972Y-1.4075
X13.7972Y-3.7598
X13.7972Y-4.1693
X13.7972Y-6.5217
X13.7972Y-6.8051
X13.7972Y-7.0886
X13.7972Y-7.372
X13.7972Y-9.7244
X13.7972Y-10.1339
X13.7972Y-12.4862
X13.7972Y-12.7697
X13.7972Y-13.0531
X13.7972Y-13.3366
X13.7972Y-15.689
X13.7972Y-16.0984
X13.7976Y-4.4528
X13.7976Y-4.7362
X13.7976Y-5.0197
X13.7976Y-5.3031
X13.7976Y-5.3661
X13.7976Y-10.4173
X13.7976Y-10.7008
X13.7976Y-10.9843
X13.7976Y-11.2677
X13.7976Y-11.3307
X13.7976Y-16.3819
X13.7976Y-16.6654
X13.7976Y-16.9488
X13.7976Y-17.2323
X13.7976Y-17.2953
X13.7992Y-1.6732
X13.7992Y-7.6378
X13.7992Y-13.6024
X14.2618Y-1.7224
X14.2618Y-5.689
X14.2618Y-7.687
X14.2618Y-11.6535
X14.2618Y-13.6516
X14.2618Y-17.6181
X14.3254Y-5.7644
X14.3254Y-11.7289
X14.3254Y-17.6935
X14.3256Y-1.7858
X14.3256Y-7.7504
X14.3256Y-13.715
X14.3258Y-4.1376
X14.3258Y-10.1022
X14.3258Y-16.0668
X14.3731Y-2.4015
X14.3731Y-2.4803
X14.3731Y-2.559
X14.3731Y-2.6378
X14.3731Y-2.7165
X14.3731Y-2.7952
X14.3731Y-2.874
X14.3731Y-2.9527
X14.3731Y-3.0315
X14.3731Y-3.1102
X14.3731Y-3.1889
X14.3731Y-3.2677
X14.3731Y-3.3464
X14.3731Y-3.4252
X14.3731Y-3.5039
X14.3731Y-3.5826
X14.3731Y-8.3661
X14.3731Y-8.4449
X14.3731Y-8.5236
X14.3731Y-8.6023
X14.3731Y-8.6811
X14.3731Y-8.7598
X14.3731Y-8.8386
X14.3731Y-8.9173
X14.3731Y-8.996
X14.3731Y-9.0748
X14.3731Y-9.1535
X14.3731Y-9.2323
X14.3731Y-9.311
X14.3731Y-9.3897
X14.3731Y-9.4685
X14.3731Y-9.5472
X14.3731Y-14.3307
X14.3731Y-14.4094
X14.3731Y-14.4882
X14.3731Y-14.5669
X14.3731Y-14.6456
X14.3731Y-14.7244
X14.3731Y-14.8031
X14.3731Y-14.8819
X14.3731Y-14.9606
X14.3731Y-15.0393
X14.3731Y-15.1181
X14.3731Y-15.1968
X14.3731Y-15.2756
X14.3731Y-15.3543
X14.3731Y-15.433
X14.3731Y-15.5118
X14.3811Y-0.413
X14.3811Y-0.4917
X14.3811Y-0.5705
X14.3811Y-0.6492
X14.3811Y-0.728
X14.3811Y-0.8067
X14.3811Y-0.8854
X14.3811Y-0.9642
X14.3811Y-1.0429
X14.3811Y-1.1217
X14.3811Y-1.2004
X14.3811Y-1.2791
X14.3811Y-1.3579
X14.3811Y-1.4366
X14.3811Y-1.5154
X14.3811Y-1.5941
X14.3811Y-6.3776
X14.3811Y-6.4563
X14.3811Y-6.535
X14.3811Y-6.6138
X14.3811Y-6.6925
X14.3811Y-6.7713
X14.3811Y-6.85
X14.3811Y-6.9287
X14.3811Y-7.0075
X14.3811Y-7.0862
X14.3811Y-7.165
X14.3811Y-7.2437
X14.3811Y-7.3224
X14.3811Y-7.4012
X14.3811Y-7.4799
X14.3811Y-7.5587
X14.3811Y-12.3421
X14.3811Y-12.4209
X14.3811Y-12.4996
X14.3811Y-12.5783
X14.3811Y-12.6571
X14.3811Y-12.7358
X14.3811Y-12.8146
X14.3811Y-12.8933
X14.3811Y-12.972
X14.3811Y-13.0508
X14.3811Y-13.1295
X14.3811Y-13.2083
X14.3811Y-13.287
X14.3811Y-13.3657
X14.3811Y-13.4445
X14.3811Y-13.5232
X14.3839Y-4.3898
X14.3839Y-4.4685
X14.3839Y-4.5472
X14.3839Y-4.626
X14.3839Y-4.7047
X14.3839Y-4.7835
X14.3839Y-4.8622
X14.3839Y-4.9409
X14.3839Y-5.0197
X14.3839Y-5.0984
X14.3839Y-5.1772
X14.3839Y-5.2559
X14.3839Y-5.3346
X14.3839Y-5.4134
X14.3839Y-5.4921
X14.3839Y-5.5709
X14.3839Y-10.3543
X14.3839Y-10.4331
X14.3839Y-10.5118
X14.3839Y-10.5906
X14.3839Y-10.6693
X14.3839Y-10.748
X14.3839Y-10.8268
X14.3839Y-10.9055
X14.3839Y-10.9843
X14.3839Y-11.063
X14.3839Y-11.1417
X14.3839Y-11.2205
X14.3839Y-11.2992
X14.3839Y-11.378
X14.3839Y-11.4567
X14.3839Y-11.5354
X14.3839Y-16.3189
X14.3839Y-16.3976
X14.3839Y-16.4764
X14.3839Y-16.5551
X14.3839Y-16.6339
X14.3839Y-16.7126
X14.3839Y-16.7913
X14.3839Y-16.8701
X14.3839Y-16.9488
X14.3839Y-17.0276
X14.3839Y-17.1063
X14.3839Y-17.185
X14.3839Y-17.2638
X14.3839Y-17.3425
X14.3839Y-17.4213
X14.3839Y-17.5
X14.4302Y-4.0748
X14.4302Y-10.0394
X14.4302Y-16.0039
X15.0787Y-4.0748
X15.0787Y-10.0394
X15.0787Y-16.0039
X15.124Y-4.3898
X15.124Y-4.4685
X15.124Y-4.5472
X15.124Y-4.626
X15.124Y-4.7047
X15.124Y-4.7835
X15.124Y-4.8622
X15.124Y-4.9409
X15.124Y-5.0197
X15.124Y-5.0984
X15.124Y-5.1772
X15.124Y-5.2559
X15.124Y-5.3346
X15.124Y-5.4134
X15.124Y-5.4921
X15.124Y-5.5709
X15.124Y-10.3543
X15.124Y-10.4331
X15.124Y-10.5118
X15.124Y-10.5906
X15.124Y-10.6693
X15.124Y-10.748
X15.124Y-10.8268
X15.124Y-10.9055
X15.124Y-10.9843
X15.124Y-11.063
X15.124Y-11.1417
X15.124Y-11.2205
X15.124Y-11.2992
X15.124Y-11.378
X15.124Y-11.4567
X15.124Y-11.5354
X15.124Y-16.3189
X15.124Y-16.3976
X15.124Y-16.4764
X15.124Y-16.5551
X15.124Y-16.6339
X15.124Y-16.7126
X15.124Y-16.7913
X15.124Y-16.8701
X15.124Y-16.9488
X15.124Y-17.0276
X15.124Y-17.1063
X15.124Y-17.185
X15.124Y-17.2638
X15.124Y-17.3425
X15.124Y-17.4213
X15.124Y-17.5
X15.1252Y-0.413
X15.1252Y-0.4917
X15.1252Y-0.5705
X15.1252Y-0.6492
X15.1252Y-0.728
X15.1252Y-0.8067
X15.1252Y-0.8854
X15.1252Y-0.9642
X15.1252Y-1.0429
X15.1252Y-1.1217
X15.1252Y-1.2004
X15.1252Y-1.2791
X15.1252Y-1.3579
X15.1252Y-1.4366
X15.1252Y-1.5154
X15.1252Y-1.5941
X15.1252Y-6.3776
X15.1252Y-6.4563
X15.1252Y-6.535
X15.1252Y-6.6138
X15.1252Y-6.6925
X15.1252Y-6.7713
X15.1252Y-6.85
X15.1252Y-6.9287
X15.1252Y-7.0075
X15.1252Y-7.0862
X15.1252Y-7.165
X15.1252Y-7.2437
X15.1252Y-7.3224
X15.1252Y-7.4012
X15.1252Y-7.4799
X15.1252Y-7.5587
X15.1252Y-12.3421
X15.1252Y-12.4209
X15.1252Y-12.4996
X15.1252Y-12.5783
X15.1252Y-12.6571
X15.1252Y-12.7358
X15.1252Y-12.8146
X15.1252Y-12.8933
X15.1252Y-12.972
X15.1252Y-13.0508
X15.1252Y-13.1295
X15.1252Y-13.2083
X15.1252Y-13.287
X15.1252Y-13.3657
X15.1252Y-13.4445
X15.1252Y-13.5232
X15.1343Y-2.4016
X15.1343Y-2.4803
X15.1343Y-2.5591
X15.1343Y-2.6378
X15.1343Y-2.7165
X15.1343Y-2.7953
X15.1343Y-2.874
X15.1343Y-2.9528
X15.1343Y-3.0315
X15.1343Y-3.1102
X15.1343Y-3.189
X15.1343Y-3.2677
X15.1343Y-3.3465
X15.1343Y-3.4252
X15.1343Y-3.5039
X15.1343Y-3.5827
X15.1343Y-8.3661
X15.1343Y-8.4449
X15.1343Y-8.5236
X15.1343Y-8.6024
X15.1343Y-8.6811
X15.1343Y-8.7598
X15.1343Y-8.8386
X15.1343Y-8.9173
X15.1343Y-8.9961
X15.1343Y-9.0748
X15.1343Y-9.1535
X15.1343Y-9.2323
X15.1343Y-9.311
X15.1343Y-9.3898
X15.1343Y-9.4685
X15.1343Y-9.5472
X15.1343Y-14.3307
X15.1343Y-14.4094
X15.1343Y-14.4882
X15.1343Y-14.5669
X15.1343Y-14.6457
X15.1343Y-14.7244
X15.1343Y-14.8031
X15.1343Y-14.8819
X15.1343Y-14.9606
X15.1343Y-15.0394
X15.1343Y-15.1181
X15.1343Y-15.1969
X15.1343Y-15.2756
X15.1343Y-15.3543
X15.1343Y-15.4331
X15.1343Y-15.5118
X15.1823Y-1.7858
X15.1823Y-7.7504
X15.1823Y-13.715
X15.1825Y-4.1376
X15.1825Y-5.7644
X15.1825Y-10.1022
X15.1825Y-11.7289
X15.1825Y-16.0668
X15.1825Y-17.6935
X15.2461Y-1.7224
X15.2461Y-5.689
X15.2461Y-7.687
X15.2461Y-11.6535
X15.2461Y-13.6516
X15.2461Y-17.6181
X15.7087Y-1.6732
X15.7087Y-7.6378
X15.7087Y-13.6024
X15.7102Y-5.3661
X15.7102Y-11.3307
X15.7102Y-17.2953
X15.7106Y-0.5571
X15.7106Y-0.8406
X15.7106Y-1.124
X15.7106Y-1.4075
X15.7106Y-4.4528
X15.7106Y-4.7362
X15.7106Y-5.0197
X15.7106Y-5.3031
X15.7106Y-6.5217
X15.7106Y-6.8051
X15.7106Y-7.0886
X15.7106Y-7.372
X15.7106Y-10.4173
X15.7106Y-10.7008
X15.7106Y-10.9843
X15.7106Y-11.2677
X15.7106Y-12.4862
X15.7106Y-12.7697
X15.7106Y-13.0531
X15.7106Y-13.3366
X15.7106Y-16.3819
X15.7106Y-16.6654
X15.7106Y-16.9488
X15.7106Y-17.2323
X15.711Y-1.8169
X15.711Y-2.1004
X15.711Y-2.3839
X15.711Y-3.7598
X15.711Y-4.1693
X15.711Y-7.7815
X15.711Y-8.065
X15.711Y-8.3484
X15.711Y-9.7244
X15.711Y-10.1339
X15.711Y-13.7461
X15.711Y-14.0295
X15.711Y-14.313
X15.711Y-15.689
X15.711Y-16.0984
X15.713Y-4.0256
X15.713Y-9.9902
X15.713Y-15.9547
X15.7465Y-4.1063
X15.7465Y-10.0709
X15.7465Y-16.0354
X15.748Y-1.7087
X15.748Y-1.7559
X15.748Y-7.6732
X15.748Y-7.7205
X15.748Y-13.6378
X15.748Y-13.685
X15.7484Y-4.061
X15.7484Y-10.0256
X15.7484Y-15.9902
X15.7835Y-4.0256
X15.7835Y-9.9902
X15.7835Y-15.9547
X15.7845Y-2.1004
X15.7845Y-2.3838
X15.7845Y-8.0649
X15.7845Y-8.3484
X15.7845Y-14.0295
X15.7845Y-14.313
X15.785Y-1.8169
X15.785Y-7.7815
X15.785Y-13.7461
X15.7854Y-0.5571
X15.7854Y-0.8406
X15.7854Y-1.124
X15.7854Y-1.4075
X15.7854Y-3.7598
X15.7854Y-4.1693
X15.7854Y-6.5217
X15.7854Y-6.8051
X15.7854Y-7.0886
X15.7854Y-7.372
X15.7854Y-9.7244
X15.7854Y-10.1339
X15.7854Y-12.4862
X15.7854Y-12.7697
X15.7854Y-13.0531
X15.7854Y-13.3366
X15.7854Y-15.689
X15.7854Y-16.0984
X15.7858Y-4.4528
X15.7858Y-4.7362
X15.7858Y-5.0197
X15.7858Y-5.3031
X15.7858Y-5.3661
X15.7858Y-10.4173
X15.7858Y-10.7008
X15.7858Y-10.9843
X15.7858Y-11.2677
X15.7858Y-11.3307
X15.7858Y-16.3819
X15.7858Y-16.6654
X15.7858Y-16.9488
X15.7858Y-17.2323
X15.7858Y-17.2953
X15.7874Y-1.6732
X15.7874Y-7.6378
X15.7874Y-13.6024
X16.25Y-1.7224
X16.25Y-5.689
X16.25Y-7.687
X16.25Y-11.6535
X16.25Y-13.6516
X16.25Y-17.6181
X16.3136Y-5.7644
X16.3136Y-11.7289
X16.3136Y-17.6935
X16.3138Y-1.7858
X16.3138Y-7.7504
X16.3138Y-13.715
X16.314Y-4.1376
X16.314Y-10.1022
X16.314Y-16.0668
X16.3613Y-2.4015
X16.3613Y-2.4803
X16.3613Y-2.559
X16.3613Y-2.6378
X16.3613Y-2.7165
X16.3613Y-2.7952
X16.3613Y-2.874
X16.3613Y-2.9527
X16.3613Y-3.0315
X16.3613Y-3.1102
X16.3613Y-3.1889
X16.3613Y-3.2677
X16.3613Y-3.3464
X16.3613Y-3.4252
X16.3613Y-3.5039
X16.3613Y-3.5826
X16.3613Y-8.3661
X16.3613Y-8.4449
X16.3613Y-8.5236
X16.3613Y-8.6023
X16.3613Y-8.6811
X16.3613Y-8.7598
X16.3613Y-8.8386
X16.3613Y-8.9173
X16.3613Y-8.996
X16.3613Y-9.0748
X16.3613Y-9.1535
X16.3613Y-9.2323
X16.3613Y-9.311
X16.3613Y-9.3897
X16.3613Y-9.4685
X16.3613Y-9.5472
X16.3613Y-14.3307
X16.3613Y-14.4094
X16.3613Y-14.4882
X16.3613Y-14.5669
X16.3613Y-14.6456
X16.3613Y-14.7244
X16.3613Y-14.8031
X16.3613Y-14.8819
X16.3613Y-14.9606
X16.3613Y-15.0393
X16.3613Y-15.1181
X16.3613Y-15.1968
X16.3613Y-15.2756
X16.3613Y-15.3543
X16.3613Y-15.433
X16.3613Y-15.5118
X16.3693Y-0.413
X16.3693Y-0.4917
X16.3693Y-0.5705
X16.3693Y-0.6492
X16.3693Y-0.728
X16.3693Y-0.8067
X16.3693Y-0.8854
X16.3693Y-0.9642
X16.3693Y-1.0429
X16.3693Y-1.1217
X16.3693Y-1.2004
X16.3693Y-1.2791
X16.3693Y-1.3579
X16.3693Y-1.4366
X16.3693Y-1.5154
X16.3693Y-1.5941
X16.3693Y-6.3776
X16.3693Y-6.4563
X16.3693Y-6.535
X16.3693Y-6.6138
X16.3693Y-6.6925
X16.3693Y-6.7713
X16.3693Y-6.85
X16.3693Y-6.9287
X16.3693Y-7.0075
X16.3693Y-7.0862
X16.3693Y-7.165
X16.3693Y-7.2437
X16.3693Y-7.3224
X16.3693Y-7.4012
X16.3693Y-7.4799
X16.3693Y-7.5587
X16.3693Y-12.3421
X16.3693Y-12.4209
X16.3693Y-12.4996
X16.3693Y-12.5783
X16.3693Y-12.6571
X16.3693Y-12.7358
X16.3693Y-12.8146
X16.3693Y-12.8933
X16.3693Y-12.972
X16.3693Y-13.0508
X16.3693Y-13.1295
X16.3693Y-13.2083
X16.3693Y-13.287
X16.3693Y-13.3657
X16.3693Y-13.4445
X16.3693Y-13.5232
X16.372Y-4.3898
X16.372Y-4.4685
X16.372Y-4.5472
X16.372Y-4.626
X16.372Y-4.7047
X16.372Y-4.7835
X16.372Y-4.8622
X16.372Y-4.9409
X16.372Y-5.0197
X16.372Y-5.0984
X16.372Y-5.1772
X16.372Y-5.2559
X16.372Y-5.3346
X16.372Y-5.4134
X16.372Y-5.4921
X16.372Y-5.5709
X16.372Y-10.3543
X16.372Y-10.4331
X16.372Y-10.5118
X16.372Y-10.5906
X16.372Y-10.6693
X16.372Y-10.748
X16.372Y-10.8268
X16.372Y-10.9055
X16.372Y-10.9843
X16.372Y-11.063
X16.372Y-11.1417
X16.372Y-11.2205
X16.372Y-11.2992
X16.372Y-11.378
X16.372Y-11.4567
X16.372Y-11.5354
X16.372Y-16.3189
X16.372Y-16.3976
X16.372Y-16.4764
X16.372Y-16.5551
X16.372Y-16.6339
X16.372Y-16.7126
X16.372Y-16.7913
X16.372Y-16.8701
X16.372Y-16.9488
X16.372Y-17.0276
X16.372Y-17.1063
X16.372Y-17.185
X16.372Y-17.2638
X16.372Y-17.3425
X16.372Y-17.4213
X16.372Y-17.5
X16.4184Y-4.0748
X16.4184Y-10.0394
X16.4184Y-16.0039
X17.0669Y-4.0748
X17.0669Y-10.0394
X17.0669Y-16.0039
X17.1122Y-4.3898
X17.1122Y-4.4685
X17.1122Y-4.5472
X17.1122Y-4.626
X17.1122Y-4.7047
X17.1122Y-4.7835
X17.1122Y-4.8622
X17.1122Y-4.9409
X17.1122Y-5.0197
X17.1122Y-5.0984
X17.1122Y-5.1772
X17.1122Y-5.2559
X17.1122Y-5.3346
X17.1122Y-5.4134
X17.1122Y-5.4921
X17.1122Y-5.5709
X17.1122Y-10.3543
X17.1122Y-10.4331
X17.1122Y-10.5118
X17.1122Y-10.5906
X17.1122Y-10.6693
X17.1122Y-10.748
X17.1122Y-10.8268
X17.1122Y-10.9055
X17.1122Y-10.9843
X17.1122Y-11.063
X17.1122Y-11.1417
X17.1122Y-11.2205
X17.1122Y-11.2992
X17.1122Y-11.378
X17.1122Y-11.4567
X17.1122Y-11.5354
X17.1122Y-16.3189
X17.1122Y-16.3976
X17.1122Y-16.4764
X17.1122Y-16.5551
X17.1122Y-16.6339
X17.1122Y-16.7126
X17.1122Y-16.7913
X17.1122Y-16.8701
X17.1122Y-16.9488
X17.1122Y-17.0276
X17.1122Y-17.1063
X17.1122Y-17.185
X17.1122Y-17.2638
X17.1122Y-17.3425
X17.1122Y-17.4213
X17.1122Y-17.5
X17.1134Y-0.413
X17.1134Y-0.4917
X17.1134Y-0.5705
X17.1134Y-0.6492
X17.1134Y-0.728
X17.1134Y-0.8067
X17.1134Y-0.8854
X17.1134Y-0.9642
X17.1134Y-1.0429
X17.1134Y-1.1217
X17.1134Y-1.2004
X17.1134Y-1.2791
X17.1134Y-1.3579
X17.1134Y-1.4366
X17.1134Y-1.5154
X17.1134Y-1.5941
X17.1134Y-6.3776
X17.1134Y-6.4563
X17.1134Y-6.535
X17.1134Y-6.6138
X17.1134Y-6.6925
X17.1134Y-6.7713
X17.1134Y-6.85
X17.1134Y-6.9287
X17.1134Y-7.0075
X17.1134Y-7.0862
X17.1134Y-7.165
X17.1134Y-7.2437
X17.1134Y-7.3224
X17.1134Y-7.4012
X17.1134Y-7.4799
X17.1134Y-7.5587
X17.1134Y-12.3421
X17.1134Y-12.4209
X17.1134Y-12.4996
X17.1134Y-12.5783
X17.1134Y-12.6571
X17.1134Y-12.7358
X17.1134Y-12.8146
X17.1134Y-12.8933
X17.1134Y-12.972
X17.1134Y-13.0508
X17.1134Y-13.1295
X17.1134Y-13.2083
X17.1134Y-13.287
X17.1134Y-13.3657
X17.1134Y-13.4445
X17.1134Y-13.5232
X17.1224Y-2.4016
X17.1224Y-2.4803
X17.1224Y-2.5591
X17.1224Y-2.6378
X17.1224Y-2.7165
X17.1224Y-2.7953
X17.1224Y-2.874
X17.1224Y-2.9528
X17.1224Y-3.0315
X17.1224Y-3.1102
X17.1224Y-3.189
X17.1224Y-3.2677
X17.1224Y-3.3465
X17.1224Y-3.4252
X17.1224Y-3.5039
X17.1224Y-3.5827
X17.1224Y-8.3661
X17.1224Y-8.4449
X17.1224Y-8.5236
X17.1224Y-8.6024
X17.1224Y-8.6811
X17.1224Y-8.7598
X17.1224Y-8.8386
X17.1224Y-8.9173
X17.1224Y-8.9961
X17.1224Y-9.0748
X17.1224Y-9.1535
X17.1224Y-9.2323
X17.1224Y-9.311
X17.1224Y-9.3898
X17.1224Y-9.4685
X17.1224Y-9.5472
X17.1224Y-14.3307
X17.1224Y-14.4094
X17.1224Y-14.4882
X17.1224Y-14.5669
X17.1224Y-14.6457
X17.1224Y-14.7244
X17.1224Y-14.8031
X17.1224Y-14.8819
X17.1224Y-14.9606
X17.1224Y-15.0394
X17.1224Y-15.1181
X17.1224Y-15.1969
X17.1224Y-15.2756
X17.1224Y-15.3543
X17.1224Y-15.4331
X17.1224Y-15.5118
X17.1705Y-1.7858
X17.1705Y-7.7504
X17.1705Y-13.715
X17.1707Y-4.1376
X17.1707Y-5.7644
X17.1707Y-10.1022
X17.1707Y-11.7289
X17.1707Y-16.0668
X17.1707Y-17.6935
X17.2343Y-1.7224
X17.2343Y-5.689
X17.2343Y-7.687
X17.2343Y-11.6535
X17.2343Y-13.6516
X17.2343Y-17.6181
X17.6969Y-1.6732
X17.6969Y-7.6378
X17.6969Y-13.6024
X17.6984Y-5.3661
X17.6984Y-11.3307
X17.6984Y-17.2953
X17.6988Y-0.5571
X17.6988Y-0.8406
X17.6988Y-1.124
X17.6988Y-1.4075
X17.6988Y-4.4528
X17.6988Y-4.7362
X17.6988Y-5.0197
X17.6988Y-5.3031
X17.6988Y-6.5217
X17.6988Y-6.8051
X17.6988Y-7.0886
X17.6988Y-7.372
X17.6988Y-10.4173
X17.6988Y-10.7008
X17.6988Y-10.9843
X17.6988Y-11.2677
X17.6988Y-12.4862
X17.6988Y-12.7697
X17.6988Y-13.0531
X17.6988Y-13.3366
X17.6988Y-16.3819
X17.6988Y-16.6654
X17.6988Y-16.9488
X17.6988Y-17.2323
X17.6992Y-1.8169
X17.6992Y-2.1004
X17.6992Y-2.3839
X17.6992Y-3.7598
X17.6992Y-4.1693
X17.6992Y-7.7815
X17.6992Y-8.065
X17.6992Y-8.3484
X17.6992Y-9.7244
X17.6992Y-10.1339
X17.6992Y-13.7461
X17.6992Y-14.0295
X17.6992Y-14.313
X17.6992Y-15.689
X17.6992Y-16.0984
X17.7012Y-4.0256
X17.7012Y-9.9902
X17.7012Y-15.9547
X17.7346Y-4.1063
X17.7346Y-10.0709
X17.7346Y-16.0354
X17.7362Y-1.7087
X17.7362Y-1.7559
X17.7362Y-7.6732
X17.7362Y-7.7205
X17.7362Y-13.6378
X17.7362Y-13.685
X17.7366Y-4.061
X17.7366Y-10.0256
X17.7366Y-15.9902
X17.7717Y-4.0256
X17.7717Y-9.9902
X17.7717Y-15.9547
X17.7727Y-2.1004
X17.7727Y-2.3838
X17.7727Y-8.0649
X17.7727Y-8.3484
X17.7727Y-14.0295
X17.7727Y-14.313
X17.7732Y-1.8169
X17.7732Y-7.7815
X17.7732Y-13.7461
X17.7736Y-0.5571
X17.7736Y-0.8406
X17.7736Y-1.124
X17.7736Y-1.4075
X17.7736Y-3.7598
X17.7736Y-4.1693
X17.7736Y-6.5217
X17.7736Y-6.8051
X17.7736Y-7.0886
X17.7736Y-7.372
X17.7736Y-9.7244
X17.7736Y-10.1339
X17.7736Y-12.4862
X17.7736Y-12.7697
X17.7736Y-13.0531
X17.7736Y-13.3366
X17.7736Y-15.689
X17.7736Y-16.0984
X17.774Y-4.4528
X17.774Y-4.7362
X17.774Y-5.0197
X17.774Y-5.3031
X17.774Y-5.3661
X17.774Y-10.4173
X17.774Y-10.7008
X17.774Y-10.9843
X17.774Y-11.2677
X17.774Y-11.3307
X17.774Y-16.3819
X17.774Y-16.6654
X17.774Y-16.9488
X17.774Y-17.2323
X17.774Y-17.2953
X17.7756Y-1.6732
X17.7756Y-7.6378
X17.7756Y-13.6024
X18.2382Y-1.7224
X18.2382Y-5.689
X18.2382Y-7.687
X18.2382Y-11.6535
X18.2382Y-13.6516
X18.2382Y-17.6181
X18.3018Y-5.7644
X18.3018Y-11.7289
X18.3018Y-17.6935
X18.302Y-1.7858
X18.302Y-7.7504
X18.302Y-13.715
X18.3021Y-4.1376
X18.3021Y-10.1022
X18.3021Y-16.0668
X18.3495Y-2.4015
X18.3495Y-2.4803
X18.3495Y-2.559
X18.3495Y-2.6378
X18.3495Y-2.7165
X18.3495Y-2.7952
X18.3495Y-2.874
X18.3495Y-2.9527
X18.3495Y-3.0315
X18.3495Y-3.1102
X18.3495Y-3.1889
X18.3495Y-3.2677
X18.3495Y-3.3464
X18.3495Y-3.4252
X18.3495Y-3.5039
X18.3495Y-3.5826
X18.3495Y-8.3661
X18.3495Y-8.4449
X18.3495Y-8.5236
X18.3495Y-8.6023
X18.3495Y-8.6811
X18.3495Y-8.7598
X18.3495Y-8.8386
X18.3495Y-8.9173
X18.3495Y-8.996
X18.3495Y-9.0748
X18.3495Y-9.1535
X18.3495Y-9.2323
X18.3495Y-9.311
X18.3495Y-9.3897
X18.3495Y-9.4685
X18.3495Y-9.5472
X18.3495Y-14.3307
X18.3495Y-14.4094
X18.3495Y-14.4882
X18.3495Y-14.5669
X18.3495Y-14.6456
X18.3495Y-14.7244
X18.3495Y-14.8031
X18.3495Y-14.8819
X18.3495Y-14.9606
X18.3495Y-15.0393
X18.3495Y-15.1181
X18.3495Y-15.1968
X18.3495Y-15.2756
X18.3495Y-15.3543
X18.3495Y-15.433
X18.3495Y-15.5118
X18.3575Y-0.413
X18.3575Y-0.4917
X18.3575Y-0.5705
X18.3575Y-0.6492
X18.3575Y-0.728
X18.3575Y-0.8067
X18.3575Y-0.8854
X18.3575Y-0.9642
X18.3575Y-1.0429
X18.3575Y-1.1217
X18.3575Y-1.2004
X18.3575Y-1.2791
X18.3575Y-1.3579
X18.3575Y-1.4366
X18.3575Y-1.5154
X18.3575Y-1.5941
X18.3575Y-6.3776
X18.3575Y-6.4563
X18.3575Y-6.535
X18.3575Y-6.6138
X18.3575Y-6.6925
X18.3575Y-6.7713
X18.3575Y-6.85
X18.3575Y-6.9287
X18.3575Y-7.0075
X18.3575Y-7.0862
X18.3575Y-7.165
X18.3575Y-7.2437
X18.3575Y-7.3224
X18.3575Y-7.4012
X18.3575Y-7.4799
X18.3575Y-7.5587
X18.3575Y-12.3421
X18.3575Y-12.4209
X18.3575Y-12.4996
X18.3575Y-12.5783
X18.3575Y-12.6571
X18.3575Y-12.7358
X18.3575Y-12.8146
X18.3575Y-12.8933
X18.3575Y-12.972
X18.3575Y-13.0508
X18.3575Y-13.1295
X18.3575Y-13.2083
X18.3575Y-13.287
X18.3575Y-13.3657
X18.3575Y-13.4445
X18.3575Y-13.5232
X18.3602Y-4.3898
X18.3602Y-4.4685
X18.3602Y-4.5472
X18.3602Y-4.626
X18.3602Y-4.7047
X18.3602Y-4.7835
X18.3602Y-4.8622
X18.3602Y-4.9409
X18.3602Y-5.0197
X18.3602Y-5.0984
X18.3602Y-5.1772
X18.3602Y-5.2559
X18.3602Y-5.3346
X18.3602Y-5.4134
X18.3602Y-5.4921
X18.3602Y-5.5709
X18.3602Y-10.3543
X18.3602Y-10.4331
X18.3602Y-10.5118
X18.3602Y-10.5906
X18.3602Y-10.6693
X18.3602Y-10.748
X18.3602Y-10.8268
X18.3602Y-10.9055
X18.3602Y-10.9843
X18.3602Y-11.063
X18.3602Y-11.1417
X18.3602Y-11.2205
X18.3602Y-11.2992
X18.3602Y-11.378
X18.3602Y-11.4567
X18.3602Y-11.5354
X18.3602Y-16.3189
X18.3602Y-16.3976
X18.3602Y-16.4764
X18.3602Y-16.5551
X18.3602Y-16.6339
X18.3602Y-16.7126
X18.3602Y-16.7913
X18.3602Y-16.8701
X18.3602Y-16.9488
X18.3602Y-17.0276
X18.3602Y-17.1063
X18.3602Y-17.185
X18.3602Y-17.2638
X18.3602Y-17.3425
X18.3602Y-17.4213
X18.3602Y-17.5
X18.4066Y-4.0748
X18.4066Y-10.0394
X18.4066Y-16.0039
X19.0551Y-4.0748
X19.0551Y-10.0394
X19.0551Y-16.0039
X19.1004Y-4.3898
X19.1004Y-4.4685
X19.1004Y-4.5472
X19.1004Y-4.626
X19.1004Y-4.7047
X19.1004Y-4.7835
X19.1004Y-4.8622
X19.1004Y-4.9409
X19.1004Y-5.0197
X19.1004Y-5.0984
X19.1004Y-5.1772
X19.1004Y-5.2559
X19.1004Y-5.3346
X19.1004Y-5.4134
X19.1004Y-5.4921
X19.1004Y-5.5709
X19.1004Y-10.3543
X19.1004Y-10.4331
X19.1004Y-10.5118
X19.1004Y-10.5906
X19.1004Y-10.6693
X19.1004Y-10.748
X19.1004Y-10.8268
X19.1004Y-10.9055
X19.1004Y-10.9843
X19.1004Y-11.063
X19.1004Y-11.1417
X19.1004Y-11.2205
X19.1004Y-11.2992
X19.1004Y-11.378
X19.1004Y-11.4567
X19.1004Y-11.5354
X19.1004Y-16.3189
X19.1004Y-16.3976
X19.1004Y-16.4764
X19.1004Y-16.5551
X19.1004Y-16.6339
X19.1004Y-16.7126
X19.1004Y-16.7913
X19.1004Y-16.8701
X19.1004Y-16.9488
X19.1004Y-17.0276
X19.1004Y-17.1063
X19.1004Y-17.185
X19.1004Y-17.2638
X19.1004Y-17.3425
X19.1004Y-17.4213
X19.1004Y-17.5
X19.1016Y-0.413
X19.1016Y-0.4917
X19.1016Y-0.5705
X19.1016Y-0.6492
X19.1016Y-0.728
X19.1016Y-0.8067
X19.1016Y-0.8854
X19.1016Y-0.9642
X19.1016Y-1.0429
X19.1016Y-1.1217
X19.1016Y-1.2004
X19.1016Y-1.2791
X19.1016Y-1.3579
X19.1016Y-1.4366
X19.1016Y-1.5154
X19.1016Y-1.5941
X19.1016Y-6.3776
X19.1016Y-6.4563
X19.1016Y-6.535
X19.1016Y-6.6138
X19.1016Y-6.6925
X19.1016Y-6.7713
X19.1016Y-6.85
X19.1016Y-6.9287
X19.1016Y-7.0075
X19.1016Y-7.0862
X19.1016Y-7.165
X19.1016Y-7.2437
X19.1016Y-7.3224
X19.1016Y-7.4012
X19.1016Y-7.4799
X19.1016Y-7.5587
X19.1016Y-12.3421
X19.1016Y-12.4209
X19.1016Y-12.4996
X19.1016Y-12.5783
X19.1016Y-12.6571
X19.1016Y-12.7358
X19.1016Y-12.8146
X19.1016Y-12.8933
X19.1016Y-12.972
X19.1016Y-13.0508
X19.1016Y-13.1295
X19.1016Y-13.2083
X19.1016Y-13.287
X19.1016Y-13.3657
X19.1016Y-13.4445
X19.1016Y-13.5232
X19.1106Y-2.4016
X19.1106Y-2.4803
X19.1106Y-2.5591
X19.1106Y-2.6378
X19.1106Y-2.7165
X19.1106Y-2.7953
X19.1106Y-2.874
X19.1106Y-2.9528
X19.1106Y-3.0315
X19.1106Y-3.1102
X19.1106Y-3.189
X19.1106Y-3.2677
X19.1106Y-3.3465
X19.1106Y-3.4252
X19.1106Y-3.5039
X19.1106Y-3.5827
X19.1106Y-8.3661
X19.1106Y-8.4449
X19.1106Y-8.5236
X19.1106Y-8.6024
X19.1106Y-8.6811
X19.1106Y-8.7598
X19.1106Y-8.8386
X19.1106Y-8.9173
X19.1106Y-8.9961
X19.1106Y-9.0748
X19.1106Y-9.1535
X19.1106Y-9.2323
X19.1106Y-9.311
X19.1106Y-9.3898
X19.1106Y-9.4685
X19.1106Y-9.5472
X19.1106Y-14.3307
X19.1106Y-14.4094
X19.1106Y-14.4882
X19.1106Y-14.5669
X19.1106Y-14.6457
X19.1106Y-14.7244
X19.1106Y-14.8031
X19.1106Y-14.8819
X19.1106Y-14.9606
X19.1106Y-15.0394
X19.1106Y-15.1181
X19.1106Y-15.1969
X19.1106Y-15.2756
X19.1106Y-15.3543
X19.1106Y-15.4331
X19.1106Y-15.5118
X19.1587Y-1.7858
X19.1587Y-7.7504
X19.1587Y-13.715
X19.1589Y-4.1376
X19.1589Y-5.7644
X19.1589Y-10.1022
X19.1589Y-11.7289
X19.1589Y-16.0668
X19.1589Y-17.6935
X19.2224Y-1.7224
X19.2224Y-5.689
X19.2224Y-7.687
X19.2224Y-11.6535
X19.2224Y-13.6516
X19.2224Y-17.6181
X19.685Y-1.6732
X19.685Y-7.6378
X19.685Y-13.6024
X19.6866Y-5.3661
X19.6866Y-11.3307
X19.6866Y-17.2953
X19.687Y-0.5571
X19.687Y-0.8406
X19.687Y-1.124
X19.687Y-1.4075
X19.687Y-4.4528
X19.687Y-4.7362
X19.687Y-5.0197
X19.687Y-5.3031
X19.687Y-6.5217
X19.687Y-6.8051
X19.687Y-7.0886
X19.687Y-7.372
X19.687Y-10.4173
X19.687Y-10.7008
X19.687Y-10.9843
X19.687Y-11.2677
X19.687Y-12.4862
X19.687Y-12.7697
X19.687Y-13.0531
X19.687Y-13.3366
X19.687Y-16.3819
X19.687Y-16.6654
X19.687Y-16.9488
X19.687Y-17.2323
X19.6874Y-1.8169
X19.6874Y-2.1004
X19.6874Y-2.3839
X19.6874Y-3.7598
X19.6874Y-4.1693
X19.6874Y-7.7815
X19.6874Y-8.065
X19.6874Y-8.3484
X19.6874Y-9.7244
X19.6874Y-10.1339
X19.6874Y-13.7461
X19.6874Y-14.0295
X19.6874Y-14.313
X19.6874Y-15.689
X19.6874Y-16.0984
X19.6894Y-4.0256
X19.6894Y-9.9902
X19.6894Y-15.9547
X19.7228Y-4.1063
X19.7228Y-10.0709
X19.7228Y-16.0354
X19.7244Y-1.7087
X19.7244Y-1.7559
X19.7244Y-7.6732
X19.7244Y-7.7205
X19.7244Y-13.6378
X19.7244Y-13.685
X19.7248Y-4.061
X19.7248Y-10.0256
X19.7248Y-15.9902
X19.7598Y-4.0256
X19.7598Y-9.9902
X19.7598Y-15.9547
X19.7609Y-2.1004
X19.7609Y-2.3838
X19.7609Y-8.0649
X19.7609Y-8.3484
X19.7609Y-14.0295
X19.7609Y-14.313
X19.7614Y-1.8169
X19.7614Y-7.7815
X19.7614Y-13.7461
X19.7618Y-0.5571
X19.7618Y-0.8406
X19.7618Y-1.124
X19.7618Y-1.4075
X19.7618Y-3.7598
X19.7618Y-4.1693
X19.7618Y-6.5217
X19.7618Y-6.8051
X19.7618Y-7.0886
X19.7618Y-7.372
X19.7618Y-9.7244
X19.7618Y-10.1339
X19.7618Y-12.4862
X19.7618Y-12.7697
X19.7618Y-13.0531
X19.7618Y-13.3366
X19.7618Y-15.689
X19.7618Y-16.0984
X19.7622Y-4.4528
X19.7622Y-4.7362
X19.7622Y-5.0197
X19.7622Y-5.3031
X19.7622Y-5.3661
X19.7622Y-10.4173
X19.7622Y-10.7008
X19.7622Y-10.9843
X19.7622Y-11.2677
X19.7622Y-11.3307
X19.7622Y-16.3819
X19.7622Y-16.6654
X19.7622Y-16.9488
X19.7622Y-17.2323
X19.7622Y-17.2953
X19.7638Y-1.6732
X19.7638Y-7.6378
X19.7638Y-13.6024
X20.2264Y-1.7224
X20.2264Y-5.689
X20.2264Y-7.687
X20.2264Y-11.6535
X20.2264Y-13.6516
X20.2264Y-17.6181
X20.2899Y-5.7644
X20.2899Y-11.7289
X20.2899Y-17.6935
X20.2902Y-1.7858
X20.2902Y-7.7504
X20.2902Y-13.715
X20.2903Y-4.1376
X20.2903Y-10.1022
X20.2903Y-16.0668
X20.3377Y-2.4015
X20.3377Y-2.4803
X20.3377Y-2.559
X20.3377Y-2.6378
X20.3377Y-2.7165
X20.3377Y-2.7952
X20.3377Y-2.874
X20.3377Y-2.9527
X20.3377Y-3.0315
X20.3377Y-3.1102
X20.3377Y-3.1889
X20.3377Y-3.2677
X20.3377Y-3.3464
X20.3377Y-3.4252
X20.3377Y-3.5039
X20.3377Y-3.5826
X20.3377Y-8.3661
X20.3377Y-8.4449
X20.3377Y-8.5236
X20.3377Y-8.6023
X20.3377Y-8.6811
X20.3377Y-8.7598
X20.3377Y-8.8386
X20.3377Y-8.9173
X20.3377Y-8.996
X20.3377Y-9.0748
X20.3377Y-9.1535
X20.3377Y-9.2323
X20.3377Y-9.311
X20.3377Y-9.3897
X20.3377Y-9.4685
X20.3377Y-9.5472
X20.3377Y-14.3307
X20.3377Y-14.4094
X20.3377Y-14.4882
X20.3377Y-14.5669
X20.3377Y-14.6456
X20.3377Y-14.7244
X20.3377Y-14.8031
X20.3377Y-14.8819
X20.3377Y-14.9606
X20.3377Y-15.0393
X20.3377Y-15.1181
X20.3377Y-15.1968
X20.3377Y-15.2756
X20.3377Y-15.3543
X20.3377Y-15.433
X20.3377Y-15.5118
X20.3457Y-0.413
X20.3457Y-0.4917
X20.3457Y-0.5705
X20.3457Y-0.6492
X20.3457Y-0.728
X20.3457Y-0.8067
X20.3457Y-0.8854
X20.3457Y-0.9642
X20.3457Y-1.0429
X20.3457Y-1.1217
X20.3457Y-1.2004
X20.3457Y-1.2791
X20.3457Y-1.3579
X20.3457Y-1.4366
X20.3457Y-1.5154
X20.3457Y-1.5941
X20.3457Y-6.3776
X20.3457Y-6.4563
X20.3457Y-6.535
X20.3457Y-6.6138
X20.3457Y-6.6925
X20.3457Y-6.7713
X20.3457Y-6.85
X20.3457Y-6.9287
X20.3457Y-7.0075
X20.3457Y-7.0862
X20.3457Y-7.165
X20.3457Y-7.2437
X20.3457Y-7.3224
X20.3457Y-7.4012
X20.3457Y-7.4799
X20.3457Y-7.5587
X20.3457Y-12.3421
X20.3457Y-12.4209
X20.3457Y-12.4996
X20.3457Y-12.5783
X20.3457Y-12.6571
X20.3457Y-12.7358
X20.3457Y-12.8146
X20.3457Y-12.8933
X20.3457Y-12.972
X20.3457Y-13.0508
X20.3457Y-13.1295
X20.3457Y-13.2083
X20.3457Y-13.287
X20.3457Y-13.3657
X20.3457Y-13.4445
X20.3457Y-13.5232
X20.3484Y-4.3898
X20.3484Y-4.4685
X20.3484Y-4.5472
X20.3484Y-4.626
X20.3484Y-4.7047
X20.3484Y-4.7835
X20.3484Y-4.8622
X20.3484Y-4.9409
X20.3484Y-5.0197
X20.3484Y-5.0984
X20.3484Y-5.1772
X20.3484Y-5.2559
X20.3484Y-5.3346
X20.3484Y-5.4134
X20.3484Y-5.4921
X20.3484Y-5.5709
X20.3484Y-10.3543
X20.3484Y-10.4331
X20.3484Y-10.5118
X20.3484Y-10.5906
X20.3484Y-10.6693
X20.3484Y-10.748
X20.3484Y-10.8268
X20.3484Y-10.9055
X20.3484Y-10.9843
X20.3484Y-11.063
X20.3484Y-11.1417
X20.3484Y-11.2205
X20.3484Y-11.2992
X20.3484Y-11.378
X20.3484Y-11.4567
X20.3484Y-11.5354
X20.3484Y-16.3189
X20.3484Y-16.3976
X20.3484Y-16.4764
X20.3484Y-16.5551
X20.3484Y-16.6339
X20.3484Y-16.7126
X20.3484Y-16.7913
X20.3484Y-16.8701
X20.3484Y-16.9488
X20.3484Y-17.0276
X20.3484Y-17.1063
X20.3484Y-17.185
X20.3484Y-17.2638
X20.3484Y-17.3425
X20.3484Y-17.4213
X20.3484Y-17.5
X20.3947Y-4.0748
X20.3947Y-10.0394
X20.3947Y-16.0039
X21.0433Y-4.0748
X21.0433Y-10.0394
X21.0433Y-16.0039
X21.0886Y-4.3898
X21.0886Y-4.4685
X21.0886Y-4.5472
X21.0886Y-4.626
X21.0886Y-4.7047
X21.0886Y-4.7835
X21.0886Y-4.8622
X21.0886Y-4.9409
X21.0886Y-5.0197
X21.0886Y-5.0984
X21.0886Y-5.1772
X21.0886Y-5.2559
X21.0886Y-5.3346
X21.0886Y-5.4134
X21.0886Y-5.4921
X21.0886Y-5.5709
X21.0886Y-10.3543
X21.0886Y-10.4331
X21.0886Y-10.5118
X21.0886Y-10.5906
X21.0886Y-10.6693
X21.0886Y-10.748
X21.0886Y-10.8268
X21.0886Y-10.9055
X21.0886Y-10.9843
X21.0886Y-11.063
X21.0886Y-11.1417
X21.0886Y-11.2205
X21.0886Y-11.2992
X21.0886Y-11.378
X21.0886Y-11.4567
X21.0886Y-11.5354
X21.0886Y-16.3189
X21.0886Y-16.3976
X21.0886Y-16.4764
X21.0886Y-16.5551
X21.0886Y-16.6339
X21.0886Y-16.7126
X21.0886Y-16.7913
X21.0886Y-16.8701
X21.0886Y-16.9488
X21.0886Y-17.0276
X21.0886Y-17.1063
X21.0886Y-17.185
X21.0886Y-17.2638
X21.0886Y-17.3425
X21.0886Y-17.4213
X21.0886Y-17.5
X21.0898Y-0.413
X21.0898Y-0.4917
X21.0898Y-0.5705
X21.0898Y-0.6492
X21.0898Y-0.728
X21.0898Y-0.8067
X21.0898Y-0.8854
X21.0898Y-0.9642
X21.0898Y-1.0429
X21.0898Y-1.1217
X21.0898Y-1.2004
X21.0898Y-1.2791
X21.0898Y-1.3579
X21.0898Y-1.4366
X21.0898Y-1.5154
X21.0898Y-1.5941
X21.0898Y-6.3776
X21.0898Y-6.4563
X21.0898Y-6.535
X21.0898Y-6.6138
X21.0898Y-6.6925
X21.0898Y-6.7713
X21.0898Y-6.85
X21.0898Y-6.9287
X21.0898Y-7.0075
X21.0898Y-7.0862
X21.0898Y-7.165
X21.0898Y-7.2437
X21.0898Y-7.3224
X21.0898Y-7.4012
X21.0898Y-7.4799
X21.0898Y-7.5587
X21.0898Y-12.3421
X21.0898Y-12.4209
X21.0898Y-12.4996
X21.0898Y-12.5783
X21.0898Y-12.6571
X21.0898Y-12.7358
X21.0898Y-12.8146
X21.0898Y-12.8933
X21.0898Y-12.972
X21.0898Y-13.0508
X21.0898Y-13.1295
X21.0898Y-13.2083
X21.0898Y-13.287
X21.0898Y-13.3657
X21.0898Y-13.4445
X21.0898Y-13.5232
X21.0988Y-2.4016
X21.0988Y-2.4803
X21.0988Y-2.5591
X21.0988Y-2.6378
X21.0988Y-2.7165
X21.0988Y-2.7953
X21.0988Y-2.874
X21.0988Y-2.9528
X21.0988Y-3.0315
X21.0988Y-3.1102
X21.0988Y-3.189
X21.0988Y-3.2677
X21.0988Y-3.3465
X21.0988Y-3.4252
X21.0988Y-3.5039
X21.0988Y-3.5827
X21.0988Y-8.3661
X21.0988Y-8.4449
X21.0988Y-8.5236
X21.0988Y-8.6024
X21.0988Y-8.6811
X21.0988Y-8.7598
X21.0988Y-8.8386
X21.0988Y-8.9173
X21.0988Y-8.9961
X21.0988Y-9.0748
X21.0988Y-9.1535
X21.0988Y-9.2323
X21.0988Y-9.311
X21.0988Y-9.3898
X21.0988Y-9.4685
X21.0988Y-9.5472
X21.0988Y-14.3307
X21.0988Y-14.4094
X21.0988Y-14.4882
X21.0988Y-14.5669
X21.0988Y-14.6457
X21.0988Y-14.7244
X21.0988Y-14.8031
X21.0988Y-14.8819
X21.0988Y-14.9606
X21.0988Y-15.0394
X21.0988Y-15.1181
X21.0988Y-15.1969
X21.0988Y-15.2756
X21.0988Y-15.3543
X21.0988Y-15.4331
X21.0988Y-15.5118
X21.1469Y-1.7858
X21.1469Y-7.7504
X21.1469Y-13.715
X21.1471Y-4.1376
X21.1471Y-5.7644
X21.1471Y-10.1022
X21.1471Y-11.7289
X21.1471Y-16.0668
X21.1471Y-17.6935
X21.2106Y-1.7224
X21.2106Y-5.689
X21.2106Y-7.687
X21.2106Y-11.6535
X21.2106Y-13.6516
X21.2106Y-17.6181
X21.6732Y-1.6732
X21.6732Y-7.6378
X21.6732Y-13.6024
X21.6748Y-5.3661
X21.6748Y-11.3307
X21.6748Y-17.2953
X21.6752Y-0.5571
X21.6752Y-0.8406
X21.6752Y-1.124
X21.6752Y-1.4075
X21.6752Y-4.4528
X21.6752Y-4.7362
X21.6752Y-5.0197
X21.6752Y-5.3031
X21.6752Y-6.5217
X21.6752Y-6.8051
X21.6752Y-7.0886
X21.6752Y-7.372
X21.6752Y-10.4173
X21.6752Y-10.7008
X21.6752Y-10.9843
X21.6752Y-11.2677
X21.6752Y-12.4862
X21.6752Y-12.7697
X21.6752Y-13.0531
X21.6752Y-13.3366
X21.6752Y-16.3819
X21.6752Y-16.6654
X21.6752Y-16.9488
X21.6752Y-17.2323
X21.6756Y-1.8169
X21.6756Y-2.1004
X21.6756Y-2.3839
X21.6756Y-3.7598
X21.6756Y-4.1693
X21.6756Y-7.7815
X21.6756Y-8.065
X21.6756Y-8.3484
X21.6756Y-9.7244
X21.6756Y-10.1339
X21.6756Y-13.7461
X21.6756Y-14.0295
X21.6756Y-14.313
X21.6756Y-15.689
X21.6756Y-16.0984
X21.6776Y-4.0256
X21.6776Y-9.9902
X21.6776Y-15.9547
X21.711Y-4.1063
X21.711Y-10.0709
X21.711Y-16.0354
X21.7126Y-1.7087
X21.7126Y-1.7559
X21.7126Y-7.6732
X21.7126Y-7.7205
X21.7126Y-13.6378
X21.7126Y-13.685
X21.713Y-4.061
X21.713Y-10.0256
X21.713Y-15.9902
X21.748Y-4.0256
X21.748Y-9.9902
X21.748Y-15.9547
X21.7491Y-2.1004
X21.7491Y-2.3838
X21.7491Y-8.0649
X21.7491Y-8.3484
X21.7491Y-14.0295
X21.7491Y-14.313
X21.7496Y-1.8169
X21.7496Y-7.7815
X21.7496Y-13.7461
X21.75Y-0.5571
X21.75Y-0.8406
X21.75Y-1.124
X21.75Y-1.4075
X21.75Y-3.7598
X21.75Y-4.1693
X21.75Y-6.5217
X21.75Y-6.8051
X21.75Y-7.0886
X21.75Y-7.372
X21.75Y-9.7244
X21.75Y-10.1339
X21.75Y-12.4862
X21.75Y-12.7697
X21.75Y-13.0531
X21.75Y-13.3366
X21.75Y-15.689
X21.75Y-16.0984
X21.7504Y-4.4528
X21.7504Y-4.7362
X21.7504Y-5.0197
X21.7504Y-5.3031
X21.7504Y-5.3661
X21.7504Y-10.4173
X21.7504Y-10.7008
X21.7504Y-10.9843
X21.7504Y-11.2677
X21.7504Y-11.3307
X21.7504Y-16.3819
X21.7504Y-16.6654
X21.7504Y-16.9488
X21.7504Y-17.2323
X21.7504Y-17.2953
X21.752Y-1.6732
X21.752Y-7.6378
X21.752Y-13.6024
X22.2146Y-1.7224
X22.2146Y-5.689
X22.2146Y-7.687
X22.2146Y-11.6535
X22.2146Y-13.6516
X22.2146Y-17.6181
X22.2781Y-5.7644
X22.2781Y-11.7289
X22.2781Y-17.6935
X22.2783Y-1.7858
X22.2783Y-7.7504
X22.2783Y-13.715
X22.2785Y-4.1376
X22.2785Y-10.1022
X22.2785Y-16.0668
X22.3259Y-2.4015
X22.3259Y-2.4803
X22.3259Y-2.559
X22.3259Y-2.6378
X22.3259Y-2.7165
X22.3259Y-2.7952
X22.3259Y-2.874
X22.3259Y-2.9527
X22.3259Y-3.0315
X22.3259Y-3.1102
X22.3259Y-3.1889
X22.3259Y-3.2677
X22.3259Y-3.3464
X22.3259Y-3.4252
X22.3259Y-3.5039
X22.3259Y-3.5826
X22.3259Y-8.3661
X22.3259Y-8.4449
X22.3259Y-8.5236
X22.3259Y-8.6023
X22.3259Y-8.6811
X22.3259Y-8.7598
X22.3259Y-8.8386
X22.3259Y-8.9173
X22.3259Y-8.996
X22.3259Y-9.0748
X22.3259Y-9.1535
X22.3259Y-9.2323
X22.3259Y-9.311
X22.3259Y-9.3897
X22.3259Y-9.4685
X22.3259Y-9.5472
X22.3259Y-14.3307
X22.3259Y-14.4094
X22.3259Y-14.4882
X22.3259Y-14.5669
X22.3259Y-14.6456
X22.3259Y-14.7244
X22.3259Y-14.8031
X22.3259Y-14.8819
X22.3259Y-14.9606
X22.3259Y-15.0393
X22.3259Y-15.1181
X22.3259Y-15.1968
X22.3259Y-15.2756
X22.3259Y-15.3543
X22.3259Y-15.433
X22.3259Y-15.5118
X22.3339Y-0.413
X22.3339Y-0.4917
X22.3339Y-0.5705
X22.3339Y-0.6492
X22.3339Y-0.728
X22.3339Y-0.8067
X22.3339Y-0.8854
X22.3339Y-0.9642
X22.3339Y-1.0429
X22.3339Y-1.1217
X22.3339Y-1.2004
X22.3339Y-1.2791
X22.3339Y-1.3579
X22.3339Y-1.4366
X22.3339Y-1.5154
X22.3339Y-1.5941
X22.3339Y-6.3776
X22.3339Y-6.4563
X22.3339Y-6.535
X22.3339Y-6.6138
X22.3339Y-6.6925
X22.3339Y-6.7713
X22.3339Y-6.85
X22.3339Y-6.9287
X22.3339Y-7.0075
X22.3339Y-7.0862
X22.3339Y-7.165
X22.3339Y-7.2437
X22.3339Y-7.3224
X22.3339Y-7.4012
X22.3339Y-7.4799
X22.3339Y-7.5587
X22.3339Y-12.3421
X22.3339Y-12.4209
X22.3339Y-12.4996
X22.3339Y-12.5783
X22.3339Y-12.6571
X22.3339Y-12.7358
X22.3339Y-12.8146
X22.3339Y-12.8933
X22.3339Y-12.972
X22.3339Y-13.0508
X22.3339Y-13.1295
X22.3339Y-13.2083
X22.3339Y-13.287
X22.3339Y-13.3657
X22.3339Y-13.4445
X22.3339Y-13.5232
X22.3366Y-4.3898
X22.3366Y-4.4685
X22.3366Y-4.5472
X22.3366Y-4.626
X22.3366Y-4.7047
X22.3366Y-4.7835
X22.3366Y-4.8622
X22.3366Y-4.9409
X22.3366Y-5.0197
X22.3366Y-5.0984
X22.3366Y-5.1772
X22.3366Y-5.2559
X22.3366Y-5.3346
X22.3366Y-5.4134
X22.3366Y-5.4921
X22.3366Y-5.5709
X22.3366Y-10.3543
X22.3366Y-10.4331
X22.3366Y-10.5118
X22.3366Y-10.5906
X22.3366Y-10.6693
X22.3366Y-10.748
X22.3366Y-10.8268
X22.3366Y-10.9055
X22.3366Y-10.9843
X22.3366Y-11.063
X22.3366Y-11.1417
X22.3366Y-11.2205
X22.3366Y-11.2992
X22.3366Y-11.378
X22.3366Y-11.4567
X22.3366Y-11.5354
X22.3366Y-16.3189
X22.3366Y-16.3976
X22.3366Y-16.4764
X22.3366Y-16.5551
X22.3366Y-16.6339
X22.3366Y-16.7126
X22.3366Y-16.7913
X22.3366Y-16.8701
X22.3366Y-16.9488
X22.3366Y-17.0276
X22.3366Y-17.1063
X22.3366Y-17.185
X22.3366Y-17.2638
X22.3366Y-17.3425
X22.3366Y-17.4213
X22.3366Y-17.5
X22.3829Y-4.0748
X22.3829Y-10.0394
X22.3829Y-16.0039
T3
X5.748Y-0.4862
X5.748Y-2.4862
X5.748Y-3.4685
X5.748Y-5.4685
X5.748Y-6.4508
X5.748Y-8.4508
X5.748Y-9.4331
X5.748Y-11.4331
X5.748Y-12.4154
X5.748Y-14.4154
X5.748Y-15.3976
X5.748Y-17.3976
X7.7362Y-0.4862
X7.7362Y-2.4862
X7.7362Y-3.4685
X7.7362Y-5.4685
X7.7362Y-6.4508
X7.7362Y-8.4508
X7.7362Y-9.4331
X7.7362Y-11.4331
X7.7362Y-12.4154
X7.7362Y-14.4154
X7.7362Y-15.3976
X7.7362Y-17.3976
X9.7244Y-0.4862
X9.7244Y-2.4862
X9.7244Y-3.4685
X9.7244Y-5.4685
X9.7244Y-6.4508
X9.7244Y-8.4508
X9.7244Y-9.4331
X9.7244Y-11.4331
X9.7244Y-12.4154
X9.7244Y-14.4154
X9.7244Y-15.3976
X9.7244Y-17.3976
X11.7126Y-0.4862
X11.7126Y-2.4862
X11.7126Y-3.4685
X11.7126Y-5.4685
X11.7126Y-6.4508
X11.7126Y-8.4508
X11.7126Y-9.4331
X11.7126Y-11.4331
X11.7126Y-12.4154
X11.7126Y-14.4154
X11.7126Y-15.3976
X11.7126Y-17.3976
X13.7008Y-0.4862
X13.7008Y-2.4862
X13.7008Y-3.4685
X13.7008Y-5.4685
X13.7008Y-6.4508
X13.7008Y-8.4508
X13.7008Y-9.4331
X13.7008Y-11.4331
X13.7008Y-12.4154
X13.7008Y-14.4154
X13.7008Y-15.3976
X13.7008Y-17.3976
X15.689Y-0.4862
X15.689Y-2.4862
X15.689Y-3.4685
X15.689Y-5.4685
X15.689Y-6.4508
X15.689Y-8.4508
X15.689Y-9.4331
X15.689Y-11.4331
X15.689Y-12.4154
X15.689Y-14.4154
X15.689Y-15.3976
X15.689Y-17.3976
X17.6772Y-0.4862
X17.6772Y-2.4862
X17.6772Y-3.4685
X17.6772Y-5.4685
X17.6772Y-6.4508
X17.6772Y-8.4508
X17.6772Y-9.4331
X17.6772Y-11.4331
X17.6772Y-12.4154
X17.6772Y-14.4154
X17.6772Y-15.3976
X17.6772Y-17.3976
X19.6654Y-0.4862
X19.6654Y-2.4862
X19.6654Y-3.4685
X19.6654Y-5.4685
X19.6654Y-6.4508
X19.6654Y-8.4508
X19.6654Y-9.4331
X19.6654Y-11.4331
X19.6654Y-12.4154
X19.6654Y-14.4154
X19.6654Y-15.3976
X19.6654Y-17.3976
X21.6535Y-0.4862
X21.6535Y-2.4862
X21.6535Y-3.4685
X21.6535Y-5.4685
X21.6535Y-6.4508
X21.6535Y-8.4508
X21.6535Y-9.4331
X21.6535Y-11.4331
X21.6535Y-12.4154
X21.6535Y-14.4154
X21.6535Y-15.3976
X21.6535Y-17.3976
T0
M30
