%TF.GenerationSoftware,KiCad,Pcbnew,(5.1.9-0-10_14)*%
%TF.CreationDate,2021-05-26T15:42:51-04:00*%
%TF.ProjectId,backplane,6261636b-706c-4616-9e65-2e6b69636164,rev?*%
%TF.SameCoordinates,Original*%
%TF.FileFunction,Legend,Bot*%
%TF.FilePolarity,Positive*%
%FSLAX46Y46*%
G04 Gerber Fmt 4.6, Leading zero omitted, Abs format (unit mm)*
G04 Created by KiCad (PCBNEW (5.1.9-0-10_14)) date 2021-05-26 15:42:51*
%MOMM*%
%LPD*%
G01*
G04 APERTURE LIST*
%ADD10C,0.250000*%
%ADD11C,0.015000*%
G04 APERTURE END LIST*
D10*
%TO.C,J102*%
X548200000Y-65250000D02*
X554800000Y-65250000D01*
X548200000Y-10250000D02*
X548200000Y-65250000D01*
X552900000Y-10250000D02*
X548200000Y-10250000D01*
X554800000Y-12150000D02*
X552900000Y-10250000D01*
X554800000Y-65250000D02*
X554800000Y-12150000D01*
%TO.C,J402*%
X548200000Y-216750000D02*
X554800000Y-216750000D01*
X548200000Y-161750000D02*
X548200000Y-216750000D01*
X552900000Y-161750000D02*
X548200000Y-161750000D01*
X554800000Y-163650000D02*
X552900000Y-161750000D01*
X554800000Y-216750000D02*
X554800000Y-163650000D01*
%TO.C,J602*%
X554800000Y-292500000D02*
X554800000Y-239400000D01*
X554800000Y-239400000D02*
X552900000Y-237500000D01*
X552900000Y-237500000D02*
X548200000Y-237500000D01*
X548200000Y-237500000D02*
X548200000Y-292500000D01*
X548200000Y-292500000D02*
X554800000Y-292500000D01*
%TO.C,J302*%
X554800000Y-141000000D02*
X554800000Y-87900000D01*
X554800000Y-87900000D02*
X552900000Y-86000000D01*
X552900000Y-86000000D02*
X548200000Y-86000000D01*
X548200000Y-86000000D02*
X548200000Y-141000000D01*
X548200000Y-141000000D02*
X554800000Y-141000000D01*
%TO.C,J1*%
X548200000Y-368250000D02*
X554800000Y-368250000D01*
X548200000Y-313250000D02*
X548200000Y-368250000D01*
X552900000Y-313250000D02*
X548200000Y-313250000D01*
X554800000Y-315150000D02*
X552900000Y-313250000D01*
X554800000Y-368250000D02*
X554800000Y-315150000D01*
%TO.C,J2*%
X554800000Y-444000000D02*
X554800000Y-390900000D01*
X554800000Y-390900000D02*
X552900000Y-389000000D01*
X552900000Y-389000000D02*
X548200000Y-389000000D01*
X548200000Y-389000000D02*
X548200000Y-444000000D01*
X548200000Y-444000000D02*
X554800000Y-444000000D01*
%TO.C,J102*%
X396700000Y-65250000D02*
X403300000Y-65250000D01*
X396700000Y-10250000D02*
X396700000Y-65250000D01*
X401400000Y-10250000D02*
X396700000Y-10250000D01*
X403300000Y-12150000D02*
X401400000Y-10250000D01*
X403300000Y-65250000D02*
X403300000Y-12150000D01*
%TO.C,J302*%
X403300000Y-141000000D02*
X403300000Y-87900000D01*
X403300000Y-87900000D02*
X401400000Y-86000000D01*
X401400000Y-86000000D02*
X396700000Y-86000000D01*
X396700000Y-86000000D02*
X396700000Y-141000000D01*
X396700000Y-141000000D02*
X403300000Y-141000000D01*
%TO.C,J402*%
X352800000Y-216750000D02*
X352800000Y-163650000D01*
X352800000Y-163650000D02*
X350900000Y-161750000D01*
X350900000Y-161750000D02*
X346200000Y-161750000D01*
X346200000Y-161750000D02*
X346200000Y-216750000D01*
X346200000Y-216750000D02*
X352800000Y-216750000D01*
%TO.C,J602*%
X346200000Y-292500000D02*
X352800000Y-292500000D01*
X346200000Y-237500000D02*
X346200000Y-292500000D01*
X350900000Y-237500000D02*
X346200000Y-237500000D01*
X352800000Y-239400000D02*
X350900000Y-237500000D01*
X352800000Y-292500000D02*
X352800000Y-239400000D01*
%TO.C,J102*%
X352800000Y-65250000D02*
X352800000Y-12150000D01*
X352800000Y-12150000D02*
X350900000Y-10250000D01*
X350900000Y-10250000D02*
X346200000Y-10250000D01*
X346200000Y-10250000D02*
X346200000Y-65250000D01*
X346200000Y-65250000D02*
X352800000Y-65250000D01*
%TO.C,J302*%
X346200000Y-141000000D02*
X352800000Y-141000000D01*
X346200000Y-86000000D02*
X346200000Y-141000000D01*
X350900000Y-86000000D02*
X346200000Y-86000000D01*
X352800000Y-87900000D02*
X350900000Y-86000000D01*
X352800000Y-141000000D02*
X352800000Y-87900000D01*
%TO.C,J402*%
X396700000Y-216750000D02*
X403300000Y-216750000D01*
X396700000Y-161750000D02*
X396700000Y-216750000D01*
X401400000Y-161750000D02*
X396700000Y-161750000D01*
X403300000Y-163650000D02*
X401400000Y-161750000D01*
X403300000Y-216750000D02*
X403300000Y-163650000D01*
%TO.C,J602*%
X403300000Y-292500000D02*
X403300000Y-239400000D01*
X403300000Y-239400000D02*
X401400000Y-237500000D01*
X401400000Y-237500000D02*
X396700000Y-237500000D01*
X396700000Y-237500000D02*
X396700000Y-292500000D01*
X396700000Y-292500000D02*
X403300000Y-292500000D01*
%TO.C,J2*%
X346200000Y-444000000D02*
X352800000Y-444000000D01*
X346200000Y-389000000D02*
X346200000Y-444000000D01*
X350900000Y-389000000D02*
X346200000Y-389000000D01*
X352800000Y-390900000D02*
X350900000Y-389000000D01*
X352800000Y-444000000D02*
X352800000Y-390900000D01*
%TO.C,J1*%
X352800000Y-368250000D02*
X352800000Y-315150000D01*
X352800000Y-315150000D02*
X350900000Y-313250000D01*
X350900000Y-313250000D02*
X346200000Y-313250000D01*
X346200000Y-313250000D02*
X346200000Y-368250000D01*
X346200000Y-368250000D02*
X352800000Y-368250000D01*
%TO.C,J102*%
X447200000Y-65250000D02*
X453800000Y-65250000D01*
X447200000Y-10250000D02*
X447200000Y-65250000D01*
X451900000Y-10250000D02*
X447200000Y-10250000D01*
X453800000Y-12150000D02*
X451900000Y-10250000D01*
X453800000Y-65250000D02*
X453800000Y-12150000D01*
%TO.C,J302*%
X453800000Y-141000000D02*
X453800000Y-87900000D01*
X453800000Y-87900000D02*
X451900000Y-86000000D01*
X451900000Y-86000000D02*
X447200000Y-86000000D01*
X447200000Y-86000000D02*
X447200000Y-141000000D01*
X447200000Y-141000000D02*
X453800000Y-141000000D01*
%TO.C,J402*%
X504300000Y-216750000D02*
X504300000Y-163650000D01*
X504300000Y-163650000D02*
X502400000Y-161750000D01*
X502400000Y-161750000D02*
X497700000Y-161750000D01*
X497700000Y-161750000D02*
X497700000Y-216750000D01*
X497700000Y-216750000D02*
X504300000Y-216750000D01*
%TO.C,J602*%
X497700000Y-292500000D02*
X504300000Y-292500000D01*
X497700000Y-237500000D02*
X497700000Y-292500000D01*
X502400000Y-237500000D02*
X497700000Y-237500000D01*
X504300000Y-239400000D02*
X502400000Y-237500000D01*
X504300000Y-292500000D02*
X504300000Y-239400000D01*
%TO.C,J102*%
X504300000Y-65250000D02*
X504300000Y-12150000D01*
X504300000Y-12150000D02*
X502400000Y-10250000D01*
X502400000Y-10250000D02*
X497700000Y-10250000D01*
X497700000Y-10250000D02*
X497700000Y-65250000D01*
X497700000Y-65250000D02*
X504300000Y-65250000D01*
%TO.C,J302*%
X497700000Y-141000000D02*
X504300000Y-141000000D01*
X497700000Y-86000000D02*
X497700000Y-141000000D01*
X502400000Y-86000000D02*
X497700000Y-86000000D01*
X504300000Y-87900000D02*
X502400000Y-86000000D01*
X504300000Y-141000000D02*
X504300000Y-87900000D01*
%TO.C,J402*%
X447200000Y-216750000D02*
X453800000Y-216750000D01*
X447200000Y-161750000D02*
X447200000Y-216750000D01*
X451900000Y-161750000D02*
X447200000Y-161750000D01*
X453800000Y-163650000D02*
X451900000Y-161750000D01*
X453800000Y-216750000D02*
X453800000Y-163650000D01*
%TO.C,J602*%
X453800000Y-292500000D02*
X453800000Y-239400000D01*
X453800000Y-239400000D02*
X451900000Y-237500000D01*
X451900000Y-237500000D02*
X447200000Y-237500000D01*
X447200000Y-237500000D02*
X447200000Y-292500000D01*
X447200000Y-292500000D02*
X453800000Y-292500000D01*
%TO.C,J1*%
X504300000Y-368250000D02*
X504300000Y-315150000D01*
X504300000Y-315150000D02*
X502400000Y-313250000D01*
X502400000Y-313250000D02*
X497700000Y-313250000D01*
X497700000Y-313250000D02*
X497700000Y-368250000D01*
X497700000Y-368250000D02*
X504300000Y-368250000D01*
%TO.C,J2*%
X453800000Y-444000000D02*
X453800000Y-390900000D01*
X453800000Y-390900000D02*
X451900000Y-389000000D01*
X451900000Y-389000000D02*
X447200000Y-389000000D01*
X447200000Y-389000000D02*
X447200000Y-444000000D01*
X447200000Y-444000000D02*
X453800000Y-444000000D01*
%TO.C,J1*%
X447200000Y-368250000D02*
X453800000Y-368250000D01*
X447200000Y-313250000D02*
X447200000Y-368250000D01*
X451900000Y-313250000D02*
X447200000Y-313250000D01*
X453800000Y-315150000D02*
X451900000Y-313250000D01*
X453800000Y-368250000D02*
X453800000Y-315150000D01*
%TO.C,J2*%
X497700000Y-444000000D02*
X504300000Y-444000000D01*
X497700000Y-389000000D02*
X497700000Y-444000000D01*
X502400000Y-389000000D02*
X497700000Y-389000000D01*
X504300000Y-390900000D02*
X502400000Y-389000000D01*
X504300000Y-444000000D02*
X504300000Y-390900000D01*
X403300000Y-444000000D02*
X403300000Y-390900000D01*
X403300000Y-390900000D02*
X401400000Y-389000000D01*
X401400000Y-389000000D02*
X396700000Y-389000000D01*
X396700000Y-389000000D02*
X396700000Y-444000000D01*
X396700000Y-444000000D02*
X403300000Y-444000000D01*
%TO.C,J1*%
X396700000Y-368250000D02*
X403300000Y-368250000D01*
X396700000Y-313250000D02*
X396700000Y-368250000D01*
X401400000Y-313250000D02*
X396700000Y-313250000D01*
X403300000Y-315150000D02*
X401400000Y-313250000D01*
X403300000Y-368250000D02*
X403300000Y-315150000D01*
%TO.C,J102*%
X295700000Y-65250000D02*
X302300000Y-65250000D01*
X295700000Y-10250000D02*
X295700000Y-65250000D01*
X300400000Y-10250000D02*
X295700000Y-10250000D01*
X302300000Y-12150000D02*
X300400000Y-10250000D01*
X302300000Y-65250000D02*
X302300000Y-12150000D01*
%TO.C,J302*%
X302300000Y-141000000D02*
X302300000Y-87900000D01*
X302300000Y-87900000D02*
X300400000Y-86000000D01*
X300400000Y-86000000D02*
X295700000Y-86000000D01*
X295700000Y-86000000D02*
X295700000Y-141000000D01*
X295700000Y-141000000D02*
X302300000Y-141000000D01*
%TO.C,J402*%
X251800000Y-216750000D02*
X251800000Y-163650000D01*
X251800000Y-163650000D02*
X249900000Y-161750000D01*
X249900000Y-161750000D02*
X245200000Y-161750000D01*
X245200000Y-161750000D02*
X245200000Y-216750000D01*
X245200000Y-216750000D02*
X251800000Y-216750000D01*
%TO.C,J602*%
X245200000Y-292500000D02*
X251800000Y-292500000D01*
X245200000Y-237500000D02*
X245200000Y-292500000D01*
X249900000Y-237500000D02*
X245200000Y-237500000D01*
X251800000Y-239400000D02*
X249900000Y-237500000D01*
X251800000Y-292500000D02*
X251800000Y-239400000D01*
%TO.C,J102*%
X251800000Y-65250000D02*
X251800000Y-12150000D01*
X251800000Y-12150000D02*
X249900000Y-10250000D01*
X249900000Y-10250000D02*
X245200000Y-10250000D01*
X245200000Y-10250000D02*
X245200000Y-65250000D01*
X245200000Y-65250000D02*
X251800000Y-65250000D01*
%TO.C,J302*%
X245200000Y-141000000D02*
X251800000Y-141000000D01*
X245200000Y-86000000D02*
X245200000Y-141000000D01*
X249900000Y-86000000D02*
X245200000Y-86000000D01*
X251800000Y-87900000D02*
X249900000Y-86000000D01*
X251800000Y-141000000D02*
X251800000Y-87900000D01*
%TO.C,J402*%
X295700000Y-216750000D02*
X302300000Y-216750000D01*
X295700000Y-161750000D02*
X295700000Y-216750000D01*
X300400000Y-161750000D02*
X295700000Y-161750000D01*
X302300000Y-163650000D02*
X300400000Y-161750000D01*
X302300000Y-216750000D02*
X302300000Y-163650000D01*
%TO.C,J602*%
X302300000Y-292500000D02*
X302300000Y-239400000D01*
X302300000Y-239400000D02*
X300400000Y-237500000D01*
X300400000Y-237500000D02*
X295700000Y-237500000D01*
X295700000Y-237500000D02*
X295700000Y-292500000D01*
X295700000Y-292500000D02*
X302300000Y-292500000D01*
%TO.C,J2*%
X245200000Y-444000000D02*
X251800000Y-444000000D01*
X245200000Y-389000000D02*
X245200000Y-444000000D01*
X249900000Y-389000000D02*
X245200000Y-389000000D01*
X251800000Y-390900000D02*
X249900000Y-389000000D01*
X251800000Y-444000000D02*
X251800000Y-390900000D01*
%TO.C,J1*%
X251800000Y-368250000D02*
X251800000Y-315150000D01*
X251800000Y-315150000D02*
X249900000Y-313250000D01*
X249900000Y-313250000D02*
X245200000Y-313250000D01*
X245200000Y-313250000D02*
X245200000Y-368250000D01*
X245200000Y-368250000D02*
X251800000Y-368250000D01*
%TO.C,J2*%
X302300000Y-444000000D02*
X302300000Y-390900000D01*
X302300000Y-390900000D02*
X300400000Y-389000000D01*
X300400000Y-389000000D02*
X295700000Y-389000000D01*
X295700000Y-389000000D02*
X295700000Y-444000000D01*
X295700000Y-444000000D02*
X302300000Y-444000000D01*
%TO.C,J1*%
X295700000Y-368250000D02*
X302300000Y-368250000D01*
X295700000Y-313250000D02*
X295700000Y-368250000D01*
X300400000Y-313250000D02*
X295700000Y-313250000D01*
X302300000Y-315150000D02*
X300400000Y-313250000D01*
X302300000Y-368250000D02*
X302300000Y-315150000D01*
%TO.C,J402*%
X201300000Y-216750000D02*
X201300000Y-163650000D01*
X201300000Y-163650000D02*
X199400000Y-161750000D01*
X199400000Y-161750000D02*
X194700000Y-161750000D01*
X194700000Y-161750000D02*
X194700000Y-216750000D01*
X194700000Y-216750000D02*
X201300000Y-216750000D01*
%TO.C,J602*%
X194700000Y-292500000D02*
X201300000Y-292500000D01*
X194700000Y-237500000D02*
X194700000Y-292500000D01*
X199400000Y-237500000D02*
X194700000Y-237500000D01*
X201300000Y-239400000D02*
X199400000Y-237500000D01*
X201300000Y-292500000D02*
X201300000Y-239400000D01*
%TO.C,J102*%
X201300000Y-65250000D02*
X201300000Y-12150000D01*
X201300000Y-12150000D02*
X199400000Y-10250000D01*
X199400000Y-10250000D02*
X194700000Y-10250000D01*
X194700000Y-10250000D02*
X194700000Y-65250000D01*
X194700000Y-65250000D02*
X201300000Y-65250000D01*
%TO.C,J302*%
X194700000Y-141000000D02*
X201300000Y-141000000D01*
X194700000Y-86000000D02*
X194700000Y-141000000D01*
X199400000Y-86000000D02*
X194700000Y-86000000D01*
X201300000Y-87900000D02*
X199400000Y-86000000D01*
X201300000Y-141000000D02*
X201300000Y-87900000D01*
%TO.C,J2*%
X194700000Y-444000000D02*
X201300000Y-444000000D01*
X194700000Y-389000000D02*
X194700000Y-444000000D01*
X199400000Y-389000000D02*
X194700000Y-389000000D01*
X201300000Y-390900000D02*
X199400000Y-389000000D01*
X201300000Y-444000000D02*
X201300000Y-390900000D01*
%TO.C,J1*%
X201300000Y-368250000D02*
X201300000Y-315150000D01*
X201300000Y-315150000D02*
X199400000Y-313250000D01*
X199400000Y-313250000D02*
X194700000Y-313250000D01*
X194700000Y-313250000D02*
X194700000Y-368250000D01*
X194700000Y-368250000D02*
X201300000Y-368250000D01*
%TO.C,J2*%
X150800000Y-444000000D02*
X150800000Y-390900000D01*
X150800000Y-390900000D02*
X148900000Y-389000000D01*
X148900000Y-389000000D02*
X144200000Y-389000000D01*
X144200000Y-389000000D02*
X144200000Y-444000000D01*
X144200000Y-444000000D02*
X150800000Y-444000000D01*
%TO.C,J1*%
X144200000Y-368250000D02*
X150800000Y-368250000D01*
X144200000Y-313250000D02*
X144200000Y-368250000D01*
X148900000Y-313250000D02*
X144200000Y-313250000D01*
X150800000Y-315150000D02*
X148900000Y-313250000D01*
X150800000Y-368250000D02*
X150800000Y-315150000D01*
%TO.C,J602*%
X150800000Y-292500000D02*
X150800000Y-239400000D01*
X150800000Y-239400000D02*
X148900000Y-237500000D01*
X148900000Y-237500000D02*
X144200000Y-237500000D01*
X144200000Y-237500000D02*
X144200000Y-292500000D01*
X144200000Y-292500000D02*
X150800000Y-292500000D01*
%TO.C,J102*%
X144200000Y-65250000D02*
X150800000Y-65250000D01*
X144200000Y-10250000D02*
X144200000Y-65250000D01*
X148900000Y-10250000D02*
X144200000Y-10250000D01*
X150800000Y-12150000D02*
X148900000Y-10250000D01*
X150800000Y-65250000D02*
X150800000Y-12150000D01*
%TO.C,J302*%
X150800000Y-141000000D02*
X150800000Y-87900000D01*
X150800000Y-87900000D02*
X148900000Y-86000000D01*
X148900000Y-86000000D02*
X144200000Y-86000000D01*
X144200000Y-86000000D02*
X144200000Y-141000000D01*
X144200000Y-141000000D02*
X150800000Y-141000000D01*
%TO.C,J402*%
X144200000Y-216750000D02*
X150800000Y-216750000D01*
X144200000Y-161750000D02*
X144200000Y-216750000D01*
X148900000Y-161750000D02*
X144200000Y-161750000D01*
X150800000Y-163650000D02*
X148900000Y-161750000D01*
X150800000Y-216750000D02*
X150800000Y-163650000D01*
%TO.C,J102*%
D11*
X552785855Y-7202320D02*
X552785855Y-7916685D01*
X552833480Y-8059557D01*
X552928728Y-8154806D01*
X553071601Y-8202430D01*
X553166850Y-8202430D01*
X551785745Y-8202430D02*
X552357237Y-8202430D01*
X552071491Y-8202430D02*
X552071491Y-7202320D01*
X552166740Y-7345193D01*
X552261988Y-7440442D01*
X552357237Y-7488066D01*
X551166630Y-7202320D02*
X551071381Y-7202320D01*
X550976132Y-7249945D01*
X550928508Y-7297569D01*
X550880884Y-7392817D01*
X550833260Y-7583315D01*
X550833260Y-7821436D01*
X550880884Y-8011933D01*
X550928508Y-8107182D01*
X550976132Y-8154806D01*
X551071381Y-8202430D01*
X551166630Y-8202430D01*
X551261878Y-8154806D01*
X551309502Y-8107182D01*
X551357127Y-8011933D01*
X551404751Y-7821436D01*
X551404751Y-7583315D01*
X551357127Y-7392817D01*
X551309502Y-7297569D01*
X551261878Y-7249945D01*
X551166630Y-7202320D01*
X550452265Y-7297569D02*
X550404641Y-7249945D01*
X550309392Y-7202320D01*
X550071271Y-7202320D01*
X549976022Y-7249945D01*
X549928398Y-7297569D01*
X549880774Y-7392817D01*
X549880774Y-7488066D01*
X549928398Y-7630939D01*
X550499890Y-8202430D01*
X549880774Y-8202430D01*
X555762649Y-14794232D02*
X555762649Y-14222767D01*
X555762649Y-14508500D02*
X554762586Y-14508500D01*
X554905452Y-14413255D01*
X555000696Y-14318011D01*
X555048318Y-14222767D01*
X545960769Y-14195132D02*
X545913092Y-14242810D01*
X545865414Y-14338166D01*
X545865414Y-14576555D01*
X545913092Y-14671911D01*
X545960769Y-14719589D01*
X546056125Y-14767267D01*
X546151481Y-14767267D01*
X546294515Y-14719589D01*
X546866650Y-14147454D01*
X546866650Y-14767267D01*
%TO.C,J402*%
X552785855Y-158702320D02*
X552785855Y-159416685D01*
X552833480Y-159559557D01*
X552928728Y-159654806D01*
X553071601Y-159702430D01*
X553166850Y-159702430D01*
X551880994Y-159035690D02*
X551880994Y-159702430D01*
X552119115Y-158654696D02*
X552357237Y-159369060D01*
X551738121Y-159369060D01*
X551166630Y-158702320D02*
X551071381Y-158702320D01*
X550976132Y-158749945D01*
X550928508Y-158797569D01*
X550880884Y-158892817D01*
X550833260Y-159083315D01*
X550833260Y-159321436D01*
X550880884Y-159511933D01*
X550928508Y-159607182D01*
X550976132Y-159654806D01*
X551071381Y-159702430D01*
X551166630Y-159702430D01*
X551261878Y-159654806D01*
X551309502Y-159607182D01*
X551357127Y-159511933D01*
X551404751Y-159321436D01*
X551404751Y-159083315D01*
X551357127Y-158892817D01*
X551309502Y-158797569D01*
X551261878Y-158749945D01*
X551166630Y-158702320D01*
X550452265Y-158797569D02*
X550404641Y-158749945D01*
X550309392Y-158702320D01*
X550071271Y-158702320D01*
X549976022Y-158749945D01*
X549928398Y-158797569D01*
X549880774Y-158892817D01*
X549880774Y-158988066D01*
X549928398Y-159130939D01*
X550499890Y-159702430D01*
X549880774Y-159702430D01*
X555762649Y-166294232D02*
X555762649Y-165722767D01*
X555762649Y-166008500D02*
X554762586Y-166008500D01*
X554905452Y-165913255D01*
X555000696Y-165818011D01*
X555048318Y-165722767D01*
X545960769Y-165695132D02*
X545913092Y-165742810D01*
X545865414Y-165838166D01*
X545865414Y-166076555D01*
X545913092Y-166171911D01*
X545960769Y-166219589D01*
X546056125Y-166267267D01*
X546151481Y-166267267D01*
X546294515Y-166219589D01*
X546866650Y-165647454D01*
X546866650Y-166267267D01*
%TO.C,J602*%
X552785855Y-234452320D02*
X552785855Y-235166685D01*
X552833480Y-235309557D01*
X552928728Y-235404806D01*
X553071601Y-235452430D01*
X553166850Y-235452430D01*
X551880994Y-234452320D02*
X552071491Y-234452320D01*
X552166740Y-234499945D01*
X552214364Y-234547569D01*
X552309612Y-234690442D01*
X552357237Y-234880939D01*
X552357237Y-235261933D01*
X552309612Y-235357182D01*
X552261988Y-235404806D01*
X552166740Y-235452430D01*
X551976242Y-235452430D01*
X551880994Y-235404806D01*
X551833370Y-235357182D01*
X551785745Y-235261933D01*
X551785745Y-235023812D01*
X551833370Y-234928563D01*
X551880994Y-234880939D01*
X551976242Y-234833315D01*
X552166740Y-234833315D01*
X552261988Y-234880939D01*
X552309612Y-234928563D01*
X552357237Y-235023812D01*
X551166630Y-234452320D02*
X551071381Y-234452320D01*
X550976132Y-234499945D01*
X550928508Y-234547569D01*
X550880884Y-234642817D01*
X550833260Y-234833315D01*
X550833260Y-235071436D01*
X550880884Y-235261933D01*
X550928508Y-235357182D01*
X550976132Y-235404806D01*
X551071381Y-235452430D01*
X551166630Y-235452430D01*
X551261878Y-235404806D01*
X551309502Y-235357182D01*
X551357127Y-235261933D01*
X551404751Y-235071436D01*
X551404751Y-234833315D01*
X551357127Y-234642817D01*
X551309502Y-234547569D01*
X551261878Y-234499945D01*
X551166630Y-234452320D01*
X550452265Y-234547569D02*
X550404641Y-234499945D01*
X550309392Y-234452320D01*
X550071271Y-234452320D01*
X549976022Y-234499945D01*
X549928398Y-234547569D01*
X549880774Y-234642817D01*
X549880774Y-234738066D01*
X549928398Y-234880939D01*
X550499890Y-235452430D01*
X549880774Y-235452430D01*
X545960769Y-241445132D02*
X545913092Y-241492810D01*
X545865414Y-241588166D01*
X545865414Y-241826555D01*
X545913092Y-241921911D01*
X545960769Y-241969589D01*
X546056125Y-242017267D01*
X546151481Y-242017267D01*
X546294515Y-241969589D01*
X546866650Y-241397454D01*
X546866650Y-242017267D01*
X555762649Y-242044232D02*
X555762649Y-241472767D01*
X555762649Y-241758500D02*
X554762586Y-241758500D01*
X554905452Y-241663255D01*
X555000696Y-241568011D01*
X555048318Y-241472767D01*
%TO.C,J302*%
X552785855Y-82952320D02*
X552785855Y-83666685D01*
X552833480Y-83809557D01*
X552928728Y-83904806D01*
X553071601Y-83952430D01*
X553166850Y-83952430D01*
X552404861Y-82952320D02*
X551785745Y-82952320D01*
X552119115Y-83333315D01*
X551976242Y-83333315D01*
X551880994Y-83380939D01*
X551833370Y-83428563D01*
X551785745Y-83523812D01*
X551785745Y-83761933D01*
X551833370Y-83857182D01*
X551880994Y-83904806D01*
X551976242Y-83952430D01*
X552261988Y-83952430D01*
X552357237Y-83904806D01*
X552404861Y-83857182D01*
X551166630Y-82952320D02*
X551071381Y-82952320D01*
X550976132Y-82999945D01*
X550928508Y-83047569D01*
X550880884Y-83142817D01*
X550833260Y-83333315D01*
X550833260Y-83571436D01*
X550880884Y-83761933D01*
X550928508Y-83857182D01*
X550976132Y-83904806D01*
X551071381Y-83952430D01*
X551166630Y-83952430D01*
X551261878Y-83904806D01*
X551309502Y-83857182D01*
X551357127Y-83761933D01*
X551404751Y-83571436D01*
X551404751Y-83333315D01*
X551357127Y-83142817D01*
X551309502Y-83047569D01*
X551261878Y-82999945D01*
X551166630Y-82952320D01*
X550452265Y-83047569D02*
X550404641Y-82999945D01*
X550309392Y-82952320D01*
X550071271Y-82952320D01*
X549976022Y-82999945D01*
X549928398Y-83047569D01*
X549880774Y-83142817D01*
X549880774Y-83238066D01*
X549928398Y-83380939D01*
X550499890Y-83952430D01*
X549880774Y-83952430D01*
X545960769Y-89945132D02*
X545913092Y-89992810D01*
X545865414Y-90088166D01*
X545865414Y-90326555D01*
X545913092Y-90421911D01*
X545960769Y-90469589D01*
X546056125Y-90517267D01*
X546151481Y-90517267D01*
X546294515Y-90469589D01*
X546866650Y-89897454D01*
X546866650Y-90517267D01*
X555762649Y-90544232D02*
X555762649Y-89972767D01*
X555762649Y-90258500D02*
X554762586Y-90258500D01*
X554905452Y-90163255D01*
X555000696Y-90068011D01*
X555048318Y-89972767D01*
%TO.C,J1*%
X551833370Y-310202320D02*
X551833370Y-310916685D01*
X551880994Y-311059557D01*
X551976242Y-311154806D01*
X552119115Y-311202430D01*
X552214364Y-311202430D01*
X550833260Y-311202430D02*
X551404751Y-311202430D01*
X551119005Y-311202430D02*
X551119005Y-310202320D01*
X551214254Y-310345193D01*
X551309502Y-310440442D01*
X551404751Y-310488066D01*
X555762649Y-317794232D02*
X555762649Y-317222767D01*
X555762649Y-317508500D02*
X554762586Y-317508500D01*
X554905452Y-317413255D01*
X555000696Y-317318011D01*
X555048318Y-317222767D01*
X545960769Y-317195132D02*
X545913092Y-317242810D01*
X545865414Y-317338166D01*
X545865414Y-317576555D01*
X545913092Y-317671911D01*
X545960769Y-317719589D01*
X546056125Y-317767267D01*
X546151481Y-317767267D01*
X546294515Y-317719589D01*
X546866650Y-317147454D01*
X546866650Y-317767267D01*
%TO.C,J2*%
X551833370Y-385952320D02*
X551833370Y-386666685D01*
X551880994Y-386809557D01*
X551976242Y-386904806D01*
X552119115Y-386952430D01*
X552214364Y-386952430D01*
X551404751Y-386047569D02*
X551357127Y-385999945D01*
X551261878Y-385952320D01*
X551023757Y-385952320D01*
X550928508Y-385999945D01*
X550880884Y-386047569D01*
X550833260Y-386142817D01*
X550833260Y-386238066D01*
X550880884Y-386380939D01*
X551452375Y-386952430D01*
X550833260Y-386952430D01*
X546866650Y-393517267D02*
X546914328Y-393469589D01*
X546962005Y-393374233D01*
X546962005Y-393135844D01*
X546914328Y-393040488D01*
X546866650Y-392992810D01*
X546771294Y-392945132D01*
X546675938Y-392945132D01*
X546532904Y-392992810D01*
X545960769Y-393564945D01*
X545960769Y-392945132D01*
X554857830Y-392972767D02*
X554857830Y-393544232D01*
X554857830Y-393258500D02*
X555857893Y-393258500D01*
X555715027Y-393353744D01*
X555619783Y-393448988D01*
X555572161Y-393544232D01*
%TO.C,J102*%
X401285855Y-7202320D02*
X401285855Y-7916685D01*
X401333480Y-8059557D01*
X401428728Y-8154806D01*
X401571601Y-8202430D01*
X401666850Y-8202430D01*
X400285745Y-8202430D02*
X400857237Y-8202430D01*
X400571491Y-8202430D02*
X400571491Y-7202320D01*
X400666740Y-7345193D01*
X400761988Y-7440442D01*
X400857237Y-7488066D01*
X399666630Y-7202320D02*
X399571381Y-7202320D01*
X399476132Y-7249945D01*
X399428508Y-7297569D01*
X399380884Y-7392817D01*
X399333260Y-7583315D01*
X399333260Y-7821436D01*
X399380884Y-8011933D01*
X399428508Y-8107182D01*
X399476132Y-8154806D01*
X399571381Y-8202430D01*
X399666630Y-8202430D01*
X399761878Y-8154806D01*
X399809502Y-8107182D01*
X399857127Y-8011933D01*
X399904751Y-7821436D01*
X399904751Y-7583315D01*
X399857127Y-7392817D01*
X399809502Y-7297569D01*
X399761878Y-7249945D01*
X399666630Y-7202320D01*
X398952265Y-7297569D02*
X398904641Y-7249945D01*
X398809392Y-7202320D01*
X398571271Y-7202320D01*
X398476022Y-7249945D01*
X398428398Y-7297569D01*
X398380774Y-7392817D01*
X398380774Y-7488066D01*
X398428398Y-7630939D01*
X398999890Y-8202430D01*
X398380774Y-8202430D01*
X404262649Y-14794232D02*
X404262649Y-14222767D01*
X404262649Y-14508500D02*
X403262586Y-14508500D01*
X403405452Y-14413255D01*
X403500696Y-14318011D01*
X403548318Y-14222767D01*
X394460769Y-14195132D02*
X394413092Y-14242810D01*
X394365414Y-14338166D01*
X394365414Y-14576555D01*
X394413092Y-14671911D01*
X394460769Y-14719589D01*
X394556125Y-14767267D01*
X394651481Y-14767267D01*
X394794515Y-14719589D01*
X395366650Y-14147454D01*
X395366650Y-14767267D01*
%TO.C,J302*%
X401285855Y-82952320D02*
X401285855Y-83666685D01*
X401333480Y-83809557D01*
X401428728Y-83904806D01*
X401571601Y-83952430D01*
X401666850Y-83952430D01*
X400904861Y-82952320D02*
X400285745Y-82952320D01*
X400619115Y-83333315D01*
X400476242Y-83333315D01*
X400380994Y-83380939D01*
X400333370Y-83428563D01*
X400285745Y-83523812D01*
X400285745Y-83761933D01*
X400333370Y-83857182D01*
X400380994Y-83904806D01*
X400476242Y-83952430D01*
X400761988Y-83952430D01*
X400857237Y-83904806D01*
X400904861Y-83857182D01*
X399666630Y-82952320D02*
X399571381Y-82952320D01*
X399476132Y-82999945D01*
X399428508Y-83047569D01*
X399380884Y-83142817D01*
X399333260Y-83333315D01*
X399333260Y-83571436D01*
X399380884Y-83761933D01*
X399428508Y-83857182D01*
X399476132Y-83904806D01*
X399571381Y-83952430D01*
X399666630Y-83952430D01*
X399761878Y-83904806D01*
X399809502Y-83857182D01*
X399857127Y-83761933D01*
X399904751Y-83571436D01*
X399904751Y-83333315D01*
X399857127Y-83142817D01*
X399809502Y-83047569D01*
X399761878Y-82999945D01*
X399666630Y-82952320D01*
X398952265Y-83047569D02*
X398904641Y-82999945D01*
X398809392Y-82952320D01*
X398571271Y-82952320D01*
X398476022Y-82999945D01*
X398428398Y-83047569D01*
X398380774Y-83142817D01*
X398380774Y-83238066D01*
X398428398Y-83380939D01*
X398999890Y-83952430D01*
X398380774Y-83952430D01*
X394460769Y-89945132D02*
X394413092Y-89992810D01*
X394365414Y-90088166D01*
X394365414Y-90326555D01*
X394413092Y-90421911D01*
X394460769Y-90469589D01*
X394556125Y-90517267D01*
X394651481Y-90517267D01*
X394794515Y-90469589D01*
X395366650Y-89897454D01*
X395366650Y-90517267D01*
X404262649Y-90544232D02*
X404262649Y-89972767D01*
X404262649Y-90258500D02*
X403262586Y-90258500D01*
X403405452Y-90163255D01*
X403500696Y-90068011D01*
X403548318Y-89972767D01*
%TO.C,J402*%
X350785855Y-158702320D02*
X350785855Y-159416685D01*
X350833480Y-159559557D01*
X350928728Y-159654806D01*
X351071601Y-159702430D01*
X351166850Y-159702430D01*
X349880994Y-159035690D02*
X349880994Y-159702430D01*
X350119115Y-158654696D02*
X350357237Y-159369060D01*
X349738121Y-159369060D01*
X349166630Y-158702320D02*
X349071381Y-158702320D01*
X348976132Y-158749945D01*
X348928508Y-158797569D01*
X348880884Y-158892817D01*
X348833260Y-159083315D01*
X348833260Y-159321436D01*
X348880884Y-159511933D01*
X348928508Y-159607182D01*
X348976132Y-159654806D01*
X349071381Y-159702430D01*
X349166630Y-159702430D01*
X349261878Y-159654806D01*
X349309502Y-159607182D01*
X349357127Y-159511933D01*
X349404751Y-159321436D01*
X349404751Y-159083315D01*
X349357127Y-158892817D01*
X349309502Y-158797569D01*
X349261878Y-158749945D01*
X349166630Y-158702320D01*
X348452265Y-158797569D02*
X348404641Y-158749945D01*
X348309392Y-158702320D01*
X348071271Y-158702320D01*
X347976022Y-158749945D01*
X347928398Y-158797569D01*
X347880774Y-158892817D01*
X347880774Y-158988066D01*
X347928398Y-159130939D01*
X348499890Y-159702430D01*
X347880774Y-159702430D01*
X343960769Y-165695132D02*
X343913092Y-165742810D01*
X343865414Y-165838166D01*
X343865414Y-166076555D01*
X343913092Y-166171911D01*
X343960769Y-166219589D01*
X344056125Y-166267267D01*
X344151481Y-166267267D01*
X344294515Y-166219589D01*
X344866650Y-165647454D01*
X344866650Y-166267267D01*
X353762649Y-166294232D02*
X353762649Y-165722767D01*
X353762649Y-166008500D02*
X352762586Y-166008500D01*
X352905452Y-165913255D01*
X353000696Y-165818011D01*
X353048318Y-165722767D01*
%TO.C,J602*%
X350785855Y-234452320D02*
X350785855Y-235166685D01*
X350833480Y-235309557D01*
X350928728Y-235404806D01*
X351071601Y-235452430D01*
X351166850Y-235452430D01*
X349880994Y-234452320D02*
X350071491Y-234452320D01*
X350166740Y-234499945D01*
X350214364Y-234547569D01*
X350309612Y-234690442D01*
X350357237Y-234880939D01*
X350357237Y-235261933D01*
X350309612Y-235357182D01*
X350261988Y-235404806D01*
X350166740Y-235452430D01*
X349976242Y-235452430D01*
X349880994Y-235404806D01*
X349833370Y-235357182D01*
X349785745Y-235261933D01*
X349785745Y-235023812D01*
X349833370Y-234928563D01*
X349880994Y-234880939D01*
X349976242Y-234833315D01*
X350166740Y-234833315D01*
X350261988Y-234880939D01*
X350309612Y-234928563D01*
X350357237Y-235023812D01*
X349166630Y-234452320D02*
X349071381Y-234452320D01*
X348976132Y-234499945D01*
X348928508Y-234547569D01*
X348880884Y-234642817D01*
X348833260Y-234833315D01*
X348833260Y-235071436D01*
X348880884Y-235261933D01*
X348928508Y-235357182D01*
X348976132Y-235404806D01*
X349071381Y-235452430D01*
X349166630Y-235452430D01*
X349261878Y-235404806D01*
X349309502Y-235357182D01*
X349357127Y-235261933D01*
X349404751Y-235071436D01*
X349404751Y-234833315D01*
X349357127Y-234642817D01*
X349309502Y-234547569D01*
X349261878Y-234499945D01*
X349166630Y-234452320D01*
X348452265Y-234547569D02*
X348404641Y-234499945D01*
X348309392Y-234452320D01*
X348071271Y-234452320D01*
X347976022Y-234499945D01*
X347928398Y-234547569D01*
X347880774Y-234642817D01*
X347880774Y-234738066D01*
X347928398Y-234880939D01*
X348499890Y-235452430D01*
X347880774Y-235452430D01*
X353762649Y-242044232D02*
X353762649Y-241472767D01*
X353762649Y-241758500D02*
X352762586Y-241758500D01*
X352905452Y-241663255D01*
X353000696Y-241568011D01*
X353048318Y-241472767D01*
X343960769Y-241445132D02*
X343913092Y-241492810D01*
X343865414Y-241588166D01*
X343865414Y-241826555D01*
X343913092Y-241921911D01*
X343960769Y-241969589D01*
X344056125Y-242017267D01*
X344151481Y-242017267D01*
X344294515Y-241969589D01*
X344866650Y-241397454D01*
X344866650Y-242017267D01*
%TO.C,J102*%
X350785855Y-7202320D02*
X350785855Y-7916685D01*
X350833480Y-8059557D01*
X350928728Y-8154806D01*
X351071601Y-8202430D01*
X351166850Y-8202430D01*
X349785745Y-8202430D02*
X350357237Y-8202430D01*
X350071491Y-8202430D02*
X350071491Y-7202320D01*
X350166740Y-7345193D01*
X350261988Y-7440442D01*
X350357237Y-7488066D01*
X349166630Y-7202320D02*
X349071381Y-7202320D01*
X348976132Y-7249945D01*
X348928508Y-7297569D01*
X348880884Y-7392817D01*
X348833260Y-7583315D01*
X348833260Y-7821436D01*
X348880884Y-8011933D01*
X348928508Y-8107182D01*
X348976132Y-8154806D01*
X349071381Y-8202430D01*
X349166630Y-8202430D01*
X349261878Y-8154806D01*
X349309502Y-8107182D01*
X349357127Y-8011933D01*
X349404751Y-7821436D01*
X349404751Y-7583315D01*
X349357127Y-7392817D01*
X349309502Y-7297569D01*
X349261878Y-7249945D01*
X349166630Y-7202320D01*
X348452265Y-7297569D02*
X348404641Y-7249945D01*
X348309392Y-7202320D01*
X348071271Y-7202320D01*
X347976022Y-7249945D01*
X347928398Y-7297569D01*
X347880774Y-7392817D01*
X347880774Y-7488066D01*
X347928398Y-7630939D01*
X348499890Y-8202430D01*
X347880774Y-8202430D01*
X343960769Y-14195132D02*
X343913092Y-14242810D01*
X343865414Y-14338166D01*
X343865414Y-14576555D01*
X343913092Y-14671911D01*
X343960769Y-14719589D01*
X344056125Y-14767267D01*
X344151481Y-14767267D01*
X344294515Y-14719589D01*
X344866650Y-14147454D01*
X344866650Y-14767267D01*
X353762649Y-14794232D02*
X353762649Y-14222767D01*
X353762649Y-14508500D02*
X352762586Y-14508500D01*
X352905452Y-14413255D01*
X353000696Y-14318011D01*
X353048318Y-14222767D01*
%TO.C,J302*%
X350785855Y-82952320D02*
X350785855Y-83666685D01*
X350833480Y-83809557D01*
X350928728Y-83904806D01*
X351071601Y-83952430D01*
X351166850Y-83952430D01*
X350404861Y-82952320D02*
X349785745Y-82952320D01*
X350119115Y-83333315D01*
X349976242Y-83333315D01*
X349880994Y-83380939D01*
X349833370Y-83428563D01*
X349785745Y-83523812D01*
X349785745Y-83761933D01*
X349833370Y-83857182D01*
X349880994Y-83904806D01*
X349976242Y-83952430D01*
X350261988Y-83952430D01*
X350357237Y-83904806D01*
X350404861Y-83857182D01*
X349166630Y-82952320D02*
X349071381Y-82952320D01*
X348976132Y-82999945D01*
X348928508Y-83047569D01*
X348880884Y-83142817D01*
X348833260Y-83333315D01*
X348833260Y-83571436D01*
X348880884Y-83761933D01*
X348928508Y-83857182D01*
X348976132Y-83904806D01*
X349071381Y-83952430D01*
X349166630Y-83952430D01*
X349261878Y-83904806D01*
X349309502Y-83857182D01*
X349357127Y-83761933D01*
X349404751Y-83571436D01*
X349404751Y-83333315D01*
X349357127Y-83142817D01*
X349309502Y-83047569D01*
X349261878Y-82999945D01*
X349166630Y-82952320D01*
X348452265Y-83047569D02*
X348404641Y-82999945D01*
X348309392Y-82952320D01*
X348071271Y-82952320D01*
X347976022Y-82999945D01*
X347928398Y-83047569D01*
X347880774Y-83142817D01*
X347880774Y-83238066D01*
X347928398Y-83380939D01*
X348499890Y-83952430D01*
X347880774Y-83952430D01*
X353762649Y-90544232D02*
X353762649Y-89972767D01*
X353762649Y-90258500D02*
X352762586Y-90258500D01*
X352905452Y-90163255D01*
X353000696Y-90068011D01*
X353048318Y-89972767D01*
X343960769Y-89945132D02*
X343913092Y-89992810D01*
X343865414Y-90088166D01*
X343865414Y-90326555D01*
X343913092Y-90421911D01*
X343960769Y-90469589D01*
X344056125Y-90517267D01*
X344151481Y-90517267D01*
X344294515Y-90469589D01*
X344866650Y-89897454D01*
X344866650Y-90517267D01*
%TO.C,J402*%
X401285855Y-158702320D02*
X401285855Y-159416685D01*
X401333480Y-159559557D01*
X401428728Y-159654806D01*
X401571601Y-159702430D01*
X401666850Y-159702430D01*
X400380994Y-159035690D02*
X400380994Y-159702430D01*
X400619115Y-158654696D02*
X400857237Y-159369060D01*
X400238121Y-159369060D01*
X399666630Y-158702320D02*
X399571381Y-158702320D01*
X399476132Y-158749945D01*
X399428508Y-158797569D01*
X399380884Y-158892817D01*
X399333260Y-159083315D01*
X399333260Y-159321436D01*
X399380884Y-159511933D01*
X399428508Y-159607182D01*
X399476132Y-159654806D01*
X399571381Y-159702430D01*
X399666630Y-159702430D01*
X399761878Y-159654806D01*
X399809502Y-159607182D01*
X399857127Y-159511933D01*
X399904751Y-159321436D01*
X399904751Y-159083315D01*
X399857127Y-158892817D01*
X399809502Y-158797569D01*
X399761878Y-158749945D01*
X399666630Y-158702320D01*
X398952265Y-158797569D02*
X398904641Y-158749945D01*
X398809392Y-158702320D01*
X398571271Y-158702320D01*
X398476022Y-158749945D01*
X398428398Y-158797569D01*
X398380774Y-158892817D01*
X398380774Y-158988066D01*
X398428398Y-159130939D01*
X398999890Y-159702430D01*
X398380774Y-159702430D01*
X404262649Y-166294232D02*
X404262649Y-165722767D01*
X404262649Y-166008500D02*
X403262586Y-166008500D01*
X403405452Y-165913255D01*
X403500696Y-165818011D01*
X403548318Y-165722767D01*
X394460769Y-165695132D02*
X394413092Y-165742810D01*
X394365414Y-165838166D01*
X394365414Y-166076555D01*
X394413092Y-166171911D01*
X394460769Y-166219589D01*
X394556125Y-166267267D01*
X394651481Y-166267267D01*
X394794515Y-166219589D01*
X395366650Y-165647454D01*
X395366650Y-166267267D01*
%TO.C,J602*%
X401285855Y-234452320D02*
X401285855Y-235166685D01*
X401333480Y-235309557D01*
X401428728Y-235404806D01*
X401571601Y-235452430D01*
X401666850Y-235452430D01*
X400380994Y-234452320D02*
X400571491Y-234452320D01*
X400666740Y-234499945D01*
X400714364Y-234547569D01*
X400809612Y-234690442D01*
X400857237Y-234880939D01*
X400857237Y-235261933D01*
X400809612Y-235357182D01*
X400761988Y-235404806D01*
X400666740Y-235452430D01*
X400476242Y-235452430D01*
X400380994Y-235404806D01*
X400333370Y-235357182D01*
X400285745Y-235261933D01*
X400285745Y-235023812D01*
X400333370Y-234928563D01*
X400380994Y-234880939D01*
X400476242Y-234833315D01*
X400666740Y-234833315D01*
X400761988Y-234880939D01*
X400809612Y-234928563D01*
X400857237Y-235023812D01*
X399666630Y-234452320D02*
X399571381Y-234452320D01*
X399476132Y-234499945D01*
X399428508Y-234547569D01*
X399380884Y-234642817D01*
X399333260Y-234833315D01*
X399333260Y-235071436D01*
X399380884Y-235261933D01*
X399428508Y-235357182D01*
X399476132Y-235404806D01*
X399571381Y-235452430D01*
X399666630Y-235452430D01*
X399761878Y-235404806D01*
X399809502Y-235357182D01*
X399857127Y-235261933D01*
X399904751Y-235071436D01*
X399904751Y-234833315D01*
X399857127Y-234642817D01*
X399809502Y-234547569D01*
X399761878Y-234499945D01*
X399666630Y-234452320D01*
X398952265Y-234547569D02*
X398904641Y-234499945D01*
X398809392Y-234452320D01*
X398571271Y-234452320D01*
X398476022Y-234499945D01*
X398428398Y-234547569D01*
X398380774Y-234642817D01*
X398380774Y-234738066D01*
X398428398Y-234880939D01*
X398999890Y-235452430D01*
X398380774Y-235452430D01*
X394460769Y-241445132D02*
X394413092Y-241492810D01*
X394365414Y-241588166D01*
X394365414Y-241826555D01*
X394413092Y-241921911D01*
X394460769Y-241969589D01*
X394556125Y-242017267D01*
X394651481Y-242017267D01*
X394794515Y-241969589D01*
X395366650Y-241397454D01*
X395366650Y-242017267D01*
X404262649Y-242044232D02*
X404262649Y-241472767D01*
X404262649Y-241758500D02*
X403262586Y-241758500D01*
X403405452Y-241663255D01*
X403500696Y-241568011D01*
X403548318Y-241472767D01*
%TO.C,J2*%
X349833370Y-385952320D02*
X349833370Y-386666685D01*
X349880994Y-386809557D01*
X349976242Y-386904806D01*
X350119115Y-386952430D01*
X350214364Y-386952430D01*
X349404751Y-386047569D02*
X349357127Y-385999945D01*
X349261878Y-385952320D01*
X349023757Y-385952320D01*
X348928508Y-385999945D01*
X348880884Y-386047569D01*
X348833260Y-386142817D01*
X348833260Y-386238066D01*
X348880884Y-386380939D01*
X349452375Y-386952430D01*
X348833260Y-386952430D01*
X352857830Y-392972767D02*
X352857830Y-393544232D01*
X352857830Y-393258500D02*
X353857893Y-393258500D01*
X353715027Y-393353744D01*
X353619783Y-393448988D01*
X353572161Y-393544232D01*
X344866650Y-393517267D02*
X344914328Y-393469589D01*
X344962005Y-393374233D01*
X344962005Y-393135844D01*
X344914328Y-393040488D01*
X344866650Y-392992810D01*
X344771294Y-392945132D01*
X344675938Y-392945132D01*
X344532904Y-392992810D01*
X343960769Y-393564945D01*
X343960769Y-392945132D01*
%TO.C,J1*%
X349833370Y-310202320D02*
X349833370Y-310916685D01*
X349880994Y-311059557D01*
X349976242Y-311154806D01*
X350119115Y-311202430D01*
X350214364Y-311202430D01*
X348833260Y-311202430D02*
X349404751Y-311202430D01*
X349119005Y-311202430D02*
X349119005Y-310202320D01*
X349214254Y-310345193D01*
X349309502Y-310440442D01*
X349404751Y-310488066D01*
X343960769Y-317195132D02*
X343913092Y-317242810D01*
X343865414Y-317338166D01*
X343865414Y-317576555D01*
X343913092Y-317671911D01*
X343960769Y-317719589D01*
X344056125Y-317767267D01*
X344151481Y-317767267D01*
X344294515Y-317719589D01*
X344866650Y-317147454D01*
X344866650Y-317767267D01*
X353762649Y-317794232D02*
X353762649Y-317222767D01*
X353762649Y-317508500D02*
X352762586Y-317508500D01*
X352905452Y-317413255D01*
X353000696Y-317318011D01*
X353048318Y-317222767D01*
%TO.C,J102*%
X451785855Y-7202320D02*
X451785855Y-7916685D01*
X451833480Y-8059557D01*
X451928728Y-8154806D01*
X452071601Y-8202430D01*
X452166850Y-8202430D01*
X450785745Y-8202430D02*
X451357237Y-8202430D01*
X451071491Y-8202430D02*
X451071491Y-7202320D01*
X451166740Y-7345193D01*
X451261988Y-7440442D01*
X451357237Y-7488066D01*
X450166630Y-7202320D02*
X450071381Y-7202320D01*
X449976132Y-7249945D01*
X449928508Y-7297569D01*
X449880884Y-7392817D01*
X449833260Y-7583315D01*
X449833260Y-7821436D01*
X449880884Y-8011933D01*
X449928508Y-8107182D01*
X449976132Y-8154806D01*
X450071381Y-8202430D01*
X450166630Y-8202430D01*
X450261878Y-8154806D01*
X450309502Y-8107182D01*
X450357127Y-8011933D01*
X450404751Y-7821436D01*
X450404751Y-7583315D01*
X450357127Y-7392817D01*
X450309502Y-7297569D01*
X450261878Y-7249945D01*
X450166630Y-7202320D01*
X449452265Y-7297569D02*
X449404641Y-7249945D01*
X449309392Y-7202320D01*
X449071271Y-7202320D01*
X448976022Y-7249945D01*
X448928398Y-7297569D01*
X448880774Y-7392817D01*
X448880774Y-7488066D01*
X448928398Y-7630939D01*
X449499890Y-8202430D01*
X448880774Y-8202430D01*
X454762649Y-14794232D02*
X454762649Y-14222767D01*
X454762649Y-14508500D02*
X453762586Y-14508500D01*
X453905452Y-14413255D01*
X454000696Y-14318011D01*
X454048318Y-14222767D01*
X444960769Y-14195132D02*
X444913092Y-14242810D01*
X444865414Y-14338166D01*
X444865414Y-14576555D01*
X444913092Y-14671911D01*
X444960769Y-14719589D01*
X445056125Y-14767267D01*
X445151481Y-14767267D01*
X445294515Y-14719589D01*
X445866650Y-14147454D01*
X445866650Y-14767267D01*
%TO.C,J302*%
X451785855Y-82952320D02*
X451785855Y-83666685D01*
X451833480Y-83809557D01*
X451928728Y-83904806D01*
X452071601Y-83952430D01*
X452166850Y-83952430D01*
X451404861Y-82952320D02*
X450785745Y-82952320D01*
X451119115Y-83333315D01*
X450976242Y-83333315D01*
X450880994Y-83380939D01*
X450833370Y-83428563D01*
X450785745Y-83523812D01*
X450785745Y-83761933D01*
X450833370Y-83857182D01*
X450880994Y-83904806D01*
X450976242Y-83952430D01*
X451261988Y-83952430D01*
X451357237Y-83904806D01*
X451404861Y-83857182D01*
X450166630Y-82952320D02*
X450071381Y-82952320D01*
X449976132Y-82999945D01*
X449928508Y-83047569D01*
X449880884Y-83142817D01*
X449833260Y-83333315D01*
X449833260Y-83571436D01*
X449880884Y-83761933D01*
X449928508Y-83857182D01*
X449976132Y-83904806D01*
X450071381Y-83952430D01*
X450166630Y-83952430D01*
X450261878Y-83904806D01*
X450309502Y-83857182D01*
X450357127Y-83761933D01*
X450404751Y-83571436D01*
X450404751Y-83333315D01*
X450357127Y-83142817D01*
X450309502Y-83047569D01*
X450261878Y-82999945D01*
X450166630Y-82952320D01*
X449452265Y-83047569D02*
X449404641Y-82999945D01*
X449309392Y-82952320D01*
X449071271Y-82952320D01*
X448976022Y-82999945D01*
X448928398Y-83047569D01*
X448880774Y-83142817D01*
X448880774Y-83238066D01*
X448928398Y-83380939D01*
X449499890Y-83952430D01*
X448880774Y-83952430D01*
X444960769Y-89945132D02*
X444913092Y-89992810D01*
X444865414Y-90088166D01*
X444865414Y-90326555D01*
X444913092Y-90421911D01*
X444960769Y-90469589D01*
X445056125Y-90517267D01*
X445151481Y-90517267D01*
X445294515Y-90469589D01*
X445866650Y-89897454D01*
X445866650Y-90517267D01*
X454762649Y-90544232D02*
X454762649Y-89972767D01*
X454762649Y-90258500D02*
X453762586Y-90258500D01*
X453905452Y-90163255D01*
X454000696Y-90068011D01*
X454048318Y-89972767D01*
%TO.C,J402*%
X502285855Y-158702320D02*
X502285855Y-159416685D01*
X502333480Y-159559557D01*
X502428728Y-159654806D01*
X502571601Y-159702430D01*
X502666850Y-159702430D01*
X501380994Y-159035690D02*
X501380994Y-159702430D01*
X501619115Y-158654696D02*
X501857237Y-159369060D01*
X501238121Y-159369060D01*
X500666630Y-158702320D02*
X500571381Y-158702320D01*
X500476132Y-158749945D01*
X500428508Y-158797569D01*
X500380884Y-158892817D01*
X500333260Y-159083315D01*
X500333260Y-159321436D01*
X500380884Y-159511933D01*
X500428508Y-159607182D01*
X500476132Y-159654806D01*
X500571381Y-159702430D01*
X500666630Y-159702430D01*
X500761878Y-159654806D01*
X500809502Y-159607182D01*
X500857127Y-159511933D01*
X500904751Y-159321436D01*
X500904751Y-159083315D01*
X500857127Y-158892817D01*
X500809502Y-158797569D01*
X500761878Y-158749945D01*
X500666630Y-158702320D01*
X499952265Y-158797569D02*
X499904641Y-158749945D01*
X499809392Y-158702320D01*
X499571271Y-158702320D01*
X499476022Y-158749945D01*
X499428398Y-158797569D01*
X499380774Y-158892817D01*
X499380774Y-158988066D01*
X499428398Y-159130939D01*
X499999890Y-159702430D01*
X499380774Y-159702430D01*
X495460769Y-165695132D02*
X495413092Y-165742810D01*
X495365414Y-165838166D01*
X495365414Y-166076555D01*
X495413092Y-166171911D01*
X495460769Y-166219589D01*
X495556125Y-166267267D01*
X495651481Y-166267267D01*
X495794515Y-166219589D01*
X496366650Y-165647454D01*
X496366650Y-166267267D01*
X505262649Y-166294232D02*
X505262649Y-165722767D01*
X505262649Y-166008500D02*
X504262586Y-166008500D01*
X504405452Y-165913255D01*
X504500696Y-165818011D01*
X504548318Y-165722767D01*
%TO.C,J602*%
X502285855Y-234452320D02*
X502285855Y-235166685D01*
X502333480Y-235309557D01*
X502428728Y-235404806D01*
X502571601Y-235452430D01*
X502666850Y-235452430D01*
X501380994Y-234452320D02*
X501571491Y-234452320D01*
X501666740Y-234499945D01*
X501714364Y-234547569D01*
X501809612Y-234690442D01*
X501857237Y-234880939D01*
X501857237Y-235261933D01*
X501809612Y-235357182D01*
X501761988Y-235404806D01*
X501666740Y-235452430D01*
X501476242Y-235452430D01*
X501380994Y-235404806D01*
X501333370Y-235357182D01*
X501285745Y-235261933D01*
X501285745Y-235023812D01*
X501333370Y-234928563D01*
X501380994Y-234880939D01*
X501476242Y-234833315D01*
X501666740Y-234833315D01*
X501761988Y-234880939D01*
X501809612Y-234928563D01*
X501857237Y-235023812D01*
X500666630Y-234452320D02*
X500571381Y-234452320D01*
X500476132Y-234499945D01*
X500428508Y-234547569D01*
X500380884Y-234642817D01*
X500333260Y-234833315D01*
X500333260Y-235071436D01*
X500380884Y-235261933D01*
X500428508Y-235357182D01*
X500476132Y-235404806D01*
X500571381Y-235452430D01*
X500666630Y-235452430D01*
X500761878Y-235404806D01*
X500809502Y-235357182D01*
X500857127Y-235261933D01*
X500904751Y-235071436D01*
X500904751Y-234833315D01*
X500857127Y-234642817D01*
X500809502Y-234547569D01*
X500761878Y-234499945D01*
X500666630Y-234452320D01*
X499952265Y-234547569D02*
X499904641Y-234499945D01*
X499809392Y-234452320D01*
X499571271Y-234452320D01*
X499476022Y-234499945D01*
X499428398Y-234547569D01*
X499380774Y-234642817D01*
X499380774Y-234738066D01*
X499428398Y-234880939D01*
X499999890Y-235452430D01*
X499380774Y-235452430D01*
X505262649Y-242044232D02*
X505262649Y-241472767D01*
X505262649Y-241758500D02*
X504262586Y-241758500D01*
X504405452Y-241663255D01*
X504500696Y-241568011D01*
X504548318Y-241472767D01*
X495460769Y-241445132D02*
X495413092Y-241492810D01*
X495365414Y-241588166D01*
X495365414Y-241826555D01*
X495413092Y-241921911D01*
X495460769Y-241969589D01*
X495556125Y-242017267D01*
X495651481Y-242017267D01*
X495794515Y-241969589D01*
X496366650Y-241397454D01*
X496366650Y-242017267D01*
%TO.C,J102*%
X502285855Y-7202320D02*
X502285855Y-7916685D01*
X502333480Y-8059557D01*
X502428728Y-8154806D01*
X502571601Y-8202430D01*
X502666850Y-8202430D01*
X501285745Y-8202430D02*
X501857237Y-8202430D01*
X501571491Y-8202430D02*
X501571491Y-7202320D01*
X501666740Y-7345193D01*
X501761988Y-7440442D01*
X501857237Y-7488066D01*
X500666630Y-7202320D02*
X500571381Y-7202320D01*
X500476132Y-7249945D01*
X500428508Y-7297569D01*
X500380884Y-7392817D01*
X500333260Y-7583315D01*
X500333260Y-7821436D01*
X500380884Y-8011933D01*
X500428508Y-8107182D01*
X500476132Y-8154806D01*
X500571381Y-8202430D01*
X500666630Y-8202430D01*
X500761878Y-8154806D01*
X500809502Y-8107182D01*
X500857127Y-8011933D01*
X500904751Y-7821436D01*
X500904751Y-7583315D01*
X500857127Y-7392817D01*
X500809502Y-7297569D01*
X500761878Y-7249945D01*
X500666630Y-7202320D01*
X499952265Y-7297569D02*
X499904641Y-7249945D01*
X499809392Y-7202320D01*
X499571271Y-7202320D01*
X499476022Y-7249945D01*
X499428398Y-7297569D01*
X499380774Y-7392817D01*
X499380774Y-7488066D01*
X499428398Y-7630939D01*
X499999890Y-8202430D01*
X499380774Y-8202430D01*
X495460769Y-14195132D02*
X495413092Y-14242810D01*
X495365414Y-14338166D01*
X495365414Y-14576555D01*
X495413092Y-14671911D01*
X495460769Y-14719589D01*
X495556125Y-14767267D01*
X495651481Y-14767267D01*
X495794515Y-14719589D01*
X496366650Y-14147454D01*
X496366650Y-14767267D01*
X505262649Y-14794232D02*
X505262649Y-14222767D01*
X505262649Y-14508500D02*
X504262586Y-14508500D01*
X504405452Y-14413255D01*
X504500696Y-14318011D01*
X504548318Y-14222767D01*
%TO.C,J302*%
X502285855Y-82952320D02*
X502285855Y-83666685D01*
X502333480Y-83809557D01*
X502428728Y-83904806D01*
X502571601Y-83952430D01*
X502666850Y-83952430D01*
X501904861Y-82952320D02*
X501285745Y-82952320D01*
X501619115Y-83333315D01*
X501476242Y-83333315D01*
X501380994Y-83380939D01*
X501333370Y-83428563D01*
X501285745Y-83523812D01*
X501285745Y-83761933D01*
X501333370Y-83857182D01*
X501380994Y-83904806D01*
X501476242Y-83952430D01*
X501761988Y-83952430D01*
X501857237Y-83904806D01*
X501904861Y-83857182D01*
X500666630Y-82952320D02*
X500571381Y-82952320D01*
X500476132Y-82999945D01*
X500428508Y-83047569D01*
X500380884Y-83142817D01*
X500333260Y-83333315D01*
X500333260Y-83571436D01*
X500380884Y-83761933D01*
X500428508Y-83857182D01*
X500476132Y-83904806D01*
X500571381Y-83952430D01*
X500666630Y-83952430D01*
X500761878Y-83904806D01*
X500809502Y-83857182D01*
X500857127Y-83761933D01*
X500904751Y-83571436D01*
X500904751Y-83333315D01*
X500857127Y-83142817D01*
X500809502Y-83047569D01*
X500761878Y-82999945D01*
X500666630Y-82952320D01*
X499952265Y-83047569D02*
X499904641Y-82999945D01*
X499809392Y-82952320D01*
X499571271Y-82952320D01*
X499476022Y-82999945D01*
X499428398Y-83047569D01*
X499380774Y-83142817D01*
X499380774Y-83238066D01*
X499428398Y-83380939D01*
X499999890Y-83952430D01*
X499380774Y-83952430D01*
X505262649Y-90544232D02*
X505262649Y-89972767D01*
X505262649Y-90258500D02*
X504262586Y-90258500D01*
X504405452Y-90163255D01*
X504500696Y-90068011D01*
X504548318Y-89972767D01*
X495460769Y-89945132D02*
X495413092Y-89992810D01*
X495365414Y-90088166D01*
X495365414Y-90326555D01*
X495413092Y-90421911D01*
X495460769Y-90469589D01*
X495556125Y-90517267D01*
X495651481Y-90517267D01*
X495794515Y-90469589D01*
X496366650Y-89897454D01*
X496366650Y-90517267D01*
%TO.C,J402*%
X451785855Y-158702320D02*
X451785855Y-159416685D01*
X451833480Y-159559557D01*
X451928728Y-159654806D01*
X452071601Y-159702430D01*
X452166850Y-159702430D01*
X450880994Y-159035690D02*
X450880994Y-159702430D01*
X451119115Y-158654696D02*
X451357237Y-159369060D01*
X450738121Y-159369060D01*
X450166630Y-158702320D02*
X450071381Y-158702320D01*
X449976132Y-158749945D01*
X449928508Y-158797569D01*
X449880884Y-158892817D01*
X449833260Y-159083315D01*
X449833260Y-159321436D01*
X449880884Y-159511933D01*
X449928508Y-159607182D01*
X449976132Y-159654806D01*
X450071381Y-159702430D01*
X450166630Y-159702430D01*
X450261878Y-159654806D01*
X450309502Y-159607182D01*
X450357127Y-159511933D01*
X450404751Y-159321436D01*
X450404751Y-159083315D01*
X450357127Y-158892817D01*
X450309502Y-158797569D01*
X450261878Y-158749945D01*
X450166630Y-158702320D01*
X449452265Y-158797569D02*
X449404641Y-158749945D01*
X449309392Y-158702320D01*
X449071271Y-158702320D01*
X448976022Y-158749945D01*
X448928398Y-158797569D01*
X448880774Y-158892817D01*
X448880774Y-158988066D01*
X448928398Y-159130939D01*
X449499890Y-159702430D01*
X448880774Y-159702430D01*
X454762649Y-166294232D02*
X454762649Y-165722767D01*
X454762649Y-166008500D02*
X453762586Y-166008500D01*
X453905452Y-165913255D01*
X454000696Y-165818011D01*
X454048318Y-165722767D01*
X444960769Y-165695132D02*
X444913092Y-165742810D01*
X444865414Y-165838166D01*
X444865414Y-166076555D01*
X444913092Y-166171911D01*
X444960769Y-166219589D01*
X445056125Y-166267267D01*
X445151481Y-166267267D01*
X445294515Y-166219589D01*
X445866650Y-165647454D01*
X445866650Y-166267267D01*
%TO.C,J602*%
X451785855Y-234452320D02*
X451785855Y-235166685D01*
X451833480Y-235309557D01*
X451928728Y-235404806D01*
X452071601Y-235452430D01*
X452166850Y-235452430D01*
X450880994Y-234452320D02*
X451071491Y-234452320D01*
X451166740Y-234499945D01*
X451214364Y-234547569D01*
X451309612Y-234690442D01*
X451357237Y-234880939D01*
X451357237Y-235261933D01*
X451309612Y-235357182D01*
X451261988Y-235404806D01*
X451166740Y-235452430D01*
X450976242Y-235452430D01*
X450880994Y-235404806D01*
X450833370Y-235357182D01*
X450785745Y-235261933D01*
X450785745Y-235023812D01*
X450833370Y-234928563D01*
X450880994Y-234880939D01*
X450976242Y-234833315D01*
X451166740Y-234833315D01*
X451261988Y-234880939D01*
X451309612Y-234928563D01*
X451357237Y-235023812D01*
X450166630Y-234452320D02*
X450071381Y-234452320D01*
X449976132Y-234499945D01*
X449928508Y-234547569D01*
X449880884Y-234642817D01*
X449833260Y-234833315D01*
X449833260Y-235071436D01*
X449880884Y-235261933D01*
X449928508Y-235357182D01*
X449976132Y-235404806D01*
X450071381Y-235452430D01*
X450166630Y-235452430D01*
X450261878Y-235404806D01*
X450309502Y-235357182D01*
X450357127Y-235261933D01*
X450404751Y-235071436D01*
X450404751Y-234833315D01*
X450357127Y-234642817D01*
X450309502Y-234547569D01*
X450261878Y-234499945D01*
X450166630Y-234452320D01*
X449452265Y-234547569D02*
X449404641Y-234499945D01*
X449309392Y-234452320D01*
X449071271Y-234452320D01*
X448976022Y-234499945D01*
X448928398Y-234547569D01*
X448880774Y-234642817D01*
X448880774Y-234738066D01*
X448928398Y-234880939D01*
X449499890Y-235452430D01*
X448880774Y-235452430D01*
X444960769Y-241445132D02*
X444913092Y-241492810D01*
X444865414Y-241588166D01*
X444865414Y-241826555D01*
X444913092Y-241921911D01*
X444960769Y-241969589D01*
X445056125Y-242017267D01*
X445151481Y-242017267D01*
X445294515Y-241969589D01*
X445866650Y-241397454D01*
X445866650Y-242017267D01*
X454762649Y-242044232D02*
X454762649Y-241472767D01*
X454762649Y-241758500D02*
X453762586Y-241758500D01*
X453905452Y-241663255D01*
X454000696Y-241568011D01*
X454048318Y-241472767D01*
%TO.C,J1*%
X501333370Y-310202320D02*
X501333370Y-310916685D01*
X501380994Y-311059557D01*
X501476242Y-311154806D01*
X501619115Y-311202430D01*
X501714364Y-311202430D01*
X500333260Y-311202430D02*
X500904751Y-311202430D01*
X500619005Y-311202430D02*
X500619005Y-310202320D01*
X500714254Y-310345193D01*
X500809502Y-310440442D01*
X500904751Y-310488066D01*
X495460769Y-317195132D02*
X495413092Y-317242810D01*
X495365414Y-317338166D01*
X495365414Y-317576555D01*
X495413092Y-317671911D01*
X495460769Y-317719589D01*
X495556125Y-317767267D01*
X495651481Y-317767267D01*
X495794515Y-317719589D01*
X496366650Y-317147454D01*
X496366650Y-317767267D01*
X505262649Y-317794232D02*
X505262649Y-317222767D01*
X505262649Y-317508500D02*
X504262586Y-317508500D01*
X504405452Y-317413255D01*
X504500696Y-317318011D01*
X504548318Y-317222767D01*
%TO.C,J2*%
X450833370Y-385952320D02*
X450833370Y-386666685D01*
X450880994Y-386809557D01*
X450976242Y-386904806D01*
X451119115Y-386952430D01*
X451214364Y-386952430D01*
X450404751Y-386047569D02*
X450357127Y-385999945D01*
X450261878Y-385952320D01*
X450023757Y-385952320D01*
X449928508Y-385999945D01*
X449880884Y-386047569D01*
X449833260Y-386142817D01*
X449833260Y-386238066D01*
X449880884Y-386380939D01*
X450452375Y-386952430D01*
X449833260Y-386952430D01*
X445866650Y-393517267D02*
X445914328Y-393469589D01*
X445962005Y-393374233D01*
X445962005Y-393135844D01*
X445914328Y-393040488D01*
X445866650Y-392992810D01*
X445771294Y-392945132D01*
X445675938Y-392945132D01*
X445532904Y-392992810D01*
X444960769Y-393564945D01*
X444960769Y-392945132D01*
X453857830Y-392972767D02*
X453857830Y-393544232D01*
X453857830Y-393258500D02*
X454857893Y-393258500D01*
X454715027Y-393353744D01*
X454619783Y-393448988D01*
X454572161Y-393544232D01*
%TO.C,J1*%
X450833370Y-310202320D02*
X450833370Y-310916685D01*
X450880994Y-311059557D01*
X450976242Y-311154806D01*
X451119115Y-311202430D01*
X451214364Y-311202430D01*
X449833260Y-311202430D02*
X450404751Y-311202430D01*
X450119005Y-311202430D02*
X450119005Y-310202320D01*
X450214254Y-310345193D01*
X450309502Y-310440442D01*
X450404751Y-310488066D01*
X454762649Y-317794232D02*
X454762649Y-317222767D01*
X454762649Y-317508500D02*
X453762586Y-317508500D01*
X453905452Y-317413255D01*
X454000696Y-317318011D01*
X454048318Y-317222767D01*
X444960769Y-317195132D02*
X444913092Y-317242810D01*
X444865414Y-317338166D01*
X444865414Y-317576555D01*
X444913092Y-317671911D01*
X444960769Y-317719589D01*
X445056125Y-317767267D01*
X445151481Y-317767267D01*
X445294515Y-317719589D01*
X445866650Y-317147454D01*
X445866650Y-317767267D01*
%TO.C,J2*%
X501333370Y-385952320D02*
X501333370Y-386666685D01*
X501380994Y-386809557D01*
X501476242Y-386904806D01*
X501619115Y-386952430D01*
X501714364Y-386952430D01*
X500904751Y-386047569D02*
X500857127Y-385999945D01*
X500761878Y-385952320D01*
X500523757Y-385952320D01*
X500428508Y-385999945D01*
X500380884Y-386047569D01*
X500333260Y-386142817D01*
X500333260Y-386238066D01*
X500380884Y-386380939D01*
X500952375Y-386952430D01*
X500333260Y-386952430D01*
X504357830Y-392972767D02*
X504357830Y-393544232D01*
X504357830Y-393258500D02*
X505357893Y-393258500D01*
X505215027Y-393353744D01*
X505119783Y-393448988D01*
X505072161Y-393544232D01*
X496366650Y-393517267D02*
X496414328Y-393469589D01*
X496462005Y-393374233D01*
X496462005Y-393135844D01*
X496414328Y-393040488D01*
X496366650Y-392992810D01*
X496271294Y-392945132D01*
X496175938Y-392945132D01*
X496032904Y-392992810D01*
X495460769Y-393564945D01*
X495460769Y-392945132D01*
X400333370Y-385952320D02*
X400333370Y-386666685D01*
X400380994Y-386809557D01*
X400476242Y-386904806D01*
X400619115Y-386952430D01*
X400714364Y-386952430D01*
X399904751Y-386047569D02*
X399857127Y-385999945D01*
X399761878Y-385952320D01*
X399523757Y-385952320D01*
X399428508Y-385999945D01*
X399380884Y-386047569D01*
X399333260Y-386142817D01*
X399333260Y-386238066D01*
X399380884Y-386380939D01*
X399952375Y-386952430D01*
X399333260Y-386952430D01*
X395366650Y-393517267D02*
X395414328Y-393469589D01*
X395462005Y-393374233D01*
X395462005Y-393135844D01*
X395414328Y-393040488D01*
X395366650Y-392992810D01*
X395271294Y-392945132D01*
X395175938Y-392945132D01*
X395032904Y-392992810D01*
X394460769Y-393564945D01*
X394460769Y-392945132D01*
X403357830Y-392972767D02*
X403357830Y-393544232D01*
X403357830Y-393258500D02*
X404357893Y-393258500D01*
X404215027Y-393353744D01*
X404119783Y-393448988D01*
X404072161Y-393544232D01*
%TO.C,J1*%
X400333370Y-310202320D02*
X400333370Y-310916685D01*
X400380994Y-311059557D01*
X400476242Y-311154806D01*
X400619115Y-311202430D01*
X400714364Y-311202430D01*
X399333260Y-311202430D02*
X399904751Y-311202430D01*
X399619005Y-311202430D02*
X399619005Y-310202320D01*
X399714254Y-310345193D01*
X399809502Y-310440442D01*
X399904751Y-310488066D01*
X404262649Y-317794232D02*
X404262649Y-317222767D01*
X404262649Y-317508500D02*
X403262586Y-317508500D01*
X403405452Y-317413255D01*
X403500696Y-317318011D01*
X403548318Y-317222767D01*
X394460769Y-317195132D02*
X394413092Y-317242810D01*
X394365414Y-317338166D01*
X394365414Y-317576555D01*
X394413092Y-317671911D01*
X394460769Y-317719589D01*
X394556125Y-317767267D01*
X394651481Y-317767267D01*
X394794515Y-317719589D01*
X395366650Y-317147454D01*
X395366650Y-317767267D01*
%TO.C,J102*%
X300285855Y-7202320D02*
X300285855Y-7916685D01*
X300333480Y-8059557D01*
X300428728Y-8154806D01*
X300571601Y-8202430D01*
X300666850Y-8202430D01*
X299285745Y-8202430D02*
X299857237Y-8202430D01*
X299571491Y-8202430D02*
X299571491Y-7202320D01*
X299666740Y-7345193D01*
X299761988Y-7440442D01*
X299857237Y-7488066D01*
X298666630Y-7202320D02*
X298571381Y-7202320D01*
X298476132Y-7249945D01*
X298428508Y-7297569D01*
X298380884Y-7392817D01*
X298333260Y-7583315D01*
X298333260Y-7821436D01*
X298380884Y-8011933D01*
X298428508Y-8107182D01*
X298476132Y-8154806D01*
X298571381Y-8202430D01*
X298666630Y-8202430D01*
X298761878Y-8154806D01*
X298809502Y-8107182D01*
X298857127Y-8011933D01*
X298904751Y-7821436D01*
X298904751Y-7583315D01*
X298857127Y-7392817D01*
X298809502Y-7297569D01*
X298761878Y-7249945D01*
X298666630Y-7202320D01*
X297952265Y-7297569D02*
X297904641Y-7249945D01*
X297809392Y-7202320D01*
X297571271Y-7202320D01*
X297476022Y-7249945D01*
X297428398Y-7297569D01*
X297380774Y-7392817D01*
X297380774Y-7488066D01*
X297428398Y-7630939D01*
X297999890Y-8202430D01*
X297380774Y-8202430D01*
X303262649Y-14794232D02*
X303262649Y-14222767D01*
X303262649Y-14508500D02*
X302262586Y-14508500D01*
X302405452Y-14413255D01*
X302500696Y-14318011D01*
X302548318Y-14222767D01*
X293460769Y-14195132D02*
X293413092Y-14242810D01*
X293365414Y-14338166D01*
X293365414Y-14576555D01*
X293413092Y-14671911D01*
X293460769Y-14719589D01*
X293556125Y-14767267D01*
X293651481Y-14767267D01*
X293794515Y-14719589D01*
X294366650Y-14147454D01*
X294366650Y-14767267D01*
%TO.C,J302*%
X300285855Y-82952320D02*
X300285855Y-83666685D01*
X300333480Y-83809557D01*
X300428728Y-83904806D01*
X300571601Y-83952430D01*
X300666850Y-83952430D01*
X299904861Y-82952320D02*
X299285745Y-82952320D01*
X299619115Y-83333315D01*
X299476242Y-83333315D01*
X299380994Y-83380939D01*
X299333370Y-83428563D01*
X299285745Y-83523812D01*
X299285745Y-83761933D01*
X299333370Y-83857182D01*
X299380994Y-83904806D01*
X299476242Y-83952430D01*
X299761988Y-83952430D01*
X299857237Y-83904806D01*
X299904861Y-83857182D01*
X298666630Y-82952320D02*
X298571381Y-82952320D01*
X298476132Y-82999945D01*
X298428508Y-83047569D01*
X298380884Y-83142817D01*
X298333260Y-83333315D01*
X298333260Y-83571436D01*
X298380884Y-83761933D01*
X298428508Y-83857182D01*
X298476132Y-83904806D01*
X298571381Y-83952430D01*
X298666630Y-83952430D01*
X298761878Y-83904806D01*
X298809502Y-83857182D01*
X298857127Y-83761933D01*
X298904751Y-83571436D01*
X298904751Y-83333315D01*
X298857127Y-83142817D01*
X298809502Y-83047569D01*
X298761878Y-82999945D01*
X298666630Y-82952320D01*
X297952265Y-83047569D02*
X297904641Y-82999945D01*
X297809392Y-82952320D01*
X297571271Y-82952320D01*
X297476022Y-82999945D01*
X297428398Y-83047569D01*
X297380774Y-83142817D01*
X297380774Y-83238066D01*
X297428398Y-83380939D01*
X297999890Y-83952430D01*
X297380774Y-83952430D01*
X293460769Y-89945132D02*
X293413092Y-89992810D01*
X293365414Y-90088166D01*
X293365414Y-90326555D01*
X293413092Y-90421911D01*
X293460769Y-90469589D01*
X293556125Y-90517267D01*
X293651481Y-90517267D01*
X293794515Y-90469589D01*
X294366650Y-89897454D01*
X294366650Y-90517267D01*
X303262649Y-90544232D02*
X303262649Y-89972767D01*
X303262649Y-90258500D02*
X302262586Y-90258500D01*
X302405452Y-90163255D01*
X302500696Y-90068011D01*
X302548318Y-89972767D01*
%TO.C,J402*%
X249785855Y-158702320D02*
X249785855Y-159416685D01*
X249833480Y-159559557D01*
X249928728Y-159654806D01*
X250071601Y-159702430D01*
X250166850Y-159702430D01*
X248880994Y-159035690D02*
X248880994Y-159702430D01*
X249119115Y-158654696D02*
X249357237Y-159369060D01*
X248738121Y-159369060D01*
X248166630Y-158702320D02*
X248071381Y-158702320D01*
X247976132Y-158749945D01*
X247928508Y-158797569D01*
X247880884Y-158892817D01*
X247833260Y-159083315D01*
X247833260Y-159321436D01*
X247880884Y-159511933D01*
X247928508Y-159607182D01*
X247976132Y-159654806D01*
X248071381Y-159702430D01*
X248166630Y-159702430D01*
X248261878Y-159654806D01*
X248309502Y-159607182D01*
X248357127Y-159511933D01*
X248404751Y-159321436D01*
X248404751Y-159083315D01*
X248357127Y-158892817D01*
X248309502Y-158797569D01*
X248261878Y-158749945D01*
X248166630Y-158702320D01*
X247452265Y-158797569D02*
X247404641Y-158749945D01*
X247309392Y-158702320D01*
X247071271Y-158702320D01*
X246976022Y-158749945D01*
X246928398Y-158797569D01*
X246880774Y-158892817D01*
X246880774Y-158988066D01*
X246928398Y-159130939D01*
X247499890Y-159702430D01*
X246880774Y-159702430D01*
X242960769Y-165695132D02*
X242913092Y-165742810D01*
X242865414Y-165838166D01*
X242865414Y-166076555D01*
X242913092Y-166171911D01*
X242960769Y-166219589D01*
X243056125Y-166267267D01*
X243151481Y-166267267D01*
X243294515Y-166219589D01*
X243866650Y-165647454D01*
X243866650Y-166267267D01*
X252762649Y-166294232D02*
X252762649Y-165722767D01*
X252762649Y-166008500D02*
X251762586Y-166008500D01*
X251905452Y-165913255D01*
X252000696Y-165818011D01*
X252048318Y-165722767D01*
%TO.C,J602*%
X249785855Y-234452320D02*
X249785855Y-235166685D01*
X249833480Y-235309557D01*
X249928728Y-235404806D01*
X250071601Y-235452430D01*
X250166850Y-235452430D01*
X248880994Y-234452320D02*
X249071491Y-234452320D01*
X249166740Y-234499945D01*
X249214364Y-234547569D01*
X249309612Y-234690442D01*
X249357237Y-234880939D01*
X249357237Y-235261933D01*
X249309612Y-235357182D01*
X249261988Y-235404806D01*
X249166740Y-235452430D01*
X248976242Y-235452430D01*
X248880994Y-235404806D01*
X248833370Y-235357182D01*
X248785745Y-235261933D01*
X248785745Y-235023812D01*
X248833370Y-234928563D01*
X248880994Y-234880939D01*
X248976242Y-234833315D01*
X249166740Y-234833315D01*
X249261988Y-234880939D01*
X249309612Y-234928563D01*
X249357237Y-235023812D01*
X248166630Y-234452320D02*
X248071381Y-234452320D01*
X247976132Y-234499945D01*
X247928508Y-234547569D01*
X247880884Y-234642817D01*
X247833260Y-234833315D01*
X247833260Y-235071436D01*
X247880884Y-235261933D01*
X247928508Y-235357182D01*
X247976132Y-235404806D01*
X248071381Y-235452430D01*
X248166630Y-235452430D01*
X248261878Y-235404806D01*
X248309502Y-235357182D01*
X248357127Y-235261933D01*
X248404751Y-235071436D01*
X248404751Y-234833315D01*
X248357127Y-234642817D01*
X248309502Y-234547569D01*
X248261878Y-234499945D01*
X248166630Y-234452320D01*
X247452265Y-234547569D02*
X247404641Y-234499945D01*
X247309392Y-234452320D01*
X247071271Y-234452320D01*
X246976022Y-234499945D01*
X246928398Y-234547569D01*
X246880774Y-234642817D01*
X246880774Y-234738066D01*
X246928398Y-234880939D01*
X247499890Y-235452430D01*
X246880774Y-235452430D01*
X252762649Y-242044232D02*
X252762649Y-241472767D01*
X252762649Y-241758500D02*
X251762586Y-241758500D01*
X251905452Y-241663255D01*
X252000696Y-241568011D01*
X252048318Y-241472767D01*
X242960769Y-241445132D02*
X242913092Y-241492810D01*
X242865414Y-241588166D01*
X242865414Y-241826555D01*
X242913092Y-241921911D01*
X242960769Y-241969589D01*
X243056125Y-242017267D01*
X243151481Y-242017267D01*
X243294515Y-241969589D01*
X243866650Y-241397454D01*
X243866650Y-242017267D01*
%TO.C,J102*%
X249785855Y-7202320D02*
X249785855Y-7916685D01*
X249833480Y-8059557D01*
X249928728Y-8154806D01*
X250071601Y-8202430D01*
X250166850Y-8202430D01*
X248785745Y-8202430D02*
X249357237Y-8202430D01*
X249071491Y-8202430D02*
X249071491Y-7202320D01*
X249166740Y-7345193D01*
X249261988Y-7440442D01*
X249357237Y-7488066D01*
X248166630Y-7202320D02*
X248071381Y-7202320D01*
X247976132Y-7249945D01*
X247928508Y-7297569D01*
X247880884Y-7392817D01*
X247833260Y-7583315D01*
X247833260Y-7821436D01*
X247880884Y-8011933D01*
X247928508Y-8107182D01*
X247976132Y-8154806D01*
X248071381Y-8202430D01*
X248166630Y-8202430D01*
X248261878Y-8154806D01*
X248309502Y-8107182D01*
X248357127Y-8011933D01*
X248404751Y-7821436D01*
X248404751Y-7583315D01*
X248357127Y-7392817D01*
X248309502Y-7297569D01*
X248261878Y-7249945D01*
X248166630Y-7202320D01*
X247452265Y-7297569D02*
X247404641Y-7249945D01*
X247309392Y-7202320D01*
X247071271Y-7202320D01*
X246976022Y-7249945D01*
X246928398Y-7297569D01*
X246880774Y-7392817D01*
X246880774Y-7488066D01*
X246928398Y-7630939D01*
X247499890Y-8202430D01*
X246880774Y-8202430D01*
X242960769Y-14195132D02*
X242913092Y-14242810D01*
X242865414Y-14338166D01*
X242865414Y-14576555D01*
X242913092Y-14671911D01*
X242960769Y-14719589D01*
X243056125Y-14767267D01*
X243151481Y-14767267D01*
X243294515Y-14719589D01*
X243866650Y-14147454D01*
X243866650Y-14767267D01*
X252762649Y-14794232D02*
X252762649Y-14222767D01*
X252762649Y-14508500D02*
X251762586Y-14508500D01*
X251905452Y-14413255D01*
X252000696Y-14318011D01*
X252048318Y-14222767D01*
%TO.C,J302*%
X249785855Y-82952320D02*
X249785855Y-83666685D01*
X249833480Y-83809557D01*
X249928728Y-83904806D01*
X250071601Y-83952430D01*
X250166850Y-83952430D01*
X249404861Y-82952320D02*
X248785745Y-82952320D01*
X249119115Y-83333315D01*
X248976242Y-83333315D01*
X248880994Y-83380939D01*
X248833370Y-83428563D01*
X248785745Y-83523812D01*
X248785745Y-83761933D01*
X248833370Y-83857182D01*
X248880994Y-83904806D01*
X248976242Y-83952430D01*
X249261988Y-83952430D01*
X249357237Y-83904806D01*
X249404861Y-83857182D01*
X248166630Y-82952320D02*
X248071381Y-82952320D01*
X247976132Y-82999945D01*
X247928508Y-83047569D01*
X247880884Y-83142817D01*
X247833260Y-83333315D01*
X247833260Y-83571436D01*
X247880884Y-83761933D01*
X247928508Y-83857182D01*
X247976132Y-83904806D01*
X248071381Y-83952430D01*
X248166630Y-83952430D01*
X248261878Y-83904806D01*
X248309502Y-83857182D01*
X248357127Y-83761933D01*
X248404751Y-83571436D01*
X248404751Y-83333315D01*
X248357127Y-83142817D01*
X248309502Y-83047569D01*
X248261878Y-82999945D01*
X248166630Y-82952320D01*
X247452265Y-83047569D02*
X247404641Y-82999945D01*
X247309392Y-82952320D01*
X247071271Y-82952320D01*
X246976022Y-82999945D01*
X246928398Y-83047569D01*
X246880774Y-83142817D01*
X246880774Y-83238066D01*
X246928398Y-83380939D01*
X247499890Y-83952430D01*
X246880774Y-83952430D01*
X252762649Y-90544232D02*
X252762649Y-89972767D01*
X252762649Y-90258500D02*
X251762586Y-90258500D01*
X251905452Y-90163255D01*
X252000696Y-90068011D01*
X252048318Y-89972767D01*
X242960769Y-89945132D02*
X242913092Y-89992810D01*
X242865414Y-90088166D01*
X242865414Y-90326555D01*
X242913092Y-90421911D01*
X242960769Y-90469589D01*
X243056125Y-90517267D01*
X243151481Y-90517267D01*
X243294515Y-90469589D01*
X243866650Y-89897454D01*
X243866650Y-90517267D01*
%TO.C,J402*%
X300285855Y-158702320D02*
X300285855Y-159416685D01*
X300333480Y-159559557D01*
X300428728Y-159654806D01*
X300571601Y-159702430D01*
X300666850Y-159702430D01*
X299380994Y-159035690D02*
X299380994Y-159702430D01*
X299619115Y-158654696D02*
X299857237Y-159369060D01*
X299238121Y-159369060D01*
X298666630Y-158702320D02*
X298571381Y-158702320D01*
X298476132Y-158749945D01*
X298428508Y-158797569D01*
X298380884Y-158892817D01*
X298333260Y-159083315D01*
X298333260Y-159321436D01*
X298380884Y-159511933D01*
X298428508Y-159607182D01*
X298476132Y-159654806D01*
X298571381Y-159702430D01*
X298666630Y-159702430D01*
X298761878Y-159654806D01*
X298809502Y-159607182D01*
X298857127Y-159511933D01*
X298904751Y-159321436D01*
X298904751Y-159083315D01*
X298857127Y-158892817D01*
X298809502Y-158797569D01*
X298761878Y-158749945D01*
X298666630Y-158702320D01*
X297952265Y-158797569D02*
X297904641Y-158749945D01*
X297809392Y-158702320D01*
X297571271Y-158702320D01*
X297476022Y-158749945D01*
X297428398Y-158797569D01*
X297380774Y-158892817D01*
X297380774Y-158988066D01*
X297428398Y-159130939D01*
X297999890Y-159702430D01*
X297380774Y-159702430D01*
X303262649Y-166294232D02*
X303262649Y-165722767D01*
X303262649Y-166008500D02*
X302262586Y-166008500D01*
X302405452Y-165913255D01*
X302500696Y-165818011D01*
X302548318Y-165722767D01*
X293460769Y-165695132D02*
X293413092Y-165742810D01*
X293365414Y-165838166D01*
X293365414Y-166076555D01*
X293413092Y-166171911D01*
X293460769Y-166219589D01*
X293556125Y-166267267D01*
X293651481Y-166267267D01*
X293794515Y-166219589D01*
X294366650Y-165647454D01*
X294366650Y-166267267D01*
%TO.C,J602*%
X300285855Y-234452320D02*
X300285855Y-235166685D01*
X300333480Y-235309557D01*
X300428728Y-235404806D01*
X300571601Y-235452430D01*
X300666850Y-235452430D01*
X299380994Y-234452320D02*
X299571491Y-234452320D01*
X299666740Y-234499945D01*
X299714364Y-234547569D01*
X299809612Y-234690442D01*
X299857237Y-234880939D01*
X299857237Y-235261933D01*
X299809612Y-235357182D01*
X299761988Y-235404806D01*
X299666740Y-235452430D01*
X299476242Y-235452430D01*
X299380994Y-235404806D01*
X299333370Y-235357182D01*
X299285745Y-235261933D01*
X299285745Y-235023812D01*
X299333370Y-234928563D01*
X299380994Y-234880939D01*
X299476242Y-234833315D01*
X299666740Y-234833315D01*
X299761988Y-234880939D01*
X299809612Y-234928563D01*
X299857237Y-235023812D01*
X298666630Y-234452320D02*
X298571381Y-234452320D01*
X298476132Y-234499945D01*
X298428508Y-234547569D01*
X298380884Y-234642817D01*
X298333260Y-234833315D01*
X298333260Y-235071436D01*
X298380884Y-235261933D01*
X298428508Y-235357182D01*
X298476132Y-235404806D01*
X298571381Y-235452430D01*
X298666630Y-235452430D01*
X298761878Y-235404806D01*
X298809502Y-235357182D01*
X298857127Y-235261933D01*
X298904751Y-235071436D01*
X298904751Y-234833315D01*
X298857127Y-234642817D01*
X298809502Y-234547569D01*
X298761878Y-234499945D01*
X298666630Y-234452320D01*
X297952265Y-234547569D02*
X297904641Y-234499945D01*
X297809392Y-234452320D01*
X297571271Y-234452320D01*
X297476022Y-234499945D01*
X297428398Y-234547569D01*
X297380774Y-234642817D01*
X297380774Y-234738066D01*
X297428398Y-234880939D01*
X297999890Y-235452430D01*
X297380774Y-235452430D01*
X293460769Y-241445132D02*
X293413092Y-241492810D01*
X293365414Y-241588166D01*
X293365414Y-241826555D01*
X293413092Y-241921911D01*
X293460769Y-241969589D01*
X293556125Y-242017267D01*
X293651481Y-242017267D01*
X293794515Y-241969589D01*
X294366650Y-241397454D01*
X294366650Y-242017267D01*
X303262649Y-242044232D02*
X303262649Y-241472767D01*
X303262649Y-241758500D02*
X302262586Y-241758500D01*
X302405452Y-241663255D01*
X302500696Y-241568011D01*
X302548318Y-241472767D01*
%TO.C,J2*%
X248833370Y-385952320D02*
X248833370Y-386666685D01*
X248880994Y-386809557D01*
X248976242Y-386904806D01*
X249119115Y-386952430D01*
X249214364Y-386952430D01*
X248404751Y-386047569D02*
X248357127Y-385999945D01*
X248261878Y-385952320D01*
X248023757Y-385952320D01*
X247928508Y-385999945D01*
X247880884Y-386047569D01*
X247833260Y-386142817D01*
X247833260Y-386238066D01*
X247880884Y-386380939D01*
X248452375Y-386952430D01*
X247833260Y-386952430D01*
X251857830Y-392972767D02*
X251857830Y-393544232D01*
X251857830Y-393258500D02*
X252857893Y-393258500D01*
X252715027Y-393353744D01*
X252619783Y-393448988D01*
X252572161Y-393544232D01*
X243866650Y-393517267D02*
X243914328Y-393469589D01*
X243962005Y-393374233D01*
X243962005Y-393135844D01*
X243914328Y-393040488D01*
X243866650Y-392992810D01*
X243771294Y-392945132D01*
X243675938Y-392945132D01*
X243532904Y-392992810D01*
X242960769Y-393564945D01*
X242960769Y-392945132D01*
%TO.C,J1*%
X248833370Y-310202320D02*
X248833370Y-310916685D01*
X248880994Y-311059557D01*
X248976242Y-311154806D01*
X249119115Y-311202430D01*
X249214364Y-311202430D01*
X247833260Y-311202430D02*
X248404751Y-311202430D01*
X248119005Y-311202430D02*
X248119005Y-310202320D01*
X248214254Y-310345193D01*
X248309502Y-310440442D01*
X248404751Y-310488066D01*
X242960769Y-317195132D02*
X242913092Y-317242810D01*
X242865414Y-317338166D01*
X242865414Y-317576555D01*
X242913092Y-317671911D01*
X242960769Y-317719589D01*
X243056125Y-317767267D01*
X243151481Y-317767267D01*
X243294515Y-317719589D01*
X243866650Y-317147454D01*
X243866650Y-317767267D01*
X252762649Y-317794232D02*
X252762649Y-317222767D01*
X252762649Y-317508500D02*
X251762586Y-317508500D01*
X251905452Y-317413255D01*
X252000696Y-317318011D01*
X252048318Y-317222767D01*
%TO.C,J2*%
X299333370Y-385952320D02*
X299333370Y-386666685D01*
X299380994Y-386809557D01*
X299476242Y-386904806D01*
X299619115Y-386952430D01*
X299714364Y-386952430D01*
X298904751Y-386047569D02*
X298857127Y-385999945D01*
X298761878Y-385952320D01*
X298523757Y-385952320D01*
X298428508Y-385999945D01*
X298380884Y-386047569D01*
X298333260Y-386142817D01*
X298333260Y-386238066D01*
X298380884Y-386380939D01*
X298952375Y-386952430D01*
X298333260Y-386952430D01*
X294366650Y-393517267D02*
X294414328Y-393469589D01*
X294462005Y-393374233D01*
X294462005Y-393135844D01*
X294414328Y-393040488D01*
X294366650Y-392992810D01*
X294271294Y-392945132D01*
X294175938Y-392945132D01*
X294032904Y-392992810D01*
X293460769Y-393564945D01*
X293460769Y-392945132D01*
X302357830Y-392972767D02*
X302357830Y-393544232D01*
X302357830Y-393258500D02*
X303357893Y-393258500D01*
X303215027Y-393353744D01*
X303119783Y-393448988D01*
X303072161Y-393544232D01*
%TO.C,J1*%
X299333370Y-310202320D02*
X299333370Y-310916685D01*
X299380994Y-311059557D01*
X299476242Y-311154806D01*
X299619115Y-311202430D01*
X299714364Y-311202430D01*
X298333260Y-311202430D02*
X298904751Y-311202430D01*
X298619005Y-311202430D02*
X298619005Y-310202320D01*
X298714254Y-310345193D01*
X298809502Y-310440442D01*
X298904751Y-310488066D01*
X303262649Y-317794232D02*
X303262649Y-317222767D01*
X303262649Y-317508500D02*
X302262586Y-317508500D01*
X302405452Y-317413255D01*
X302500696Y-317318011D01*
X302548318Y-317222767D01*
X293460769Y-317195132D02*
X293413092Y-317242810D01*
X293365414Y-317338166D01*
X293365414Y-317576555D01*
X293413092Y-317671911D01*
X293460769Y-317719589D01*
X293556125Y-317767267D01*
X293651481Y-317767267D01*
X293794515Y-317719589D01*
X294366650Y-317147454D01*
X294366650Y-317767267D01*
%TO.C,J402*%
X199285855Y-158702320D02*
X199285855Y-159416685D01*
X199333480Y-159559557D01*
X199428728Y-159654806D01*
X199571601Y-159702430D01*
X199666850Y-159702430D01*
X198380994Y-159035690D02*
X198380994Y-159702430D01*
X198619115Y-158654696D02*
X198857237Y-159369060D01*
X198238121Y-159369060D01*
X197666630Y-158702320D02*
X197571381Y-158702320D01*
X197476132Y-158749945D01*
X197428508Y-158797569D01*
X197380884Y-158892817D01*
X197333260Y-159083315D01*
X197333260Y-159321436D01*
X197380884Y-159511933D01*
X197428508Y-159607182D01*
X197476132Y-159654806D01*
X197571381Y-159702430D01*
X197666630Y-159702430D01*
X197761878Y-159654806D01*
X197809502Y-159607182D01*
X197857127Y-159511933D01*
X197904751Y-159321436D01*
X197904751Y-159083315D01*
X197857127Y-158892817D01*
X197809502Y-158797569D01*
X197761878Y-158749945D01*
X197666630Y-158702320D01*
X196952265Y-158797569D02*
X196904641Y-158749945D01*
X196809392Y-158702320D01*
X196571271Y-158702320D01*
X196476022Y-158749945D01*
X196428398Y-158797569D01*
X196380774Y-158892817D01*
X196380774Y-158988066D01*
X196428398Y-159130939D01*
X196999890Y-159702430D01*
X196380774Y-159702430D01*
X192460769Y-165695132D02*
X192413092Y-165742810D01*
X192365414Y-165838166D01*
X192365414Y-166076555D01*
X192413092Y-166171911D01*
X192460769Y-166219589D01*
X192556125Y-166267267D01*
X192651481Y-166267267D01*
X192794515Y-166219589D01*
X193366650Y-165647454D01*
X193366650Y-166267267D01*
X202262649Y-166294232D02*
X202262649Y-165722767D01*
X202262649Y-166008500D02*
X201262586Y-166008500D01*
X201405452Y-165913255D01*
X201500696Y-165818011D01*
X201548318Y-165722767D01*
%TO.C,J602*%
X199285855Y-234452320D02*
X199285855Y-235166685D01*
X199333480Y-235309557D01*
X199428728Y-235404806D01*
X199571601Y-235452430D01*
X199666850Y-235452430D01*
X198380994Y-234452320D02*
X198571491Y-234452320D01*
X198666740Y-234499945D01*
X198714364Y-234547569D01*
X198809612Y-234690442D01*
X198857237Y-234880939D01*
X198857237Y-235261933D01*
X198809612Y-235357182D01*
X198761988Y-235404806D01*
X198666740Y-235452430D01*
X198476242Y-235452430D01*
X198380994Y-235404806D01*
X198333370Y-235357182D01*
X198285745Y-235261933D01*
X198285745Y-235023812D01*
X198333370Y-234928563D01*
X198380994Y-234880939D01*
X198476242Y-234833315D01*
X198666740Y-234833315D01*
X198761988Y-234880939D01*
X198809612Y-234928563D01*
X198857237Y-235023812D01*
X197666630Y-234452320D02*
X197571381Y-234452320D01*
X197476132Y-234499945D01*
X197428508Y-234547569D01*
X197380884Y-234642817D01*
X197333260Y-234833315D01*
X197333260Y-235071436D01*
X197380884Y-235261933D01*
X197428508Y-235357182D01*
X197476132Y-235404806D01*
X197571381Y-235452430D01*
X197666630Y-235452430D01*
X197761878Y-235404806D01*
X197809502Y-235357182D01*
X197857127Y-235261933D01*
X197904751Y-235071436D01*
X197904751Y-234833315D01*
X197857127Y-234642817D01*
X197809502Y-234547569D01*
X197761878Y-234499945D01*
X197666630Y-234452320D01*
X196952265Y-234547569D02*
X196904641Y-234499945D01*
X196809392Y-234452320D01*
X196571271Y-234452320D01*
X196476022Y-234499945D01*
X196428398Y-234547569D01*
X196380774Y-234642817D01*
X196380774Y-234738066D01*
X196428398Y-234880939D01*
X196999890Y-235452430D01*
X196380774Y-235452430D01*
X202262649Y-242044232D02*
X202262649Y-241472767D01*
X202262649Y-241758500D02*
X201262586Y-241758500D01*
X201405452Y-241663255D01*
X201500696Y-241568011D01*
X201548318Y-241472767D01*
X192460769Y-241445132D02*
X192413092Y-241492810D01*
X192365414Y-241588166D01*
X192365414Y-241826555D01*
X192413092Y-241921911D01*
X192460769Y-241969589D01*
X192556125Y-242017267D01*
X192651481Y-242017267D01*
X192794515Y-241969589D01*
X193366650Y-241397454D01*
X193366650Y-242017267D01*
%TO.C,J102*%
X199285855Y-7202320D02*
X199285855Y-7916685D01*
X199333480Y-8059557D01*
X199428728Y-8154806D01*
X199571601Y-8202430D01*
X199666850Y-8202430D01*
X198285745Y-8202430D02*
X198857237Y-8202430D01*
X198571491Y-8202430D02*
X198571491Y-7202320D01*
X198666740Y-7345193D01*
X198761988Y-7440442D01*
X198857237Y-7488066D01*
X197666630Y-7202320D02*
X197571381Y-7202320D01*
X197476132Y-7249945D01*
X197428508Y-7297569D01*
X197380884Y-7392817D01*
X197333260Y-7583315D01*
X197333260Y-7821436D01*
X197380884Y-8011933D01*
X197428508Y-8107182D01*
X197476132Y-8154806D01*
X197571381Y-8202430D01*
X197666630Y-8202430D01*
X197761878Y-8154806D01*
X197809502Y-8107182D01*
X197857127Y-8011933D01*
X197904751Y-7821436D01*
X197904751Y-7583315D01*
X197857127Y-7392817D01*
X197809502Y-7297569D01*
X197761878Y-7249945D01*
X197666630Y-7202320D01*
X196952265Y-7297569D02*
X196904641Y-7249945D01*
X196809392Y-7202320D01*
X196571271Y-7202320D01*
X196476022Y-7249945D01*
X196428398Y-7297569D01*
X196380774Y-7392817D01*
X196380774Y-7488066D01*
X196428398Y-7630939D01*
X196999890Y-8202430D01*
X196380774Y-8202430D01*
X192460769Y-14195132D02*
X192413092Y-14242810D01*
X192365414Y-14338166D01*
X192365414Y-14576555D01*
X192413092Y-14671911D01*
X192460769Y-14719589D01*
X192556125Y-14767267D01*
X192651481Y-14767267D01*
X192794515Y-14719589D01*
X193366650Y-14147454D01*
X193366650Y-14767267D01*
X202262649Y-14794232D02*
X202262649Y-14222767D01*
X202262649Y-14508500D02*
X201262586Y-14508500D01*
X201405452Y-14413255D01*
X201500696Y-14318011D01*
X201548318Y-14222767D01*
%TO.C,J302*%
X199285855Y-82952320D02*
X199285855Y-83666685D01*
X199333480Y-83809557D01*
X199428728Y-83904806D01*
X199571601Y-83952430D01*
X199666850Y-83952430D01*
X198904861Y-82952320D02*
X198285745Y-82952320D01*
X198619115Y-83333315D01*
X198476242Y-83333315D01*
X198380994Y-83380939D01*
X198333370Y-83428563D01*
X198285745Y-83523812D01*
X198285745Y-83761933D01*
X198333370Y-83857182D01*
X198380994Y-83904806D01*
X198476242Y-83952430D01*
X198761988Y-83952430D01*
X198857237Y-83904806D01*
X198904861Y-83857182D01*
X197666630Y-82952320D02*
X197571381Y-82952320D01*
X197476132Y-82999945D01*
X197428508Y-83047569D01*
X197380884Y-83142817D01*
X197333260Y-83333315D01*
X197333260Y-83571436D01*
X197380884Y-83761933D01*
X197428508Y-83857182D01*
X197476132Y-83904806D01*
X197571381Y-83952430D01*
X197666630Y-83952430D01*
X197761878Y-83904806D01*
X197809502Y-83857182D01*
X197857127Y-83761933D01*
X197904751Y-83571436D01*
X197904751Y-83333315D01*
X197857127Y-83142817D01*
X197809502Y-83047569D01*
X197761878Y-82999945D01*
X197666630Y-82952320D01*
X196952265Y-83047569D02*
X196904641Y-82999945D01*
X196809392Y-82952320D01*
X196571271Y-82952320D01*
X196476022Y-82999945D01*
X196428398Y-83047569D01*
X196380774Y-83142817D01*
X196380774Y-83238066D01*
X196428398Y-83380939D01*
X196999890Y-83952430D01*
X196380774Y-83952430D01*
X202262649Y-90544232D02*
X202262649Y-89972767D01*
X202262649Y-90258500D02*
X201262586Y-90258500D01*
X201405452Y-90163255D01*
X201500696Y-90068011D01*
X201548318Y-89972767D01*
X192460769Y-89945132D02*
X192413092Y-89992810D01*
X192365414Y-90088166D01*
X192365414Y-90326555D01*
X192413092Y-90421911D01*
X192460769Y-90469589D01*
X192556125Y-90517267D01*
X192651481Y-90517267D01*
X192794515Y-90469589D01*
X193366650Y-89897454D01*
X193366650Y-90517267D01*
%TO.C,J2*%
X198333370Y-385952320D02*
X198333370Y-386666685D01*
X198380994Y-386809557D01*
X198476242Y-386904806D01*
X198619115Y-386952430D01*
X198714364Y-386952430D01*
X197904751Y-386047569D02*
X197857127Y-385999945D01*
X197761878Y-385952320D01*
X197523757Y-385952320D01*
X197428508Y-385999945D01*
X197380884Y-386047569D01*
X197333260Y-386142817D01*
X197333260Y-386238066D01*
X197380884Y-386380939D01*
X197952375Y-386952430D01*
X197333260Y-386952430D01*
X201357830Y-392972767D02*
X201357830Y-393544232D01*
X201357830Y-393258500D02*
X202357893Y-393258500D01*
X202215027Y-393353744D01*
X202119783Y-393448988D01*
X202072161Y-393544232D01*
X193366650Y-393517267D02*
X193414328Y-393469589D01*
X193462005Y-393374233D01*
X193462005Y-393135844D01*
X193414328Y-393040488D01*
X193366650Y-392992810D01*
X193271294Y-392945132D01*
X193175938Y-392945132D01*
X193032904Y-392992810D01*
X192460769Y-393564945D01*
X192460769Y-392945132D01*
%TO.C,J1*%
X198333370Y-310202320D02*
X198333370Y-310916685D01*
X198380994Y-311059557D01*
X198476242Y-311154806D01*
X198619115Y-311202430D01*
X198714364Y-311202430D01*
X197333260Y-311202430D02*
X197904751Y-311202430D01*
X197619005Y-311202430D02*
X197619005Y-310202320D01*
X197714254Y-310345193D01*
X197809502Y-310440442D01*
X197904751Y-310488066D01*
X192460769Y-317195132D02*
X192413092Y-317242810D01*
X192365414Y-317338166D01*
X192365414Y-317576555D01*
X192413092Y-317671911D01*
X192460769Y-317719589D01*
X192556125Y-317767267D01*
X192651481Y-317767267D01*
X192794515Y-317719589D01*
X193366650Y-317147454D01*
X193366650Y-317767267D01*
X202262649Y-317794232D02*
X202262649Y-317222767D01*
X202262649Y-317508500D02*
X201262586Y-317508500D01*
X201405452Y-317413255D01*
X201500696Y-317318011D01*
X201548318Y-317222767D01*
%TO.C,J2*%
X147833370Y-385952320D02*
X147833370Y-386666685D01*
X147880994Y-386809557D01*
X147976242Y-386904806D01*
X148119115Y-386952430D01*
X148214364Y-386952430D01*
X147404751Y-386047569D02*
X147357127Y-385999945D01*
X147261878Y-385952320D01*
X147023757Y-385952320D01*
X146928508Y-385999945D01*
X146880884Y-386047569D01*
X146833260Y-386142817D01*
X146833260Y-386238066D01*
X146880884Y-386380939D01*
X147452375Y-386952430D01*
X146833260Y-386952430D01*
X142866650Y-393517267D02*
X142914328Y-393469589D01*
X142962005Y-393374233D01*
X142962005Y-393135844D01*
X142914328Y-393040488D01*
X142866650Y-392992810D01*
X142771294Y-392945132D01*
X142675938Y-392945132D01*
X142532904Y-392992810D01*
X141960769Y-393564945D01*
X141960769Y-392945132D01*
X150857830Y-392972767D02*
X150857830Y-393544232D01*
X150857830Y-393258500D02*
X151857893Y-393258500D01*
X151715027Y-393353744D01*
X151619783Y-393448988D01*
X151572161Y-393544232D01*
%TO.C,J1*%
X147833370Y-310202320D02*
X147833370Y-310916685D01*
X147880994Y-311059557D01*
X147976242Y-311154806D01*
X148119115Y-311202430D01*
X148214364Y-311202430D01*
X146833260Y-311202430D02*
X147404751Y-311202430D01*
X147119005Y-311202430D02*
X147119005Y-310202320D01*
X147214254Y-310345193D01*
X147309502Y-310440442D01*
X147404751Y-310488066D01*
X151762649Y-317794232D02*
X151762649Y-317222767D01*
X151762649Y-317508500D02*
X150762586Y-317508500D01*
X150905452Y-317413255D01*
X151000696Y-317318011D01*
X151048318Y-317222767D01*
X141960769Y-317195132D02*
X141913092Y-317242810D01*
X141865414Y-317338166D01*
X141865414Y-317576555D01*
X141913092Y-317671911D01*
X141960769Y-317719589D01*
X142056125Y-317767267D01*
X142151481Y-317767267D01*
X142294515Y-317719589D01*
X142866650Y-317147454D01*
X142866650Y-317767267D01*
%TO.C,J602*%
X148785855Y-234452320D02*
X148785855Y-235166685D01*
X148833480Y-235309557D01*
X148928728Y-235404806D01*
X149071601Y-235452430D01*
X149166850Y-235452430D01*
X147880994Y-234452320D02*
X148071491Y-234452320D01*
X148166740Y-234499945D01*
X148214364Y-234547569D01*
X148309612Y-234690442D01*
X148357237Y-234880939D01*
X148357237Y-235261933D01*
X148309612Y-235357182D01*
X148261988Y-235404806D01*
X148166740Y-235452430D01*
X147976242Y-235452430D01*
X147880994Y-235404806D01*
X147833370Y-235357182D01*
X147785745Y-235261933D01*
X147785745Y-235023812D01*
X147833370Y-234928563D01*
X147880994Y-234880939D01*
X147976242Y-234833315D01*
X148166740Y-234833315D01*
X148261988Y-234880939D01*
X148309612Y-234928563D01*
X148357237Y-235023812D01*
X147166630Y-234452320D02*
X147071381Y-234452320D01*
X146976132Y-234499945D01*
X146928508Y-234547569D01*
X146880884Y-234642817D01*
X146833260Y-234833315D01*
X146833260Y-235071436D01*
X146880884Y-235261933D01*
X146928508Y-235357182D01*
X146976132Y-235404806D01*
X147071381Y-235452430D01*
X147166630Y-235452430D01*
X147261878Y-235404806D01*
X147309502Y-235357182D01*
X147357127Y-235261933D01*
X147404751Y-235071436D01*
X147404751Y-234833315D01*
X147357127Y-234642817D01*
X147309502Y-234547569D01*
X147261878Y-234499945D01*
X147166630Y-234452320D01*
X146452265Y-234547569D02*
X146404641Y-234499945D01*
X146309392Y-234452320D01*
X146071271Y-234452320D01*
X145976022Y-234499945D01*
X145928398Y-234547569D01*
X145880774Y-234642817D01*
X145880774Y-234738066D01*
X145928398Y-234880939D01*
X146499890Y-235452430D01*
X145880774Y-235452430D01*
X141960769Y-241445132D02*
X141913092Y-241492810D01*
X141865414Y-241588166D01*
X141865414Y-241826555D01*
X141913092Y-241921911D01*
X141960769Y-241969589D01*
X142056125Y-242017267D01*
X142151481Y-242017267D01*
X142294515Y-241969589D01*
X142866650Y-241397454D01*
X142866650Y-242017267D01*
X151762649Y-242044232D02*
X151762649Y-241472767D01*
X151762649Y-241758500D02*
X150762586Y-241758500D01*
X150905452Y-241663255D01*
X151000696Y-241568011D01*
X151048318Y-241472767D01*
%TO.C,J102*%
X148785855Y-7202320D02*
X148785855Y-7916685D01*
X148833480Y-8059557D01*
X148928728Y-8154806D01*
X149071601Y-8202430D01*
X149166850Y-8202430D01*
X147785745Y-8202430D02*
X148357237Y-8202430D01*
X148071491Y-8202430D02*
X148071491Y-7202320D01*
X148166740Y-7345193D01*
X148261988Y-7440442D01*
X148357237Y-7488066D01*
X147166630Y-7202320D02*
X147071381Y-7202320D01*
X146976132Y-7249945D01*
X146928508Y-7297569D01*
X146880884Y-7392817D01*
X146833260Y-7583315D01*
X146833260Y-7821436D01*
X146880884Y-8011933D01*
X146928508Y-8107182D01*
X146976132Y-8154806D01*
X147071381Y-8202430D01*
X147166630Y-8202430D01*
X147261878Y-8154806D01*
X147309502Y-8107182D01*
X147357127Y-8011933D01*
X147404751Y-7821436D01*
X147404751Y-7583315D01*
X147357127Y-7392817D01*
X147309502Y-7297569D01*
X147261878Y-7249945D01*
X147166630Y-7202320D01*
X146452265Y-7297569D02*
X146404641Y-7249945D01*
X146309392Y-7202320D01*
X146071271Y-7202320D01*
X145976022Y-7249945D01*
X145928398Y-7297569D01*
X145880774Y-7392817D01*
X145880774Y-7488066D01*
X145928398Y-7630939D01*
X146499890Y-8202430D01*
X145880774Y-8202430D01*
X151762649Y-14794232D02*
X151762649Y-14222767D01*
X151762649Y-14508500D02*
X150762586Y-14508500D01*
X150905452Y-14413255D01*
X151000696Y-14318011D01*
X151048318Y-14222767D01*
X141960769Y-14195132D02*
X141913092Y-14242810D01*
X141865414Y-14338166D01*
X141865414Y-14576555D01*
X141913092Y-14671911D01*
X141960769Y-14719589D01*
X142056125Y-14767267D01*
X142151481Y-14767267D01*
X142294515Y-14719589D01*
X142866650Y-14147454D01*
X142866650Y-14767267D01*
%TO.C,J302*%
X148785855Y-82952320D02*
X148785855Y-83666685D01*
X148833480Y-83809557D01*
X148928728Y-83904806D01*
X149071601Y-83952430D01*
X149166850Y-83952430D01*
X148404861Y-82952320D02*
X147785745Y-82952320D01*
X148119115Y-83333315D01*
X147976242Y-83333315D01*
X147880994Y-83380939D01*
X147833370Y-83428563D01*
X147785745Y-83523812D01*
X147785745Y-83761933D01*
X147833370Y-83857182D01*
X147880994Y-83904806D01*
X147976242Y-83952430D01*
X148261988Y-83952430D01*
X148357237Y-83904806D01*
X148404861Y-83857182D01*
X147166630Y-82952320D02*
X147071381Y-82952320D01*
X146976132Y-82999945D01*
X146928508Y-83047569D01*
X146880884Y-83142817D01*
X146833260Y-83333315D01*
X146833260Y-83571436D01*
X146880884Y-83761933D01*
X146928508Y-83857182D01*
X146976132Y-83904806D01*
X147071381Y-83952430D01*
X147166630Y-83952430D01*
X147261878Y-83904806D01*
X147309502Y-83857182D01*
X147357127Y-83761933D01*
X147404751Y-83571436D01*
X147404751Y-83333315D01*
X147357127Y-83142817D01*
X147309502Y-83047569D01*
X147261878Y-82999945D01*
X147166630Y-82952320D01*
X146452265Y-83047569D02*
X146404641Y-82999945D01*
X146309392Y-82952320D01*
X146071271Y-82952320D01*
X145976022Y-82999945D01*
X145928398Y-83047569D01*
X145880774Y-83142817D01*
X145880774Y-83238066D01*
X145928398Y-83380939D01*
X146499890Y-83952430D01*
X145880774Y-83952430D01*
X141960769Y-89945132D02*
X141913092Y-89992810D01*
X141865414Y-90088166D01*
X141865414Y-90326555D01*
X141913092Y-90421911D01*
X141960769Y-90469589D01*
X142056125Y-90517267D01*
X142151481Y-90517267D01*
X142294515Y-90469589D01*
X142866650Y-89897454D01*
X142866650Y-90517267D01*
X151762649Y-90544232D02*
X151762649Y-89972767D01*
X151762649Y-90258500D02*
X150762586Y-90258500D01*
X150905452Y-90163255D01*
X151000696Y-90068011D01*
X151048318Y-89972767D01*
%TO.C,J402*%
X148785855Y-158702320D02*
X148785855Y-159416685D01*
X148833480Y-159559557D01*
X148928728Y-159654806D01*
X149071601Y-159702430D01*
X149166850Y-159702430D01*
X147880994Y-159035690D02*
X147880994Y-159702430D01*
X148119115Y-158654696D02*
X148357237Y-159369060D01*
X147738121Y-159369060D01*
X147166630Y-158702320D02*
X147071381Y-158702320D01*
X146976132Y-158749945D01*
X146928508Y-158797569D01*
X146880884Y-158892817D01*
X146833260Y-159083315D01*
X146833260Y-159321436D01*
X146880884Y-159511933D01*
X146928508Y-159607182D01*
X146976132Y-159654806D01*
X147071381Y-159702430D01*
X147166630Y-159702430D01*
X147261878Y-159654806D01*
X147309502Y-159607182D01*
X147357127Y-159511933D01*
X147404751Y-159321436D01*
X147404751Y-159083315D01*
X147357127Y-158892817D01*
X147309502Y-158797569D01*
X147261878Y-158749945D01*
X147166630Y-158702320D01*
X146452265Y-158797569D02*
X146404641Y-158749945D01*
X146309392Y-158702320D01*
X146071271Y-158702320D01*
X145976022Y-158749945D01*
X145928398Y-158797569D01*
X145880774Y-158892817D01*
X145880774Y-158988066D01*
X145928398Y-159130939D01*
X146499890Y-159702430D01*
X145880774Y-159702430D01*
X151762649Y-166294232D02*
X151762649Y-165722767D01*
X151762649Y-166008500D02*
X150762586Y-166008500D01*
X150905452Y-165913255D01*
X151000696Y-165818011D01*
X151048318Y-165722767D01*
X141960769Y-165695132D02*
X141913092Y-165742810D01*
X141865414Y-165838166D01*
X141865414Y-166076555D01*
X141913092Y-166171911D01*
X141960769Y-166219589D01*
X142056125Y-166267267D01*
X142151481Y-166267267D01*
X142294515Y-166219589D01*
X142866650Y-165647454D01*
X142866650Y-166267267D01*
%TD*%
M02*
