%TF.GenerationSoftware,KiCad,Pcbnew,(5.1.9-0-10_14)*%
%TF.CreationDate,2021-05-26T15:42:51-04:00*%
%TF.ProjectId,backplane,6261636b-706c-4616-9e65-2e6b69636164,rev?*%
%TF.SameCoordinates,Original*%
%TF.FileFunction,Soldermask,Bot*%
%TF.FilePolarity,Negative*%
%FSLAX46Y46*%
G04 Gerber Fmt 4.6, Leading zero omitted, Abs format (unit mm)*
G04 Created by KiCad (PCBNEW (5.1.9-0-10_14)) date 2021-05-26 15:42:51*
%MOMM*%
%LPD*%
G01*
G04 APERTURE LIST*
%ADD10R,1.100000X0.500000*%
%ADD11C,1.450000*%
G04 APERTURE END LIST*
D10*
%TO.C,J102*%
X553750000Y-14150000D03*
X549250000Y-14150000D03*
X553750000Y-14950000D03*
X549250000Y-14950000D03*
X553750000Y-15750000D03*
X549250000Y-15750000D03*
X553750000Y-16550000D03*
X549250000Y-16550000D03*
X553750000Y-17350000D03*
X549250000Y-17350000D03*
X553750000Y-18150000D03*
X549250000Y-18150000D03*
X553750000Y-18950000D03*
X549250000Y-18950000D03*
X553750000Y-19750000D03*
X549250000Y-19750000D03*
X553750000Y-20550000D03*
X549250000Y-20550000D03*
X553750000Y-21350000D03*
X549250000Y-21350000D03*
X553750000Y-22150000D03*
X549250000Y-22150000D03*
X553750000Y-22950000D03*
X549250000Y-22950000D03*
X553750000Y-23750000D03*
X549250000Y-23750000D03*
X553750000Y-24550000D03*
X549250000Y-24550000D03*
X553750000Y-25350000D03*
X549250000Y-25350000D03*
X553750000Y-26150000D03*
X549250000Y-26150000D03*
X553750000Y-26950000D03*
X549250000Y-26950000D03*
X553750000Y-27750000D03*
X549250000Y-27750000D03*
X553750000Y-28550000D03*
X549250000Y-28550000D03*
X553750000Y-29350000D03*
X549250000Y-29350000D03*
X553750000Y-30150000D03*
X549250000Y-30150000D03*
X553750000Y-30950000D03*
X549250000Y-30950000D03*
X553750000Y-31750000D03*
X549250000Y-31750000D03*
X553750000Y-32550000D03*
X549250000Y-32550000D03*
X553750000Y-33350000D03*
X549250000Y-33350000D03*
X553750000Y-34150000D03*
X549250000Y-34150000D03*
X553750000Y-34950000D03*
X549250000Y-34950000D03*
X553750000Y-35750000D03*
X549250000Y-35750000D03*
X553750000Y-36550000D03*
X549250000Y-36550000D03*
X553750000Y-37350000D03*
X549250000Y-37350000D03*
X553750000Y-38150000D03*
X549250000Y-38150000D03*
X553750000Y-38950000D03*
X549250000Y-38950000D03*
X553750000Y-39750000D03*
X549250000Y-39750000D03*
X553750000Y-40550000D03*
X549250000Y-40550000D03*
X553750000Y-41350000D03*
X549250000Y-41350000D03*
X553750000Y-42150000D03*
X549250000Y-42150000D03*
X553750000Y-42950000D03*
X549250000Y-42950000D03*
X553750000Y-43750000D03*
X549250000Y-43750000D03*
X553750000Y-44550000D03*
X549250000Y-44550000D03*
X553750000Y-45350000D03*
X549250000Y-45350000D03*
X553750000Y-46150000D03*
X549250000Y-46150000D03*
X553750000Y-46950000D03*
X549250000Y-46950000D03*
X553750000Y-47750000D03*
X549250000Y-47750000D03*
X553750000Y-48550000D03*
X549250000Y-48550000D03*
X553750000Y-49350000D03*
X549250000Y-49350000D03*
X553750000Y-50150000D03*
X549250000Y-50150000D03*
X553750000Y-50950000D03*
X549250000Y-50950000D03*
X553750000Y-51750000D03*
X549250000Y-51750000D03*
X553750000Y-52550000D03*
X549250000Y-52550000D03*
X553750000Y-53350000D03*
X549250000Y-53350000D03*
X553750000Y-54150000D03*
X549250000Y-54150000D03*
X553750000Y-54950000D03*
X549250000Y-54950000D03*
X553750000Y-55750000D03*
X549250000Y-55750000D03*
X553750000Y-56550000D03*
X549250000Y-56550000D03*
X553750000Y-57350000D03*
X549250000Y-57350000D03*
X553750000Y-58150000D03*
X549250000Y-58150000D03*
X553750000Y-58950000D03*
X549250000Y-58950000D03*
X553750000Y-59750000D03*
X549250000Y-59750000D03*
X553750000Y-60550000D03*
X549250000Y-60550000D03*
X553750000Y-61350000D03*
X549250000Y-61350000D03*
D11*
X550000000Y-12350000D03*
X550000000Y-63150000D03*
%TD*%
D10*
%TO.C,J402*%
X553750000Y-165650000D03*
X549250000Y-165650000D03*
X553750000Y-166450000D03*
X549250000Y-166450000D03*
X553750000Y-167250000D03*
X549250000Y-167250000D03*
X553750000Y-168050000D03*
X549250000Y-168050000D03*
X553750000Y-168850000D03*
X549250000Y-168850000D03*
X553750000Y-169650000D03*
X549250000Y-169650000D03*
X553750000Y-170450000D03*
X549250000Y-170450000D03*
X553750000Y-171250000D03*
X549250000Y-171250000D03*
X553750000Y-172050000D03*
X549250000Y-172050000D03*
X553750000Y-172850000D03*
X549250000Y-172850000D03*
X553750000Y-173650000D03*
X549250000Y-173650000D03*
X553750000Y-174450000D03*
X549250000Y-174450000D03*
X553750000Y-175250000D03*
X549250000Y-175250000D03*
X553750000Y-176050000D03*
X549250000Y-176050000D03*
X553750000Y-176850000D03*
X549250000Y-176850000D03*
X553750000Y-177650000D03*
X549250000Y-177650000D03*
X553750000Y-178450000D03*
X549250000Y-178450000D03*
X553750000Y-179250000D03*
X549250000Y-179250000D03*
X553750000Y-180050000D03*
X549250000Y-180050000D03*
X553750000Y-180850000D03*
X549250000Y-180850000D03*
X553750000Y-181650000D03*
X549250000Y-181650000D03*
X553750000Y-182450000D03*
X549250000Y-182450000D03*
X553750000Y-183250000D03*
X549250000Y-183250000D03*
X553750000Y-184050000D03*
X549250000Y-184050000D03*
X553750000Y-184850000D03*
X549250000Y-184850000D03*
X553750000Y-185650000D03*
X549250000Y-185650000D03*
X553750000Y-186450000D03*
X549250000Y-186450000D03*
X553750000Y-187250000D03*
X549250000Y-187250000D03*
X553750000Y-188050000D03*
X549250000Y-188050000D03*
X553750000Y-188850000D03*
X549250000Y-188850000D03*
X553750000Y-189650000D03*
X549250000Y-189650000D03*
X553750000Y-190450000D03*
X549250000Y-190450000D03*
X553750000Y-191250000D03*
X549250000Y-191250000D03*
X553750000Y-192050000D03*
X549250000Y-192050000D03*
X553750000Y-192850000D03*
X549250000Y-192850000D03*
X553750000Y-193650000D03*
X549250000Y-193650000D03*
X553750000Y-194450000D03*
X549250000Y-194450000D03*
X553750000Y-195250000D03*
X549250000Y-195250000D03*
X553750000Y-196050000D03*
X549250000Y-196050000D03*
X553750000Y-196850000D03*
X549250000Y-196850000D03*
X553750000Y-197650000D03*
X549250000Y-197650000D03*
X553750000Y-198450000D03*
X549250000Y-198450000D03*
X553750000Y-199250000D03*
X549250000Y-199250000D03*
X553750000Y-200050000D03*
X549250000Y-200050000D03*
X553750000Y-200850000D03*
X549250000Y-200850000D03*
X553750000Y-201650000D03*
X549250000Y-201650000D03*
X553750000Y-202450000D03*
X549250000Y-202450000D03*
X553750000Y-203250000D03*
X549250000Y-203250000D03*
X553750000Y-204050000D03*
X549250000Y-204050000D03*
X553750000Y-204850000D03*
X549250000Y-204850000D03*
X553750000Y-205650000D03*
X549250000Y-205650000D03*
X553750000Y-206450000D03*
X549250000Y-206450000D03*
X553750000Y-207250000D03*
X549250000Y-207250000D03*
X553750000Y-208050000D03*
X549250000Y-208050000D03*
X553750000Y-208850000D03*
X549250000Y-208850000D03*
X553750000Y-209650000D03*
X549250000Y-209650000D03*
X553750000Y-210450000D03*
X549250000Y-210450000D03*
X553750000Y-211250000D03*
X549250000Y-211250000D03*
X553750000Y-212050000D03*
X549250000Y-212050000D03*
X553750000Y-212850000D03*
X549250000Y-212850000D03*
D11*
X550000000Y-163850000D03*
X550000000Y-214650000D03*
%TD*%
%TO.C,J602*%
X550000000Y-290400000D03*
X550000000Y-239600000D03*
D10*
X549250000Y-288600000D03*
X553750000Y-288600000D03*
X549250000Y-287800000D03*
X553750000Y-287800000D03*
X549250000Y-287000000D03*
X553750000Y-287000000D03*
X549250000Y-286200000D03*
X553750000Y-286200000D03*
X549250000Y-285400000D03*
X553750000Y-285400000D03*
X549250000Y-284600000D03*
X553750000Y-284600000D03*
X549250000Y-283800000D03*
X553750000Y-283800000D03*
X549250000Y-283000000D03*
X553750000Y-283000000D03*
X549250000Y-282200000D03*
X553750000Y-282200000D03*
X549250000Y-281400000D03*
X553750000Y-281400000D03*
X549250000Y-280600000D03*
X553750000Y-280600000D03*
X549250000Y-279800000D03*
X553750000Y-279800000D03*
X549250000Y-279000000D03*
X553750000Y-279000000D03*
X549250000Y-278200000D03*
X553750000Y-278200000D03*
X549250000Y-277400000D03*
X553750000Y-277400000D03*
X549250000Y-276600000D03*
X553750000Y-276600000D03*
X549250000Y-275800000D03*
X553750000Y-275800000D03*
X549250000Y-275000000D03*
X553750000Y-275000000D03*
X549250000Y-274200000D03*
X553750000Y-274200000D03*
X549250000Y-273400000D03*
X553750000Y-273400000D03*
X549250000Y-272600000D03*
X553750000Y-272600000D03*
X549250000Y-271800000D03*
X553750000Y-271800000D03*
X549250000Y-271000000D03*
X553750000Y-271000000D03*
X549250000Y-270200000D03*
X553750000Y-270200000D03*
X549250000Y-269400000D03*
X553750000Y-269400000D03*
X549250000Y-268600000D03*
X553750000Y-268600000D03*
X549250000Y-267800000D03*
X553750000Y-267800000D03*
X549250000Y-267000000D03*
X553750000Y-267000000D03*
X549250000Y-266200000D03*
X553750000Y-266200000D03*
X549250000Y-265400000D03*
X553750000Y-265400000D03*
X549250000Y-264600000D03*
X553750000Y-264600000D03*
X549250000Y-263800000D03*
X553750000Y-263800000D03*
X549250000Y-263000000D03*
X553750000Y-263000000D03*
X549250000Y-262200000D03*
X553750000Y-262200000D03*
X549250000Y-261400000D03*
X553750000Y-261400000D03*
X549250000Y-260600000D03*
X553750000Y-260600000D03*
X549250000Y-259800000D03*
X553750000Y-259800000D03*
X549250000Y-259000000D03*
X553750000Y-259000000D03*
X549250000Y-258200000D03*
X553750000Y-258200000D03*
X549250000Y-257400000D03*
X553750000Y-257400000D03*
X549250000Y-256600000D03*
X553750000Y-256600000D03*
X549250000Y-255800000D03*
X553750000Y-255800000D03*
X549250000Y-255000000D03*
X553750000Y-255000000D03*
X549250000Y-254200000D03*
X553750000Y-254200000D03*
X549250000Y-253400000D03*
X553750000Y-253400000D03*
X549250000Y-252600000D03*
X553750000Y-252600000D03*
X549250000Y-251800000D03*
X553750000Y-251800000D03*
X549250000Y-251000000D03*
X553750000Y-251000000D03*
X549250000Y-250200000D03*
X553750000Y-250200000D03*
X549250000Y-249400000D03*
X553750000Y-249400000D03*
X549250000Y-248600000D03*
X553750000Y-248600000D03*
X549250000Y-247800000D03*
X553750000Y-247800000D03*
X549250000Y-247000000D03*
X553750000Y-247000000D03*
X549250000Y-246200000D03*
X553750000Y-246200000D03*
X549250000Y-245400000D03*
X553750000Y-245400000D03*
X549250000Y-244600000D03*
X553750000Y-244600000D03*
X549250000Y-243800000D03*
X553750000Y-243800000D03*
X549250000Y-243000000D03*
X553750000Y-243000000D03*
X549250000Y-242200000D03*
X553750000Y-242200000D03*
X549250000Y-241400000D03*
X553750000Y-241400000D03*
%TD*%
D11*
%TO.C,J302*%
X550000000Y-138900000D03*
X550000000Y-88100000D03*
D10*
X549250000Y-137100000D03*
X553750000Y-137100000D03*
X549250000Y-136300000D03*
X553750000Y-136300000D03*
X549250000Y-135500000D03*
X553750000Y-135500000D03*
X549250000Y-134700000D03*
X553750000Y-134700000D03*
X549250000Y-133900000D03*
X553750000Y-133900000D03*
X549250000Y-133100000D03*
X553750000Y-133100000D03*
X549250000Y-132300000D03*
X553750000Y-132300000D03*
X549250000Y-131500000D03*
X553750000Y-131500000D03*
X549250000Y-130700000D03*
X553750000Y-130700000D03*
X549250000Y-129900000D03*
X553750000Y-129900000D03*
X549250000Y-129100000D03*
X553750000Y-129100000D03*
X549250000Y-128300000D03*
X553750000Y-128300000D03*
X549250000Y-127500000D03*
X553750000Y-127500000D03*
X549250000Y-126700000D03*
X553750000Y-126700000D03*
X549250000Y-125900000D03*
X553750000Y-125900000D03*
X549250000Y-125100000D03*
X553750000Y-125100000D03*
X549250000Y-124300000D03*
X553750000Y-124300000D03*
X549250000Y-123500000D03*
X553750000Y-123500000D03*
X549250000Y-122700000D03*
X553750000Y-122700000D03*
X549250000Y-121900000D03*
X553750000Y-121900000D03*
X549250000Y-121100000D03*
X553750000Y-121100000D03*
X549250000Y-120300000D03*
X553750000Y-120300000D03*
X549250000Y-119500000D03*
X553750000Y-119500000D03*
X549250000Y-118700000D03*
X553750000Y-118700000D03*
X549250000Y-117900000D03*
X553750000Y-117900000D03*
X549250000Y-117100000D03*
X553750000Y-117100000D03*
X549250000Y-116300000D03*
X553750000Y-116300000D03*
X549250000Y-115500000D03*
X553750000Y-115500000D03*
X549250000Y-114700000D03*
X553750000Y-114700000D03*
X549250000Y-113900000D03*
X553750000Y-113900000D03*
X549250000Y-113100000D03*
X553750000Y-113100000D03*
X549250000Y-112300000D03*
X553750000Y-112300000D03*
X549250000Y-111500000D03*
X553750000Y-111500000D03*
X549250000Y-110700000D03*
X553750000Y-110700000D03*
X549250000Y-109900000D03*
X553750000Y-109900000D03*
X549250000Y-109100000D03*
X553750000Y-109100000D03*
X549250000Y-108300000D03*
X553750000Y-108300000D03*
X549250000Y-107500000D03*
X553750000Y-107500000D03*
X549250000Y-106700000D03*
X553750000Y-106700000D03*
X549250000Y-105900000D03*
X553750000Y-105900000D03*
X549250000Y-105100000D03*
X553750000Y-105100000D03*
X549250000Y-104300000D03*
X553750000Y-104300000D03*
X549250000Y-103500000D03*
X553750000Y-103500000D03*
X549250000Y-102700000D03*
X553750000Y-102700000D03*
X549250000Y-101900000D03*
X553750000Y-101900000D03*
X549250000Y-101100000D03*
X553750000Y-101100000D03*
X549250000Y-100300000D03*
X553750000Y-100300000D03*
X549250000Y-99500000D03*
X553750000Y-99500000D03*
X549250000Y-98700000D03*
X553750000Y-98700000D03*
X549250000Y-97900000D03*
X553750000Y-97900000D03*
X549250000Y-97100000D03*
X553750000Y-97100000D03*
X549250000Y-96300000D03*
X553750000Y-96300000D03*
X549250000Y-95500000D03*
X553750000Y-95500000D03*
X549250000Y-94700000D03*
X553750000Y-94700000D03*
X549250000Y-93900000D03*
X553750000Y-93900000D03*
X549250000Y-93100000D03*
X553750000Y-93100000D03*
X549250000Y-92300000D03*
X553750000Y-92300000D03*
X549250000Y-91500000D03*
X553750000Y-91500000D03*
X549250000Y-90700000D03*
X553750000Y-90700000D03*
X549250000Y-89900000D03*
X553750000Y-89900000D03*
%TD*%
%TO.C,J1*%
X553750000Y-317150000D03*
X549250000Y-317150000D03*
X553750000Y-317950000D03*
X549250000Y-317950000D03*
X553750000Y-318750000D03*
X549250000Y-318750000D03*
X553750000Y-319550000D03*
X549250000Y-319550000D03*
X553750000Y-320350000D03*
X549250000Y-320350000D03*
X553750000Y-321150000D03*
X549250000Y-321150000D03*
X553750000Y-321950000D03*
X549250000Y-321950000D03*
X553750000Y-322750000D03*
X549250000Y-322750000D03*
X553750000Y-323550000D03*
X549250000Y-323550000D03*
X553750000Y-324350000D03*
X549250000Y-324350000D03*
X553750000Y-325150000D03*
X549250000Y-325150000D03*
X553750000Y-325950000D03*
X549250000Y-325950000D03*
X553750000Y-326750000D03*
X549250000Y-326750000D03*
X553750000Y-327550000D03*
X549250000Y-327550000D03*
X553750000Y-328350000D03*
X549250000Y-328350000D03*
X553750000Y-329150000D03*
X549250000Y-329150000D03*
X553750000Y-329950000D03*
X549250000Y-329950000D03*
X553750000Y-330750000D03*
X549250000Y-330750000D03*
X553750000Y-331550000D03*
X549250000Y-331550000D03*
X553750000Y-332350000D03*
X549250000Y-332350000D03*
X553750000Y-333150000D03*
X549250000Y-333150000D03*
X553750000Y-333950000D03*
X549250000Y-333950000D03*
X553750000Y-334750000D03*
X549250000Y-334750000D03*
X553750000Y-335550000D03*
X549250000Y-335550000D03*
X553750000Y-336350000D03*
X549250000Y-336350000D03*
X553750000Y-337150000D03*
X549250000Y-337150000D03*
X553750000Y-337950000D03*
X549250000Y-337950000D03*
X553750000Y-338750000D03*
X549250000Y-338750000D03*
X553750000Y-339550000D03*
X549250000Y-339550000D03*
X553750000Y-340350000D03*
X549250000Y-340350000D03*
X553750000Y-341150000D03*
X549250000Y-341150000D03*
X553750000Y-341950000D03*
X549250000Y-341950000D03*
X553750000Y-342750000D03*
X549250000Y-342750000D03*
X553750000Y-343550000D03*
X549250000Y-343550000D03*
X553750000Y-344350000D03*
X549250000Y-344350000D03*
X553750000Y-345150000D03*
X549250000Y-345150000D03*
X553750000Y-345950000D03*
X549250000Y-345950000D03*
X553750000Y-346750000D03*
X549250000Y-346750000D03*
X553750000Y-347550000D03*
X549250000Y-347550000D03*
X553750000Y-348350000D03*
X549250000Y-348350000D03*
X553750000Y-349150000D03*
X549250000Y-349150000D03*
X553750000Y-349950000D03*
X549250000Y-349950000D03*
X553750000Y-350750000D03*
X549250000Y-350750000D03*
X553750000Y-351550000D03*
X549250000Y-351550000D03*
X553750000Y-352350000D03*
X549250000Y-352350000D03*
X553750000Y-353150000D03*
X549250000Y-353150000D03*
X553750000Y-353950000D03*
X549250000Y-353950000D03*
X553750000Y-354750000D03*
X549250000Y-354750000D03*
X553750000Y-355550000D03*
X549250000Y-355550000D03*
X553750000Y-356350000D03*
X549250000Y-356350000D03*
X553750000Y-357150000D03*
X549250000Y-357150000D03*
X553750000Y-357950000D03*
X549250000Y-357950000D03*
X553750000Y-358750000D03*
X549250000Y-358750000D03*
X553750000Y-359550000D03*
X549250000Y-359550000D03*
X553750000Y-360350000D03*
X549250000Y-360350000D03*
X553750000Y-361150000D03*
X549250000Y-361150000D03*
X553750000Y-361950000D03*
X549250000Y-361950000D03*
X553750000Y-362750000D03*
X549250000Y-362750000D03*
X553750000Y-363550000D03*
X549250000Y-363550000D03*
X553750000Y-364350000D03*
X549250000Y-364350000D03*
D11*
X550000000Y-315350000D03*
X550000000Y-366150000D03*
%TD*%
%TO.C,J2*%
X550000000Y-441900000D03*
X550000000Y-391100000D03*
D10*
X549250000Y-440100000D03*
X553750000Y-440100000D03*
X549250000Y-439300000D03*
X553750000Y-439300000D03*
X549250000Y-438500000D03*
X553750000Y-438500000D03*
X549250000Y-437700000D03*
X553750000Y-437700000D03*
X549250000Y-436900000D03*
X553750000Y-436900000D03*
X549250000Y-436100000D03*
X553750000Y-436100000D03*
X549250000Y-435300000D03*
X553750000Y-435300000D03*
X549250000Y-434500000D03*
X553750000Y-434500000D03*
X549250000Y-433700000D03*
X553750000Y-433700000D03*
X549250000Y-432900000D03*
X553750000Y-432900000D03*
X549250000Y-432100000D03*
X553750000Y-432100000D03*
X549250000Y-431300000D03*
X553750000Y-431300000D03*
X549250000Y-430500000D03*
X553750000Y-430500000D03*
X549250000Y-429700000D03*
X553750000Y-429700000D03*
X549250000Y-428900000D03*
X553750000Y-428900000D03*
X549250000Y-428100000D03*
X553750000Y-428100000D03*
X549250000Y-427300000D03*
X553750000Y-427300000D03*
X549250000Y-426500000D03*
X553750000Y-426500000D03*
X549250000Y-425700000D03*
X553750000Y-425700000D03*
X549250000Y-424900000D03*
X553750000Y-424900000D03*
X549250000Y-424100000D03*
X553750000Y-424100000D03*
X549250000Y-423300000D03*
X553750000Y-423300000D03*
X549250000Y-422500000D03*
X553750000Y-422500000D03*
X549250000Y-421700000D03*
X553750000Y-421700000D03*
X549250000Y-420900000D03*
X553750000Y-420900000D03*
X549250000Y-420100000D03*
X553750000Y-420100000D03*
X549250000Y-419300000D03*
X553750000Y-419300000D03*
X549250000Y-418500000D03*
X553750000Y-418500000D03*
X549250000Y-417700000D03*
X553750000Y-417700000D03*
X549250000Y-416900000D03*
X553750000Y-416900000D03*
X549250000Y-416100000D03*
X553750000Y-416100000D03*
X549250000Y-415300000D03*
X553750000Y-415300000D03*
X549250000Y-414500000D03*
X553750000Y-414500000D03*
X549250000Y-413700000D03*
X553750000Y-413700000D03*
X549250000Y-412900000D03*
X553750000Y-412900000D03*
X549250000Y-412100000D03*
X553750000Y-412100000D03*
X549250000Y-411300000D03*
X553750000Y-411300000D03*
X549250000Y-410500000D03*
X553750000Y-410500000D03*
X549250000Y-409700000D03*
X553750000Y-409700000D03*
X549250000Y-408900000D03*
X553750000Y-408900000D03*
X549250000Y-408100000D03*
X553750000Y-408100000D03*
X549250000Y-407300000D03*
X553750000Y-407300000D03*
X549250000Y-406500000D03*
X553750000Y-406500000D03*
X549250000Y-405700000D03*
X553750000Y-405700000D03*
X549250000Y-404900000D03*
X553750000Y-404900000D03*
X549250000Y-404100000D03*
X553750000Y-404100000D03*
X549250000Y-403300000D03*
X553750000Y-403300000D03*
X549250000Y-402500000D03*
X553750000Y-402500000D03*
X549250000Y-401700000D03*
X553750000Y-401700000D03*
X549250000Y-400900000D03*
X553750000Y-400900000D03*
X549250000Y-400100000D03*
X553750000Y-400100000D03*
X549250000Y-399300000D03*
X553750000Y-399300000D03*
X549250000Y-398500000D03*
X553750000Y-398500000D03*
X549250000Y-397700000D03*
X553750000Y-397700000D03*
X549250000Y-396900000D03*
X553750000Y-396900000D03*
X549250000Y-396100000D03*
X553750000Y-396100000D03*
X549250000Y-395300000D03*
X553750000Y-395300000D03*
X549250000Y-394500000D03*
X553750000Y-394500000D03*
X549250000Y-393700000D03*
X553750000Y-393700000D03*
X549250000Y-392900000D03*
X553750000Y-392900000D03*
%TD*%
%TO.C,J102*%
X402250000Y-14150000D03*
X397750000Y-14150000D03*
X402250000Y-14950000D03*
X397750000Y-14950000D03*
X402250000Y-15750000D03*
X397750000Y-15750000D03*
X402250000Y-16550000D03*
X397750000Y-16550000D03*
X402250000Y-17350000D03*
X397750000Y-17350000D03*
X402250000Y-18150000D03*
X397750000Y-18150000D03*
X402250000Y-18950000D03*
X397750000Y-18950000D03*
X402250000Y-19750000D03*
X397750000Y-19750000D03*
X402250000Y-20550000D03*
X397750000Y-20550000D03*
X402250000Y-21350000D03*
X397750000Y-21350000D03*
X402250000Y-22150000D03*
X397750000Y-22150000D03*
X402250000Y-22950000D03*
X397750000Y-22950000D03*
X402250000Y-23750000D03*
X397750000Y-23750000D03*
X402250000Y-24550000D03*
X397750000Y-24550000D03*
X402250000Y-25350000D03*
X397750000Y-25350000D03*
X402250000Y-26150000D03*
X397750000Y-26150000D03*
X402250000Y-26950000D03*
X397750000Y-26950000D03*
X402250000Y-27750000D03*
X397750000Y-27750000D03*
X402250000Y-28550000D03*
X397750000Y-28550000D03*
X402250000Y-29350000D03*
X397750000Y-29350000D03*
X402250000Y-30150000D03*
X397750000Y-30150000D03*
X402250000Y-30950000D03*
X397750000Y-30950000D03*
X402250000Y-31750000D03*
X397750000Y-31750000D03*
X402250000Y-32550000D03*
X397750000Y-32550000D03*
X402250000Y-33350000D03*
X397750000Y-33350000D03*
X402250000Y-34150000D03*
X397750000Y-34150000D03*
X402250000Y-34950000D03*
X397750000Y-34950000D03*
X402250000Y-35750000D03*
X397750000Y-35750000D03*
X402250000Y-36550000D03*
X397750000Y-36550000D03*
X402250000Y-37350000D03*
X397750000Y-37350000D03*
X402250000Y-38150000D03*
X397750000Y-38150000D03*
X402250000Y-38950000D03*
X397750000Y-38950000D03*
X402250000Y-39750000D03*
X397750000Y-39750000D03*
X402250000Y-40550000D03*
X397750000Y-40550000D03*
X402250000Y-41350000D03*
X397750000Y-41350000D03*
X402250000Y-42150000D03*
X397750000Y-42150000D03*
X402250000Y-42950000D03*
X397750000Y-42950000D03*
X402250000Y-43750000D03*
X397750000Y-43750000D03*
X402250000Y-44550000D03*
X397750000Y-44550000D03*
X402250000Y-45350000D03*
X397750000Y-45350000D03*
X402250000Y-46150000D03*
X397750000Y-46150000D03*
X402250000Y-46950000D03*
X397750000Y-46950000D03*
X402250000Y-47750000D03*
X397750000Y-47750000D03*
X402250000Y-48550000D03*
X397750000Y-48550000D03*
X402250000Y-49350000D03*
X397750000Y-49350000D03*
X402250000Y-50150000D03*
X397750000Y-50150000D03*
X402250000Y-50950000D03*
X397750000Y-50950000D03*
X402250000Y-51750000D03*
X397750000Y-51750000D03*
X402250000Y-52550000D03*
X397750000Y-52550000D03*
X402250000Y-53350000D03*
X397750000Y-53350000D03*
X402250000Y-54150000D03*
X397750000Y-54150000D03*
X402250000Y-54950000D03*
X397750000Y-54950000D03*
X402250000Y-55750000D03*
X397750000Y-55750000D03*
X402250000Y-56550000D03*
X397750000Y-56550000D03*
X402250000Y-57350000D03*
X397750000Y-57350000D03*
X402250000Y-58150000D03*
X397750000Y-58150000D03*
X402250000Y-58950000D03*
X397750000Y-58950000D03*
X402250000Y-59750000D03*
X397750000Y-59750000D03*
X402250000Y-60550000D03*
X397750000Y-60550000D03*
X402250000Y-61350000D03*
X397750000Y-61350000D03*
D11*
X398500000Y-12350000D03*
X398500000Y-63150000D03*
%TD*%
%TO.C,J302*%
X398500000Y-138900000D03*
X398500000Y-88100000D03*
D10*
X397750000Y-137100000D03*
X402250000Y-137100000D03*
X397750000Y-136300000D03*
X402250000Y-136300000D03*
X397750000Y-135500000D03*
X402250000Y-135500000D03*
X397750000Y-134700000D03*
X402250000Y-134700000D03*
X397750000Y-133900000D03*
X402250000Y-133900000D03*
X397750000Y-133100000D03*
X402250000Y-133100000D03*
X397750000Y-132300000D03*
X402250000Y-132300000D03*
X397750000Y-131500000D03*
X402250000Y-131500000D03*
X397750000Y-130700000D03*
X402250000Y-130700000D03*
X397750000Y-129900000D03*
X402250000Y-129900000D03*
X397750000Y-129100000D03*
X402250000Y-129100000D03*
X397750000Y-128300000D03*
X402250000Y-128300000D03*
X397750000Y-127500000D03*
X402250000Y-127500000D03*
X397750000Y-126700000D03*
X402250000Y-126700000D03*
X397750000Y-125900000D03*
X402250000Y-125900000D03*
X397750000Y-125100000D03*
X402250000Y-125100000D03*
X397750000Y-124300000D03*
X402250000Y-124300000D03*
X397750000Y-123500000D03*
X402250000Y-123500000D03*
X397750000Y-122700000D03*
X402250000Y-122700000D03*
X397750000Y-121900000D03*
X402250000Y-121900000D03*
X397750000Y-121100000D03*
X402250000Y-121100000D03*
X397750000Y-120300000D03*
X402250000Y-120300000D03*
X397750000Y-119500000D03*
X402250000Y-119500000D03*
X397750000Y-118700000D03*
X402250000Y-118700000D03*
X397750000Y-117900000D03*
X402250000Y-117900000D03*
X397750000Y-117100000D03*
X402250000Y-117100000D03*
X397750000Y-116300000D03*
X402250000Y-116300000D03*
X397750000Y-115500000D03*
X402250000Y-115500000D03*
X397750000Y-114700000D03*
X402250000Y-114700000D03*
X397750000Y-113900000D03*
X402250000Y-113900000D03*
X397750000Y-113100000D03*
X402250000Y-113100000D03*
X397750000Y-112300000D03*
X402250000Y-112300000D03*
X397750000Y-111500000D03*
X402250000Y-111500000D03*
X397750000Y-110700000D03*
X402250000Y-110700000D03*
X397750000Y-109900000D03*
X402250000Y-109900000D03*
X397750000Y-109100000D03*
X402250000Y-109100000D03*
X397750000Y-108300000D03*
X402250000Y-108300000D03*
X397750000Y-107500000D03*
X402250000Y-107500000D03*
X397750000Y-106700000D03*
X402250000Y-106700000D03*
X397750000Y-105900000D03*
X402250000Y-105900000D03*
X397750000Y-105100000D03*
X402250000Y-105100000D03*
X397750000Y-104300000D03*
X402250000Y-104300000D03*
X397750000Y-103500000D03*
X402250000Y-103500000D03*
X397750000Y-102700000D03*
X402250000Y-102700000D03*
X397750000Y-101900000D03*
X402250000Y-101900000D03*
X397750000Y-101100000D03*
X402250000Y-101100000D03*
X397750000Y-100300000D03*
X402250000Y-100300000D03*
X397750000Y-99500000D03*
X402250000Y-99500000D03*
X397750000Y-98700000D03*
X402250000Y-98700000D03*
X397750000Y-97900000D03*
X402250000Y-97900000D03*
X397750000Y-97100000D03*
X402250000Y-97100000D03*
X397750000Y-96300000D03*
X402250000Y-96300000D03*
X397750000Y-95500000D03*
X402250000Y-95500000D03*
X397750000Y-94700000D03*
X402250000Y-94700000D03*
X397750000Y-93900000D03*
X402250000Y-93900000D03*
X397750000Y-93100000D03*
X402250000Y-93100000D03*
X397750000Y-92300000D03*
X402250000Y-92300000D03*
X397750000Y-91500000D03*
X402250000Y-91500000D03*
X397750000Y-90700000D03*
X402250000Y-90700000D03*
X397750000Y-89900000D03*
X402250000Y-89900000D03*
%TD*%
D11*
%TO.C,J402*%
X348000000Y-214650000D03*
X348000000Y-163850000D03*
D10*
X347250000Y-212850000D03*
X351750000Y-212850000D03*
X347250000Y-212050000D03*
X351750000Y-212050000D03*
X347250000Y-211250000D03*
X351750000Y-211250000D03*
X347250000Y-210450000D03*
X351750000Y-210450000D03*
X347250000Y-209650000D03*
X351750000Y-209650000D03*
X347250000Y-208850000D03*
X351750000Y-208850000D03*
X347250000Y-208050000D03*
X351750000Y-208050000D03*
X347250000Y-207250000D03*
X351750000Y-207250000D03*
X347250000Y-206450000D03*
X351750000Y-206450000D03*
X347250000Y-205650000D03*
X351750000Y-205650000D03*
X347250000Y-204850000D03*
X351750000Y-204850000D03*
X347250000Y-204050000D03*
X351750000Y-204050000D03*
X347250000Y-203250000D03*
X351750000Y-203250000D03*
X347250000Y-202450000D03*
X351750000Y-202450000D03*
X347250000Y-201650000D03*
X351750000Y-201650000D03*
X347250000Y-200850000D03*
X351750000Y-200850000D03*
X347250000Y-200050000D03*
X351750000Y-200050000D03*
X347250000Y-199250000D03*
X351750000Y-199250000D03*
X347250000Y-198450000D03*
X351750000Y-198450000D03*
X347250000Y-197650000D03*
X351750000Y-197650000D03*
X347250000Y-196850000D03*
X351750000Y-196850000D03*
X347250000Y-196050000D03*
X351750000Y-196050000D03*
X347250000Y-195250000D03*
X351750000Y-195250000D03*
X347250000Y-194450000D03*
X351750000Y-194450000D03*
X347250000Y-193650000D03*
X351750000Y-193650000D03*
X347250000Y-192850000D03*
X351750000Y-192850000D03*
X347250000Y-192050000D03*
X351750000Y-192050000D03*
X347250000Y-191250000D03*
X351750000Y-191250000D03*
X347250000Y-190450000D03*
X351750000Y-190450000D03*
X347250000Y-189650000D03*
X351750000Y-189650000D03*
X347250000Y-188850000D03*
X351750000Y-188850000D03*
X347250000Y-188050000D03*
X351750000Y-188050000D03*
X347250000Y-187250000D03*
X351750000Y-187250000D03*
X347250000Y-186450000D03*
X351750000Y-186450000D03*
X347250000Y-185650000D03*
X351750000Y-185650000D03*
X347250000Y-184850000D03*
X351750000Y-184850000D03*
X347250000Y-184050000D03*
X351750000Y-184050000D03*
X347250000Y-183250000D03*
X351750000Y-183250000D03*
X347250000Y-182450000D03*
X351750000Y-182450000D03*
X347250000Y-181650000D03*
X351750000Y-181650000D03*
X347250000Y-180850000D03*
X351750000Y-180850000D03*
X347250000Y-180050000D03*
X351750000Y-180050000D03*
X347250000Y-179250000D03*
X351750000Y-179250000D03*
X347250000Y-178450000D03*
X351750000Y-178450000D03*
X347250000Y-177650000D03*
X351750000Y-177650000D03*
X347250000Y-176850000D03*
X351750000Y-176850000D03*
X347250000Y-176050000D03*
X351750000Y-176050000D03*
X347250000Y-175250000D03*
X351750000Y-175250000D03*
X347250000Y-174450000D03*
X351750000Y-174450000D03*
X347250000Y-173650000D03*
X351750000Y-173650000D03*
X347250000Y-172850000D03*
X351750000Y-172850000D03*
X347250000Y-172050000D03*
X351750000Y-172050000D03*
X347250000Y-171250000D03*
X351750000Y-171250000D03*
X347250000Y-170450000D03*
X351750000Y-170450000D03*
X347250000Y-169650000D03*
X351750000Y-169650000D03*
X347250000Y-168850000D03*
X351750000Y-168850000D03*
X347250000Y-168050000D03*
X351750000Y-168050000D03*
X347250000Y-167250000D03*
X351750000Y-167250000D03*
X347250000Y-166450000D03*
X351750000Y-166450000D03*
X347250000Y-165650000D03*
X351750000Y-165650000D03*
%TD*%
%TO.C,J602*%
X351750000Y-241400000D03*
X347250000Y-241400000D03*
X351750000Y-242200000D03*
X347250000Y-242200000D03*
X351750000Y-243000000D03*
X347250000Y-243000000D03*
X351750000Y-243800000D03*
X347250000Y-243800000D03*
X351750000Y-244600000D03*
X347250000Y-244600000D03*
X351750000Y-245400000D03*
X347250000Y-245400000D03*
X351750000Y-246200000D03*
X347250000Y-246200000D03*
X351750000Y-247000000D03*
X347250000Y-247000000D03*
X351750000Y-247800000D03*
X347250000Y-247800000D03*
X351750000Y-248600000D03*
X347250000Y-248600000D03*
X351750000Y-249400000D03*
X347250000Y-249400000D03*
X351750000Y-250200000D03*
X347250000Y-250200000D03*
X351750000Y-251000000D03*
X347250000Y-251000000D03*
X351750000Y-251800000D03*
X347250000Y-251800000D03*
X351750000Y-252600000D03*
X347250000Y-252600000D03*
X351750000Y-253400000D03*
X347250000Y-253400000D03*
X351750000Y-254200000D03*
X347250000Y-254200000D03*
X351750000Y-255000000D03*
X347250000Y-255000000D03*
X351750000Y-255800000D03*
X347250000Y-255800000D03*
X351750000Y-256600000D03*
X347250000Y-256600000D03*
X351750000Y-257400000D03*
X347250000Y-257400000D03*
X351750000Y-258200000D03*
X347250000Y-258200000D03*
X351750000Y-259000000D03*
X347250000Y-259000000D03*
X351750000Y-259800000D03*
X347250000Y-259800000D03*
X351750000Y-260600000D03*
X347250000Y-260600000D03*
X351750000Y-261400000D03*
X347250000Y-261400000D03*
X351750000Y-262200000D03*
X347250000Y-262200000D03*
X351750000Y-263000000D03*
X347250000Y-263000000D03*
X351750000Y-263800000D03*
X347250000Y-263800000D03*
X351750000Y-264600000D03*
X347250000Y-264600000D03*
X351750000Y-265400000D03*
X347250000Y-265400000D03*
X351750000Y-266200000D03*
X347250000Y-266200000D03*
X351750000Y-267000000D03*
X347250000Y-267000000D03*
X351750000Y-267800000D03*
X347250000Y-267800000D03*
X351750000Y-268600000D03*
X347250000Y-268600000D03*
X351750000Y-269400000D03*
X347250000Y-269400000D03*
X351750000Y-270200000D03*
X347250000Y-270200000D03*
X351750000Y-271000000D03*
X347250000Y-271000000D03*
X351750000Y-271800000D03*
X347250000Y-271800000D03*
X351750000Y-272600000D03*
X347250000Y-272600000D03*
X351750000Y-273400000D03*
X347250000Y-273400000D03*
X351750000Y-274200000D03*
X347250000Y-274200000D03*
X351750000Y-275000000D03*
X347250000Y-275000000D03*
X351750000Y-275800000D03*
X347250000Y-275800000D03*
X351750000Y-276600000D03*
X347250000Y-276600000D03*
X351750000Y-277400000D03*
X347250000Y-277400000D03*
X351750000Y-278200000D03*
X347250000Y-278200000D03*
X351750000Y-279000000D03*
X347250000Y-279000000D03*
X351750000Y-279800000D03*
X347250000Y-279800000D03*
X351750000Y-280600000D03*
X347250000Y-280600000D03*
X351750000Y-281400000D03*
X347250000Y-281400000D03*
X351750000Y-282200000D03*
X347250000Y-282200000D03*
X351750000Y-283000000D03*
X347250000Y-283000000D03*
X351750000Y-283800000D03*
X347250000Y-283800000D03*
X351750000Y-284600000D03*
X347250000Y-284600000D03*
X351750000Y-285400000D03*
X347250000Y-285400000D03*
X351750000Y-286200000D03*
X347250000Y-286200000D03*
X351750000Y-287000000D03*
X347250000Y-287000000D03*
X351750000Y-287800000D03*
X347250000Y-287800000D03*
X351750000Y-288600000D03*
X347250000Y-288600000D03*
D11*
X348000000Y-239600000D03*
X348000000Y-290400000D03*
%TD*%
%TO.C,J102*%
X348000000Y-63150000D03*
X348000000Y-12350000D03*
D10*
X347250000Y-61350000D03*
X351750000Y-61350000D03*
X347250000Y-60550000D03*
X351750000Y-60550000D03*
X347250000Y-59750000D03*
X351750000Y-59750000D03*
X347250000Y-58950000D03*
X351750000Y-58950000D03*
X347250000Y-58150000D03*
X351750000Y-58150000D03*
X347250000Y-57350000D03*
X351750000Y-57350000D03*
X347250000Y-56550000D03*
X351750000Y-56550000D03*
X347250000Y-55750000D03*
X351750000Y-55750000D03*
X347250000Y-54950000D03*
X351750000Y-54950000D03*
X347250000Y-54150000D03*
X351750000Y-54150000D03*
X347250000Y-53350000D03*
X351750000Y-53350000D03*
X347250000Y-52550000D03*
X351750000Y-52550000D03*
X347250000Y-51750000D03*
X351750000Y-51750000D03*
X347250000Y-50950000D03*
X351750000Y-50950000D03*
X347250000Y-50150000D03*
X351750000Y-50150000D03*
X347250000Y-49350000D03*
X351750000Y-49350000D03*
X347250000Y-48550000D03*
X351750000Y-48550000D03*
X347250000Y-47750000D03*
X351750000Y-47750000D03*
X347250000Y-46950000D03*
X351750000Y-46950000D03*
X347250000Y-46150000D03*
X351750000Y-46150000D03*
X347250000Y-45350000D03*
X351750000Y-45350000D03*
X347250000Y-44550000D03*
X351750000Y-44550000D03*
X347250000Y-43750000D03*
X351750000Y-43750000D03*
X347250000Y-42950000D03*
X351750000Y-42950000D03*
X347250000Y-42150000D03*
X351750000Y-42150000D03*
X347250000Y-41350000D03*
X351750000Y-41350000D03*
X347250000Y-40550000D03*
X351750000Y-40550000D03*
X347250000Y-39750000D03*
X351750000Y-39750000D03*
X347250000Y-38950000D03*
X351750000Y-38950000D03*
X347250000Y-38150000D03*
X351750000Y-38150000D03*
X347250000Y-37350000D03*
X351750000Y-37350000D03*
X347250000Y-36550000D03*
X351750000Y-36550000D03*
X347250000Y-35750000D03*
X351750000Y-35750000D03*
X347250000Y-34950000D03*
X351750000Y-34950000D03*
X347250000Y-34150000D03*
X351750000Y-34150000D03*
X347250000Y-33350000D03*
X351750000Y-33350000D03*
X347250000Y-32550000D03*
X351750000Y-32550000D03*
X347250000Y-31750000D03*
X351750000Y-31750000D03*
X347250000Y-30950000D03*
X351750000Y-30950000D03*
X347250000Y-30150000D03*
X351750000Y-30150000D03*
X347250000Y-29350000D03*
X351750000Y-29350000D03*
X347250000Y-28550000D03*
X351750000Y-28550000D03*
X347250000Y-27750000D03*
X351750000Y-27750000D03*
X347250000Y-26950000D03*
X351750000Y-26950000D03*
X347250000Y-26150000D03*
X351750000Y-26150000D03*
X347250000Y-25350000D03*
X351750000Y-25350000D03*
X347250000Y-24550000D03*
X351750000Y-24550000D03*
X347250000Y-23750000D03*
X351750000Y-23750000D03*
X347250000Y-22950000D03*
X351750000Y-22950000D03*
X347250000Y-22150000D03*
X351750000Y-22150000D03*
X347250000Y-21350000D03*
X351750000Y-21350000D03*
X347250000Y-20550000D03*
X351750000Y-20550000D03*
X347250000Y-19750000D03*
X351750000Y-19750000D03*
X347250000Y-18950000D03*
X351750000Y-18950000D03*
X347250000Y-18150000D03*
X351750000Y-18150000D03*
X347250000Y-17350000D03*
X351750000Y-17350000D03*
X347250000Y-16550000D03*
X351750000Y-16550000D03*
X347250000Y-15750000D03*
X351750000Y-15750000D03*
X347250000Y-14950000D03*
X351750000Y-14950000D03*
X347250000Y-14150000D03*
X351750000Y-14150000D03*
%TD*%
%TO.C,J302*%
X351750000Y-89900000D03*
X347250000Y-89900000D03*
X351750000Y-90700000D03*
X347250000Y-90700000D03*
X351750000Y-91500000D03*
X347250000Y-91500000D03*
X351750000Y-92300000D03*
X347250000Y-92300000D03*
X351750000Y-93100000D03*
X347250000Y-93100000D03*
X351750000Y-93900000D03*
X347250000Y-93900000D03*
X351750000Y-94700000D03*
X347250000Y-94700000D03*
X351750000Y-95500000D03*
X347250000Y-95500000D03*
X351750000Y-96300000D03*
X347250000Y-96300000D03*
X351750000Y-97100000D03*
X347250000Y-97100000D03*
X351750000Y-97900000D03*
X347250000Y-97900000D03*
X351750000Y-98700000D03*
X347250000Y-98700000D03*
X351750000Y-99500000D03*
X347250000Y-99500000D03*
X351750000Y-100300000D03*
X347250000Y-100300000D03*
X351750000Y-101100000D03*
X347250000Y-101100000D03*
X351750000Y-101900000D03*
X347250000Y-101900000D03*
X351750000Y-102700000D03*
X347250000Y-102700000D03*
X351750000Y-103500000D03*
X347250000Y-103500000D03*
X351750000Y-104300000D03*
X347250000Y-104300000D03*
X351750000Y-105100000D03*
X347250000Y-105100000D03*
X351750000Y-105900000D03*
X347250000Y-105900000D03*
X351750000Y-106700000D03*
X347250000Y-106700000D03*
X351750000Y-107500000D03*
X347250000Y-107500000D03*
X351750000Y-108300000D03*
X347250000Y-108300000D03*
X351750000Y-109100000D03*
X347250000Y-109100000D03*
X351750000Y-109900000D03*
X347250000Y-109900000D03*
X351750000Y-110700000D03*
X347250000Y-110700000D03*
X351750000Y-111500000D03*
X347250000Y-111500000D03*
X351750000Y-112300000D03*
X347250000Y-112300000D03*
X351750000Y-113100000D03*
X347250000Y-113100000D03*
X351750000Y-113900000D03*
X347250000Y-113900000D03*
X351750000Y-114700000D03*
X347250000Y-114700000D03*
X351750000Y-115500000D03*
X347250000Y-115500000D03*
X351750000Y-116300000D03*
X347250000Y-116300000D03*
X351750000Y-117100000D03*
X347250000Y-117100000D03*
X351750000Y-117900000D03*
X347250000Y-117900000D03*
X351750000Y-118700000D03*
X347250000Y-118700000D03*
X351750000Y-119500000D03*
X347250000Y-119500000D03*
X351750000Y-120300000D03*
X347250000Y-120300000D03*
X351750000Y-121100000D03*
X347250000Y-121100000D03*
X351750000Y-121900000D03*
X347250000Y-121900000D03*
X351750000Y-122700000D03*
X347250000Y-122700000D03*
X351750000Y-123500000D03*
X347250000Y-123500000D03*
X351750000Y-124300000D03*
X347250000Y-124300000D03*
X351750000Y-125100000D03*
X347250000Y-125100000D03*
X351750000Y-125900000D03*
X347250000Y-125900000D03*
X351750000Y-126700000D03*
X347250000Y-126700000D03*
X351750000Y-127500000D03*
X347250000Y-127500000D03*
X351750000Y-128300000D03*
X347250000Y-128300000D03*
X351750000Y-129100000D03*
X347250000Y-129100000D03*
X351750000Y-129900000D03*
X347250000Y-129900000D03*
X351750000Y-130700000D03*
X347250000Y-130700000D03*
X351750000Y-131500000D03*
X347250000Y-131500000D03*
X351750000Y-132300000D03*
X347250000Y-132300000D03*
X351750000Y-133100000D03*
X347250000Y-133100000D03*
X351750000Y-133900000D03*
X347250000Y-133900000D03*
X351750000Y-134700000D03*
X347250000Y-134700000D03*
X351750000Y-135500000D03*
X347250000Y-135500000D03*
X351750000Y-136300000D03*
X347250000Y-136300000D03*
X351750000Y-137100000D03*
X347250000Y-137100000D03*
D11*
X348000000Y-88100000D03*
X348000000Y-138900000D03*
%TD*%
D10*
%TO.C,J402*%
X402250000Y-165650000D03*
X397750000Y-165650000D03*
X402250000Y-166450000D03*
X397750000Y-166450000D03*
X402250000Y-167250000D03*
X397750000Y-167250000D03*
X402250000Y-168050000D03*
X397750000Y-168050000D03*
X402250000Y-168850000D03*
X397750000Y-168850000D03*
X402250000Y-169650000D03*
X397750000Y-169650000D03*
X402250000Y-170450000D03*
X397750000Y-170450000D03*
X402250000Y-171250000D03*
X397750000Y-171250000D03*
X402250000Y-172050000D03*
X397750000Y-172050000D03*
X402250000Y-172850000D03*
X397750000Y-172850000D03*
X402250000Y-173650000D03*
X397750000Y-173650000D03*
X402250000Y-174450000D03*
X397750000Y-174450000D03*
X402250000Y-175250000D03*
X397750000Y-175250000D03*
X402250000Y-176050000D03*
X397750000Y-176050000D03*
X402250000Y-176850000D03*
X397750000Y-176850000D03*
X402250000Y-177650000D03*
X397750000Y-177650000D03*
X402250000Y-178450000D03*
X397750000Y-178450000D03*
X402250000Y-179250000D03*
X397750000Y-179250000D03*
X402250000Y-180050000D03*
X397750000Y-180050000D03*
X402250000Y-180850000D03*
X397750000Y-180850000D03*
X402250000Y-181650000D03*
X397750000Y-181650000D03*
X402250000Y-182450000D03*
X397750000Y-182450000D03*
X402250000Y-183250000D03*
X397750000Y-183250000D03*
X402250000Y-184050000D03*
X397750000Y-184050000D03*
X402250000Y-184850000D03*
X397750000Y-184850000D03*
X402250000Y-185650000D03*
X397750000Y-185650000D03*
X402250000Y-186450000D03*
X397750000Y-186450000D03*
X402250000Y-187250000D03*
X397750000Y-187250000D03*
X402250000Y-188050000D03*
X397750000Y-188050000D03*
X402250000Y-188850000D03*
X397750000Y-188850000D03*
X402250000Y-189650000D03*
X397750000Y-189650000D03*
X402250000Y-190450000D03*
X397750000Y-190450000D03*
X402250000Y-191250000D03*
X397750000Y-191250000D03*
X402250000Y-192050000D03*
X397750000Y-192050000D03*
X402250000Y-192850000D03*
X397750000Y-192850000D03*
X402250000Y-193650000D03*
X397750000Y-193650000D03*
X402250000Y-194450000D03*
X397750000Y-194450000D03*
X402250000Y-195250000D03*
X397750000Y-195250000D03*
X402250000Y-196050000D03*
X397750000Y-196050000D03*
X402250000Y-196850000D03*
X397750000Y-196850000D03*
X402250000Y-197650000D03*
X397750000Y-197650000D03*
X402250000Y-198450000D03*
X397750000Y-198450000D03*
X402250000Y-199250000D03*
X397750000Y-199250000D03*
X402250000Y-200050000D03*
X397750000Y-200050000D03*
X402250000Y-200850000D03*
X397750000Y-200850000D03*
X402250000Y-201650000D03*
X397750000Y-201650000D03*
X402250000Y-202450000D03*
X397750000Y-202450000D03*
X402250000Y-203250000D03*
X397750000Y-203250000D03*
X402250000Y-204050000D03*
X397750000Y-204050000D03*
X402250000Y-204850000D03*
X397750000Y-204850000D03*
X402250000Y-205650000D03*
X397750000Y-205650000D03*
X402250000Y-206450000D03*
X397750000Y-206450000D03*
X402250000Y-207250000D03*
X397750000Y-207250000D03*
X402250000Y-208050000D03*
X397750000Y-208050000D03*
X402250000Y-208850000D03*
X397750000Y-208850000D03*
X402250000Y-209650000D03*
X397750000Y-209650000D03*
X402250000Y-210450000D03*
X397750000Y-210450000D03*
X402250000Y-211250000D03*
X397750000Y-211250000D03*
X402250000Y-212050000D03*
X397750000Y-212050000D03*
X402250000Y-212850000D03*
X397750000Y-212850000D03*
D11*
X398500000Y-163850000D03*
X398500000Y-214650000D03*
%TD*%
%TO.C,J602*%
X398500000Y-290400000D03*
X398500000Y-239600000D03*
D10*
X397750000Y-288600000D03*
X402250000Y-288600000D03*
X397750000Y-287800000D03*
X402250000Y-287800000D03*
X397750000Y-287000000D03*
X402250000Y-287000000D03*
X397750000Y-286200000D03*
X402250000Y-286200000D03*
X397750000Y-285400000D03*
X402250000Y-285400000D03*
X397750000Y-284600000D03*
X402250000Y-284600000D03*
X397750000Y-283800000D03*
X402250000Y-283800000D03*
X397750000Y-283000000D03*
X402250000Y-283000000D03*
X397750000Y-282200000D03*
X402250000Y-282200000D03*
X397750000Y-281400000D03*
X402250000Y-281400000D03*
X397750000Y-280600000D03*
X402250000Y-280600000D03*
X397750000Y-279800000D03*
X402250000Y-279800000D03*
X397750000Y-279000000D03*
X402250000Y-279000000D03*
X397750000Y-278200000D03*
X402250000Y-278200000D03*
X397750000Y-277400000D03*
X402250000Y-277400000D03*
X397750000Y-276600000D03*
X402250000Y-276600000D03*
X397750000Y-275800000D03*
X402250000Y-275800000D03*
X397750000Y-275000000D03*
X402250000Y-275000000D03*
X397750000Y-274200000D03*
X402250000Y-274200000D03*
X397750000Y-273400000D03*
X402250000Y-273400000D03*
X397750000Y-272600000D03*
X402250000Y-272600000D03*
X397750000Y-271800000D03*
X402250000Y-271800000D03*
X397750000Y-271000000D03*
X402250000Y-271000000D03*
X397750000Y-270200000D03*
X402250000Y-270200000D03*
X397750000Y-269400000D03*
X402250000Y-269400000D03*
X397750000Y-268600000D03*
X402250000Y-268600000D03*
X397750000Y-267800000D03*
X402250000Y-267800000D03*
X397750000Y-267000000D03*
X402250000Y-267000000D03*
X397750000Y-266200000D03*
X402250000Y-266200000D03*
X397750000Y-265400000D03*
X402250000Y-265400000D03*
X397750000Y-264600000D03*
X402250000Y-264600000D03*
X397750000Y-263800000D03*
X402250000Y-263800000D03*
X397750000Y-263000000D03*
X402250000Y-263000000D03*
X397750000Y-262200000D03*
X402250000Y-262200000D03*
X397750000Y-261400000D03*
X402250000Y-261400000D03*
X397750000Y-260600000D03*
X402250000Y-260600000D03*
X397750000Y-259800000D03*
X402250000Y-259800000D03*
X397750000Y-259000000D03*
X402250000Y-259000000D03*
X397750000Y-258200000D03*
X402250000Y-258200000D03*
X397750000Y-257400000D03*
X402250000Y-257400000D03*
X397750000Y-256600000D03*
X402250000Y-256600000D03*
X397750000Y-255800000D03*
X402250000Y-255800000D03*
X397750000Y-255000000D03*
X402250000Y-255000000D03*
X397750000Y-254200000D03*
X402250000Y-254200000D03*
X397750000Y-253400000D03*
X402250000Y-253400000D03*
X397750000Y-252600000D03*
X402250000Y-252600000D03*
X397750000Y-251800000D03*
X402250000Y-251800000D03*
X397750000Y-251000000D03*
X402250000Y-251000000D03*
X397750000Y-250200000D03*
X402250000Y-250200000D03*
X397750000Y-249400000D03*
X402250000Y-249400000D03*
X397750000Y-248600000D03*
X402250000Y-248600000D03*
X397750000Y-247800000D03*
X402250000Y-247800000D03*
X397750000Y-247000000D03*
X402250000Y-247000000D03*
X397750000Y-246200000D03*
X402250000Y-246200000D03*
X397750000Y-245400000D03*
X402250000Y-245400000D03*
X397750000Y-244600000D03*
X402250000Y-244600000D03*
X397750000Y-243800000D03*
X402250000Y-243800000D03*
X397750000Y-243000000D03*
X402250000Y-243000000D03*
X397750000Y-242200000D03*
X402250000Y-242200000D03*
X397750000Y-241400000D03*
X402250000Y-241400000D03*
%TD*%
%TO.C,J2*%
X351750000Y-392900000D03*
X347250000Y-392900000D03*
X351750000Y-393700000D03*
X347250000Y-393700000D03*
X351750000Y-394500000D03*
X347250000Y-394500000D03*
X351750000Y-395300000D03*
X347250000Y-395300000D03*
X351750000Y-396100000D03*
X347250000Y-396100000D03*
X351750000Y-396900000D03*
X347250000Y-396900000D03*
X351750000Y-397700000D03*
X347250000Y-397700000D03*
X351750000Y-398500000D03*
X347250000Y-398500000D03*
X351750000Y-399300000D03*
X347250000Y-399300000D03*
X351750000Y-400100000D03*
X347250000Y-400100000D03*
X351750000Y-400900000D03*
X347250000Y-400900000D03*
X351750000Y-401700000D03*
X347250000Y-401700000D03*
X351750000Y-402500000D03*
X347250000Y-402500000D03*
X351750000Y-403300000D03*
X347250000Y-403300000D03*
X351750000Y-404100000D03*
X347250000Y-404100000D03*
X351750000Y-404900000D03*
X347250000Y-404900000D03*
X351750000Y-405700000D03*
X347250000Y-405700000D03*
X351750000Y-406500000D03*
X347250000Y-406500000D03*
X351750000Y-407300000D03*
X347250000Y-407300000D03*
X351750000Y-408100000D03*
X347250000Y-408100000D03*
X351750000Y-408900000D03*
X347250000Y-408900000D03*
X351750000Y-409700000D03*
X347250000Y-409700000D03*
X351750000Y-410500000D03*
X347250000Y-410500000D03*
X351750000Y-411300000D03*
X347250000Y-411300000D03*
X351750000Y-412100000D03*
X347250000Y-412100000D03*
X351750000Y-412900000D03*
X347250000Y-412900000D03*
X351750000Y-413700000D03*
X347250000Y-413700000D03*
X351750000Y-414500000D03*
X347250000Y-414500000D03*
X351750000Y-415300000D03*
X347250000Y-415300000D03*
X351750000Y-416100000D03*
X347250000Y-416100000D03*
X351750000Y-416900000D03*
X347250000Y-416900000D03*
X351750000Y-417700000D03*
X347250000Y-417700000D03*
X351750000Y-418500000D03*
X347250000Y-418500000D03*
X351750000Y-419300000D03*
X347250000Y-419300000D03*
X351750000Y-420100000D03*
X347250000Y-420100000D03*
X351750000Y-420900000D03*
X347250000Y-420900000D03*
X351750000Y-421700000D03*
X347250000Y-421700000D03*
X351750000Y-422500000D03*
X347250000Y-422500000D03*
X351750000Y-423300000D03*
X347250000Y-423300000D03*
X351750000Y-424100000D03*
X347250000Y-424100000D03*
X351750000Y-424900000D03*
X347250000Y-424900000D03*
X351750000Y-425700000D03*
X347250000Y-425700000D03*
X351750000Y-426500000D03*
X347250000Y-426500000D03*
X351750000Y-427300000D03*
X347250000Y-427300000D03*
X351750000Y-428100000D03*
X347250000Y-428100000D03*
X351750000Y-428900000D03*
X347250000Y-428900000D03*
X351750000Y-429700000D03*
X347250000Y-429700000D03*
X351750000Y-430500000D03*
X347250000Y-430500000D03*
X351750000Y-431300000D03*
X347250000Y-431300000D03*
X351750000Y-432100000D03*
X347250000Y-432100000D03*
X351750000Y-432900000D03*
X347250000Y-432900000D03*
X351750000Y-433700000D03*
X347250000Y-433700000D03*
X351750000Y-434500000D03*
X347250000Y-434500000D03*
X351750000Y-435300000D03*
X347250000Y-435300000D03*
X351750000Y-436100000D03*
X347250000Y-436100000D03*
X351750000Y-436900000D03*
X347250000Y-436900000D03*
X351750000Y-437700000D03*
X347250000Y-437700000D03*
X351750000Y-438500000D03*
X347250000Y-438500000D03*
X351750000Y-439300000D03*
X347250000Y-439300000D03*
X351750000Y-440100000D03*
X347250000Y-440100000D03*
D11*
X348000000Y-391100000D03*
X348000000Y-441900000D03*
%TD*%
%TO.C,J1*%
X348000000Y-366150000D03*
X348000000Y-315350000D03*
D10*
X347250000Y-364350000D03*
X351750000Y-364350000D03*
X347250000Y-363550000D03*
X351750000Y-363550000D03*
X347250000Y-362750000D03*
X351750000Y-362750000D03*
X347250000Y-361950000D03*
X351750000Y-361950000D03*
X347250000Y-361150000D03*
X351750000Y-361150000D03*
X347250000Y-360350000D03*
X351750000Y-360350000D03*
X347250000Y-359550000D03*
X351750000Y-359550000D03*
X347250000Y-358750000D03*
X351750000Y-358750000D03*
X347250000Y-357950000D03*
X351750000Y-357950000D03*
X347250000Y-357150000D03*
X351750000Y-357150000D03*
X347250000Y-356350000D03*
X351750000Y-356350000D03*
X347250000Y-355550000D03*
X351750000Y-355550000D03*
X347250000Y-354750000D03*
X351750000Y-354750000D03*
X347250000Y-353950000D03*
X351750000Y-353950000D03*
X347250000Y-353150000D03*
X351750000Y-353150000D03*
X347250000Y-352350000D03*
X351750000Y-352350000D03*
X347250000Y-351550000D03*
X351750000Y-351550000D03*
X347250000Y-350750000D03*
X351750000Y-350750000D03*
X347250000Y-349950000D03*
X351750000Y-349950000D03*
X347250000Y-349150000D03*
X351750000Y-349150000D03*
X347250000Y-348350000D03*
X351750000Y-348350000D03*
X347250000Y-347550000D03*
X351750000Y-347550000D03*
X347250000Y-346750000D03*
X351750000Y-346750000D03*
X347250000Y-345950000D03*
X351750000Y-345950000D03*
X347250000Y-345150000D03*
X351750000Y-345150000D03*
X347250000Y-344350000D03*
X351750000Y-344350000D03*
X347250000Y-343550000D03*
X351750000Y-343550000D03*
X347250000Y-342750000D03*
X351750000Y-342750000D03*
X347250000Y-341950000D03*
X351750000Y-341950000D03*
X347250000Y-341150000D03*
X351750000Y-341150000D03*
X347250000Y-340350000D03*
X351750000Y-340350000D03*
X347250000Y-339550000D03*
X351750000Y-339550000D03*
X347250000Y-338750000D03*
X351750000Y-338750000D03*
X347250000Y-337950000D03*
X351750000Y-337950000D03*
X347250000Y-337150000D03*
X351750000Y-337150000D03*
X347250000Y-336350000D03*
X351750000Y-336350000D03*
X347250000Y-335550000D03*
X351750000Y-335550000D03*
X347250000Y-334750000D03*
X351750000Y-334750000D03*
X347250000Y-333950000D03*
X351750000Y-333950000D03*
X347250000Y-333150000D03*
X351750000Y-333150000D03*
X347250000Y-332350000D03*
X351750000Y-332350000D03*
X347250000Y-331550000D03*
X351750000Y-331550000D03*
X347250000Y-330750000D03*
X351750000Y-330750000D03*
X347250000Y-329950000D03*
X351750000Y-329950000D03*
X347250000Y-329150000D03*
X351750000Y-329150000D03*
X347250000Y-328350000D03*
X351750000Y-328350000D03*
X347250000Y-327550000D03*
X351750000Y-327550000D03*
X347250000Y-326750000D03*
X351750000Y-326750000D03*
X347250000Y-325950000D03*
X351750000Y-325950000D03*
X347250000Y-325150000D03*
X351750000Y-325150000D03*
X347250000Y-324350000D03*
X351750000Y-324350000D03*
X347250000Y-323550000D03*
X351750000Y-323550000D03*
X347250000Y-322750000D03*
X351750000Y-322750000D03*
X347250000Y-321950000D03*
X351750000Y-321950000D03*
X347250000Y-321150000D03*
X351750000Y-321150000D03*
X347250000Y-320350000D03*
X351750000Y-320350000D03*
X347250000Y-319550000D03*
X351750000Y-319550000D03*
X347250000Y-318750000D03*
X351750000Y-318750000D03*
X347250000Y-317950000D03*
X351750000Y-317950000D03*
X347250000Y-317150000D03*
X351750000Y-317150000D03*
%TD*%
%TO.C,J102*%
X452750000Y-14150000D03*
X448250000Y-14150000D03*
X452750000Y-14950000D03*
X448250000Y-14950000D03*
X452750000Y-15750000D03*
X448250000Y-15750000D03*
X452750000Y-16550000D03*
X448250000Y-16550000D03*
X452750000Y-17350000D03*
X448250000Y-17350000D03*
X452750000Y-18150000D03*
X448250000Y-18150000D03*
X452750000Y-18950000D03*
X448250000Y-18950000D03*
X452750000Y-19750000D03*
X448250000Y-19750000D03*
X452750000Y-20550000D03*
X448250000Y-20550000D03*
X452750000Y-21350000D03*
X448250000Y-21350000D03*
X452750000Y-22150000D03*
X448250000Y-22150000D03*
X452750000Y-22950000D03*
X448250000Y-22950000D03*
X452750000Y-23750000D03*
X448250000Y-23750000D03*
X452750000Y-24550000D03*
X448250000Y-24550000D03*
X452750000Y-25350000D03*
X448250000Y-25350000D03*
X452750000Y-26150000D03*
X448250000Y-26150000D03*
X452750000Y-26950000D03*
X448250000Y-26950000D03*
X452750000Y-27750000D03*
X448250000Y-27750000D03*
X452750000Y-28550000D03*
X448250000Y-28550000D03*
X452750000Y-29350000D03*
X448250000Y-29350000D03*
X452750000Y-30150000D03*
X448250000Y-30150000D03*
X452750000Y-30950000D03*
X448250000Y-30950000D03*
X452750000Y-31750000D03*
X448250000Y-31750000D03*
X452750000Y-32550000D03*
X448250000Y-32550000D03*
X452750000Y-33350000D03*
X448250000Y-33350000D03*
X452750000Y-34150000D03*
X448250000Y-34150000D03*
X452750000Y-34950000D03*
X448250000Y-34950000D03*
X452750000Y-35750000D03*
X448250000Y-35750000D03*
X452750000Y-36550000D03*
X448250000Y-36550000D03*
X452750000Y-37350000D03*
X448250000Y-37350000D03*
X452750000Y-38150000D03*
X448250000Y-38150000D03*
X452750000Y-38950000D03*
X448250000Y-38950000D03*
X452750000Y-39750000D03*
X448250000Y-39750000D03*
X452750000Y-40550000D03*
X448250000Y-40550000D03*
X452750000Y-41350000D03*
X448250000Y-41350000D03*
X452750000Y-42150000D03*
X448250000Y-42150000D03*
X452750000Y-42950000D03*
X448250000Y-42950000D03*
X452750000Y-43750000D03*
X448250000Y-43750000D03*
X452750000Y-44550000D03*
X448250000Y-44550000D03*
X452750000Y-45350000D03*
X448250000Y-45350000D03*
X452750000Y-46150000D03*
X448250000Y-46150000D03*
X452750000Y-46950000D03*
X448250000Y-46950000D03*
X452750000Y-47750000D03*
X448250000Y-47750000D03*
X452750000Y-48550000D03*
X448250000Y-48550000D03*
X452750000Y-49350000D03*
X448250000Y-49350000D03*
X452750000Y-50150000D03*
X448250000Y-50150000D03*
X452750000Y-50950000D03*
X448250000Y-50950000D03*
X452750000Y-51750000D03*
X448250000Y-51750000D03*
X452750000Y-52550000D03*
X448250000Y-52550000D03*
X452750000Y-53350000D03*
X448250000Y-53350000D03*
X452750000Y-54150000D03*
X448250000Y-54150000D03*
X452750000Y-54950000D03*
X448250000Y-54950000D03*
X452750000Y-55750000D03*
X448250000Y-55750000D03*
X452750000Y-56550000D03*
X448250000Y-56550000D03*
X452750000Y-57350000D03*
X448250000Y-57350000D03*
X452750000Y-58150000D03*
X448250000Y-58150000D03*
X452750000Y-58950000D03*
X448250000Y-58950000D03*
X452750000Y-59750000D03*
X448250000Y-59750000D03*
X452750000Y-60550000D03*
X448250000Y-60550000D03*
X452750000Y-61350000D03*
X448250000Y-61350000D03*
D11*
X449000000Y-12350000D03*
X449000000Y-63150000D03*
%TD*%
%TO.C,J302*%
X449000000Y-138900000D03*
X449000000Y-88100000D03*
D10*
X448250000Y-137100000D03*
X452750000Y-137100000D03*
X448250000Y-136300000D03*
X452750000Y-136300000D03*
X448250000Y-135500000D03*
X452750000Y-135500000D03*
X448250000Y-134700000D03*
X452750000Y-134700000D03*
X448250000Y-133900000D03*
X452750000Y-133900000D03*
X448250000Y-133100000D03*
X452750000Y-133100000D03*
X448250000Y-132300000D03*
X452750000Y-132300000D03*
X448250000Y-131500000D03*
X452750000Y-131500000D03*
X448250000Y-130700000D03*
X452750000Y-130700000D03*
X448250000Y-129900000D03*
X452750000Y-129900000D03*
X448250000Y-129100000D03*
X452750000Y-129100000D03*
X448250000Y-128300000D03*
X452750000Y-128300000D03*
X448250000Y-127500000D03*
X452750000Y-127500000D03*
X448250000Y-126700000D03*
X452750000Y-126700000D03*
X448250000Y-125900000D03*
X452750000Y-125900000D03*
X448250000Y-125100000D03*
X452750000Y-125100000D03*
X448250000Y-124300000D03*
X452750000Y-124300000D03*
X448250000Y-123500000D03*
X452750000Y-123500000D03*
X448250000Y-122700000D03*
X452750000Y-122700000D03*
X448250000Y-121900000D03*
X452750000Y-121900000D03*
X448250000Y-121100000D03*
X452750000Y-121100000D03*
X448250000Y-120300000D03*
X452750000Y-120300000D03*
X448250000Y-119500000D03*
X452750000Y-119500000D03*
X448250000Y-118700000D03*
X452750000Y-118700000D03*
X448250000Y-117900000D03*
X452750000Y-117900000D03*
X448250000Y-117100000D03*
X452750000Y-117100000D03*
X448250000Y-116300000D03*
X452750000Y-116300000D03*
X448250000Y-115500000D03*
X452750000Y-115500000D03*
X448250000Y-114700000D03*
X452750000Y-114700000D03*
X448250000Y-113900000D03*
X452750000Y-113900000D03*
X448250000Y-113100000D03*
X452750000Y-113100000D03*
X448250000Y-112300000D03*
X452750000Y-112300000D03*
X448250000Y-111500000D03*
X452750000Y-111500000D03*
X448250000Y-110700000D03*
X452750000Y-110700000D03*
X448250000Y-109900000D03*
X452750000Y-109900000D03*
X448250000Y-109100000D03*
X452750000Y-109100000D03*
X448250000Y-108300000D03*
X452750000Y-108300000D03*
X448250000Y-107500000D03*
X452750000Y-107500000D03*
X448250000Y-106700000D03*
X452750000Y-106700000D03*
X448250000Y-105900000D03*
X452750000Y-105900000D03*
X448250000Y-105100000D03*
X452750000Y-105100000D03*
X448250000Y-104300000D03*
X452750000Y-104300000D03*
X448250000Y-103500000D03*
X452750000Y-103500000D03*
X448250000Y-102700000D03*
X452750000Y-102700000D03*
X448250000Y-101900000D03*
X452750000Y-101900000D03*
X448250000Y-101100000D03*
X452750000Y-101100000D03*
X448250000Y-100300000D03*
X452750000Y-100300000D03*
X448250000Y-99500000D03*
X452750000Y-99500000D03*
X448250000Y-98700000D03*
X452750000Y-98700000D03*
X448250000Y-97900000D03*
X452750000Y-97900000D03*
X448250000Y-97100000D03*
X452750000Y-97100000D03*
X448250000Y-96300000D03*
X452750000Y-96300000D03*
X448250000Y-95500000D03*
X452750000Y-95500000D03*
X448250000Y-94700000D03*
X452750000Y-94700000D03*
X448250000Y-93900000D03*
X452750000Y-93900000D03*
X448250000Y-93100000D03*
X452750000Y-93100000D03*
X448250000Y-92300000D03*
X452750000Y-92300000D03*
X448250000Y-91500000D03*
X452750000Y-91500000D03*
X448250000Y-90700000D03*
X452750000Y-90700000D03*
X448250000Y-89900000D03*
X452750000Y-89900000D03*
%TD*%
D11*
%TO.C,J402*%
X499500000Y-214650000D03*
X499500000Y-163850000D03*
D10*
X498750000Y-212850000D03*
X503250000Y-212850000D03*
X498750000Y-212050000D03*
X503250000Y-212050000D03*
X498750000Y-211250000D03*
X503250000Y-211250000D03*
X498750000Y-210450000D03*
X503250000Y-210450000D03*
X498750000Y-209650000D03*
X503250000Y-209650000D03*
X498750000Y-208850000D03*
X503250000Y-208850000D03*
X498750000Y-208050000D03*
X503250000Y-208050000D03*
X498750000Y-207250000D03*
X503250000Y-207250000D03*
X498750000Y-206450000D03*
X503250000Y-206450000D03*
X498750000Y-205650000D03*
X503250000Y-205650000D03*
X498750000Y-204850000D03*
X503250000Y-204850000D03*
X498750000Y-204050000D03*
X503250000Y-204050000D03*
X498750000Y-203250000D03*
X503250000Y-203250000D03*
X498750000Y-202450000D03*
X503250000Y-202450000D03*
X498750000Y-201650000D03*
X503250000Y-201650000D03*
X498750000Y-200850000D03*
X503250000Y-200850000D03*
X498750000Y-200050000D03*
X503250000Y-200050000D03*
X498750000Y-199250000D03*
X503250000Y-199250000D03*
X498750000Y-198450000D03*
X503250000Y-198450000D03*
X498750000Y-197650000D03*
X503250000Y-197650000D03*
X498750000Y-196850000D03*
X503250000Y-196850000D03*
X498750000Y-196050000D03*
X503250000Y-196050000D03*
X498750000Y-195250000D03*
X503250000Y-195250000D03*
X498750000Y-194450000D03*
X503250000Y-194450000D03*
X498750000Y-193650000D03*
X503250000Y-193650000D03*
X498750000Y-192850000D03*
X503250000Y-192850000D03*
X498750000Y-192050000D03*
X503250000Y-192050000D03*
X498750000Y-191250000D03*
X503250000Y-191250000D03*
X498750000Y-190450000D03*
X503250000Y-190450000D03*
X498750000Y-189650000D03*
X503250000Y-189650000D03*
X498750000Y-188850000D03*
X503250000Y-188850000D03*
X498750000Y-188050000D03*
X503250000Y-188050000D03*
X498750000Y-187250000D03*
X503250000Y-187250000D03*
X498750000Y-186450000D03*
X503250000Y-186450000D03*
X498750000Y-185650000D03*
X503250000Y-185650000D03*
X498750000Y-184850000D03*
X503250000Y-184850000D03*
X498750000Y-184050000D03*
X503250000Y-184050000D03*
X498750000Y-183250000D03*
X503250000Y-183250000D03*
X498750000Y-182450000D03*
X503250000Y-182450000D03*
X498750000Y-181650000D03*
X503250000Y-181650000D03*
X498750000Y-180850000D03*
X503250000Y-180850000D03*
X498750000Y-180050000D03*
X503250000Y-180050000D03*
X498750000Y-179250000D03*
X503250000Y-179250000D03*
X498750000Y-178450000D03*
X503250000Y-178450000D03*
X498750000Y-177650000D03*
X503250000Y-177650000D03*
X498750000Y-176850000D03*
X503250000Y-176850000D03*
X498750000Y-176050000D03*
X503250000Y-176050000D03*
X498750000Y-175250000D03*
X503250000Y-175250000D03*
X498750000Y-174450000D03*
X503250000Y-174450000D03*
X498750000Y-173650000D03*
X503250000Y-173650000D03*
X498750000Y-172850000D03*
X503250000Y-172850000D03*
X498750000Y-172050000D03*
X503250000Y-172050000D03*
X498750000Y-171250000D03*
X503250000Y-171250000D03*
X498750000Y-170450000D03*
X503250000Y-170450000D03*
X498750000Y-169650000D03*
X503250000Y-169650000D03*
X498750000Y-168850000D03*
X503250000Y-168850000D03*
X498750000Y-168050000D03*
X503250000Y-168050000D03*
X498750000Y-167250000D03*
X503250000Y-167250000D03*
X498750000Y-166450000D03*
X503250000Y-166450000D03*
X498750000Y-165650000D03*
X503250000Y-165650000D03*
%TD*%
%TO.C,J602*%
X503250000Y-241400000D03*
X498750000Y-241400000D03*
X503250000Y-242200000D03*
X498750000Y-242200000D03*
X503250000Y-243000000D03*
X498750000Y-243000000D03*
X503250000Y-243800000D03*
X498750000Y-243800000D03*
X503250000Y-244600000D03*
X498750000Y-244600000D03*
X503250000Y-245400000D03*
X498750000Y-245400000D03*
X503250000Y-246200000D03*
X498750000Y-246200000D03*
X503250000Y-247000000D03*
X498750000Y-247000000D03*
X503250000Y-247800000D03*
X498750000Y-247800000D03*
X503250000Y-248600000D03*
X498750000Y-248600000D03*
X503250000Y-249400000D03*
X498750000Y-249400000D03*
X503250000Y-250200000D03*
X498750000Y-250200000D03*
X503250000Y-251000000D03*
X498750000Y-251000000D03*
X503250000Y-251800000D03*
X498750000Y-251800000D03*
X503250000Y-252600000D03*
X498750000Y-252600000D03*
X503250000Y-253400000D03*
X498750000Y-253400000D03*
X503250000Y-254200000D03*
X498750000Y-254200000D03*
X503250000Y-255000000D03*
X498750000Y-255000000D03*
X503250000Y-255800000D03*
X498750000Y-255800000D03*
X503250000Y-256600000D03*
X498750000Y-256600000D03*
X503250000Y-257400000D03*
X498750000Y-257400000D03*
X503250000Y-258200000D03*
X498750000Y-258200000D03*
X503250000Y-259000000D03*
X498750000Y-259000000D03*
X503250000Y-259800000D03*
X498750000Y-259800000D03*
X503250000Y-260600000D03*
X498750000Y-260600000D03*
X503250000Y-261400000D03*
X498750000Y-261400000D03*
X503250000Y-262200000D03*
X498750000Y-262200000D03*
X503250000Y-263000000D03*
X498750000Y-263000000D03*
X503250000Y-263800000D03*
X498750000Y-263800000D03*
X503250000Y-264600000D03*
X498750000Y-264600000D03*
X503250000Y-265400000D03*
X498750000Y-265400000D03*
X503250000Y-266200000D03*
X498750000Y-266200000D03*
X503250000Y-267000000D03*
X498750000Y-267000000D03*
X503250000Y-267800000D03*
X498750000Y-267800000D03*
X503250000Y-268600000D03*
X498750000Y-268600000D03*
X503250000Y-269400000D03*
X498750000Y-269400000D03*
X503250000Y-270200000D03*
X498750000Y-270200000D03*
X503250000Y-271000000D03*
X498750000Y-271000000D03*
X503250000Y-271800000D03*
X498750000Y-271800000D03*
X503250000Y-272600000D03*
X498750000Y-272600000D03*
X503250000Y-273400000D03*
X498750000Y-273400000D03*
X503250000Y-274200000D03*
X498750000Y-274200000D03*
X503250000Y-275000000D03*
X498750000Y-275000000D03*
X503250000Y-275800000D03*
X498750000Y-275800000D03*
X503250000Y-276600000D03*
X498750000Y-276600000D03*
X503250000Y-277400000D03*
X498750000Y-277400000D03*
X503250000Y-278200000D03*
X498750000Y-278200000D03*
X503250000Y-279000000D03*
X498750000Y-279000000D03*
X503250000Y-279800000D03*
X498750000Y-279800000D03*
X503250000Y-280600000D03*
X498750000Y-280600000D03*
X503250000Y-281400000D03*
X498750000Y-281400000D03*
X503250000Y-282200000D03*
X498750000Y-282200000D03*
X503250000Y-283000000D03*
X498750000Y-283000000D03*
X503250000Y-283800000D03*
X498750000Y-283800000D03*
X503250000Y-284600000D03*
X498750000Y-284600000D03*
X503250000Y-285400000D03*
X498750000Y-285400000D03*
X503250000Y-286200000D03*
X498750000Y-286200000D03*
X503250000Y-287000000D03*
X498750000Y-287000000D03*
X503250000Y-287800000D03*
X498750000Y-287800000D03*
X503250000Y-288600000D03*
X498750000Y-288600000D03*
D11*
X499500000Y-239600000D03*
X499500000Y-290400000D03*
%TD*%
%TO.C,J102*%
X499500000Y-63150000D03*
X499500000Y-12350000D03*
D10*
X498750000Y-61350000D03*
X503250000Y-61350000D03*
X498750000Y-60550000D03*
X503250000Y-60550000D03*
X498750000Y-59750000D03*
X503250000Y-59750000D03*
X498750000Y-58950000D03*
X503250000Y-58950000D03*
X498750000Y-58150000D03*
X503250000Y-58150000D03*
X498750000Y-57350000D03*
X503250000Y-57350000D03*
X498750000Y-56550000D03*
X503250000Y-56550000D03*
X498750000Y-55750000D03*
X503250000Y-55750000D03*
X498750000Y-54950000D03*
X503250000Y-54950000D03*
X498750000Y-54150000D03*
X503250000Y-54150000D03*
X498750000Y-53350000D03*
X503250000Y-53350000D03*
X498750000Y-52550000D03*
X503250000Y-52550000D03*
X498750000Y-51750000D03*
X503250000Y-51750000D03*
X498750000Y-50950000D03*
X503250000Y-50950000D03*
X498750000Y-50150000D03*
X503250000Y-50150000D03*
X498750000Y-49350000D03*
X503250000Y-49350000D03*
X498750000Y-48550000D03*
X503250000Y-48550000D03*
X498750000Y-47750000D03*
X503250000Y-47750000D03*
X498750000Y-46950000D03*
X503250000Y-46950000D03*
X498750000Y-46150000D03*
X503250000Y-46150000D03*
X498750000Y-45350000D03*
X503250000Y-45350000D03*
X498750000Y-44550000D03*
X503250000Y-44550000D03*
X498750000Y-43750000D03*
X503250000Y-43750000D03*
X498750000Y-42950000D03*
X503250000Y-42950000D03*
X498750000Y-42150000D03*
X503250000Y-42150000D03*
X498750000Y-41350000D03*
X503250000Y-41350000D03*
X498750000Y-40550000D03*
X503250000Y-40550000D03*
X498750000Y-39750000D03*
X503250000Y-39750000D03*
X498750000Y-38950000D03*
X503250000Y-38950000D03*
X498750000Y-38150000D03*
X503250000Y-38150000D03*
X498750000Y-37350000D03*
X503250000Y-37350000D03*
X498750000Y-36550000D03*
X503250000Y-36550000D03*
X498750000Y-35750000D03*
X503250000Y-35750000D03*
X498750000Y-34950000D03*
X503250000Y-34950000D03*
X498750000Y-34150000D03*
X503250000Y-34150000D03*
X498750000Y-33350000D03*
X503250000Y-33350000D03*
X498750000Y-32550000D03*
X503250000Y-32550000D03*
X498750000Y-31750000D03*
X503250000Y-31750000D03*
X498750000Y-30950000D03*
X503250000Y-30950000D03*
X498750000Y-30150000D03*
X503250000Y-30150000D03*
X498750000Y-29350000D03*
X503250000Y-29350000D03*
X498750000Y-28550000D03*
X503250000Y-28550000D03*
X498750000Y-27750000D03*
X503250000Y-27750000D03*
X498750000Y-26950000D03*
X503250000Y-26950000D03*
X498750000Y-26150000D03*
X503250000Y-26150000D03*
X498750000Y-25350000D03*
X503250000Y-25350000D03*
X498750000Y-24550000D03*
X503250000Y-24550000D03*
X498750000Y-23750000D03*
X503250000Y-23750000D03*
X498750000Y-22950000D03*
X503250000Y-22950000D03*
X498750000Y-22150000D03*
X503250000Y-22150000D03*
X498750000Y-21350000D03*
X503250000Y-21350000D03*
X498750000Y-20550000D03*
X503250000Y-20550000D03*
X498750000Y-19750000D03*
X503250000Y-19750000D03*
X498750000Y-18950000D03*
X503250000Y-18950000D03*
X498750000Y-18150000D03*
X503250000Y-18150000D03*
X498750000Y-17350000D03*
X503250000Y-17350000D03*
X498750000Y-16550000D03*
X503250000Y-16550000D03*
X498750000Y-15750000D03*
X503250000Y-15750000D03*
X498750000Y-14950000D03*
X503250000Y-14950000D03*
X498750000Y-14150000D03*
X503250000Y-14150000D03*
%TD*%
%TO.C,J302*%
X503250000Y-89900000D03*
X498750000Y-89900000D03*
X503250000Y-90700000D03*
X498750000Y-90700000D03*
X503250000Y-91500000D03*
X498750000Y-91500000D03*
X503250000Y-92300000D03*
X498750000Y-92300000D03*
X503250000Y-93100000D03*
X498750000Y-93100000D03*
X503250000Y-93900000D03*
X498750000Y-93900000D03*
X503250000Y-94700000D03*
X498750000Y-94700000D03*
X503250000Y-95500000D03*
X498750000Y-95500000D03*
X503250000Y-96300000D03*
X498750000Y-96300000D03*
X503250000Y-97100000D03*
X498750000Y-97100000D03*
X503250000Y-97900000D03*
X498750000Y-97900000D03*
X503250000Y-98700000D03*
X498750000Y-98700000D03*
X503250000Y-99500000D03*
X498750000Y-99500000D03*
X503250000Y-100300000D03*
X498750000Y-100300000D03*
X503250000Y-101100000D03*
X498750000Y-101100000D03*
X503250000Y-101900000D03*
X498750000Y-101900000D03*
X503250000Y-102700000D03*
X498750000Y-102700000D03*
X503250000Y-103500000D03*
X498750000Y-103500000D03*
X503250000Y-104300000D03*
X498750000Y-104300000D03*
X503250000Y-105100000D03*
X498750000Y-105100000D03*
X503250000Y-105900000D03*
X498750000Y-105900000D03*
X503250000Y-106700000D03*
X498750000Y-106700000D03*
X503250000Y-107500000D03*
X498750000Y-107500000D03*
X503250000Y-108300000D03*
X498750000Y-108300000D03*
X503250000Y-109100000D03*
X498750000Y-109100000D03*
X503250000Y-109900000D03*
X498750000Y-109900000D03*
X503250000Y-110700000D03*
X498750000Y-110700000D03*
X503250000Y-111500000D03*
X498750000Y-111500000D03*
X503250000Y-112300000D03*
X498750000Y-112300000D03*
X503250000Y-113100000D03*
X498750000Y-113100000D03*
X503250000Y-113900000D03*
X498750000Y-113900000D03*
X503250000Y-114700000D03*
X498750000Y-114700000D03*
X503250000Y-115500000D03*
X498750000Y-115500000D03*
X503250000Y-116300000D03*
X498750000Y-116300000D03*
X503250000Y-117100000D03*
X498750000Y-117100000D03*
X503250000Y-117900000D03*
X498750000Y-117900000D03*
X503250000Y-118700000D03*
X498750000Y-118700000D03*
X503250000Y-119500000D03*
X498750000Y-119500000D03*
X503250000Y-120300000D03*
X498750000Y-120300000D03*
X503250000Y-121100000D03*
X498750000Y-121100000D03*
X503250000Y-121900000D03*
X498750000Y-121900000D03*
X503250000Y-122700000D03*
X498750000Y-122700000D03*
X503250000Y-123500000D03*
X498750000Y-123500000D03*
X503250000Y-124300000D03*
X498750000Y-124300000D03*
X503250000Y-125100000D03*
X498750000Y-125100000D03*
X503250000Y-125900000D03*
X498750000Y-125900000D03*
X503250000Y-126700000D03*
X498750000Y-126700000D03*
X503250000Y-127500000D03*
X498750000Y-127500000D03*
X503250000Y-128300000D03*
X498750000Y-128300000D03*
X503250000Y-129100000D03*
X498750000Y-129100000D03*
X503250000Y-129900000D03*
X498750000Y-129900000D03*
X503250000Y-130700000D03*
X498750000Y-130700000D03*
X503250000Y-131500000D03*
X498750000Y-131500000D03*
X503250000Y-132300000D03*
X498750000Y-132300000D03*
X503250000Y-133100000D03*
X498750000Y-133100000D03*
X503250000Y-133900000D03*
X498750000Y-133900000D03*
X503250000Y-134700000D03*
X498750000Y-134700000D03*
X503250000Y-135500000D03*
X498750000Y-135500000D03*
X503250000Y-136300000D03*
X498750000Y-136300000D03*
X503250000Y-137100000D03*
X498750000Y-137100000D03*
D11*
X499500000Y-88100000D03*
X499500000Y-138900000D03*
%TD*%
D10*
%TO.C,J402*%
X452750000Y-165650000D03*
X448250000Y-165650000D03*
X452750000Y-166450000D03*
X448250000Y-166450000D03*
X452750000Y-167250000D03*
X448250000Y-167250000D03*
X452750000Y-168050000D03*
X448250000Y-168050000D03*
X452750000Y-168850000D03*
X448250000Y-168850000D03*
X452750000Y-169650000D03*
X448250000Y-169650000D03*
X452750000Y-170450000D03*
X448250000Y-170450000D03*
X452750000Y-171250000D03*
X448250000Y-171250000D03*
X452750000Y-172050000D03*
X448250000Y-172050000D03*
X452750000Y-172850000D03*
X448250000Y-172850000D03*
X452750000Y-173650000D03*
X448250000Y-173650000D03*
X452750000Y-174450000D03*
X448250000Y-174450000D03*
X452750000Y-175250000D03*
X448250000Y-175250000D03*
X452750000Y-176050000D03*
X448250000Y-176050000D03*
X452750000Y-176850000D03*
X448250000Y-176850000D03*
X452750000Y-177650000D03*
X448250000Y-177650000D03*
X452750000Y-178450000D03*
X448250000Y-178450000D03*
X452750000Y-179250000D03*
X448250000Y-179250000D03*
X452750000Y-180050000D03*
X448250000Y-180050000D03*
X452750000Y-180850000D03*
X448250000Y-180850000D03*
X452750000Y-181650000D03*
X448250000Y-181650000D03*
X452750000Y-182450000D03*
X448250000Y-182450000D03*
X452750000Y-183250000D03*
X448250000Y-183250000D03*
X452750000Y-184050000D03*
X448250000Y-184050000D03*
X452750000Y-184850000D03*
X448250000Y-184850000D03*
X452750000Y-185650000D03*
X448250000Y-185650000D03*
X452750000Y-186450000D03*
X448250000Y-186450000D03*
X452750000Y-187250000D03*
X448250000Y-187250000D03*
X452750000Y-188050000D03*
X448250000Y-188050000D03*
X452750000Y-188850000D03*
X448250000Y-188850000D03*
X452750000Y-189650000D03*
X448250000Y-189650000D03*
X452750000Y-190450000D03*
X448250000Y-190450000D03*
X452750000Y-191250000D03*
X448250000Y-191250000D03*
X452750000Y-192050000D03*
X448250000Y-192050000D03*
X452750000Y-192850000D03*
X448250000Y-192850000D03*
X452750000Y-193650000D03*
X448250000Y-193650000D03*
X452750000Y-194450000D03*
X448250000Y-194450000D03*
X452750000Y-195250000D03*
X448250000Y-195250000D03*
X452750000Y-196050000D03*
X448250000Y-196050000D03*
X452750000Y-196850000D03*
X448250000Y-196850000D03*
X452750000Y-197650000D03*
X448250000Y-197650000D03*
X452750000Y-198450000D03*
X448250000Y-198450000D03*
X452750000Y-199250000D03*
X448250000Y-199250000D03*
X452750000Y-200050000D03*
X448250000Y-200050000D03*
X452750000Y-200850000D03*
X448250000Y-200850000D03*
X452750000Y-201650000D03*
X448250000Y-201650000D03*
X452750000Y-202450000D03*
X448250000Y-202450000D03*
X452750000Y-203250000D03*
X448250000Y-203250000D03*
X452750000Y-204050000D03*
X448250000Y-204050000D03*
X452750000Y-204850000D03*
X448250000Y-204850000D03*
X452750000Y-205650000D03*
X448250000Y-205650000D03*
X452750000Y-206450000D03*
X448250000Y-206450000D03*
X452750000Y-207250000D03*
X448250000Y-207250000D03*
X452750000Y-208050000D03*
X448250000Y-208050000D03*
X452750000Y-208850000D03*
X448250000Y-208850000D03*
X452750000Y-209650000D03*
X448250000Y-209650000D03*
X452750000Y-210450000D03*
X448250000Y-210450000D03*
X452750000Y-211250000D03*
X448250000Y-211250000D03*
X452750000Y-212050000D03*
X448250000Y-212050000D03*
X452750000Y-212850000D03*
X448250000Y-212850000D03*
D11*
X449000000Y-163850000D03*
X449000000Y-214650000D03*
%TD*%
%TO.C,J602*%
X449000000Y-290400000D03*
X449000000Y-239600000D03*
D10*
X448250000Y-288600000D03*
X452750000Y-288600000D03*
X448250000Y-287800000D03*
X452750000Y-287800000D03*
X448250000Y-287000000D03*
X452750000Y-287000000D03*
X448250000Y-286200000D03*
X452750000Y-286200000D03*
X448250000Y-285400000D03*
X452750000Y-285400000D03*
X448250000Y-284600000D03*
X452750000Y-284600000D03*
X448250000Y-283800000D03*
X452750000Y-283800000D03*
X448250000Y-283000000D03*
X452750000Y-283000000D03*
X448250000Y-282200000D03*
X452750000Y-282200000D03*
X448250000Y-281400000D03*
X452750000Y-281400000D03*
X448250000Y-280600000D03*
X452750000Y-280600000D03*
X448250000Y-279800000D03*
X452750000Y-279800000D03*
X448250000Y-279000000D03*
X452750000Y-279000000D03*
X448250000Y-278200000D03*
X452750000Y-278200000D03*
X448250000Y-277400000D03*
X452750000Y-277400000D03*
X448250000Y-276600000D03*
X452750000Y-276600000D03*
X448250000Y-275800000D03*
X452750000Y-275800000D03*
X448250000Y-275000000D03*
X452750000Y-275000000D03*
X448250000Y-274200000D03*
X452750000Y-274200000D03*
X448250000Y-273400000D03*
X452750000Y-273400000D03*
X448250000Y-272600000D03*
X452750000Y-272600000D03*
X448250000Y-271800000D03*
X452750000Y-271800000D03*
X448250000Y-271000000D03*
X452750000Y-271000000D03*
X448250000Y-270200000D03*
X452750000Y-270200000D03*
X448250000Y-269400000D03*
X452750000Y-269400000D03*
X448250000Y-268600000D03*
X452750000Y-268600000D03*
X448250000Y-267800000D03*
X452750000Y-267800000D03*
X448250000Y-267000000D03*
X452750000Y-267000000D03*
X448250000Y-266200000D03*
X452750000Y-266200000D03*
X448250000Y-265400000D03*
X452750000Y-265400000D03*
X448250000Y-264600000D03*
X452750000Y-264600000D03*
X448250000Y-263800000D03*
X452750000Y-263800000D03*
X448250000Y-263000000D03*
X452750000Y-263000000D03*
X448250000Y-262200000D03*
X452750000Y-262200000D03*
X448250000Y-261400000D03*
X452750000Y-261400000D03*
X448250000Y-260600000D03*
X452750000Y-260600000D03*
X448250000Y-259800000D03*
X452750000Y-259800000D03*
X448250000Y-259000000D03*
X452750000Y-259000000D03*
X448250000Y-258200000D03*
X452750000Y-258200000D03*
X448250000Y-257400000D03*
X452750000Y-257400000D03*
X448250000Y-256600000D03*
X452750000Y-256600000D03*
X448250000Y-255800000D03*
X452750000Y-255800000D03*
X448250000Y-255000000D03*
X452750000Y-255000000D03*
X448250000Y-254200000D03*
X452750000Y-254200000D03*
X448250000Y-253400000D03*
X452750000Y-253400000D03*
X448250000Y-252600000D03*
X452750000Y-252600000D03*
X448250000Y-251800000D03*
X452750000Y-251800000D03*
X448250000Y-251000000D03*
X452750000Y-251000000D03*
X448250000Y-250200000D03*
X452750000Y-250200000D03*
X448250000Y-249400000D03*
X452750000Y-249400000D03*
X448250000Y-248600000D03*
X452750000Y-248600000D03*
X448250000Y-247800000D03*
X452750000Y-247800000D03*
X448250000Y-247000000D03*
X452750000Y-247000000D03*
X448250000Y-246200000D03*
X452750000Y-246200000D03*
X448250000Y-245400000D03*
X452750000Y-245400000D03*
X448250000Y-244600000D03*
X452750000Y-244600000D03*
X448250000Y-243800000D03*
X452750000Y-243800000D03*
X448250000Y-243000000D03*
X452750000Y-243000000D03*
X448250000Y-242200000D03*
X452750000Y-242200000D03*
X448250000Y-241400000D03*
X452750000Y-241400000D03*
%TD*%
D11*
%TO.C,J1*%
X499500000Y-366150000D03*
X499500000Y-315350000D03*
D10*
X498750000Y-364350000D03*
X503250000Y-364350000D03*
X498750000Y-363550000D03*
X503250000Y-363550000D03*
X498750000Y-362750000D03*
X503250000Y-362750000D03*
X498750000Y-361950000D03*
X503250000Y-361950000D03*
X498750000Y-361150000D03*
X503250000Y-361150000D03*
X498750000Y-360350000D03*
X503250000Y-360350000D03*
X498750000Y-359550000D03*
X503250000Y-359550000D03*
X498750000Y-358750000D03*
X503250000Y-358750000D03*
X498750000Y-357950000D03*
X503250000Y-357950000D03*
X498750000Y-357150000D03*
X503250000Y-357150000D03*
X498750000Y-356350000D03*
X503250000Y-356350000D03*
X498750000Y-355550000D03*
X503250000Y-355550000D03*
X498750000Y-354750000D03*
X503250000Y-354750000D03*
X498750000Y-353950000D03*
X503250000Y-353950000D03*
X498750000Y-353150000D03*
X503250000Y-353150000D03*
X498750000Y-352350000D03*
X503250000Y-352350000D03*
X498750000Y-351550000D03*
X503250000Y-351550000D03*
X498750000Y-350750000D03*
X503250000Y-350750000D03*
X498750000Y-349950000D03*
X503250000Y-349950000D03*
X498750000Y-349150000D03*
X503250000Y-349150000D03*
X498750000Y-348350000D03*
X503250000Y-348350000D03*
X498750000Y-347550000D03*
X503250000Y-347550000D03*
X498750000Y-346750000D03*
X503250000Y-346750000D03*
X498750000Y-345950000D03*
X503250000Y-345950000D03*
X498750000Y-345150000D03*
X503250000Y-345150000D03*
X498750000Y-344350000D03*
X503250000Y-344350000D03*
X498750000Y-343550000D03*
X503250000Y-343550000D03*
X498750000Y-342750000D03*
X503250000Y-342750000D03*
X498750000Y-341950000D03*
X503250000Y-341950000D03*
X498750000Y-341150000D03*
X503250000Y-341150000D03*
X498750000Y-340350000D03*
X503250000Y-340350000D03*
X498750000Y-339550000D03*
X503250000Y-339550000D03*
X498750000Y-338750000D03*
X503250000Y-338750000D03*
X498750000Y-337950000D03*
X503250000Y-337950000D03*
X498750000Y-337150000D03*
X503250000Y-337150000D03*
X498750000Y-336350000D03*
X503250000Y-336350000D03*
X498750000Y-335550000D03*
X503250000Y-335550000D03*
X498750000Y-334750000D03*
X503250000Y-334750000D03*
X498750000Y-333950000D03*
X503250000Y-333950000D03*
X498750000Y-333150000D03*
X503250000Y-333150000D03*
X498750000Y-332350000D03*
X503250000Y-332350000D03*
X498750000Y-331550000D03*
X503250000Y-331550000D03*
X498750000Y-330750000D03*
X503250000Y-330750000D03*
X498750000Y-329950000D03*
X503250000Y-329950000D03*
X498750000Y-329150000D03*
X503250000Y-329150000D03*
X498750000Y-328350000D03*
X503250000Y-328350000D03*
X498750000Y-327550000D03*
X503250000Y-327550000D03*
X498750000Y-326750000D03*
X503250000Y-326750000D03*
X498750000Y-325950000D03*
X503250000Y-325950000D03*
X498750000Y-325150000D03*
X503250000Y-325150000D03*
X498750000Y-324350000D03*
X503250000Y-324350000D03*
X498750000Y-323550000D03*
X503250000Y-323550000D03*
X498750000Y-322750000D03*
X503250000Y-322750000D03*
X498750000Y-321950000D03*
X503250000Y-321950000D03*
X498750000Y-321150000D03*
X503250000Y-321150000D03*
X498750000Y-320350000D03*
X503250000Y-320350000D03*
X498750000Y-319550000D03*
X503250000Y-319550000D03*
X498750000Y-318750000D03*
X503250000Y-318750000D03*
X498750000Y-317950000D03*
X503250000Y-317950000D03*
X498750000Y-317150000D03*
X503250000Y-317150000D03*
%TD*%
D11*
%TO.C,J2*%
X449000000Y-441900000D03*
X449000000Y-391100000D03*
D10*
X448250000Y-440100000D03*
X452750000Y-440100000D03*
X448250000Y-439300000D03*
X452750000Y-439300000D03*
X448250000Y-438500000D03*
X452750000Y-438500000D03*
X448250000Y-437700000D03*
X452750000Y-437700000D03*
X448250000Y-436900000D03*
X452750000Y-436900000D03*
X448250000Y-436100000D03*
X452750000Y-436100000D03*
X448250000Y-435300000D03*
X452750000Y-435300000D03*
X448250000Y-434500000D03*
X452750000Y-434500000D03*
X448250000Y-433700000D03*
X452750000Y-433700000D03*
X448250000Y-432900000D03*
X452750000Y-432900000D03*
X448250000Y-432100000D03*
X452750000Y-432100000D03*
X448250000Y-431300000D03*
X452750000Y-431300000D03*
X448250000Y-430500000D03*
X452750000Y-430500000D03*
X448250000Y-429700000D03*
X452750000Y-429700000D03*
X448250000Y-428900000D03*
X452750000Y-428900000D03*
X448250000Y-428100000D03*
X452750000Y-428100000D03*
X448250000Y-427300000D03*
X452750000Y-427300000D03*
X448250000Y-426500000D03*
X452750000Y-426500000D03*
X448250000Y-425700000D03*
X452750000Y-425700000D03*
X448250000Y-424900000D03*
X452750000Y-424900000D03*
X448250000Y-424100000D03*
X452750000Y-424100000D03*
X448250000Y-423300000D03*
X452750000Y-423300000D03*
X448250000Y-422500000D03*
X452750000Y-422500000D03*
X448250000Y-421700000D03*
X452750000Y-421700000D03*
X448250000Y-420900000D03*
X452750000Y-420900000D03*
X448250000Y-420100000D03*
X452750000Y-420100000D03*
X448250000Y-419300000D03*
X452750000Y-419300000D03*
X448250000Y-418500000D03*
X452750000Y-418500000D03*
X448250000Y-417700000D03*
X452750000Y-417700000D03*
X448250000Y-416900000D03*
X452750000Y-416900000D03*
X448250000Y-416100000D03*
X452750000Y-416100000D03*
X448250000Y-415300000D03*
X452750000Y-415300000D03*
X448250000Y-414500000D03*
X452750000Y-414500000D03*
X448250000Y-413700000D03*
X452750000Y-413700000D03*
X448250000Y-412900000D03*
X452750000Y-412900000D03*
X448250000Y-412100000D03*
X452750000Y-412100000D03*
X448250000Y-411300000D03*
X452750000Y-411300000D03*
X448250000Y-410500000D03*
X452750000Y-410500000D03*
X448250000Y-409700000D03*
X452750000Y-409700000D03*
X448250000Y-408900000D03*
X452750000Y-408900000D03*
X448250000Y-408100000D03*
X452750000Y-408100000D03*
X448250000Y-407300000D03*
X452750000Y-407300000D03*
X448250000Y-406500000D03*
X452750000Y-406500000D03*
X448250000Y-405700000D03*
X452750000Y-405700000D03*
X448250000Y-404900000D03*
X452750000Y-404900000D03*
X448250000Y-404100000D03*
X452750000Y-404100000D03*
X448250000Y-403300000D03*
X452750000Y-403300000D03*
X448250000Y-402500000D03*
X452750000Y-402500000D03*
X448250000Y-401700000D03*
X452750000Y-401700000D03*
X448250000Y-400900000D03*
X452750000Y-400900000D03*
X448250000Y-400100000D03*
X452750000Y-400100000D03*
X448250000Y-399300000D03*
X452750000Y-399300000D03*
X448250000Y-398500000D03*
X452750000Y-398500000D03*
X448250000Y-397700000D03*
X452750000Y-397700000D03*
X448250000Y-396900000D03*
X452750000Y-396900000D03*
X448250000Y-396100000D03*
X452750000Y-396100000D03*
X448250000Y-395300000D03*
X452750000Y-395300000D03*
X448250000Y-394500000D03*
X452750000Y-394500000D03*
X448250000Y-393700000D03*
X452750000Y-393700000D03*
X448250000Y-392900000D03*
X452750000Y-392900000D03*
%TD*%
%TO.C,J1*%
X452750000Y-317150000D03*
X448250000Y-317150000D03*
X452750000Y-317950000D03*
X448250000Y-317950000D03*
X452750000Y-318750000D03*
X448250000Y-318750000D03*
X452750000Y-319550000D03*
X448250000Y-319550000D03*
X452750000Y-320350000D03*
X448250000Y-320350000D03*
X452750000Y-321150000D03*
X448250000Y-321150000D03*
X452750000Y-321950000D03*
X448250000Y-321950000D03*
X452750000Y-322750000D03*
X448250000Y-322750000D03*
X452750000Y-323550000D03*
X448250000Y-323550000D03*
X452750000Y-324350000D03*
X448250000Y-324350000D03*
X452750000Y-325150000D03*
X448250000Y-325150000D03*
X452750000Y-325950000D03*
X448250000Y-325950000D03*
X452750000Y-326750000D03*
X448250000Y-326750000D03*
X452750000Y-327550000D03*
X448250000Y-327550000D03*
X452750000Y-328350000D03*
X448250000Y-328350000D03*
X452750000Y-329150000D03*
X448250000Y-329150000D03*
X452750000Y-329950000D03*
X448250000Y-329950000D03*
X452750000Y-330750000D03*
X448250000Y-330750000D03*
X452750000Y-331550000D03*
X448250000Y-331550000D03*
X452750000Y-332350000D03*
X448250000Y-332350000D03*
X452750000Y-333150000D03*
X448250000Y-333150000D03*
X452750000Y-333950000D03*
X448250000Y-333950000D03*
X452750000Y-334750000D03*
X448250000Y-334750000D03*
X452750000Y-335550000D03*
X448250000Y-335550000D03*
X452750000Y-336350000D03*
X448250000Y-336350000D03*
X452750000Y-337150000D03*
X448250000Y-337150000D03*
X452750000Y-337950000D03*
X448250000Y-337950000D03*
X452750000Y-338750000D03*
X448250000Y-338750000D03*
X452750000Y-339550000D03*
X448250000Y-339550000D03*
X452750000Y-340350000D03*
X448250000Y-340350000D03*
X452750000Y-341150000D03*
X448250000Y-341150000D03*
X452750000Y-341950000D03*
X448250000Y-341950000D03*
X452750000Y-342750000D03*
X448250000Y-342750000D03*
X452750000Y-343550000D03*
X448250000Y-343550000D03*
X452750000Y-344350000D03*
X448250000Y-344350000D03*
X452750000Y-345150000D03*
X448250000Y-345150000D03*
X452750000Y-345950000D03*
X448250000Y-345950000D03*
X452750000Y-346750000D03*
X448250000Y-346750000D03*
X452750000Y-347550000D03*
X448250000Y-347550000D03*
X452750000Y-348350000D03*
X448250000Y-348350000D03*
X452750000Y-349150000D03*
X448250000Y-349150000D03*
X452750000Y-349950000D03*
X448250000Y-349950000D03*
X452750000Y-350750000D03*
X448250000Y-350750000D03*
X452750000Y-351550000D03*
X448250000Y-351550000D03*
X452750000Y-352350000D03*
X448250000Y-352350000D03*
X452750000Y-353150000D03*
X448250000Y-353150000D03*
X452750000Y-353950000D03*
X448250000Y-353950000D03*
X452750000Y-354750000D03*
X448250000Y-354750000D03*
X452750000Y-355550000D03*
X448250000Y-355550000D03*
X452750000Y-356350000D03*
X448250000Y-356350000D03*
X452750000Y-357150000D03*
X448250000Y-357150000D03*
X452750000Y-357950000D03*
X448250000Y-357950000D03*
X452750000Y-358750000D03*
X448250000Y-358750000D03*
X452750000Y-359550000D03*
X448250000Y-359550000D03*
X452750000Y-360350000D03*
X448250000Y-360350000D03*
X452750000Y-361150000D03*
X448250000Y-361150000D03*
X452750000Y-361950000D03*
X448250000Y-361950000D03*
X452750000Y-362750000D03*
X448250000Y-362750000D03*
X452750000Y-363550000D03*
X448250000Y-363550000D03*
X452750000Y-364350000D03*
X448250000Y-364350000D03*
D11*
X449000000Y-315350000D03*
X449000000Y-366150000D03*
%TD*%
D10*
%TO.C,J2*%
X503250000Y-392900000D03*
X498750000Y-392900000D03*
X503250000Y-393700000D03*
X498750000Y-393700000D03*
X503250000Y-394500000D03*
X498750000Y-394500000D03*
X503250000Y-395300000D03*
X498750000Y-395300000D03*
X503250000Y-396100000D03*
X498750000Y-396100000D03*
X503250000Y-396900000D03*
X498750000Y-396900000D03*
X503250000Y-397700000D03*
X498750000Y-397700000D03*
X503250000Y-398500000D03*
X498750000Y-398500000D03*
X503250000Y-399300000D03*
X498750000Y-399300000D03*
X503250000Y-400100000D03*
X498750000Y-400100000D03*
X503250000Y-400900000D03*
X498750000Y-400900000D03*
X503250000Y-401700000D03*
X498750000Y-401700000D03*
X503250000Y-402500000D03*
X498750000Y-402500000D03*
X503250000Y-403300000D03*
X498750000Y-403300000D03*
X503250000Y-404100000D03*
X498750000Y-404100000D03*
X503250000Y-404900000D03*
X498750000Y-404900000D03*
X503250000Y-405700000D03*
X498750000Y-405700000D03*
X503250000Y-406500000D03*
X498750000Y-406500000D03*
X503250000Y-407300000D03*
X498750000Y-407300000D03*
X503250000Y-408100000D03*
X498750000Y-408100000D03*
X503250000Y-408900000D03*
X498750000Y-408900000D03*
X503250000Y-409700000D03*
X498750000Y-409700000D03*
X503250000Y-410500000D03*
X498750000Y-410500000D03*
X503250000Y-411300000D03*
X498750000Y-411300000D03*
X503250000Y-412100000D03*
X498750000Y-412100000D03*
X503250000Y-412900000D03*
X498750000Y-412900000D03*
X503250000Y-413700000D03*
X498750000Y-413700000D03*
X503250000Y-414500000D03*
X498750000Y-414500000D03*
X503250000Y-415300000D03*
X498750000Y-415300000D03*
X503250000Y-416100000D03*
X498750000Y-416100000D03*
X503250000Y-416900000D03*
X498750000Y-416900000D03*
X503250000Y-417700000D03*
X498750000Y-417700000D03*
X503250000Y-418500000D03*
X498750000Y-418500000D03*
X503250000Y-419300000D03*
X498750000Y-419300000D03*
X503250000Y-420100000D03*
X498750000Y-420100000D03*
X503250000Y-420900000D03*
X498750000Y-420900000D03*
X503250000Y-421700000D03*
X498750000Y-421700000D03*
X503250000Y-422500000D03*
X498750000Y-422500000D03*
X503250000Y-423300000D03*
X498750000Y-423300000D03*
X503250000Y-424100000D03*
X498750000Y-424100000D03*
X503250000Y-424900000D03*
X498750000Y-424900000D03*
X503250000Y-425700000D03*
X498750000Y-425700000D03*
X503250000Y-426500000D03*
X498750000Y-426500000D03*
X503250000Y-427300000D03*
X498750000Y-427300000D03*
X503250000Y-428100000D03*
X498750000Y-428100000D03*
X503250000Y-428900000D03*
X498750000Y-428900000D03*
X503250000Y-429700000D03*
X498750000Y-429700000D03*
X503250000Y-430500000D03*
X498750000Y-430500000D03*
X503250000Y-431300000D03*
X498750000Y-431300000D03*
X503250000Y-432100000D03*
X498750000Y-432100000D03*
X503250000Y-432900000D03*
X498750000Y-432900000D03*
X503250000Y-433700000D03*
X498750000Y-433700000D03*
X503250000Y-434500000D03*
X498750000Y-434500000D03*
X503250000Y-435300000D03*
X498750000Y-435300000D03*
X503250000Y-436100000D03*
X498750000Y-436100000D03*
X503250000Y-436900000D03*
X498750000Y-436900000D03*
X503250000Y-437700000D03*
X498750000Y-437700000D03*
X503250000Y-438500000D03*
X498750000Y-438500000D03*
X503250000Y-439300000D03*
X498750000Y-439300000D03*
X503250000Y-440100000D03*
X498750000Y-440100000D03*
D11*
X499500000Y-391100000D03*
X499500000Y-441900000D03*
%TD*%
%TO.C,J2*%
X398500000Y-441900000D03*
X398500000Y-391100000D03*
D10*
X397750000Y-440100000D03*
X402250000Y-440100000D03*
X397750000Y-439300000D03*
X402250000Y-439300000D03*
X397750000Y-438500000D03*
X402250000Y-438500000D03*
X397750000Y-437700000D03*
X402250000Y-437700000D03*
X397750000Y-436900000D03*
X402250000Y-436900000D03*
X397750000Y-436100000D03*
X402250000Y-436100000D03*
X397750000Y-435300000D03*
X402250000Y-435300000D03*
X397750000Y-434500000D03*
X402250000Y-434500000D03*
X397750000Y-433700000D03*
X402250000Y-433700000D03*
X397750000Y-432900000D03*
X402250000Y-432900000D03*
X397750000Y-432100000D03*
X402250000Y-432100000D03*
X397750000Y-431300000D03*
X402250000Y-431300000D03*
X397750000Y-430500000D03*
X402250000Y-430500000D03*
X397750000Y-429700000D03*
X402250000Y-429700000D03*
X397750000Y-428900000D03*
X402250000Y-428900000D03*
X397750000Y-428100000D03*
X402250000Y-428100000D03*
X397750000Y-427300000D03*
X402250000Y-427300000D03*
X397750000Y-426500000D03*
X402250000Y-426500000D03*
X397750000Y-425700000D03*
X402250000Y-425700000D03*
X397750000Y-424900000D03*
X402250000Y-424900000D03*
X397750000Y-424100000D03*
X402250000Y-424100000D03*
X397750000Y-423300000D03*
X402250000Y-423300000D03*
X397750000Y-422500000D03*
X402250000Y-422500000D03*
X397750000Y-421700000D03*
X402250000Y-421700000D03*
X397750000Y-420900000D03*
X402250000Y-420900000D03*
X397750000Y-420100000D03*
X402250000Y-420100000D03*
X397750000Y-419300000D03*
X402250000Y-419300000D03*
X397750000Y-418500000D03*
X402250000Y-418500000D03*
X397750000Y-417700000D03*
X402250000Y-417700000D03*
X397750000Y-416900000D03*
X402250000Y-416900000D03*
X397750000Y-416100000D03*
X402250000Y-416100000D03*
X397750000Y-415300000D03*
X402250000Y-415300000D03*
X397750000Y-414500000D03*
X402250000Y-414500000D03*
X397750000Y-413700000D03*
X402250000Y-413700000D03*
X397750000Y-412900000D03*
X402250000Y-412900000D03*
X397750000Y-412100000D03*
X402250000Y-412100000D03*
X397750000Y-411300000D03*
X402250000Y-411300000D03*
X397750000Y-410500000D03*
X402250000Y-410500000D03*
X397750000Y-409700000D03*
X402250000Y-409700000D03*
X397750000Y-408900000D03*
X402250000Y-408900000D03*
X397750000Y-408100000D03*
X402250000Y-408100000D03*
X397750000Y-407300000D03*
X402250000Y-407300000D03*
X397750000Y-406500000D03*
X402250000Y-406500000D03*
X397750000Y-405700000D03*
X402250000Y-405700000D03*
X397750000Y-404900000D03*
X402250000Y-404900000D03*
X397750000Y-404100000D03*
X402250000Y-404100000D03*
X397750000Y-403300000D03*
X402250000Y-403300000D03*
X397750000Y-402500000D03*
X402250000Y-402500000D03*
X397750000Y-401700000D03*
X402250000Y-401700000D03*
X397750000Y-400900000D03*
X402250000Y-400900000D03*
X397750000Y-400100000D03*
X402250000Y-400100000D03*
X397750000Y-399300000D03*
X402250000Y-399300000D03*
X397750000Y-398500000D03*
X402250000Y-398500000D03*
X397750000Y-397700000D03*
X402250000Y-397700000D03*
X397750000Y-396900000D03*
X402250000Y-396900000D03*
X397750000Y-396100000D03*
X402250000Y-396100000D03*
X397750000Y-395300000D03*
X402250000Y-395300000D03*
X397750000Y-394500000D03*
X402250000Y-394500000D03*
X397750000Y-393700000D03*
X402250000Y-393700000D03*
X397750000Y-392900000D03*
X402250000Y-392900000D03*
%TD*%
%TO.C,J1*%
X402250000Y-317150000D03*
X397750000Y-317150000D03*
X402250000Y-317950000D03*
X397750000Y-317950000D03*
X402250000Y-318750000D03*
X397750000Y-318750000D03*
X402250000Y-319550000D03*
X397750000Y-319550000D03*
X402250000Y-320350000D03*
X397750000Y-320350000D03*
X402250000Y-321150000D03*
X397750000Y-321150000D03*
X402250000Y-321950000D03*
X397750000Y-321950000D03*
X402250000Y-322750000D03*
X397750000Y-322750000D03*
X402250000Y-323550000D03*
X397750000Y-323550000D03*
X402250000Y-324350000D03*
X397750000Y-324350000D03*
X402250000Y-325150000D03*
X397750000Y-325150000D03*
X402250000Y-325950000D03*
X397750000Y-325950000D03*
X402250000Y-326750000D03*
X397750000Y-326750000D03*
X402250000Y-327550000D03*
X397750000Y-327550000D03*
X402250000Y-328350000D03*
X397750000Y-328350000D03*
X402250000Y-329150000D03*
X397750000Y-329150000D03*
X402250000Y-329950000D03*
X397750000Y-329950000D03*
X402250000Y-330750000D03*
X397750000Y-330750000D03*
X402250000Y-331550000D03*
X397750000Y-331550000D03*
X402250000Y-332350000D03*
X397750000Y-332350000D03*
X402250000Y-333150000D03*
X397750000Y-333150000D03*
X402250000Y-333950000D03*
X397750000Y-333950000D03*
X402250000Y-334750000D03*
X397750000Y-334750000D03*
X402250000Y-335550000D03*
X397750000Y-335550000D03*
X402250000Y-336350000D03*
X397750000Y-336350000D03*
X402250000Y-337150000D03*
X397750000Y-337150000D03*
X402250000Y-337950000D03*
X397750000Y-337950000D03*
X402250000Y-338750000D03*
X397750000Y-338750000D03*
X402250000Y-339550000D03*
X397750000Y-339550000D03*
X402250000Y-340350000D03*
X397750000Y-340350000D03*
X402250000Y-341150000D03*
X397750000Y-341150000D03*
X402250000Y-341950000D03*
X397750000Y-341950000D03*
X402250000Y-342750000D03*
X397750000Y-342750000D03*
X402250000Y-343550000D03*
X397750000Y-343550000D03*
X402250000Y-344350000D03*
X397750000Y-344350000D03*
X402250000Y-345150000D03*
X397750000Y-345150000D03*
X402250000Y-345950000D03*
X397750000Y-345950000D03*
X402250000Y-346750000D03*
X397750000Y-346750000D03*
X402250000Y-347550000D03*
X397750000Y-347550000D03*
X402250000Y-348350000D03*
X397750000Y-348350000D03*
X402250000Y-349150000D03*
X397750000Y-349150000D03*
X402250000Y-349950000D03*
X397750000Y-349950000D03*
X402250000Y-350750000D03*
X397750000Y-350750000D03*
X402250000Y-351550000D03*
X397750000Y-351550000D03*
X402250000Y-352350000D03*
X397750000Y-352350000D03*
X402250000Y-353150000D03*
X397750000Y-353150000D03*
X402250000Y-353950000D03*
X397750000Y-353950000D03*
X402250000Y-354750000D03*
X397750000Y-354750000D03*
X402250000Y-355550000D03*
X397750000Y-355550000D03*
X402250000Y-356350000D03*
X397750000Y-356350000D03*
X402250000Y-357150000D03*
X397750000Y-357150000D03*
X402250000Y-357950000D03*
X397750000Y-357950000D03*
X402250000Y-358750000D03*
X397750000Y-358750000D03*
X402250000Y-359550000D03*
X397750000Y-359550000D03*
X402250000Y-360350000D03*
X397750000Y-360350000D03*
X402250000Y-361150000D03*
X397750000Y-361150000D03*
X402250000Y-361950000D03*
X397750000Y-361950000D03*
X402250000Y-362750000D03*
X397750000Y-362750000D03*
X402250000Y-363550000D03*
X397750000Y-363550000D03*
X402250000Y-364350000D03*
X397750000Y-364350000D03*
D11*
X398500000Y-315350000D03*
X398500000Y-366150000D03*
%TD*%
D10*
%TO.C,J102*%
X301250000Y-14150000D03*
X296750000Y-14150000D03*
X301250000Y-14950000D03*
X296750000Y-14950000D03*
X301250000Y-15750000D03*
X296750000Y-15750000D03*
X301250000Y-16550000D03*
X296750000Y-16550000D03*
X301250000Y-17350000D03*
X296750000Y-17350000D03*
X301250000Y-18150000D03*
X296750000Y-18150000D03*
X301250000Y-18950000D03*
X296750000Y-18950000D03*
X301250000Y-19750000D03*
X296750000Y-19750000D03*
X301250000Y-20550000D03*
X296750000Y-20550000D03*
X301250000Y-21350000D03*
X296750000Y-21350000D03*
X301250000Y-22150000D03*
X296750000Y-22150000D03*
X301250000Y-22950000D03*
X296750000Y-22950000D03*
X301250000Y-23750000D03*
X296750000Y-23750000D03*
X301250000Y-24550000D03*
X296750000Y-24550000D03*
X301250000Y-25350000D03*
X296750000Y-25350000D03*
X301250000Y-26150000D03*
X296750000Y-26150000D03*
X301250000Y-26950000D03*
X296750000Y-26950000D03*
X301250000Y-27750000D03*
X296750000Y-27750000D03*
X301250000Y-28550000D03*
X296750000Y-28550000D03*
X301250000Y-29350000D03*
X296750000Y-29350000D03*
X301250000Y-30150000D03*
X296750000Y-30150000D03*
X301250000Y-30950000D03*
X296750000Y-30950000D03*
X301250000Y-31750000D03*
X296750000Y-31750000D03*
X301250000Y-32550000D03*
X296750000Y-32550000D03*
X301250000Y-33350000D03*
X296750000Y-33350000D03*
X301250000Y-34150000D03*
X296750000Y-34150000D03*
X301250000Y-34950000D03*
X296750000Y-34950000D03*
X301250000Y-35750000D03*
X296750000Y-35750000D03*
X301250000Y-36550000D03*
X296750000Y-36550000D03*
X301250000Y-37350000D03*
X296750000Y-37350000D03*
X301250000Y-38150000D03*
X296750000Y-38150000D03*
X301250000Y-38950000D03*
X296750000Y-38950000D03*
X301250000Y-39750000D03*
X296750000Y-39750000D03*
X301250000Y-40550000D03*
X296750000Y-40550000D03*
X301250000Y-41350000D03*
X296750000Y-41350000D03*
X301250000Y-42150000D03*
X296750000Y-42150000D03*
X301250000Y-42950000D03*
X296750000Y-42950000D03*
X301250000Y-43750000D03*
X296750000Y-43750000D03*
X301250000Y-44550000D03*
X296750000Y-44550000D03*
X301250000Y-45350000D03*
X296750000Y-45350000D03*
X301250000Y-46150000D03*
X296750000Y-46150000D03*
X301250000Y-46950000D03*
X296750000Y-46950000D03*
X301250000Y-47750000D03*
X296750000Y-47750000D03*
X301250000Y-48550000D03*
X296750000Y-48550000D03*
X301250000Y-49350000D03*
X296750000Y-49350000D03*
X301250000Y-50150000D03*
X296750000Y-50150000D03*
X301250000Y-50950000D03*
X296750000Y-50950000D03*
X301250000Y-51750000D03*
X296750000Y-51750000D03*
X301250000Y-52550000D03*
X296750000Y-52550000D03*
X301250000Y-53350000D03*
X296750000Y-53350000D03*
X301250000Y-54150000D03*
X296750000Y-54150000D03*
X301250000Y-54950000D03*
X296750000Y-54950000D03*
X301250000Y-55750000D03*
X296750000Y-55750000D03*
X301250000Y-56550000D03*
X296750000Y-56550000D03*
X301250000Y-57350000D03*
X296750000Y-57350000D03*
X301250000Y-58150000D03*
X296750000Y-58150000D03*
X301250000Y-58950000D03*
X296750000Y-58950000D03*
X301250000Y-59750000D03*
X296750000Y-59750000D03*
X301250000Y-60550000D03*
X296750000Y-60550000D03*
X301250000Y-61350000D03*
X296750000Y-61350000D03*
D11*
X297500000Y-12350000D03*
X297500000Y-63150000D03*
%TD*%
%TO.C,J302*%
X297500000Y-138900000D03*
X297500000Y-88100000D03*
D10*
X296750000Y-137100000D03*
X301250000Y-137100000D03*
X296750000Y-136300000D03*
X301250000Y-136300000D03*
X296750000Y-135500000D03*
X301250000Y-135500000D03*
X296750000Y-134700000D03*
X301250000Y-134700000D03*
X296750000Y-133900000D03*
X301250000Y-133900000D03*
X296750000Y-133100000D03*
X301250000Y-133100000D03*
X296750000Y-132300000D03*
X301250000Y-132300000D03*
X296750000Y-131500000D03*
X301250000Y-131500000D03*
X296750000Y-130700000D03*
X301250000Y-130700000D03*
X296750000Y-129900000D03*
X301250000Y-129900000D03*
X296750000Y-129100000D03*
X301250000Y-129100000D03*
X296750000Y-128300000D03*
X301250000Y-128300000D03*
X296750000Y-127500000D03*
X301250000Y-127500000D03*
X296750000Y-126700000D03*
X301250000Y-126700000D03*
X296750000Y-125900000D03*
X301250000Y-125900000D03*
X296750000Y-125100000D03*
X301250000Y-125100000D03*
X296750000Y-124300000D03*
X301250000Y-124300000D03*
X296750000Y-123500000D03*
X301250000Y-123500000D03*
X296750000Y-122700000D03*
X301250000Y-122700000D03*
X296750000Y-121900000D03*
X301250000Y-121900000D03*
X296750000Y-121100000D03*
X301250000Y-121100000D03*
X296750000Y-120300000D03*
X301250000Y-120300000D03*
X296750000Y-119500000D03*
X301250000Y-119500000D03*
X296750000Y-118700000D03*
X301250000Y-118700000D03*
X296750000Y-117900000D03*
X301250000Y-117900000D03*
X296750000Y-117100000D03*
X301250000Y-117100000D03*
X296750000Y-116300000D03*
X301250000Y-116300000D03*
X296750000Y-115500000D03*
X301250000Y-115500000D03*
X296750000Y-114700000D03*
X301250000Y-114700000D03*
X296750000Y-113900000D03*
X301250000Y-113900000D03*
X296750000Y-113100000D03*
X301250000Y-113100000D03*
X296750000Y-112300000D03*
X301250000Y-112300000D03*
X296750000Y-111500000D03*
X301250000Y-111500000D03*
X296750000Y-110700000D03*
X301250000Y-110700000D03*
X296750000Y-109900000D03*
X301250000Y-109900000D03*
X296750000Y-109100000D03*
X301250000Y-109100000D03*
X296750000Y-108300000D03*
X301250000Y-108300000D03*
X296750000Y-107500000D03*
X301250000Y-107500000D03*
X296750000Y-106700000D03*
X301250000Y-106700000D03*
X296750000Y-105900000D03*
X301250000Y-105900000D03*
X296750000Y-105100000D03*
X301250000Y-105100000D03*
X296750000Y-104300000D03*
X301250000Y-104300000D03*
X296750000Y-103500000D03*
X301250000Y-103500000D03*
X296750000Y-102700000D03*
X301250000Y-102700000D03*
X296750000Y-101900000D03*
X301250000Y-101900000D03*
X296750000Y-101100000D03*
X301250000Y-101100000D03*
X296750000Y-100300000D03*
X301250000Y-100300000D03*
X296750000Y-99500000D03*
X301250000Y-99500000D03*
X296750000Y-98700000D03*
X301250000Y-98700000D03*
X296750000Y-97900000D03*
X301250000Y-97900000D03*
X296750000Y-97100000D03*
X301250000Y-97100000D03*
X296750000Y-96300000D03*
X301250000Y-96300000D03*
X296750000Y-95500000D03*
X301250000Y-95500000D03*
X296750000Y-94700000D03*
X301250000Y-94700000D03*
X296750000Y-93900000D03*
X301250000Y-93900000D03*
X296750000Y-93100000D03*
X301250000Y-93100000D03*
X296750000Y-92300000D03*
X301250000Y-92300000D03*
X296750000Y-91500000D03*
X301250000Y-91500000D03*
X296750000Y-90700000D03*
X301250000Y-90700000D03*
X296750000Y-89900000D03*
X301250000Y-89900000D03*
%TD*%
D11*
%TO.C,J402*%
X247000000Y-214650000D03*
X247000000Y-163850000D03*
D10*
X246250000Y-212850000D03*
X250750000Y-212850000D03*
X246250000Y-212050000D03*
X250750000Y-212050000D03*
X246250000Y-211250000D03*
X250750000Y-211250000D03*
X246250000Y-210450000D03*
X250750000Y-210450000D03*
X246250000Y-209650000D03*
X250750000Y-209650000D03*
X246250000Y-208850000D03*
X250750000Y-208850000D03*
X246250000Y-208050000D03*
X250750000Y-208050000D03*
X246250000Y-207250000D03*
X250750000Y-207250000D03*
X246250000Y-206450000D03*
X250750000Y-206450000D03*
X246250000Y-205650000D03*
X250750000Y-205650000D03*
X246250000Y-204850000D03*
X250750000Y-204850000D03*
X246250000Y-204050000D03*
X250750000Y-204050000D03*
X246250000Y-203250000D03*
X250750000Y-203250000D03*
X246250000Y-202450000D03*
X250750000Y-202450000D03*
X246250000Y-201650000D03*
X250750000Y-201650000D03*
X246250000Y-200850000D03*
X250750000Y-200850000D03*
X246250000Y-200050000D03*
X250750000Y-200050000D03*
X246250000Y-199250000D03*
X250750000Y-199250000D03*
X246250000Y-198450000D03*
X250750000Y-198450000D03*
X246250000Y-197650000D03*
X250750000Y-197650000D03*
X246250000Y-196850000D03*
X250750000Y-196850000D03*
X246250000Y-196050000D03*
X250750000Y-196050000D03*
X246250000Y-195250000D03*
X250750000Y-195250000D03*
X246250000Y-194450000D03*
X250750000Y-194450000D03*
X246250000Y-193650000D03*
X250750000Y-193650000D03*
X246250000Y-192850000D03*
X250750000Y-192850000D03*
X246250000Y-192050000D03*
X250750000Y-192050000D03*
X246250000Y-191250000D03*
X250750000Y-191250000D03*
X246250000Y-190450000D03*
X250750000Y-190450000D03*
X246250000Y-189650000D03*
X250750000Y-189650000D03*
X246250000Y-188850000D03*
X250750000Y-188850000D03*
X246250000Y-188050000D03*
X250750000Y-188050000D03*
X246250000Y-187250000D03*
X250750000Y-187250000D03*
X246250000Y-186450000D03*
X250750000Y-186450000D03*
X246250000Y-185650000D03*
X250750000Y-185650000D03*
X246250000Y-184850000D03*
X250750000Y-184850000D03*
X246250000Y-184050000D03*
X250750000Y-184050000D03*
X246250000Y-183250000D03*
X250750000Y-183250000D03*
X246250000Y-182450000D03*
X250750000Y-182450000D03*
X246250000Y-181650000D03*
X250750000Y-181650000D03*
X246250000Y-180850000D03*
X250750000Y-180850000D03*
X246250000Y-180050000D03*
X250750000Y-180050000D03*
X246250000Y-179250000D03*
X250750000Y-179250000D03*
X246250000Y-178450000D03*
X250750000Y-178450000D03*
X246250000Y-177650000D03*
X250750000Y-177650000D03*
X246250000Y-176850000D03*
X250750000Y-176850000D03*
X246250000Y-176050000D03*
X250750000Y-176050000D03*
X246250000Y-175250000D03*
X250750000Y-175250000D03*
X246250000Y-174450000D03*
X250750000Y-174450000D03*
X246250000Y-173650000D03*
X250750000Y-173650000D03*
X246250000Y-172850000D03*
X250750000Y-172850000D03*
X246250000Y-172050000D03*
X250750000Y-172050000D03*
X246250000Y-171250000D03*
X250750000Y-171250000D03*
X246250000Y-170450000D03*
X250750000Y-170450000D03*
X246250000Y-169650000D03*
X250750000Y-169650000D03*
X246250000Y-168850000D03*
X250750000Y-168850000D03*
X246250000Y-168050000D03*
X250750000Y-168050000D03*
X246250000Y-167250000D03*
X250750000Y-167250000D03*
X246250000Y-166450000D03*
X250750000Y-166450000D03*
X246250000Y-165650000D03*
X250750000Y-165650000D03*
%TD*%
%TO.C,J602*%
X250750000Y-241400000D03*
X246250000Y-241400000D03*
X250750000Y-242200000D03*
X246250000Y-242200000D03*
X250750000Y-243000000D03*
X246250000Y-243000000D03*
X250750000Y-243800000D03*
X246250000Y-243800000D03*
X250750000Y-244600000D03*
X246250000Y-244600000D03*
X250750000Y-245400000D03*
X246250000Y-245400000D03*
X250750000Y-246200000D03*
X246250000Y-246200000D03*
X250750000Y-247000000D03*
X246250000Y-247000000D03*
X250750000Y-247800000D03*
X246250000Y-247800000D03*
X250750000Y-248600000D03*
X246250000Y-248600000D03*
X250750000Y-249400000D03*
X246250000Y-249400000D03*
X250750000Y-250200000D03*
X246250000Y-250200000D03*
X250750000Y-251000000D03*
X246250000Y-251000000D03*
X250750000Y-251800000D03*
X246250000Y-251800000D03*
X250750000Y-252600000D03*
X246250000Y-252600000D03*
X250750000Y-253400000D03*
X246250000Y-253400000D03*
X250750000Y-254200000D03*
X246250000Y-254200000D03*
X250750000Y-255000000D03*
X246250000Y-255000000D03*
X250750000Y-255800000D03*
X246250000Y-255800000D03*
X250750000Y-256600000D03*
X246250000Y-256600000D03*
X250750000Y-257400000D03*
X246250000Y-257400000D03*
X250750000Y-258200000D03*
X246250000Y-258200000D03*
X250750000Y-259000000D03*
X246250000Y-259000000D03*
X250750000Y-259800000D03*
X246250000Y-259800000D03*
X250750000Y-260600000D03*
X246250000Y-260600000D03*
X250750000Y-261400000D03*
X246250000Y-261400000D03*
X250750000Y-262200000D03*
X246250000Y-262200000D03*
X250750000Y-263000000D03*
X246250000Y-263000000D03*
X250750000Y-263800000D03*
X246250000Y-263800000D03*
X250750000Y-264600000D03*
X246250000Y-264600000D03*
X250750000Y-265400000D03*
X246250000Y-265400000D03*
X250750000Y-266200000D03*
X246250000Y-266200000D03*
X250750000Y-267000000D03*
X246250000Y-267000000D03*
X250750000Y-267800000D03*
X246250000Y-267800000D03*
X250750000Y-268600000D03*
X246250000Y-268600000D03*
X250750000Y-269400000D03*
X246250000Y-269400000D03*
X250750000Y-270200000D03*
X246250000Y-270200000D03*
X250750000Y-271000000D03*
X246250000Y-271000000D03*
X250750000Y-271800000D03*
X246250000Y-271800000D03*
X250750000Y-272600000D03*
X246250000Y-272600000D03*
X250750000Y-273400000D03*
X246250000Y-273400000D03*
X250750000Y-274200000D03*
X246250000Y-274200000D03*
X250750000Y-275000000D03*
X246250000Y-275000000D03*
X250750000Y-275800000D03*
X246250000Y-275800000D03*
X250750000Y-276600000D03*
X246250000Y-276600000D03*
X250750000Y-277400000D03*
X246250000Y-277400000D03*
X250750000Y-278200000D03*
X246250000Y-278200000D03*
X250750000Y-279000000D03*
X246250000Y-279000000D03*
X250750000Y-279800000D03*
X246250000Y-279800000D03*
X250750000Y-280600000D03*
X246250000Y-280600000D03*
X250750000Y-281400000D03*
X246250000Y-281400000D03*
X250750000Y-282200000D03*
X246250000Y-282200000D03*
X250750000Y-283000000D03*
X246250000Y-283000000D03*
X250750000Y-283800000D03*
X246250000Y-283800000D03*
X250750000Y-284600000D03*
X246250000Y-284600000D03*
X250750000Y-285400000D03*
X246250000Y-285400000D03*
X250750000Y-286200000D03*
X246250000Y-286200000D03*
X250750000Y-287000000D03*
X246250000Y-287000000D03*
X250750000Y-287800000D03*
X246250000Y-287800000D03*
X250750000Y-288600000D03*
X246250000Y-288600000D03*
D11*
X247000000Y-239600000D03*
X247000000Y-290400000D03*
%TD*%
%TO.C,J102*%
X247000000Y-63150000D03*
X247000000Y-12350000D03*
D10*
X246250000Y-61350000D03*
X250750000Y-61350000D03*
X246250000Y-60550000D03*
X250750000Y-60550000D03*
X246250000Y-59750000D03*
X250750000Y-59750000D03*
X246250000Y-58950000D03*
X250750000Y-58950000D03*
X246250000Y-58150000D03*
X250750000Y-58150000D03*
X246250000Y-57350000D03*
X250750000Y-57350000D03*
X246250000Y-56550000D03*
X250750000Y-56550000D03*
X246250000Y-55750000D03*
X250750000Y-55750000D03*
X246250000Y-54950000D03*
X250750000Y-54950000D03*
X246250000Y-54150000D03*
X250750000Y-54150000D03*
X246250000Y-53350000D03*
X250750000Y-53350000D03*
X246250000Y-52550000D03*
X250750000Y-52550000D03*
X246250000Y-51750000D03*
X250750000Y-51750000D03*
X246250000Y-50950000D03*
X250750000Y-50950000D03*
X246250000Y-50150000D03*
X250750000Y-50150000D03*
X246250000Y-49350000D03*
X250750000Y-49350000D03*
X246250000Y-48550000D03*
X250750000Y-48550000D03*
X246250000Y-47750000D03*
X250750000Y-47750000D03*
X246250000Y-46950000D03*
X250750000Y-46950000D03*
X246250000Y-46150000D03*
X250750000Y-46150000D03*
X246250000Y-45350000D03*
X250750000Y-45350000D03*
X246250000Y-44550000D03*
X250750000Y-44550000D03*
X246250000Y-43750000D03*
X250750000Y-43750000D03*
X246250000Y-42950000D03*
X250750000Y-42950000D03*
X246250000Y-42150000D03*
X250750000Y-42150000D03*
X246250000Y-41350000D03*
X250750000Y-41350000D03*
X246250000Y-40550000D03*
X250750000Y-40550000D03*
X246250000Y-39750000D03*
X250750000Y-39750000D03*
X246250000Y-38950000D03*
X250750000Y-38950000D03*
X246250000Y-38150000D03*
X250750000Y-38150000D03*
X246250000Y-37350000D03*
X250750000Y-37350000D03*
X246250000Y-36550000D03*
X250750000Y-36550000D03*
X246250000Y-35750000D03*
X250750000Y-35750000D03*
X246250000Y-34950000D03*
X250750000Y-34950000D03*
X246250000Y-34150000D03*
X250750000Y-34150000D03*
X246250000Y-33350000D03*
X250750000Y-33350000D03*
X246250000Y-32550000D03*
X250750000Y-32550000D03*
X246250000Y-31750000D03*
X250750000Y-31750000D03*
X246250000Y-30950000D03*
X250750000Y-30950000D03*
X246250000Y-30150000D03*
X250750000Y-30150000D03*
X246250000Y-29350000D03*
X250750000Y-29350000D03*
X246250000Y-28550000D03*
X250750000Y-28550000D03*
X246250000Y-27750000D03*
X250750000Y-27750000D03*
X246250000Y-26950000D03*
X250750000Y-26950000D03*
X246250000Y-26150000D03*
X250750000Y-26150000D03*
X246250000Y-25350000D03*
X250750000Y-25350000D03*
X246250000Y-24550000D03*
X250750000Y-24550000D03*
X246250000Y-23750000D03*
X250750000Y-23750000D03*
X246250000Y-22950000D03*
X250750000Y-22950000D03*
X246250000Y-22150000D03*
X250750000Y-22150000D03*
X246250000Y-21350000D03*
X250750000Y-21350000D03*
X246250000Y-20550000D03*
X250750000Y-20550000D03*
X246250000Y-19750000D03*
X250750000Y-19750000D03*
X246250000Y-18950000D03*
X250750000Y-18950000D03*
X246250000Y-18150000D03*
X250750000Y-18150000D03*
X246250000Y-17350000D03*
X250750000Y-17350000D03*
X246250000Y-16550000D03*
X250750000Y-16550000D03*
X246250000Y-15750000D03*
X250750000Y-15750000D03*
X246250000Y-14950000D03*
X250750000Y-14950000D03*
X246250000Y-14150000D03*
X250750000Y-14150000D03*
%TD*%
%TO.C,J302*%
X250750000Y-89900000D03*
X246250000Y-89900000D03*
X250750000Y-90700000D03*
X246250000Y-90700000D03*
X250750000Y-91500000D03*
X246250000Y-91500000D03*
X250750000Y-92300000D03*
X246250000Y-92300000D03*
X250750000Y-93100000D03*
X246250000Y-93100000D03*
X250750000Y-93900000D03*
X246250000Y-93900000D03*
X250750000Y-94700000D03*
X246250000Y-94700000D03*
X250750000Y-95500000D03*
X246250000Y-95500000D03*
X250750000Y-96300000D03*
X246250000Y-96300000D03*
X250750000Y-97100000D03*
X246250000Y-97100000D03*
X250750000Y-97900000D03*
X246250000Y-97900000D03*
X250750000Y-98700000D03*
X246250000Y-98700000D03*
X250750000Y-99500000D03*
X246250000Y-99500000D03*
X250750000Y-100300000D03*
X246250000Y-100300000D03*
X250750000Y-101100000D03*
X246250000Y-101100000D03*
X250750000Y-101900000D03*
X246250000Y-101900000D03*
X250750000Y-102700000D03*
X246250000Y-102700000D03*
X250750000Y-103500000D03*
X246250000Y-103500000D03*
X250750000Y-104300000D03*
X246250000Y-104300000D03*
X250750000Y-105100000D03*
X246250000Y-105100000D03*
X250750000Y-105900000D03*
X246250000Y-105900000D03*
X250750000Y-106700000D03*
X246250000Y-106700000D03*
X250750000Y-107500000D03*
X246250000Y-107500000D03*
X250750000Y-108300000D03*
X246250000Y-108300000D03*
X250750000Y-109100000D03*
X246250000Y-109100000D03*
X250750000Y-109900000D03*
X246250000Y-109900000D03*
X250750000Y-110700000D03*
X246250000Y-110700000D03*
X250750000Y-111500000D03*
X246250000Y-111500000D03*
X250750000Y-112300000D03*
X246250000Y-112300000D03*
X250750000Y-113100000D03*
X246250000Y-113100000D03*
X250750000Y-113900000D03*
X246250000Y-113900000D03*
X250750000Y-114700000D03*
X246250000Y-114700000D03*
X250750000Y-115500000D03*
X246250000Y-115500000D03*
X250750000Y-116300000D03*
X246250000Y-116300000D03*
X250750000Y-117100000D03*
X246250000Y-117100000D03*
X250750000Y-117900000D03*
X246250000Y-117900000D03*
X250750000Y-118700000D03*
X246250000Y-118700000D03*
X250750000Y-119500000D03*
X246250000Y-119500000D03*
X250750000Y-120300000D03*
X246250000Y-120300000D03*
X250750000Y-121100000D03*
X246250000Y-121100000D03*
X250750000Y-121900000D03*
X246250000Y-121900000D03*
X250750000Y-122700000D03*
X246250000Y-122700000D03*
X250750000Y-123500000D03*
X246250000Y-123500000D03*
X250750000Y-124300000D03*
X246250000Y-124300000D03*
X250750000Y-125100000D03*
X246250000Y-125100000D03*
X250750000Y-125900000D03*
X246250000Y-125900000D03*
X250750000Y-126700000D03*
X246250000Y-126700000D03*
X250750000Y-127500000D03*
X246250000Y-127500000D03*
X250750000Y-128300000D03*
X246250000Y-128300000D03*
X250750000Y-129100000D03*
X246250000Y-129100000D03*
X250750000Y-129900000D03*
X246250000Y-129900000D03*
X250750000Y-130700000D03*
X246250000Y-130700000D03*
X250750000Y-131500000D03*
X246250000Y-131500000D03*
X250750000Y-132300000D03*
X246250000Y-132300000D03*
X250750000Y-133100000D03*
X246250000Y-133100000D03*
X250750000Y-133900000D03*
X246250000Y-133900000D03*
X250750000Y-134700000D03*
X246250000Y-134700000D03*
X250750000Y-135500000D03*
X246250000Y-135500000D03*
X250750000Y-136300000D03*
X246250000Y-136300000D03*
X250750000Y-137100000D03*
X246250000Y-137100000D03*
D11*
X247000000Y-88100000D03*
X247000000Y-138900000D03*
%TD*%
D10*
%TO.C,J402*%
X301250000Y-165650000D03*
X296750000Y-165650000D03*
X301250000Y-166450000D03*
X296750000Y-166450000D03*
X301250000Y-167250000D03*
X296750000Y-167250000D03*
X301250000Y-168050000D03*
X296750000Y-168050000D03*
X301250000Y-168850000D03*
X296750000Y-168850000D03*
X301250000Y-169650000D03*
X296750000Y-169650000D03*
X301250000Y-170450000D03*
X296750000Y-170450000D03*
X301250000Y-171250000D03*
X296750000Y-171250000D03*
X301250000Y-172050000D03*
X296750000Y-172050000D03*
X301250000Y-172850000D03*
X296750000Y-172850000D03*
X301250000Y-173650000D03*
X296750000Y-173650000D03*
X301250000Y-174450000D03*
X296750000Y-174450000D03*
X301250000Y-175250000D03*
X296750000Y-175250000D03*
X301250000Y-176050000D03*
X296750000Y-176050000D03*
X301250000Y-176850000D03*
X296750000Y-176850000D03*
X301250000Y-177650000D03*
X296750000Y-177650000D03*
X301250000Y-178450000D03*
X296750000Y-178450000D03*
X301250000Y-179250000D03*
X296750000Y-179250000D03*
X301250000Y-180050000D03*
X296750000Y-180050000D03*
X301250000Y-180850000D03*
X296750000Y-180850000D03*
X301250000Y-181650000D03*
X296750000Y-181650000D03*
X301250000Y-182450000D03*
X296750000Y-182450000D03*
X301250000Y-183250000D03*
X296750000Y-183250000D03*
X301250000Y-184050000D03*
X296750000Y-184050000D03*
X301250000Y-184850000D03*
X296750000Y-184850000D03*
X301250000Y-185650000D03*
X296750000Y-185650000D03*
X301250000Y-186450000D03*
X296750000Y-186450000D03*
X301250000Y-187250000D03*
X296750000Y-187250000D03*
X301250000Y-188050000D03*
X296750000Y-188050000D03*
X301250000Y-188850000D03*
X296750000Y-188850000D03*
X301250000Y-189650000D03*
X296750000Y-189650000D03*
X301250000Y-190450000D03*
X296750000Y-190450000D03*
X301250000Y-191250000D03*
X296750000Y-191250000D03*
X301250000Y-192050000D03*
X296750000Y-192050000D03*
X301250000Y-192850000D03*
X296750000Y-192850000D03*
X301250000Y-193650000D03*
X296750000Y-193650000D03*
X301250000Y-194450000D03*
X296750000Y-194450000D03*
X301250000Y-195250000D03*
X296750000Y-195250000D03*
X301250000Y-196050000D03*
X296750000Y-196050000D03*
X301250000Y-196850000D03*
X296750000Y-196850000D03*
X301250000Y-197650000D03*
X296750000Y-197650000D03*
X301250000Y-198450000D03*
X296750000Y-198450000D03*
X301250000Y-199250000D03*
X296750000Y-199250000D03*
X301250000Y-200050000D03*
X296750000Y-200050000D03*
X301250000Y-200850000D03*
X296750000Y-200850000D03*
X301250000Y-201650000D03*
X296750000Y-201650000D03*
X301250000Y-202450000D03*
X296750000Y-202450000D03*
X301250000Y-203250000D03*
X296750000Y-203250000D03*
X301250000Y-204050000D03*
X296750000Y-204050000D03*
X301250000Y-204850000D03*
X296750000Y-204850000D03*
X301250000Y-205650000D03*
X296750000Y-205650000D03*
X301250000Y-206450000D03*
X296750000Y-206450000D03*
X301250000Y-207250000D03*
X296750000Y-207250000D03*
X301250000Y-208050000D03*
X296750000Y-208050000D03*
X301250000Y-208850000D03*
X296750000Y-208850000D03*
X301250000Y-209650000D03*
X296750000Y-209650000D03*
X301250000Y-210450000D03*
X296750000Y-210450000D03*
X301250000Y-211250000D03*
X296750000Y-211250000D03*
X301250000Y-212050000D03*
X296750000Y-212050000D03*
X301250000Y-212850000D03*
X296750000Y-212850000D03*
D11*
X297500000Y-163850000D03*
X297500000Y-214650000D03*
%TD*%
%TO.C,J602*%
X297500000Y-290400000D03*
X297500000Y-239600000D03*
D10*
X296750000Y-288600000D03*
X301250000Y-288600000D03*
X296750000Y-287800000D03*
X301250000Y-287800000D03*
X296750000Y-287000000D03*
X301250000Y-287000000D03*
X296750000Y-286200000D03*
X301250000Y-286200000D03*
X296750000Y-285400000D03*
X301250000Y-285400000D03*
X296750000Y-284600000D03*
X301250000Y-284600000D03*
X296750000Y-283800000D03*
X301250000Y-283800000D03*
X296750000Y-283000000D03*
X301250000Y-283000000D03*
X296750000Y-282200000D03*
X301250000Y-282200000D03*
X296750000Y-281400000D03*
X301250000Y-281400000D03*
X296750000Y-280600000D03*
X301250000Y-280600000D03*
X296750000Y-279800000D03*
X301250000Y-279800000D03*
X296750000Y-279000000D03*
X301250000Y-279000000D03*
X296750000Y-278200000D03*
X301250000Y-278200000D03*
X296750000Y-277400000D03*
X301250000Y-277400000D03*
X296750000Y-276600000D03*
X301250000Y-276600000D03*
X296750000Y-275800000D03*
X301250000Y-275800000D03*
X296750000Y-275000000D03*
X301250000Y-275000000D03*
X296750000Y-274200000D03*
X301250000Y-274200000D03*
X296750000Y-273400000D03*
X301250000Y-273400000D03*
X296750000Y-272600000D03*
X301250000Y-272600000D03*
X296750000Y-271800000D03*
X301250000Y-271800000D03*
X296750000Y-271000000D03*
X301250000Y-271000000D03*
X296750000Y-270200000D03*
X301250000Y-270200000D03*
X296750000Y-269400000D03*
X301250000Y-269400000D03*
X296750000Y-268600000D03*
X301250000Y-268600000D03*
X296750000Y-267800000D03*
X301250000Y-267800000D03*
X296750000Y-267000000D03*
X301250000Y-267000000D03*
X296750000Y-266200000D03*
X301250000Y-266200000D03*
X296750000Y-265400000D03*
X301250000Y-265400000D03*
X296750000Y-264600000D03*
X301250000Y-264600000D03*
X296750000Y-263800000D03*
X301250000Y-263800000D03*
X296750000Y-263000000D03*
X301250000Y-263000000D03*
X296750000Y-262200000D03*
X301250000Y-262200000D03*
X296750000Y-261400000D03*
X301250000Y-261400000D03*
X296750000Y-260600000D03*
X301250000Y-260600000D03*
X296750000Y-259800000D03*
X301250000Y-259800000D03*
X296750000Y-259000000D03*
X301250000Y-259000000D03*
X296750000Y-258200000D03*
X301250000Y-258200000D03*
X296750000Y-257400000D03*
X301250000Y-257400000D03*
X296750000Y-256600000D03*
X301250000Y-256600000D03*
X296750000Y-255800000D03*
X301250000Y-255800000D03*
X296750000Y-255000000D03*
X301250000Y-255000000D03*
X296750000Y-254200000D03*
X301250000Y-254200000D03*
X296750000Y-253400000D03*
X301250000Y-253400000D03*
X296750000Y-252600000D03*
X301250000Y-252600000D03*
X296750000Y-251800000D03*
X301250000Y-251800000D03*
X296750000Y-251000000D03*
X301250000Y-251000000D03*
X296750000Y-250200000D03*
X301250000Y-250200000D03*
X296750000Y-249400000D03*
X301250000Y-249400000D03*
X296750000Y-248600000D03*
X301250000Y-248600000D03*
X296750000Y-247800000D03*
X301250000Y-247800000D03*
X296750000Y-247000000D03*
X301250000Y-247000000D03*
X296750000Y-246200000D03*
X301250000Y-246200000D03*
X296750000Y-245400000D03*
X301250000Y-245400000D03*
X296750000Y-244600000D03*
X301250000Y-244600000D03*
X296750000Y-243800000D03*
X301250000Y-243800000D03*
X296750000Y-243000000D03*
X301250000Y-243000000D03*
X296750000Y-242200000D03*
X301250000Y-242200000D03*
X296750000Y-241400000D03*
X301250000Y-241400000D03*
%TD*%
%TO.C,J2*%
X250750000Y-392900000D03*
X246250000Y-392900000D03*
X250750000Y-393700000D03*
X246250000Y-393700000D03*
X250750000Y-394500000D03*
X246250000Y-394500000D03*
X250750000Y-395300000D03*
X246250000Y-395300000D03*
X250750000Y-396100000D03*
X246250000Y-396100000D03*
X250750000Y-396900000D03*
X246250000Y-396900000D03*
X250750000Y-397700000D03*
X246250000Y-397700000D03*
X250750000Y-398500000D03*
X246250000Y-398500000D03*
X250750000Y-399300000D03*
X246250000Y-399300000D03*
X250750000Y-400100000D03*
X246250000Y-400100000D03*
X250750000Y-400900000D03*
X246250000Y-400900000D03*
X250750000Y-401700000D03*
X246250000Y-401700000D03*
X250750000Y-402500000D03*
X246250000Y-402500000D03*
X250750000Y-403300000D03*
X246250000Y-403300000D03*
X250750000Y-404100000D03*
X246250000Y-404100000D03*
X250750000Y-404900000D03*
X246250000Y-404900000D03*
X250750000Y-405700000D03*
X246250000Y-405700000D03*
X250750000Y-406500000D03*
X246250000Y-406500000D03*
X250750000Y-407300000D03*
X246250000Y-407300000D03*
X250750000Y-408100000D03*
X246250000Y-408100000D03*
X250750000Y-408900000D03*
X246250000Y-408900000D03*
X250750000Y-409700000D03*
X246250000Y-409700000D03*
X250750000Y-410500000D03*
X246250000Y-410500000D03*
X250750000Y-411300000D03*
X246250000Y-411300000D03*
X250750000Y-412100000D03*
X246250000Y-412100000D03*
X250750000Y-412900000D03*
X246250000Y-412900000D03*
X250750000Y-413700000D03*
X246250000Y-413700000D03*
X250750000Y-414500000D03*
X246250000Y-414500000D03*
X250750000Y-415300000D03*
X246250000Y-415300000D03*
X250750000Y-416100000D03*
X246250000Y-416100000D03*
X250750000Y-416900000D03*
X246250000Y-416900000D03*
X250750000Y-417700000D03*
X246250000Y-417700000D03*
X250750000Y-418500000D03*
X246250000Y-418500000D03*
X250750000Y-419300000D03*
X246250000Y-419300000D03*
X250750000Y-420100000D03*
X246250000Y-420100000D03*
X250750000Y-420900000D03*
X246250000Y-420900000D03*
X250750000Y-421700000D03*
X246250000Y-421700000D03*
X250750000Y-422500000D03*
X246250000Y-422500000D03*
X250750000Y-423300000D03*
X246250000Y-423300000D03*
X250750000Y-424100000D03*
X246250000Y-424100000D03*
X250750000Y-424900000D03*
X246250000Y-424900000D03*
X250750000Y-425700000D03*
X246250000Y-425700000D03*
X250750000Y-426500000D03*
X246250000Y-426500000D03*
X250750000Y-427300000D03*
X246250000Y-427300000D03*
X250750000Y-428100000D03*
X246250000Y-428100000D03*
X250750000Y-428900000D03*
X246250000Y-428900000D03*
X250750000Y-429700000D03*
X246250000Y-429700000D03*
X250750000Y-430500000D03*
X246250000Y-430500000D03*
X250750000Y-431300000D03*
X246250000Y-431300000D03*
X250750000Y-432100000D03*
X246250000Y-432100000D03*
X250750000Y-432900000D03*
X246250000Y-432900000D03*
X250750000Y-433700000D03*
X246250000Y-433700000D03*
X250750000Y-434500000D03*
X246250000Y-434500000D03*
X250750000Y-435300000D03*
X246250000Y-435300000D03*
X250750000Y-436100000D03*
X246250000Y-436100000D03*
X250750000Y-436900000D03*
X246250000Y-436900000D03*
X250750000Y-437700000D03*
X246250000Y-437700000D03*
X250750000Y-438500000D03*
X246250000Y-438500000D03*
X250750000Y-439300000D03*
X246250000Y-439300000D03*
X250750000Y-440100000D03*
X246250000Y-440100000D03*
D11*
X247000000Y-391100000D03*
X247000000Y-441900000D03*
%TD*%
%TO.C,J1*%
X247000000Y-366150000D03*
X247000000Y-315350000D03*
D10*
X246250000Y-364350000D03*
X250750000Y-364350000D03*
X246250000Y-363550000D03*
X250750000Y-363550000D03*
X246250000Y-362750000D03*
X250750000Y-362750000D03*
X246250000Y-361950000D03*
X250750000Y-361950000D03*
X246250000Y-361150000D03*
X250750000Y-361150000D03*
X246250000Y-360350000D03*
X250750000Y-360350000D03*
X246250000Y-359550000D03*
X250750000Y-359550000D03*
X246250000Y-358750000D03*
X250750000Y-358750000D03*
X246250000Y-357950000D03*
X250750000Y-357950000D03*
X246250000Y-357150000D03*
X250750000Y-357150000D03*
X246250000Y-356350000D03*
X250750000Y-356350000D03*
X246250000Y-355550000D03*
X250750000Y-355550000D03*
X246250000Y-354750000D03*
X250750000Y-354750000D03*
X246250000Y-353950000D03*
X250750000Y-353950000D03*
X246250000Y-353150000D03*
X250750000Y-353150000D03*
X246250000Y-352350000D03*
X250750000Y-352350000D03*
X246250000Y-351550000D03*
X250750000Y-351550000D03*
X246250000Y-350750000D03*
X250750000Y-350750000D03*
X246250000Y-349950000D03*
X250750000Y-349950000D03*
X246250000Y-349150000D03*
X250750000Y-349150000D03*
X246250000Y-348350000D03*
X250750000Y-348350000D03*
X246250000Y-347550000D03*
X250750000Y-347550000D03*
X246250000Y-346750000D03*
X250750000Y-346750000D03*
X246250000Y-345950000D03*
X250750000Y-345950000D03*
X246250000Y-345150000D03*
X250750000Y-345150000D03*
X246250000Y-344350000D03*
X250750000Y-344350000D03*
X246250000Y-343550000D03*
X250750000Y-343550000D03*
X246250000Y-342750000D03*
X250750000Y-342750000D03*
X246250000Y-341950000D03*
X250750000Y-341950000D03*
X246250000Y-341150000D03*
X250750000Y-341150000D03*
X246250000Y-340350000D03*
X250750000Y-340350000D03*
X246250000Y-339550000D03*
X250750000Y-339550000D03*
X246250000Y-338750000D03*
X250750000Y-338750000D03*
X246250000Y-337950000D03*
X250750000Y-337950000D03*
X246250000Y-337150000D03*
X250750000Y-337150000D03*
X246250000Y-336350000D03*
X250750000Y-336350000D03*
X246250000Y-335550000D03*
X250750000Y-335550000D03*
X246250000Y-334750000D03*
X250750000Y-334750000D03*
X246250000Y-333950000D03*
X250750000Y-333950000D03*
X246250000Y-333150000D03*
X250750000Y-333150000D03*
X246250000Y-332350000D03*
X250750000Y-332350000D03*
X246250000Y-331550000D03*
X250750000Y-331550000D03*
X246250000Y-330750000D03*
X250750000Y-330750000D03*
X246250000Y-329950000D03*
X250750000Y-329950000D03*
X246250000Y-329150000D03*
X250750000Y-329150000D03*
X246250000Y-328350000D03*
X250750000Y-328350000D03*
X246250000Y-327550000D03*
X250750000Y-327550000D03*
X246250000Y-326750000D03*
X250750000Y-326750000D03*
X246250000Y-325950000D03*
X250750000Y-325950000D03*
X246250000Y-325150000D03*
X250750000Y-325150000D03*
X246250000Y-324350000D03*
X250750000Y-324350000D03*
X246250000Y-323550000D03*
X250750000Y-323550000D03*
X246250000Y-322750000D03*
X250750000Y-322750000D03*
X246250000Y-321950000D03*
X250750000Y-321950000D03*
X246250000Y-321150000D03*
X250750000Y-321150000D03*
X246250000Y-320350000D03*
X250750000Y-320350000D03*
X246250000Y-319550000D03*
X250750000Y-319550000D03*
X246250000Y-318750000D03*
X250750000Y-318750000D03*
X246250000Y-317950000D03*
X250750000Y-317950000D03*
X246250000Y-317150000D03*
X250750000Y-317150000D03*
%TD*%
D11*
%TO.C,J2*%
X297500000Y-441900000D03*
X297500000Y-391100000D03*
D10*
X296750000Y-440100000D03*
X301250000Y-440100000D03*
X296750000Y-439300000D03*
X301250000Y-439300000D03*
X296750000Y-438500000D03*
X301250000Y-438500000D03*
X296750000Y-437700000D03*
X301250000Y-437700000D03*
X296750000Y-436900000D03*
X301250000Y-436900000D03*
X296750000Y-436100000D03*
X301250000Y-436100000D03*
X296750000Y-435300000D03*
X301250000Y-435300000D03*
X296750000Y-434500000D03*
X301250000Y-434500000D03*
X296750000Y-433700000D03*
X301250000Y-433700000D03*
X296750000Y-432900000D03*
X301250000Y-432900000D03*
X296750000Y-432100000D03*
X301250000Y-432100000D03*
X296750000Y-431300000D03*
X301250000Y-431300000D03*
X296750000Y-430500000D03*
X301250000Y-430500000D03*
X296750000Y-429700000D03*
X301250000Y-429700000D03*
X296750000Y-428900000D03*
X301250000Y-428900000D03*
X296750000Y-428100000D03*
X301250000Y-428100000D03*
X296750000Y-427300000D03*
X301250000Y-427300000D03*
X296750000Y-426500000D03*
X301250000Y-426500000D03*
X296750000Y-425700000D03*
X301250000Y-425700000D03*
X296750000Y-424900000D03*
X301250000Y-424900000D03*
X296750000Y-424100000D03*
X301250000Y-424100000D03*
X296750000Y-423300000D03*
X301250000Y-423300000D03*
X296750000Y-422500000D03*
X301250000Y-422500000D03*
X296750000Y-421700000D03*
X301250000Y-421700000D03*
X296750000Y-420900000D03*
X301250000Y-420900000D03*
X296750000Y-420100000D03*
X301250000Y-420100000D03*
X296750000Y-419300000D03*
X301250000Y-419300000D03*
X296750000Y-418500000D03*
X301250000Y-418500000D03*
X296750000Y-417700000D03*
X301250000Y-417700000D03*
X296750000Y-416900000D03*
X301250000Y-416900000D03*
X296750000Y-416100000D03*
X301250000Y-416100000D03*
X296750000Y-415300000D03*
X301250000Y-415300000D03*
X296750000Y-414500000D03*
X301250000Y-414500000D03*
X296750000Y-413700000D03*
X301250000Y-413700000D03*
X296750000Y-412900000D03*
X301250000Y-412900000D03*
X296750000Y-412100000D03*
X301250000Y-412100000D03*
X296750000Y-411300000D03*
X301250000Y-411300000D03*
X296750000Y-410500000D03*
X301250000Y-410500000D03*
X296750000Y-409700000D03*
X301250000Y-409700000D03*
X296750000Y-408900000D03*
X301250000Y-408900000D03*
X296750000Y-408100000D03*
X301250000Y-408100000D03*
X296750000Y-407300000D03*
X301250000Y-407300000D03*
X296750000Y-406500000D03*
X301250000Y-406500000D03*
X296750000Y-405700000D03*
X301250000Y-405700000D03*
X296750000Y-404900000D03*
X301250000Y-404900000D03*
X296750000Y-404100000D03*
X301250000Y-404100000D03*
X296750000Y-403300000D03*
X301250000Y-403300000D03*
X296750000Y-402500000D03*
X301250000Y-402500000D03*
X296750000Y-401700000D03*
X301250000Y-401700000D03*
X296750000Y-400900000D03*
X301250000Y-400900000D03*
X296750000Y-400100000D03*
X301250000Y-400100000D03*
X296750000Y-399300000D03*
X301250000Y-399300000D03*
X296750000Y-398500000D03*
X301250000Y-398500000D03*
X296750000Y-397700000D03*
X301250000Y-397700000D03*
X296750000Y-396900000D03*
X301250000Y-396900000D03*
X296750000Y-396100000D03*
X301250000Y-396100000D03*
X296750000Y-395300000D03*
X301250000Y-395300000D03*
X296750000Y-394500000D03*
X301250000Y-394500000D03*
X296750000Y-393700000D03*
X301250000Y-393700000D03*
X296750000Y-392900000D03*
X301250000Y-392900000D03*
%TD*%
%TO.C,J1*%
X301250000Y-317150000D03*
X296750000Y-317150000D03*
X301250000Y-317950000D03*
X296750000Y-317950000D03*
X301250000Y-318750000D03*
X296750000Y-318750000D03*
X301250000Y-319550000D03*
X296750000Y-319550000D03*
X301250000Y-320350000D03*
X296750000Y-320350000D03*
X301250000Y-321150000D03*
X296750000Y-321150000D03*
X301250000Y-321950000D03*
X296750000Y-321950000D03*
X301250000Y-322750000D03*
X296750000Y-322750000D03*
X301250000Y-323550000D03*
X296750000Y-323550000D03*
X301250000Y-324350000D03*
X296750000Y-324350000D03*
X301250000Y-325150000D03*
X296750000Y-325150000D03*
X301250000Y-325950000D03*
X296750000Y-325950000D03*
X301250000Y-326750000D03*
X296750000Y-326750000D03*
X301250000Y-327550000D03*
X296750000Y-327550000D03*
X301250000Y-328350000D03*
X296750000Y-328350000D03*
X301250000Y-329150000D03*
X296750000Y-329150000D03*
X301250000Y-329950000D03*
X296750000Y-329950000D03*
X301250000Y-330750000D03*
X296750000Y-330750000D03*
X301250000Y-331550000D03*
X296750000Y-331550000D03*
X301250000Y-332350000D03*
X296750000Y-332350000D03*
X301250000Y-333150000D03*
X296750000Y-333150000D03*
X301250000Y-333950000D03*
X296750000Y-333950000D03*
X301250000Y-334750000D03*
X296750000Y-334750000D03*
X301250000Y-335550000D03*
X296750000Y-335550000D03*
X301250000Y-336350000D03*
X296750000Y-336350000D03*
X301250000Y-337150000D03*
X296750000Y-337150000D03*
X301250000Y-337950000D03*
X296750000Y-337950000D03*
X301250000Y-338750000D03*
X296750000Y-338750000D03*
X301250000Y-339550000D03*
X296750000Y-339550000D03*
X301250000Y-340350000D03*
X296750000Y-340350000D03*
X301250000Y-341150000D03*
X296750000Y-341150000D03*
X301250000Y-341950000D03*
X296750000Y-341950000D03*
X301250000Y-342750000D03*
X296750000Y-342750000D03*
X301250000Y-343550000D03*
X296750000Y-343550000D03*
X301250000Y-344350000D03*
X296750000Y-344350000D03*
X301250000Y-345150000D03*
X296750000Y-345150000D03*
X301250000Y-345950000D03*
X296750000Y-345950000D03*
X301250000Y-346750000D03*
X296750000Y-346750000D03*
X301250000Y-347550000D03*
X296750000Y-347550000D03*
X301250000Y-348350000D03*
X296750000Y-348350000D03*
X301250000Y-349150000D03*
X296750000Y-349150000D03*
X301250000Y-349950000D03*
X296750000Y-349950000D03*
X301250000Y-350750000D03*
X296750000Y-350750000D03*
X301250000Y-351550000D03*
X296750000Y-351550000D03*
X301250000Y-352350000D03*
X296750000Y-352350000D03*
X301250000Y-353150000D03*
X296750000Y-353150000D03*
X301250000Y-353950000D03*
X296750000Y-353950000D03*
X301250000Y-354750000D03*
X296750000Y-354750000D03*
X301250000Y-355550000D03*
X296750000Y-355550000D03*
X301250000Y-356350000D03*
X296750000Y-356350000D03*
X301250000Y-357150000D03*
X296750000Y-357150000D03*
X301250000Y-357950000D03*
X296750000Y-357950000D03*
X301250000Y-358750000D03*
X296750000Y-358750000D03*
X301250000Y-359550000D03*
X296750000Y-359550000D03*
X301250000Y-360350000D03*
X296750000Y-360350000D03*
X301250000Y-361150000D03*
X296750000Y-361150000D03*
X301250000Y-361950000D03*
X296750000Y-361950000D03*
X301250000Y-362750000D03*
X296750000Y-362750000D03*
X301250000Y-363550000D03*
X296750000Y-363550000D03*
X301250000Y-364350000D03*
X296750000Y-364350000D03*
D11*
X297500000Y-315350000D03*
X297500000Y-366150000D03*
%TD*%
%TO.C,J402*%
X196500000Y-214650000D03*
X196500000Y-163850000D03*
D10*
X195750000Y-212850000D03*
X200250000Y-212850000D03*
X195750000Y-212050000D03*
X200250000Y-212050000D03*
X195750000Y-211250000D03*
X200250000Y-211250000D03*
X195750000Y-210450000D03*
X200250000Y-210450000D03*
X195750000Y-209650000D03*
X200250000Y-209650000D03*
X195750000Y-208850000D03*
X200250000Y-208850000D03*
X195750000Y-208050000D03*
X200250000Y-208050000D03*
X195750000Y-207250000D03*
X200250000Y-207250000D03*
X195750000Y-206450000D03*
X200250000Y-206450000D03*
X195750000Y-205650000D03*
X200250000Y-205650000D03*
X195750000Y-204850000D03*
X200250000Y-204850000D03*
X195750000Y-204050000D03*
X200250000Y-204050000D03*
X195750000Y-203250000D03*
X200250000Y-203250000D03*
X195750000Y-202450000D03*
X200250000Y-202450000D03*
X195750000Y-201650000D03*
X200250000Y-201650000D03*
X195750000Y-200850000D03*
X200250000Y-200850000D03*
X195750000Y-200050000D03*
X200250000Y-200050000D03*
X195750000Y-199250000D03*
X200250000Y-199250000D03*
X195750000Y-198450000D03*
X200250000Y-198450000D03*
X195750000Y-197650000D03*
X200250000Y-197650000D03*
X195750000Y-196850000D03*
X200250000Y-196850000D03*
X195750000Y-196050000D03*
X200250000Y-196050000D03*
X195750000Y-195250000D03*
X200250000Y-195250000D03*
X195750000Y-194450000D03*
X200250000Y-194450000D03*
X195750000Y-193650000D03*
X200250000Y-193650000D03*
X195750000Y-192850000D03*
X200250000Y-192850000D03*
X195750000Y-192050000D03*
X200250000Y-192050000D03*
X195750000Y-191250000D03*
X200250000Y-191250000D03*
X195750000Y-190450000D03*
X200250000Y-190450000D03*
X195750000Y-189650000D03*
X200250000Y-189650000D03*
X195750000Y-188850000D03*
X200250000Y-188850000D03*
X195750000Y-188050000D03*
X200250000Y-188050000D03*
X195750000Y-187250000D03*
X200250000Y-187250000D03*
X195750000Y-186450000D03*
X200250000Y-186450000D03*
X195750000Y-185650000D03*
X200250000Y-185650000D03*
X195750000Y-184850000D03*
X200250000Y-184850000D03*
X195750000Y-184050000D03*
X200250000Y-184050000D03*
X195750000Y-183250000D03*
X200250000Y-183250000D03*
X195750000Y-182450000D03*
X200250000Y-182450000D03*
X195750000Y-181650000D03*
X200250000Y-181650000D03*
X195750000Y-180850000D03*
X200250000Y-180850000D03*
X195750000Y-180050000D03*
X200250000Y-180050000D03*
X195750000Y-179250000D03*
X200250000Y-179250000D03*
X195750000Y-178450000D03*
X200250000Y-178450000D03*
X195750000Y-177650000D03*
X200250000Y-177650000D03*
X195750000Y-176850000D03*
X200250000Y-176850000D03*
X195750000Y-176050000D03*
X200250000Y-176050000D03*
X195750000Y-175250000D03*
X200250000Y-175250000D03*
X195750000Y-174450000D03*
X200250000Y-174450000D03*
X195750000Y-173650000D03*
X200250000Y-173650000D03*
X195750000Y-172850000D03*
X200250000Y-172850000D03*
X195750000Y-172050000D03*
X200250000Y-172050000D03*
X195750000Y-171250000D03*
X200250000Y-171250000D03*
X195750000Y-170450000D03*
X200250000Y-170450000D03*
X195750000Y-169650000D03*
X200250000Y-169650000D03*
X195750000Y-168850000D03*
X200250000Y-168850000D03*
X195750000Y-168050000D03*
X200250000Y-168050000D03*
X195750000Y-167250000D03*
X200250000Y-167250000D03*
X195750000Y-166450000D03*
X200250000Y-166450000D03*
X195750000Y-165650000D03*
X200250000Y-165650000D03*
%TD*%
%TO.C,J602*%
X200250000Y-241400000D03*
X195750000Y-241400000D03*
X200250000Y-242200000D03*
X195750000Y-242200000D03*
X200250000Y-243000000D03*
X195750000Y-243000000D03*
X200250000Y-243800000D03*
X195750000Y-243800000D03*
X200250000Y-244600000D03*
X195750000Y-244600000D03*
X200250000Y-245400000D03*
X195750000Y-245400000D03*
X200250000Y-246200000D03*
X195750000Y-246200000D03*
X200250000Y-247000000D03*
X195750000Y-247000000D03*
X200250000Y-247800000D03*
X195750000Y-247800000D03*
X200250000Y-248600000D03*
X195750000Y-248600000D03*
X200250000Y-249400000D03*
X195750000Y-249400000D03*
X200250000Y-250200000D03*
X195750000Y-250200000D03*
X200250000Y-251000000D03*
X195750000Y-251000000D03*
X200250000Y-251800000D03*
X195750000Y-251800000D03*
X200250000Y-252600000D03*
X195750000Y-252600000D03*
X200250000Y-253400000D03*
X195750000Y-253400000D03*
X200250000Y-254200000D03*
X195750000Y-254200000D03*
X200250000Y-255000000D03*
X195750000Y-255000000D03*
X200250000Y-255800000D03*
X195750000Y-255800000D03*
X200250000Y-256600000D03*
X195750000Y-256600000D03*
X200250000Y-257400000D03*
X195750000Y-257400000D03*
X200250000Y-258200000D03*
X195750000Y-258200000D03*
X200250000Y-259000000D03*
X195750000Y-259000000D03*
X200250000Y-259800000D03*
X195750000Y-259800000D03*
X200250000Y-260600000D03*
X195750000Y-260600000D03*
X200250000Y-261400000D03*
X195750000Y-261400000D03*
X200250000Y-262200000D03*
X195750000Y-262200000D03*
X200250000Y-263000000D03*
X195750000Y-263000000D03*
X200250000Y-263800000D03*
X195750000Y-263800000D03*
X200250000Y-264600000D03*
X195750000Y-264600000D03*
X200250000Y-265400000D03*
X195750000Y-265400000D03*
X200250000Y-266200000D03*
X195750000Y-266200000D03*
X200250000Y-267000000D03*
X195750000Y-267000000D03*
X200250000Y-267800000D03*
X195750000Y-267800000D03*
X200250000Y-268600000D03*
X195750000Y-268600000D03*
X200250000Y-269400000D03*
X195750000Y-269400000D03*
X200250000Y-270200000D03*
X195750000Y-270200000D03*
X200250000Y-271000000D03*
X195750000Y-271000000D03*
X200250000Y-271800000D03*
X195750000Y-271800000D03*
X200250000Y-272600000D03*
X195750000Y-272600000D03*
X200250000Y-273400000D03*
X195750000Y-273400000D03*
X200250000Y-274200000D03*
X195750000Y-274200000D03*
X200250000Y-275000000D03*
X195750000Y-275000000D03*
X200250000Y-275800000D03*
X195750000Y-275800000D03*
X200250000Y-276600000D03*
X195750000Y-276600000D03*
X200250000Y-277400000D03*
X195750000Y-277400000D03*
X200250000Y-278200000D03*
X195750000Y-278200000D03*
X200250000Y-279000000D03*
X195750000Y-279000000D03*
X200250000Y-279800000D03*
X195750000Y-279800000D03*
X200250000Y-280600000D03*
X195750000Y-280600000D03*
X200250000Y-281400000D03*
X195750000Y-281400000D03*
X200250000Y-282200000D03*
X195750000Y-282200000D03*
X200250000Y-283000000D03*
X195750000Y-283000000D03*
X200250000Y-283800000D03*
X195750000Y-283800000D03*
X200250000Y-284600000D03*
X195750000Y-284600000D03*
X200250000Y-285400000D03*
X195750000Y-285400000D03*
X200250000Y-286200000D03*
X195750000Y-286200000D03*
X200250000Y-287000000D03*
X195750000Y-287000000D03*
X200250000Y-287800000D03*
X195750000Y-287800000D03*
X200250000Y-288600000D03*
X195750000Y-288600000D03*
D11*
X196500000Y-239600000D03*
X196500000Y-290400000D03*
%TD*%
%TO.C,J102*%
X196500000Y-63150000D03*
X196500000Y-12350000D03*
D10*
X195750000Y-61350000D03*
X200250000Y-61350000D03*
X195750000Y-60550000D03*
X200250000Y-60550000D03*
X195750000Y-59750000D03*
X200250000Y-59750000D03*
X195750000Y-58950000D03*
X200250000Y-58950000D03*
X195750000Y-58150000D03*
X200250000Y-58150000D03*
X195750000Y-57350000D03*
X200250000Y-57350000D03*
X195750000Y-56550000D03*
X200250000Y-56550000D03*
X195750000Y-55750000D03*
X200250000Y-55750000D03*
X195750000Y-54950000D03*
X200250000Y-54950000D03*
X195750000Y-54150000D03*
X200250000Y-54150000D03*
X195750000Y-53350000D03*
X200250000Y-53350000D03*
X195750000Y-52550000D03*
X200250000Y-52550000D03*
X195750000Y-51750000D03*
X200250000Y-51750000D03*
X195750000Y-50950000D03*
X200250000Y-50950000D03*
X195750000Y-50150000D03*
X200250000Y-50150000D03*
X195750000Y-49350000D03*
X200250000Y-49350000D03*
X195750000Y-48550000D03*
X200250000Y-48550000D03*
X195750000Y-47750000D03*
X200250000Y-47750000D03*
X195750000Y-46950000D03*
X200250000Y-46950000D03*
X195750000Y-46150000D03*
X200250000Y-46150000D03*
X195750000Y-45350000D03*
X200250000Y-45350000D03*
X195750000Y-44550000D03*
X200250000Y-44550000D03*
X195750000Y-43750000D03*
X200250000Y-43750000D03*
X195750000Y-42950000D03*
X200250000Y-42950000D03*
X195750000Y-42150000D03*
X200250000Y-42150000D03*
X195750000Y-41350000D03*
X200250000Y-41350000D03*
X195750000Y-40550000D03*
X200250000Y-40550000D03*
X195750000Y-39750000D03*
X200250000Y-39750000D03*
X195750000Y-38950000D03*
X200250000Y-38950000D03*
X195750000Y-38150000D03*
X200250000Y-38150000D03*
X195750000Y-37350000D03*
X200250000Y-37350000D03*
X195750000Y-36550000D03*
X200250000Y-36550000D03*
X195750000Y-35750000D03*
X200250000Y-35750000D03*
X195750000Y-34950000D03*
X200250000Y-34950000D03*
X195750000Y-34150000D03*
X200250000Y-34150000D03*
X195750000Y-33350000D03*
X200250000Y-33350000D03*
X195750000Y-32550000D03*
X200250000Y-32550000D03*
X195750000Y-31750000D03*
X200250000Y-31750000D03*
X195750000Y-30950000D03*
X200250000Y-30950000D03*
X195750000Y-30150000D03*
X200250000Y-30150000D03*
X195750000Y-29350000D03*
X200250000Y-29350000D03*
X195750000Y-28550000D03*
X200250000Y-28550000D03*
X195750000Y-27750000D03*
X200250000Y-27750000D03*
X195750000Y-26950000D03*
X200250000Y-26950000D03*
X195750000Y-26150000D03*
X200250000Y-26150000D03*
X195750000Y-25350000D03*
X200250000Y-25350000D03*
X195750000Y-24550000D03*
X200250000Y-24550000D03*
X195750000Y-23750000D03*
X200250000Y-23750000D03*
X195750000Y-22950000D03*
X200250000Y-22950000D03*
X195750000Y-22150000D03*
X200250000Y-22150000D03*
X195750000Y-21350000D03*
X200250000Y-21350000D03*
X195750000Y-20550000D03*
X200250000Y-20550000D03*
X195750000Y-19750000D03*
X200250000Y-19750000D03*
X195750000Y-18950000D03*
X200250000Y-18950000D03*
X195750000Y-18150000D03*
X200250000Y-18150000D03*
X195750000Y-17350000D03*
X200250000Y-17350000D03*
X195750000Y-16550000D03*
X200250000Y-16550000D03*
X195750000Y-15750000D03*
X200250000Y-15750000D03*
X195750000Y-14950000D03*
X200250000Y-14950000D03*
X195750000Y-14150000D03*
X200250000Y-14150000D03*
%TD*%
%TO.C,J302*%
X200250000Y-89900000D03*
X195750000Y-89900000D03*
X200250000Y-90700000D03*
X195750000Y-90700000D03*
X200250000Y-91500000D03*
X195750000Y-91500000D03*
X200250000Y-92300000D03*
X195750000Y-92300000D03*
X200250000Y-93100000D03*
X195750000Y-93100000D03*
X200250000Y-93900000D03*
X195750000Y-93900000D03*
X200250000Y-94700000D03*
X195750000Y-94700000D03*
X200250000Y-95500000D03*
X195750000Y-95500000D03*
X200250000Y-96300000D03*
X195750000Y-96300000D03*
X200250000Y-97100000D03*
X195750000Y-97100000D03*
X200250000Y-97900000D03*
X195750000Y-97900000D03*
X200250000Y-98700000D03*
X195750000Y-98700000D03*
X200250000Y-99500000D03*
X195750000Y-99500000D03*
X200250000Y-100300000D03*
X195750000Y-100300000D03*
X200250000Y-101100000D03*
X195750000Y-101100000D03*
X200250000Y-101900000D03*
X195750000Y-101900000D03*
X200250000Y-102700000D03*
X195750000Y-102700000D03*
X200250000Y-103500000D03*
X195750000Y-103500000D03*
X200250000Y-104300000D03*
X195750000Y-104300000D03*
X200250000Y-105100000D03*
X195750000Y-105100000D03*
X200250000Y-105900000D03*
X195750000Y-105900000D03*
X200250000Y-106700000D03*
X195750000Y-106700000D03*
X200250000Y-107500000D03*
X195750000Y-107500000D03*
X200250000Y-108300000D03*
X195750000Y-108300000D03*
X200250000Y-109100000D03*
X195750000Y-109100000D03*
X200250000Y-109900000D03*
X195750000Y-109900000D03*
X200250000Y-110700000D03*
X195750000Y-110700000D03*
X200250000Y-111500000D03*
X195750000Y-111500000D03*
X200250000Y-112300000D03*
X195750000Y-112300000D03*
X200250000Y-113100000D03*
X195750000Y-113100000D03*
X200250000Y-113900000D03*
X195750000Y-113900000D03*
X200250000Y-114700000D03*
X195750000Y-114700000D03*
X200250000Y-115500000D03*
X195750000Y-115500000D03*
X200250000Y-116300000D03*
X195750000Y-116300000D03*
X200250000Y-117100000D03*
X195750000Y-117100000D03*
X200250000Y-117900000D03*
X195750000Y-117900000D03*
X200250000Y-118700000D03*
X195750000Y-118700000D03*
X200250000Y-119500000D03*
X195750000Y-119500000D03*
X200250000Y-120300000D03*
X195750000Y-120300000D03*
X200250000Y-121100000D03*
X195750000Y-121100000D03*
X200250000Y-121900000D03*
X195750000Y-121900000D03*
X200250000Y-122700000D03*
X195750000Y-122700000D03*
X200250000Y-123500000D03*
X195750000Y-123500000D03*
X200250000Y-124300000D03*
X195750000Y-124300000D03*
X200250000Y-125100000D03*
X195750000Y-125100000D03*
X200250000Y-125900000D03*
X195750000Y-125900000D03*
X200250000Y-126700000D03*
X195750000Y-126700000D03*
X200250000Y-127500000D03*
X195750000Y-127500000D03*
X200250000Y-128300000D03*
X195750000Y-128300000D03*
X200250000Y-129100000D03*
X195750000Y-129100000D03*
X200250000Y-129900000D03*
X195750000Y-129900000D03*
X200250000Y-130700000D03*
X195750000Y-130700000D03*
X200250000Y-131500000D03*
X195750000Y-131500000D03*
X200250000Y-132300000D03*
X195750000Y-132300000D03*
X200250000Y-133100000D03*
X195750000Y-133100000D03*
X200250000Y-133900000D03*
X195750000Y-133900000D03*
X200250000Y-134700000D03*
X195750000Y-134700000D03*
X200250000Y-135500000D03*
X195750000Y-135500000D03*
X200250000Y-136300000D03*
X195750000Y-136300000D03*
X200250000Y-137100000D03*
X195750000Y-137100000D03*
D11*
X196500000Y-88100000D03*
X196500000Y-138900000D03*
%TD*%
D10*
%TO.C,J2*%
X200250000Y-392900000D03*
X195750000Y-392900000D03*
X200250000Y-393700000D03*
X195750000Y-393700000D03*
X200250000Y-394500000D03*
X195750000Y-394500000D03*
X200250000Y-395300000D03*
X195750000Y-395300000D03*
X200250000Y-396100000D03*
X195750000Y-396100000D03*
X200250000Y-396900000D03*
X195750000Y-396900000D03*
X200250000Y-397700000D03*
X195750000Y-397700000D03*
X200250000Y-398500000D03*
X195750000Y-398500000D03*
X200250000Y-399300000D03*
X195750000Y-399300000D03*
X200250000Y-400100000D03*
X195750000Y-400100000D03*
X200250000Y-400900000D03*
X195750000Y-400900000D03*
X200250000Y-401700000D03*
X195750000Y-401700000D03*
X200250000Y-402500000D03*
X195750000Y-402500000D03*
X200250000Y-403300000D03*
X195750000Y-403300000D03*
X200250000Y-404100000D03*
X195750000Y-404100000D03*
X200250000Y-404900000D03*
X195750000Y-404900000D03*
X200250000Y-405700000D03*
X195750000Y-405700000D03*
X200250000Y-406500000D03*
X195750000Y-406500000D03*
X200250000Y-407300000D03*
X195750000Y-407300000D03*
X200250000Y-408100000D03*
X195750000Y-408100000D03*
X200250000Y-408900000D03*
X195750000Y-408900000D03*
X200250000Y-409700000D03*
X195750000Y-409700000D03*
X200250000Y-410500000D03*
X195750000Y-410500000D03*
X200250000Y-411300000D03*
X195750000Y-411300000D03*
X200250000Y-412100000D03*
X195750000Y-412100000D03*
X200250000Y-412900000D03*
X195750000Y-412900000D03*
X200250000Y-413700000D03*
X195750000Y-413700000D03*
X200250000Y-414500000D03*
X195750000Y-414500000D03*
X200250000Y-415300000D03*
X195750000Y-415300000D03*
X200250000Y-416100000D03*
X195750000Y-416100000D03*
X200250000Y-416900000D03*
X195750000Y-416900000D03*
X200250000Y-417700000D03*
X195750000Y-417700000D03*
X200250000Y-418500000D03*
X195750000Y-418500000D03*
X200250000Y-419300000D03*
X195750000Y-419300000D03*
X200250000Y-420100000D03*
X195750000Y-420100000D03*
X200250000Y-420900000D03*
X195750000Y-420900000D03*
X200250000Y-421700000D03*
X195750000Y-421700000D03*
X200250000Y-422500000D03*
X195750000Y-422500000D03*
X200250000Y-423300000D03*
X195750000Y-423300000D03*
X200250000Y-424100000D03*
X195750000Y-424100000D03*
X200250000Y-424900000D03*
X195750000Y-424900000D03*
X200250000Y-425700000D03*
X195750000Y-425700000D03*
X200250000Y-426500000D03*
X195750000Y-426500000D03*
X200250000Y-427300000D03*
X195750000Y-427300000D03*
X200250000Y-428100000D03*
X195750000Y-428100000D03*
X200250000Y-428900000D03*
X195750000Y-428900000D03*
X200250000Y-429700000D03*
X195750000Y-429700000D03*
X200250000Y-430500000D03*
X195750000Y-430500000D03*
X200250000Y-431300000D03*
X195750000Y-431300000D03*
X200250000Y-432100000D03*
X195750000Y-432100000D03*
X200250000Y-432900000D03*
X195750000Y-432900000D03*
X200250000Y-433700000D03*
X195750000Y-433700000D03*
X200250000Y-434500000D03*
X195750000Y-434500000D03*
X200250000Y-435300000D03*
X195750000Y-435300000D03*
X200250000Y-436100000D03*
X195750000Y-436100000D03*
X200250000Y-436900000D03*
X195750000Y-436900000D03*
X200250000Y-437700000D03*
X195750000Y-437700000D03*
X200250000Y-438500000D03*
X195750000Y-438500000D03*
X200250000Y-439300000D03*
X195750000Y-439300000D03*
X200250000Y-440100000D03*
X195750000Y-440100000D03*
D11*
X196500000Y-391100000D03*
X196500000Y-441900000D03*
%TD*%
%TO.C,J1*%
X196500000Y-366150000D03*
X196500000Y-315350000D03*
D10*
X195750000Y-364350000D03*
X200250000Y-364350000D03*
X195750000Y-363550000D03*
X200250000Y-363550000D03*
X195750000Y-362750000D03*
X200250000Y-362750000D03*
X195750000Y-361950000D03*
X200250000Y-361950000D03*
X195750000Y-361150000D03*
X200250000Y-361150000D03*
X195750000Y-360350000D03*
X200250000Y-360350000D03*
X195750000Y-359550000D03*
X200250000Y-359550000D03*
X195750000Y-358750000D03*
X200250000Y-358750000D03*
X195750000Y-357950000D03*
X200250000Y-357950000D03*
X195750000Y-357150000D03*
X200250000Y-357150000D03*
X195750000Y-356350000D03*
X200250000Y-356350000D03*
X195750000Y-355550000D03*
X200250000Y-355550000D03*
X195750000Y-354750000D03*
X200250000Y-354750000D03*
X195750000Y-353950000D03*
X200250000Y-353950000D03*
X195750000Y-353150000D03*
X200250000Y-353150000D03*
X195750000Y-352350000D03*
X200250000Y-352350000D03*
X195750000Y-351550000D03*
X200250000Y-351550000D03*
X195750000Y-350750000D03*
X200250000Y-350750000D03*
X195750000Y-349950000D03*
X200250000Y-349950000D03*
X195750000Y-349150000D03*
X200250000Y-349150000D03*
X195750000Y-348350000D03*
X200250000Y-348350000D03*
X195750000Y-347550000D03*
X200250000Y-347550000D03*
X195750000Y-346750000D03*
X200250000Y-346750000D03*
X195750000Y-345950000D03*
X200250000Y-345950000D03*
X195750000Y-345150000D03*
X200250000Y-345150000D03*
X195750000Y-344350000D03*
X200250000Y-344350000D03*
X195750000Y-343550000D03*
X200250000Y-343550000D03*
X195750000Y-342750000D03*
X200250000Y-342750000D03*
X195750000Y-341950000D03*
X200250000Y-341950000D03*
X195750000Y-341150000D03*
X200250000Y-341150000D03*
X195750000Y-340350000D03*
X200250000Y-340350000D03*
X195750000Y-339550000D03*
X200250000Y-339550000D03*
X195750000Y-338750000D03*
X200250000Y-338750000D03*
X195750000Y-337950000D03*
X200250000Y-337950000D03*
X195750000Y-337150000D03*
X200250000Y-337150000D03*
X195750000Y-336350000D03*
X200250000Y-336350000D03*
X195750000Y-335550000D03*
X200250000Y-335550000D03*
X195750000Y-334750000D03*
X200250000Y-334750000D03*
X195750000Y-333950000D03*
X200250000Y-333950000D03*
X195750000Y-333150000D03*
X200250000Y-333150000D03*
X195750000Y-332350000D03*
X200250000Y-332350000D03*
X195750000Y-331550000D03*
X200250000Y-331550000D03*
X195750000Y-330750000D03*
X200250000Y-330750000D03*
X195750000Y-329950000D03*
X200250000Y-329950000D03*
X195750000Y-329150000D03*
X200250000Y-329150000D03*
X195750000Y-328350000D03*
X200250000Y-328350000D03*
X195750000Y-327550000D03*
X200250000Y-327550000D03*
X195750000Y-326750000D03*
X200250000Y-326750000D03*
X195750000Y-325950000D03*
X200250000Y-325950000D03*
X195750000Y-325150000D03*
X200250000Y-325150000D03*
X195750000Y-324350000D03*
X200250000Y-324350000D03*
X195750000Y-323550000D03*
X200250000Y-323550000D03*
X195750000Y-322750000D03*
X200250000Y-322750000D03*
X195750000Y-321950000D03*
X200250000Y-321950000D03*
X195750000Y-321150000D03*
X200250000Y-321150000D03*
X195750000Y-320350000D03*
X200250000Y-320350000D03*
X195750000Y-319550000D03*
X200250000Y-319550000D03*
X195750000Y-318750000D03*
X200250000Y-318750000D03*
X195750000Y-317950000D03*
X200250000Y-317950000D03*
X195750000Y-317150000D03*
X200250000Y-317150000D03*
%TD*%
D11*
%TO.C,J2*%
X146000000Y-441900000D03*
X146000000Y-391100000D03*
D10*
X145250000Y-440100000D03*
X149750000Y-440100000D03*
X145250000Y-439300000D03*
X149750000Y-439300000D03*
X145250000Y-438500000D03*
X149750000Y-438500000D03*
X145250000Y-437700000D03*
X149750000Y-437700000D03*
X145250000Y-436900000D03*
X149750000Y-436900000D03*
X145250000Y-436100000D03*
X149750000Y-436100000D03*
X145250000Y-435300000D03*
X149750000Y-435300000D03*
X145250000Y-434500000D03*
X149750000Y-434500000D03*
X145250000Y-433700000D03*
X149750000Y-433700000D03*
X145250000Y-432900000D03*
X149750000Y-432900000D03*
X145250000Y-432100000D03*
X149750000Y-432100000D03*
X145250000Y-431300000D03*
X149750000Y-431300000D03*
X145250000Y-430500000D03*
X149750000Y-430500000D03*
X145250000Y-429700000D03*
X149750000Y-429700000D03*
X145250000Y-428900000D03*
X149750000Y-428900000D03*
X145250000Y-428100000D03*
X149750000Y-428100000D03*
X145250000Y-427300000D03*
X149750000Y-427300000D03*
X145250000Y-426500000D03*
X149750000Y-426500000D03*
X145250000Y-425700000D03*
X149750000Y-425700000D03*
X145250000Y-424900000D03*
X149750000Y-424900000D03*
X145250000Y-424100000D03*
X149750000Y-424100000D03*
X145250000Y-423300000D03*
X149750000Y-423300000D03*
X145250000Y-422500000D03*
X149750000Y-422500000D03*
X145250000Y-421700000D03*
X149750000Y-421700000D03*
X145250000Y-420900000D03*
X149750000Y-420900000D03*
X145250000Y-420100000D03*
X149750000Y-420100000D03*
X145250000Y-419300000D03*
X149750000Y-419300000D03*
X145250000Y-418500000D03*
X149750000Y-418500000D03*
X145250000Y-417700000D03*
X149750000Y-417700000D03*
X145250000Y-416900000D03*
X149750000Y-416900000D03*
X145250000Y-416100000D03*
X149750000Y-416100000D03*
X145250000Y-415300000D03*
X149750000Y-415300000D03*
X145250000Y-414500000D03*
X149750000Y-414500000D03*
X145250000Y-413700000D03*
X149750000Y-413700000D03*
X145250000Y-412900000D03*
X149750000Y-412900000D03*
X145250000Y-412100000D03*
X149750000Y-412100000D03*
X145250000Y-411300000D03*
X149750000Y-411300000D03*
X145250000Y-410500000D03*
X149750000Y-410500000D03*
X145250000Y-409700000D03*
X149750000Y-409700000D03*
X145250000Y-408900000D03*
X149750000Y-408900000D03*
X145250000Y-408100000D03*
X149750000Y-408100000D03*
X145250000Y-407300000D03*
X149750000Y-407300000D03*
X145250000Y-406500000D03*
X149750000Y-406500000D03*
X145250000Y-405700000D03*
X149750000Y-405700000D03*
X145250000Y-404900000D03*
X149750000Y-404900000D03*
X145250000Y-404100000D03*
X149750000Y-404100000D03*
X145250000Y-403300000D03*
X149750000Y-403300000D03*
X145250000Y-402500000D03*
X149750000Y-402500000D03*
X145250000Y-401700000D03*
X149750000Y-401700000D03*
X145250000Y-400900000D03*
X149750000Y-400900000D03*
X145250000Y-400100000D03*
X149750000Y-400100000D03*
X145250000Y-399300000D03*
X149750000Y-399300000D03*
X145250000Y-398500000D03*
X149750000Y-398500000D03*
X145250000Y-397700000D03*
X149750000Y-397700000D03*
X145250000Y-396900000D03*
X149750000Y-396900000D03*
X145250000Y-396100000D03*
X149750000Y-396100000D03*
X145250000Y-395300000D03*
X149750000Y-395300000D03*
X145250000Y-394500000D03*
X149750000Y-394500000D03*
X145250000Y-393700000D03*
X149750000Y-393700000D03*
X145250000Y-392900000D03*
X149750000Y-392900000D03*
%TD*%
%TO.C,J1*%
X149750000Y-317150000D03*
X145250000Y-317150000D03*
X149750000Y-317950000D03*
X145250000Y-317950000D03*
X149750000Y-318750000D03*
X145250000Y-318750000D03*
X149750000Y-319550000D03*
X145250000Y-319550000D03*
X149750000Y-320350000D03*
X145250000Y-320350000D03*
X149750000Y-321150000D03*
X145250000Y-321150000D03*
X149750000Y-321950000D03*
X145250000Y-321950000D03*
X149750000Y-322750000D03*
X145250000Y-322750000D03*
X149750000Y-323550000D03*
X145250000Y-323550000D03*
X149750000Y-324350000D03*
X145250000Y-324350000D03*
X149750000Y-325150000D03*
X145250000Y-325150000D03*
X149750000Y-325950000D03*
X145250000Y-325950000D03*
X149750000Y-326750000D03*
X145250000Y-326750000D03*
X149750000Y-327550000D03*
X145250000Y-327550000D03*
X149750000Y-328350000D03*
X145250000Y-328350000D03*
X149750000Y-329150000D03*
X145250000Y-329150000D03*
X149750000Y-329950000D03*
X145250000Y-329950000D03*
X149750000Y-330750000D03*
X145250000Y-330750000D03*
X149750000Y-331550000D03*
X145250000Y-331550000D03*
X149750000Y-332350000D03*
X145250000Y-332350000D03*
X149750000Y-333150000D03*
X145250000Y-333150000D03*
X149750000Y-333950000D03*
X145250000Y-333950000D03*
X149750000Y-334750000D03*
X145250000Y-334750000D03*
X149750000Y-335550000D03*
X145250000Y-335550000D03*
X149750000Y-336350000D03*
X145250000Y-336350000D03*
X149750000Y-337150000D03*
X145250000Y-337150000D03*
X149750000Y-337950000D03*
X145250000Y-337950000D03*
X149750000Y-338750000D03*
X145250000Y-338750000D03*
X149750000Y-339550000D03*
X145250000Y-339550000D03*
X149750000Y-340350000D03*
X145250000Y-340350000D03*
X149750000Y-341150000D03*
X145250000Y-341150000D03*
X149750000Y-341950000D03*
X145250000Y-341950000D03*
X149750000Y-342750000D03*
X145250000Y-342750000D03*
X149750000Y-343550000D03*
X145250000Y-343550000D03*
X149750000Y-344350000D03*
X145250000Y-344350000D03*
X149750000Y-345150000D03*
X145250000Y-345150000D03*
X149750000Y-345950000D03*
X145250000Y-345950000D03*
X149750000Y-346750000D03*
X145250000Y-346750000D03*
X149750000Y-347550000D03*
X145250000Y-347550000D03*
X149750000Y-348350000D03*
X145250000Y-348350000D03*
X149750000Y-349150000D03*
X145250000Y-349150000D03*
X149750000Y-349950000D03*
X145250000Y-349950000D03*
X149750000Y-350750000D03*
X145250000Y-350750000D03*
X149750000Y-351550000D03*
X145250000Y-351550000D03*
X149750000Y-352350000D03*
X145250000Y-352350000D03*
X149750000Y-353150000D03*
X145250000Y-353150000D03*
X149750000Y-353950000D03*
X145250000Y-353950000D03*
X149750000Y-354750000D03*
X145250000Y-354750000D03*
X149750000Y-355550000D03*
X145250000Y-355550000D03*
X149750000Y-356350000D03*
X145250000Y-356350000D03*
X149750000Y-357150000D03*
X145250000Y-357150000D03*
X149750000Y-357950000D03*
X145250000Y-357950000D03*
X149750000Y-358750000D03*
X145250000Y-358750000D03*
X149750000Y-359550000D03*
X145250000Y-359550000D03*
X149750000Y-360350000D03*
X145250000Y-360350000D03*
X149750000Y-361150000D03*
X145250000Y-361150000D03*
X149750000Y-361950000D03*
X145250000Y-361950000D03*
X149750000Y-362750000D03*
X145250000Y-362750000D03*
X149750000Y-363550000D03*
X145250000Y-363550000D03*
X149750000Y-364350000D03*
X145250000Y-364350000D03*
D11*
X146000000Y-315350000D03*
X146000000Y-366150000D03*
%TD*%
%TO.C,J602*%
X146000000Y-290400000D03*
X146000000Y-239600000D03*
D10*
X145250000Y-288600000D03*
X149750000Y-288600000D03*
X145250000Y-287800000D03*
X149750000Y-287800000D03*
X145250000Y-287000000D03*
X149750000Y-287000000D03*
X145250000Y-286200000D03*
X149750000Y-286200000D03*
X145250000Y-285400000D03*
X149750000Y-285400000D03*
X145250000Y-284600000D03*
X149750000Y-284600000D03*
X145250000Y-283800000D03*
X149750000Y-283800000D03*
X145250000Y-283000000D03*
X149750000Y-283000000D03*
X145250000Y-282200000D03*
X149750000Y-282200000D03*
X145250000Y-281400000D03*
X149750000Y-281400000D03*
X145250000Y-280600000D03*
X149750000Y-280600000D03*
X145250000Y-279800000D03*
X149750000Y-279800000D03*
X145250000Y-279000000D03*
X149750000Y-279000000D03*
X145250000Y-278200000D03*
X149750000Y-278200000D03*
X145250000Y-277400000D03*
X149750000Y-277400000D03*
X145250000Y-276600000D03*
X149750000Y-276600000D03*
X145250000Y-275800000D03*
X149750000Y-275800000D03*
X145250000Y-275000000D03*
X149750000Y-275000000D03*
X145250000Y-274200000D03*
X149750000Y-274200000D03*
X145250000Y-273400000D03*
X149750000Y-273400000D03*
X145250000Y-272600000D03*
X149750000Y-272600000D03*
X145250000Y-271800000D03*
X149750000Y-271800000D03*
X145250000Y-271000000D03*
X149750000Y-271000000D03*
X145250000Y-270200000D03*
X149750000Y-270200000D03*
X145250000Y-269400000D03*
X149750000Y-269400000D03*
X145250000Y-268600000D03*
X149750000Y-268600000D03*
X145250000Y-267800000D03*
X149750000Y-267800000D03*
X145250000Y-267000000D03*
X149750000Y-267000000D03*
X145250000Y-266200000D03*
X149750000Y-266200000D03*
X145250000Y-265400000D03*
X149750000Y-265400000D03*
X145250000Y-264600000D03*
X149750000Y-264600000D03*
X145250000Y-263800000D03*
X149750000Y-263800000D03*
X145250000Y-263000000D03*
X149750000Y-263000000D03*
X145250000Y-262200000D03*
X149750000Y-262200000D03*
X145250000Y-261400000D03*
X149750000Y-261400000D03*
X145250000Y-260600000D03*
X149750000Y-260600000D03*
X145250000Y-259800000D03*
X149750000Y-259800000D03*
X145250000Y-259000000D03*
X149750000Y-259000000D03*
X145250000Y-258200000D03*
X149750000Y-258200000D03*
X145250000Y-257400000D03*
X149750000Y-257400000D03*
X145250000Y-256600000D03*
X149750000Y-256600000D03*
X145250000Y-255800000D03*
X149750000Y-255800000D03*
X145250000Y-255000000D03*
X149750000Y-255000000D03*
X145250000Y-254200000D03*
X149750000Y-254200000D03*
X145250000Y-253400000D03*
X149750000Y-253400000D03*
X145250000Y-252600000D03*
X149750000Y-252600000D03*
X145250000Y-251800000D03*
X149750000Y-251800000D03*
X145250000Y-251000000D03*
X149750000Y-251000000D03*
X145250000Y-250200000D03*
X149750000Y-250200000D03*
X145250000Y-249400000D03*
X149750000Y-249400000D03*
X145250000Y-248600000D03*
X149750000Y-248600000D03*
X145250000Y-247800000D03*
X149750000Y-247800000D03*
X145250000Y-247000000D03*
X149750000Y-247000000D03*
X145250000Y-246200000D03*
X149750000Y-246200000D03*
X145250000Y-245400000D03*
X149750000Y-245400000D03*
X145250000Y-244600000D03*
X149750000Y-244600000D03*
X145250000Y-243800000D03*
X149750000Y-243800000D03*
X145250000Y-243000000D03*
X149750000Y-243000000D03*
X145250000Y-242200000D03*
X149750000Y-242200000D03*
X145250000Y-241400000D03*
X149750000Y-241400000D03*
%TD*%
%TO.C,J102*%
X149750000Y-14150000D03*
X145250000Y-14150000D03*
X149750000Y-14950000D03*
X145250000Y-14950000D03*
X149750000Y-15750000D03*
X145250000Y-15750000D03*
X149750000Y-16550000D03*
X145250000Y-16550000D03*
X149750000Y-17350000D03*
X145250000Y-17350000D03*
X149750000Y-18150000D03*
X145250000Y-18150000D03*
X149750000Y-18950000D03*
X145250000Y-18950000D03*
X149750000Y-19750000D03*
X145250000Y-19750000D03*
X149750000Y-20550000D03*
X145250000Y-20550000D03*
X149750000Y-21350000D03*
X145250000Y-21350000D03*
X149750000Y-22150000D03*
X145250000Y-22150000D03*
X149750000Y-22950000D03*
X145250000Y-22950000D03*
X149750000Y-23750000D03*
X145250000Y-23750000D03*
X149750000Y-24550000D03*
X145250000Y-24550000D03*
X149750000Y-25350000D03*
X145250000Y-25350000D03*
X149750000Y-26150000D03*
X145250000Y-26150000D03*
X149750000Y-26950000D03*
X145250000Y-26950000D03*
X149750000Y-27750000D03*
X145250000Y-27750000D03*
X149750000Y-28550000D03*
X145250000Y-28550000D03*
X149750000Y-29350000D03*
X145250000Y-29350000D03*
X149750000Y-30150000D03*
X145250000Y-30150000D03*
X149750000Y-30950000D03*
X145250000Y-30950000D03*
X149750000Y-31750000D03*
X145250000Y-31750000D03*
X149750000Y-32550000D03*
X145250000Y-32550000D03*
X149750000Y-33350000D03*
X145250000Y-33350000D03*
X149750000Y-34150000D03*
X145250000Y-34150000D03*
X149750000Y-34950000D03*
X145250000Y-34950000D03*
X149750000Y-35750000D03*
X145250000Y-35750000D03*
X149750000Y-36550000D03*
X145250000Y-36550000D03*
X149750000Y-37350000D03*
X145250000Y-37350000D03*
X149750000Y-38150000D03*
X145250000Y-38150000D03*
X149750000Y-38950000D03*
X145250000Y-38950000D03*
X149750000Y-39750000D03*
X145250000Y-39750000D03*
X149750000Y-40550000D03*
X145250000Y-40550000D03*
X149750000Y-41350000D03*
X145250000Y-41350000D03*
X149750000Y-42150000D03*
X145250000Y-42150000D03*
X149750000Y-42950000D03*
X145250000Y-42950000D03*
X149750000Y-43750000D03*
X145250000Y-43750000D03*
X149750000Y-44550000D03*
X145250000Y-44550000D03*
X149750000Y-45350000D03*
X145250000Y-45350000D03*
X149750000Y-46150000D03*
X145250000Y-46150000D03*
X149750000Y-46950000D03*
X145250000Y-46950000D03*
X149750000Y-47750000D03*
X145250000Y-47750000D03*
X149750000Y-48550000D03*
X145250000Y-48550000D03*
X149750000Y-49350000D03*
X145250000Y-49350000D03*
X149750000Y-50150000D03*
X145250000Y-50150000D03*
X149750000Y-50950000D03*
X145250000Y-50950000D03*
X149750000Y-51750000D03*
X145250000Y-51750000D03*
X149750000Y-52550000D03*
X145250000Y-52550000D03*
X149750000Y-53350000D03*
X145250000Y-53350000D03*
X149750000Y-54150000D03*
X145250000Y-54150000D03*
X149750000Y-54950000D03*
X145250000Y-54950000D03*
X149750000Y-55750000D03*
X145250000Y-55750000D03*
X149750000Y-56550000D03*
X145250000Y-56550000D03*
X149750000Y-57350000D03*
X145250000Y-57350000D03*
X149750000Y-58150000D03*
X145250000Y-58150000D03*
X149750000Y-58950000D03*
X145250000Y-58950000D03*
X149750000Y-59750000D03*
X145250000Y-59750000D03*
X149750000Y-60550000D03*
X145250000Y-60550000D03*
X149750000Y-61350000D03*
X145250000Y-61350000D03*
D11*
X146000000Y-12350000D03*
X146000000Y-63150000D03*
%TD*%
%TO.C,J302*%
X146000000Y-138900000D03*
X146000000Y-88100000D03*
D10*
X145250000Y-137100000D03*
X149750000Y-137100000D03*
X145250000Y-136300000D03*
X149750000Y-136300000D03*
X145250000Y-135500000D03*
X149750000Y-135500000D03*
X145250000Y-134700000D03*
X149750000Y-134700000D03*
X145250000Y-133900000D03*
X149750000Y-133900000D03*
X145250000Y-133100000D03*
X149750000Y-133100000D03*
X145250000Y-132300000D03*
X149750000Y-132300000D03*
X145250000Y-131500000D03*
X149750000Y-131500000D03*
X145250000Y-130700000D03*
X149750000Y-130700000D03*
X145250000Y-129900000D03*
X149750000Y-129900000D03*
X145250000Y-129100000D03*
X149750000Y-129100000D03*
X145250000Y-128300000D03*
X149750000Y-128300000D03*
X145250000Y-127500000D03*
X149750000Y-127500000D03*
X145250000Y-126700000D03*
X149750000Y-126700000D03*
X145250000Y-125900000D03*
X149750000Y-125900000D03*
X145250000Y-125100000D03*
X149750000Y-125100000D03*
X145250000Y-124300000D03*
X149750000Y-124300000D03*
X145250000Y-123500000D03*
X149750000Y-123500000D03*
X145250000Y-122700000D03*
X149750000Y-122700000D03*
X145250000Y-121900000D03*
X149750000Y-121900000D03*
X145250000Y-121100000D03*
X149750000Y-121100000D03*
X145250000Y-120300000D03*
X149750000Y-120300000D03*
X145250000Y-119500000D03*
X149750000Y-119500000D03*
X145250000Y-118700000D03*
X149750000Y-118700000D03*
X145250000Y-117900000D03*
X149750000Y-117900000D03*
X145250000Y-117100000D03*
X149750000Y-117100000D03*
X145250000Y-116300000D03*
X149750000Y-116300000D03*
X145250000Y-115500000D03*
X149750000Y-115500000D03*
X145250000Y-114700000D03*
X149750000Y-114700000D03*
X145250000Y-113900000D03*
X149750000Y-113900000D03*
X145250000Y-113100000D03*
X149750000Y-113100000D03*
X145250000Y-112300000D03*
X149750000Y-112300000D03*
X145250000Y-111500000D03*
X149750000Y-111500000D03*
X145250000Y-110700000D03*
X149750000Y-110700000D03*
X145250000Y-109900000D03*
X149750000Y-109900000D03*
X145250000Y-109100000D03*
X149750000Y-109100000D03*
X145250000Y-108300000D03*
X149750000Y-108300000D03*
X145250000Y-107500000D03*
X149750000Y-107500000D03*
X145250000Y-106700000D03*
X149750000Y-106700000D03*
X145250000Y-105900000D03*
X149750000Y-105900000D03*
X145250000Y-105100000D03*
X149750000Y-105100000D03*
X145250000Y-104300000D03*
X149750000Y-104300000D03*
X145250000Y-103500000D03*
X149750000Y-103500000D03*
X145250000Y-102700000D03*
X149750000Y-102700000D03*
X145250000Y-101900000D03*
X149750000Y-101900000D03*
X145250000Y-101100000D03*
X149750000Y-101100000D03*
X145250000Y-100300000D03*
X149750000Y-100300000D03*
X145250000Y-99500000D03*
X149750000Y-99500000D03*
X145250000Y-98700000D03*
X149750000Y-98700000D03*
X145250000Y-97900000D03*
X149750000Y-97900000D03*
X145250000Y-97100000D03*
X149750000Y-97100000D03*
X145250000Y-96300000D03*
X149750000Y-96300000D03*
X145250000Y-95500000D03*
X149750000Y-95500000D03*
X145250000Y-94700000D03*
X149750000Y-94700000D03*
X145250000Y-93900000D03*
X149750000Y-93900000D03*
X145250000Y-93100000D03*
X149750000Y-93100000D03*
X145250000Y-92300000D03*
X149750000Y-92300000D03*
X145250000Y-91500000D03*
X149750000Y-91500000D03*
X145250000Y-90700000D03*
X149750000Y-90700000D03*
X145250000Y-89900000D03*
X149750000Y-89900000D03*
%TD*%
%TO.C,J402*%
X149750000Y-165650000D03*
X145250000Y-165650000D03*
X149750000Y-166450000D03*
X145250000Y-166450000D03*
X149750000Y-167250000D03*
X145250000Y-167250000D03*
X149750000Y-168050000D03*
X145250000Y-168050000D03*
X149750000Y-168850000D03*
X145250000Y-168850000D03*
X149750000Y-169650000D03*
X145250000Y-169650000D03*
X149750000Y-170450000D03*
X145250000Y-170450000D03*
X149750000Y-171250000D03*
X145250000Y-171250000D03*
X149750000Y-172050000D03*
X145250000Y-172050000D03*
X149750000Y-172850000D03*
X145250000Y-172850000D03*
X149750000Y-173650000D03*
X145250000Y-173650000D03*
X149750000Y-174450000D03*
X145250000Y-174450000D03*
X149750000Y-175250000D03*
X145250000Y-175250000D03*
X149750000Y-176050000D03*
X145250000Y-176050000D03*
X149750000Y-176850000D03*
X145250000Y-176850000D03*
X149750000Y-177650000D03*
X145250000Y-177650000D03*
X149750000Y-178450000D03*
X145250000Y-178450000D03*
X149750000Y-179250000D03*
X145250000Y-179250000D03*
X149750000Y-180050000D03*
X145250000Y-180050000D03*
X149750000Y-180850000D03*
X145250000Y-180850000D03*
X149750000Y-181650000D03*
X145250000Y-181650000D03*
X149750000Y-182450000D03*
X145250000Y-182450000D03*
X149750000Y-183250000D03*
X145250000Y-183250000D03*
X149750000Y-184050000D03*
X145250000Y-184050000D03*
X149750000Y-184850000D03*
X145250000Y-184850000D03*
X149750000Y-185650000D03*
X145250000Y-185650000D03*
X149750000Y-186450000D03*
X145250000Y-186450000D03*
X149750000Y-187250000D03*
X145250000Y-187250000D03*
X149750000Y-188050000D03*
X145250000Y-188050000D03*
X149750000Y-188850000D03*
X145250000Y-188850000D03*
X149750000Y-189650000D03*
X145250000Y-189650000D03*
X149750000Y-190450000D03*
X145250000Y-190450000D03*
X149750000Y-191250000D03*
X145250000Y-191250000D03*
X149750000Y-192050000D03*
X145250000Y-192050000D03*
X149750000Y-192850000D03*
X145250000Y-192850000D03*
X149750000Y-193650000D03*
X145250000Y-193650000D03*
X149750000Y-194450000D03*
X145250000Y-194450000D03*
X149750000Y-195250000D03*
X145250000Y-195250000D03*
X149750000Y-196050000D03*
X145250000Y-196050000D03*
X149750000Y-196850000D03*
X145250000Y-196850000D03*
X149750000Y-197650000D03*
X145250000Y-197650000D03*
X149750000Y-198450000D03*
X145250000Y-198450000D03*
X149750000Y-199250000D03*
X145250000Y-199250000D03*
X149750000Y-200050000D03*
X145250000Y-200050000D03*
X149750000Y-200850000D03*
X145250000Y-200850000D03*
X149750000Y-201650000D03*
X145250000Y-201650000D03*
X149750000Y-202450000D03*
X145250000Y-202450000D03*
X149750000Y-203250000D03*
X145250000Y-203250000D03*
X149750000Y-204050000D03*
X145250000Y-204050000D03*
X149750000Y-204850000D03*
X145250000Y-204850000D03*
X149750000Y-205650000D03*
X145250000Y-205650000D03*
X149750000Y-206450000D03*
X145250000Y-206450000D03*
X149750000Y-207250000D03*
X145250000Y-207250000D03*
X149750000Y-208050000D03*
X145250000Y-208050000D03*
X149750000Y-208850000D03*
X145250000Y-208850000D03*
X149750000Y-209650000D03*
X145250000Y-209650000D03*
X149750000Y-210450000D03*
X145250000Y-210450000D03*
X149750000Y-211250000D03*
X145250000Y-211250000D03*
X149750000Y-212050000D03*
X145250000Y-212050000D03*
X149750000Y-212850000D03*
X145250000Y-212850000D03*
D11*
X146000000Y-163850000D03*
X146000000Y-214650000D03*
%TD*%
M02*
