%TF.GenerationSoftware,KiCad,Pcbnew,(5.1.10)-1*%
%TF.CreationDate,2021-08-06T14:13:42-04:00*%
%TF.ProjectId,LED_Pulser,4c45445f-5075-46c7-9365-722e6b696361,rev?*%
%TF.SameCoordinates,Original*%
%TF.FileFunction,Copper,L2,Bot*%
%TF.FilePolarity,Positive*%
%FSLAX46Y46*%
G04 Gerber Fmt 4.6, Leading zero omitted, Abs format (unit mm)*
G04 Created by KiCad (PCBNEW (5.1.10)-1) date 2021-08-06 14:13:42*
%MOMM*%
%LPD*%
G01*
G04 APERTURE LIST*
%TA.AperFunction,ComponentPad*%
%ADD10C,1.800000*%
%TD*%
%TA.AperFunction,ComponentPad*%
%ADD11C,6.400000*%
%TD*%
%TA.AperFunction,ComponentPad*%
%ADD12R,3.500000X3.500000*%
%TD*%
%TA.AperFunction,ComponentPad*%
%ADD13O,1.050000X1.500000*%
%TD*%
%TA.AperFunction,ComponentPad*%
%ADD14R,1.050000X1.500000*%
%TD*%
%TA.AperFunction,ComponentPad*%
%ADD15C,1.524000*%
%TD*%
%TA.AperFunction,ComponentPad*%
%ADD16O,1.600000X1.600000*%
%TD*%
%TA.AperFunction,ComponentPad*%
%ADD17R,1.600000X1.600000*%
%TD*%
%TA.AperFunction,ComponentPad*%
%ADD18R,1.800000X1.800000*%
%TD*%
%TA.AperFunction,ViaPad*%
%ADD19C,0.800000*%
%TD*%
%TA.AperFunction,Conductor*%
%ADD20C,0.254000*%
%TD*%
%TA.AperFunction,Conductor*%
%ADD21C,0.100000*%
%TD*%
G04 APERTURE END LIST*
D10*
%TO.P,RV1,3*%
%TO.N,GND*%
X165100000Y-137668000D03*
%TO.P,RV1,2*%
%TO.N,Net-(RV1-Pad2)*%
X162560000Y-132588000D03*
%TO.P,RV1,1*%
%TO.N,/VCC*%
X165100000Y-124968000D03*
%TD*%
D11*
%TO.P,H4,1*%
%TO.N,GND*%
X163322000Y-161671000D03*
%TD*%
%TO.P,H3,1*%
%TO.N,GND*%
X205994000Y-161671000D03*
%TD*%
%TO.P,H2,1*%
%TO.N,GND*%
X205867000Y-89662000D03*
%TD*%
%TO.P,H1,1*%
%TO.N,GND*%
X163322000Y-89662000D03*
%TD*%
D12*
%TO.P,J42,1*%
%TO.N,+15V*%
X195072000Y-150876000D03*
%TO.P,J42,2*%
%TO.N,GND*%
%TA.AperFunction,ComponentPad*%
G36*
G01*
X196072000Y-158376000D02*
X194072000Y-158376000D01*
G75*
G02*
X193322000Y-157626000I0J750000D01*
G01*
X193322000Y-156126000D01*
G75*
G02*
X194072000Y-155376000I750000J0D01*
G01*
X196072000Y-155376000D01*
G75*
G02*
X196822000Y-156126000I0J-750000D01*
G01*
X196822000Y-157626000D01*
G75*
G02*
X196072000Y-158376000I-750000J0D01*
G01*
G37*
%TD.AperFunction*%
%TO.P,J42,3*%
%TO.N,N/C*%
%TA.AperFunction,ComponentPad*%
G36*
G01*
X200647000Y-155626000D02*
X198897000Y-155626000D01*
G75*
G02*
X198022000Y-154751000I0J875000D01*
G01*
X198022000Y-153001000D01*
G75*
G02*
X198897000Y-152126000I875000J0D01*
G01*
X200647000Y-152126000D01*
G75*
G02*
X201522000Y-153001000I0J-875000D01*
G01*
X201522000Y-154751000D01*
G75*
G02*
X200647000Y-155626000I-875000J0D01*
G01*
G37*
%TD.AperFunction*%
%TD*%
D13*
%TO.P,U1,2*%
%TO.N,/VCC*%
X172720000Y-123698000D03*
%TO.P,U1,3*%
%TO.N,GND*%
X173990000Y-123698000D03*
D14*
%TO.P,U1,1*%
%TO.N,N/C*%
X171450000Y-123698000D03*
%TD*%
D15*
%TO.P,J41,1*%
%TO.N,GND*%
X185166000Y-128524000D03*
%TD*%
%TO.P,J40,1*%
%TO.N,GND*%
X208026000Y-115824000D03*
%TD*%
%TO.P,J39,1*%
%TO.N,GND*%
X185166000Y-141224000D03*
%TD*%
%TO.P,J38,1*%
%TO.N,GND*%
X208026000Y-141224000D03*
%TD*%
%TO.P,J37,1*%
%TO.N,Net-(J37-Pad1)*%
X208026000Y-136144000D03*
%TD*%
%TO.P,J36,1*%
%TO.N,Net-(J36-Pad1)*%
X208026000Y-131064000D03*
%TD*%
%TO.P,J35,1*%
%TO.N,Net-(J35-Pad1)*%
X208026000Y-125984000D03*
%TD*%
%TO.P,J34,1*%
%TO.N,Net-(J34-Pad1)*%
X208026000Y-120904000D03*
%TD*%
%TO.P,J33,1*%
%TO.N,Net-(J33-Pad1)*%
X208026000Y-110744000D03*
%TD*%
%TO.P,J32,1*%
%TO.N,Net-(J32-Pad1)*%
X208026000Y-105664000D03*
%TD*%
%TO.P,J31,1*%
%TO.N,/VCC*%
X208026000Y-100584000D03*
%TD*%
%TO.P,J30,1*%
%TO.N,Net-(J30-Pad1)*%
X208026000Y-143764000D03*
%TD*%
%TO.P,J29,1*%
%TO.N,Net-(J29-Pad1)*%
X208026000Y-138684000D03*
%TD*%
%TO.P,J28,1*%
%TO.N,Net-(J28-Pad1)*%
X208026000Y-133604000D03*
%TD*%
%TO.P,J27,1*%
%TO.N,Net-(J27-Pad1)*%
X208026000Y-123444000D03*
%TD*%
%TO.P,J26,1*%
%TO.N,Net-(J26-Pad1)*%
X208026000Y-118364000D03*
%TD*%
%TO.P,J25,1*%
%TO.N,Net-(J25-Pad1)*%
X208026000Y-113284000D03*
%TD*%
%TO.P,J24,1*%
%TO.N,Net-(J24-Pad1)*%
X208026000Y-108204000D03*
%TD*%
%TO.P,J23,1*%
%TO.N,Net-(J23-Pad1)*%
X208026000Y-98044000D03*
%TD*%
%TO.P,J22,1*%
%TO.N,Net-(J22-Pad1)*%
X208026000Y-146304000D03*
%TD*%
%TO.P,J21,1*%
%TO.N,Net-(J21-Pad1)*%
X185166000Y-98044000D03*
%TD*%
%TO.P,J20,1*%
%TO.N,Net-(J20-Pad1)*%
X185166000Y-146304000D03*
%TD*%
%TO.P,J19,1*%
%TO.N,Net-(J19-Pad1)*%
X185166000Y-136144000D03*
%TD*%
%TO.P,J18,1*%
%TO.N,Net-(J18-Pad1)*%
X185166000Y-131064000D03*
%TD*%
%TO.P,J17,1*%
%TO.N,Net-(J17-Pad1)*%
X185166000Y-125984000D03*
%TD*%
%TO.P,J16,1*%
%TO.N,Net-(J16-Pad1)*%
X185166000Y-120904000D03*
%TD*%
%TO.P,J15,1*%
%TO.N,Net-(J15-Pad1)*%
X185166000Y-110744000D03*
%TD*%
%TO.P,J14,1*%
%TO.N,Net-(J14-Pad1)*%
X185166000Y-105664000D03*
%TD*%
%TO.P,J13,1*%
%TO.N,Net-(J13-Pad1)*%
X185166000Y-143764000D03*
%TD*%
%TO.P,J12,1*%
%TO.N,Net-(J12-Pad1)*%
X185166000Y-138684000D03*
%TD*%
%TO.P,J11,1*%
%TO.N,Net-(J11-Pad1)*%
X185166000Y-133604000D03*
%TD*%
%TO.P,J10,1*%
%TO.N,Net-(J10-Pad1)*%
X185166000Y-123444000D03*
%TD*%
%TO.P,J9,1*%
%TO.N,Net-(J9-Pad1)*%
X185166000Y-118364000D03*
%TD*%
%TO.P,J8,1*%
%TO.N,Net-(J8-Pad1)*%
X185166000Y-113284000D03*
%TD*%
%TO.P,J7,1*%
%TO.N,Net-(J7-Pad1)*%
X185166000Y-108204000D03*
%TD*%
%TO.P,J6,1*%
%TO.N,GND*%
X208026000Y-128524000D03*
%TD*%
%TO.P,J5,1*%
%TO.N,GND*%
X208026000Y-103124000D03*
%TD*%
%TO.P,J4,1*%
%TO.N,GND*%
X185166000Y-115824000D03*
%TD*%
%TO.P,J3,1*%
%TO.N,GND*%
X185166000Y-103124000D03*
%TD*%
%TO.P,J2,1*%
%TO.N,Net-(J2-Pad1)*%
X185166000Y-100584000D03*
%TD*%
%TO.P,U4,1*%
%TO.N,Net-(J21-Pad1)*%
X187706000Y-98044000D03*
%TO.P,U4,2*%
%TO.N,Net-(J2-Pad1)*%
X187706000Y-100584000D03*
%TO.P,U4,3*%
%TO.N,GND*%
X187706000Y-103124000D03*
%TO.P,U4,4*%
%TO.N,Net-(J14-Pad1)*%
X187706000Y-105664000D03*
%TO.P,U4,5*%
%TO.N,Net-(J7-Pad1)*%
X187706000Y-108204000D03*
%TO.P,U4,6*%
%TO.N,Net-(J15-Pad1)*%
X187706000Y-110744000D03*
%TO.P,U4,7*%
%TO.N,Net-(J8-Pad1)*%
X187706000Y-113284000D03*
%TO.P,U4,8*%
%TO.N,GND*%
X187706000Y-115824000D03*
%TO.P,U4,16*%
%TO.N,Net-(J19-Pad1)*%
X187706000Y-136144000D03*
%TO.P,U4,15*%
%TO.N,Net-(J11-Pad1)*%
X187706000Y-133604000D03*
%TO.P,U4,10*%
%TO.N,Net-(J16-Pad1)*%
X187706000Y-120904000D03*
%TO.P,U4,9*%
%TO.N,Net-(J9-Pad1)*%
X187706000Y-118364000D03*
%TO.P,U4,12*%
%TO.N,Net-(J17-Pad1)*%
X187706000Y-125984000D03*
%TO.P,U4,13*%
%TO.N,GND*%
X187706000Y-128524000D03*
%TO.P,U4,11*%
%TO.N,Net-(J10-Pad1)*%
X187706000Y-123444000D03*
%TO.P,U4,14*%
%TO.N,Net-(J18-Pad1)*%
X187706000Y-131064000D03*
%TO.P,U4,20*%
%TO.N,Net-(J20-Pad1)*%
X187706000Y-146304000D03*
%TO.P,U4,18*%
%TO.N,GND*%
X187706000Y-141224000D03*
%TO.P,U4,19*%
%TO.N,Net-(J13-Pad1)*%
X187706000Y-143764000D03*
%TO.P,U4,17*%
%TO.N,Net-(J12-Pad1)*%
X187706000Y-138684000D03*
%TO.P,U4,40*%
%TO.N,Net-(J23-Pad1)*%
X205486000Y-98044000D03*
%TO.P,U4,28*%
%TO.N,GND*%
X205486000Y-128524000D03*
%TO.P,U4,29*%
%TO.N,Net-(J35-Pad1)*%
X205486000Y-125984000D03*
%TO.P,U4,25*%
%TO.N,Net-(J37-Pad1)*%
X205486000Y-136144000D03*
%TO.P,U4,39*%
%TO.N,/VCC*%
X205486000Y-100584000D03*
%TO.P,U4,26*%
%TO.N,Net-(J28-Pad1)*%
X205486000Y-133604000D03*
%TO.P,U4,21*%
%TO.N,Net-(J22-Pad1)*%
X205486000Y-146304000D03*
%TO.P,U4,33*%
%TO.N,GND*%
X205486000Y-115824000D03*
%TO.P,U4,23*%
X205486000Y-141224000D03*
%TO.P,U4,31*%
%TO.N,Net-(J34-Pad1)*%
X205486000Y-120904000D03*
%TO.P,U4,22*%
%TO.N,Net-(J30-Pad1)*%
X205486000Y-143764000D03*
%TO.P,U4,24*%
%TO.N,Net-(J29-Pad1)*%
X205486000Y-138684000D03*
%TO.P,U4,30*%
%TO.N,Net-(J27-Pad1)*%
X205486000Y-123444000D03*
%TO.P,U4,37*%
%TO.N,Net-(J32-Pad1)*%
X205486000Y-105664000D03*
%TO.P,U4,36*%
%TO.N,Net-(J24-Pad1)*%
X205486000Y-108204000D03*
%TO.P,U4,38*%
%TO.N,GND*%
X205486000Y-103124000D03*
%TO.P,U4,32*%
%TO.N,Net-(J26-Pad1)*%
X205486000Y-118364000D03*
%TO.P,U4,34*%
%TO.N,Net-(J25-Pad1)*%
X205486000Y-113284000D03*
%TO.P,U4,35*%
%TO.N,Net-(J33-Pad1)*%
X205486000Y-110744000D03*
%TO.P,U4,27*%
%TO.N,Net-(J36-Pad1)*%
X205486000Y-131064000D03*
%TD*%
%TO.P,J1,2*%
%TO.N,GND*%
X177038000Y-93726000D03*
X182118000Y-93726000D03*
X182118000Y-88646000D03*
X177038000Y-88646000D03*
%TO.P,J1,1*%
%TO.N,Net-(J1-Pad1)*%
X179578000Y-91186000D03*
%TD*%
D16*
%TO.P,U2,8*%
%TO.N,Net-(U2-Pad8)*%
X180975000Y-133858000D03*
%TO.P,U2,4*%
%TO.N,GND*%
X173355000Y-141478000D03*
%TO.P,U2,7*%
%TO.N,+15V*%
X180975000Y-136398000D03*
%TO.P,U2,3*%
%TO.N,Net-(RV1-Pad2)*%
X173355000Y-138938000D03*
%TO.P,U2,6*%
%TO.N,Net-(R4-Pad2)*%
X180975000Y-138938000D03*
%TO.P,U2,2*%
X173355000Y-136398000D03*
%TO.P,U2,5*%
%TO.N,Net-(U2-Pad5)*%
X180975000Y-141478000D03*
D17*
%TO.P,U2,1*%
%TO.N,Net-(U2-Pad1)*%
X173355000Y-133858000D03*
%TD*%
D14*
%TO.P,Q1,1*%
%TO.N,GND*%
X172593000Y-104775000D03*
D13*
%TO.P,Q1,3*%
%TO.N,Net-(C4-Pad1)*%
X175133000Y-104775000D03*
%TO.P,Q1,2*%
%TO.N,Net-(J1-Pad1)*%
X173863000Y-104775000D03*
%TD*%
D18*
%TO.P,D1,1*%
%TO.N,Net-(C4-Pad2)*%
X164592000Y-110998000D03*
D10*
%TO.P,D1,2*%
%TO.N,Net-(C3-Pad1)*%
X164592000Y-113538000D03*
%TD*%
D19*
%TO.N,GND*%
X162560000Y-102108000D03*
X172720000Y-107188000D03*
X193040000Y-92075000D03*
X161290000Y-118618000D03*
X187071000Y-93218000D03*
X181737000Y-108204000D03*
X181737000Y-117983000D03*
%TD*%
D20*
%TO.N,GND*%
X160800724Y-86961119D02*
X163322000Y-89482395D01*
X165843276Y-86961119D01*
X165531304Y-86537000D01*
X203657696Y-86537000D01*
X203345724Y-86961119D01*
X205867000Y-89482395D01*
X208388276Y-86961119D01*
X208076304Y-86537000D01*
X209119000Y-86537000D01*
X209119001Y-87469344D01*
X209119000Y-87469354D01*
X209119000Y-87606762D01*
X209084555Y-87541330D01*
X209057548Y-87500912D01*
X208567881Y-87140724D01*
X206046605Y-89662000D01*
X208567881Y-92183276D01*
X209057548Y-91823088D01*
X209119000Y-91709843D01*
X209119000Y-97165258D01*
X209111120Y-97153465D01*
X208916535Y-96958880D01*
X208687727Y-96805995D01*
X208433490Y-96700686D01*
X208163592Y-96647000D01*
X207888408Y-96647000D01*
X207618510Y-96700686D01*
X207364273Y-96805995D01*
X207135465Y-96958880D01*
X206940880Y-97153465D01*
X206787995Y-97382273D01*
X206756000Y-97459515D01*
X206724005Y-97382273D01*
X206571120Y-97153465D01*
X206376535Y-96958880D01*
X206147727Y-96805995D01*
X205893490Y-96700686D01*
X205623592Y-96647000D01*
X205348408Y-96647000D01*
X205078510Y-96700686D01*
X204824273Y-96805995D01*
X204595465Y-96958880D01*
X204400880Y-97153465D01*
X204247995Y-97382273D01*
X204142686Y-97636510D01*
X204089000Y-97906408D01*
X204089000Y-98181592D01*
X204142686Y-98451490D01*
X204247995Y-98705727D01*
X204400880Y-98934535D01*
X204595465Y-99129120D01*
X204824273Y-99282005D01*
X204901515Y-99314000D01*
X204824273Y-99345995D01*
X204595465Y-99498880D01*
X204400880Y-99693465D01*
X204247995Y-99922273D01*
X204142686Y-100176510D01*
X204089000Y-100446408D01*
X204089000Y-100721592D01*
X204142686Y-100991490D01*
X204247995Y-101245727D01*
X204400880Y-101474535D01*
X204595465Y-101669120D01*
X204824273Y-101822005D01*
X204895943Y-101851692D01*
X204882977Y-101856364D01*
X204767020Y-101918344D01*
X204700040Y-102158435D01*
X205486000Y-102944395D01*
X206271960Y-102158435D01*
X206204980Y-101918344D01*
X206069240Y-101854515D01*
X206147727Y-101822005D01*
X206376535Y-101669120D01*
X206571120Y-101474535D01*
X206724005Y-101245727D01*
X206756000Y-101168485D01*
X206787995Y-101245727D01*
X206940880Y-101474535D01*
X207135465Y-101669120D01*
X207364273Y-101822005D01*
X207435943Y-101851692D01*
X207422977Y-101856364D01*
X207307020Y-101918344D01*
X207240040Y-102158435D01*
X208026000Y-102944395D01*
X208811960Y-102158435D01*
X208744980Y-101918344D01*
X208609240Y-101854515D01*
X208687727Y-101822005D01*
X208916535Y-101669120D01*
X209111120Y-101474535D01*
X209119000Y-101462742D01*
X209119000Y-102373592D01*
X208991565Y-102338040D01*
X208205605Y-103124000D01*
X208991565Y-103909960D01*
X209119000Y-103874408D01*
X209119000Y-104785259D01*
X209111120Y-104773465D01*
X208916535Y-104578880D01*
X208687727Y-104425995D01*
X208616057Y-104396308D01*
X208629023Y-104391636D01*
X208744980Y-104329656D01*
X208811960Y-104089565D01*
X208026000Y-103303605D01*
X207240040Y-104089565D01*
X207307020Y-104329656D01*
X207442760Y-104393485D01*
X207364273Y-104425995D01*
X207135465Y-104578880D01*
X206940880Y-104773465D01*
X206787995Y-105002273D01*
X206756000Y-105079515D01*
X206724005Y-105002273D01*
X206571120Y-104773465D01*
X206376535Y-104578880D01*
X206147727Y-104425995D01*
X206076057Y-104396308D01*
X206089023Y-104391636D01*
X206204980Y-104329656D01*
X206271960Y-104089565D01*
X205486000Y-103303605D01*
X204700040Y-104089565D01*
X204767020Y-104329656D01*
X204902760Y-104393485D01*
X204824273Y-104425995D01*
X204595465Y-104578880D01*
X204400880Y-104773465D01*
X204247995Y-105002273D01*
X204142686Y-105256510D01*
X204089000Y-105526408D01*
X204089000Y-105801592D01*
X204142686Y-106071490D01*
X204247995Y-106325727D01*
X204400880Y-106554535D01*
X204595465Y-106749120D01*
X204824273Y-106902005D01*
X204901515Y-106934000D01*
X204824273Y-106965995D01*
X204595465Y-107118880D01*
X204400880Y-107313465D01*
X204247995Y-107542273D01*
X204142686Y-107796510D01*
X204089000Y-108066408D01*
X204089000Y-108341592D01*
X204142686Y-108611490D01*
X204247995Y-108865727D01*
X204400880Y-109094535D01*
X204595465Y-109289120D01*
X204824273Y-109442005D01*
X204901515Y-109474000D01*
X204824273Y-109505995D01*
X204595465Y-109658880D01*
X204400880Y-109853465D01*
X204247995Y-110082273D01*
X204142686Y-110336510D01*
X204089000Y-110606408D01*
X204089000Y-110881592D01*
X204142686Y-111151490D01*
X204247995Y-111405727D01*
X204400880Y-111634535D01*
X204595465Y-111829120D01*
X204824273Y-111982005D01*
X204901515Y-112014000D01*
X204824273Y-112045995D01*
X204595465Y-112198880D01*
X204400880Y-112393465D01*
X204247995Y-112622273D01*
X204142686Y-112876510D01*
X204089000Y-113146408D01*
X204089000Y-113421592D01*
X204142686Y-113691490D01*
X204247995Y-113945727D01*
X204400880Y-114174535D01*
X204595465Y-114369120D01*
X204824273Y-114522005D01*
X204895943Y-114551692D01*
X204882977Y-114556364D01*
X204767020Y-114618344D01*
X204700040Y-114858435D01*
X205486000Y-115644395D01*
X206271960Y-114858435D01*
X206204980Y-114618344D01*
X206069240Y-114554515D01*
X206147727Y-114522005D01*
X206376535Y-114369120D01*
X206571120Y-114174535D01*
X206724005Y-113945727D01*
X206756000Y-113868485D01*
X206787995Y-113945727D01*
X206940880Y-114174535D01*
X207135465Y-114369120D01*
X207364273Y-114522005D01*
X207435943Y-114551692D01*
X207422977Y-114556364D01*
X207307020Y-114618344D01*
X207240040Y-114858435D01*
X208026000Y-115644395D01*
X208811960Y-114858435D01*
X208744980Y-114618344D01*
X208609240Y-114554515D01*
X208687727Y-114522005D01*
X208916535Y-114369120D01*
X209111120Y-114174535D01*
X209119000Y-114162741D01*
X209119000Y-115073592D01*
X208991565Y-115038040D01*
X208205605Y-115824000D01*
X208991565Y-116609960D01*
X209119000Y-116574408D01*
X209119000Y-117485259D01*
X209111120Y-117473465D01*
X208916535Y-117278880D01*
X208687727Y-117125995D01*
X208616057Y-117096308D01*
X208629023Y-117091636D01*
X208744980Y-117029656D01*
X208811960Y-116789565D01*
X208026000Y-116003605D01*
X207240040Y-116789565D01*
X207307020Y-117029656D01*
X207442760Y-117093485D01*
X207364273Y-117125995D01*
X207135465Y-117278880D01*
X206940880Y-117473465D01*
X206787995Y-117702273D01*
X206756000Y-117779515D01*
X206724005Y-117702273D01*
X206571120Y-117473465D01*
X206376535Y-117278880D01*
X206147727Y-117125995D01*
X206076057Y-117096308D01*
X206089023Y-117091636D01*
X206204980Y-117029656D01*
X206271960Y-116789565D01*
X205486000Y-116003605D01*
X204700040Y-116789565D01*
X204767020Y-117029656D01*
X204902760Y-117093485D01*
X204824273Y-117125995D01*
X204595465Y-117278880D01*
X204400880Y-117473465D01*
X204247995Y-117702273D01*
X204142686Y-117956510D01*
X204089000Y-118226408D01*
X204089000Y-118501592D01*
X204142686Y-118771490D01*
X204247995Y-119025727D01*
X204400880Y-119254535D01*
X204595465Y-119449120D01*
X204824273Y-119602005D01*
X204901515Y-119634000D01*
X204824273Y-119665995D01*
X204595465Y-119818880D01*
X204400880Y-120013465D01*
X204247995Y-120242273D01*
X204142686Y-120496510D01*
X204089000Y-120766408D01*
X204089000Y-121041592D01*
X204142686Y-121311490D01*
X204247995Y-121565727D01*
X204400880Y-121794535D01*
X204595465Y-121989120D01*
X204824273Y-122142005D01*
X204901515Y-122174000D01*
X204824273Y-122205995D01*
X204595465Y-122358880D01*
X204400880Y-122553465D01*
X204247995Y-122782273D01*
X204142686Y-123036510D01*
X204089000Y-123306408D01*
X204089000Y-123581592D01*
X204142686Y-123851490D01*
X204247995Y-124105727D01*
X204400880Y-124334535D01*
X204595465Y-124529120D01*
X204824273Y-124682005D01*
X204901515Y-124714000D01*
X204824273Y-124745995D01*
X204595465Y-124898880D01*
X204400880Y-125093465D01*
X204247995Y-125322273D01*
X204142686Y-125576510D01*
X204089000Y-125846408D01*
X204089000Y-126121592D01*
X204142686Y-126391490D01*
X204247995Y-126645727D01*
X204400880Y-126874535D01*
X204595465Y-127069120D01*
X204824273Y-127222005D01*
X204895943Y-127251692D01*
X204882977Y-127256364D01*
X204767020Y-127318344D01*
X204700040Y-127558435D01*
X205486000Y-128344395D01*
X206271960Y-127558435D01*
X206204980Y-127318344D01*
X206069240Y-127254515D01*
X206147727Y-127222005D01*
X206376535Y-127069120D01*
X206571120Y-126874535D01*
X206724005Y-126645727D01*
X206756000Y-126568485D01*
X206787995Y-126645727D01*
X206940880Y-126874535D01*
X207135465Y-127069120D01*
X207364273Y-127222005D01*
X207435943Y-127251692D01*
X207422977Y-127256364D01*
X207307020Y-127318344D01*
X207240040Y-127558435D01*
X208026000Y-128344395D01*
X208811960Y-127558435D01*
X208744980Y-127318344D01*
X208609240Y-127254515D01*
X208687727Y-127222005D01*
X208916535Y-127069120D01*
X209111120Y-126874535D01*
X209119001Y-126862741D01*
X209119001Y-127773592D01*
X208991565Y-127738040D01*
X208205605Y-128524000D01*
X208991565Y-129309960D01*
X209119001Y-129274408D01*
X209119001Y-130185259D01*
X209111120Y-130173465D01*
X208916535Y-129978880D01*
X208687727Y-129825995D01*
X208616057Y-129796308D01*
X208629023Y-129791636D01*
X208744980Y-129729656D01*
X208811960Y-129489565D01*
X208026000Y-128703605D01*
X207240040Y-129489565D01*
X207307020Y-129729656D01*
X207442760Y-129793485D01*
X207364273Y-129825995D01*
X207135465Y-129978880D01*
X206940880Y-130173465D01*
X206787995Y-130402273D01*
X206756000Y-130479515D01*
X206724005Y-130402273D01*
X206571120Y-130173465D01*
X206376535Y-129978880D01*
X206147727Y-129825995D01*
X206076057Y-129796308D01*
X206089023Y-129791636D01*
X206204980Y-129729656D01*
X206271960Y-129489565D01*
X205486000Y-128703605D01*
X204700040Y-129489565D01*
X204767020Y-129729656D01*
X204902760Y-129793485D01*
X204824273Y-129825995D01*
X204595465Y-129978880D01*
X204400880Y-130173465D01*
X204247995Y-130402273D01*
X204142686Y-130656510D01*
X204089000Y-130926408D01*
X204089000Y-131201592D01*
X204142686Y-131471490D01*
X204247995Y-131725727D01*
X204400880Y-131954535D01*
X204595465Y-132149120D01*
X204824273Y-132302005D01*
X204901515Y-132334000D01*
X204824273Y-132365995D01*
X204595465Y-132518880D01*
X204400880Y-132713465D01*
X204247995Y-132942273D01*
X204142686Y-133196510D01*
X204089000Y-133466408D01*
X204089000Y-133741592D01*
X204142686Y-134011490D01*
X204247995Y-134265727D01*
X204400880Y-134494535D01*
X204595465Y-134689120D01*
X204824273Y-134842005D01*
X204901515Y-134874000D01*
X204824273Y-134905995D01*
X204595465Y-135058880D01*
X204400880Y-135253465D01*
X204247995Y-135482273D01*
X204142686Y-135736510D01*
X204089000Y-136006408D01*
X204089000Y-136281592D01*
X204142686Y-136551490D01*
X204247995Y-136805727D01*
X204400880Y-137034535D01*
X204595465Y-137229120D01*
X204824273Y-137382005D01*
X204901515Y-137414000D01*
X204824273Y-137445995D01*
X204595465Y-137598880D01*
X204400880Y-137793465D01*
X204247995Y-138022273D01*
X204142686Y-138276510D01*
X204089000Y-138546408D01*
X204089000Y-138821592D01*
X204142686Y-139091490D01*
X204247995Y-139345727D01*
X204400880Y-139574535D01*
X204595465Y-139769120D01*
X204824273Y-139922005D01*
X204895943Y-139951692D01*
X204882977Y-139956364D01*
X204767020Y-140018344D01*
X204700040Y-140258435D01*
X205486000Y-141044395D01*
X206271960Y-140258435D01*
X206204980Y-140018344D01*
X206069240Y-139954515D01*
X206147727Y-139922005D01*
X206376535Y-139769120D01*
X206571120Y-139574535D01*
X206724005Y-139345727D01*
X206756000Y-139268485D01*
X206787995Y-139345727D01*
X206940880Y-139574535D01*
X207135465Y-139769120D01*
X207364273Y-139922005D01*
X207435943Y-139951692D01*
X207422977Y-139956364D01*
X207307020Y-140018344D01*
X207240040Y-140258435D01*
X208026000Y-141044395D01*
X208811960Y-140258435D01*
X208744980Y-140018344D01*
X208609240Y-139954515D01*
X208687727Y-139922005D01*
X208916535Y-139769120D01*
X209111120Y-139574535D01*
X209119001Y-139562741D01*
X209119001Y-140473592D01*
X208991565Y-140438040D01*
X208205605Y-141224000D01*
X208991565Y-142009960D01*
X209119001Y-141974408D01*
X209119001Y-142885259D01*
X209111120Y-142873465D01*
X208916535Y-142678880D01*
X208687727Y-142525995D01*
X208616057Y-142496308D01*
X208629023Y-142491636D01*
X208744980Y-142429656D01*
X208811960Y-142189565D01*
X208026000Y-141403605D01*
X207240040Y-142189565D01*
X207307020Y-142429656D01*
X207442760Y-142493485D01*
X207364273Y-142525995D01*
X207135465Y-142678880D01*
X206940880Y-142873465D01*
X206787995Y-143102273D01*
X206756000Y-143179515D01*
X206724005Y-143102273D01*
X206571120Y-142873465D01*
X206376535Y-142678880D01*
X206147727Y-142525995D01*
X206076057Y-142496308D01*
X206089023Y-142491636D01*
X206204980Y-142429656D01*
X206271960Y-142189565D01*
X205486000Y-141403605D01*
X204700040Y-142189565D01*
X204767020Y-142429656D01*
X204902760Y-142493485D01*
X204824273Y-142525995D01*
X204595465Y-142678880D01*
X204400880Y-142873465D01*
X204247995Y-143102273D01*
X204142686Y-143356510D01*
X204089000Y-143626408D01*
X204089000Y-143901592D01*
X204142686Y-144171490D01*
X204247995Y-144425727D01*
X204400880Y-144654535D01*
X204595465Y-144849120D01*
X204824273Y-145002005D01*
X204901515Y-145034000D01*
X204824273Y-145065995D01*
X204595465Y-145218880D01*
X204400880Y-145413465D01*
X204247995Y-145642273D01*
X204142686Y-145896510D01*
X204089000Y-146166408D01*
X204089000Y-146441592D01*
X204142686Y-146711490D01*
X204247995Y-146965727D01*
X204400880Y-147194535D01*
X204595465Y-147389120D01*
X204824273Y-147542005D01*
X205078510Y-147647314D01*
X205348408Y-147701000D01*
X205623592Y-147701000D01*
X205893490Y-147647314D01*
X206147727Y-147542005D01*
X206376535Y-147389120D01*
X206571120Y-147194535D01*
X206724005Y-146965727D01*
X206756000Y-146888485D01*
X206787995Y-146965727D01*
X206940880Y-147194535D01*
X207135465Y-147389120D01*
X207364273Y-147542005D01*
X207618510Y-147647314D01*
X207888408Y-147701000D01*
X208163592Y-147701000D01*
X208433490Y-147647314D01*
X208687727Y-147542005D01*
X208916535Y-147389120D01*
X209111120Y-147194535D01*
X209119001Y-147182741D01*
X209119001Y-159461697D01*
X208694881Y-159149724D01*
X206173605Y-161671000D01*
X208694881Y-164192276D01*
X209119001Y-163880303D01*
X209119001Y-164796000D01*
X208203304Y-164796000D01*
X208515276Y-164371881D01*
X205994000Y-161850605D01*
X203472724Y-164371881D01*
X203784696Y-164796000D01*
X165531304Y-164796000D01*
X165843276Y-164371881D01*
X163322000Y-161850605D01*
X160800724Y-164371881D01*
X161112696Y-164796000D01*
X160070000Y-164796000D01*
X160070000Y-163726238D01*
X160104445Y-163791670D01*
X160131452Y-163832088D01*
X160621119Y-164192276D01*
X163142395Y-161671000D01*
X163501605Y-161671000D01*
X166022881Y-164192276D01*
X166512548Y-163832088D01*
X166872849Y-163168118D01*
X167096694Y-162446615D01*
X167175480Y-161695305D01*
X167171002Y-161646695D01*
X202140520Y-161646695D01*
X202209822Y-162398938D01*
X202424548Y-163123208D01*
X202776445Y-163791670D01*
X202803452Y-163832088D01*
X203293119Y-164192276D01*
X205814395Y-161671000D01*
X203293119Y-159149724D01*
X202803452Y-159509912D01*
X202443151Y-160173882D01*
X202219306Y-160895385D01*
X202140520Y-161646695D01*
X167171002Y-161646695D01*
X167106178Y-160943062D01*
X166891452Y-160218792D01*
X166539555Y-159550330D01*
X166512548Y-159509912D01*
X166022881Y-159149724D01*
X163501605Y-161671000D01*
X163142395Y-161671000D01*
X160621119Y-159149724D01*
X160131452Y-159509912D01*
X160070000Y-159623157D01*
X160070000Y-158970119D01*
X160800724Y-158970119D01*
X163322000Y-161491395D01*
X165843276Y-158970119D01*
X165483088Y-158480452D01*
X165290602Y-158376000D01*
X192683928Y-158376000D01*
X192696188Y-158500482D01*
X192732498Y-158620180D01*
X192791463Y-158730494D01*
X192870815Y-158827185D01*
X192967506Y-158906537D01*
X193077820Y-158965502D01*
X193197518Y-159001812D01*
X193322000Y-159014072D01*
X194786250Y-159011000D01*
X194945000Y-158852250D01*
X194945000Y-157003000D01*
X195199000Y-157003000D01*
X195199000Y-158852250D01*
X195357750Y-159011000D01*
X196822000Y-159014072D01*
X196946482Y-159001812D01*
X197050959Y-158970119D01*
X203472724Y-158970119D01*
X205994000Y-161491395D01*
X208515276Y-158970119D01*
X208155088Y-158480452D01*
X207491118Y-158120151D01*
X206769615Y-157896306D01*
X206018305Y-157817520D01*
X205266062Y-157886822D01*
X204541792Y-158101548D01*
X203873330Y-158453445D01*
X203832912Y-158480452D01*
X203472724Y-158970119D01*
X197050959Y-158970119D01*
X197066180Y-158965502D01*
X197176494Y-158906537D01*
X197273185Y-158827185D01*
X197352537Y-158730494D01*
X197411502Y-158620180D01*
X197447812Y-158500482D01*
X197460072Y-158376000D01*
X197457000Y-157161750D01*
X197298250Y-157003000D01*
X195199000Y-157003000D01*
X194945000Y-157003000D01*
X192845750Y-157003000D01*
X192687000Y-157161750D01*
X192683928Y-158376000D01*
X165290602Y-158376000D01*
X164819118Y-158120151D01*
X164097615Y-157896306D01*
X163346305Y-157817520D01*
X162594062Y-157886822D01*
X161869792Y-158101548D01*
X161201330Y-158453445D01*
X161160912Y-158480452D01*
X160800724Y-158970119D01*
X160070000Y-158970119D01*
X160070000Y-155376000D01*
X192683928Y-155376000D01*
X192687000Y-156590250D01*
X192845750Y-156749000D01*
X194945000Y-156749000D01*
X194945000Y-154899750D01*
X195199000Y-154899750D01*
X195199000Y-156749000D01*
X197298250Y-156749000D01*
X197457000Y-156590250D01*
X197460072Y-155376000D01*
X197447812Y-155251518D01*
X197411502Y-155131820D01*
X197352537Y-155021506D01*
X197273185Y-154924815D01*
X197176494Y-154845463D01*
X197066180Y-154786498D01*
X196946482Y-154750188D01*
X196822000Y-154737928D01*
X195357750Y-154741000D01*
X195199000Y-154899750D01*
X194945000Y-154899750D01*
X194786250Y-154741000D01*
X193322000Y-154737928D01*
X193197518Y-154750188D01*
X193077820Y-154786498D01*
X192967506Y-154845463D01*
X192870815Y-154924815D01*
X192791463Y-155021506D01*
X192732498Y-155131820D01*
X192696188Y-155251518D01*
X192683928Y-155376000D01*
X160070000Y-155376000D01*
X160070000Y-149126000D01*
X192683928Y-149126000D01*
X192683928Y-152626000D01*
X192696188Y-152750482D01*
X192732498Y-152870180D01*
X192791463Y-152980494D01*
X192870815Y-153077185D01*
X192967506Y-153156537D01*
X193077820Y-153215502D01*
X193197518Y-153251812D01*
X193322000Y-153264072D01*
X196822000Y-153264072D01*
X196946482Y-153251812D01*
X197066180Y-153215502D01*
X197176494Y-153156537D01*
X197273185Y-153077185D01*
X197352537Y-152980494D01*
X197393494Y-152903869D01*
X197383928Y-153001000D01*
X197383928Y-154751000D01*
X197413001Y-155046186D01*
X197499104Y-155330028D01*
X197638927Y-155591618D01*
X197827097Y-155820903D01*
X198056382Y-156009073D01*
X198317972Y-156148896D01*
X198601814Y-156234999D01*
X198897000Y-156264072D01*
X200647000Y-156264072D01*
X200942186Y-156234999D01*
X201226028Y-156148896D01*
X201487618Y-156009073D01*
X201716903Y-155820903D01*
X201905073Y-155591618D01*
X202044896Y-155330028D01*
X202130999Y-155046186D01*
X202160072Y-154751000D01*
X202160072Y-153001000D01*
X202130999Y-152705814D01*
X202044896Y-152421972D01*
X201905073Y-152160382D01*
X201716903Y-151931097D01*
X201487618Y-151742927D01*
X201226028Y-151603104D01*
X200942186Y-151517001D01*
X200647000Y-151487928D01*
X198897000Y-151487928D01*
X198601814Y-151517001D01*
X198317972Y-151603104D01*
X198056382Y-151742927D01*
X197827097Y-151931097D01*
X197638927Y-152160382D01*
X197499104Y-152421972D01*
X197460072Y-152550643D01*
X197460072Y-149126000D01*
X197447812Y-149001518D01*
X197411502Y-148881820D01*
X197352537Y-148771506D01*
X197273185Y-148674815D01*
X197176494Y-148595463D01*
X197066180Y-148536498D01*
X196946482Y-148500188D01*
X196822000Y-148487928D01*
X193322000Y-148487928D01*
X193197518Y-148500188D01*
X193077820Y-148536498D01*
X192967506Y-148595463D01*
X192870815Y-148674815D01*
X192791463Y-148771506D01*
X192732498Y-148881820D01*
X192696188Y-149001518D01*
X192683928Y-149126000D01*
X160070000Y-149126000D01*
X160070000Y-143626408D01*
X183769000Y-143626408D01*
X183769000Y-143901592D01*
X183822686Y-144171490D01*
X183927995Y-144425727D01*
X184080880Y-144654535D01*
X184275465Y-144849120D01*
X184504273Y-145002005D01*
X184581515Y-145034000D01*
X184504273Y-145065995D01*
X184275465Y-145218880D01*
X184080880Y-145413465D01*
X183927995Y-145642273D01*
X183822686Y-145896510D01*
X183769000Y-146166408D01*
X183769000Y-146441592D01*
X183822686Y-146711490D01*
X183927995Y-146965727D01*
X184080880Y-147194535D01*
X184275465Y-147389120D01*
X184504273Y-147542005D01*
X184758510Y-147647314D01*
X185028408Y-147701000D01*
X185303592Y-147701000D01*
X185573490Y-147647314D01*
X185827727Y-147542005D01*
X186056535Y-147389120D01*
X186251120Y-147194535D01*
X186404005Y-146965727D01*
X186436000Y-146888485D01*
X186467995Y-146965727D01*
X186620880Y-147194535D01*
X186815465Y-147389120D01*
X187044273Y-147542005D01*
X187298510Y-147647314D01*
X187568408Y-147701000D01*
X187843592Y-147701000D01*
X188113490Y-147647314D01*
X188367727Y-147542005D01*
X188596535Y-147389120D01*
X188791120Y-147194535D01*
X188944005Y-146965727D01*
X189049314Y-146711490D01*
X189103000Y-146441592D01*
X189103000Y-146166408D01*
X189049314Y-145896510D01*
X188944005Y-145642273D01*
X188791120Y-145413465D01*
X188596535Y-145218880D01*
X188367727Y-145065995D01*
X188290485Y-145034000D01*
X188367727Y-145002005D01*
X188596535Y-144849120D01*
X188791120Y-144654535D01*
X188944005Y-144425727D01*
X189049314Y-144171490D01*
X189103000Y-143901592D01*
X189103000Y-143626408D01*
X189049314Y-143356510D01*
X188944005Y-143102273D01*
X188791120Y-142873465D01*
X188596535Y-142678880D01*
X188367727Y-142525995D01*
X188296057Y-142496308D01*
X188309023Y-142491636D01*
X188424980Y-142429656D01*
X188491960Y-142189565D01*
X187706000Y-141403605D01*
X186920040Y-142189565D01*
X186987020Y-142429656D01*
X187122760Y-142493485D01*
X187044273Y-142525995D01*
X186815465Y-142678880D01*
X186620880Y-142873465D01*
X186467995Y-143102273D01*
X186436000Y-143179515D01*
X186404005Y-143102273D01*
X186251120Y-142873465D01*
X186056535Y-142678880D01*
X185827727Y-142525995D01*
X185756057Y-142496308D01*
X185769023Y-142491636D01*
X185884980Y-142429656D01*
X185951960Y-142189565D01*
X185166000Y-141403605D01*
X184380040Y-142189565D01*
X184447020Y-142429656D01*
X184582760Y-142493485D01*
X184504273Y-142525995D01*
X184275465Y-142678880D01*
X184080880Y-142873465D01*
X183927995Y-143102273D01*
X183822686Y-143356510D01*
X183769000Y-143626408D01*
X160070000Y-143626408D01*
X160070000Y-141827039D01*
X171963096Y-141827039D01*
X172003754Y-141961087D01*
X172123963Y-142215420D01*
X172291481Y-142441414D01*
X172499869Y-142630385D01*
X172741119Y-142775070D01*
X173005960Y-142869909D01*
X173228000Y-142748624D01*
X173228000Y-141605000D01*
X173482000Y-141605000D01*
X173482000Y-142748624D01*
X173704040Y-142869909D01*
X173968881Y-142775070D01*
X174210131Y-142630385D01*
X174418519Y-142441414D01*
X174586037Y-142215420D01*
X174706246Y-141961087D01*
X174746904Y-141827039D01*
X174624915Y-141605000D01*
X173482000Y-141605000D01*
X173228000Y-141605000D01*
X172085085Y-141605000D01*
X171963096Y-141827039D01*
X160070000Y-141827039D01*
X160070000Y-138732080D01*
X164215525Y-138732080D01*
X164299208Y-138986261D01*
X164571775Y-139117158D01*
X164864642Y-139192365D01*
X165166553Y-139208991D01*
X165465907Y-139166397D01*
X165751199Y-139066222D01*
X165900792Y-138986261D01*
X165984475Y-138732080D01*
X165100000Y-137847605D01*
X164215525Y-138732080D01*
X160070000Y-138732080D01*
X160070000Y-137734553D01*
X163559009Y-137734553D01*
X163601603Y-138033907D01*
X163701778Y-138319199D01*
X163781739Y-138468792D01*
X164035920Y-138552475D01*
X164920395Y-137668000D01*
X165279605Y-137668000D01*
X166164080Y-138552475D01*
X166418261Y-138468792D01*
X166549158Y-138196225D01*
X166624365Y-137903358D01*
X166640991Y-137601447D01*
X166598397Y-137302093D01*
X166498222Y-137016801D01*
X166418261Y-136867208D01*
X166164080Y-136783525D01*
X165279605Y-137668000D01*
X164920395Y-137668000D01*
X164035920Y-136783525D01*
X163781739Y-136867208D01*
X163650842Y-137139775D01*
X163575635Y-137432642D01*
X163559009Y-137734553D01*
X160070000Y-137734553D01*
X160070000Y-136603920D01*
X164215525Y-136603920D01*
X165100000Y-137488395D01*
X165984475Y-136603920D01*
X165900792Y-136349739D01*
X165628225Y-136218842D01*
X165335358Y-136143635D01*
X165033447Y-136127009D01*
X164734093Y-136169603D01*
X164448801Y-136269778D01*
X164299208Y-136349739D01*
X164215525Y-136603920D01*
X160070000Y-136603920D01*
X160070000Y-132436816D01*
X161025000Y-132436816D01*
X161025000Y-132739184D01*
X161083989Y-133035743D01*
X161199701Y-133315095D01*
X161367688Y-133566505D01*
X161581495Y-133780312D01*
X161832905Y-133948299D01*
X162112257Y-134064011D01*
X162408816Y-134123000D01*
X162711184Y-134123000D01*
X163007743Y-134064011D01*
X163287095Y-133948299D01*
X163538505Y-133780312D01*
X163752312Y-133566505D01*
X163920299Y-133315095D01*
X164026791Y-133058000D01*
X171916928Y-133058000D01*
X171916928Y-134658000D01*
X171929188Y-134782482D01*
X171965498Y-134902180D01*
X172024463Y-135012494D01*
X172103815Y-135109185D01*
X172200506Y-135188537D01*
X172310820Y-135247502D01*
X172430518Y-135283812D01*
X172438961Y-135284643D01*
X172240363Y-135483241D01*
X172083320Y-135718273D01*
X171975147Y-135979426D01*
X171920000Y-136256665D01*
X171920000Y-136539335D01*
X171975147Y-136816574D01*
X172083320Y-137077727D01*
X172240363Y-137312759D01*
X172440241Y-137512637D01*
X172672759Y-137668000D01*
X172440241Y-137823363D01*
X172240363Y-138023241D01*
X172083320Y-138258273D01*
X171975147Y-138519426D01*
X171920000Y-138796665D01*
X171920000Y-139079335D01*
X171975147Y-139356574D01*
X172083320Y-139617727D01*
X172240363Y-139852759D01*
X172440241Y-140052637D01*
X172675273Y-140209680D01*
X172685865Y-140214067D01*
X172499869Y-140325615D01*
X172291481Y-140514586D01*
X172123963Y-140740580D01*
X172003754Y-140994913D01*
X171963096Y-141128961D01*
X172085085Y-141351000D01*
X173228000Y-141351000D01*
X173228000Y-141331000D01*
X173482000Y-141331000D01*
X173482000Y-141351000D01*
X174624915Y-141351000D01*
X174746904Y-141128961D01*
X174706246Y-140994913D01*
X174586037Y-140740580D01*
X174418519Y-140514586D01*
X174210131Y-140325615D01*
X174024135Y-140214067D01*
X174034727Y-140209680D01*
X174269759Y-140052637D01*
X174469637Y-139852759D01*
X174626680Y-139617727D01*
X174734853Y-139356574D01*
X174790000Y-139079335D01*
X174790000Y-138796665D01*
X174734853Y-138519426D01*
X174626680Y-138258273D01*
X174469637Y-138023241D01*
X174269759Y-137823363D01*
X174037241Y-137668000D01*
X174269759Y-137512637D01*
X174469637Y-137312759D01*
X174626680Y-137077727D01*
X174734853Y-136816574D01*
X174790000Y-136539335D01*
X174790000Y-136256665D01*
X174734853Y-135979426D01*
X174626680Y-135718273D01*
X174469637Y-135483241D01*
X174271039Y-135284643D01*
X174279482Y-135283812D01*
X174399180Y-135247502D01*
X174509494Y-135188537D01*
X174606185Y-135109185D01*
X174685537Y-135012494D01*
X174744502Y-134902180D01*
X174780812Y-134782482D01*
X174793072Y-134658000D01*
X174793072Y-133716665D01*
X179540000Y-133716665D01*
X179540000Y-133999335D01*
X179595147Y-134276574D01*
X179703320Y-134537727D01*
X179860363Y-134772759D01*
X180060241Y-134972637D01*
X180292759Y-135128000D01*
X180060241Y-135283363D01*
X179860363Y-135483241D01*
X179703320Y-135718273D01*
X179595147Y-135979426D01*
X179540000Y-136256665D01*
X179540000Y-136539335D01*
X179595147Y-136816574D01*
X179703320Y-137077727D01*
X179860363Y-137312759D01*
X180060241Y-137512637D01*
X180292759Y-137668000D01*
X180060241Y-137823363D01*
X179860363Y-138023241D01*
X179703320Y-138258273D01*
X179595147Y-138519426D01*
X179540000Y-138796665D01*
X179540000Y-139079335D01*
X179595147Y-139356574D01*
X179703320Y-139617727D01*
X179860363Y-139852759D01*
X180060241Y-140052637D01*
X180292759Y-140208000D01*
X180060241Y-140363363D01*
X179860363Y-140563241D01*
X179703320Y-140798273D01*
X179595147Y-141059426D01*
X179540000Y-141336665D01*
X179540000Y-141619335D01*
X179595147Y-141896574D01*
X179703320Y-142157727D01*
X179860363Y-142392759D01*
X180060241Y-142592637D01*
X180295273Y-142749680D01*
X180556426Y-142857853D01*
X180833665Y-142913000D01*
X181116335Y-142913000D01*
X181393574Y-142857853D01*
X181654727Y-142749680D01*
X181889759Y-142592637D01*
X182089637Y-142392759D01*
X182246680Y-142157727D01*
X182354853Y-141896574D01*
X182410000Y-141619335D01*
X182410000Y-141336665D01*
X182401915Y-141296017D01*
X183764090Y-141296017D01*
X183805078Y-141568133D01*
X183898364Y-141827023D01*
X183960344Y-141942980D01*
X184200435Y-142009960D01*
X184986395Y-141224000D01*
X185345605Y-141224000D01*
X186131565Y-142009960D01*
X186371656Y-141942980D01*
X186433079Y-141812356D01*
X186438364Y-141827023D01*
X186500344Y-141942980D01*
X186740435Y-142009960D01*
X187526395Y-141224000D01*
X187885605Y-141224000D01*
X188671565Y-142009960D01*
X188911656Y-141942980D01*
X189028756Y-141693952D01*
X189095023Y-141426865D01*
X189101157Y-141296017D01*
X204084090Y-141296017D01*
X204125078Y-141568133D01*
X204218364Y-141827023D01*
X204280344Y-141942980D01*
X204520435Y-142009960D01*
X205306395Y-141224000D01*
X205665605Y-141224000D01*
X206451565Y-142009960D01*
X206691656Y-141942980D01*
X206753079Y-141812356D01*
X206758364Y-141827023D01*
X206820344Y-141942980D01*
X207060435Y-142009960D01*
X207846395Y-141224000D01*
X207060435Y-140438040D01*
X206820344Y-140505020D01*
X206758921Y-140635644D01*
X206753636Y-140620977D01*
X206691656Y-140505020D01*
X206451565Y-140438040D01*
X205665605Y-141224000D01*
X205306395Y-141224000D01*
X204520435Y-140438040D01*
X204280344Y-140505020D01*
X204163244Y-140754048D01*
X204096977Y-141021135D01*
X204084090Y-141296017D01*
X189101157Y-141296017D01*
X189107910Y-141151983D01*
X189066922Y-140879867D01*
X188973636Y-140620977D01*
X188911656Y-140505020D01*
X188671565Y-140438040D01*
X187885605Y-141224000D01*
X187526395Y-141224000D01*
X186740435Y-140438040D01*
X186500344Y-140505020D01*
X186438921Y-140635644D01*
X186433636Y-140620977D01*
X186371656Y-140505020D01*
X186131565Y-140438040D01*
X185345605Y-141224000D01*
X184986395Y-141224000D01*
X184200435Y-140438040D01*
X183960344Y-140505020D01*
X183843244Y-140754048D01*
X183776977Y-141021135D01*
X183764090Y-141296017D01*
X182401915Y-141296017D01*
X182354853Y-141059426D01*
X182246680Y-140798273D01*
X182089637Y-140563241D01*
X181889759Y-140363363D01*
X181657241Y-140208000D01*
X181889759Y-140052637D01*
X182089637Y-139852759D01*
X182246680Y-139617727D01*
X182354853Y-139356574D01*
X182410000Y-139079335D01*
X182410000Y-138796665D01*
X182354853Y-138519426D01*
X182246680Y-138258273D01*
X182089637Y-138023241D01*
X181889759Y-137823363D01*
X181657241Y-137668000D01*
X181889759Y-137512637D01*
X182089637Y-137312759D01*
X182246680Y-137077727D01*
X182354853Y-136816574D01*
X182410000Y-136539335D01*
X182410000Y-136256665D01*
X182354853Y-135979426D01*
X182246680Y-135718273D01*
X182089637Y-135483241D01*
X181889759Y-135283363D01*
X181657241Y-135128000D01*
X181889759Y-134972637D01*
X182089637Y-134772759D01*
X182246680Y-134537727D01*
X182354853Y-134276574D01*
X182410000Y-133999335D01*
X182410000Y-133716665D01*
X182354853Y-133439426D01*
X182246680Y-133178273D01*
X182089637Y-132943241D01*
X181889759Y-132743363D01*
X181654727Y-132586320D01*
X181393574Y-132478147D01*
X181116335Y-132423000D01*
X180833665Y-132423000D01*
X180556426Y-132478147D01*
X180295273Y-132586320D01*
X180060241Y-132743363D01*
X179860363Y-132943241D01*
X179703320Y-133178273D01*
X179595147Y-133439426D01*
X179540000Y-133716665D01*
X174793072Y-133716665D01*
X174793072Y-133058000D01*
X174780812Y-132933518D01*
X174744502Y-132813820D01*
X174685537Y-132703506D01*
X174606185Y-132606815D01*
X174509494Y-132527463D01*
X174399180Y-132468498D01*
X174279482Y-132432188D01*
X174155000Y-132419928D01*
X172555000Y-132419928D01*
X172430518Y-132432188D01*
X172310820Y-132468498D01*
X172200506Y-132527463D01*
X172103815Y-132606815D01*
X172024463Y-132703506D01*
X171965498Y-132813820D01*
X171929188Y-132933518D01*
X171916928Y-133058000D01*
X164026791Y-133058000D01*
X164036011Y-133035743D01*
X164095000Y-132739184D01*
X164095000Y-132436816D01*
X164036011Y-132140257D01*
X163920299Y-131860905D01*
X163752312Y-131609495D01*
X163538505Y-131395688D01*
X163287095Y-131227701D01*
X163007743Y-131111989D01*
X162711184Y-131053000D01*
X162408816Y-131053000D01*
X162112257Y-131111989D01*
X161832905Y-131227701D01*
X161581495Y-131395688D01*
X161367688Y-131609495D01*
X161199701Y-131860905D01*
X161083989Y-132140257D01*
X161025000Y-132436816D01*
X160070000Y-132436816D01*
X160070000Y-130926408D01*
X183769000Y-130926408D01*
X183769000Y-131201592D01*
X183822686Y-131471490D01*
X183927995Y-131725727D01*
X184080880Y-131954535D01*
X184275465Y-132149120D01*
X184504273Y-132302005D01*
X184581515Y-132334000D01*
X184504273Y-132365995D01*
X184275465Y-132518880D01*
X184080880Y-132713465D01*
X183927995Y-132942273D01*
X183822686Y-133196510D01*
X183769000Y-133466408D01*
X183769000Y-133741592D01*
X183822686Y-134011490D01*
X183927995Y-134265727D01*
X184080880Y-134494535D01*
X184275465Y-134689120D01*
X184504273Y-134842005D01*
X184581515Y-134874000D01*
X184504273Y-134905995D01*
X184275465Y-135058880D01*
X184080880Y-135253465D01*
X183927995Y-135482273D01*
X183822686Y-135736510D01*
X183769000Y-136006408D01*
X183769000Y-136281592D01*
X183822686Y-136551490D01*
X183927995Y-136805727D01*
X184080880Y-137034535D01*
X184275465Y-137229120D01*
X184504273Y-137382005D01*
X184581515Y-137414000D01*
X184504273Y-137445995D01*
X184275465Y-137598880D01*
X184080880Y-137793465D01*
X183927995Y-138022273D01*
X183822686Y-138276510D01*
X183769000Y-138546408D01*
X183769000Y-138821592D01*
X183822686Y-139091490D01*
X183927995Y-139345727D01*
X184080880Y-139574535D01*
X184275465Y-139769120D01*
X184504273Y-139922005D01*
X184575943Y-139951692D01*
X184562977Y-139956364D01*
X184447020Y-140018344D01*
X184380040Y-140258435D01*
X185166000Y-141044395D01*
X185951960Y-140258435D01*
X185884980Y-140018344D01*
X185749240Y-139954515D01*
X185827727Y-139922005D01*
X186056535Y-139769120D01*
X186251120Y-139574535D01*
X186404005Y-139345727D01*
X186436000Y-139268485D01*
X186467995Y-139345727D01*
X186620880Y-139574535D01*
X186815465Y-139769120D01*
X187044273Y-139922005D01*
X187115943Y-139951692D01*
X187102977Y-139956364D01*
X186987020Y-140018344D01*
X186920040Y-140258435D01*
X187706000Y-141044395D01*
X188491960Y-140258435D01*
X188424980Y-140018344D01*
X188289240Y-139954515D01*
X188367727Y-139922005D01*
X188596535Y-139769120D01*
X188791120Y-139574535D01*
X188944005Y-139345727D01*
X189049314Y-139091490D01*
X189103000Y-138821592D01*
X189103000Y-138546408D01*
X189049314Y-138276510D01*
X188944005Y-138022273D01*
X188791120Y-137793465D01*
X188596535Y-137598880D01*
X188367727Y-137445995D01*
X188290485Y-137414000D01*
X188367727Y-137382005D01*
X188596535Y-137229120D01*
X188791120Y-137034535D01*
X188944005Y-136805727D01*
X189049314Y-136551490D01*
X189103000Y-136281592D01*
X189103000Y-136006408D01*
X189049314Y-135736510D01*
X188944005Y-135482273D01*
X188791120Y-135253465D01*
X188596535Y-135058880D01*
X188367727Y-134905995D01*
X188290485Y-134874000D01*
X188367727Y-134842005D01*
X188596535Y-134689120D01*
X188791120Y-134494535D01*
X188944005Y-134265727D01*
X189049314Y-134011490D01*
X189103000Y-133741592D01*
X189103000Y-133466408D01*
X189049314Y-133196510D01*
X188944005Y-132942273D01*
X188791120Y-132713465D01*
X188596535Y-132518880D01*
X188367727Y-132365995D01*
X188290485Y-132334000D01*
X188367727Y-132302005D01*
X188596535Y-132149120D01*
X188791120Y-131954535D01*
X188944005Y-131725727D01*
X189049314Y-131471490D01*
X189103000Y-131201592D01*
X189103000Y-130926408D01*
X189049314Y-130656510D01*
X188944005Y-130402273D01*
X188791120Y-130173465D01*
X188596535Y-129978880D01*
X188367727Y-129825995D01*
X188296057Y-129796308D01*
X188309023Y-129791636D01*
X188424980Y-129729656D01*
X188491960Y-129489565D01*
X187706000Y-128703605D01*
X186920040Y-129489565D01*
X186987020Y-129729656D01*
X187122760Y-129793485D01*
X187044273Y-129825995D01*
X186815465Y-129978880D01*
X186620880Y-130173465D01*
X186467995Y-130402273D01*
X186436000Y-130479515D01*
X186404005Y-130402273D01*
X186251120Y-130173465D01*
X186056535Y-129978880D01*
X185827727Y-129825995D01*
X185756057Y-129796308D01*
X185769023Y-129791636D01*
X185884980Y-129729656D01*
X185951960Y-129489565D01*
X185166000Y-128703605D01*
X184380040Y-129489565D01*
X184447020Y-129729656D01*
X184582760Y-129793485D01*
X184504273Y-129825995D01*
X184275465Y-129978880D01*
X184080880Y-130173465D01*
X183927995Y-130402273D01*
X183822686Y-130656510D01*
X183769000Y-130926408D01*
X160070000Y-130926408D01*
X160070000Y-128596017D01*
X183764090Y-128596017D01*
X183805078Y-128868133D01*
X183898364Y-129127023D01*
X183960344Y-129242980D01*
X184200435Y-129309960D01*
X184986395Y-128524000D01*
X185345605Y-128524000D01*
X186131565Y-129309960D01*
X186371656Y-129242980D01*
X186433079Y-129112356D01*
X186438364Y-129127023D01*
X186500344Y-129242980D01*
X186740435Y-129309960D01*
X187526395Y-128524000D01*
X187885605Y-128524000D01*
X188671565Y-129309960D01*
X188911656Y-129242980D01*
X189028756Y-128993952D01*
X189095023Y-128726865D01*
X189101157Y-128596017D01*
X204084090Y-128596017D01*
X204125078Y-128868133D01*
X204218364Y-129127023D01*
X204280344Y-129242980D01*
X204520435Y-129309960D01*
X205306395Y-128524000D01*
X205665605Y-128524000D01*
X206451565Y-129309960D01*
X206691656Y-129242980D01*
X206753079Y-129112356D01*
X206758364Y-129127023D01*
X206820344Y-129242980D01*
X207060435Y-129309960D01*
X207846395Y-128524000D01*
X207060435Y-127738040D01*
X206820344Y-127805020D01*
X206758921Y-127935644D01*
X206753636Y-127920977D01*
X206691656Y-127805020D01*
X206451565Y-127738040D01*
X205665605Y-128524000D01*
X205306395Y-128524000D01*
X204520435Y-127738040D01*
X204280344Y-127805020D01*
X204163244Y-128054048D01*
X204096977Y-128321135D01*
X204084090Y-128596017D01*
X189101157Y-128596017D01*
X189107910Y-128451983D01*
X189066922Y-128179867D01*
X188973636Y-127920977D01*
X188911656Y-127805020D01*
X188671565Y-127738040D01*
X187885605Y-128524000D01*
X187526395Y-128524000D01*
X186740435Y-127738040D01*
X186500344Y-127805020D01*
X186438921Y-127935644D01*
X186433636Y-127920977D01*
X186371656Y-127805020D01*
X186131565Y-127738040D01*
X185345605Y-128524000D01*
X184986395Y-128524000D01*
X184200435Y-127738040D01*
X183960344Y-127805020D01*
X183843244Y-128054048D01*
X183776977Y-128321135D01*
X183764090Y-128596017D01*
X160070000Y-128596017D01*
X160070000Y-124816816D01*
X163565000Y-124816816D01*
X163565000Y-125119184D01*
X163623989Y-125415743D01*
X163739701Y-125695095D01*
X163907688Y-125946505D01*
X164121495Y-126160312D01*
X164372905Y-126328299D01*
X164652257Y-126444011D01*
X164948816Y-126503000D01*
X165251184Y-126503000D01*
X165547743Y-126444011D01*
X165827095Y-126328299D01*
X166078505Y-126160312D01*
X166292312Y-125946505D01*
X166460299Y-125695095D01*
X166576011Y-125415743D01*
X166635000Y-125119184D01*
X166635000Y-124816816D01*
X166576011Y-124520257D01*
X166460299Y-124240905D01*
X166292312Y-123989495D01*
X166078505Y-123775688D01*
X165827095Y-123607701D01*
X165547743Y-123491989D01*
X165251184Y-123433000D01*
X164948816Y-123433000D01*
X164652257Y-123491989D01*
X164372905Y-123607701D01*
X164121495Y-123775688D01*
X163907688Y-123989495D01*
X163739701Y-124240905D01*
X163623989Y-124520257D01*
X163565000Y-124816816D01*
X160070000Y-124816816D01*
X160070000Y-122948000D01*
X170286928Y-122948000D01*
X170286928Y-124448000D01*
X170299188Y-124572482D01*
X170335498Y-124692180D01*
X170394463Y-124802494D01*
X170473815Y-124899185D01*
X170570506Y-124978537D01*
X170680820Y-125037502D01*
X170800518Y-125073812D01*
X170925000Y-125086072D01*
X171975000Y-125086072D01*
X172099482Y-125073812D01*
X172219180Y-125037502D01*
X172283902Y-125002907D01*
X172492601Y-125066215D01*
X172720000Y-125088612D01*
X172947400Y-125066215D01*
X173166060Y-124999885D01*
X173354669Y-124899071D01*
X173413118Y-124940275D01*
X173622663Y-125033272D01*
X173684190Y-125041964D01*
X173863000Y-124916163D01*
X173863000Y-124151108D01*
X173863215Y-124150399D01*
X173880000Y-123979978D01*
X173880000Y-123825000D01*
X174117000Y-123825000D01*
X174117000Y-124916163D01*
X174295810Y-125041964D01*
X174357337Y-125033272D01*
X174566882Y-124940275D01*
X174754258Y-124808184D01*
X174912264Y-124642076D01*
X175034828Y-124448334D01*
X175117239Y-124234404D01*
X175156331Y-124008507D01*
X174996598Y-123825000D01*
X174117000Y-123825000D01*
X173880000Y-123825000D01*
X173880000Y-123416021D01*
X173863215Y-123245600D01*
X173863000Y-123244891D01*
X173863000Y-122479837D01*
X174117000Y-122479837D01*
X174117000Y-123571000D01*
X174996598Y-123571000D01*
X175156331Y-123387493D01*
X175117239Y-123161596D01*
X175034828Y-122947666D01*
X174912264Y-122753924D01*
X174754258Y-122587816D01*
X174566882Y-122455725D01*
X174357337Y-122362728D01*
X174295810Y-122354036D01*
X174117000Y-122479837D01*
X173863000Y-122479837D01*
X173684190Y-122354036D01*
X173622663Y-122362728D01*
X173413118Y-122455725D01*
X173354669Y-122496929D01*
X173166059Y-122396115D01*
X172947399Y-122329785D01*
X172720000Y-122307388D01*
X172492600Y-122329785D01*
X172283902Y-122393093D01*
X172219180Y-122358498D01*
X172099482Y-122322188D01*
X171975000Y-122309928D01*
X170925000Y-122309928D01*
X170800518Y-122322188D01*
X170680820Y-122358498D01*
X170570506Y-122417463D01*
X170473815Y-122496815D01*
X170394463Y-122593506D01*
X170335498Y-122703820D01*
X170299188Y-122823518D01*
X170286928Y-122948000D01*
X160070000Y-122948000D01*
X160070000Y-118226408D01*
X183769000Y-118226408D01*
X183769000Y-118501592D01*
X183822686Y-118771490D01*
X183927995Y-119025727D01*
X184080880Y-119254535D01*
X184275465Y-119449120D01*
X184504273Y-119602005D01*
X184581515Y-119634000D01*
X184504273Y-119665995D01*
X184275465Y-119818880D01*
X184080880Y-120013465D01*
X183927995Y-120242273D01*
X183822686Y-120496510D01*
X183769000Y-120766408D01*
X183769000Y-121041592D01*
X183822686Y-121311490D01*
X183927995Y-121565727D01*
X184080880Y-121794535D01*
X184275465Y-121989120D01*
X184504273Y-122142005D01*
X184581515Y-122174000D01*
X184504273Y-122205995D01*
X184275465Y-122358880D01*
X184080880Y-122553465D01*
X183927995Y-122782273D01*
X183822686Y-123036510D01*
X183769000Y-123306408D01*
X183769000Y-123581592D01*
X183822686Y-123851490D01*
X183927995Y-124105727D01*
X184080880Y-124334535D01*
X184275465Y-124529120D01*
X184504273Y-124682005D01*
X184581515Y-124714000D01*
X184504273Y-124745995D01*
X184275465Y-124898880D01*
X184080880Y-125093465D01*
X183927995Y-125322273D01*
X183822686Y-125576510D01*
X183769000Y-125846408D01*
X183769000Y-126121592D01*
X183822686Y-126391490D01*
X183927995Y-126645727D01*
X184080880Y-126874535D01*
X184275465Y-127069120D01*
X184504273Y-127222005D01*
X184575943Y-127251692D01*
X184562977Y-127256364D01*
X184447020Y-127318344D01*
X184380040Y-127558435D01*
X185166000Y-128344395D01*
X185951960Y-127558435D01*
X185884980Y-127318344D01*
X185749240Y-127254515D01*
X185827727Y-127222005D01*
X186056535Y-127069120D01*
X186251120Y-126874535D01*
X186404005Y-126645727D01*
X186436000Y-126568485D01*
X186467995Y-126645727D01*
X186620880Y-126874535D01*
X186815465Y-127069120D01*
X187044273Y-127222005D01*
X187115943Y-127251692D01*
X187102977Y-127256364D01*
X186987020Y-127318344D01*
X186920040Y-127558435D01*
X187706000Y-128344395D01*
X188491960Y-127558435D01*
X188424980Y-127318344D01*
X188289240Y-127254515D01*
X188367727Y-127222005D01*
X188596535Y-127069120D01*
X188791120Y-126874535D01*
X188944005Y-126645727D01*
X189049314Y-126391490D01*
X189103000Y-126121592D01*
X189103000Y-125846408D01*
X189049314Y-125576510D01*
X188944005Y-125322273D01*
X188791120Y-125093465D01*
X188596535Y-124898880D01*
X188367727Y-124745995D01*
X188290485Y-124714000D01*
X188367727Y-124682005D01*
X188596535Y-124529120D01*
X188791120Y-124334535D01*
X188944005Y-124105727D01*
X189049314Y-123851490D01*
X189103000Y-123581592D01*
X189103000Y-123306408D01*
X189049314Y-123036510D01*
X188944005Y-122782273D01*
X188791120Y-122553465D01*
X188596535Y-122358880D01*
X188367727Y-122205995D01*
X188290485Y-122174000D01*
X188367727Y-122142005D01*
X188596535Y-121989120D01*
X188791120Y-121794535D01*
X188944005Y-121565727D01*
X189049314Y-121311490D01*
X189103000Y-121041592D01*
X189103000Y-120766408D01*
X189049314Y-120496510D01*
X188944005Y-120242273D01*
X188791120Y-120013465D01*
X188596535Y-119818880D01*
X188367727Y-119665995D01*
X188290485Y-119634000D01*
X188367727Y-119602005D01*
X188596535Y-119449120D01*
X188791120Y-119254535D01*
X188944005Y-119025727D01*
X189049314Y-118771490D01*
X189103000Y-118501592D01*
X189103000Y-118226408D01*
X189049314Y-117956510D01*
X188944005Y-117702273D01*
X188791120Y-117473465D01*
X188596535Y-117278880D01*
X188367727Y-117125995D01*
X188296057Y-117096308D01*
X188309023Y-117091636D01*
X188424980Y-117029656D01*
X188491960Y-116789565D01*
X187706000Y-116003605D01*
X186920040Y-116789565D01*
X186987020Y-117029656D01*
X187122760Y-117093485D01*
X187044273Y-117125995D01*
X186815465Y-117278880D01*
X186620880Y-117473465D01*
X186467995Y-117702273D01*
X186436000Y-117779515D01*
X186404005Y-117702273D01*
X186251120Y-117473465D01*
X186056535Y-117278880D01*
X185827727Y-117125995D01*
X185756057Y-117096308D01*
X185769023Y-117091636D01*
X185884980Y-117029656D01*
X185951960Y-116789565D01*
X185166000Y-116003605D01*
X184380040Y-116789565D01*
X184447020Y-117029656D01*
X184582760Y-117093485D01*
X184504273Y-117125995D01*
X184275465Y-117278880D01*
X184080880Y-117473465D01*
X183927995Y-117702273D01*
X183822686Y-117956510D01*
X183769000Y-118226408D01*
X160070000Y-118226408D01*
X160070000Y-115896017D01*
X183764090Y-115896017D01*
X183805078Y-116168133D01*
X183898364Y-116427023D01*
X183960344Y-116542980D01*
X184200435Y-116609960D01*
X184986395Y-115824000D01*
X185345605Y-115824000D01*
X186131565Y-116609960D01*
X186371656Y-116542980D01*
X186433079Y-116412356D01*
X186438364Y-116427023D01*
X186500344Y-116542980D01*
X186740435Y-116609960D01*
X187526395Y-115824000D01*
X187885605Y-115824000D01*
X188671565Y-116609960D01*
X188911656Y-116542980D01*
X189028756Y-116293952D01*
X189095023Y-116026865D01*
X189101157Y-115896017D01*
X204084090Y-115896017D01*
X204125078Y-116168133D01*
X204218364Y-116427023D01*
X204280344Y-116542980D01*
X204520435Y-116609960D01*
X205306395Y-115824000D01*
X205665605Y-115824000D01*
X206451565Y-116609960D01*
X206691656Y-116542980D01*
X206753079Y-116412356D01*
X206758364Y-116427023D01*
X206820344Y-116542980D01*
X207060435Y-116609960D01*
X207846395Y-115824000D01*
X207060435Y-115038040D01*
X206820344Y-115105020D01*
X206758921Y-115235644D01*
X206753636Y-115220977D01*
X206691656Y-115105020D01*
X206451565Y-115038040D01*
X205665605Y-115824000D01*
X205306395Y-115824000D01*
X204520435Y-115038040D01*
X204280344Y-115105020D01*
X204163244Y-115354048D01*
X204096977Y-115621135D01*
X204084090Y-115896017D01*
X189101157Y-115896017D01*
X189107910Y-115751983D01*
X189066922Y-115479867D01*
X188973636Y-115220977D01*
X188911656Y-115105020D01*
X188671565Y-115038040D01*
X187885605Y-115824000D01*
X187526395Y-115824000D01*
X186740435Y-115038040D01*
X186500344Y-115105020D01*
X186438921Y-115235644D01*
X186433636Y-115220977D01*
X186371656Y-115105020D01*
X186131565Y-115038040D01*
X185345605Y-115824000D01*
X184986395Y-115824000D01*
X184200435Y-115038040D01*
X183960344Y-115105020D01*
X183843244Y-115354048D01*
X183776977Y-115621135D01*
X183764090Y-115896017D01*
X160070000Y-115896017D01*
X160070000Y-110098000D01*
X163053928Y-110098000D01*
X163053928Y-111898000D01*
X163066188Y-112022482D01*
X163102498Y-112142180D01*
X163161463Y-112252494D01*
X163240815Y-112349185D01*
X163337506Y-112428537D01*
X163447820Y-112487502D01*
X163466127Y-112493056D01*
X163399688Y-112559495D01*
X163231701Y-112810905D01*
X163115989Y-113090257D01*
X163057000Y-113386816D01*
X163057000Y-113689184D01*
X163115989Y-113985743D01*
X163231701Y-114265095D01*
X163399688Y-114516505D01*
X163613495Y-114730312D01*
X163864905Y-114898299D01*
X164144257Y-115014011D01*
X164440816Y-115073000D01*
X164743184Y-115073000D01*
X165039743Y-115014011D01*
X165319095Y-114898299D01*
X165570505Y-114730312D01*
X165784312Y-114516505D01*
X165952299Y-114265095D01*
X166068011Y-113985743D01*
X166127000Y-113689184D01*
X166127000Y-113386816D01*
X166068011Y-113090257D01*
X165952299Y-112810905D01*
X165784312Y-112559495D01*
X165717873Y-112493056D01*
X165736180Y-112487502D01*
X165846494Y-112428537D01*
X165943185Y-112349185D01*
X166022537Y-112252494D01*
X166081502Y-112142180D01*
X166117812Y-112022482D01*
X166130072Y-111898000D01*
X166130072Y-110098000D01*
X166117812Y-109973518D01*
X166081502Y-109853820D01*
X166022537Y-109743506D01*
X165943185Y-109646815D01*
X165846494Y-109567463D01*
X165736180Y-109508498D01*
X165616482Y-109472188D01*
X165492000Y-109459928D01*
X163692000Y-109459928D01*
X163567518Y-109472188D01*
X163447820Y-109508498D01*
X163337506Y-109567463D01*
X163240815Y-109646815D01*
X163161463Y-109743506D01*
X163102498Y-109853820D01*
X163066188Y-109973518D01*
X163053928Y-110098000D01*
X160070000Y-110098000D01*
X160070000Y-105525000D01*
X171429928Y-105525000D01*
X171442188Y-105649482D01*
X171478498Y-105769180D01*
X171537463Y-105879494D01*
X171616815Y-105976185D01*
X171713506Y-106055537D01*
X171823820Y-106114502D01*
X171943518Y-106150812D01*
X172068000Y-106163072D01*
X172307250Y-106160000D01*
X172466000Y-106001250D01*
X172466000Y-104902000D01*
X171591750Y-104902000D01*
X171433000Y-105060750D01*
X171429928Y-105525000D01*
X160070000Y-105525000D01*
X160070000Y-104025000D01*
X171429928Y-104025000D01*
X171433000Y-104489250D01*
X171591750Y-104648000D01*
X172466000Y-104648000D01*
X172466000Y-104493022D01*
X172703000Y-104493022D01*
X172703000Y-105056979D01*
X172719785Y-105227400D01*
X172720000Y-105228109D01*
X172720000Y-106001250D01*
X172878750Y-106160000D01*
X173118000Y-106163072D01*
X173242482Y-106150812D01*
X173362180Y-106114502D01*
X173426902Y-106079907D01*
X173635601Y-106143215D01*
X173863000Y-106165612D01*
X174090400Y-106143215D01*
X174309060Y-106076885D01*
X174498000Y-105975894D01*
X174686941Y-106076885D01*
X174905601Y-106143215D01*
X175133000Y-106165612D01*
X175360400Y-106143215D01*
X175579060Y-106076885D01*
X175780579Y-105969171D01*
X175957212Y-105824212D01*
X176102171Y-105647579D01*
X176166937Y-105526408D01*
X183769000Y-105526408D01*
X183769000Y-105801592D01*
X183822686Y-106071490D01*
X183927995Y-106325727D01*
X184080880Y-106554535D01*
X184275465Y-106749120D01*
X184504273Y-106902005D01*
X184581515Y-106934000D01*
X184504273Y-106965995D01*
X184275465Y-107118880D01*
X184080880Y-107313465D01*
X183927995Y-107542273D01*
X183822686Y-107796510D01*
X183769000Y-108066408D01*
X183769000Y-108341592D01*
X183822686Y-108611490D01*
X183927995Y-108865727D01*
X184080880Y-109094535D01*
X184275465Y-109289120D01*
X184504273Y-109442005D01*
X184581515Y-109474000D01*
X184504273Y-109505995D01*
X184275465Y-109658880D01*
X184080880Y-109853465D01*
X183927995Y-110082273D01*
X183822686Y-110336510D01*
X183769000Y-110606408D01*
X183769000Y-110881592D01*
X183822686Y-111151490D01*
X183927995Y-111405727D01*
X184080880Y-111634535D01*
X184275465Y-111829120D01*
X184504273Y-111982005D01*
X184581515Y-112014000D01*
X184504273Y-112045995D01*
X184275465Y-112198880D01*
X184080880Y-112393465D01*
X183927995Y-112622273D01*
X183822686Y-112876510D01*
X183769000Y-113146408D01*
X183769000Y-113421592D01*
X183822686Y-113691490D01*
X183927995Y-113945727D01*
X184080880Y-114174535D01*
X184275465Y-114369120D01*
X184504273Y-114522005D01*
X184575943Y-114551692D01*
X184562977Y-114556364D01*
X184447020Y-114618344D01*
X184380040Y-114858435D01*
X185166000Y-115644395D01*
X185951960Y-114858435D01*
X185884980Y-114618344D01*
X185749240Y-114554515D01*
X185827727Y-114522005D01*
X186056535Y-114369120D01*
X186251120Y-114174535D01*
X186404005Y-113945727D01*
X186436000Y-113868485D01*
X186467995Y-113945727D01*
X186620880Y-114174535D01*
X186815465Y-114369120D01*
X187044273Y-114522005D01*
X187115943Y-114551692D01*
X187102977Y-114556364D01*
X186987020Y-114618344D01*
X186920040Y-114858435D01*
X187706000Y-115644395D01*
X188491960Y-114858435D01*
X188424980Y-114618344D01*
X188289240Y-114554515D01*
X188367727Y-114522005D01*
X188596535Y-114369120D01*
X188791120Y-114174535D01*
X188944005Y-113945727D01*
X189049314Y-113691490D01*
X189103000Y-113421592D01*
X189103000Y-113146408D01*
X189049314Y-112876510D01*
X188944005Y-112622273D01*
X188791120Y-112393465D01*
X188596535Y-112198880D01*
X188367727Y-112045995D01*
X188290485Y-112014000D01*
X188367727Y-111982005D01*
X188596535Y-111829120D01*
X188791120Y-111634535D01*
X188944005Y-111405727D01*
X189049314Y-111151490D01*
X189103000Y-110881592D01*
X189103000Y-110606408D01*
X189049314Y-110336510D01*
X188944005Y-110082273D01*
X188791120Y-109853465D01*
X188596535Y-109658880D01*
X188367727Y-109505995D01*
X188290485Y-109474000D01*
X188367727Y-109442005D01*
X188596535Y-109289120D01*
X188791120Y-109094535D01*
X188944005Y-108865727D01*
X189049314Y-108611490D01*
X189103000Y-108341592D01*
X189103000Y-108066408D01*
X189049314Y-107796510D01*
X188944005Y-107542273D01*
X188791120Y-107313465D01*
X188596535Y-107118880D01*
X188367727Y-106965995D01*
X188290485Y-106934000D01*
X188367727Y-106902005D01*
X188596535Y-106749120D01*
X188791120Y-106554535D01*
X188944005Y-106325727D01*
X189049314Y-106071490D01*
X189103000Y-105801592D01*
X189103000Y-105526408D01*
X189049314Y-105256510D01*
X188944005Y-105002273D01*
X188791120Y-104773465D01*
X188596535Y-104578880D01*
X188367727Y-104425995D01*
X188296057Y-104396308D01*
X188309023Y-104391636D01*
X188424980Y-104329656D01*
X188491960Y-104089565D01*
X187706000Y-103303605D01*
X186920040Y-104089565D01*
X186987020Y-104329656D01*
X187122760Y-104393485D01*
X187044273Y-104425995D01*
X186815465Y-104578880D01*
X186620880Y-104773465D01*
X186467995Y-105002273D01*
X186436000Y-105079515D01*
X186404005Y-105002273D01*
X186251120Y-104773465D01*
X186056535Y-104578880D01*
X185827727Y-104425995D01*
X185756057Y-104396308D01*
X185769023Y-104391636D01*
X185884980Y-104329656D01*
X185951960Y-104089565D01*
X185166000Y-103303605D01*
X184380040Y-104089565D01*
X184447020Y-104329656D01*
X184582760Y-104393485D01*
X184504273Y-104425995D01*
X184275465Y-104578880D01*
X184080880Y-104773465D01*
X183927995Y-105002273D01*
X183822686Y-105256510D01*
X183769000Y-105526408D01*
X176166937Y-105526408D01*
X176209885Y-105446059D01*
X176276215Y-105227399D01*
X176293000Y-105056978D01*
X176293000Y-104493021D01*
X176276215Y-104322600D01*
X176209885Y-104103940D01*
X176102171Y-103902421D01*
X175957212Y-103725788D01*
X175780578Y-103580829D01*
X175579059Y-103473115D01*
X175360399Y-103406785D01*
X175133000Y-103384388D01*
X174905600Y-103406785D01*
X174686940Y-103473115D01*
X174498000Y-103574106D01*
X174309059Y-103473115D01*
X174090399Y-103406785D01*
X173863000Y-103384388D01*
X173635600Y-103406785D01*
X173426902Y-103470093D01*
X173362180Y-103435498D01*
X173242482Y-103399188D01*
X173118000Y-103386928D01*
X172878750Y-103390000D01*
X172720000Y-103548750D01*
X172720000Y-104321892D01*
X172719785Y-104322601D01*
X172703000Y-104493022D01*
X172466000Y-104493022D01*
X172466000Y-103548750D01*
X172307250Y-103390000D01*
X172068000Y-103386928D01*
X171943518Y-103399188D01*
X171823820Y-103435498D01*
X171713506Y-103494463D01*
X171616815Y-103573815D01*
X171537463Y-103670506D01*
X171478498Y-103780820D01*
X171442188Y-103900518D01*
X171429928Y-104025000D01*
X160070000Y-104025000D01*
X160070000Y-103196017D01*
X183764090Y-103196017D01*
X183805078Y-103468133D01*
X183898364Y-103727023D01*
X183960344Y-103842980D01*
X184200435Y-103909960D01*
X184986395Y-103124000D01*
X185345605Y-103124000D01*
X186131565Y-103909960D01*
X186371656Y-103842980D01*
X186433079Y-103712356D01*
X186438364Y-103727023D01*
X186500344Y-103842980D01*
X186740435Y-103909960D01*
X187526395Y-103124000D01*
X187885605Y-103124000D01*
X188671565Y-103909960D01*
X188911656Y-103842980D01*
X189028756Y-103593952D01*
X189095023Y-103326865D01*
X189101157Y-103196017D01*
X204084090Y-103196017D01*
X204125078Y-103468133D01*
X204218364Y-103727023D01*
X204280344Y-103842980D01*
X204520435Y-103909960D01*
X205306395Y-103124000D01*
X205665605Y-103124000D01*
X206451565Y-103909960D01*
X206691656Y-103842980D01*
X206753079Y-103712356D01*
X206758364Y-103727023D01*
X206820344Y-103842980D01*
X207060435Y-103909960D01*
X207846395Y-103124000D01*
X207060435Y-102338040D01*
X206820344Y-102405020D01*
X206758921Y-102535644D01*
X206753636Y-102520977D01*
X206691656Y-102405020D01*
X206451565Y-102338040D01*
X205665605Y-103124000D01*
X205306395Y-103124000D01*
X204520435Y-102338040D01*
X204280344Y-102405020D01*
X204163244Y-102654048D01*
X204096977Y-102921135D01*
X204084090Y-103196017D01*
X189101157Y-103196017D01*
X189107910Y-103051983D01*
X189066922Y-102779867D01*
X188973636Y-102520977D01*
X188911656Y-102405020D01*
X188671565Y-102338040D01*
X187885605Y-103124000D01*
X187526395Y-103124000D01*
X186740435Y-102338040D01*
X186500344Y-102405020D01*
X186438921Y-102535644D01*
X186433636Y-102520977D01*
X186371656Y-102405020D01*
X186131565Y-102338040D01*
X185345605Y-103124000D01*
X184986395Y-103124000D01*
X184200435Y-102338040D01*
X183960344Y-102405020D01*
X183843244Y-102654048D01*
X183776977Y-102921135D01*
X183764090Y-103196017D01*
X160070000Y-103196017D01*
X160070000Y-97906408D01*
X183769000Y-97906408D01*
X183769000Y-98181592D01*
X183822686Y-98451490D01*
X183927995Y-98705727D01*
X184080880Y-98934535D01*
X184275465Y-99129120D01*
X184504273Y-99282005D01*
X184581515Y-99314000D01*
X184504273Y-99345995D01*
X184275465Y-99498880D01*
X184080880Y-99693465D01*
X183927995Y-99922273D01*
X183822686Y-100176510D01*
X183769000Y-100446408D01*
X183769000Y-100721592D01*
X183822686Y-100991490D01*
X183927995Y-101245727D01*
X184080880Y-101474535D01*
X184275465Y-101669120D01*
X184504273Y-101822005D01*
X184575943Y-101851692D01*
X184562977Y-101856364D01*
X184447020Y-101918344D01*
X184380040Y-102158435D01*
X185166000Y-102944395D01*
X185951960Y-102158435D01*
X185884980Y-101918344D01*
X185749240Y-101854515D01*
X185827727Y-101822005D01*
X186056535Y-101669120D01*
X186251120Y-101474535D01*
X186404005Y-101245727D01*
X186436000Y-101168485D01*
X186467995Y-101245727D01*
X186620880Y-101474535D01*
X186815465Y-101669120D01*
X187044273Y-101822005D01*
X187115943Y-101851692D01*
X187102977Y-101856364D01*
X186987020Y-101918344D01*
X186920040Y-102158435D01*
X187706000Y-102944395D01*
X188491960Y-102158435D01*
X188424980Y-101918344D01*
X188289240Y-101854515D01*
X188367727Y-101822005D01*
X188596535Y-101669120D01*
X188791120Y-101474535D01*
X188944005Y-101245727D01*
X189049314Y-100991490D01*
X189103000Y-100721592D01*
X189103000Y-100446408D01*
X189049314Y-100176510D01*
X188944005Y-99922273D01*
X188791120Y-99693465D01*
X188596535Y-99498880D01*
X188367727Y-99345995D01*
X188290485Y-99314000D01*
X188367727Y-99282005D01*
X188596535Y-99129120D01*
X188791120Y-98934535D01*
X188944005Y-98705727D01*
X189049314Y-98451490D01*
X189103000Y-98181592D01*
X189103000Y-97906408D01*
X189049314Y-97636510D01*
X188944005Y-97382273D01*
X188791120Y-97153465D01*
X188596535Y-96958880D01*
X188367727Y-96805995D01*
X188113490Y-96700686D01*
X187843592Y-96647000D01*
X187568408Y-96647000D01*
X187298510Y-96700686D01*
X187044273Y-96805995D01*
X186815465Y-96958880D01*
X186620880Y-97153465D01*
X186467995Y-97382273D01*
X186436000Y-97459515D01*
X186404005Y-97382273D01*
X186251120Y-97153465D01*
X186056535Y-96958880D01*
X185827727Y-96805995D01*
X185573490Y-96700686D01*
X185303592Y-96647000D01*
X185028408Y-96647000D01*
X184758510Y-96700686D01*
X184504273Y-96805995D01*
X184275465Y-96958880D01*
X184080880Y-97153465D01*
X183927995Y-97382273D01*
X183822686Y-97636510D01*
X183769000Y-97906408D01*
X160070000Y-97906408D01*
X160070000Y-94691565D01*
X176252040Y-94691565D01*
X176319020Y-94931656D01*
X176568048Y-95048756D01*
X176835135Y-95115023D01*
X177110017Y-95127910D01*
X177382133Y-95086922D01*
X177641023Y-94993636D01*
X177756980Y-94931656D01*
X177823960Y-94691565D01*
X181332040Y-94691565D01*
X181399020Y-94931656D01*
X181648048Y-95048756D01*
X181915135Y-95115023D01*
X182190017Y-95127910D01*
X182462133Y-95086922D01*
X182721023Y-94993636D01*
X182836980Y-94931656D01*
X182903960Y-94691565D01*
X182118000Y-93905605D01*
X181332040Y-94691565D01*
X177823960Y-94691565D01*
X177038000Y-93905605D01*
X176252040Y-94691565D01*
X160070000Y-94691565D01*
X160070000Y-93798017D01*
X175636090Y-93798017D01*
X175677078Y-94070133D01*
X175770364Y-94329023D01*
X175832344Y-94444980D01*
X176072435Y-94511960D01*
X176858395Y-93726000D01*
X177217605Y-93726000D01*
X178003565Y-94511960D01*
X178243656Y-94444980D01*
X178360756Y-94195952D01*
X178427023Y-93928865D01*
X178433157Y-93798017D01*
X180716090Y-93798017D01*
X180757078Y-94070133D01*
X180850364Y-94329023D01*
X180912344Y-94444980D01*
X181152435Y-94511960D01*
X181938395Y-93726000D01*
X182297605Y-93726000D01*
X183083565Y-94511960D01*
X183323656Y-94444980D01*
X183440756Y-94195952D01*
X183507023Y-93928865D01*
X183519910Y-93653983D01*
X183478922Y-93381867D01*
X183385636Y-93122977D01*
X183323656Y-93007020D01*
X183083565Y-92940040D01*
X182297605Y-93726000D01*
X181938395Y-93726000D01*
X181152435Y-92940040D01*
X180912344Y-93007020D01*
X180795244Y-93256048D01*
X180728977Y-93523135D01*
X180716090Y-93798017D01*
X178433157Y-93798017D01*
X178439910Y-93653983D01*
X178398922Y-93381867D01*
X178305636Y-93122977D01*
X178243656Y-93007020D01*
X178003565Y-92940040D01*
X177217605Y-93726000D01*
X176858395Y-93726000D01*
X176072435Y-92940040D01*
X175832344Y-93007020D01*
X175715244Y-93256048D01*
X175648977Y-93523135D01*
X175636090Y-93798017D01*
X160070000Y-93798017D01*
X160070000Y-92362881D01*
X160800724Y-92362881D01*
X161160912Y-92852548D01*
X161824882Y-93212849D01*
X162546385Y-93436694D01*
X163297695Y-93515480D01*
X164049938Y-93446178D01*
X164774208Y-93231452D01*
X165442670Y-92879555D01*
X165483088Y-92852548D01*
X165550844Y-92760435D01*
X176252040Y-92760435D01*
X177038000Y-93546395D01*
X177823960Y-92760435D01*
X181332040Y-92760435D01*
X182118000Y-93546395D01*
X182903960Y-92760435D01*
X182836980Y-92520344D01*
X182587952Y-92403244D01*
X182425271Y-92362881D01*
X203345724Y-92362881D01*
X203705912Y-92852548D01*
X204369882Y-93212849D01*
X205091385Y-93436694D01*
X205842695Y-93515480D01*
X206594938Y-93446178D01*
X207319208Y-93231452D01*
X207987670Y-92879555D01*
X208028088Y-92852548D01*
X208388276Y-92362881D01*
X205867000Y-89841605D01*
X203345724Y-92362881D01*
X182425271Y-92362881D01*
X182320865Y-92336977D01*
X182045983Y-92324090D01*
X181773867Y-92365078D01*
X181514977Y-92458364D01*
X181399020Y-92520344D01*
X181332040Y-92760435D01*
X177823960Y-92760435D01*
X177756980Y-92520344D01*
X177507952Y-92403244D01*
X177240865Y-92336977D01*
X176965983Y-92324090D01*
X176693867Y-92365078D01*
X176434977Y-92458364D01*
X176319020Y-92520344D01*
X176252040Y-92760435D01*
X165550844Y-92760435D01*
X165843276Y-92362881D01*
X163322000Y-89841605D01*
X160800724Y-92362881D01*
X160070000Y-92362881D01*
X160070000Y-91717238D01*
X160104445Y-91782670D01*
X160131452Y-91823088D01*
X160621119Y-92183276D01*
X163142395Y-89662000D01*
X163501605Y-89662000D01*
X166022881Y-92183276D01*
X166512548Y-91823088D01*
X166872849Y-91159118D01*
X166907196Y-91048408D01*
X178181000Y-91048408D01*
X178181000Y-91323592D01*
X178234686Y-91593490D01*
X178339995Y-91847727D01*
X178492880Y-92076535D01*
X178687465Y-92271120D01*
X178916273Y-92424005D01*
X179170510Y-92529314D01*
X179440408Y-92583000D01*
X179715592Y-92583000D01*
X179985490Y-92529314D01*
X180239727Y-92424005D01*
X180468535Y-92271120D01*
X180663120Y-92076535D01*
X180816005Y-91847727D01*
X180921314Y-91593490D01*
X180975000Y-91323592D01*
X180975000Y-91048408D01*
X180921314Y-90778510D01*
X180816005Y-90524273D01*
X180663120Y-90295465D01*
X180468535Y-90100880D01*
X180239727Y-89947995D01*
X179985490Y-89842686D01*
X179715592Y-89789000D01*
X179440408Y-89789000D01*
X179170510Y-89842686D01*
X178916273Y-89947995D01*
X178687465Y-90100880D01*
X178492880Y-90295465D01*
X178339995Y-90524273D01*
X178234686Y-90778510D01*
X178181000Y-91048408D01*
X166907196Y-91048408D01*
X167096694Y-90437615D01*
X167175480Y-89686305D01*
X167168595Y-89611565D01*
X176252040Y-89611565D01*
X176319020Y-89851656D01*
X176568048Y-89968756D01*
X176835135Y-90035023D01*
X177110017Y-90047910D01*
X177382133Y-90006922D01*
X177641023Y-89913636D01*
X177756980Y-89851656D01*
X177823960Y-89611565D01*
X181332040Y-89611565D01*
X181399020Y-89851656D01*
X181648048Y-89968756D01*
X181915135Y-90035023D01*
X182190017Y-90047910D01*
X182462133Y-90006922D01*
X182721023Y-89913636D01*
X182836980Y-89851656D01*
X182896670Y-89637695D01*
X202013520Y-89637695D01*
X202082822Y-90389938D01*
X202297548Y-91114208D01*
X202649445Y-91782670D01*
X202676452Y-91823088D01*
X203166119Y-92183276D01*
X205687395Y-89662000D01*
X203166119Y-87140724D01*
X202676452Y-87500912D01*
X202316151Y-88164882D01*
X202092306Y-88886385D01*
X202013520Y-89637695D01*
X182896670Y-89637695D01*
X182903960Y-89611565D01*
X182118000Y-88825605D01*
X181332040Y-89611565D01*
X177823960Y-89611565D01*
X177038000Y-88825605D01*
X176252040Y-89611565D01*
X167168595Y-89611565D01*
X167106178Y-88934062D01*
X167042127Y-88718017D01*
X175636090Y-88718017D01*
X175677078Y-88990133D01*
X175770364Y-89249023D01*
X175832344Y-89364980D01*
X176072435Y-89431960D01*
X176858395Y-88646000D01*
X177217605Y-88646000D01*
X178003565Y-89431960D01*
X178243656Y-89364980D01*
X178360756Y-89115952D01*
X178427023Y-88848865D01*
X178433157Y-88718017D01*
X180716090Y-88718017D01*
X180757078Y-88990133D01*
X180850364Y-89249023D01*
X180912344Y-89364980D01*
X181152435Y-89431960D01*
X181938395Y-88646000D01*
X182297605Y-88646000D01*
X183083565Y-89431960D01*
X183323656Y-89364980D01*
X183440756Y-89115952D01*
X183507023Y-88848865D01*
X183519910Y-88573983D01*
X183478922Y-88301867D01*
X183385636Y-88042977D01*
X183323656Y-87927020D01*
X183083565Y-87860040D01*
X182297605Y-88646000D01*
X181938395Y-88646000D01*
X181152435Y-87860040D01*
X180912344Y-87927020D01*
X180795244Y-88176048D01*
X180728977Y-88443135D01*
X180716090Y-88718017D01*
X178433157Y-88718017D01*
X178439910Y-88573983D01*
X178398922Y-88301867D01*
X178305636Y-88042977D01*
X178243656Y-87927020D01*
X178003565Y-87860040D01*
X177217605Y-88646000D01*
X176858395Y-88646000D01*
X176072435Y-87860040D01*
X175832344Y-87927020D01*
X175715244Y-88176048D01*
X175648977Y-88443135D01*
X175636090Y-88718017D01*
X167042127Y-88718017D01*
X166891452Y-88209792D01*
X166612784Y-87680435D01*
X176252040Y-87680435D01*
X177038000Y-88466395D01*
X177823960Y-87680435D01*
X181332040Y-87680435D01*
X182118000Y-88466395D01*
X182903960Y-87680435D01*
X182836980Y-87440344D01*
X182587952Y-87323244D01*
X182320865Y-87256977D01*
X182045983Y-87244090D01*
X181773867Y-87285078D01*
X181514977Y-87378364D01*
X181399020Y-87440344D01*
X181332040Y-87680435D01*
X177823960Y-87680435D01*
X177756980Y-87440344D01*
X177507952Y-87323244D01*
X177240865Y-87256977D01*
X176965983Y-87244090D01*
X176693867Y-87285078D01*
X176434977Y-87378364D01*
X176319020Y-87440344D01*
X176252040Y-87680435D01*
X166612784Y-87680435D01*
X166539555Y-87541330D01*
X166512548Y-87500912D01*
X166022881Y-87140724D01*
X163501605Y-89662000D01*
X163142395Y-89662000D01*
X160621119Y-87140724D01*
X160131452Y-87500912D01*
X160070000Y-87614157D01*
X160070000Y-86537000D01*
X161112696Y-86537000D01*
X160800724Y-86961119D01*
%TA.AperFunction,Conductor*%
D21*
G36*
X160800724Y-86961119D02*
G01*
X163322000Y-89482395D01*
X165843276Y-86961119D01*
X165531304Y-86537000D01*
X203657696Y-86537000D01*
X203345724Y-86961119D01*
X205867000Y-89482395D01*
X208388276Y-86961119D01*
X208076304Y-86537000D01*
X209119000Y-86537000D01*
X209119001Y-87469344D01*
X209119000Y-87469354D01*
X209119000Y-87606762D01*
X209084555Y-87541330D01*
X209057548Y-87500912D01*
X208567881Y-87140724D01*
X206046605Y-89662000D01*
X208567881Y-92183276D01*
X209057548Y-91823088D01*
X209119000Y-91709843D01*
X209119000Y-97165258D01*
X209111120Y-97153465D01*
X208916535Y-96958880D01*
X208687727Y-96805995D01*
X208433490Y-96700686D01*
X208163592Y-96647000D01*
X207888408Y-96647000D01*
X207618510Y-96700686D01*
X207364273Y-96805995D01*
X207135465Y-96958880D01*
X206940880Y-97153465D01*
X206787995Y-97382273D01*
X206756000Y-97459515D01*
X206724005Y-97382273D01*
X206571120Y-97153465D01*
X206376535Y-96958880D01*
X206147727Y-96805995D01*
X205893490Y-96700686D01*
X205623592Y-96647000D01*
X205348408Y-96647000D01*
X205078510Y-96700686D01*
X204824273Y-96805995D01*
X204595465Y-96958880D01*
X204400880Y-97153465D01*
X204247995Y-97382273D01*
X204142686Y-97636510D01*
X204089000Y-97906408D01*
X204089000Y-98181592D01*
X204142686Y-98451490D01*
X204247995Y-98705727D01*
X204400880Y-98934535D01*
X204595465Y-99129120D01*
X204824273Y-99282005D01*
X204901515Y-99314000D01*
X204824273Y-99345995D01*
X204595465Y-99498880D01*
X204400880Y-99693465D01*
X204247995Y-99922273D01*
X204142686Y-100176510D01*
X204089000Y-100446408D01*
X204089000Y-100721592D01*
X204142686Y-100991490D01*
X204247995Y-101245727D01*
X204400880Y-101474535D01*
X204595465Y-101669120D01*
X204824273Y-101822005D01*
X204895943Y-101851692D01*
X204882977Y-101856364D01*
X204767020Y-101918344D01*
X204700040Y-102158435D01*
X205486000Y-102944395D01*
X206271960Y-102158435D01*
X206204980Y-101918344D01*
X206069240Y-101854515D01*
X206147727Y-101822005D01*
X206376535Y-101669120D01*
X206571120Y-101474535D01*
X206724005Y-101245727D01*
X206756000Y-101168485D01*
X206787995Y-101245727D01*
X206940880Y-101474535D01*
X207135465Y-101669120D01*
X207364273Y-101822005D01*
X207435943Y-101851692D01*
X207422977Y-101856364D01*
X207307020Y-101918344D01*
X207240040Y-102158435D01*
X208026000Y-102944395D01*
X208811960Y-102158435D01*
X208744980Y-101918344D01*
X208609240Y-101854515D01*
X208687727Y-101822005D01*
X208916535Y-101669120D01*
X209111120Y-101474535D01*
X209119000Y-101462742D01*
X209119000Y-102373592D01*
X208991565Y-102338040D01*
X208205605Y-103124000D01*
X208991565Y-103909960D01*
X209119000Y-103874408D01*
X209119000Y-104785259D01*
X209111120Y-104773465D01*
X208916535Y-104578880D01*
X208687727Y-104425995D01*
X208616057Y-104396308D01*
X208629023Y-104391636D01*
X208744980Y-104329656D01*
X208811960Y-104089565D01*
X208026000Y-103303605D01*
X207240040Y-104089565D01*
X207307020Y-104329656D01*
X207442760Y-104393485D01*
X207364273Y-104425995D01*
X207135465Y-104578880D01*
X206940880Y-104773465D01*
X206787995Y-105002273D01*
X206756000Y-105079515D01*
X206724005Y-105002273D01*
X206571120Y-104773465D01*
X206376535Y-104578880D01*
X206147727Y-104425995D01*
X206076057Y-104396308D01*
X206089023Y-104391636D01*
X206204980Y-104329656D01*
X206271960Y-104089565D01*
X205486000Y-103303605D01*
X204700040Y-104089565D01*
X204767020Y-104329656D01*
X204902760Y-104393485D01*
X204824273Y-104425995D01*
X204595465Y-104578880D01*
X204400880Y-104773465D01*
X204247995Y-105002273D01*
X204142686Y-105256510D01*
X204089000Y-105526408D01*
X204089000Y-105801592D01*
X204142686Y-106071490D01*
X204247995Y-106325727D01*
X204400880Y-106554535D01*
X204595465Y-106749120D01*
X204824273Y-106902005D01*
X204901515Y-106934000D01*
X204824273Y-106965995D01*
X204595465Y-107118880D01*
X204400880Y-107313465D01*
X204247995Y-107542273D01*
X204142686Y-107796510D01*
X204089000Y-108066408D01*
X204089000Y-108341592D01*
X204142686Y-108611490D01*
X204247995Y-108865727D01*
X204400880Y-109094535D01*
X204595465Y-109289120D01*
X204824273Y-109442005D01*
X204901515Y-109474000D01*
X204824273Y-109505995D01*
X204595465Y-109658880D01*
X204400880Y-109853465D01*
X204247995Y-110082273D01*
X204142686Y-110336510D01*
X204089000Y-110606408D01*
X204089000Y-110881592D01*
X204142686Y-111151490D01*
X204247995Y-111405727D01*
X204400880Y-111634535D01*
X204595465Y-111829120D01*
X204824273Y-111982005D01*
X204901515Y-112014000D01*
X204824273Y-112045995D01*
X204595465Y-112198880D01*
X204400880Y-112393465D01*
X204247995Y-112622273D01*
X204142686Y-112876510D01*
X204089000Y-113146408D01*
X204089000Y-113421592D01*
X204142686Y-113691490D01*
X204247995Y-113945727D01*
X204400880Y-114174535D01*
X204595465Y-114369120D01*
X204824273Y-114522005D01*
X204895943Y-114551692D01*
X204882977Y-114556364D01*
X204767020Y-114618344D01*
X204700040Y-114858435D01*
X205486000Y-115644395D01*
X206271960Y-114858435D01*
X206204980Y-114618344D01*
X206069240Y-114554515D01*
X206147727Y-114522005D01*
X206376535Y-114369120D01*
X206571120Y-114174535D01*
X206724005Y-113945727D01*
X206756000Y-113868485D01*
X206787995Y-113945727D01*
X206940880Y-114174535D01*
X207135465Y-114369120D01*
X207364273Y-114522005D01*
X207435943Y-114551692D01*
X207422977Y-114556364D01*
X207307020Y-114618344D01*
X207240040Y-114858435D01*
X208026000Y-115644395D01*
X208811960Y-114858435D01*
X208744980Y-114618344D01*
X208609240Y-114554515D01*
X208687727Y-114522005D01*
X208916535Y-114369120D01*
X209111120Y-114174535D01*
X209119000Y-114162741D01*
X209119000Y-115073592D01*
X208991565Y-115038040D01*
X208205605Y-115824000D01*
X208991565Y-116609960D01*
X209119000Y-116574408D01*
X209119000Y-117485259D01*
X209111120Y-117473465D01*
X208916535Y-117278880D01*
X208687727Y-117125995D01*
X208616057Y-117096308D01*
X208629023Y-117091636D01*
X208744980Y-117029656D01*
X208811960Y-116789565D01*
X208026000Y-116003605D01*
X207240040Y-116789565D01*
X207307020Y-117029656D01*
X207442760Y-117093485D01*
X207364273Y-117125995D01*
X207135465Y-117278880D01*
X206940880Y-117473465D01*
X206787995Y-117702273D01*
X206756000Y-117779515D01*
X206724005Y-117702273D01*
X206571120Y-117473465D01*
X206376535Y-117278880D01*
X206147727Y-117125995D01*
X206076057Y-117096308D01*
X206089023Y-117091636D01*
X206204980Y-117029656D01*
X206271960Y-116789565D01*
X205486000Y-116003605D01*
X204700040Y-116789565D01*
X204767020Y-117029656D01*
X204902760Y-117093485D01*
X204824273Y-117125995D01*
X204595465Y-117278880D01*
X204400880Y-117473465D01*
X204247995Y-117702273D01*
X204142686Y-117956510D01*
X204089000Y-118226408D01*
X204089000Y-118501592D01*
X204142686Y-118771490D01*
X204247995Y-119025727D01*
X204400880Y-119254535D01*
X204595465Y-119449120D01*
X204824273Y-119602005D01*
X204901515Y-119634000D01*
X204824273Y-119665995D01*
X204595465Y-119818880D01*
X204400880Y-120013465D01*
X204247995Y-120242273D01*
X204142686Y-120496510D01*
X204089000Y-120766408D01*
X204089000Y-121041592D01*
X204142686Y-121311490D01*
X204247995Y-121565727D01*
X204400880Y-121794535D01*
X204595465Y-121989120D01*
X204824273Y-122142005D01*
X204901515Y-122174000D01*
X204824273Y-122205995D01*
X204595465Y-122358880D01*
X204400880Y-122553465D01*
X204247995Y-122782273D01*
X204142686Y-123036510D01*
X204089000Y-123306408D01*
X204089000Y-123581592D01*
X204142686Y-123851490D01*
X204247995Y-124105727D01*
X204400880Y-124334535D01*
X204595465Y-124529120D01*
X204824273Y-124682005D01*
X204901515Y-124714000D01*
X204824273Y-124745995D01*
X204595465Y-124898880D01*
X204400880Y-125093465D01*
X204247995Y-125322273D01*
X204142686Y-125576510D01*
X204089000Y-125846408D01*
X204089000Y-126121592D01*
X204142686Y-126391490D01*
X204247995Y-126645727D01*
X204400880Y-126874535D01*
X204595465Y-127069120D01*
X204824273Y-127222005D01*
X204895943Y-127251692D01*
X204882977Y-127256364D01*
X204767020Y-127318344D01*
X204700040Y-127558435D01*
X205486000Y-128344395D01*
X206271960Y-127558435D01*
X206204980Y-127318344D01*
X206069240Y-127254515D01*
X206147727Y-127222005D01*
X206376535Y-127069120D01*
X206571120Y-126874535D01*
X206724005Y-126645727D01*
X206756000Y-126568485D01*
X206787995Y-126645727D01*
X206940880Y-126874535D01*
X207135465Y-127069120D01*
X207364273Y-127222005D01*
X207435943Y-127251692D01*
X207422977Y-127256364D01*
X207307020Y-127318344D01*
X207240040Y-127558435D01*
X208026000Y-128344395D01*
X208811960Y-127558435D01*
X208744980Y-127318344D01*
X208609240Y-127254515D01*
X208687727Y-127222005D01*
X208916535Y-127069120D01*
X209111120Y-126874535D01*
X209119001Y-126862741D01*
X209119001Y-127773592D01*
X208991565Y-127738040D01*
X208205605Y-128524000D01*
X208991565Y-129309960D01*
X209119001Y-129274408D01*
X209119001Y-130185259D01*
X209111120Y-130173465D01*
X208916535Y-129978880D01*
X208687727Y-129825995D01*
X208616057Y-129796308D01*
X208629023Y-129791636D01*
X208744980Y-129729656D01*
X208811960Y-129489565D01*
X208026000Y-128703605D01*
X207240040Y-129489565D01*
X207307020Y-129729656D01*
X207442760Y-129793485D01*
X207364273Y-129825995D01*
X207135465Y-129978880D01*
X206940880Y-130173465D01*
X206787995Y-130402273D01*
X206756000Y-130479515D01*
X206724005Y-130402273D01*
X206571120Y-130173465D01*
X206376535Y-129978880D01*
X206147727Y-129825995D01*
X206076057Y-129796308D01*
X206089023Y-129791636D01*
X206204980Y-129729656D01*
X206271960Y-129489565D01*
X205486000Y-128703605D01*
X204700040Y-129489565D01*
X204767020Y-129729656D01*
X204902760Y-129793485D01*
X204824273Y-129825995D01*
X204595465Y-129978880D01*
X204400880Y-130173465D01*
X204247995Y-130402273D01*
X204142686Y-130656510D01*
X204089000Y-130926408D01*
X204089000Y-131201592D01*
X204142686Y-131471490D01*
X204247995Y-131725727D01*
X204400880Y-131954535D01*
X204595465Y-132149120D01*
X204824273Y-132302005D01*
X204901515Y-132334000D01*
X204824273Y-132365995D01*
X204595465Y-132518880D01*
X204400880Y-132713465D01*
X204247995Y-132942273D01*
X204142686Y-133196510D01*
X204089000Y-133466408D01*
X204089000Y-133741592D01*
X204142686Y-134011490D01*
X204247995Y-134265727D01*
X204400880Y-134494535D01*
X204595465Y-134689120D01*
X204824273Y-134842005D01*
X204901515Y-134874000D01*
X204824273Y-134905995D01*
X204595465Y-135058880D01*
X204400880Y-135253465D01*
X204247995Y-135482273D01*
X204142686Y-135736510D01*
X204089000Y-136006408D01*
X204089000Y-136281592D01*
X204142686Y-136551490D01*
X204247995Y-136805727D01*
X204400880Y-137034535D01*
X204595465Y-137229120D01*
X204824273Y-137382005D01*
X204901515Y-137414000D01*
X204824273Y-137445995D01*
X204595465Y-137598880D01*
X204400880Y-137793465D01*
X204247995Y-138022273D01*
X204142686Y-138276510D01*
X204089000Y-138546408D01*
X204089000Y-138821592D01*
X204142686Y-139091490D01*
X204247995Y-139345727D01*
X204400880Y-139574535D01*
X204595465Y-139769120D01*
X204824273Y-139922005D01*
X204895943Y-139951692D01*
X204882977Y-139956364D01*
X204767020Y-140018344D01*
X204700040Y-140258435D01*
X205486000Y-141044395D01*
X206271960Y-140258435D01*
X206204980Y-140018344D01*
X206069240Y-139954515D01*
X206147727Y-139922005D01*
X206376535Y-139769120D01*
X206571120Y-139574535D01*
X206724005Y-139345727D01*
X206756000Y-139268485D01*
X206787995Y-139345727D01*
X206940880Y-139574535D01*
X207135465Y-139769120D01*
X207364273Y-139922005D01*
X207435943Y-139951692D01*
X207422977Y-139956364D01*
X207307020Y-140018344D01*
X207240040Y-140258435D01*
X208026000Y-141044395D01*
X208811960Y-140258435D01*
X208744980Y-140018344D01*
X208609240Y-139954515D01*
X208687727Y-139922005D01*
X208916535Y-139769120D01*
X209111120Y-139574535D01*
X209119001Y-139562741D01*
X209119001Y-140473592D01*
X208991565Y-140438040D01*
X208205605Y-141224000D01*
X208991565Y-142009960D01*
X209119001Y-141974408D01*
X209119001Y-142885259D01*
X209111120Y-142873465D01*
X208916535Y-142678880D01*
X208687727Y-142525995D01*
X208616057Y-142496308D01*
X208629023Y-142491636D01*
X208744980Y-142429656D01*
X208811960Y-142189565D01*
X208026000Y-141403605D01*
X207240040Y-142189565D01*
X207307020Y-142429656D01*
X207442760Y-142493485D01*
X207364273Y-142525995D01*
X207135465Y-142678880D01*
X206940880Y-142873465D01*
X206787995Y-143102273D01*
X206756000Y-143179515D01*
X206724005Y-143102273D01*
X206571120Y-142873465D01*
X206376535Y-142678880D01*
X206147727Y-142525995D01*
X206076057Y-142496308D01*
X206089023Y-142491636D01*
X206204980Y-142429656D01*
X206271960Y-142189565D01*
X205486000Y-141403605D01*
X204700040Y-142189565D01*
X204767020Y-142429656D01*
X204902760Y-142493485D01*
X204824273Y-142525995D01*
X204595465Y-142678880D01*
X204400880Y-142873465D01*
X204247995Y-143102273D01*
X204142686Y-143356510D01*
X204089000Y-143626408D01*
X204089000Y-143901592D01*
X204142686Y-144171490D01*
X204247995Y-144425727D01*
X204400880Y-144654535D01*
X204595465Y-144849120D01*
X204824273Y-145002005D01*
X204901515Y-145034000D01*
X204824273Y-145065995D01*
X204595465Y-145218880D01*
X204400880Y-145413465D01*
X204247995Y-145642273D01*
X204142686Y-145896510D01*
X204089000Y-146166408D01*
X204089000Y-146441592D01*
X204142686Y-146711490D01*
X204247995Y-146965727D01*
X204400880Y-147194535D01*
X204595465Y-147389120D01*
X204824273Y-147542005D01*
X205078510Y-147647314D01*
X205348408Y-147701000D01*
X205623592Y-147701000D01*
X205893490Y-147647314D01*
X206147727Y-147542005D01*
X206376535Y-147389120D01*
X206571120Y-147194535D01*
X206724005Y-146965727D01*
X206756000Y-146888485D01*
X206787995Y-146965727D01*
X206940880Y-147194535D01*
X207135465Y-147389120D01*
X207364273Y-147542005D01*
X207618510Y-147647314D01*
X207888408Y-147701000D01*
X208163592Y-147701000D01*
X208433490Y-147647314D01*
X208687727Y-147542005D01*
X208916535Y-147389120D01*
X209111120Y-147194535D01*
X209119001Y-147182741D01*
X209119001Y-159461697D01*
X208694881Y-159149724D01*
X206173605Y-161671000D01*
X208694881Y-164192276D01*
X209119001Y-163880303D01*
X209119001Y-164796000D01*
X208203304Y-164796000D01*
X208515276Y-164371881D01*
X205994000Y-161850605D01*
X203472724Y-164371881D01*
X203784696Y-164796000D01*
X165531304Y-164796000D01*
X165843276Y-164371881D01*
X163322000Y-161850605D01*
X160800724Y-164371881D01*
X161112696Y-164796000D01*
X160070000Y-164796000D01*
X160070000Y-163726238D01*
X160104445Y-163791670D01*
X160131452Y-163832088D01*
X160621119Y-164192276D01*
X163142395Y-161671000D01*
X163501605Y-161671000D01*
X166022881Y-164192276D01*
X166512548Y-163832088D01*
X166872849Y-163168118D01*
X167096694Y-162446615D01*
X167175480Y-161695305D01*
X167171002Y-161646695D01*
X202140520Y-161646695D01*
X202209822Y-162398938D01*
X202424548Y-163123208D01*
X202776445Y-163791670D01*
X202803452Y-163832088D01*
X203293119Y-164192276D01*
X205814395Y-161671000D01*
X203293119Y-159149724D01*
X202803452Y-159509912D01*
X202443151Y-160173882D01*
X202219306Y-160895385D01*
X202140520Y-161646695D01*
X167171002Y-161646695D01*
X167106178Y-160943062D01*
X166891452Y-160218792D01*
X166539555Y-159550330D01*
X166512548Y-159509912D01*
X166022881Y-159149724D01*
X163501605Y-161671000D01*
X163142395Y-161671000D01*
X160621119Y-159149724D01*
X160131452Y-159509912D01*
X160070000Y-159623157D01*
X160070000Y-158970119D01*
X160800724Y-158970119D01*
X163322000Y-161491395D01*
X165843276Y-158970119D01*
X165483088Y-158480452D01*
X165290602Y-158376000D01*
X192683928Y-158376000D01*
X192696188Y-158500482D01*
X192732498Y-158620180D01*
X192791463Y-158730494D01*
X192870815Y-158827185D01*
X192967506Y-158906537D01*
X193077820Y-158965502D01*
X193197518Y-159001812D01*
X193322000Y-159014072D01*
X194786250Y-159011000D01*
X194945000Y-158852250D01*
X194945000Y-157003000D01*
X195199000Y-157003000D01*
X195199000Y-158852250D01*
X195357750Y-159011000D01*
X196822000Y-159014072D01*
X196946482Y-159001812D01*
X197050959Y-158970119D01*
X203472724Y-158970119D01*
X205994000Y-161491395D01*
X208515276Y-158970119D01*
X208155088Y-158480452D01*
X207491118Y-158120151D01*
X206769615Y-157896306D01*
X206018305Y-157817520D01*
X205266062Y-157886822D01*
X204541792Y-158101548D01*
X203873330Y-158453445D01*
X203832912Y-158480452D01*
X203472724Y-158970119D01*
X197050959Y-158970119D01*
X197066180Y-158965502D01*
X197176494Y-158906537D01*
X197273185Y-158827185D01*
X197352537Y-158730494D01*
X197411502Y-158620180D01*
X197447812Y-158500482D01*
X197460072Y-158376000D01*
X197457000Y-157161750D01*
X197298250Y-157003000D01*
X195199000Y-157003000D01*
X194945000Y-157003000D01*
X192845750Y-157003000D01*
X192687000Y-157161750D01*
X192683928Y-158376000D01*
X165290602Y-158376000D01*
X164819118Y-158120151D01*
X164097615Y-157896306D01*
X163346305Y-157817520D01*
X162594062Y-157886822D01*
X161869792Y-158101548D01*
X161201330Y-158453445D01*
X161160912Y-158480452D01*
X160800724Y-158970119D01*
X160070000Y-158970119D01*
X160070000Y-155376000D01*
X192683928Y-155376000D01*
X192687000Y-156590250D01*
X192845750Y-156749000D01*
X194945000Y-156749000D01*
X194945000Y-154899750D01*
X195199000Y-154899750D01*
X195199000Y-156749000D01*
X197298250Y-156749000D01*
X197457000Y-156590250D01*
X197460072Y-155376000D01*
X197447812Y-155251518D01*
X197411502Y-155131820D01*
X197352537Y-155021506D01*
X197273185Y-154924815D01*
X197176494Y-154845463D01*
X197066180Y-154786498D01*
X196946482Y-154750188D01*
X196822000Y-154737928D01*
X195357750Y-154741000D01*
X195199000Y-154899750D01*
X194945000Y-154899750D01*
X194786250Y-154741000D01*
X193322000Y-154737928D01*
X193197518Y-154750188D01*
X193077820Y-154786498D01*
X192967506Y-154845463D01*
X192870815Y-154924815D01*
X192791463Y-155021506D01*
X192732498Y-155131820D01*
X192696188Y-155251518D01*
X192683928Y-155376000D01*
X160070000Y-155376000D01*
X160070000Y-149126000D01*
X192683928Y-149126000D01*
X192683928Y-152626000D01*
X192696188Y-152750482D01*
X192732498Y-152870180D01*
X192791463Y-152980494D01*
X192870815Y-153077185D01*
X192967506Y-153156537D01*
X193077820Y-153215502D01*
X193197518Y-153251812D01*
X193322000Y-153264072D01*
X196822000Y-153264072D01*
X196946482Y-153251812D01*
X197066180Y-153215502D01*
X197176494Y-153156537D01*
X197273185Y-153077185D01*
X197352537Y-152980494D01*
X197393494Y-152903869D01*
X197383928Y-153001000D01*
X197383928Y-154751000D01*
X197413001Y-155046186D01*
X197499104Y-155330028D01*
X197638927Y-155591618D01*
X197827097Y-155820903D01*
X198056382Y-156009073D01*
X198317972Y-156148896D01*
X198601814Y-156234999D01*
X198897000Y-156264072D01*
X200647000Y-156264072D01*
X200942186Y-156234999D01*
X201226028Y-156148896D01*
X201487618Y-156009073D01*
X201716903Y-155820903D01*
X201905073Y-155591618D01*
X202044896Y-155330028D01*
X202130999Y-155046186D01*
X202160072Y-154751000D01*
X202160072Y-153001000D01*
X202130999Y-152705814D01*
X202044896Y-152421972D01*
X201905073Y-152160382D01*
X201716903Y-151931097D01*
X201487618Y-151742927D01*
X201226028Y-151603104D01*
X200942186Y-151517001D01*
X200647000Y-151487928D01*
X198897000Y-151487928D01*
X198601814Y-151517001D01*
X198317972Y-151603104D01*
X198056382Y-151742927D01*
X197827097Y-151931097D01*
X197638927Y-152160382D01*
X197499104Y-152421972D01*
X197460072Y-152550643D01*
X197460072Y-149126000D01*
X197447812Y-149001518D01*
X197411502Y-148881820D01*
X197352537Y-148771506D01*
X197273185Y-148674815D01*
X197176494Y-148595463D01*
X197066180Y-148536498D01*
X196946482Y-148500188D01*
X196822000Y-148487928D01*
X193322000Y-148487928D01*
X193197518Y-148500188D01*
X193077820Y-148536498D01*
X192967506Y-148595463D01*
X192870815Y-148674815D01*
X192791463Y-148771506D01*
X192732498Y-148881820D01*
X192696188Y-149001518D01*
X192683928Y-149126000D01*
X160070000Y-149126000D01*
X160070000Y-143626408D01*
X183769000Y-143626408D01*
X183769000Y-143901592D01*
X183822686Y-144171490D01*
X183927995Y-144425727D01*
X184080880Y-144654535D01*
X184275465Y-144849120D01*
X184504273Y-145002005D01*
X184581515Y-145034000D01*
X184504273Y-145065995D01*
X184275465Y-145218880D01*
X184080880Y-145413465D01*
X183927995Y-145642273D01*
X183822686Y-145896510D01*
X183769000Y-146166408D01*
X183769000Y-146441592D01*
X183822686Y-146711490D01*
X183927995Y-146965727D01*
X184080880Y-147194535D01*
X184275465Y-147389120D01*
X184504273Y-147542005D01*
X184758510Y-147647314D01*
X185028408Y-147701000D01*
X185303592Y-147701000D01*
X185573490Y-147647314D01*
X185827727Y-147542005D01*
X186056535Y-147389120D01*
X186251120Y-147194535D01*
X186404005Y-146965727D01*
X186436000Y-146888485D01*
X186467995Y-146965727D01*
X186620880Y-147194535D01*
X186815465Y-147389120D01*
X187044273Y-147542005D01*
X187298510Y-147647314D01*
X187568408Y-147701000D01*
X187843592Y-147701000D01*
X188113490Y-147647314D01*
X188367727Y-147542005D01*
X188596535Y-147389120D01*
X188791120Y-147194535D01*
X188944005Y-146965727D01*
X189049314Y-146711490D01*
X189103000Y-146441592D01*
X189103000Y-146166408D01*
X189049314Y-145896510D01*
X188944005Y-145642273D01*
X188791120Y-145413465D01*
X188596535Y-145218880D01*
X188367727Y-145065995D01*
X188290485Y-145034000D01*
X188367727Y-145002005D01*
X188596535Y-144849120D01*
X188791120Y-144654535D01*
X188944005Y-144425727D01*
X189049314Y-144171490D01*
X189103000Y-143901592D01*
X189103000Y-143626408D01*
X189049314Y-143356510D01*
X188944005Y-143102273D01*
X188791120Y-142873465D01*
X188596535Y-142678880D01*
X188367727Y-142525995D01*
X188296057Y-142496308D01*
X188309023Y-142491636D01*
X188424980Y-142429656D01*
X188491960Y-142189565D01*
X187706000Y-141403605D01*
X186920040Y-142189565D01*
X186987020Y-142429656D01*
X187122760Y-142493485D01*
X187044273Y-142525995D01*
X186815465Y-142678880D01*
X186620880Y-142873465D01*
X186467995Y-143102273D01*
X186436000Y-143179515D01*
X186404005Y-143102273D01*
X186251120Y-142873465D01*
X186056535Y-142678880D01*
X185827727Y-142525995D01*
X185756057Y-142496308D01*
X185769023Y-142491636D01*
X185884980Y-142429656D01*
X185951960Y-142189565D01*
X185166000Y-141403605D01*
X184380040Y-142189565D01*
X184447020Y-142429656D01*
X184582760Y-142493485D01*
X184504273Y-142525995D01*
X184275465Y-142678880D01*
X184080880Y-142873465D01*
X183927995Y-143102273D01*
X183822686Y-143356510D01*
X183769000Y-143626408D01*
X160070000Y-143626408D01*
X160070000Y-141827039D01*
X171963096Y-141827039D01*
X172003754Y-141961087D01*
X172123963Y-142215420D01*
X172291481Y-142441414D01*
X172499869Y-142630385D01*
X172741119Y-142775070D01*
X173005960Y-142869909D01*
X173228000Y-142748624D01*
X173228000Y-141605000D01*
X173482000Y-141605000D01*
X173482000Y-142748624D01*
X173704040Y-142869909D01*
X173968881Y-142775070D01*
X174210131Y-142630385D01*
X174418519Y-142441414D01*
X174586037Y-142215420D01*
X174706246Y-141961087D01*
X174746904Y-141827039D01*
X174624915Y-141605000D01*
X173482000Y-141605000D01*
X173228000Y-141605000D01*
X172085085Y-141605000D01*
X171963096Y-141827039D01*
X160070000Y-141827039D01*
X160070000Y-138732080D01*
X164215525Y-138732080D01*
X164299208Y-138986261D01*
X164571775Y-139117158D01*
X164864642Y-139192365D01*
X165166553Y-139208991D01*
X165465907Y-139166397D01*
X165751199Y-139066222D01*
X165900792Y-138986261D01*
X165984475Y-138732080D01*
X165100000Y-137847605D01*
X164215525Y-138732080D01*
X160070000Y-138732080D01*
X160070000Y-137734553D01*
X163559009Y-137734553D01*
X163601603Y-138033907D01*
X163701778Y-138319199D01*
X163781739Y-138468792D01*
X164035920Y-138552475D01*
X164920395Y-137668000D01*
X165279605Y-137668000D01*
X166164080Y-138552475D01*
X166418261Y-138468792D01*
X166549158Y-138196225D01*
X166624365Y-137903358D01*
X166640991Y-137601447D01*
X166598397Y-137302093D01*
X166498222Y-137016801D01*
X166418261Y-136867208D01*
X166164080Y-136783525D01*
X165279605Y-137668000D01*
X164920395Y-137668000D01*
X164035920Y-136783525D01*
X163781739Y-136867208D01*
X163650842Y-137139775D01*
X163575635Y-137432642D01*
X163559009Y-137734553D01*
X160070000Y-137734553D01*
X160070000Y-136603920D01*
X164215525Y-136603920D01*
X165100000Y-137488395D01*
X165984475Y-136603920D01*
X165900792Y-136349739D01*
X165628225Y-136218842D01*
X165335358Y-136143635D01*
X165033447Y-136127009D01*
X164734093Y-136169603D01*
X164448801Y-136269778D01*
X164299208Y-136349739D01*
X164215525Y-136603920D01*
X160070000Y-136603920D01*
X160070000Y-132436816D01*
X161025000Y-132436816D01*
X161025000Y-132739184D01*
X161083989Y-133035743D01*
X161199701Y-133315095D01*
X161367688Y-133566505D01*
X161581495Y-133780312D01*
X161832905Y-133948299D01*
X162112257Y-134064011D01*
X162408816Y-134123000D01*
X162711184Y-134123000D01*
X163007743Y-134064011D01*
X163287095Y-133948299D01*
X163538505Y-133780312D01*
X163752312Y-133566505D01*
X163920299Y-133315095D01*
X164026791Y-133058000D01*
X171916928Y-133058000D01*
X171916928Y-134658000D01*
X171929188Y-134782482D01*
X171965498Y-134902180D01*
X172024463Y-135012494D01*
X172103815Y-135109185D01*
X172200506Y-135188537D01*
X172310820Y-135247502D01*
X172430518Y-135283812D01*
X172438961Y-135284643D01*
X172240363Y-135483241D01*
X172083320Y-135718273D01*
X171975147Y-135979426D01*
X171920000Y-136256665D01*
X171920000Y-136539335D01*
X171975147Y-136816574D01*
X172083320Y-137077727D01*
X172240363Y-137312759D01*
X172440241Y-137512637D01*
X172672759Y-137668000D01*
X172440241Y-137823363D01*
X172240363Y-138023241D01*
X172083320Y-138258273D01*
X171975147Y-138519426D01*
X171920000Y-138796665D01*
X171920000Y-139079335D01*
X171975147Y-139356574D01*
X172083320Y-139617727D01*
X172240363Y-139852759D01*
X172440241Y-140052637D01*
X172675273Y-140209680D01*
X172685865Y-140214067D01*
X172499869Y-140325615D01*
X172291481Y-140514586D01*
X172123963Y-140740580D01*
X172003754Y-140994913D01*
X171963096Y-141128961D01*
X172085085Y-141351000D01*
X173228000Y-141351000D01*
X173228000Y-141331000D01*
X173482000Y-141331000D01*
X173482000Y-141351000D01*
X174624915Y-141351000D01*
X174746904Y-141128961D01*
X174706246Y-140994913D01*
X174586037Y-140740580D01*
X174418519Y-140514586D01*
X174210131Y-140325615D01*
X174024135Y-140214067D01*
X174034727Y-140209680D01*
X174269759Y-140052637D01*
X174469637Y-139852759D01*
X174626680Y-139617727D01*
X174734853Y-139356574D01*
X174790000Y-139079335D01*
X174790000Y-138796665D01*
X174734853Y-138519426D01*
X174626680Y-138258273D01*
X174469637Y-138023241D01*
X174269759Y-137823363D01*
X174037241Y-137668000D01*
X174269759Y-137512637D01*
X174469637Y-137312759D01*
X174626680Y-137077727D01*
X174734853Y-136816574D01*
X174790000Y-136539335D01*
X174790000Y-136256665D01*
X174734853Y-135979426D01*
X174626680Y-135718273D01*
X174469637Y-135483241D01*
X174271039Y-135284643D01*
X174279482Y-135283812D01*
X174399180Y-135247502D01*
X174509494Y-135188537D01*
X174606185Y-135109185D01*
X174685537Y-135012494D01*
X174744502Y-134902180D01*
X174780812Y-134782482D01*
X174793072Y-134658000D01*
X174793072Y-133716665D01*
X179540000Y-133716665D01*
X179540000Y-133999335D01*
X179595147Y-134276574D01*
X179703320Y-134537727D01*
X179860363Y-134772759D01*
X180060241Y-134972637D01*
X180292759Y-135128000D01*
X180060241Y-135283363D01*
X179860363Y-135483241D01*
X179703320Y-135718273D01*
X179595147Y-135979426D01*
X179540000Y-136256665D01*
X179540000Y-136539335D01*
X179595147Y-136816574D01*
X179703320Y-137077727D01*
X179860363Y-137312759D01*
X180060241Y-137512637D01*
X180292759Y-137668000D01*
X180060241Y-137823363D01*
X179860363Y-138023241D01*
X179703320Y-138258273D01*
X179595147Y-138519426D01*
X179540000Y-138796665D01*
X179540000Y-139079335D01*
X179595147Y-139356574D01*
X179703320Y-139617727D01*
X179860363Y-139852759D01*
X180060241Y-140052637D01*
X180292759Y-140208000D01*
X180060241Y-140363363D01*
X179860363Y-140563241D01*
X179703320Y-140798273D01*
X179595147Y-141059426D01*
X179540000Y-141336665D01*
X179540000Y-141619335D01*
X179595147Y-141896574D01*
X179703320Y-142157727D01*
X179860363Y-142392759D01*
X180060241Y-142592637D01*
X180295273Y-142749680D01*
X180556426Y-142857853D01*
X180833665Y-142913000D01*
X181116335Y-142913000D01*
X181393574Y-142857853D01*
X181654727Y-142749680D01*
X181889759Y-142592637D01*
X182089637Y-142392759D01*
X182246680Y-142157727D01*
X182354853Y-141896574D01*
X182410000Y-141619335D01*
X182410000Y-141336665D01*
X182401915Y-141296017D01*
X183764090Y-141296017D01*
X183805078Y-141568133D01*
X183898364Y-141827023D01*
X183960344Y-141942980D01*
X184200435Y-142009960D01*
X184986395Y-141224000D01*
X185345605Y-141224000D01*
X186131565Y-142009960D01*
X186371656Y-141942980D01*
X186433079Y-141812356D01*
X186438364Y-141827023D01*
X186500344Y-141942980D01*
X186740435Y-142009960D01*
X187526395Y-141224000D01*
X187885605Y-141224000D01*
X188671565Y-142009960D01*
X188911656Y-141942980D01*
X189028756Y-141693952D01*
X189095023Y-141426865D01*
X189101157Y-141296017D01*
X204084090Y-141296017D01*
X204125078Y-141568133D01*
X204218364Y-141827023D01*
X204280344Y-141942980D01*
X204520435Y-142009960D01*
X205306395Y-141224000D01*
X205665605Y-141224000D01*
X206451565Y-142009960D01*
X206691656Y-141942980D01*
X206753079Y-141812356D01*
X206758364Y-141827023D01*
X206820344Y-141942980D01*
X207060435Y-142009960D01*
X207846395Y-141224000D01*
X207060435Y-140438040D01*
X206820344Y-140505020D01*
X206758921Y-140635644D01*
X206753636Y-140620977D01*
X206691656Y-140505020D01*
X206451565Y-140438040D01*
X205665605Y-141224000D01*
X205306395Y-141224000D01*
X204520435Y-140438040D01*
X204280344Y-140505020D01*
X204163244Y-140754048D01*
X204096977Y-141021135D01*
X204084090Y-141296017D01*
X189101157Y-141296017D01*
X189107910Y-141151983D01*
X189066922Y-140879867D01*
X188973636Y-140620977D01*
X188911656Y-140505020D01*
X188671565Y-140438040D01*
X187885605Y-141224000D01*
X187526395Y-141224000D01*
X186740435Y-140438040D01*
X186500344Y-140505020D01*
X186438921Y-140635644D01*
X186433636Y-140620977D01*
X186371656Y-140505020D01*
X186131565Y-140438040D01*
X185345605Y-141224000D01*
X184986395Y-141224000D01*
X184200435Y-140438040D01*
X183960344Y-140505020D01*
X183843244Y-140754048D01*
X183776977Y-141021135D01*
X183764090Y-141296017D01*
X182401915Y-141296017D01*
X182354853Y-141059426D01*
X182246680Y-140798273D01*
X182089637Y-140563241D01*
X181889759Y-140363363D01*
X181657241Y-140208000D01*
X181889759Y-140052637D01*
X182089637Y-139852759D01*
X182246680Y-139617727D01*
X182354853Y-139356574D01*
X182410000Y-139079335D01*
X182410000Y-138796665D01*
X182354853Y-138519426D01*
X182246680Y-138258273D01*
X182089637Y-138023241D01*
X181889759Y-137823363D01*
X181657241Y-137668000D01*
X181889759Y-137512637D01*
X182089637Y-137312759D01*
X182246680Y-137077727D01*
X182354853Y-136816574D01*
X182410000Y-136539335D01*
X182410000Y-136256665D01*
X182354853Y-135979426D01*
X182246680Y-135718273D01*
X182089637Y-135483241D01*
X181889759Y-135283363D01*
X181657241Y-135128000D01*
X181889759Y-134972637D01*
X182089637Y-134772759D01*
X182246680Y-134537727D01*
X182354853Y-134276574D01*
X182410000Y-133999335D01*
X182410000Y-133716665D01*
X182354853Y-133439426D01*
X182246680Y-133178273D01*
X182089637Y-132943241D01*
X181889759Y-132743363D01*
X181654727Y-132586320D01*
X181393574Y-132478147D01*
X181116335Y-132423000D01*
X180833665Y-132423000D01*
X180556426Y-132478147D01*
X180295273Y-132586320D01*
X180060241Y-132743363D01*
X179860363Y-132943241D01*
X179703320Y-133178273D01*
X179595147Y-133439426D01*
X179540000Y-133716665D01*
X174793072Y-133716665D01*
X174793072Y-133058000D01*
X174780812Y-132933518D01*
X174744502Y-132813820D01*
X174685537Y-132703506D01*
X174606185Y-132606815D01*
X174509494Y-132527463D01*
X174399180Y-132468498D01*
X174279482Y-132432188D01*
X174155000Y-132419928D01*
X172555000Y-132419928D01*
X172430518Y-132432188D01*
X172310820Y-132468498D01*
X172200506Y-132527463D01*
X172103815Y-132606815D01*
X172024463Y-132703506D01*
X171965498Y-132813820D01*
X171929188Y-132933518D01*
X171916928Y-133058000D01*
X164026791Y-133058000D01*
X164036011Y-133035743D01*
X164095000Y-132739184D01*
X164095000Y-132436816D01*
X164036011Y-132140257D01*
X163920299Y-131860905D01*
X163752312Y-131609495D01*
X163538505Y-131395688D01*
X163287095Y-131227701D01*
X163007743Y-131111989D01*
X162711184Y-131053000D01*
X162408816Y-131053000D01*
X162112257Y-131111989D01*
X161832905Y-131227701D01*
X161581495Y-131395688D01*
X161367688Y-131609495D01*
X161199701Y-131860905D01*
X161083989Y-132140257D01*
X161025000Y-132436816D01*
X160070000Y-132436816D01*
X160070000Y-130926408D01*
X183769000Y-130926408D01*
X183769000Y-131201592D01*
X183822686Y-131471490D01*
X183927995Y-131725727D01*
X184080880Y-131954535D01*
X184275465Y-132149120D01*
X184504273Y-132302005D01*
X184581515Y-132334000D01*
X184504273Y-132365995D01*
X184275465Y-132518880D01*
X184080880Y-132713465D01*
X183927995Y-132942273D01*
X183822686Y-133196510D01*
X183769000Y-133466408D01*
X183769000Y-133741592D01*
X183822686Y-134011490D01*
X183927995Y-134265727D01*
X184080880Y-134494535D01*
X184275465Y-134689120D01*
X184504273Y-134842005D01*
X184581515Y-134874000D01*
X184504273Y-134905995D01*
X184275465Y-135058880D01*
X184080880Y-135253465D01*
X183927995Y-135482273D01*
X183822686Y-135736510D01*
X183769000Y-136006408D01*
X183769000Y-136281592D01*
X183822686Y-136551490D01*
X183927995Y-136805727D01*
X184080880Y-137034535D01*
X184275465Y-137229120D01*
X184504273Y-137382005D01*
X184581515Y-137414000D01*
X184504273Y-137445995D01*
X184275465Y-137598880D01*
X184080880Y-137793465D01*
X183927995Y-138022273D01*
X183822686Y-138276510D01*
X183769000Y-138546408D01*
X183769000Y-138821592D01*
X183822686Y-139091490D01*
X183927995Y-139345727D01*
X184080880Y-139574535D01*
X184275465Y-139769120D01*
X184504273Y-139922005D01*
X184575943Y-139951692D01*
X184562977Y-139956364D01*
X184447020Y-140018344D01*
X184380040Y-140258435D01*
X185166000Y-141044395D01*
X185951960Y-140258435D01*
X185884980Y-140018344D01*
X185749240Y-139954515D01*
X185827727Y-139922005D01*
X186056535Y-139769120D01*
X186251120Y-139574535D01*
X186404005Y-139345727D01*
X186436000Y-139268485D01*
X186467995Y-139345727D01*
X186620880Y-139574535D01*
X186815465Y-139769120D01*
X187044273Y-139922005D01*
X187115943Y-139951692D01*
X187102977Y-139956364D01*
X186987020Y-140018344D01*
X186920040Y-140258435D01*
X187706000Y-141044395D01*
X188491960Y-140258435D01*
X188424980Y-140018344D01*
X188289240Y-139954515D01*
X188367727Y-139922005D01*
X188596535Y-139769120D01*
X188791120Y-139574535D01*
X188944005Y-139345727D01*
X189049314Y-139091490D01*
X189103000Y-138821592D01*
X189103000Y-138546408D01*
X189049314Y-138276510D01*
X188944005Y-138022273D01*
X188791120Y-137793465D01*
X188596535Y-137598880D01*
X188367727Y-137445995D01*
X188290485Y-137414000D01*
X188367727Y-137382005D01*
X188596535Y-137229120D01*
X188791120Y-137034535D01*
X188944005Y-136805727D01*
X189049314Y-136551490D01*
X189103000Y-136281592D01*
X189103000Y-136006408D01*
X189049314Y-135736510D01*
X188944005Y-135482273D01*
X188791120Y-135253465D01*
X188596535Y-135058880D01*
X188367727Y-134905995D01*
X188290485Y-134874000D01*
X188367727Y-134842005D01*
X188596535Y-134689120D01*
X188791120Y-134494535D01*
X188944005Y-134265727D01*
X189049314Y-134011490D01*
X189103000Y-133741592D01*
X189103000Y-133466408D01*
X189049314Y-133196510D01*
X188944005Y-132942273D01*
X188791120Y-132713465D01*
X188596535Y-132518880D01*
X188367727Y-132365995D01*
X188290485Y-132334000D01*
X188367727Y-132302005D01*
X188596535Y-132149120D01*
X188791120Y-131954535D01*
X188944005Y-131725727D01*
X189049314Y-131471490D01*
X189103000Y-131201592D01*
X189103000Y-130926408D01*
X189049314Y-130656510D01*
X188944005Y-130402273D01*
X188791120Y-130173465D01*
X188596535Y-129978880D01*
X188367727Y-129825995D01*
X188296057Y-129796308D01*
X188309023Y-129791636D01*
X188424980Y-129729656D01*
X188491960Y-129489565D01*
X187706000Y-128703605D01*
X186920040Y-129489565D01*
X186987020Y-129729656D01*
X187122760Y-129793485D01*
X187044273Y-129825995D01*
X186815465Y-129978880D01*
X186620880Y-130173465D01*
X186467995Y-130402273D01*
X186436000Y-130479515D01*
X186404005Y-130402273D01*
X186251120Y-130173465D01*
X186056535Y-129978880D01*
X185827727Y-129825995D01*
X185756057Y-129796308D01*
X185769023Y-129791636D01*
X185884980Y-129729656D01*
X185951960Y-129489565D01*
X185166000Y-128703605D01*
X184380040Y-129489565D01*
X184447020Y-129729656D01*
X184582760Y-129793485D01*
X184504273Y-129825995D01*
X184275465Y-129978880D01*
X184080880Y-130173465D01*
X183927995Y-130402273D01*
X183822686Y-130656510D01*
X183769000Y-130926408D01*
X160070000Y-130926408D01*
X160070000Y-128596017D01*
X183764090Y-128596017D01*
X183805078Y-128868133D01*
X183898364Y-129127023D01*
X183960344Y-129242980D01*
X184200435Y-129309960D01*
X184986395Y-128524000D01*
X185345605Y-128524000D01*
X186131565Y-129309960D01*
X186371656Y-129242980D01*
X186433079Y-129112356D01*
X186438364Y-129127023D01*
X186500344Y-129242980D01*
X186740435Y-129309960D01*
X187526395Y-128524000D01*
X187885605Y-128524000D01*
X188671565Y-129309960D01*
X188911656Y-129242980D01*
X189028756Y-128993952D01*
X189095023Y-128726865D01*
X189101157Y-128596017D01*
X204084090Y-128596017D01*
X204125078Y-128868133D01*
X204218364Y-129127023D01*
X204280344Y-129242980D01*
X204520435Y-129309960D01*
X205306395Y-128524000D01*
X205665605Y-128524000D01*
X206451565Y-129309960D01*
X206691656Y-129242980D01*
X206753079Y-129112356D01*
X206758364Y-129127023D01*
X206820344Y-129242980D01*
X207060435Y-129309960D01*
X207846395Y-128524000D01*
X207060435Y-127738040D01*
X206820344Y-127805020D01*
X206758921Y-127935644D01*
X206753636Y-127920977D01*
X206691656Y-127805020D01*
X206451565Y-127738040D01*
X205665605Y-128524000D01*
X205306395Y-128524000D01*
X204520435Y-127738040D01*
X204280344Y-127805020D01*
X204163244Y-128054048D01*
X204096977Y-128321135D01*
X204084090Y-128596017D01*
X189101157Y-128596017D01*
X189107910Y-128451983D01*
X189066922Y-128179867D01*
X188973636Y-127920977D01*
X188911656Y-127805020D01*
X188671565Y-127738040D01*
X187885605Y-128524000D01*
X187526395Y-128524000D01*
X186740435Y-127738040D01*
X186500344Y-127805020D01*
X186438921Y-127935644D01*
X186433636Y-127920977D01*
X186371656Y-127805020D01*
X186131565Y-127738040D01*
X185345605Y-128524000D01*
X184986395Y-128524000D01*
X184200435Y-127738040D01*
X183960344Y-127805020D01*
X183843244Y-128054048D01*
X183776977Y-128321135D01*
X183764090Y-128596017D01*
X160070000Y-128596017D01*
X160070000Y-124816816D01*
X163565000Y-124816816D01*
X163565000Y-125119184D01*
X163623989Y-125415743D01*
X163739701Y-125695095D01*
X163907688Y-125946505D01*
X164121495Y-126160312D01*
X164372905Y-126328299D01*
X164652257Y-126444011D01*
X164948816Y-126503000D01*
X165251184Y-126503000D01*
X165547743Y-126444011D01*
X165827095Y-126328299D01*
X166078505Y-126160312D01*
X166292312Y-125946505D01*
X166460299Y-125695095D01*
X166576011Y-125415743D01*
X166635000Y-125119184D01*
X166635000Y-124816816D01*
X166576011Y-124520257D01*
X166460299Y-124240905D01*
X166292312Y-123989495D01*
X166078505Y-123775688D01*
X165827095Y-123607701D01*
X165547743Y-123491989D01*
X165251184Y-123433000D01*
X164948816Y-123433000D01*
X164652257Y-123491989D01*
X164372905Y-123607701D01*
X164121495Y-123775688D01*
X163907688Y-123989495D01*
X163739701Y-124240905D01*
X163623989Y-124520257D01*
X163565000Y-124816816D01*
X160070000Y-124816816D01*
X160070000Y-122948000D01*
X170286928Y-122948000D01*
X170286928Y-124448000D01*
X170299188Y-124572482D01*
X170335498Y-124692180D01*
X170394463Y-124802494D01*
X170473815Y-124899185D01*
X170570506Y-124978537D01*
X170680820Y-125037502D01*
X170800518Y-125073812D01*
X170925000Y-125086072D01*
X171975000Y-125086072D01*
X172099482Y-125073812D01*
X172219180Y-125037502D01*
X172283902Y-125002907D01*
X172492601Y-125066215D01*
X172720000Y-125088612D01*
X172947400Y-125066215D01*
X173166060Y-124999885D01*
X173354669Y-124899071D01*
X173413118Y-124940275D01*
X173622663Y-125033272D01*
X173684190Y-125041964D01*
X173863000Y-124916163D01*
X173863000Y-124151108D01*
X173863215Y-124150399D01*
X173880000Y-123979978D01*
X173880000Y-123825000D01*
X174117000Y-123825000D01*
X174117000Y-124916163D01*
X174295810Y-125041964D01*
X174357337Y-125033272D01*
X174566882Y-124940275D01*
X174754258Y-124808184D01*
X174912264Y-124642076D01*
X175034828Y-124448334D01*
X175117239Y-124234404D01*
X175156331Y-124008507D01*
X174996598Y-123825000D01*
X174117000Y-123825000D01*
X173880000Y-123825000D01*
X173880000Y-123416021D01*
X173863215Y-123245600D01*
X173863000Y-123244891D01*
X173863000Y-122479837D01*
X174117000Y-122479837D01*
X174117000Y-123571000D01*
X174996598Y-123571000D01*
X175156331Y-123387493D01*
X175117239Y-123161596D01*
X175034828Y-122947666D01*
X174912264Y-122753924D01*
X174754258Y-122587816D01*
X174566882Y-122455725D01*
X174357337Y-122362728D01*
X174295810Y-122354036D01*
X174117000Y-122479837D01*
X173863000Y-122479837D01*
X173684190Y-122354036D01*
X173622663Y-122362728D01*
X173413118Y-122455725D01*
X173354669Y-122496929D01*
X173166059Y-122396115D01*
X172947399Y-122329785D01*
X172720000Y-122307388D01*
X172492600Y-122329785D01*
X172283902Y-122393093D01*
X172219180Y-122358498D01*
X172099482Y-122322188D01*
X171975000Y-122309928D01*
X170925000Y-122309928D01*
X170800518Y-122322188D01*
X170680820Y-122358498D01*
X170570506Y-122417463D01*
X170473815Y-122496815D01*
X170394463Y-122593506D01*
X170335498Y-122703820D01*
X170299188Y-122823518D01*
X170286928Y-122948000D01*
X160070000Y-122948000D01*
X160070000Y-118226408D01*
X183769000Y-118226408D01*
X183769000Y-118501592D01*
X183822686Y-118771490D01*
X183927995Y-119025727D01*
X184080880Y-119254535D01*
X184275465Y-119449120D01*
X184504273Y-119602005D01*
X184581515Y-119634000D01*
X184504273Y-119665995D01*
X184275465Y-119818880D01*
X184080880Y-120013465D01*
X183927995Y-120242273D01*
X183822686Y-120496510D01*
X183769000Y-120766408D01*
X183769000Y-121041592D01*
X183822686Y-121311490D01*
X183927995Y-121565727D01*
X184080880Y-121794535D01*
X184275465Y-121989120D01*
X184504273Y-122142005D01*
X184581515Y-122174000D01*
X184504273Y-122205995D01*
X184275465Y-122358880D01*
X184080880Y-122553465D01*
X183927995Y-122782273D01*
X183822686Y-123036510D01*
X183769000Y-123306408D01*
X183769000Y-123581592D01*
X183822686Y-123851490D01*
X183927995Y-124105727D01*
X184080880Y-124334535D01*
X184275465Y-124529120D01*
X184504273Y-124682005D01*
X184581515Y-124714000D01*
X184504273Y-124745995D01*
X184275465Y-124898880D01*
X184080880Y-125093465D01*
X183927995Y-125322273D01*
X183822686Y-125576510D01*
X183769000Y-125846408D01*
X183769000Y-126121592D01*
X183822686Y-126391490D01*
X183927995Y-126645727D01*
X184080880Y-126874535D01*
X184275465Y-127069120D01*
X184504273Y-127222005D01*
X184575943Y-127251692D01*
X184562977Y-127256364D01*
X184447020Y-127318344D01*
X184380040Y-127558435D01*
X185166000Y-128344395D01*
X185951960Y-127558435D01*
X185884980Y-127318344D01*
X185749240Y-127254515D01*
X185827727Y-127222005D01*
X186056535Y-127069120D01*
X186251120Y-126874535D01*
X186404005Y-126645727D01*
X186436000Y-126568485D01*
X186467995Y-126645727D01*
X186620880Y-126874535D01*
X186815465Y-127069120D01*
X187044273Y-127222005D01*
X187115943Y-127251692D01*
X187102977Y-127256364D01*
X186987020Y-127318344D01*
X186920040Y-127558435D01*
X187706000Y-128344395D01*
X188491960Y-127558435D01*
X188424980Y-127318344D01*
X188289240Y-127254515D01*
X188367727Y-127222005D01*
X188596535Y-127069120D01*
X188791120Y-126874535D01*
X188944005Y-126645727D01*
X189049314Y-126391490D01*
X189103000Y-126121592D01*
X189103000Y-125846408D01*
X189049314Y-125576510D01*
X188944005Y-125322273D01*
X188791120Y-125093465D01*
X188596535Y-124898880D01*
X188367727Y-124745995D01*
X188290485Y-124714000D01*
X188367727Y-124682005D01*
X188596535Y-124529120D01*
X188791120Y-124334535D01*
X188944005Y-124105727D01*
X189049314Y-123851490D01*
X189103000Y-123581592D01*
X189103000Y-123306408D01*
X189049314Y-123036510D01*
X188944005Y-122782273D01*
X188791120Y-122553465D01*
X188596535Y-122358880D01*
X188367727Y-122205995D01*
X188290485Y-122174000D01*
X188367727Y-122142005D01*
X188596535Y-121989120D01*
X188791120Y-121794535D01*
X188944005Y-121565727D01*
X189049314Y-121311490D01*
X189103000Y-121041592D01*
X189103000Y-120766408D01*
X189049314Y-120496510D01*
X188944005Y-120242273D01*
X188791120Y-120013465D01*
X188596535Y-119818880D01*
X188367727Y-119665995D01*
X188290485Y-119634000D01*
X188367727Y-119602005D01*
X188596535Y-119449120D01*
X188791120Y-119254535D01*
X188944005Y-119025727D01*
X189049314Y-118771490D01*
X189103000Y-118501592D01*
X189103000Y-118226408D01*
X189049314Y-117956510D01*
X188944005Y-117702273D01*
X188791120Y-117473465D01*
X188596535Y-117278880D01*
X188367727Y-117125995D01*
X188296057Y-117096308D01*
X188309023Y-117091636D01*
X188424980Y-117029656D01*
X188491960Y-116789565D01*
X187706000Y-116003605D01*
X186920040Y-116789565D01*
X186987020Y-117029656D01*
X187122760Y-117093485D01*
X187044273Y-117125995D01*
X186815465Y-117278880D01*
X186620880Y-117473465D01*
X186467995Y-117702273D01*
X186436000Y-117779515D01*
X186404005Y-117702273D01*
X186251120Y-117473465D01*
X186056535Y-117278880D01*
X185827727Y-117125995D01*
X185756057Y-117096308D01*
X185769023Y-117091636D01*
X185884980Y-117029656D01*
X185951960Y-116789565D01*
X185166000Y-116003605D01*
X184380040Y-116789565D01*
X184447020Y-117029656D01*
X184582760Y-117093485D01*
X184504273Y-117125995D01*
X184275465Y-117278880D01*
X184080880Y-117473465D01*
X183927995Y-117702273D01*
X183822686Y-117956510D01*
X183769000Y-118226408D01*
X160070000Y-118226408D01*
X160070000Y-115896017D01*
X183764090Y-115896017D01*
X183805078Y-116168133D01*
X183898364Y-116427023D01*
X183960344Y-116542980D01*
X184200435Y-116609960D01*
X184986395Y-115824000D01*
X185345605Y-115824000D01*
X186131565Y-116609960D01*
X186371656Y-116542980D01*
X186433079Y-116412356D01*
X186438364Y-116427023D01*
X186500344Y-116542980D01*
X186740435Y-116609960D01*
X187526395Y-115824000D01*
X187885605Y-115824000D01*
X188671565Y-116609960D01*
X188911656Y-116542980D01*
X189028756Y-116293952D01*
X189095023Y-116026865D01*
X189101157Y-115896017D01*
X204084090Y-115896017D01*
X204125078Y-116168133D01*
X204218364Y-116427023D01*
X204280344Y-116542980D01*
X204520435Y-116609960D01*
X205306395Y-115824000D01*
X205665605Y-115824000D01*
X206451565Y-116609960D01*
X206691656Y-116542980D01*
X206753079Y-116412356D01*
X206758364Y-116427023D01*
X206820344Y-116542980D01*
X207060435Y-116609960D01*
X207846395Y-115824000D01*
X207060435Y-115038040D01*
X206820344Y-115105020D01*
X206758921Y-115235644D01*
X206753636Y-115220977D01*
X206691656Y-115105020D01*
X206451565Y-115038040D01*
X205665605Y-115824000D01*
X205306395Y-115824000D01*
X204520435Y-115038040D01*
X204280344Y-115105020D01*
X204163244Y-115354048D01*
X204096977Y-115621135D01*
X204084090Y-115896017D01*
X189101157Y-115896017D01*
X189107910Y-115751983D01*
X189066922Y-115479867D01*
X188973636Y-115220977D01*
X188911656Y-115105020D01*
X188671565Y-115038040D01*
X187885605Y-115824000D01*
X187526395Y-115824000D01*
X186740435Y-115038040D01*
X186500344Y-115105020D01*
X186438921Y-115235644D01*
X186433636Y-115220977D01*
X186371656Y-115105020D01*
X186131565Y-115038040D01*
X185345605Y-115824000D01*
X184986395Y-115824000D01*
X184200435Y-115038040D01*
X183960344Y-115105020D01*
X183843244Y-115354048D01*
X183776977Y-115621135D01*
X183764090Y-115896017D01*
X160070000Y-115896017D01*
X160070000Y-110098000D01*
X163053928Y-110098000D01*
X163053928Y-111898000D01*
X163066188Y-112022482D01*
X163102498Y-112142180D01*
X163161463Y-112252494D01*
X163240815Y-112349185D01*
X163337506Y-112428537D01*
X163447820Y-112487502D01*
X163466127Y-112493056D01*
X163399688Y-112559495D01*
X163231701Y-112810905D01*
X163115989Y-113090257D01*
X163057000Y-113386816D01*
X163057000Y-113689184D01*
X163115989Y-113985743D01*
X163231701Y-114265095D01*
X163399688Y-114516505D01*
X163613495Y-114730312D01*
X163864905Y-114898299D01*
X164144257Y-115014011D01*
X164440816Y-115073000D01*
X164743184Y-115073000D01*
X165039743Y-115014011D01*
X165319095Y-114898299D01*
X165570505Y-114730312D01*
X165784312Y-114516505D01*
X165952299Y-114265095D01*
X166068011Y-113985743D01*
X166127000Y-113689184D01*
X166127000Y-113386816D01*
X166068011Y-113090257D01*
X165952299Y-112810905D01*
X165784312Y-112559495D01*
X165717873Y-112493056D01*
X165736180Y-112487502D01*
X165846494Y-112428537D01*
X165943185Y-112349185D01*
X166022537Y-112252494D01*
X166081502Y-112142180D01*
X166117812Y-112022482D01*
X166130072Y-111898000D01*
X166130072Y-110098000D01*
X166117812Y-109973518D01*
X166081502Y-109853820D01*
X166022537Y-109743506D01*
X165943185Y-109646815D01*
X165846494Y-109567463D01*
X165736180Y-109508498D01*
X165616482Y-109472188D01*
X165492000Y-109459928D01*
X163692000Y-109459928D01*
X163567518Y-109472188D01*
X163447820Y-109508498D01*
X163337506Y-109567463D01*
X163240815Y-109646815D01*
X163161463Y-109743506D01*
X163102498Y-109853820D01*
X163066188Y-109973518D01*
X163053928Y-110098000D01*
X160070000Y-110098000D01*
X160070000Y-105525000D01*
X171429928Y-105525000D01*
X171442188Y-105649482D01*
X171478498Y-105769180D01*
X171537463Y-105879494D01*
X171616815Y-105976185D01*
X171713506Y-106055537D01*
X171823820Y-106114502D01*
X171943518Y-106150812D01*
X172068000Y-106163072D01*
X172307250Y-106160000D01*
X172466000Y-106001250D01*
X172466000Y-104902000D01*
X171591750Y-104902000D01*
X171433000Y-105060750D01*
X171429928Y-105525000D01*
X160070000Y-105525000D01*
X160070000Y-104025000D01*
X171429928Y-104025000D01*
X171433000Y-104489250D01*
X171591750Y-104648000D01*
X172466000Y-104648000D01*
X172466000Y-104493022D01*
X172703000Y-104493022D01*
X172703000Y-105056979D01*
X172719785Y-105227400D01*
X172720000Y-105228109D01*
X172720000Y-106001250D01*
X172878750Y-106160000D01*
X173118000Y-106163072D01*
X173242482Y-106150812D01*
X173362180Y-106114502D01*
X173426902Y-106079907D01*
X173635601Y-106143215D01*
X173863000Y-106165612D01*
X174090400Y-106143215D01*
X174309060Y-106076885D01*
X174498000Y-105975894D01*
X174686941Y-106076885D01*
X174905601Y-106143215D01*
X175133000Y-106165612D01*
X175360400Y-106143215D01*
X175579060Y-106076885D01*
X175780579Y-105969171D01*
X175957212Y-105824212D01*
X176102171Y-105647579D01*
X176166937Y-105526408D01*
X183769000Y-105526408D01*
X183769000Y-105801592D01*
X183822686Y-106071490D01*
X183927995Y-106325727D01*
X184080880Y-106554535D01*
X184275465Y-106749120D01*
X184504273Y-106902005D01*
X184581515Y-106934000D01*
X184504273Y-106965995D01*
X184275465Y-107118880D01*
X184080880Y-107313465D01*
X183927995Y-107542273D01*
X183822686Y-107796510D01*
X183769000Y-108066408D01*
X183769000Y-108341592D01*
X183822686Y-108611490D01*
X183927995Y-108865727D01*
X184080880Y-109094535D01*
X184275465Y-109289120D01*
X184504273Y-109442005D01*
X184581515Y-109474000D01*
X184504273Y-109505995D01*
X184275465Y-109658880D01*
X184080880Y-109853465D01*
X183927995Y-110082273D01*
X183822686Y-110336510D01*
X183769000Y-110606408D01*
X183769000Y-110881592D01*
X183822686Y-111151490D01*
X183927995Y-111405727D01*
X184080880Y-111634535D01*
X184275465Y-111829120D01*
X184504273Y-111982005D01*
X184581515Y-112014000D01*
X184504273Y-112045995D01*
X184275465Y-112198880D01*
X184080880Y-112393465D01*
X183927995Y-112622273D01*
X183822686Y-112876510D01*
X183769000Y-113146408D01*
X183769000Y-113421592D01*
X183822686Y-113691490D01*
X183927995Y-113945727D01*
X184080880Y-114174535D01*
X184275465Y-114369120D01*
X184504273Y-114522005D01*
X184575943Y-114551692D01*
X184562977Y-114556364D01*
X184447020Y-114618344D01*
X184380040Y-114858435D01*
X185166000Y-115644395D01*
X185951960Y-114858435D01*
X185884980Y-114618344D01*
X185749240Y-114554515D01*
X185827727Y-114522005D01*
X186056535Y-114369120D01*
X186251120Y-114174535D01*
X186404005Y-113945727D01*
X186436000Y-113868485D01*
X186467995Y-113945727D01*
X186620880Y-114174535D01*
X186815465Y-114369120D01*
X187044273Y-114522005D01*
X187115943Y-114551692D01*
X187102977Y-114556364D01*
X186987020Y-114618344D01*
X186920040Y-114858435D01*
X187706000Y-115644395D01*
X188491960Y-114858435D01*
X188424980Y-114618344D01*
X188289240Y-114554515D01*
X188367727Y-114522005D01*
X188596535Y-114369120D01*
X188791120Y-114174535D01*
X188944005Y-113945727D01*
X189049314Y-113691490D01*
X189103000Y-113421592D01*
X189103000Y-113146408D01*
X189049314Y-112876510D01*
X188944005Y-112622273D01*
X188791120Y-112393465D01*
X188596535Y-112198880D01*
X188367727Y-112045995D01*
X188290485Y-112014000D01*
X188367727Y-111982005D01*
X188596535Y-111829120D01*
X188791120Y-111634535D01*
X188944005Y-111405727D01*
X189049314Y-111151490D01*
X189103000Y-110881592D01*
X189103000Y-110606408D01*
X189049314Y-110336510D01*
X188944005Y-110082273D01*
X188791120Y-109853465D01*
X188596535Y-109658880D01*
X188367727Y-109505995D01*
X188290485Y-109474000D01*
X188367727Y-109442005D01*
X188596535Y-109289120D01*
X188791120Y-109094535D01*
X188944005Y-108865727D01*
X189049314Y-108611490D01*
X189103000Y-108341592D01*
X189103000Y-108066408D01*
X189049314Y-107796510D01*
X188944005Y-107542273D01*
X188791120Y-107313465D01*
X188596535Y-107118880D01*
X188367727Y-106965995D01*
X188290485Y-106934000D01*
X188367727Y-106902005D01*
X188596535Y-106749120D01*
X188791120Y-106554535D01*
X188944005Y-106325727D01*
X189049314Y-106071490D01*
X189103000Y-105801592D01*
X189103000Y-105526408D01*
X189049314Y-105256510D01*
X188944005Y-105002273D01*
X188791120Y-104773465D01*
X188596535Y-104578880D01*
X188367727Y-104425995D01*
X188296057Y-104396308D01*
X188309023Y-104391636D01*
X188424980Y-104329656D01*
X188491960Y-104089565D01*
X187706000Y-103303605D01*
X186920040Y-104089565D01*
X186987020Y-104329656D01*
X187122760Y-104393485D01*
X187044273Y-104425995D01*
X186815465Y-104578880D01*
X186620880Y-104773465D01*
X186467995Y-105002273D01*
X186436000Y-105079515D01*
X186404005Y-105002273D01*
X186251120Y-104773465D01*
X186056535Y-104578880D01*
X185827727Y-104425995D01*
X185756057Y-104396308D01*
X185769023Y-104391636D01*
X185884980Y-104329656D01*
X185951960Y-104089565D01*
X185166000Y-103303605D01*
X184380040Y-104089565D01*
X184447020Y-104329656D01*
X184582760Y-104393485D01*
X184504273Y-104425995D01*
X184275465Y-104578880D01*
X184080880Y-104773465D01*
X183927995Y-105002273D01*
X183822686Y-105256510D01*
X183769000Y-105526408D01*
X176166937Y-105526408D01*
X176209885Y-105446059D01*
X176276215Y-105227399D01*
X176293000Y-105056978D01*
X176293000Y-104493021D01*
X176276215Y-104322600D01*
X176209885Y-104103940D01*
X176102171Y-103902421D01*
X175957212Y-103725788D01*
X175780578Y-103580829D01*
X175579059Y-103473115D01*
X175360399Y-103406785D01*
X175133000Y-103384388D01*
X174905600Y-103406785D01*
X174686940Y-103473115D01*
X174498000Y-103574106D01*
X174309059Y-103473115D01*
X174090399Y-103406785D01*
X173863000Y-103384388D01*
X173635600Y-103406785D01*
X173426902Y-103470093D01*
X173362180Y-103435498D01*
X173242482Y-103399188D01*
X173118000Y-103386928D01*
X172878750Y-103390000D01*
X172720000Y-103548750D01*
X172720000Y-104321892D01*
X172719785Y-104322601D01*
X172703000Y-104493022D01*
X172466000Y-104493022D01*
X172466000Y-103548750D01*
X172307250Y-103390000D01*
X172068000Y-103386928D01*
X171943518Y-103399188D01*
X171823820Y-103435498D01*
X171713506Y-103494463D01*
X171616815Y-103573815D01*
X171537463Y-103670506D01*
X171478498Y-103780820D01*
X171442188Y-103900518D01*
X171429928Y-104025000D01*
X160070000Y-104025000D01*
X160070000Y-103196017D01*
X183764090Y-103196017D01*
X183805078Y-103468133D01*
X183898364Y-103727023D01*
X183960344Y-103842980D01*
X184200435Y-103909960D01*
X184986395Y-103124000D01*
X185345605Y-103124000D01*
X186131565Y-103909960D01*
X186371656Y-103842980D01*
X186433079Y-103712356D01*
X186438364Y-103727023D01*
X186500344Y-103842980D01*
X186740435Y-103909960D01*
X187526395Y-103124000D01*
X187885605Y-103124000D01*
X188671565Y-103909960D01*
X188911656Y-103842980D01*
X189028756Y-103593952D01*
X189095023Y-103326865D01*
X189101157Y-103196017D01*
X204084090Y-103196017D01*
X204125078Y-103468133D01*
X204218364Y-103727023D01*
X204280344Y-103842980D01*
X204520435Y-103909960D01*
X205306395Y-103124000D01*
X205665605Y-103124000D01*
X206451565Y-103909960D01*
X206691656Y-103842980D01*
X206753079Y-103712356D01*
X206758364Y-103727023D01*
X206820344Y-103842980D01*
X207060435Y-103909960D01*
X207846395Y-103124000D01*
X207060435Y-102338040D01*
X206820344Y-102405020D01*
X206758921Y-102535644D01*
X206753636Y-102520977D01*
X206691656Y-102405020D01*
X206451565Y-102338040D01*
X205665605Y-103124000D01*
X205306395Y-103124000D01*
X204520435Y-102338040D01*
X204280344Y-102405020D01*
X204163244Y-102654048D01*
X204096977Y-102921135D01*
X204084090Y-103196017D01*
X189101157Y-103196017D01*
X189107910Y-103051983D01*
X189066922Y-102779867D01*
X188973636Y-102520977D01*
X188911656Y-102405020D01*
X188671565Y-102338040D01*
X187885605Y-103124000D01*
X187526395Y-103124000D01*
X186740435Y-102338040D01*
X186500344Y-102405020D01*
X186438921Y-102535644D01*
X186433636Y-102520977D01*
X186371656Y-102405020D01*
X186131565Y-102338040D01*
X185345605Y-103124000D01*
X184986395Y-103124000D01*
X184200435Y-102338040D01*
X183960344Y-102405020D01*
X183843244Y-102654048D01*
X183776977Y-102921135D01*
X183764090Y-103196017D01*
X160070000Y-103196017D01*
X160070000Y-97906408D01*
X183769000Y-97906408D01*
X183769000Y-98181592D01*
X183822686Y-98451490D01*
X183927995Y-98705727D01*
X184080880Y-98934535D01*
X184275465Y-99129120D01*
X184504273Y-99282005D01*
X184581515Y-99314000D01*
X184504273Y-99345995D01*
X184275465Y-99498880D01*
X184080880Y-99693465D01*
X183927995Y-99922273D01*
X183822686Y-100176510D01*
X183769000Y-100446408D01*
X183769000Y-100721592D01*
X183822686Y-100991490D01*
X183927995Y-101245727D01*
X184080880Y-101474535D01*
X184275465Y-101669120D01*
X184504273Y-101822005D01*
X184575943Y-101851692D01*
X184562977Y-101856364D01*
X184447020Y-101918344D01*
X184380040Y-102158435D01*
X185166000Y-102944395D01*
X185951960Y-102158435D01*
X185884980Y-101918344D01*
X185749240Y-101854515D01*
X185827727Y-101822005D01*
X186056535Y-101669120D01*
X186251120Y-101474535D01*
X186404005Y-101245727D01*
X186436000Y-101168485D01*
X186467995Y-101245727D01*
X186620880Y-101474535D01*
X186815465Y-101669120D01*
X187044273Y-101822005D01*
X187115943Y-101851692D01*
X187102977Y-101856364D01*
X186987020Y-101918344D01*
X186920040Y-102158435D01*
X187706000Y-102944395D01*
X188491960Y-102158435D01*
X188424980Y-101918344D01*
X188289240Y-101854515D01*
X188367727Y-101822005D01*
X188596535Y-101669120D01*
X188791120Y-101474535D01*
X188944005Y-101245727D01*
X189049314Y-100991490D01*
X189103000Y-100721592D01*
X189103000Y-100446408D01*
X189049314Y-100176510D01*
X188944005Y-99922273D01*
X188791120Y-99693465D01*
X188596535Y-99498880D01*
X188367727Y-99345995D01*
X188290485Y-99314000D01*
X188367727Y-99282005D01*
X188596535Y-99129120D01*
X188791120Y-98934535D01*
X188944005Y-98705727D01*
X189049314Y-98451490D01*
X189103000Y-98181592D01*
X189103000Y-97906408D01*
X189049314Y-97636510D01*
X188944005Y-97382273D01*
X188791120Y-97153465D01*
X188596535Y-96958880D01*
X188367727Y-96805995D01*
X188113490Y-96700686D01*
X187843592Y-96647000D01*
X187568408Y-96647000D01*
X187298510Y-96700686D01*
X187044273Y-96805995D01*
X186815465Y-96958880D01*
X186620880Y-97153465D01*
X186467995Y-97382273D01*
X186436000Y-97459515D01*
X186404005Y-97382273D01*
X186251120Y-97153465D01*
X186056535Y-96958880D01*
X185827727Y-96805995D01*
X185573490Y-96700686D01*
X185303592Y-96647000D01*
X185028408Y-96647000D01*
X184758510Y-96700686D01*
X184504273Y-96805995D01*
X184275465Y-96958880D01*
X184080880Y-97153465D01*
X183927995Y-97382273D01*
X183822686Y-97636510D01*
X183769000Y-97906408D01*
X160070000Y-97906408D01*
X160070000Y-94691565D01*
X176252040Y-94691565D01*
X176319020Y-94931656D01*
X176568048Y-95048756D01*
X176835135Y-95115023D01*
X177110017Y-95127910D01*
X177382133Y-95086922D01*
X177641023Y-94993636D01*
X177756980Y-94931656D01*
X177823960Y-94691565D01*
X181332040Y-94691565D01*
X181399020Y-94931656D01*
X181648048Y-95048756D01*
X181915135Y-95115023D01*
X182190017Y-95127910D01*
X182462133Y-95086922D01*
X182721023Y-94993636D01*
X182836980Y-94931656D01*
X182903960Y-94691565D01*
X182118000Y-93905605D01*
X181332040Y-94691565D01*
X177823960Y-94691565D01*
X177038000Y-93905605D01*
X176252040Y-94691565D01*
X160070000Y-94691565D01*
X160070000Y-93798017D01*
X175636090Y-93798017D01*
X175677078Y-94070133D01*
X175770364Y-94329023D01*
X175832344Y-94444980D01*
X176072435Y-94511960D01*
X176858395Y-93726000D01*
X177217605Y-93726000D01*
X178003565Y-94511960D01*
X178243656Y-94444980D01*
X178360756Y-94195952D01*
X178427023Y-93928865D01*
X178433157Y-93798017D01*
X180716090Y-93798017D01*
X180757078Y-94070133D01*
X180850364Y-94329023D01*
X180912344Y-94444980D01*
X181152435Y-94511960D01*
X181938395Y-93726000D01*
X182297605Y-93726000D01*
X183083565Y-94511960D01*
X183323656Y-94444980D01*
X183440756Y-94195952D01*
X183507023Y-93928865D01*
X183519910Y-93653983D01*
X183478922Y-93381867D01*
X183385636Y-93122977D01*
X183323656Y-93007020D01*
X183083565Y-92940040D01*
X182297605Y-93726000D01*
X181938395Y-93726000D01*
X181152435Y-92940040D01*
X180912344Y-93007020D01*
X180795244Y-93256048D01*
X180728977Y-93523135D01*
X180716090Y-93798017D01*
X178433157Y-93798017D01*
X178439910Y-93653983D01*
X178398922Y-93381867D01*
X178305636Y-93122977D01*
X178243656Y-93007020D01*
X178003565Y-92940040D01*
X177217605Y-93726000D01*
X176858395Y-93726000D01*
X176072435Y-92940040D01*
X175832344Y-93007020D01*
X175715244Y-93256048D01*
X175648977Y-93523135D01*
X175636090Y-93798017D01*
X160070000Y-93798017D01*
X160070000Y-92362881D01*
X160800724Y-92362881D01*
X161160912Y-92852548D01*
X161824882Y-93212849D01*
X162546385Y-93436694D01*
X163297695Y-93515480D01*
X164049938Y-93446178D01*
X164774208Y-93231452D01*
X165442670Y-92879555D01*
X165483088Y-92852548D01*
X165550844Y-92760435D01*
X176252040Y-92760435D01*
X177038000Y-93546395D01*
X177823960Y-92760435D01*
X181332040Y-92760435D01*
X182118000Y-93546395D01*
X182903960Y-92760435D01*
X182836980Y-92520344D01*
X182587952Y-92403244D01*
X182425271Y-92362881D01*
X203345724Y-92362881D01*
X203705912Y-92852548D01*
X204369882Y-93212849D01*
X205091385Y-93436694D01*
X205842695Y-93515480D01*
X206594938Y-93446178D01*
X207319208Y-93231452D01*
X207987670Y-92879555D01*
X208028088Y-92852548D01*
X208388276Y-92362881D01*
X205867000Y-89841605D01*
X203345724Y-92362881D01*
X182425271Y-92362881D01*
X182320865Y-92336977D01*
X182045983Y-92324090D01*
X181773867Y-92365078D01*
X181514977Y-92458364D01*
X181399020Y-92520344D01*
X181332040Y-92760435D01*
X177823960Y-92760435D01*
X177756980Y-92520344D01*
X177507952Y-92403244D01*
X177240865Y-92336977D01*
X176965983Y-92324090D01*
X176693867Y-92365078D01*
X176434977Y-92458364D01*
X176319020Y-92520344D01*
X176252040Y-92760435D01*
X165550844Y-92760435D01*
X165843276Y-92362881D01*
X163322000Y-89841605D01*
X160800724Y-92362881D01*
X160070000Y-92362881D01*
X160070000Y-91717238D01*
X160104445Y-91782670D01*
X160131452Y-91823088D01*
X160621119Y-92183276D01*
X163142395Y-89662000D01*
X163501605Y-89662000D01*
X166022881Y-92183276D01*
X166512548Y-91823088D01*
X166872849Y-91159118D01*
X166907196Y-91048408D01*
X178181000Y-91048408D01*
X178181000Y-91323592D01*
X178234686Y-91593490D01*
X178339995Y-91847727D01*
X178492880Y-92076535D01*
X178687465Y-92271120D01*
X178916273Y-92424005D01*
X179170510Y-92529314D01*
X179440408Y-92583000D01*
X179715592Y-92583000D01*
X179985490Y-92529314D01*
X180239727Y-92424005D01*
X180468535Y-92271120D01*
X180663120Y-92076535D01*
X180816005Y-91847727D01*
X180921314Y-91593490D01*
X180975000Y-91323592D01*
X180975000Y-91048408D01*
X180921314Y-90778510D01*
X180816005Y-90524273D01*
X180663120Y-90295465D01*
X180468535Y-90100880D01*
X180239727Y-89947995D01*
X179985490Y-89842686D01*
X179715592Y-89789000D01*
X179440408Y-89789000D01*
X179170510Y-89842686D01*
X178916273Y-89947995D01*
X178687465Y-90100880D01*
X178492880Y-90295465D01*
X178339995Y-90524273D01*
X178234686Y-90778510D01*
X178181000Y-91048408D01*
X166907196Y-91048408D01*
X167096694Y-90437615D01*
X167175480Y-89686305D01*
X167168595Y-89611565D01*
X176252040Y-89611565D01*
X176319020Y-89851656D01*
X176568048Y-89968756D01*
X176835135Y-90035023D01*
X177110017Y-90047910D01*
X177382133Y-90006922D01*
X177641023Y-89913636D01*
X177756980Y-89851656D01*
X177823960Y-89611565D01*
X181332040Y-89611565D01*
X181399020Y-89851656D01*
X181648048Y-89968756D01*
X181915135Y-90035023D01*
X182190017Y-90047910D01*
X182462133Y-90006922D01*
X182721023Y-89913636D01*
X182836980Y-89851656D01*
X182896670Y-89637695D01*
X202013520Y-89637695D01*
X202082822Y-90389938D01*
X202297548Y-91114208D01*
X202649445Y-91782670D01*
X202676452Y-91823088D01*
X203166119Y-92183276D01*
X205687395Y-89662000D01*
X203166119Y-87140724D01*
X202676452Y-87500912D01*
X202316151Y-88164882D01*
X202092306Y-88886385D01*
X202013520Y-89637695D01*
X182896670Y-89637695D01*
X182903960Y-89611565D01*
X182118000Y-88825605D01*
X181332040Y-89611565D01*
X177823960Y-89611565D01*
X177038000Y-88825605D01*
X176252040Y-89611565D01*
X167168595Y-89611565D01*
X167106178Y-88934062D01*
X167042127Y-88718017D01*
X175636090Y-88718017D01*
X175677078Y-88990133D01*
X175770364Y-89249023D01*
X175832344Y-89364980D01*
X176072435Y-89431960D01*
X176858395Y-88646000D01*
X177217605Y-88646000D01*
X178003565Y-89431960D01*
X178243656Y-89364980D01*
X178360756Y-89115952D01*
X178427023Y-88848865D01*
X178433157Y-88718017D01*
X180716090Y-88718017D01*
X180757078Y-88990133D01*
X180850364Y-89249023D01*
X180912344Y-89364980D01*
X181152435Y-89431960D01*
X181938395Y-88646000D01*
X182297605Y-88646000D01*
X183083565Y-89431960D01*
X183323656Y-89364980D01*
X183440756Y-89115952D01*
X183507023Y-88848865D01*
X183519910Y-88573983D01*
X183478922Y-88301867D01*
X183385636Y-88042977D01*
X183323656Y-87927020D01*
X183083565Y-87860040D01*
X182297605Y-88646000D01*
X181938395Y-88646000D01*
X181152435Y-87860040D01*
X180912344Y-87927020D01*
X180795244Y-88176048D01*
X180728977Y-88443135D01*
X180716090Y-88718017D01*
X178433157Y-88718017D01*
X178439910Y-88573983D01*
X178398922Y-88301867D01*
X178305636Y-88042977D01*
X178243656Y-87927020D01*
X178003565Y-87860040D01*
X177217605Y-88646000D01*
X176858395Y-88646000D01*
X176072435Y-87860040D01*
X175832344Y-87927020D01*
X175715244Y-88176048D01*
X175648977Y-88443135D01*
X175636090Y-88718017D01*
X167042127Y-88718017D01*
X166891452Y-88209792D01*
X166612784Y-87680435D01*
X176252040Y-87680435D01*
X177038000Y-88466395D01*
X177823960Y-87680435D01*
X181332040Y-87680435D01*
X182118000Y-88466395D01*
X182903960Y-87680435D01*
X182836980Y-87440344D01*
X182587952Y-87323244D01*
X182320865Y-87256977D01*
X182045983Y-87244090D01*
X181773867Y-87285078D01*
X181514977Y-87378364D01*
X181399020Y-87440344D01*
X181332040Y-87680435D01*
X177823960Y-87680435D01*
X177756980Y-87440344D01*
X177507952Y-87323244D01*
X177240865Y-87256977D01*
X176965983Y-87244090D01*
X176693867Y-87285078D01*
X176434977Y-87378364D01*
X176319020Y-87440344D01*
X176252040Y-87680435D01*
X166612784Y-87680435D01*
X166539555Y-87541330D01*
X166512548Y-87500912D01*
X166022881Y-87140724D01*
X163501605Y-89662000D01*
X163142395Y-89662000D01*
X160621119Y-87140724D01*
X160131452Y-87500912D01*
X160070000Y-87614157D01*
X160070000Y-86537000D01*
X161112696Y-86537000D01*
X160800724Y-86961119D01*
G37*
%TD.AperFunction*%
%TD*%
M02*
