%TF.GenerationSoftware,KiCad,Pcbnew,(5.1.10)-1*%
%TF.CreationDate,2021-08-06T14:13:42-04:00*%
%TF.ProjectId,LED_Pulser,4c45445f-5075-46c7-9365-722e6b696361,rev?*%
%TF.SameCoordinates,Original*%
%TF.FileFunction,Soldermask,Bot*%
%TF.FilePolarity,Negative*%
%FSLAX46Y46*%
G04 Gerber Fmt 4.6, Leading zero omitted, Abs format (unit mm)*
G04 Created by KiCad (PCBNEW (5.1.10)-1) date 2021-08-06 14:13:42*
%MOMM*%
%LPD*%
G01*
G04 APERTURE LIST*
%ADD10C,1.800000*%
%ADD11C,6.400000*%
%ADD12R,3.500000X3.500000*%
%ADD13O,1.050000X1.500000*%
%ADD14R,1.050000X1.500000*%
%ADD15C,1.524000*%
%ADD16O,1.600000X1.600000*%
%ADD17R,1.600000X1.600000*%
%ADD18R,1.800000X1.800000*%
G04 APERTURE END LIST*
D10*
%TO.C,RV1*%
X165100000Y-137668000D03*
X162560000Y-132588000D03*
X165100000Y-124968000D03*
%TD*%
D11*
%TO.C,H4*%
X163322000Y-161671000D03*
%TD*%
%TO.C,H3*%
X205994000Y-161671000D03*
%TD*%
%TO.C,H2*%
X205867000Y-89662000D03*
%TD*%
%TO.C,H1*%
X163322000Y-89662000D03*
%TD*%
D12*
%TO.C,J42*%
X195072000Y-150876000D03*
G36*
G01*
X196072000Y-158376000D02*
X194072000Y-158376000D01*
G75*
G02*
X193322000Y-157626000I0J750000D01*
G01*
X193322000Y-156126000D01*
G75*
G02*
X194072000Y-155376000I750000J0D01*
G01*
X196072000Y-155376000D01*
G75*
G02*
X196822000Y-156126000I0J-750000D01*
G01*
X196822000Y-157626000D01*
G75*
G02*
X196072000Y-158376000I-750000J0D01*
G01*
G37*
G36*
G01*
X200647000Y-155626000D02*
X198897000Y-155626000D01*
G75*
G02*
X198022000Y-154751000I0J875000D01*
G01*
X198022000Y-153001000D01*
G75*
G02*
X198897000Y-152126000I875000J0D01*
G01*
X200647000Y-152126000D01*
G75*
G02*
X201522000Y-153001000I0J-875000D01*
G01*
X201522000Y-154751000D01*
G75*
G02*
X200647000Y-155626000I-875000J0D01*
G01*
G37*
%TD*%
D13*
%TO.C,U1*%
X172720000Y-123698000D03*
X173990000Y-123698000D03*
D14*
X171450000Y-123698000D03*
%TD*%
D15*
%TO.C,J41*%
X185166000Y-128524000D03*
%TD*%
%TO.C,J40*%
X208026000Y-115824000D03*
%TD*%
%TO.C,J39*%
X185166000Y-141224000D03*
%TD*%
%TO.C,J38*%
X208026000Y-141224000D03*
%TD*%
%TO.C,J37*%
X208026000Y-136144000D03*
%TD*%
%TO.C,J36*%
X208026000Y-131064000D03*
%TD*%
%TO.C,J35*%
X208026000Y-125984000D03*
%TD*%
%TO.C,J34*%
X208026000Y-120904000D03*
%TD*%
%TO.C,J33*%
X208026000Y-110744000D03*
%TD*%
%TO.C,J32*%
X208026000Y-105664000D03*
%TD*%
%TO.C,J31*%
X208026000Y-100584000D03*
%TD*%
%TO.C,J30*%
X208026000Y-143764000D03*
%TD*%
%TO.C,J29*%
X208026000Y-138684000D03*
%TD*%
%TO.C,J28*%
X208026000Y-133604000D03*
%TD*%
%TO.C,J27*%
X208026000Y-123444000D03*
%TD*%
%TO.C,J26*%
X208026000Y-118364000D03*
%TD*%
%TO.C,J25*%
X208026000Y-113284000D03*
%TD*%
%TO.C,J24*%
X208026000Y-108204000D03*
%TD*%
%TO.C,J23*%
X208026000Y-98044000D03*
%TD*%
%TO.C,J22*%
X208026000Y-146304000D03*
%TD*%
%TO.C,J21*%
X185166000Y-98044000D03*
%TD*%
%TO.C,J20*%
X185166000Y-146304000D03*
%TD*%
%TO.C,J19*%
X185166000Y-136144000D03*
%TD*%
%TO.C,J18*%
X185166000Y-131064000D03*
%TD*%
%TO.C,J17*%
X185166000Y-125984000D03*
%TD*%
%TO.C,J16*%
X185166000Y-120904000D03*
%TD*%
%TO.C,J15*%
X185166000Y-110744000D03*
%TD*%
%TO.C,J14*%
X185166000Y-105664000D03*
%TD*%
%TO.C,J13*%
X185166000Y-143764000D03*
%TD*%
%TO.C,J12*%
X185166000Y-138684000D03*
%TD*%
%TO.C,J11*%
X185166000Y-133604000D03*
%TD*%
%TO.C,J10*%
X185166000Y-123444000D03*
%TD*%
%TO.C,J9*%
X185166000Y-118364000D03*
%TD*%
%TO.C,J8*%
X185166000Y-113284000D03*
%TD*%
%TO.C,J7*%
X185166000Y-108204000D03*
%TD*%
%TO.C,J6*%
X208026000Y-128524000D03*
%TD*%
%TO.C,J5*%
X208026000Y-103124000D03*
%TD*%
%TO.C,J4*%
X185166000Y-115824000D03*
%TD*%
%TO.C,J3*%
X185166000Y-103124000D03*
%TD*%
%TO.C,J2*%
X185166000Y-100584000D03*
%TD*%
%TO.C,U4*%
X187706000Y-98044000D03*
X187706000Y-100584000D03*
X187706000Y-103124000D03*
X187706000Y-105664000D03*
X187706000Y-108204000D03*
X187706000Y-110744000D03*
X187706000Y-113284000D03*
X187706000Y-115824000D03*
X187706000Y-136144000D03*
X187706000Y-133604000D03*
X187706000Y-120904000D03*
X187706000Y-118364000D03*
X187706000Y-125984000D03*
X187706000Y-128524000D03*
X187706000Y-123444000D03*
X187706000Y-131064000D03*
X187706000Y-146304000D03*
X187706000Y-141224000D03*
X187706000Y-143764000D03*
X187706000Y-138684000D03*
X205486000Y-98044000D03*
X205486000Y-128524000D03*
X205486000Y-125984000D03*
X205486000Y-136144000D03*
X205486000Y-100584000D03*
X205486000Y-133604000D03*
X205486000Y-146304000D03*
X205486000Y-115824000D03*
X205486000Y-141224000D03*
X205486000Y-120904000D03*
X205486000Y-143764000D03*
X205486000Y-138684000D03*
X205486000Y-123444000D03*
X205486000Y-105664000D03*
X205486000Y-108204000D03*
X205486000Y-103124000D03*
X205486000Y-118364000D03*
X205486000Y-113284000D03*
X205486000Y-110744000D03*
X205486000Y-131064000D03*
%TD*%
%TO.C,J1*%
X177038000Y-93726000D03*
X182118000Y-93726000D03*
X182118000Y-88646000D03*
X177038000Y-88646000D03*
X179578000Y-91186000D03*
%TD*%
D16*
%TO.C,U2*%
X180975000Y-133858000D03*
X173355000Y-141478000D03*
X180975000Y-136398000D03*
X173355000Y-138938000D03*
X180975000Y-138938000D03*
X173355000Y-136398000D03*
X180975000Y-141478000D03*
D17*
X173355000Y-133858000D03*
%TD*%
D14*
%TO.C,Q1*%
X172593000Y-104775000D03*
D13*
X175133000Y-104775000D03*
X173863000Y-104775000D03*
%TD*%
D18*
%TO.C,D1*%
X164592000Y-110998000D03*
D10*
X164592000Y-113538000D03*
%TD*%
M02*
