%TF.GenerationSoftware,KiCad,Pcbnew,(5.1.10)-1*%
%TF.CreationDate,2021-08-06T14:13:42-04:00*%
%TF.ProjectId,LED_Pulser,4c45445f-5075-46c7-9365-722e6b696361,rev?*%
%TF.SameCoordinates,Original*%
%TF.FileFunction,Legend,Top*%
%TF.FilePolarity,Positive*%
%FSLAX46Y46*%
G04 Gerber Fmt 4.6, Leading zero omitted, Abs format (unit mm)*
G04 Created by KiCad (PCBNEW (5.1.10)-1) date 2021-08-06 14:13:42*
%MOMM*%
%LPD*%
G01*
G04 APERTURE LIST*
%ADD10C,0.120000*%
%ADD11C,0.150000*%
G04 APERTURE END LIST*
D10*
%TO.C,RV1*%
X161295000Y-141088000D02*
X161295000Y-121798000D01*
X166365000Y-141088000D02*
X166365000Y-121798000D01*
X161295000Y-141088000D02*
X166365000Y-141088000D01*
X161295000Y-121798000D02*
X166365000Y-121798000D01*
X162531000Y-142608000D02*
X162531000Y-141089000D01*
X165130000Y-142608000D02*
X165130000Y-141089000D01*
X162531000Y-142608000D02*
X165130000Y-142608000D01*
X162531000Y-141089000D02*
X165130000Y-141089000D01*
X163830000Y-142608000D02*
X163830000Y-141849000D01*
%TO.C,C2*%
X179579748Y-110215000D02*
X181002252Y-110215000D01*
X179579748Y-112035000D02*
X181002252Y-112035000D01*
%TO.C,J42*%
X191322000Y-149776000D02*
X190272000Y-149776000D01*
X190272000Y-150826000D02*
X190272000Y-149776000D01*
X199672000Y-155876000D02*
X199672000Y-164676000D01*
X199672000Y-164676000D02*
X190472000Y-164676000D01*
X196972000Y-149976000D02*
X199672000Y-149976000D01*
X199672000Y-149976000D02*
X199672000Y-151876000D01*
X190472000Y-164676000D02*
X190472000Y-149976000D01*
X190472000Y-149976000D02*
X193072000Y-149976000D01*
%TO.C,U1*%
X170881522Y-125536478D02*
G75*
G02*
X172720000Y-121098000I1838478J1838478D01*
G01*
X174558478Y-125536478D02*
G75*
G03*
X172720000Y-121098000I-1838478J1838478D01*
G01*
X170920000Y-125548000D02*
X174520000Y-125548000D01*
%TO.C,J1*%
X176072800Y-87680800D02*
X183083200Y-87680800D01*
X183083200Y-87680800D02*
X183083200Y-94691200D01*
X183083200Y-94691200D02*
X176072800Y-94691200D01*
X176072800Y-94691200D02*
X176072800Y-87680800D01*
%TO.C,U3*%
X189146000Y-95080000D02*
X192146000Y-95080000D01*
X189146000Y-92880000D02*
X191346000Y-92880000D01*
%TO.C,U2*%
X176165000Y-132528000D02*
X174515000Y-132528000D01*
X174515000Y-132528000D02*
X174515000Y-142808000D01*
X174515000Y-142808000D02*
X179815000Y-142808000D01*
X179815000Y-142808000D02*
X179815000Y-132528000D01*
X179815000Y-132528000D02*
X178165000Y-132528000D01*
X178165000Y-132528000D02*
G75*
G02*
X176165000Y-132528000I-1000000J0D01*
G01*
%TO.C,TP1*%
X160598000Y-150438000D02*
X162998000Y-150438000D01*
X162998000Y-150438000D02*
X162998000Y-152838000D01*
X162998000Y-152838000D02*
X160598000Y-152838000D01*
X160598000Y-152838000D02*
X160598000Y-150438000D01*
%TO.C,R8*%
X197331436Y-89387000D02*
X198785564Y-89387000D01*
X197331436Y-91207000D02*
X198785564Y-91207000D01*
%TO.C,R7*%
X197331436Y-93070000D02*
X198785564Y-93070000D01*
X197331436Y-94890000D02*
X198785564Y-94890000D01*
%TO.C,R6*%
X175286564Y-112035000D02*
X173832436Y-112035000D01*
X175286564Y-110215000D02*
X173832436Y-110215000D01*
%TO.C,R5*%
X161650000Y-106198564D02*
X161650000Y-104744436D01*
X163470000Y-106198564D02*
X163470000Y-104744436D01*
%TO.C,R4*%
X169010436Y-129773000D02*
X170464564Y-129773000D01*
X169010436Y-131593000D02*
X170464564Y-131593000D01*
%TO.C,R3*%
X173770936Y-114914000D02*
X175225064Y-114914000D01*
X173770936Y-116734000D02*
X175225064Y-116734000D01*
%TO.C,Q1*%
X172063000Y-106625000D02*
X175663000Y-106625000D01*
X175701478Y-106613478D02*
G75*
G03*
X173863000Y-102175000I-1838478J1838478D01*
G01*
X172024522Y-106613478D02*
G75*
G02*
X173863000Y-102175000I1838478J1838478D01*
G01*
%TO.C,D1*%
X166137000Y-109708000D02*
X163047000Y-109708000D01*
X167092000Y-112268000D02*
G75*
G03*
X167092000Y-112268000I-2500000J0D01*
G01*
X164591538Y-115258000D02*
G75*
G03*
X166136830Y-109708000I462J2990000D01*
G01*
X164592462Y-115258000D02*
G75*
G02*
X163047170Y-109708000I-462J2990000D01*
G01*
%TO.C,C4*%
X168550000Y-104747748D02*
X168550000Y-106170252D01*
X166730000Y-104747748D02*
X166730000Y-106170252D01*
%TO.C,C3*%
X164746252Y-119528000D02*
X163323748Y-119528000D01*
X164746252Y-117708000D02*
X163323748Y-117708000D01*
%TO.C,C1*%
X179579748Y-114914000D02*
X181002252Y-114914000D01*
X179579748Y-116734000D02*
X181002252Y-116734000D01*
%TO.C,RV1*%
D11*
X163361761Y-121356380D02*
X163028428Y-120880190D01*
X162790333Y-121356380D02*
X162790333Y-120356380D01*
X163171285Y-120356380D01*
X163266523Y-120404000D01*
X163314142Y-120451619D01*
X163361761Y-120546857D01*
X163361761Y-120689714D01*
X163314142Y-120784952D01*
X163266523Y-120832571D01*
X163171285Y-120880190D01*
X162790333Y-120880190D01*
X163647476Y-120356380D02*
X163980809Y-121356380D01*
X164314142Y-120356380D01*
X165171285Y-121356380D02*
X164599857Y-121356380D01*
X164885571Y-121356380D02*
X164885571Y-120356380D01*
X164790333Y-120499238D01*
X164695095Y-120594476D01*
X164599857Y-120642095D01*
%TO.C,C2*%
X180124333Y-109632142D02*
X180076714Y-109679761D01*
X179933857Y-109727380D01*
X179838619Y-109727380D01*
X179695761Y-109679761D01*
X179600523Y-109584523D01*
X179552904Y-109489285D01*
X179505285Y-109298809D01*
X179505285Y-109155952D01*
X179552904Y-108965476D01*
X179600523Y-108870238D01*
X179695761Y-108775000D01*
X179838619Y-108727380D01*
X179933857Y-108727380D01*
X180076714Y-108775000D01*
X180124333Y-108822619D01*
X180505285Y-108822619D02*
X180552904Y-108775000D01*
X180648142Y-108727380D01*
X180886238Y-108727380D01*
X180981476Y-108775000D01*
X181029095Y-108822619D01*
X181076714Y-108917857D01*
X181076714Y-109013095D01*
X181029095Y-109155952D01*
X180457666Y-109727380D01*
X181076714Y-109727380D01*
%TO.C,J42*%
X194262476Y-147788380D02*
X194262476Y-148502666D01*
X194214857Y-148645523D01*
X194119619Y-148740761D01*
X193976761Y-148788380D01*
X193881523Y-148788380D01*
X195167238Y-148121714D02*
X195167238Y-148788380D01*
X194929142Y-147740761D02*
X194691047Y-148455047D01*
X195310095Y-148455047D01*
X195643428Y-147883619D02*
X195691047Y-147836000D01*
X195786285Y-147788380D01*
X196024380Y-147788380D01*
X196119619Y-147836000D01*
X196167238Y-147883619D01*
X196214857Y-147978857D01*
X196214857Y-148074095D01*
X196167238Y-148216952D01*
X195595809Y-148788380D01*
X196214857Y-148788380D01*
%TO.C,U1*%
X171958095Y-119590380D02*
X171958095Y-120399904D01*
X172005714Y-120495142D01*
X172053333Y-120542761D01*
X172148571Y-120590380D01*
X172339047Y-120590380D01*
X172434285Y-120542761D01*
X172481904Y-120495142D01*
X172529523Y-120399904D01*
X172529523Y-119590380D01*
X173529523Y-120590380D02*
X172958095Y-120590380D01*
X173243809Y-120590380D02*
X173243809Y-119590380D01*
X173148571Y-119733238D01*
X173053333Y-119828476D01*
X172958095Y-119876095D01*
%TO.C,U4*%
X195834095Y-95464380D02*
X195834095Y-96273904D01*
X195881714Y-96369142D01*
X195929333Y-96416761D01*
X196024571Y-96464380D01*
X196215047Y-96464380D01*
X196310285Y-96416761D01*
X196357904Y-96369142D01*
X196405523Y-96273904D01*
X196405523Y-95464380D01*
X197310285Y-95797714D02*
X197310285Y-96464380D01*
X197072190Y-95416761D02*
X196834095Y-96131047D01*
X197453142Y-96131047D01*
%TO.C,J1*%
X179244666Y-86320380D02*
X179244666Y-87034666D01*
X179197047Y-87177523D01*
X179101809Y-87272761D01*
X178958952Y-87320380D01*
X178863714Y-87320380D01*
X180244666Y-87320380D02*
X179673238Y-87320380D01*
X179958952Y-87320380D02*
X179958952Y-86320380D01*
X179863714Y-86463238D01*
X179768476Y-86558476D01*
X179673238Y-86606095D01*
%TO.C,U3*%
X189484095Y-91527380D02*
X189484095Y-92336904D01*
X189531714Y-92432142D01*
X189579333Y-92479761D01*
X189674571Y-92527380D01*
X189865047Y-92527380D01*
X189960285Y-92479761D01*
X190007904Y-92432142D01*
X190055523Y-92336904D01*
X190055523Y-91527380D01*
X190436476Y-91527380D02*
X191055523Y-91527380D01*
X190722190Y-91908333D01*
X190865047Y-91908333D01*
X190960285Y-91955952D01*
X191007904Y-92003571D01*
X191055523Y-92098809D01*
X191055523Y-92336904D01*
X191007904Y-92432142D01*
X190960285Y-92479761D01*
X190865047Y-92527380D01*
X190579333Y-92527380D01*
X190484095Y-92479761D01*
X190436476Y-92432142D01*
%TO.C,U2*%
X176403095Y-130980380D02*
X176403095Y-131789904D01*
X176450714Y-131885142D01*
X176498333Y-131932761D01*
X176593571Y-131980380D01*
X176784047Y-131980380D01*
X176879285Y-131932761D01*
X176926904Y-131885142D01*
X176974523Y-131789904D01*
X176974523Y-130980380D01*
X177403095Y-131075619D02*
X177450714Y-131028000D01*
X177545952Y-130980380D01*
X177784047Y-130980380D01*
X177879285Y-131028000D01*
X177926904Y-131075619D01*
X177974523Y-131170857D01*
X177974523Y-131266095D01*
X177926904Y-131408952D01*
X177355476Y-131980380D01*
X177974523Y-131980380D01*
%TO.C,TP1*%
X160536095Y-149092380D02*
X161107523Y-149092380D01*
X160821809Y-150092380D02*
X160821809Y-149092380D01*
X161440857Y-150092380D02*
X161440857Y-149092380D01*
X161821809Y-149092380D01*
X161917047Y-149140000D01*
X161964666Y-149187619D01*
X162012285Y-149282857D01*
X162012285Y-149425714D01*
X161964666Y-149520952D01*
X161917047Y-149568571D01*
X161821809Y-149616190D01*
X161440857Y-149616190D01*
X162964666Y-150092380D02*
X162393238Y-150092380D01*
X162678952Y-150092380D02*
X162678952Y-149092380D01*
X162583714Y-149235238D01*
X162488476Y-149330476D01*
X162393238Y-149378095D01*
%TO.C,R8*%
X197826333Y-88971380D02*
X197493000Y-88495190D01*
X197254904Y-88971380D02*
X197254904Y-87971380D01*
X197635857Y-87971380D01*
X197731095Y-88019000D01*
X197778714Y-88066619D01*
X197826333Y-88161857D01*
X197826333Y-88304714D01*
X197778714Y-88399952D01*
X197731095Y-88447571D01*
X197635857Y-88495190D01*
X197254904Y-88495190D01*
X198397761Y-88399952D02*
X198302523Y-88352333D01*
X198254904Y-88304714D01*
X198207285Y-88209476D01*
X198207285Y-88161857D01*
X198254904Y-88066619D01*
X198302523Y-88019000D01*
X198397761Y-87971380D01*
X198588238Y-87971380D01*
X198683476Y-88019000D01*
X198731095Y-88066619D01*
X198778714Y-88161857D01*
X198778714Y-88209476D01*
X198731095Y-88304714D01*
X198683476Y-88352333D01*
X198588238Y-88399952D01*
X198397761Y-88399952D01*
X198302523Y-88447571D01*
X198254904Y-88495190D01*
X198207285Y-88590428D01*
X198207285Y-88780904D01*
X198254904Y-88876142D01*
X198302523Y-88923761D01*
X198397761Y-88971380D01*
X198588238Y-88971380D01*
X198683476Y-88923761D01*
X198731095Y-88876142D01*
X198778714Y-88780904D01*
X198778714Y-88590428D01*
X198731095Y-88495190D01*
X198683476Y-88447571D01*
X198588238Y-88399952D01*
%TO.C,R7*%
X197891833Y-92908380D02*
X197558500Y-92432190D01*
X197320404Y-92908380D02*
X197320404Y-91908380D01*
X197701357Y-91908380D01*
X197796595Y-91956000D01*
X197844214Y-92003619D01*
X197891833Y-92098857D01*
X197891833Y-92241714D01*
X197844214Y-92336952D01*
X197796595Y-92384571D01*
X197701357Y-92432190D01*
X197320404Y-92432190D01*
X198225166Y-91908380D02*
X198891833Y-91908380D01*
X198463261Y-92908380D01*
%TO.C,R6*%
X174392833Y-109545380D02*
X174059500Y-109069190D01*
X173821404Y-109545380D02*
X173821404Y-108545380D01*
X174202357Y-108545380D01*
X174297595Y-108593000D01*
X174345214Y-108640619D01*
X174392833Y-108735857D01*
X174392833Y-108878714D01*
X174345214Y-108973952D01*
X174297595Y-109021571D01*
X174202357Y-109069190D01*
X173821404Y-109069190D01*
X175249976Y-108545380D02*
X175059500Y-108545380D01*
X174964261Y-108593000D01*
X174916642Y-108640619D01*
X174821404Y-108783476D01*
X174773785Y-108973952D01*
X174773785Y-109354904D01*
X174821404Y-109450142D01*
X174869023Y-109497761D01*
X174964261Y-109545380D01*
X175154738Y-109545380D01*
X175249976Y-109497761D01*
X175297595Y-109450142D01*
X175345214Y-109354904D01*
X175345214Y-109116809D01*
X175297595Y-109021571D01*
X175249976Y-108973952D01*
X175154738Y-108926333D01*
X174964261Y-108926333D01*
X174869023Y-108973952D01*
X174821404Y-109021571D01*
X174773785Y-109116809D01*
%TO.C,R5*%
X162393333Y-102941380D02*
X162060000Y-102465190D01*
X161821904Y-102941380D02*
X161821904Y-101941380D01*
X162202857Y-101941380D01*
X162298095Y-101989000D01*
X162345714Y-102036619D01*
X162393333Y-102131857D01*
X162393333Y-102274714D01*
X162345714Y-102369952D01*
X162298095Y-102417571D01*
X162202857Y-102465190D01*
X161821904Y-102465190D01*
X163298095Y-101941380D02*
X162821904Y-101941380D01*
X162774285Y-102417571D01*
X162821904Y-102369952D01*
X162917142Y-102322333D01*
X163155238Y-102322333D01*
X163250476Y-102369952D01*
X163298095Y-102417571D01*
X163345714Y-102512809D01*
X163345714Y-102750904D01*
X163298095Y-102846142D01*
X163250476Y-102893761D01*
X163155238Y-102941380D01*
X162917142Y-102941380D01*
X162821904Y-102893761D01*
X162774285Y-102846142D01*
%TO.C,R4*%
X169570833Y-129315380D02*
X169237500Y-128839190D01*
X168999404Y-129315380D02*
X168999404Y-128315380D01*
X169380357Y-128315380D01*
X169475595Y-128363000D01*
X169523214Y-128410619D01*
X169570833Y-128505857D01*
X169570833Y-128648714D01*
X169523214Y-128743952D01*
X169475595Y-128791571D01*
X169380357Y-128839190D01*
X168999404Y-128839190D01*
X170427976Y-128648714D02*
X170427976Y-129315380D01*
X170189880Y-128267761D02*
X169951785Y-128982047D01*
X170570833Y-128982047D01*
%TO.C,R3*%
X174458333Y-114456380D02*
X174125000Y-113980190D01*
X173886904Y-114456380D02*
X173886904Y-113456380D01*
X174267857Y-113456380D01*
X174363095Y-113504000D01*
X174410714Y-113551619D01*
X174458333Y-113646857D01*
X174458333Y-113789714D01*
X174410714Y-113884952D01*
X174363095Y-113932571D01*
X174267857Y-113980190D01*
X173886904Y-113980190D01*
X174791666Y-113456380D02*
X175410714Y-113456380D01*
X175077380Y-113837333D01*
X175220238Y-113837333D01*
X175315476Y-113884952D01*
X175363095Y-113932571D01*
X175410714Y-114027809D01*
X175410714Y-114265904D01*
X175363095Y-114361142D01*
X175315476Y-114408761D01*
X175220238Y-114456380D01*
X174934523Y-114456380D01*
X174839285Y-114408761D01*
X174791666Y-114361142D01*
%TO.C,Q1*%
X173767761Y-101762619D02*
X173672523Y-101715000D01*
X173577285Y-101619761D01*
X173434428Y-101476904D01*
X173339190Y-101429285D01*
X173243952Y-101429285D01*
X173291571Y-101667380D02*
X173196333Y-101619761D01*
X173101095Y-101524523D01*
X173053476Y-101334047D01*
X173053476Y-101000714D01*
X173101095Y-100810238D01*
X173196333Y-100715000D01*
X173291571Y-100667380D01*
X173482047Y-100667380D01*
X173577285Y-100715000D01*
X173672523Y-100810238D01*
X173720142Y-101000714D01*
X173720142Y-101334047D01*
X173672523Y-101524523D01*
X173577285Y-101619761D01*
X173482047Y-101667380D01*
X173291571Y-101667380D01*
X174672523Y-101667380D02*
X174101095Y-101667380D01*
X174386809Y-101667380D02*
X174386809Y-100667380D01*
X174291571Y-100810238D01*
X174196333Y-100905476D01*
X174101095Y-100953095D01*
%TO.C,D1*%
X163726904Y-108910380D02*
X163726904Y-107910380D01*
X163965000Y-107910380D01*
X164107857Y-107958000D01*
X164203095Y-108053238D01*
X164250714Y-108148476D01*
X164298333Y-108338952D01*
X164298333Y-108481809D01*
X164250714Y-108672285D01*
X164203095Y-108767523D01*
X164107857Y-108862761D01*
X163965000Y-108910380D01*
X163726904Y-108910380D01*
X165250714Y-108910380D02*
X164679285Y-108910380D01*
X164965000Y-108910380D02*
X164965000Y-107910380D01*
X164869761Y-108053238D01*
X164774523Y-108148476D01*
X164679285Y-108196095D01*
%TO.C,C4*%
X167473333Y-102846142D02*
X167425714Y-102893761D01*
X167282857Y-102941380D01*
X167187619Y-102941380D01*
X167044761Y-102893761D01*
X166949523Y-102798523D01*
X166901904Y-102703285D01*
X166854285Y-102512809D01*
X166854285Y-102369952D01*
X166901904Y-102179476D01*
X166949523Y-102084238D01*
X167044761Y-101989000D01*
X167187619Y-101941380D01*
X167282857Y-101941380D01*
X167425714Y-101989000D01*
X167473333Y-102036619D01*
X168330476Y-102274714D02*
X168330476Y-102941380D01*
X168092380Y-101893761D02*
X167854285Y-102608047D01*
X168473333Y-102608047D01*
%TO.C,C3*%
X163663333Y-117070142D02*
X163615714Y-117117761D01*
X163472857Y-117165380D01*
X163377619Y-117165380D01*
X163234761Y-117117761D01*
X163139523Y-117022523D01*
X163091904Y-116927285D01*
X163044285Y-116736809D01*
X163044285Y-116593952D01*
X163091904Y-116403476D01*
X163139523Y-116308238D01*
X163234761Y-116213000D01*
X163377619Y-116165380D01*
X163472857Y-116165380D01*
X163615714Y-116213000D01*
X163663333Y-116260619D01*
X163996666Y-116165380D02*
X164615714Y-116165380D01*
X164282380Y-116546333D01*
X164425238Y-116546333D01*
X164520476Y-116593952D01*
X164568095Y-116641571D01*
X164615714Y-116736809D01*
X164615714Y-116974904D01*
X164568095Y-117070142D01*
X164520476Y-117117761D01*
X164425238Y-117165380D01*
X164139523Y-117165380D01*
X164044285Y-117117761D01*
X163996666Y-117070142D01*
%TO.C,C1*%
X180124333Y-114331142D02*
X180076714Y-114378761D01*
X179933857Y-114426380D01*
X179838619Y-114426380D01*
X179695761Y-114378761D01*
X179600523Y-114283523D01*
X179552904Y-114188285D01*
X179505285Y-113997809D01*
X179505285Y-113854952D01*
X179552904Y-113664476D01*
X179600523Y-113569238D01*
X179695761Y-113474000D01*
X179838619Y-113426380D01*
X179933857Y-113426380D01*
X180076714Y-113474000D01*
X180124333Y-113521619D01*
X181076714Y-114426380D02*
X180505285Y-114426380D01*
X180791000Y-114426380D02*
X180791000Y-113426380D01*
X180695761Y-113569238D01*
X180600523Y-113664476D01*
X180505285Y-113712095D01*
%TD*%
M02*
