%TF.GenerationSoftware,KiCad,Pcbnew,(5.1.10)-1*%
%TF.CreationDate,2021-08-06T14:13:42-04:00*%
%TF.ProjectId,LED_Pulser,4c45445f-5075-46c7-9365-722e6b696361,rev?*%
%TF.SameCoordinates,Original*%
%TF.FileFunction,Paste,Top*%
%TF.FilePolarity,Positive*%
%FSLAX46Y46*%
G04 Gerber Fmt 4.6, Leading zero omitted, Abs format (unit mm)*
G04 Created by KiCad (PCBNEW (5.1.10)-1) date 2021-08-06 14:13:42*
%MOMM*%
%LPD*%
G01*
G04 APERTURE LIST*
%ADD10R,0.800000X0.300000*%
G04 APERTURE END LIST*
%TO.C,C2*%
G36*
G01*
X181191000Y-111775001D02*
X181191000Y-110474999D01*
G75*
G02*
X181440999Y-110225000I249999J0D01*
G01*
X182091001Y-110225000D01*
G75*
G02*
X182341000Y-110474999I0J-249999D01*
G01*
X182341000Y-111775001D01*
G75*
G02*
X182091001Y-112025000I-249999J0D01*
G01*
X181440999Y-112025000D01*
G75*
G02*
X181191000Y-111775001I0J249999D01*
G01*
G37*
G36*
G01*
X178241000Y-111775001D02*
X178241000Y-110474999D01*
G75*
G02*
X178490999Y-110225000I249999J0D01*
G01*
X179141001Y-110225000D01*
G75*
G02*
X179391000Y-110474999I0J-249999D01*
G01*
X179391000Y-111775001D01*
G75*
G02*
X179141001Y-112025000I-249999J0D01*
G01*
X178490999Y-112025000D01*
G75*
G02*
X178241000Y-111775001I0J249999D01*
G01*
G37*
%TD*%
D10*
%TO.C,U3*%
X191796000Y-94730000D03*
X191796000Y-94230000D03*
X191796000Y-93730000D03*
X191796000Y-93230000D03*
X188696000Y-93230000D03*
X188696000Y-93730000D03*
X188696000Y-94230000D03*
X188696000Y-94730000D03*
%TD*%
%TO.C,R8*%
G36*
G01*
X198958500Y-90922001D02*
X198958500Y-89671999D01*
G75*
G02*
X199208499Y-89422000I249999J0D01*
G01*
X199833501Y-89422000D01*
G75*
G02*
X200083500Y-89671999I0J-249999D01*
G01*
X200083500Y-90922001D01*
G75*
G02*
X199833501Y-91172000I-249999J0D01*
G01*
X199208499Y-91172000D01*
G75*
G02*
X198958500Y-90922001I0J249999D01*
G01*
G37*
G36*
G01*
X196033500Y-90922001D02*
X196033500Y-89671999D01*
G75*
G02*
X196283499Y-89422000I249999J0D01*
G01*
X196908501Y-89422000D01*
G75*
G02*
X197158500Y-89671999I0J-249999D01*
G01*
X197158500Y-90922001D01*
G75*
G02*
X196908501Y-91172000I-249999J0D01*
G01*
X196283499Y-91172000D01*
G75*
G02*
X196033500Y-90922001I0J249999D01*
G01*
G37*
%TD*%
%TO.C,R7*%
G36*
G01*
X198958500Y-94605001D02*
X198958500Y-93354999D01*
G75*
G02*
X199208499Y-93105000I249999J0D01*
G01*
X199833501Y-93105000D01*
G75*
G02*
X200083500Y-93354999I0J-249999D01*
G01*
X200083500Y-94605001D01*
G75*
G02*
X199833501Y-94855000I-249999J0D01*
G01*
X199208499Y-94855000D01*
G75*
G02*
X198958500Y-94605001I0J249999D01*
G01*
G37*
G36*
G01*
X196033500Y-94605001D02*
X196033500Y-93354999D01*
G75*
G02*
X196283499Y-93105000I249999J0D01*
G01*
X196908501Y-93105000D01*
G75*
G02*
X197158500Y-93354999I0J-249999D01*
G01*
X197158500Y-94605001D01*
G75*
G02*
X196908501Y-94855000I-249999J0D01*
G01*
X196283499Y-94855000D01*
G75*
G02*
X196033500Y-94605001I0J249999D01*
G01*
G37*
%TD*%
%TO.C,R6*%
G36*
G01*
X173659500Y-110499999D02*
X173659500Y-111750001D01*
G75*
G02*
X173409501Y-112000000I-249999J0D01*
G01*
X172784499Y-112000000D01*
G75*
G02*
X172534500Y-111750001I0J249999D01*
G01*
X172534500Y-110499999D01*
G75*
G02*
X172784499Y-110250000I249999J0D01*
G01*
X173409501Y-110250000D01*
G75*
G02*
X173659500Y-110499999I0J-249999D01*
G01*
G37*
G36*
G01*
X176584500Y-110499999D02*
X176584500Y-111750001D01*
G75*
G02*
X176334501Y-112000000I-249999J0D01*
G01*
X175709499Y-112000000D01*
G75*
G02*
X175459500Y-111750001I0J249999D01*
G01*
X175459500Y-110499999D01*
G75*
G02*
X175709499Y-110250000I249999J0D01*
G01*
X176334501Y-110250000D01*
G75*
G02*
X176584500Y-110499999I0J-249999D01*
G01*
G37*
%TD*%
%TO.C,R5*%
G36*
G01*
X163185001Y-104571500D02*
X161934999Y-104571500D01*
G75*
G02*
X161685000Y-104321501I0J249999D01*
G01*
X161685000Y-103696499D01*
G75*
G02*
X161934999Y-103446500I249999J0D01*
G01*
X163185001Y-103446500D01*
G75*
G02*
X163435000Y-103696499I0J-249999D01*
G01*
X163435000Y-104321501D01*
G75*
G02*
X163185001Y-104571500I-249999J0D01*
G01*
G37*
G36*
G01*
X163185001Y-107496500D02*
X161934999Y-107496500D01*
G75*
G02*
X161685000Y-107246501I0J249999D01*
G01*
X161685000Y-106621499D01*
G75*
G02*
X161934999Y-106371500I249999J0D01*
G01*
X163185001Y-106371500D01*
G75*
G02*
X163435000Y-106621499I0J-249999D01*
G01*
X163435000Y-107246501D01*
G75*
G02*
X163185001Y-107496500I-249999J0D01*
G01*
G37*
%TD*%
%TO.C,R4*%
G36*
G01*
X170637500Y-131308001D02*
X170637500Y-130057999D01*
G75*
G02*
X170887499Y-129808000I249999J0D01*
G01*
X171512501Y-129808000D01*
G75*
G02*
X171762500Y-130057999I0J-249999D01*
G01*
X171762500Y-131308001D01*
G75*
G02*
X171512501Y-131558000I-249999J0D01*
G01*
X170887499Y-131558000D01*
G75*
G02*
X170637500Y-131308001I0J249999D01*
G01*
G37*
G36*
G01*
X167712500Y-131308001D02*
X167712500Y-130057999D01*
G75*
G02*
X167962499Y-129808000I249999J0D01*
G01*
X168587501Y-129808000D01*
G75*
G02*
X168837500Y-130057999I0J-249999D01*
G01*
X168837500Y-131308001D01*
G75*
G02*
X168587501Y-131558000I-249999J0D01*
G01*
X167962499Y-131558000D01*
G75*
G02*
X167712500Y-131308001I0J249999D01*
G01*
G37*
%TD*%
%TO.C,R3*%
G36*
G01*
X175398000Y-116449001D02*
X175398000Y-115198999D01*
G75*
G02*
X175647999Y-114949000I249999J0D01*
G01*
X176273001Y-114949000D01*
G75*
G02*
X176523000Y-115198999I0J-249999D01*
G01*
X176523000Y-116449001D01*
G75*
G02*
X176273001Y-116699000I-249999J0D01*
G01*
X175647999Y-116699000D01*
G75*
G02*
X175398000Y-116449001I0J249999D01*
G01*
G37*
G36*
G01*
X172473000Y-116449001D02*
X172473000Y-115198999D01*
G75*
G02*
X172722999Y-114949000I249999J0D01*
G01*
X173348001Y-114949000D01*
G75*
G02*
X173598000Y-115198999I0J-249999D01*
G01*
X173598000Y-116449001D01*
G75*
G02*
X173348001Y-116699000I-249999J0D01*
G01*
X172722999Y-116699000D01*
G75*
G02*
X172473000Y-116449001I0J249999D01*
G01*
G37*
%TD*%
%TO.C,C4*%
G36*
G01*
X166989999Y-106359000D02*
X168290001Y-106359000D01*
G75*
G02*
X168540000Y-106608999I0J-249999D01*
G01*
X168540000Y-107259001D01*
G75*
G02*
X168290001Y-107509000I-249999J0D01*
G01*
X166989999Y-107509000D01*
G75*
G02*
X166740000Y-107259001I0J249999D01*
G01*
X166740000Y-106608999D01*
G75*
G02*
X166989999Y-106359000I249999J0D01*
G01*
G37*
G36*
G01*
X166989999Y-103409000D02*
X168290001Y-103409000D01*
G75*
G02*
X168540000Y-103658999I0J-249999D01*
G01*
X168540000Y-104309001D01*
G75*
G02*
X168290001Y-104559000I-249999J0D01*
G01*
X166989999Y-104559000D01*
G75*
G02*
X166740000Y-104309001I0J249999D01*
G01*
X166740000Y-103658999D01*
G75*
G02*
X166989999Y-103409000I249999J0D01*
G01*
G37*
%TD*%
%TO.C,C3*%
G36*
G01*
X163135000Y-117967999D02*
X163135000Y-119268001D01*
G75*
G02*
X162885001Y-119518000I-249999J0D01*
G01*
X162234999Y-119518000D01*
G75*
G02*
X161985000Y-119268001I0J249999D01*
G01*
X161985000Y-117967999D01*
G75*
G02*
X162234999Y-117718000I249999J0D01*
G01*
X162885001Y-117718000D01*
G75*
G02*
X163135000Y-117967999I0J-249999D01*
G01*
G37*
G36*
G01*
X166085000Y-117967999D02*
X166085000Y-119268001D01*
G75*
G02*
X165835001Y-119518000I-249999J0D01*
G01*
X165184999Y-119518000D01*
G75*
G02*
X164935000Y-119268001I0J249999D01*
G01*
X164935000Y-117967999D01*
G75*
G02*
X165184999Y-117718000I249999J0D01*
G01*
X165835001Y-117718000D01*
G75*
G02*
X166085000Y-117967999I0J-249999D01*
G01*
G37*
%TD*%
%TO.C,C1*%
G36*
G01*
X181191000Y-116474001D02*
X181191000Y-115173999D01*
G75*
G02*
X181440999Y-114924000I249999J0D01*
G01*
X182091001Y-114924000D01*
G75*
G02*
X182341000Y-115173999I0J-249999D01*
G01*
X182341000Y-116474001D01*
G75*
G02*
X182091001Y-116724000I-249999J0D01*
G01*
X181440999Y-116724000D01*
G75*
G02*
X181191000Y-116474001I0J249999D01*
G01*
G37*
G36*
G01*
X178241000Y-116474001D02*
X178241000Y-115173999D01*
G75*
G02*
X178490999Y-114924000I249999J0D01*
G01*
X179141001Y-114924000D01*
G75*
G02*
X179391000Y-115173999I0J-249999D01*
G01*
X179391000Y-116474001D01*
G75*
G02*
X179141001Y-116724000I-249999J0D01*
G01*
X178490999Y-116724000D01*
G75*
G02*
X178241000Y-116474001I0J249999D01*
G01*
G37*
%TD*%
M02*
