%TF.GenerationSoftware,KiCad,Pcbnew,(5.1.10)-1*%
%TF.CreationDate,2021-08-06T14:13:42-04:00*%
%TF.ProjectId,LED_Pulser,4c45445f-5075-46c7-9365-722e6b696361,rev?*%
%TF.SameCoordinates,Original*%
%TF.FileFunction,Soldermask,Top*%
%TF.FilePolarity,Negative*%
%FSLAX46Y46*%
G04 Gerber Fmt 4.6, Leading zero omitted, Abs format (unit mm)*
G04 Created by KiCad (PCBNEW (5.1.10)-1) date 2021-08-06 14:13:42*
%MOMM*%
%LPD*%
G01*
G04 APERTURE LIST*
%ADD10C,1.800000*%
%ADD11C,6.400000*%
%ADD12R,3.500000X3.500000*%
%ADD13O,1.050000X1.500000*%
%ADD14R,1.050000X1.500000*%
%ADD15C,1.524000*%
%ADD16R,0.800000X0.300000*%
%ADD17O,1.600000X1.600000*%
%ADD18R,1.600000X1.600000*%
%ADD19R,2.000000X2.000000*%
%ADD20R,1.800000X1.800000*%
G04 APERTURE END LIST*
D10*
%TO.C,RV1*%
X165100000Y-137668000D03*
X162560000Y-132588000D03*
X165100000Y-124968000D03*
%TD*%
%TO.C,C2*%
G36*
G01*
X181191000Y-111775001D02*
X181191000Y-110474999D01*
G75*
G02*
X181440999Y-110225000I249999J0D01*
G01*
X182091001Y-110225000D01*
G75*
G02*
X182341000Y-110474999I0J-249999D01*
G01*
X182341000Y-111775001D01*
G75*
G02*
X182091001Y-112025000I-249999J0D01*
G01*
X181440999Y-112025000D01*
G75*
G02*
X181191000Y-111775001I0J249999D01*
G01*
G37*
G36*
G01*
X178241000Y-111775001D02*
X178241000Y-110474999D01*
G75*
G02*
X178490999Y-110225000I249999J0D01*
G01*
X179141001Y-110225000D01*
G75*
G02*
X179391000Y-110474999I0J-249999D01*
G01*
X179391000Y-111775001D01*
G75*
G02*
X179141001Y-112025000I-249999J0D01*
G01*
X178490999Y-112025000D01*
G75*
G02*
X178241000Y-111775001I0J249999D01*
G01*
G37*
%TD*%
D11*
%TO.C,H4*%
X163322000Y-161671000D03*
%TD*%
%TO.C,H3*%
X205994000Y-161671000D03*
%TD*%
%TO.C,H2*%
X205867000Y-89662000D03*
%TD*%
%TO.C,H1*%
X163322000Y-89662000D03*
%TD*%
D12*
%TO.C,J42*%
X195072000Y-150876000D03*
G36*
G01*
X196072000Y-158376000D02*
X194072000Y-158376000D01*
G75*
G02*
X193322000Y-157626000I0J750000D01*
G01*
X193322000Y-156126000D01*
G75*
G02*
X194072000Y-155376000I750000J0D01*
G01*
X196072000Y-155376000D01*
G75*
G02*
X196822000Y-156126000I0J-750000D01*
G01*
X196822000Y-157626000D01*
G75*
G02*
X196072000Y-158376000I-750000J0D01*
G01*
G37*
G36*
G01*
X200647000Y-155626000D02*
X198897000Y-155626000D01*
G75*
G02*
X198022000Y-154751000I0J875000D01*
G01*
X198022000Y-153001000D01*
G75*
G02*
X198897000Y-152126000I875000J0D01*
G01*
X200647000Y-152126000D01*
G75*
G02*
X201522000Y-153001000I0J-875000D01*
G01*
X201522000Y-154751000D01*
G75*
G02*
X200647000Y-155626000I-875000J0D01*
G01*
G37*
%TD*%
D13*
%TO.C,U1*%
X172720000Y-123698000D03*
X173990000Y-123698000D03*
D14*
X171450000Y-123698000D03*
%TD*%
D15*
%TO.C,J41*%
X185166000Y-128524000D03*
%TD*%
%TO.C,J40*%
X208026000Y-115824000D03*
%TD*%
%TO.C,J39*%
X185166000Y-141224000D03*
%TD*%
%TO.C,J38*%
X208026000Y-141224000D03*
%TD*%
%TO.C,J37*%
X208026000Y-136144000D03*
%TD*%
%TO.C,J36*%
X208026000Y-131064000D03*
%TD*%
%TO.C,J35*%
X208026000Y-125984000D03*
%TD*%
%TO.C,J34*%
X208026000Y-120904000D03*
%TD*%
%TO.C,J33*%
X208026000Y-110744000D03*
%TD*%
%TO.C,J32*%
X208026000Y-105664000D03*
%TD*%
%TO.C,J31*%
X208026000Y-100584000D03*
%TD*%
%TO.C,J30*%
X208026000Y-143764000D03*
%TD*%
%TO.C,J29*%
X208026000Y-138684000D03*
%TD*%
%TO.C,J28*%
X208026000Y-133604000D03*
%TD*%
%TO.C,J27*%
X208026000Y-123444000D03*
%TD*%
%TO.C,J26*%
X208026000Y-118364000D03*
%TD*%
%TO.C,J25*%
X208026000Y-113284000D03*
%TD*%
%TO.C,J24*%
X208026000Y-108204000D03*
%TD*%
%TO.C,J23*%
X208026000Y-98044000D03*
%TD*%
%TO.C,J22*%
X208026000Y-146304000D03*
%TD*%
%TO.C,J21*%
X185166000Y-98044000D03*
%TD*%
%TO.C,J20*%
X185166000Y-146304000D03*
%TD*%
%TO.C,J19*%
X185166000Y-136144000D03*
%TD*%
%TO.C,J18*%
X185166000Y-131064000D03*
%TD*%
%TO.C,J17*%
X185166000Y-125984000D03*
%TD*%
%TO.C,J16*%
X185166000Y-120904000D03*
%TD*%
%TO.C,J15*%
X185166000Y-110744000D03*
%TD*%
%TO.C,J14*%
X185166000Y-105664000D03*
%TD*%
%TO.C,J13*%
X185166000Y-143764000D03*
%TD*%
%TO.C,J12*%
X185166000Y-138684000D03*
%TD*%
%TO.C,J11*%
X185166000Y-133604000D03*
%TD*%
%TO.C,J10*%
X185166000Y-123444000D03*
%TD*%
%TO.C,J9*%
X185166000Y-118364000D03*
%TD*%
%TO.C,J8*%
X185166000Y-113284000D03*
%TD*%
%TO.C,J7*%
X185166000Y-108204000D03*
%TD*%
%TO.C,J6*%
X208026000Y-128524000D03*
%TD*%
%TO.C,J5*%
X208026000Y-103124000D03*
%TD*%
%TO.C,J4*%
X185166000Y-115824000D03*
%TD*%
%TO.C,J3*%
X185166000Y-103124000D03*
%TD*%
%TO.C,J2*%
X185166000Y-100584000D03*
%TD*%
%TO.C,U4*%
X187706000Y-98044000D03*
X187706000Y-100584000D03*
X187706000Y-103124000D03*
X187706000Y-105664000D03*
X187706000Y-108204000D03*
X187706000Y-110744000D03*
X187706000Y-113284000D03*
X187706000Y-115824000D03*
X187706000Y-136144000D03*
X187706000Y-133604000D03*
X187706000Y-120904000D03*
X187706000Y-118364000D03*
X187706000Y-125984000D03*
X187706000Y-128524000D03*
X187706000Y-123444000D03*
X187706000Y-131064000D03*
X187706000Y-146304000D03*
X187706000Y-141224000D03*
X187706000Y-143764000D03*
X187706000Y-138684000D03*
X205486000Y-98044000D03*
X205486000Y-128524000D03*
X205486000Y-125984000D03*
X205486000Y-136144000D03*
X205486000Y-100584000D03*
X205486000Y-133604000D03*
X205486000Y-146304000D03*
X205486000Y-115824000D03*
X205486000Y-141224000D03*
X205486000Y-120904000D03*
X205486000Y-143764000D03*
X205486000Y-138684000D03*
X205486000Y-123444000D03*
X205486000Y-105664000D03*
X205486000Y-108204000D03*
X205486000Y-103124000D03*
X205486000Y-118364000D03*
X205486000Y-113284000D03*
X205486000Y-110744000D03*
X205486000Y-131064000D03*
%TD*%
%TO.C,J1*%
X177038000Y-93726000D03*
X182118000Y-93726000D03*
X182118000Y-88646000D03*
X177038000Y-88646000D03*
X179578000Y-91186000D03*
%TD*%
D16*
%TO.C,U3*%
X191796000Y-94730000D03*
X191796000Y-94230000D03*
X191796000Y-93730000D03*
X191796000Y-93230000D03*
X188696000Y-93230000D03*
X188696000Y-93730000D03*
X188696000Y-94230000D03*
X188696000Y-94730000D03*
%TD*%
D17*
%TO.C,U2*%
X180975000Y-133858000D03*
X173355000Y-141478000D03*
X180975000Y-136398000D03*
X173355000Y-138938000D03*
X180975000Y-138938000D03*
X173355000Y-136398000D03*
X180975000Y-141478000D03*
D18*
X173355000Y-133858000D03*
%TD*%
D19*
%TO.C,TP1*%
X161798000Y-151638000D03*
%TD*%
%TO.C,R8*%
G36*
G01*
X198958500Y-90922001D02*
X198958500Y-89671999D01*
G75*
G02*
X199208499Y-89422000I249999J0D01*
G01*
X199833501Y-89422000D01*
G75*
G02*
X200083500Y-89671999I0J-249999D01*
G01*
X200083500Y-90922001D01*
G75*
G02*
X199833501Y-91172000I-249999J0D01*
G01*
X199208499Y-91172000D01*
G75*
G02*
X198958500Y-90922001I0J249999D01*
G01*
G37*
G36*
G01*
X196033500Y-90922001D02*
X196033500Y-89671999D01*
G75*
G02*
X196283499Y-89422000I249999J0D01*
G01*
X196908501Y-89422000D01*
G75*
G02*
X197158500Y-89671999I0J-249999D01*
G01*
X197158500Y-90922001D01*
G75*
G02*
X196908501Y-91172000I-249999J0D01*
G01*
X196283499Y-91172000D01*
G75*
G02*
X196033500Y-90922001I0J249999D01*
G01*
G37*
%TD*%
%TO.C,R7*%
G36*
G01*
X198958500Y-94605001D02*
X198958500Y-93354999D01*
G75*
G02*
X199208499Y-93105000I249999J0D01*
G01*
X199833501Y-93105000D01*
G75*
G02*
X200083500Y-93354999I0J-249999D01*
G01*
X200083500Y-94605001D01*
G75*
G02*
X199833501Y-94855000I-249999J0D01*
G01*
X199208499Y-94855000D01*
G75*
G02*
X198958500Y-94605001I0J249999D01*
G01*
G37*
G36*
G01*
X196033500Y-94605001D02*
X196033500Y-93354999D01*
G75*
G02*
X196283499Y-93105000I249999J0D01*
G01*
X196908501Y-93105000D01*
G75*
G02*
X197158500Y-93354999I0J-249999D01*
G01*
X197158500Y-94605001D01*
G75*
G02*
X196908501Y-94855000I-249999J0D01*
G01*
X196283499Y-94855000D01*
G75*
G02*
X196033500Y-94605001I0J249999D01*
G01*
G37*
%TD*%
%TO.C,R6*%
G36*
G01*
X173659500Y-110499999D02*
X173659500Y-111750001D01*
G75*
G02*
X173409501Y-112000000I-249999J0D01*
G01*
X172784499Y-112000000D01*
G75*
G02*
X172534500Y-111750001I0J249999D01*
G01*
X172534500Y-110499999D01*
G75*
G02*
X172784499Y-110250000I249999J0D01*
G01*
X173409501Y-110250000D01*
G75*
G02*
X173659500Y-110499999I0J-249999D01*
G01*
G37*
G36*
G01*
X176584500Y-110499999D02*
X176584500Y-111750001D01*
G75*
G02*
X176334501Y-112000000I-249999J0D01*
G01*
X175709499Y-112000000D01*
G75*
G02*
X175459500Y-111750001I0J249999D01*
G01*
X175459500Y-110499999D01*
G75*
G02*
X175709499Y-110250000I249999J0D01*
G01*
X176334501Y-110250000D01*
G75*
G02*
X176584500Y-110499999I0J-249999D01*
G01*
G37*
%TD*%
%TO.C,R5*%
G36*
G01*
X163185001Y-104571500D02*
X161934999Y-104571500D01*
G75*
G02*
X161685000Y-104321501I0J249999D01*
G01*
X161685000Y-103696499D01*
G75*
G02*
X161934999Y-103446500I249999J0D01*
G01*
X163185001Y-103446500D01*
G75*
G02*
X163435000Y-103696499I0J-249999D01*
G01*
X163435000Y-104321501D01*
G75*
G02*
X163185001Y-104571500I-249999J0D01*
G01*
G37*
G36*
G01*
X163185001Y-107496500D02*
X161934999Y-107496500D01*
G75*
G02*
X161685000Y-107246501I0J249999D01*
G01*
X161685000Y-106621499D01*
G75*
G02*
X161934999Y-106371500I249999J0D01*
G01*
X163185001Y-106371500D01*
G75*
G02*
X163435000Y-106621499I0J-249999D01*
G01*
X163435000Y-107246501D01*
G75*
G02*
X163185001Y-107496500I-249999J0D01*
G01*
G37*
%TD*%
%TO.C,R4*%
G36*
G01*
X170637500Y-131308001D02*
X170637500Y-130057999D01*
G75*
G02*
X170887499Y-129808000I249999J0D01*
G01*
X171512501Y-129808000D01*
G75*
G02*
X171762500Y-130057999I0J-249999D01*
G01*
X171762500Y-131308001D01*
G75*
G02*
X171512501Y-131558000I-249999J0D01*
G01*
X170887499Y-131558000D01*
G75*
G02*
X170637500Y-131308001I0J249999D01*
G01*
G37*
G36*
G01*
X167712500Y-131308001D02*
X167712500Y-130057999D01*
G75*
G02*
X167962499Y-129808000I249999J0D01*
G01*
X168587501Y-129808000D01*
G75*
G02*
X168837500Y-130057999I0J-249999D01*
G01*
X168837500Y-131308001D01*
G75*
G02*
X168587501Y-131558000I-249999J0D01*
G01*
X167962499Y-131558000D01*
G75*
G02*
X167712500Y-131308001I0J249999D01*
G01*
G37*
%TD*%
%TO.C,R3*%
G36*
G01*
X175398000Y-116449001D02*
X175398000Y-115198999D01*
G75*
G02*
X175647999Y-114949000I249999J0D01*
G01*
X176273001Y-114949000D01*
G75*
G02*
X176523000Y-115198999I0J-249999D01*
G01*
X176523000Y-116449001D01*
G75*
G02*
X176273001Y-116699000I-249999J0D01*
G01*
X175647999Y-116699000D01*
G75*
G02*
X175398000Y-116449001I0J249999D01*
G01*
G37*
G36*
G01*
X172473000Y-116449001D02*
X172473000Y-115198999D01*
G75*
G02*
X172722999Y-114949000I249999J0D01*
G01*
X173348001Y-114949000D01*
G75*
G02*
X173598000Y-115198999I0J-249999D01*
G01*
X173598000Y-116449001D01*
G75*
G02*
X173348001Y-116699000I-249999J0D01*
G01*
X172722999Y-116699000D01*
G75*
G02*
X172473000Y-116449001I0J249999D01*
G01*
G37*
%TD*%
D14*
%TO.C,Q1*%
X172593000Y-104775000D03*
D13*
X175133000Y-104775000D03*
X173863000Y-104775000D03*
%TD*%
D20*
%TO.C,D1*%
X164592000Y-110998000D03*
D10*
X164592000Y-113538000D03*
%TD*%
%TO.C,C4*%
G36*
G01*
X166989999Y-106359000D02*
X168290001Y-106359000D01*
G75*
G02*
X168540000Y-106608999I0J-249999D01*
G01*
X168540000Y-107259001D01*
G75*
G02*
X168290001Y-107509000I-249999J0D01*
G01*
X166989999Y-107509000D01*
G75*
G02*
X166740000Y-107259001I0J249999D01*
G01*
X166740000Y-106608999D01*
G75*
G02*
X166989999Y-106359000I249999J0D01*
G01*
G37*
G36*
G01*
X166989999Y-103409000D02*
X168290001Y-103409000D01*
G75*
G02*
X168540000Y-103658999I0J-249999D01*
G01*
X168540000Y-104309001D01*
G75*
G02*
X168290001Y-104559000I-249999J0D01*
G01*
X166989999Y-104559000D01*
G75*
G02*
X166740000Y-104309001I0J249999D01*
G01*
X166740000Y-103658999D01*
G75*
G02*
X166989999Y-103409000I249999J0D01*
G01*
G37*
%TD*%
%TO.C,C3*%
G36*
G01*
X163135000Y-117967999D02*
X163135000Y-119268001D01*
G75*
G02*
X162885001Y-119518000I-249999J0D01*
G01*
X162234999Y-119518000D01*
G75*
G02*
X161985000Y-119268001I0J249999D01*
G01*
X161985000Y-117967999D01*
G75*
G02*
X162234999Y-117718000I249999J0D01*
G01*
X162885001Y-117718000D01*
G75*
G02*
X163135000Y-117967999I0J-249999D01*
G01*
G37*
G36*
G01*
X166085000Y-117967999D02*
X166085000Y-119268001D01*
G75*
G02*
X165835001Y-119518000I-249999J0D01*
G01*
X165184999Y-119518000D01*
G75*
G02*
X164935000Y-119268001I0J249999D01*
G01*
X164935000Y-117967999D01*
G75*
G02*
X165184999Y-117718000I249999J0D01*
G01*
X165835001Y-117718000D01*
G75*
G02*
X166085000Y-117967999I0J-249999D01*
G01*
G37*
%TD*%
%TO.C,C1*%
G36*
G01*
X181191000Y-116474001D02*
X181191000Y-115173999D01*
G75*
G02*
X181440999Y-114924000I249999J0D01*
G01*
X182091001Y-114924000D01*
G75*
G02*
X182341000Y-115173999I0J-249999D01*
G01*
X182341000Y-116474001D01*
G75*
G02*
X182091001Y-116724000I-249999J0D01*
G01*
X181440999Y-116724000D01*
G75*
G02*
X181191000Y-116474001I0J249999D01*
G01*
G37*
G36*
G01*
X178241000Y-116474001D02*
X178241000Y-115173999D01*
G75*
G02*
X178490999Y-114924000I249999J0D01*
G01*
X179141001Y-114924000D01*
G75*
G02*
X179391000Y-115173999I0J-249999D01*
G01*
X179391000Y-116474001D01*
G75*
G02*
X179141001Y-116724000I-249999J0D01*
G01*
X178490999Y-116724000D01*
G75*
G02*
X178241000Y-116474001I0J249999D01*
G01*
G37*
%TD*%
M02*
