%TF.GenerationSoftware,KiCad,Pcbnew,(5.1.9-0-10_14)*%
%TF.CreationDate,2021-06-01T11:43:06-04:00*%
%TF.ProjectId,9x9backplane,39783962-6163-46b7-906c-616e652e6b69,C*%
%TF.SameCoordinates,Original*%
%TF.FileFunction,Legend,Bot*%
%TF.FilePolarity,Positive*%
%FSLAX46Y46*%
G04 Gerber Fmt 4.6, Leading zero omitted, Abs format (unit mm)*
G04 Created by KiCad (PCBNEW (5.1.9-0-10_14)) date 2021-06-01 11:43:06*
%MOMM*%
%LPD*%
G01*
G04 APERTURE LIST*
%ADD10C,0.250000*%
%ADD11C,0.015000*%
G04 APERTURE END LIST*
D10*
%TO.C,J902*%
X473700000Y-491875000D02*
X480300000Y-491875000D01*
X473700000Y-436875000D02*
X473700000Y-491875000D01*
X478400000Y-436875000D02*
X473700000Y-436875000D01*
X480300000Y-438775000D02*
X478400000Y-436875000D01*
X480300000Y-491875000D02*
X480300000Y-438775000D01*
%TO.C,J702*%
X480300000Y-416125000D02*
X480300000Y-363025000D01*
X480300000Y-363025000D02*
X478400000Y-361125000D01*
X478400000Y-361125000D02*
X473700000Y-361125000D01*
X473700000Y-361125000D02*
X473700000Y-416125000D01*
X473700000Y-416125000D02*
X480300000Y-416125000D01*
%TO.C,J602*%
X473700000Y-340375000D02*
X480300000Y-340375000D01*
X473700000Y-285375000D02*
X473700000Y-340375000D01*
X478400000Y-285375000D02*
X473700000Y-285375000D01*
X480300000Y-287275000D02*
X478400000Y-285375000D01*
X480300000Y-340375000D02*
X480300000Y-287275000D01*
%TO.C,J402*%
X480300000Y-264625000D02*
X480300000Y-211525000D01*
X480300000Y-211525000D02*
X478400000Y-209625000D01*
X478400000Y-209625000D02*
X473700000Y-209625000D01*
X473700000Y-209625000D02*
X473700000Y-264625000D01*
X473700000Y-264625000D02*
X480300000Y-264625000D01*
%TO.C,J102*%
X480300000Y-113125000D02*
X480300000Y-60025000D01*
X480300000Y-60025000D02*
X478400000Y-58125000D01*
X478400000Y-58125000D02*
X473700000Y-58125000D01*
X473700000Y-58125000D02*
X473700000Y-113125000D01*
X473700000Y-113125000D02*
X480300000Y-113125000D01*
%TO.C,J302*%
X480300000Y-188875000D02*
X480300000Y-135775000D01*
X480300000Y-135775000D02*
X478400000Y-133875000D01*
X478400000Y-133875000D02*
X473700000Y-133875000D01*
X473700000Y-133875000D02*
X473700000Y-188875000D01*
X473700000Y-188875000D02*
X480300000Y-188875000D01*
%TO.C,J402*%
X271700000Y-264625000D02*
X278300000Y-264625000D01*
X271700000Y-209625000D02*
X271700000Y-264625000D01*
X276400000Y-209625000D02*
X271700000Y-209625000D01*
X278300000Y-211525000D02*
X276400000Y-209625000D01*
X278300000Y-264625000D02*
X278300000Y-211525000D01*
%TO.C,J102*%
X271700000Y-113125000D02*
X278300000Y-113125000D01*
X271700000Y-58125000D02*
X271700000Y-113125000D01*
X276400000Y-58125000D02*
X271700000Y-58125000D01*
X278300000Y-60025000D02*
X276400000Y-58125000D01*
X278300000Y-113125000D02*
X278300000Y-60025000D01*
%TO.C,J302*%
X271700000Y-188875000D02*
X278300000Y-188875000D01*
X271700000Y-133875000D02*
X271700000Y-188875000D01*
X276400000Y-133875000D02*
X271700000Y-133875000D01*
X278300000Y-135775000D02*
X276400000Y-133875000D01*
X278300000Y-188875000D02*
X278300000Y-135775000D01*
%TO.C,J402*%
X328800000Y-264625000D02*
X328800000Y-211525000D01*
X328800000Y-211525000D02*
X326900000Y-209625000D01*
X326900000Y-209625000D02*
X322200000Y-209625000D01*
X322200000Y-209625000D02*
X322200000Y-264625000D01*
X322200000Y-264625000D02*
X328800000Y-264625000D01*
%TO.C,J102*%
X328800000Y-113125000D02*
X328800000Y-60025000D01*
X328800000Y-60025000D02*
X326900000Y-58125000D01*
X326900000Y-58125000D02*
X322200000Y-58125000D01*
X322200000Y-58125000D02*
X322200000Y-113125000D01*
X322200000Y-113125000D02*
X328800000Y-113125000D01*
%TO.C,J302*%
X328800000Y-188875000D02*
X328800000Y-135775000D01*
X328800000Y-135775000D02*
X326900000Y-133875000D01*
X326900000Y-133875000D02*
X322200000Y-133875000D01*
X322200000Y-133875000D02*
X322200000Y-188875000D01*
X322200000Y-188875000D02*
X328800000Y-188875000D01*
%TO.C,J902*%
X322200000Y-491875000D02*
X328800000Y-491875000D01*
X322200000Y-436875000D02*
X322200000Y-491875000D01*
X326900000Y-436875000D02*
X322200000Y-436875000D01*
X328800000Y-438775000D02*
X326900000Y-436875000D01*
X328800000Y-491875000D02*
X328800000Y-438775000D01*
%TO.C,J702*%
X328800000Y-416125000D02*
X328800000Y-363025000D01*
X328800000Y-363025000D02*
X326900000Y-361125000D01*
X326900000Y-361125000D02*
X322200000Y-361125000D01*
X322200000Y-361125000D02*
X322200000Y-416125000D01*
X322200000Y-416125000D02*
X328800000Y-416125000D01*
%TO.C,J602*%
X322200000Y-340375000D02*
X328800000Y-340375000D01*
X322200000Y-285375000D02*
X322200000Y-340375000D01*
X326900000Y-285375000D02*
X322200000Y-285375000D01*
X328800000Y-287275000D02*
X326900000Y-285375000D01*
X328800000Y-340375000D02*
X328800000Y-287275000D01*
%TO.C,J402*%
X423200000Y-264625000D02*
X429800000Y-264625000D01*
X423200000Y-209625000D02*
X423200000Y-264625000D01*
X427900000Y-209625000D02*
X423200000Y-209625000D01*
X429800000Y-211525000D02*
X427900000Y-209625000D01*
X429800000Y-264625000D02*
X429800000Y-211525000D01*
%TO.C,J102*%
X423200000Y-113125000D02*
X429800000Y-113125000D01*
X423200000Y-58125000D02*
X423200000Y-113125000D01*
X427900000Y-58125000D02*
X423200000Y-58125000D01*
X429800000Y-60025000D02*
X427900000Y-58125000D01*
X429800000Y-113125000D02*
X429800000Y-60025000D01*
%TO.C,J302*%
X423200000Y-188875000D02*
X429800000Y-188875000D01*
X423200000Y-133875000D02*
X423200000Y-188875000D01*
X427900000Y-133875000D02*
X423200000Y-133875000D01*
X429800000Y-135775000D02*
X427900000Y-133875000D01*
X429800000Y-188875000D02*
X429800000Y-135775000D01*
%TO.C,J902*%
X429800000Y-491875000D02*
X429800000Y-438775000D01*
X429800000Y-438775000D02*
X427900000Y-436875000D01*
X427900000Y-436875000D02*
X423200000Y-436875000D01*
X423200000Y-436875000D02*
X423200000Y-491875000D01*
X423200000Y-491875000D02*
X429800000Y-491875000D01*
%TO.C,J702*%
X423200000Y-416125000D02*
X429800000Y-416125000D01*
X423200000Y-361125000D02*
X423200000Y-416125000D01*
X427900000Y-361125000D02*
X423200000Y-361125000D01*
X429800000Y-363025000D02*
X427900000Y-361125000D01*
X429800000Y-416125000D02*
X429800000Y-363025000D01*
%TO.C,J602*%
X372700000Y-340375000D02*
X379300000Y-340375000D01*
X372700000Y-285375000D02*
X372700000Y-340375000D01*
X377400000Y-285375000D02*
X372700000Y-285375000D01*
X379300000Y-287275000D02*
X377400000Y-285375000D01*
X379300000Y-340375000D02*
X379300000Y-287275000D01*
%TO.C,J702*%
X379300000Y-416125000D02*
X379300000Y-363025000D01*
X379300000Y-363025000D02*
X377400000Y-361125000D01*
X377400000Y-361125000D02*
X372700000Y-361125000D01*
X372700000Y-361125000D02*
X372700000Y-416125000D01*
X372700000Y-416125000D02*
X379300000Y-416125000D01*
%TO.C,J902*%
X372700000Y-491875000D02*
X379300000Y-491875000D01*
X372700000Y-436875000D02*
X372700000Y-491875000D01*
X377400000Y-436875000D02*
X372700000Y-436875000D01*
X379300000Y-438775000D02*
X377400000Y-436875000D01*
X379300000Y-491875000D02*
X379300000Y-438775000D01*
%TO.C,J602*%
X429800000Y-340375000D02*
X429800000Y-287275000D01*
X429800000Y-287275000D02*
X427900000Y-285375000D01*
X427900000Y-285375000D02*
X423200000Y-285375000D01*
X423200000Y-285375000D02*
X423200000Y-340375000D01*
X423200000Y-340375000D02*
X429800000Y-340375000D01*
%TO.C,J902*%
X278300000Y-491875000D02*
X278300000Y-438775000D01*
X278300000Y-438775000D02*
X276400000Y-436875000D01*
X276400000Y-436875000D02*
X271700000Y-436875000D01*
X271700000Y-436875000D02*
X271700000Y-491875000D01*
X271700000Y-491875000D02*
X278300000Y-491875000D01*
%TO.C,J702*%
X271700000Y-416125000D02*
X278300000Y-416125000D01*
X271700000Y-361125000D02*
X271700000Y-416125000D01*
X276400000Y-361125000D02*
X271700000Y-361125000D01*
X278300000Y-363025000D02*
X276400000Y-361125000D01*
X278300000Y-416125000D02*
X278300000Y-363025000D01*
%TO.C,J602*%
X278300000Y-340375000D02*
X278300000Y-287275000D01*
X278300000Y-287275000D02*
X276400000Y-285375000D01*
X276400000Y-285375000D02*
X271700000Y-285375000D01*
X271700000Y-285375000D02*
X271700000Y-340375000D01*
X271700000Y-340375000D02*
X278300000Y-340375000D01*
%TO.C,J402*%
X379300000Y-264625000D02*
X379300000Y-211525000D01*
X379300000Y-211525000D02*
X377400000Y-209625000D01*
X377400000Y-209625000D02*
X372700000Y-209625000D01*
X372700000Y-209625000D02*
X372700000Y-264625000D01*
X372700000Y-264625000D02*
X379300000Y-264625000D01*
%TO.C,J102*%
X379300000Y-113125000D02*
X379300000Y-60025000D01*
X379300000Y-60025000D02*
X377400000Y-58125000D01*
X377400000Y-58125000D02*
X372700000Y-58125000D01*
X372700000Y-58125000D02*
X372700000Y-113125000D01*
X372700000Y-113125000D02*
X379300000Y-113125000D01*
%TO.C,J302*%
X379300000Y-188875000D02*
X379300000Y-135775000D01*
X379300000Y-135775000D02*
X377400000Y-133875000D01*
X377400000Y-133875000D02*
X372700000Y-133875000D01*
X372700000Y-133875000D02*
X372700000Y-188875000D01*
X372700000Y-188875000D02*
X379300000Y-188875000D01*
%TO.C,J402*%
X170700000Y-264625000D02*
X177300000Y-264625000D01*
X170700000Y-209625000D02*
X170700000Y-264625000D01*
X175400000Y-209625000D02*
X170700000Y-209625000D01*
X177300000Y-211525000D02*
X175400000Y-209625000D01*
X177300000Y-264625000D02*
X177300000Y-211525000D01*
%TO.C,J102*%
X170700000Y-113125000D02*
X177300000Y-113125000D01*
X170700000Y-58125000D02*
X170700000Y-113125000D01*
X175400000Y-58125000D02*
X170700000Y-58125000D01*
X177300000Y-60025000D02*
X175400000Y-58125000D01*
X177300000Y-113125000D02*
X177300000Y-60025000D01*
%TO.C,J302*%
X170700000Y-188875000D02*
X177300000Y-188875000D01*
X170700000Y-133875000D02*
X170700000Y-188875000D01*
X175400000Y-133875000D02*
X170700000Y-133875000D01*
X177300000Y-135775000D02*
X175400000Y-133875000D01*
X177300000Y-188875000D02*
X177300000Y-135775000D01*
%TO.C,J402*%
X227800000Y-264625000D02*
X227800000Y-211525000D01*
X227800000Y-211525000D02*
X225900000Y-209625000D01*
X225900000Y-209625000D02*
X221200000Y-209625000D01*
X221200000Y-209625000D02*
X221200000Y-264625000D01*
X221200000Y-264625000D02*
X227800000Y-264625000D01*
%TO.C,J102*%
X227800000Y-113125000D02*
X227800000Y-60025000D01*
X227800000Y-60025000D02*
X225900000Y-58125000D01*
X225900000Y-58125000D02*
X221200000Y-58125000D01*
X221200000Y-58125000D02*
X221200000Y-113125000D01*
X221200000Y-113125000D02*
X227800000Y-113125000D01*
%TO.C,J302*%
X227800000Y-188875000D02*
X227800000Y-135775000D01*
X227800000Y-135775000D02*
X225900000Y-133875000D01*
X225900000Y-133875000D02*
X221200000Y-133875000D01*
X221200000Y-133875000D02*
X221200000Y-188875000D01*
X221200000Y-188875000D02*
X227800000Y-188875000D01*
%TO.C,J902*%
X221200000Y-491875000D02*
X227800000Y-491875000D01*
X221200000Y-436875000D02*
X221200000Y-491875000D01*
X225900000Y-436875000D02*
X221200000Y-436875000D01*
X227800000Y-438775000D02*
X225900000Y-436875000D01*
X227800000Y-491875000D02*
X227800000Y-438775000D01*
%TO.C,J702*%
X227800000Y-416125000D02*
X227800000Y-363025000D01*
X227800000Y-363025000D02*
X225900000Y-361125000D01*
X225900000Y-361125000D02*
X221200000Y-361125000D01*
X221200000Y-361125000D02*
X221200000Y-416125000D01*
X221200000Y-416125000D02*
X227800000Y-416125000D01*
%TO.C,J602*%
X221200000Y-340375000D02*
X227800000Y-340375000D01*
X221200000Y-285375000D02*
X221200000Y-340375000D01*
X225900000Y-285375000D02*
X221200000Y-285375000D01*
X227800000Y-287275000D02*
X225900000Y-285375000D01*
X227800000Y-340375000D02*
X227800000Y-287275000D01*
%TO.C,J902*%
X177300000Y-491875000D02*
X177300000Y-438775000D01*
X177300000Y-438775000D02*
X175400000Y-436875000D01*
X175400000Y-436875000D02*
X170700000Y-436875000D01*
X170700000Y-436875000D02*
X170700000Y-491875000D01*
X170700000Y-491875000D02*
X177300000Y-491875000D01*
%TO.C,J702*%
X170700000Y-416125000D02*
X177300000Y-416125000D01*
X170700000Y-361125000D02*
X170700000Y-416125000D01*
X175400000Y-361125000D02*
X170700000Y-361125000D01*
X177300000Y-363025000D02*
X175400000Y-361125000D01*
X177300000Y-416125000D02*
X177300000Y-363025000D01*
%TO.C,J602*%
X177300000Y-340375000D02*
X177300000Y-287275000D01*
X177300000Y-287275000D02*
X175400000Y-285375000D01*
X175400000Y-285375000D02*
X170700000Y-285375000D01*
X170700000Y-285375000D02*
X170700000Y-340375000D01*
X170700000Y-340375000D02*
X177300000Y-340375000D01*
%TO.C,J402*%
X120200000Y-264625000D02*
X126800000Y-264625000D01*
X120200000Y-209625000D02*
X120200000Y-264625000D01*
X124900000Y-209625000D02*
X120200000Y-209625000D01*
X126800000Y-211525000D02*
X124900000Y-209625000D01*
X126800000Y-264625000D02*
X126800000Y-211525000D01*
%TO.C,J102*%
X120200000Y-113125000D02*
X126800000Y-113125000D01*
X120200000Y-58125000D02*
X120200000Y-113125000D01*
X124900000Y-58125000D02*
X120200000Y-58125000D01*
X126800000Y-60025000D02*
X124900000Y-58125000D01*
X126800000Y-113125000D02*
X126800000Y-60025000D01*
%TO.C,J302*%
X120200000Y-188875000D02*
X126800000Y-188875000D01*
X120200000Y-133875000D02*
X120200000Y-188875000D01*
X124900000Y-133875000D02*
X120200000Y-133875000D01*
X126800000Y-135775000D02*
X124900000Y-133875000D01*
X126800000Y-188875000D02*
X126800000Y-135775000D01*
%TO.C,J902*%
X126800000Y-491875000D02*
X126800000Y-438775000D01*
X126800000Y-438775000D02*
X124900000Y-436875000D01*
X124900000Y-436875000D02*
X120200000Y-436875000D01*
X120200000Y-436875000D02*
X120200000Y-491875000D01*
X120200000Y-491875000D02*
X126800000Y-491875000D01*
%TO.C,J702*%
X120200000Y-416125000D02*
X126800000Y-416125000D01*
X120200000Y-361125000D02*
X120200000Y-416125000D01*
X124900000Y-361125000D02*
X120200000Y-361125000D01*
X126800000Y-363025000D02*
X124900000Y-361125000D01*
X126800000Y-416125000D02*
X126800000Y-363025000D01*
%TO.C,J602*%
X126800000Y-340375000D02*
X126800000Y-287275000D01*
X126800000Y-287275000D02*
X124900000Y-285375000D01*
X124900000Y-285375000D02*
X120200000Y-285375000D01*
X120200000Y-285375000D02*
X120200000Y-340375000D01*
X120200000Y-340375000D02*
X126800000Y-340375000D01*
%TO.C,J402*%
X76300000Y-264625000D02*
X76300000Y-211525000D01*
X76300000Y-211525000D02*
X74400000Y-209625000D01*
X74400000Y-209625000D02*
X69700000Y-209625000D01*
X69700000Y-209625000D02*
X69700000Y-264625000D01*
X69700000Y-264625000D02*
X76300000Y-264625000D01*
%TO.C,J302*%
X76300000Y-188875000D02*
X76300000Y-135775000D01*
X76300000Y-135775000D02*
X74400000Y-133875000D01*
X74400000Y-133875000D02*
X69700000Y-133875000D01*
X69700000Y-133875000D02*
X69700000Y-188875000D01*
X69700000Y-188875000D02*
X76300000Y-188875000D01*
%TO.C,J102*%
X76300000Y-113125000D02*
X76300000Y-60025000D01*
X76300000Y-60025000D02*
X74400000Y-58125000D01*
X74400000Y-58125000D02*
X69700000Y-58125000D01*
X69700000Y-58125000D02*
X69700000Y-113125000D01*
X69700000Y-113125000D02*
X76300000Y-113125000D01*
%TO.C,J602*%
X69700000Y-340375000D02*
X76300000Y-340375000D01*
X69700000Y-285375000D02*
X69700000Y-340375000D01*
X74400000Y-285375000D02*
X69700000Y-285375000D01*
X76300000Y-287275000D02*
X74400000Y-285375000D01*
X76300000Y-340375000D02*
X76300000Y-287275000D01*
%TO.C,J702*%
X76300000Y-416125000D02*
X76300000Y-363025000D01*
X76300000Y-363025000D02*
X74400000Y-361125000D01*
X74400000Y-361125000D02*
X69700000Y-361125000D01*
X69700000Y-361125000D02*
X69700000Y-416125000D01*
X69700000Y-416125000D02*
X76300000Y-416125000D01*
%TO.C,J902*%
X69700000Y-491875000D02*
X76300000Y-491875000D01*
X69700000Y-436875000D02*
X69700000Y-491875000D01*
X74400000Y-436875000D02*
X69700000Y-436875000D01*
X76300000Y-438775000D02*
X74400000Y-436875000D01*
X76300000Y-491875000D02*
X76300000Y-438775000D01*
D11*
X478285855Y-433827320D02*
X478285855Y-434541685D01*
X478333480Y-434684557D01*
X478428728Y-434779806D01*
X478571601Y-434827430D01*
X478666850Y-434827430D01*
X477761988Y-434827430D02*
X477571491Y-434827430D01*
X477476242Y-434779806D01*
X477428618Y-434732182D01*
X477333370Y-434589309D01*
X477285745Y-434398812D01*
X477285745Y-434017817D01*
X477333370Y-433922569D01*
X477380994Y-433874945D01*
X477476242Y-433827320D01*
X477666740Y-433827320D01*
X477761988Y-433874945D01*
X477809612Y-433922569D01*
X477857237Y-434017817D01*
X477857237Y-434255939D01*
X477809612Y-434351187D01*
X477761988Y-434398812D01*
X477666740Y-434446436D01*
X477476242Y-434446436D01*
X477380994Y-434398812D01*
X477333370Y-434351187D01*
X477285745Y-434255939D01*
X476666630Y-433827320D02*
X476571381Y-433827320D01*
X476476132Y-433874945D01*
X476428508Y-433922569D01*
X476380884Y-434017817D01*
X476333260Y-434208315D01*
X476333260Y-434446436D01*
X476380884Y-434636933D01*
X476428508Y-434732182D01*
X476476132Y-434779806D01*
X476571381Y-434827430D01*
X476666630Y-434827430D01*
X476761878Y-434779806D01*
X476809502Y-434732182D01*
X476857127Y-434636933D01*
X476904751Y-434446436D01*
X476904751Y-434208315D01*
X476857127Y-434017817D01*
X476809502Y-433922569D01*
X476761878Y-433874945D01*
X476666630Y-433827320D01*
X475952265Y-433922569D02*
X475904641Y-433874945D01*
X475809392Y-433827320D01*
X475571271Y-433827320D01*
X475476022Y-433874945D01*
X475428398Y-433922569D01*
X475380774Y-434017817D01*
X475380774Y-434113066D01*
X475428398Y-434255939D01*
X475999890Y-434827430D01*
X475380774Y-434827430D01*
X481952409Y-441285732D02*
X481952409Y-440714267D01*
X481952409Y-441000000D02*
X480952346Y-441000000D01*
X481095212Y-440904755D01*
X481190456Y-440809511D01*
X481238078Y-440714267D01*
X472047059Y-440713932D02*
X471999382Y-440761610D01*
X471951704Y-440856966D01*
X471951704Y-441095355D01*
X471999382Y-441190711D01*
X472047059Y-441238389D01*
X472142415Y-441286067D01*
X472237771Y-441286067D01*
X472380805Y-441238389D01*
X472952940Y-440666254D01*
X472952940Y-441286067D01*
%TO.C,J702*%
X478285855Y-358077320D02*
X478285855Y-358791685D01*
X478333480Y-358934557D01*
X478428728Y-359029806D01*
X478571601Y-359077430D01*
X478666850Y-359077430D01*
X477904861Y-358077320D02*
X477238121Y-358077320D01*
X477666740Y-359077430D01*
X476666630Y-358077320D02*
X476571381Y-358077320D01*
X476476132Y-358124945D01*
X476428508Y-358172569D01*
X476380884Y-358267817D01*
X476333260Y-358458315D01*
X476333260Y-358696436D01*
X476380884Y-358886933D01*
X476428508Y-358982182D01*
X476476132Y-359029806D01*
X476571381Y-359077430D01*
X476666630Y-359077430D01*
X476761878Y-359029806D01*
X476809502Y-358982182D01*
X476857127Y-358886933D01*
X476904751Y-358696436D01*
X476904751Y-358458315D01*
X476857127Y-358267817D01*
X476809502Y-358172569D01*
X476761878Y-358124945D01*
X476666630Y-358077320D01*
X475952265Y-358172569D02*
X475904641Y-358124945D01*
X475809392Y-358077320D01*
X475571271Y-358077320D01*
X475476022Y-358124945D01*
X475428398Y-358172569D01*
X475380774Y-358267817D01*
X475380774Y-358363066D01*
X475428398Y-358505939D01*
X475999890Y-359077430D01*
X475380774Y-359077430D01*
X472047059Y-365070132D02*
X471999382Y-365117810D01*
X471951704Y-365213166D01*
X471951704Y-365451555D01*
X471999382Y-365546911D01*
X472047059Y-365594589D01*
X472142415Y-365642267D01*
X472237771Y-365642267D01*
X472380805Y-365594589D01*
X472952940Y-365022454D01*
X472952940Y-365642267D01*
X481952409Y-365669232D02*
X481952409Y-365097767D01*
X481952409Y-365383500D02*
X480952346Y-365383500D01*
X481095212Y-365288255D01*
X481190456Y-365193011D01*
X481238078Y-365097767D01*
%TO.C,J602*%
X478285855Y-282327320D02*
X478285855Y-283041685D01*
X478333480Y-283184557D01*
X478428728Y-283279806D01*
X478571601Y-283327430D01*
X478666850Y-283327430D01*
X477380994Y-282327320D02*
X477571491Y-282327320D01*
X477666740Y-282374945D01*
X477714364Y-282422569D01*
X477809612Y-282565442D01*
X477857237Y-282755939D01*
X477857237Y-283136933D01*
X477809612Y-283232182D01*
X477761988Y-283279806D01*
X477666740Y-283327430D01*
X477476242Y-283327430D01*
X477380994Y-283279806D01*
X477333370Y-283232182D01*
X477285745Y-283136933D01*
X477285745Y-282898812D01*
X477333370Y-282803563D01*
X477380994Y-282755939D01*
X477476242Y-282708315D01*
X477666740Y-282708315D01*
X477761988Y-282755939D01*
X477809612Y-282803563D01*
X477857237Y-282898812D01*
X476666630Y-282327320D02*
X476571381Y-282327320D01*
X476476132Y-282374945D01*
X476428508Y-282422569D01*
X476380884Y-282517817D01*
X476333260Y-282708315D01*
X476333260Y-282946436D01*
X476380884Y-283136933D01*
X476428508Y-283232182D01*
X476476132Y-283279806D01*
X476571381Y-283327430D01*
X476666630Y-283327430D01*
X476761878Y-283279806D01*
X476809502Y-283232182D01*
X476857127Y-283136933D01*
X476904751Y-282946436D01*
X476904751Y-282708315D01*
X476857127Y-282517817D01*
X476809502Y-282422569D01*
X476761878Y-282374945D01*
X476666630Y-282327320D01*
X475952265Y-282422569D02*
X475904641Y-282374945D01*
X475809392Y-282327320D01*
X475571271Y-282327320D01*
X475476022Y-282374945D01*
X475428398Y-282422569D01*
X475380774Y-282517817D01*
X475380774Y-282613066D01*
X475428398Y-282755939D01*
X475999890Y-283327430D01*
X475380774Y-283327430D01*
X481952409Y-289919232D02*
X481952409Y-289347767D01*
X481952409Y-289633500D02*
X480952346Y-289633500D01*
X481095212Y-289538255D01*
X481190456Y-289443011D01*
X481238078Y-289347767D01*
X472047059Y-289320132D02*
X471999382Y-289367810D01*
X471951704Y-289463166D01*
X471951704Y-289701555D01*
X471999382Y-289796911D01*
X472047059Y-289844589D01*
X472142415Y-289892267D01*
X472237771Y-289892267D01*
X472380805Y-289844589D01*
X472952940Y-289272454D01*
X472952940Y-289892267D01*
%TO.C,J402*%
X478285855Y-206577320D02*
X478285855Y-207291685D01*
X478333480Y-207434557D01*
X478428728Y-207529806D01*
X478571601Y-207577430D01*
X478666850Y-207577430D01*
X477380994Y-206910690D02*
X477380994Y-207577430D01*
X477619115Y-206529696D02*
X477857237Y-207244060D01*
X477238121Y-207244060D01*
X476666630Y-206577320D02*
X476571381Y-206577320D01*
X476476132Y-206624945D01*
X476428508Y-206672569D01*
X476380884Y-206767817D01*
X476333260Y-206958315D01*
X476333260Y-207196436D01*
X476380884Y-207386933D01*
X476428508Y-207482182D01*
X476476132Y-207529806D01*
X476571381Y-207577430D01*
X476666630Y-207577430D01*
X476761878Y-207529806D01*
X476809502Y-207482182D01*
X476857127Y-207386933D01*
X476904751Y-207196436D01*
X476904751Y-206958315D01*
X476857127Y-206767817D01*
X476809502Y-206672569D01*
X476761878Y-206624945D01*
X476666630Y-206577320D01*
X475952265Y-206672569D02*
X475904641Y-206624945D01*
X475809392Y-206577320D01*
X475571271Y-206577320D01*
X475476022Y-206624945D01*
X475428398Y-206672569D01*
X475380774Y-206767817D01*
X475380774Y-206863066D01*
X475428398Y-207005939D01*
X475999890Y-207577430D01*
X475380774Y-207577430D01*
X472047059Y-213570132D02*
X471999382Y-213617810D01*
X471951704Y-213713166D01*
X471951704Y-213951555D01*
X471999382Y-214046911D01*
X472047059Y-214094589D01*
X472142415Y-214142267D01*
X472237771Y-214142267D01*
X472380805Y-214094589D01*
X472952940Y-213522454D01*
X472952940Y-214142267D01*
X481952409Y-214160732D02*
X481952409Y-213589267D01*
X481952409Y-213875000D02*
X480952346Y-213875000D01*
X481095212Y-213779755D01*
X481190456Y-213684511D01*
X481238078Y-213589267D01*
%TO.C,J102*%
X478285855Y-55077320D02*
X478285855Y-55791685D01*
X478333480Y-55934557D01*
X478428728Y-56029806D01*
X478571601Y-56077430D01*
X478666850Y-56077430D01*
X477285745Y-56077430D02*
X477857237Y-56077430D01*
X477571491Y-56077430D02*
X477571491Y-55077320D01*
X477666740Y-55220193D01*
X477761988Y-55315442D01*
X477857237Y-55363066D01*
X476666630Y-55077320D02*
X476571381Y-55077320D01*
X476476132Y-55124945D01*
X476428508Y-55172569D01*
X476380884Y-55267817D01*
X476333260Y-55458315D01*
X476333260Y-55696436D01*
X476380884Y-55886933D01*
X476428508Y-55982182D01*
X476476132Y-56029806D01*
X476571381Y-56077430D01*
X476666630Y-56077430D01*
X476761878Y-56029806D01*
X476809502Y-55982182D01*
X476857127Y-55886933D01*
X476904751Y-55696436D01*
X476904751Y-55458315D01*
X476857127Y-55267817D01*
X476809502Y-55172569D01*
X476761878Y-55124945D01*
X476666630Y-55077320D01*
X475952265Y-55172569D02*
X475904641Y-55124945D01*
X475809392Y-55077320D01*
X475571271Y-55077320D01*
X475476022Y-55124945D01*
X475428398Y-55172569D01*
X475380774Y-55267817D01*
X475380774Y-55363066D01*
X475428398Y-55505939D01*
X475999890Y-56077430D01*
X475380774Y-56077430D01*
X472047059Y-62070132D02*
X471999382Y-62117810D01*
X471951704Y-62213166D01*
X471951704Y-62451555D01*
X471999382Y-62546911D01*
X472047059Y-62594589D01*
X472142415Y-62642267D01*
X472237771Y-62642267D01*
X472380805Y-62594589D01*
X472952940Y-62022454D01*
X472952940Y-62642267D01*
X481952409Y-62660732D02*
X481952409Y-62089267D01*
X481952409Y-62375000D02*
X480952346Y-62375000D01*
X481095212Y-62279755D01*
X481190456Y-62184511D01*
X481238078Y-62089267D01*
%TO.C,J302*%
X478285855Y-130827320D02*
X478285855Y-131541685D01*
X478333480Y-131684557D01*
X478428728Y-131779806D01*
X478571601Y-131827430D01*
X478666850Y-131827430D01*
X477904861Y-130827320D02*
X477285745Y-130827320D01*
X477619115Y-131208315D01*
X477476242Y-131208315D01*
X477380994Y-131255939D01*
X477333370Y-131303563D01*
X477285745Y-131398812D01*
X477285745Y-131636933D01*
X477333370Y-131732182D01*
X477380994Y-131779806D01*
X477476242Y-131827430D01*
X477761988Y-131827430D01*
X477857237Y-131779806D01*
X477904861Y-131732182D01*
X476666630Y-130827320D02*
X476571381Y-130827320D01*
X476476132Y-130874945D01*
X476428508Y-130922569D01*
X476380884Y-131017817D01*
X476333260Y-131208315D01*
X476333260Y-131446436D01*
X476380884Y-131636933D01*
X476428508Y-131732182D01*
X476476132Y-131779806D01*
X476571381Y-131827430D01*
X476666630Y-131827430D01*
X476761878Y-131779806D01*
X476809502Y-131732182D01*
X476857127Y-131636933D01*
X476904751Y-131446436D01*
X476904751Y-131208315D01*
X476857127Y-131017817D01*
X476809502Y-130922569D01*
X476761878Y-130874945D01*
X476666630Y-130827320D01*
X475952265Y-130922569D02*
X475904641Y-130874945D01*
X475809392Y-130827320D01*
X475571271Y-130827320D01*
X475476022Y-130874945D01*
X475428398Y-130922569D01*
X475380774Y-131017817D01*
X475380774Y-131113066D01*
X475428398Y-131255939D01*
X475999890Y-131827430D01*
X475380774Y-131827430D01*
X472047059Y-137820132D02*
X471999382Y-137867810D01*
X471951704Y-137963166D01*
X471951704Y-138201555D01*
X471999382Y-138296911D01*
X472047059Y-138344589D01*
X472142415Y-138392267D01*
X472237771Y-138392267D01*
X472380805Y-138344589D01*
X472952940Y-137772454D01*
X472952940Y-138392267D01*
X481952409Y-138419232D02*
X481952409Y-137847767D01*
X481952409Y-138133500D02*
X480952346Y-138133500D01*
X481095212Y-138038255D01*
X481190456Y-137943011D01*
X481238078Y-137847767D01*
%TO.C,J402*%
X276285855Y-206577320D02*
X276285855Y-207291685D01*
X276333480Y-207434557D01*
X276428728Y-207529806D01*
X276571601Y-207577430D01*
X276666850Y-207577430D01*
X275380994Y-206910690D02*
X275380994Y-207577430D01*
X275619115Y-206529696D02*
X275857237Y-207244060D01*
X275238121Y-207244060D01*
X274666630Y-206577320D02*
X274571381Y-206577320D01*
X274476132Y-206624945D01*
X274428508Y-206672569D01*
X274380884Y-206767817D01*
X274333260Y-206958315D01*
X274333260Y-207196436D01*
X274380884Y-207386933D01*
X274428508Y-207482182D01*
X274476132Y-207529806D01*
X274571381Y-207577430D01*
X274666630Y-207577430D01*
X274761878Y-207529806D01*
X274809502Y-207482182D01*
X274857127Y-207386933D01*
X274904751Y-207196436D01*
X274904751Y-206958315D01*
X274857127Y-206767817D01*
X274809502Y-206672569D01*
X274761878Y-206624945D01*
X274666630Y-206577320D01*
X273952265Y-206672569D02*
X273904641Y-206624945D01*
X273809392Y-206577320D01*
X273571271Y-206577320D01*
X273476022Y-206624945D01*
X273428398Y-206672569D01*
X273380774Y-206767817D01*
X273380774Y-206863066D01*
X273428398Y-207005939D01*
X273999890Y-207577430D01*
X273380774Y-207577430D01*
X279952409Y-214160732D02*
X279952409Y-213589267D01*
X279952409Y-213875000D02*
X278952346Y-213875000D01*
X279095212Y-213779755D01*
X279190456Y-213684511D01*
X279238078Y-213589267D01*
X270047059Y-213570132D02*
X269999382Y-213617810D01*
X269951704Y-213713166D01*
X269951704Y-213951555D01*
X269999382Y-214046911D01*
X270047059Y-214094589D01*
X270142415Y-214142267D01*
X270237771Y-214142267D01*
X270380805Y-214094589D01*
X270952940Y-213522454D01*
X270952940Y-214142267D01*
%TO.C,J102*%
X276285855Y-55077320D02*
X276285855Y-55791685D01*
X276333480Y-55934557D01*
X276428728Y-56029806D01*
X276571601Y-56077430D01*
X276666850Y-56077430D01*
X275285745Y-56077430D02*
X275857237Y-56077430D01*
X275571491Y-56077430D02*
X275571491Y-55077320D01*
X275666740Y-55220193D01*
X275761988Y-55315442D01*
X275857237Y-55363066D01*
X274666630Y-55077320D02*
X274571381Y-55077320D01*
X274476132Y-55124945D01*
X274428508Y-55172569D01*
X274380884Y-55267817D01*
X274333260Y-55458315D01*
X274333260Y-55696436D01*
X274380884Y-55886933D01*
X274428508Y-55982182D01*
X274476132Y-56029806D01*
X274571381Y-56077430D01*
X274666630Y-56077430D01*
X274761878Y-56029806D01*
X274809502Y-55982182D01*
X274857127Y-55886933D01*
X274904751Y-55696436D01*
X274904751Y-55458315D01*
X274857127Y-55267817D01*
X274809502Y-55172569D01*
X274761878Y-55124945D01*
X274666630Y-55077320D01*
X273952265Y-55172569D02*
X273904641Y-55124945D01*
X273809392Y-55077320D01*
X273571271Y-55077320D01*
X273476022Y-55124945D01*
X273428398Y-55172569D01*
X273380774Y-55267817D01*
X273380774Y-55363066D01*
X273428398Y-55505939D01*
X273999890Y-56077430D01*
X273380774Y-56077430D01*
X279952409Y-62660732D02*
X279952409Y-62089267D01*
X279952409Y-62375000D02*
X278952346Y-62375000D01*
X279095212Y-62279755D01*
X279190456Y-62184511D01*
X279238078Y-62089267D01*
X270047059Y-62070132D02*
X269999382Y-62117810D01*
X269951704Y-62213166D01*
X269951704Y-62451555D01*
X269999382Y-62546911D01*
X270047059Y-62594589D01*
X270142415Y-62642267D01*
X270237771Y-62642267D01*
X270380805Y-62594589D01*
X270952940Y-62022454D01*
X270952940Y-62642267D01*
%TO.C,J302*%
X276285855Y-130827320D02*
X276285855Y-131541685D01*
X276333480Y-131684557D01*
X276428728Y-131779806D01*
X276571601Y-131827430D01*
X276666850Y-131827430D01*
X275904861Y-130827320D02*
X275285745Y-130827320D01*
X275619115Y-131208315D01*
X275476242Y-131208315D01*
X275380994Y-131255939D01*
X275333370Y-131303563D01*
X275285745Y-131398812D01*
X275285745Y-131636933D01*
X275333370Y-131732182D01*
X275380994Y-131779806D01*
X275476242Y-131827430D01*
X275761988Y-131827430D01*
X275857237Y-131779806D01*
X275904861Y-131732182D01*
X274666630Y-130827320D02*
X274571381Y-130827320D01*
X274476132Y-130874945D01*
X274428508Y-130922569D01*
X274380884Y-131017817D01*
X274333260Y-131208315D01*
X274333260Y-131446436D01*
X274380884Y-131636933D01*
X274428508Y-131732182D01*
X274476132Y-131779806D01*
X274571381Y-131827430D01*
X274666630Y-131827430D01*
X274761878Y-131779806D01*
X274809502Y-131732182D01*
X274857127Y-131636933D01*
X274904751Y-131446436D01*
X274904751Y-131208315D01*
X274857127Y-131017817D01*
X274809502Y-130922569D01*
X274761878Y-130874945D01*
X274666630Y-130827320D01*
X273952265Y-130922569D02*
X273904641Y-130874945D01*
X273809392Y-130827320D01*
X273571271Y-130827320D01*
X273476022Y-130874945D01*
X273428398Y-130922569D01*
X273380774Y-131017817D01*
X273380774Y-131113066D01*
X273428398Y-131255939D01*
X273999890Y-131827430D01*
X273380774Y-131827430D01*
X279952409Y-138419232D02*
X279952409Y-137847767D01*
X279952409Y-138133500D02*
X278952346Y-138133500D01*
X279095212Y-138038255D01*
X279190456Y-137943011D01*
X279238078Y-137847767D01*
X270047059Y-137820132D02*
X269999382Y-137867810D01*
X269951704Y-137963166D01*
X269951704Y-138201555D01*
X269999382Y-138296911D01*
X270047059Y-138344589D01*
X270142415Y-138392267D01*
X270237771Y-138392267D01*
X270380805Y-138344589D01*
X270952940Y-137772454D01*
X270952940Y-138392267D01*
%TO.C,J402*%
X326785855Y-206577320D02*
X326785855Y-207291685D01*
X326833480Y-207434557D01*
X326928728Y-207529806D01*
X327071601Y-207577430D01*
X327166850Y-207577430D01*
X325880994Y-206910690D02*
X325880994Y-207577430D01*
X326119115Y-206529696D02*
X326357237Y-207244060D01*
X325738121Y-207244060D01*
X325166630Y-206577320D02*
X325071381Y-206577320D01*
X324976132Y-206624945D01*
X324928508Y-206672569D01*
X324880884Y-206767817D01*
X324833260Y-206958315D01*
X324833260Y-207196436D01*
X324880884Y-207386933D01*
X324928508Y-207482182D01*
X324976132Y-207529806D01*
X325071381Y-207577430D01*
X325166630Y-207577430D01*
X325261878Y-207529806D01*
X325309502Y-207482182D01*
X325357127Y-207386933D01*
X325404751Y-207196436D01*
X325404751Y-206958315D01*
X325357127Y-206767817D01*
X325309502Y-206672569D01*
X325261878Y-206624945D01*
X325166630Y-206577320D01*
X324452265Y-206672569D02*
X324404641Y-206624945D01*
X324309392Y-206577320D01*
X324071271Y-206577320D01*
X323976022Y-206624945D01*
X323928398Y-206672569D01*
X323880774Y-206767817D01*
X323880774Y-206863066D01*
X323928398Y-207005939D01*
X324499890Y-207577430D01*
X323880774Y-207577430D01*
X320547059Y-213570132D02*
X320499382Y-213617810D01*
X320451704Y-213713166D01*
X320451704Y-213951555D01*
X320499382Y-214046911D01*
X320547059Y-214094589D01*
X320642415Y-214142267D01*
X320737771Y-214142267D01*
X320880805Y-214094589D01*
X321452940Y-213522454D01*
X321452940Y-214142267D01*
X330452409Y-214160732D02*
X330452409Y-213589267D01*
X330452409Y-213875000D02*
X329452346Y-213875000D01*
X329595212Y-213779755D01*
X329690456Y-213684511D01*
X329738078Y-213589267D01*
%TO.C,J102*%
X326785855Y-55077320D02*
X326785855Y-55791685D01*
X326833480Y-55934557D01*
X326928728Y-56029806D01*
X327071601Y-56077430D01*
X327166850Y-56077430D01*
X325785745Y-56077430D02*
X326357237Y-56077430D01*
X326071491Y-56077430D02*
X326071491Y-55077320D01*
X326166740Y-55220193D01*
X326261988Y-55315442D01*
X326357237Y-55363066D01*
X325166630Y-55077320D02*
X325071381Y-55077320D01*
X324976132Y-55124945D01*
X324928508Y-55172569D01*
X324880884Y-55267817D01*
X324833260Y-55458315D01*
X324833260Y-55696436D01*
X324880884Y-55886933D01*
X324928508Y-55982182D01*
X324976132Y-56029806D01*
X325071381Y-56077430D01*
X325166630Y-56077430D01*
X325261878Y-56029806D01*
X325309502Y-55982182D01*
X325357127Y-55886933D01*
X325404751Y-55696436D01*
X325404751Y-55458315D01*
X325357127Y-55267817D01*
X325309502Y-55172569D01*
X325261878Y-55124945D01*
X325166630Y-55077320D01*
X324452265Y-55172569D02*
X324404641Y-55124945D01*
X324309392Y-55077320D01*
X324071271Y-55077320D01*
X323976022Y-55124945D01*
X323928398Y-55172569D01*
X323880774Y-55267817D01*
X323880774Y-55363066D01*
X323928398Y-55505939D01*
X324499890Y-56077430D01*
X323880774Y-56077430D01*
X320547059Y-62070132D02*
X320499382Y-62117810D01*
X320451704Y-62213166D01*
X320451704Y-62451555D01*
X320499382Y-62546911D01*
X320547059Y-62594589D01*
X320642415Y-62642267D01*
X320737771Y-62642267D01*
X320880805Y-62594589D01*
X321452940Y-62022454D01*
X321452940Y-62642267D01*
X330452409Y-62660732D02*
X330452409Y-62089267D01*
X330452409Y-62375000D02*
X329452346Y-62375000D01*
X329595212Y-62279755D01*
X329690456Y-62184511D01*
X329738078Y-62089267D01*
%TO.C,J302*%
X326785855Y-130827320D02*
X326785855Y-131541685D01*
X326833480Y-131684557D01*
X326928728Y-131779806D01*
X327071601Y-131827430D01*
X327166850Y-131827430D01*
X326404861Y-130827320D02*
X325785745Y-130827320D01*
X326119115Y-131208315D01*
X325976242Y-131208315D01*
X325880994Y-131255939D01*
X325833370Y-131303563D01*
X325785745Y-131398812D01*
X325785745Y-131636933D01*
X325833370Y-131732182D01*
X325880994Y-131779806D01*
X325976242Y-131827430D01*
X326261988Y-131827430D01*
X326357237Y-131779806D01*
X326404861Y-131732182D01*
X325166630Y-130827320D02*
X325071381Y-130827320D01*
X324976132Y-130874945D01*
X324928508Y-130922569D01*
X324880884Y-131017817D01*
X324833260Y-131208315D01*
X324833260Y-131446436D01*
X324880884Y-131636933D01*
X324928508Y-131732182D01*
X324976132Y-131779806D01*
X325071381Y-131827430D01*
X325166630Y-131827430D01*
X325261878Y-131779806D01*
X325309502Y-131732182D01*
X325357127Y-131636933D01*
X325404751Y-131446436D01*
X325404751Y-131208315D01*
X325357127Y-131017817D01*
X325309502Y-130922569D01*
X325261878Y-130874945D01*
X325166630Y-130827320D01*
X324452265Y-130922569D02*
X324404641Y-130874945D01*
X324309392Y-130827320D01*
X324071271Y-130827320D01*
X323976022Y-130874945D01*
X323928398Y-130922569D01*
X323880774Y-131017817D01*
X323880774Y-131113066D01*
X323928398Y-131255939D01*
X324499890Y-131827430D01*
X323880774Y-131827430D01*
X320547059Y-137820132D02*
X320499382Y-137867810D01*
X320451704Y-137963166D01*
X320451704Y-138201555D01*
X320499382Y-138296911D01*
X320547059Y-138344589D01*
X320642415Y-138392267D01*
X320737771Y-138392267D01*
X320880805Y-138344589D01*
X321452940Y-137772454D01*
X321452940Y-138392267D01*
X330452409Y-138419232D02*
X330452409Y-137847767D01*
X330452409Y-138133500D02*
X329452346Y-138133500D01*
X329595212Y-138038255D01*
X329690456Y-137943011D01*
X329738078Y-137847767D01*
%TO.C,J902*%
X326785855Y-433827320D02*
X326785855Y-434541685D01*
X326833480Y-434684557D01*
X326928728Y-434779806D01*
X327071601Y-434827430D01*
X327166850Y-434827430D01*
X326261988Y-434827430D02*
X326071491Y-434827430D01*
X325976242Y-434779806D01*
X325928618Y-434732182D01*
X325833370Y-434589309D01*
X325785745Y-434398812D01*
X325785745Y-434017817D01*
X325833370Y-433922569D01*
X325880994Y-433874945D01*
X325976242Y-433827320D01*
X326166740Y-433827320D01*
X326261988Y-433874945D01*
X326309612Y-433922569D01*
X326357237Y-434017817D01*
X326357237Y-434255939D01*
X326309612Y-434351187D01*
X326261988Y-434398812D01*
X326166740Y-434446436D01*
X325976242Y-434446436D01*
X325880994Y-434398812D01*
X325833370Y-434351187D01*
X325785745Y-434255939D01*
X325166630Y-433827320D02*
X325071381Y-433827320D01*
X324976132Y-433874945D01*
X324928508Y-433922569D01*
X324880884Y-434017817D01*
X324833260Y-434208315D01*
X324833260Y-434446436D01*
X324880884Y-434636933D01*
X324928508Y-434732182D01*
X324976132Y-434779806D01*
X325071381Y-434827430D01*
X325166630Y-434827430D01*
X325261878Y-434779806D01*
X325309502Y-434732182D01*
X325357127Y-434636933D01*
X325404751Y-434446436D01*
X325404751Y-434208315D01*
X325357127Y-434017817D01*
X325309502Y-433922569D01*
X325261878Y-433874945D01*
X325166630Y-433827320D01*
X324452265Y-433922569D02*
X324404641Y-433874945D01*
X324309392Y-433827320D01*
X324071271Y-433827320D01*
X323976022Y-433874945D01*
X323928398Y-433922569D01*
X323880774Y-434017817D01*
X323880774Y-434113066D01*
X323928398Y-434255939D01*
X324499890Y-434827430D01*
X323880774Y-434827430D01*
X330452409Y-441285732D02*
X330452409Y-440714267D01*
X330452409Y-441000000D02*
X329452346Y-441000000D01*
X329595212Y-440904755D01*
X329690456Y-440809511D01*
X329738078Y-440714267D01*
X320547059Y-440713932D02*
X320499382Y-440761610D01*
X320451704Y-440856966D01*
X320451704Y-441095355D01*
X320499382Y-441190711D01*
X320547059Y-441238389D01*
X320642415Y-441286067D01*
X320737771Y-441286067D01*
X320880805Y-441238389D01*
X321452940Y-440666254D01*
X321452940Y-441286067D01*
%TO.C,J702*%
X326785855Y-358077320D02*
X326785855Y-358791685D01*
X326833480Y-358934557D01*
X326928728Y-359029806D01*
X327071601Y-359077430D01*
X327166850Y-359077430D01*
X326404861Y-358077320D02*
X325738121Y-358077320D01*
X326166740Y-359077430D01*
X325166630Y-358077320D02*
X325071381Y-358077320D01*
X324976132Y-358124945D01*
X324928508Y-358172569D01*
X324880884Y-358267817D01*
X324833260Y-358458315D01*
X324833260Y-358696436D01*
X324880884Y-358886933D01*
X324928508Y-358982182D01*
X324976132Y-359029806D01*
X325071381Y-359077430D01*
X325166630Y-359077430D01*
X325261878Y-359029806D01*
X325309502Y-358982182D01*
X325357127Y-358886933D01*
X325404751Y-358696436D01*
X325404751Y-358458315D01*
X325357127Y-358267817D01*
X325309502Y-358172569D01*
X325261878Y-358124945D01*
X325166630Y-358077320D01*
X324452265Y-358172569D02*
X324404641Y-358124945D01*
X324309392Y-358077320D01*
X324071271Y-358077320D01*
X323976022Y-358124945D01*
X323928398Y-358172569D01*
X323880774Y-358267817D01*
X323880774Y-358363066D01*
X323928398Y-358505939D01*
X324499890Y-359077430D01*
X323880774Y-359077430D01*
X320547059Y-365070132D02*
X320499382Y-365117810D01*
X320451704Y-365213166D01*
X320451704Y-365451555D01*
X320499382Y-365546911D01*
X320547059Y-365594589D01*
X320642415Y-365642267D01*
X320737771Y-365642267D01*
X320880805Y-365594589D01*
X321452940Y-365022454D01*
X321452940Y-365642267D01*
X330452409Y-365669232D02*
X330452409Y-365097767D01*
X330452409Y-365383500D02*
X329452346Y-365383500D01*
X329595212Y-365288255D01*
X329690456Y-365193011D01*
X329738078Y-365097767D01*
%TO.C,J602*%
X326785855Y-282327320D02*
X326785855Y-283041685D01*
X326833480Y-283184557D01*
X326928728Y-283279806D01*
X327071601Y-283327430D01*
X327166850Y-283327430D01*
X325880994Y-282327320D02*
X326071491Y-282327320D01*
X326166740Y-282374945D01*
X326214364Y-282422569D01*
X326309612Y-282565442D01*
X326357237Y-282755939D01*
X326357237Y-283136933D01*
X326309612Y-283232182D01*
X326261988Y-283279806D01*
X326166740Y-283327430D01*
X325976242Y-283327430D01*
X325880994Y-283279806D01*
X325833370Y-283232182D01*
X325785745Y-283136933D01*
X325785745Y-282898812D01*
X325833370Y-282803563D01*
X325880994Y-282755939D01*
X325976242Y-282708315D01*
X326166740Y-282708315D01*
X326261988Y-282755939D01*
X326309612Y-282803563D01*
X326357237Y-282898812D01*
X325166630Y-282327320D02*
X325071381Y-282327320D01*
X324976132Y-282374945D01*
X324928508Y-282422569D01*
X324880884Y-282517817D01*
X324833260Y-282708315D01*
X324833260Y-282946436D01*
X324880884Y-283136933D01*
X324928508Y-283232182D01*
X324976132Y-283279806D01*
X325071381Y-283327430D01*
X325166630Y-283327430D01*
X325261878Y-283279806D01*
X325309502Y-283232182D01*
X325357127Y-283136933D01*
X325404751Y-282946436D01*
X325404751Y-282708315D01*
X325357127Y-282517817D01*
X325309502Y-282422569D01*
X325261878Y-282374945D01*
X325166630Y-282327320D01*
X324452265Y-282422569D02*
X324404641Y-282374945D01*
X324309392Y-282327320D01*
X324071271Y-282327320D01*
X323976022Y-282374945D01*
X323928398Y-282422569D01*
X323880774Y-282517817D01*
X323880774Y-282613066D01*
X323928398Y-282755939D01*
X324499890Y-283327430D01*
X323880774Y-283327430D01*
X330452409Y-289919232D02*
X330452409Y-289347767D01*
X330452409Y-289633500D02*
X329452346Y-289633500D01*
X329595212Y-289538255D01*
X329690456Y-289443011D01*
X329738078Y-289347767D01*
X320547059Y-289320132D02*
X320499382Y-289367810D01*
X320451704Y-289463166D01*
X320451704Y-289701555D01*
X320499382Y-289796911D01*
X320547059Y-289844589D01*
X320642415Y-289892267D01*
X320737771Y-289892267D01*
X320880805Y-289844589D01*
X321452940Y-289272454D01*
X321452940Y-289892267D01*
%TO.C,J402*%
X427785855Y-206577320D02*
X427785855Y-207291685D01*
X427833480Y-207434557D01*
X427928728Y-207529806D01*
X428071601Y-207577430D01*
X428166850Y-207577430D01*
X426880994Y-206910690D02*
X426880994Y-207577430D01*
X427119115Y-206529696D02*
X427357237Y-207244060D01*
X426738121Y-207244060D01*
X426166630Y-206577320D02*
X426071381Y-206577320D01*
X425976132Y-206624945D01*
X425928508Y-206672569D01*
X425880884Y-206767817D01*
X425833260Y-206958315D01*
X425833260Y-207196436D01*
X425880884Y-207386933D01*
X425928508Y-207482182D01*
X425976132Y-207529806D01*
X426071381Y-207577430D01*
X426166630Y-207577430D01*
X426261878Y-207529806D01*
X426309502Y-207482182D01*
X426357127Y-207386933D01*
X426404751Y-207196436D01*
X426404751Y-206958315D01*
X426357127Y-206767817D01*
X426309502Y-206672569D01*
X426261878Y-206624945D01*
X426166630Y-206577320D01*
X425452265Y-206672569D02*
X425404641Y-206624945D01*
X425309392Y-206577320D01*
X425071271Y-206577320D01*
X424976022Y-206624945D01*
X424928398Y-206672569D01*
X424880774Y-206767817D01*
X424880774Y-206863066D01*
X424928398Y-207005939D01*
X425499890Y-207577430D01*
X424880774Y-207577430D01*
X431452409Y-214160732D02*
X431452409Y-213589267D01*
X431452409Y-213875000D02*
X430452346Y-213875000D01*
X430595212Y-213779755D01*
X430690456Y-213684511D01*
X430738078Y-213589267D01*
X421547059Y-213570132D02*
X421499382Y-213617810D01*
X421451704Y-213713166D01*
X421451704Y-213951555D01*
X421499382Y-214046911D01*
X421547059Y-214094589D01*
X421642415Y-214142267D01*
X421737771Y-214142267D01*
X421880805Y-214094589D01*
X422452940Y-213522454D01*
X422452940Y-214142267D01*
%TO.C,J102*%
X427785855Y-55077320D02*
X427785855Y-55791685D01*
X427833480Y-55934557D01*
X427928728Y-56029806D01*
X428071601Y-56077430D01*
X428166850Y-56077430D01*
X426785745Y-56077430D02*
X427357237Y-56077430D01*
X427071491Y-56077430D02*
X427071491Y-55077320D01*
X427166740Y-55220193D01*
X427261988Y-55315442D01*
X427357237Y-55363066D01*
X426166630Y-55077320D02*
X426071381Y-55077320D01*
X425976132Y-55124945D01*
X425928508Y-55172569D01*
X425880884Y-55267817D01*
X425833260Y-55458315D01*
X425833260Y-55696436D01*
X425880884Y-55886933D01*
X425928508Y-55982182D01*
X425976132Y-56029806D01*
X426071381Y-56077430D01*
X426166630Y-56077430D01*
X426261878Y-56029806D01*
X426309502Y-55982182D01*
X426357127Y-55886933D01*
X426404751Y-55696436D01*
X426404751Y-55458315D01*
X426357127Y-55267817D01*
X426309502Y-55172569D01*
X426261878Y-55124945D01*
X426166630Y-55077320D01*
X425452265Y-55172569D02*
X425404641Y-55124945D01*
X425309392Y-55077320D01*
X425071271Y-55077320D01*
X424976022Y-55124945D01*
X424928398Y-55172569D01*
X424880774Y-55267817D01*
X424880774Y-55363066D01*
X424928398Y-55505939D01*
X425499890Y-56077430D01*
X424880774Y-56077430D01*
X431452409Y-62660732D02*
X431452409Y-62089267D01*
X431452409Y-62375000D02*
X430452346Y-62375000D01*
X430595212Y-62279755D01*
X430690456Y-62184511D01*
X430738078Y-62089267D01*
X421547059Y-62070132D02*
X421499382Y-62117810D01*
X421451704Y-62213166D01*
X421451704Y-62451555D01*
X421499382Y-62546911D01*
X421547059Y-62594589D01*
X421642415Y-62642267D01*
X421737771Y-62642267D01*
X421880805Y-62594589D01*
X422452940Y-62022454D01*
X422452940Y-62642267D01*
%TO.C,J302*%
X427785855Y-130827320D02*
X427785855Y-131541685D01*
X427833480Y-131684557D01*
X427928728Y-131779806D01*
X428071601Y-131827430D01*
X428166850Y-131827430D01*
X427404861Y-130827320D02*
X426785745Y-130827320D01*
X427119115Y-131208315D01*
X426976242Y-131208315D01*
X426880994Y-131255939D01*
X426833370Y-131303563D01*
X426785745Y-131398812D01*
X426785745Y-131636933D01*
X426833370Y-131732182D01*
X426880994Y-131779806D01*
X426976242Y-131827430D01*
X427261988Y-131827430D01*
X427357237Y-131779806D01*
X427404861Y-131732182D01*
X426166630Y-130827320D02*
X426071381Y-130827320D01*
X425976132Y-130874945D01*
X425928508Y-130922569D01*
X425880884Y-131017817D01*
X425833260Y-131208315D01*
X425833260Y-131446436D01*
X425880884Y-131636933D01*
X425928508Y-131732182D01*
X425976132Y-131779806D01*
X426071381Y-131827430D01*
X426166630Y-131827430D01*
X426261878Y-131779806D01*
X426309502Y-131732182D01*
X426357127Y-131636933D01*
X426404751Y-131446436D01*
X426404751Y-131208315D01*
X426357127Y-131017817D01*
X426309502Y-130922569D01*
X426261878Y-130874945D01*
X426166630Y-130827320D01*
X425452265Y-130922569D02*
X425404641Y-130874945D01*
X425309392Y-130827320D01*
X425071271Y-130827320D01*
X424976022Y-130874945D01*
X424928398Y-130922569D01*
X424880774Y-131017817D01*
X424880774Y-131113066D01*
X424928398Y-131255939D01*
X425499890Y-131827430D01*
X424880774Y-131827430D01*
X431452409Y-138419232D02*
X431452409Y-137847767D01*
X431452409Y-138133500D02*
X430452346Y-138133500D01*
X430595212Y-138038255D01*
X430690456Y-137943011D01*
X430738078Y-137847767D01*
X421547059Y-137820132D02*
X421499382Y-137867810D01*
X421451704Y-137963166D01*
X421451704Y-138201555D01*
X421499382Y-138296911D01*
X421547059Y-138344589D01*
X421642415Y-138392267D01*
X421737771Y-138392267D01*
X421880805Y-138344589D01*
X422452940Y-137772454D01*
X422452940Y-138392267D01*
%TO.C,J902*%
X427785855Y-433827320D02*
X427785855Y-434541685D01*
X427833480Y-434684557D01*
X427928728Y-434779806D01*
X428071601Y-434827430D01*
X428166850Y-434827430D01*
X427261988Y-434827430D02*
X427071491Y-434827430D01*
X426976242Y-434779806D01*
X426928618Y-434732182D01*
X426833370Y-434589309D01*
X426785745Y-434398812D01*
X426785745Y-434017817D01*
X426833370Y-433922569D01*
X426880994Y-433874945D01*
X426976242Y-433827320D01*
X427166740Y-433827320D01*
X427261988Y-433874945D01*
X427309612Y-433922569D01*
X427357237Y-434017817D01*
X427357237Y-434255939D01*
X427309612Y-434351187D01*
X427261988Y-434398812D01*
X427166740Y-434446436D01*
X426976242Y-434446436D01*
X426880994Y-434398812D01*
X426833370Y-434351187D01*
X426785745Y-434255939D01*
X426166630Y-433827320D02*
X426071381Y-433827320D01*
X425976132Y-433874945D01*
X425928508Y-433922569D01*
X425880884Y-434017817D01*
X425833260Y-434208315D01*
X425833260Y-434446436D01*
X425880884Y-434636933D01*
X425928508Y-434732182D01*
X425976132Y-434779806D01*
X426071381Y-434827430D01*
X426166630Y-434827430D01*
X426261878Y-434779806D01*
X426309502Y-434732182D01*
X426357127Y-434636933D01*
X426404751Y-434446436D01*
X426404751Y-434208315D01*
X426357127Y-434017817D01*
X426309502Y-433922569D01*
X426261878Y-433874945D01*
X426166630Y-433827320D01*
X425452265Y-433922569D02*
X425404641Y-433874945D01*
X425309392Y-433827320D01*
X425071271Y-433827320D01*
X424976022Y-433874945D01*
X424928398Y-433922569D01*
X424880774Y-434017817D01*
X424880774Y-434113066D01*
X424928398Y-434255939D01*
X425499890Y-434827430D01*
X424880774Y-434827430D01*
X421547059Y-440713932D02*
X421499382Y-440761610D01*
X421451704Y-440856966D01*
X421451704Y-441095355D01*
X421499382Y-441190711D01*
X421547059Y-441238389D01*
X421642415Y-441286067D01*
X421737771Y-441286067D01*
X421880805Y-441238389D01*
X422452940Y-440666254D01*
X422452940Y-441286067D01*
X431452409Y-441285732D02*
X431452409Y-440714267D01*
X431452409Y-441000000D02*
X430452346Y-441000000D01*
X430595212Y-440904755D01*
X430690456Y-440809511D01*
X430738078Y-440714267D01*
%TO.C,J702*%
X427785855Y-358077320D02*
X427785855Y-358791685D01*
X427833480Y-358934557D01*
X427928728Y-359029806D01*
X428071601Y-359077430D01*
X428166850Y-359077430D01*
X427404861Y-358077320D02*
X426738121Y-358077320D01*
X427166740Y-359077430D01*
X426166630Y-358077320D02*
X426071381Y-358077320D01*
X425976132Y-358124945D01*
X425928508Y-358172569D01*
X425880884Y-358267817D01*
X425833260Y-358458315D01*
X425833260Y-358696436D01*
X425880884Y-358886933D01*
X425928508Y-358982182D01*
X425976132Y-359029806D01*
X426071381Y-359077430D01*
X426166630Y-359077430D01*
X426261878Y-359029806D01*
X426309502Y-358982182D01*
X426357127Y-358886933D01*
X426404751Y-358696436D01*
X426404751Y-358458315D01*
X426357127Y-358267817D01*
X426309502Y-358172569D01*
X426261878Y-358124945D01*
X426166630Y-358077320D01*
X425452265Y-358172569D02*
X425404641Y-358124945D01*
X425309392Y-358077320D01*
X425071271Y-358077320D01*
X424976022Y-358124945D01*
X424928398Y-358172569D01*
X424880774Y-358267817D01*
X424880774Y-358363066D01*
X424928398Y-358505939D01*
X425499890Y-359077430D01*
X424880774Y-359077430D01*
X431452409Y-365669232D02*
X431452409Y-365097767D01*
X431452409Y-365383500D02*
X430452346Y-365383500D01*
X430595212Y-365288255D01*
X430690456Y-365193011D01*
X430738078Y-365097767D01*
X421547059Y-365070132D02*
X421499382Y-365117810D01*
X421451704Y-365213166D01*
X421451704Y-365451555D01*
X421499382Y-365546911D01*
X421547059Y-365594589D01*
X421642415Y-365642267D01*
X421737771Y-365642267D01*
X421880805Y-365594589D01*
X422452940Y-365022454D01*
X422452940Y-365642267D01*
%TO.C,J602*%
X377285855Y-282327320D02*
X377285855Y-283041685D01*
X377333480Y-283184557D01*
X377428728Y-283279806D01*
X377571601Y-283327430D01*
X377666850Y-283327430D01*
X376380994Y-282327320D02*
X376571491Y-282327320D01*
X376666740Y-282374945D01*
X376714364Y-282422569D01*
X376809612Y-282565442D01*
X376857237Y-282755939D01*
X376857237Y-283136933D01*
X376809612Y-283232182D01*
X376761988Y-283279806D01*
X376666740Y-283327430D01*
X376476242Y-283327430D01*
X376380994Y-283279806D01*
X376333370Y-283232182D01*
X376285745Y-283136933D01*
X376285745Y-282898812D01*
X376333370Y-282803563D01*
X376380994Y-282755939D01*
X376476242Y-282708315D01*
X376666740Y-282708315D01*
X376761988Y-282755939D01*
X376809612Y-282803563D01*
X376857237Y-282898812D01*
X375666630Y-282327320D02*
X375571381Y-282327320D01*
X375476132Y-282374945D01*
X375428508Y-282422569D01*
X375380884Y-282517817D01*
X375333260Y-282708315D01*
X375333260Y-282946436D01*
X375380884Y-283136933D01*
X375428508Y-283232182D01*
X375476132Y-283279806D01*
X375571381Y-283327430D01*
X375666630Y-283327430D01*
X375761878Y-283279806D01*
X375809502Y-283232182D01*
X375857127Y-283136933D01*
X375904751Y-282946436D01*
X375904751Y-282708315D01*
X375857127Y-282517817D01*
X375809502Y-282422569D01*
X375761878Y-282374945D01*
X375666630Y-282327320D01*
X374952265Y-282422569D02*
X374904641Y-282374945D01*
X374809392Y-282327320D01*
X374571271Y-282327320D01*
X374476022Y-282374945D01*
X374428398Y-282422569D01*
X374380774Y-282517817D01*
X374380774Y-282613066D01*
X374428398Y-282755939D01*
X374999890Y-283327430D01*
X374380774Y-283327430D01*
X380952409Y-289919232D02*
X380952409Y-289347767D01*
X380952409Y-289633500D02*
X379952346Y-289633500D01*
X380095212Y-289538255D01*
X380190456Y-289443011D01*
X380238078Y-289347767D01*
X371047059Y-289320132D02*
X370999382Y-289367810D01*
X370951704Y-289463166D01*
X370951704Y-289701555D01*
X370999382Y-289796911D01*
X371047059Y-289844589D01*
X371142415Y-289892267D01*
X371237771Y-289892267D01*
X371380805Y-289844589D01*
X371952940Y-289272454D01*
X371952940Y-289892267D01*
%TO.C,J702*%
X377285855Y-358077320D02*
X377285855Y-358791685D01*
X377333480Y-358934557D01*
X377428728Y-359029806D01*
X377571601Y-359077430D01*
X377666850Y-359077430D01*
X376904861Y-358077320D02*
X376238121Y-358077320D01*
X376666740Y-359077430D01*
X375666630Y-358077320D02*
X375571381Y-358077320D01*
X375476132Y-358124945D01*
X375428508Y-358172569D01*
X375380884Y-358267817D01*
X375333260Y-358458315D01*
X375333260Y-358696436D01*
X375380884Y-358886933D01*
X375428508Y-358982182D01*
X375476132Y-359029806D01*
X375571381Y-359077430D01*
X375666630Y-359077430D01*
X375761878Y-359029806D01*
X375809502Y-358982182D01*
X375857127Y-358886933D01*
X375904751Y-358696436D01*
X375904751Y-358458315D01*
X375857127Y-358267817D01*
X375809502Y-358172569D01*
X375761878Y-358124945D01*
X375666630Y-358077320D01*
X374952265Y-358172569D02*
X374904641Y-358124945D01*
X374809392Y-358077320D01*
X374571271Y-358077320D01*
X374476022Y-358124945D01*
X374428398Y-358172569D01*
X374380774Y-358267817D01*
X374380774Y-358363066D01*
X374428398Y-358505939D01*
X374999890Y-359077430D01*
X374380774Y-359077430D01*
X371047059Y-365070132D02*
X370999382Y-365117810D01*
X370951704Y-365213166D01*
X370951704Y-365451555D01*
X370999382Y-365546911D01*
X371047059Y-365594589D01*
X371142415Y-365642267D01*
X371237771Y-365642267D01*
X371380805Y-365594589D01*
X371952940Y-365022454D01*
X371952940Y-365642267D01*
X380952409Y-365669232D02*
X380952409Y-365097767D01*
X380952409Y-365383500D02*
X379952346Y-365383500D01*
X380095212Y-365288255D01*
X380190456Y-365193011D01*
X380238078Y-365097767D01*
%TO.C,J902*%
X377285855Y-433827320D02*
X377285855Y-434541685D01*
X377333480Y-434684557D01*
X377428728Y-434779806D01*
X377571601Y-434827430D01*
X377666850Y-434827430D01*
X376761988Y-434827430D02*
X376571491Y-434827430D01*
X376476242Y-434779806D01*
X376428618Y-434732182D01*
X376333370Y-434589309D01*
X376285745Y-434398812D01*
X376285745Y-434017817D01*
X376333370Y-433922569D01*
X376380994Y-433874945D01*
X376476242Y-433827320D01*
X376666740Y-433827320D01*
X376761988Y-433874945D01*
X376809612Y-433922569D01*
X376857237Y-434017817D01*
X376857237Y-434255939D01*
X376809612Y-434351187D01*
X376761988Y-434398812D01*
X376666740Y-434446436D01*
X376476242Y-434446436D01*
X376380994Y-434398812D01*
X376333370Y-434351187D01*
X376285745Y-434255939D01*
X375666630Y-433827320D02*
X375571381Y-433827320D01*
X375476132Y-433874945D01*
X375428508Y-433922569D01*
X375380884Y-434017817D01*
X375333260Y-434208315D01*
X375333260Y-434446436D01*
X375380884Y-434636933D01*
X375428508Y-434732182D01*
X375476132Y-434779806D01*
X375571381Y-434827430D01*
X375666630Y-434827430D01*
X375761878Y-434779806D01*
X375809502Y-434732182D01*
X375857127Y-434636933D01*
X375904751Y-434446436D01*
X375904751Y-434208315D01*
X375857127Y-434017817D01*
X375809502Y-433922569D01*
X375761878Y-433874945D01*
X375666630Y-433827320D01*
X374952265Y-433922569D02*
X374904641Y-433874945D01*
X374809392Y-433827320D01*
X374571271Y-433827320D01*
X374476022Y-433874945D01*
X374428398Y-433922569D01*
X374380774Y-434017817D01*
X374380774Y-434113066D01*
X374428398Y-434255939D01*
X374999890Y-434827430D01*
X374380774Y-434827430D01*
X380952409Y-441285732D02*
X380952409Y-440714267D01*
X380952409Y-441000000D02*
X379952346Y-441000000D01*
X380095212Y-440904755D01*
X380190456Y-440809511D01*
X380238078Y-440714267D01*
X371047059Y-440713932D02*
X370999382Y-440761610D01*
X370951704Y-440856966D01*
X370951704Y-441095355D01*
X370999382Y-441190711D01*
X371047059Y-441238389D01*
X371142415Y-441286067D01*
X371237771Y-441286067D01*
X371380805Y-441238389D01*
X371952940Y-440666254D01*
X371952940Y-441286067D01*
%TO.C,J602*%
X427785855Y-282327320D02*
X427785855Y-283041685D01*
X427833480Y-283184557D01*
X427928728Y-283279806D01*
X428071601Y-283327430D01*
X428166850Y-283327430D01*
X426880994Y-282327320D02*
X427071491Y-282327320D01*
X427166740Y-282374945D01*
X427214364Y-282422569D01*
X427309612Y-282565442D01*
X427357237Y-282755939D01*
X427357237Y-283136933D01*
X427309612Y-283232182D01*
X427261988Y-283279806D01*
X427166740Y-283327430D01*
X426976242Y-283327430D01*
X426880994Y-283279806D01*
X426833370Y-283232182D01*
X426785745Y-283136933D01*
X426785745Y-282898812D01*
X426833370Y-282803563D01*
X426880994Y-282755939D01*
X426976242Y-282708315D01*
X427166740Y-282708315D01*
X427261988Y-282755939D01*
X427309612Y-282803563D01*
X427357237Y-282898812D01*
X426166630Y-282327320D02*
X426071381Y-282327320D01*
X425976132Y-282374945D01*
X425928508Y-282422569D01*
X425880884Y-282517817D01*
X425833260Y-282708315D01*
X425833260Y-282946436D01*
X425880884Y-283136933D01*
X425928508Y-283232182D01*
X425976132Y-283279806D01*
X426071381Y-283327430D01*
X426166630Y-283327430D01*
X426261878Y-283279806D01*
X426309502Y-283232182D01*
X426357127Y-283136933D01*
X426404751Y-282946436D01*
X426404751Y-282708315D01*
X426357127Y-282517817D01*
X426309502Y-282422569D01*
X426261878Y-282374945D01*
X426166630Y-282327320D01*
X425452265Y-282422569D02*
X425404641Y-282374945D01*
X425309392Y-282327320D01*
X425071271Y-282327320D01*
X424976022Y-282374945D01*
X424928398Y-282422569D01*
X424880774Y-282517817D01*
X424880774Y-282613066D01*
X424928398Y-282755939D01*
X425499890Y-283327430D01*
X424880774Y-283327430D01*
X421547059Y-289320132D02*
X421499382Y-289367810D01*
X421451704Y-289463166D01*
X421451704Y-289701555D01*
X421499382Y-289796911D01*
X421547059Y-289844589D01*
X421642415Y-289892267D01*
X421737771Y-289892267D01*
X421880805Y-289844589D01*
X422452940Y-289272454D01*
X422452940Y-289892267D01*
X431452409Y-289919232D02*
X431452409Y-289347767D01*
X431452409Y-289633500D02*
X430452346Y-289633500D01*
X430595212Y-289538255D01*
X430690456Y-289443011D01*
X430738078Y-289347767D01*
%TO.C,J902*%
X276285855Y-433827320D02*
X276285855Y-434541685D01*
X276333480Y-434684557D01*
X276428728Y-434779806D01*
X276571601Y-434827430D01*
X276666850Y-434827430D01*
X275761988Y-434827430D02*
X275571491Y-434827430D01*
X275476242Y-434779806D01*
X275428618Y-434732182D01*
X275333370Y-434589309D01*
X275285745Y-434398812D01*
X275285745Y-434017817D01*
X275333370Y-433922569D01*
X275380994Y-433874945D01*
X275476242Y-433827320D01*
X275666740Y-433827320D01*
X275761988Y-433874945D01*
X275809612Y-433922569D01*
X275857237Y-434017817D01*
X275857237Y-434255939D01*
X275809612Y-434351187D01*
X275761988Y-434398812D01*
X275666740Y-434446436D01*
X275476242Y-434446436D01*
X275380994Y-434398812D01*
X275333370Y-434351187D01*
X275285745Y-434255939D01*
X274666630Y-433827320D02*
X274571381Y-433827320D01*
X274476132Y-433874945D01*
X274428508Y-433922569D01*
X274380884Y-434017817D01*
X274333260Y-434208315D01*
X274333260Y-434446436D01*
X274380884Y-434636933D01*
X274428508Y-434732182D01*
X274476132Y-434779806D01*
X274571381Y-434827430D01*
X274666630Y-434827430D01*
X274761878Y-434779806D01*
X274809502Y-434732182D01*
X274857127Y-434636933D01*
X274904751Y-434446436D01*
X274904751Y-434208315D01*
X274857127Y-434017817D01*
X274809502Y-433922569D01*
X274761878Y-433874945D01*
X274666630Y-433827320D01*
X273952265Y-433922569D02*
X273904641Y-433874945D01*
X273809392Y-433827320D01*
X273571271Y-433827320D01*
X273476022Y-433874945D01*
X273428398Y-433922569D01*
X273380774Y-434017817D01*
X273380774Y-434113066D01*
X273428398Y-434255939D01*
X273999890Y-434827430D01*
X273380774Y-434827430D01*
X270047059Y-440713932D02*
X269999382Y-440761610D01*
X269951704Y-440856966D01*
X269951704Y-441095355D01*
X269999382Y-441190711D01*
X270047059Y-441238389D01*
X270142415Y-441286067D01*
X270237771Y-441286067D01*
X270380805Y-441238389D01*
X270952940Y-440666254D01*
X270952940Y-441286067D01*
X279952409Y-441285732D02*
X279952409Y-440714267D01*
X279952409Y-441000000D02*
X278952346Y-441000000D01*
X279095212Y-440904755D01*
X279190456Y-440809511D01*
X279238078Y-440714267D01*
%TO.C,J702*%
X276285855Y-358077320D02*
X276285855Y-358791685D01*
X276333480Y-358934557D01*
X276428728Y-359029806D01*
X276571601Y-359077430D01*
X276666850Y-359077430D01*
X275904861Y-358077320D02*
X275238121Y-358077320D01*
X275666740Y-359077430D01*
X274666630Y-358077320D02*
X274571381Y-358077320D01*
X274476132Y-358124945D01*
X274428508Y-358172569D01*
X274380884Y-358267817D01*
X274333260Y-358458315D01*
X274333260Y-358696436D01*
X274380884Y-358886933D01*
X274428508Y-358982182D01*
X274476132Y-359029806D01*
X274571381Y-359077430D01*
X274666630Y-359077430D01*
X274761878Y-359029806D01*
X274809502Y-358982182D01*
X274857127Y-358886933D01*
X274904751Y-358696436D01*
X274904751Y-358458315D01*
X274857127Y-358267817D01*
X274809502Y-358172569D01*
X274761878Y-358124945D01*
X274666630Y-358077320D01*
X273952265Y-358172569D02*
X273904641Y-358124945D01*
X273809392Y-358077320D01*
X273571271Y-358077320D01*
X273476022Y-358124945D01*
X273428398Y-358172569D01*
X273380774Y-358267817D01*
X273380774Y-358363066D01*
X273428398Y-358505939D01*
X273999890Y-359077430D01*
X273380774Y-359077430D01*
X279952409Y-365669232D02*
X279952409Y-365097767D01*
X279952409Y-365383500D02*
X278952346Y-365383500D01*
X279095212Y-365288255D01*
X279190456Y-365193011D01*
X279238078Y-365097767D01*
X270047059Y-365070132D02*
X269999382Y-365117810D01*
X269951704Y-365213166D01*
X269951704Y-365451555D01*
X269999382Y-365546911D01*
X270047059Y-365594589D01*
X270142415Y-365642267D01*
X270237771Y-365642267D01*
X270380805Y-365594589D01*
X270952940Y-365022454D01*
X270952940Y-365642267D01*
%TO.C,J602*%
X276285855Y-282327320D02*
X276285855Y-283041685D01*
X276333480Y-283184557D01*
X276428728Y-283279806D01*
X276571601Y-283327430D01*
X276666850Y-283327430D01*
X275380994Y-282327320D02*
X275571491Y-282327320D01*
X275666740Y-282374945D01*
X275714364Y-282422569D01*
X275809612Y-282565442D01*
X275857237Y-282755939D01*
X275857237Y-283136933D01*
X275809612Y-283232182D01*
X275761988Y-283279806D01*
X275666740Y-283327430D01*
X275476242Y-283327430D01*
X275380994Y-283279806D01*
X275333370Y-283232182D01*
X275285745Y-283136933D01*
X275285745Y-282898812D01*
X275333370Y-282803563D01*
X275380994Y-282755939D01*
X275476242Y-282708315D01*
X275666740Y-282708315D01*
X275761988Y-282755939D01*
X275809612Y-282803563D01*
X275857237Y-282898812D01*
X274666630Y-282327320D02*
X274571381Y-282327320D01*
X274476132Y-282374945D01*
X274428508Y-282422569D01*
X274380884Y-282517817D01*
X274333260Y-282708315D01*
X274333260Y-282946436D01*
X274380884Y-283136933D01*
X274428508Y-283232182D01*
X274476132Y-283279806D01*
X274571381Y-283327430D01*
X274666630Y-283327430D01*
X274761878Y-283279806D01*
X274809502Y-283232182D01*
X274857127Y-283136933D01*
X274904751Y-282946436D01*
X274904751Y-282708315D01*
X274857127Y-282517817D01*
X274809502Y-282422569D01*
X274761878Y-282374945D01*
X274666630Y-282327320D01*
X273952265Y-282422569D02*
X273904641Y-282374945D01*
X273809392Y-282327320D01*
X273571271Y-282327320D01*
X273476022Y-282374945D01*
X273428398Y-282422569D01*
X273380774Y-282517817D01*
X273380774Y-282613066D01*
X273428398Y-282755939D01*
X273999890Y-283327430D01*
X273380774Y-283327430D01*
X270047059Y-289320132D02*
X269999382Y-289367810D01*
X269951704Y-289463166D01*
X269951704Y-289701555D01*
X269999382Y-289796911D01*
X270047059Y-289844589D01*
X270142415Y-289892267D01*
X270237771Y-289892267D01*
X270380805Y-289844589D01*
X270952940Y-289272454D01*
X270952940Y-289892267D01*
X279952409Y-289919232D02*
X279952409Y-289347767D01*
X279952409Y-289633500D02*
X278952346Y-289633500D01*
X279095212Y-289538255D01*
X279190456Y-289443011D01*
X279238078Y-289347767D01*
%TO.C,J402*%
X377285855Y-206577320D02*
X377285855Y-207291685D01*
X377333480Y-207434557D01*
X377428728Y-207529806D01*
X377571601Y-207577430D01*
X377666850Y-207577430D01*
X376380994Y-206910690D02*
X376380994Y-207577430D01*
X376619115Y-206529696D02*
X376857237Y-207244060D01*
X376238121Y-207244060D01*
X375666630Y-206577320D02*
X375571381Y-206577320D01*
X375476132Y-206624945D01*
X375428508Y-206672569D01*
X375380884Y-206767817D01*
X375333260Y-206958315D01*
X375333260Y-207196436D01*
X375380884Y-207386933D01*
X375428508Y-207482182D01*
X375476132Y-207529806D01*
X375571381Y-207577430D01*
X375666630Y-207577430D01*
X375761878Y-207529806D01*
X375809502Y-207482182D01*
X375857127Y-207386933D01*
X375904751Y-207196436D01*
X375904751Y-206958315D01*
X375857127Y-206767817D01*
X375809502Y-206672569D01*
X375761878Y-206624945D01*
X375666630Y-206577320D01*
X374952265Y-206672569D02*
X374904641Y-206624945D01*
X374809392Y-206577320D01*
X374571271Y-206577320D01*
X374476022Y-206624945D01*
X374428398Y-206672569D01*
X374380774Y-206767817D01*
X374380774Y-206863066D01*
X374428398Y-207005939D01*
X374999890Y-207577430D01*
X374380774Y-207577430D01*
X371047059Y-213570132D02*
X370999382Y-213617810D01*
X370951704Y-213713166D01*
X370951704Y-213951555D01*
X370999382Y-214046911D01*
X371047059Y-214094589D01*
X371142415Y-214142267D01*
X371237771Y-214142267D01*
X371380805Y-214094589D01*
X371952940Y-213522454D01*
X371952940Y-214142267D01*
X380952409Y-214160732D02*
X380952409Y-213589267D01*
X380952409Y-213875000D02*
X379952346Y-213875000D01*
X380095212Y-213779755D01*
X380190456Y-213684511D01*
X380238078Y-213589267D01*
%TO.C,J102*%
X377285855Y-55077320D02*
X377285855Y-55791685D01*
X377333480Y-55934557D01*
X377428728Y-56029806D01*
X377571601Y-56077430D01*
X377666850Y-56077430D01*
X376285745Y-56077430D02*
X376857237Y-56077430D01*
X376571491Y-56077430D02*
X376571491Y-55077320D01*
X376666740Y-55220193D01*
X376761988Y-55315442D01*
X376857237Y-55363066D01*
X375666630Y-55077320D02*
X375571381Y-55077320D01*
X375476132Y-55124945D01*
X375428508Y-55172569D01*
X375380884Y-55267817D01*
X375333260Y-55458315D01*
X375333260Y-55696436D01*
X375380884Y-55886933D01*
X375428508Y-55982182D01*
X375476132Y-56029806D01*
X375571381Y-56077430D01*
X375666630Y-56077430D01*
X375761878Y-56029806D01*
X375809502Y-55982182D01*
X375857127Y-55886933D01*
X375904751Y-55696436D01*
X375904751Y-55458315D01*
X375857127Y-55267817D01*
X375809502Y-55172569D01*
X375761878Y-55124945D01*
X375666630Y-55077320D01*
X374952265Y-55172569D02*
X374904641Y-55124945D01*
X374809392Y-55077320D01*
X374571271Y-55077320D01*
X374476022Y-55124945D01*
X374428398Y-55172569D01*
X374380774Y-55267817D01*
X374380774Y-55363066D01*
X374428398Y-55505939D01*
X374999890Y-56077430D01*
X374380774Y-56077430D01*
X371047059Y-62070132D02*
X370999382Y-62117810D01*
X370951704Y-62213166D01*
X370951704Y-62451555D01*
X370999382Y-62546911D01*
X371047059Y-62594589D01*
X371142415Y-62642267D01*
X371237771Y-62642267D01*
X371380805Y-62594589D01*
X371952940Y-62022454D01*
X371952940Y-62642267D01*
X380952409Y-62660732D02*
X380952409Y-62089267D01*
X380952409Y-62375000D02*
X379952346Y-62375000D01*
X380095212Y-62279755D01*
X380190456Y-62184511D01*
X380238078Y-62089267D01*
%TO.C,J302*%
X377285855Y-130827320D02*
X377285855Y-131541685D01*
X377333480Y-131684557D01*
X377428728Y-131779806D01*
X377571601Y-131827430D01*
X377666850Y-131827430D01*
X376904861Y-130827320D02*
X376285745Y-130827320D01*
X376619115Y-131208315D01*
X376476242Y-131208315D01*
X376380994Y-131255939D01*
X376333370Y-131303563D01*
X376285745Y-131398812D01*
X376285745Y-131636933D01*
X376333370Y-131732182D01*
X376380994Y-131779806D01*
X376476242Y-131827430D01*
X376761988Y-131827430D01*
X376857237Y-131779806D01*
X376904861Y-131732182D01*
X375666630Y-130827320D02*
X375571381Y-130827320D01*
X375476132Y-130874945D01*
X375428508Y-130922569D01*
X375380884Y-131017817D01*
X375333260Y-131208315D01*
X375333260Y-131446436D01*
X375380884Y-131636933D01*
X375428508Y-131732182D01*
X375476132Y-131779806D01*
X375571381Y-131827430D01*
X375666630Y-131827430D01*
X375761878Y-131779806D01*
X375809502Y-131732182D01*
X375857127Y-131636933D01*
X375904751Y-131446436D01*
X375904751Y-131208315D01*
X375857127Y-131017817D01*
X375809502Y-130922569D01*
X375761878Y-130874945D01*
X375666630Y-130827320D01*
X374952265Y-130922569D02*
X374904641Y-130874945D01*
X374809392Y-130827320D01*
X374571271Y-130827320D01*
X374476022Y-130874945D01*
X374428398Y-130922569D01*
X374380774Y-131017817D01*
X374380774Y-131113066D01*
X374428398Y-131255939D01*
X374999890Y-131827430D01*
X374380774Y-131827430D01*
X371047059Y-137820132D02*
X370999382Y-137867810D01*
X370951704Y-137963166D01*
X370951704Y-138201555D01*
X370999382Y-138296911D01*
X371047059Y-138344589D01*
X371142415Y-138392267D01*
X371237771Y-138392267D01*
X371380805Y-138344589D01*
X371952940Y-137772454D01*
X371952940Y-138392267D01*
X380952409Y-138419232D02*
X380952409Y-137847767D01*
X380952409Y-138133500D02*
X379952346Y-138133500D01*
X380095212Y-138038255D01*
X380190456Y-137943011D01*
X380238078Y-137847767D01*
%TO.C,J402*%
X175285855Y-206577320D02*
X175285855Y-207291685D01*
X175333480Y-207434557D01*
X175428728Y-207529806D01*
X175571601Y-207577430D01*
X175666850Y-207577430D01*
X174380994Y-206910690D02*
X174380994Y-207577430D01*
X174619115Y-206529696D02*
X174857237Y-207244060D01*
X174238121Y-207244060D01*
X173666630Y-206577320D02*
X173571381Y-206577320D01*
X173476132Y-206624945D01*
X173428508Y-206672569D01*
X173380884Y-206767817D01*
X173333260Y-206958315D01*
X173333260Y-207196436D01*
X173380884Y-207386933D01*
X173428508Y-207482182D01*
X173476132Y-207529806D01*
X173571381Y-207577430D01*
X173666630Y-207577430D01*
X173761878Y-207529806D01*
X173809502Y-207482182D01*
X173857127Y-207386933D01*
X173904751Y-207196436D01*
X173904751Y-206958315D01*
X173857127Y-206767817D01*
X173809502Y-206672569D01*
X173761878Y-206624945D01*
X173666630Y-206577320D01*
X172952265Y-206672569D02*
X172904641Y-206624945D01*
X172809392Y-206577320D01*
X172571271Y-206577320D01*
X172476022Y-206624945D01*
X172428398Y-206672569D01*
X172380774Y-206767817D01*
X172380774Y-206863066D01*
X172428398Y-207005939D01*
X172999890Y-207577430D01*
X172380774Y-207577430D01*
X178952409Y-214160732D02*
X178952409Y-213589267D01*
X178952409Y-213875000D02*
X177952346Y-213875000D01*
X178095212Y-213779755D01*
X178190456Y-213684511D01*
X178238078Y-213589267D01*
X169047059Y-213570132D02*
X168999382Y-213617810D01*
X168951704Y-213713166D01*
X168951704Y-213951555D01*
X168999382Y-214046911D01*
X169047059Y-214094589D01*
X169142415Y-214142267D01*
X169237771Y-214142267D01*
X169380805Y-214094589D01*
X169952940Y-213522454D01*
X169952940Y-214142267D01*
%TO.C,J102*%
X175285855Y-55077320D02*
X175285855Y-55791685D01*
X175333480Y-55934557D01*
X175428728Y-56029806D01*
X175571601Y-56077430D01*
X175666850Y-56077430D01*
X174285745Y-56077430D02*
X174857237Y-56077430D01*
X174571491Y-56077430D02*
X174571491Y-55077320D01*
X174666740Y-55220193D01*
X174761988Y-55315442D01*
X174857237Y-55363066D01*
X173666630Y-55077320D02*
X173571381Y-55077320D01*
X173476132Y-55124945D01*
X173428508Y-55172569D01*
X173380884Y-55267817D01*
X173333260Y-55458315D01*
X173333260Y-55696436D01*
X173380884Y-55886933D01*
X173428508Y-55982182D01*
X173476132Y-56029806D01*
X173571381Y-56077430D01*
X173666630Y-56077430D01*
X173761878Y-56029806D01*
X173809502Y-55982182D01*
X173857127Y-55886933D01*
X173904751Y-55696436D01*
X173904751Y-55458315D01*
X173857127Y-55267817D01*
X173809502Y-55172569D01*
X173761878Y-55124945D01*
X173666630Y-55077320D01*
X172952265Y-55172569D02*
X172904641Y-55124945D01*
X172809392Y-55077320D01*
X172571271Y-55077320D01*
X172476022Y-55124945D01*
X172428398Y-55172569D01*
X172380774Y-55267817D01*
X172380774Y-55363066D01*
X172428398Y-55505939D01*
X172999890Y-56077430D01*
X172380774Y-56077430D01*
X178952409Y-62660732D02*
X178952409Y-62089267D01*
X178952409Y-62375000D02*
X177952346Y-62375000D01*
X178095212Y-62279755D01*
X178190456Y-62184511D01*
X178238078Y-62089267D01*
X169047059Y-62070132D02*
X168999382Y-62117810D01*
X168951704Y-62213166D01*
X168951704Y-62451555D01*
X168999382Y-62546911D01*
X169047059Y-62594589D01*
X169142415Y-62642267D01*
X169237771Y-62642267D01*
X169380805Y-62594589D01*
X169952940Y-62022454D01*
X169952940Y-62642267D01*
%TO.C,J302*%
X175285855Y-130827320D02*
X175285855Y-131541685D01*
X175333480Y-131684557D01*
X175428728Y-131779806D01*
X175571601Y-131827430D01*
X175666850Y-131827430D01*
X174904861Y-130827320D02*
X174285745Y-130827320D01*
X174619115Y-131208315D01*
X174476242Y-131208315D01*
X174380994Y-131255939D01*
X174333370Y-131303563D01*
X174285745Y-131398812D01*
X174285745Y-131636933D01*
X174333370Y-131732182D01*
X174380994Y-131779806D01*
X174476242Y-131827430D01*
X174761988Y-131827430D01*
X174857237Y-131779806D01*
X174904861Y-131732182D01*
X173666630Y-130827320D02*
X173571381Y-130827320D01*
X173476132Y-130874945D01*
X173428508Y-130922569D01*
X173380884Y-131017817D01*
X173333260Y-131208315D01*
X173333260Y-131446436D01*
X173380884Y-131636933D01*
X173428508Y-131732182D01*
X173476132Y-131779806D01*
X173571381Y-131827430D01*
X173666630Y-131827430D01*
X173761878Y-131779806D01*
X173809502Y-131732182D01*
X173857127Y-131636933D01*
X173904751Y-131446436D01*
X173904751Y-131208315D01*
X173857127Y-131017817D01*
X173809502Y-130922569D01*
X173761878Y-130874945D01*
X173666630Y-130827320D01*
X172952265Y-130922569D02*
X172904641Y-130874945D01*
X172809392Y-130827320D01*
X172571271Y-130827320D01*
X172476022Y-130874945D01*
X172428398Y-130922569D01*
X172380774Y-131017817D01*
X172380774Y-131113066D01*
X172428398Y-131255939D01*
X172999890Y-131827430D01*
X172380774Y-131827430D01*
X178952409Y-138419232D02*
X178952409Y-137847767D01*
X178952409Y-138133500D02*
X177952346Y-138133500D01*
X178095212Y-138038255D01*
X178190456Y-137943011D01*
X178238078Y-137847767D01*
X169047059Y-137820132D02*
X168999382Y-137867810D01*
X168951704Y-137963166D01*
X168951704Y-138201555D01*
X168999382Y-138296911D01*
X169047059Y-138344589D01*
X169142415Y-138392267D01*
X169237771Y-138392267D01*
X169380805Y-138344589D01*
X169952940Y-137772454D01*
X169952940Y-138392267D01*
%TO.C,J402*%
X225785855Y-206577320D02*
X225785855Y-207291685D01*
X225833480Y-207434557D01*
X225928728Y-207529806D01*
X226071601Y-207577430D01*
X226166850Y-207577430D01*
X224880994Y-206910690D02*
X224880994Y-207577430D01*
X225119115Y-206529696D02*
X225357237Y-207244060D01*
X224738121Y-207244060D01*
X224166630Y-206577320D02*
X224071381Y-206577320D01*
X223976132Y-206624945D01*
X223928508Y-206672569D01*
X223880884Y-206767817D01*
X223833260Y-206958315D01*
X223833260Y-207196436D01*
X223880884Y-207386933D01*
X223928508Y-207482182D01*
X223976132Y-207529806D01*
X224071381Y-207577430D01*
X224166630Y-207577430D01*
X224261878Y-207529806D01*
X224309502Y-207482182D01*
X224357127Y-207386933D01*
X224404751Y-207196436D01*
X224404751Y-206958315D01*
X224357127Y-206767817D01*
X224309502Y-206672569D01*
X224261878Y-206624945D01*
X224166630Y-206577320D01*
X223452265Y-206672569D02*
X223404641Y-206624945D01*
X223309392Y-206577320D01*
X223071271Y-206577320D01*
X222976022Y-206624945D01*
X222928398Y-206672569D01*
X222880774Y-206767817D01*
X222880774Y-206863066D01*
X222928398Y-207005939D01*
X223499890Y-207577430D01*
X222880774Y-207577430D01*
X219547059Y-213570132D02*
X219499382Y-213617810D01*
X219451704Y-213713166D01*
X219451704Y-213951555D01*
X219499382Y-214046911D01*
X219547059Y-214094589D01*
X219642415Y-214142267D01*
X219737771Y-214142267D01*
X219880805Y-214094589D01*
X220452940Y-213522454D01*
X220452940Y-214142267D01*
X229452409Y-214160732D02*
X229452409Y-213589267D01*
X229452409Y-213875000D02*
X228452346Y-213875000D01*
X228595212Y-213779755D01*
X228690456Y-213684511D01*
X228738078Y-213589267D01*
%TO.C,J102*%
X225785855Y-55077320D02*
X225785855Y-55791685D01*
X225833480Y-55934557D01*
X225928728Y-56029806D01*
X226071601Y-56077430D01*
X226166850Y-56077430D01*
X224785745Y-56077430D02*
X225357237Y-56077430D01*
X225071491Y-56077430D02*
X225071491Y-55077320D01*
X225166740Y-55220193D01*
X225261988Y-55315442D01*
X225357237Y-55363066D01*
X224166630Y-55077320D02*
X224071381Y-55077320D01*
X223976132Y-55124945D01*
X223928508Y-55172569D01*
X223880884Y-55267817D01*
X223833260Y-55458315D01*
X223833260Y-55696436D01*
X223880884Y-55886933D01*
X223928508Y-55982182D01*
X223976132Y-56029806D01*
X224071381Y-56077430D01*
X224166630Y-56077430D01*
X224261878Y-56029806D01*
X224309502Y-55982182D01*
X224357127Y-55886933D01*
X224404751Y-55696436D01*
X224404751Y-55458315D01*
X224357127Y-55267817D01*
X224309502Y-55172569D01*
X224261878Y-55124945D01*
X224166630Y-55077320D01*
X223452265Y-55172569D02*
X223404641Y-55124945D01*
X223309392Y-55077320D01*
X223071271Y-55077320D01*
X222976022Y-55124945D01*
X222928398Y-55172569D01*
X222880774Y-55267817D01*
X222880774Y-55363066D01*
X222928398Y-55505939D01*
X223499890Y-56077430D01*
X222880774Y-56077430D01*
X219547059Y-62070132D02*
X219499382Y-62117810D01*
X219451704Y-62213166D01*
X219451704Y-62451555D01*
X219499382Y-62546911D01*
X219547059Y-62594589D01*
X219642415Y-62642267D01*
X219737771Y-62642267D01*
X219880805Y-62594589D01*
X220452940Y-62022454D01*
X220452940Y-62642267D01*
X229452409Y-62660732D02*
X229452409Y-62089267D01*
X229452409Y-62375000D02*
X228452346Y-62375000D01*
X228595212Y-62279755D01*
X228690456Y-62184511D01*
X228738078Y-62089267D01*
%TO.C,J302*%
X225785855Y-130827320D02*
X225785855Y-131541685D01*
X225833480Y-131684557D01*
X225928728Y-131779806D01*
X226071601Y-131827430D01*
X226166850Y-131827430D01*
X225404861Y-130827320D02*
X224785745Y-130827320D01*
X225119115Y-131208315D01*
X224976242Y-131208315D01*
X224880994Y-131255939D01*
X224833370Y-131303563D01*
X224785745Y-131398812D01*
X224785745Y-131636933D01*
X224833370Y-131732182D01*
X224880994Y-131779806D01*
X224976242Y-131827430D01*
X225261988Y-131827430D01*
X225357237Y-131779806D01*
X225404861Y-131732182D01*
X224166630Y-130827320D02*
X224071381Y-130827320D01*
X223976132Y-130874945D01*
X223928508Y-130922569D01*
X223880884Y-131017817D01*
X223833260Y-131208315D01*
X223833260Y-131446436D01*
X223880884Y-131636933D01*
X223928508Y-131732182D01*
X223976132Y-131779806D01*
X224071381Y-131827430D01*
X224166630Y-131827430D01*
X224261878Y-131779806D01*
X224309502Y-131732182D01*
X224357127Y-131636933D01*
X224404751Y-131446436D01*
X224404751Y-131208315D01*
X224357127Y-131017817D01*
X224309502Y-130922569D01*
X224261878Y-130874945D01*
X224166630Y-130827320D01*
X223452265Y-130922569D02*
X223404641Y-130874945D01*
X223309392Y-130827320D01*
X223071271Y-130827320D01*
X222976022Y-130874945D01*
X222928398Y-130922569D01*
X222880774Y-131017817D01*
X222880774Y-131113066D01*
X222928398Y-131255939D01*
X223499890Y-131827430D01*
X222880774Y-131827430D01*
X219547059Y-137820132D02*
X219499382Y-137867810D01*
X219451704Y-137963166D01*
X219451704Y-138201555D01*
X219499382Y-138296911D01*
X219547059Y-138344589D01*
X219642415Y-138392267D01*
X219737771Y-138392267D01*
X219880805Y-138344589D01*
X220452940Y-137772454D01*
X220452940Y-138392267D01*
X229452409Y-138419232D02*
X229452409Y-137847767D01*
X229452409Y-138133500D02*
X228452346Y-138133500D01*
X228595212Y-138038255D01*
X228690456Y-137943011D01*
X228738078Y-137847767D01*
%TO.C,J902*%
X225785855Y-433827320D02*
X225785855Y-434541685D01*
X225833480Y-434684557D01*
X225928728Y-434779806D01*
X226071601Y-434827430D01*
X226166850Y-434827430D01*
X225261988Y-434827430D02*
X225071491Y-434827430D01*
X224976242Y-434779806D01*
X224928618Y-434732182D01*
X224833370Y-434589309D01*
X224785745Y-434398812D01*
X224785745Y-434017817D01*
X224833370Y-433922569D01*
X224880994Y-433874945D01*
X224976242Y-433827320D01*
X225166740Y-433827320D01*
X225261988Y-433874945D01*
X225309612Y-433922569D01*
X225357237Y-434017817D01*
X225357237Y-434255939D01*
X225309612Y-434351187D01*
X225261988Y-434398812D01*
X225166740Y-434446436D01*
X224976242Y-434446436D01*
X224880994Y-434398812D01*
X224833370Y-434351187D01*
X224785745Y-434255939D01*
X224166630Y-433827320D02*
X224071381Y-433827320D01*
X223976132Y-433874945D01*
X223928508Y-433922569D01*
X223880884Y-434017817D01*
X223833260Y-434208315D01*
X223833260Y-434446436D01*
X223880884Y-434636933D01*
X223928508Y-434732182D01*
X223976132Y-434779806D01*
X224071381Y-434827430D01*
X224166630Y-434827430D01*
X224261878Y-434779806D01*
X224309502Y-434732182D01*
X224357127Y-434636933D01*
X224404751Y-434446436D01*
X224404751Y-434208315D01*
X224357127Y-434017817D01*
X224309502Y-433922569D01*
X224261878Y-433874945D01*
X224166630Y-433827320D01*
X223452265Y-433922569D02*
X223404641Y-433874945D01*
X223309392Y-433827320D01*
X223071271Y-433827320D01*
X222976022Y-433874945D01*
X222928398Y-433922569D01*
X222880774Y-434017817D01*
X222880774Y-434113066D01*
X222928398Y-434255939D01*
X223499890Y-434827430D01*
X222880774Y-434827430D01*
X229452409Y-441285732D02*
X229452409Y-440714267D01*
X229452409Y-441000000D02*
X228452346Y-441000000D01*
X228595212Y-440904755D01*
X228690456Y-440809511D01*
X228738078Y-440714267D01*
X219547059Y-440713932D02*
X219499382Y-440761610D01*
X219451704Y-440856966D01*
X219451704Y-441095355D01*
X219499382Y-441190711D01*
X219547059Y-441238389D01*
X219642415Y-441286067D01*
X219737771Y-441286067D01*
X219880805Y-441238389D01*
X220452940Y-440666254D01*
X220452940Y-441286067D01*
%TO.C,J702*%
X225785855Y-358077320D02*
X225785855Y-358791685D01*
X225833480Y-358934557D01*
X225928728Y-359029806D01*
X226071601Y-359077430D01*
X226166850Y-359077430D01*
X225404861Y-358077320D02*
X224738121Y-358077320D01*
X225166740Y-359077430D01*
X224166630Y-358077320D02*
X224071381Y-358077320D01*
X223976132Y-358124945D01*
X223928508Y-358172569D01*
X223880884Y-358267817D01*
X223833260Y-358458315D01*
X223833260Y-358696436D01*
X223880884Y-358886933D01*
X223928508Y-358982182D01*
X223976132Y-359029806D01*
X224071381Y-359077430D01*
X224166630Y-359077430D01*
X224261878Y-359029806D01*
X224309502Y-358982182D01*
X224357127Y-358886933D01*
X224404751Y-358696436D01*
X224404751Y-358458315D01*
X224357127Y-358267817D01*
X224309502Y-358172569D01*
X224261878Y-358124945D01*
X224166630Y-358077320D01*
X223452265Y-358172569D02*
X223404641Y-358124945D01*
X223309392Y-358077320D01*
X223071271Y-358077320D01*
X222976022Y-358124945D01*
X222928398Y-358172569D01*
X222880774Y-358267817D01*
X222880774Y-358363066D01*
X222928398Y-358505939D01*
X223499890Y-359077430D01*
X222880774Y-359077430D01*
X219547059Y-365070132D02*
X219499382Y-365117810D01*
X219451704Y-365213166D01*
X219451704Y-365451555D01*
X219499382Y-365546911D01*
X219547059Y-365594589D01*
X219642415Y-365642267D01*
X219737771Y-365642267D01*
X219880805Y-365594589D01*
X220452940Y-365022454D01*
X220452940Y-365642267D01*
X229452409Y-365669232D02*
X229452409Y-365097767D01*
X229452409Y-365383500D02*
X228452346Y-365383500D01*
X228595212Y-365288255D01*
X228690456Y-365193011D01*
X228738078Y-365097767D01*
%TO.C,J602*%
X225785855Y-282327320D02*
X225785855Y-283041685D01*
X225833480Y-283184557D01*
X225928728Y-283279806D01*
X226071601Y-283327430D01*
X226166850Y-283327430D01*
X224880994Y-282327320D02*
X225071491Y-282327320D01*
X225166740Y-282374945D01*
X225214364Y-282422569D01*
X225309612Y-282565442D01*
X225357237Y-282755939D01*
X225357237Y-283136933D01*
X225309612Y-283232182D01*
X225261988Y-283279806D01*
X225166740Y-283327430D01*
X224976242Y-283327430D01*
X224880994Y-283279806D01*
X224833370Y-283232182D01*
X224785745Y-283136933D01*
X224785745Y-282898812D01*
X224833370Y-282803563D01*
X224880994Y-282755939D01*
X224976242Y-282708315D01*
X225166740Y-282708315D01*
X225261988Y-282755939D01*
X225309612Y-282803563D01*
X225357237Y-282898812D01*
X224166630Y-282327320D02*
X224071381Y-282327320D01*
X223976132Y-282374945D01*
X223928508Y-282422569D01*
X223880884Y-282517817D01*
X223833260Y-282708315D01*
X223833260Y-282946436D01*
X223880884Y-283136933D01*
X223928508Y-283232182D01*
X223976132Y-283279806D01*
X224071381Y-283327430D01*
X224166630Y-283327430D01*
X224261878Y-283279806D01*
X224309502Y-283232182D01*
X224357127Y-283136933D01*
X224404751Y-282946436D01*
X224404751Y-282708315D01*
X224357127Y-282517817D01*
X224309502Y-282422569D01*
X224261878Y-282374945D01*
X224166630Y-282327320D01*
X223452265Y-282422569D02*
X223404641Y-282374945D01*
X223309392Y-282327320D01*
X223071271Y-282327320D01*
X222976022Y-282374945D01*
X222928398Y-282422569D01*
X222880774Y-282517817D01*
X222880774Y-282613066D01*
X222928398Y-282755939D01*
X223499890Y-283327430D01*
X222880774Y-283327430D01*
X229452409Y-289919232D02*
X229452409Y-289347767D01*
X229452409Y-289633500D02*
X228452346Y-289633500D01*
X228595212Y-289538255D01*
X228690456Y-289443011D01*
X228738078Y-289347767D01*
X219547059Y-289320132D02*
X219499382Y-289367810D01*
X219451704Y-289463166D01*
X219451704Y-289701555D01*
X219499382Y-289796911D01*
X219547059Y-289844589D01*
X219642415Y-289892267D01*
X219737771Y-289892267D01*
X219880805Y-289844589D01*
X220452940Y-289272454D01*
X220452940Y-289892267D01*
%TO.C,J902*%
X175285855Y-433827320D02*
X175285855Y-434541685D01*
X175333480Y-434684557D01*
X175428728Y-434779806D01*
X175571601Y-434827430D01*
X175666850Y-434827430D01*
X174761988Y-434827430D02*
X174571491Y-434827430D01*
X174476242Y-434779806D01*
X174428618Y-434732182D01*
X174333370Y-434589309D01*
X174285745Y-434398812D01*
X174285745Y-434017817D01*
X174333370Y-433922569D01*
X174380994Y-433874945D01*
X174476242Y-433827320D01*
X174666740Y-433827320D01*
X174761988Y-433874945D01*
X174809612Y-433922569D01*
X174857237Y-434017817D01*
X174857237Y-434255939D01*
X174809612Y-434351187D01*
X174761988Y-434398812D01*
X174666740Y-434446436D01*
X174476242Y-434446436D01*
X174380994Y-434398812D01*
X174333370Y-434351187D01*
X174285745Y-434255939D01*
X173666630Y-433827320D02*
X173571381Y-433827320D01*
X173476132Y-433874945D01*
X173428508Y-433922569D01*
X173380884Y-434017817D01*
X173333260Y-434208315D01*
X173333260Y-434446436D01*
X173380884Y-434636933D01*
X173428508Y-434732182D01*
X173476132Y-434779806D01*
X173571381Y-434827430D01*
X173666630Y-434827430D01*
X173761878Y-434779806D01*
X173809502Y-434732182D01*
X173857127Y-434636933D01*
X173904751Y-434446436D01*
X173904751Y-434208315D01*
X173857127Y-434017817D01*
X173809502Y-433922569D01*
X173761878Y-433874945D01*
X173666630Y-433827320D01*
X172952265Y-433922569D02*
X172904641Y-433874945D01*
X172809392Y-433827320D01*
X172571271Y-433827320D01*
X172476022Y-433874945D01*
X172428398Y-433922569D01*
X172380774Y-434017817D01*
X172380774Y-434113066D01*
X172428398Y-434255939D01*
X172999890Y-434827430D01*
X172380774Y-434827430D01*
X169047059Y-440713932D02*
X168999382Y-440761610D01*
X168951704Y-440856966D01*
X168951704Y-441095355D01*
X168999382Y-441190711D01*
X169047059Y-441238389D01*
X169142415Y-441286067D01*
X169237771Y-441286067D01*
X169380805Y-441238389D01*
X169952940Y-440666254D01*
X169952940Y-441286067D01*
X178952409Y-441285732D02*
X178952409Y-440714267D01*
X178952409Y-441000000D02*
X177952346Y-441000000D01*
X178095212Y-440904755D01*
X178190456Y-440809511D01*
X178238078Y-440714267D01*
%TO.C,J702*%
X175285855Y-358077320D02*
X175285855Y-358791685D01*
X175333480Y-358934557D01*
X175428728Y-359029806D01*
X175571601Y-359077430D01*
X175666850Y-359077430D01*
X174904861Y-358077320D02*
X174238121Y-358077320D01*
X174666740Y-359077430D01*
X173666630Y-358077320D02*
X173571381Y-358077320D01*
X173476132Y-358124945D01*
X173428508Y-358172569D01*
X173380884Y-358267817D01*
X173333260Y-358458315D01*
X173333260Y-358696436D01*
X173380884Y-358886933D01*
X173428508Y-358982182D01*
X173476132Y-359029806D01*
X173571381Y-359077430D01*
X173666630Y-359077430D01*
X173761878Y-359029806D01*
X173809502Y-358982182D01*
X173857127Y-358886933D01*
X173904751Y-358696436D01*
X173904751Y-358458315D01*
X173857127Y-358267817D01*
X173809502Y-358172569D01*
X173761878Y-358124945D01*
X173666630Y-358077320D01*
X172952265Y-358172569D02*
X172904641Y-358124945D01*
X172809392Y-358077320D01*
X172571271Y-358077320D01*
X172476022Y-358124945D01*
X172428398Y-358172569D01*
X172380774Y-358267817D01*
X172380774Y-358363066D01*
X172428398Y-358505939D01*
X172999890Y-359077430D01*
X172380774Y-359077430D01*
X178952409Y-365669232D02*
X178952409Y-365097767D01*
X178952409Y-365383500D02*
X177952346Y-365383500D01*
X178095212Y-365288255D01*
X178190456Y-365193011D01*
X178238078Y-365097767D01*
X169047059Y-365070132D02*
X168999382Y-365117810D01*
X168951704Y-365213166D01*
X168951704Y-365451555D01*
X168999382Y-365546911D01*
X169047059Y-365594589D01*
X169142415Y-365642267D01*
X169237771Y-365642267D01*
X169380805Y-365594589D01*
X169952940Y-365022454D01*
X169952940Y-365642267D01*
%TO.C,J602*%
X175285855Y-282327320D02*
X175285855Y-283041685D01*
X175333480Y-283184557D01*
X175428728Y-283279806D01*
X175571601Y-283327430D01*
X175666850Y-283327430D01*
X174380994Y-282327320D02*
X174571491Y-282327320D01*
X174666740Y-282374945D01*
X174714364Y-282422569D01*
X174809612Y-282565442D01*
X174857237Y-282755939D01*
X174857237Y-283136933D01*
X174809612Y-283232182D01*
X174761988Y-283279806D01*
X174666740Y-283327430D01*
X174476242Y-283327430D01*
X174380994Y-283279806D01*
X174333370Y-283232182D01*
X174285745Y-283136933D01*
X174285745Y-282898812D01*
X174333370Y-282803563D01*
X174380994Y-282755939D01*
X174476242Y-282708315D01*
X174666740Y-282708315D01*
X174761988Y-282755939D01*
X174809612Y-282803563D01*
X174857237Y-282898812D01*
X173666630Y-282327320D02*
X173571381Y-282327320D01*
X173476132Y-282374945D01*
X173428508Y-282422569D01*
X173380884Y-282517817D01*
X173333260Y-282708315D01*
X173333260Y-282946436D01*
X173380884Y-283136933D01*
X173428508Y-283232182D01*
X173476132Y-283279806D01*
X173571381Y-283327430D01*
X173666630Y-283327430D01*
X173761878Y-283279806D01*
X173809502Y-283232182D01*
X173857127Y-283136933D01*
X173904751Y-282946436D01*
X173904751Y-282708315D01*
X173857127Y-282517817D01*
X173809502Y-282422569D01*
X173761878Y-282374945D01*
X173666630Y-282327320D01*
X172952265Y-282422569D02*
X172904641Y-282374945D01*
X172809392Y-282327320D01*
X172571271Y-282327320D01*
X172476022Y-282374945D01*
X172428398Y-282422569D01*
X172380774Y-282517817D01*
X172380774Y-282613066D01*
X172428398Y-282755939D01*
X172999890Y-283327430D01*
X172380774Y-283327430D01*
X169047059Y-289320132D02*
X168999382Y-289367810D01*
X168951704Y-289463166D01*
X168951704Y-289701555D01*
X168999382Y-289796911D01*
X169047059Y-289844589D01*
X169142415Y-289892267D01*
X169237771Y-289892267D01*
X169380805Y-289844589D01*
X169952940Y-289272454D01*
X169952940Y-289892267D01*
X178952409Y-289919232D02*
X178952409Y-289347767D01*
X178952409Y-289633500D02*
X177952346Y-289633500D01*
X178095212Y-289538255D01*
X178190456Y-289443011D01*
X178238078Y-289347767D01*
%TO.C,J402*%
X124785855Y-206577320D02*
X124785855Y-207291685D01*
X124833480Y-207434557D01*
X124928728Y-207529806D01*
X125071601Y-207577430D01*
X125166850Y-207577430D01*
X123880994Y-206910690D02*
X123880994Y-207577430D01*
X124119115Y-206529696D02*
X124357237Y-207244060D01*
X123738121Y-207244060D01*
X123166630Y-206577320D02*
X123071381Y-206577320D01*
X122976132Y-206624945D01*
X122928508Y-206672569D01*
X122880884Y-206767817D01*
X122833260Y-206958315D01*
X122833260Y-207196436D01*
X122880884Y-207386933D01*
X122928508Y-207482182D01*
X122976132Y-207529806D01*
X123071381Y-207577430D01*
X123166630Y-207577430D01*
X123261878Y-207529806D01*
X123309502Y-207482182D01*
X123357127Y-207386933D01*
X123404751Y-207196436D01*
X123404751Y-206958315D01*
X123357127Y-206767817D01*
X123309502Y-206672569D01*
X123261878Y-206624945D01*
X123166630Y-206577320D01*
X122452265Y-206672569D02*
X122404641Y-206624945D01*
X122309392Y-206577320D01*
X122071271Y-206577320D01*
X121976022Y-206624945D01*
X121928398Y-206672569D01*
X121880774Y-206767817D01*
X121880774Y-206863066D01*
X121928398Y-207005939D01*
X122499890Y-207577430D01*
X121880774Y-207577430D01*
X128452409Y-214160732D02*
X128452409Y-213589267D01*
X128452409Y-213875000D02*
X127452346Y-213875000D01*
X127595212Y-213779755D01*
X127690456Y-213684511D01*
X127738078Y-213589267D01*
X118547059Y-213570132D02*
X118499382Y-213617810D01*
X118451704Y-213713166D01*
X118451704Y-213951555D01*
X118499382Y-214046911D01*
X118547059Y-214094589D01*
X118642415Y-214142267D01*
X118737771Y-214142267D01*
X118880805Y-214094589D01*
X119452940Y-213522454D01*
X119452940Y-214142267D01*
%TO.C,J102*%
X124785855Y-55077320D02*
X124785855Y-55791685D01*
X124833480Y-55934557D01*
X124928728Y-56029806D01*
X125071601Y-56077430D01*
X125166850Y-56077430D01*
X123785745Y-56077430D02*
X124357237Y-56077430D01*
X124071491Y-56077430D02*
X124071491Y-55077320D01*
X124166740Y-55220193D01*
X124261988Y-55315442D01*
X124357237Y-55363066D01*
X123166630Y-55077320D02*
X123071381Y-55077320D01*
X122976132Y-55124945D01*
X122928508Y-55172569D01*
X122880884Y-55267817D01*
X122833260Y-55458315D01*
X122833260Y-55696436D01*
X122880884Y-55886933D01*
X122928508Y-55982182D01*
X122976132Y-56029806D01*
X123071381Y-56077430D01*
X123166630Y-56077430D01*
X123261878Y-56029806D01*
X123309502Y-55982182D01*
X123357127Y-55886933D01*
X123404751Y-55696436D01*
X123404751Y-55458315D01*
X123357127Y-55267817D01*
X123309502Y-55172569D01*
X123261878Y-55124945D01*
X123166630Y-55077320D01*
X122452265Y-55172569D02*
X122404641Y-55124945D01*
X122309392Y-55077320D01*
X122071271Y-55077320D01*
X121976022Y-55124945D01*
X121928398Y-55172569D01*
X121880774Y-55267817D01*
X121880774Y-55363066D01*
X121928398Y-55505939D01*
X122499890Y-56077430D01*
X121880774Y-56077430D01*
X128452409Y-62660732D02*
X128452409Y-62089267D01*
X128452409Y-62375000D02*
X127452346Y-62375000D01*
X127595212Y-62279755D01*
X127690456Y-62184511D01*
X127738078Y-62089267D01*
X118547059Y-62070132D02*
X118499382Y-62117810D01*
X118451704Y-62213166D01*
X118451704Y-62451555D01*
X118499382Y-62546911D01*
X118547059Y-62594589D01*
X118642415Y-62642267D01*
X118737771Y-62642267D01*
X118880805Y-62594589D01*
X119452940Y-62022454D01*
X119452940Y-62642267D01*
%TO.C,J302*%
X124785855Y-130827320D02*
X124785855Y-131541685D01*
X124833480Y-131684557D01*
X124928728Y-131779806D01*
X125071601Y-131827430D01*
X125166850Y-131827430D01*
X124404861Y-130827320D02*
X123785745Y-130827320D01*
X124119115Y-131208315D01*
X123976242Y-131208315D01*
X123880994Y-131255939D01*
X123833370Y-131303563D01*
X123785745Y-131398812D01*
X123785745Y-131636933D01*
X123833370Y-131732182D01*
X123880994Y-131779806D01*
X123976242Y-131827430D01*
X124261988Y-131827430D01*
X124357237Y-131779806D01*
X124404861Y-131732182D01*
X123166630Y-130827320D02*
X123071381Y-130827320D01*
X122976132Y-130874945D01*
X122928508Y-130922569D01*
X122880884Y-131017817D01*
X122833260Y-131208315D01*
X122833260Y-131446436D01*
X122880884Y-131636933D01*
X122928508Y-131732182D01*
X122976132Y-131779806D01*
X123071381Y-131827430D01*
X123166630Y-131827430D01*
X123261878Y-131779806D01*
X123309502Y-131732182D01*
X123357127Y-131636933D01*
X123404751Y-131446436D01*
X123404751Y-131208315D01*
X123357127Y-131017817D01*
X123309502Y-130922569D01*
X123261878Y-130874945D01*
X123166630Y-130827320D01*
X122452265Y-130922569D02*
X122404641Y-130874945D01*
X122309392Y-130827320D01*
X122071271Y-130827320D01*
X121976022Y-130874945D01*
X121928398Y-130922569D01*
X121880774Y-131017817D01*
X121880774Y-131113066D01*
X121928398Y-131255939D01*
X122499890Y-131827430D01*
X121880774Y-131827430D01*
X128452409Y-138419232D02*
X128452409Y-137847767D01*
X128452409Y-138133500D02*
X127452346Y-138133500D01*
X127595212Y-138038255D01*
X127690456Y-137943011D01*
X127738078Y-137847767D01*
X118547059Y-137820132D02*
X118499382Y-137867810D01*
X118451704Y-137963166D01*
X118451704Y-138201555D01*
X118499382Y-138296911D01*
X118547059Y-138344589D01*
X118642415Y-138392267D01*
X118737771Y-138392267D01*
X118880805Y-138344589D01*
X119452940Y-137772454D01*
X119452940Y-138392267D01*
%TO.C,J902*%
X124785855Y-433827320D02*
X124785855Y-434541685D01*
X124833480Y-434684557D01*
X124928728Y-434779806D01*
X125071601Y-434827430D01*
X125166850Y-434827430D01*
X124261988Y-434827430D02*
X124071491Y-434827430D01*
X123976242Y-434779806D01*
X123928618Y-434732182D01*
X123833370Y-434589309D01*
X123785745Y-434398812D01*
X123785745Y-434017817D01*
X123833370Y-433922569D01*
X123880994Y-433874945D01*
X123976242Y-433827320D01*
X124166740Y-433827320D01*
X124261988Y-433874945D01*
X124309612Y-433922569D01*
X124357237Y-434017817D01*
X124357237Y-434255939D01*
X124309612Y-434351187D01*
X124261988Y-434398812D01*
X124166740Y-434446436D01*
X123976242Y-434446436D01*
X123880994Y-434398812D01*
X123833370Y-434351187D01*
X123785745Y-434255939D01*
X123166630Y-433827320D02*
X123071381Y-433827320D01*
X122976132Y-433874945D01*
X122928508Y-433922569D01*
X122880884Y-434017817D01*
X122833260Y-434208315D01*
X122833260Y-434446436D01*
X122880884Y-434636933D01*
X122928508Y-434732182D01*
X122976132Y-434779806D01*
X123071381Y-434827430D01*
X123166630Y-434827430D01*
X123261878Y-434779806D01*
X123309502Y-434732182D01*
X123357127Y-434636933D01*
X123404751Y-434446436D01*
X123404751Y-434208315D01*
X123357127Y-434017817D01*
X123309502Y-433922569D01*
X123261878Y-433874945D01*
X123166630Y-433827320D01*
X122452265Y-433922569D02*
X122404641Y-433874945D01*
X122309392Y-433827320D01*
X122071271Y-433827320D01*
X121976022Y-433874945D01*
X121928398Y-433922569D01*
X121880774Y-434017817D01*
X121880774Y-434113066D01*
X121928398Y-434255939D01*
X122499890Y-434827430D01*
X121880774Y-434827430D01*
X118547059Y-440713932D02*
X118499382Y-440761610D01*
X118451704Y-440856966D01*
X118451704Y-441095355D01*
X118499382Y-441190711D01*
X118547059Y-441238389D01*
X118642415Y-441286067D01*
X118737771Y-441286067D01*
X118880805Y-441238389D01*
X119452940Y-440666254D01*
X119452940Y-441286067D01*
X128452409Y-441285732D02*
X128452409Y-440714267D01*
X128452409Y-441000000D02*
X127452346Y-441000000D01*
X127595212Y-440904755D01*
X127690456Y-440809511D01*
X127738078Y-440714267D01*
%TO.C,J702*%
X124785855Y-358077320D02*
X124785855Y-358791685D01*
X124833480Y-358934557D01*
X124928728Y-359029806D01*
X125071601Y-359077430D01*
X125166850Y-359077430D01*
X124404861Y-358077320D02*
X123738121Y-358077320D01*
X124166740Y-359077430D01*
X123166630Y-358077320D02*
X123071381Y-358077320D01*
X122976132Y-358124945D01*
X122928508Y-358172569D01*
X122880884Y-358267817D01*
X122833260Y-358458315D01*
X122833260Y-358696436D01*
X122880884Y-358886933D01*
X122928508Y-358982182D01*
X122976132Y-359029806D01*
X123071381Y-359077430D01*
X123166630Y-359077430D01*
X123261878Y-359029806D01*
X123309502Y-358982182D01*
X123357127Y-358886933D01*
X123404751Y-358696436D01*
X123404751Y-358458315D01*
X123357127Y-358267817D01*
X123309502Y-358172569D01*
X123261878Y-358124945D01*
X123166630Y-358077320D01*
X122452265Y-358172569D02*
X122404641Y-358124945D01*
X122309392Y-358077320D01*
X122071271Y-358077320D01*
X121976022Y-358124945D01*
X121928398Y-358172569D01*
X121880774Y-358267817D01*
X121880774Y-358363066D01*
X121928398Y-358505939D01*
X122499890Y-359077430D01*
X121880774Y-359077430D01*
X128452409Y-365669232D02*
X128452409Y-365097767D01*
X128452409Y-365383500D02*
X127452346Y-365383500D01*
X127595212Y-365288255D01*
X127690456Y-365193011D01*
X127738078Y-365097767D01*
X118547059Y-365070132D02*
X118499382Y-365117810D01*
X118451704Y-365213166D01*
X118451704Y-365451555D01*
X118499382Y-365546911D01*
X118547059Y-365594589D01*
X118642415Y-365642267D01*
X118737771Y-365642267D01*
X118880805Y-365594589D01*
X119452940Y-365022454D01*
X119452940Y-365642267D01*
%TO.C,J602*%
X124785855Y-282327320D02*
X124785855Y-283041685D01*
X124833480Y-283184557D01*
X124928728Y-283279806D01*
X125071601Y-283327430D01*
X125166850Y-283327430D01*
X123880994Y-282327320D02*
X124071491Y-282327320D01*
X124166740Y-282374945D01*
X124214364Y-282422569D01*
X124309612Y-282565442D01*
X124357237Y-282755939D01*
X124357237Y-283136933D01*
X124309612Y-283232182D01*
X124261988Y-283279806D01*
X124166740Y-283327430D01*
X123976242Y-283327430D01*
X123880994Y-283279806D01*
X123833370Y-283232182D01*
X123785745Y-283136933D01*
X123785745Y-282898812D01*
X123833370Y-282803563D01*
X123880994Y-282755939D01*
X123976242Y-282708315D01*
X124166740Y-282708315D01*
X124261988Y-282755939D01*
X124309612Y-282803563D01*
X124357237Y-282898812D01*
X123166630Y-282327320D02*
X123071381Y-282327320D01*
X122976132Y-282374945D01*
X122928508Y-282422569D01*
X122880884Y-282517817D01*
X122833260Y-282708315D01*
X122833260Y-282946436D01*
X122880884Y-283136933D01*
X122928508Y-283232182D01*
X122976132Y-283279806D01*
X123071381Y-283327430D01*
X123166630Y-283327430D01*
X123261878Y-283279806D01*
X123309502Y-283232182D01*
X123357127Y-283136933D01*
X123404751Y-282946436D01*
X123404751Y-282708315D01*
X123357127Y-282517817D01*
X123309502Y-282422569D01*
X123261878Y-282374945D01*
X123166630Y-282327320D01*
X122452265Y-282422569D02*
X122404641Y-282374945D01*
X122309392Y-282327320D01*
X122071271Y-282327320D01*
X121976022Y-282374945D01*
X121928398Y-282422569D01*
X121880774Y-282517817D01*
X121880774Y-282613066D01*
X121928398Y-282755939D01*
X122499890Y-283327430D01*
X121880774Y-283327430D01*
X118547059Y-289320132D02*
X118499382Y-289367810D01*
X118451704Y-289463166D01*
X118451704Y-289701555D01*
X118499382Y-289796911D01*
X118547059Y-289844589D01*
X118642415Y-289892267D01*
X118737771Y-289892267D01*
X118880805Y-289844589D01*
X119452940Y-289272454D01*
X119452940Y-289892267D01*
X128452409Y-289919232D02*
X128452409Y-289347767D01*
X128452409Y-289633500D02*
X127452346Y-289633500D01*
X127595212Y-289538255D01*
X127690456Y-289443011D01*
X127738078Y-289347767D01*
%TO.C,J402*%
X74285855Y-206577320D02*
X74285855Y-207291685D01*
X74333480Y-207434557D01*
X74428728Y-207529806D01*
X74571601Y-207577430D01*
X74666850Y-207577430D01*
X73380994Y-206910690D02*
X73380994Y-207577430D01*
X73619115Y-206529696D02*
X73857237Y-207244060D01*
X73238121Y-207244060D01*
X72666630Y-206577320D02*
X72571381Y-206577320D01*
X72476132Y-206624945D01*
X72428508Y-206672569D01*
X72380884Y-206767817D01*
X72333260Y-206958315D01*
X72333260Y-207196436D01*
X72380884Y-207386933D01*
X72428508Y-207482182D01*
X72476132Y-207529806D01*
X72571381Y-207577430D01*
X72666630Y-207577430D01*
X72761878Y-207529806D01*
X72809502Y-207482182D01*
X72857127Y-207386933D01*
X72904751Y-207196436D01*
X72904751Y-206958315D01*
X72857127Y-206767817D01*
X72809502Y-206672569D01*
X72761878Y-206624945D01*
X72666630Y-206577320D01*
X71952265Y-206672569D02*
X71904641Y-206624945D01*
X71809392Y-206577320D01*
X71571271Y-206577320D01*
X71476022Y-206624945D01*
X71428398Y-206672569D01*
X71380774Y-206767817D01*
X71380774Y-206863066D01*
X71428398Y-207005939D01*
X71999890Y-207577430D01*
X71380774Y-207577430D01*
X68047059Y-213570132D02*
X67999382Y-213617810D01*
X67951704Y-213713166D01*
X67951704Y-213951555D01*
X67999382Y-214046911D01*
X68047059Y-214094589D01*
X68142415Y-214142267D01*
X68237771Y-214142267D01*
X68380805Y-214094589D01*
X68952940Y-213522454D01*
X68952940Y-214142267D01*
X77952409Y-214160732D02*
X77952409Y-213589267D01*
X77952409Y-213875000D02*
X76952346Y-213875000D01*
X77095212Y-213779755D01*
X77190456Y-213684511D01*
X77238078Y-213589267D01*
%TO.C,J302*%
X74285855Y-130827320D02*
X74285855Y-131541685D01*
X74333480Y-131684557D01*
X74428728Y-131779806D01*
X74571601Y-131827430D01*
X74666850Y-131827430D01*
X73904861Y-130827320D02*
X73285745Y-130827320D01*
X73619115Y-131208315D01*
X73476242Y-131208315D01*
X73380994Y-131255939D01*
X73333370Y-131303563D01*
X73285745Y-131398812D01*
X73285745Y-131636933D01*
X73333370Y-131732182D01*
X73380994Y-131779806D01*
X73476242Y-131827430D01*
X73761988Y-131827430D01*
X73857237Y-131779806D01*
X73904861Y-131732182D01*
X72666630Y-130827320D02*
X72571381Y-130827320D01*
X72476132Y-130874945D01*
X72428508Y-130922569D01*
X72380884Y-131017817D01*
X72333260Y-131208315D01*
X72333260Y-131446436D01*
X72380884Y-131636933D01*
X72428508Y-131732182D01*
X72476132Y-131779806D01*
X72571381Y-131827430D01*
X72666630Y-131827430D01*
X72761878Y-131779806D01*
X72809502Y-131732182D01*
X72857127Y-131636933D01*
X72904751Y-131446436D01*
X72904751Y-131208315D01*
X72857127Y-131017817D01*
X72809502Y-130922569D01*
X72761878Y-130874945D01*
X72666630Y-130827320D01*
X71952265Y-130922569D02*
X71904641Y-130874945D01*
X71809392Y-130827320D01*
X71571271Y-130827320D01*
X71476022Y-130874945D01*
X71428398Y-130922569D01*
X71380774Y-131017817D01*
X71380774Y-131113066D01*
X71428398Y-131255939D01*
X71999890Y-131827430D01*
X71380774Y-131827430D01*
X68047059Y-137820132D02*
X67999382Y-137867810D01*
X67951704Y-137963166D01*
X67951704Y-138201555D01*
X67999382Y-138296911D01*
X68047059Y-138344589D01*
X68142415Y-138392267D01*
X68237771Y-138392267D01*
X68380805Y-138344589D01*
X68952940Y-137772454D01*
X68952940Y-138392267D01*
X77952409Y-138419232D02*
X77952409Y-137847767D01*
X77952409Y-138133500D02*
X76952346Y-138133500D01*
X77095212Y-138038255D01*
X77190456Y-137943011D01*
X77238078Y-137847767D01*
%TO.C,J102*%
X74285855Y-55077320D02*
X74285855Y-55791685D01*
X74333480Y-55934557D01*
X74428728Y-56029806D01*
X74571601Y-56077430D01*
X74666850Y-56077430D01*
X73285745Y-56077430D02*
X73857237Y-56077430D01*
X73571491Y-56077430D02*
X73571491Y-55077320D01*
X73666740Y-55220193D01*
X73761988Y-55315442D01*
X73857237Y-55363066D01*
X72666630Y-55077320D02*
X72571381Y-55077320D01*
X72476132Y-55124945D01*
X72428508Y-55172569D01*
X72380884Y-55267817D01*
X72333260Y-55458315D01*
X72333260Y-55696436D01*
X72380884Y-55886933D01*
X72428508Y-55982182D01*
X72476132Y-56029806D01*
X72571381Y-56077430D01*
X72666630Y-56077430D01*
X72761878Y-56029806D01*
X72809502Y-55982182D01*
X72857127Y-55886933D01*
X72904751Y-55696436D01*
X72904751Y-55458315D01*
X72857127Y-55267817D01*
X72809502Y-55172569D01*
X72761878Y-55124945D01*
X72666630Y-55077320D01*
X71952265Y-55172569D02*
X71904641Y-55124945D01*
X71809392Y-55077320D01*
X71571271Y-55077320D01*
X71476022Y-55124945D01*
X71428398Y-55172569D01*
X71380774Y-55267817D01*
X71380774Y-55363066D01*
X71428398Y-55505939D01*
X71999890Y-56077430D01*
X71380774Y-56077430D01*
X68047059Y-62070132D02*
X67999382Y-62117810D01*
X67951704Y-62213166D01*
X67951704Y-62451555D01*
X67999382Y-62546911D01*
X68047059Y-62594589D01*
X68142415Y-62642267D01*
X68237771Y-62642267D01*
X68380805Y-62594589D01*
X68952940Y-62022454D01*
X68952940Y-62642267D01*
X77952409Y-62660732D02*
X77952409Y-62089267D01*
X77952409Y-62375000D02*
X76952346Y-62375000D01*
X77095212Y-62279755D01*
X77190456Y-62184511D01*
X77238078Y-62089267D01*
%TO.C,J602*%
X74285855Y-282327320D02*
X74285855Y-283041685D01*
X74333480Y-283184557D01*
X74428728Y-283279806D01*
X74571601Y-283327430D01*
X74666850Y-283327430D01*
X73380994Y-282327320D02*
X73571491Y-282327320D01*
X73666740Y-282374945D01*
X73714364Y-282422569D01*
X73809612Y-282565442D01*
X73857237Y-282755939D01*
X73857237Y-283136933D01*
X73809612Y-283232182D01*
X73761988Y-283279806D01*
X73666740Y-283327430D01*
X73476242Y-283327430D01*
X73380994Y-283279806D01*
X73333370Y-283232182D01*
X73285745Y-283136933D01*
X73285745Y-282898812D01*
X73333370Y-282803563D01*
X73380994Y-282755939D01*
X73476242Y-282708315D01*
X73666740Y-282708315D01*
X73761988Y-282755939D01*
X73809612Y-282803563D01*
X73857237Y-282898812D01*
X72666630Y-282327320D02*
X72571381Y-282327320D01*
X72476132Y-282374945D01*
X72428508Y-282422569D01*
X72380884Y-282517817D01*
X72333260Y-282708315D01*
X72333260Y-282946436D01*
X72380884Y-283136933D01*
X72428508Y-283232182D01*
X72476132Y-283279806D01*
X72571381Y-283327430D01*
X72666630Y-283327430D01*
X72761878Y-283279806D01*
X72809502Y-283232182D01*
X72857127Y-283136933D01*
X72904751Y-282946436D01*
X72904751Y-282708315D01*
X72857127Y-282517817D01*
X72809502Y-282422569D01*
X72761878Y-282374945D01*
X72666630Y-282327320D01*
X71952265Y-282422569D02*
X71904641Y-282374945D01*
X71809392Y-282327320D01*
X71571271Y-282327320D01*
X71476022Y-282374945D01*
X71428398Y-282422569D01*
X71380774Y-282517817D01*
X71380774Y-282613066D01*
X71428398Y-282755939D01*
X71999890Y-283327430D01*
X71380774Y-283327430D01*
X77952409Y-289919232D02*
X77952409Y-289347767D01*
X77952409Y-289633500D02*
X76952346Y-289633500D01*
X77095212Y-289538255D01*
X77190456Y-289443011D01*
X77238078Y-289347767D01*
X68047059Y-289320132D02*
X67999382Y-289367810D01*
X67951704Y-289463166D01*
X67951704Y-289701555D01*
X67999382Y-289796911D01*
X68047059Y-289844589D01*
X68142415Y-289892267D01*
X68237771Y-289892267D01*
X68380805Y-289844589D01*
X68952940Y-289272454D01*
X68952940Y-289892267D01*
%TO.C,J702*%
X74285855Y-358077320D02*
X74285855Y-358791685D01*
X74333480Y-358934557D01*
X74428728Y-359029806D01*
X74571601Y-359077430D01*
X74666850Y-359077430D01*
X73904861Y-358077320D02*
X73238121Y-358077320D01*
X73666740Y-359077430D01*
X72666630Y-358077320D02*
X72571381Y-358077320D01*
X72476132Y-358124945D01*
X72428508Y-358172569D01*
X72380884Y-358267817D01*
X72333260Y-358458315D01*
X72333260Y-358696436D01*
X72380884Y-358886933D01*
X72428508Y-358982182D01*
X72476132Y-359029806D01*
X72571381Y-359077430D01*
X72666630Y-359077430D01*
X72761878Y-359029806D01*
X72809502Y-358982182D01*
X72857127Y-358886933D01*
X72904751Y-358696436D01*
X72904751Y-358458315D01*
X72857127Y-358267817D01*
X72809502Y-358172569D01*
X72761878Y-358124945D01*
X72666630Y-358077320D01*
X71952265Y-358172569D02*
X71904641Y-358124945D01*
X71809392Y-358077320D01*
X71571271Y-358077320D01*
X71476022Y-358124945D01*
X71428398Y-358172569D01*
X71380774Y-358267817D01*
X71380774Y-358363066D01*
X71428398Y-358505939D01*
X71999890Y-359077430D01*
X71380774Y-359077430D01*
X68047059Y-365070132D02*
X67999382Y-365117810D01*
X67951704Y-365213166D01*
X67951704Y-365451555D01*
X67999382Y-365546911D01*
X68047059Y-365594589D01*
X68142415Y-365642267D01*
X68237771Y-365642267D01*
X68380805Y-365594589D01*
X68952940Y-365022454D01*
X68952940Y-365642267D01*
X77952409Y-365669232D02*
X77952409Y-365097767D01*
X77952409Y-365383500D02*
X76952346Y-365383500D01*
X77095212Y-365288255D01*
X77190456Y-365193011D01*
X77238078Y-365097767D01*
%TO.C,J902*%
X74285855Y-433827320D02*
X74285855Y-434541685D01*
X74333480Y-434684557D01*
X74428728Y-434779806D01*
X74571601Y-434827430D01*
X74666850Y-434827430D01*
X73761988Y-434827430D02*
X73571491Y-434827430D01*
X73476242Y-434779806D01*
X73428618Y-434732182D01*
X73333370Y-434589309D01*
X73285745Y-434398812D01*
X73285745Y-434017817D01*
X73333370Y-433922569D01*
X73380994Y-433874945D01*
X73476242Y-433827320D01*
X73666740Y-433827320D01*
X73761988Y-433874945D01*
X73809612Y-433922569D01*
X73857237Y-434017817D01*
X73857237Y-434255939D01*
X73809612Y-434351187D01*
X73761988Y-434398812D01*
X73666740Y-434446436D01*
X73476242Y-434446436D01*
X73380994Y-434398812D01*
X73333370Y-434351187D01*
X73285745Y-434255939D01*
X72666630Y-433827320D02*
X72571381Y-433827320D01*
X72476132Y-433874945D01*
X72428508Y-433922569D01*
X72380884Y-434017817D01*
X72333260Y-434208315D01*
X72333260Y-434446436D01*
X72380884Y-434636933D01*
X72428508Y-434732182D01*
X72476132Y-434779806D01*
X72571381Y-434827430D01*
X72666630Y-434827430D01*
X72761878Y-434779806D01*
X72809502Y-434732182D01*
X72857127Y-434636933D01*
X72904751Y-434446436D01*
X72904751Y-434208315D01*
X72857127Y-434017817D01*
X72809502Y-433922569D01*
X72761878Y-433874945D01*
X72666630Y-433827320D01*
X71952265Y-433922569D02*
X71904641Y-433874945D01*
X71809392Y-433827320D01*
X71571271Y-433827320D01*
X71476022Y-433874945D01*
X71428398Y-433922569D01*
X71380774Y-434017817D01*
X71380774Y-434113066D01*
X71428398Y-434255939D01*
X71999890Y-434827430D01*
X71380774Y-434827430D01*
X77952409Y-441285732D02*
X77952409Y-440714267D01*
X77952409Y-441000000D02*
X76952346Y-441000000D01*
X77095212Y-440904755D01*
X77190456Y-440809511D01*
X77238078Y-440714267D01*
X68047059Y-440713932D02*
X67999382Y-440761610D01*
X67951704Y-440856966D01*
X67951704Y-441095355D01*
X67999382Y-441190711D01*
X68047059Y-441238389D01*
X68142415Y-441286067D01*
X68237771Y-441286067D01*
X68380805Y-441238389D01*
X68952940Y-440666254D01*
X68952940Y-441286067D01*
%TD*%
M02*
