M48
; DRILL file {KiCad (5.1.9-0-10_14)} date Tuesday, June 01, 2021 at 11:49:15 AM
; FORMAT={-:-/ absolute / inch / decimal}
; #@! TF.CreationDate,2021-06-01T11:49:15-04:00
; #@! TF.GenerationSoftware,Kicad,Pcbnew,(5.1.9-0-10_14)
FMAT,2
INCH
T1C0.0120
T2C0.0157
T3C0.0571
%
G90
G05
T1
X5.0205Y-3.4457
X5.0215Y-9.4102
X5.0215Y-15.3748
X5.022Y-2.2642
X5.0226Y-8.2283
X5.023Y-14.1933
X5.024Y-2.3035
X5.024Y-6.2012
X5.024Y-6.2406
X5.024Y-6.3193
X5.024Y-6.3587
X5.024Y-6.4374
X5.024Y-6.4768
X5.024Y-6.5555
X5.024Y-6.5949
X5.024Y-6.6736
X5.024Y-6.713
X5.024Y-6.7917
X5.024Y-6.8311
X5.024Y-6.9098
X5.024Y-6.9492
X5.024Y-7.028
X5.024Y-7.0673
X5.024Y-7.1461
X5.024Y-7.1854
X5.024Y-7.2642
X5.024Y-7.3035
X5.024Y-7.3823
X5.024Y-7.4217
X5.0244Y-2.3827
X5.0244Y-2.422
X5.0244Y-2.5008
X5.0244Y-2.5402
X5.0244Y-2.6189
X5.0244Y-2.6583
X5.0244Y-2.737
X5.0244Y-2.7764
X5.0244Y-2.8551
X5.0244Y-2.8945
X5.0244Y-2.9732
X5.0244Y-3.0126
X5.0244Y-3.0913
X5.0244Y-3.1307
X5.0244Y-3.2094
X5.0244Y-3.2488
X5.0244Y-3.3276
X5.0244Y-3.3669
X5.025Y-8.2681
X5.025Y-12.1657
X5.025Y-12.2051
X5.025Y-12.2839
X5.025Y-12.3232
X5.025Y-12.402
X5.025Y-12.4413
X5.025Y-12.5201
X5.025Y-12.5594
X5.025Y-12.6382
X5.025Y-12.6776
X5.025Y-12.7563
X5.025Y-12.7957
X5.025Y-12.8744
X5.025Y-12.9138
X5.025Y-12.9925
X5.025Y-13.0319
X5.025Y-13.1106
X5.025Y-13.15
X5.025Y-13.2287
X5.025Y-13.2681
X5.025Y-13.3469
X5.025Y-13.3862
X5.025Y-14.2327
X5.025Y-18.1303
X5.025Y-18.1697
X5.025Y-18.2484
X5.025Y-18.2878
X5.025Y-18.3665
X5.025Y-18.4059
X5.025Y-18.4846
X5.025Y-18.524
X5.025Y-18.6028
X5.025Y-18.6421
X5.025Y-18.7209
X5.025Y-18.7602
X5.025Y-18.839
X5.025Y-18.8783
X5.025Y-18.9571
X5.025Y-18.9965
X5.025Y-19.0752
X5.025Y-19.1146
X5.025Y-19.1933
X5.025Y-19.2327
X5.025Y-19.3114
X5.025Y-19.3508
X5.0254Y-8.3472
X5.0254Y-8.3866
X5.0254Y-8.4654
X5.0254Y-8.5047
X5.0254Y-8.5835
X5.0254Y-8.6228
X5.0254Y-8.7016
X5.0254Y-8.7409
X5.0254Y-8.8197
X5.0254Y-8.8591
X5.0254Y-8.9378
X5.0254Y-8.9772
X5.0254Y-9.0559
X5.0254Y-9.0953
X5.0254Y-9.174
X5.0254Y-9.2134
X5.0254Y-9.2921
X5.0254Y-9.3315
X5.0254Y-14.3118
X5.0254Y-14.3512
X5.0254Y-14.4299
X5.0254Y-14.4693
X5.0254Y-14.548
X5.0254Y-14.5874
X5.0254Y-14.6661
X5.0254Y-14.7055
X5.0254Y-14.7843
X5.0254Y-14.8236
X5.0254Y-14.9024
X5.0254Y-14.9417
X5.0254Y-15.0205
X5.0254Y-15.0598
X5.0254Y-15.1386
X5.0254Y-15.178
X5.0254Y-15.2567
X5.0254Y-15.2961
X5.0307Y-4.2134
X5.0307Y-4.2921
X5.0307Y-4.3315
X5.0307Y-4.4102
X5.0307Y-4.4496
X5.0307Y-4.5283
X5.0307Y-4.5677
X5.0307Y-4.6465
X5.0307Y-4.6858
X5.0307Y-4.7646
X5.0307Y-4.8039
X5.0307Y-4.8827
X5.0307Y-4.922
X5.0307Y-5.0008
X5.0307Y-5.0402
X5.0307Y-5.1189
X5.0307Y-5.1583
X5.0307Y-5.237
X5.0307Y-5.2764
X5.0307Y-5.3551
X5.0307Y-5.3945
X5.0317Y-10.178
X5.0317Y-10.2567
X5.0317Y-10.2961
X5.0317Y-10.3748
X5.0317Y-10.4142
X5.0317Y-10.4929
X5.0317Y-10.5323
X5.0317Y-10.611
X5.0317Y-10.6504
X5.0317Y-10.7291
X5.0317Y-10.7685
X5.0317Y-10.8472
X5.0317Y-10.8866
X5.0317Y-10.9654
X5.0317Y-11.0047
X5.0317Y-11.0835
X5.0317Y-11.1228
X5.0317Y-11.2016
X5.0317Y-11.2409
X5.0317Y-11.3197
X5.0317Y-11.3591
X5.0317Y-16.1425
X5.0317Y-16.2213
X5.0317Y-16.2606
X5.0317Y-16.3394
X5.0317Y-16.3787
X5.0317Y-16.4575
X5.0317Y-16.4969
X5.0317Y-16.5756
X5.0317Y-16.615
X5.0317Y-16.6937
X5.0317Y-16.7331
X5.0317Y-16.8118
X5.0317Y-16.8512
X5.0317Y-16.9299
X5.0317Y-16.9693
X5.0317Y-17.048
X5.0317Y-17.0874
X5.0317Y-17.1661
X5.0317Y-17.2055
X5.0317Y-17.2843
X5.0317Y-17.3236
X5.2665Y-2.4732
X5.2665Y-2.5047
X5.2665Y-2.5677
X5.2665Y-2.5992
X5.2665Y-2.6622
X5.2665Y-2.6937
X5.2665Y-2.7882
X5.2665Y-2.8197
X5.2665Y-2.8827
X5.2665Y-2.9142
X5.2665Y-2.9772
X5.2665Y-3.0402
X5.2665Y-3.1031
X5.2665Y-3.1346
X5.2665Y-3.1976
X5.2665Y-3.2291
X5.2665Y-3.3236
X5.2665Y-3.3551
X5.2665Y-3.4181
X5.2665Y-3.4496
X5.2665Y-3.5126
X5.2665Y-3.5441
X5.2665Y-6.0854
X5.2665Y-6.1484
X5.2665Y-6.1799
X5.2665Y-6.2429
X5.2665Y-6.2744
X5.2665Y-6.3689
X5.2665Y-6.4004
X5.2665Y-6.4634
X5.2665Y-6.4949
X5.2665Y-6.5579
X5.2665Y-6.5894
X5.2665Y-6.6839
X5.2665Y-6.7154
X5.2665Y-6.7783
X5.2665Y-6.8098
X5.2665Y-6.8728
X5.2665Y-6.9358
X5.2665Y-6.9988
X5.2665Y-7.0303
X5.2665Y-7.0933
X5.2665Y-7.1248
X5.2669Y-3.7646
X5.2669Y-3.7961
X5.2669Y-3.8591
X5.2669Y-3.8906
X5.2669Y-3.9535
X5.2669Y-4.0165
X5.2669Y-4.0795
X5.2669Y-4.111
X5.2669Y-4.174
X5.2669Y-4.2055
X5.2669Y-4.3
X5.2669Y-5.424
X5.2669Y-5.487
X5.2669Y-5.5185
X5.2669Y-5.5815
X5.2669Y-5.613
X5.2669Y-5.7075
X5.2669Y-5.739
X5.2669Y-5.802
X5.2669Y-5.8335
X5.2669Y-5.8965
X5.2675Y-8.4378
X5.2675Y-8.4693
X5.2675Y-8.5323
X5.2675Y-8.5638
X5.2675Y-8.6268
X5.2675Y-8.6583
X5.2675Y-8.7528
X5.2675Y-8.7843
X5.2675Y-8.8472
X5.2675Y-8.8787
X5.2675Y-8.9417
X5.2675Y-9.0047
X5.2675Y-9.0677
X5.2675Y-9.0992
X5.2675Y-9.1622
X5.2675Y-9.1937
X5.2675Y-9.2882
X5.2675Y-9.3197
X5.2675Y-9.3827
X5.2675Y-9.4142
X5.2675Y-9.4772
X5.2675Y-9.5087
X5.2675Y-12.05
X5.2675Y-12.113
X5.2675Y-12.1445
X5.2675Y-12.2075
X5.2675Y-12.239
X5.2675Y-12.3335
X5.2675Y-12.365
X5.2675Y-12.428
X5.2675Y-12.4594
X5.2675Y-12.5224
X5.2675Y-12.5539
X5.2675Y-12.6484
X5.2675Y-12.6799
X5.2675Y-12.7429
X5.2675Y-12.7744
X5.2675Y-12.8374
X5.2675Y-12.9004
X5.2675Y-12.9634
X5.2675Y-12.9949
X5.2675Y-13.0579
X5.2675Y-13.0894
X5.2675Y-14.4024
X5.2675Y-14.4339
X5.2675Y-14.4969
X5.2675Y-14.5283
X5.2675Y-14.5913
X5.2675Y-14.6228
X5.2675Y-14.7173
X5.2675Y-14.7488
X5.2675Y-14.8118
X5.2675Y-14.8433
X5.2675Y-14.9063
X5.2675Y-14.9693
X5.2675Y-15.0323
X5.2675Y-15.0638
X5.2675Y-15.1268
X5.2675Y-15.1583
X5.2675Y-15.2528
X5.2675Y-15.2843
X5.2675Y-15.3472
X5.2675Y-15.3787
X5.2675Y-15.4417
X5.2675Y-15.4732
X5.2675Y-18.0146
X5.2675Y-18.0776
X5.2675Y-18.1091
X5.2675Y-18.172
X5.2675Y-18.2035
X5.2675Y-18.298
X5.2675Y-18.3295
X5.2675Y-18.3925
X5.2675Y-18.424
X5.2675Y-18.487
X5.2675Y-18.5185
X5.2675Y-18.613
X5.2675Y-18.6445
X5.2675Y-18.7075
X5.2675Y-18.739
X5.2675Y-18.802
X5.2675Y-18.865
X5.2675Y-18.928
X5.2675Y-18.9594
X5.2675Y-19.0224
X5.2675Y-19.0539
X5.2679Y-9.7291
X5.2679Y-9.7606
X5.2679Y-9.8236
X5.2679Y-9.8551
X5.2679Y-9.9181
X5.2679Y-9.9811
X5.2679Y-10.0441
X5.2679Y-10.0756
X5.2679Y-10.1386
X5.2679Y-10.1701
X5.2679Y-10.2646
X5.2679Y-11.3886
X5.2679Y-11.4516
X5.2679Y-11.4831
X5.2679Y-11.5461
X5.2679Y-11.5776
X5.2679Y-11.672
X5.2679Y-11.7035
X5.2679Y-11.7665
X5.2679Y-11.798
X5.2679Y-11.861
X5.2679Y-15.6937
X5.2679Y-15.7252
X5.2679Y-15.7882
X5.2679Y-15.8197
X5.2679Y-15.8827
X5.2679Y-15.9457
X5.2679Y-16.0087
X5.2679Y-16.0402
X5.2679Y-16.1031
X5.2679Y-16.1346
X5.2679Y-16.2291
X5.2679Y-17.3531
X5.2679Y-17.4161
X5.2679Y-17.4476
X5.2679Y-17.5106
X5.2679Y-17.5421
X5.2679Y-17.6366
X5.2679Y-17.6681
X5.2679Y-17.7311
X5.2679Y-17.7626
X5.2679Y-17.8256
X5.5591Y-3.7644
X5.5591Y-3.7959
X5.5591Y-3.8589
X5.5591Y-3.8904
X5.5591Y-3.9533
X5.5591Y-4.0163
X5.5591Y-4.0793
X5.5591Y-4.1108
X5.5591Y-4.1738
X5.5591Y-4.2053
X5.5591Y-4.2998
X5.5591Y-5.4238
X5.5591Y-5.4868
X5.5591Y-5.5183
X5.5591Y-5.5813
X5.5591Y-5.6128
X5.5591Y-5.7073
X5.5591Y-5.7388
X5.5591Y-5.8018
X5.5591Y-5.8333
X5.5591Y-5.8963
X5.5594Y-2.473
X5.5594Y-2.5045
X5.5594Y-2.5675
X5.5594Y-2.599
X5.5594Y-2.662
X5.5594Y-2.6935
X5.5594Y-2.788
X5.5594Y-2.8195
X5.5594Y-2.8825
X5.5594Y-2.914
X5.5594Y-2.977
X5.5594Y-3.04
X5.5594Y-3.103
X5.5594Y-3.1344
X5.5594Y-3.1974
X5.5594Y-3.2289
X5.5594Y-3.3234
X5.5594Y-3.3549
X5.5594Y-3.4179
X5.5594Y-3.4494
X5.5594Y-3.5124
X5.5594Y-3.5439
X5.5594Y-6.0852
X5.5594Y-6.1482
X5.5594Y-6.1797
X5.5594Y-6.2427
X5.5594Y-6.2742
X5.5594Y-6.3687
X5.5594Y-6.4002
X5.5594Y-6.4632
X5.5594Y-6.4947
X5.5594Y-6.5577
X5.5594Y-6.5892
X5.5594Y-6.6837
X5.5594Y-6.7152
X5.5594Y-6.7781
X5.5594Y-6.8096
X5.5594Y-6.8726
X5.5594Y-6.9356
X5.5594Y-6.9986
X5.5594Y-7.0301
X5.5594Y-7.0931
X5.5594Y-7.1246
X5.56Y-9.7289
X5.56Y-9.7604
X5.56Y-9.8234
X5.56Y-9.8549
X5.56Y-9.9179
X5.56Y-9.9809
X5.56Y-10.0439
X5.56Y-10.0754
X5.56Y-10.1384
X5.56Y-10.1699
X5.56Y-10.2644
X5.56Y-11.3884
X5.56Y-11.4514
X5.56Y-11.4829
X5.56Y-11.5459
X5.56Y-11.5774
X5.56Y-11.6719
X5.56Y-11.7033
X5.56Y-11.7663
X5.56Y-11.7978
X5.56Y-11.8608
X5.56Y-15.6935
X5.56Y-15.725
X5.56Y-15.788
X5.56Y-15.8195
X5.56Y-15.8825
X5.56Y-15.9455
X5.56Y-16.0085
X5.56Y-16.04
X5.56Y-16.103
X5.56Y-16.1344
X5.56Y-16.2289
X5.56Y-17.353
X5.56Y-17.4159
X5.56Y-17.4474
X5.56Y-17.5104
X5.56Y-17.5419
X5.56Y-17.6364
X5.56Y-17.6679
X5.56Y-17.7309
X5.56Y-17.7624
X5.56Y-17.8254
X5.5604Y-8.4376
X5.5604Y-8.4691
X5.5604Y-8.5321
X5.5604Y-8.5636
X5.5604Y-8.6266
X5.5604Y-8.6581
X5.5604Y-8.7526
X5.5604Y-8.7841
X5.5604Y-8.847
X5.5604Y-8.8785
X5.5604Y-8.9415
X5.5604Y-9.0045
X5.5604Y-9.0675
X5.5604Y-9.099
X5.5604Y-9.162
X5.5604Y-9.1935
X5.5604Y-9.288
X5.5604Y-9.3195
X5.5604Y-9.3825
X5.5604Y-9.414
X5.5604Y-9.477
X5.5604Y-9.5085
X5.5604Y-12.0498
X5.5604Y-12.1128
X5.5604Y-12.1443
X5.5604Y-12.2073
X5.5604Y-12.2388
X5.5604Y-12.3333
X5.5604Y-12.3648
X5.5604Y-12.4278
X5.5604Y-12.4593
X5.5604Y-12.5222
X5.5604Y-12.5537
X5.5604Y-12.6482
X5.5604Y-12.6797
X5.5604Y-12.7427
X5.5604Y-12.7742
X5.5604Y-12.8372
X5.5604Y-12.9002
X5.5604Y-12.9632
X5.5604Y-12.9947
X5.5604Y-13.0577
X5.5604Y-13.0892
X5.5604Y-14.4022
X5.5604Y-14.4337
X5.5604Y-14.4967
X5.5604Y-14.5281
X5.5604Y-14.5911
X5.5604Y-14.6226
X5.5604Y-14.7171
X5.5604Y-14.7486
X5.5604Y-14.8116
X5.5604Y-14.8431
X5.5604Y-14.9061
X5.5604Y-14.9691
X5.5604Y-15.0321
X5.5604Y-15.0636
X5.5604Y-15.1266
X5.5604Y-15.1581
X5.5604Y-15.2526
X5.5604Y-15.2841
X5.5604Y-15.347
X5.5604Y-15.3785
X5.5604Y-15.4415
X5.5604Y-15.473
X5.5604Y-18.0144
X5.5604Y-18.0774
X5.5604Y-18.1089
X5.5604Y-18.1719
X5.5604Y-18.2033
X5.5604Y-18.2978
X5.5604Y-18.3293
X5.5604Y-18.3923
X5.5604Y-18.4238
X5.5604Y-18.4868
X5.5604Y-18.5183
X5.5604Y-18.6128
X5.5604Y-18.6443
X5.5604Y-18.7073
X5.5604Y-18.7388
X5.5604Y-18.8018
X5.5604Y-18.8648
X5.5604Y-18.9278
X5.5604Y-18.9593
X5.5604Y-19.0222
X5.5604Y-19.0537
X5.7953Y-4.2132
X5.7953Y-4.2919
X5.7953Y-4.3313
X5.7953Y-4.41
X5.7953Y-4.4494
X5.7953Y-4.5281
X5.7953Y-4.5675
X5.7953Y-4.6463
X5.7953Y-4.6856
X5.7953Y-4.7644
X5.7953Y-4.8037
X5.7953Y-4.8825
X5.7953Y-4.9219
X5.7953Y-5.0006
X5.7953Y-5.04
X5.7953Y-5.1187
X5.7953Y-5.1581
X5.7953Y-5.2368
X5.7953Y-5.2762
X5.7953Y-5.3549
X5.7953Y-5.3943
X5.7963Y-10.1778
X5.7963Y-10.2565
X5.7963Y-10.2959
X5.7963Y-10.3746
X5.7963Y-10.414
X5.7963Y-10.4927
X5.7963Y-10.5321
X5.7963Y-10.6108
X5.7963Y-10.6502
X5.7963Y-10.7289
X5.7963Y-10.7683
X5.7963Y-10.847
X5.7963Y-10.8864
X5.7963Y-10.9652
X5.7963Y-11.0045
X5.7963Y-11.0833
X5.7963Y-11.1226
X5.7963Y-11.2014
X5.7963Y-11.2407
X5.7963Y-11.3195
X5.7963Y-11.3589
X5.7963Y-16.1423
X5.7963Y-16.2211
X5.7963Y-16.2604
X5.7963Y-16.3392
X5.7963Y-16.3785
X5.7963Y-16.4573
X5.7963Y-16.4967
X5.7963Y-16.5754
X5.7963Y-16.6148
X5.7963Y-16.6935
X5.7963Y-16.7329
X5.7963Y-16.8116
X5.7963Y-16.851
X5.7963Y-16.9297
X5.7963Y-16.9691
X5.7963Y-17.0478
X5.7963Y-17.0872
X5.7963Y-17.1659
X5.7963Y-17.2053
X5.7963Y-17.2841
X5.7963Y-17.3234
X5.8016Y-2.3825
X5.8016Y-2.4219
X5.8016Y-2.5006
X5.8016Y-2.54
X5.8016Y-2.6187
X5.8016Y-2.6581
X5.8016Y-2.7368
X5.8016Y-2.7762
X5.8016Y-2.8549
X5.8016Y-2.8943
X5.8016Y-2.973
X5.8016Y-3.0124
X5.8016Y-3.0911
X5.8016Y-3.1305
X5.8016Y-3.2093
X5.8016Y-3.2486
X5.8016Y-3.3274
X5.8016Y-3.3667
X5.802Y-2.3033
X5.802Y-6.201
X5.802Y-6.2404
X5.802Y-6.3191
X5.802Y-6.3585
X5.802Y-6.4372
X5.802Y-6.4766
X5.802Y-6.5553
X5.802Y-6.5947
X5.802Y-6.6734
X5.802Y-6.7128
X5.802Y-6.7915
X5.802Y-6.8309
X5.802Y-6.9096
X5.802Y-6.949
X5.802Y-7.0278
X5.802Y-7.0671
X5.802Y-7.1459
X5.802Y-7.1852
X5.802Y-7.264
X5.802Y-7.3033
X5.802Y-7.3821
X5.802Y-7.4215
X5.8026Y-8.347
X5.8026Y-8.3864
X5.8026Y-8.4652
X5.8026Y-8.5045
X5.8026Y-8.5833
X5.8026Y-8.6226
X5.8026Y-8.7014
X5.8026Y-8.7407
X5.8026Y-8.8195
X5.8026Y-8.8589
X5.8026Y-8.9376
X5.8026Y-8.977
X5.8026Y-9.0557
X5.8026Y-9.0951
X5.8026Y-9.1738
X5.8026Y-9.2132
X5.8026Y-9.2919
X5.8026Y-9.3313
X5.8026Y-14.3116
X5.8026Y-14.351
X5.8026Y-14.4297
X5.8026Y-14.4691
X5.8026Y-14.5478
X5.8026Y-14.5872
X5.8026Y-14.6659
X5.8026Y-14.7053
X5.8026Y-14.7841
X5.8026Y-14.8234
X5.8026Y-14.9022
X5.8026Y-14.9415
X5.8026Y-15.0203
X5.8026Y-15.0596
X5.8026Y-15.1384
X5.8026Y-15.1778
X5.8026Y-15.2565
X5.8026Y-15.2959
X5.803Y-8.2679
X5.803Y-12.1656
X5.803Y-12.2049
X5.803Y-12.2837
X5.803Y-12.323
X5.803Y-12.4018
X5.803Y-12.4411
X5.803Y-12.5199
X5.803Y-12.5593
X5.803Y-12.638
X5.803Y-12.6774
X5.803Y-12.7561
X5.803Y-12.7955
X5.803Y-12.8742
X5.803Y-12.9136
X5.803Y-12.9923
X5.803Y-13.0317
X5.803Y-13.1104
X5.803Y-13.1498
X5.803Y-13.2285
X5.803Y-13.2679
X5.803Y-13.3467
X5.803Y-13.386
X5.803Y-14.2325
X5.803Y-18.1301
X5.803Y-18.1695
X5.803Y-18.2482
X5.803Y-18.2876
X5.803Y-18.3663
X5.803Y-18.4057
X5.803Y-18.4844
X5.803Y-18.5238
X5.803Y-18.6026
X5.803Y-18.6419
X5.803Y-18.7207
X5.803Y-18.76
X5.803Y-18.8388
X5.803Y-18.8781
X5.803Y-18.9569
X5.803Y-18.9963
X5.803Y-19.075
X5.803Y-19.1144
X5.803Y-19.1931
X5.803Y-19.2325
X5.803Y-19.3112
X5.803Y-19.3506
X5.8039Y-2.264
X5.8049Y-8.2285
X5.8049Y-14.1931
X5.8055Y-3.4455
X5.8065Y-9.41
X5.8065Y-15.3746
T2
X4.7441Y-5.9583
X4.7451Y-11.9228
X4.7451Y-17.8874
X4.7894Y-6.2598
X4.7894Y-6.3386
X4.7894Y-6.4173
X4.7894Y-6.4961
X4.7894Y-6.5748
X4.7894Y-6.6535
X4.7894Y-6.7323
X4.7894Y-6.811
X4.7894Y-6.8898
X4.7894Y-6.9685
X4.7894Y-7.0472
X4.7894Y-7.126
X4.7894Y-7.2047
X4.7894Y-7.2835
X4.7894Y-7.3622
X4.7894Y-7.4409
X4.7904Y-12.2244
X4.7904Y-12.3031
X4.7904Y-12.3819
X4.7904Y-12.4606
X4.7904Y-12.5394
X4.7904Y-12.6181
X4.7904Y-12.6969
X4.7904Y-12.7756
X4.7904Y-12.8543
X4.7904Y-12.9331
X4.7904Y-13.0118
X4.7904Y-13.0906
X4.7904Y-13.1693
X4.7904Y-13.248
X4.7904Y-13.3268
X4.7904Y-13.4055
X4.7904Y-18.189
X4.7904Y-18.2677
X4.7904Y-18.3465
X4.7904Y-18.4252
X4.7904Y-18.5039
X4.7904Y-18.5827
X4.7904Y-18.6614
X4.7904Y-18.7402
X4.7904Y-18.8189
X4.7904Y-18.8976
X4.7904Y-18.9764
X4.7904Y-19.0551
X4.7904Y-19.1339
X4.7904Y-19.2126
X4.7904Y-19.2913
X4.7904Y-19.3701
X4.7906Y-2.2831
X4.7906Y-2.3618
X4.7906Y-2.4406
X4.7906Y-2.5193
X4.7906Y-2.598
X4.7906Y-2.6768
X4.7906Y-2.7555
X4.7906Y-2.8343
X4.7906Y-2.913
X4.7906Y-2.9917
X4.7906Y-3.0705
X4.7906Y-3.1492
X4.7906Y-3.228
X4.7906Y-3.3067
X4.7906Y-3.3854
X4.7906Y-3.4642
X4.7915Y-8.2476
X4.7915Y-8.3264
X4.7915Y-8.4051
X4.7915Y-8.4839
X4.7915Y-8.5626
X4.7915Y-8.6413
X4.7915Y-8.7201
X4.7915Y-8.7988
X4.7915Y-8.8776
X4.7915Y-8.9563
X4.7915Y-9.035
X4.7915Y-9.1138
X4.7915Y-9.1925
X4.7915Y-9.2713
X4.7915Y-9.35
X4.7915Y-9.4287
X4.7915Y-14.2122
X4.7915Y-14.2909
X4.7915Y-14.3697
X4.7915Y-14.4484
X4.7915Y-14.5272
X4.7915Y-14.6059
X4.7915Y-14.6846
X4.7915Y-14.7634
X4.7915Y-14.8421
X4.7915Y-14.9209
X4.7915Y-14.9996
X4.7915Y-15.0783
X4.7915Y-15.1571
X4.7915Y-15.2358
X4.7915Y-15.3146
X4.7915Y-15.3933
X4.7996Y-4.2717
X4.7996Y-4.3504
X4.7996Y-4.4291
X4.7996Y-4.5079
X4.7996Y-4.5866
X4.7996Y-4.6654
X4.7996Y-4.7441
X4.7996Y-4.8228
X4.7996Y-4.9016
X4.7996Y-4.9803
X4.7996Y-5.0591
X4.7996Y-5.1378
X4.7996Y-5.2165
X4.7996Y-5.2953
X4.7996Y-5.374
X4.7996Y-5.4528
X4.8006Y-10.2362
X4.8006Y-10.315
X4.8006Y-10.3937
X4.8006Y-10.4724
X4.8006Y-10.5512
X4.8006Y-10.6299
X4.8006Y-10.7087
X4.8006Y-10.7874
X4.8006Y-10.8661
X4.8006Y-10.9449
X4.8006Y-11.0236
X4.8006Y-11.1024
X4.8006Y-11.1811
X4.8006Y-11.2598
X4.8006Y-11.3386
X4.8006Y-11.4173
X4.8006Y-16.2008
X4.8006Y-16.2795
X4.8006Y-16.3583
X4.8006Y-16.437
X4.8006Y-16.5157
X4.8006Y-16.5945
X4.8006Y-16.6732
X4.8006Y-16.752
X4.8006Y-16.8307
X4.8006Y-16.9094
X4.8006Y-16.9882
X4.8006Y-17.0669
X4.8006Y-17.1457
X4.8006Y-17.2244
X4.8006Y-17.3031
X4.8006Y-17.3819
X4.8476Y-6.0193
X4.8479Y-7.6344
X4.8484Y-3.6724
X4.8486Y-11.9839
X4.8486Y-17.9484
X4.8488Y-13.599
X4.8488Y-19.5636
X4.8494Y-9.637
X4.8494Y-15.6016
X4.9114Y-3.6071
X4.9114Y-7.5591
X4.9124Y-9.5717
X4.9124Y-13.5236
X4.9124Y-15.5362
X4.9124Y-19.4882
X5.3732Y-3.5756
X5.3742Y-9.5402
X5.3742Y-15.5047
X5.3744Y-7.2508
X5.3748Y-2.4417
X5.3748Y-2.7252
X5.3748Y-3.0087
X5.3748Y-3.2921
X5.3748Y-5.9902
X5.3748Y-6.3374
X5.3748Y-6.6209
X5.3748Y-6.9043
X5.3748Y-7.1878
X5.3752Y-3.6378
X5.3752Y-3.7016
X5.3752Y-3.985
X5.3752Y-4.2685
X5.3752Y-5.6445
X5.3752Y-6.0539
X5.3754Y-13.2154
X5.3754Y-19.1799
X5.3758Y-8.4063
X5.3758Y-8.6898
X5.3758Y-8.9732
X5.3758Y-9.2567
X5.3758Y-11.9547
X5.3758Y-12.302
X5.3758Y-12.5854
X5.3758Y-12.8689
X5.3758Y-13.1524
X5.3758Y-14.3709
X5.3758Y-14.6543
X5.3758Y-14.9378
X5.3758Y-15.2213
X5.3758Y-17.9193
X5.3758Y-18.2665
X5.3758Y-18.55
X5.3758Y-18.8335
X5.3758Y-19.1169
X5.3762Y-9.6024
X5.3762Y-9.6661
X5.3762Y-9.9496
X5.3762Y-10.2331
X5.3762Y-11.6091
X5.3762Y-12.0185
X5.3762Y-15.5669
X5.3762Y-15.6307
X5.3762Y-15.9142
X5.3762Y-16.1976
X5.3762Y-17.5736
X5.3762Y-17.9831
X5.3783Y-5.9276
X5.3793Y-11.8921
X5.3793Y-17.8567
X5.4476Y-5.9274
X5.4486Y-11.8919
X5.4486Y-17.8565
X5.4508Y-3.7014
X5.4508Y-3.9848
X5.4508Y-4.2683
X5.4508Y-5.6443
X5.4508Y-6.0537
X5.4512Y-2.4415
X5.4512Y-2.725
X5.4512Y-3.0085
X5.4512Y-3.2919
X5.4512Y-6.3372
X5.4512Y-6.6207
X5.4512Y-6.9041
X5.4512Y-7.1876
X5.4518Y-9.6659
X5.4518Y-9.9494
X5.4518Y-10.2329
X5.4518Y-11.6089
X5.4518Y-12.0183
X5.4518Y-15.6305
X5.4518Y-15.914
X5.4518Y-16.1974
X5.4518Y-17.5734
X5.4518Y-17.9829
X5.452Y-3.6398
X5.4522Y-8.4061
X5.4522Y-8.6896
X5.4522Y-8.973
X5.4522Y-9.2565
X5.4522Y-12.3018
X5.4522Y-12.5852
X5.4522Y-12.8687
X5.4522Y-13.1522
X5.4522Y-14.3707
X5.4522Y-14.6541
X5.4522Y-14.9376
X5.4522Y-15.2211
X5.4522Y-18.2663
X5.4522Y-18.5498
X5.4522Y-18.8333
X5.4522Y-19.1167
X5.4528Y-3.5754
X5.453Y-9.6043
X5.453Y-15.5689
X5.4537Y-9.54
X5.4537Y-15.5045
X5.4539Y-5.9921
X5.4543Y-7.2508
X5.4549Y-11.9567
X5.4549Y-17.9213
X5.4553Y-13.2154
X5.4553Y-19.1799
X5.9154Y-3.5925
X5.9154Y-7.5591
X5.9163Y-9.5571
X5.9163Y-13.5236
X5.9163Y-15.5217
X5.9163Y-19.4882
X5.9774Y-6.0226
X5.9783Y-11.9872
X5.9783Y-17.9518
X5.9789Y-7.6344
X5.9791Y-3.6559
X5.9799Y-13.599
X5.9799Y-19.5636
X5.9801Y-9.6205
X5.9801Y-15.585
X6.0266Y-4.2716
X6.0266Y-4.3504
X6.0266Y-4.4291
X6.0266Y-4.5078
X6.0266Y-4.5866
X6.0266Y-4.6653
X6.0266Y-4.7441
X6.0266Y-4.8228
X6.0266Y-4.9015
X6.0266Y-4.9803
X6.0266Y-5.059
X6.0266Y-5.1378
X6.0266Y-5.2165
X6.0266Y-5.2952
X6.0266Y-5.374
X6.0266Y-5.4527
X6.0276Y-10.2362
X6.0276Y-10.3149
X6.0276Y-10.3937
X6.0276Y-10.4724
X6.0276Y-10.5511
X6.0276Y-10.6299
X6.0276Y-10.7086
X6.0276Y-10.7874
X6.0276Y-10.8661
X6.0276Y-10.9449
X6.0276Y-11.0236
X6.0276Y-11.1023
X6.0276Y-11.1811
X6.0276Y-11.2598
X6.0276Y-11.3386
X6.0276Y-11.4173
X6.0276Y-16.2008
X6.0276Y-16.2795
X6.0276Y-16.3582
X6.0276Y-16.437
X6.0276Y-16.5157
X6.0276Y-16.5945
X6.0276Y-16.6732
X6.0276Y-16.7519
X6.0276Y-16.8307
X6.0276Y-16.9094
X6.0276Y-16.9882
X6.0276Y-17.0669
X6.0276Y-17.1456
X6.0276Y-17.2244
X6.0276Y-17.3031
X6.0276Y-17.3819
X6.0346Y-2.2831
X6.0346Y-2.3618
X6.0346Y-2.4406
X6.0346Y-2.5193
X6.0346Y-2.598
X6.0346Y-2.6768
X6.0346Y-2.7555
X6.0346Y-2.8343
X6.0346Y-2.913
X6.0346Y-2.9917
X6.0346Y-3.0705
X6.0346Y-3.1492
X6.0346Y-3.228
X6.0346Y-3.3067
X6.0346Y-3.3854
X6.0346Y-3.4642
X6.0356Y-8.2476
X6.0356Y-8.3264
X6.0356Y-8.4051
X6.0356Y-8.4839
X6.0356Y-8.5626
X6.0356Y-8.6413
X6.0356Y-8.7201
X6.0356Y-8.7988
X6.0356Y-8.8776
X6.0356Y-8.9563
X6.0356Y-9.035
X6.0356Y-9.1138
X6.0356Y-9.1925
X6.0356Y-9.2713
X6.0356Y-9.35
X6.0356Y-9.4287
X6.0356Y-14.2122
X6.0356Y-14.2909
X6.0356Y-14.3697
X6.0356Y-14.4484
X6.0356Y-14.5272
X6.0356Y-14.6059
X6.0356Y-14.6846
X6.0356Y-14.7634
X6.0356Y-14.8421
X6.0356Y-14.9209
X6.0356Y-14.9996
X6.0356Y-15.0783
X6.0356Y-15.1571
X6.0356Y-15.2358
X6.0356Y-15.3146
X6.0356Y-15.3933
X6.0374Y-6.2598
X6.0374Y-6.3386
X6.0374Y-6.4173
X6.0374Y-6.4961
X6.0374Y-6.5748
X6.0374Y-6.6535
X6.0374Y-6.7323
X6.0374Y-6.811
X6.0374Y-6.8898
X6.0374Y-6.9685
X6.0374Y-7.0472
X6.0374Y-7.126
X6.0374Y-7.2047
X6.0374Y-7.2835
X6.0374Y-7.3622
X6.0374Y-7.4409
X6.0384Y-12.2244
X6.0384Y-12.3031
X6.0384Y-12.3819
X6.0384Y-12.4606
X6.0384Y-12.5394
X6.0384Y-12.6181
X6.0384Y-12.6969
X6.0384Y-12.7756
X6.0384Y-12.8543
X6.0384Y-12.9331
X6.0384Y-13.0118
X6.0384Y-13.0906
X6.0384Y-13.1693
X6.0384Y-13.248
X6.0384Y-13.3268
X6.0384Y-13.4055
X6.0384Y-18.189
X6.0384Y-18.2677
X6.0384Y-18.3465
X6.0384Y-18.4252
X6.0384Y-18.5039
X6.0384Y-18.5827
X6.0384Y-18.6614
X6.0384Y-18.7402
X6.0384Y-18.8189
X6.0384Y-18.8976
X6.0384Y-18.9764
X6.0384Y-19.0551
X6.0384Y-19.1339
X6.0384Y-19.2126
X6.0384Y-19.2913
X6.0384Y-19.3701
X6.0837Y-5.9596
X6.0846Y-11.9242
X6.0846Y-17.8888
T3
X5.3543Y-2.3711
X5.3543Y-4.3711
X5.3543Y-5.3533
X5.3543Y-7.3533
X5.3543Y-8.3356
X5.3543Y-10.3356
X5.3543Y-11.3179
X5.3543Y-13.3179
X5.3543Y-14.3002
X5.3543Y-16.3002
X5.3543Y-17.2825
X5.3543Y-19.2825
T0
M30
