%TF.GenerationSoftware,KiCad,Pcbnew,(5.1.9-0-10_14)*%
%TF.CreationDate,2021-05-27T09:53:40-04:00*%
%TF.ProjectId,backplane,6261636b-706c-4616-9e65-2e6b69636164,C*%
%TF.SameCoordinates,Original*%
%TF.FileFunction,Legend,Bot*%
%TF.FilePolarity,Positive*%
%FSLAX46Y46*%
G04 Gerber Fmt 4.6, Leading zero omitted, Abs format (unit mm)*
G04 Created by KiCad (PCBNEW (5.1.9-0-10_14)) date 2021-05-27 09:53:40*
%MOMM*%
%LPD*%
G01*
G04 APERTURE LIST*
%ADD10C,0.250000*%
%ADD11C,0.015000*%
G04 APERTURE END LIST*
D10*
%TO.C,J402*%
X134200000Y-264250000D02*
X140800000Y-264250000D01*
X134200000Y-209250000D02*
X134200000Y-264250000D01*
X138900000Y-209250000D02*
X134200000Y-209250000D01*
X140800000Y-211150000D02*
X138900000Y-209250000D01*
X140800000Y-264250000D02*
X140800000Y-211150000D01*
%TO.C,J302*%
X140800000Y-188500000D02*
X140800000Y-135400000D01*
X140800000Y-135400000D02*
X138900000Y-133500000D01*
X138900000Y-133500000D02*
X134200000Y-133500000D01*
X134200000Y-133500000D02*
X134200000Y-188500000D01*
X134200000Y-188500000D02*
X140800000Y-188500000D01*
%TO.C,J102*%
X134200000Y-112750000D02*
X140800000Y-112750000D01*
X134200000Y-57750000D02*
X134200000Y-112750000D01*
X138900000Y-57750000D02*
X134200000Y-57750000D01*
X140800000Y-59650000D02*
X138900000Y-57750000D01*
X140800000Y-112750000D02*
X140800000Y-59650000D01*
%TO.C,J602*%
X140800000Y-340000000D02*
X140800000Y-286900000D01*
X140800000Y-286900000D02*
X138900000Y-285000000D01*
X138900000Y-285000000D02*
X134200000Y-285000000D01*
X134200000Y-285000000D02*
X134200000Y-340000000D01*
X134200000Y-340000000D02*
X140800000Y-340000000D01*
%TO.C,J1*%
X134200000Y-415750000D02*
X140800000Y-415750000D01*
X134200000Y-360750000D02*
X134200000Y-415750000D01*
X138900000Y-360750000D02*
X134200000Y-360750000D01*
X140800000Y-362650000D02*
X138900000Y-360750000D01*
X140800000Y-415750000D02*
X140800000Y-362650000D01*
%TO.C,J2*%
X140800000Y-491500000D02*
X140800000Y-438400000D01*
X140800000Y-438400000D02*
X138900000Y-436500000D01*
X138900000Y-436500000D02*
X134200000Y-436500000D01*
X134200000Y-436500000D02*
X134200000Y-491500000D01*
X134200000Y-491500000D02*
X140800000Y-491500000D01*
%TO.C,J402*%
D11*
X138785855Y-206202320D02*
X138785855Y-206916685D01*
X138833480Y-207059557D01*
X138928728Y-207154806D01*
X139071601Y-207202430D01*
X139166850Y-207202430D01*
X137880994Y-206535690D02*
X137880994Y-207202430D01*
X138119115Y-206154696D02*
X138357237Y-206869060D01*
X137738121Y-206869060D01*
X137166630Y-206202320D02*
X137071381Y-206202320D01*
X136976132Y-206249945D01*
X136928508Y-206297569D01*
X136880884Y-206392817D01*
X136833260Y-206583315D01*
X136833260Y-206821436D01*
X136880884Y-207011933D01*
X136928508Y-207107182D01*
X136976132Y-207154806D01*
X137071381Y-207202430D01*
X137166630Y-207202430D01*
X137261878Y-207154806D01*
X137309502Y-207107182D01*
X137357127Y-207011933D01*
X137404751Y-206821436D01*
X137404751Y-206583315D01*
X137357127Y-206392817D01*
X137309502Y-206297569D01*
X137261878Y-206249945D01*
X137166630Y-206202320D01*
X136452265Y-206297569D02*
X136404641Y-206249945D01*
X136309392Y-206202320D01*
X136071271Y-206202320D01*
X135976022Y-206249945D01*
X135928398Y-206297569D01*
X135880774Y-206392817D01*
X135880774Y-206488066D01*
X135928398Y-206630939D01*
X136499890Y-207202430D01*
X135880774Y-207202430D01*
X131960769Y-213195132D02*
X131913092Y-213242810D01*
X131865414Y-213338166D01*
X131865414Y-213576555D01*
X131913092Y-213671911D01*
X131960769Y-213719589D01*
X132056125Y-213767267D01*
X132151481Y-213767267D01*
X132294515Y-213719589D01*
X132866650Y-213147454D01*
X132866650Y-213767267D01*
X141762649Y-213794232D02*
X141762649Y-213222767D01*
X141762649Y-213508500D02*
X140762586Y-213508500D01*
X140905452Y-213413255D01*
X141000696Y-213318011D01*
X141048318Y-213222767D01*
%TO.C,J302*%
X138785855Y-130452320D02*
X138785855Y-131166685D01*
X138833480Y-131309557D01*
X138928728Y-131404806D01*
X139071601Y-131452430D01*
X139166850Y-131452430D01*
X138404861Y-130452320D02*
X137785745Y-130452320D01*
X138119115Y-130833315D01*
X137976242Y-130833315D01*
X137880994Y-130880939D01*
X137833370Y-130928563D01*
X137785745Y-131023812D01*
X137785745Y-131261933D01*
X137833370Y-131357182D01*
X137880994Y-131404806D01*
X137976242Y-131452430D01*
X138261988Y-131452430D01*
X138357237Y-131404806D01*
X138404861Y-131357182D01*
X137166630Y-130452320D02*
X137071381Y-130452320D01*
X136976132Y-130499945D01*
X136928508Y-130547569D01*
X136880884Y-130642817D01*
X136833260Y-130833315D01*
X136833260Y-131071436D01*
X136880884Y-131261933D01*
X136928508Y-131357182D01*
X136976132Y-131404806D01*
X137071381Y-131452430D01*
X137166630Y-131452430D01*
X137261878Y-131404806D01*
X137309502Y-131357182D01*
X137357127Y-131261933D01*
X137404751Y-131071436D01*
X137404751Y-130833315D01*
X137357127Y-130642817D01*
X137309502Y-130547569D01*
X137261878Y-130499945D01*
X137166630Y-130452320D01*
X136452265Y-130547569D02*
X136404641Y-130499945D01*
X136309392Y-130452320D01*
X136071271Y-130452320D01*
X135976022Y-130499945D01*
X135928398Y-130547569D01*
X135880774Y-130642817D01*
X135880774Y-130738066D01*
X135928398Y-130880939D01*
X136499890Y-131452430D01*
X135880774Y-131452430D01*
X141762649Y-138044232D02*
X141762649Y-137472767D01*
X141762649Y-137758500D02*
X140762586Y-137758500D01*
X140905452Y-137663255D01*
X141000696Y-137568011D01*
X141048318Y-137472767D01*
X131960769Y-137445132D02*
X131913092Y-137492810D01*
X131865414Y-137588166D01*
X131865414Y-137826555D01*
X131913092Y-137921911D01*
X131960769Y-137969589D01*
X132056125Y-138017267D01*
X132151481Y-138017267D01*
X132294515Y-137969589D01*
X132866650Y-137397454D01*
X132866650Y-138017267D01*
%TO.C,J102*%
X138785855Y-54702320D02*
X138785855Y-55416685D01*
X138833480Y-55559557D01*
X138928728Y-55654806D01*
X139071601Y-55702430D01*
X139166850Y-55702430D01*
X137785745Y-55702430D02*
X138357237Y-55702430D01*
X138071491Y-55702430D02*
X138071491Y-54702320D01*
X138166740Y-54845193D01*
X138261988Y-54940442D01*
X138357237Y-54988066D01*
X137166630Y-54702320D02*
X137071381Y-54702320D01*
X136976132Y-54749945D01*
X136928508Y-54797569D01*
X136880884Y-54892817D01*
X136833260Y-55083315D01*
X136833260Y-55321436D01*
X136880884Y-55511933D01*
X136928508Y-55607182D01*
X136976132Y-55654806D01*
X137071381Y-55702430D01*
X137166630Y-55702430D01*
X137261878Y-55654806D01*
X137309502Y-55607182D01*
X137357127Y-55511933D01*
X137404751Y-55321436D01*
X137404751Y-55083315D01*
X137357127Y-54892817D01*
X137309502Y-54797569D01*
X137261878Y-54749945D01*
X137166630Y-54702320D01*
X136452265Y-54797569D02*
X136404641Y-54749945D01*
X136309392Y-54702320D01*
X136071271Y-54702320D01*
X135976022Y-54749945D01*
X135928398Y-54797569D01*
X135880774Y-54892817D01*
X135880774Y-54988066D01*
X135928398Y-55130939D01*
X136499890Y-55702430D01*
X135880774Y-55702430D01*
X131960769Y-61695132D02*
X131913092Y-61742810D01*
X131865414Y-61838166D01*
X131865414Y-62076555D01*
X131913092Y-62171911D01*
X131960769Y-62219589D01*
X132056125Y-62267267D01*
X132151481Y-62267267D01*
X132294515Y-62219589D01*
X132866650Y-61647454D01*
X132866650Y-62267267D01*
X141762649Y-62294232D02*
X141762649Y-61722767D01*
X141762649Y-62008500D02*
X140762586Y-62008500D01*
X140905452Y-61913255D01*
X141000696Y-61818011D01*
X141048318Y-61722767D01*
%TO.C,J602*%
X138785855Y-281952320D02*
X138785855Y-282666685D01*
X138833480Y-282809557D01*
X138928728Y-282904806D01*
X139071601Y-282952430D01*
X139166850Y-282952430D01*
X137880994Y-281952320D02*
X138071491Y-281952320D01*
X138166740Y-281999945D01*
X138214364Y-282047569D01*
X138309612Y-282190442D01*
X138357237Y-282380939D01*
X138357237Y-282761933D01*
X138309612Y-282857182D01*
X138261988Y-282904806D01*
X138166740Y-282952430D01*
X137976242Y-282952430D01*
X137880994Y-282904806D01*
X137833370Y-282857182D01*
X137785745Y-282761933D01*
X137785745Y-282523812D01*
X137833370Y-282428563D01*
X137880994Y-282380939D01*
X137976242Y-282333315D01*
X138166740Y-282333315D01*
X138261988Y-282380939D01*
X138309612Y-282428563D01*
X138357237Y-282523812D01*
X137166630Y-281952320D02*
X137071381Y-281952320D01*
X136976132Y-281999945D01*
X136928508Y-282047569D01*
X136880884Y-282142817D01*
X136833260Y-282333315D01*
X136833260Y-282571436D01*
X136880884Y-282761933D01*
X136928508Y-282857182D01*
X136976132Y-282904806D01*
X137071381Y-282952430D01*
X137166630Y-282952430D01*
X137261878Y-282904806D01*
X137309502Y-282857182D01*
X137357127Y-282761933D01*
X137404751Y-282571436D01*
X137404751Y-282333315D01*
X137357127Y-282142817D01*
X137309502Y-282047569D01*
X137261878Y-281999945D01*
X137166630Y-281952320D01*
X136452265Y-282047569D02*
X136404641Y-281999945D01*
X136309392Y-281952320D01*
X136071271Y-281952320D01*
X135976022Y-281999945D01*
X135928398Y-282047569D01*
X135880774Y-282142817D01*
X135880774Y-282238066D01*
X135928398Y-282380939D01*
X136499890Y-282952430D01*
X135880774Y-282952430D01*
X141762649Y-289544232D02*
X141762649Y-288972767D01*
X141762649Y-289258500D02*
X140762586Y-289258500D01*
X140905452Y-289163255D01*
X141000696Y-289068011D01*
X141048318Y-288972767D01*
X131960769Y-288945132D02*
X131913092Y-288992810D01*
X131865414Y-289088166D01*
X131865414Y-289326555D01*
X131913092Y-289421911D01*
X131960769Y-289469589D01*
X132056125Y-289517267D01*
X132151481Y-289517267D01*
X132294515Y-289469589D01*
X132866650Y-288897454D01*
X132866650Y-289517267D01*
%TO.C,J1*%
X137833370Y-357702320D02*
X137833370Y-358416685D01*
X137880994Y-358559557D01*
X137976242Y-358654806D01*
X138119115Y-358702430D01*
X138214364Y-358702430D01*
X136833260Y-358702430D02*
X137404751Y-358702430D01*
X137119005Y-358702430D02*
X137119005Y-357702320D01*
X137214254Y-357845193D01*
X137309502Y-357940442D01*
X137404751Y-357988066D01*
X131960769Y-364695132D02*
X131913092Y-364742810D01*
X131865414Y-364838166D01*
X131865414Y-365076555D01*
X131913092Y-365171911D01*
X131960769Y-365219589D01*
X132056125Y-365267267D01*
X132151481Y-365267267D01*
X132294515Y-365219589D01*
X132866650Y-364647454D01*
X132866650Y-365267267D01*
X141762649Y-365294232D02*
X141762649Y-364722767D01*
X141762649Y-365008500D02*
X140762586Y-365008500D01*
X140905452Y-364913255D01*
X141000696Y-364818011D01*
X141048318Y-364722767D01*
%TO.C,J2*%
X137833370Y-433452320D02*
X137833370Y-434166685D01*
X137880994Y-434309557D01*
X137976242Y-434404806D01*
X138119115Y-434452430D01*
X138214364Y-434452430D01*
X137404751Y-433547569D02*
X137357127Y-433499945D01*
X137261878Y-433452320D01*
X137023757Y-433452320D01*
X136928508Y-433499945D01*
X136880884Y-433547569D01*
X136833260Y-433642817D01*
X136833260Y-433738066D01*
X136880884Y-433880939D01*
X137452375Y-434452430D01*
X136833260Y-434452430D01*
X140857830Y-440472767D02*
X140857830Y-441044232D01*
X140857830Y-440758500D02*
X141857893Y-440758500D01*
X141715027Y-440853744D01*
X141619783Y-440948988D01*
X141572161Y-441044232D01*
X132866650Y-441017267D02*
X132914328Y-440969589D01*
X132962005Y-440874233D01*
X132962005Y-440635844D01*
X132914328Y-440540488D01*
X132866650Y-440492810D01*
X132771294Y-440445132D01*
X132675938Y-440445132D01*
X132532904Y-440492810D01*
X131960769Y-441064945D01*
X131960769Y-440445132D01*
%TD*%
M02*
