M48
; DRILL file {KiCad (5.1.9-0-10_14)} date Thursday, May 27, 2021 at 09:53:47 AM
; FORMAT={-:-/ absolute / inch / decimal}
; #@! TF.CreationDate,2021-05-27T09:53:47-04:00
; #@! TF.GenerationSoftware,Kicad,Pcbnew,(5.1.9-0-10_14)
FMAT,2
INCH
T1C0.0120
T2C0.0157
T3C0.0571
%
G90
G05
T1
X5.0217Y-3.4449
X5.0217Y-9.4094
X5.0217Y-15.374
X5.0232Y-2.2634
X5.0232Y-8.228
X5.0232Y-14.1925
X5.0252Y-2.3028
X5.0252Y-6.2004
X5.0252Y-6.2398
X5.0252Y-6.3185
X5.0252Y-6.3579
X5.0252Y-6.4366
X5.0252Y-6.476
X5.0252Y-6.5547
X5.0252Y-6.5941
X5.0252Y-6.6728
X5.0252Y-6.7122
X5.0252Y-6.7909
X5.0252Y-6.8303
X5.0252Y-6.9091
X5.0252Y-6.9484
X5.0252Y-7.0272
X5.0252Y-7.0665
X5.0252Y-7.1453
X5.0252Y-7.1846
X5.0252Y-7.2634
X5.0252Y-7.3028
X5.0252Y-7.3815
X5.0252Y-7.4209
X5.0252Y-8.2673
X5.0252Y-12.165
X5.0252Y-12.2043
X5.0252Y-12.2831
X5.0252Y-12.3224
X5.0252Y-12.4012
X5.0252Y-12.4406
X5.0252Y-12.5193
X5.0252Y-12.5587
X5.0252Y-12.6374
X5.0252Y-12.6768
X5.0252Y-12.7555
X5.0252Y-12.7949
X5.0252Y-12.8736
X5.0252Y-12.913
X5.0252Y-12.9917
X5.0252Y-13.0311
X5.0252Y-13.1098
X5.0252Y-13.1492
X5.0252Y-13.228
X5.0252Y-13.2673
X5.0252Y-13.3461
X5.0252Y-13.3854
X5.0252Y-14.2319
X5.0252Y-18.1295
X5.0252Y-18.1689
X5.0252Y-18.2476
X5.0252Y-18.287
X5.0252Y-18.3657
X5.0252Y-18.4051
X5.0252Y-18.4839
X5.0252Y-18.5232
X5.0252Y-18.602
X5.0252Y-18.6413
X5.0252Y-18.7201
X5.0252Y-18.7594
X5.0252Y-18.8382
X5.0252Y-18.8776
X5.0252Y-18.9563
X5.0252Y-18.9957
X5.0252Y-19.0744
X5.0252Y-19.1138
X5.0252Y-19.1925
X5.0252Y-19.2319
X5.0252Y-19.3106
X5.0252Y-19.35
X5.0256Y-2.3819
X5.0256Y-2.4213
X5.0256Y-2.5
X5.0256Y-2.5394
X5.0256Y-2.6181
X5.0256Y-2.6575
X5.0256Y-2.7362
X5.0256Y-2.7756
X5.0256Y-2.8543
X5.0256Y-2.8937
X5.0256Y-2.9724
X5.0256Y-3.0118
X5.0256Y-3.0906
X5.0256Y-3.1299
X5.0256Y-3.2087
X5.0256Y-3.248
X5.0256Y-3.3268
X5.0256Y-3.3661
X5.0256Y-8.3465
X5.0256Y-8.3858
X5.0256Y-8.4646
X5.0256Y-8.5039
X5.0256Y-8.5827
X5.0256Y-8.622
X5.0256Y-8.7008
X5.0256Y-8.7402
X5.0256Y-8.8189
X5.0256Y-8.8583
X5.0256Y-8.937
X5.0256Y-8.9764
X5.0256Y-9.0551
X5.0256Y-9.0945
X5.0256Y-9.1732
X5.0256Y-9.2126
X5.0256Y-9.2913
X5.0256Y-9.3307
X5.0256Y-14.311
X5.0256Y-14.3504
X5.0256Y-14.4291
X5.0256Y-14.4685
X5.0256Y-14.5472
X5.0256Y-14.5866
X5.0256Y-14.6654
X5.0256Y-14.7047
X5.0256Y-14.7835
X5.0256Y-14.8228
X5.0256Y-14.9016
X5.0256Y-14.9409
X5.0256Y-15.0197
X5.0256Y-15.0591
X5.0256Y-15.1378
X5.0256Y-15.1772
X5.0256Y-15.2559
X5.0256Y-15.2953
X5.0319Y-4.2126
X5.0319Y-4.2913
X5.0319Y-4.3307
X5.0319Y-4.4094
X5.0319Y-4.4488
X5.0319Y-4.5276
X5.0319Y-4.5669
X5.0319Y-4.6457
X5.0319Y-4.685
X5.0319Y-4.7638
X5.0319Y-4.8031
X5.0319Y-4.8819
X5.0319Y-4.9213
X5.0319Y-5.0
X5.0319Y-5.0394
X5.0319Y-5.1181
X5.0319Y-5.1575
X5.0319Y-5.2362
X5.0319Y-5.2756
X5.0319Y-5.3543
X5.0319Y-5.3937
X5.0319Y-10.1772
X5.0319Y-10.2559
X5.0319Y-10.2953
X5.0319Y-10.374
X5.0319Y-10.4134
X5.0319Y-10.4921
X5.0319Y-10.5315
X5.0319Y-10.6102
X5.0319Y-10.6496
X5.0319Y-10.7283
X5.0319Y-10.7677
X5.0319Y-10.8465
X5.0319Y-10.8858
X5.0319Y-10.9646
X5.0319Y-11.0039
X5.0319Y-11.0827
X5.0319Y-11.122
X5.0319Y-11.2008
X5.0319Y-11.2402
X5.0319Y-11.3189
X5.0319Y-11.3583
X5.0319Y-16.1417
X5.0319Y-16.2205
X5.0319Y-16.2598
X5.0319Y-16.3386
X5.0319Y-16.378
X5.0319Y-16.4567
X5.0319Y-16.4961
X5.0319Y-16.5748
X5.0319Y-16.6142
X5.0319Y-16.6929
X5.0319Y-16.7323
X5.0319Y-16.811
X5.0319Y-16.8504
X5.0319Y-16.9291
X5.0319Y-16.9685
X5.0319Y-17.0472
X5.0319Y-17.0866
X5.0319Y-17.1654
X5.0319Y-17.2047
X5.0319Y-17.2835
X5.0319Y-17.3228
X5.2677Y-2.4587
X5.2677Y-2.4902
X5.2677Y-2.5531
X5.2677Y-2.5846
X5.2677Y-2.6476
X5.2677Y-2.6791
X5.2677Y-2.7736
X5.2677Y-2.8051
X5.2677Y-2.8681
X5.2677Y-2.8996
X5.2677Y-2.9626
X5.2677Y-3.0256
X5.2677Y-3.0886
X5.2677Y-3.1201
X5.2677Y-3.1831
X5.2677Y-3.2146
X5.2677Y-3.3091
X5.2677Y-3.3406
X5.2677Y-3.4035
X5.2677Y-3.435
X5.2677Y-3.498
X5.2677Y-3.5295
X5.2677Y-6.0709
X5.2677Y-6.1339
X5.2677Y-6.1654
X5.2677Y-6.2283
X5.2677Y-6.2598
X5.2677Y-6.3543
X5.2677Y-6.3858
X5.2677Y-6.4488
X5.2677Y-6.4803
X5.2677Y-6.5433
X5.2677Y-6.5748
X5.2677Y-6.6693
X5.2677Y-6.7008
X5.2677Y-6.7638
X5.2677Y-6.7953
X5.2677Y-6.8583
X5.2677Y-6.9213
X5.2677Y-6.9843
X5.2677Y-7.0157
X5.2677Y-7.0787
X5.2677Y-7.1102
X5.2677Y-8.4232
X5.2677Y-8.4547
X5.2677Y-8.5177
X5.2677Y-8.5492
X5.2677Y-8.6122
X5.2677Y-8.6437
X5.2677Y-8.7382
X5.2677Y-8.7697
X5.2677Y-8.8327
X5.2677Y-8.8642
X5.2677Y-8.9272
X5.2677Y-8.9902
X5.2677Y-9.0531
X5.2677Y-9.0846
X5.2677Y-9.1476
X5.2677Y-9.1791
X5.2677Y-9.2736
X5.2677Y-9.3051
X5.2677Y-9.3681
X5.2677Y-9.3996
X5.2677Y-9.4626
X5.2677Y-9.4941
X5.2677Y-12.0354
X5.2677Y-12.0984
X5.2677Y-12.1299
X5.2677Y-12.1929
X5.2677Y-12.2244
X5.2677Y-12.3189
X5.2677Y-12.3504
X5.2677Y-12.4134
X5.2677Y-12.4449
X5.2677Y-12.5079
X5.2677Y-12.5394
X5.2677Y-12.6339
X5.2677Y-12.6654
X5.2677Y-12.7283
X5.2677Y-12.7598
X5.2677Y-12.8228
X5.2677Y-12.8858
X5.2677Y-12.9488
X5.2677Y-12.9803
X5.2677Y-13.0433
X5.2677Y-13.0748
X5.2677Y-14.3878
X5.2677Y-14.4193
X5.2677Y-14.4823
X5.2677Y-14.5138
X5.2677Y-14.5768
X5.2677Y-14.6083
X5.2677Y-14.7028
X5.2677Y-14.7343
X5.2677Y-14.7972
X5.2677Y-14.8287
X5.2677Y-14.8917
X5.2677Y-14.9547
X5.2677Y-15.0177
X5.2677Y-15.0492
X5.2677Y-15.1122
X5.2677Y-15.1437
X5.2677Y-15.2382
X5.2677Y-15.2697
X5.2677Y-15.3327
X5.2677Y-15.3642
X5.2677Y-15.4272
X5.2677Y-15.4587
X5.2677Y-18.0
X5.2677Y-18.063
X5.2677Y-18.0945
X5.2677Y-18.1575
X5.2677Y-18.189
X5.2677Y-18.2835
X5.2677Y-18.315
X5.2677Y-18.378
X5.2677Y-18.4094
X5.2677Y-18.4724
X5.2677Y-18.5039
X5.2677Y-18.5984
X5.2677Y-18.6299
X5.2677Y-18.6929
X5.2677Y-18.7244
X5.2677Y-18.7874
X5.2677Y-18.8504
X5.2677Y-18.9134
X5.2677Y-18.9449
X5.2677Y-19.0079
X5.2677Y-19.0394
X5.2681Y-3.75
X5.2681Y-3.7815
X5.2681Y-3.8445
X5.2681Y-3.876
X5.2681Y-3.939
X5.2681Y-4.002
X5.2681Y-4.065
X5.2681Y-4.0965
X5.2681Y-4.1594
X5.2681Y-4.1909
X5.2681Y-4.2854
X5.2681Y-5.4094
X5.2681Y-5.4724
X5.2681Y-5.5039
X5.2681Y-5.5669
X5.2681Y-5.5984
X5.2681Y-5.6929
X5.2681Y-5.7244
X5.2681Y-5.7874
X5.2681Y-5.8189
X5.2681Y-5.8819
X5.2681Y-9.7146
X5.2681Y-9.7461
X5.2681Y-9.8091
X5.2681Y-9.8406
X5.2681Y-9.9035
X5.2681Y-9.9665
X5.2681Y-10.0295
X5.2681Y-10.061
X5.2681Y-10.124
X5.2681Y-10.1555
X5.2681Y-10.25
X5.2681Y-11.374
X5.2681Y-11.437
X5.2681Y-11.4685
X5.2681Y-11.5315
X5.2681Y-11.563
X5.2681Y-11.6575
X5.2681Y-11.689
X5.2681Y-11.752
X5.2681Y-11.7835
X5.2681Y-11.8465
X5.2681Y-15.6791
X5.2681Y-15.7106
X5.2681Y-15.7736
X5.2681Y-15.8051
X5.2681Y-15.8681
X5.2681Y-15.9311
X5.2681Y-15.9941
X5.2681Y-16.0256
X5.2681Y-16.0886
X5.2681Y-16.1201
X5.2681Y-16.2146
X5.2681Y-17.3386
X5.2681Y-17.4016
X5.2681Y-17.4331
X5.2681Y-17.4961
X5.2681Y-17.5276
X5.2681Y-17.622
X5.2681Y-17.6535
X5.2681Y-17.7165
X5.2681Y-17.748
X5.2681Y-17.811
X5.5581Y-3.75
X5.5581Y-3.7815
X5.5581Y-3.8445
X5.5581Y-3.876
X5.5581Y-3.9389
X5.5581Y-4.0019
X5.5581Y-4.0649
X5.5581Y-4.0964
X5.5581Y-4.1594
X5.5581Y-4.1909
X5.5581Y-4.2854
X5.5581Y-9.7145
X5.5581Y-9.746
X5.5581Y-9.809
X5.5581Y-9.8405
X5.5581Y-9.9035
X5.5581Y-9.9665
X5.5581Y-10.0295
X5.5581Y-10.061
X5.5581Y-10.124
X5.5581Y-10.1555
X5.5581Y-10.25
X5.5581Y-15.6791
X5.5581Y-15.7106
X5.5581Y-15.7736
X5.5581Y-15.8051
X5.5581Y-15.8681
X5.5581Y-15.9311
X5.5581Y-15.9941
X5.5581Y-16.0256
X5.5581Y-16.0886
X5.5581Y-16.12
X5.5581Y-16.2145
X5.5591Y-2.4587
X5.5591Y-2.4902
X5.5591Y-2.5531
X5.5591Y-2.5846
X5.5591Y-2.6476
X5.5591Y-2.6791
X5.5591Y-2.7736
X5.5591Y-2.8051
X5.5591Y-2.8681
X5.5591Y-2.8996
X5.5591Y-2.9626
X5.5591Y-3.0256
X5.5591Y-3.0886
X5.5591Y-3.1201
X5.5591Y-3.1831
X5.5591Y-3.2146
X5.5591Y-3.3091
X5.5591Y-3.3406
X5.5591Y-3.4035
X5.5591Y-3.435
X5.5591Y-3.498
X5.5591Y-3.5295
X5.5591Y-5.4094
X5.5591Y-5.4724
X5.5591Y-5.5039
X5.5591Y-5.5669
X5.5591Y-5.5984
X5.5591Y-5.6929
X5.5591Y-5.7244
X5.5591Y-5.7874
X5.5591Y-5.8189
X5.5591Y-5.8819
X5.5591Y-8.4232
X5.5591Y-8.4547
X5.5591Y-8.5177
X5.5591Y-8.5492
X5.5591Y-8.6122
X5.5591Y-8.6437
X5.5591Y-8.7382
X5.5591Y-8.7697
X5.5591Y-8.8327
X5.5591Y-8.8642
X5.5591Y-8.9272
X5.5591Y-8.9902
X5.5591Y-9.0531
X5.5591Y-9.0846
X5.5591Y-9.1476
X5.5591Y-9.1791
X5.5591Y-9.2736
X5.5591Y-9.3051
X5.5591Y-9.3681
X5.5591Y-9.3996
X5.5591Y-9.4626
X5.5591Y-9.4941
X5.5591Y-11.374
X5.5591Y-11.437
X5.5591Y-11.4685
X5.5591Y-11.5315
X5.5591Y-11.563
X5.5591Y-11.6575
X5.5591Y-11.689
X5.5591Y-11.752
X5.5591Y-11.7835
X5.5591Y-11.8465
X5.5591Y-14.3878
X5.5591Y-14.4193
X5.5591Y-14.4823
X5.5591Y-14.5138
X5.5591Y-14.5768
X5.5591Y-14.6083
X5.5591Y-14.7028
X5.5591Y-14.7343
X5.5591Y-14.7972
X5.5591Y-14.8287
X5.5591Y-14.8917
X5.5591Y-14.9547
X5.5591Y-15.0177
X5.5591Y-15.0492
X5.5591Y-15.1122
X5.5591Y-15.1437
X5.5591Y-15.2382
X5.5591Y-15.2697
X5.5591Y-15.3327
X5.5591Y-15.3642
X5.5591Y-15.4272
X5.5591Y-15.4587
X5.5591Y-17.3386
X5.5591Y-17.4016
X5.5591Y-17.4331
X5.5591Y-17.4961
X5.5591Y-17.5276
X5.5591Y-17.622
X5.5591Y-17.6535
X5.5591Y-17.7165
X5.5591Y-17.748
X5.5591Y-17.811
X5.5594Y-6.0709
X5.5594Y-6.1339
X5.5594Y-6.1654
X5.5594Y-6.2283
X5.5594Y-6.2598
X5.5594Y-6.3543
X5.5594Y-6.3858
X5.5594Y-6.4488
X5.5594Y-6.4803
X5.5594Y-6.5433
X5.5594Y-6.5748
X5.5594Y-6.6693
X5.5594Y-6.7008
X5.5594Y-6.7638
X5.5594Y-6.7953
X5.5594Y-6.8583
X5.5594Y-6.9213
X5.5594Y-6.9843
X5.5594Y-7.0157
X5.5594Y-7.0787
X5.5594Y-7.1102
X5.5594Y-12.0354
X5.5594Y-12.0984
X5.5594Y-12.1299
X5.5594Y-12.1929
X5.5594Y-12.2244
X5.5594Y-12.3189
X5.5594Y-12.3504
X5.5594Y-12.4134
X5.5594Y-12.4449
X5.5594Y-12.5079
X5.5594Y-12.5394
X5.5594Y-12.6339
X5.5594Y-12.6654
X5.5594Y-12.7283
X5.5594Y-12.7598
X5.5594Y-12.8228
X5.5594Y-12.8858
X5.5594Y-12.9488
X5.5594Y-12.9803
X5.5594Y-13.0433
X5.5594Y-13.0748
X5.5594Y-18.0
X5.5594Y-18.063
X5.5594Y-18.0945
X5.5594Y-18.1575
X5.5594Y-18.189
X5.5594Y-18.2835
X5.5594Y-18.315
X5.5594Y-18.378
X5.5594Y-18.4094
X5.5594Y-18.4724
X5.5594Y-18.5039
X5.5594Y-18.5984
X5.5594Y-18.6299
X5.5594Y-18.6929
X5.5594Y-18.7244
X5.5594Y-18.7874
X5.5594Y-18.8504
X5.5594Y-18.9134
X5.5594Y-18.9449
X5.5594Y-19.0079
X5.5594Y-19.0394
X5.7944Y-4.2126
X5.7944Y-4.2913
X5.7944Y-4.3307
X5.7944Y-4.4094
X5.7944Y-4.4488
X5.7944Y-4.5275
X5.7944Y-4.5669
X5.7944Y-4.6456
X5.7944Y-4.685
X5.7944Y-4.7637
X5.7944Y-4.8031
X5.7944Y-10.1771
X5.7944Y-10.2559
X5.7944Y-10.2952
X5.7944Y-10.374
X5.7944Y-10.4134
X5.7944Y-10.4921
X5.7944Y-10.5315
X5.7944Y-10.6102
X5.7944Y-10.6496
X5.7944Y-10.7283
X5.7944Y-10.7677
X5.7944Y-16.1417
X5.7944Y-16.2204
X5.7944Y-16.2598
X5.7944Y-16.3386
X5.7944Y-16.3779
X5.7944Y-16.4567
X5.7944Y-16.496
X5.7944Y-16.5748
X5.7944Y-16.6141
X5.7944Y-16.6929
X5.7944Y-16.7323
X5.7953Y-4.8819
X5.7953Y-4.9213
X5.7953Y-5.0
X5.7953Y-5.0394
X5.7953Y-5.1181
X5.7953Y-5.1575
X5.7953Y-5.2362
X5.7953Y-5.2756
X5.7953Y-5.3543
X5.7953Y-5.3937
X5.7953Y-10.8465
X5.7953Y-10.8858
X5.7953Y-10.9646
X5.7953Y-11.0039
X5.7953Y-11.0827
X5.7953Y-11.122
X5.7953Y-11.2008
X5.7953Y-11.2402
X5.7953Y-11.3189
X5.7953Y-11.3583
X5.7953Y-16.811
X5.7953Y-16.8504
X5.7953Y-16.9291
X5.7953Y-16.9685
X5.7953Y-17.0472
X5.7953Y-17.0866
X5.7953Y-17.1654
X5.7953Y-17.2047
X5.7953Y-17.2835
X5.7953Y-17.3228
X5.8012Y-2.3819
X5.8012Y-2.4213
X5.8012Y-2.5
X5.8012Y-2.5394
X5.8012Y-2.6181
X5.8012Y-2.6575
X5.8012Y-2.7362
X5.8012Y-2.7756
X5.8012Y-2.8543
X5.8012Y-2.8937
X5.8012Y-2.9724
X5.8012Y-3.0118
X5.8012Y-3.0906
X5.8012Y-3.1299
X5.8012Y-3.2087
X5.8012Y-3.248
X5.8012Y-3.3268
X5.8012Y-3.3661
X5.8012Y-8.3465
X5.8012Y-8.3858
X5.8012Y-8.4646
X5.8012Y-8.5039
X5.8012Y-8.5827
X5.8012Y-8.622
X5.8012Y-8.7008
X5.8012Y-8.7402
X5.8012Y-8.8189
X5.8012Y-8.8583
X5.8012Y-8.937
X5.8012Y-8.9764
X5.8012Y-9.0551
X5.8012Y-9.0945
X5.8012Y-9.1732
X5.8012Y-9.2126
X5.8012Y-9.2913
X5.8012Y-9.3307
X5.8012Y-14.311
X5.8012Y-14.3504
X5.8012Y-14.4291
X5.8012Y-14.4685
X5.8012Y-14.5472
X5.8012Y-14.5866
X5.8012Y-14.6654
X5.8012Y-14.7047
X5.8012Y-14.7835
X5.8012Y-14.8228
X5.8012Y-14.9016
X5.8012Y-14.9409
X5.8012Y-15.0197
X5.8012Y-15.0591
X5.8012Y-15.1378
X5.8012Y-15.1772
X5.8012Y-15.2559
X5.8012Y-15.2953
X5.8016Y-2.3028
X5.8016Y-8.2673
X5.8016Y-14.2319
X5.802Y-6.2004
X5.802Y-6.2398
X5.802Y-6.3185
X5.802Y-6.3579
X5.802Y-6.4366
X5.802Y-6.476
X5.802Y-6.5547
X5.802Y-6.5941
X5.802Y-6.6728
X5.802Y-6.7122
X5.802Y-6.7909
X5.802Y-6.8303
X5.802Y-6.9091
X5.802Y-6.9484
X5.802Y-7.0272
X5.802Y-7.0665
X5.802Y-7.1453
X5.802Y-7.1846
X5.802Y-7.2634
X5.802Y-7.3028
X5.802Y-7.3815
X5.802Y-7.4209
X5.802Y-12.165
X5.802Y-12.2043
X5.802Y-12.2831
X5.802Y-12.3224
X5.802Y-12.4012
X5.802Y-12.4406
X5.802Y-12.5193
X5.802Y-12.5587
X5.802Y-12.6374
X5.802Y-12.6768
X5.802Y-12.7555
X5.802Y-12.7949
X5.802Y-12.8736
X5.802Y-12.913
X5.802Y-12.9917
X5.802Y-13.0311
X5.802Y-13.1098
X5.802Y-13.1492
X5.802Y-13.228
X5.802Y-13.2673
X5.802Y-13.3461
X5.802Y-13.3854
X5.802Y-18.1295
X5.802Y-18.1689
X5.802Y-18.2476
X5.802Y-18.287
X5.802Y-18.3657
X5.802Y-18.4051
X5.802Y-18.4839
X5.802Y-18.5232
X5.802Y-18.602
X5.802Y-18.6413
X5.802Y-18.7201
X5.802Y-18.7594
X5.802Y-18.8382
X5.802Y-18.8776
X5.802Y-18.9563
X5.802Y-18.9957
X5.802Y-19.0744
X5.802Y-19.1138
X5.802Y-19.1925
X5.802Y-19.2319
X5.802Y-19.3106
X5.802Y-19.35
X5.8035Y-2.2634
X5.8035Y-8.228
X5.8035Y-14.1925
X5.8051Y-3.4449
X5.8051Y-9.4094
X5.8051Y-15.374
T2
X4.7441Y-5.9449
X4.7441Y-11.9094
X4.7441Y-17.874
X4.7894Y-6.2598
X4.7894Y-6.3386
X4.7894Y-6.4173
X4.7894Y-6.4961
X4.7894Y-6.5748
X4.7894Y-6.6535
X4.7894Y-6.7323
X4.7894Y-6.811
X4.7894Y-6.8898
X4.7894Y-6.9685
X4.7894Y-7.0472
X4.7894Y-7.126
X4.7894Y-7.2047
X4.7894Y-7.2835
X4.7894Y-7.3622
X4.7894Y-7.4409
X4.7894Y-12.2244
X4.7894Y-12.3031
X4.7894Y-12.3819
X4.7894Y-12.4606
X4.7894Y-12.5394
X4.7894Y-12.6181
X4.7894Y-12.6969
X4.7894Y-12.7756
X4.7894Y-12.8543
X4.7894Y-12.9331
X4.7894Y-13.0118
X4.7894Y-13.0906
X4.7894Y-13.1693
X4.7894Y-13.248
X4.7894Y-13.3268
X4.7894Y-13.4055
X4.7894Y-18.189
X4.7894Y-18.2677
X4.7894Y-18.3465
X4.7894Y-18.4252
X4.7894Y-18.5039
X4.7894Y-18.5827
X4.7894Y-18.6614
X4.7894Y-18.7402
X4.7894Y-18.8189
X4.7894Y-18.8976
X4.7894Y-18.9764
X4.7894Y-19.0551
X4.7894Y-19.1339
X4.7894Y-19.2126
X4.7894Y-19.2913
X4.7894Y-19.3701
X4.7906Y-2.2831
X4.7906Y-2.3618
X4.7906Y-2.4406
X4.7906Y-2.5193
X4.7906Y-2.598
X4.7906Y-2.6768
X4.7906Y-2.7555
X4.7906Y-2.8343
X4.7906Y-2.913
X4.7906Y-2.9917
X4.7906Y-3.0705
X4.7906Y-3.1492
X4.7906Y-3.228
X4.7906Y-3.3067
X4.7906Y-3.3854
X4.7906Y-3.4642
X4.7906Y-8.2476
X4.7906Y-8.3264
X4.7906Y-8.4051
X4.7906Y-8.4839
X4.7906Y-8.5626
X4.7906Y-8.6413
X4.7906Y-8.7201
X4.7906Y-8.7988
X4.7906Y-8.8776
X4.7906Y-8.9563
X4.7906Y-9.035
X4.7906Y-9.1138
X4.7906Y-9.1925
X4.7906Y-9.2713
X4.7906Y-9.35
X4.7906Y-9.4287
X4.7906Y-14.2122
X4.7906Y-14.2909
X4.7906Y-14.3697
X4.7906Y-14.4484
X4.7906Y-14.5272
X4.7906Y-14.6059
X4.7906Y-14.6846
X4.7906Y-14.7634
X4.7906Y-14.8421
X4.7906Y-14.9209
X4.7906Y-14.9996
X4.7906Y-15.0783
X4.7906Y-15.1571
X4.7906Y-15.2358
X4.7906Y-15.3146
X4.7906Y-15.3933
X4.7996Y-4.2717
X4.7996Y-4.3504
X4.7996Y-4.4291
X4.7996Y-4.5079
X4.7996Y-4.5866
X4.7996Y-4.6654
X4.7996Y-4.7441
X4.7996Y-4.8228
X4.7996Y-4.9016
X4.7996Y-4.9803
X4.7996Y-5.0591
X4.7996Y-5.1378
X4.7996Y-5.2165
X4.7996Y-5.2953
X4.7996Y-5.374
X4.7996Y-5.4528
X4.7996Y-10.2362
X4.7996Y-10.315
X4.7996Y-10.3937
X4.7996Y-10.4724
X4.7996Y-10.5512
X4.7996Y-10.6299
X4.7996Y-10.7087
X4.7996Y-10.7874
X4.7996Y-10.8661
X4.7996Y-10.9449
X4.7996Y-11.0236
X4.7996Y-11.1024
X4.7996Y-11.1811
X4.7996Y-11.2598
X4.7996Y-11.3386
X4.7996Y-11.4173
X4.7996Y-16.2008
X4.7996Y-16.2795
X4.7996Y-16.3583
X4.7996Y-16.437
X4.7996Y-16.5157
X4.7996Y-16.5945
X4.7996Y-16.6732
X4.7996Y-16.752
X4.7996Y-16.8307
X4.7996Y-16.9094
X4.7996Y-16.9882
X4.7996Y-17.0669
X4.7996Y-17.1457
X4.7996Y-17.2244
X4.7996Y-17.3031
X4.7996Y-17.3819
X4.8476Y-3.6559
X4.8476Y-9.6205
X4.8476Y-15.585
X4.8479Y-6.0077
X4.8479Y-7.6344
X4.8479Y-11.9723
X4.8479Y-13.599
X4.8479Y-17.9368
X4.8479Y-19.5636
X4.9114Y-3.5925
X4.9114Y-7.5591
X4.9114Y-9.5571
X4.9114Y-13.5236
X4.9114Y-15.5217
X4.9114Y-19.4882
X5.374Y-3.5433
X5.374Y-9.5079
X5.374Y-15.4724
X5.3756Y-7.2362
X5.3756Y-13.2008
X5.3756Y-19.1654
X5.376Y-2.4272
X5.376Y-2.7106
X5.376Y-2.9941
X5.376Y-3.2776
X5.376Y-6.3228
X5.376Y-6.6063
X5.376Y-6.8898
X5.376Y-7.1732
X5.376Y-8.3917
X5.376Y-8.6752
X5.376Y-8.9587
X5.376Y-9.2421
X5.376Y-12.2874
X5.376Y-12.5709
X5.376Y-12.8543
X5.376Y-13.1378
X5.376Y-14.3563
X5.376Y-14.6398
X5.376Y-14.9232
X5.376Y-15.2067
X5.376Y-18.252
X5.376Y-18.5354
X5.376Y-18.8189
X5.376Y-19.1024
X5.3764Y-3.687
X5.3764Y-3.9705
X5.3764Y-4.2539
X5.3764Y-5.6299
X5.3764Y-6.0394
X5.3764Y-9.6516
X5.3764Y-9.935
X5.3764Y-10.2185
X5.3764Y-11.5945
X5.3764Y-12.0039
X5.3764Y-15.6161
X5.3764Y-15.8996
X5.3764Y-16.1831
X5.3764Y-17.5591
X5.3764Y-17.9685
X5.3783Y-5.8957
X5.3783Y-11.8602
X5.3783Y-17.8248
X5.4118Y-5.9764
X5.4118Y-11.9409
X5.4118Y-17.9055
X5.4134Y-3.5787
X5.4134Y-3.626
X5.4134Y-9.5433
X5.4134Y-9.5906
X5.4134Y-15.5079
X5.4134Y-15.5551
X5.4138Y-5.9311
X5.4138Y-11.8957
X5.4138Y-17.8602
X5.4488Y-5.8957
X5.4488Y-11.8602
X5.4488Y-17.8248
X5.4499Y-3.9704
X5.4499Y-4.2539
X5.4499Y-9.935
X5.4499Y-10.2185
X5.4499Y-15.8996
X5.4499Y-16.183
X5.4504Y-3.687
X5.4504Y-9.6516
X5.4504Y-15.6161
X5.4508Y-2.4272
X5.4508Y-2.7106
X5.4508Y-2.9941
X5.4508Y-3.2776
X5.4508Y-5.6299
X5.4508Y-6.0394
X5.4508Y-8.3917
X5.4508Y-8.6752
X5.4508Y-8.9587
X5.4508Y-9.2421
X5.4508Y-11.5945
X5.4508Y-12.0039
X5.4508Y-14.3563
X5.4508Y-14.6398
X5.4508Y-14.9232
X5.4508Y-15.2067
X5.4508Y-17.5591
X5.4508Y-17.9685
X5.4512Y-6.3228
X5.4512Y-6.6063
X5.4512Y-6.8898
X5.4512Y-7.1732
X5.4512Y-7.2362
X5.4512Y-12.2874
X5.4512Y-12.5709
X5.4512Y-12.8543
X5.4512Y-13.1378
X5.4512Y-13.2008
X5.4512Y-18.252
X5.4512Y-18.5354
X5.4512Y-18.8189
X5.4512Y-19.1024
X5.4512Y-19.1654
X5.4528Y-3.5433
X5.4528Y-9.5079
X5.4528Y-15.4724
X5.9154Y-3.5925
X5.9154Y-7.5591
X5.9154Y-9.5571
X5.9154Y-13.5236
X5.9154Y-15.5217
X5.9154Y-19.4882
X5.9789Y-7.6344
X5.9789Y-13.599
X5.9789Y-19.5636
X5.9791Y-3.6559
X5.9791Y-9.6205
X5.9791Y-15.585
X5.9793Y-6.0077
X5.9793Y-11.9723
X5.9793Y-17.9368
X6.0266Y-4.2716
X6.0266Y-4.3504
X6.0266Y-4.4291
X6.0266Y-4.5078
X6.0266Y-4.5866
X6.0266Y-4.6653
X6.0266Y-4.7441
X6.0266Y-4.8228
X6.0266Y-4.9015
X6.0266Y-4.9803
X6.0266Y-5.059
X6.0266Y-5.1378
X6.0266Y-5.2165
X6.0266Y-5.2952
X6.0266Y-5.374
X6.0266Y-5.4527
X6.0266Y-10.2362
X6.0266Y-10.3149
X6.0266Y-10.3937
X6.0266Y-10.4724
X6.0266Y-10.5511
X6.0266Y-10.6299
X6.0266Y-10.7086
X6.0266Y-10.7874
X6.0266Y-10.8661
X6.0266Y-10.9449
X6.0266Y-11.0236
X6.0266Y-11.1023
X6.0266Y-11.1811
X6.0266Y-11.2598
X6.0266Y-11.3386
X6.0266Y-11.4173
X6.0266Y-16.2008
X6.0266Y-16.2795
X6.0266Y-16.3582
X6.0266Y-16.437
X6.0266Y-16.5157
X6.0266Y-16.5945
X6.0266Y-16.6732
X6.0266Y-16.7519
X6.0266Y-16.8307
X6.0266Y-16.9094
X6.0266Y-16.9882
X6.0266Y-17.0669
X6.0266Y-17.1456
X6.0266Y-17.2244
X6.0266Y-17.3031
X6.0266Y-17.3819
X6.0346Y-2.2831
X6.0346Y-2.3618
X6.0346Y-2.4406
X6.0346Y-2.5193
X6.0346Y-2.598
X6.0346Y-2.6768
X6.0346Y-2.7555
X6.0346Y-2.8343
X6.0346Y-2.913
X6.0346Y-2.9917
X6.0346Y-3.0705
X6.0346Y-3.1492
X6.0346Y-3.228
X6.0346Y-3.3067
X6.0346Y-3.3854
X6.0346Y-3.4642
X6.0346Y-8.2476
X6.0346Y-8.3264
X6.0346Y-8.4051
X6.0346Y-8.4839
X6.0346Y-8.5626
X6.0346Y-8.6413
X6.0346Y-8.7201
X6.0346Y-8.7988
X6.0346Y-8.8776
X6.0346Y-8.9563
X6.0346Y-9.035
X6.0346Y-9.1138
X6.0346Y-9.1925
X6.0346Y-9.2713
X6.0346Y-9.35
X6.0346Y-9.4287
X6.0346Y-14.2122
X6.0346Y-14.2909
X6.0346Y-14.3697
X6.0346Y-14.4484
X6.0346Y-14.5272
X6.0346Y-14.6059
X6.0346Y-14.6846
X6.0346Y-14.7634
X6.0346Y-14.8421
X6.0346Y-14.9209
X6.0346Y-14.9996
X6.0346Y-15.0783
X6.0346Y-15.1571
X6.0346Y-15.2358
X6.0346Y-15.3146
X6.0346Y-15.3933
X6.0374Y-6.2598
X6.0374Y-6.3386
X6.0374Y-6.4173
X6.0374Y-6.4961
X6.0374Y-6.5748
X6.0374Y-6.6535
X6.0374Y-6.7323
X6.0374Y-6.811
X6.0374Y-6.8898
X6.0374Y-6.9685
X6.0374Y-7.0472
X6.0374Y-7.126
X6.0374Y-7.2047
X6.0374Y-7.2835
X6.0374Y-7.3622
X6.0374Y-7.4409
X6.0374Y-12.2244
X6.0374Y-12.3031
X6.0374Y-12.3819
X6.0374Y-12.4606
X6.0374Y-12.5394
X6.0374Y-12.6181
X6.0374Y-12.6969
X6.0374Y-12.7756
X6.0374Y-12.8543
X6.0374Y-12.9331
X6.0374Y-13.0118
X6.0374Y-13.0906
X6.0374Y-13.1693
X6.0374Y-13.248
X6.0374Y-13.3268
X6.0374Y-13.4055
X6.0374Y-18.189
X6.0374Y-18.2677
X6.0374Y-18.3465
X6.0374Y-18.4252
X6.0374Y-18.5039
X6.0374Y-18.5827
X6.0374Y-18.6614
X6.0374Y-18.7402
X6.0374Y-18.8189
X6.0374Y-18.8976
X6.0374Y-18.9764
X6.0374Y-19.0551
X6.0374Y-19.1339
X6.0374Y-19.2126
X6.0374Y-19.2913
X6.0374Y-19.3701
X6.0837Y-5.9449
X6.0837Y-11.9094
X6.0837Y-17.874
T3
X5.3543Y-2.3563
X5.3543Y-4.3563
X5.3543Y-5.3386
X5.3543Y-7.3386
X5.3543Y-8.3209
X5.3543Y-10.3209
X5.3543Y-11.3031
X5.3543Y-13.3031
X5.3543Y-14.2854
X5.3543Y-16.2854
X5.3543Y-17.2677
X5.3543Y-19.2677
T0
M30
