  0
SECTION
  2
HEADER
  9
$ANGBASE
  50
0.0
  9
$ANGDIR
  70
1
  9
$MEASUREMENT
  70
0
  0
ENDSEC
  0
SECTION
  2
TABLES
  0
TABLE
  2
LTYPE
  70
4
  0
LTYPE
  5
40F
  2
CONTINUOUS
  70
0
  3
Solid line
  72
65
  73
0
  40
0.0
  0
LTYPE
  5
410
  2
DASHDOT
 70
0
  3
Dash Dot ____ _ ____ _
 72
65
 73
4
 40
2.0
 49
1.25
 49
-0.25
 49
0.25
 49
-0.25
  0
LTYPE
  5
411
  2
DASHED
 70
0
  3
Dashed __ __ __ __ __
 72
65
 73
2
 40
0.75
 49
0.5
 49
-0.25
  0
LTYPE
  5
43B
  2
DOTTED
 70
0
  3
Dotted .  .  .  .
 72
65
 73
2
 40
0.2
 49
0.0
 49
-0.2
  0
ENDTAB
  0
TABLE
  2
STYLE
  70
4
  0
STYLE
  2
KICAD
  70
0
  40
0
  41
1
  42
1
  50
0
  71
0
  3
isocp.shx
  0
STYLE
  2
KICADB
  70
0
  40
0
  41
1
  42
1
  50
0
  71
0
  3
isocp.shx
  0
STYLE
  2
KICADI
  70
0
  40
0
  41
1
  42
1
  50
15
  71
0
  3
isocp.shx
  0
STYLE
  2
KICADBI
  70
0
  40
0
  41
1
  42
1
  50
15
  71
0
  3
isocp.shx
  0
ENDTAB
  0
TABLE
  2
LAYER
  70
1
  0
LAYER
  2
BLACK
  70
0
  62
7
  6
CONTINUOUS
  0
ENDTAB
  0
ENDSEC
  0
SECTION
  2
ENTITIES
0
LINE
8
BLACK
6
CONTINUOUS
10
21.313
20
-1.96752
11
21.3132
21
-1.96753
0
LINE
8
BLACK
6
CONTINUOUS
10
21.3132
20
-1.96753
11
21.3134
21
-1.96759
0
LINE
8
BLACK
6
CONTINUOUS
10
21.3134
20
-1.96759
11
21.3135
21
-1.96768
0
LINE
8
BLACK
6
CONTINUOUS
10
21.3135
20
-1.96768
11
21.3137
21
-1.9678
0
LINE
8
BLACK
6
CONTINUOUS
10
21.3137
20
-1.9678
11
21.3138
21
-1.96795
0
LINE
8
BLACK
6
CONTINUOUS
10
21.3138
20
-1.96795
11
21.3139
21
-1.96813
0
LINE
8
BLACK
6
CONTINUOUS
10
21.3139
20
-1.96813
11
21.314
21
-1.96831
0
LINE
8
BLACK
6
CONTINUOUS
10
21.314
20
-1.96831
11
21.314
21
-1.9685
0
LINE
8
BLACK
6
CONTINUOUS
10
21.314
20
-1.9685
11
21.314
21
-1.96855
0
LINE
8
BLACK
6
CONTINUOUS
10
21.314
20
-1.96855
11
21.314
21
-21.6535
0
LINE
8
BLACK
6
CONTINUOUS
10
21.314
20
-21.6535
11
21.314
21
-21.6535
0
LINE
8
BLACK
6
CONTINUOUS
10
21.314
20
-21.6535
11
21.314
21
-21.6537
0
LINE
8
BLACK
6
CONTINUOUS
10
21.314
20
-21.6537
11
21.3139
21
-21.6539
0
LINE
8
BLACK
6
CONTINUOUS
10
21.3139
20
-21.6539
11
21.3138
21
-21.6541
0
LINE
8
BLACK
6
CONTINUOUS
10
21.3138
20
-21.6541
11
21.3137
21
-21.6542
0
LINE
8
BLACK
6
CONTINUOUS
10
21.3137
20
-21.6542
11
21.3135
21
-21.6544
0
LINE
8
BLACK
6
CONTINUOUS
10
21.3135
20
-21.6544
11
21.3134
21
-21.6545
0
LINE
8
BLACK
6
CONTINUOUS
10
21.3134
20
-21.6545
11
21.3132
21
-21.6545
0
LINE
8
BLACK
6
CONTINUOUS
10
21.3132
20
-21.6545
11
21.313
21
-21.6545
0
LINE
8
BLACK
6
CONTINUOUS
10
21.313
20
-21.6545
11
21.313
21
-21.6545
0
LINE
8
BLACK
6
CONTINUOUS
10
21.313
20
-21.6545
11
21.313
21
-21.6545
0
LINE
8
BLACK
6
CONTINUOUS
10
21.313
20
-21.6545
11
21.3129
21
-21.6545
0
LINE
8
BLACK
6
CONTINUOUS
10
21.3129
20
-21.6545
11
2.31304
21
-21.6545
0
LINE
8
BLACK
6
CONTINUOUS
10
2.31304
20
-21.6545
11
2.31299
21
-21.6545
0
LINE
8
BLACK
6
CONTINUOUS
10
2.31299
20
-21.6545
11
2.31294
21
-21.6545
0
LINE
8
BLACK
6
CONTINUOUS
10
2.31294
20
-21.6545
11
2.31294
21
-21.6545
0
LINE
8
BLACK
6
CONTINUOUS
10
2.31294
20
-21.6545
11
2.3128
21
-21.6545
0
LINE
8
BLACK
6
CONTINUOUS
10
2.3128
20
-21.6545
11
2.31261
21
-21.6545
0
LINE
8
BLACK
6
CONTINUOUS
10
2.31261
20
-21.6545
11
2.31244
21
-21.6544
0
LINE
8
BLACK
6
CONTINUOUS
10
2.31244
20
-21.6544
11
2.31229
21
-21.6542
0
LINE
8
BLACK
6
CONTINUOUS
10
2.31229
20
-21.6542
11
2.31217
21
-21.6541
0
LINE
8
BLACK
6
CONTINUOUS
10
2.31217
20
-21.6541
11
2.31208
21
-21.6539
0
LINE
8
BLACK
6
CONTINUOUS
10
2.31208
20
-21.6539
11
2.31202
21
-21.6537
0
LINE
8
BLACK
6
CONTINUOUS
10
2.31202
20
-21.6537
11
2.312
21
-21.6535
0
LINE
8
BLACK
6
CONTINUOUS
10
2.312
20
-21.6535
11
2.31201
21
-21.6535
0
LINE
8
BLACK
6
CONTINUOUS
10
2.31201
20
-21.6535
11
2.31201
21
-1.96855
0
LINE
8
BLACK
6
CONTINUOUS
10
2.31201
20
-1.96855
11
2.312
21
-1.9685
0
LINE
8
BLACK
6
CONTINUOUS
10
2.312
20
-1.9685
11
2.31202
21
-1.96831
0
LINE
8
BLACK
6
CONTINUOUS
10
2.31202
20
-1.96831
11
2.31208
21
-1.96813
0
LINE
8
BLACK
6
CONTINUOUS
10
2.31208
20
-1.96813
11
2.31217
21
-1.96795
0
LINE
8
BLACK
6
CONTINUOUS
10
2.31217
20
-1.96795
11
2.31229
21
-1.9678
0
LINE
8
BLACK
6
CONTINUOUS
10
2.31229
20
-1.9678
11
2.31244
21
-1.96768
0
LINE
8
BLACK
6
CONTINUOUS
10
2.31244
20
-1.96768
11
2.31261
21
-1.96759
0
LINE
8
BLACK
6
CONTINUOUS
10
2.31261
20
-1.96759
11
2.3128
21
-1.96753
0
LINE
8
BLACK
6
CONTINUOUS
10
2.3128
20
-1.96753
11
2.31294
21
-1.96752
0
LINE
8
BLACK
6
CONTINUOUS
10
2.31294
20
-1.96752
11
2.31299
21
-1.96751
0
LINE
8
BLACK
6
CONTINUOUS
10
2.31299
20
-1.96751
11
2.31304
21
-1.96752
0
LINE
8
BLACK
6
CONTINUOUS
10
2.31304
20
-1.96752
11
21.3129
21
-1.96752
0
LINE
8
BLACK
6
CONTINUOUS
10
21.3129
20
-1.96752
11
21.313
21
-1.96751
0
LINE
8
BLACK
6
CONTINUOUS
10
21.313
20
-1.96751
11
21.313
21
-1.96752
0
LINE
8
BLACK
6
CONTINUOUS
10
2.31398
20
-1.96949
11
2.31398
21
-21.6526
0
LINE
8
BLACK
6
CONTINUOUS
10
2.31398
20
-21.6526
11
21.312
21
-21.6526
0
LINE
8
BLACK
6
CONTINUOUS
10
21.312
20
-21.6526
11
21.312
21
-1.96949
0
LINE
8
BLACK
6
CONTINUOUS
10
21.312
20
-1.96949
11
2.31398
21
-1.96949
  0
ENDSEC
  0
EOF
