%TF.GenerationSoftware,KiCad,Pcbnew,5.1.9-73d0e3b20d~88~ubuntu20.04.1*%
%TF.CreationDate,2021-02-23T10:44:39-05:00*%
%TF.ProjectId,SiPM_Board,5369504d-5f42-46f6-9172-642e6b696361,rev?*%
%TF.SameCoordinates,Original*%
%TF.FileFunction,Copper,L3,Inr*%
%TF.FilePolarity,Positive*%
%FSLAX46Y46*%
G04 Gerber Fmt 4.6, Leading zero omitted, Abs format (unit mm)*
G04 Created by KiCad (PCBNEW 5.1.9-73d0e3b20d~88~ubuntu20.04.1) date 2021-02-23 10:44:39*
%MOMM*%
%LPD*%
G01*
G04 APERTURE LIST*
%TA.AperFunction,ViaPad*%
%ADD10C,0.635000*%
%TD*%
%TA.AperFunction,Conductor*%
%ADD11C,0.254000*%
%TD*%
%TA.AperFunction,Conductor*%
%ADD12C,0.100000*%
%TD*%
G04 APERTURE END LIST*
D10*
%TO.N,GND*%
X133707308Y-111522692D03*
X133707308Y-103522692D03*
X133707308Y-101522692D03*
X133707308Y-87522692D03*
X133707308Y-115522692D03*
X133707308Y-113522692D03*
X133707308Y-107522692D03*
X133707308Y-105522692D03*
X133707308Y-109522692D03*
X133827308Y-95432692D03*
X133707308Y-85522692D03*
X133707308Y-93522692D03*
X133707308Y-91522692D03*
X133707308Y-89522692D03*
X133707308Y-99522692D03*
X133707308Y-97522692D03*
X159077308Y-111512692D03*
X159077308Y-103512692D03*
X159077308Y-101512692D03*
X159077308Y-87512692D03*
X159077308Y-115512692D03*
X159077308Y-113512692D03*
X159077308Y-107512692D03*
X159077308Y-105512692D03*
X159077308Y-109512692D03*
X159077308Y-95512692D03*
X159077308Y-93512692D03*
X159077308Y-91512692D03*
X159077308Y-89512692D03*
X159077308Y-99512692D03*
X159077308Y-97512692D03*
X143870000Y-89500000D03*
X168940000Y-89490000D03*
X167540000Y-112770000D03*
X132427500Y-113492500D03*
X156700000Y-89510000D03*
X157362500Y-113492500D03*
X132167500Y-88232500D03*
X152860000Y-100000000D03*
X144880000Y-113040000D03*
X132057500Y-107172500D03*
X142670000Y-106620000D03*
X157562500Y-107172500D03*
X132240000Y-94280000D03*
X143870000Y-95620000D03*
X157540000Y-94290000D03*
X168940000Y-95900000D03*
X168940000Y-108800000D03*
X147910000Y-100000000D03*
X159127308Y-85512692D03*
X150000000Y-105400000D03*
%TO.N,/BIAS1*%
X133762700Y-83502700D03*
X142170000Y-95100000D03*
X127570000Y-79500000D03*
X126400000Y-84610000D03*
X132600000Y-90800000D03*
X126400000Y-96980000D03*
X131640000Y-98100000D03*
X144992500Y-86507500D03*
X138800000Y-80870000D03*
X132600000Y-80550000D03*
X129852500Y-92827500D03*
X145142500Y-92827500D03*
X127420000Y-91900000D03*
X129970000Y-86520000D03*
X131855000Y-84955000D03*
X139990000Y-76400000D03*
X146090000Y-76400000D03*
X145000000Y-83680000D03*
X146080000Y-95000000D03*
X146120000Y-88800000D03*
X141210000Y-89220000D03*
%TO.N,/BIAS2*%
X133757366Y-116502634D03*
X131470000Y-123600000D03*
X140110000Y-120500000D03*
X138800000Y-117340000D03*
X126400000Y-112350000D03*
X129382500Y-111767500D03*
X132600000Y-109880000D03*
X141060000Y-106710000D03*
X141020000Y-101900000D03*
X132600000Y-118350000D03*
X146030000Y-120500000D03*
X146440000Y-114300000D03*
X144877500Y-111767500D03*
X130042500Y-105447500D03*
X145670000Y-105450000D03*
X145930000Y-109030000D03*
X127460000Y-117400000D03*
X126400000Y-122580000D03*
X126400000Y-103930000D03*
X132600000Y-103870000D03*
X146070000Y-101900000D03*
%TO.N,Net-(J1-Pad63)*%
X137360000Y-117500000D03*
%TO.N,Net-(J1-Pad61)*%
X140990000Y-113510000D03*
%TO.N,Net-(J1-Pad59)*%
X142747358Y-112502642D03*
%TO.N,Net-(J1-Pad57)*%
X143467356Y-110300000D03*
%TO.N,Net-(J1-Pad55)*%
X137460000Y-110500000D03*
%TO.N,Net-(J1-Pad53)*%
X137330000Y-109500000D03*
%TO.N,Net-(J1-Pad51)*%
X140880000Y-108500000D03*
%TO.N,Net-(J1-Pad49)*%
X143550000Y-108490000D03*
%TO.N,Net-(J1-Pad47)*%
X137360000Y-106510000D03*
%TO.N,Net-(J1-Pad45)*%
X137390000Y-105520000D03*
%TO.N,Net-(J1-Pad43)*%
X141900000Y-106050000D03*
%TO.N,Net-(J1-Pad41)*%
X142640000Y-103500000D03*
%TO.N,Net-(J1-Pad39)*%
X137440000Y-102520000D03*
%TO.N,Net-(J1-Pad37)*%
X137350000Y-101510000D03*
%TO.N,Net-(J1-Pad35)*%
X140970000Y-100500000D03*
%TO.N,Net-(J1-Pad33)*%
X140860000Y-99480000D03*
%TO.N,Net-(J1-Pad31)*%
X137360000Y-98500000D03*
%TO.N,Net-(J1-Pad29)*%
X137340000Y-97510000D03*
%TO.N,Net-(J1-Pad27)*%
X140950000Y-96520000D03*
%TO.N,Net-(J1-Pad25)*%
X140920000Y-95500000D03*
%TO.N,Net-(J1-Pad23)*%
X137320000Y-94500000D03*
%TO.N,Net-(J1-Pad21)*%
X137340000Y-93510000D03*
%TO.N,Net-(J1-Pad19)*%
X140930000Y-92510000D03*
%TO.N,Net-(J1-Pad17)*%
X146870000Y-91900000D03*
%TO.N,Net-(J1-Pad15)*%
X137450000Y-90520000D03*
%TO.N,Net-(J1-Pad13)*%
X137430000Y-89490000D03*
%TO.N,Net-(J1-Pad11)*%
X141900000Y-86720000D03*
%TO.N,Net-(J1-Pad9)*%
X140930000Y-87510000D03*
%TO.N,Net-(J1-Pad7)*%
X137400000Y-80900000D03*
%TO.N,Net-(J1-Pad5)*%
X141730000Y-81890000D03*
%TO.N,Net-(J1-Pad3)*%
X141000000Y-80650000D03*
%TO.N,Net-(J1-Pad1)*%
X139760000Y-79450000D03*
%TO.N,Net-(J2-Pad63)*%
X162630000Y-117420000D03*
%TO.N,Net-(J2-Pad61)*%
X162750000Y-120500000D03*
%TO.N,Net-(J2-Pad59)*%
X169300000Y-123600000D03*
%TO.N,Net-(J2-Pad57)*%
X168380000Y-110280000D03*
%TO.N,Net-(J2-Pad55)*%
X162670000Y-110500000D03*
%TO.N,Net-(J2-Pad53)*%
X162580000Y-109500000D03*
%TO.N,Net-(J2-Pad51)*%
X166157350Y-108502650D03*
%TO.N,Net-(J2-Pad49)*%
X173630000Y-112510000D03*
%TO.N,Net-(J2-Pad47)*%
X162807346Y-106502654D03*
%TO.N,Net-(J2-Pad45)*%
X162797344Y-105502656D03*
%TO.N,Net-(J2-Pad43)*%
X167409603Y-107339603D03*
%TO.N,Net-(J2-Pad41)*%
X166550000Y-103520000D03*
%TO.N,Net-(J2-Pad39)*%
X162852662Y-102502662D03*
%TO.N,Net-(J2-Pad37)*%
X162762664Y-101502664D03*
%TO.N,Net-(J2-Pad35)*%
X166380000Y-100530000D03*
%TO.N,Net-(J2-Pad33)*%
X166400000Y-99500000D03*
%TO.N,Net-(J2-Pad31)*%
X162580000Y-98500000D03*
%TO.N,Net-(J2-Pad29)*%
X162660000Y-97530000D03*
%TO.N,Net-(J2-Pad27)*%
X166180000Y-96510000D03*
%TO.N,Net-(J2-Pad25)*%
X166190000Y-95536064D03*
%TO.N,Net-(J2-Pad23)*%
X162630000Y-94510000D03*
%TO.N,Net-(J2-Pad21)*%
X162620000Y-93480000D03*
%TO.N,Net-(J2-Pad19)*%
X166230000Y-92500000D03*
%TO.N,Net-(J2-Pad17)*%
X171930000Y-91890000D03*
%TO.N,Net-(J2-Pad15)*%
X162645789Y-90474211D03*
%TO.N,Net-(J2-Pad13)*%
X162952688Y-89502688D03*
%TO.N,Net-(J2-Pad11)*%
X167390000Y-86750000D03*
%TO.N,Net-(J2-Pad9)*%
X166407308Y-87502692D03*
%TO.N,Net-(J2-Pad7)*%
X162630000Y-81020000D03*
%TO.N,Net-(J2-Pad5)*%
X167480000Y-81890000D03*
%TO.N,Net-(J2-Pad3)*%
X166730000Y-80600000D03*
%TO.N,Net-(J2-Pad1)*%
X165690000Y-79510000D03*
%TO.N,/BIAS3*%
X159078000Y-83502700D03*
X151900000Y-96900000D03*
X156980000Y-98100000D03*
X153020000Y-91900000D03*
X158100000Y-90820000D03*
X151900000Y-84510000D03*
X166500000Y-89350000D03*
X170382500Y-86507500D03*
X154527500Y-86507500D03*
X164300000Y-80940000D03*
X158100000Y-80790000D03*
X155117500Y-92827500D03*
X170012500Y-92827500D03*
X153020000Y-79500000D03*
X165400000Y-76400000D03*
X171650000Y-76400000D03*
X170500000Y-83680000D03*
X171580000Y-88800000D03*
X171530000Y-95000000D03*
X166881243Y-94871243D03*
X157520000Y-84840000D03*
%TO.N,/BIAS4*%
X159078000Y-116502634D03*
X156910000Y-123600000D03*
X151900000Y-122430000D03*
X153190000Y-117400000D03*
X154812500Y-111767500D03*
X151900000Y-109860000D03*
X166280000Y-101900000D03*
X170500000Y-102980000D03*
X166400000Y-106640000D03*
X170500000Y-107070000D03*
X170500000Y-115470000D03*
X170500000Y-119440000D03*
X157800000Y-109910000D03*
X164300000Y-121510000D03*
X158100000Y-118410000D03*
X170130000Y-112300000D03*
X163530000Y-118470000D03*
X153010000Y-105000000D03*
X170187500Y-105447500D03*
X155122500Y-105447500D03*
X158100000Y-103900000D03*
X165140000Y-117610000D03*
%TD*%
D11*
%TO.N,/BIAS3*%
X174787000Y-99563000D02*
X167225500Y-99563000D01*
X167225500Y-99418695D01*
X167193776Y-99259211D01*
X167131548Y-99108979D01*
X167041208Y-98973775D01*
X166926225Y-98858792D01*
X166791021Y-98768452D01*
X166640789Y-98706224D01*
X166481305Y-98674500D01*
X166318695Y-98674500D01*
X166159211Y-98706224D01*
X166008979Y-98768452D01*
X165873775Y-98858792D01*
X165758792Y-98973775D01*
X165668452Y-99108979D01*
X165606224Y-99259211D01*
X165574500Y-99418695D01*
X165574500Y-99563000D01*
X159902808Y-99563000D01*
X159902808Y-99431387D01*
X159871084Y-99271903D01*
X159808856Y-99121671D01*
X159718516Y-98986467D01*
X159603533Y-98871484D01*
X159468329Y-98781144D01*
X159318097Y-98718916D01*
X159158613Y-98687192D01*
X158996003Y-98687192D01*
X158836519Y-98718916D01*
X158686287Y-98781144D01*
X158551083Y-98871484D01*
X158436100Y-98986467D01*
X158345760Y-99121671D01*
X158283532Y-99271903D01*
X158251808Y-99431387D01*
X158251808Y-99563000D01*
X153560826Y-99563000D01*
X153501208Y-99473775D01*
X153386225Y-99358792D01*
X153251021Y-99268452D01*
X153100789Y-99206224D01*
X152941305Y-99174500D01*
X152778695Y-99174500D01*
X152619211Y-99206224D01*
X152468979Y-99268452D01*
X152333775Y-99358792D01*
X152218792Y-99473775D01*
X152159174Y-99563000D01*
X150437000Y-99563000D01*
X150437000Y-98418695D01*
X161754500Y-98418695D01*
X161754500Y-98581305D01*
X161786224Y-98740789D01*
X161848452Y-98891021D01*
X161938792Y-99026225D01*
X162053775Y-99141208D01*
X162188979Y-99231548D01*
X162339211Y-99293776D01*
X162498695Y-99325500D01*
X162661305Y-99325500D01*
X162820789Y-99293776D01*
X162971021Y-99231548D01*
X163106225Y-99141208D01*
X163221208Y-99026225D01*
X163311548Y-98891021D01*
X163373776Y-98740789D01*
X163405500Y-98581305D01*
X163405500Y-98418695D01*
X163373776Y-98259211D01*
X163311548Y-98108979D01*
X163286276Y-98071157D01*
X163301208Y-98056225D01*
X163391548Y-97921021D01*
X163453776Y-97770789D01*
X163485500Y-97611305D01*
X163485500Y-97448695D01*
X163453776Y-97289211D01*
X163391548Y-97138979D01*
X163301208Y-97003775D01*
X163186225Y-96888792D01*
X163051021Y-96798452D01*
X162900789Y-96736224D01*
X162741305Y-96704500D01*
X162578695Y-96704500D01*
X162419211Y-96736224D01*
X162268979Y-96798452D01*
X162133775Y-96888792D01*
X162018792Y-97003775D01*
X161928452Y-97138979D01*
X161866224Y-97289211D01*
X161834500Y-97448695D01*
X161834500Y-97611305D01*
X161866224Y-97770789D01*
X161928452Y-97921021D01*
X161953724Y-97958843D01*
X161938792Y-97973775D01*
X161848452Y-98108979D01*
X161786224Y-98259211D01*
X161754500Y-98418695D01*
X150437000Y-98418695D01*
X150437000Y-97431387D01*
X158251808Y-97431387D01*
X158251808Y-97593997D01*
X158283532Y-97753481D01*
X158345760Y-97903713D01*
X158436100Y-98038917D01*
X158551083Y-98153900D01*
X158686287Y-98244240D01*
X158836519Y-98306468D01*
X158996003Y-98338192D01*
X159158613Y-98338192D01*
X159318097Y-98306468D01*
X159468329Y-98244240D01*
X159603533Y-98153900D01*
X159718516Y-98038917D01*
X159808856Y-97903713D01*
X159871084Y-97753481D01*
X159902808Y-97593997D01*
X159902808Y-97431387D01*
X159871084Y-97271903D01*
X159808856Y-97121671D01*
X159718516Y-96986467D01*
X159603533Y-96871484D01*
X159468329Y-96781144D01*
X159318097Y-96718916D01*
X159158613Y-96687192D01*
X158996003Y-96687192D01*
X158836519Y-96718916D01*
X158686287Y-96781144D01*
X158551083Y-96871484D01*
X158436100Y-96986467D01*
X158345760Y-97121671D01*
X158283532Y-97271903D01*
X158251808Y-97431387D01*
X150437000Y-97431387D01*
X150437000Y-96428695D01*
X165354500Y-96428695D01*
X165354500Y-96591305D01*
X165386224Y-96750789D01*
X165448452Y-96901021D01*
X165538792Y-97036225D01*
X165653775Y-97151208D01*
X165788979Y-97241548D01*
X165939211Y-97303776D01*
X166098695Y-97335500D01*
X166261305Y-97335500D01*
X166420789Y-97303776D01*
X166571021Y-97241548D01*
X166706225Y-97151208D01*
X166821208Y-97036225D01*
X166911548Y-96901021D01*
X166973776Y-96750789D01*
X167005500Y-96591305D01*
X167005500Y-96428695D01*
X166973776Y-96269211D01*
X166911548Y-96118979D01*
X166852439Y-96030515D01*
X166921548Y-95927085D01*
X166966444Y-95818695D01*
X168114500Y-95818695D01*
X168114500Y-95981305D01*
X168146224Y-96140789D01*
X168208452Y-96291021D01*
X168298792Y-96426225D01*
X168413775Y-96541208D01*
X168548979Y-96631548D01*
X168699211Y-96693776D01*
X168858695Y-96725500D01*
X169021305Y-96725500D01*
X169180789Y-96693776D01*
X169331021Y-96631548D01*
X169466225Y-96541208D01*
X169581208Y-96426225D01*
X169671548Y-96291021D01*
X169733776Y-96140789D01*
X169765500Y-95981305D01*
X169765500Y-95818695D01*
X169733776Y-95659211D01*
X169671548Y-95508979D01*
X169581208Y-95373775D01*
X169466225Y-95258792D01*
X169331021Y-95168452D01*
X169180789Y-95106224D01*
X169021305Y-95074500D01*
X168858695Y-95074500D01*
X168699211Y-95106224D01*
X168548979Y-95168452D01*
X168413775Y-95258792D01*
X168298792Y-95373775D01*
X168208452Y-95508979D01*
X168146224Y-95659211D01*
X168114500Y-95818695D01*
X166966444Y-95818695D01*
X166983776Y-95776853D01*
X167015500Y-95617369D01*
X167015500Y-95454759D01*
X166983776Y-95295275D01*
X166921548Y-95145043D01*
X166831208Y-95009839D01*
X166716225Y-94894856D01*
X166581021Y-94804516D01*
X166430789Y-94742288D01*
X166271305Y-94710564D01*
X166108695Y-94710564D01*
X165949211Y-94742288D01*
X165798979Y-94804516D01*
X165663775Y-94894856D01*
X165548792Y-95009839D01*
X165458452Y-95145043D01*
X165396224Y-95295275D01*
X165364500Y-95454759D01*
X165364500Y-95617369D01*
X165396224Y-95776853D01*
X165458452Y-95927085D01*
X165517561Y-96015549D01*
X165448452Y-96118979D01*
X165386224Y-96269211D01*
X165354500Y-96428695D01*
X150437000Y-96428695D01*
X150437000Y-95431387D01*
X158251808Y-95431387D01*
X158251808Y-95593997D01*
X158283532Y-95753481D01*
X158345760Y-95903713D01*
X158436100Y-96038917D01*
X158551083Y-96153900D01*
X158686287Y-96244240D01*
X158836519Y-96306468D01*
X158996003Y-96338192D01*
X159158613Y-96338192D01*
X159318097Y-96306468D01*
X159468329Y-96244240D01*
X159603533Y-96153900D01*
X159718516Y-96038917D01*
X159808856Y-95903713D01*
X159871084Y-95753481D01*
X159902808Y-95593997D01*
X159902808Y-95431387D01*
X159871084Y-95271903D01*
X159808856Y-95121671D01*
X159718516Y-94986467D01*
X159603533Y-94871484D01*
X159468329Y-94781144D01*
X159318097Y-94718916D01*
X159158613Y-94687192D01*
X158996003Y-94687192D01*
X158836519Y-94718916D01*
X158686287Y-94781144D01*
X158551083Y-94871484D01*
X158436100Y-94986467D01*
X158345760Y-95121671D01*
X158283532Y-95271903D01*
X158251808Y-95431387D01*
X150437000Y-95431387D01*
X150437000Y-94208695D01*
X156714500Y-94208695D01*
X156714500Y-94371305D01*
X156746224Y-94530789D01*
X156808452Y-94681021D01*
X156898792Y-94816225D01*
X157013775Y-94931208D01*
X157148979Y-95021548D01*
X157299211Y-95083776D01*
X157458695Y-95115500D01*
X157621305Y-95115500D01*
X157780789Y-95083776D01*
X157931021Y-95021548D01*
X158066225Y-94931208D01*
X158181208Y-94816225D01*
X158271548Y-94681021D01*
X158333776Y-94530789D01*
X158365500Y-94371305D01*
X158365500Y-94208695D01*
X158333776Y-94049211D01*
X158271548Y-93898979D01*
X158181208Y-93763775D01*
X158066225Y-93648792D01*
X157931021Y-93558452D01*
X157780789Y-93496224D01*
X157621305Y-93464500D01*
X157458695Y-93464500D01*
X157299211Y-93496224D01*
X157148979Y-93558452D01*
X157013775Y-93648792D01*
X156898792Y-93763775D01*
X156808452Y-93898979D01*
X156746224Y-94049211D01*
X156714500Y-94208695D01*
X150437000Y-94208695D01*
X150437000Y-93431387D01*
X158251808Y-93431387D01*
X158251808Y-93593997D01*
X158283532Y-93753481D01*
X158345760Y-93903713D01*
X158436100Y-94038917D01*
X158551083Y-94153900D01*
X158686287Y-94244240D01*
X158836519Y-94306468D01*
X158996003Y-94338192D01*
X159158613Y-94338192D01*
X159318097Y-94306468D01*
X159468329Y-94244240D01*
X159603533Y-94153900D01*
X159718516Y-94038917D01*
X159808856Y-93903713D01*
X159871084Y-93753481D01*
X159902808Y-93593997D01*
X159902808Y-93431387D01*
X159896306Y-93398695D01*
X161794500Y-93398695D01*
X161794500Y-93561305D01*
X161826224Y-93720789D01*
X161888452Y-93871021D01*
X161976292Y-94002483D01*
X161898452Y-94118979D01*
X161836224Y-94269211D01*
X161804500Y-94428695D01*
X161804500Y-94591305D01*
X161836224Y-94750789D01*
X161898452Y-94901021D01*
X161988792Y-95036225D01*
X162103775Y-95151208D01*
X162238979Y-95241548D01*
X162389211Y-95303776D01*
X162548695Y-95335500D01*
X162711305Y-95335500D01*
X162870789Y-95303776D01*
X163021021Y-95241548D01*
X163156225Y-95151208D01*
X163271208Y-95036225D01*
X163361548Y-94901021D01*
X163423776Y-94750789D01*
X163455500Y-94591305D01*
X163455500Y-94428695D01*
X163423776Y-94269211D01*
X163361548Y-94118979D01*
X163273708Y-93987517D01*
X163351548Y-93871021D01*
X163413776Y-93720789D01*
X163445500Y-93561305D01*
X163445500Y-93398695D01*
X163413776Y-93239211D01*
X163351548Y-93088979D01*
X163261208Y-92953775D01*
X163146225Y-92838792D01*
X163011021Y-92748452D01*
X162860789Y-92686224D01*
X162701305Y-92654500D01*
X162538695Y-92654500D01*
X162379211Y-92686224D01*
X162228979Y-92748452D01*
X162093775Y-92838792D01*
X161978792Y-92953775D01*
X161888452Y-93088979D01*
X161826224Y-93239211D01*
X161794500Y-93398695D01*
X159896306Y-93398695D01*
X159871084Y-93271903D01*
X159808856Y-93121671D01*
X159718516Y-92986467D01*
X159603533Y-92871484D01*
X159468329Y-92781144D01*
X159318097Y-92718916D01*
X159158613Y-92687192D01*
X158996003Y-92687192D01*
X158836519Y-92718916D01*
X158686287Y-92781144D01*
X158551083Y-92871484D01*
X158436100Y-92986467D01*
X158345760Y-93121671D01*
X158283532Y-93271903D01*
X158251808Y-93431387D01*
X150437000Y-93431387D01*
X150437000Y-92418695D01*
X165404500Y-92418695D01*
X165404500Y-92581305D01*
X165436224Y-92740789D01*
X165498452Y-92891021D01*
X165588792Y-93026225D01*
X165703775Y-93141208D01*
X165838979Y-93231548D01*
X165989211Y-93293776D01*
X166148695Y-93325500D01*
X166311305Y-93325500D01*
X166470789Y-93293776D01*
X166621021Y-93231548D01*
X166756225Y-93141208D01*
X166871208Y-93026225D01*
X166961548Y-92891021D01*
X167023776Y-92740789D01*
X167055500Y-92581305D01*
X167055500Y-92418695D01*
X167023776Y-92259211D01*
X166961548Y-92108979D01*
X166871208Y-91973775D01*
X166756225Y-91858792D01*
X166681250Y-91808695D01*
X171104500Y-91808695D01*
X171104500Y-91971305D01*
X171136224Y-92130789D01*
X171198452Y-92281021D01*
X171288792Y-92416225D01*
X171403775Y-92531208D01*
X171538979Y-92621548D01*
X171689211Y-92683776D01*
X171848695Y-92715500D01*
X172011305Y-92715500D01*
X172170789Y-92683776D01*
X172321021Y-92621548D01*
X172456225Y-92531208D01*
X172571208Y-92416225D01*
X172661548Y-92281021D01*
X172723776Y-92130789D01*
X172755500Y-91971305D01*
X172755500Y-91808695D01*
X172723776Y-91649211D01*
X172661548Y-91498979D01*
X172571208Y-91363775D01*
X172456225Y-91248792D01*
X172321021Y-91158452D01*
X172170789Y-91096224D01*
X172011305Y-91064500D01*
X171848695Y-91064500D01*
X171689211Y-91096224D01*
X171538979Y-91158452D01*
X171403775Y-91248792D01*
X171288792Y-91363775D01*
X171198452Y-91498979D01*
X171136224Y-91649211D01*
X171104500Y-91808695D01*
X166681250Y-91808695D01*
X166621021Y-91768452D01*
X166470789Y-91706224D01*
X166311305Y-91674500D01*
X166148695Y-91674500D01*
X165989211Y-91706224D01*
X165838979Y-91768452D01*
X165703775Y-91858792D01*
X165588792Y-91973775D01*
X165498452Y-92108979D01*
X165436224Y-92259211D01*
X165404500Y-92418695D01*
X150437000Y-92418695D01*
X150437000Y-91431387D01*
X158251808Y-91431387D01*
X158251808Y-91593997D01*
X158283532Y-91753481D01*
X158345760Y-91903713D01*
X158436100Y-92038917D01*
X158551083Y-92153900D01*
X158686287Y-92244240D01*
X158836519Y-92306468D01*
X158996003Y-92338192D01*
X159158613Y-92338192D01*
X159318097Y-92306468D01*
X159468329Y-92244240D01*
X159603533Y-92153900D01*
X159718516Y-92038917D01*
X159808856Y-91903713D01*
X159871084Y-91753481D01*
X159902808Y-91593997D01*
X159902808Y-91431387D01*
X159871084Y-91271903D01*
X159808856Y-91121671D01*
X159718516Y-90986467D01*
X159603533Y-90871484D01*
X159468329Y-90781144D01*
X159318097Y-90718916D01*
X159158613Y-90687192D01*
X158996003Y-90687192D01*
X158836519Y-90718916D01*
X158686287Y-90781144D01*
X158551083Y-90871484D01*
X158436100Y-90986467D01*
X158345760Y-91121671D01*
X158283532Y-91271903D01*
X158251808Y-91431387D01*
X150437000Y-91431387D01*
X150437000Y-90392906D01*
X161820289Y-90392906D01*
X161820289Y-90555516D01*
X161852013Y-90715000D01*
X161914241Y-90865232D01*
X162004581Y-91000436D01*
X162119564Y-91115419D01*
X162254768Y-91205759D01*
X162405000Y-91267987D01*
X162564484Y-91299711D01*
X162727094Y-91299711D01*
X162886578Y-91267987D01*
X163036810Y-91205759D01*
X163172014Y-91115419D01*
X163286997Y-91000436D01*
X163377337Y-90865232D01*
X163439565Y-90715000D01*
X163471289Y-90555516D01*
X163471289Y-90392906D01*
X163439565Y-90233422D01*
X163419050Y-90183895D01*
X163478913Y-90143896D01*
X163593896Y-90028913D01*
X163684236Y-89893709D01*
X163746464Y-89743477D01*
X163778188Y-89583993D01*
X163778188Y-89421383D01*
X163775665Y-89408695D01*
X168114500Y-89408695D01*
X168114500Y-89571305D01*
X168146224Y-89730789D01*
X168208452Y-89881021D01*
X168298792Y-90016225D01*
X168413775Y-90131208D01*
X168548979Y-90221548D01*
X168699211Y-90283776D01*
X168858695Y-90315500D01*
X169021305Y-90315500D01*
X169180789Y-90283776D01*
X169331021Y-90221548D01*
X169466225Y-90131208D01*
X169581208Y-90016225D01*
X169671548Y-89881021D01*
X169733776Y-89730789D01*
X169765500Y-89571305D01*
X169765500Y-89408695D01*
X169733776Y-89249211D01*
X169671548Y-89098979D01*
X169581208Y-88963775D01*
X169466225Y-88848792D01*
X169331021Y-88758452D01*
X169180789Y-88696224D01*
X169021305Y-88664500D01*
X168858695Y-88664500D01*
X168699211Y-88696224D01*
X168548979Y-88758452D01*
X168413775Y-88848792D01*
X168298792Y-88963775D01*
X168208452Y-89098979D01*
X168146224Y-89249211D01*
X168114500Y-89408695D01*
X163775665Y-89408695D01*
X163746464Y-89261899D01*
X163684236Y-89111667D01*
X163593896Y-88976463D01*
X163478913Y-88861480D01*
X163343709Y-88771140D01*
X163193477Y-88708912D01*
X163033993Y-88677188D01*
X162871383Y-88677188D01*
X162711899Y-88708912D01*
X162561667Y-88771140D01*
X162426463Y-88861480D01*
X162311480Y-88976463D01*
X162221140Y-89111667D01*
X162158912Y-89261899D01*
X162127188Y-89421383D01*
X162127188Y-89583993D01*
X162158912Y-89743477D01*
X162179427Y-89793004D01*
X162119564Y-89833003D01*
X162004581Y-89947986D01*
X161914241Y-90083190D01*
X161852013Y-90233422D01*
X161820289Y-90392906D01*
X150437000Y-90392906D01*
X150437000Y-89428695D01*
X155874500Y-89428695D01*
X155874500Y-89591305D01*
X155906224Y-89750789D01*
X155968452Y-89901021D01*
X156058792Y-90036225D01*
X156173775Y-90151208D01*
X156308979Y-90241548D01*
X156459211Y-90303776D01*
X156618695Y-90335500D01*
X156781305Y-90335500D01*
X156940789Y-90303776D01*
X157091021Y-90241548D01*
X157226225Y-90151208D01*
X157341208Y-90036225D01*
X157431548Y-89901021D01*
X157493776Y-89750789D01*
X157525500Y-89591305D01*
X157525500Y-89431387D01*
X158251808Y-89431387D01*
X158251808Y-89593997D01*
X158283532Y-89753481D01*
X158345760Y-89903713D01*
X158436100Y-90038917D01*
X158551083Y-90153900D01*
X158686287Y-90244240D01*
X158836519Y-90306468D01*
X158996003Y-90338192D01*
X159158613Y-90338192D01*
X159318097Y-90306468D01*
X159468329Y-90244240D01*
X159603533Y-90153900D01*
X159718516Y-90038917D01*
X159808856Y-89903713D01*
X159871084Y-89753481D01*
X159902808Y-89593997D01*
X159902808Y-89431387D01*
X159871084Y-89271903D01*
X159808856Y-89121671D01*
X159718516Y-88986467D01*
X159603533Y-88871484D01*
X159468329Y-88781144D01*
X159318097Y-88718916D01*
X159158613Y-88687192D01*
X158996003Y-88687192D01*
X158836519Y-88718916D01*
X158686287Y-88781144D01*
X158551083Y-88871484D01*
X158436100Y-88986467D01*
X158345760Y-89121671D01*
X158283532Y-89271903D01*
X158251808Y-89431387D01*
X157525500Y-89431387D01*
X157525500Y-89428695D01*
X157493776Y-89269211D01*
X157431548Y-89118979D01*
X157341208Y-88983775D01*
X157226225Y-88868792D01*
X157091021Y-88778452D01*
X156940789Y-88716224D01*
X156781305Y-88684500D01*
X156618695Y-88684500D01*
X156459211Y-88716224D01*
X156308979Y-88778452D01*
X156173775Y-88868792D01*
X156058792Y-88983775D01*
X155968452Y-89118979D01*
X155906224Y-89269211D01*
X155874500Y-89428695D01*
X150437000Y-89428695D01*
X150437000Y-87431387D01*
X158251808Y-87431387D01*
X158251808Y-87593997D01*
X158283532Y-87753481D01*
X158345760Y-87903713D01*
X158436100Y-88038917D01*
X158551083Y-88153900D01*
X158686287Y-88244240D01*
X158836519Y-88306468D01*
X158996003Y-88338192D01*
X159158613Y-88338192D01*
X159318097Y-88306468D01*
X159468329Y-88244240D01*
X159603533Y-88153900D01*
X159718516Y-88038917D01*
X159808856Y-87903713D01*
X159871084Y-87753481D01*
X159902808Y-87593997D01*
X159902808Y-87431387D01*
X159900819Y-87421387D01*
X165581808Y-87421387D01*
X165581808Y-87583997D01*
X165613532Y-87743481D01*
X165675760Y-87893713D01*
X165766100Y-88028917D01*
X165881083Y-88143900D01*
X166016287Y-88234240D01*
X166166519Y-88296468D01*
X166326003Y-88328192D01*
X166488613Y-88328192D01*
X166648097Y-88296468D01*
X166798329Y-88234240D01*
X166933533Y-88143900D01*
X167048516Y-88028917D01*
X167138856Y-87893713D01*
X167201084Y-87743481D01*
X167232808Y-87583997D01*
X167232808Y-87560405D01*
X167308695Y-87575500D01*
X167471305Y-87575500D01*
X167630789Y-87543776D01*
X167781021Y-87481548D01*
X167916225Y-87391208D01*
X168031208Y-87276225D01*
X168121548Y-87141021D01*
X168183776Y-86990789D01*
X168215500Y-86831305D01*
X168215500Y-86668695D01*
X168183776Y-86509211D01*
X168121548Y-86358979D01*
X168031208Y-86223775D01*
X167916225Y-86108792D01*
X167781021Y-86018452D01*
X167630789Y-85956224D01*
X167471305Y-85924500D01*
X167308695Y-85924500D01*
X167149211Y-85956224D01*
X166998979Y-86018452D01*
X166863775Y-86108792D01*
X166748792Y-86223775D01*
X166658452Y-86358979D01*
X166596224Y-86509211D01*
X166564500Y-86668695D01*
X166564500Y-86692287D01*
X166488613Y-86677192D01*
X166326003Y-86677192D01*
X166166519Y-86708916D01*
X166016287Y-86771144D01*
X165881083Y-86861484D01*
X165766100Y-86976467D01*
X165675760Y-87111671D01*
X165613532Y-87261903D01*
X165581808Y-87421387D01*
X159900819Y-87421387D01*
X159871084Y-87271903D01*
X159808856Y-87121671D01*
X159718516Y-86986467D01*
X159603533Y-86871484D01*
X159468329Y-86781144D01*
X159318097Y-86718916D01*
X159158613Y-86687192D01*
X158996003Y-86687192D01*
X158836519Y-86718916D01*
X158686287Y-86781144D01*
X158551083Y-86871484D01*
X158436100Y-86986467D01*
X158345760Y-87121671D01*
X158283532Y-87271903D01*
X158251808Y-87431387D01*
X150437000Y-87431387D01*
X150437000Y-85431387D01*
X158301808Y-85431387D01*
X158301808Y-85593997D01*
X158333532Y-85753481D01*
X158395760Y-85903713D01*
X158486100Y-86038917D01*
X158601083Y-86153900D01*
X158736287Y-86244240D01*
X158886519Y-86306468D01*
X159046003Y-86338192D01*
X159208613Y-86338192D01*
X159368097Y-86306468D01*
X159518329Y-86244240D01*
X159653533Y-86153900D01*
X159768516Y-86038917D01*
X159858856Y-85903713D01*
X159921084Y-85753481D01*
X159952808Y-85593997D01*
X159952808Y-85431387D01*
X159921084Y-85271903D01*
X159858856Y-85121671D01*
X159768516Y-84986467D01*
X159653533Y-84871484D01*
X159518329Y-84781144D01*
X159368097Y-84718916D01*
X159208613Y-84687192D01*
X159046003Y-84687192D01*
X158886519Y-84718916D01*
X158736287Y-84781144D01*
X158601083Y-84871484D01*
X158486100Y-84986467D01*
X158395760Y-85121671D01*
X158333532Y-85271903D01*
X158301808Y-85431387D01*
X150437000Y-85431387D01*
X150437000Y-80938695D01*
X161804500Y-80938695D01*
X161804500Y-81101305D01*
X161836224Y-81260789D01*
X161898452Y-81411021D01*
X161988792Y-81546225D01*
X162103775Y-81661208D01*
X162238979Y-81751548D01*
X162389211Y-81813776D01*
X162548695Y-81845500D01*
X162711305Y-81845500D01*
X162870789Y-81813776D01*
X163021021Y-81751548D01*
X163156225Y-81661208D01*
X163271208Y-81546225D01*
X163361548Y-81411021D01*
X163423776Y-81260789D01*
X163455500Y-81101305D01*
X163455500Y-80938695D01*
X163423776Y-80779211D01*
X163361548Y-80628979D01*
X163271208Y-80493775D01*
X163156225Y-80378792D01*
X163021021Y-80288452D01*
X162870789Y-80226224D01*
X162711305Y-80194500D01*
X162548695Y-80194500D01*
X162389211Y-80226224D01*
X162238979Y-80288452D01*
X162103775Y-80378792D01*
X161988792Y-80493775D01*
X161898452Y-80628979D01*
X161836224Y-80779211D01*
X161804500Y-80938695D01*
X150437000Y-80938695D01*
X150437000Y-79428695D01*
X164864500Y-79428695D01*
X164864500Y-79591305D01*
X164896224Y-79750789D01*
X164958452Y-79901021D01*
X165048792Y-80036225D01*
X165163775Y-80151208D01*
X165298979Y-80241548D01*
X165449211Y-80303776D01*
X165608695Y-80335500D01*
X165771305Y-80335500D01*
X165930789Y-80303776D01*
X165965067Y-80289578D01*
X165936224Y-80359211D01*
X165904500Y-80518695D01*
X165904500Y-80681305D01*
X165936224Y-80840789D01*
X165998452Y-80991021D01*
X166088792Y-81126225D01*
X166203775Y-81241208D01*
X166338979Y-81331548D01*
X166489211Y-81393776D01*
X166648695Y-81425500D01*
X166797549Y-81425500D01*
X166748452Y-81498979D01*
X166686224Y-81649211D01*
X166654500Y-81808695D01*
X166654500Y-81971305D01*
X166686224Y-82130789D01*
X166748452Y-82281021D01*
X166838792Y-82416225D01*
X166953775Y-82531208D01*
X167088979Y-82621548D01*
X167239211Y-82683776D01*
X167398695Y-82715500D01*
X167561305Y-82715500D01*
X167720789Y-82683776D01*
X167871021Y-82621548D01*
X168006225Y-82531208D01*
X168121208Y-82416225D01*
X168211548Y-82281021D01*
X168273776Y-82130789D01*
X168305500Y-81971305D01*
X168305500Y-81808695D01*
X168273776Y-81649211D01*
X168211548Y-81498979D01*
X168121208Y-81363775D01*
X168006225Y-81248792D01*
X167871021Y-81158452D01*
X167720789Y-81096224D01*
X167561305Y-81064500D01*
X167412451Y-81064500D01*
X167461548Y-80991021D01*
X167523776Y-80840789D01*
X167555500Y-80681305D01*
X167555500Y-80518695D01*
X167523776Y-80359211D01*
X167461548Y-80208979D01*
X167371208Y-80073775D01*
X167256225Y-79958792D01*
X167121021Y-79868452D01*
X166970789Y-79806224D01*
X166811305Y-79774500D01*
X166648695Y-79774500D01*
X166489211Y-79806224D01*
X166454933Y-79820422D01*
X166483776Y-79750789D01*
X166515500Y-79591305D01*
X166515500Y-79428695D01*
X166483776Y-79269211D01*
X166421548Y-79118979D01*
X166331208Y-78983775D01*
X166216225Y-78868792D01*
X166081021Y-78778452D01*
X165930789Y-78716224D01*
X165771305Y-78684500D01*
X165608695Y-78684500D01*
X165449211Y-78716224D01*
X165298979Y-78778452D01*
X165163775Y-78868792D01*
X165048792Y-78983775D01*
X164958452Y-79118979D01*
X164896224Y-79269211D01*
X164864500Y-79428695D01*
X150437000Y-79428695D01*
X150437000Y-75213000D01*
X174787000Y-75213000D01*
X174787000Y-99563000D01*
%TA.AperFunction,Conductor*%
D12*
G36*
X174787000Y-99563000D02*
G01*
X167225500Y-99563000D01*
X167225500Y-99418695D01*
X167193776Y-99259211D01*
X167131548Y-99108979D01*
X167041208Y-98973775D01*
X166926225Y-98858792D01*
X166791021Y-98768452D01*
X166640789Y-98706224D01*
X166481305Y-98674500D01*
X166318695Y-98674500D01*
X166159211Y-98706224D01*
X166008979Y-98768452D01*
X165873775Y-98858792D01*
X165758792Y-98973775D01*
X165668452Y-99108979D01*
X165606224Y-99259211D01*
X165574500Y-99418695D01*
X165574500Y-99563000D01*
X159902808Y-99563000D01*
X159902808Y-99431387D01*
X159871084Y-99271903D01*
X159808856Y-99121671D01*
X159718516Y-98986467D01*
X159603533Y-98871484D01*
X159468329Y-98781144D01*
X159318097Y-98718916D01*
X159158613Y-98687192D01*
X158996003Y-98687192D01*
X158836519Y-98718916D01*
X158686287Y-98781144D01*
X158551083Y-98871484D01*
X158436100Y-98986467D01*
X158345760Y-99121671D01*
X158283532Y-99271903D01*
X158251808Y-99431387D01*
X158251808Y-99563000D01*
X153560826Y-99563000D01*
X153501208Y-99473775D01*
X153386225Y-99358792D01*
X153251021Y-99268452D01*
X153100789Y-99206224D01*
X152941305Y-99174500D01*
X152778695Y-99174500D01*
X152619211Y-99206224D01*
X152468979Y-99268452D01*
X152333775Y-99358792D01*
X152218792Y-99473775D01*
X152159174Y-99563000D01*
X150437000Y-99563000D01*
X150437000Y-98418695D01*
X161754500Y-98418695D01*
X161754500Y-98581305D01*
X161786224Y-98740789D01*
X161848452Y-98891021D01*
X161938792Y-99026225D01*
X162053775Y-99141208D01*
X162188979Y-99231548D01*
X162339211Y-99293776D01*
X162498695Y-99325500D01*
X162661305Y-99325500D01*
X162820789Y-99293776D01*
X162971021Y-99231548D01*
X163106225Y-99141208D01*
X163221208Y-99026225D01*
X163311548Y-98891021D01*
X163373776Y-98740789D01*
X163405500Y-98581305D01*
X163405500Y-98418695D01*
X163373776Y-98259211D01*
X163311548Y-98108979D01*
X163286276Y-98071157D01*
X163301208Y-98056225D01*
X163391548Y-97921021D01*
X163453776Y-97770789D01*
X163485500Y-97611305D01*
X163485500Y-97448695D01*
X163453776Y-97289211D01*
X163391548Y-97138979D01*
X163301208Y-97003775D01*
X163186225Y-96888792D01*
X163051021Y-96798452D01*
X162900789Y-96736224D01*
X162741305Y-96704500D01*
X162578695Y-96704500D01*
X162419211Y-96736224D01*
X162268979Y-96798452D01*
X162133775Y-96888792D01*
X162018792Y-97003775D01*
X161928452Y-97138979D01*
X161866224Y-97289211D01*
X161834500Y-97448695D01*
X161834500Y-97611305D01*
X161866224Y-97770789D01*
X161928452Y-97921021D01*
X161953724Y-97958843D01*
X161938792Y-97973775D01*
X161848452Y-98108979D01*
X161786224Y-98259211D01*
X161754500Y-98418695D01*
X150437000Y-98418695D01*
X150437000Y-97431387D01*
X158251808Y-97431387D01*
X158251808Y-97593997D01*
X158283532Y-97753481D01*
X158345760Y-97903713D01*
X158436100Y-98038917D01*
X158551083Y-98153900D01*
X158686287Y-98244240D01*
X158836519Y-98306468D01*
X158996003Y-98338192D01*
X159158613Y-98338192D01*
X159318097Y-98306468D01*
X159468329Y-98244240D01*
X159603533Y-98153900D01*
X159718516Y-98038917D01*
X159808856Y-97903713D01*
X159871084Y-97753481D01*
X159902808Y-97593997D01*
X159902808Y-97431387D01*
X159871084Y-97271903D01*
X159808856Y-97121671D01*
X159718516Y-96986467D01*
X159603533Y-96871484D01*
X159468329Y-96781144D01*
X159318097Y-96718916D01*
X159158613Y-96687192D01*
X158996003Y-96687192D01*
X158836519Y-96718916D01*
X158686287Y-96781144D01*
X158551083Y-96871484D01*
X158436100Y-96986467D01*
X158345760Y-97121671D01*
X158283532Y-97271903D01*
X158251808Y-97431387D01*
X150437000Y-97431387D01*
X150437000Y-96428695D01*
X165354500Y-96428695D01*
X165354500Y-96591305D01*
X165386224Y-96750789D01*
X165448452Y-96901021D01*
X165538792Y-97036225D01*
X165653775Y-97151208D01*
X165788979Y-97241548D01*
X165939211Y-97303776D01*
X166098695Y-97335500D01*
X166261305Y-97335500D01*
X166420789Y-97303776D01*
X166571021Y-97241548D01*
X166706225Y-97151208D01*
X166821208Y-97036225D01*
X166911548Y-96901021D01*
X166973776Y-96750789D01*
X167005500Y-96591305D01*
X167005500Y-96428695D01*
X166973776Y-96269211D01*
X166911548Y-96118979D01*
X166852439Y-96030515D01*
X166921548Y-95927085D01*
X166966444Y-95818695D01*
X168114500Y-95818695D01*
X168114500Y-95981305D01*
X168146224Y-96140789D01*
X168208452Y-96291021D01*
X168298792Y-96426225D01*
X168413775Y-96541208D01*
X168548979Y-96631548D01*
X168699211Y-96693776D01*
X168858695Y-96725500D01*
X169021305Y-96725500D01*
X169180789Y-96693776D01*
X169331021Y-96631548D01*
X169466225Y-96541208D01*
X169581208Y-96426225D01*
X169671548Y-96291021D01*
X169733776Y-96140789D01*
X169765500Y-95981305D01*
X169765500Y-95818695D01*
X169733776Y-95659211D01*
X169671548Y-95508979D01*
X169581208Y-95373775D01*
X169466225Y-95258792D01*
X169331021Y-95168452D01*
X169180789Y-95106224D01*
X169021305Y-95074500D01*
X168858695Y-95074500D01*
X168699211Y-95106224D01*
X168548979Y-95168452D01*
X168413775Y-95258792D01*
X168298792Y-95373775D01*
X168208452Y-95508979D01*
X168146224Y-95659211D01*
X168114500Y-95818695D01*
X166966444Y-95818695D01*
X166983776Y-95776853D01*
X167015500Y-95617369D01*
X167015500Y-95454759D01*
X166983776Y-95295275D01*
X166921548Y-95145043D01*
X166831208Y-95009839D01*
X166716225Y-94894856D01*
X166581021Y-94804516D01*
X166430789Y-94742288D01*
X166271305Y-94710564D01*
X166108695Y-94710564D01*
X165949211Y-94742288D01*
X165798979Y-94804516D01*
X165663775Y-94894856D01*
X165548792Y-95009839D01*
X165458452Y-95145043D01*
X165396224Y-95295275D01*
X165364500Y-95454759D01*
X165364500Y-95617369D01*
X165396224Y-95776853D01*
X165458452Y-95927085D01*
X165517561Y-96015549D01*
X165448452Y-96118979D01*
X165386224Y-96269211D01*
X165354500Y-96428695D01*
X150437000Y-96428695D01*
X150437000Y-95431387D01*
X158251808Y-95431387D01*
X158251808Y-95593997D01*
X158283532Y-95753481D01*
X158345760Y-95903713D01*
X158436100Y-96038917D01*
X158551083Y-96153900D01*
X158686287Y-96244240D01*
X158836519Y-96306468D01*
X158996003Y-96338192D01*
X159158613Y-96338192D01*
X159318097Y-96306468D01*
X159468329Y-96244240D01*
X159603533Y-96153900D01*
X159718516Y-96038917D01*
X159808856Y-95903713D01*
X159871084Y-95753481D01*
X159902808Y-95593997D01*
X159902808Y-95431387D01*
X159871084Y-95271903D01*
X159808856Y-95121671D01*
X159718516Y-94986467D01*
X159603533Y-94871484D01*
X159468329Y-94781144D01*
X159318097Y-94718916D01*
X159158613Y-94687192D01*
X158996003Y-94687192D01*
X158836519Y-94718916D01*
X158686287Y-94781144D01*
X158551083Y-94871484D01*
X158436100Y-94986467D01*
X158345760Y-95121671D01*
X158283532Y-95271903D01*
X158251808Y-95431387D01*
X150437000Y-95431387D01*
X150437000Y-94208695D01*
X156714500Y-94208695D01*
X156714500Y-94371305D01*
X156746224Y-94530789D01*
X156808452Y-94681021D01*
X156898792Y-94816225D01*
X157013775Y-94931208D01*
X157148979Y-95021548D01*
X157299211Y-95083776D01*
X157458695Y-95115500D01*
X157621305Y-95115500D01*
X157780789Y-95083776D01*
X157931021Y-95021548D01*
X158066225Y-94931208D01*
X158181208Y-94816225D01*
X158271548Y-94681021D01*
X158333776Y-94530789D01*
X158365500Y-94371305D01*
X158365500Y-94208695D01*
X158333776Y-94049211D01*
X158271548Y-93898979D01*
X158181208Y-93763775D01*
X158066225Y-93648792D01*
X157931021Y-93558452D01*
X157780789Y-93496224D01*
X157621305Y-93464500D01*
X157458695Y-93464500D01*
X157299211Y-93496224D01*
X157148979Y-93558452D01*
X157013775Y-93648792D01*
X156898792Y-93763775D01*
X156808452Y-93898979D01*
X156746224Y-94049211D01*
X156714500Y-94208695D01*
X150437000Y-94208695D01*
X150437000Y-93431387D01*
X158251808Y-93431387D01*
X158251808Y-93593997D01*
X158283532Y-93753481D01*
X158345760Y-93903713D01*
X158436100Y-94038917D01*
X158551083Y-94153900D01*
X158686287Y-94244240D01*
X158836519Y-94306468D01*
X158996003Y-94338192D01*
X159158613Y-94338192D01*
X159318097Y-94306468D01*
X159468329Y-94244240D01*
X159603533Y-94153900D01*
X159718516Y-94038917D01*
X159808856Y-93903713D01*
X159871084Y-93753481D01*
X159902808Y-93593997D01*
X159902808Y-93431387D01*
X159896306Y-93398695D01*
X161794500Y-93398695D01*
X161794500Y-93561305D01*
X161826224Y-93720789D01*
X161888452Y-93871021D01*
X161976292Y-94002483D01*
X161898452Y-94118979D01*
X161836224Y-94269211D01*
X161804500Y-94428695D01*
X161804500Y-94591305D01*
X161836224Y-94750789D01*
X161898452Y-94901021D01*
X161988792Y-95036225D01*
X162103775Y-95151208D01*
X162238979Y-95241548D01*
X162389211Y-95303776D01*
X162548695Y-95335500D01*
X162711305Y-95335500D01*
X162870789Y-95303776D01*
X163021021Y-95241548D01*
X163156225Y-95151208D01*
X163271208Y-95036225D01*
X163361548Y-94901021D01*
X163423776Y-94750789D01*
X163455500Y-94591305D01*
X163455500Y-94428695D01*
X163423776Y-94269211D01*
X163361548Y-94118979D01*
X163273708Y-93987517D01*
X163351548Y-93871021D01*
X163413776Y-93720789D01*
X163445500Y-93561305D01*
X163445500Y-93398695D01*
X163413776Y-93239211D01*
X163351548Y-93088979D01*
X163261208Y-92953775D01*
X163146225Y-92838792D01*
X163011021Y-92748452D01*
X162860789Y-92686224D01*
X162701305Y-92654500D01*
X162538695Y-92654500D01*
X162379211Y-92686224D01*
X162228979Y-92748452D01*
X162093775Y-92838792D01*
X161978792Y-92953775D01*
X161888452Y-93088979D01*
X161826224Y-93239211D01*
X161794500Y-93398695D01*
X159896306Y-93398695D01*
X159871084Y-93271903D01*
X159808856Y-93121671D01*
X159718516Y-92986467D01*
X159603533Y-92871484D01*
X159468329Y-92781144D01*
X159318097Y-92718916D01*
X159158613Y-92687192D01*
X158996003Y-92687192D01*
X158836519Y-92718916D01*
X158686287Y-92781144D01*
X158551083Y-92871484D01*
X158436100Y-92986467D01*
X158345760Y-93121671D01*
X158283532Y-93271903D01*
X158251808Y-93431387D01*
X150437000Y-93431387D01*
X150437000Y-92418695D01*
X165404500Y-92418695D01*
X165404500Y-92581305D01*
X165436224Y-92740789D01*
X165498452Y-92891021D01*
X165588792Y-93026225D01*
X165703775Y-93141208D01*
X165838979Y-93231548D01*
X165989211Y-93293776D01*
X166148695Y-93325500D01*
X166311305Y-93325500D01*
X166470789Y-93293776D01*
X166621021Y-93231548D01*
X166756225Y-93141208D01*
X166871208Y-93026225D01*
X166961548Y-92891021D01*
X167023776Y-92740789D01*
X167055500Y-92581305D01*
X167055500Y-92418695D01*
X167023776Y-92259211D01*
X166961548Y-92108979D01*
X166871208Y-91973775D01*
X166756225Y-91858792D01*
X166681250Y-91808695D01*
X171104500Y-91808695D01*
X171104500Y-91971305D01*
X171136224Y-92130789D01*
X171198452Y-92281021D01*
X171288792Y-92416225D01*
X171403775Y-92531208D01*
X171538979Y-92621548D01*
X171689211Y-92683776D01*
X171848695Y-92715500D01*
X172011305Y-92715500D01*
X172170789Y-92683776D01*
X172321021Y-92621548D01*
X172456225Y-92531208D01*
X172571208Y-92416225D01*
X172661548Y-92281021D01*
X172723776Y-92130789D01*
X172755500Y-91971305D01*
X172755500Y-91808695D01*
X172723776Y-91649211D01*
X172661548Y-91498979D01*
X172571208Y-91363775D01*
X172456225Y-91248792D01*
X172321021Y-91158452D01*
X172170789Y-91096224D01*
X172011305Y-91064500D01*
X171848695Y-91064500D01*
X171689211Y-91096224D01*
X171538979Y-91158452D01*
X171403775Y-91248792D01*
X171288792Y-91363775D01*
X171198452Y-91498979D01*
X171136224Y-91649211D01*
X171104500Y-91808695D01*
X166681250Y-91808695D01*
X166621021Y-91768452D01*
X166470789Y-91706224D01*
X166311305Y-91674500D01*
X166148695Y-91674500D01*
X165989211Y-91706224D01*
X165838979Y-91768452D01*
X165703775Y-91858792D01*
X165588792Y-91973775D01*
X165498452Y-92108979D01*
X165436224Y-92259211D01*
X165404500Y-92418695D01*
X150437000Y-92418695D01*
X150437000Y-91431387D01*
X158251808Y-91431387D01*
X158251808Y-91593997D01*
X158283532Y-91753481D01*
X158345760Y-91903713D01*
X158436100Y-92038917D01*
X158551083Y-92153900D01*
X158686287Y-92244240D01*
X158836519Y-92306468D01*
X158996003Y-92338192D01*
X159158613Y-92338192D01*
X159318097Y-92306468D01*
X159468329Y-92244240D01*
X159603533Y-92153900D01*
X159718516Y-92038917D01*
X159808856Y-91903713D01*
X159871084Y-91753481D01*
X159902808Y-91593997D01*
X159902808Y-91431387D01*
X159871084Y-91271903D01*
X159808856Y-91121671D01*
X159718516Y-90986467D01*
X159603533Y-90871484D01*
X159468329Y-90781144D01*
X159318097Y-90718916D01*
X159158613Y-90687192D01*
X158996003Y-90687192D01*
X158836519Y-90718916D01*
X158686287Y-90781144D01*
X158551083Y-90871484D01*
X158436100Y-90986467D01*
X158345760Y-91121671D01*
X158283532Y-91271903D01*
X158251808Y-91431387D01*
X150437000Y-91431387D01*
X150437000Y-90392906D01*
X161820289Y-90392906D01*
X161820289Y-90555516D01*
X161852013Y-90715000D01*
X161914241Y-90865232D01*
X162004581Y-91000436D01*
X162119564Y-91115419D01*
X162254768Y-91205759D01*
X162405000Y-91267987D01*
X162564484Y-91299711D01*
X162727094Y-91299711D01*
X162886578Y-91267987D01*
X163036810Y-91205759D01*
X163172014Y-91115419D01*
X163286997Y-91000436D01*
X163377337Y-90865232D01*
X163439565Y-90715000D01*
X163471289Y-90555516D01*
X163471289Y-90392906D01*
X163439565Y-90233422D01*
X163419050Y-90183895D01*
X163478913Y-90143896D01*
X163593896Y-90028913D01*
X163684236Y-89893709D01*
X163746464Y-89743477D01*
X163778188Y-89583993D01*
X163778188Y-89421383D01*
X163775665Y-89408695D01*
X168114500Y-89408695D01*
X168114500Y-89571305D01*
X168146224Y-89730789D01*
X168208452Y-89881021D01*
X168298792Y-90016225D01*
X168413775Y-90131208D01*
X168548979Y-90221548D01*
X168699211Y-90283776D01*
X168858695Y-90315500D01*
X169021305Y-90315500D01*
X169180789Y-90283776D01*
X169331021Y-90221548D01*
X169466225Y-90131208D01*
X169581208Y-90016225D01*
X169671548Y-89881021D01*
X169733776Y-89730789D01*
X169765500Y-89571305D01*
X169765500Y-89408695D01*
X169733776Y-89249211D01*
X169671548Y-89098979D01*
X169581208Y-88963775D01*
X169466225Y-88848792D01*
X169331021Y-88758452D01*
X169180789Y-88696224D01*
X169021305Y-88664500D01*
X168858695Y-88664500D01*
X168699211Y-88696224D01*
X168548979Y-88758452D01*
X168413775Y-88848792D01*
X168298792Y-88963775D01*
X168208452Y-89098979D01*
X168146224Y-89249211D01*
X168114500Y-89408695D01*
X163775665Y-89408695D01*
X163746464Y-89261899D01*
X163684236Y-89111667D01*
X163593896Y-88976463D01*
X163478913Y-88861480D01*
X163343709Y-88771140D01*
X163193477Y-88708912D01*
X163033993Y-88677188D01*
X162871383Y-88677188D01*
X162711899Y-88708912D01*
X162561667Y-88771140D01*
X162426463Y-88861480D01*
X162311480Y-88976463D01*
X162221140Y-89111667D01*
X162158912Y-89261899D01*
X162127188Y-89421383D01*
X162127188Y-89583993D01*
X162158912Y-89743477D01*
X162179427Y-89793004D01*
X162119564Y-89833003D01*
X162004581Y-89947986D01*
X161914241Y-90083190D01*
X161852013Y-90233422D01*
X161820289Y-90392906D01*
X150437000Y-90392906D01*
X150437000Y-89428695D01*
X155874500Y-89428695D01*
X155874500Y-89591305D01*
X155906224Y-89750789D01*
X155968452Y-89901021D01*
X156058792Y-90036225D01*
X156173775Y-90151208D01*
X156308979Y-90241548D01*
X156459211Y-90303776D01*
X156618695Y-90335500D01*
X156781305Y-90335500D01*
X156940789Y-90303776D01*
X157091021Y-90241548D01*
X157226225Y-90151208D01*
X157341208Y-90036225D01*
X157431548Y-89901021D01*
X157493776Y-89750789D01*
X157525500Y-89591305D01*
X157525500Y-89431387D01*
X158251808Y-89431387D01*
X158251808Y-89593997D01*
X158283532Y-89753481D01*
X158345760Y-89903713D01*
X158436100Y-90038917D01*
X158551083Y-90153900D01*
X158686287Y-90244240D01*
X158836519Y-90306468D01*
X158996003Y-90338192D01*
X159158613Y-90338192D01*
X159318097Y-90306468D01*
X159468329Y-90244240D01*
X159603533Y-90153900D01*
X159718516Y-90038917D01*
X159808856Y-89903713D01*
X159871084Y-89753481D01*
X159902808Y-89593997D01*
X159902808Y-89431387D01*
X159871084Y-89271903D01*
X159808856Y-89121671D01*
X159718516Y-88986467D01*
X159603533Y-88871484D01*
X159468329Y-88781144D01*
X159318097Y-88718916D01*
X159158613Y-88687192D01*
X158996003Y-88687192D01*
X158836519Y-88718916D01*
X158686287Y-88781144D01*
X158551083Y-88871484D01*
X158436100Y-88986467D01*
X158345760Y-89121671D01*
X158283532Y-89271903D01*
X158251808Y-89431387D01*
X157525500Y-89431387D01*
X157525500Y-89428695D01*
X157493776Y-89269211D01*
X157431548Y-89118979D01*
X157341208Y-88983775D01*
X157226225Y-88868792D01*
X157091021Y-88778452D01*
X156940789Y-88716224D01*
X156781305Y-88684500D01*
X156618695Y-88684500D01*
X156459211Y-88716224D01*
X156308979Y-88778452D01*
X156173775Y-88868792D01*
X156058792Y-88983775D01*
X155968452Y-89118979D01*
X155906224Y-89269211D01*
X155874500Y-89428695D01*
X150437000Y-89428695D01*
X150437000Y-87431387D01*
X158251808Y-87431387D01*
X158251808Y-87593997D01*
X158283532Y-87753481D01*
X158345760Y-87903713D01*
X158436100Y-88038917D01*
X158551083Y-88153900D01*
X158686287Y-88244240D01*
X158836519Y-88306468D01*
X158996003Y-88338192D01*
X159158613Y-88338192D01*
X159318097Y-88306468D01*
X159468329Y-88244240D01*
X159603533Y-88153900D01*
X159718516Y-88038917D01*
X159808856Y-87903713D01*
X159871084Y-87753481D01*
X159902808Y-87593997D01*
X159902808Y-87431387D01*
X159900819Y-87421387D01*
X165581808Y-87421387D01*
X165581808Y-87583997D01*
X165613532Y-87743481D01*
X165675760Y-87893713D01*
X165766100Y-88028917D01*
X165881083Y-88143900D01*
X166016287Y-88234240D01*
X166166519Y-88296468D01*
X166326003Y-88328192D01*
X166488613Y-88328192D01*
X166648097Y-88296468D01*
X166798329Y-88234240D01*
X166933533Y-88143900D01*
X167048516Y-88028917D01*
X167138856Y-87893713D01*
X167201084Y-87743481D01*
X167232808Y-87583997D01*
X167232808Y-87560405D01*
X167308695Y-87575500D01*
X167471305Y-87575500D01*
X167630789Y-87543776D01*
X167781021Y-87481548D01*
X167916225Y-87391208D01*
X168031208Y-87276225D01*
X168121548Y-87141021D01*
X168183776Y-86990789D01*
X168215500Y-86831305D01*
X168215500Y-86668695D01*
X168183776Y-86509211D01*
X168121548Y-86358979D01*
X168031208Y-86223775D01*
X167916225Y-86108792D01*
X167781021Y-86018452D01*
X167630789Y-85956224D01*
X167471305Y-85924500D01*
X167308695Y-85924500D01*
X167149211Y-85956224D01*
X166998979Y-86018452D01*
X166863775Y-86108792D01*
X166748792Y-86223775D01*
X166658452Y-86358979D01*
X166596224Y-86509211D01*
X166564500Y-86668695D01*
X166564500Y-86692287D01*
X166488613Y-86677192D01*
X166326003Y-86677192D01*
X166166519Y-86708916D01*
X166016287Y-86771144D01*
X165881083Y-86861484D01*
X165766100Y-86976467D01*
X165675760Y-87111671D01*
X165613532Y-87261903D01*
X165581808Y-87421387D01*
X159900819Y-87421387D01*
X159871084Y-87271903D01*
X159808856Y-87121671D01*
X159718516Y-86986467D01*
X159603533Y-86871484D01*
X159468329Y-86781144D01*
X159318097Y-86718916D01*
X159158613Y-86687192D01*
X158996003Y-86687192D01*
X158836519Y-86718916D01*
X158686287Y-86781144D01*
X158551083Y-86871484D01*
X158436100Y-86986467D01*
X158345760Y-87121671D01*
X158283532Y-87271903D01*
X158251808Y-87431387D01*
X150437000Y-87431387D01*
X150437000Y-85431387D01*
X158301808Y-85431387D01*
X158301808Y-85593997D01*
X158333532Y-85753481D01*
X158395760Y-85903713D01*
X158486100Y-86038917D01*
X158601083Y-86153900D01*
X158736287Y-86244240D01*
X158886519Y-86306468D01*
X159046003Y-86338192D01*
X159208613Y-86338192D01*
X159368097Y-86306468D01*
X159518329Y-86244240D01*
X159653533Y-86153900D01*
X159768516Y-86038917D01*
X159858856Y-85903713D01*
X159921084Y-85753481D01*
X159952808Y-85593997D01*
X159952808Y-85431387D01*
X159921084Y-85271903D01*
X159858856Y-85121671D01*
X159768516Y-84986467D01*
X159653533Y-84871484D01*
X159518329Y-84781144D01*
X159368097Y-84718916D01*
X159208613Y-84687192D01*
X159046003Y-84687192D01*
X158886519Y-84718916D01*
X158736287Y-84781144D01*
X158601083Y-84871484D01*
X158486100Y-84986467D01*
X158395760Y-85121671D01*
X158333532Y-85271903D01*
X158301808Y-85431387D01*
X150437000Y-85431387D01*
X150437000Y-80938695D01*
X161804500Y-80938695D01*
X161804500Y-81101305D01*
X161836224Y-81260789D01*
X161898452Y-81411021D01*
X161988792Y-81546225D01*
X162103775Y-81661208D01*
X162238979Y-81751548D01*
X162389211Y-81813776D01*
X162548695Y-81845500D01*
X162711305Y-81845500D01*
X162870789Y-81813776D01*
X163021021Y-81751548D01*
X163156225Y-81661208D01*
X163271208Y-81546225D01*
X163361548Y-81411021D01*
X163423776Y-81260789D01*
X163455500Y-81101305D01*
X163455500Y-80938695D01*
X163423776Y-80779211D01*
X163361548Y-80628979D01*
X163271208Y-80493775D01*
X163156225Y-80378792D01*
X163021021Y-80288452D01*
X162870789Y-80226224D01*
X162711305Y-80194500D01*
X162548695Y-80194500D01*
X162389211Y-80226224D01*
X162238979Y-80288452D01*
X162103775Y-80378792D01*
X161988792Y-80493775D01*
X161898452Y-80628979D01*
X161836224Y-80779211D01*
X161804500Y-80938695D01*
X150437000Y-80938695D01*
X150437000Y-79428695D01*
X164864500Y-79428695D01*
X164864500Y-79591305D01*
X164896224Y-79750789D01*
X164958452Y-79901021D01*
X165048792Y-80036225D01*
X165163775Y-80151208D01*
X165298979Y-80241548D01*
X165449211Y-80303776D01*
X165608695Y-80335500D01*
X165771305Y-80335500D01*
X165930789Y-80303776D01*
X165965067Y-80289578D01*
X165936224Y-80359211D01*
X165904500Y-80518695D01*
X165904500Y-80681305D01*
X165936224Y-80840789D01*
X165998452Y-80991021D01*
X166088792Y-81126225D01*
X166203775Y-81241208D01*
X166338979Y-81331548D01*
X166489211Y-81393776D01*
X166648695Y-81425500D01*
X166797549Y-81425500D01*
X166748452Y-81498979D01*
X166686224Y-81649211D01*
X166654500Y-81808695D01*
X166654500Y-81971305D01*
X166686224Y-82130789D01*
X166748452Y-82281021D01*
X166838792Y-82416225D01*
X166953775Y-82531208D01*
X167088979Y-82621548D01*
X167239211Y-82683776D01*
X167398695Y-82715500D01*
X167561305Y-82715500D01*
X167720789Y-82683776D01*
X167871021Y-82621548D01*
X168006225Y-82531208D01*
X168121208Y-82416225D01*
X168211548Y-82281021D01*
X168273776Y-82130789D01*
X168305500Y-81971305D01*
X168305500Y-81808695D01*
X168273776Y-81649211D01*
X168211548Y-81498979D01*
X168121208Y-81363775D01*
X168006225Y-81248792D01*
X167871021Y-81158452D01*
X167720789Y-81096224D01*
X167561305Y-81064500D01*
X167412451Y-81064500D01*
X167461548Y-80991021D01*
X167523776Y-80840789D01*
X167555500Y-80681305D01*
X167555500Y-80518695D01*
X167523776Y-80359211D01*
X167461548Y-80208979D01*
X167371208Y-80073775D01*
X167256225Y-79958792D01*
X167121021Y-79868452D01*
X166970789Y-79806224D01*
X166811305Y-79774500D01*
X166648695Y-79774500D01*
X166489211Y-79806224D01*
X166454933Y-79820422D01*
X166483776Y-79750789D01*
X166515500Y-79591305D01*
X166515500Y-79428695D01*
X166483776Y-79269211D01*
X166421548Y-79118979D01*
X166331208Y-78983775D01*
X166216225Y-78868792D01*
X166081021Y-78778452D01*
X165930789Y-78716224D01*
X165771305Y-78684500D01*
X165608695Y-78684500D01*
X165449211Y-78716224D01*
X165298979Y-78778452D01*
X165163775Y-78868792D01*
X165048792Y-78983775D01*
X164958452Y-79118979D01*
X164896224Y-79269211D01*
X164864500Y-79428695D01*
X150437000Y-79428695D01*
X150437000Y-75213000D01*
X174787000Y-75213000D01*
X174787000Y-99563000D01*
G37*
%TD.AperFunction*%
%TD*%
D11*
%TO.N,/BIAS2*%
X140144500Y-100581305D02*
X140176224Y-100740789D01*
X140238452Y-100891021D01*
X140328792Y-101026225D01*
X140443775Y-101141208D01*
X140578979Y-101231548D01*
X140729211Y-101293776D01*
X140888695Y-101325500D01*
X141051305Y-101325500D01*
X141210789Y-101293776D01*
X141361021Y-101231548D01*
X141496225Y-101141208D01*
X141611208Y-101026225D01*
X141701548Y-100891021D01*
X141763776Y-100740789D01*
X141795500Y-100581305D01*
X141795500Y-100437000D01*
X147209174Y-100437000D01*
X147268792Y-100526225D01*
X147383775Y-100641208D01*
X147518979Y-100731548D01*
X147669211Y-100793776D01*
X147828695Y-100825500D01*
X147991305Y-100825500D01*
X148150789Y-100793776D01*
X148301021Y-100731548D01*
X148436225Y-100641208D01*
X148551208Y-100526225D01*
X148610826Y-100437000D01*
X149563000Y-100437000D01*
X149563000Y-104699174D01*
X149473775Y-104758792D01*
X149358792Y-104873775D01*
X149268452Y-105008979D01*
X149206224Y-105159211D01*
X149174500Y-105318695D01*
X149174500Y-105481305D01*
X149206224Y-105640789D01*
X149268452Y-105791021D01*
X149358792Y-105926225D01*
X149473775Y-106041208D01*
X149563000Y-106100826D01*
X149563000Y-124787000D01*
X125213000Y-124787000D01*
X125213000Y-117418695D01*
X136534500Y-117418695D01*
X136534500Y-117581305D01*
X136566224Y-117740789D01*
X136628452Y-117891021D01*
X136718792Y-118026225D01*
X136833775Y-118141208D01*
X136968979Y-118231548D01*
X137119211Y-118293776D01*
X137278695Y-118325500D01*
X137441305Y-118325500D01*
X137600789Y-118293776D01*
X137751021Y-118231548D01*
X137886225Y-118141208D01*
X138001208Y-118026225D01*
X138091548Y-117891021D01*
X138153776Y-117740789D01*
X138185500Y-117581305D01*
X138185500Y-117418695D01*
X138153776Y-117259211D01*
X138091548Y-117108979D01*
X138001208Y-116973775D01*
X137886225Y-116858792D01*
X137751021Y-116768452D01*
X137600789Y-116706224D01*
X137441305Y-116674500D01*
X137278695Y-116674500D01*
X137119211Y-116706224D01*
X136968979Y-116768452D01*
X136833775Y-116858792D01*
X136718792Y-116973775D01*
X136628452Y-117108979D01*
X136566224Y-117259211D01*
X136534500Y-117418695D01*
X125213000Y-117418695D01*
X125213000Y-115441387D01*
X132881808Y-115441387D01*
X132881808Y-115603997D01*
X132913532Y-115763481D01*
X132975760Y-115913713D01*
X133066100Y-116048917D01*
X133181083Y-116163900D01*
X133316287Y-116254240D01*
X133466519Y-116316468D01*
X133626003Y-116348192D01*
X133788613Y-116348192D01*
X133948097Y-116316468D01*
X134098329Y-116254240D01*
X134233533Y-116163900D01*
X134348516Y-116048917D01*
X134438856Y-115913713D01*
X134501084Y-115763481D01*
X134532808Y-115603997D01*
X134532808Y-115441387D01*
X134501084Y-115281903D01*
X134438856Y-115131671D01*
X134348516Y-114996467D01*
X134233533Y-114881484D01*
X134098329Y-114791144D01*
X133948097Y-114728916D01*
X133788613Y-114697192D01*
X133626003Y-114697192D01*
X133466519Y-114728916D01*
X133316287Y-114791144D01*
X133181083Y-114881484D01*
X133066100Y-114996467D01*
X132975760Y-115131671D01*
X132913532Y-115281903D01*
X132881808Y-115441387D01*
X125213000Y-115441387D01*
X125213000Y-113411195D01*
X131602000Y-113411195D01*
X131602000Y-113573805D01*
X131633724Y-113733289D01*
X131695952Y-113883521D01*
X131786292Y-114018725D01*
X131901275Y-114133708D01*
X132036479Y-114224048D01*
X132186711Y-114286276D01*
X132346195Y-114318000D01*
X132508805Y-114318000D01*
X132668289Y-114286276D01*
X132818521Y-114224048D01*
X132953725Y-114133708D01*
X133055051Y-114032382D01*
X133066100Y-114048917D01*
X133181083Y-114163900D01*
X133316287Y-114254240D01*
X133466519Y-114316468D01*
X133626003Y-114348192D01*
X133788613Y-114348192D01*
X133948097Y-114316468D01*
X134098329Y-114254240D01*
X134233533Y-114163900D01*
X134348516Y-114048917D01*
X134438856Y-113913713D01*
X134501084Y-113763481D01*
X134532808Y-113603997D01*
X134532808Y-113441387D01*
X134530284Y-113428695D01*
X140164500Y-113428695D01*
X140164500Y-113591305D01*
X140196224Y-113750789D01*
X140258452Y-113901021D01*
X140348792Y-114036225D01*
X140463775Y-114151208D01*
X140598979Y-114241548D01*
X140749211Y-114303776D01*
X140908695Y-114335500D01*
X141071305Y-114335500D01*
X141230789Y-114303776D01*
X141381021Y-114241548D01*
X141516225Y-114151208D01*
X141631208Y-114036225D01*
X141721548Y-113901021D01*
X141783776Y-113750789D01*
X141815500Y-113591305D01*
X141815500Y-113428695D01*
X141783776Y-113269211D01*
X141721548Y-113118979D01*
X141631208Y-112983775D01*
X141516225Y-112868792D01*
X141381021Y-112778452D01*
X141230789Y-112716224D01*
X141071305Y-112684500D01*
X140908695Y-112684500D01*
X140749211Y-112716224D01*
X140598979Y-112778452D01*
X140463775Y-112868792D01*
X140348792Y-112983775D01*
X140258452Y-113118979D01*
X140196224Y-113269211D01*
X140164500Y-113428695D01*
X134530284Y-113428695D01*
X134501084Y-113281903D01*
X134438856Y-113131671D01*
X134348516Y-112996467D01*
X134233533Y-112881484D01*
X134098329Y-112791144D01*
X133948097Y-112728916D01*
X133788613Y-112697192D01*
X133626003Y-112697192D01*
X133466519Y-112728916D01*
X133316287Y-112791144D01*
X133181083Y-112881484D01*
X133079757Y-112982810D01*
X133068708Y-112966275D01*
X132953725Y-112851292D01*
X132818521Y-112760952D01*
X132668289Y-112698724D01*
X132508805Y-112667000D01*
X132346195Y-112667000D01*
X132186711Y-112698724D01*
X132036479Y-112760952D01*
X131901275Y-112851292D01*
X131786292Y-112966275D01*
X131695952Y-113101479D01*
X131633724Y-113251711D01*
X131602000Y-113411195D01*
X125213000Y-113411195D01*
X125213000Y-112421337D01*
X141921858Y-112421337D01*
X141921858Y-112583947D01*
X141953582Y-112743431D01*
X142015810Y-112893663D01*
X142106150Y-113028867D01*
X142221133Y-113143850D01*
X142356337Y-113234190D01*
X142506569Y-113296418D01*
X142666053Y-113328142D01*
X142828663Y-113328142D01*
X142988147Y-113296418D01*
X143138379Y-113234190D01*
X143273583Y-113143850D01*
X143388566Y-113028867D01*
X143435453Y-112958695D01*
X144054500Y-112958695D01*
X144054500Y-113121305D01*
X144086224Y-113280789D01*
X144148452Y-113431021D01*
X144238792Y-113566225D01*
X144353775Y-113681208D01*
X144488979Y-113771548D01*
X144639211Y-113833776D01*
X144798695Y-113865500D01*
X144961305Y-113865500D01*
X145120789Y-113833776D01*
X145271021Y-113771548D01*
X145406225Y-113681208D01*
X145521208Y-113566225D01*
X145611548Y-113431021D01*
X145673776Y-113280789D01*
X145705500Y-113121305D01*
X145705500Y-112958695D01*
X145673776Y-112799211D01*
X145611548Y-112648979D01*
X145521208Y-112513775D01*
X145406225Y-112398792D01*
X145271021Y-112308452D01*
X145120789Y-112246224D01*
X144961305Y-112214500D01*
X144798695Y-112214500D01*
X144639211Y-112246224D01*
X144488979Y-112308452D01*
X144353775Y-112398792D01*
X144238792Y-112513775D01*
X144148452Y-112648979D01*
X144086224Y-112799211D01*
X144054500Y-112958695D01*
X143435453Y-112958695D01*
X143478906Y-112893663D01*
X143541134Y-112743431D01*
X143572858Y-112583947D01*
X143572858Y-112421337D01*
X143541134Y-112261853D01*
X143478906Y-112111621D01*
X143388566Y-111976417D01*
X143273583Y-111861434D01*
X143138379Y-111771094D01*
X142988147Y-111708866D01*
X142828663Y-111677142D01*
X142666053Y-111677142D01*
X142506569Y-111708866D01*
X142356337Y-111771094D01*
X142221133Y-111861434D01*
X142106150Y-111976417D01*
X142015810Y-112111621D01*
X141953582Y-112261853D01*
X141921858Y-112421337D01*
X125213000Y-112421337D01*
X125213000Y-111441387D01*
X132881808Y-111441387D01*
X132881808Y-111603997D01*
X132913532Y-111763481D01*
X132975760Y-111913713D01*
X133066100Y-112048917D01*
X133181083Y-112163900D01*
X133316287Y-112254240D01*
X133466519Y-112316468D01*
X133626003Y-112348192D01*
X133788613Y-112348192D01*
X133948097Y-112316468D01*
X134098329Y-112254240D01*
X134233533Y-112163900D01*
X134348516Y-112048917D01*
X134438856Y-111913713D01*
X134501084Y-111763481D01*
X134532808Y-111603997D01*
X134532808Y-111441387D01*
X134501084Y-111281903D01*
X134438856Y-111131671D01*
X134348516Y-110996467D01*
X134233533Y-110881484D01*
X134098329Y-110791144D01*
X133948097Y-110728916D01*
X133788613Y-110697192D01*
X133626003Y-110697192D01*
X133466519Y-110728916D01*
X133316287Y-110791144D01*
X133181083Y-110881484D01*
X133066100Y-110996467D01*
X132975760Y-111131671D01*
X132913532Y-111281903D01*
X132881808Y-111441387D01*
X125213000Y-111441387D01*
X125213000Y-109441387D01*
X132881808Y-109441387D01*
X132881808Y-109603997D01*
X132913532Y-109763481D01*
X132975760Y-109913713D01*
X133066100Y-110048917D01*
X133181083Y-110163900D01*
X133316287Y-110254240D01*
X133466519Y-110316468D01*
X133626003Y-110348192D01*
X133788613Y-110348192D01*
X133948097Y-110316468D01*
X134098329Y-110254240D01*
X134233533Y-110163900D01*
X134348516Y-110048917D01*
X134438856Y-109913713D01*
X134501084Y-109763481D01*
X134532808Y-109603997D01*
X134532808Y-109441387D01*
X134528295Y-109418695D01*
X136504500Y-109418695D01*
X136504500Y-109581305D01*
X136536224Y-109740789D01*
X136598452Y-109891021D01*
X136688792Y-110026225D01*
X136745713Y-110083146D01*
X136728452Y-110108979D01*
X136666224Y-110259211D01*
X136634500Y-110418695D01*
X136634500Y-110581305D01*
X136666224Y-110740789D01*
X136728452Y-110891021D01*
X136818792Y-111026225D01*
X136933775Y-111141208D01*
X137068979Y-111231548D01*
X137219211Y-111293776D01*
X137378695Y-111325500D01*
X137541305Y-111325500D01*
X137700789Y-111293776D01*
X137851021Y-111231548D01*
X137986225Y-111141208D01*
X138101208Y-111026225D01*
X138191548Y-110891021D01*
X138253776Y-110740789D01*
X138285500Y-110581305D01*
X138285500Y-110418695D01*
X138253776Y-110259211D01*
X138236994Y-110218695D01*
X142641856Y-110218695D01*
X142641856Y-110381305D01*
X142673580Y-110540789D01*
X142735808Y-110691021D01*
X142826148Y-110826225D01*
X142941131Y-110941208D01*
X143076335Y-111031548D01*
X143226567Y-111093776D01*
X143386051Y-111125500D01*
X143548661Y-111125500D01*
X143708145Y-111093776D01*
X143858377Y-111031548D01*
X143993581Y-110941208D01*
X144108564Y-110826225D01*
X144198904Y-110691021D01*
X144261132Y-110540789D01*
X144292856Y-110381305D01*
X144292856Y-110218695D01*
X144261132Y-110059211D01*
X144198904Y-109908979D01*
X144108564Y-109773775D01*
X143993581Y-109658792D01*
X143858377Y-109568452D01*
X143708145Y-109506224D01*
X143548661Y-109474500D01*
X143386051Y-109474500D01*
X143226567Y-109506224D01*
X143076335Y-109568452D01*
X142941131Y-109658792D01*
X142826148Y-109773775D01*
X142735808Y-109908979D01*
X142673580Y-110059211D01*
X142641856Y-110218695D01*
X138236994Y-110218695D01*
X138191548Y-110108979D01*
X138101208Y-109973775D01*
X138044287Y-109916854D01*
X138061548Y-109891021D01*
X138123776Y-109740789D01*
X138155500Y-109581305D01*
X138155500Y-109418695D01*
X138123776Y-109259211D01*
X138061548Y-109108979D01*
X137971208Y-108973775D01*
X137856225Y-108858792D01*
X137721021Y-108768452D01*
X137570789Y-108706224D01*
X137411305Y-108674500D01*
X137248695Y-108674500D01*
X137089211Y-108706224D01*
X136938979Y-108768452D01*
X136803775Y-108858792D01*
X136688792Y-108973775D01*
X136598452Y-109108979D01*
X136536224Y-109259211D01*
X136504500Y-109418695D01*
X134528295Y-109418695D01*
X134501084Y-109281903D01*
X134438856Y-109131671D01*
X134348516Y-108996467D01*
X134233533Y-108881484D01*
X134098329Y-108791144D01*
X133948097Y-108728916D01*
X133788613Y-108697192D01*
X133626003Y-108697192D01*
X133466519Y-108728916D01*
X133316287Y-108791144D01*
X133181083Y-108881484D01*
X133066100Y-108996467D01*
X132975760Y-109131671D01*
X132913532Y-109281903D01*
X132881808Y-109441387D01*
X125213000Y-109441387D01*
X125213000Y-108418695D01*
X140054500Y-108418695D01*
X140054500Y-108581305D01*
X140086224Y-108740789D01*
X140148452Y-108891021D01*
X140238792Y-109026225D01*
X140353775Y-109141208D01*
X140488979Y-109231548D01*
X140639211Y-109293776D01*
X140798695Y-109325500D01*
X140961305Y-109325500D01*
X141120789Y-109293776D01*
X141271021Y-109231548D01*
X141406225Y-109141208D01*
X141521208Y-109026225D01*
X141611548Y-108891021D01*
X141673776Y-108740789D01*
X141705500Y-108581305D01*
X141705500Y-108418695D01*
X141703511Y-108408695D01*
X142724500Y-108408695D01*
X142724500Y-108571305D01*
X142756224Y-108730789D01*
X142818452Y-108881021D01*
X142908792Y-109016225D01*
X143023775Y-109131208D01*
X143158979Y-109221548D01*
X143309211Y-109283776D01*
X143468695Y-109315500D01*
X143631305Y-109315500D01*
X143790789Y-109283776D01*
X143941021Y-109221548D01*
X144076225Y-109131208D01*
X144191208Y-109016225D01*
X144281548Y-108881021D01*
X144343776Y-108730789D01*
X144375500Y-108571305D01*
X144375500Y-108408695D01*
X144343776Y-108249211D01*
X144281548Y-108098979D01*
X144191208Y-107963775D01*
X144076225Y-107848792D01*
X143941021Y-107758452D01*
X143790789Y-107696224D01*
X143631305Y-107664500D01*
X143468695Y-107664500D01*
X143309211Y-107696224D01*
X143158979Y-107758452D01*
X143023775Y-107848792D01*
X142908792Y-107963775D01*
X142818452Y-108098979D01*
X142756224Y-108249211D01*
X142724500Y-108408695D01*
X141703511Y-108408695D01*
X141673776Y-108259211D01*
X141611548Y-108108979D01*
X141521208Y-107973775D01*
X141406225Y-107858792D01*
X141271021Y-107768452D01*
X141120789Y-107706224D01*
X140961305Y-107674500D01*
X140798695Y-107674500D01*
X140639211Y-107706224D01*
X140488979Y-107768452D01*
X140353775Y-107858792D01*
X140238792Y-107973775D01*
X140148452Y-108108979D01*
X140086224Y-108259211D01*
X140054500Y-108418695D01*
X125213000Y-108418695D01*
X125213000Y-107091195D01*
X131232000Y-107091195D01*
X131232000Y-107253805D01*
X131263724Y-107413289D01*
X131325952Y-107563521D01*
X131416292Y-107698725D01*
X131531275Y-107813708D01*
X131666479Y-107904048D01*
X131816711Y-107966276D01*
X131976195Y-107998000D01*
X132138805Y-107998000D01*
X132298289Y-107966276D01*
X132448521Y-107904048D01*
X132583725Y-107813708D01*
X132698708Y-107698725D01*
X132789048Y-107563521D01*
X132839637Y-107441387D01*
X132881808Y-107441387D01*
X132881808Y-107603997D01*
X132913532Y-107763481D01*
X132975760Y-107913713D01*
X133066100Y-108048917D01*
X133181083Y-108163900D01*
X133316287Y-108254240D01*
X133466519Y-108316468D01*
X133626003Y-108348192D01*
X133788613Y-108348192D01*
X133948097Y-108316468D01*
X134098329Y-108254240D01*
X134233533Y-108163900D01*
X134348516Y-108048917D01*
X134438856Y-107913713D01*
X134501084Y-107763481D01*
X134532808Y-107603997D01*
X134532808Y-107441387D01*
X134501084Y-107281903D01*
X134438856Y-107131671D01*
X134348516Y-106996467D01*
X134233533Y-106881484D01*
X134098329Y-106791144D01*
X133948097Y-106728916D01*
X133788613Y-106697192D01*
X133626003Y-106697192D01*
X133466519Y-106728916D01*
X133316287Y-106791144D01*
X133181083Y-106881484D01*
X133066100Y-106996467D01*
X132975760Y-107131671D01*
X132913532Y-107281903D01*
X132881808Y-107441387D01*
X132839637Y-107441387D01*
X132851276Y-107413289D01*
X132883000Y-107253805D01*
X132883000Y-107091195D01*
X132851276Y-106931711D01*
X132789048Y-106781479D01*
X132698708Y-106646275D01*
X132583725Y-106531292D01*
X132448521Y-106440952D01*
X132418930Y-106428695D01*
X136534500Y-106428695D01*
X136534500Y-106591305D01*
X136566224Y-106750789D01*
X136628452Y-106901021D01*
X136718792Y-107036225D01*
X136833775Y-107151208D01*
X136968979Y-107241548D01*
X137119211Y-107303776D01*
X137278695Y-107335500D01*
X137441305Y-107335500D01*
X137600789Y-107303776D01*
X137751021Y-107241548D01*
X137886225Y-107151208D01*
X138001208Y-107036225D01*
X138091548Y-106901021D01*
X138153776Y-106750789D01*
X138185500Y-106591305D01*
X138185500Y-106428695D01*
X138153776Y-106269211D01*
X138091548Y-106118979D01*
X138037072Y-106037449D01*
X138083011Y-105968695D01*
X141074500Y-105968695D01*
X141074500Y-106131305D01*
X141106224Y-106290789D01*
X141168452Y-106441021D01*
X141258792Y-106576225D01*
X141373775Y-106691208D01*
X141508979Y-106781548D01*
X141659211Y-106843776D01*
X141818695Y-106875500D01*
X141882317Y-106875500D01*
X141938452Y-107011021D01*
X142028792Y-107146225D01*
X142143775Y-107261208D01*
X142278979Y-107351548D01*
X142429211Y-107413776D01*
X142588695Y-107445500D01*
X142751305Y-107445500D01*
X142910789Y-107413776D01*
X143061021Y-107351548D01*
X143196225Y-107261208D01*
X143311208Y-107146225D01*
X143401548Y-107011021D01*
X143463776Y-106860789D01*
X143495500Y-106701305D01*
X143495500Y-106538695D01*
X143463776Y-106379211D01*
X143401548Y-106228979D01*
X143311208Y-106093775D01*
X143196225Y-105978792D01*
X143061021Y-105888452D01*
X142910789Y-105826224D01*
X142751305Y-105794500D01*
X142687683Y-105794500D01*
X142631548Y-105658979D01*
X142541208Y-105523775D01*
X142426225Y-105408792D01*
X142291021Y-105318452D01*
X142140789Y-105256224D01*
X141981305Y-105224500D01*
X141818695Y-105224500D01*
X141659211Y-105256224D01*
X141508979Y-105318452D01*
X141373775Y-105408792D01*
X141258792Y-105523775D01*
X141168452Y-105658979D01*
X141106224Y-105809211D01*
X141074500Y-105968695D01*
X138083011Y-105968695D01*
X138121548Y-105911021D01*
X138183776Y-105760789D01*
X138215500Y-105601305D01*
X138215500Y-105438695D01*
X138183776Y-105279211D01*
X138121548Y-105128979D01*
X138031208Y-104993775D01*
X137916225Y-104878792D01*
X137781021Y-104788452D01*
X137630789Y-104726224D01*
X137471305Y-104694500D01*
X137308695Y-104694500D01*
X137149211Y-104726224D01*
X136998979Y-104788452D01*
X136863775Y-104878792D01*
X136748792Y-104993775D01*
X136658452Y-105128979D01*
X136596224Y-105279211D01*
X136564500Y-105438695D01*
X136564500Y-105601305D01*
X136596224Y-105760789D01*
X136658452Y-105911021D01*
X136712928Y-105992551D01*
X136628452Y-106118979D01*
X136566224Y-106269211D01*
X136534500Y-106428695D01*
X132418930Y-106428695D01*
X132298289Y-106378724D01*
X132138805Y-106347000D01*
X131976195Y-106347000D01*
X131816711Y-106378724D01*
X131666479Y-106440952D01*
X131531275Y-106531292D01*
X131416292Y-106646275D01*
X131325952Y-106781479D01*
X131263724Y-106931711D01*
X131232000Y-107091195D01*
X125213000Y-107091195D01*
X125213000Y-105441387D01*
X132881808Y-105441387D01*
X132881808Y-105603997D01*
X132913532Y-105763481D01*
X132975760Y-105913713D01*
X133066100Y-106048917D01*
X133181083Y-106163900D01*
X133316287Y-106254240D01*
X133466519Y-106316468D01*
X133626003Y-106348192D01*
X133788613Y-106348192D01*
X133948097Y-106316468D01*
X134098329Y-106254240D01*
X134233533Y-106163900D01*
X134348516Y-106048917D01*
X134438856Y-105913713D01*
X134501084Y-105763481D01*
X134532808Y-105603997D01*
X134532808Y-105441387D01*
X134501084Y-105281903D01*
X134438856Y-105131671D01*
X134348516Y-104996467D01*
X134233533Y-104881484D01*
X134098329Y-104791144D01*
X133948097Y-104728916D01*
X133788613Y-104697192D01*
X133626003Y-104697192D01*
X133466519Y-104728916D01*
X133316287Y-104791144D01*
X133181083Y-104881484D01*
X133066100Y-104996467D01*
X132975760Y-105131671D01*
X132913532Y-105281903D01*
X132881808Y-105441387D01*
X125213000Y-105441387D01*
X125213000Y-103441387D01*
X132881808Y-103441387D01*
X132881808Y-103603997D01*
X132913532Y-103763481D01*
X132975760Y-103913713D01*
X133066100Y-104048917D01*
X133181083Y-104163900D01*
X133316287Y-104254240D01*
X133466519Y-104316468D01*
X133626003Y-104348192D01*
X133788613Y-104348192D01*
X133948097Y-104316468D01*
X134098329Y-104254240D01*
X134233533Y-104163900D01*
X134348516Y-104048917D01*
X134438856Y-103913713D01*
X134501084Y-103763481D01*
X134532808Y-103603997D01*
X134532808Y-103441387D01*
X134528295Y-103418695D01*
X141814500Y-103418695D01*
X141814500Y-103581305D01*
X141846224Y-103740789D01*
X141908452Y-103891021D01*
X141998792Y-104026225D01*
X142113775Y-104141208D01*
X142248979Y-104231548D01*
X142399211Y-104293776D01*
X142558695Y-104325500D01*
X142721305Y-104325500D01*
X142880789Y-104293776D01*
X143031021Y-104231548D01*
X143166225Y-104141208D01*
X143281208Y-104026225D01*
X143371548Y-103891021D01*
X143433776Y-103740789D01*
X143465500Y-103581305D01*
X143465500Y-103418695D01*
X143433776Y-103259211D01*
X143371548Y-103108979D01*
X143281208Y-102973775D01*
X143166225Y-102858792D01*
X143031021Y-102768452D01*
X142880789Y-102706224D01*
X142721305Y-102674500D01*
X142558695Y-102674500D01*
X142399211Y-102706224D01*
X142248979Y-102768452D01*
X142113775Y-102858792D01*
X141998792Y-102973775D01*
X141908452Y-103108979D01*
X141846224Y-103259211D01*
X141814500Y-103418695D01*
X134528295Y-103418695D01*
X134501084Y-103281903D01*
X134438856Y-103131671D01*
X134348516Y-102996467D01*
X134233533Y-102881484D01*
X134098329Y-102791144D01*
X133948097Y-102728916D01*
X133788613Y-102697192D01*
X133626003Y-102697192D01*
X133466519Y-102728916D01*
X133316287Y-102791144D01*
X133181083Y-102881484D01*
X133066100Y-102996467D01*
X132975760Y-103131671D01*
X132913532Y-103281903D01*
X132881808Y-103441387D01*
X125213000Y-103441387D01*
X125213000Y-101441387D01*
X132881808Y-101441387D01*
X132881808Y-101603997D01*
X132913532Y-101763481D01*
X132975760Y-101913713D01*
X133066100Y-102048917D01*
X133181083Y-102163900D01*
X133316287Y-102254240D01*
X133466519Y-102316468D01*
X133626003Y-102348192D01*
X133788613Y-102348192D01*
X133948097Y-102316468D01*
X134098329Y-102254240D01*
X134233533Y-102163900D01*
X134348516Y-102048917D01*
X134438856Y-101913713D01*
X134501084Y-101763481D01*
X134532808Y-101603997D01*
X134532808Y-101441387D01*
X134530284Y-101428695D01*
X136524500Y-101428695D01*
X136524500Y-101591305D01*
X136556224Y-101750789D01*
X136618452Y-101901021D01*
X136708792Y-102036225D01*
X136745740Y-102073173D01*
X136708452Y-102128979D01*
X136646224Y-102279211D01*
X136614500Y-102438695D01*
X136614500Y-102601305D01*
X136646224Y-102760789D01*
X136708452Y-102911021D01*
X136798792Y-103046225D01*
X136913775Y-103161208D01*
X137048979Y-103251548D01*
X137199211Y-103313776D01*
X137358695Y-103345500D01*
X137521305Y-103345500D01*
X137680789Y-103313776D01*
X137831021Y-103251548D01*
X137966225Y-103161208D01*
X138081208Y-103046225D01*
X138171548Y-102911021D01*
X138233776Y-102760789D01*
X138265500Y-102601305D01*
X138265500Y-102438695D01*
X138233776Y-102279211D01*
X138171548Y-102128979D01*
X138081208Y-101993775D01*
X138044260Y-101956827D01*
X138081548Y-101901021D01*
X138143776Y-101750789D01*
X138175500Y-101591305D01*
X138175500Y-101428695D01*
X138143776Y-101269211D01*
X138081548Y-101118979D01*
X137991208Y-100983775D01*
X137876225Y-100868792D01*
X137741021Y-100778452D01*
X137590789Y-100716224D01*
X137431305Y-100684500D01*
X137268695Y-100684500D01*
X137109211Y-100716224D01*
X136958979Y-100778452D01*
X136823775Y-100868792D01*
X136708792Y-100983775D01*
X136618452Y-101118979D01*
X136556224Y-101269211D01*
X136524500Y-101428695D01*
X134530284Y-101428695D01*
X134501084Y-101281903D01*
X134438856Y-101131671D01*
X134348516Y-100996467D01*
X134233533Y-100881484D01*
X134098329Y-100791144D01*
X133948097Y-100728916D01*
X133788613Y-100697192D01*
X133626003Y-100697192D01*
X133466519Y-100728916D01*
X133316287Y-100791144D01*
X133181083Y-100881484D01*
X133066100Y-100996467D01*
X132975760Y-101131671D01*
X132913532Y-101281903D01*
X132881808Y-101441387D01*
X125213000Y-101441387D01*
X125213000Y-100437000D01*
X140144500Y-100437000D01*
X140144500Y-100581305D01*
%TA.AperFunction,Conductor*%
D12*
G36*
X140144500Y-100581305D02*
G01*
X140176224Y-100740789D01*
X140238452Y-100891021D01*
X140328792Y-101026225D01*
X140443775Y-101141208D01*
X140578979Y-101231548D01*
X140729211Y-101293776D01*
X140888695Y-101325500D01*
X141051305Y-101325500D01*
X141210789Y-101293776D01*
X141361021Y-101231548D01*
X141496225Y-101141208D01*
X141611208Y-101026225D01*
X141701548Y-100891021D01*
X141763776Y-100740789D01*
X141795500Y-100581305D01*
X141795500Y-100437000D01*
X147209174Y-100437000D01*
X147268792Y-100526225D01*
X147383775Y-100641208D01*
X147518979Y-100731548D01*
X147669211Y-100793776D01*
X147828695Y-100825500D01*
X147991305Y-100825500D01*
X148150789Y-100793776D01*
X148301021Y-100731548D01*
X148436225Y-100641208D01*
X148551208Y-100526225D01*
X148610826Y-100437000D01*
X149563000Y-100437000D01*
X149563000Y-104699174D01*
X149473775Y-104758792D01*
X149358792Y-104873775D01*
X149268452Y-105008979D01*
X149206224Y-105159211D01*
X149174500Y-105318695D01*
X149174500Y-105481305D01*
X149206224Y-105640789D01*
X149268452Y-105791021D01*
X149358792Y-105926225D01*
X149473775Y-106041208D01*
X149563000Y-106100826D01*
X149563000Y-124787000D01*
X125213000Y-124787000D01*
X125213000Y-117418695D01*
X136534500Y-117418695D01*
X136534500Y-117581305D01*
X136566224Y-117740789D01*
X136628452Y-117891021D01*
X136718792Y-118026225D01*
X136833775Y-118141208D01*
X136968979Y-118231548D01*
X137119211Y-118293776D01*
X137278695Y-118325500D01*
X137441305Y-118325500D01*
X137600789Y-118293776D01*
X137751021Y-118231548D01*
X137886225Y-118141208D01*
X138001208Y-118026225D01*
X138091548Y-117891021D01*
X138153776Y-117740789D01*
X138185500Y-117581305D01*
X138185500Y-117418695D01*
X138153776Y-117259211D01*
X138091548Y-117108979D01*
X138001208Y-116973775D01*
X137886225Y-116858792D01*
X137751021Y-116768452D01*
X137600789Y-116706224D01*
X137441305Y-116674500D01*
X137278695Y-116674500D01*
X137119211Y-116706224D01*
X136968979Y-116768452D01*
X136833775Y-116858792D01*
X136718792Y-116973775D01*
X136628452Y-117108979D01*
X136566224Y-117259211D01*
X136534500Y-117418695D01*
X125213000Y-117418695D01*
X125213000Y-115441387D01*
X132881808Y-115441387D01*
X132881808Y-115603997D01*
X132913532Y-115763481D01*
X132975760Y-115913713D01*
X133066100Y-116048917D01*
X133181083Y-116163900D01*
X133316287Y-116254240D01*
X133466519Y-116316468D01*
X133626003Y-116348192D01*
X133788613Y-116348192D01*
X133948097Y-116316468D01*
X134098329Y-116254240D01*
X134233533Y-116163900D01*
X134348516Y-116048917D01*
X134438856Y-115913713D01*
X134501084Y-115763481D01*
X134532808Y-115603997D01*
X134532808Y-115441387D01*
X134501084Y-115281903D01*
X134438856Y-115131671D01*
X134348516Y-114996467D01*
X134233533Y-114881484D01*
X134098329Y-114791144D01*
X133948097Y-114728916D01*
X133788613Y-114697192D01*
X133626003Y-114697192D01*
X133466519Y-114728916D01*
X133316287Y-114791144D01*
X133181083Y-114881484D01*
X133066100Y-114996467D01*
X132975760Y-115131671D01*
X132913532Y-115281903D01*
X132881808Y-115441387D01*
X125213000Y-115441387D01*
X125213000Y-113411195D01*
X131602000Y-113411195D01*
X131602000Y-113573805D01*
X131633724Y-113733289D01*
X131695952Y-113883521D01*
X131786292Y-114018725D01*
X131901275Y-114133708D01*
X132036479Y-114224048D01*
X132186711Y-114286276D01*
X132346195Y-114318000D01*
X132508805Y-114318000D01*
X132668289Y-114286276D01*
X132818521Y-114224048D01*
X132953725Y-114133708D01*
X133055051Y-114032382D01*
X133066100Y-114048917D01*
X133181083Y-114163900D01*
X133316287Y-114254240D01*
X133466519Y-114316468D01*
X133626003Y-114348192D01*
X133788613Y-114348192D01*
X133948097Y-114316468D01*
X134098329Y-114254240D01*
X134233533Y-114163900D01*
X134348516Y-114048917D01*
X134438856Y-113913713D01*
X134501084Y-113763481D01*
X134532808Y-113603997D01*
X134532808Y-113441387D01*
X134530284Y-113428695D01*
X140164500Y-113428695D01*
X140164500Y-113591305D01*
X140196224Y-113750789D01*
X140258452Y-113901021D01*
X140348792Y-114036225D01*
X140463775Y-114151208D01*
X140598979Y-114241548D01*
X140749211Y-114303776D01*
X140908695Y-114335500D01*
X141071305Y-114335500D01*
X141230789Y-114303776D01*
X141381021Y-114241548D01*
X141516225Y-114151208D01*
X141631208Y-114036225D01*
X141721548Y-113901021D01*
X141783776Y-113750789D01*
X141815500Y-113591305D01*
X141815500Y-113428695D01*
X141783776Y-113269211D01*
X141721548Y-113118979D01*
X141631208Y-112983775D01*
X141516225Y-112868792D01*
X141381021Y-112778452D01*
X141230789Y-112716224D01*
X141071305Y-112684500D01*
X140908695Y-112684500D01*
X140749211Y-112716224D01*
X140598979Y-112778452D01*
X140463775Y-112868792D01*
X140348792Y-112983775D01*
X140258452Y-113118979D01*
X140196224Y-113269211D01*
X140164500Y-113428695D01*
X134530284Y-113428695D01*
X134501084Y-113281903D01*
X134438856Y-113131671D01*
X134348516Y-112996467D01*
X134233533Y-112881484D01*
X134098329Y-112791144D01*
X133948097Y-112728916D01*
X133788613Y-112697192D01*
X133626003Y-112697192D01*
X133466519Y-112728916D01*
X133316287Y-112791144D01*
X133181083Y-112881484D01*
X133079757Y-112982810D01*
X133068708Y-112966275D01*
X132953725Y-112851292D01*
X132818521Y-112760952D01*
X132668289Y-112698724D01*
X132508805Y-112667000D01*
X132346195Y-112667000D01*
X132186711Y-112698724D01*
X132036479Y-112760952D01*
X131901275Y-112851292D01*
X131786292Y-112966275D01*
X131695952Y-113101479D01*
X131633724Y-113251711D01*
X131602000Y-113411195D01*
X125213000Y-113411195D01*
X125213000Y-112421337D01*
X141921858Y-112421337D01*
X141921858Y-112583947D01*
X141953582Y-112743431D01*
X142015810Y-112893663D01*
X142106150Y-113028867D01*
X142221133Y-113143850D01*
X142356337Y-113234190D01*
X142506569Y-113296418D01*
X142666053Y-113328142D01*
X142828663Y-113328142D01*
X142988147Y-113296418D01*
X143138379Y-113234190D01*
X143273583Y-113143850D01*
X143388566Y-113028867D01*
X143435453Y-112958695D01*
X144054500Y-112958695D01*
X144054500Y-113121305D01*
X144086224Y-113280789D01*
X144148452Y-113431021D01*
X144238792Y-113566225D01*
X144353775Y-113681208D01*
X144488979Y-113771548D01*
X144639211Y-113833776D01*
X144798695Y-113865500D01*
X144961305Y-113865500D01*
X145120789Y-113833776D01*
X145271021Y-113771548D01*
X145406225Y-113681208D01*
X145521208Y-113566225D01*
X145611548Y-113431021D01*
X145673776Y-113280789D01*
X145705500Y-113121305D01*
X145705500Y-112958695D01*
X145673776Y-112799211D01*
X145611548Y-112648979D01*
X145521208Y-112513775D01*
X145406225Y-112398792D01*
X145271021Y-112308452D01*
X145120789Y-112246224D01*
X144961305Y-112214500D01*
X144798695Y-112214500D01*
X144639211Y-112246224D01*
X144488979Y-112308452D01*
X144353775Y-112398792D01*
X144238792Y-112513775D01*
X144148452Y-112648979D01*
X144086224Y-112799211D01*
X144054500Y-112958695D01*
X143435453Y-112958695D01*
X143478906Y-112893663D01*
X143541134Y-112743431D01*
X143572858Y-112583947D01*
X143572858Y-112421337D01*
X143541134Y-112261853D01*
X143478906Y-112111621D01*
X143388566Y-111976417D01*
X143273583Y-111861434D01*
X143138379Y-111771094D01*
X142988147Y-111708866D01*
X142828663Y-111677142D01*
X142666053Y-111677142D01*
X142506569Y-111708866D01*
X142356337Y-111771094D01*
X142221133Y-111861434D01*
X142106150Y-111976417D01*
X142015810Y-112111621D01*
X141953582Y-112261853D01*
X141921858Y-112421337D01*
X125213000Y-112421337D01*
X125213000Y-111441387D01*
X132881808Y-111441387D01*
X132881808Y-111603997D01*
X132913532Y-111763481D01*
X132975760Y-111913713D01*
X133066100Y-112048917D01*
X133181083Y-112163900D01*
X133316287Y-112254240D01*
X133466519Y-112316468D01*
X133626003Y-112348192D01*
X133788613Y-112348192D01*
X133948097Y-112316468D01*
X134098329Y-112254240D01*
X134233533Y-112163900D01*
X134348516Y-112048917D01*
X134438856Y-111913713D01*
X134501084Y-111763481D01*
X134532808Y-111603997D01*
X134532808Y-111441387D01*
X134501084Y-111281903D01*
X134438856Y-111131671D01*
X134348516Y-110996467D01*
X134233533Y-110881484D01*
X134098329Y-110791144D01*
X133948097Y-110728916D01*
X133788613Y-110697192D01*
X133626003Y-110697192D01*
X133466519Y-110728916D01*
X133316287Y-110791144D01*
X133181083Y-110881484D01*
X133066100Y-110996467D01*
X132975760Y-111131671D01*
X132913532Y-111281903D01*
X132881808Y-111441387D01*
X125213000Y-111441387D01*
X125213000Y-109441387D01*
X132881808Y-109441387D01*
X132881808Y-109603997D01*
X132913532Y-109763481D01*
X132975760Y-109913713D01*
X133066100Y-110048917D01*
X133181083Y-110163900D01*
X133316287Y-110254240D01*
X133466519Y-110316468D01*
X133626003Y-110348192D01*
X133788613Y-110348192D01*
X133948097Y-110316468D01*
X134098329Y-110254240D01*
X134233533Y-110163900D01*
X134348516Y-110048917D01*
X134438856Y-109913713D01*
X134501084Y-109763481D01*
X134532808Y-109603997D01*
X134532808Y-109441387D01*
X134528295Y-109418695D01*
X136504500Y-109418695D01*
X136504500Y-109581305D01*
X136536224Y-109740789D01*
X136598452Y-109891021D01*
X136688792Y-110026225D01*
X136745713Y-110083146D01*
X136728452Y-110108979D01*
X136666224Y-110259211D01*
X136634500Y-110418695D01*
X136634500Y-110581305D01*
X136666224Y-110740789D01*
X136728452Y-110891021D01*
X136818792Y-111026225D01*
X136933775Y-111141208D01*
X137068979Y-111231548D01*
X137219211Y-111293776D01*
X137378695Y-111325500D01*
X137541305Y-111325500D01*
X137700789Y-111293776D01*
X137851021Y-111231548D01*
X137986225Y-111141208D01*
X138101208Y-111026225D01*
X138191548Y-110891021D01*
X138253776Y-110740789D01*
X138285500Y-110581305D01*
X138285500Y-110418695D01*
X138253776Y-110259211D01*
X138236994Y-110218695D01*
X142641856Y-110218695D01*
X142641856Y-110381305D01*
X142673580Y-110540789D01*
X142735808Y-110691021D01*
X142826148Y-110826225D01*
X142941131Y-110941208D01*
X143076335Y-111031548D01*
X143226567Y-111093776D01*
X143386051Y-111125500D01*
X143548661Y-111125500D01*
X143708145Y-111093776D01*
X143858377Y-111031548D01*
X143993581Y-110941208D01*
X144108564Y-110826225D01*
X144198904Y-110691021D01*
X144261132Y-110540789D01*
X144292856Y-110381305D01*
X144292856Y-110218695D01*
X144261132Y-110059211D01*
X144198904Y-109908979D01*
X144108564Y-109773775D01*
X143993581Y-109658792D01*
X143858377Y-109568452D01*
X143708145Y-109506224D01*
X143548661Y-109474500D01*
X143386051Y-109474500D01*
X143226567Y-109506224D01*
X143076335Y-109568452D01*
X142941131Y-109658792D01*
X142826148Y-109773775D01*
X142735808Y-109908979D01*
X142673580Y-110059211D01*
X142641856Y-110218695D01*
X138236994Y-110218695D01*
X138191548Y-110108979D01*
X138101208Y-109973775D01*
X138044287Y-109916854D01*
X138061548Y-109891021D01*
X138123776Y-109740789D01*
X138155500Y-109581305D01*
X138155500Y-109418695D01*
X138123776Y-109259211D01*
X138061548Y-109108979D01*
X137971208Y-108973775D01*
X137856225Y-108858792D01*
X137721021Y-108768452D01*
X137570789Y-108706224D01*
X137411305Y-108674500D01*
X137248695Y-108674500D01*
X137089211Y-108706224D01*
X136938979Y-108768452D01*
X136803775Y-108858792D01*
X136688792Y-108973775D01*
X136598452Y-109108979D01*
X136536224Y-109259211D01*
X136504500Y-109418695D01*
X134528295Y-109418695D01*
X134501084Y-109281903D01*
X134438856Y-109131671D01*
X134348516Y-108996467D01*
X134233533Y-108881484D01*
X134098329Y-108791144D01*
X133948097Y-108728916D01*
X133788613Y-108697192D01*
X133626003Y-108697192D01*
X133466519Y-108728916D01*
X133316287Y-108791144D01*
X133181083Y-108881484D01*
X133066100Y-108996467D01*
X132975760Y-109131671D01*
X132913532Y-109281903D01*
X132881808Y-109441387D01*
X125213000Y-109441387D01*
X125213000Y-108418695D01*
X140054500Y-108418695D01*
X140054500Y-108581305D01*
X140086224Y-108740789D01*
X140148452Y-108891021D01*
X140238792Y-109026225D01*
X140353775Y-109141208D01*
X140488979Y-109231548D01*
X140639211Y-109293776D01*
X140798695Y-109325500D01*
X140961305Y-109325500D01*
X141120789Y-109293776D01*
X141271021Y-109231548D01*
X141406225Y-109141208D01*
X141521208Y-109026225D01*
X141611548Y-108891021D01*
X141673776Y-108740789D01*
X141705500Y-108581305D01*
X141705500Y-108418695D01*
X141703511Y-108408695D01*
X142724500Y-108408695D01*
X142724500Y-108571305D01*
X142756224Y-108730789D01*
X142818452Y-108881021D01*
X142908792Y-109016225D01*
X143023775Y-109131208D01*
X143158979Y-109221548D01*
X143309211Y-109283776D01*
X143468695Y-109315500D01*
X143631305Y-109315500D01*
X143790789Y-109283776D01*
X143941021Y-109221548D01*
X144076225Y-109131208D01*
X144191208Y-109016225D01*
X144281548Y-108881021D01*
X144343776Y-108730789D01*
X144375500Y-108571305D01*
X144375500Y-108408695D01*
X144343776Y-108249211D01*
X144281548Y-108098979D01*
X144191208Y-107963775D01*
X144076225Y-107848792D01*
X143941021Y-107758452D01*
X143790789Y-107696224D01*
X143631305Y-107664500D01*
X143468695Y-107664500D01*
X143309211Y-107696224D01*
X143158979Y-107758452D01*
X143023775Y-107848792D01*
X142908792Y-107963775D01*
X142818452Y-108098979D01*
X142756224Y-108249211D01*
X142724500Y-108408695D01*
X141703511Y-108408695D01*
X141673776Y-108259211D01*
X141611548Y-108108979D01*
X141521208Y-107973775D01*
X141406225Y-107858792D01*
X141271021Y-107768452D01*
X141120789Y-107706224D01*
X140961305Y-107674500D01*
X140798695Y-107674500D01*
X140639211Y-107706224D01*
X140488979Y-107768452D01*
X140353775Y-107858792D01*
X140238792Y-107973775D01*
X140148452Y-108108979D01*
X140086224Y-108259211D01*
X140054500Y-108418695D01*
X125213000Y-108418695D01*
X125213000Y-107091195D01*
X131232000Y-107091195D01*
X131232000Y-107253805D01*
X131263724Y-107413289D01*
X131325952Y-107563521D01*
X131416292Y-107698725D01*
X131531275Y-107813708D01*
X131666479Y-107904048D01*
X131816711Y-107966276D01*
X131976195Y-107998000D01*
X132138805Y-107998000D01*
X132298289Y-107966276D01*
X132448521Y-107904048D01*
X132583725Y-107813708D01*
X132698708Y-107698725D01*
X132789048Y-107563521D01*
X132839637Y-107441387D01*
X132881808Y-107441387D01*
X132881808Y-107603997D01*
X132913532Y-107763481D01*
X132975760Y-107913713D01*
X133066100Y-108048917D01*
X133181083Y-108163900D01*
X133316287Y-108254240D01*
X133466519Y-108316468D01*
X133626003Y-108348192D01*
X133788613Y-108348192D01*
X133948097Y-108316468D01*
X134098329Y-108254240D01*
X134233533Y-108163900D01*
X134348516Y-108048917D01*
X134438856Y-107913713D01*
X134501084Y-107763481D01*
X134532808Y-107603997D01*
X134532808Y-107441387D01*
X134501084Y-107281903D01*
X134438856Y-107131671D01*
X134348516Y-106996467D01*
X134233533Y-106881484D01*
X134098329Y-106791144D01*
X133948097Y-106728916D01*
X133788613Y-106697192D01*
X133626003Y-106697192D01*
X133466519Y-106728916D01*
X133316287Y-106791144D01*
X133181083Y-106881484D01*
X133066100Y-106996467D01*
X132975760Y-107131671D01*
X132913532Y-107281903D01*
X132881808Y-107441387D01*
X132839637Y-107441387D01*
X132851276Y-107413289D01*
X132883000Y-107253805D01*
X132883000Y-107091195D01*
X132851276Y-106931711D01*
X132789048Y-106781479D01*
X132698708Y-106646275D01*
X132583725Y-106531292D01*
X132448521Y-106440952D01*
X132418930Y-106428695D01*
X136534500Y-106428695D01*
X136534500Y-106591305D01*
X136566224Y-106750789D01*
X136628452Y-106901021D01*
X136718792Y-107036225D01*
X136833775Y-107151208D01*
X136968979Y-107241548D01*
X137119211Y-107303776D01*
X137278695Y-107335500D01*
X137441305Y-107335500D01*
X137600789Y-107303776D01*
X137751021Y-107241548D01*
X137886225Y-107151208D01*
X138001208Y-107036225D01*
X138091548Y-106901021D01*
X138153776Y-106750789D01*
X138185500Y-106591305D01*
X138185500Y-106428695D01*
X138153776Y-106269211D01*
X138091548Y-106118979D01*
X138037072Y-106037449D01*
X138083011Y-105968695D01*
X141074500Y-105968695D01*
X141074500Y-106131305D01*
X141106224Y-106290789D01*
X141168452Y-106441021D01*
X141258792Y-106576225D01*
X141373775Y-106691208D01*
X141508979Y-106781548D01*
X141659211Y-106843776D01*
X141818695Y-106875500D01*
X141882317Y-106875500D01*
X141938452Y-107011021D01*
X142028792Y-107146225D01*
X142143775Y-107261208D01*
X142278979Y-107351548D01*
X142429211Y-107413776D01*
X142588695Y-107445500D01*
X142751305Y-107445500D01*
X142910789Y-107413776D01*
X143061021Y-107351548D01*
X143196225Y-107261208D01*
X143311208Y-107146225D01*
X143401548Y-107011021D01*
X143463776Y-106860789D01*
X143495500Y-106701305D01*
X143495500Y-106538695D01*
X143463776Y-106379211D01*
X143401548Y-106228979D01*
X143311208Y-106093775D01*
X143196225Y-105978792D01*
X143061021Y-105888452D01*
X142910789Y-105826224D01*
X142751305Y-105794500D01*
X142687683Y-105794500D01*
X142631548Y-105658979D01*
X142541208Y-105523775D01*
X142426225Y-105408792D01*
X142291021Y-105318452D01*
X142140789Y-105256224D01*
X141981305Y-105224500D01*
X141818695Y-105224500D01*
X141659211Y-105256224D01*
X141508979Y-105318452D01*
X141373775Y-105408792D01*
X141258792Y-105523775D01*
X141168452Y-105658979D01*
X141106224Y-105809211D01*
X141074500Y-105968695D01*
X138083011Y-105968695D01*
X138121548Y-105911021D01*
X138183776Y-105760789D01*
X138215500Y-105601305D01*
X138215500Y-105438695D01*
X138183776Y-105279211D01*
X138121548Y-105128979D01*
X138031208Y-104993775D01*
X137916225Y-104878792D01*
X137781021Y-104788452D01*
X137630789Y-104726224D01*
X137471305Y-104694500D01*
X137308695Y-104694500D01*
X137149211Y-104726224D01*
X136998979Y-104788452D01*
X136863775Y-104878792D01*
X136748792Y-104993775D01*
X136658452Y-105128979D01*
X136596224Y-105279211D01*
X136564500Y-105438695D01*
X136564500Y-105601305D01*
X136596224Y-105760789D01*
X136658452Y-105911021D01*
X136712928Y-105992551D01*
X136628452Y-106118979D01*
X136566224Y-106269211D01*
X136534500Y-106428695D01*
X132418930Y-106428695D01*
X132298289Y-106378724D01*
X132138805Y-106347000D01*
X131976195Y-106347000D01*
X131816711Y-106378724D01*
X131666479Y-106440952D01*
X131531275Y-106531292D01*
X131416292Y-106646275D01*
X131325952Y-106781479D01*
X131263724Y-106931711D01*
X131232000Y-107091195D01*
X125213000Y-107091195D01*
X125213000Y-105441387D01*
X132881808Y-105441387D01*
X132881808Y-105603997D01*
X132913532Y-105763481D01*
X132975760Y-105913713D01*
X133066100Y-106048917D01*
X133181083Y-106163900D01*
X133316287Y-106254240D01*
X133466519Y-106316468D01*
X133626003Y-106348192D01*
X133788613Y-106348192D01*
X133948097Y-106316468D01*
X134098329Y-106254240D01*
X134233533Y-106163900D01*
X134348516Y-106048917D01*
X134438856Y-105913713D01*
X134501084Y-105763481D01*
X134532808Y-105603997D01*
X134532808Y-105441387D01*
X134501084Y-105281903D01*
X134438856Y-105131671D01*
X134348516Y-104996467D01*
X134233533Y-104881484D01*
X134098329Y-104791144D01*
X133948097Y-104728916D01*
X133788613Y-104697192D01*
X133626003Y-104697192D01*
X133466519Y-104728916D01*
X133316287Y-104791144D01*
X133181083Y-104881484D01*
X133066100Y-104996467D01*
X132975760Y-105131671D01*
X132913532Y-105281903D01*
X132881808Y-105441387D01*
X125213000Y-105441387D01*
X125213000Y-103441387D01*
X132881808Y-103441387D01*
X132881808Y-103603997D01*
X132913532Y-103763481D01*
X132975760Y-103913713D01*
X133066100Y-104048917D01*
X133181083Y-104163900D01*
X133316287Y-104254240D01*
X133466519Y-104316468D01*
X133626003Y-104348192D01*
X133788613Y-104348192D01*
X133948097Y-104316468D01*
X134098329Y-104254240D01*
X134233533Y-104163900D01*
X134348516Y-104048917D01*
X134438856Y-103913713D01*
X134501084Y-103763481D01*
X134532808Y-103603997D01*
X134532808Y-103441387D01*
X134528295Y-103418695D01*
X141814500Y-103418695D01*
X141814500Y-103581305D01*
X141846224Y-103740789D01*
X141908452Y-103891021D01*
X141998792Y-104026225D01*
X142113775Y-104141208D01*
X142248979Y-104231548D01*
X142399211Y-104293776D01*
X142558695Y-104325500D01*
X142721305Y-104325500D01*
X142880789Y-104293776D01*
X143031021Y-104231548D01*
X143166225Y-104141208D01*
X143281208Y-104026225D01*
X143371548Y-103891021D01*
X143433776Y-103740789D01*
X143465500Y-103581305D01*
X143465500Y-103418695D01*
X143433776Y-103259211D01*
X143371548Y-103108979D01*
X143281208Y-102973775D01*
X143166225Y-102858792D01*
X143031021Y-102768452D01*
X142880789Y-102706224D01*
X142721305Y-102674500D01*
X142558695Y-102674500D01*
X142399211Y-102706224D01*
X142248979Y-102768452D01*
X142113775Y-102858792D01*
X141998792Y-102973775D01*
X141908452Y-103108979D01*
X141846224Y-103259211D01*
X141814500Y-103418695D01*
X134528295Y-103418695D01*
X134501084Y-103281903D01*
X134438856Y-103131671D01*
X134348516Y-102996467D01*
X134233533Y-102881484D01*
X134098329Y-102791144D01*
X133948097Y-102728916D01*
X133788613Y-102697192D01*
X133626003Y-102697192D01*
X133466519Y-102728916D01*
X133316287Y-102791144D01*
X133181083Y-102881484D01*
X133066100Y-102996467D01*
X132975760Y-103131671D01*
X132913532Y-103281903D01*
X132881808Y-103441387D01*
X125213000Y-103441387D01*
X125213000Y-101441387D01*
X132881808Y-101441387D01*
X132881808Y-101603997D01*
X132913532Y-101763481D01*
X132975760Y-101913713D01*
X133066100Y-102048917D01*
X133181083Y-102163900D01*
X133316287Y-102254240D01*
X133466519Y-102316468D01*
X133626003Y-102348192D01*
X133788613Y-102348192D01*
X133948097Y-102316468D01*
X134098329Y-102254240D01*
X134233533Y-102163900D01*
X134348516Y-102048917D01*
X134438856Y-101913713D01*
X134501084Y-101763481D01*
X134532808Y-101603997D01*
X134532808Y-101441387D01*
X134530284Y-101428695D01*
X136524500Y-101428695D01*
X136524500Y-101591305D01*
X136556224Y-101750789D01*
X136618452Y-101901021D01*
X136708792Y-102036225D01*
X136745740Y-102073173D01*
X136708452Y-102128979D01*
X136646224Y-102279211D01*
X136614500Y-102438695D01*
X136614500Y-102601305D01*
X136646224Y-102760789D01*
X136708452Y-102911021D01*
X136798792Y-103046225D01*
X136913775Y-103161208D01*
X137048979Y-103251548D01*
X137199211Y-103313776D01*
X137358695Y-103345500D01*
X137521305Y-103345500D01*
X137680789Y-103313776D01*
X137831021Y-103251548D01*
X137966225Y-103161208D01*
X138081208Y-103046225D01*
X138171548Y-102911021D01*
X138233776Y-102760789D01*
X138265500Y-102601305D01*
X138265500Y-102438695D01*
X138233776Y-102279211D01*
X138171548Y-102128979D01*
X138081208Y-101993775D01*
X138044260Y-101956827D01*
X138081548Y-101901021D01*
X138143776Y-101750789D01*
X138175500Y-101591305D01*
X138175500Y-101428695D01*
X138143776Y-101269211D01*
X138081548Y-101118979D01*
X137991208Y-100983775D01*
X137876225Y-100868792D01*
X137741021Y-100778452D01*
X137590789Y-100716224D01*
X137431305Y-100684500D01*
X137268695Y-100684500D01*
X137109211Y-100716224D01*
X136958979Y-100778452D01*
X136823775Y-100868792D01*
X136708792Y-100983775D01*
X136618452Y-101118979D01*
X136556224Y-101269211D01*
X136524500Y-101428695D01*
X134530284Y-101428695D01*
X134501084Y-101281903D01*
X134438856Y-101131671D01*
X134348516Y-100996467D01*
X134233533Y-100881484D01*
X134098329Y-100791144D01*
X133948097Y-100728916D01*
X133788613Y-100697192D01*
X133626003Y-100697192D01*
X133466519Y-100728916D01*
X133316287Y-100791144D01*
X133181083Y-100881484D01*
X133066100Y-100996467D01*
X132975760Y-101131671D01*
X132913532Y-101281903D01*
X132881808Y-101441387D01*
X125213000Y-101441387D01*
X125213000Y-100437000D01*
X140144500Y-100437000D01*
X140144500Y-100581305D01*
G37*
%TD.AperFunction*%
%TD*%
D11*
%TO.N,/BIAS1*%
X149563000Y-99563000D02*
X148610826Y-99563000D01*
X148551208Y-99473775D01*
X148436225Y-99358792D01*
X148301021Y-99268452D01*
X148150789Y-99206224D01*
X147991305Y-99174500D01*
X147828695Y-99174500D01*
X147669211Y-99206224D01*
X147518979Y-99268452D01*
X147383775Y-99358792D01*
X147268792Y-99473775D01*
X147209174Y-99563000D01*
X141685163Y-99563000D01*
X141685500Y-99561305D01*
X141685500Y-99398695D01*
X141653776Y-99239211D01*
X141591548Y-99088979D01*
X141501208Y-98953775D01*
X141386225Y-98838792D01*
X141251021Y-98748452D01*
X141100789Y-98686224D01*
X140941305Y-98654500D01*
X140778695Y-98654500D01*
X140619211Y-98686224D01*
X140468979Y-98748452D01*
X140333775Y-98838792D01*
X140218792Y-98953775D01*
X140128452Y-99088979D01*
X140066224Y-99239211D01*
X140034500Y-99398695D01*
X140034500Y-99561305D01*
X140034837Y-99563000D01*
X134532808Y-99563000D01*
X134532808Y-99441387D01*
X134501084Y-99281903D01*
X134438856Y-99131671D01*
X134348516Y-98996467D01*
X134233533Y-98881484D01*
X134098329Y-98791144D01*
X133948097Y-98728916D01*
X133788613Y-98697192D01*
X133626003Y-98697192D01*
X133466519Y-98728916D01*
X133316287Y-98791144D01*
X133181083Y-98881484D01*
X133066100Y-98996467D01*
X132975760Y-99131671D01*
X132913532Y-99281903D01*
X132881808Y-99441387D01*
X132881808Y-99563000D01*
X125213000Y-99563000D01*
X125213000Y-97441387D01*
X132881808Y-97441387D01*
X132881808Y-97603997D01*
X132913532Y-97763481D01*
X132975760Y-97913713D01*
X133066100Y-98048917D01*
X133181083Y-98163900D01*
X133316287Y-98254240D01*
X133466519Y-98316468D01*
X133626003Y-98348192D01*
X133788613Y-98348192D01*
X133948097Y-98316468D01*
X134098329Y-98254240D01*
X134233533Y-98163900D01*
X134348516Y-98048917D01*
X134438856Y-97913713D01*
X134501084Y-97763481D01*
X134532808Y-97603997D01*
X134532808Y-97441387D01*
X134530284Y-97428695D01*
X136514500Y-97428695D01*
X136514500Y-97591305D01*
X136546224Y-97750789D01*
X136608452Y-97901021D01*
X136687928Y-98019966D01*
X136628452Y-98108979D01*
X136566224Y-98259211D01*
X136534500Y-98418695D01*
X136534500Y-98581305D01*
X136566224Y-98740789D01*
X136628452Y-98891021D01*
X136718792Y-99026225D01*
X136833775Y-99141208D01*
X136968979Y-99231548D01*
X137119211Y-99293776D01*
X137278695Y-99325500D01*
X137441305Y-99325500D01*
X137600789Y-99293776D01*
X137751021Y-99231548D01*
X137886225Y-99141208D01*
X138001208Y-99026225D01*
X138091548Y-98891021D01*
X138153776Y-98740789D01*
X138185500Y-98581305D01*
X138185500Y-98418695D01*
X138153776Y-98259211D01*
X138091548Y-98108979D01*
X138012072Y-97990034D01*
X138071548Y-97901021D01*
X138133776Y-97750789D01*
X138165500Y-97591305D01*
X138165500Y-97428695D01*
X138133776Y-97269211D01*
X138071548Y-97118979D01*
X137981208Y-96983775D01*
X137866225Y-96868792D01*
X137731021Y-96778452D01*
X137580789Y-96716224D01*
X137421305Y-96684500D01*
X137258695Y-96684500D01*
X137099211Y-96716224D01*
X136948979Y-96778452D01*
X136813775Y-96868792D01*
X136698792Y-96983775D01*
X136608452Y-97118979D01*
X136546224Y-97269211D01*
X136514500Y-97428695D01*
X134530284Y-97428695D01*
X134501084Y-97281903D01*
X134438856Y-97131671D01*
X134348516Y-96996467D01*
X134233533Y-96881484D01*
X134098329Y-96791144D01*
X133948097Y-96728916D01*
X133788613Y-96697192D01*
X133626003Y-96697192D01*
X133466519Y-96728916D01*
X133316287Y-96791144D01*
X133181083Y-96881484D01*
X133066100Y-96996467D01*
X132975760Y-97131671D01*
X132913532Y-97281903D01*
X132881808Y-97441387D01*
X125213000Y-97441387D01*
X125213000Y-95351387D01*
X133001808Y-95351387D01*
X133001808Y-95513997D01*
X133033532Y-95673481D01*
X133095760Y-95823713D01*
X133186100Y-95958917D01*
X133301083Y-96073900D01*
X133436287Y-96164240D01*
X133586519Y-96226468D01*
X133746003Y-96258192D01*
X133908613Y-96258192D01*
X134068097Y-96226468D01*
X134218329Y-96164240D01*
X134353533Y-96073900D01*
X134468516Y-95958917D01*
X134558856Y-95823713D01*
X134621084Y-95673481D01*
X134652808Y-95513997D01*
X134652808Y-95418695D01*
X140094500Y-95418695D01*
X140094500Y-95581305D01*
X140126224Y-95740789D01*
X140188452Y-95891021D01*
X140278792Y-96026225D01*
X140283778Y-96031211D01*
X140218452Y-96128979D01*
X140156224Y-96279211D01*
X140124500Y-96438695D01*
X140124500Y-96601305D01*
X140156224Y-96760789D01*
X140218452Y-96911021D01*
X140308792Y-97046225D01*
X140423775Y-97161208D01*
X140558979Y-97251548D01*
X140709211Y-97313776D01*
X140868695Y-97345500D01*
X141031305Y-97345500D01*
X141190789Y-97313776D01*
X141341021Y-97251548D01*
X141476225Y-97161208D01*
X141591208Y-97046225D01*
X141681548Y-96911021D01*
X141743776Y-96760789D01*
X141775500Y-96601305D01*
X141775500Y-96438695D01*
X141743776Y-96279211D01*
X141681548Y-96128979D01*
X141591208Y-95993775D01*
X141586222Y-95988789D01*
X141651548Y-95891021D01*
X141713776Y-95740789D01*
X141745500Y-95581305D01*
X141745500Y-95538695D01*
X143044500Y-95538695D01*
X143044500Y-95701305D01*
X143076224Y-95860789D01*
X143138452Y-96011021D01*
X143228792Y-96146225D01*
X143343775Y-96261208D01*
X143478979Y-96351548D01*
X143629211Y-96413776D01*
X143788695Y-96445500D01*
X143951305Y-96445500D01*
X144110789Y-96413776D01*
X144261021Y-96351548D01*
X144396225Y-96261208D01*
X144511208Y-96146225D01*
X144601548Y-96011021D01*
X144663776Y-95860789D01*
X144695500Y-95701305D01*
X144695500Y-95538695D01*
X144663776Y-95379211D01*
X144601548Y-95228979D01*
X144511208Y-95093775D01*
X144396225Y-94978792D01*
X144261021Y-94888452D01*
X144110789Y-94826224D01*
X143951305Y-94794500D01*
X143788695Y-94794500D01*
X143629211Y-94826224D01*
X143478979Y-94888452D01*
X143343775Y-94978792D01*
X143228792Y-95093775D01*
X143138452Y-95228979D01*
X143076224Y-95379211D01*
X143044500Y-95538695D01*
X141745500Y-95538695D01*
X141745500Y-95418695D01*
X141713776Y-95259211D01*
X141651548Y-95108979D01*
X141561208Y-94973775D01*
X141446225Y-94858792D01*
X141311021Y-94768452D01*
X141160789Y-94706224D01*
X141001305Y-94674500D01*
X140838695Y-94674500D01*
X140679211Y-94706224D01*
X140528979Y-94768452D01*
X140393775Y-94858792D01*
X140278792Y-94973775D01*
X140188452Y-95108979D01*
X140126224Y-95259211D01*
X140094500Y-95418695D01*
X134652808Y-95418695D01*
X134652808Y-95351387D01*
X134621084Y-95191903D01*
X134558856Y-95041671D01*
X134468516Y-94906467D01*
X134353533Y-94791484D01*
X134218329Y-94701144D01*
X134068097Y-94638916D01*
X133908613Y-94607192D01*
X133746003Y-94607192D01*
X133586519Y-94638916D01*
X133436287Y-94701144D01*
X133301083Y-94791484D01*
X133186100Y-94906467D01*
X133095760Y-95041671D01*
X133033532Y-95191903D01*
X133001808Y-95351387D01*
X125213000Y-95351387D01*
X125213000Y-94198695D01*
X131414500Y-94198695D01*
X131414500Y-94361305D01*
X131446224Y-94520789D01*
X131508452Y-94671021D01*
X131598792Y-94806225D01*
X131713775Y-94921208D01*
X131848979Y-95011548D01*
X131999211Y-95073776D01*
X132158695Y-95105500D01*
X132321305Y-95105500D01*
X132480789Y-95073776D01*
X132631021Y-95011548D01*
X132766225Y-94921208D01*
X132881208Y-94806225D01*
X132971548Y-94671021D01*
X133033776Y-94520789D01*
X133054084Y-94418695D01*
X136494500Y-94418695D01*
X136494500Y-94581305D01*
X136526224Y-94740789D01*
X136588452Y-94891021D01*
X136678792Y-95026225D01*
X136793775Y-95141208D01*
X136928979Y-95231548D01*
X137079211Y-95293776D01*
X137238695Y-95325500D01*
X137401305Y-95325500D01*
X137560789Y-95293776D01*
X137711021Y-95231548D01*
X137846225Y-95141208D01*
X137961208Y-95026225D01*
X138051548Y-94891021D01*
X138113776Y-94740789D01*
X138145500Y-94581305D01*
X138145500Y-94418695D01*
X138113776Y-94259211D01*
X138051548Y-94108979D01*
X137992072Y-94019966D01*
X138071548Y-93901021D01*
X138133776Y-93750789D01*
X138165500Y-93591305D01*
X138165500Y-93428695D01*
X138133776Y-93269211D01*
X138071548Y-93118979D01*
X137981208Y-92983775D01*
X137866225Y-92868792D01*
X137731021Y-92778452D01*
X137580789Y-92716224D01*
X137421305Y-92684500D01*
X137258695Y-92684500D01*
X137099211Y-92716224D01*
X136948979Y-92778452D01*
X136813775Y-92868792D01*
X136698792Y-92983775D01*
X136608452Y-93118979D01*
X136546224Y-93269211D01*
X136514500Y-93428695D01*
X136514500Y-93591305D01*
X136546224Y-93750789D01*
X136608452Y-93901021D01*
X136667928Y-93990034D01*
X136588452Y-94108979D01*
X136526224Y-94259211D01*
X136494500Y-94418695D01*
X133054084Y-94418695D01*
X133065500Y-94361305D01*
X133065500Y-94198695D01*
X133033776Y-94039211D01*
X132991633Y-93937469D01*
X133066100Y-94048917D01*
X133181083Y-94163900D01*
X133316287Y-94254240D01*
X133466519Y-94316468D01*
X133626003Y-94348192D01*
X133788613Y-94348192D01*
X133948097Y-94316468D01*
X134098329Y-94254240D01*
X134233533Y-94163900D01*
X134348516Y-94048917D01*
X134438856Y-93913713D01*
X134501084Y-93763481D01*
X134532808Y-93603997D01*
X134532808Y-93441387D01*
X134501084Y-93281903D01*
X134438856Y-93131671D01*
X134348516Y-92996467D01*
X134233533Y-92881484D01*
X134098329Y-92791144D01*
X133948097Y-92728916D01*
X133788613Y-92697192D01*
X133626003Y-92697192D01*
X133466519Y-92728916D01*
X133316287Y-92791144D01*
X133181083Y-92881484D01*
X133066100Y-92996467D01*
X132975760Y-93131671D01*
X132913532Y-93281903D01*
X132881808Y-93441387D01*
X132881808Y-93603997D01*
X132913532Y-93763481D01*
X132955675Y-93865223D01*
X132881208Y-93753775D01*
X132766225Y-93638792D01*
X132631021Y-93548452D01*
X132480789Y-93486224D01*
X132321305Y-93454500D01*
X132158695Y-93454500D01*
X131999211Y-93486224D01*
X131848979Y-93548452D01*
X131713775Y-93638792D01*
X131598792Y-93753775D01*
X131508452Y-93888979D01*
X131446224Y-94039211D01*
X131414500Y-94198695D01*
X125213000Y-94198695D01*
X125213000Y-92428695D01*
X140104500Y-92428695D01*
X140104500Y-92591305D01*
X140136224Y-92750789D01*
X140198452Y-92901021D01*
X140288792Y-93036225D01*
X140403775Y-93151208D01*
X140538979Y-93241548D01*
X140689211Y-93303776D01*
X140848695Y-93335500D01*
X141011305Y-93335500D01*
X141170789Y-93303776D01*
X141321021Y-93241548D01*
X141456225Y-93151208D01*
X141571208Y-93036225D01*
X141661548Y-92901021D01*
X141723776Y-92750789D01*
X141755500Y-92591305D01*
X141755500Y-92428695D01*
X141723776Y-92269211D01*
X141661548Y-92118979D01*
X141571208Y-91983775D01*
X141456225Y-91868792D01*
X141381250Y-91818695D01*
X146044500Y-91818695D01*
X146044500Y-91981305D01*
X146076224Y-92140789D01*
X146138452Y-92291021D01*
X146228792Y-92426225D01*
X146343775Y-92541208D01*
X146478979Y-92631548D01*
X146629211Y-92693776D01*
X146788695Y-92725500D01*
X146951305Y-92725500D01*
X147110789Y-92693776D01*
X147261021Y-92631548D01*
X147396225Y-92541208D01*
X147511208Y-92426225D01*
X147601548Y-92291021D01*
X147663776Y-92140789D01*
X147695500Y-91981305D01*
X147695500Y-91818695D01*
X147663776Y-91659211D01*
X147601548Y-91508979D01*
X147511208Y-91373775D01*
X147396225Y-91258792D01*
X147261021Y-91168452D01*
X147110789Y-91106224D01*
X146951305Y-91074500D01*
X146788695Y-91074500D01*
X146629211Y-91106224D01*
X146478979Y-91168452D01*
X146343775Y-91258792D01*
X146228792Y-91373775D01*
X146138452Y-91508979D01*
X146076224Y-91659211D01*
X146044500Y-91818695D01*
X141381250Y-91818695D01*
X141321021Y-91778452D01*
X141170789Y-91716224D01*
X141011305Y-91684500D01*
X140848695Y-91684500D01*
X140689211Y-91716224D01*
X140538979Y-91778452D01*
X140403775Y-91868792D01*
X140288792Y-91983775D01*
X140198452Y-92118979D01*
X140136224Y-92269211D01*
X140104500Y-92428695D01*
X125213000Y-92428695D01*
X125213000Y-91441387D01*
X132881808Y-91441387D01*
X132881808Y-91603997D01*
X132913532Y-91763481D01*
X132975760Y-91913713D01*
X133066100Y-92048917D01*
X133181083Y-92163900D01*
X133316287Y-92254240D01*
X133466519Y-92316468D01*
X133626003Y-92348192D01*
X133788613Y-92348192D01*
X133948097Y-92316468D01*
X134098329Y-92254240D01*
X134233533Y-92163900D01*
X134348516Y-92048917D01*
X134438856Y-91913713D01*
X134501084Y-91763481D01*
X134532808Y-91603997D01*
X134532808Y-91441387D01*
X134501084Y-91281903D01*
X134438856Y-91131671D01*
X134348516Y-90996467D01*
X134233533Y-90881484D01*
X134098329Y-90791144D01*
X133948097Y-90728916D01*
X133788613Y-90697192D01*
X133626003Y-90697192D01*
X133466519Y-90728916D01*
X133316287Y-90791144D01*
X133181083Y-90881484D01*
X133066100Y-90996467D01*
X132975760Y-91131671D01*
X132913532Y-91281903D01*
X132881808Y-91441387D01*
X125213000Y-91441387D01*
X125213000Y-89441387D01*
X132881808Y-89441387D01*
X132881808Y-89603997D01*
X132913532Y-89763481D01*
X132975760Y-89913713D01*
X133066100Y-90048917D01*
X133181083Y-90163900D01*
X133316287Y-90254240D01*
X133466519Y-90316468D01*
X133626003Y-90348192D01*
X133788613Y-90348192D01*
X133948097Y-90316468D01*
X134098329Y-90254240D01*
X134233533Y-90163900D01*
X134348516Y-90048917D01*
X134438856Y-89913713D01*
X134501084Y-89763481D01*
X134532808Y-89603997D01*
X134532808Y-89441387D01*
X134526306Y-89408695D01*
X136604500Y-89408695D01*
X136604500Y-89571305D01*
X136636224Y-89730789D01*
X136698452Y-89881021D01*
X136788792Y-90016225D01*
X136791789Y-90019222D01*
X136718452Y-90128979D01*
X136656224Y-90279211D01*
X136624500Y-90438695D01*
X136624500Y-90601305D01*
X136656224Y-90760789D01*
X136718452Y-90911021D01*
X136808792Y-91046225D01*
X136923775Y-91161208D01*
X137058979Y-91251548D01*
X137209211Y-91313776D01*
X137368695Y-91345500D01*
X137531305Y-91345500D01*
X137690789Y-91313776D01*
X137841021Y-91251548D01*
X137976225Y-91161208D01*
X138091208Y-91046225D01*
X138181548Y-90911021D01*
X138243776Y-90760789D01*
X138275500Y-90601305D01*
X138275500Y-90438695D01*
X138243776Y-90279211D01*
X138181548Y-90128979D01*
X138091208Y-89993775D01*
X138088211Y-89990778D01*
X138161548Y-89881021D01*
X138223776Y-89730789D01*
X138255500Y-89571305D01*
X138255500Y-89418695D01*
X143044500Y-89418695D01*
X143044500Y-89581305D01*
X143076224Y-89740789D01*
X143138452Y-89891021D01*
X143228792Y-90026225D01*
X143343775Y-90141208D01*
X143478979Y-90231548D01*
X143629211Y-90293776D01*
X143788695Y-90325500D01*
X143951305Y-90325500D01*
X144110789Y-90293776D01*
X144261021Y-90231548D01*
X144396225Y-90141208D01*
X144511208Y-90026225D01*
X144601548Y-89891021D01*
X144663776Y-89740789D01*
X144695500Y-89581305D01*
X144695500Y-89418695D01*
X144663776Y-89259211D01*
X144601548Y-89108979D01*
X144511208Y-88973775D01*
X144396225Y-88858792D01*
X144261021Y-88768452D01*
X144110789Y-88706224D01*
X143951305Y-88674500D01*
X143788695Y-88674500D01*
X143629211Y-88706224D01*
X143478979Y-88768452D01*
X143343775Y-88858792D01*
X143228792Y-88973775D01*
X143138452Y-89108979D01*
X143076224Y-89259211D01*
X143044500Y-89418695D01*
X138255500Y-89418695D01*
X138255500Y-89408695D01*
X138223776Y-89249211D01*
X138161548Y-89098979D01*
X138071208Y-88963775D01*
X137956225Y-88848792D01*
X137821021Y-88758452D01*
X137670789Y-88696224D01*
X137511305Y-88664500D01*
X137348695Y-88664500D01*
X137189211Y-88696224D01*
X137038979Y-88758452D01*
X136903775Y-88848792D01*
X136788792Y-88963775D01*
X136698452Y-89098979D01*
X136636224Y-89249211D01*
X136604500Y-89408695D01*
X134526306Y-89408695D01*
X134501084Y-89281903D01*
X134438856Y-89131671D01*
X134348516Y-88996467D01*
X134233533Y-88881484D01*
X134098329Y-88791144D01*
X133948097Y-88728916D01*
X133788613Y-88697192D01*
X133626003Y-88697192D01*
X133466519Y-88728916D01*
X133316287Y-88791144D01*
X133181083Y-88881484D01*
X133066100Y-88996467D01*
X132975760Y-89131671D01*
X132913532Y-89281903D01*
X132881808Y-89441387D01*
X125213000Y-89441387D01*
X125213000Y-88151195D01*
X131342000Y-88151195D01*
X131342000Y-88313805D01*
X131373724Y-88473289D01*
X131435952Y-88623521D01*
X131526292Y-88758725D01*
X131641275Y-88873708D01*
X131776479Y-88964048D01*
X131926711Y-89026276D01*
X132086195Y-89058000D01*
X132248805Y-89058000D01*
X132408289Y-89026276D01*
X132558521Y-88964048D01*
X132693725Y-88873708D01*
X132808708Y-88758725D01*
X132899048Y-88623521D01*
X132961276Y-88473289D01*
X132993000Y-88313805D01*
X132993000Y-88151195D01*
X132961276Y-87991711D01*
X132899048Y-87841479D01*
X132808708Y-87706275D01*
X132693725Y-87591292D01*
X132558521Y-87500952D01*
X132414719Y-87441387D01*
X132881808Y-87441387D01*
X132881808Y-87603997D01*
X132913532Y-87763481D01*
X132975760Y-87913713D01*
X133066100Y-88048917D01*
X133181083Y-88163900D01*
X133316287Y-88254240D01*
X133466519Y-88316468D01*
X133626003Y-88348192D01*
X133788613Y-88348192D01*
X133948097Y-88316468D01*
X134098329Y-88254240D01*
X134233533Y-88163900D01*
X134348516Y-88048917D01*
X134438856Y-87913713D01*
X134501084Y-87763481D01*
X134532808Y-87603997D01*
X134532808Y-87441387D01*
X134530284Y-87428695D01*
X140104500Y-87428695D01*
X140104500Y-87591305D01*
X140136224Y-87750789D01*
X140198452Y-87901021D01*
X140288792Y-88036225D01*
X140403775Y-88151208D01*
X140538979Y-88241548D01*
X140689211Y-88303776D01*
X140848695Y-88335500D01*
X141011305Y-88335500D01*
X141170789Y-88303776D01*
X141321021Y-88241548D01*
X141456225Y-88151208D01*
X141571208Y-88036225D01*
X141661548Y-87901021D01*
X141723776Y-87750789D01*
X141755500Y-87591305D01*
X141755500Y-87532929D01*
X141818695Y-87545500D01*
X141981305Y-87545500D01*
X142140789Y-87513776D01*
X142291021Y-87451548D01*
X142426225Y-87361208D01*
X142541208Y-87246225D01*
X142631548Y-87111021D01*
X142693776Y-86960789D01*
X142725500Y-86801305D01*
X142725500Y-86638695D01*
X142693776Y-86479211D01*
X142631548Y-86328979D01*
X142541208Y-86193775D01*
X142426225Y-86078792D01*
X142291021Y-85988452D01*
X142140789Y-85926224D01*
X141981305Y-85894500D01*
X141818695Y-85894500D01*
X141659211Y-85926224D01*
X141508979Y-85988452D01*
X141373775Y-86078792D01*
X141258792Y-86193775D01*
X141168452Y-86328979D01*
X141106224Y-86479211D01*
X141074500Y-86638695D01*
X141074500Y-86697071D01*
X141011305Y-86684500D01*
X140848695Y-86684500D01*
X140689211Y-86716224D01*
X140538979Y-86778452D01*
X140403775Y-86868792D01*
X140288792Y-86983775D01*
X140198452Y-87118979D01*
X140136224Y-87269211D01*
X140104500Y-87428695D01*
X134530284Y-87428695D01*
X134501084Y-87281903D01*
X134438856Y-87131671D01*
X134348516Y-86996467D01*
X134233533Y-86881484D01*
X134098329Y-86791144D01*
X133948097Y-86728916D01*
X133788613Y-86697192D01*
X133626003Y-86697192D01*
X133466519Y-86728916D01*
X133316287Y-86791144D01*
X133181083Y-86881484D01*
X133066100Y-86996467D01*
X132975760Y-87131671D01*
X132913532Y-87281903D01*
X132881808Y-87441387D01*
X132414719Y-87441387D01*
X132408289Y-87438724D01*
X132248805Y-87407000D01*
X132086195Y-87407000D01*
X131926711Y-87438724D01*
X131776479Y-87500952D01*
X131641275Y-87591292D01*
X131526292Y-87706275D01*
X131435952Y-87841479D01*
X131373724Y-87991711D01*
X131342000Y-88151195D01*
X125213000Y-88151195D01*
X125213000Y-85441387D01*
X132881808Y-85441387D01*
X132881808Y-85603997D01*
X132913532Y-85763481D01*
X132975760Y-85913713D01*
X133066100Y-86048917D01*
X133181083Y-86163900D01*
X133316287Y-86254240D01*
X133466519Y-86316468D01*
X133626003Y-86348192D01*
X133788613Y-86348192D01*
X133948097Y-86316468D01*
X134098329Y-86254240D01*
X134233533Y-86163900D01*
X134348516Y-86048917D01*
X134438856Y-85913713D01*
X134501084Y-85763481D01*
X134532808Y-85603997D01*
X134532808Y-85441387D01*
X134501084Y-85281903D01*
X134438856Y-85131671D01*
X134348516Y-84996467D01*
X134233533Y-84881484D01*
X134098329Y-84791144D01*
X133948097Y-84728916D01*
X133788613Y-84697192D01*
X133626003Y-84697192D01*
X133466519Y-84728916D01*
X133316287Y-84791144D01*
X133181083Y-84881484D01*
X133066100Y-84996467D01*
X132975760Y-85131671D01*
X132913532Y-85281903D01*
X132881808Y-85441387D01*
X125213000Y-85441387D01*
X125213000Y-80818695D01*
X136574500Y-80818695D01*
X136574500Y-80981305D01*
X136606224Y-81140789D01*
X136668452Y-81291021D01*
X136758792Y-81426225D01*
X136873775Y-81541208D01*
X137008979Y-81631548D01*
X137159211Y-81693776D01*
X137318695Y-81725500D01*
X137481305Y-81725500D01*
X137640789Y-81693776D01*
X137791021Y-81631548D01*
X137926225Y-81541208D01*
X138041208Y-81426225D01*
X138131548Y-81291021D01*
X138193776Y-81140789D01*
X138225500Y-80981305D01*
X138225500Y-80818695D01*
X138193776Y-80659211D01*
X138156284Y-80568695D01*
X140174500Y-80568695D01*
X140174500Y-80731305D01*
X140206224Y-80890789D01*
X140268452Y-81041021D01*
X140358792Y-81176225D01*
X140473775Y-81291208D01*
X140608979Y-81381548D01*
X140759211Y-81443776D01*
X140918695Y-81475500D01*
X141014140Y-81475500D01*
X140998452Y-81498979D01*
X140936224Y-81649211D01*
X140904500Y-81808695D01*
X140904500Y-81971305D01*
X140936224Y-82130789D01*
X140998452Y-82281021D01*
X141088792Y-82416225D01*
X141203775Y-82531208D01*
X141338979Y-82621548D01*
X141489211Y-82683776D01*
X141648695Y-82715500D01*
X141811305Y-82715500D01*
X141970789Y-82683776D01*
X142121021Y-82621548D01*
X142256225Y-82531208D01*
X142371208Y-82416225D01*
X142461548Y-82281021D01*
X142523776Y-82130789D01*
X142555500Y-81971305D01*
X142555500Y-81808695D01*
X142523776Y-81649211D01*
X142461548Y-81498979D01*
X142371208Y-81363775D01*
X142256225Y-81248792D01*
X142121021Y-81158452D01*
X141970789Y-81096224D01*
X141811305Y-81064500D01*
X141715860Y-81064500D01*
X141731548Y-81041021D01*
X141793776Y-80890789D01*
X141825500Y-80731305D01*
X141825500Y-80568695D01*
X141793776Y-80409211D01*
X141731548Y-80258979D01*
X141641208Y-80123775D01*
X141526225Y-80008792D01*
X141391021Y-79918452D01*
X141240789Y-79856224D01*
X141081305Y-79824500D01*
X140918695Y-79824500D01*
X140759211Y-79856224D01*
X140608979Y-79918452D01*
X140473775Y-80008792D01*
X140358792Y-80123775D01*
X140268452Y-80258979D01*
X140206224Y-80409211D01*
X140174500Y-80568695D01*
X138156284Y-80568695D01*
X138131548Y-80508979D01*
X138041208Y-80373775D01*
X137926225Y-80258792D01*
X137791021Y-80168452D01*
X137640789Y-80106224D01*
X137481305Y-80074500D01*
X137318695Y-80074500D01*
X137159211Y-80106224D01*
X137008979Y-80168452D01*
X136873775Y-80258792D01*
X136758792Y-80373775D01*
X136668452Y-80508979D01*
X136606224Y-80659211D01*
X136574500Y-80818695D01*
X125213000Y-80818695D01*
X125213000Y-79368695D01*
X138934500Y-79368695D01*
X138934500Y-79531305D01*
X138966224Y-79690789D01*
X139028452Y-79841021D01*
X139118792Y-79976225D01*
X139233775Y-80091208D01*
X139368979Y-80181548D01*
X139519211Y-80243776D01*
X139678695Y-80275500D01*
X139841305Y-80275500D01*
X140000789Y-80243776D01*
X140151021Y-80181548D01*
X140286225Y-80091208D01*
X140401208Y-79976225D01*
X140491548Y-79841021D01*
X140553776Y-79690789D01*
X140585500Y-79531305D01*
X140585500Y-79368695D01*
X140553776Y-79209211D01*
X140491548Y-79058979D01*
X140401208Y-78923775D01*
X140286225Y-78808792D01*
X140151021Y-78718452D01*
X140000789Y-78656224D01*
X139841305Y-78624500D01*
X139678695Y-78624500D01*
X139519211Y-78656224D01*
X139368979Y-78718452D01*
X139233775Y-78808792D01*
X139118792Y-78923775D01*
X139028452Y-79058979D01*
X138966224Y-79209211D01*
X138934500Y-79368695D01*
X125213000Y-79368695D01*
X125213000Y-75213000D01*
X149563000Y-75213000D01*
X149563000Y-99563000D01*
%TA.AperFunction,Conductor*%
D12*
G36*
X149563000Y-99563000D02*
G01*
X148610826Y-99563000D01*
X148551208Y-99473775D01*
X148436225Y-99358792D01*
X148301021Y-99268452D01*
X148150789Y-99206224D01*
X147991305Y-99174500D01*
X147828695Y-99174500D01*
X147669211Y-99206224D01*
X147518979Y-99268452D01*
X147383775Y-99358792D01*
X147268792Y-99473775D01*
X147209174Y-99563000D01*
X141685163Y-99563000D01*
X141685500Y-99561305D01*
X141685500Y-99398695D01*
X141653776Y-99239211D01*
X141591548Y-99088979D01*
X141501208Y-98953775D01*
X141386225Y-98838792D01*
X141251021Y-98748452D01*
X141100789Y-98686224D01*
X140941305Y-98654500D01*
X140778695Y-98654500D01*
X140619211Y-98686224D01*
X140468979Y-98748452D01*
X140333775Y-98838792D01*
X140218792Y-98953775D01*
X140128452Y-99088979D01*
X140066224Y-99239211D01*
X140034500Y-99398695D01*
X140034500Y-99561305D01*
X140034837Y-99563000D01*
X134532808Y-99563000D01*
X134532808Y-99441387D01*
X134501084Y-99281903D01*
X134438856Y-99131671D01*
X134348516Y-98996467D01*
X134233533Y-98881484D01*
X134098329Y-98791144D01*
X133948097Y-98728916D01*
X133788613Y-98697192D01*
X133626003Y-98697192D01*
X133466519Y-98728916D01*
X133316287Y-98791144D01*
X133181083Y-98881484D01*
X133066100Y-98996467D01*
X132975760Y-99131671D01*
X132913532Y-99281903D01*
X132881808Y-99441387D01*
X132881808Y-99563000D01*
X125213000Y-99563000D01*
X125213000Y-97441387D01*
X132881808Y-97441387D01*
X132881808Y-97603997D01*
X132913532Y-97763481D01*
X132975760Y-97913713D01*
X133066100Y-98048917D01*
X133181083Y-98163900D01*
X133316287Y-98254240D01*
X133466519Y-98316468D01*
X133626003Y-98348192D01*
X133788613Y-98348192D01*
X133948097Y-98316468D01*
X134098329Y-98254240D01*
X134233533Y-98163900D01*
X134348516Y-98048917D01*
X134438856Y-97913713D01*
X134501084Y-97763481D01*
X134532808Y-97603997D01*
X134532808Y-97441387D01*
X134530284Y-97428695D01*
X136514500Y-97428695D01*
X136514500Y-97591305D01*
X136546224Y-97750789D01*
X136608452Y-97901021D01*
X136687928Y-98019966D01*
X136628452Y-98108979D01*
X136566224Y-98259211D01*
X136534500Y-98418695D01*
X136534500Y-98581305D01*
X136566224Y-98740789D01*
X136628452Y-98891021D01*
X136718792Y-99026225D01*
X136833775Y-99141208D01*
X136968979Y-99231548D01*
X137119211Y-99293776D01*
X137278695Y-99325500D01*
X137441305Y-99325500D01*
X137600789Y-99293776D01*
X137751021Y-99231548D01*
X137886225Y-99141208D01*
X138001208Y-99026225D01*
X138091548Y-98891021D01*
X138153776Y-98740789D01*
X138185500Y-98581305D01*
X138185500Y-98418695D01*
X138153776Y-98259211D01*
X138091548Y-98108979D01*
X138012072Y-97990034D01*
X138071548Y-97901021D01*
X138133776Y-97750789D01*
X138165500Y-97591305D01*
X138165500Y-97428695D01*
X138133776Y-97269211D01*
X138071548Y-97118979D01*
X137981208Y-96983775D01*
X137866225Y-96868792D01*
X137731021Y-96778452D01*
X137580789Y-96716224D01*
X137421305Y-96684500D01*
X137258695Y-96684500D01*
X137099211Y-96716224D01*
X136948979Y-96778452D01*
X136813775Y-96868792D01*
X136698792Y-96983775D01*
X136608452Y-97118979D01*
X136546224Y-97269211D01*
X136514500Y-97428695D01*
X134530284Y-97428695D01*
X134501084Y-97281903D01*
X134438856Y-97131671D01*
X134348516Y-96996467D01*
X134233533Y-96881484D01*
X134098329Y-96791144D01*
X133948097Y-96728916D01*
X133788613Y-96697192D01*
X133626003Y-96697192D01*
X133466519Y-96728916D01*
X133316287Y-96791144D01*
X133181083Y-96881484D01*
X133066100Y-96996467D01*
X132975760Y-97131671D01*
X132913532Y-97281903D01*
X132881808Y-97441387D01*
X125213000Y-97441387D01*
X125213000Y-95351387D01*
X133001808Y-95351387D01*
X133001808Y-95513997D01*
X133033532Y-95673481D01*
X133095760Y-95823713D01*
X133186100Y-95958917D01*
X133301083Y-96073900D01*
X133436287Y-96164240D01*
X133586519Y-96226468D01*
X133746003Y-96258192D01*
X133908613Y-96258192D01*
X134068097Y-96226468D01*
X134218329Y-96164240D01*
X134353533Y-96073900D01*
X134468516Y-95958917D01*
X134558856Y-95823713D01*
X134621084Y-95673481D01*
X134652808Y-95513997D01*
X134652808Y-95418695D01*
X140094500Y-95418695D01*
X140094500Y-95581305D01*
X140126224Y-95740789D01*
X140188452Y-95891021D01*
X140278792Y-96026225D01*
X140283778Y-96031211D01*
X140218452Y-96128979D01*
X140156224Y-96279211D01*
X140124500Y-96438695D01*
X140124500Y-96601305D01*
X140156224Y-96760789D01*
X140218452Y-96911021D01*
X140308792Y-97046225D01*
X140423775Y-97161208D01*
X140558979Y-97251548D01*
X140709211Y-97313776D01*
X140868695Y-97345500D01*
X141031305Y-97345500D01*
X141190789Y-97313776D01*
X141341021Y-97251548D01*
X141476225Y-97161208D01*
X141591208Y-97046225D01*
X141681548Y-96911021D01*
X141743776Y-96760789D01*
X141775500Y-96601305D01*
X141775500Y-96438695D01*
X141743776Y-96279211D01*
X141681548Y-96128979D01*
X141591208Y-95993775D01*
X141586222Y-95988789D01*
X141651548Y-95891021D01*
X141713776Y-95740789D01*
X141745500Y-95581305D01*
X141745500Y-95538695D01*
X143044500Y-95538695D01*
X143044500Y-95701305D01*
X143076224Y-95860789D01*
X143138452Y-96011021D01*
X143228792Y-96146225D01*
X143343775Y-96261208D01*
X143478979Y-96351548D01*
X143629211Y-96413776D01*
X143788695Y-96445500D01*
X143951305Y-96445500D01*
X144110789Y-96413776D01*
X144261021Y-96351548D01*
X144396225Y-96261208D01*
X144511208Y-96146225D01*
X144601548Y-96011021D01*
X144663776Y-95860789D01*
X144695500Y-95701305D01*
X144695500Y-95538695D01*
X144663776Y-95379211D01*
X144601548Y-95228979D01*
X144511208Y-95093775D01*
X144396225Y-94978792D01*
X144261021Y-94888452D01*
X144110789Y-94826224D01*
X143951305Y-94794500D01*
X143788695Y-94794500D01*
X143629211Y-94826224D01*
X143478979Y-94888452D01*
X143343775Y-94978792D01*
X143228792Y-95093775D01*
X143138452Y-95228979D01*
X143076224Y-95379211D01*
X143044500Y-95538695D01*
X141745500Y-95538695D01*
X141745500Y-95418695D01*
X141713776Y-95259211D01*
X141651548Y-95108979D01*
X141561208Y-94973775D01*
X141446225Y-94858792D01*
X141311021Y-94768452D01*
X141160789Y-94706224D01*
X141001305Y-94674500D01*
X140838695Y-94674500D01*
X140679211Y-94706224D01*
X140528979Y-94768452D01*
X140393775Y-94858792D01*
X140278792Y-94973775D01*
X140188452Y-95108979D01*
X140126224Y-95259211D01*
X140094500Y-95418695D01*
X134652808Y-95418695D01*
X134652808Y-95351387D01*
X134621084Y-95191903D01*
X134558856Y-95041671D01*
X134468516Y-94906467D01*
X134353533Y-94791484D01*
X134218329Y-94701144D01*
X134068097Y-94638916D01*
X133908613Y-94607192D01*
X133746003Y-94607192D01*
X133586519Y-94638916D01*
X133436287Y-94701144D01*
X133301083Y-94791484D01*
X133186100Y-94906467D01*
X133095760Y-95041671D01*
X133033532Y-95191903D01*
X133001808Y-95351387D01*
X125213000Y-95351387D01*
X125213000Y-94198695D01*
X131414500Y-94198695D01*
X131414500Y-94361305D01*
X131446224Y-94520789D01*
X131508452Y-94671021D01*
X131598792Y-94806225D01*
X131713775Y-94921208D01*
X131848979Y-95011548D01*
X131999211Y-95073776D01*
X132158695Y-95105500D01*
X132321305Y-95105500D01*
X132480789Y-95073776D01*
X132631021Y-95011548D01*
X132766225Y-94921208D01*
X132881208Y-94806225D01*
X132971548Y-94671021D01*
X133033776Y-94520789D01*
X133054084Y-94418695D01*
X136494500Y-94418695D01*
X136494500Y-94581305D01*
X136526224Y-94740789D01*
X136588452Y-94891021D01*
X136678792Y-95026225D01*
X136793775Y-95141208D01*
X136928979Y-95231548D01*
X137079211Y-95293776D01*
X137238695Y-95325500D01*
X137401305Y-95325500D01*
X137560789Y-95293776D01*
X137711021Y-95231548D01*
X137846225Y-95141208D01*
X137961208Y-95026225D01*
X138051548Y-94891021D01*
X138113776Y-94740789D01*
X138145500Y-94581305D01*
X138145500Y-94418695D01*
X138113776Y-94259211D01*
X138051548Y-94108979D01*
X137992072Y-94019966D01*
X138071548Y-93901021D01*
X138133776Y-93750789D01*
X138165500Y-93591305D01*
X138165500Y-93428695D01*
X138133776Y-93269211D01*
X138071548Y-93118979D01*
X137981208Y-92983775D01*
X137866225Y-92868792D01*
X137731021Y-92778452D01*
X137580789Y-92716224D01*
X137421305Y-92684500D01*
X137258695Y-92684500D01*
X137099211Y-92716224D01*
X136948979Y-92778452D01*
X136813775Y-92868792D01*
X136698792Y-92983775D01*
X136608452Y-93118979D01*
X136546224Y-93269211D01*
X136514500Y-93428695D01*
X136514500Y-93591305D01*
X136546224Y-93750789D01*
X136608452Y-93901021D01*
X136667928Y-93990034D01*
X136588452Y-94108979D01*
X136526224Y-94259211D01*
X136494500Y-94418695D01*
X133054084Y-94418695D01*
X133065500Y-94361305D01*
X133065500Y-94198695D01*
X133033776Y-94039211D01*
X132991633Y-93937469D01*
X133066100Y-94048917D01*
X133181083Y-94163900D01*
X133316287Y-94254240D01*
X133466519Y-94316468D01*
X133626003Y-94348192D01*
X133788613Y-94348192D01*
X133948097Y-94316468D01*
X134098329Y-94254240D01*
X134233533Y-94163900D01*
X134348516Y-94048917D01*
X134438856Y-93913713D01*
X134501084Y-93763481D01*
X134532808Y-93603997D01*
X134532808Y-93441387D01*
X134501084Y-93281903D01*
X134438856Y-93131671D01*
X134348516Y-92996467D01*
X134233533Y-92881484D01*
X134098329Y-92791144D01*
X133948097Y-92728916D01*
X133788613Y-92697192D01*
X133626003Y-92697192D01*
X133466519Y-92728916D01*
X133316287Y-92791144D01*
X133181083Y-92881484D01*
X133066100Y-92996467D01*
X132975760Y-93131671D01*
X132913532Y-93281903D01*
X132881808Y-93441387D01*
X132881808Y-93603997D01*
X132913532Y-93763481D01*
X132955675Y-93865223D01*
X132881208Y-93753775D01*
X132766225Y-93638792D01*
X132631021Y-93548452D01*
X132480789Y-93486224D01*
X132321305Y-93454500D01*
X132158695Y-93454500D01*
X131999211Y-93486224D01*
X131848979Y-93548452D01*
X131713775Y-93638792D01*
X131598792Y-93753775D01*
X131508452Y-93888979D01*
X131446224Y-94039211D01*
X131414500Y-94198695D01*
X125213000Y-94198695D01*
X125213000Y-92428695D01*
X140104500Y-92428695D01*
X140104500Y-92591305D01*
X140136224Y-92750789D01*
X140198452Y-92901021D01*
X140288792Y-93036225D01*
X140403775Y-93151208D01*
X140538979Y-93241548D01*
X140689211Y-93303776D01*
X140848695Y-93335500D01*
X141011305Y-93335500D01*
X141170789Y-93303776D01*
X141321021Y-93241548D01*
X141456225Y-93151208D01*
X141571208Y-93036225D01*
X141661548Y-92901021D01*
X141723776Y-92750789D01*
X141755500Y-92591305D01*
X141755500Y-92428695D01*
X141723776Y-92269211D01*
X141661548Y-92118979D01*
X141571208Y-91983775D01*
X141456225Y-91868792D01*
X141381250Y-91818695D01*
X146044500Y-91818695D01*
X146044500Y-91981305D01*
X146076224Y-92140789D01*
X146138452Y-92291021D01*
X146228792Y-92426225D01*
X146343775Y-92541208D01*
X146478979Y-92631548D01*
X146629211Y-92693776D01*
X146788695Y-92725500D01*
X146951305Y-92725500D01*
X147110789Y-92693776D01*
X147261021Y-92631548D01*
X147396225Y-92541208D01*
X147511208Y-92426225D01*
X147601548Y-92291021D01*
X147663776Y-92140789D01*
X147695500Y-91981305D01*
X147695500Y-91818695D01*
X147663776Y-91659211D01*
X147601548Y-91508979D01*
X147511208Y-91373775D01*
X147396225Y-91258792D01*
X147261021Y-91168452D01*
X147110789Y-91106224D01*
X146951305Y-91074500D01*
X146788695Y-91074500D01*
X146629211Y-91106224D01*
X146478979Y-91168452D01*
X146343775Y-91258792D01*
X146228792Y-91373775D01*
X146138452Y-91508979D01*
X146076224Y-91659211D01*
X146044500Y-91818695D01*
X141381250Y-91818695D01*
X141321021Y-91778452D01*
X141170789Y-91716224D01*
X141011305Y-91684500D01*
X140848695Y-91684500D01*
X140689211Y-91716224D01*
X140538979Y-91778452D01*
X140403775Y-91868792D01*
X140288792Y-91983775D01*
X140198452Y-92118979D01*
X140136224Y-92269211D01*
X140104500Y-92428695D01*
X125213000Y-92428695D01*
X125213000Y-91441387D01*
X132881808Y-91441387D01*
X132881808Y-91603997D01*
X132913532Y-91763481D01*
X132975760Y-91913713D01*
X133066100Y-92048917D01*
X133181083Y-92163900D01*
X133316287Y-92254240D01*
X133466519Y-92316468D01*
X133626003Y-92348192D01*
X133788613Y-92348192D01*
X133948097Y-92316468D01*
X134098329Y-92254240D01*
X134233533Y-92163900D01*
X134348516Y-92048917D01*
X134438856Y-91913713D01*
X134501084Y-91763481D01*
X134532808Y-91603997D01*
X134532808Y-91441387D01*
X134501084Y-91281903D01*
X134438856Y-91131671D01*
X134348516Y-90996467D01*
X134233533Y-90881484D01*
X134098329Y-90791144D01*
X133948097Y-90728916D01*
X133788613Y-90697192D01*
X133626003Y-90697192D01*
X133466519Y-90728916D01*
X133316287Y-90791144D01*
X133181083Y-90881484D01*
X133066100Y-90996467D01*
X132975760Y-91131671D01*
X132913532Y-91281903D01*
X132881808Y-91441387D01*
X125213000Y-91441387D01*
X125213000Y-89441387D01*
X132881808Y-89441387D01*
X132881808Y-89603997D01*
X132913532Y-89763481D01*
X132975760Y-89913713D01*
X133066100Y-90048917D01*
X133181083Y-90163900D01*
X133316287Y-90254240D01*
X133466519Y-90316468D01*
X133626003Y-90348192D01*
X133788613Y-90348192D01*
X133948097Y-90316468D01*
X134098329Y-90254240D01*
X134233533Y-90163900D01*
X134348516Y-90048917D01*
X134438856Y-89913713D01*
X134501084Y-89763481D01*
X134532808Y-89603997D01*
X134532808Y-89441387D01*
X134526306Y-89408695D01*
X136604500Y-89408695D01*
X136604500Y-89571305D01*
X136636224Y-89730789D01*
X136698452Y-89881021D01*
X136788792Y-90016225D01*
X136791789Y-90019222D01*
X136718452Y-90128979D01*
X136656224Y-90279211D01*
X136624500Y-90438695D01*
X136624500Y-90601305D01*
X136656224Y-90760789D01*
X136718452Y-90911021D01*
X136808792Y-91046225D01*
X136923775Y-91161208D01*
X137058979Y-91251548D01*
X137209211Y-91313776D01*
X137368695Y-91345500D01*
X137531305Y-91345500D01*
X137690789Y-91313776D01*
X137841021Y-91251548D01*
X137976225Y-91161208D01*
X138091208Y-91046225D01*
X138181548Y-90911021D01*
X138243776Y-90760789D01*
X138275500Y-90601305D01*
X138275500Y-90438695D01*
X138243776Y-90279211D01*
X138181548Y-90128979D01*
X138091208Y-89993775D01*
X138088211Y-89990778D01*
X138161548Y-89881021D01*
X138223776Y-89730789D01*
X138255500Y-89571305D01*
X138255500Y-89418695D01*
X143044500Y-89418695D01*
X143044500Y-89581305D01*
X143076224Y-89740789D01*
X143138452Y-89891021D01*
X143228792Y-90026225D01*
X143343775Y-90141208D01*
X143478979Y-90231548D01*
X143629211Y-90293776D01*
X143788695Y-90325500D01*
X143951305Y-90325500D01*
X144110789Y-90293776D01*
X144261021Y-90231548D01*
X144396225Y-90141208D01*
X144511208Y-90026225D01*
X144601548Y-89891021D01*
X144663776Y-89740789D01*
X144695500Y-89581305D01*
X144695500Y-89418695D01*
X144663776Y-89259211D01*
X144601548Y-89108979D01*
X144511208Y-88973775D01*
X144396225Y-88858792D01*
X144261021Y-88768452D01*
X144110789Y-88706224D01*
X143951305Y-88674500D01*
X143788695Y-88674500D01*
X143629211Y-88706224D01*
X143478979Y-88768452D01*
X143343775Y-88858792D01*
X143228792Y-88973775D01*
X143138452Y-89108979D01*
X143076224Y-89259211D01*
X143044500Y-89418695D01*
X138255500Y-89418695D01*
X138255500Y-89408695D01*
X138223776Y-89249211D01*
X138161548Y-89098979D01*
X138071208Y-88963775D01*
X137956225Y-88848792D01*
X137821021Y-88758452D01*
X137670789Y-88696224D01*
X137511305Y-88664500D01*
X137348695Y-88664500D01*
X137189211Y-88696224D01*
X137038979Y-88758452D01*
X136903775Y-88848792D01*
X136788792Y-88963775D01*
X136698452Y-89098979D01*
X136636224Y-89249211D01*
X136604500Y-89408695D01*
X134526306Y-89408695D01*
X134501084Y-89281903D01*
X134438856Y-89131671D01*
X134348516Y-88996467D01*
X134233533Y-88881484D01*
X134098329Y-88791144D01*
X133948097Y-88728916D01*
X133788613Y-88697192D01*
X133626003Y-88697192D01*
X133466519Y-88728916D01*
X133316287Y-88791144D01*
X133181083Y-88881484D01*
X133066100Y-88996467D01*
X132975760Y-89131671D01*
X132913532Y-89281903D01*
X132881808Y-89441387D01*
X125213000Y-89441387D01*
X125213000Y-88151195D01*
X131342000Y-88151195D01*
X131342000Y-88313805D01*
X131373724Y-88473289D01*
X131435952Y-88623521D01*
X131526292Y-88758725D01*
X131641275Y-88873708D01*
X131776479Y-88964048D01*
X131926711Y-89026276D01*
X132086195Y-89058000D01*
X132248805Y-89058000D01*
X132408289Y-89026276D01*
X132558521Y-88964048D01*
X132693725Y-88873708D01*
X132808708Y-88758725D01*
X132899048Y-88623521D01*
X132961276Y-88473289D01*
X132993000Y-88313805D01*
X132993000Y-88151195D01*
X132961276Y-87991711D01*
X132899048Y-87841479D01*
X132808708Y-87706275D01*
X132693725Y-87591292D01*
X132558521Y-87500952D01*
X132414719Y-87441387D01*
X132881808Y-87441387D01*
X132881808Y-87603997D01*
X132913532Y-87763481D01*
X132975760Y-87913713D01*
X133066100Y-88048917D01*
X133181083Y-88163900D01*
X133316287Y-88254240D01*
X133466519Y-88316468D01*
X133626003Y-88348192D01*
X133788613Y-88348192D01*
X133948097Y-88316468D01*
X134098329Y-88254240D01*
X134233533Y-88163900D01*
X134348516Y-88048917D01*
X134438856Y-87913713D01*
X134501084Y-87763481D01*
X134532808Y-87603997D01*
X134532808Y-87441387D01*
X134530284Y-87428695D01*
X140104500Y-87428695D01*
X140104500Y-87591305D01*
X140136224Y-87750789D01*
X140198452Y-87901021D01*
X140288792Y-88036225D01*
X140403775Y-88151208D01*
X140538979Y-88241548D01*
X140689211Y-88303776D01*
X140848695Y-88335500D01*
X141011305Y-88335500D01*
X141170789Y-88303776D01*
X141321021Y-88241548D01*
X141456225Y-88151208D01*
X141571208Y-88036225D01*
X141661548Y-87901021D01*
X141723776Y-87750789D01*
X141755500Y-87591305D01*
X141755500Y-87532929D01*
X141818695Y-87545500D01*
X141981305Y-87545500D01*
X142140789Y-87513776D01*
X142291021Y-87451548D01*
X142426225Y-87361208D01*
X142541208Y-87246225D01*
X142631548Y-87111021D01*
X142693776Y-86960789D01*
X142725500Y-86801305D01*
X142725500Y-86638695D01*
X142693776Y-86479211D01*
X142631548Y-86328979D01*
X142541208Y-86193775D01*
X142426225Y-86078792D01*
X142291021Y-85988452D01*
X142140789Y-85926224D01*
X141981305Y-85894500D01*
X141818695Y-85894500D01*
X141659211Y-85926224D01*
X141508979Y-85988452D01*
X141373775Y-86078792D01*
X141258792Y-86193775D01*
X141168452Y-86328979D01*
X141106224Y-86479211D01*
X141074500Y-86638695D01*
X141074500Y-86697071D01*
X141011305Y-86684500D01*
X140848695Y-86684500D01*
X140689211Y-86716224D01*
X140538979Y-86778452D01*
X140403775Y-86868792D01*
X140288792Y-86983775D01*
X140198452Y-87118979D01*
X140136224Y-87269211D01*
X140104500Y-87428695D01*
X134530284Y-87428695D01*
X134501084Y-87281903D01*
X134438856Y-87131671D01*
X134348516Y-86996467D01*
X134233533Y-86881484D01*
X134098329Y-86791144D01*
X133948097Y-86728916D01*
X133788613Y-86697192D01*
X133626003Y-86697192D01*
X133466519Y-86728916D01*
X133316287Y-86791144D01*
X133181083Y-86881484D01*
X133066100Y-86996467D01*
X132975760Y-87131671D01*
X132913532Y-87281903D01*
X132881808Y-87441387D01*
X132414719Y-87441387D01*
X132408289Y-87438724D01*
X132248805Y-87407000D01*
X132086195Y-87407000D01*
X131926711Y-87438724D01*
X131776479Y-87500952D01*
X131641275Y-87591292D01*
X131526292Y-87706275D01*
X131435952Y-87841479D01*
X131373724Y-87991711D01*
X131342000Y-88151195D01*
X125213000Y-88151195D01*
X125213000Y-85441387D01*
X132881808Y-85441387D01*
X132881808Y-85603997D01*
X132913532Y-85763481D01*
X132975760Y-85913713D01*
X133066100Y-86048917D01*
X133181083Y-86163900D01*
X133316287Y-86254240D01*
X133466519Y-86316468D01*
X133626003Y-86348192D01*
X133788613Y-86348192D01*
X133948097Y-86316468D01*
X134098329Y-86254240D01*
X134233533Y-86163900D01*
X134348516Y-86048917D01*
X134438856Y-85913713D01*
X134501084Y-85763481D01*
X134532808Y-85603997D01*
X134532808Y-85441387D01*
X134501084Y-85281903D01*
X134438856Y-85131671D01*
X134348516Y-84996467D01*
X134233533Y-84881484D01*
X134098329Y-84791144D01*
X133948097Y-84728916D01*
X133788613Y-84697192D01*
X133626003Y-84697192D01*
X133466519Y-84728916D01*
X133316287Y-84791144D01*
X133181083Y-84881484D01*
X133066100Y-84996467D01*
X132975760Y-85131671D01*
X132913532Y-85281903D01*
X132881808Y-85441387D01*
X125213000Y-85441387D01*
X125213000Y-80818695D01*
X136574500Y-80818695D01*
X136574500Y-80981305D01*
X136606224Y-81140789D01*
X136668452Y-81291021D01*
X136758792Y-81426225D01*
X136873775Y-81541208D01*
X137008979Y-81631548D01*
X137159211Y-81693776D01*
X137318695Y-81725500D01*
X137481305Y-81725500D01*
X137640789Y-81693776D01*
X137791021Y-81631548D01*
X137926225Y-81541208D01*
X138041208Y-81426225D01*
X138131548Y-81291021D01*
X138193776Y-81140789D01*
X138225500Y-80981305D01*
X138225500Y-80818695D01*
X138193776Y-80659211D01*
X138156284Y-80568695D01*
X140174500Y-80568695D01*
X140174500Y-80731305D01*
X140206224Y-80890789D01*
X140268452Y-81041021D01*
X140358792Y-81176225D01*
X140473775Y-81291208D01*
X140608979Y-81381548D01*
X140759211Y-81443776D01*
X140918695Y-81475500D01*
X141014140Y-81475500D01*
X140998452Y-81498979D01*
X140936224Y-81649211D01*
X140904500Y-81808695D01*
X140904500Y-81971305D01*
X140936224Y-82130789D01*
X140998452Y-82281021D01*
X141088792Y-82416225D01*
X141203775Y-82531208D01*
X141338979Y-82621548D01*
X141489211Y-82683776D01*
X141648695Y-82715500D01*
X141811305Y-82715500D01*
X141970789Y-82683776D01*
X142121021Y-82621548D01*
X142256225Y-82531208D01*
X142371208Y-82416225D01*
X142461548Y-82281021D01*
X142523776Y-82130789D01*
X142555500Y-81971305D01*
X142555500Y-81808695D01*
X142523776Y-81649211D01*
X142461548Y-81498979D01*
X142371208Y-81363775D01*
X142256225Y-81248792D01*
X142121021Y-81158452D01*
X141970789Y-81096224D01*
X141811305Y-81064500D01*
X141715860Y-81064500D01*
X141731548Y-81041021D01*
X141793776Y-80890789D01*
X141825500Y-80731305D01*
X141825500Y-80568695D01*
X141793776Y-80409211D01*
X141731548Y-80258979D01*
X141641208Y-80123775D01*
X141526225Y-80008792D01*
X141391021Y-79918452D01*
X141240789Y-79856224D01*
X141081305Y-79824500D01*
X140918695Y-79824500D01*
X140759211Y-79856224D01*
X140608979Y-79918452D01*
X140473775Y-80008792D01*
X140358792Y-80123775D01*
X140268452Y-80258979D01*
X140206224Y-80409211D01*
X140174500Y-80568695D01*
X138156284Y-80568695D01*
X138131548Y-80508979D01*
X138041208Y-80373775D01*
X137926225Y-80258792D01*
X137791021Y-80168452D01*
X137640789Y-80106224D01*
X137481305Y-80074500D01*
X137318695Y-80074500D01*
X137159211Y-80106224D01*
X137008979Y-80168452D01*
X136873775Y-80258792D01*
X136758792Y-80373775D01*
X136668452Y-80508979D01*
X136606224Y-80659211D01*
X136574500Y-80818695D01*
X125213000Y-80818695D01*
X125213000Y-79368695D01*
X138934500Y-79368695D01*
X138934500Y-79531305D01*
X138966224Y-79690789D01*
X139028452Y-79841021D01*
X139118792Y-79976225D01*
X139233775Y-80091208D01*
X139368979Y-80181548D01*
X139519211Y-80243776D01*
X139678695Y-80275500D01*
X139841305Y-80275500D01*
X140000789Y-80243776D01*
X140151021Y-80181548D01*
X140286225Y-80091208D01*
X140401208Y-79976225D01*
X140491548Y-79841021D01*
X140553776Y-79690789D01*
X140585500Y-79531305D01*
X140585500Y-79368695D01*
X140553776Y-79209211D01*
X140491548Y-79058979D01*
X140401208Y-78923775D01*
X140286225Y-78808792D01*
X140151021Y-78718452D01*
X140000789Y-78656224D01*
X139841305Y-78624500D01*
X139678695Y-78624500D01*
X139519211Y-78656224D01*
X139368979Y-78718452D01*
X139233775Y-78808792D01*
X139118792Y-78923775D01*
X139028452Y-79058979D01*
X138966224Y-79209211D01*
X138934500Y-79368695D01*
X125213000Y-79368695D01*
X125213000Y-75213000D01*
X149563000Y-75213000D01*
X149563000Y-99563000D01*
G37*
%TD.AperFunction*%
%TD*%
D11*
%TO.N,/BIAS4*%
X152218792Y-100526225D02*
X152333775Y-100641208D01*
X152468979Y-100731548D01*
X152619211Y-100793776D01*
X152778695Y-100825500D01*
X152941305Y-100825500D01*
X153100789Y-100793776D01*
X153251021Y-100731548D01*
X153386225Y-100641208D01*
X153501208Y-100526225D01*
X153560826Y-100437000D01*
X165556826Y-100437000D01*
X165554500Y-100448695D01*
X165554500Y-100611305D01*
X165586224Y-100770789D01*
X165648452Y-100921021D01*
X165738792Y-101056225D01*
X165853775Y-101171208D01*
X165988979Y-101261548D01*
X166139211Y-101323776D01*
X166298695Y-101355500D01*
X166461305Y-101355500D01*
X166620789Y-101323776D01*
X166771021Y-101261548D01*
X166906225Y-101171208D01*
X167021208Y-101056225D01*
X167111548Y-100921021D01*
X167173776Y-100770789D01*
X167205500Y-100611305D01*
X167205500Y-100448695D01*
X167203174Y-100437000D01*
X174787001Y-100437000D01*
X174787001Y-124787000D01*
X150437000Y-124787000D01*
X150437000Y-123518695D01*
X168474500Y-123518695D01*
X168474500Y-123681305D01*
X168506224Y-123840789D01*
X168568452Y-123991021D01*
X168658792Y-124126225D01*
X168773775Y-124241208D01*
X168908979Y-124331548D01*
X169059211Y-124393776D01*
X169218695Y-124425500D01*
X169381305Y-124425500D01*
X169540789Y-124393776D01*
X169691021Y-124331548D01*
X169826225Y-124241208D01*
X169941208Y-124126225D01*
X170031548Y-123991021D01*
X170093776Y-123840789D01*
X170125500Y-123681305D01*
X170125500Y-123518695D01*
X170093776Y-123359211D01*
X170031548Y-123208979D01*
X169941208Y-123073775D01*
X169826225Y-122958792D01*
X169691021Y-122868452D01*
X169540789Y-122806224D01*
X169381305Y-122774500D01*
X169218695Y-122774500D01*
X169059211Y-122806224D01*
X168908979Y-122868452D01*
X168773775Y-122958792D01*
X168658792Y-123073775D01*
X168568452Y-123208979D01*
X168506224Y-123359211D01*
X168474500Y-123518695D01*
X150437000Y-123518695D01*
X150437000Y-120418695D01*
X161924500Y-120418695D01*
X161924500Y-120581305D01*
X161956224Y-120740789D01*
X162018452Y-120891021D01*
X162108792Y-121026225D01*
X162223775Y-121141208D01*
X162358979Y-121231548D01*
X162509211Y-121293776D01*
X162668695Y-121325500D01*
X162831305Y-121325500D01*
X162990789Y-121293776D01*
X163141021Y-121231548D01*
X163276225Y-121141208D01*
X163391208Y-121026225D01*
X163481548Y-120891021D01*
X163543776Y-120740789D01*
X163575500Y-120581305D01*
X163575500Y-120418695D01*
X163543776Y-120259211D01*
X163481548Y-120108979D01*
X163391208Y-119973775D01*
X163276225Y-119858792D01*
X163141021Y-119768452D01*
X162990789Y-119706224D01*
X162831305Y-119674500D01*
X162668695Y-119674500D01*
X162509211Y-119706224D01*
X162358979Y-119768452D01*
X162223775Y-119858792D01*
X162108792Y-119973775D01*
X162018452Y-120108979D01*
X161956224Y-120259211D01*
X161924500Y-120418695D01*
X150437000Y-120418695D01*
X150437000Y-117338695D01*
X161804500Y-117338695D01*
X161804500Y-117501305D01*
X161836224Y-117660789D01*
X161898452Y-117811021D01*
X161988792Y-117946225D01*
X162103775Y-118061208D01*
X162238979Y-118151548D01*
X162389211Y-118213776D01*
X162548695Y-118245500D01*
X162711305Y-118245500D01*
X162870789Y-118213776D01*
X163021021Y-118151548D01*
X163156225Y-118061208D01*
X163271208Y-117946225D01*
X163361548Y-117811021D01*
X163423776Y-117660789D01*
X163455500Y-117501305D01*
X163455500Y-117338695D01*
X163423776Y-117179211D01*
X163361548Y-117028979D01*
X163271208Y-116893775D01*
X163156225Y-116778792D01*
X163021021Y-116688452D01*
X162870789Y-116626224D01*
X162711305Y-116594500D01*
X162548695Y-116594500D01*
X162389211Y-116626224D01*
X162238979Y-116688452D01*
X162103775Y-116778792D01*
X161988792Y-116893775D01*
X161898452Y-117028979D01*
X161836224Y-117179211D01*
X161804500Y-117338695D01*
X150437000Y-117338695D01*
X150437000Y-115431387D01*
X158251808Y-115431387D01*
X158251808Y-115593997D01*
X158283532Y-115753481D01*
X158345760Y-115903713D01*
X158436100Y-116038917D01*
X158551083Y-116153900D01*
X158686287Y-116244240D01*
X158836519Y-116306468D01*
X158996003Y-116338192D01*
X159158613Y-116338192D01*
X159318097Y-116306468D01*
X159468329Y-116244240D01*
X159603533Y-116153900D01*
X159718516Y-116038917D01*
X159808856Y-115903713D01*
X159871084Y-115753481D01*
X159902808Y-115593997D01*
X159902808Y-115431387D01*
X159871084Y-115271903D01*
X159808856Y-115121671D01*
X159718516Y-114986467D01*
X159603533Y-114871484D01*
X159468329Y-114781144D01*
X159318097Y-114718916D01*
X159158613Y-114687192D01*
X158996003Y-114687192D01*
X158836519Y-114718916D01*
X158686287Y-114781144D01*
X158551083Y-114871484D01*
X158436100Y-114986467D01*
X158345760Y-115121671D01*
X158283532Y-115271903D01*
X158251808Y-115431387D01*
X150437000Y-115431387D01*
X150437000Y-113411195D01*
X156537000Y-113411195D01*
X156537000Y-113573805D01*
X156568724Y-113733289D01*
X156630952Y-113883521D01*
X156721292Y-114018725D01*
X156836275Y-114133708D01*
X156971479Y-114224048D01*
X157121711Y-114286276D01*
X157281195Y-114318000D01*
X157443805Y-114318000D01*
X157603289Y-114286276D01*
X157753521Y-114224048D01*
X157888725Y-114133708D01*
X158003708Y-114018725D01*
X158094048Y-113883521D01*
X158156276Y-113733289D01*
X158188000Y-113573805D01*
X158188000Y-113431387D01*
X158251808Y-113431387D01*
X158251808Y-113593997D01*
X158283532Y-113753481D01*
X158345760Y-113903713D01*
X158436100Y-114038917D01*
X158551083Y-114153900D01*
X158686287Y-114244240D01*
X158836519Y-114306468D01*
X158996003Y-114338192D01*
X159158613Y-114338192D01*
X159318097Y-114306468D01*
X159468329Y-114244240D01*
X159603533Y-114153900D01*
X159718516Y-114038917D01*
X159808856Y-113903713D01*
X159871084Y-113753481D01*
X159902808Y-113593997D01*
X159902808Y-113431387D01*
X159871084Y-113271903D01*
X159808856Y-113121671D01*
X159718516Y-112986467D01*
X159603533Y-112871484D01*
X159468329Y-112781144D01*
X159318097Y-112718916D01*
X159166169Y-112688695D01*
X166714500Y-112688695D01*
X166714500Y-112851305D01*
X166746224Y-113010789D01*
X166808452Y-113161021D01*
X166898792Y-113296225D01*
X167013775Y-113411208D01*
X167148979Y-113501548D01*
X167299211Y-113563776D01*
X167458695Y-113595500D01*
X167621305Y-113595500D01*
X167780789Y-113563776D01*
X167931021Y-113501548D01*
X168066225Y-113411208D01*
X168181208Y-113296225D01*
X168271548Y-113161021D01*
X168333776Y-113010789D01*
X168365500Y-112851305D01*
X168365500Y-112688695D01*
X168333776Y-112529211D01*
X168292141Y-112428695D01*
X172804500Y-112428695D01*
X172804500Y-112591305D01*
X172836224Y-112750789D01*
X172898452Y-112901021D01*
X172988792Y-113036225D01*
X173103775Y-113151208D01*
X173238979Y-113241548D01*
X173389211Y-113303776D01*
X173548695Y-113335500D01*
X173711305Y-113335500D01*
X173870789Y-113303776D01*
X174021021Y-113241548D01*
X174156225Y-113151208D01*
X174271208Y-113036225D01*
X174361548Y-112901021D01*
X174423776Y-112750789D01*
X174455500Y-112591305D01*
X174455500Y-112428695D01*
X174423776Y-112269211D01*
X174361548Y-112118979D01*
X174271208Y-111983775D01*
X174156225Y-111868792D01*
X174021021Y-111778452D01*
X173870789Y-111716224D01*
X173711305Y-111684500D01*
X173548695Y-111684500D01*
X173389211Y-111716224D01*
X173238979Y-111778452D01*
X173103775Y-111868792D01*
X172988792Y-111983775D01*
X172898452Y-112118979D01*
X172836224Y-112269211D01*
X172804500Y-112428695D01*
X168292141Y-112428695D01*
X168271548Y-112378979D01*
X168181208Y-112243775D01*
X168066225Y-112128792D01*
X167931021Y-112038452D01*
X167780789Y-111976224D01*
X167621305Y-111944500D01*
X167458695Y-111944500D01*
X167299211Y-111976224D01*
X167148979Y-112038452D01*
X167013775Y-112128792D01*
X166898792Y-112243775D01*
X166808452Y-112378979D01*
X166746224Y-112529211D01*
X166714500Y-112688695D01*
X159166169Y-112688695D01*
X159158613Y-112687192D01*
X158996003Y-112687192D01*
X158836519Y-112718916D01*
X158686287Y-112781144D01*
X158551083Y-112871484D01*
X158436100Y-112986467D01*
X158345760Y-113121671D01*
X158283532Y-113271903D01*
X158251808Y-113431387D01*
X158188000Y-113431387D01*
X158188000Y-113411195D01*
X158156276Y-113251711D01*
X158094048Y-113101479D01*
X158003708Y-112966275D01*
X157888725Y-112851292D01*
X157753521Y-112760952D01*
X157603289Y-112698724D01*
X157443805Y-112667000D01*
X157281195Y-112667000D01*
X157121711Y-112698724D01*
X156971479Y-112760952D01*
X156836275Y-112851292D01*
X156721292Y-112966275D01*
X156630952Y-113101479D01*
X156568724Y-113251711D01*
X156537000Y-113411195D01*
X150437000Y-113411195D01*
X150437000Y-111431387D01*
X158251808Y-111431387D01*
X158251808Y-111593997D01*
X158283532Y-111753481D01*
X158345760Y-111903713D01*
X158436100Y-112038917D01*
X158551083Y-112153900D01*
X158686287Y-112244240D01*
X158836519Y-112306468D01*
X158996003Y-112338192D01*
X159158613Y-112338192D01*
X159318097Y-112306468D01*
X159468329Y-112244240D01*
X159603533Y-112153900D01*
X159718516Y-112038917D01*
X159808856Y-111903713D01*
X159871084Y-111753481D01*
X159902808Y-111593997D01*
X159902808Y-111431387D01*
X159871084Y-111271903D01*
X159808856Y-111121671D01*
X159718516Y-110986467D01*
X159603533Y-110871484D01*
X159468329Y-110781144D01*
X159318097Y-110718916D01*
X159158613Y-110687192D01*
X158996003Y-110687192D01*
X158836519Y-110718916D01*
X158686287Y-110781144D01*
X158551083Y-110871484D01*
X158436100Y-110986467D01*
X158345760Y-111121671D01*
X158283532Y-111271903D01*
X158251808Y-111431387D01*
X150437000Y-111431387D01*
X150437000Y-109431387D01*
X158251808Y-109431387D01*
X158251808Y-109593997D01*
X158283532Y-109753481D01*
X158345760Y-109903713D01*
X158436100Y-110038917D01*
X158551083Y-110153900D01*
X158686287Y-110244240D01*
X158836519Y-110306468D01*
X158996003Y-110338192D01*
X159158613Y-110338192D01*
X159318097Y-110306468D01*
X159468329Y-110244240D01*
X159603533Y-110153900D01*
X159718516Y-110038917D01*
X159808856Y-109903713D01*
X159871084Y-109753481D01*
X159902808Y-109593997D01*
X159902808Y-109431387D01*
X159900284Y-109418695D01*
X161754500Y-109418695D01*
X161754500Y-109581305D01*
X161786224Y-109740789D01*
X161848452Y-109891021D01*
X161938792Y-110026225D01*
X161971735Y-110059168D01*
X161938452Y-110108979D01*
X161876224Y-110259211D01*
X161844500Y-110418695D01*
X161844500Y-110581305D01*
X161876224Y-110740789D01*
X161938452Y-110891021D01*
X162028792Y-111026225D01*
X162143775Y-111141208D01*
X162278979Y-111231548D01*
X162429211Y-111293776D01*
X162588695Y-111325500D01*
X162751305Y-111325500D01*
X162910789Y-111293776D01*
X163061021Y-111231548D01*
X163196225Y-111141208D01*
X163311208Y-111026225D01*
X163401548Y-110891021D01*
X163463776Y-110740789D01*
X163495500Y-110581305D01*
X163495500Y-110418695D01*
X163463776Y-110259211D01*
X163438710Y-110198695D01*
X167554500Y-110198695D01*
X167554500Y-110361305D01*
X167586224Y-110520789D01*
X167648452Y-110671021D01*
X167738792Y-110806225D01*
X167853775Y-110921208D01*
X167988979Y-111011548D01*
X168139211Y-111073776D01*
X168298695Y-111105500D01*
X168461305Y-111105500D01*
X168620789Y-111073776D01*
X168771021Y-111011548D01*
X168906225Y-110921208D01*
X169021208Y-110806225D01*
X169111548Y-110671021D01*
X169173776Y-110520789D01*
X169205500Y-110361305D01*
X169205500Y-110198695D01*
X169173776Y-110039211D01*
X169111548Y-109888979D01*
X169021208Y-109753775D01*
X168906225Y-109638792D01*
X168886332Y-109625500D01*
X169021305Y-109625500D01*
X169180789Y-109593776D01*
X169331021Y-109531548D01*
X169466225Y-109441208D01*
X169581208Y-109326225D01*
X169671548Y-109191021D01*
X169733776Y-109040789D01*
X169765500Y-108881305D01*
X169765500Y-108718695D01*
X169733776Y-108559211D01*
X169671548Y-108408979D01*
X169581208Y-108273775D01*
X169466225Y-108158792D01*
X169331021Y-108068452D01*
X169180789Y-108006224D01*
X169021305Y-107974500D01*
X168858695Y-107974500D01*
X168699211Y-108006224D01*
X168548979Y-108068452D01*
X168413775Y-108158792D01*
X168298792Y-108273775D01*
X168208452Y-108408979D01*
X168146224Y-108559211D01*
X168114500Y-108718695D01*
X168114500Y-108881305D01*
X168146224Y-109040789D01*
X168208452Y-109191021D01*
X168298792Y-109326225D01*
X168413775Y-109441208D01*
X168433668Y-109454500D01*
X168298695Y-109454500D01*
X168139211Y-109486224D01*
X167988979Y-109548452D01*
X167853775Y-109638792D01*
X167738792Y-109753775D01*
X167648452Y-109888979D01*
X167586224Y-110039211D01*
X167554500Y-110198695D01*
X163438710Y-110198695D01*
X163401548Y-110108979D01*
X163311208Y-109973775D01*
X163278265Y-109940832D01*
X163311548Y-109891021D01*
X163373776Y-109740789D01*
X163405500Y-109581305D01*
X163405500Y-109418695D01*
X163373776Y-109259211D01*
X163311548Y-109108979D01*
X163221208Y-108973775D01*
X163106225Y-108858792D01*
X162971021Y-108768452D01*
X162820789Y-108706224D01*
X162661305Y-108674500D01*
X162498695Y-108674500D01*
X162339211Y-108706224D01*
X162188979Y-108768452D01*
X162053775Y-108858792D01*
X161938792Y-108973775D01*
X161848452Y-109108979D01*
X161786224Y-109259211D01*
X161754500Y-109418695D01*
X159900284Y-109418695D01*
X159871084Y-109271903D01*
X159808856Y-109121671D01*
X159718516Y-108986467D01*
X159603533Y-108871484D01*
X159468329Y-108781144D01*
X159318097Y-108718916D01*
X159158613Y-108687192D01*
X158996003Y-108687192D01*
X158836519Y-108718916D01*
X158686287Y-108781144D01*
X158551083Y-108871484D01*
X158436100Y-108986467D01*
X158345760Y-109121671D01*
X158283532Y-109271903D01*
X158251808Y-109431387D01*
X150437000Y-109431387D01*
X150437000Y-108421345D01*
X165331850Y-108421345D01*
X165331850Y-108583955D01*
X165363574Y-108743439D01*
X165425802Y-108893671D01*
X165516142Y-109028875D01*
X165631125Y-109143858D01*
X165766329Y-109234198D01*
X165916561Y-109296426D01*
X166076045Y-109328150D01*
X166238655Y-109328150D01*
X166398139Y-109296426D01*
X166548371Y-109234198D01*
X166683575Y-109143858D01*
X166798558Y-109028875D01*
X166888898Y-108893671D01*
X166951126Y-108743439D01*
X166982850Y-108583955D01*
X166982850Y-108421345D01*
X166951126Y-108261861D01*
X166888898Y-108111629D01*
X166798558Y-107976425D01*
X166683575Y-107861442D01*
X166548371Y-107771102D01*
X166398139Y-107708874D01*
X166238655Y-107677150D01*
X166076045Y-107677150D01*
X165916561Y-107708874D01*
X165766329Y-107771102D01*
X165631125Y-107861442D01*
X165516142Y-107976425D01*
X165425802Y-108111629D01*
X165363574Y-108261861D01*
X165331850Y-108421345D01*
X150437000Y-108421345D01*
X150437000Y-107091195D01*
X156737000Y-107091195D01*
X156737000Y-107253805D01*
X156768724Y-107413289D01*
X156830952Y-107563521D01*
X156921292Y-107698725D01*
X157036275Y-107813708D01*
X157171479Y-107904048D01*
X157321711Y-107966276D01*
X157481195Y-107998000D01*
X157643805Y-107998000D01*
X157803289Y-107966276D01*
X157953521Y-107904048D01*
X158088725Y-107813708D01*
X158203708Y-107698725D01*
X158256827Y-107619227D01*
X158283532Y-107753481D01*
X158345760Y-107903713D01*
X158436100Y-108038917D01*
X158551083Y-108153900D01*
X158686287Y-108244240D01*
X158836519Y-108306468D01*
X158996003Y-108338192D01*
X159158613Y-108338192D01*
X159318097Y-108306468D01*
X159468329Y-108244240D01*
X159603533Y-108153900D01*
X159718516Y-108038917D01*
X159808856Y-107903713D01*
X159871084Y-107753481D01*
X159902808Y-107593997D01*
X159902808Y-107431387D01*
X159871084Y-107271903D01*
X159808856Y-107121671D01*
X159718516Y-106986467D01*
X159603533Y-106871484D01*
X159468329Y-106781144D01*
X159318097Y-106718916D01*
X159158613Y-106687192D01*
X158996003Y-106687192D01*
X158836519Y-106718916D01*
X158686287Y-106781144D01*
X158551083Y-106871484D01*
X158436100Y-106986467D01*
X158382981Y-107065965D01*
X158356276Y-106931711D01*
X158294048Y-106781479D01*
X158203708Y-106646275D01*
X158088725Y-106531292D01*
X157953521Y-106440952D01*
X157803289Y-106378724D01*
X157643805Y-106347000D01*
X157481195Y-106347000D01*
X157321711Y-106378724D01*
X157171479Y-106440952D01*
X157036275Y-106531292D01*
X156921292Y-106646275D01*
X156830952Y-106781479D01*
X156768724Y-106931711D01*
X156737000Y-107091195D01*
X150437000Y-107091195D01*
X150437000Y-106100826D01*
X150526225Y-106041208D01*
X150641208Y-105926225D01*
X150731548Y-105791021D01*
X150793776Y-105640789D01*
X150825500Y-105481305D01*
X150825500Y-105431387D01*
X158251808Y-105431387D01*
X158251808Y-105593997D01*
X158283532Y-105753481D01*
X158345760Y-105903713D01*
X158436100Y-106038917D01*
X158551083Y-106153900D01*
X158686287Y-106244240D01*
X158836519Y-106306468D01*
X158996003Y-106338192D01*
X159158613Y-106338192D01*
X159318097Y-106306468D01*
X159468329Y-106244240D01*
X159603533Y-106153900D01*
X159718516Y-106038917D01*
X159808856Y-105903713D01*
X159871084Y-105753481D01*
X159902808Y-105593997D01*
X159902808Y-105431387D01*
X159900812Y-105421351D01*
X161971844Y-105421351D01*
X161971844Y-105583961D01*
X162003568Y-105743445D01*
X162065796Y-105893677D01*
X162143613Y-106010140D01*
X162075798Y-106111633D01*
X162013570Y-106261865D01*
X161981846Y-106421349D01*
X161981846Y-106583959D01*
X162013570Y-106743443D01*
X162075798Y-106893675D01*
X162166138Y-107028879D01*
X162281121Y-107143862D01*
X162416325Y-107234202D01*
X162566557Y-107296430D01*
X162726041Y-107328154D01*
X162888651Y-107328154D01*
X163048135Y-107296430D01*
X163140193Y-107258298D01*
X166584103Y-107258298D01*
X166584103Y-107420908D01*
X166615827Y-107580392D01*
X166678055Y-107730624D01*
X166768395Y-107865828D01*
X166883378Y-107980811D01*
X167018582Y-108071151D01*
X167168814Y-108133379D01*
X167328298Y-108165103D01*
X167490908Y-108165103D01*
X167650392Y-108133379D01*
X167800624Y-108071151D01*
X167935828Y-107980811D01*
X168050811Y-107865828D01*
X168141151Y-107730624D01*
X168203379Y-107580392D01*
X168235103Y-107420908D01*
X168235103Y-107258298D01*
X168203379Y-107098814D01*
X168141151Y-106948582D01*
X168050811Y-106813378D01*
X167935828Y-106698395D01*
X167800624Y-106608055D01*
X167650392Y-106545827D01*
X167490908Y-106514103D01*
X167328298Y-106514103D01*
X167168814Y-106545827D01*
X167018582Y-106608055D01*
X166883378Y-106698395D01*
X166768395Y-106813378D01*
X166678055Y-106948582D01*
X166615827Y-107098814D01*
X166584103Y-107258298D01*
X163140193Y-107258298D01*
X163198367Y-107234202D01*
X163333571Y-107143862D01*
X163448554Y-107028879D01*
X163538894Y-106893675D01*
X163601122Y-106743443D01*
X163632846Y-106583959D01*
X163632846Y-106421349D01*
X163601122Y-106261865D01*
X163538894Y-106111633D01*
X163461077Y-105995170D01*
X163528892Y-105893677D01*
X163591120Y-105743445D01*
X163622844Y-105583961D01*
X163622844Y-105421351D01*
X163591120Y-105261867D01*
X163528892Y-105111635D01*
X163438552Y-104976431D01*
X163323569Y-104861448D01*
X163188365Y-104771108D01*
X163038133Y-104708880D01*
X162878649Y-104677156D01*
X162716039Y-104677156D01*
X162556555Y-104708880D01*
X162406323Y-104771108D01*
X162271119Y-104861448D01*
X162156136Y-104976431D01*
X162065796Y-105111635D01*
X162003568Y-105261867D01*
X161971844Y-105421351D01*
X159900812Y-105421351D01*
X159871084Y-105271903D01*
X159808856Y-105121671D01*
X159718516Y-104986467D01*
X159603533Y-104871484D01*
X159468329Y-104781144D01*
X159318097Y-104718916D01*
X159158613Y-104687192D01*
X158996003Y-104687192D01*
X158836519Y-104718916D01*
X158686287Y-104781144D01*
X158551083Y-104871484D01*
X158436100Y-104986467D01*
X158345760Y-105121671D01*
X158283532Y-105271903D01*
X158251808Y-105431387D01*
X150825500Y-105431387D01*
X150825500Y-105318695D01*
X150793776Y-105159211D01*
X150731548Y-105008979D01*
X150641208Y-104873775D01*
X150526225Y-104758792D01*
X150437000Y-104699174D01*
X150437000Y-103431387D01*
X158251808Y-103431387D01*
X158251808Y-103593997D01*
X158283532Y-103753481D01*
X158345760Y-103903713D01*
X158436100Y-104038917D01*
X158551083Y-104153900D01*
X158686287Y-104244240D01*
X158836519Y-104306468D01*
X158996003Y-104338192D01*
X159158613Y-104338192D01*
X159318097Y-104306468D01*
X159468329Y-104244240D01*
X159603533Y-104153900D01*
X159718516Y-104038917D01*
X159808856Y-103903713D01*
X159871084Y-103753481D01*
X159902808Y-103593997D01*
X159902808Y-103438695D01*
X165724500Y-103438695D01*
X165724500Y-103601305D01*
X165756224Y-103760789D01*
X165818452Y-103911021D01*
X165908792Y-104046225D01*
X166023775Y-104161208D01*
X166158979Y-104251548D01*
X166309211Y-104313776D01*
X166468695Y-104345500D01*
X166631305Y-104345500D01*
X166790789Y-104313776D01*
X166941021Y-104251548D01*
X167076225Y-104161208D01*
X167191208Y-104046225D01*
X167281548Y-103911021D01*
X167343776Y-103760789D01*
X167375500Y-103601305D01*
X167375500Y-103438695D01*
X167343776Y-103279211D01*
X167281548Y-103128979D01*
X167191208Y-102993775D01*
X167076225Y-102878792D01*
X166941021Y-102788452D01*
X166790789Y-102726224D01*
X166631305Y-102694500D01*
X166468695Y-102694500D01*
X166309211Y-102726224D01*
X166158979Y-102788452D01*
X166023775Y-102878792D01*
X165908792Y-102993775D01*
X165818452Y-103128979D01*
X165756224Y-103279211D01*
X165724500Y-103438695D01*
X159902808Y-103438695D01*
X159902808Y-103431387D01*
X159871084Y-103271903D01*
X159808856Y-103121671D01*
X159718516Y-102986467D01*
X159603533Y-102871484D01*
X159468329Y-102781144D01*
X159318097Y-102718916D01*
X159158613Y-102687192D01*
X158996003Y-102687192D01*
X158836519Y-102718916D01*
X158686287Y-102781144D01*
X158551083Y-102871484D01*
X158436100Y-102986467D01*
X158345760Y-103121671D01*
X158283532Y-103271903D01*
X158251808Y-103431387D01*
X150437000Y-103431387D01*
X150437000Y-101431387D01*
X158251808Y-101431387D01*
X158251808Y-101593997D01*
X158283532Y-101753481D01*
X158345760Y-101903713D01*
X158436100Y-102038917D01*
X158551083Y-102153900D01*
X158686287Y-102244240D01*
X158836519Y-102306468D01*
X158996003Y-102338192D01*
X159158613Y-102338192D01*
X159318097Y-102306468D01*
X159468329Y-102244240D01*
X159603533Y-102153900D01*
X159718516Y-102038917D01*
X159808856Y-101903713D01*
X159871084Y-101753481D01*
X159902808Y-101593997D01*
X159902808Y-101431387D01*
X159900814Y-101421359D01*
X161937164Y-101421359D01*
X161937164Y-101583969D01*
X161968888Y-101743453D01*
X162031116Y-101893685D01*
X162121456Y-102028889D01*
X162154397Y-102061830D01*
X162121114Y-102111641D01*
X162058886Y-102261873D01*
X162027162Y-102421357D01*
X162027162Y-102583967D01*
X162058886Y-102743451D01*
X162121114Y-102893683D01*
X162211454Y-103028887D01*
X162326437Y-103143870D01*
X162461641Y-103234210D01*
X162611873Y-103296438D01*
X162771357Y-103328162D01*
X162933967Y-103328162D01*
X163093451Y-103296438D01*
X163243683Y-103234210D01*
X163378887Y-103143870D01*
X163493870Y-103028887D01*
X163584210Y-102893683D01*
X163646438Y-102743451D01*
X163678162Y-102583967D01*
X163678162Y-102421357D01*
X163646438Y-102261873D01*
X163584210Y-102111641D01*
X163493870Y-101976437D01*
X163460929Y-101943496D01*
X163494212Y-101893685D01*
X163556440Y-101743453D01*
X163588164Y-101583969D01*
X163588164Y-101421359D01*
X163556440Y-101261875D01*
X163494212Y-101111643D01*
X163403872Y-100976439D01*
X163288889Y-100861456D01*
X163153685Y-100771116D01*
X163003453Y-100708888D01*
X162843969Y-100677164D01*
X162681359Y-100677164D01*
X162521875Y-100708888D01*
X162371643Y-100771116D01*
X162236439Y-100861456D01*
X162121456Y-100976439D01*
X162031116Y-101111643D01*
X161968888Y-101261875D01*
X161937164Y-101421359D01*
X159900814Y-101421359D01*
X159871084Y-101271903D01*
X159808856Y-101121671D01*
X159718516Y-100986467D01*
X159603533Y-100871484D01*
X159468329Y-100781144D01*
X159318097Y-100718916D01*
X159158613Y-100687192D01*
X158996003Y-100687192D01*
X158836519Y-100718916D01*
X158686287Y-100781144D01*
X158551083Y-100871484D01*
X158436100Y-100986467D01*
X158345760Y-101121671D01*
X158283532Y-101271903D01*
X158251808Y-101431387D01*
X150437000Y-101431387D01*
X150437000Y-100437000D01*
X152159174Y-100437000D01*
X152218792Y-100526225D01*
%TA.AperFunction,Conductor*%
D12*
G36*
X152218792Y-100526225D02*
G01*
X152333775Y-100641208D01*
X152468979Y-100731548D01*
X152619211Y-100793776D01*
X152778695Y-100825500D01*
X152941305Y-100825500D01*
X153100789Y-100793776D01*
X153251021Y-100731548D01*
X153386225Y-100641208D01*
X153501208Y-100526225D01*
X153560826Y-100437000D01*
X165556826Y-100437000D01*
X165554500Y-100448695D01*
X165554500Y-100611305D01*
X165586224Y-100770789D01*
X165648452Y-100921021D01*
X165738792Y-101056225D01*
X165853775Y-101171208D01*
X165988979Y-101261548D01*
X166139211Y-101323776D01*
X166298695Y-101355500D01*
X166461305Y-101355500D01*
X166620789Y-101323776D01*
X166771021Y-101261548D01*
X166906225Y-101171208D01*
X167021208Y-101056225D01*
X167111548Y-100921021D01*
X167173776Y-100770789D01*
X167205500Y-100611305D01*
X167205500Y-100448695D01*
X167203174Y-100437000D01*
X174787001Y-100437000D01*
X174787001Y-124787000D01*
X150437000Y-124787000D01*
X150437000Y-123518695D01*
X168474500Y-123518695D01*
X168474500Y-123681305D01*
X168506224Y-123840789D01*
X168568452Y-123991021D01*
X168658792Y-124126225D01*
X168773775Y-124241208D01*
X168908979Y-124331548D01*
X169059211Y-124393776D01*
X169218695Y-124425500D01*
X169381305Y-124425500D01*
X169540789Y-124393776D01*
X169691021Y-124331548D01*
X169826225Y-124241208D01*
X169941208Y-124126225D01*
X170031548Y-123991021D01*
X170093776Y-123840789D01*
X170125500Y-123681305D01*
X170125500Y-123518695D01*
X170093776Y-123359211D01*
X170031548Y-123208979D01*
X169941208Y-123073775D01*
X169826225Y-122958792D01*
X169691021Y-122868452D01*
X169540789Y-122806224D01*
X169381305Y-122774500D01*
X169218695Y-122774500D01*
X169059211Y-122806224D01*
X168908979Y-122868452D01*
X168773775Y-122958792D01*
X168658792Y-123073775D01*
X168568452Y-123208979D01*
X168506224Y-123359211D01*
X168474500Y-123518695D01*
X150437000Y-123518695D01*
X150437000Y-120418695D01*
X161924500Y-120418695D01*
X161924500Y-120581305D01*
X161956224Y-120740789D01*
X162018452Y-120891021D01*
X162108792Y-121026225D01*
X162223775Y-121141208D01*
X162358979Y-121231548D01*
X162509211Y-121293776D01*
X162668695Y-121325500D01*
X162831305Y-121325500D01*
X162990789Y-121293776D01*
X163141021Y-121231548D01*
X163276225Y-121141208D01*
X163391208Y-121026225D01*
X163481548Y-120891021D01*
X163543776Y-120740789D01*
X163575500Y-120581305D01*
X163575500Y-120418695D01*
X163543776Y-120259211D01*
X163481548Y-120108979D01*
X163391208Y-119973775D01*
X163276225Y-119858792D01*
X163141021Y-119768452D01*
X162990789Y-119706224D01*
X162831305Y-119674500D01*
X162668695Y-119674500D01*
X162509211Y-119706224D01*
X162358979Y-119768452D01*
X162223775Y-119858792D01*
X162108792Y-119973775D01*
X162018452Y-120108979D01*
X161956224Y-120259211D01*
X161924500Y-120418695D01*
X150437000Y-120418695D01*
X150437000Y-117338695D01*
X161804500Y-117338695D01*
X161804500Y-117501305D01*
X161836224Y-117660789D01*
X161898452Y-117811021D01*
X161988792Y-117946225D01*
X162103775Y-118061208D01*
X162238979Y-118151548D01*
X162389211Y-118213776D01*
X162548695Y-118245500D01*
X162711305Y-118245500D01*
X162870789Y-118213776D01*
X163021021Y-118151548D01*
X163156225Y-118061208D01*
X163271208Y-117946225D01*
X163361548Y-117811021D01*
X163423776Y-117660789D01*
X163455500Y-117501305D01*
X163455500Y-117338695D01*
X163423776Y-117179211D01*
X163361548Y-117028979D01*
X163271208Y-116893775D01*
X163156225Y-116778792D01*
X163021021Y-116688452D01*
X162870789Y-116626224D01*
X162711305Y-116594500D01*
X162548695Y-116594500D01*
X162389211Y-116626224D01*
X162238979Y-116688452D01*
X162103775Y-116778792D01*
X161988792Y-116893775D01*
X161898452Y-117028979D01*
X161836224Y-117179211D01*
X161804500Y-117338695D01*
X150437000Y-117338695D01*
X150437000Y-115431387D01*
X158251808Y-115431387D01*
X158251808Y-115593997D01*
X158283532Y-115753481D01*
X158345760Y-115903713D01*
X158436100Y-116038917D01*
X158551083Y-116153900D01*
X158686287Y-116244240D01*
X158836519Y-116306468D01*
X158996003Y-116338192D01*
X159158613Y-116338192D01*
X159318097Y-116306468D01*
X159468329Y-116244240D01*
X159603533Y-116153900D01*
X159718516Y-116038917D01*
X159808856Y-115903713D01*
X159871084Y-115753481D01*
X159902808Y-115593997D01*
X159902808Y-115431387D01*
X159871084Y-115271903D01*
X159808856Y-115121671D01*
X159718516Y-114986467D01*
X159603533Y-114871484D01*
X159468329Y-114781144D01*
X159318097Y-114718916D01*
X159158613Y-114687192D01*
X158996003Y-114687192D01*
X158836519Y-114718916D01*
X158686287Y-114781144D01*
X158551083Y-114871484D01*
X158436100Y-114986467D01*
X158345760Y-115121671D01*
X158283532Y-115271903D01*
X158251808Y-115431387D01*
X150437000Y-115431387D01*
X150437000Y-113411195D01*
X156537000Y-113411195D01*
X156537000Y-113573805D01*
X156568724Y-113733289D01*
X156630952Y-113883521D01*
X156721292Y-114018725D01*
X156836275Y-114133708D01*
X156971479Y-114224048D01*
X157121711Y-114286276D01*
X157281195Y-114318000D01*
X157443805Y-114318000D01*
X157603289Y-114286276D01*
X157753521Y-114224048D01*
X157888725Y-114133708D01*
X158003708Y-114018725D01*
X158094048Y-113883521D01*
X158156276Y-113733289D01*
X158188000Y-113573805D01*
X158188000Y-113431387D01*
X158251808Y-113431387D01*
X158251808Y-113593997D01*
X158283532Y-113753481D01*
X158345760Y-113903713D01*
X158436100Y-114038917D01*
X158551083Y-114153900D01*
X158686287Y-114244240D01*
X158836519Y-114306468D01*
X158996003Y-114338192D01*
X159158613Y-114338192D01*
X159318097Y-114306468D01*
X159468329Y-114244240D01*
X159603533Y-114153900D01*
X159718516Y-114038917D01*
X159808856Y-113903713D01*
X159871084Y-113753481D01*
X159902808Y-113593997D01*
X159902808Y-113431387D01*
X159871084Y-113271903D01*
X159808856Y-113121671D01*
X159718516Y-112986467D01*
X159603533Y-112871484D01*
X159468329Y-112781144D01*
X159318097Y-112718916D01*
X159166169Y-112688695D01*
X166714500Y-112688695D01*
X166714500Y-112851305D01*
X166746224Y-113010789D01*
X166808452Y-113161021D01*
X166898792Y-113296225D01*
X167013775Y-113411208D01*
X167148979Y-113501548D01*
X167299211Y-113563776D01*
X167458695Y-113595500D01*
X167621305Y-113595500D01*
X167780789Y-113563776D01*
X167931021Y-113501548D01*
X168066225Y-113411208D01*
X168181208Y-113296225D01*
X168271548Y-113161021D01*
X168333776Y-113010789D01*
X168365500Y-112851305D01*
X168365500Y-112688695D01*
X168333776Y-112529211D01*
X168292141Y-112428695D01*
X172804500Y-112428695D01*
X172804500Y-112591305D01*
X172836224Y-112750789D01*
X172898452Y-112901021D01*
X172988792Y-113036225D01*
X173103775Y-113151208D01*
X173238979Y-113241548D01*
X173389211Y-113303776D01*
X173548695Y-113335500D01*
X173711305Y-113335500D01*
X173870789Y-113303776D01*
X174021021Y-113241548D01*
X174156225Y-113151208D01*
X174271208Y-113036225D01*
X174361548Y-112901021D01*
X174423776Y-112750789D01*
X174455500Y-112591305D01*
X174455500Y-112428695D01*
X174423776Y-112269211D01*
X174361548Y-112118979D01*
X174271208Y-111983775D01*
X174156225Y-111868792D01*
X174021021Y-111778452D01*
X173870789Y-111716224D01*
X173711305Y-111684500D01*
X173548695Y-111684500D01*
X173389211Y-111716224D01*
X173238979Y-111778452D01*
X173103775Y-111868792D01*
X172988792Y-111983775D01*
X172898452Y-112118979D01*
X172836224Y-112269211D01*
X172804500Y-112428695D01*
X168292141Y-112428695D01*
X168271548Y-112378979D01*
X168181208Y-112243775D01*
X168066225Y-112128792D01*
X167931021Y-112038452D01*
X167780789Y-111976224D01*
X167621305Y-111944500D01*
X167458695Y-111944500D01*
X167299211Y-111976224D01*
X167148979Y-112038452D01*
X167013775Y-112128792D01*
X166898792Y-112243775D01*
X166808452Y-112378979D01*
X166746224Y-112529211D01*
X166714500Y-112688695D01*
X159166169Y-112688695D01*
X159158613Y-112687192D01*
X158996003Y-112687192D01*
X158836519Y-112718916D01*
X158686287Y-112781144D01*
X158551083Y-112871484D01*
X158436100Y-112986467D01*
X158345760Y-113121671D01*
X158283532Y-113271903D01*
X158251808Y-113431387D01*
X158188000Y-113431387D01*
X158188000Y-113411195D01*
X158156276Y-113251711D01*
X158094048Y-113101479D01*
X158003708Y-112966275D01*
X157888725Y-112851292D01*
X157753521Y-112760952D01*
X157603289Y-112698724D01*
X157443805Y-112667000D01*
X157281195Y-112667000D01*
X157121711Y-112698724D01*
X156971479Y-112760952D01*
X156836275Y-112851292D01*
X156721292Y-112966275D01*
X156630952Y-113101479D01*
X156568724Y-113251711D01*
X156537000Y-113411195D01*
X150437000Y-113411195D01*
X150437000Y-111431387D01*
X158251808Y-111431387D01*
X158251808Y-111593997D01*
X158283532Y-111753481D01*
X158345760Y-111903713D01*
X158436100Y-112038917D01*
X158551083Y-112153900D01*
X158686287Y-112244240D01*
X158836519Y-112306468D01*
X158996003Y-112338192D01*
X159158613Y-112338192D01*
X159318097Y-112306468D01*
X159468329Y-112244240D01*
X159603533Y-112153900D01*
X159718516Y-112038917D01*
X159808856Y-111903713D01*
X159871084Y-111753481D01*
X159902808Y-111593997D01*
X159902808Y-111431387D01*
X159871084Y-111271903D01*
X159808856Y-111121671D01*
X159718516Y-110986467D01*
X159603533Y-110871484D01*
X159468329Y-110781144D01*
X159318097Y-110718916D01*
X159158613Y-110687192D01*
X158996003Y-110687192D01*
X158836519Y-110718916D01*
X158686287Y-110781144D01*
X158551083Y-110871484D01*
X158436100Y-110986467D01*
X158345760Y-111121671D01*
X158283532Y-111271903D01*
X158251808Y-111431387D01*
X150437000Y-111431387D01*
X150437000Y-109431387D01*
X158251808Y-109431387D01*
X158251808Y-109593997D01*
X158283532Y-109753481D01*
X158345760Y-109903713D01*
X158436100Y-110038917D01*
X158551083Y-110153900D01*
X158686287Y-110244240D01*
X158836519Y-110306468D01*
X158996003Y-110338192D01*
X159158613Y-110338192D01*
X159318097Y-110306468D01*
X159468329Y-110244240D01*
X159603533Y-110153900D01*
X159718516Y-110038917D01*
X159808856Y-109903713D01*
X159871084Y-109753481D01*
X159902808Y-109593997D01*
X159902808Y-109431387D01*
X159900284Y-109418695D01*
X161754500Y-109418695D01*
X161754500Y-109581305D01*
X161786224Y-109740789D01*
X161848452Y-109891021D01*
X161938792Y-110026225D01*
X161971735Y-110059168D01*
X161938452Y-110108979D01*
X161876224Y-110259211D01*
X161844500Y-110418695D01*
X161844500Y-110581305D01*
X161876224Y-110740789D01*
X161938452Y-110891021D01*
X162028792Y-111026225D01*
X162143775Y-111141208D01*
X162278979Y-111231548D01*
X162429211Y-111293776D01*
X162588695Y-111325500D01*
X162751305Y-111325500D01*
X162910789Y-111293776D01*
X163061021Y-111231548D01*
X163196225Y-111141208D01*
X163311208Y-111026225D01*
X163401548Y-110891021D01*
X163463776Y-110740789D01*
X163495500Y-110581305D01*
X163495500Y-110418695D01*
X163463776Y-110259211D01*
X163438710Y-110198695D01*
X167554500Y-110198695D01*
X167554500Y-110361305D01*
X167586224Y-110520789D01*
X167648452Y-110671021D01*
X167738792Y-110806225D01*
X167853775Y-110921208D01*
X167988979Y-111011548D01*
X168139211Y-111073776D01*
X168298695Y-111105500D01*
X168461305Y-111105500D01*
X168620789Y-111073776D01*
X168771021Y-111011548D01*
X168906225Y-110921208D01*
X169021208Y-110806225D01*
X169111548Y-110671021D01*
X169173776Y-110520789D01*
X169205500Y-110361305D01*
X169205500Y-110198695D01*
X169173776Y-110039211D01*
X169111548Y-109888979D01*
X169021208Y-109753775D01*
X168906225Y-109638792D01*
X168886332Y-109625500D01*
X169021305Y-109625500D01*
X169180789Y-109593776D01*
X169331021Y-109531548D01*
X169466225Y-109441208D01*
X169581208Y-109326225D01*
X169671548Y-109191021D01*
X169733776Y-109040789D01*
X169765500Y-108881305D01*
X169765500Y-108718695D01*
X169733776Y-108559211D01*
X169671548Y-108408979D01*
X169581208Y-108273775D01*
X169466225Y-108158792D01*
X169331021Y-108068452D01*
X169180789Y-108006224D01*
X169021305Y-107974500D01*
X168858695Y-107974500D01*
X168699211Y-108006224D01*
X168548979Y-108068452D01*
X168413775Y-108158792D01*
X168298792Y-108273775D01*
X168208452Y-108408979D01*
X168146224Y-108559211D01*
X168114500Y-108718695D01*
X168114500Y-108881305D01*
X168146224Y-109040789D01*
X168208452Y-109191021D01*
X168298792Y-109326225D01*
X168413775Y-109441208D01*
X168433668Y-109454500D01*
X168298695Y-109454500D01*
X168139211Y-109486224D01*
X167988979Y-109548452D01*
X167853775Y-109638792D01*
X167738792Y-109753775D01*
X167648452Y-109888979D01*
X167586224Y-110039211D01*
X167554500Y-110198695D01*
X163438710Y-110198695D01*
X163401548Y-110108979D01*
X163311208Y-109973775D01*
X163278265Y-109940832D01*
X163311548Y-109891021D01*
X163373776Y-109740789D01*
X163405500Y-109581305D01*
X163405500Y-109418695D01*
X163373776Y-109259211D01*
X163311548Y-109108979D01*
X163221208Y-108973775D01*
X163106225Y-108858792D01*
X162971021Y-108768452D01*
X162820789Y-108706224D01*
X162661305Y-108674500D01*
X162498695Y-108674500D01*
X162339211Y-108706224D01*
X162188979Y-108768452D01*
X162053775Y-108858792D01*
X161938792Y-108973775D01*
X161848452Y-109108979D01*
X161786224Y-109259211D01*
X161754500Y-109418695D01*
X159900284Y-109418695D01*
X159871084Y-109271903D01*
X159808856Y-109121671D01*
X159718516Y-108986467D01*
X159603533Y-108871484D01*
X159468329Y-108781144D01*
X159318097Y-108718916D01*
X159158613Y-108687192D01*
X158996003Y-108687192D01*
X158836519Y-108718916D01*
X158686287Y-108781144D01*
X158551083Y-108871484D01*
X158436100Y-108986467D01*
X158345760Y-109121671D01*
X158283532Y-109271903D01*
X158251808Y-109431387D01*
X150437000Y-109431387D01*
X150437000Y-108421345D01*
X165331850Y-108421345D01*
X165331850Y-108583955D01*
X165363574Y-108743439D01*
X165425802Y-108893671D01*
X165516142Y-109028875D01*
X165631125Y-109143858D01*
X165766329Y-109234198D01*
X165916561Y-109296426D01*
X166076045Y-109328150D01*
X166238655Y-109328150D01*
X166398139Y-109296426D01*
X166548371Y-109234198D01*
X166683575Y-109143858D01*
X166798558Y-109028875D01*
X166888898Y-108893671D01*
X166951126Y-108743439D01*
X166982850Y-108583955D01*
X166982850Y-108421345D01*
X166951126Y-108261861D01*
X166888898Y-108111629D01*
X166798558Y-107976425D01*
X166683575Y-107861442D01*
X166548371Y-107771102D01*
X166398139Y-107708874D01*
X166238655Y-107677150D01*
X166076045Y-107677150D01*
X165916561Y-107708874D01*
X165766329Y-107771102D01*
X165631125Y-107861442D01*
X165516142Y-107976425D01*
X165425802Y-108111629D01*
X165363574Y-108261861D01*
X165331850Y-108421345D01*
X150437000Y-108421345D01*
X150437000Y-107091195D01*
X156737000Y-107091195D01*
X156737000Y-107253805D01*
X156768724Y-107413289D01*
X156830952Y-107563521D01*
X156921292Y-107698725D01*
X157036275Y-107813708D01*
X157171479Y-107904048D01*
X157321711Y-107966276D01*
X157481195Y-107998000D01*
X157643805Y-107998000D01*
X157803289Y-107966276D01*
X157953521Y-107904048D01*
X158088725Y-107813708D01*
X158203708Y-107698725D01*
X158256827Y-107619227D01*
X158283532Y-107753481D01*
X158345760Y-107903713D01*
X158436100Y-108038917D01*
X158551083Y-108153900D01*
X158686287Y-108244240D01*
X158836519Y-108306468D01*
X158996003Y-108338192D01*
X159158613Y-108338192D01*
X159318097Y-108306468D01*
X159468329Y-108244240D01*
X159603533Y-108153900D01*
X159718516Y-108038917D01*
X159808856Y-107903713D01*
X159871084Y-107753481D01*
X159902808Y-107593997D01*
X159902808Y-107431387D01*
X159871084Y-107271903D01*
X159808856Y-107121671D01*
X159718516Y-106986467D01*
X159603533Y-106871484D01*
X159468329Y-106781144D01*
X159318097Y-106718916D01*
X159158613Y-106687192D01*
X158996003Y-106687192D01*
X158836519Y-106718916D01*
X158686287Y-106781144D01*
X158551083Y-106871484D01*
X158436100Y-106986467D01*
X158382981Y-107065965D01*
X158356276Y-106931711D01*
X158294048Y-106781479D01*
X158203708Y-106646275D01*
X158088725Y-106531292D01*
X157953521Y-106440952D01*
X157803289Y-106378724D01*
X157643805Y-106347000D01*
X157481195Y-106347000D01*
X157321711Y-106378724D01*
X157171479Y-106440952D01*
X157036275Y-106531292D01*
X156921292Y-106646275D01*
X156830952Y-106781479D01*
X156768724Y-106931711D01*
X156737000Y-107091195D01*
X150437000Y-107091195D01*
X150437000Y-106100826D01*
X150526225Y-106041208D01*
X150641208Y-105926225D01*
X150731548Y-105791021D01*
X150793776Y-105640789D01*
X150825500Y-105481305D01*
X150825500Y-105431387D01*
X158251808Y-105431387D01*
X158251808Y-105593997D01*
X158283532Y-105753481D01*
X158345760Y-105903713D01*
X158436100Y-106038917D01*
X158551083Y-106153900D01*
X158686287Y-106244240D01*
X158836519Y-106306468D01*
X158996003Y-106338192D01*
X159158613Y-106338192D01*
X159318097Y-106306468D01*
X159468329Y-106244240D01*
X159603533Y-106153900D01*
X159718516Y-106038917D01*
X159808856Y-105903713D01*
X159871084Y-105753481D01*
X159902808Y-105593997D01*
X159902808Y-105431387D01*
X159900812Y-105421351D01*
X161971844Y-105421351D01*
X161971844Y-105583961D01*
X162003568Y-105743445D01*
X162065796Y-105893677D01*
X162143613Y-106010140D01*
X162075798Y-106111633D01*
X162013570Y-106261865D01*
X161981846Y-106421349D01*
X161981846Y-106583959D01*
X162013570Y-106743443D01*
X162075798Y-106893675D01*
X162166138Y-107028879D01*
X162281121Y-107143862D01*
X162416325Y-107234202D01*
X162566557Y-107296430D01*
X162726041Y-107328154D01*
X162888651Y-107328154D01*
X163048135Y-107296430D01*
X163140193Y-107258298D01*
X166584103Y-107258298D01*
X166584103Y-107420908D01*
X166615827Y-107580392D01*
X166678055Y-107730624D01*
X166768395Y-107865828D01*
X166883378Y-107980811D01*
X167018582Y-108071151D01*
X167168814Y-108133379D01*
X167328298Y-108165103D01*
X167490908Y-108165103D01*
X167650392Y-108133379D01*
X167800624Y-108071151D01*
X167935828Y-107980811D01*
X168050811Y-107865828D01*
X168141151Y-107730624D01*
X168203379Y-107580392D01*
X168235103Y-107420908D01*
X168235103Y-107258298D01*
X168203379Y-107098814D01*
X168141151Y-106948582D01*
X168050811Y-106813378D01*
X167935828Y-106698395D01*
X167800624Y-106608055D01*
X167650392Y-106545827D01*
X167490908Y-106514103D01*
X167328298Y-106514103D01*
X167168814Y-106545827D01*
X167018582Y-106608055D01*
X166883378Y-106698395D01*
X166768395Y-106813378D01*
X166678055Y-106948582D01*
X166615827Y-107098814D01*
X166584103Y-107258298D01*
X163140193Y-107258298D01*
X163198367Y-107234202D01*
X163333571Y-107143862D01*
X163448554Y-107028879D01*
X163538894Y-106893675D01*
X163601122Y-106743443D01*
X163632846Y-106583959D01*
X163632846Y-106421349D01*
X163601122Y-106261865D01*
X163538894Y-106111633D01*
X163461077Y-105995170D01*
X163528892Y-105893677D01*
X163591120Y-105743445D01*
X163622844Y-105583961D01*
X163622844Y-105421351D01*
X163591120Y-105261867D01*
X163528892Y-105111635D01*
X163438552Y-104976431D01*
X163323569Y-104861448D01*
X163188365Y-104771108D01*
X163038133Y-104708880D01*
X162878649Y-104677156D01*
X162716039Y-104677156D01*
X162556555Y-104708880D01*
X162406323Y-104771108D01*
X162271119Y-104861448D01*
X162156136Y-104976431D01*
X162065796Y-105111635D01*
X162003568Y-105261867D01*
X161971844Y-105421351D01*
X159900812Y-105421351D01*
X159871084Y-105271903D01*
X159808856Y-105121671D01*
X159718516Y-104986467D01*
X159603533Y-104871484D01*
X159468329Y-104781144D01*
X159318097Y-104718916D01*
X159158613Y-104687192D01*
X158996003Y-104687192D01*
X158836519Y-104718916D01*
X158686287Y-104781144D01*
X158551083Y-104871484D01*
X158436100Y-104986467D01*
X158345760Y-105121671D01*
X158283532Y-105271903D01*
X158251808Y-105431387D01*
X150825500Y-105431387D01*
X150825500Y-105318695D01*
X150793776Y-105159211D01*
X150731548Y-105008979D01*
X150641208Y-104873775D01*
X150526225Y-104758792D01*
X150437000Y-104699174D01*
X150437000Y-103431387D01*
X158251808Y-103431387D01*
X158251808Y-103593997D01*
X158283532Y-103753481D01*
X158345760Y-103903713D01*
X158436100Y-104038917D01*
X158551083Y-104153900D01*
X158686287Y-104244240D01*
X158836519Y-104306468D01*
X158996003Y-104338192D01*
X159158613Y-104338192D01*
X159318097Y-104306468D01*
X159468329Y-104244240D01*
X159603533Y-104153900D01*
X159718516Y-104038917D01*
X159808856Y-103903713D01*
X159871084Y-103753481D01*
X159902808Y-103593997D01*
X159902808Y-103438695D01*
X165724500Y-103438695D01*
X165724500Y-103601305D01*
X165756224Y-103760789D01*
X165818452Y-103911021D01*
X165908792Y-104046225D01*
X166023775Y-104161208D01*
X166158979Y-104251548D01*
X166309211Y-104313776D01*
X166468695Y-104345500D01*
X166631305Y-104345500D01*
X166790789Y-104313776D01*
X166941021Y-104251548D01*
X167076225Y-104161208D01*
X167191208Y-104046225D01*
X167281548Y-103911021D01*
X167343776Y-103760789D01*
X167375500Y-103601305D01*
X167375500Y-103438695D01*
X167343776Y-103279211D01*
X167281548Y-103128979D01*
X167191208Y-102993775D01*
X167076225Y-102878792D01*
X166941021Y-102788452D01*
X166790789Y-102726224D01*
X166631305Y-102694500D01*
X166468695Y-102694500D01*
X166309211Y-102726224D01*
X166158979Y-102788452D01*
X166023775Y-102878792D01*
X165908792Y-102993775D01*
X165818452Y-103128979D01*
X165756224Y-103279211D01*
X165724500Y-103438695D01*
X159902808Y-103438695D01*
X159902808Y-103431387D01*
X159871084Y-103271903D01*
X159808856Y-103121671D01*
X159718516Y-102986467D01*
X159603533Y-102871484D01*
X159468329Y-102781144D01*
X159318097Y-102718916D01*
X159158613Y-102687192D01*
X158996003Y-102687192D01*
X158836519Y-102718916D01*
X158686287Y-102781144D01*
X158551083Y-102871484D01*
X158436100Y-102986467D01*
X158345760Y-103121671D01*
X158283532Y-103271903D01*
X158251808Y-103431387D01*
X150437000Y-103431387D01*
X150437000Y-101431387D01*
X158251808Y-101431387D01*
X158251808Y-101593997D01*
X158283532Y-101753481D01*
X158345760Y-101903713D01*
X158436100Y-102038917D01*
X158551083Y-102153900D01*
X158686287Y-102244240D01*
X158836519Y-102306468D01*
X158996003Y-102338192D01*
X159158613Y-102338192D01*
X159318097Y-102306468D01*
X159468329Y-102244240D01*
X159603533Y-102153900D01*
X159718516Y-102038917D01*
X159808856Y-101903713D01*
X159871084Y-101753481D01*
X159902808Y-101593997D01*
X159902808Y-101431387D01*
X159900814Y-101421359D01*
X161937164Y-101421359D01*
X161937164Y-101583969D01*
X161968888Y-101743453D01*
X162031116Y-101893685D01*
X162121456Y-102028889D01*
X162154397Y-102061830D01*
X162121114Y-102111641D01*
X162058886Y-102261873D01*
X162027162Y-102421357D01*
X162027162Y-102583967D01*
X162058886Y-102743451D01*
X162121114Y-102893683D01*
X162211454Y-103028887D01*
X162326437Y-103143870D01*
X162461641Y-103234210D01*
X162611873Y-103296438D01*
X162771357Y-103328162D01*
X162933967Y-103328162D01*
X163093451Y-103296438D01*
X163243683Y-103234210D01*
X163378887Y-103143870D01*
X163493870Y-103028887D01*
X163584210Y-102893683D01*
X163646438Y-102743451D01*
X163678162Y-102583967D01*
X163678162Y-102421357D01*
X163646438Y-102261873D01*
X163584210Y-102111641D01*
X163493870Y-101976437D01*
X163460929Y-101943496D01*
X163494212Y-101893685D01*
X163556440Y-101743453D01*
X163588164Y-101583969D01*
X163588164Y-101421359D01*
X163556440Y-101261875D01*
X163494212Y-101111643D01*
X163403872Y-100976439D01*
X163288889Y-100861456D01*
X163153685Y-100771116D01*
X163003453Y-100708888D01*
X162843969Y-100677164D01*
X162681359Y-100677164D01*
X162521875Y-100708888D01*
X162371643Y-100771116D01*
X162236439Y-100861456D01*
X162121456Y-100976439D01*
X162031116Y-101111643D01*
X161968888Y-101261875D01*
X161937164Y-101421359D01*
X159900814Y-101421359D01*
X159871084Y-101271903D01*
X159808856Y-101121671D01*
X159718516Y-100986467D01*
X159603533Y-100871484D01*
X159468329Y-100781144D01*
X159318097Y-100718916D01*
X159158613Y-100687192D01*
X158996003Y-100687192D01*
X158836519Y-100718916D01*
X158686287Y-100781144D01*
X158551083Y-100871484D01*
X158436100Y-100986467D01*
X158345760Y-101121671D01*
X158283532Y-101271903D01*
X158251808Y-101431387D01*
X150437000Y-101431387D01*
X150437000Y-100437000D01*
X152159174Y-100437000D01*
X152218792Y-100526225D01*
G37*
%TD.AperFunction*%
%TD*%
M02*
