%TF.GenerationSoftware,KiCad,Pcbnew,5.1.9-73d0e3b20d~88~ubuntu20.04.1*%
%TF.CreationDate,2021-02-23T10:44:39-05:00*%
%TF.ProjectId,SiPM_Board,5369504d-5f42-46f6-9172-642e6b696361,rev?*%
%TF.SameCoordinates,Original*%
%TF.FileFunction,Legend,Bot*%
%TF.FilePolarity,Positive*%
%FSLAX46Y46*%
G04 Gerber Fmt 4.6, Leading zero omitted, Abs format (unit mm)*
G04 Created by KiCad (PCBNEW 5.1.9-73d0e3b20d~88~ubuntu20.04.1) date 2021-02-23 10:44:39*
%MOMM*%
%LPD*%
G01*
G04 APERTURE LIST*
%ADD10C,0.100000*%
%ADD11C,0.165100*%
%ADD12C,0.120000*%
G04 APERTURE END LIST*
D10*
G36*
X157450000Y-82650000D02*
G01*
X142550000Y-82650000D01*
X142550000Y-75250000D01*
X157450000Y-75250000D01*
X157450000Y-82650000D01*
G37*
X157450000Y-82650000D02*
X142550000Y-82650000D01*
X142550000Y-75250000D01*
X157450000Y-75250000D01*
X157450000Y-82650000D01*
D11*
X163264857Y-79566857D02*
X163047142Y-79639428D01*
X162684285Y-79639428D01*
X162539142Y-79566857D01*
X162466571Y-79494285D01*
X162394000Y-79349142D01*
X162394000Y-79204000D01*
X162466571Y-79058857D01*
X162539142Y-78986285D01*
X162684285Y-78913714D01*
X162974571Y-78841142D01*
X163119714Y-78768571D01*
X163192285Y-78696000D01*
X163264857Y-78550857D01*
X163264857Y-78405714D01*
X163192285Y-78260571D01*
X163119714Y-78188000D01*
X162974571Y-78115428D01*
X162611714Y-78115428D01*
X162394000Y-78188000D01*
X160652285Y-78042857D02*
X161958571Y-80002285D01*
X160144285Y-79639428D02*
X160144285Y-78115428D01*
X159273428Y-79639428D01*
X159273428Y-78115428D01*
X158547714Y-79494285D02*
X158475142Y-79566857D01*
X158547714Y-79639428D01*
X158620285Y-79566857D01*
X158547714Y-79494285D01*
X158547714Y-79639428D01*
X158547714Y-78696000D02*
X158475142Y-78768571D01*
X158547714Y-78841142D01*
X158620285Y-78768571D01*
X158547714Y-78696000D01*
X158547714Y-78841142D01*
X159760857Y-119238328D02*
X159760857Y-117714328D01*
X159107714Y-119238328D02*
X159107714Y-118440042D01*
X159180285Y-118294900D01*
X159325428Y-118222328D01*
X159543142Y-118222328D01*
X159688285Y-118294900D01*
X159760857Y-118367471D01*
X158599714Y-118222328D02*
X158019142Y-118222328D01*
X158382000Y-117714328D02*
X158382000Y-119020614D01*
X158309428Y-119165757D01*
X158164285Y-119238328D01*
X158019142Y-119238328D01*
X157728857Y-118222328D02*
X157148285Y-118222328D01*
X157511142Y-117714328D02*
X157511142Y-119020614D01*
X157438571Y-119165757D01*
X157293428Y-119238328D01*
X157148285Y-119238328D01*
X156640285Y-118222328D02*
X156640285Y-119746328D01*
X156640285Y-118294900D02*
X156495142Y-118222328D01*
X156204857Y-118222328D01*
X156059714Y-118294900D01*
X155987142Y-118367471D01*
X155914571Y-118512614D01*
X155914571Y-118948042D01*
X155987142Y-119093185D01*
X156059714Y-119165757D01*
X156204857Y-119238328D01*
X156495142Y-119238328D01*
X156640285Y-119165757D01*
X155261428Y-119093185D02*
X155188857Y-119165757D01*
X155261428Y-119238328D01*
X155334000Y-119165757D01*
X155261428Y-119093185D01*
X155261428Y-119238328D01*
X155261428Y-118294900D02*
X155188857Y-118367471D01*
X155261428Y-118440042D01*
X155334000Y-118367471D01*
X155261428Y-118294900D01*
X155261428Y-118440042D01*
X153447142Y-117641757D02*
X154753428Y-119601185D01*
X151850571Y-117641757D02*
X153156857Y-119601185D01*
X150762000Y-119165757D02*
X150907142Y-119238328D01*
X151197428Y-119238328D01*
X151342571Y-119165757D01*
X151415142Y-119020614D01*
X151415142Y-118440042D01*
X151342571Y-118294900D01*
X151197428Y-118222328D01*
X150907142Y-118222328D01*
X150762000Y-118294900D01*
X150689428Y-118440042D01*
X150689428Y-118585185D01*
X151415142Y-118730328D01*
X149383142Y-119238328D02*
X149383142Y-117714328D01*
X149383142Y-119165757D02*
X149528285Y-119238328D01*
X149818571Y-119238328D01*
X149963714Y-119165757D01*
X150036285Y-119093185D01*
X150108857Y-118948042D01*
X150108857Y-118512614D01*
X150036285Y-118367471D01*
X149963714Y-118294900D01*
X149818571Y-118222328D01*
X149528285Y-118222328D01*
X149383142Y-118294900D01*
X148875142Y-118222328D02*
X148294571Y-118222328D01*
X148657428Y-119238328D02*
X148657428Y-117932042D01*
X148584857Y-117786900D01*
X148439714Y-117714328D01*
X148294571Y-117714328D01*
X147786571Y-119093185D02*
X147714000Y-119165757D01*
X147786571Y-119238328D01*
X147859142Y-119165757D01*
X147786571Y-119093185D01*
X147786571Y-119238328D01*
X147060857Y-119238328D02*
X147060857Y-117714328D01*
X147060857Y-118294900D02*
X146915714Y-118222328D01*
X146625428Y-118222328D01*
X146480285Y-118294900D01*
X146407714Y-118367471D01*
X146335142Y-118512614D01*
X146335142Y-118948042D01*
X146407714Y-119093185D01*
X146480285Y-119165757D01*
X146625428Y-119238328D01*
X146915714Y-119238328D01*
X147060857Y-119165757D01*
X145028857Y-118222328D02*
X145028857Y-119238328D01*
X145682000Y-118222328D02*
X145682000Y-119020614D01*
X145609428Y-119165757D01*
X145464285Y-119238328D01*
X145246571Y-119238328D01*
X145101428Y-119165757D01*
X145028857Y-119093185D01*
X144303142Y-119093185D02*
X144230571Y-119165757D01*
X144303142Y-119238328D01*
X144375714Y-119165757D01*
X144303142Y-119093185D01*
X144303142Y-119238328D01*
X142996857Y-119165757D02*
X143142000Y-119238328D01*
X143432285Y-119238328D01*
X143577428Y-119165757D01*
X143650000Y-119020614D01*
X143650000Y-118440042D01*
X143577428Y-118294900D01*
X143432285Y-118222328D01*
X143142000Y-118222328D01*
X142996857Y-118294900D01*
X142924285Y-118440042D01*
X142924285Y-118585185D01*
X143650000Y-118730328D01*
X141618000Y-119238328D02*
X141618000Y-117714328D01*
X141618000Y-119165757D02*
X141763142Y-119238328D01*
X142053428Y-119238328D01*
X142198571Y-119165757D01*
X142271142Y-119093185D01*
X142343714Y-118948042D01*
X142343714Y-118512614D01*
X142271142Y-118367471D01*
X142198571Y-118294900D01*
X142053428Y-118222328D01*
X141763142Y-118222328D01*
X141618000Y-118294900D01*
X140239142Y-118222328D02*
X140239142Y-119238328D01*
X140892285Y-118222328D02*
X140892285Y-119020614D01*
X140819714Y-119165757D01*
X140674571Y-119238328D01*
X140456857Y-119238328D01*
X140311714Y-119165757D01*
X140239142Y-119093185D01*
X162228285Y-120891142D02*
X161720285Y-120891142D01*
X161502571Y-121689428D02*
X162228285Y-121689428D01*
X162228285Y-120165428D01*
X161502571Y-120165428D01*
X160849428Y-121689428D02*
X160849428Y-120165428D01*
X160341428Y-121254000D01*
X159833428Y-120165428D01*
X159833428Y-121689428D01*
X159107714Y-121689428D02*
X159107714Y-120165428D01*
X158527142Y-120165428D01*
X158382000Y-120238000D01*
X158309428Y-120310571D01*
X158236857Y-120455714D01*
X158236857Y-120673428D01*
X158309428Y-120818571D01*
X158382000Y-120891142D01*
X158527142Y-120963714D01*
X159107714Y-120963714D01*
X157583714Y-121689428D02*
X157583714Y-120165428D01*
X157583714Y-120891142D02*
X156712857Y-120891142D01*
X156712857Y-121689428D02*
X156712857Y-120165428D01*
X156059714Y-121254000D02*
X155334000Y-121254000D01*
X156204857Y-121689428D02*
X155696857Y-120165428D01*
X155188857Y-121689428D01*
X154898571Y-120165428D02*
X154027714Y-120165428D01*
X154463142Y-121689428D02*
X154463142Y-120165428D01*
X153519714Y-121689428D02*
X153519714Y-120165428D01*
X151923142Y-121544285D02*
X151995714Y-121616857D01*
X152213428Y-121689428D01*
X152358571Y-121689428D01*
X152576285Y-121616857D01*
X152721428Y-121471714D01*
X152794000Y-121326571D01*
X152866571Y-121036285D01*
X152866571Y-120818571D01*
X152794000Y-120528285D01*
X152721428Y-120383142D01*
X152576285Y-120238000D01*
X152358571Y-120165428D01*
X152213428Y-120165428D01*
X151995714Y-120238000D01*
X151923142Y-120310571D01*
X150181428Y-121616857D02*
X149963714Y-121689428D01*
X149600857Y-121689428D01*
X149455714Y-121616857D01*
X149383142Y-121544285D01*
X149310571Y-121399142D01*
X149310571Y-121254000D01*
X149383142Y-121108857D01*
X149455714Y-121036285D01*
X149600857Y-120963714D01*
X149891142Y-120891142D01*
X150036285Y-120818571D01*
X150108857Y-120746000D01*
X150181428Y-120600857D01*
X150181428Y-120455714D01*
X150108857Y-120310571D01*
X150036285Y-120238000D01*
X149891142Y-120165428D01*
X149528285Y-120165428D01*
X149310571Y-120238000D01*
X148657428Y-121689428D02*
X148657428Y-120673428D01*
X148657428Y-120165428D02*
X148730000Y-120238000D01*
X148657428Y-120310571D01*
X148584857Y-120238000D01*
X148657428Y-120165428D01*
X148657428Y-120310571D01*
X147931714Y-121689428D02*
X147931714Y-120165428D01*
X147351142Y-120165428D01*
X147206000Y-120238000D01*
X147133428Y-120310571D01*
X147060857Y-120455714D01*
X147060857Y-120673428D01*
X147133428Y-120818571D01*
X147206000Y-120891142D01*
X147351142Y-120963714D01*
X147931714Y-120963714D01*
X146407714Y-121689428D02*
X146407714Y-120165428D01*
X145899714Y-121254000D01*
X145391714Y-120165428D01*
X145391714Y-121689428D01*
X142634000Y-121689428D02*
X143142000Y-120963714D01*
X143504857Y-121689428D02*
X143504857Y-120165428D01*
X142924285Y-120165428D01*
X142779142Y-120238000D01*
X142706571Y-120310571D01*
X142634000Y-120455714D01*
X142634000Y-120673428D01*
X142706571Y-120818571D01*
X142779142Y-120891142D01*
X142924285Y-120963714D01*
X143504857Y-120963714D01*
X141400285Y-121616857D02*
X141545428Y-121689428D01*
X141835714Y-121689428D01*
X141980857Y-121616857D01*
X142053428Y-121471714D01*
X142053428Y-120891142D01*
X141980857Y-120746000D01*
X141835714Y-120673428D01*
X141545428Y-120673428D01*
X141400285Y-120746000D01*
X141327714Y-120891142D01*
X141327714Y-121036285D01*
X142053428Y-121181428D01*
X140819714Y-120673428D02*
X140456857Y-121689428D01*
X140094000Y-120673428D01*
X138424857Y-121254000D02*
X137699142Y-121254000D01*
X138570000Y-121689428D02*
X138062000Y-120165428D01*
X137554000Y-121689428D01*
X163171714Y-122616528D02*
X162300857Y-122616528D01*
X162736285Y-124140528D02*
X162736285Y-122616528D01*
X161792857Y-123995385D02*
X161720285Y-124067957D01*
X161792857Y-124140528D01*
X161865428Y-124067957D01*
X161792857Y-123995385D01*
X161792857Y-124140528D01*
X159978571Y-123705100D02*
X159252857Y-123705100D01*
X160123714Y-124140528D02*
X159615714Y-122616528D01*
X159107714Y-124140528D01*
X157946571Y-123124528D02*
X157946571Y-124358242D01*
X158019142Y-124503385D01*
X158091714Y-124575957D01*
X158236857Y-124648528D01*
X158454571Y-124648528D01*
X158599714Y-124575957D01*
X157946571Y-124067957D02*
X158091714Y-124140528D01*
X158382000Y-124140528D01*
X158527142Y-124067957D01*
X158599714Y-123995385D01*
X158672285Y-123850242D01*
X158672285Y-123414814D01*
X158599714Y-123269671D01*
X158527142Y-123197100D01*
X158382000Y-123124528D01*
X158091714Y-123124528D01*
X157946571Y-123197100D01*
X156567714Y-124140528D02*
X156567714Y-123342242D01*
X156640285Y-123197100D01*
X156785428Y-123124528D01*
X157075714Y-123124528D01*
X157220857Y-123197100D01*
X156567714Y-124067957D02*
X156712857Y-124140528D01*
X157075714Y-124140528D01*
X157220857Y-124067957D01*
X157293428Y-123922814D01*
X157293428Y-123777671D01*
X157220857Y-123632528D01*
X157075714Y-123559957D01*
X156712857Y-123559957D01*
X156567714Y-123487385D01*
X155842000Y-124140528D02*
X155842000Y-123124528D01*
X155842000Y-123414814D02*
X155769428Y-123269671D01*
X155696857Y-123197100D01*
X155551714Y-123124528D01*
X155406571Y-123124528D01*
X155043714Y-123124528D02*
X154753428Y-124140528D01*
X154463142Y-123414814D01*
X154172857Y-124140528D01*
X153882571Y-123124528D01*
X152648857Y-124140528D02*
X152648857Y-123342242D01*
X152721428Y-123197100D01*
X152866571Y-123124528D01*
X153156857Y-123124528D01*
X153302000Y-123197100D01*
X152648857Y-124067957D02*
X152794000Y-124140528D01*
X153156857Y-124140528D01*
X153302000Y-124067957D01*
X153374571Y-123922814D01*
X153374571Y-123777671D01*
X153302000Y-123632528D01*
X153156857Y-123559957D01*
X152794000Y-123559957D01*
X152648857Y-123487385D01*
X151705428Y-124140528D02*
X151850571Y-124067957D01*
X151923142Y-123922814D01*
X151923142Y-122616528D01*
X149963714Y-123559957D02*
X148802571Y-123559957D01*
X146988285Y-122761671D02*
X146915714Y-122689100D01*
X146770571Y-122616528D01*
X146407714Y-122616528D01*
X146262571Y-122689100D01*
X146190000Y-122761671D01*
X146117428Y-122906814D01*
X146117428Y-123051957D01*
X146190000Y-123269671D01*
X147060857Y-124140528D01*
X146117428Y-124140528D01*
X145174000Y-122616528D02*
X145028857Y-122616528D01*
X144883714Y-122689100D01*
X144811142Y-122761671D01*
X144738571Y-122906814D01*
X144666000Y-123197100D01*
X144666000Y-123559957D01*
X144738571Y-123850242D01*
X144811142Y-123995385D01*
X144883714Y-124067957D01*
X145028857Y-124140528D01*
X145174000Y-124140528D01*
X145319142Y-124067957D01*
X145391714Y-123995385D01*
X145464285Y-123850242D01*
X145536857Y-123559957D01*
X145536857Y-123197100D01*
X145464285Y-122906814D01*
X145391714Y-122761671D01*
X145319142Y-122689100D01*
X145174000Y-122616528D01*
X144085428Y-122761671D02*
X144012857Y-122689100D01*
X143867714Y-122616528D01*
X143504857Y-122616528D01*
X143359714Y-122689100D01*
X143287142Y-122761671D01*
X143214571Y-122906814D01*
X143214571Y-123051957D01*
X143287142Y-123269671D01*
X144158000Y-124140528D01*
X143214571Y-124140528D01*
X142271142Y-122616528D02*
X142126000Y-122616528D01*
X141980857Y-122689100D01*
X141908285Y-122761671D01*
X141835714Y-122906814D01*
X141763142Y-123197100D01*
X141763142Y-123559957D01*
X141835714Y-123850242D01*
X141908285Y-123995385D01*
X141980857Y-124067957D01*
X142126000Y-124140528D01*
X142271142Y-124140528D01*
X142416285Y-124067957D01*
X142488857Y-123995385D01*
X142561428Y-123850242D01*
X142634000Y-123559957D01*
X142634000Y-123197100D01*
X142561428Y-122906814D01*
X142488857Y-122761671D01*
X142416285Y-122689100D01*
X142271142Y-122616528D01*
X141110000Y-123559957D02*
X139948857Y-123559957D01*
X138932857Y-122616528D02*
X138787714Y-122616528D01*
X138642571Y-122689100D01*
X138570000Y-122761671D01*
X138497428Y-122906814D01*
X138424857Y-123197100D01*
X138424857Y-123559957D01*
X138497428Y-123850242D01*
X138570000Y-123995385D01*
X138642571Y-124067957D01*
X138787714Y-124140528D01*
X138932857Y-124140528D01*
X139078000Y-124067957D01*
X139150571Y-123995385D01*
X139223142Y-123850242D01*
X139295714Y-123559957D01*
X139295714Y-123197100D01*
X139223142Y-122906814D01*
X139150571Y-122761671D01*
X139078000Y-122689100D01*
X138932857Y-122616528D01*
X137844285Y-122761671D02*
X137771714Y-122689100D01*
X137626571Y-122616528D01*
X137263714Y-122616528D01*
X137118571Y-122689100D01*
X137046000Y-122761671D01*
X136973428Y-122906814D01*
X136973428Y-123051957D01*
X137046000Y-123269671D01*
X137916857Y-124140528D01*
X136973428Y-124140528D01*
%TO.C,J2*%
X161106000Y-82728000D02*
X161106000Y-81712000D01*
X161106000Y-81712000D02*
X164154000Y-81712000D01*
X164154000Y-81712000D02*
X164154000Y-82728000D01*
X164154000Y-117272000D02*
X164154000Y-118288000D01*
X161106000Y-118288000D02*
X161106000Y-117272000D01*
X164154000Y-118288000D02*
X161106000Y-118288000D01*
%TO.C,J1*%
X138894000Y-118288000D02*
X135846000Y-118288000D01*
X135846000Y-118288000D02*
X135846000Y-117272000D01*
X138894000Y-117272000D02*
X138894000Y-118288000D01*
X138894000Y-81712000D02*
X138894000Y-82728000D01*
X135846000Y-81712000D02*
X138894000Y-81712000D01*
X135846000Y-82728000D02*
X135846000Y-81712000D01*
D12*
%TO.C,C15*%
X155800000Y-112483733D02*
X155800000Y-112776267D01*
X156820000Y-112483733D02*
X156820000Y-112776267D01*
%TO.C,C9*%
X150510000Y-103033733D02*
X150510000Y-103326267D01*
X149490000Y-103033733D02*
X149490000Y-103326267D01*
%TO.C,U1*%
X149300000Y-98840000D02*
X151200000Y-98840000D01*
X150700000Y-101160000D02*
X149300000Y-101160000D01*
%TO.C,C5*%
X131570000Y-87223733D02*
X131570000Y-87516267D01*
X130550000Y-87223733D02*
X130550000Y-87516267D01*
%TO.C,C7*%
X143360000Y-87223733D02*
X143360000Y-87516267D01*
X144380000Y-87223733D02*
X144380000Y-87516267D01*
%TO.C,C6*%
X131570000Y-112483733D02*
X131570000Y-112776267D01*
X130550000Y-112483733D02*
X130550000Y-112776267D01*
%TO.C,C8*%
X143310000Y-112483733D02*
X143310000Y-112776267D01*
X144330000Y-112483733D02*
X144330000Y-112776267D01*
%TO.C,C14*%
X156820000Y-87223733D02*
X156820000Y-87516267D01*
X155800000Y-87223733D02*
X155800000Y-87516267D01*
%TO.C,C16*%
X168430000Y-87223733D02*
X168430000Y-87516267D01*
X169450000Y-87223733D02*
X169450000Y-87516267D01*
%TO.C,C17*%
X169450000Y-112483733D02*
X169450000Y-112776267D01*
X168430000Y-112483733D02*
X168430000Y-112776267D01*
%TO.C,C1*%
X130550000Y-93543733D02*
X130550000Y-93836267D01*
X131570000Y-93543733D02*
X131570000Y-93836267D01*
%TO.C,C3*%
X144380000Y-93543733D02*
X144380000Y-93836267D01*
X143360000Y-93543733D02*
X143360000Y-93836267D01*
%TO.C,C2*%
X130550000Y-106163733D02*
X130550000Y-106456267D01*
X131570000Y-106163733D02*
X131570000Y-106456267D01*
%TO.C,C4*%
X144380000Y-106163733D02*
X144380000Y-106456267D01*
X143360000Y-106163733D02*
X143360000Y-106456267D01*
%TO.C,C10*%
X155800000Y-93543733D02*
X155800000Y-93836267D01*
X156820000Y-93543733D02*
X156820000Y-93836267D01*
%TO.C,C12*%
X169450000Y-93543733D02*
X169450000Y-93836267D01*
X168430000Y-93543733D02*
X168430000Y-93836267D01*
%TO.C,C11*%
X155800000Y-106163733D02*
X155800000Y-106456267D01*
X156820000Y-106163733D02*
X156820000Y-106456267D01*
%TO.C,C13*%
X169450000Y-106163733D02*
X169450000Y-106456267D01*
X168430000Y-106163733D02*
X168430000Y-106456267D01*
%TO.C,J2*%
D11*
X160348000Y-81345428D02*
X160348000Y-82434000D01*
X160420571Y-82651714D01*
X160565714Y-82796857D01*
X160783428Y-82869428D01*
X160928571Y-82869428D01*
X159694857Y-81490571D02*
X159622285Y-81418000D01*
X159477142Y-81345428D01*
X159114285Y-81345428D01*
X158969142Y-81418000D01*
X158896571Y-81490571D01*
X158824000Y-81635714D01*
X158824000Y-81780857D01*
X158896571Y-81998571D01*
X159767428Y-82869428D01*
X158824000Y-82869428D01*
X164480571Y-82909428D02*
X165351428Y-82909428D01*
X164916000Y-82909428D02*
X164916000Y-81385428D01*
X165061142Y-81603142D01*
X165206285Y-81748285D01*
X165351428Y-81820857D01*
%TO.C,J1*%
X134948000Y-81305428D02*
X134948000Y-82394000D01*
X135020571Y-82611714D01*
X135165714Y-82756857D01*
X135383428Y-82829428D01*
X135528571Y-82829428D01*
X133424000Y-82829428D02*
X134294857Y-82829428D01*
X133859428Y-82829428D02*
X133859428Y-81305428D01*
X134004571Y-81523142D01*
X134149714Y-81668285D01*
X134294857Y-81740857D01*
X139220571Y-82909428D02*
X140091428Y-82909428D01*
X139656000Y-82909428D02*
X139656000Y-81385428D01*
X139801142Y-81603142D01*
X139946285Y-81748285D01*
X140091428Y-81820857D01*
%TO.C,C15*%
X155314285Y-113160285D02*
X155386857Y-113087714D01*
X155459428Y-112870000D01*
X155459428Y-112724857D01*
X155386857Y-112507142D01*
X155241714Y-112362000D01*
X155096571Y-112289428D01*
X154806285Y-112216857D01*
X154588571Y-112216857D01*
X154298285Y-112289428D01*
X154153142Y-112362000D01*
X154008000Y-112507142D01*
X153935428Y-112724857D01*
X153935428Y-112870000D01*
X154008000Y-113087714D01*
X154080571Y-113160285D01*
X155459428Y-114611714D02*
X155459428Y-113740857D01*
X155459428Y-114176285D02*
X153935428Y-114176285D01*
X154153142Y-114031142D01*
X154298285Y-113886000D01*
X154370857Y-113740857D01*
X153935428Y-115990571D02*
X153935428Y-115264857D01*
X154661142Y-115192285D01*
X154588571Y-115264857D01*
X154516000Y-115410000D01*
X154516000Y-115772857D01*
X154588571Y-115918000D01*
X154661142Y-115990571D01*
X154806285Y-116063142D01*
X155169142Y-116063142D01*
X155314285Y-115990571D01*
X155386857Y-115918000D01*
X155459428Y-115772857D01*
X155459428Y-115410000D01*
X155386857Y-115264857D01*
X155314285Y-115192285D01*
%TO.C,C9*%
X148994285Y-102916000D02*
X149066857Y-102843428D01*
X149139428Y-102625714D01*
X149139428Y-102480571D01*
X149066857Y-102262857D01*
X148921714Y-102117714D01*
X148776571Y-102045142D01*
X148486285Y-101972571D01*
X148268571Y-101972571D01*
X147978285Y-102045142D01*
X147833142Y-102117714D01*
X147688000Y-102262857D01*
X147615428Y-102480571D01*
X147615428Y-102625714D01*
X147688000Y-102843428D01*
X147760571Y-102916000D01*
X149139428Y-103641714D02*
X149139428Y-103932000D01*
X149066857Y-104077142D01*
X148994285Y-104149714D01*
X148776571Y-104294857D01*
X148486285Y-104367428D01*
X147905714Y-104367428D01*
X147760571Y-104294857D01*
X147688000Y-104222285D01*
X147615428Y-104077142D01*
X147615428Y-103786857D01*
X147688000Y-103641714D01*
X147760571Y-103569142D01*
X147905714Y-103496571D01*
X148268571Y-103496571D01*
X148413714Y-103569142D01*
X148486285Y-103641714D01*
X148558857Y-103786857D01*
X148558857Y-104077142D01*
X148486285Y-104222285D01*
X148413714Y-104294857D01*
X148268571Y-104367428D01*
%TO.C,U1*%
X151161142Y-96915428D02*
X151161142Y-98149142D01*
X151088571Y-98294285D01*
X151016000Y-98366857D01*
X150870857Y-98439428D01*
X150580571Y-98439428D01*
X150435428Y-98366857D01*
X150362857Y-98294285D01*
X150290285Y-98149142D01*
X150290285Y-96915428D01*
X148766285Y-98439428D02*
X149637142Y-98439428D01*
X149201714Y-98439428D02*
X149201714Y-96915428D01*
X149346857Y-97133142D01*
X149492000Y-97278285D01*
X149637142Y-97350857D01*
%TO.C,C5*%
X130014285Y-87846000D02*
X130086857Y-87773428D01*
X130159428Y-87555714D01*
X130159428Y-87410571D01*
X130086857Y-87192857D01*
X129941714Y-87047714D01*
X129796571Y-86975142D01*
X129506285Y-86902571D01*
X129288571Y-86902571D01*
X128998285Y-86975142D01*
X128853142Y-87047714D01*
X128708000Y-87192857D01*
X128635428Y-87410571D01*
X128635428Y-87555714D01*
X128708000Y-87773428D01*
X128780571Y-87846000D01*
X128635428Y-89224857D02*
X128635428Y-88499142D01*
X129361142Y-88426571D01*
X129288571Y-88499142D01*
X129216000Y-88644285D01*
X129216000Y-89007142D01*
X129288571Y-89152285D01*
X129361142Y-89224857D01*
X129506285Y-89297428D01*
X129869142Y-89297428D01*
X130014285Y-89224857D01*
X130086857Y-89152285D01*
X130159428Y-89007142D01*
X130159428Y-88644285D01*
X130086857Y-88499142D01*
X130014285Y-88426571D01*
%TO.C,C7*%
X142814285Y-88086000D02*
X142886857Y-88013428D01*
X142959428Y-87795714D01*
X142959428Y-87650571D01*
X142886857Y-87432857D01*
X142741714Y-87287714D01*
X142596571Y-87215142D01*
X142306285Y-87142571D01*
X142088571Y-87142571D01*
X141798285Y-87215142D01*
X141653142Y-87287714D01*
X141508000Y-87432857D01*
X141435428Y-87650571D01*
X141435428Y-87795714D01*
X141508000Y-88013428D01*
X141580571Y-88086000D01*
X141435428Y-88594000D02*
X141435428Y-89610000D01*
X142959428Y-88956857D01*
%TO.C,C6*%
X130074285Y-113176000D02*
X130146857Y-113103428D01*
X130219428Y-112885714D01*
X130219428Y-112740571D01*
X130146857Y-112522857D01*
X130001714Y-112377714D01*
X129856571Y-112305142D01*
X129566285Y-112232571D01*
X129348571Y-112232571D01*
X129058285Y-112305142D01*
X128913142Y-112377714D01*
X128768000Y-112522857D01*
X128695428Y-112740571D01*
X128695428Y-112885714D01*
X128768000Y-113103428D01*
X128840571Y-113176000D01*
X128695428Y-114482285D02*
X128695428Y-114192000D01*
X128768000Y-114046857D01*
X128840571Y-113974285D01*
X129058285Y-113829142D01*
X129348571Y-113756571D01*
X129929142Y-113756571D01*
X130074285Y-113829142D01*
X130146857Y-113901714D01*
X130219428Y-114046857D01*
X130219428Y-114337142D01*
X130146857Y-114482285D01*
X130074285Y-114554857D01*
X129929142Y-114627428D01*
X129566285Y-114627428D01*
X129421142Y-114554857D01*
X129348571Y-114482285D01*
X129276000Y-114337142D01*
X129276000Y-114046857D01*
X129348571Y-113901714D01*
X129421142Y-113829142D01*
X129566285Y-113756571D01*
%TO.C,C8*%
X142804285Y-113560666D02*
X142876857Y-113512285D01*
X142949428Y-113367142D01*
X142949428Y-113270380D01*
X142876857Y-113125238D01*
X142731714Y-113028476D01*
X142586571Y-112980095D01*
X142296285Y-112931714D01*
X142078571Y-112931714D01*
X141788285Y-112980095D01*
X141643142Y-113028476D01*
X141498000Y-113125238D01*
X141425428Y-113270380D01*
X141425428Y-113367142D01*
X141498000Y-113512285D01*
X141570571Y-113560666D01*
X142078571Y-114141238D02*
X142006000Y-114044476D01*
X141933428Y-113996095D01*
X141788285Y-113947714D01*
X141715714Y-113947714D01*
X141570571Y-113996095D01*
X141498000Y-114044476D01*
X141425428Y-114141238D01*
X141425428Y-114334761D01*
X141498000Y-114431523D01*
X141570571Y-114479904D01*
X141715714Y-114528285D01*
X141788285Y-114528285D01*
X141933428Y-114479904D01*
X142006000Y-114431523D01*
X142078571Y-114334761D01*
X142078571Y-114141238D01*
X142151142Y-114044476D01*
X142223714Y-113996095D01*
X142368857Y-113947714D01*
X142659142Y-113947714D01*
X142804285Y-113996095D01*
X142876857Y-114044476D01*
X142949428Y-114141238D01*
X142949428Y-114334761D01*
X142876857Y-114431523D01*
X142804285Y-114479904D01*
X142659142Y-114528285D01*
X142368857Y-114528285D01*
X142223714Y-114479904D01*
X142151142Y-114431523D01*
X142078571Y-114334761D01*
%TO.C,C14*%
X155164285Y-87930285D02*
X155236857Y-87857714D01*
X155309428Y-87640000D01*
X155309428Y-87494857D01*
X155236857Y-87277142D01*
X155091714Y-87132000D01*
X154946571Y-87059428D01*
X154656285Y-86986857D01*
X154438571Y-86986857D01*
X154148285Y-87059428D01*
X154003142Y-87132000D01*
X153858000Y-87277142D01*
X153785428Y-87494857D01*
X153785428Y-87640000D01*
X153858000Y-87857714D01*
X153930571Y-87930285D01*
X155309428Y-89381714D02*
X155309428Y-88510857D01*
X155309428Y-88946285D02*
X153785428Y-88946285D01*
X154003142Y-88801142D01*
X154148285Y-88656000D01*
X154220857Y-88510857D01*
X154293428Y-90688000D02*
X155309428Y-90688000D01*
X153712857Y-90325142D02*
X154801428Y-89962285D01*
X154801428Y-90905714D01*
%TO.C,C16*%
X168034285Y-88510285D02*
X168106857Y-88437714D01*
X168179428Y-88220000D01*
X168179428Y-88074857D01*
X168106857Y-87857142D01*
X167961714Y-87712000D01*
X167816571Y-87639428D01*
X167526285Y-87566857D01*
X167308571Y-87566857D01*
X167018285Y-87639428D01*
X166873142Y-87712000D01*
X166728000Y-87857142D01*
X166655428Y-88074857D01*
X166655428Y-88220000D01*
X166728000Y-88437714D01*
X166800571Y-88510285D01*
X168179428Y-89961714D02*
X168179428Y-89090857D01*
X168179428Y-89526285D02*
X166655428Y-89526285D01*
X166873142Y-89381142D01*
X167018285Y-89236000D01*
X167090857Y-89090857D01*
X166655428Y-91268000D02*
X166655428Y-90977714D01*
X166728000Y-90832571D01*
X166800571Y-90760000D01*
X167018285Y-90614857D01*
X167308571Y-90542285D01*
X167889142Y-90542285D01*
X168034285Y-90614857D01*
X168106857Y-90687428D01*
X168179428Y-90832571D01*
X168179428Y-91122857D01*
X168106857Y-91268000D01*
X168034285Y-91340571D01*
X167889142Y-91413142D01*
X167526285Y-91413142D01*
X167381142Y-91340571D01*
X167308571Y-91268000D01*
X167236000Y-91122857D01*
X167236000Y-90832571D01*
X167308571Y-90687428D01*
X167381142Y-90614857D01*
X167526285Y-90542285D01*
%TO.C,C17*%
X167824285Y-110415214D02*
X167896857Y-110360785D01*
X167969428Y-110197500D01*
X167969428Y-110088642D01*
X167896857Y-109925357D01*
X167751714Y-109816500D01*
X167606571Y-109762071D01*
X167316285Y-109707642D01*
X167098571Y-109707642D01*
X166808285Y-109762071D01*
X166663142Y-109816500D01*
X166518000Y-109925357D01*
X166445428Y-110088642D01*
X166445428Y-110197500D01*
X166518000Y-110360785D01*
X166590571Y-110415214D01*
X167969428Y-111503785D02*
X167969428Y-110850642D01*
X167969428Y-111177214D02*
X166445428Y-111177214D01*
X166663142Y-111068357D01*
X166808285Y-110959500D01*
X166880857Y-110850642D01*
X166445428Y-111884785D02*
X166445428Y-112646785D01*
X167969428Y-112156928D01*
%TO.C,C1*%
X130044285Y-94176000D02*
X130116857Y-94103428D01*
X130189428Y-93885714D01*
X130189428Y-93740571D01*
X130116857Y-93522857D01*
X129971714Y-93377714D01*
X129826571Y-93305142D01*
X129536285Y-93232571D01*
X129318571Y-93232571D01*
X129028285Y-93305142D01*
X128883142Y-93377714D01*
X128738000Y-93522857D01*
X128665428Y-93740571D01*
X128665428Y-93885714D01*
X128738000Y-94103428D01*
X128810571Y-94176000D01*
X130189428Y-95627428D02*
X130189428Y-94756571D01*
X130189428Y-95192000D02*
X128665428Y-95192000D01*
X128883142Y-95046857D01*
X129028285Y-94901714D01*
X129100857Y-94756571D01*
%TO.C,C3*%
X142844285Y-93436000D02*
X142916857Y-93363428D01*
X142989428Y-93145714D01*
X142989428Y-93000571D01*
X142916857Y-92782857D01*
X142771714Y-92637714D01*
X142626571Y-92565142D01*
X142336285Y-92492571D01*
X142118571Y-92492571D01*
X141828285Y-92565142D01*
X141683142Y-92637714D01*
X141538000Y-92782857D01*
X141465428Y-93000571D01*
X141465428Y-93145714D01*
X141538000Y-93363428D01*
X141610571Y-93436000D01*
X141465428Y-93944000D02*
X141465428Y-94887428D01*
X142046000Y-94379428D01*
X142046000Y-94597142D01*
X142118571Y-94742285D01*
X142191142Y-94814857D01*
X142336285Y-94887428D01*
X142699142Y-94887428D01*
X142844285Y-94814857D01*
X142916857Y-94742285D01*
X142989428Y-94597142D01*
X142989428Y-94161714D01*
X142916857Y-94016571D01*
X142844285Y-93944000D01*
%TO.C,C2*%
X130034285Y-106716000D02*
X130106857Y-106643428D01*
X130179428Y-106425714D01*
X130179428Y-106280571D01*
X130106857Y-106062857D01*
X129961714Y-105917714D01*
X129816571Y-105845142D01*
X129526285Y-105772571D01*
X129308571Y-105772571D01*
X129018285Y-105845142D01*
X128873142Y-105917714D01*
X128728000Y-106062857D01*
X128655428Y-106280571D01*
X128655428Y-106425714D01*
X128728000Y-106643428D01*
X128800571Y-106716000D01*
X128800571Y-107296571D02*
X128728000Y-107369142D01*
X128655428Y-107514285D01*
X128655428Y-107877142D01*
X128728000Y-108022285D01*
X128800571Y-108094857D01*
X128945714Y-108167428D01*
X129090857Y-108167428D01*
X129308571Y-108094857D01*
X130179428Y-107224000D01*
X130179428Y-108167428D01*
%TO.C,C4*%
X142874285Y-104750666D02*
X142946857Y-104702285D01*
X143019428Y-104557142D01*
X143019428Y-104460380D01*
X142946857Y-104315238D01*
X142801714Y-104218476D01*
X142656571Y-104170095D01*
X142366285Y-104121714D01*
X142148571Y-104121714D01*
X141858285Y-104170095D01*
X141713142Y-104218476D01*
X141568000Y-104315238D01*
X141495428Y-104460380D01*
X141495428Y-104557142D01*
X141568000Y-104702285D01*
X141640571Y-104750666D01*
X142003428Y-105621523D02*
X143019428Y-105621523D01*
X141422857Y-105379619D02*
X142511428Y-105137714D01*
X142511428Y-105766666D01*
%TO.C,C10*%
X155234285Y-94210285D02*
X155306857Y-94137714D01*
X155379428Y-93920000D01*
X155379428Y-93774857D01*
X155306857Y-93557142D01*
X155161714Y-93412000D01*
X155016571Y-93339428D01*
X154726285Y-93266857D01*
X154508571Y-93266857D01*
X154218285Y-93339428D01*
X154073142Y-93412000D01*
X153928000Y-93557142D01*
X153855428Y-93774857D01*
X153855428Y-93920000D01*
X153928000Y-94137714D01*
X154000571Y-94210285D01*
X155379428Y-95661714D02*
X155379428Y-94790857D01*
X155379428Y-95226285D02*
X153855428Y-95226285D01*
X154073142Y-95081142D01*
X154218285Y-94936000D01*
X154290857Y-94790857D01*
X153855428Y-96605142D02*
X153855428Y-96750285D01*
X153928000Y-96895428D01*
X154000571Y-96968000D01*
X154145714Y-97040571D01*
X154436000Y-97113142D01*
X154798857Y-97113142D01*
X155089142Y-97040571D01*
X155234285Y-96968000D01*
X155306857Y-96895428D01*
X155379428Y-96750285D01*
X155379428Y-96605142D01*
X155306857Y-96460000D01*
X155234285Y-96387428D01*
X155089142Y-96314857D01*
X154798857Y-96242285D01*
X154436000Y-96242285D01*
X154145714Y-96314857D01*
X154000571Y-96387428D01*
X153928000Y-96460000D01*
X153855428Y-96605142D01*
%TO.C,C12*%
X168024285Y-92990285D02*
X168096857Y-92917714D01*
X168169428Y-92700000D01*
X168169428Y-92554857D01*
X168096857Y-92337142D01*
X167951714Y-92192000D01*
X167806571Y-92119428D01*
X167516285Y-92046857D01*
X167298571Y-92046857D01*
X167008285Y-92119428D01*
X166863142Y-92192000D01*
X166718000Y-92337142D01*
X166645428Y-92554857D01*
X166645428Y-92700000D01*
X166718000Y-92917714D01*
X166790571Y-92990285D01*
X168169428Y-94441714D02*
X168169428Y-93570857D01*
X168169428Y-94006285D02*
X166645428Y-94006285D01*
X166863142Y-93861142D01*
X167008285Y-93716000D01*
X167080857Y-93570857D01*
X166790571Y-95022285D02*
X166718000Y-95094857D01*
X166645428Y-95240000D01*
X166645428Y-95602857D01*
X166718000Y-95748000D01*
X166790571Y-95820571D01*
X166935714Y-95893142D01*
X167080857Y-95893142D01*
X167298571Y-95820571D01*
X168169428Y-94949714D01*
X168169428Y-95893142D01*
%TO.C,C11*%
X155304285Y-106770285D02*
X155376857Y-106697714D01*
X155449428Y-106480000D01*
X155449428Y-106334857D01*
X155376857Y-106117142D01*
X155231714Y-105972000D01*
X155086571Y-105899428D01*
X154796285Y-105826857D01*
X154578571Y-105826857D01*
X154288285Y-105899428D01*
X154143142Y-105972000D01*
X153998000Y-106117142D01*
X153925428Y-106334857D01*
X153925428Y-106480000D01*
X153998000Y-106697714D01*
X154070571Y-106770285D01*
X155449428Y-108221714D02*
X155449428Y-107350857D01*
X155449428Y-107786285D02*
X153925428Y-107786285D01*
X154143142Y-107641142D01*
X154288285Y-107496000D01*
X154360857Y-107350857D01*
X155449428Y-109673142D02*
X155449428Y-108802285D01*
X155449428Y-109237714D02*
X153925428Y-109237714D01*
X154143142Y-109092571D01*
X154288285Y-108947428D01*
X154360857Y-108802285D01*
%TO.C,C13*%
X167874285Y-104725214D02*
X167946857Y-104670785D01*
X168019428Y-104507500D01*
X168019428Y-104398642D01*
X167946857Y-104235357D01*
X167801714Y-104126500D01*
X167656571Y-104072071D01*
X167366285Y-104017642D01*
X167148571Y-104017642D01*
X166858285Y-104072071D01*
X166713142Y-104126500D01*
X166568000Y-104235357D01*
X166495428Y-104398642D01*
X166495428Y-104507500D01*
X166568000Y-104670785D01*
X166640571Y-104725214D01*
X168019428Y-105813785D02*
X168019428Y-105160642D01*
X168019428Y-105487214D02*
X166495428Y-105487214D01*
X166713142Y-105378357D01*
X166858285Y-105269500D01*
X166930857Y-105160642D01*
X166495428Y-106194785D02*
X166495428Y-106902357D01*
X167076000Y-106521357D01*
X167076000Y-106684642D01*
X167148571Y-106793500D01*
X167221142Y-106847928D01*
X167366285Y-106902357D01*
X167729142Y-106902357D01*
X167874285Y-106847928D01*
X167946857Y-106793500D01*
X168019428Y-106684642D01*
X168019428Y-106358071D01*
X167946857Y-106249214D01*
X167874285Y-106194785D01*
%TD*%
M02*
