M48
; DRILL file {KiCad 5.1.9-73d0e3b20d~88~ubuntu20.04.1} date Tue Feb 23 08:17:40 2021
; FORMAT={-:-/ absolute / inch / decimal}
; #@! TF.CreationDate,2021-02-23T08:17:40-05:00
; #@! TF.GenerationSoftware,Kicad,Pcbnew,5.1.9-73d0e3b20d~88~ubuntu20.04.1
; #@! TF.FileFunction,Plated,1,4,PTH
FMAT,2
INCH
T1C0.0150
%
G90
G05
T1
X4.9764Y-3.3311
X4.9764Y-3.8181
X4.9764Y-4.0917
X4.9764Y-4.4232
X4.9764Y-4.826
X5.0165Y-3.6181
X5.0181Y-4.622
X5.0224Y-3.1299
X5.0938Y-4.4003
X5.1123Y-3.6546
X5.1169Y-3.4063
X5.1198Y-4.1515
X5.176Y-4.8661
X5.1827Y-3.8622
X5.1911Y-3.3447
X5.1991Y-4.2194
X5.2034Y-3.4737
X5.2063Y-3.7118
X5.2137Y-4.4682
X5.2205Y-3.1713
X5.2205Y-3.5748
X5.2205Y-4.0894
X5.2205Y-4.326
X5.2205Y-4.6594
X5.2641Y-3.367
X5.2641Y-3.4458
X5.2641Y-3.5245
X5.2641Y-3.6033
X5.2641Y-3.682
X5.2641Y-3.8395
X5.2641Y-3.9182
X5.2641Y-3.997
X5.2641Y-4.0757
X5.2641Y-4.1544
X5.2641Y-4.2332
X5.2641Y-4.3119
X5.2641Y-4.3907
X5.2641Y-4.4694
X5.2641Y-4.5481
X5.266Y-4.5867
X5.2662Y-3.2875
X5.2688Y-3.7572
X5.4063Y-3.7205
X5.4067Y-4.311
X5.4071Y-3.6815
X5.4071Y-3.839
X5.4075Y-3.9965
X5.4079Y-3.878
X5.4079Y-4.1933
X5.4079Y-4.626
X5.4091Y-4.1543
X5.4094Y-3.185
X5.4106Y-3.5232
X5.411Y-4.0362
X5.4114Y-3.5638
X5.4118Y-4.3504
X5.4646Y-3.1839
X5.4646Y-4.6197
X5.5024Y-3.128
X5.5114Y-3.0079
X5.5161Y-4.7441
X5.5457Y-3.9165
X5.5465Y-4.2717
X5.548Y-3.7598
X5.5484Y-3.4453
X5.5484Y-3.6421
X5.5492Y-3.8
X5.55Y-3.9567
X5.5508Y-4.4689
X5.5512Y-3.1752
X5.552Y-4.0118
X5.5535Y-4.2012
X5.5594Y-3.5126
X5.5799Y-3.224
X5.5866Y-3.4142
X5.5866Y-4.1752
X5.5972Y-3.7441
X5.6157Y-4.0748
X5.6169Y-4.1976
X5.62Y-4.4292
X5.6483Y-4.3425
X5.6516Y-4.2713
X5.6642Y-3.5236
X5.6642Y-3.7646
X5.7038Y-4.4003
X5.7039Y-4.4504
X5.7084Y-3.4058
X5.7087Y-3.2945
X5.7143Y-3.6546
X5.735Y-4.1516
X5.7453Y-4.2925
X5.7492Y-4.7441
X5.7508Y-4.0118
X5.7512Y-3.7402
X5.7516Y-3.0079
X5.7528Y-3.4961
X5.7654Y-4.5
X5.7823Y-3.6181
X5.8232Y-3.937
X5.9055Y-4.1496
X5.9803Y-3.3272
X5.9803Y-3.815
X5.9803Y-4.3252
X5.9803Y-4.8201
X6.0181Y-3.937
X6.024Y-4.1339
X6.0244Y-3.1299
X6.0244Y-3.6181
X6.0311Y-4.622
X6.0838Y-3.4058
X6.095Y-4.4003
X6.107Y-3.6546
X6.1072Y-4.1515
X6.1693Y-3.524
X6.1776Y-4.8661
X6.1803Y-3.8622
X6.1954Y-4.4682
X6.2016Y-3.3402
X6.2024Y-3.7122
X6.2032Y-4.2194
X6.2126Y-4.3272
X6.2244Y-3.1807
X6.2244Y-3.5756
X6.2244Y-4.0906
X6.2244Y-4.6618
X6.2629Y-3.4454
X6.2629Y-3.5241
X6.2629Y-3.6029
X6.2629Y-3.6816
X6.2629Y-3.7603
X6.2629Y-3.8391
X6.2629Y-3.9178
X6.2629Y-3.9966
X6.2629Y-4.0753
X6.2629Y-4.154
X6.2629Y-4.2328
X6.2629Y-4.3115
X6.2629Y-4.3903
X6.2629Y-4.469
X6.2629Y-4.5477
X6.2629Y-3.2875
X6.2629Y-4.5867
X6.2649Y-3.3666
X6.4008Y-3.878
X6.4008Y-4.311
X6.4024Y-3.6803
X6.4028Y-3.1898
X6.4028Y-3.7209
X6.4028Y-4.6228
X6.4034Y-3.562
X6.4039Y-3.8398
X6.4043Y-4.3504
X6.4075Y-4.7441
X6.408Y-3.9962
X6.4093Y-4.1536
X6.4097Y-4.193
X6.4115Y-4.0355
X6.4155Y-3.5237
X6.4382Y-4.6642
X6.4685Y-3.1866
X6.4685Y-4.7839
X6.5016Y-4.6303
X6.5118Y-3.0079
X6.5232Y-3.1303
X6.5416Y-4.2718
X6.5425Y-3.7996
X6.5429Y-3.7613
X6.5445Y-3.6417
X6.5465Y-4.0118
X6.5504Y-3.9579
X6.5512Y-3.9173
X6.5512Y-4.1984
X6.5515Y-3.445
X6.5551Y-3.5177
X6.5571Y-4.0756
X6.5642Y-3.1732
X6.5701Y-3.7351
X6.5902Y-3.4154
X6.5909Y-4.226
X6.5937Y-3.224
X6.5961Y-4.4398
X6.6291Y-4.3417
X6.6512Y-3.5232
X6.6512Y-3.7756
X6.6512Y-4.2835
X6.6654Y-4.8661
X6.6934Y-3.6546
X6.698Y-4.4213
X6.7003Y-4.1515
X6.708Y-3.4058
X6.7126Y-3.2945
X6.7126Y-4.0543
X6.7126Y-4.2154
X6.7126Y-4.5461
X6.7126Y-4.7024
X6.7531Y-3.7402
X6.7551Y-3.4961
X6.7579Y-3.0079
X6.7689Y-3.6177
X6.8358Y-4.4295
T0
M30
