%TF.GenerationSoftware,KiCad,Pcbnew,5.1.9-73d0e3b20d~88~ubuntu20.04.1*%
%TF.CreationDate,2021-03-01T10:08:49-05:00*%
%TF.ProjectId,SiPM_Board,5369504d-5f42-46f6-9172-642e6b696361,rev?*%
%TF.SameCoordinates,Original*%
%TF.FileFunction,Paste,Top*%
%TF.FilePolarity,Positive*%
%FSLAX46Y46*%
G04 Gerber Fmt 4.6, Leading zero omitted, Abs format (unit mm)*
G04 Created by KiCad (PCBNEW 5.1.9-73d0e3b20d~88~ubuntu20.04.1) date 2021-03-01 10:08:49*
%MOMM*%
%LPD*%
G01*
G04 APERTURE LIST*
%ADD10C,1.000000*%
G04 APERTURE END LIST*
D10*
%TO.C,U5*%
X151900000Y-111200000D03*
X151900000Y-105000000D03*
X155000000Y-108100000D03*
X155000000Y-101900000D03*
X158100000Y-111200000D03*
X161200000Y-108100000D03*
X158100000Y-105000000D03*
X161200000Y-101900000D03*
X173600000Y-105000000D03*
X170500000Y-101900000D03*
X167400000Y-105000000D03*
X164300000Y-101900000D03*
X173600000Y-111200000D03*
X170500000Y-108100000D03*
X167400000Y-111200000D03*
X164300000Y-108100000D03*
X167400000Y-123600000D03*
X173600000Y-123600000D03*
X170500000Y-120500000D03*
X164300000Y-120500000D03*
X173600000Y-117400000D03*
X170500000Y-114300000D03*
X167400000Y-117400000D03*
X164300000Y-114300000D03*
X151900000Y-123600000D03*
X151900000Y-117400000D03*
X155000000Y-114300000D03*
X158100000Y-123600000D03*
X155000000Y-120500000D03*
X161200000Y-120500000D03*
X158100000Y-117400000D03*
X161200000Y-114300000D03*
%TD*%
%TO.C,U3*%
X126400000Y-111200000D03*
X126400000Y-105000000D03*
X129500000Y-108100000D03*
X129500000Y-101900000D03*
X132600000Y-111200000D03*
X135700000Y-108100000D03*
X132600000Y-105000000D03*
X135700000Y-101900000D03*
X148100000Y-105000000D03*
X145000000Y-101900000D03*
X141900000Y-105000000D03*
X138800000Y-101900000D03*
X148100000Y-111200000D03*
X145000000Y-108100000D03*
X141900000Y-111200000D03*
X138800000Y-108100000D03*
X141900000Y-123600000D03*
X148100000Y-123600000D03*
X145000000Y-120500000D03*
X138800000Y-120500000D03*
X148100000Y-117400000D03*
X145000000Y-114300000D03*
X141900000Y-117400000D03*
X138800000Y-114300000D03*
X126400000Y-123600000D03*
X126400000Y-117400000D03*
X129500000Y-114300000D03*
X132600000Y-123600000D03*
X129500000Y-120500000D03*
X135700000Y-120500000D03*
X132600000Y-117400000D03*
X135700000Y-114300000D03*
%TD*%
%TO.C,U4*%
X161200000Y-88800000D03*
X158100000Y-91900000D03*
X161200000Y-95000000D03*
X155000000Y-95000000D03*
X158100000Y-98100000D03*
X155000000Y-88800000D03*
X151900000Y-91900000D03*
X151900000Y-98100000D03*
X164300000Y-88800000D03*
X167400000Y-91900000D03*
X170500000Y-88800000D03*
X173600000Y-91900000D03*
X164300000Y-95000000D03*
X170500000Y-95000000D03*
X173600000Y-98100000D03*
X167400000Y-98100000D03*
X164300000Y-82600000D03*
X167400000Y-85700000D03*
X170500000Y-82600000D03*
X173600000Y-85700000D03*
X164300000Y-76400000D03*
X167400000Y-79500000D03*
X170500000Y-76400000D03*
X173600000Y-79500000D03*
X161200000Y-76400000D03*
X158100000Y-79500000D03*
X161200000Y-82600000D03*
X158100000Y-85700000D03*
X155000000Y-76400000D03*
X155000000Y-82600000D03*
X151900000Y-79500000D03*
X151900000Y-85700000D03*
%TD*%
%TO.C,U2*%
X126400000Y-85700000D03*
X126400000Y-79500000D03*
X129500000Y-82600000D03*
X129500000Y-76400000D03*
X132600000Y-85700000D03*
X135700000Y-82600000D03*
X132600000Y-79500000D03*
X135700000Y-76400000D03*
X148100000Y-79500000D03*
X145000000Y-76400000D03*
X141900000Y-79500000D03*
X138800000Y-76400000D03*
X148100000Y-85700000D03*
X145000000Y-82600000D03*
X141900000Y-85700000D03*
X138800000Y-82600000D03*
X141900000Y-98100000D03*
X148100000Y-98100000D03*
X145000000Y-95000000D03*
X138800000Y-95000000D03*
X148100000Y-91900000D03*
X145000000Y-88800000D03*
X141900000Y-91900000D03*
X138800000Y-88800000D03*
X126400000Y-98100000D03*
X126400000Y-91900000D03*
X129500000Y-88800000D03*
X132600000Y-98100000D03*
X129500000Y-95000000D03*
X135700000Y-95000000D03*
X132600000Y-91900000D03*
X135700000Y-88800000D03*
%TD*%
M02*
