%TF.GenerationSoftware,KiCad,Pcbnew,5.1.9-73d0e3b20d~88~ubuntu20.04.1*%
%TF.CreationDate,2021-02-23T10:44:39-05:00*%
%TF.ProjectId,SiPM_Board,5369504d-5f42-46f6-9172-642e6b696361,rev?*%
%TF.SameCoordinates,Original*%
%TF.FileFunction,Copper,L1,Top*%
%TF.FilePolarity,Positive*%
%FSLAX46Y46*%
G04 Gerber Fmt 4.6, Leading zero omitted, Abs format (unit mm)*
G04 Created by KiCad (PCBNEW 5.1.9-73d0e3b20d~88~ubuntu20.04.1) date 2021-02-23 10:44:39*
%MOMM*%
%LPD*%
G01*
G04 APERTURE LIST*
%TA.AperFunction,SMDPad,CuDef*%
%ADD10C,1.000000*%
%TD*%
%TA.AperFunction,ViaPad*%
%ADD11C,0.635000*%
%TD*%
%TA.AperFunction,Conductor*%
%ADD12C,0.294640*%
%TD*%
%TA.AperFunction,Conductor*%
%ADD13C,0.250000*%
%TD*%
G04 APERTURE END LIST*
D10*
%TO.P,U5,H4*%
%TO.N,/BIAS4*%
X151900000Y-111200000D03*
%TO.P,U5,H2*%
X151900000Y-105000000D03*
%TO.P,U5,G3*%
%TO.N,Net-(J2-Pad47)*%
X155000000Y-108100000D03*
%TO.P,U5,G1*%
%TO.N,Net-(J2-Pad39)*%
X155000000Y-101900000D03*
%TO.P,U5,F4*%
%TO.N,/BIAS4*%
X158100000Y-111200000D03*
%TO.P,U5,E3*%
%TO.N,Net-(J2-Pad45)*%
X161200000Y-108100000D03*
%TO.P,U5,F2*%
%TO.N,/BIAS4*%
X158100000Y-105000000D03*
%TO.P,U5,E1*%
%TO.N,Net-(J2-Pad37)*%
X161200000Y-101900000D03*
%TO.P,U5,A2*%
%TO.N,Net-(J2-Pad33)*%
X173600000Y-105000000D03*
%TO.P,U5,B1*%
%TO.N,/BIAS4*%
X170500000Y-101900000D03*
%TO.P,U5,C2*%
%TO.N,Net-(J2-Pad35)*%
X167400000Y-105000000D03*
%TO.P,U5,D1*%
%TO.N,/BIAS4*%
X164300000Y-101900000D03*
%TO.P,U5,A4*%
%TO.N,Net-(J2-Pad41)*%
X173600000Y-111200000D03*
%TO.P,U5,B3*%
%TO.N,/BIAS4*%
X170500000Y-108100000D03*
%TO.P,U5,C4*%
%TO.N,Net-(J2-Pad43)*%
X167400000Y-111200000D03*
%TO.P,U5,D3*%
%TO.N,/BIAS4*%
X164300000Y-108100000D03*
%TO.P,U5,C8*%
%TO.N,Net-(J2-Pad59)*%
X167400000Y-123600000D03*
%TO.P,U5,A8*%
%TO.N,Net-(J2-Pad57)*%
X173600000Y-123600000D03*
%TO.P,U5,B7*%
%TO.N,/BIAS4*%
X170500000Y-120500000D03*
%TO.P,U5,D7*%
X164300000Y-120500000D03*
%TO.P,U5,A6*%
%TO.N,Net-(J2-Pad49)*%
X173600000Y-117400000D03*
%TO.P,U5,B5*%
%TO.N,/BIAS4*%
X170500000Y-114300000D03*
%TO.P,U5,C6*%
%TO.N,Net-(J2-Pad51)*%
X167400000Y-117400000D03*
%TO.P,U5,D5*%
%TO.N,/BIAS4*%
X164300000Y-114300000D03*
%TO.P,U5,H8*%
X151900000Y-123600000D03*
%TO.P,U5,H6*%
X151900000Y-117400000D03*
%TO.P,U5,G5*%
%TO.N,Net-(J2-Pad55)*%
X155000000Y-114300000D03*
%TO.P,U5,F8*%
%TO.N,/BIAS4*%
X158100000Y-123600000D03*
%TO.P,U5,G7*%
%TO.N,Net-(J2-Pad63)*%
X155000000Y-120500000D03*
%TO.P,U5,E7*%
%TO.N,Net-(J2-Pad61)*%
X161200000Y-120500000D03*
%TO.P,U5,F6*%
%TO.N,/BIAS4*%
X158100000Y-117400000D03*
%TO.P,U5,E5*%
%TO.N,Net-(J2-Pad53)*%
X161200000Y-114300000D03*
%TD*%
%TO.P,U3,H4*%
%TO.N,/BIAS2*%
X126400000Y-111200000D03*
%TO.P,U3,H2*%
X126400000Y-105000000D03*
%TO.P,U3,G3*%
%TO.N,Net-(J1-Pad47)*%
X129500000Y-108100000D03*
%TO.P,U3,G1*%
%TO.N,Net-(J1-Pad39)*%
X129500000Y-101900000D03*
%TO.P,U3,F4*%
%TO.N,/BIAS2*%
X132600000Y-111200000D03*
%TO.P,U3,E3*%
%TO.N,Net-(J1-Pad45)*%
X135700000Y-108100000D03*
%TO.P,U3,F2*%
%TO.N,/BIAS2*%
X132600000Y-105000000D03*
%TO.P,U3,E1*%
%TO.N,Net-(J1-Pad37)*%
X135700000Y-101900000D03*
%TO.P,U3,A2*%
%TO.N,Net-(J1-Pad33)*%
X148100000Y-105000000D03*
%TO.P,U3,B1*%
%TO.N,/BIAS2*%
X145000000Y-101900000D03*
%TO.P,U3,C2*%
%TO.N,Net-(J1-Pad35)*%
X141900000Y-105000000D03*
%TO.P,U3,D1*%
%TO.N,/BIAS2*%
X138800000Y-101900000D03*
%TO.P,U3,A4*%
%TO.N,Net-(J1-Pad41)*%
X148100000Y-111200000D03*
%TO.P,U3,B3*%
%TO.N,/BIAS2*%
X145000000Y-108100000D03*
%TO.P,U3,C4*%
%TO.N,Net-(J1-Pad43)*%
X141900000Y-111200000D03*
%TO.P,U3,D3*%
%TO.N,/BIAS2*%
X138800000Y-108100000D03*
%TO.P,U3,C8*%
%TO.N,Net-(J1-Pad59)*%
X141900000Y-123600000D03*
%TO.P,U3,A8*%
%TO.N,Net-(J1-Pad57)*%
X148100000Y-123600000D03*
%TO.P,U3,B7*%
%TO.N,/BIAS2*%
X145000000Y-120500000D03*
%TO.P,U3,D7*%
X138800000Y-120500000D03*
%TO.P,U3,A6*%
%TO.N,Net-(J1-Pad49)*%
X148100000Y-117400000D03*
%TO.P,U3,B5*%
%TO.N,/BIAS2*%
X145000000Y-114300000D03*
%TO.P,U3,C6*%
%TO.N,Net-(J1-Pad51)*%
X141900000Y-117400000D03*
%TO.P,U3,D5*%
%TO.N,/BIAS2*%
X138800000Y-114300000D03*
%TO.P,U3,H8*%
X126400000Y-123600000D03*
%TO.P,U3,H6*%
X126400000Y-117400000D03*
%TO.P,U3,G5*%
%TO.N,Net-(J1-Pad55)*%
X129500000Y-114300000D03*
%TO.P,U3,F8*%
%TO.N,/BIAS2*%
X132600000Y-123600000D03*
%TO.P,U3,G7*%
%TO.N,Net-(J1-Pad63)*%
X129500000Y-120500000D03*
%TO.P,U3,E7*%
%TO.N,Net-(J1-Pad61)*%
X135700000Y-120500000D03*
%TO.P,U3,F6*%
%TO.N,/BIAS2*%
X132600000Y-117400000D03*
%TO.P,U3,E5*%
%TO.N,Net-(J1-Pad53)*%
X135700000Y-114300000D03*
%TD*%
%TO.P,U4,E5*%
%TO.N,Net-(J2-Pad21)*%
X161200000Y-88800000D03*
%TO.P,U4,F6*%
%TO.N,/BIAS3*%
X158100000Y-91900000D03*
%TO.P,U4,E7*%
%TO.N,Net-(J2-Pad29)*%
X161200000Y-95000000D03*
%TO.P,U4,G7*%
%TO.N,Net-(J2-Pad31)*%
X155000000Y-95000000D03*
%TO.P,U4,F8*%
%TO.N,/BIAS3*%
X158100000Y-98100000D03*
%TO.P,U4,G5*%
%TO.N,Net-(J2-Pad23)*%
X155000000Y-88800000D03*
%TO.P,U4,H6*%
%TO.N,/BIAS3*%
X151900000Y-91900000D03*
%TO.P,U4,H8*%
X151900000Y-98100000D03*
%TO.P,U4,D5*%
X164300000Y-88800000D03*
%TO.P,U4,C6*%
%TO.N,Net-(J2-Pad19)*%
X167400000Y-91900000D03*
%TO.P,U4,B5*%
%TO.N,/BIAS3*%
X170500000Y-88800000D03*
%TO.P,U4,A6*%
%TO.N,Net-(J2-Pad17)*%
X173600000Y-91900000D03*
%TO.P,U4,D7*%
%TO.N,/BIAS3*%
X164300000Y-95000000D03*
%TO.P,U4,B7*%
X170500000Y-95000000D03*
%TO.P,U4,A8*%
%TO.N,Net-(J2-Pad25)*%
X173600000Y-98100000D03*
%TO.P,U4,C8*%
%TO.N,Net-(J2-Pad27)*%
X167400000Y-98100000D03*
%TO.P,U4,D3*%
%TO.N,/BIAS3*%
X164300000Y-82600000D03*
%TO.P,U4,C4*%
%TO.N,Net-(J2-Pad11)*%
X167400000Y-85700000D03*
%TO.P,U4,B3*%
%TO.N,/BIAS3*%
X170500000Y-82600000D03*
%TO.P,U4,A4*%
%TO.N,Net-(J2-Pad9)*%
X173600000Y-85700000D03*
%TO.P,U4,D1*%
%TO.N,/BIAS3*%
X164300000Y-76400000D03*
%TO.P,U4,C2*%
%TO.N,Net-(J2-Pad3)*%
X167400000Y-79500000D03*
%TO.P,U4,B1*%
%TO.N,/BIAS3*%
X170500000Y-76400000D03*
%TO.P,U4,A2*%
%TO.N,Net-(J2-Pad1)*%
X173600000Y-79500000D03*
%TO.P,U4,E1*%
%TO.N,Net-(J2-Pad5)*%
X161200000Y-76400000D03*
%TO.P,U4,F2*%
%TO.N,/BIAS3*%
X158100000Y-79500000D03*
%TO.P,U4,E3*%
%TO.N,Net-(J2-Pad13)*%
X161200000Y-82600000D03*
%TO.P,U4,F4*%
%TO.N,/BIAS3*%
X158100000Y-85700000D03*
%TO.P,U4,G1*%
%TO.N,Net-(J2-Pad7)*%
X155000000Y-76400000D03*
%TO.P,U4,G3*%
%TO.N,Net-(J2-Pad15)*%
X155000000Y-82600000D03*
%TO.P,U4,H2*%
%TO.N,/BIAS3*%
X151900000Y-79500000D03*
%TO.P,U4,H4*%
X151900000Y-85700000D03*
%TD*%
%TO.P,U2,H4*%
%TO.N,/BIAS1*%
X126400000Y-85700000D03*
%TO.P,U2,H2*%
X126400000Y-79500000D03*
%TO.P,U2,G3*%
%TO.N,Net-(J1-Pad15)*%
X129500000Y-82600000D03*
%TO.P,U2,G1*%
%TO.N,Net-(J1-Pad7)*%
X129500000Y-76400000D03*
%TO.P,U2,F4*%
%TO.N,/BIAS1*%
X132600000Y-85700000D03*
%TO.P,U2,E3*%
%TO.N,Net-(J1-Pad13)*%
X135700000Y-82600000D03*
%TO.P,U2,F2*%
%TO.N,/BIAS1*%
X132600000Y-79500000D03*
%TO.P,U2,E1*%
%TO.N,Net-(J1-Pad5)*%
X135700000Y-76400000D03*
%TO.P,U2,A2*%
%TO.N,Net-(J1-Pad1)*%
X148100000Y-79500000D03*
%TO.P,U2,B1*%
%TO.N,/BIAS1*%
X145000000Y-76400000D03*
%TO.P,U2,C2*%
%TO.N,Net-(J1-Pad3)*%
X141900000Y-79500000D03*
%TO.P,U2,D1*%
%TO.N,/BIAS1*%
X138800000Y-76400000D03*
%TO.P,U2,A4*%
%TO.N,Net-(J1-Pad9)*%
X148100000Y-85700000D03*
%TO.P,U2,B3*%
%TO.N,/BIAS1*%
X145000000Y-82600000D03*
%TO.P,U2,C4*%
%TO.N,Net-(J1-Pad11)*%
X141900000Y-85700000D03*
%TO.P,U2,D3*%
%TO.N,/BIAS1*%
X138800000Y-82600000D03*
%TO.P,U2,C8*%
%TO.N,Net-(J1-Pad27)*%
X141900000Y-98100000D03*
%TO.P,U2,A8*%
%TO.N,Net-(J1-Pad25)*%
X148100000Y-98100000D03*
%TO.P,U2,B7*%
%TO.N,/BIAS1*%
X145000000Y-95000000D03*
%TO.P,U2,D7*%
X138800000Y-95000000D03*
%TO.P,U2,A6*%
%TO.N,Net-(J1-Pad17)*%
X148100000Y-91900000D03*
%TO.P,U2,B5*%
%TO.N,/BIAS1*%
X145000000Y-88800000D03*
%TO.P,U2,C6*%
%TO.N,Net-(J1-Pad19)*%
X141900000Y-91900000D03*
%TO.P,U2,D5*%
%TO.N,/BIAS1*%
X138800000Y-88800000D03*
%TO.P,U2,H8*%
X126400000Y-98100000D03*
%TO.P,U2,H6*%
X126400000Y-91900000D03*
%TO.P,U2,G5*%
%TO.N,Net-(J1-Pad23)*%
X129500000Y-88800000D03*
%TO.P,U2,F8*%
%TO.N,/BIAS1*%
X132600000Y-98100000D03*
%TO.P,U2,G7*%
%TO.N,Net-(J1-Pad31)*%
X129500000Y-95000000D03*
%TO.P,U2,E7*%
%TO.N,Net-(J1-Pad29)*%
X135700000Y-95000000D03*
%TO.P,U2,F6*%
%TO.N,/BIAS1*%
X132600000Y-91900000D03*
%TO.P,U2,E5*%
%TO.N,Net-(J1-Pad21)*%
X135700000Y-88800000D03*
%TD*%
D11*
%TO.N,GND*%
X133707308Y-111522692D03*
X133707308Y-103522692D03*
X133707308Y-101522692D03*
X133707308Y-87522692D03*
X133707308Y-115522692D03*
X133707308Y-113522692D03*
X133707308Y-107522692D03*
X133707308Y-105522692D03*
X133707308Y-109522692D03*
X133827308Y-95432692D03*
X133707308Y-85522692D03*
X133707308Y-93522692D03*
X133707308Y-91522692D03*
X133707308Y-89522692D03*
X133707308Y-99522692D03*
X133707308Y-97522692D03*
X159077308Y-111512692D03*
X159077308Y-103512692D03*
X159077308Y-101512692D03*
X159077308Y-87512692D03*
X159077308Y-115512692D03*
X159077308Y-113512692D03*
X159077308Y-107512692D03*
X159077308Y-105512692D03*
X159077308Y-109512692D03*
X159077308Y-95512692D03*
X159077308Y-93512692D03*
X159077308Y-91512692D03*
X159077308Y-89512692D03*
X159077308Y-99512692D03*
X159077308Y-97512692D03*
X143870000Y-89500000D03*
X168940000Y-89490000D03*
X167540000Y-112770000D03*
X132427500Y-113492500D03*
X156700000Y-89510000D03*
X157362500Y-113492500D03*
X132167500Y-88232500D03*
X152860000Y-100000000D03*
X144880000Y-113040000D03*
X132057500Y-107172500D03*
X142670000Y-106620000D03*
X157562500Y-107172500D03*
X132240000Y-94280000D03*
X143870000Y-95620000D03*
X157540000Y-94290000D03*
X168940000Y-95900000D03*
X168940000Y-108800000D03*
X147910000Y-100000000D03*
X159127308Y-85512692D03*
X150000000Y-105400000D03*
%TO.N,/BIAS1*%
X133762700Y-83502700D03*
X142170000Y-95100000D03*
X127570000Y-79500000D03*
X126400000Y-84610000D03*
X132600000Y-90800000D03*
X126400000Y-96980000D03*
X131640000Y-98100000D03*
X144992500Y-86507500D03*
X138800000Y-80870000D03*
X132600000Y-80550000D03*
X129852500Y-92827500D03*
X145142500Y-92827500D03*
X127420000Y-91900000D03*
X129970000Y-86520000D03*
X131855000Y-84955000D03*
X139990000Y-76400000D03*
X146090000Y-76400000D03*
X145000000Y-83680000D03*
X146080000Y-95000000D03*
X146120000Y-88800000D03*
X141210000Y-89220000D03*
%TO.N,/BIAS2*%
X133757366Y-116502634D03*
X131470000Y-123600000D03*
X140110000Y-120500000D03*
X138800000Y-117340000D03*
X126400000Y-112350000D03*
X129382500Y-111767500D03*
X132600000Y-109880000D03*
X141060000Y-106710000D03*
X141020000Y-101900000D03*
X132600000Y-118350000D03*
X146030000Y-120500000D03*
X146440000Y-114300000D03*
X144877500Y-111767500D03*
X130042500Y-105447500D03*
X145670000Y-105450000D03*
X145930000Y-109030000D03*
X127460000Y-117400000D03*
X126400000Y-122580000D03*
X126400000Y-103930000D03*
X132600000Y-103870000D03*
X146070000Y-101900000D03*
%TO.N,Net-(J1-Pad63)*%
X137360000Y-117500000D03*
%TO.N,Net-(J1-Pad61)*%
X140990000Y-113510000D03*
%TO.N,Net-(J1-Pad59)*%
X142747358Y-112502642D03*
%TO.N,Net-(J1-Pad57)*%
X143467356Y-110300000D03*
%TO.N,Net-(J1-Pad55)*%
X137460000Y-110500000D03*
%TO.N,Net-(J1-Pad53)*%
X137330000Y-109500000D03*
%TO.N,Net-(J1-Pad51)*%
X140880000Y-108500000D03*
%TO.N,Net-(J1-Pad49)*%
X143550000Y-108490000D03*
%TO.N,Net-(J1-Pad47)*%
X137360000Y-106510000D03*
%TO.N,Net-(J1-Pad45)*%
X137390000Y-105520000D03*
%TO.N,Net-(J1-Pad43)*%
X141900000Y-106050000D03*
%TO.N,Net-(J1-Pad41)*%
X142640000Y-103500000D03*
%TO.N,Net-(J1-Pad39)*%
X137440000Y-102520000D03*
%TO.N,Net-(J1-Pad37)*%
X137350000Y-101510000D03*
%TO.N,Net-(J1-Pad35)*%
X140970000Y-100500000D03*
%TO.N,Net-(J1-Pad33)*%
X140860000Y-99480000D03*
%TO.N,Net-(J1-Pad31)*%
X137360000Y-98500000D03*
%TO.N,Net-(J1-Pad29)*%
X137340000Y-97510000D03*
%TO.N,Net-(J1-Pad27)*%
X140950000Y-96520000D03*
%TO.N,Net-(J1-Pad25)*%
X140920000Y-95500000D03*
%TO.N,Net-(J1-Pad23)*%
X137320000Y-94500000D03*
%TO.N,Net-(J1-Pad21)*%
X137340000Y-93510000D03*
%TO.N,Net-(J1-Pad19)*%
X140930000Y-92510000D03*
%TO.N,Net-(J1-Pad17)*%
X146870000Y-91900000D03*
%TO.N,Net-(J1-Pad15)*%
X137450000Y-90520000D03*
%TO.N,Net-(J1-Pad13)*%
X137430000Y-89490000D03*
%TO.N,Net-(J1-Pad11)*%
X141900000Y-86720000D03*
%TO.N,Net-(J1-Pad9)*%
X140930000Y-87510000D03*
%TO.N,Net-(J1-Pad7)*%
X137400000Y-80900000D03*
%TO.N,Net-(J1-Pad5)*%
X141730000Y-81890000D03*
%TO.N,Net-(J1-Pad3)*%
X141000000Y-80650000D03*
%TO.N,Net-(J1-Pad1)*%
X139760000Y-79450000D03*
%TO.N,Net-(J2-Pad63)*%
X162630000Y-117420000D03*
%TO.N,Net-(J2-Pad61)*%
X162750000Y-120500000D03*
%TO.N,Net-(J2-Pad59)*%
X169300000Y-123600000D03*
%TO.N,Net-(J2-Pad57)*%
X168380000Y-110280000D03*
%TO.N,Net-(J2-Pad55)*%
X162670000Y-110500000D03*
%TO.N,Net-(J2-Pad53)*%
X162580000Y-109500000D03*
%TO.N,Net-(J2-Pad51)*%
X166157350Y-108502650D03*
%TO.N,Net-(J2-Pad49)*%
X173630000Y-112510000D03*
%TO.N,Net-(J2-Pad47)*%
X162807346Y-106502654D03*
%TO.N,Net-(J2-Pad45)*%
X162797344Y-105502656D03*
%TO.N,Net-(J2-Pad43)*%
X167409603Y-107339603D03*
%TO.N,Net-(J2-Pad41)*%
X166550000Y-103520000D03*
%TO.N,Net-(J2-Pad39)*%
X162852662Y-102502662D03*
%TO.N,Net-(J2-Pad37)*%
X162762664Y-101502664D03*
%TO.N,Net-(J2-Pad35)*%
X166380000Y-100530000D03*
%TO.N,Net-(J2-Pad33)*%
X166400000Y-99500000D03*
%TO.N,Net-(J2-Pad31)*%
X162580000Y-98500000D03*
%TO.N,Net-(J2-Pad29)*%
X162660000Y-97530000D03*
%TO.N,Net-(J2-Pad27)*%
X166180000Y-96510000D03*
%TO.N,Net-(J2-Pad25)*%
X166190000Y-95536064D03*
%TO.N,Net-(J2-Pad23)*%
X162630000Y-94510000D03*
%TO.N,Net-(J2-Pad21)*%
X162620000Y-93480000D03*
%TO.N,Net-(J2-Pad19)*%
X166230000Y-92500000D03*
%TO.N,Net-(J2-Pad17)*%
X171930000Y-91890000D03*
%TO.N,Net-(J2-Pad15)*%
X162645789Y-90474211D03*
%TO.N,Net-(J2-Pad13)*%
X162952688Y-89502688D03*
%TO.N,Net-(J2-Pad11)*%
X167390000Y-86750000D03*
%TO.N,Net-(J2-Pad9)*%
X166407308Y-87502692D03*
%TO.N,Net-(J2-Pad7)*%
X162630000Y-81020000D03*
%TO.N,Net-(J2-Pad5)*%
X167480000Y-81890000D03*
%TO.N,Net-(J2-Pad3)*%
X166730000Y-80600000D03*
%TO.N,Net-(J2-Pad1)*%
X165690000Y-79510000D03*
%TO.N,/BIAS3*%
X159078000Y-83502700D03*
X151900000Y-96900000D03*
X156980000Y-98100000D03*
X153020000Y-91900000D03*
X158100000Y-90820000D03*
X151900000Y-84510000D03*
X166500000Y-89350000D03*
X170382500Y-86507500D03*
X154527500Y-86507500D03*
X164300000Y-80940000D03*
X158100000Y-80790000D03*
X155117500Y-92827500D03*
X170012500Y-92827500D03*
X153020000Y-79500000D03*
X165400000Y-76400000D03*
X171650000Y-76400000D03*
X170500000Y-83680000D03*
X171580000Y-88800000D03*
X171530000Y-95000000D03*
X166881243Y-94871243D03*
X157520000Y-84840000D03*
%TO.N,/BIAS4*%
X159078000Y-116502634D03*
X156910000Y-123600000D03*
X151900000Y-122430000D03*
X153190000Y-117400000D03*
X154812500Y-111767500D03*
X151900000Y-109860000D03*
X166280000Y-101900000D03*
X170500000Y-102980000D03*
X166400000Y-106640000D03*
X170500000Y-107070000D03*
X170500000Y-115470000D03*
X170500000Y-119440000D03*
X157800000Y-109910000D03*
X164300000Y-121510000D03*
X158100000Y-118410000D03*
X170130000Y-112300000D03*
X163530000Y-118470000D03*
X153010000Y-105000000D03*
X170187500Y-105447500D03*
X155122500Y-105447500D03*
X158100000Y-103900000D03*
X165140000Y-117610000D03*
%TD*%
D12*
%TO.N,/BIAS1*%
X126400000Y-98100000D02*
X126400000Y-96980000D01*
X132600000Y-98100000D02*
X131640000Y-98100000D01*
X132600000Y-91900000D02*
X132600000Y-90800000D01*
X126400000Y-85700000D02*
X126400000Y-84610000D01*
X126400000Y-79500000D02*
X127570000Y-79500000D01*
X138800000Y-82600000D02*
X138800000Y-80870000D01*
X139299999Y-94500001D02*
X141570001Y-94500001D01*
X138800000Y-95000000D02*
X139299999Y-94500001D01*
X141570001Y-94500001D02*
X142170000Y-95100000D01*
X132600000Y-79500000D02*
X132600000Y-80550000D01*
X126400000Y-91900000D02*
X127420000Y-91900000D01*
X131855000Y-84955000D02*
X131740000Y-84840000D01*
X131740000Y-84840000D02*
X132600000Y-85700000D01*
X138800000Y-76400000D02*
X139990000Y-76400000D01*
X145000000Y-76400000D02*
X146090000Y-76400000D01*
X145000000Y-82600000D02*
X145000000Y-83680000D01*
X145000000Y-95000000D02*
X146080000Y-95000000D01*
X145000000Y-88800000D02*
X146120000Y-88800000D01*
X138800000Y-88800000D02*
X140790000Y-88800000D01*
X140790000Y-88800000D02*
X141210000Y-89220000D01*
%TO.N,/BIAS2*%
X132600000Y-117400000D02*
X132860000Y-117400000D01*
X132600000Y-111200000D02*
X132600000Y-109880000D01*
X126400000Y-111200000D02*
X126400000Y-112350000D01*
X132600000Y-123600000D02*
X131470000Y-123600000D01*
X138800000Y-101900000D02*
X141020000Y-101900000D01*
X138800000Y-108100000D02*
X140190000Y-106710000D01*
X140190000Y-106710000D02*
X141060000Y-106710000D01*
X138800000Y-114300000D02*
X138800000Y-117340000D01*
X138800000Y-120500000D02*
X140110000Y-120500000D01*
X132600000Y-117400000D02*
X132600000Y-118350000D01*
X145000000Y-120500000D02*
X146030000Y-120500000D01*
X145000000Y-114300000D02*
X146440000Y-114300000D01*
X145000000Y-108100000D02*
X145930000Y-109030000D01*
X126400000Y-117400000D02*
X127460000Y-117400000D01*
X126400000Y-123600000D02*
X126400000Y-122580000D01*
X126400000Y-105000000D02*
X126400000Y-103930000D01*
X132600000Y-105000000D02*
X132600000Y-103870000D01*
X145000000Y-101900000D02*
X146070000Y-101900000D01*
%TO.N,Net-(J1-Pad63)*%
X135207321Y-119652679D02*
X137360000Y-117500000D01*
X130347321Y-119652679D02*
X135207321Y-119652679D01*
X129500000Y-120500000D02*
X130347321Y-119652679D01*
%TO.N,Net-(J1-Pad61)*%
X140990000Y-116410000D02*
X140990000Y-113510000D01*
X136900000Y-120500000D02*
X140990000Y-116410000D01*
X135700000Y-120500000D02*
X136900000Y-120500000D01*
%TO.N,Net-(J1-Pad59)*%
X142747358Y-112502642D02*
X142747358Y-114747358D01*
X142747358Y-114747358D02*
X144350000Y-116350000D01*
X144350000Y-116350000D02*
X144350000Y-119000000D01*
X141900000Y-121450000D02*
X141900000Y-123600000D01*
X144350000Y-119000000D02*
X141900000Y-121450000D01*
%TO.N,Net-(J1-Pad57)*%
X143467356Y-114021392D02*
X143467356Y-110300000D01*
X148100000Y-118654036D02*
X143467356Y-114021392D01*
X148100000Y-123600000D02*
X148100000Y-118654036D01*
%TO.N,Net-(J1-Pad55)*%
X137060000Y-115830000D02*
X137460000Y-115430000D01*
X134998552Y-115830000D02*
X137060000Y-115830000D01*
X137460000Y-115430000D02*
X137460000Y-110500000D01*
X133468552Y-114300000D02*
X134998552Y-115830000D01*
X129500000Y-114300000D02*
X133468552Y-114300000D01*
%TO.N,Net-(J1-Pad53)*%
X135700000Y-111130000D02*
X135700000Y-114300000D01*
X137330000Y-109500000D02*
X135700000Y-111130000D01*
%TO.N,Net-(J1-Pad51)*%
X141900000Y-117400000D02*
X141900000Y-113020000D01*
X140880000Y-112000000D02*
X140880000Y-108500000D01*
X141900000Y-113020000D02*
X140880000Y-112000000D01*
%TO.N,Net-(J1-Pad49)*%
X148100000Y-113040000D02*
X143550000Y-108490000D01*
X148100000Y-117400000D02*
X148100000Y-113040000D01*
%TO.N,Net-(J1-Pad47)*%
X133268552Y-108100000D02*
X134518552Y-109350000D01*
X129500000Y-108100000D02*
X133268552Y-108100000D01*
X134518552Y-109350000D02*
X136330000Y-109350000D01*
X137360000Y-108320000D02*
X137360000Y-106510000D01*
X136330000Y-109350000D02*
X137360000Y-108320000D01*
%TO.N,Net-(J1-Pad45)*%
X135700000Y-108100000D02*
X135700000Y-107210000D01*
X135700000Y-107210000D02*
X137390000Y-105520000D01*
%TO.N,Net-(J1-Pad43)*%
X141900000Y-111200000D02*
X141900000Y-106050000D01*
%TO.N,Net-(J1-Pad41)*%
X148100000Y-111200000D02*
X148100000Y-108960000D01*
X148100000Y-108960000D02*
X142640000Y-103500000D01*
%TO.N,Net-(J1-Pad39)*%
X130347321Y-102747321D02*
X137052679Y-102747321D01*
X129500000Y-101900000D02*
X130347321Y-102747321D01*
X137052679Y-102747321D02*
X137212679Y-102747321D01*
X137212679Y-102747321D02*
X137440000Y-102520000D01*
%TO.N,Net-(J1-Pad37)*%
X135700000Y-101900000D02*
X136960000Y-101900000D01*
X136960000Y-101900000D02*
X137350000Y-101510000D01*
%TO.N,Net-(J1-Pad35)*%
X141900000Y-105000000D02*
X141900000Y-101430000D01*
X141900000Y-101430000D02*
X140970000Y-100500000D01*
%TO.N,Net-(J1-Pad33)*%
X146845964Y-105000000D02*
X141325964Y-99480000D01*
X148100000Y-105000000D02*
X146845964Y-105000000D01*
X141325964Y-99480000D02*
X140860000Y-99480000D01*
%TO.N,Net-(J1-Pad31)*%
X132253936Y-95000000D02*
X135753936Y-98500000D01*
X129500000Y-95000000D02*
X132253936Y-95000000D01*
X135753936Y-98500000D02*
X137360000Y-98500000D01*
%TO.N,Net-(J1-Pad29)*%
X135700000Y-95000000D02*
X135700000Y-95870000D01*
X135700000Y-95870000D02*
X137340000Y-97510000D01*
%TO.N,Net-(J1-Pad27)*%
X141900000Y-98100000D02*
X140950000Y-97150000D01*
X140950000Y-97150000D02*
X140950000Y-96520000D01*
%TO.N,Net-(J1-Pad25)*%
X147482679Y-98717321D02*
X144137321Y-98717321D01*
X148100000Y-98100000D02*
X147482679Y-98717321D01*
X144137321Y-98717321D02*
X140920000Y-95500000D01*
%TO.N,Net-(J1-Pad23)*%
X132283823Y-92837859D02*
X135657859Y-92837859D01*
X129500000Y-90054036D02*
X132283823Y-92837859D01*
X129500000Y-88800000D02*
X129500000Y-90054036D01*
X135657859Y-92837859D02*
X137320000Y-94500000D01*
%TO.N,Net-(J1-Pad21)*%
X135700000Y-88800000D02*
X135700000Y-90350000D01*
X137340000Y-91990000D02*
X137340000Y-93510000D01*
X135700000Y-90350000D02*
X137340000Y-91990000D01*
%TO.N,Net-(J1-Pad19)*%
X141900000Y-91900000D02*
X141290000Y-92510000D01*
X141290000Y-92510000D02*
X140930000Y-92510000D01*
%TO.N,Net-(J1-Pad17)*%
X148100000Y-91900000D02*
X146870000Y-91900000D01*
%TO.N,Net-(J1-Pad15)*%
X137395110Y-90520000D02*
X137450000Y-90520000D01*
X136765179Y-89835179D02*
X137450000Y-90520000D01*
X133336073Y-84167521D02*
X136765179Y-87596627D01*
X136765179Y-87596627D02*
X136765179Y-89835179D01*
X131067521Y-84167521D02*
X133336073Y-84167521D01*
X129500000Y-82600000D02*
X131067521Y-84167521D01*
%TO.N,Net-(J1-Pad13)*%
X137430000Y-84330000D02*
X135700000Y-82600000D01*
X137430000Y-89490000D02*
X137430000Y-84330000D01*
%TO.N,Net-(J1-Pad11)*%
X141900000Y-85700000D02*
X141900000Y-86720000D01*
%TO.N,Net-(J1-Pad9)*%
X146290000Y-87510000D02*
X140930000Y-87510000D01*
X148100000Y-85700000D02*
X146290000Y-87510000D01*
%TO.N,Net-(J1-Pad7)*%
X132900000Y-76400000D02*
X137400000Y-80900000D01*
X129500000Y-76400000D02*
X132900000Y-76400000D01*
%TO.N,Net-(J1-Pad5)*%
X141190000Y-81890000D02*
X141730000Y-81890000D01*
X135700000Y-76400000D02*
X141190000Y-81890000D01*
%TO.N,Net-(J1-Pad3)*%
X141900000Y-79750000D02*
X141000000Y-80650000D01*
X141900000Y-79500000D02*
X141900000Y-79750000D01*
%TO.N,Net-(J1-Pad1)*%
X148100000Y-79500000D02*
X146610000Y-78010000D01*
X141200000Y-78010000D02*
X139760000Y-79450000D01*
X146610000Y-78010000D02*
X141200000Y-78010000D01*
%TO.N,Net-(J2-Pad63)*%
X155000000Y-120500000D02*
X157990000Y-120500000D01*
X161070000Y-117420000D02*
X162630000Y-117420000D01*
X157990000Y-120500000D02*
X161070000Y-117420000D01*
%TO.N,Net-(J2-Pad61)*%
X161200000Y-120500000D02*
X162750000Y-120500000D01*
%TO.N,Net-(J2-Pad59)*%
X167400000Y-123600000D02*
X169300000Y-123600000D01*
%TO.N,Net-(J2-Pad57)*%
X173600000Y-123600000D02*
X173600000Y-120170000D01*
X173600000Y-120170000D02*
X172020000Y-118590000D01*
X169093936Y-110280000D02*
X168380000Y-110280000D01*
X172020000Y-113206064D02*
X169093936Y-110280000D01*
X172020000Y-118590000D02*
X172020000Y-113206064D01*
%TO.N,Net-(J2-Pad55)*%
X161606715Y-115147321D02*
X162670000Y-114084036D01*
X159695873Y-115147321D02*
X161606715Y-115147321D01*
X162670000Y-114084036D02*
X162670000Y-110500000D01*
X158848552Y-114300000D02*
X159695873Y-115147321D01*
X155000000Y-114300000D02*
X158848552Y-114300000D01*
%TO.N,Net-(J2-Pad53)*%
X162000000Y-109500000D02*
X162580000Y-109500000D01*
X161200000Y-110300000D02*
X162000000Y-109500000D01*
X161200000Y-114300000D02*
X161200000Y-110300000D01*
%TO.N,Net-(J2-Pad51)*%
X167400000Y-117400000D02*
X166450000Y-117400000D01*
X166450000Y-117400000D02*
X166130000Y-117080000D01*
X166130000Y-108530000D02*
X166157350Y-108502650D01*
X166130000Y-117080000D02*
X166130000Y-108530000D01*
%TO.N,Net-(J2-Pad49)*%
X173600000Y-112540000D02*
X173630000Y-112510000D01*
X173600000Y-117400000D02*
X173600000Y-112540000D01*
%TO.N,Net-(J2-Pad47)*%
X162807346Y-107746690D02*
X162807346Y-106502654D01*
X155000000Y-108100000D02*
X158670000Y-108100000D01*
X158670000Y-108100000D02*
X160005230Y-109435230D01*
X160005230Y-109435230D02*
X161365230Y-109435230D01*
X162807346Y-107993114D02*
X162807346Y-107746690D01*
X161365230Y-109435230D02*
X162807346Y-107993114D01*
%TO.N,Net-(J2-Pad45)*%
X161200000Y-107100000D02*
X162797344Y-105502656D01*
X161200000Y-108100000D02*
X161200000Y-107100000D01*
%TO.N,Net-(J2-Pad43)*%
X167400000Y-111200000D02*
X167409603Y-107339603D01*
%TO.N,Net-(J2-Pad41)*%
X166550000Y-103520000D02*
X166550000Y-103500000D01*
X172345964Y-111200000D02*
X173600000Y-111200000D01*
X166550000Y-105404036D02*
X172345964Y-111200000D01*
X166550000Y-103520000D02*
X166550000Y-105404036D01*
%TO.N,Net-(J2-Pad39)*%
X158448552Y-101900000D02*
X160488552Y-103940000D01*
X155000000Y-101900000D02*
X158448552Y-101900000D01*
X161415324Y-103940000D02*
X162852662Y-102502662D01*
X160488552Y-103940000D02*
X161415324Y-103940000D01*
%TO.N,Net-(J2-Pad37)*%
X162365328Y-101900000D02*
X162762664Y-101502664D01*
X161200000Y-101900000D02*
X162365328Y-101900000D01*
%TO.N,Net-(J2-Pad35)*%
X167400000Y-105000000D02*
X167400000Y-101230000D01*
X167400000Y-101230000D02*
X166700000Y-100530000D01*
X166700000Y-100530000D02*
X166380000Y-100530000D01*
%TO.N,Net-(J2-Pad33)*%
X173600000Y-103745964D02*
X169354036Y-99500000D01*
X173600000Y-105000000D02*
X173600000Y-103745964D01*
X169354036Y-99500000D02*
X166400000Y-99500000D01*
%TO.N,Net-(J2-Pad31)*%
X157548552Y-95000000D02*
X161048552Y-98500000D01*
X155000000Y-95000000D02*
X157548552Y-95000000D01*
X161048552Y-98500000D02*
X162580000Y-98500000D01*
%TO.N,Net-(J2-Pad29)*%
X161200000Y-96130000D02*
X162660000Y-97530000D01*
X161200000Y-95000000D02*
X161200000Y-96130000D01*
%TO.N,Net-(J2-Pad27)*%
X167400000Y-98100000D02*
X166180000Y-96880000D01*
X166180000Y-96880000D02*
X166180000Y-96510000D01*
%TO.N,Net-(J2-Pad25)*%
X168753936Y-98100000D02*
X166190000Y-95536064D01*
X173600000Y-98100000D02*
X168753936Y-98100000D01*
%TO.N,Net-(J2-Pad23)*%
X157793835Y-92847871D02*
X160967871Y-92847871D01*
X155000000Y-90054036D02*
X157793835Y-92847871D01*
X155000000Y-88800000D02*
X155000000Y-90054036D01*
X160967871Y-92847871D02*
X162630000Y-94510000D01*
%TO.N,Net-(J2-Pad21)*%
X161200000Y-88800000D02*
X161200000Y-92060000D01*
X161200000Y-92060000D02*
X162620000Y-93480000D01*
%TO.N,Net-(J2-Pad19)*%
X167400000Y-91900000D02*
X166800000Y-92500000D01*
X166800000Y-92500000D02*
X166230000Y-92500000D01*
%TO.N,Net-(J2-Pad17)*%
X171940000Y-91900000D02*
X171930000Y-91890000D01*
X173600000Y-91900000D02*
X171940000Y-91900000D01*
%TO.N,Net-(J2-Pad15)*%
X162645789Y-90474211D02*
X162750000Y-90550000D01*
X162090000Y-87491448D02*
X162090000Y-90070000D01*
X162090000Y-90070000D02*
X162645789Y-90474211D01*
X155000000Y-82600000D02*
X156575179Y-84175179D01*
X158773731Y-84175179D02*
X162090000Y-87491448D01*
X156575179Y-84175179D02*
X158773731Y-84175179D01*
%TO.N,Net-(J2-Pad13)*%
X162584650Y-89134650D02*
X162952688Y-89502688D01*
X162584650Y-83254650D02*
X162584650Y-89134650D01*
X161930000Y-82600000D02*
X162584650Y-83254650D01*
X161200000Y-82600000D02*
X161930000Y-82600000D01*
%TO.N,Net-(J2-Pad11)*%
X167390000Y-85730000D02*
X167390000Y-86750000D01*
%TO.N,Net-(J2-Pad9)*%
X171797308Y-87502692D02*
X166407308Y-87502692D01*
X173600000Y-85700000D02*
X171797308Y-87502692D01*
%TO.N,Net-(J2-Pad7)*%
X158010000Y-76400000D02*
X162630000Y-81020000D01*
X155000000Y-76400000D02*
X158010000Y-76400000D01*
%TO.N,Net-(J2-Pad5)*%
X166690000Y-81890000D02*
X167480000Y-81890000D01*
X161200000Y-76400000D02*
X166690000Y-81890000D01*
%TO.N,Net-(J2-Pad3)*%
X167400000Y-79930000D02*
X166730000Y-80600000D01*
X167400000Y-79500000D02*
X167400000Y-79930000D01*
%TO.N,Net-(J2-Pad1)*%
X173600000Y-79500000D02*
X172120000Y-78020000D01*
X167180000Y-78020000D02*
X165690000Y-79510000D01*
X172120000Y-78020000D02*
X167180000Y-78020000D01*
%TO.N,/BIAS3*%
X170371243Y-94871243D02*
X170500000Y-95000000D01*
X151900000Y-98100000D02*
X151900000Y-96900000D01*
X158100000Y-98100000D02*
X156980000Y-98100000D01*
X151900000Y-91900000D02*
X153020000Y-91900000D01*
X158100000Y-91900000D02*
X158100000Y-90820000D01*
X164300000Y-82600000D02*
X164300000Y-80940000D01*
X164300000Y-88800000D02*
X165950000Y-88800000D01*
X165950000Y-88800000D02*
X166500000Y-89350000D01*
X158100000Y-79500000D02*
X158100000Y-80790000D01*
X151900000Y-79500000D02*
X153020000Y-79500000D01*
X164300000Y-76400000D02*
X165400000Y-76400000D01*
X170500000Y-76400000D02*
X171650000Y-76400000D01*
X170500000Y-82600000D02*
X170500000Y-83680000D01*
X170500000Y-88800000D02*
X171580000Y-88800000D01*
X170500000Y-95000000D02*
X171530000Y-95000000D01*
X164428757Y-94871243D02*
X164300000Y-95000000D01*
X166881243Y-94871243D02*
X164428757Y-94871243D01*
X158100000Y-85700000D02*
X157520000Y-84840000D01*
X151900000Y-85700000D02*
X151900000Y-84510000D01*
%TO.N,/BIAS4*%
X158100000Y-117400000D02*
X158180634Y-117400000D01*
X151900000Y-123600000D02*
X151900000Y-122430000D01*
X158100000Y-123600000D02*
X156910000Y-123600000D01*
X151900000Y-117400000D02*
X153190000Y-117400000D01*
X159078000Y-116502634D02*
X158997366Y-116502634D01*
X151900000Y-111200000D02*
X151900000Y-109860000D01*
X158100000Y-111200000D02*
X158100000Y-110210000D01*
X158100000Y-110210000D02*
X157800000Y-109910000D01*
X164300000Y-101900000D02*
X166280000Y-101900000D01*
X170500000Y-101900000D02*
X170500000Y-102980000D01*
X170500000Y-108100000D02*
X170500000Y-107070000D01*
X164300000Y-108100000D02*
X165760000Y-106640000D01*
X165760000Y-106640000D02*
X166400000Y-106640000D01*
X170500000Y-114300000D02*
X170500000Y-115470000D01*
X170500000Y-120500000D02*
X170500000Y-119440000D01*
X164300000Y-120500000D02*
X164300000Y-121510000D01*
X158100000Y-117400000D02*
X158100000Y-118410000D01*
X163530000Y-114650000D02*
X163880000Y-114300000D01*
X163530000Y-118470000D02*
X163530000Y-114650000D01*
X163880000Y-114300000D02*
X164300000Y-114300000D01*
D13*
X151900000Y-105000000D02*
X153010000Y-105000000D01*
D12*
X158100000Y-105000000D02*
X158100000Y-103900000D01*
%TD*%
M02*
