%TF.GenerationSoftware,KiCad,Pcbnew,(5.1.9-0-10_14)*%
%TF.CreationDate,2021-04-19T13:57:32-04:00*%
%TF.ProjectId,backplane-prototype,6261636b-706c-4616-9e65-2d70726f746f,rev?*%
%TF.SameCoordinates,Original*%
%TF.FileFunction,Legend,Bot*%
%TF.FilePolarity,Positive*%
%FSLAX46Y46*%
G04 Gerber Fmt 4.6, Leading zero omitted, Abs format (unit mm)*
G04 Created by KiCad (PCBNEW (5.1.9-0-10_14)) date 2021-04-19 13:57:32*
%MOMM*%
%LPD*%
G01*
G04 APERTURE LIST*
%ADD10C,0.200000*%
%ADD11C,0.100000*%
%ADD12C,0.250000*%
%ADD13C,0.015000*%
G04 APERTURE END LIST*
D10*
X128904761Y-87952380D02*
X128904761Y-89095238D01*
X130904761Y-88523809D02*
X128904761Y-88523809D01*
X130714285Y-89761904D02*
X130809523Y-89857142D01*
X130904761Y-89761904D01*
X130809523Y-89666666D01*
X130714285Y-89761904D01*
X130904761Y-89761904D01*
X130333333Y-90619047D02*
X130333333Y-91571428D01*
X130904761Y-90428571D02*
X128904761Y-91095238D01*
X130904761Y-91761904D01*
X129571428Y-93285714D02*
X131190476Y-93285714D01*
X131380952Y-93190476D01*
X131476190Y-93095238D01*
X131571428Y-92904761D01*
X131571428Y-92619047D01*
X131476190Y-92428571D01*
X130809523Y-93285714D02*
X130904761Y-93095238D01*
X130904761Y-92714285D01*
X130809523Y-92523809D01*
X130714285Y-92428571D01*
X130523809Y-92333333D01*
X129952380Y-92333333D01*
X129761904Y-92428571D01*
X129666666Y-92523809D01*
X129571428Y-92714285D01*
X129571428Y-93095238D01*
X129666666Y-93285714D01*
X130904761Y-95095238D02*
X129857142Y-95095238D01*
X129666666Y-95000000D01*
X129571428Y-94809523D01*
X129571428Y-94428571D01*
X129666666Y-94238095D01*
X130809523Y-95095238D02*
X130904761Y-94904761D01*
X130904761Y-94428571D01*
X130809523Y-94238095D01*
X130619047Y-94142857D01*
X130428571Y-94142857D01*
X130238095Y-94238095D01*
X130142857Y-94428571D01*
X130142857Y-94904761D01*
X130047619Y-95095238D01*
X130904761Y-96047619D02*
X129571428Y-96047619D01*
X129952380Y-96047619D02*
X129761904Y-96142857D01*
X129666666Y-96238095D01*
X129571428Y-96428571D01*
X129571428Y-96619047D01*
X129571428Y-97095238D02*
X130904761Y-97476190D01*
X129952380Y-97857142D01*
X130904761Y-98238095D01*
X129571428Y-98619047D01*
X130904761Y-100238095D02*
X129857142Y-100238095D01*
X129666666Y-100142857D01*
X129571428Y-99952380D01*
X129571428Y-99571428D01*
X129666666Y-99380952D01*
X130809523Y-100238095D02*
X130904761Y-100047619D01*
X130904761Y-99571428D01*
X130809523Y-99380952D01*
X130619047Y-99285714D01*
X130428571Y-99285714D01*
X130238095Y-99380952D01*
X130142857Y-99571428D01*
X130142857Y-100047619D01*
X130047619Y-100238095D01*
X130904761Y-101476190D02*
X130809523Y-101285714D01*
X130619047Y-101190476D01*
X128904761Y-101190476D01*
X130142857Y-103761904D02*
X130142857Y-105285714D01*
X129095238Y-107666666D02*
X129000000Y-107761904D01*
X128904761Y-107952380D01*
X128904761Y-108428571D01*
X129000000Y-108619047D01*
X129095238Y-108714285D01*
X129285714Y-108809523D01*
X129476190Y-108809523D01*
X129761904Y-108714285D01*
X130904761Y-107571428D01*
X130904761Y-108809523D01*
X128904761Y-110047619D02*
X128904761Y-110238095D01*
X129000000Y-110428571D01*
X129095238Y-110523809D01*
X129285714Y-110619047D01*
X129666666Y-110714285D01*
X130142857Y-110714285D01*
X130523809Y-110619047D01*
X130714285Y-110523809D01*
X130809523Y-110428571D01*
X130904761Y-110238095D01*
X130904761Y-110047619D01*
X130809523Y-109857142D01*
X130714285Y-109761904D01*
X130523809Y-109666666D01*
X130142857Y-109571428D01*
X129666666Y-109571428D01*
X129285714Y-109666666D01*
X129095238Y-109761904D01*
X129000000Y-109857142D01*
X128904761Y-110047619D01*
X129095238Y-111476190D02*
X129000000Y-111571428D01*
X128904761Y-111761904D01*
X128904761Y-112238095D01*
X129000000Y-112428571D01*
X129095238Y-112523809D01*
X129285714Y-112619047D01*
X129476190Y-112619047D01*
X129761904Y-112523809D01*
X130904761Y-111380952D01*
X130904761Y-112619047D01*
X130904761Y-114523809D02*
X130904761Y-113380952D01*
X130904761Y-113952380D02*
X128904761Y-113952380D01*
X129190476Y-113761904D01*
X129380952Y-113571428D01*
X129476190Y-113380952D01*
X130142857Y-116904761D02*
X130142857Y-118428571D01*
X128904761Y-121285714D02*
X128904761Y-121476190D01*
X129000000Y-121666666D01*
X129095238Y-121761904D01*
X129285714Y-121857142D01*
X129666666Y-121952380D01*
X130142857Y-121952380D01*
X130523809Y-121857142D01*
X130714285Y-121761904D01*
X130809523Y-121666666D01*
X130904761Y-121476190D01*
X130904761Y-121285714D01*
X130809523Y-121095238D01*
X130714285Y-120999999D01*
X130523809Y-120904761D01*
X130142857Y-120809523D01*
X129666666Y-120809523D01*
X129285714Y-120904761D01*
X129095238Y-120999999D01*
X129000000Y-121095238D01*
X128904761Y-121285714D01*
X129571428Y-123666666D02*
X130904761Y-123666666D01*
X128809523Y-123190476D02*
X130238095Y-122714285D01*
X130238095Y-123952380D01*
X122904761Y-93190476D02*
X120904761Y-93190476D01*
X122904761Y-94047619D02*
X121857142Y-94047619D01*
X121666666Y-93952380D01*
X121571428Y-93761904D01*
X121571428Y-93476190D01*
X121666666Y-93285714D01*
X121761904Y-93190476D01*
X121571428Y-94714285D02*
X121571428Y-95476190D01*
X120904761Y-95000000D02*
X122619047Y-95000000D01*
X122809523Y-95095238D01*
X122904761Y-95285714D01*
X122904761Y-95476190D01*
X121571428Y-95857142D02*
X121571428Y-96619047D01*
X120904761Y-96142857D02*
X122619047Y-96142857D01*
X122809523Y-96238095D01*
X122904761Y-96428571D01*
X122904761Y-96619047D01*
X121571428Y-97285714D02*
X123571428Y-97285714D01*
X121666666Y-97285714D02*
X121571428Y-97476190D01*
X121571428Y-97857142D01*
X121666666Y-98047619D01*
X121761904Y-98142857D01*
X121952380Y-98238095D01*
X122523809Y-98238095D01*
X122714285Y-98142857D01*
X122809523Y-98047619D01*
X122904761Y-97857142D01*
X122904761Y-97476190D01*
X122809523Y-97285714D01*
X122714285Y-99095238D02*
X122809523Y-99190476D01*
X122904761Y-99095238D01*
X122809523Y-99000000D01*
X122714285Y-99095238D01*
X122904761Y-99095238D01*
X121666666Y-99095238D02*
X121761904Y-99190476D01*
X121857142Y-99095238D01*
X121761904Y-99000000D01*
X121666666Y-99095238D01*
X121857142Y-99095238D01*
X120809523Y-101476190D02*
X123380952Y-99761904D01*
X120809523Y-103571428D02*
X123380952Y-101857142D01*
X122809523Y-104999999D02*
X122904761Y-104809523D01*
X122904761Y-104428571D01*
X122809523Y-104238095D01*
X122619047Y-104142857D01*
X121857142Y-104142857D01*
X121666666Y-104238095D01*
X121571428Y-104428571D01*
X121571428Y-104809523D01*
X121666666Y-104999999D01*
X121857142Y-105095238D01*
X122047619Y-105095238D01*
X122238095Y-104142857D01*
X122904761Y-106809523D02*
X120904761Y-106809523D01*
X122809523Y-106809523D02*
X122904761Y-106619047D01*
X122904761Y-106238095D01*
X122809523Y-106047619D01*
X122714285Y-105952380D01*
X122523809Y-105857142D01*
X121952380Y-105857142D01*
X121761904Y-105952380D01*
X121666666Y-106047619D01*
X121571428Y-106238095D01*
X121571428Y-106619047D01*
X121666666Y-106809523D01*
X121571428Y-107476190D02*
X121571428Y-108238095D01*
X122904761Y-107761904D02*
X121190476Y-107761904D01*
X121000000Y-107857142D01*
X120904761Y-108047619D01*
X120904761Y-108238095D01*
X122714285Y-108904761D02*
X122809523Y-108999999D01*
X122904761Y-108904761D01*
X122809523Y-108809523D01*
X122714285Y-108904761D01*
X122904761Y-108904761D01*
X122904761Y-109857142D02*
X120904761Y-109857142D01*
X121666666Y-109857142D02*
X121571428Y-110047619D01*
X121571428Y-110428571D01*
X121666666Y-110619047D01*
X121761904Y-110714285D01*
X121952380Y-110809523D01*
X122523809Y-110809523D01*
X122714285Y-110714285D01*
X122809523Y-110619047D01*
X122904761Y-110428571D01*
X122904761Y-110047619D01*
X122809523Y-109857142D01*
X121571428Y-112523809D02*
X122904761Y-112523809D01*
X121571428Y-111666666D02*
X122619047Y-111666666D01*
X122809523Y-111761904D01*
X122904761Y-111952380D01*
X122904761Y-112238095D01*
X122809523Y-112428571D01*
X122714285Y-112523809D01*
X122714285Y-113476190D02*
X122809523Y-113571428D01*
X122904761Y-113476190D01*
X122809523Y-113380952D01*
X122714285Y-113476190D01*
X122904761Y-113476190D01*
X122809523Y-115190476D02*
X122904761Y-114999999D01*
X122904761Y-114619047D01*
X122809523Y-114428571D01*
X122619047Y-114333333D01*
X121857142Y-114333333D01*
X121666666Y-114428571D01*
X121571428Y-114619047D01*
X121571428Y-114999999D01*
X121666666Y-115190476D01*
X121857142Y-115285714D01*
X122047619Y-115285714D01*
X122238095Y-114333333D01*
X122904761Y-116999999D02*
X120904761Y-116999999D01*
X122809523Y-116999999D02*
X122904761Y-116809523D01*
X122904761Y-116428571D01*
X122809523Y-116238095D01*
X122714285Y-116142857D01*
X122523809Y-116047619D01*
X121952380Y-116047619D01*
X121761904Y-116142857D01*
X121666666Y-116238095D01*
X121571428Y-116428571D01*
X121571428Y-116809523D01*
X121666666Y-116999999D01*
X121571428Y-118809523D02*
X122904761Y-118809523D01*
X121571428Y-117952380D02*
X122619047Y-117952380D01*
X122809523Y-118047619D01*
X122904761Y-118238095D01*
X122904761Y-118523809D01*
X122809523Y-118714285D01*
X122714285Y-118809523D01*
D11*
G36*
X175000000Y-135000000D02*
G01*
X169000000Y-135000000D01*
X169000000Y-120900000D01*
X175000000Y-120900000D01*
X175000000Y-135000000D01*
G37*
X175000000Y-135000000D02*
X169000000Y-135000000D01*
X169000000Y-120900000D01*
X175000000Y-120900000D01*
X175000000Y-135000000D01*
D10*
X173311904Y-112071428D02*
X173430952Y-112428571D01*
X173430952Y-113023809D01*
X173311904Y-113261904D01*
X173192857Y-113380952D01*
X172954761Y-113500000D01*
X172716666Y-113500000D01*
X172478571Y-113380952D01*
X172359523Y-113261904D01*
X172240476Y-113023809D01*
X172121428Y-112547619D01*
X172002380Y-112309523D01*
X171883333Y-112190476D01*
X171645238Y-112071428D01*
X171407142Y-112071428D01*
X171169047Y-112190476D01*
X171050000Y-112309523D01*
X170930952Y-112547619D01*
X170930952Y-113142857D01*
X171050000Y-113500000D01*
X170811904Y-116357142D02*
X174026190Y-114214285D01*
X173430952Y-117190476D02*
X170930952Y-117190476D01*
X173430952Y-118619047D01*
X170930952Y-118619047D01*
X173192857Y-119809523D02*
X173311904Y-119928571D01*
X173430952Y-119809523D01*
X173311904Y-119690476D01*
X173192857Y-119809523D01*
X173430952Y-119809523D01*
X171883333Y-119809523D02*
X172002380Y-119928571D01*
X172121428Y-119809523D01*
X172002380Y-119690476D01*
X171883333Y-119809523D01*
X172121428Y-119809523D01*
X125857142Y-77857142D02*
X125857142Y-78523809D01*
X126904761Y-78809523D02*
X126904761Y-77857142D01*
X124904761Y-77857142D01*
X124904761Y-78809523D01*
X126904761Y-79666666D02*
X124904761Y-79666666D01*
X126333333Y-80333333D01*
X124904761Y-80999999D01*
X126904761Y-80999999D01*
X126904761Y-81952380D02*
X124904761Y-81952380D01*
X124904761Y-82714285D01*
X125000000Y-82904761D01*
X125095238Y-82999999D01*
X125285714Y-83095238D01*
X125571428Y-83095238D01*
X125761904Y-82999999D01*
X125857142Y-82904761D01*
X125952380Y-82714285D01*
X125952380Y-81952380D01*
X126904761Y-83952380D02*
X124904761Y-83952380D01*
X125857142Y-83952380D02*
X125857142Y-85095238D01*
X126904761Y-85095238D02*
X124904761Y-85095238D01*
X126333333Y-85952380D02*
X126333333Y-86904761D01*
X126904761Y-85761904D02*
X124904761Y-86428571D01*
X126904761Y-87095238D01*
X124904761Y-87476190D02*
X124904761Y-88619047D01*
X126904761Y-88047619D02*
X124904761Y-88047619D01*
X126904761Y-89285714D02*
X124904761Y-89285714D01*
X126714285Y-91380952D02*
X126809523Y-91285714D01*
X126904761Y-91000000D01*
X126904761Y-90809523D01*
X126809523Y-90523809D01*
X126619047Y-90333333D01*
X126428571Y-90238095D01*
X126047619Y-90142857D01*
X125761904Y-90142857D01*
X125380952Y-90238095D01*
X125190476Y-90333333D01*
X125000000Y-90523809D01*
X124904761Y-90809523D01*
X124904761Y-91000000D01*
X125000000Y-91285714D01*
X125095238Y-91380952D01*
X125857142Y-94428571D02*
X125952380Y-94714285D01*
X126047619Y-94809523D01*
X126238095Y-94904761D01*
X126523809Y-94904761D01*
X126714285Y-94809523D01*
X126809523Y-94714285D01*
X126904761Y-94523809D01*
X126904761Y-93761904D01*
X124904761Y-93761904D01*
X124904761Y-94428571D01*
X125000000Y-94619047D01*
X125095238Y-94714285D01*
X125285714Y-94809523D01*
X125476190Y-94809523D01*
X125666666Y-94714285D01*
X125761904Y-94619047D01*
X125857142Y-94428571D01*
X125857142Y-93761904D01*
X126904761Y-96619047D02*
X125857142Y-96619047D01*
X125666666Y-96523809D01*
X125571428Y-96333333D01*
X125571428Y-95952380D01*
X125666666Y-95761904D01*
X126809523Y-96619047D02*
X126904761Y-96428571D01*
X126904761Y-95952380D01*
X126809523Y-95761904D01*
X126619047Y-95666666D01*
X126428571Y-95666666D01*
X126238095Y-95761904D01*
X126142857Y-95952380D01*
X126142857Y-96428571D01*
X126047619Y-96619047D01*
X126809523Y-98428571D02*
X126904761Y-98238095D01*
X126904761Y-97857142D01*
X126809523Y-97666666D01*
X126714285Y-97571428D01*
X126523809Y-97476190D01*
X125952380Y-97476190D01*
X125761904Y-97571428D01*
X125666666Y-97666666D01*
X125571428Y-97857142D01*
X125571428Y-98238095D01*
X125666666Y-98428571D01*
X126904761Y-99285714D02*
X124904761Y-99285714D01*
X126142857Y-99476190D02*
X126904761Y-100047619D01*
X125571428Y-100047619D02*
X126333333Y-99285714D01*
X125571428Y-100904761D02*
X127571428Y-100904761D01*
X125666666Y-100904761D02*
X125571428Y-101095238D01*
X125571428Y-101476190D01*
X125666666Y-101666666D01*
X125761904Y-101761904D01*
X125952380Y-101857142D01*
X126523809Y-101857142D01*
X126714285Y-101761904D01*
X126809523Y-101666666D01*
X126904761Y-101476190D01*
X126904761Y-101095238D01*
X126809523Y-100904761D01*
X126904761Y-102999999D02*
X126809523Y-102809523D01*
X126619047Y-102714285D01*
X124904761Y-102714285D01*
X126904761Y-104619047D02*
X125857142Y-104619047D01*
X125666666Y-104523809D01*
X125571428Y-104333333D01*
X125571428Y-103952380D01*
X125666666Y-103761904D01*
X126809523Y-104619047D02*
X126904761Y-104428571D01*
X126904761Y-103952380D01*
X126809523Y-103761904D01*
X126619047Y-103666666D01*
X126428571Y-103666666D01*
X126238095Y-103761904D01*
X126142857Y-103952380D01*
X126142857Y-104428571D01*
X126047619Y-104619047D01*
X125571428Y-105571428D02*
X126904761Y-105571428D01*
X125761904Y-105571428D02*
X125666666Y-105666666D01*
X125571428Y-105857142D01*
X125571428Y-106142857D01*
X125666666Y-106333333D01*
X125857142Y-106428571D01*
X126904761Y-106428571D01*
X126809523Y-108142857D02*
X126904761Y-107952380D01*
X126904761Y-107571428D01*
X126809523Y-107380952D01*
X126619047Y-107285714D01*
X125857142Y-107285714D01*
X125666666Y-107380952D01*
X125571428Y-107571428D01*
X125571428Y-107952380D01*
X125666666Y-108142857D01*
X125857142Y-108238095D01*
X126047619Y-108238095D01*
X126238095Y-107285714D01*
X126904761Y-110619047D02*
X124904761Y-110619047D01*
X124904761Y-111380952D01*
X125000000Y-111571428D01*
X125095238Y-111666666D01*
X125285714Y-111761904D01*
X125571428Y-111761904D01*
X125761904Y-111666666D01*
X125857142Y-111571428D01*
X125952380Y-111380952D01*
X125952380Y-110619047D01*
X126904761Y-112619047D02*
X125571428Y-112619047D01*
X125952380Y-112619047D02*
X125761904Y-112714285D01*
X125666666Y-112809523D01*
X125571428Y-112999999D01*
X125571428Y-113190476D01*
X126904761Y-114142857D02*
X126809523Y-113952380D01*
X126714285Y-113857142D01*
X126523809Y-113761904D01*
X125952380Y-113761904D01*
X125761904Y-113857142D01*
X125666666Y-113952380D01*
X125571428Y-114142857D01*
X125571428Y-114428571D01*
X125666666Y-114619047D01*
X125761904Y-114714285D01*
X125952380Y-114809523D01*
X126523809Y-114809523D01*
X126714285Y-114714285D01*
X126809523Y-114619047D01*
X126904761Y-114428571D01*
X126904761Y-114142857D01*
X125571428Y-115380952D02*
X125571428Y-116142857D01*
X124904761Y-115666666D02*
X126619047Y-115666666D01*
X126809523Y-115761904D01*
X126904761Y-115952380D01*
X126904761Y-116142857D01*
X126904761Y-117095238D02*
X126809523Y-116904761D01*
X126714285Y-116809523D01*
X126523809Y-116714285D01*
X125952380Y-116714285D01*
X125761904Y-116809523D01*
X125666666Y-116904761D01*
X125571428Y-117095238D01*
X125571428Y-117380952D01*
X125666666Y-117571428D01*
X125761904Y-117666666D01*
X125952380Y-117761904D01*
X126523809Y-117761904D01*
X126714285Y-117666666D01*
X126809523Y-117571428D01*
X126904761Y-117380952D01*
X126904761Y-117095238D01*
X125571428Y-118333333D02*
X125571428Y-119095238D01*
X124904761Y-118619047D02*
X126619047Y-118619047D01*
X126809523Y-118714285D01*
X126904761Y-118904761D01*
X126904761Y-119095238D01*
X125571428Y-119571428D02*
X126904761Y-120047619D01*
X125571428Y-120523809D02*
X126904761Y-120047619D01*
X127380952Y-119857142D01*
X127476190Y-119761904D01*
X127571428Y-119571428D01*
X125571428Y-121285714D02*
X127571428Y-121285714D01*
X125666666Y-121285714D02*
X125571428Y-121476190D01*
X125571428Y-121857142D01*
X125666666Y-122047619D01*
X125761904Y-122142857D01*
X125952380Y-122238095D01*
X126523809Y-122238095D01*
X126714285Y-122142857D01*
X126809523Y-122047619D01*
X126904761Y-121857142D01*
X126904761Y-121476190D01*
X126809523Y-121285714D01*
X126809523Y-123857142D02*
X126904761Y-123666666D01*
X126904761Y-123285714D01*
X126809523Y-123095238D01*
X126619047Y-122999999D01*
X125857142Y-122999999D01*
X125666666Y-123095238D01*
X125571428Y-123285714D01*
X125571428Y-123666666D01*
X125666666Y-123857142D01*
X125857142Y-123952380D01*
X126047619Y-123952380D01*
X126238095Y-122999999D01*
X126904761Y-127476190D02*
X125952380Y-126809523D01*
X126904761Y-126333333D02*
X124904761Y-126333333D01*
X124904761Y-127095238D01*
X125000000Y-127285714D01*
X125095238Y-127380952D01*
X125285714Y-127476190D01*
X125571428Y-127476190D01*
X125761904Y-127380952D01*
X125857142Y-127285714D01*
X125952380Y-127095238D01*
X125952380Y-126333333D01*
X125857142Y-128333333D02*
X125857142Y-128999999D01*
X126904761Y-129285714D02*
X126904761Y-128333333D01*
X124904761Y-128333333D01*
X124904761Y-129285714D01*
X124904761Y-129857142D02*
X126904761Y-130523809D01*
X124904761Y-131190476D01*
X126333333Y-133285714D02*
X126333333Y-134238095D01*
X126904761Y-133095238D02*
X124904761Y-133761904D01*
X126904761Y-134428571D01*
D12*
%TO.C,J2*%
X146200000Y-133500000D02*
X152800000Y-133500000D01*
X146200000Y-78500000D02*
X146200000Y-133500000D01*
X150900000Y-78500000D02*
X146200000Y-78500000D01*
X152800000Y-80400000D02*
X150900000Y-78500000D01*
X152800000Y-133500000D02*
X152800000Y-80400000D01*
D13*
X149893370Y-76832320D02*
X149893370Y-77546685D01*
X149940994Y-77689557D01*
X150036242Y-77784806D01*
X150179115Y-77832430D01*
X150274364Y-77832430D01*
X149464751Y-76927569D02*
X149417127Y-76879945D01*
X149321878Y-76832320D01*
X149083757Y-76832320D01*
X148988508Y-76879945D01*
X148940884Y-76927569D01*
X148893260Y-77022817D01*
X148893260Y-77118066D01*
X148940884Y-77260939D01*
X149512375Y-77832430D01*
X148893260Y-77832430D01*
X153762649Y-83044232D02*
X153762649Y-82472767D01*
X153762649Y-82758500D02*
X152762586Y-82758500D01*
X152905452Y-82663255D01*
X153000696Y-82568011D01*
X153048318Y-82472767D01*
X143960769Y-82445132D02*
X143913092Y-82492810D01*
X143865414Y-82588166D01*
X143865414Y-82826555D01*
X143913092Y-82921911D01*
X143960769Y-82969589D01*
X144056125Y-83017267D01*
X144151481Y-83017267D01*
X144294515Y-82969589D01*
X144866650Y-82397454D01*
X144866650Y-83017267D01*
%TD*%
M02*
