%TF.GenerationSoftware,KiCad,Pcbnew,(5.1.9-0-10_14)*%
%TF.CreationDate,2021-04-19T13:57:32-04:00*%
%TF.ProjectId,backplane-prototype,6261636b-706c-4616-9e65-2d70726f746f,rev?*%
%TF.SameCoordinates,Original*%
%TF.FileFunction,Soldermask,Bot*%
%TF.FilePolarity,Negative*%
%FSLAX46Y46*%
G04 Gerber Fmt 4.6, Leading zero omitted, Abs format (unit mm)*
G04 Created by KiCad (PCBNEW (5.1.9-0-10_14)) date 2021-04-19 13:57:32*
%MOMM*%
%LPD*%
G01*
G04 APERTURE LIST*
%ADD10R,1.100000X0.500000*%
%ADD11C,1.450000*%
G04 APERTURE END LIST*
D10*
%TO.C,J2*%
X151750000Y-82400000D03*
X147250000Y-82400000D03*
X151750000Y-83200000D03*
X147250000Y-83200000D03*
X151750000Y-84000000D03*
X147250000Y-84000000D03*
X151750000Y-84800000D03*
X147250000Y-84800000D03*
X151750000Y-85600000D03*
X147250000Y-85600000D03*
X151750000Y-86400000D03*
X147250000Y-86400000D03*
X151750000Y-87200000D03*
X147250000Y-87200000D03*
X151750000Y-88000000D03*
X147250000Y-88000000D03*
X151750000Y-88800000D03*
X147250000Y-88800000D03*
X151750000Y-89600000D03*
X147250000Y-89600000D03*
X151750000Y-90400000D03*
X147250000Y-90400000D03*
X151750000Y-91200000D03*
X147250000Y-91200000D03*
X151750000Y-92000000D03*
X147250000Y-92000000D03*
X151750000Y-92800000D03*
X147250000Y-92800000D03*
X151750000Y-93600000D03*
X147250000Y-93600000D03*
X151750000Y-94400000D03*
X147250000Y-94400000D03*
X151750000Y-95200000D03*
X147250000Y-95200000D03*
X151750000Y-96000000D03*
X147250000Y-96000000D03*
X151750000Y-96800000D03*
X147250000Y-96800000D03*
X151750000Y-97600000D03*
X147250000Y-97600000D03*
X151750000Y-98400000D03*
X147250000Y-98400000D03*
X151750000Y-99200000D03*
X147250000Y-99200000D03*
X151750000Y-100000000D03*
X147250000Y-100000000D03*
X151750000Y-100800000D03*
X147250000Y-100800000D03*
X151750000Y-101600000D03*
X147250000Y-101600000D03*
X151750000Y-102400000D03*
X147250000Y-102400000D03*
X151750000Y-103200000D03*
X147250000Y-103200000D03*
X151750000Y-104000000D03*
X147250000Y-104000000D03*
X151750000Y-104800000D03*
X147250000Y-104800000D03*
X151750000Y-105600000D03*
X147250000Y-105600000D03*
X151750000Y-106400000D03*
X147250000Y-106400000D03*
X151750000Y-107200000D03*
X147250000Y-107200000D03*
X151750000Y-108000000D03*
X147250000Y-108000000D03*
X151750000Y-108800000D03*
X147250000Y-108800000D03*
X151750000Y-109600000D03*
X147250000Y-109600000D03*
X151750000Y-110400000D03*
X147250000Y-110400000D03*
X151750000Y-111200000D03*
X147250000Y-111200000D03*
X151750000Y-112000000D03*
X147250000Y-112000000D03*
X151750000Y-112800000D03*
X147250000Y-112800000D03*
X151750000Y-113600000D03*
X147250000Y-113600000D03*
X151750000Y-114400000D03*
X147250000Y-114400000D03*
X151750000Y-115200000D03*
X147250000Y-115200000D03*
X151750000Y-116000000D03*
X147250000Y-116000000D03*
X151750000Y-116800000D03*
X147250000Y-116800000D03*
X151750000Y-117600000D03*
X147250000Y-117600000D03*
X151750000Y-118400000D03*
X147250000Y-118400000D03*
X151750000Y-119200000D03*
X147250000Y-119200000D03*
X151750000Y-120000000D03*
X147250000Y-120000000D03*
X151750000Y-120800000D03*
X147250000Y-120800000D03*
X151750000Y-121600000D03*
X147250000Y-121600000D03*
X151750000Y-122400000D03*
X147250000Y-122400000D03*
X151750000Y-123200000D03*
X147250000Y-123200000D03*
X151750000Y-124000000D03*
X147250000Y-124000000D03*
X151750000Y-124800000D03*
X147250000Y-124800000D03*
X151750000Y-125600000D03*
X147250000Y-125600000D03*
X151750000Y-126400000D03*
X147250000Y-126400000D03*
X151750000Y-127200000D03*
X147250000Y-127200000D03*
X151750000Y-128000000D03*
X147250000Y-128000000D03*
X151750000Y-128800000D03*
X147250000Y-128800000D03*
X151750000Y-129600000D03*
X147250000Y-129600000D03*
D11*
X148000000Y-80600000D03*
X148000000Y-131400000D03*
%TD*%
M02*
