%TF.GenerationSoftware,KiCad,Pcbnew,(5.1.9-0-10_14)*%
%TF.CreationDate,2021-04-19T13:57:32-04:00*%
%TF.ProjectId,backplane-prototype,6261636b-706c-4616-9e65-2d70726f746f,rev?*%
%TF.SameCoordinates,Original*%
%TF.FileFunction,Copper,L2,Inr*%
%TF.FilePolarity,Positive*%
%FSLAX46Y46*%
G04 Gerber Fmt 4.6, Leading zero omitted, Abs format (unit mm)*
G04 Created by KiCad (PCBNEW (5.1.9-0-10_14)) date 2021-04-19 13:57:32*
%MOMM*%
%LPD*%
G01*
G04 APERTURE LIST*
%TA.AperFunction,ViaPad*%
%ADD10C,0.800000*%
%TD*%
%TA.AperFunction,ViaPad*%
%ADD11C,0.558800*%
%TD*%
%TA.AperFunction,Conductor*%
%ADD12C,0.330200*%
%TD*%
%TA.AperFunction,Conductor*%
%ADD13C,0.381000*%
%TD*%
%TA.AperFunction,Conductor*%
%ADD14C,0.279400*%
%TD*%
G04 APERTURE END LIST*
D10*
%TO.N,/BIAS2*%
X137000000Y-122500000D03*
%TO.N,/OUT*%
X150500000Y-112800000D03*
%TO.N,GND*%
X149500000Y-82400000D03*
X149500000Y-89600000D03*
X149500000Y-96800000D03*
X149500000Y-104000000D03*
X149500000Y-111200000D03*
X149500000Y-114400000D03*
X149500000Y-115200000D03*
X149500000Y-116000000D03*
X149500000Y-116800000D03*
X149500000Y-117600000D03*
X149500000Y-118400000D03*
X149500000Y-119200000D03*
X149500000Y-120000000D03*
X149500000Y-126400000D03*
X149500000Y-124800000D03*
X149500000Y-125600000D03*
X149500000Y-124000000D03*
X149500000Y-120800000D03*
X149500000Y-121600000D03*
X149500000Y-128000000D03*
X149500000Y-129600000D03*
X149500000Y-127200000D03*
X149500000Y-128800000D03*
X158900000Y-91000000D03*
X158900000Y-95000000D03*
X158900000Y-99000000D03*
X158900000Y-103000000D03*
X158900000Y-119000000D03*
X158900000Y-121000000D03*
X133900000Y-121000000D03*
X133900000Y-119000000D03*
X133900000Y-117000000D03*
X133900000Y-115000000D03*
X133900000Y-113000000D03*
X133900000Y-111000000D03*
X133900000Y-109000000D03*
X133900000Y-107000000D03*
X133900000Y-105000000D03*
X133900000Y-103000000D03*
X133900000Y-101000000D03*
X133900000Y-99000000D03*
X133900000Y-97000000D03*
X133900000Y-95000000D03*
X133900000Y-93000000D03*
X133900000Y-91000000D03*
X162100000Y-92800000D03*
X161900000Y-96800000D03*
X161900000Y-100800000D03*
X161800000Y-107000000D03*
X161800000Y-109000000D03*
X158900000Y-113000000D03*
X158900000Y-115000000D03*
X158900000Y-117000000D03*
X161800000Y-110900000D03*
X161800000Y-105000000D03*
%TO.N,/VDD*%
X148500000Y-112800000D03*
D11*
%TO.N,/CH31*%
X145800000Y-110400000D03*
%TO.N,/CH30*%
X139900000Y-119500000D03*
%TO.N,/CH29*%
X145800000Y-108800000D03*
X139900000Y-118500000D03*
%TO.N,/CH28*%
X145800000Y-108000000D03*
%TO.N,/CH27*%
X139900000Y-116500000D03*
%TO.N,/CH26*%
X139900000Y-115500000D03*
X145800000Y-106400000D03*
%TO.N,/CH25*%
X145800000Y-105600000D03*
%TO.N,/CH24*%
X139900000Y-113500000D03*
%TO.N,/CH23*%
X145800000Y-103200000D03*
X139900000Y-112500000D03*
%TO.N,/CH22*%
X145800000Y-102400000D03*
%TO.N,/CH21*%
X139900000Y-110500000D03*
%TO.N,/CH20*%
X139900000Y-109500000D03*
X145800000Y-100800000D03*
%TO.N,/CH19*%
X145800000Y-100000000D03*
%TO.N,/CH18*%
X139900000Y-107500000D03*
%TO.N,/CH17*%
X145800000Y-98400000D03*
X139900000Y-106500000D03*
%TO.N,/CH16*%
X145800000Y-97600000D03*
%TO.N,/CH15*%
X137400000Y-104500000D03*
%TO.N,/CH14*%
X145800000Y-95200000D03*
X137400000Y-103500000D03*
%TO.N,/CH13*%
X145800000Y-94400000D03*
%TO.N,/CH12*%
X137400000Y-101500000D03*
%TO.N,/CH11*%
X145800000Y-92800000D03*
X137400000Y-100500000D03*
%TO.N,/CH10*%
X145800000Y-92000000D03*
%TO.N,/CH9*%
X137400000Y-98500000D03*
%TO.N,/CH8*%
X145800000Y-90400000D03*
X137400000Y-97500000D03*
%TO.N,/CH7*%
X145800000Y-88800000D03*
%TO.N,/CH6*%
X137400000Y-95500000D03*
%TO.N,/CH5*%
X145800000Y-87200000D03*
X137400000Y-94500000D03*
%TO.N,/CH4*%
X145646138Y-86400000D03*
%TO.N,/CH3*%
X137400000Y-92500000D03*
%TO.N,/CH2*%
X145800000Y-84800000D03*
X137400000Y-91500000D03*
%TO.N,/CH1*%
X145800000Y-84000000D03*
D10*
%TO.N,/BIAS1*%
X137000000Y-121500000D03*
D11*
%TO.N,/CH0*%
X137400000Y-89500000D03*
%TO.N,/BCH0*%
X169400000Y-89500000D03*
%TO.N,/BCH1*%
X173000000Y-90500000D03*
X153400000Y-84000000D03*
%TO.N,/BCH2*%
X169700000Y-91500000D03*
%TO.N,/BCH3*%
X173000000Y-92500000D03*
X153400000Y-85600000D03*
%TO.N,/BCH4*%
X170100000Y-93500000D03*
%TO.N,/BCH5*%
X173000000Y-94500000D03*
X153400000Y-87200000D03*
%TO.N,/BCH6*%
X170400000Y-95500000D03*
%TO.N,/BCH7*%
X173000000Y-96500000D03*
X153400000Y-88800000D03*
%TO.N,/BCH8*%
X170800000Y-97500000D03*
%TO.N,/BCH9*%
X150700000Y-91200000D03*
X173000000Y-98500000D03*
%TO.N,/BCH10*%
X171271461Y-99528539D03*
%TO.N,/BCH11*%
X150700000Y-92800000D03*
X173000000Y-100500000D03*
%TO.N,/BCH12*%
X171100000Y-101500000D03*
%TO.N,/BCH13*%
X150700000Y-94400000D03*
X173000000Y-102400000D03*
%TO.N,/BCH14*%
X169900000Y-103500000D03*
%TO.N,/BCH15*%
X173000000Y-104500000D03*
%TO.N,/BCH16*%
X168800000Y-105500000D03*
%TO.N,/BCH17*%
X173000000Y-106500000D03*
X150500000Y-98400000D03*
%TO.N,/BCH18*%
X167700000Y-107500000D03*
%TO.N,/BCH19*%
X173100000Y-108500000D03*
%TO.N,/BCH20*%
X166700000Y-109500000D03*
X150500000Y-100800000D03*
%TO.N,/BCH21*%
X172900000Y-110500000D03*
%TO.N,/BCH22*%
X165600000Y-111500000D03*
%TO.N,/BCH23*%
X164900000Y-112500000D03*
%TO.N,/BCH24*%
X162200000Y-113500000D03*
%TO.N,/BCH25*%
X162100000Y-114500000D03*
X150500000Y-105600000D03*
%TO.N,/BCH26*%
X161900000Y-115500000D03*
%TO.N,/BCH27*%
X161900000Y-116500000D03*
X150500000Y-107200000D03*
%TO.N,/BCH28*%
X161700000Y-117500000D03*
X150500000Y-108000000D03*
%TO.N,/BCH29*%
X161700000Y-118500000D03*
%TO.N,/BCH30*%
X161600000Y-119500000D03*
%TO.N,/BCH31*%
X161600000Y-120500000D03*
X150600000Y-110400000D03*
D10*
%TO.N,/BIAS3*%
X153200000Y-112000000D03*
%TO.N,/BIAS4*%
X153200000Y-113600000D03*
%TD*%
D12*
%TO.N,/CH29*%
X139900000Y-118500000D02*
X144700000Y-118500000D01*
X145155499Y-109444501D02*
X145800000Y-108800000D01*
X145155499Y-118044501D02*
X145155499Y-109444501D01*
X144700000Y-118500000D02*
X145155499Y-118044501D01*
%TO.N,/CH26*%
X145800000Y-106400000D02*
X144200000Y-108000000D01*
X144200000Y-108000000D02*
X144200000Y-115000000D01*
X143700000Y-115500000D02*
X139900000Y-115500000D01*
X144200000Y-115000000D02*
X143700000Y-115500000D01*
%TO.N,/CH23*%
X139900000Y-112500000D02*
X142400000Y-112500000D01*
X142400000Y-112500000D02*
X143100000Y-111800000D01*
X143100000Y-105900000D02*
X145800000Y-103200000D01*
X143100000Y-111800000D02*
X143100000Y-105900000D01*
%TO.N,/CH20*%
X139900000Y-109500000D02*
X141900000Y-109500000D01*
X141900000Y-109500000D02*
X142300000Y-109100000D01*
X142300000Y-104300000D02*
X145800000Y-100800000D01*
X142300000Y-109100000D02*
X142300000Y-104300000D01*
%TO.N,/CH17*%
X141769790Y-104630210D02*
X139900000Y-106500000D01*
X141769790Y-102430210D02*
X141769790Y-104630210D01*
X145800000Y-98400000D02*
X141769790Y-102430210D01*
%TO.N,/CH14*%
X145800000Y-95200000D02*
X137400000Y-103500000D01*
%TO.N,/CH11*%
X145800000Y-92800000D02*
X145100000Y-92800000D01*
X145100000Y-92800000D02*
X137400000Y-100500000D01*
X137400000Y-100500000D02*
X137400000Y-100500000D01*
%TO.N,/CH8*%
X145800000Y-90400000D02*
X144500000Y-90400000D01*
X144500000Y-90400000D02*
X137400000Y-97500000D01*
X137400000Y-97500000D02*
X137400000Y-97500000D01*
%TO.N,/CH5*%
X145800000Y-87200000D02*
X144700000Y-87200000D01*
X144700000Y-87200000D02*
X137400000Y-94500000D01*
X137400000Y-94500000D02*
X137400000Y-94500000D01*
%TO.N,/CH2*%
X145800000Y-84800000D02*
X139100000Y-91500000D01*
X139100000Y-91500000D02*
X137400000Y-91500000D01*
X137400000Y-91500000D02*
X137400000Y-91500000D01*
D13*
%TO.N,/BCH1*%
X169408546Y-90500000D02*
X173000000Y-90500000D01*
X162908546Y-84000000D02*
X169408546Y-90500000D01*
X153400000Y-84000000D02*
X153400000Y-84000000D01*
X153400000Y-84000000D02*
X162908546Y-84000000D01*
%TO.N,/BCH3*%
X169708546Y-92500000D02*
X173000000Y-92500000D01*
X162808546Y-85600000D02*
X169708546Y-92500000D01*
X153400000Y-85600000D02*
X153400000Y-85600000D01*
X153400000Y-85600000D02*
X162808546Y-85600000D01*
%TO.N,/BCH5*%
X170108546Y-94500000D02*
X173000000Y-94500000D01*
X162808546Y-87200000D02*
X170108546Y-94500000D01*
X153400000Y-87200000D02*
X153400000Y-87200000D01*
X153400000Y-87200000D02*
X162808546Y-87200000D01*
%TO.N,/BCH7*%
X162708546Y-88800000D02*
X170408546Y-96500000D01*
X170408546Y-96500000D02*
X173000000Y-96500000D01*
X153400000Y-88800000D02*
X153400000Y-88800000D01*
X153400000Y-88800000D02*
X162708546Y-88800000D01*
%TO.N,/BCH9*%
X151800000Y-90100000D02*
X150700000Y-91200000D01*
X162408546Y-90100000D02*
X151800000Y-90100000D01*
X170808546Y-98500000D02*
X162408546Y-90100000D01*
X173000000Y-98500000D02*
X170808546Y-98500000D01*
%TO.N,/BCH11*%
X151709499Y-91790501D02*
X150700000Y-92800000D01*
X162541969Y-91790501D02*
X151709499Y-91790501D01*
X173000000Y-100500000D02*
X171240843Y-100489375D01*
X171240843Y-100489375D02*
X162541969Y-91790501D01*
%TO.N,/BCH13*%
X170430099Y-101821553D02*
X171008546Y-102400000D01*
X171008546Y-102400000D02*
X173000000Y-102400000D01*
X151118045Y-93981955D02*
X150700000Y-94400000D01*
X162590501Y-93981955D02*
X151118045Y-93981955D01*
X171008546Y-102400000D02*
X162590501Y-93981955D01*
%TO.N,/BCH17*%
X168800000Y-106500000D02*
X173000000Y-106500000D01*
X150500000Y-98400000D02*
X151200000Y-97700000D01*
X160008546Y-97700000D02*
X168478447Y-106169901D01*
X168478447Y-106178447D02*
X168800000Y-106500000D01*
X151200000Y-97700000D02*
X160008546Y-97700000D01*
X168478447Y-106169901D02*
X168478447Y-106178447D01*
%TO.N,/BCH20*%
X151090501Y-101390501D02*
X158590501Y-101390501D01*
X150500000Y-100800000D02*
X151090501Y-101390501D01*
D12*
X166555499Y-109355499D02*
X166700000Y-109500000D01*
X166555499Y-108190639D02*
X166555499Y-109355499D01*
X159755361Y-101390501D02*
X166555499Y-108190639D01*
X158590501Y-101390501D02*
X159755361Y-101390501D01*
%TO.N,/BCH25*%
X150500000Y-105600000D02*
X159500000Y-105600000D01*
X159500000Y-105600000D02*
X160900000Y-107000000D01*
X162100000Y-114353862D02*
X162100000Y-114500000D01*
X160900000Y-113153862D02*
X162100000Y-114353862D01*
X160900000Y-107000000D02*
X160900000Y-113153862D01*
D14*
%TO.N,/BCH27*%
X161900000Y-116400000D02*
X161900000Y-116500000D01*
D12*
X159665101Y-109865101D02*
X159665101Y-114265101D01*
X159665101Y-114265101D02*
X161900000Y-116500000D01*
X157000000Y-107200000D02*
X159665101Y-109865101D01*
X150500000Y-107200000D02*
X157000000Y-107200000D01*
%TO.N,/BCH28*%
X160434899Y-116234899D02*
X161700000Y-117500000D01*
X159002549Y-116234899D02*
X160434899Y-116234899D01*
X158134899Y-115367249D02*
X159002549Y-116234899D01*
X158134899Y-111234899D02*
X158134899Y-115367249D01*
X154900000Y-108000000D02*
X158134899Y-111234899D01*
X150500000Y-108000000D02*
X154900000Y-108000000D01*
%TO.N,/BCH31*%
X161334899Y-120234899D02*
X161600000Y-120500000D01*
X159002549Y-120234899D02*
X161334899Y-120234899D01*
X157604689Y-118837039D02*
X159002549Y-120234899D01*
X157604689Y-115272339D02*
X157604689Y-118837039D01*
X152732350Y-110400000D02*
X157604689Y-115272339D01*
X150600000Y-110400000D02*
X152732350Y-110400000D01*
%TD*%
M02*
