%TF.GenerationSoftware,KiCad,Pcbnew,(5.1.9-0-10_14)*%
%TF.CreationDate,2021-04-27T11:00:09-04:00*%
%TF.ProjectId,backplane-prototype,6261636b-706c-4616-9e65-2d70726f746f,rev?*%
%TF.SameCoordinates,Original*%
%TF.FileFunction,Legend,Bot*%
%TF.FilePolarity,Positive*%
%FSLAX46Y46*%
G04 Gerber Fmt 4.6, Leading zero omitted, Abs format (unit mm)*
G04 Created by KiCad (PCBNEW (5.1.9-0-10_14)) date 2021-04-27 11:00:09*
%MOMM*%
%LPD*%
G01*
G04 APERTURE LIST*
%ADD10C,0.200000*%
%ADD11C,0.100000*%
%ADD12C,0.250000*%
%ADD13C,0.015000*%
G04 APERTURE END LIST*
D10*
X125504761Y-87952380D02*
X125504761Y-89095238D01*
X127504761Y-88523809D02*
X125504761Y-88523809D01*
X127314285Y-89761904D02*
X127409523Y-89857142D01*
X127504761Y-89761904D01*
X127409523Y-89666666D01*
X127314285Y-89761904D01*
X127504761Y-89761904D01*
X126933333Y-90619047D02*
X126933333Y-91571428D01*
X127504761Y-90428571D02*
X125504761Y-91095238D01*
X127504761Y-91761904D01*
X126171428Y-93285714D02*
X127790476Y-93285714D01*
X127980952Y-93190476D01*
X128076190Y-93095238D01*
X128171428Y-92904761D01*
X128171428Y-92619047D01*
X128076190Y-92428571D01*
X127409523Y-93285714D02*
X127504761Y-93095238D01*
X127504761Y-92714285D01*
X127409523Y-92523809D01*
X127314285Y-92428571D01*
X127123809Y-92333333D01*
X126552380Y-92333333D01*
X126361904Y-92428571D01*
X126266666Y-92523809D01*
X126171428Y-92714285D01*
X126171428Y-93095238D01*
X126266666Y-93285714D01*
X127504761Y-95095238D02*
X126457142Y-95095238D01*
X126266666Y-95000000D01*
X126171428Y-94809523D01*
X126171428Y-94428571D01*
X126266666Y-94238095D01*
X127409523Y-95095238D02*
X127504761Y-94904761D01*
X127504761Y-94428571D01*
X127409523Y-94238095D01*
X127219047Y-94142857D01*
X127028571Y-94142857D01*
X126838095Y-94238095D01*
X126742857Y-94428571D01*
X126742857Y-94904761D01*
X126647619Y-95095238D01*
X127504761Y-96047619D02*
X126171428Y-96047619D01*
X126552380Y-96047619D02*
X126361904Y-96142857D01*
X126266666Y-96238095D01*
X126171428Y-96428571D01*
X126171428Y-96619047D01*
X126171428Y-97095238D02*
X127504761Y-97476190D01*
X126552380Y-97857142D01*
X127504761Y-98238095D01*
X126171428Y-98619047D01*
X127504761Y-100238095D02*
X126457142Y-100238095D01*
X126266666Y-100142857D01*
X126171428Y-99952380D01*
X126171428Y-99571428D01*
X126266666Y-99380952D01*
X127409523Y-100238095D02*
X127504761Y-100047619D01*
X127504761Y-99571428D01*
X127409523Y-99380952D01*
X127219047Y-99285714D01*
X127028571Y-99285714D01*
X126838095Y-99380952D01*
X126742857Y-99571428D01*
X126742857Y-100047619D01*
X126647619Y-100238095D01*
X127504761Y-101476190D02*
X127409523Y-101285714D01*
X127219047Y-101190476D01*
X125504761Y-101190476D01*
X126742857Y-103761904D02*
X126742857Y-105285714D01*
X125695238Y-107666666D02*
X125600000Y-107761904D01*
X125504761Y-107952380D01*
X125504761Y-108428571D01*
X125600000Y-108619047D01*
X125695238Y-108714285D01*
X125885714Y-108809523D01*
X126076190Y-108809523D01*
X126361904Y-108714285D01*
X127504761Y-107571428D01*
X127504761Y-108809523D01*
X125504761Y-110047619D02*
X125504761Y-110238095D01*
X125600000Y-110428571D01*
X125695238Y-110523809D01*
X125885714Y-110619047D01*
X126266666Y-110714285D01*
X126742857Y-110714285D01*
X127123809Y-110619047D01*
X127314285Y-110523809D01*
X127409523Y-110428571D01*
X127504761Y-110238095D01*
X127504761Y-110047619D01*
X127409523Y-109857142D01*
X127314285Y-109761904D01*
X127123809Y-109666666D01*
X126742857Y-109571428D01*
X126266666Y-109571428D01*
X125885714Y-109666666D01*
X125695238Y-109761904D01*
X125600000Y-109857142D01*
X125504761Y-110047619D01*
X125695238Y-111476190D02*
X125600000Y-111571428D01*
X125504761Y-111761904D01*
X125504761Y-112238095D01*
X125600000Y-112428571D01*
X125695238Y-112523809D01*
X125885714Y-112619047D01*
X126076190Y-112619047D01*
X126361904Y-112523809D01*
X127504761Y-111380952D01*
X127504761Y-112619047D01*
X127504761Y-114523809D02*
X127504761Y-113380952D01*
X127504761Y-113952380D02*
X125504761Y-113952380D01*
X125790476Y-113761904D01*
X125980952Y-113571428D01*
X126076190Y-113380952D01*
X126742857Y-116904761D02*
X126742857Y-118428571D01*
X125504761Y-121285714D02*
X125504761Y-121476190D01*
X125600000Y-121666666D01*
X125695238Y-121761904D01*
X125885714Y-121857142D01*
X126266666Y-121952380D01*
X126742857Y-121952380D01*
X127123809Y-121857142D01*
X127314285Y-121761904D01*
X127409523Y-121666666D01*
X127504761Y-121476190D01*
X127504761Y-121285714D01*
X127409523Y-121095238D01*
X127314285Y-120999999D01*
X127123809Y-120904761D01*
X126742857Y-120809523D01*
X126266666Y-120809523D01*
X125885714Y-120904761D01*
X125695238Y-120999999D01*
X125600000Y-121095238D01*
X125504761Y-121285714D01*
X126171428Y-123666666D02*
X127504761Y-123666666D01*
X125409523Y-123190476D02*
X126838095Y-122714285D01*
X126838095Y-123952380D01*
X122904761Y-93190476D02*
X120904761Y-93190476D01*
X122904761Y-94047619D02*
X121857142Y-94047619D01*
X121666666Y-93952380D01*
X121571428Y-93761904D01*
X121571428Y-93476190D01*
X121666666Y-93285714D01*
X121761904Y-93190476D01*
X121571428Y-94714285D02*
X121571428Y-95476190D01*
X120904761Y-95000000D02*
X122619047Y-95000000D01*
X122809523Y-95095238D01*
X122904761Y-95285714D01*
X122904761Y-95476190D01*
X121571428Y-95857142D02*
X121571428Y-96619047D01*
X120904761Y-96142857D02*
X122619047Y-96142857D01*
X122809523Y-96238095D01*
X122904761Y-96428571D01*
X122904761Y-96619047D01*
X121571428Y-97285714D02*
X123571428Y-97285714D01*
X121666666Y-97285714D02*
X121571428Y-97476190D01*
X121571428Y-97857142D01*
X121666666Y-98047619D01*
X121761904Y-98142857D01*
X121952380Y-98238095D01*
X122523809Y-98238095D01*
X122714285Y-98142857D01*
X122809523Y-98047619D01*
X122904761Y-97857142D01*
X122904761Y-97476190D01*
X122809523Y-97285714D01*
X122714285Y-99095238D02*
X122809523Y-99190476D01*
X122904761Y-99095238D01*
X122809523Y-99000000D01*
X122714285Y-99095238D01*
X122904761Y-99095238D01*
X121666666Y-99095238D02*
X121761904Y-99190476D01*
X121857142Y-99095238D01*
X121761904Y-99000000D01*
X121666666Y-99095238D01*
X121857142Y-99095238D01*
X120809523Y-101476190D02*
X123380952Y-99761904D01*
X120809523Y-103571428D02*
X123380952Y-101857142D01*
X122809523Y-104999999D02*
X122904761Y-104809523D01*
X122904761Y-104428571D01*
X122809523Y-104238095D01*
X122619047Y-104142857D01*
X121857142Y-104142857D01*
X121666666Y-104238095D01*
X121571428Y-104428571D01*
X121571428Y-104809523D01*
X121666666Y-104999999D01*
X121857142Y-105095238D01*
X122047619Y-105095238D01*
X122238095Y-104142857D01*
X122904761Y-106809523D02*
X120904761Y-106809523D01*
X122809523Y-106809523D02*
X122904761Y-106619047D01*
X122904761Y-106238095D01*
X122809523Y-106047619D01*
X122714285Y-105952380D01*
X122523809Y-105857142D01*
X121952380Y-105857142D01*
X121761904Y-105952380D01*
X121666666Y-106047619D01*
X121571428Y-106238095D01*
X121571428Y-106619047D01*
X121666666Y-106809523D01*
X121571428Y-107476190D02*
X121571428Y-108238095D01*
X122904761Y-107761904D02*
X121190476Y-107761904D01*
X121000000Y-107857142D01*
X120904761Y-108047619D01*
X120904761Y-108238095D01*
X122714285Y-108904761D02*
X122809523Y-108999999D01*
X122904761Y-108904761D01*
X122809523Y-108809523D01*
X122714285Y-108904761D01*
X122904761Y-108904761D01*
X122904761Y-109857142D02*
X120904761Y-109857142D01*
X121666666Y-109857142D02*
X121571428Y-110047619D01*
X121571428Y-110428571D01*
X121666666Y-110619047D01*
X121761904Y-110714285D01*
X121952380Y-110809523D01*
X122523809Y-110809523D01*
X122714285Y-110714285D01*
X122809523Y-110619047D01*
X122904761Y-110428571D01*
X122904761Y-110047619D01*
X122809523Y-109857142D01*
X121571428Y-112523809D02*
X122904761Y-112523809D01*
X121571428Y-111666666D02*
X122619047Y-111666666D01*
X122809523Y-111761904D01*
X122904761Y-111952380D01*
X122904761Y-112238095D01*
X122809523Y-112428571D01*
X122714285Y-112523809D01*
X122714285Y-113476190D02*
X122809523Y-113571428D01*
X122904761Y-113476190D01*
X122809523Y-113380952D01*
X122714285Y-113476190D01*
X122904761Y-113476190D01*
X122809523Y-115190476D02*
X122904761Y-114999999D01*
X122904761Y-114619047D01*
X122809523Y-114428571D01*
X122619047Y-114333333D01*
X121857142Y-114333333D01*
X121666666Y-114428571D01*
X121571428Y-114619047D01*
X121571428Y-114999999D01*
X121666666Y-115190476D01*
X121857142Y-115285714D01*
X122047619Y-115285714D01*
X122238095Y-114333333D01*
X122904761Y-116999999D02*
X120904761Y-116999999D01*
X122809523Y-116999999D02*
X122904761Y-116809523D01*
X122904761Y-116428571D01*
X122809523Y-116238095D01*
X122714285Y-116142857D01*
X122523809Y-116047619D01*
X121952380Y-116047619D01*
X121761904Y-116142857D01*
X121666666Y-116238095D01*
X121571428Y-116428571D01*
X121571428Y-116809523D01*
X121666666Y-116999999D01*
X121571428Y-118809523D02*
X122904761Y-118809523D01*
X121571428Y-117952380D02*
X122619047Y-117952380D01*
X122809523Y-118047619D01*
X122904761Y-118238095D01*
X122904761Y-118523809D01*
X122809523Y-118714285D01*
X122714285Y-118809523D01*
D11*
G36*
X179100000Y-117300000D02*
G01*
X173600000Y-117300000D01*
X173600000Y-103200000D01*
X179100000Y-103200000D01*
X179100000Y-117300000D01*
G37*
X179100000Y-117300000D02*
X173600000Y-117300000D01*
X173600000Y-103200000D01*
X179100000Y-103200000D01*
X179100000Y-117300000D01*
D10*
X177111904Y-94871428D02*
X177230952Y-95228571D01*
X177230952Y-95823809D01*
X177111904Y-96061904D01*
X176992857Y-96180952D01*
X176754761Y-96300000D01*
X176516666Y-96300000D01*
X176278571Y-96180952D01*
X176159523Y-96061904D01*
X176040476Y-95823809D01*
X175921428Y-95347619D01*
X175802380Y-95109523D01*
X175683333Y-94990476D01*
X175445238Y-94871428D01*
X175207142Y-94871428D01*
X174969047Y-94990476D01*
X174850000Y-95109523D01*
X174730952Y-95347619D01*
X174730952Y-95942857D01*
X174850000Y-96300000D01*
X174611904Y-99157142D02*
X177826190Y-97014285D01*
X177230952Y-99990476D02*
X174730952Y-99990476D01*
X177230952Y-101419047D01*
X174730952Y-101419047D01*
X176992857Y-102609523D02*
X177111904Y-102728571D01*
X177230952Y-102609523D01*
X177111904Y-102490476D01*
X176992857Y-102609523D01*
X177230952Y-102609523D01*
X175683333Y-102609523D02*
X175802380Y-102728571D01*
X175921428Y-102609523D01*
X175802380Y-102490476D01*
X175683333Y-102609523D01*
X175921428Y-102609523D01*
X131057142Y-77857142D02*
X131057142Y-78523809D01*
X132104761Y-78809523D02*
X132104761Y-77857142D01*
X130104761Y-77857142D01*
X130104761Y-78809523D01*
X132104761Y-79666666D02*
X130104761Y-79666666D01*
X131533333Y-80333333D01*
X130104761Y-80999999D01*
X132104761Y-80999999D01*
X132104761Y-81952380D02*
X130104761Y-81952380D01*
X130104761Y-82714285D01*
X130200000Y-82904761D01*
X130295238Y-82999999D01*
X130485714Y-83095238D01*
X130771428Y-83095238D01*
X130961904Y-82999999D01*
X131057142Y-82904761D01*
X131152380Y-82714285D01*
X131152380Y-81952380D01*
X132104761Y-83952380D02*
X130104761Y-83952380D01*
X131057142Y-83952380D02*
X131057142Y-85095238D01*
X132104761Y-85095238D02*
X130104761Y-85095238D01*
X131533333Y-85952380D02*
X131533333Y-86904761D01*
X132104761Y-85761904D02*
X130104761Y-86428571D01*
X132104761Y-87095238D01*
X130104761Y-87476190D02*
X130104761Y-88619047D01*
X132104761Y-88047619D02*
X130104761Y-88047619D01*
X132104761Y-89285714D02*
X130104761Y-89285714D01*
X131914285Y-91380952D02*
X132009523Y-91285714D01*
X132104761Y-91000000D01*
X132104761Y-90809523D01*
X132009523Y-90523809D01*
X131819047Y-90333333D01*
X131628571Y-90238095D01*
X131247619Y-90142857D01*
X130961904Y-90142857D01*
X130580952Y-90238095D01*
X130390476Y-90333333D01*
X130200000Y-90523809D01*
X130104761Y-90809523D01*
X130104761Y-91000000D01*
X130200000Y-91285714D01*
X130295238Y-91380952D01*
X131057142Y-94428571D02*
X131152380Y-94714285D01*
X131247619Y-94809523D01*
X131438095Y-94904761D01*
X131723809Y-94904761D01*
X131914285Y-94809523D01*
X132009523Y-94714285D01*
X132104761Y-94523809D01*
X132104761Y-93761904D01*
X130104761Y-93761904D01*
X130104761Y-94428571D01*
X130200000Y-94619047D01*
X130295238Y-94714285D01*
X130485714Y-94809523D01*
X130676190Y-94809523D01*
X130866666Y-94714285D01*
X130961904Y-94619047D01*
X131057142Y-94428571D01*
X131057142Y-93761904D01*
X132104761Y-96619047D02*
X131057142Y-96619047D01*
X130866666Y-96523809D01*
X130771428Y-96333333D01*
X130771428Y-95952380D01*
X130866666Y-95761904D01*
X132009523Y-96619047D02*
X132104761Y-96428571D01*
X132104761Y-95952380D01*
X132009523Y-95761904D01*
X131819047Y-95666666D01*
X131628571Y-95666666D01*
X131438095Y-95761904D01*
X131342857Y-95952380D01*
X131342857Y-96428571D01*
X131247619Y-96619047D01*
X132009523Y-98428571D02*
X132104761Y-98238095D01*
X132104761Y-97857142D01*
X132009523Y-97666666D01*
X131914285Y-97571428D01*
X131723809Y-97476190D01*
X131152380Y-97476190D01*
X130961904Y-97571428D01*
X130866666Y-97666666D01*
X130771428Y-97857142D01*
X130771428Y-98238095D01*
X130866666Y-98428571D01*
X132104761Y-99285714D02*
X130104761Y-99285714D01*
X131342857Y-99476190D02*
X132104761Y-100047619D01*
X130771428Y-100047619D02*
X131533333Y-99285714D01*
X130771428Y-100904761D02*
X132771428Y-100904761D01*
X130866666Y-100904761D02*
X130771428Y-101095238D01*
X130771428Y-101476190D01*
X130866666Y-101666666D01*
X130961904Y-101761904D01*
X131152380Y-101857142D01*
X131723809Y-101857142D01*
X131914285Y-101761904D01*
X132009523Y-101666666D01*
X132104761Y-101476190D01*
X132104761Y-101095238D01*
X132009523Y-100904761D01*
X132104761Y-102999999D02*
X132009523Y-102809523D01*
X131819047Y-102714285D01*
X130104761Y-102714285D01*
X132104761Y-104619047D02*
X131057142Y-104619047D01*
X130866666Y-104523809D01*
X130771428Y-104333333D01*
X130771428Y-103952380D01*
X130866666Y-103761904D01*
X132009523Y-104619047D02*
X132104761Y-104428571D01*
X132104761Y-103952380D01*
X132009523Y-103761904D01*
X131819047Y-103666666D01*
X131628571Y-103666666D01*
X131438095Y-103761904D01*
X131342857Y-103952380D01*
X131342857Y-104428571D01*
X131247619Y-104619047D01*
X130771428Y-105571428D02*
X132104761Y-105571428D01*
X130961904Y-105571428D02*
X130866666Y-105666666D01*
X130771428Y-105857142D01*
X130771428Y-106142857D01*
X130866666Y-106333333D01*
X131057142Y-106428571D01*
X132104761Y-106428571D01*
X132009523Y-108142857D02*
X132104761Y-107952380D01*
X132104761Y-107571428D01*
X132009523Y-107380952D01*
X131819047Y-107285714D01*
X131057142Y-107285714D01*
X130866666Y-107380952D01*
X130771428Y-107571428D01*
X130771428Y-107952380D01*
X130866666Y-108142857D01*
X131057142Y-108238095D01*
X131247619Y-108238095D01*
X131438095Y-107285714D01*
X132104761Y-110619047D02*
X130104761Y-110619047D01*
X130104761Y-111380952D01*
X130200000Y-111571428D01*
X130295238Y-111666666D01*
X130485714Y-111761904D01*
X130771428Y-111761904D01*
X130961904Y-111666666D01*
X131057142Y-111571428D01*
X131152380Y-111380952D01*
X131152380Y-110619047D01*
X132104761Y-112619047D02*
X130771428Y-112619047D01*
X131152380Y-112619047D02*
X130961904Y-112714285D01*
X130866666Y-112809523D01*
X130771428Y-112999999D01*
X130771428Y-113190476D01*
X132104761Y-114142857D02*
X132009523Y-113952380D01*
X131914285Y-113857142D01*
X131723809Y-113761904D01*
X131152380Y-113761904D01*
X130961904Y-113857142D01*
X130866666Y-113952380D01*
X130771428Y-114142857D01*
X130771428Y-114428571D01*
X130866666Y-114619047D01*
X130961904Y-114714285D01*
X131152380Y-114809523D01*
X131723809Y-114809523D01*
X131914285Y-114714285D01*
X132009523Y-114619047D01*
X132104761Y-114428571D01*
X132104761Y-114142857D01*
X130771428Y-115380952D02*
X130771428Y-116142857D01*
X130104761Y-115666666D02*
X131819047Y-115666666D01*
X132009523Y-115761904D01*
X132104761Y-115952380D01*
X132104761Y-116142857D01*
X132104761Y-117095238D02*
X132009523Y-116904761D01*
X131914285Y-116809523D01*
X131723809Y-116714285D01*
X131152380Y-116714285D01*
X130961904Y-116809523D01*
X130866666Y-116904761D01*
X130771428Y-117095238D01*
X130771428Y-117380952D01*
X130866666Y-117571428D01*
X130961904Y-117666666D01*
X131152380Y-117761904D01*
X131723809Y-117761904D01*
X131914285Y-117666666D01*
X132009523Y-117571428D01*
X132104761Y-117380952D01*
X132104761Y-117095238D01*
X130771428Y-118333333D02*
X130771428Y-119095238D01*
X130104761Y-118619047D02*
X131819047Y-118619047D01*
X132009523Y-118714285D01*
X132104761Y-118904761D01*
X132104761Y-119095238D01*
X130771428Y-119571428D02*
X132104761Y-120047619D01*
X130771428Y-120523809D02*
X132104761Y-120047619D01*
X132580952Y-119857142D01*
X132676190Y-119761904D01*
X132771428Y-119571428D01*
X130771428Y-121285714D02*
X132771428Y-121285714D01*
X130866666Y-121285714D02*
X130771428Y-121476190D01*
X130771428Y-121857142D01*
X130866666Y-122047619D01*
X130961904Y-122142857D01*
X131152380Y-122238095D01*
X131723809Y-122238095D01*
X131914285Y-122142857D01*
X132009523Y-122047619D01*
X132104761Y-121857142D01*
X132104761Y-121476190D01*
X132009523Y-121285714D01*
X132009523Y-123857142D02*
X132104761Y-123666666D01*
X132104761Y-123285714D01*
X132009523Y-123095238D01*
X131819047Y-122999999D01*
X131057142Y-122999999D01*
X130866666Y-123095238D01*
X130771428Y-123285714D01*
X130771428Y-123666666D01*
X130866666Y-123857142D01*
X131057142Y-123952380D01*
X131247619Y-123952380D01*
X131438095Y-122999999D01*
X132104761Y-127476190D02*
X131152380Y-126809523D01*
X132104761Y-126333333D02*
X130104761Y-126333333D01*
X130104761Y-127095238D01*
X130200000Y-127285714D01*
X130295238Y-127380952D01*
X130485714Y-127476190D01*
X130771428Y-127476190D01*
X130961904Y-127380952D01*
X131057142Y-127285714D01*
X131152380Y-127095238D01*
X131152380Y-126333333D01*
X131057142Y-128333333D02*
X131057142Y-128999999D01*
X132104761Y-129285714D02*
X132104761Y-128333333D01*
X130104761Y-128333333D01*
X130104761Y-129285714D01*
X130104761Y-129857142D02*
X132104761Y-130523809D01*
X130104761Y-131190476D01*
X131533333Y-133285714D02*
X131533333Y-134238095D01*
X132104761Y-133095238D02*
X130104761Y-133761904D01*
X132104761Y-134428571D01*
D12*
%TO.C,J2*%
X146200000Y-133500000D02*
X152800000Y-133500000D01*
X146200000Y-78500000D02*
X146200000Y-133500000D01*
X150900000Y-78500000D02*
X146200000Y-78500000D01*
X152800000Y-80400000D02*
X150900000Y-78500000D01*
X152800000Y-133500000D02*
X152800000Y-80400000D01*
D13*
X149893370Y-76832320D02*
X149893370Y-77546685D01*
X149940994Y-77689557D01*
X150036242Y-77784806D01*
X150179115Y-77832430D01*
X150274364Y-77832430D01*
X149464751Y-76927569D02*
X149417127Y-76879945D01*
X149321878Y-76832320D01*
X149083757Y-76832320D01*
X148988508Y-76879945D01*
X148940884Y-76927569D01*
X148893260Y-77022817D01*
X148893260Y-77118066D01*
X148940884Y-77260939D01*
X149512375Y-77832430D01*
X148893260Y-77832430D01*
X153762649Y-83044232D02*
X153762649Y-82472767D01*
X153762649Y-82758500D02*
X152762586Y-82758500D01*
X152905452Y-82663255D01*
X153000696Y-82568011D01*
X153048318Y-82472767D01*
X143960769Y-82445132D02*
X143913092Y-82492810D01*
X143865414Y-82588166D01*
X143865414Y-82826555D01*
X143913092Y-82921911D01*
X143960769Y-82969589D01*
X144056125Y-83017267D01*
X144151481Y-83017267D01*
X144294515Y-82969589D01*
X144866650Y-82397454D01*
X144866650Y-83017267D01*
%TD*%
M02*
