%TF.GenerationSoftware,KiCad,Pcbnew,(5.1.9-0-10_14)*%
%TF.CreationDate,2021-04-19T13:57:32-04:00*%
%TF.ProjectId,backplane-prototype,6261636b-706c-4616-9e65-2d70726f746f,rev?*%
%TF.SameCoordinates,Original*%
%TF.FileFunction,Legend,Top*%
%TF.FilePolarity,Positive*%
%FSLAX46Y46*%
G04 Gerber Fmt 4.6, Leading zero omitted, Abs format (unit mm)*
G04 Created by KiCad (PCBNEW (5.1.9-0-10_14)) date 2021-04-19 13:57:32*
%MOMM*%
%LPD*%
G01*
G04 APERTURE LIST*
%ADD10C,0.200000*%
%ADD11C,0.015000*%
%ADD12C,0.150000*%
G04 APERTURE END LIST*
D10*
%TO.C,J1*%
X138219000Y-123155000D02*
X138219000Y-123159000D01*
X138219000Y-88845000D02*
X138219000Y-88841000D01*
X135679000Y-88845000D02*
X135679000Y-88841000D01*
X135679000Y-123159000D02*
X135679000Y-123155000D01*
X135679000Y-88841000D02*
X138219000Y-88841000D01*
X138219000Y-123159000D02*
X135679000Y-123159000D01*
%TO.C,J3*%
X163219000Y-123159000D02*
X160679000Y-123159000D01*
X160679000Y-88841000D02*
X163219000Y-88841000D01*
X160679000Y-123159000D02*
X160679000Y-123155000D01*
X160679000Y-88845000D02*
X160679000Y-88841000D01*
X163219000Y-88845000D02*
X163219000Y-88841000D01*
X163219000Y-123155000D02*
X163219000Y-123159000D01*
%TO.C,J1*%
D11*
X136686666Y-84872380D02*
X136686666Y-85586666D01*
X136639047Y-85729523D01*
X136543809Y-85824761D01*
X136400952Y-85872380D01*
X136305714Y-85872380D01*
X137686666Y-85872380D02*
X137115238Y-85872380D01*
X137400952Y-85872380D02*
X137400952Y-84872380D01*
X137305714Y-85015238D01*
X137210476Y-85110476D01*
X137115238Y-85158095D01*
D12*
X140782380Y-88994285D02*
X140782380Y-89565714D01*
X140782380Y-89280000D02*
X139782380Y-89280000D01*
X139925238Y-89375238D01*
X140020476Y-89470476D01*
X140068095Y-89565714D01*
%TO.C,J3*%
D11*
X161706666Y-84782380D02*
X161706666Y-85496666D01*
X161659047Y-85639523D01*
X161563809Y-85734761D01*
X161420952Y-85782380D01*
X161325714Y-85782380D01*
X162087619Y-84782380D02*
X162706666Y-84782380D01*
X162373333Y-85163333D01*
X162516190Y-85163333D01*
X162611428Y-85210952D01*
X162659047Y-85258571D01*
X162706666Y-85353809D01*
X162706666Y-85591904D01*
X162659047Y-85687142D01*
X162611428Y-85734761D01*
X162516190Y-85782380D01*
X162230476Y-85782380D01*
X162135238Y-85734761D01*
X162087619Y-85687142D01*
D12*
X165792380Y-88994285D02*
X165792380Y-89565714D01*
X165792380Y-89280000D02*
X164792380Y-89280000D01*
X164935238Y-89375238D01*
X165030476Y-89470476D01*
X165078095Y-89565714D01*
%TD*%
M02*
