%TF.GenerationSoftware,KiCad,Pcbnew,(5.1.9-0-10_14)*%
%TF.CreationDate,2021-04-19T13:57:32-04:00*%
%TF.ProjectId,backplane-prototype,6261636b-706c-4616-9e65-2d70726f746f,rev?*%
%TF.SameCoordinates,Original*%
%TF.FileFunction,Copper,L1,Top*%
%TF.FilePolarity,Positive*%
%FSLAX46Y46*%
G04 Gerber Fmt 4.6, Leading zero omitted, Abs format (unit mm)*
G04 Created by KiCad (PCBNEW (5.1.9-0-10_14)) date 2021-04-19 13:57:32*
%MOMM*%
%LPD*%
G01*
G04 APERTURE LIST*
%TA.AperFunction,SMDPad,CuDef*%
%ADD10R,1.370000X0.610000*%
%TD*%
%TA.AperFunction,ViaPad*%
%ADD11C,0.800000*%
%TD*%
%TA.AperFunction,ViaPad*%
%ADD12C,0.558800*%
%TD*%
%TA.AperFunction,Conductor*%
%ADD13C,0.431800*%
%TD*%
%TA.AperFunction,Conductor*%
%ADD14C,0.330200*%
%TD*%
%TA.AperFunction,Conductor*%
%ADD15C,0.381000*%
%TD*%
%TA.AperFunction,Conductor*%
%ADD16C,0.279400*%
%TD*%
G04 APERTURE END LIST*
D10*
%TO.P,J1,1*%
%TO.N,/CH0*%
X138550000Y-89500000D03*
%TO.P,J1,2*%
%TO.N,/BIAS1*%
X135348000Y-89500000D03*
%TO.P,J1,3*%
%TO.N,/CH1*%
X138550000Y-90500000D03*
%TO.P,J1,4*%
%TO.N,GND*%
X135348000Y-90500000D03*
%TO.P,J1,5*%
%TO.N,/CH2*%
X138550000Y-91500000D03*
%TO.P,J1,6*%
%TO.N,GND*%
X135348000Y-91500000D03*
%TO.P,J1,7*%
%TO.N,/CH3*%
X138550000Y-92500000D03*
%TO.P,J1,8*%
%TO.N,GND*%
X135348000Y-92500000D03*
%TO.P,J1,9*%
%TO.N,/CH4*%
X138550000Y-93500000D03*
%TO.P,J1,10*%
%TO.N,GND*%
X135348000Y-93500000D03*
%TO.P,J1,11*%
%TO.N,/CH5*%
X138550000Y-94500000D03*
%TO.P,J1,12*%
%TO.N,GND*%
X135348000Y-94500000D03*
%TO.P,J1,13*%
%TO.N,/CH6*%
X138550000Y-95500000D03*
%TO.P,J1,14*%
%TO.N,GND*%
X135348000Y-95500000D03*
%TO.P,J1,15*%
%TO.N,/CH7*%
X138550000Y-96500000D03*
%TO.P,J1,16*%
%TO.N,GND*%
X135348000Y-96500000D03*
%TO.P,J1,17*%
%TO.N,/CH8*%
X138550000Y-97500000D03*
%TO.P,J1,18*%
%TO.N,GND*%
X135348000Y-97500000D03*
%TO.P,J1,19*%
%TO.N,/CH9*%
X138550000Y-98500000D03*
%TO.P,J1,20*%
%TO.N,GND*%
X135348000Y-98500000D03*
%TO.P,J1,21*%
%TO.N,/CH10*%
X138550000Y-99500000D03*
%TO.P,J1,22*%
%TO.N,GND*%
X135348000Y-99500000D03*
%TO.P,J1,23*%
%TO.N,/CH11*%
X138550000Y-100500000D03*
%TO.P,J1,24*%
%TO.N,GND*%
X135348000Y-100500000D03*
%TO.P,J1,25*%
%TO.N,/CH12*%
X138550000Y-101500000D03*
%TO.P,J1,26*%
%TO.N,GND*%
X135348000Y-101500000D03*
%TO.P,J1,27*%
%TO.N,/CH13*%
X138550000Y-102500000D03*
%TO.P,J1,28*%
%TO.N,GND*%
X135348000Y-102500000D03*
%TO.P,J1,29*%
%TO.N,/CH14*%
X138550000Y-103500000D03*
%TO.P,J1,30*%
%TO.N,GND*%
X135348000Y-103500000D03*
%TO.P,J1,31*%
%TO.N,/CH15*%
X138550000Y-104500000D03*
%TO.P,J1,32*%
%TO.N,GND*%
X135348000Y-104500000D03*
%TO.P,J1,33*%
%TO.N,/CH16*%
X138550000Y-105500000D03*
%TO.P,J1,34*%
%TO.N,GND*%
X135348000Y-105500000D03*
%TO.P,J1,35*%
%TO.N,/CH17*%
X138550000Y-106500000D03*
%TO.P,J1,36*%
%TO.N,GND*%
X135348000Y-106500000D03*
%TO.P,J1,37*%
%TO.N,/CH18*%
X138550000Y-107500000D03*
%TO.P,J1,38*%
%TO.N,GND*%
X135348000Y-107500000D03*
%TO.P,J1,39*%
%TO.N,/CH19*%
X138550000Y-108500000D03*
%TO.P,J1,40*%
%TO.N,GND*%
X135348000Y-108500000D03*
%TO.P,J1,41*%
%TO.N,/CH20*%
X138550000Y-109500000D03*
%TO.P,J1,42*%
%TO.N,GND*%
X135348000Y-109500000D03*
%TO.P,J1,43*%
%TO.N,/CH21*%
X138550000Y-110500000D03*
%TO.P,J1,44*%
%TO.N,GND*%
X135348000Y-110500000D03*
%TO.P,J1,45*%
%TO.N,/CH22*%
X138550000Y-111500000D03*
%TO.P,J1,46*%
%TO.N,GND*%
X135348000Y-111500000D03*
%TO.P,J1,47*%
%TO.N,/CH23*%
X138550000Y-112500000D03*
%TO.P,J1,48*%
%TO.N,GND*%
X135348000Y-112500000D03*
%TO.P,J1,49*%
%TO.N,/CH24*%
X138550000Y-113500000D03*
%TO.P,J1,50*%
%TO.N,GND*%
X135348000Y-113500000D03*
%TO.P,J1,51*%
%TO.N,/CH25*%
X138550000Y-114500000D03*
%TO.P,J1,52*%
%TO.N,GND*%
X135348000Y-114500000D03*
%TO.P,J1,53*%
%TO.N,/CH26*%
X138550000Y-115500000D03*
%TO.P,J1,54*%
%TO.N,GND*%
X135348000Y-115500000D03*
%TO.P,J1,55*%
%TO.N,/CH27*%
X138550000Y-116500000D03*
%TO.P,J1,56*%
%TO.N,GND*%
X135348000Y-116500000D03*
%TO.P,J1,57*%
%TO.N,/CH28*%
X138550000Y-117500000D03*
%TO.P,J1,58*%
%TO.N,GND*%
X135348000Y-117500000D03*
%TO.P,J1,59*%
%TO.N,/CH29*%
X138550000Y-118500000D03*
%TO.P,J1,60*%
%TO.N,GND*%
X135348000Y-118500000D03*
%TO.P,J1,61*%
%TO.N,/CH30*%
X138550000Y-119500000D03*
%TO.P,J1,62*%
%TO.N,GND*%
X135348000Y-119500000D03*
%TO.P,J1,63*%
%TO.N,/CH31*%
X138550000Y-120500000D03*
%TO.P,J1,64*%
%TO.N,GND*%
X135348000Y-120500000D03*
%TO.P,J1,65*%
%TO.N,/VDD*%
X138550000Y-121500000D03*
%TO.P,J1,66*%
%TO.N,GND*%
X135348000Y-121500000D03*
%TO.P,J1,67*%
%TO.N,/OUT*%
X138550000Y-122500000D03*
%TO.P,J1,68*%
%TO.N,/BIAS2*%
X135348000Y-122500000D03*
%TD*%
%TO.P,J3,68*%
%TO.N,/BIAS4*%
X160348000Y-122500000D03*
%TO.P,J3,67*%
X163550000Y-122500000D03*
%TO.P,J3,66*%
%TO.N,GND*%
X160348000Y-121500000D03*
%TO.P,J3,65*%
%TO.N,Net-(J3-Pad65)*%
X163550000Y-121500000D03*
%TO.P,J3,64*%
%TO.N,GND*%
X160348000Y-120500000D03*
%TO.P,J3,63*%
%TO.N,/BCH31*%
X163550000Y-120500000D03*
%TO.P,J3,62*%
%TO.N,GND*%
X160348000Y-119500000D03*
%TO.P,J3,61*%
%TO.N,/BCH30*%
X163550000Y-119500000D03*
%TO.P,J3,60*%
%TO.N,GND*%
X160348000Y-118500000D03*
%TO.P,J3,59*%
%TO.N,/BCH29*%
X163550000Y-118500000D03*
%TO.P,J3,58*%
%TO.N,GND*%
X160348000Y-117500000D03*
%TO.P,J3,57*%
%TO.N,/BCH28*%
X163550000Y-117500000D03*
%TO.P,J3,56*%
%TO.N,GND*%
X160348000Y-116500000D03*
%TO.P,J3,55*%
%TO.N,/BCH27*%
X163550000Y-116500000D03*
%TO.P,J3,54*%
%TO.N,GND*%
X160348000Y-115500000D03*
%TO.P,J3,53*%
%TO.N,/BCH26*%
X163550000Y-115500000D03*
%TO.P,J3,52*%
%TO.N,GND*%
X160348000Y-114500000D03*
%TO.P,J3,51*%
%TO.N,/BCH25*%
X163550000Y-114500000D03*
%TO.P,J3,50*%
%TO.N,GND*%
X160348000Y-113500000D03*
%TO.P,J3,49*%
%TO.N,/BCH24*%
X163550000Y-113500000D03*
%TO.P,J3,48*%
%TO.N,GND*%
X160348000Y-112500000D03*
%TO.P,J3,47*%
%TO.N,/BCH23*%
X163550000Y-112500000D03*
%TO.P,J3,46*%
%TO.N,GND*%
X160348000Y-111500000D03*
%TO.P,J3,45*%
%TO.N,/BCH22*%
X163550000Y-111500000D03*
%TO.P,J3,44*%
%TO.N,GND*%
X160348000Y-110500000D03*
%TO.P,J3,43*%
%TO.N,/BCH21*%
X163550000Y-110500000D03*
%TO.P,J3,42*%
%TO.N,GND*%
X160348000Y-109500000D03*
%TO.P,J3,41*%
%TO.N,/BCH20*%
X163550000Y-109500000D03*
%TO.P,J3,40*%
%TO.N,GND*%
X160348000Y-108500000D03*
%TO.P,J3,39*%
%TO.N,/BCH19*%
X163550000Y-108500000D03*
%TO.P,J3,38*%
%TO.N,GND*%
X160348000Y-107500000D03*
%TO.P,J3,37*%
%TO.N,/BCH18*%
X163550000Y-107500000D03*
%TO.P,J3,36*%
%TO.N,GND*%
X160348000Y-106500000D03*
%TO.P,J3,35*%
%TO.N,/BCH17*%
X163550000Y-106500000D03*
%TO.P,J3,34*%
%TO.N,GND*%
X160348000Y-105500000D03*
%TO.P,J3,33*%
%TO.N,/BCH16*%
X163550000Y-105500000D03*
%TO.P,J3,32*%
%TO.N,GND*%
X160348000Y-104500000D03*
%TO.P,J3,31*%
%TO.N,/BCH15*%
X163550000Y-104500000D03*
%TO.P,J3,30*%
%TO.N,GND*%
X160348000Y-103500000D03*
%TO.P,J3,29*%
%TO.N,/BCH14*%
X163550000Y-103500000D03*
%TO.P,J3,28*%
%TO.N,GND*%
X160348000Y-102500000D03*
%TO.P,J3,27*%
%TO.N,/BCH13*%
X163550000Y-102500000D03*
%TO.P,J3,26*%
%TO.N,GND*%
X160348000Y-101500000D03*
%TO.P,J3,25*%
%TO.N,/BCH12*%
X163550000Y-101500000D03*
%TO.P,J3,24*%
%TO.N,GND*%
X160348000Y-100500000D03*
%TO.P,J3,23*%
%TO.N,/BCH11*%
X163550000Y-100500000D03*
%TO.P,J3,22*%
%TO.N,GND*%
X160348000Y-99500000D03*
%TO.P,J3,21*%
%TO.N,/BCH10*%
X163550000Y-99500000D03*
%TO.P,J3,20*%
%TO.N,GND*%
X160348000Y-98500000D03*
%TO.P,J3,19*%
%TO.N,/BCH9*%
X163550000Y-98500000D03*
%TO.P,J3,18*%
%TO.N,GND*%
X160348000Y-97500000D03*
%TO.P,J3,17*%
%TO.N,/BCH8*%
X163550000Y-97500000D03*
%TO.P,J3,16*%
%TO.N,GND*%
X160348000Y-96500000D03*
%TO.P,J3,15*%
%TO.N,/BCH7*%
X163550000Y-96500000D03*
%TO.P,J3,14*%
%TO.N,GND*%
X160348000Y-95500000D03*
%TO.P,J3,13*%
%TO.N,/BCH6*%
X163550000Y-95500000D03*
%TO.P,J3,12*%
%TO.N,GND*%
X160348000Y-94500000D03*
%TO.P,J3,11*%
%TO.N,/BCH5*%
X163550000Y-94500000D03*
%TO.P,J3,10*%
%TO.N,GND*%
X160348000Y-93500000D03*
%TO.P,J3,9*%
%TO.N,/BCH4*%
X163550000Y-93500000D03*
%TO.P,J3,8*%
%TO.N,GND*%
X160348000Y-92500000D03*
%TO.P,J3,7*%
%TO.N,/BCH3*%
X163550000Y-92500000D03*
%TO.P,J3,6*%
%TO.N,GND*%
X160348000Y-91500000D03*
%TO.P,J3,5*%
%TO.N,/BCH2*%
X163550000Y-91500000D03*
%TO.P,J3,4*%
%TO.N,GND*%
X160348000Y-90500000D03*
%TO.P,J3,3*%
%TO.N,/BCH1*%
X163550000Y-90500000D03*
%TO.P,J3,2*%
%TO.N,/BIAS3*%
X160348000Y-89500000D03*
%TO.P,J3,1*%
%TO.N,/BCH0*%
X163550000Y-89500000D03*
%TD*%
D11*
%TO.N,/BIAS2*%
X137000000Y-122500000D03*
%TO.N,/OUT*%
X150500000Y-112800000D03*
%TO.N,GND*%
X149500000Y-82400000D03*
X149500000Y-89600000D03*
X149500000Y-96800000D03*
X149500000Y-104000000D03*
X149500000Y-111200000D03*
X149500000Y-114400000D03*
X149500000Y-115200000D03*
X149500000Y-116000000D03*
X149500000Y-116800000D03*
X149500000Y-117600000D03*
X149500000Y-118400000D03*
X149500000Y-119200000D03*
X149500000Y-120000000D03*
X149500000Y-126400000D03*
X149500000Y-124800000D03*
X149500000Y-125600000D03*
X149500000Y-124000000D03*
X149500000Y-120800000D03*
X149500000Y-121600000D03*
X149500000Y-128000000D03*
X149500000Y-129600000D03*
X149500000Y-127200000D03*
X149500000Y-128800000D03*
X158900000Y-91000000D03*
X158900000Y-95000000D03*
X158900000Y-99000000D03*
X158900000Y-103000000D03*
X158900000Y-119000000D03*
X158900000Y-121000000D03*
X133900000Y-121000000D03*
X133900000Y-119000000D03*
X133900000Y-117000000D03*
X133900000Y-115000000D03*
X133900000Y-113000000D03*
X133900000Y-111000000D03*
X133900000Y-109000000D03*
X133900000Y-107000000D03*
X133900000Y-105000000D03*
X133900000Y-103000000D03*
X133900000Y-101000000D03*
X133900000Y-99000000D03*
X133900000Y-97000000D03*
X133900000Y-95000000D03*
X133900000Y-93000000D03*
X133900000Y-91000000D03*
X162100000Y-92800000D03*
X161900000Y-96800000D03*
X161900000Y-100800000D03*
X161800000Y-107000000D03*
X161800000Y-109000000D03*
X158900000Y-113000000D03*
X158900000Y-115000000D03*
X158900000Y-117000000D03*
X161800000Y-110900000D03*
X161800000Y-105000000D03*
%TO.N,/VDD*%
X148500000Y-112800000D03*
D12*
%TO.N,/CH31*%
X145800000Y-110400000D03*
%TO.N,/CH30*%
X139900000Y-119500000D03*
%TO.N,/CH29*%
X145800000Y-108800000D03*
X139900000Y-118500000D03*
%TO.N,/CH28*%
X145800000Y-108000000D03*
%TO.N,/CH27*%
X139900000Y-116500000D03*
%TO.N,/CH26*%
X139900000Y-115500000D03*
X145800000Y-106400000D03*
%TO.N,/CH25*%
X145800000Y-105600000D03*
%TO.N,/CH24*%
X139900000Y-113500000D03*
%TO.N,/CH23*%
X145800000Y-103200000D03*
X139900000Y-112500000D03*
%TO.N,/CH22*%
X145800000Y-102400000D03*
%TO.N,/CH21*%
X139900000Y-110500000D03*
%TO.N,/CH20*%
X139900000Y-109500000D03*
X145800000Y-100800000D03*
%TO.N,/CH19*%
X145800000Y-100000000D03*
%TO.N,/CH18*%
X139900000Y-107500000D03*
%TO.N,/CH17*%
X145800000Y-98400000D03*
X139900000Y-106500000D03*
%TO.N,/CH16*%
X145800000Y-97600000D03*
%TO.N,/CH15*%
X137400000Y-104500000D03*
%TO.N,/CH14*%
X145800000Y-95200000D03*
X137400000Y-103500000D03*
%TO.N,/CH13*%
X145800000Y-94400000D03*
%TO.N,/CH12*%
X137400000Y-101500000D03*
%TO.N,/CH11*%
X145800000Y-92800000D03*
X137400000Y-100500000D03*
%TO.N,/CH10*%
X145800000Y-92000000D03*
%TO.N,/CH9*%
X137400000Y-98500000D03*
%TO.N,/CH8*%
X145800000Y-90400000D03*
X137400000Y-97500000D03*
%TO.N,/CH7*%
X145800000Y-88800000D03*
%TO.N,/CH6*%
X137400000Y-95500000D03*
%TO.N,/CH5*%
X145800000Y-87200000D03*
X137400000Y-94500000D03*
%TO.N,/CH4*%
X145646138Y-86400000D03*
%TO.N,/CH3*%
X137400000Y-92500000D03*
%TO.N,/CH2*%
X145800000Y-84800000D03*
X137400000Y-91500000D03*
%TO.N,/CH1*%
X145800000Y-84000000D03*
D11*
%TO.N,/BIAS1*%
X137000000Y-121500000D03*
D12*
%TO.N,/CH0*%
X137400000Y-89500000D03*
%TO.N,/BCH0*%
X169400000Y-89500000D03*
%TO.N,/BCH1*%
X173000000Y-90500000D03*
X153400000Y-84000000D03*
%TO.N,/BCH2*%
X169700000Y-91500000D03*
%TO.N,/BCH3*%
X173000000Y-92500000D03*
X153400000Y-85600000D03*
%TO.N,/BCH4*%
X170100000Y-93500000D03*
%TO.N,/BCH5*%
X173000000Y-94500000D03*
X153400000Y-87200000D03*
%TO.N,/BCH6*%
X170400000Y-95500000D03*
%TO.N,/BCH7*%
X173000000Y-96500000D03*
X153400000Y-88800000D03*
%TO.N,/BCH8*%
X170800000Y-97500000D03*
%TO.N,/BCH9*%
X150700000Y-91200000D03*
X173000000Y-98500000D03*
%TO.N,/BCH10*%
X171271461Y-99528539D03*
%TO.N,/BCH11*%
X150700000Y-92800000D03*
X173000000Y-100500000D03*
%TO.N,/BCH12*%
X171100000Y-101500000D03*
%TO.N,/BCH13*%
X150700000Y-94400000D03*
X173000000Y-102400000D03*
%TO.N,/BCH14*%
X169900000Y-103500000D03*
%TO.N,/BCH15*%
X173000000Y-104500000D03*
%TO.N,/BCH16*%
X168800000Y-105500000D03*
%TO.N,/BCH17*%
X173000000Y-106500000D03*
X150500000Y-98400000D03*
%TO.N,/BCH18*%
X167700000Y-107500000D03*
%TO.N,/BCH19*%
X173100000Y-108500000D03*
%TO.N,/BCH20*%
X166700000Y-109500000D03*
X150500000Y-100800000D03*
%TO.N,/BCH21*%
X172900000Y-110500000D03*
%TO.N,/BCH22*%
X165600000Y-111500000D03*
%TO.N,/BCH23*%
X164900000Y-112500000D03*
%TO.N,/BCH24*%
X162200000Y-113500000D03*
%TO.N,/BCH25*%
X162100000Y-114500000D03*
X150500000Y-105600000D03*
%TO.N,/BCH26*%
X161900000Y-115500000D03*
%TO.N,/BCH27*%
X161900000Y-116500000D03*
X150500000Y-107200000D03*
%TO.N,/BCH28*%
X161700000Y-117500000D03*
X150500000Y-108000000D03*
%TO.N,/BCH29*%
X161700000Y-118500000D03*
%TO.N,/BCH30*%
X161600000Y-119500000D03*
%TO.N,/BCH31*%
X161600000Y-120500000D03*
X150600000Y-110400000D03*
D11*
%TO.N,/BIAS3*%
X153200000Y-112000000D03*
%TO.N,/BIAS4*%
X153200000Y-113600000D03*
%TD*%
D13*
%TO.N,/BIAS2*%
X137000000Y-122500000D02*
X136400000Y-122500000D01*
X136400000Y-122500000D02*
X135348000Y-122500000D01*
D14*
%TO.N,/OUT*%
X150500000Y-112800000D02*
X150500000Y-112800000D01*
D15*
X150500000Y-121769942D02*
X150500000Y-112800000D01*
X149769942Y-122500000D02*
X150500000Y-121769942D01*
X138550000Y-122500000D02*
X149769942Y-122500000D01*
%TO.N,GND*%
X160348000Y-90500000D02*
X159400000Y-90500000D01*
X159400000Y-90500000D02*
X158900000Y-91000000D01*
X159400000Y-91500000D02*
X158900000Y-91000000D01*
X160348000Y-91500000D02*
X159400000Y-91500000D01*
X158900000Y-91000000D02*
X158900000Y-91000000D01*
X160348000Y-94500000D02*
X159400000Y-94500000D01*
X160348000Y-95500000D02*
X159400000Y-95500000D01*
X158900000Y-95000000D02*
X158900000Y-95000000D01*
X159400000Y-94500000D02*
X158900000Y-95000000D01*
X159400000Y-95500000D02*
X158900000Y-95000000D01*
X160348000Y-98500000D02*
X159400000Y-98500000D01*
X159400000Y-99500000D02*
X158900000Y-99000000D01*
X158900000Y-99000000D02*
X158900000Y-99000000D01*
X160348000Y-99500000D02*
X159400000Y-99500000D01*
X159400000Y-98500000D02*
X158900000Y-99000000D01*
X160348000Y-102500000D02*
X159400000Y-102500000D01*
X159400000Y-102500000D02*
X158900000Y-103000000D01*
X158900000Y-103000000D02*
X158900000Y-103000000D01*
X159400000Y-103500000D02*
X158900000Y-103000000D01*
X160348000Y-103500000D02*
X159400000Y-103500000D01*
X159400000Y-119500000D02*
X158900000Y-119000000D01*
X158900000Y-119000000D02*
X158900000Y-119000000D01*
X159400000Y-118500000D02*
X158900000Y-119000000D01*
X160348000Y-118500000D02*
X159400000Y-118500000D01*
X160348000Y-119500000D02*
X159400000Y-119500000D01*
X160348000Y-121500000D02*
X159400000Y-121500000D01*
X160348000Y-120500000D02*
X159400000Y-120500000D01*
X159400000Y-120500000D02*
X158900000Y-121000000D01*
X159400000Y-121500000D02*
X158900000Y-121000000D01*
X158900000Y-121000000D02*
X158900000Y-121000000D01*
X134400000Y-120500000D02*
X133900000Y-121000000D01*
X134400000Y-121500000D02*
X133900000Y-121000000D01*
X135348000Y-121500000D02*
X134400000Y-121500000D01*
X135348000Y-120500000D02*
X134400000Y-120500000D01*
X133900000Y-121000000D02*
X133900000Y-121000000D01*
X133900000Y-119000000D02*
X133900000Y-119000000D01*
X135348000Y-118500000D02*
X134400000Y-118500000D01*
X135348000Y-119500000D02*
X134400000Y-119500000D01*
X134400000Y-119500000D02*
X133900000Y-119000000D01*
X134400000Y-118500000D02*
X133900000Y-119000000D01*
X134400000Y-117500000D02*
X133900000Y-117000000D01*
X134400000Y-116500000D02*
X133900000Y-117000000D01*
X133900000Y-117000000D02*
X133900000Y-117000000D01*
X135348000Y-116500000D02*
X134400000Y-116500000D01*
X135348000Y-117500000D02*
X134400000Y-117500000D01*
X135348000Y-115500000D02*
X134400000Y-115500000D01*
X134400000Y-115500000D02*
X133900000Y-115000000D01*
X134400000Y-114500000D02*
X133900000Y-115000000D01*
X135348000Y-114500000D02*
X134400000Y-114500000D01*
X133900000Y-115000000D02*
X133900000Y-115000000D01*
X133900000Y-113000000D02*
X133900000Y-113000000D01*
X135348000Y-113500000D02*
X134400000Y-113500000D01*
X135348000Y-112500000D02*
X134400000Y-112500000D01*
X134400000Y-113500000D02*
X133900000Y-113000000D01*
X134400000Y-112500000D02*
X133900000Y-113000000D01*
X134400000Y-110500000D02*
X133900000Y-111000000D01*
X135348000Y-111500000D02*
X134400000Y-111500000D01*
X134400000Y-111500000D02*
X133900000Y-111000000D01*
X133900000Y-111000000D02*
X133900000Y-111000000D01*
X135348000Y-110500000D02*
X134400000Y-110500000D01*
X134400000Y-109500000D02*
X133900000Y-109000000D01*
X134400000Y-108500000D02*
X133900000Y-109000000D01*
X135348000Y-108500000D02*
X134400000Y-108500000D01*
X135348000Y-109500000D02*
X134400000Y-109500000D01*
X133900000Y-109000000D02*
X133900000Y-109000000D01*
X135348000Y-106500000D02*
X134400000Y-106500000D01*
X133900000Y-107000000D02*
X133900000Y-107000000D01*
X134400000Y-107500000D02*
X133900000Y-107000000D01*
X135348000Y-107500000D02*
X134400000Y-107500000D01*
X134400000Y-106500000D02*
X133900000Y-107000000D01*
X134400000Y-105500000D02*
X133900000Y-105000000D01*
X134400000Y-104500000D02*
X133900000Y-105000000D01*
X135348000Y-105500000D02*
X134400000Y-105500000D01*
X133900000Y-105000000D02*
X133900000Y-105000000D01*
X135348000Y-104500000D02*
X134400000Y-104500000D01*
X134400000Y-103500000D02*
X133900000Y-103000000D01*
X133900000Y-103000000D02*
X133900000Y-103000000D01*
X135348000Y-102500000D02*
X134400000Y-102500000D01*
X135348000Y-103500000D02*
X134400000Y-103500000D01*
X134400000Y-102500000D02*
X133900000Y-103000000D01*
X133900000Y-101000000D02*
X133900000Y-101000000D01*
X135348000Y-100500000D02*
X134400000Y-100500000D01*
X134400000Y-100500000D02*
X133900000Y-101000000D01*
X134400000Y-101500000D02*
X133900000Y-101000000D01*
X135348000Y-101500000D02*
X134400000Y-101500000D01*
X133900000Y-99000000D02*
X133900000Y-99000000D01*
X135348000Y-99500000D02*
X134400000Y-99500000D01*
X134400000Y-99500000D02*
X133900000Y-99000000D01*
X134400000Y-98500000D02*
X133900000Y-99000000D01*
X135348000Y-98500000D02*
X134400000Y-98500000D01*
X134400000Y-96500000D02*
X133900000Y-97000000D01*
X133900000Y-97000000D02*
X133900000Y-97000000D01*
X134400000Y-97500000D02*
X133900000Y-97000000D01*
X135348000Y-97500000D02*
X134400000Y-97500000D01*
X135348000Y-96500000D02*
X134400000Y-96500000D01*
X134400000Y-95500000D02*
X133900000Y-95000000D01*
X133900000Y-95000000D02*
X133900000Y-95000000D01*
X135348000Y-95500000D02*
X134400000Y-95500000D01*
X134400000Y-94500000D02*
X133900000Y-95000000D01*
X135348000Y-94500000D02*
X134400000Y-94500000D01*
X135348000Y-92500000D02*
X134400000Y-92500000D01*
X133900000Y-93000000D02*
X133900000Y-93000000D01*
X135348000Y-93500000D02*
X134400000Y-93500000D01*
X134400000Y-92500000D02*
X133900000Y-93000000D01*
X134400000Y-93500000D02*
X133900000Y-93000000D01*
X133900000Y-91000000D02*
X133900000Y-91000000D01*
X134400000Y-91500000D02*
X133900000Y-91000000D01*
X135348000Y-91500000D02*
X134400000Y-91500000D01*
X134400000Y-90500000D02*
X133900000Y-91000000D01*
X135348000Y-90500000D02*
X134400000Y-90500000D01*
X162100000Y-93400000D02*
X162100000Y-92800000D01*
X162000000Y-93500000D02*
X162100000Y-93400000D01*
X160348000Y-93500000D02*
X162000000Y-93500000D01*
X162100000Y-92800000D02*
X162100000Y-92400000D01*
X160448000Y-92400000D02*
X160348000Y-92500000D01*
X162100000Y-92400000D02*
X160448000Y-92400000D01*
X160448000Y-96400000D02*
X160348000Y-96500000D01*
X161900000Y-96800000D02*
X161900000Y-96400000D01*
X161900000Y-96800000D02*
X161900000Y-97300000D01*
X161900000Y-97300000D02*
X161700000Y-97500000D01*
X161900000Y-96400000D02*
X160448000Y-96400000D01*
X161700000Y-97500000D02*
X160348000Y-97500000D01*
X161900000Y-100800000D02*
X161900000Y-100500000D01*
X161900000Y-100500000D02*
X160348000Y-100500000D01*
X161900000Y-101400000D02*
X161900000Y-100800000D01*
X161800000Y-101500000D02*
X161900000Y-101400000D01*
X160348000Y-101500000D02*
X161800000Y-101500000D01*
D14*
X160700000Y-105500000D02*
X160348000Y-105500000D01*
D16*
X160700000Y-107500000D02*
X160348000Y-107500000D01*
D15*
X161800000Y-107000000D02*
X161800000Y-106600000D01*
X161700000Y-106500000D02*
X160348000Y-106500000D01*
X161800000Y-106600000D02*
X161700000Y-106500000D01*
X161800000Y-107000000D02*
X161800000Y-107400000D01*
X161700000Y-107500000D02*
X160348000Y-107500000D01*
X161800000Y-107400000D02*
X161700000Y-107500000D01*
X161800000Y-108500000D02*
X160348000Y-108500000D01*
X161800000Y-109000000D02*
X161800000Y-108500000D01*
X161800000Y-109000000D02*
X161800000Y-109400000D01*
X161700000Y-109500000D02*
X160348000Y-109500000D01*
X161800000Y-109400000D02*
X161700000Y-109500000D01*
X159400000Y-112500000D02*
X158900000Y-113000000D01*
X160348000Y-112500000D02*
X159400000Y-112500000D01*
X159400000Y-113500000D02*
X158900000Y-113000000D01*
X160348000Y-113500000D02*
X159400000Y-113500000D01*
X159400000Y-114500000D02*
X158900000Y-115000000D01*
X160348000Y-114500000D02*
X159400000Y-114500000D01*
X159400000Y-115500000D02*
X158900000Y-115000000D01*
X160348000Y-115500000D02*
X159400000Y-115500000D01*
X159400000Y-116500000D02*
X158900000Y-117000000D01*
X160348000Y-116500000D02*
X159400000Y-116500000D01*
X159400000Y-117500000D02*
X158900000Y-117000000D01*
X160348000Y-117500000D02*
X159400000Y-117500000D01*
X160348000Y-110500000D02*
X161800000Y-110500000D01*
X161800000Y-110500000D02*
X161800000Y-110900000D01*
X161800000Y-110900000D02*
X161800000Y-111400000D01*
X161700000Y-111500000D02*
X160348000Y-111500000D01*
X161800000Y-111400000D02*
X161700000Y-111500000D01*
X160348000Y-104500000D02*
X161800000Y-104500000D01*
X161800000Y-104500000D02*
X161800000Y-105000000D01*
X161800000Y-105000000D02*
X161800000Y-105300000D01*
X161600000Y-105500000D02*
X160348000Y-105500000D01*
X161800000Y-105300000D02*
X161600000Y-105500000D01*
D14*
%TO.N,/VDD*%
X148500000Y-112800000D02*
X148500000Y-112800000D01*
D15*
X138550000Y-121500000D02*
X147500000Y-121500000D01*
X147500000Y-121500000D02*
X148500000Y-120500000D01*
X148500000Y-120500000D02*
X148500000Y-112800000D01*
D14*
%TO.N,/CH31*%
X138550000Y-120500000D02*
X145200000Y-120500000D01*
X145800000Y-119900000D02*
X145800000Y-110400000D01*
X145200000Y-120500000D02*
X145800000Y-119900000D01*
D16*
%TO.N,/CH30*%
X138550000Y-119500000D02*
X139900000Y-119500000D01*
X139900000Y-119500000D02*
X139900000Y-119500000D01*
%TO.N,/CH29*%
X138550000Y-118500000D02*
X139900000Y-118500000D01*
X139900000Y-118500000D02*
X139900000Y-118500000D01*
D14*
%TO.N,/CH28*%
X145800000Y-108000000D02*
X145800000Y-108000000D01*
X144200000Y-108400000D02*
X144600000Y-108000000D01*
X144200000Y-117000000D02*
X144200000Y-108400000D01*
X143700000Y-117500000D02*
X144200000Y-117000000D01*
X144600000Y-108000000D02*
X145800000Y-108000000D01*
X138550000Y-117500000D02*
X143700000Y-117500000D01*
%TO.N,/CH27*%
X138550000Y-116500000D02*
X139900000Y-116500000D01*
D16*
%TO.N,/CH26*%
X138550000Y-115500000D02*
X139900000Y-115500000D01*
X139900000Y-115500000D02*
X139900000Y-115500000D01*
D14*
%TO.N,/CH25*%
X138550000Y-114500000D02*
X142700000Y-114500000D01*
X143300000Y-113900000D02*
X143300000Y-106200000D01*
X142700000Y-114500000D02*
X143300000Y-113900000D01*
X143900000Y-105600000D02*
X145800000Y-105600000D01*
X143300000Y-106200000D02*
X143900000Y-105600000D01*
D16*
%TO.N,/CH24*%
X138550000Y-113500000D02*
X139900000Y-113500000D01*
X139900000Y-113500000D02*
X139900000Y-113500000D01*
D14*
%TO.N,/CH23*%
X138550000Y-112500000D02*
X139900000Y-112500000D01*
X139900000Y-112500000D02*
X139900000Y-112500000D01*
%TO.N,/CH22*%
X145404869Y-102400000D02*
X145800000Y-102400000D01*
X141869790Y-105935079D02*
X145404869Y-102400000D01*
X141869790Y-110769790D02*
X141869790Y-105935079D01*
X141139580Y-111500000D02*
X141869790Y-110769790D01*
X138550000Y-111500000D02*
X141139580Y-111500000D01*
%TO.N,/CH21*%
X138550000Y-110500000D02*
X139900000Y-110500000D01*
X139900000Y-110500000D02*
X139900000Y-110500000D01*
%TO.N,/CH20*%
X138550000Y-109500000D02*
X139900000Y-109500000D01*
X139900000Y-109500000D02*
X139900000Y-109500000D01*
%TO.N,/CH19*%
X139900000Y-108500000D02*
X138550000Y-108500000D01*
X141200000Y-107200000D02*
X139900000Y-108500000D01*
X141200000Y-104446138D02*
X141200000Y-107200000D01*
X145646138Y-100000000D02*
X145800000Y-100000000D01*
X141200000Y-104446138D02*
X145646138Y-100000000D01*
D16*
%TO.N,/CH18*%
X138550000Y-107500000D02*
X139900000Y-107500000D01*
X139900000Y-107500000D02*
X139900000Y-107500000D01*
D14*
%TO.N,/CH17*%
X138550000Y-106500000D02*
X139900000Y-106500000D01*
X139900000Y-106500000D02*
X139900000Y-106500000D01*
%TO.N,/CH16*%
X139197182Y-105500000D02*
X142400000Y-102297182D01*
X138550000Y-105500000D02*
X139197182Y-105500000D01*
X142400000Y-102297182D02*
X142400000Y-100846138D01*
X145646138Y-97600000D02*
X145800000Y-97600000D01*
X142400000Y-100846138D02*
X145646138Y-97600000D01*
%TO.N,/CH15*%
X138550000Y-104500000D02*
X137400000Y-104500000D01*
%TO.N,/CH14*%
X138550000Y-103500000D02*
X137400000Y-103500000D01*
%TO.N,/CH13*%
X139565200Y-102500000D02*
X140000000Y-102065200D01*
X138550000Y-102500000D02*
X139565200Y-102500000D01*
X145155499Y-94890639D02*
X145646138Y-94400000D01*
X145155499Y-95958409D02*
X145155499Y-94890639D01*
X140000000Y-101113908D02*
X145155499Y-95958409D01*
X145646138Y-94400000D02*
X145800000Y-94400000D01*
X140000000Y-102065200D02*
X140000000Y-101113908D01*
%TO.N,/CH12*%
X138550000Y-101500000D02*
X137400000Y-101500000D01*
%TO.N,/CH11*%
X138550000Y-100500000D02*
X137400000Y-100500000D01*
%TO.N,/CH10*%
X145155499Y-93541683D02*
X145155499Y-92490639D01*
X139197182Y-99500000D02*
X145155499Y-93541683D01*
X145155499Y-92490639D02*
X145646138Y-92000000D01*
X138550000Y-99500000D02*
X139197182Y-99500000D01*
X145646138Y-92000000D02*
X145800000Y-92000000D01*
X145800000Y-92000000D02*
X145800000Y-92000000D01*
%TO.N,/CH9*%
X138550000Y-98500000D02*
X137400000Y-98500000D01*
%TO.N,/CH8*%
X138550000Y-97500000D02*
X137400000Y-97500000D01*
%TO.N,/CH7*%
X145155499Y-89444501D02*
X145800000Y-88800000D01*
X145155499Y-90909701D02*
X145155499Y-89444501D01*
X139565200Y-96500000D02*
X145155499Y-90909701D01*
X138550000Y-96500000D02*
X139565200Y-96500000D01*
%TO.N,/CH6*%
X138550000Y-95500000D02*
X137400000Y-95500000D01*
%TO.N,/CH5*%
X138550000Y-94500000D02*
X137400000Y-94500000D01*
%TO.N,/CH4*%
X139197182Y-93500000D02*
X138550000Y-93500000D01*
X145155499Y-87541683D02*
X139197182Y-93500000D01*
X145155499Y-86890639D02*
X145155499Y-87541683D01*
X145646138Y-86400000D02*
X145155499Y-86890639D01*
%TO.N,/CH3*%
X138550000Y-92500000D02*
X137400000Y-92500000D01*
%TO.N,/CH2*%
X138550000Y-91500000D02*
X137400000Y-91500000D01*
%TO.N,/CH1*%
X139146138Y-90500000D02*
X145646138Y-84000000D01*
X138550000Y-90500000D02*
X139146138Y-90500000D01*
X145646138Y-84000000D02*
X145800000Y-84000000D01*
X145800000Y-84000000D02*
X145800000Y-84000000D01*
D13*
%TO.N,/BIAS1*%
X136704699Y-90118077D02*
X136704699Y-120104699D01*
X136086622Y-89500000D02*
X136704699Y-90118077D01*
X135348000Y-89500000D02*
X136086622Y-89500000D01*
X136704699Y-120104699D02*
X136704699Y-121204699D01*
X136704699Y-121204699D02*
X137000000Y-121500000D01*
X137000000Y-121500000D02*
X137000000Y-121500000D01*
%TO.N,/CH0*%
X137400000Y-89500000D02*
X137400000Y-89500000D01*
X138550000Y-89500000D02*
X137400000Y-89500000D01*
D15*
%TO.N,/BCH0*%
X163550000Y-89500000D02*
X169400000Y-89500000D01*
%TO.N,/BCH1*%
X164616000Y-90500000D02*
X163550000Y-90500000D01*
X173000000Y-90500000D02*
X164616000Y-90500000D01*
%TO.N,/BCH2*%
X163550000Y-91500000D02*
X169700000Y-91500000D01*
%TO.N,/BCH3*%
X163550000Y-92500000D02*
X173000000Y-92500000D01*
%TO.N,/BCH4*%
X163550000Y-93500000D02*
X170100000Y-93500000D01*
%TO.N,/BCH5*%
X163550000Y-94500000D02*
X173000000Y-94500000D01*
%TO.N,/BCH6*%
X164616000Y-95500000D02*
X170400000Y-95500000D01*
X163550000Y-95500000D02*
X164616000Y-95500000D01*
%TO.N,/BCH7*%
X163550000Y-96500000D02*
X173000000Y-96500000D01*
%TO.N,/BCH8*%
X163550000Y-97500000D02*
X170800000Y-97500000D01*
%TO.N,/BCH9*%
X163550000Y-98500000D02*
X173000000Y-98500000D01*
%TO.N,/BCH10*%
X171242922Y-99500000D02*
X171271461Y-99528539D01*
X163550000Y-99500000D02*
X171242922Y-99500000D01*
%TO.N,/BCH11*%
X171478750Y-100500000D02*
X163550000Y-100500000D01*
X173000000Y-100500000D02*
X171478750Y-100500000D01*
%TO.N,/BCH12*%
X163550000Y-101500000D02*
X171100000Y-101500000D01*
%TO.N,/BCH13*%
X163550000Y-102500000D02*
X173000000Y-102400000D01*
%TO.N,/BCH14*%
X163550000Y-103500000D02*
X169900000Y-103500000D01*
%TO.N,/BCH15*%
X169200000Y-104500000D02*
X163550000Y-104500000D01*
X169200000Y-104500000D02*
X173000000Y-104500000D01*
D14*
%TO.N,/BCH16*%
X163550000Y-105500000D02*
X168800000Y-105500000D01*
D15*
%TO.N,/BCH17*%
X163550000Y-106500000D02*
X173000000Y-106500000D01*
D14*
%TO.N,/BCH18*%
X167153862Y-107500000D02*
X167700000Y-107500000D01*
X163550000Y-107500000D02*
X167153862Y-107500000D01*
%TO.N,/BCH19*%
X163550000Y-108500000D02*
X173100000Y-108500000D01*
%TO.N,/BCH20*%
X163550000Y-109500000D02*
X166700000Y-109500000D01*
%TO.N,/BCH21*%
X163550000Y-110500000D02*
X172900000Y-110500000D01*
%TO.N,/BCH22*%
X163550000Y-111500000D02*
X165600000Y-111500000D01*
%TO.N,/BCH23*%
X163550000Y-112500000D02*
X164900000Y-112500000D01*
D16*
%TO.N,/BCH24*%
X163550000Y-113500000D02*
X162200000Y-113500000D01*
%TO.N,/BCH25*%
X162950000Y-114500000D02*
X162100000Y-114500000D01*
%TO.N,/BCH26*%
X162950000Y-115500000D02*
X161900000Y-115500000D01*
%TO.N,/BCH27*%
X162950000Y-116500000D02*
X161900000Y-116500000D01*
%TO.N,/BCH28*%
X162950000Y-117500000D02*
X161700000Y-117500000D01*
%TO.N,/BCH29*%
X162950000Y-118500000D02*
X161700000Y-118500000D01*
%TO.N,/BCH30*%
X162950000Y-119500000D02*
X161600000Y-119500000D01*
%TO.N,/BCH31*%
X162950000Y-120500000D02*
X161600000Y-120500000D01*
D14*
%TO.N,/BIAS3*%
X153200000Y-112000000D02*
X153200000Y-112000000D01*
D13*
X153200000Y-90600000D02*
X153200000Y-112000000D01*
X154300000Y-89500000D02*
X153200000Y-90600000D01*
X160348000Y-89500000D02*
X154300000Y-89500000D01*
D14*
%TO.N,/BIAS4*%
X153200000Y-113600000D02*
X153200000Y-113600000D01*
D13*
X163550000Y-122500000D02*
X160348000Y-122500000D01*
X153200000Y-121700000D02*
X153200000Y-113600000D01*
X154000000Y-122500000D02*
X153200000Y-121700000D01*
X160348000Y-122500000D02*
X154000000Y-122500000D01*
%TD*%
M02*
