M48
; DRILL file {KiCad (5.1.9-0-10_14)} date Tuesday, April 27, 2021 at 11:00:42 AM
; FORMAT={-:-/ absolute / inch / decimal}
; #@! TF.CreationDate,2021-04-27T11:00:42-04:00
; #@! TF.GenerationSoftware,Kicad,Pcbnew,(5.1.9-0-10_14)
FMAT,2
INCH
T1C0.0120
T2C0.0157
T3C0.1500
T4C0.0571
%
G90
G05
T1
X5.4094Y-3.5236
X5.4094Y-3.6024
X5.4094Y-3.6417
X5.4094Y-3.7205
X5.4094Y-3.7598
X5.4094Y-3.8386
X5.4094Y-3.878
X5.4094Y-3.9567
X5.4094Y-3.9961
X5.4094Y-4.0748
X5.4094Y-4.1142
X5.5079Y-4.1929
X5.5079Y-4.2323
X5.5079Y-4.311
X5.5079Y-4.3504
X5.5079Y-4.4291
X5.5079Y-4.4685
X5.5079Y-4.5472
X5.5079Y-4.5866
X5.5079Y-4.6654
X5.5079Y-4.7047
X5.7341Y-3.4016
X5.7402Y-3.3071
X5.7402Y-3.3386
X5.7402Y-3.4331
X5.7402Y-3.4961
X5.7402Y-3.5591
X5.7402Y-3.622
X5.7402Y-3.6535
X5.7402Y-3.7165
X5.7402Y-3.748
X5.7402Y-3.8425
X5.7402Y-3.874
X5.7402Y-3.937
X5.7402Y-3.9685
X5.7402Y-4.0315
X5.7402Y-4.063
X5.7402Y-4.1575
X5.7402Y-4.189
X5.7402Y-4.252
X5.7402Y-4.2835
X5.7402Y-4.3465
X5.9252Y-3.874
X5.9252Y-3.9685
X5.9252Y-4.1575
X5.9252Y-4.2205
X5.9252Y-4.252
X5.9252Y-4.3307
X5.9331Y-3.5906
X5.9331Y-3.6535
X5.9331Y-3.7165
X6.0394Y-3.3071
X6.0394Y-3.3701
X6.0394Y-3.4331
X6.0394Y-3.4961
X6.3622Y-4.7047
X6.3622Y-4.7441
X6.3661Y-4.626
X6.3661Y-4.6654
X6.374Y-4.5472
X6.374Y-4.5866
X6.3819Y-4.5079
X6.3858Y-4.4685
X6.4921Y-4.4291
X6.5197Y-4.3898
X6.563Y-4.311
X6.6024Y-4.2323
X6.6457Y-4.1535
X6.6693Y-3.5236
X6.6811Y-3.6024
X6.689Y-4.0748
X6.6969Y-3.6811
X6.7087Y-3.7598
X6.7244Y-3.8386
X6.7362Y-3.9961
X6.743Y-3.9184
X6.8071Y-4.3504
X6.811Y-3.563
X6.811Y-3.6417
X6.811Y-3.7205
X6.811Y-3.7992
X6.811Y-3.878
X6.811Y-3.9567
X6.811Y-4.0315
X6.811Y-4.1142
X6.811Y-4.1929
X6.815Y-4.2717
T2
X5.2717Y-3.5827
X5.2717Y-3.6614
X5.2717Y-3.7402
X5.2717Y-3.8189
X5.2717Y-3.8976
X5.2717Y-3.9764
X5.2717Y-4.0551
X5.2717Y-4.1339
X5.2717Y-4.2126
X5.2717Y-4.2913
X5.2717Y-4.3701
X5.2717Y-4.4488
X5.2717Y-4.5276
X5.2717Y-4.6063
X5.2717Y-4.685
X5.2717Y-4.7638
X5.3937Y-4.7835
X5.3937Y-4.8228
X5.8465Y-3.2441
X5.8465Y-3.5276
X5.8465Y-3.811
X5.8465Y-4.0945
X5.8465Y-4.378
X5.8465Y-4.4409
X5.9252Y-3.2441
X5.9252Y-3.5276
X5.9252Y-3.811
X5.9252Y-4.0945
X5.9252Y-4.378
X5.9252Y-4.4409
X6.0315Y-4.4094
X6.0315Y-4.4724
X6.2559Y-3.5827
X6.2559Y-3.7402
X6.2559Y-3.8976
X6.2559Y-4.0551
X6.2559Y-4.4488
X6.2559Y-4.5276
X6.2559Y-4.6063
X6.2559Y-4.685
X6.2559Y-4.7638
X6.3701Y-4.1339
X6.3701Y-4.2126
X6.3701Y-4.2913
X6.3701Y-4.3661
X6.374Y-3.811
X6.374Y-3.9685
X6.3819Y-3.6535
T3
X4.8858Y-3.1732
X4.8858Y-5.1732
X6.8858Y-3.1732
X6.8858Y-5.1732
T4
X5.8268Y-3.1732
X5.8268Y-5.1732
T0
M30
