%TF.GenerationSoftware,KiCad,Pcbnew,(5.1.9-0-10_14)*%
%TF.CreationDate,2021-04-27T11:00:09-04:00*%
%TF.ProjectId,backplane-prototype,6261636b-706c-4616-9e65-2d70726f746f,rev?*%
%TF.SameCoordinates,Original*%
%TF.FileFunction,Copper,L4,Bot*%
%TF.FilePolarity,Positive*%
%FSLAX46Y46*%
G04 Gerber Fmt 4.6, Leading zero omitted, Abs format (unit mm)*
G04 Created by KiCad (PCBNEW (5.1.9-0-10_14)) date 2021-04-27 11:00:09*
%MOMM*%
%LPD*%
G01*
G04 APERTURE LIST*
%TA.AperFunction,SMDPad,CuDef*%
%ADD10R,1.100000X0.500000*%
%TD*%
%TA.AperFunction,ComponentPad*%
%ADD11C,7.620000*%
%TD*%
%TA.AperFunction,ViaPad*%
%ADD12C,0.800000*%
%TD*%
%TA.AperFunction,ViaPad*%
%ADD13C,0.558800*%
%TD*%
%TA.AperFunction,Conductor*%
%ADD14C,0.431800*%
%TD*%
%TA.AperFunction,Conductor*%
%ADD15C,0.381000*%
%TD*%
%TA.AperFunction,Conductor*%
%ADD16C,0.279400*%
%TD*%
%TA.AperFunction,Conductor*%
%ADD17C,0.330200*%
%TD*%
G04 APERTURE END LIST*
D10*
%TO.P,J2,1*%
%TO.N,GND*%
X151750000Y-82400000D03*
%TO.P,J2,2*%
X147250000Y-82400000D03*
%TO.P,J2,3*%
%TO.N,/BCH0*%
X151750000Y-83200000D03*
%TO.P,J2,4*%
%TO.N,/CH0*%
X147250000Y-83200000D03*
%TO.P,J2,5*%
%TO.N,/BCH1*%
X151750000Y-84000000D03*
%TO.P,J2,6*%
%TO.N,/CH1*%
X147250000Y-84000000D03*
%TO.P,J2,7*%
%TO.N,/BCH2*%
X151750000Y-84800000D03*
%TO.P,J2,8*%
%TO.N,/CH2*%
X147250000Y-84800000D03*
%TO.P,J2,9*%
%TO.N,/BCH3*%
X151750000Y-85600000D03*
%TO.P,J2,10*%
%TO.N,/CH3*%
X147250000Y-85600000D03*
%TO.P,J2,11*%
%TO.N,/BCH4*%
X151750000Y-86400000D03*
%TO.P,J2,12*%
%TO.N,/CH4*%
X147250000Y-86400000D03*
%TO.P,J2,13*%
%TO.N,/BCH5*%
X151750000Y-87200000D03*
%TO.P,J2,14*%
%TO.N,/CH5*%
X147250000Y-87200000D03*
%TO.P,J2,15*%
%TO.N,/BCH6*%
X151750000Y-88000000D03*
%TO.P,J2,16*%
%TO.N,/CH6*%
X147250000Y-88000000D03*
%TO.P,J2,17*%
%TO.N,/BCH7*%
X151750000Y-88800000D03*
%TO.P,J2,18*%
%TO.N,/CH7*%
X147250000Y-88800000D03*
%TO.P,J2,19*%
%TO.N,GND*%
X151750000Y-89600000D03*
%TO.P,J2,20*%
X147250000Y-89600000D03*
%TO.P,J2,21*%
%TO.N,/BCH8*%
X151750000Y-90400000D03*
%TO.P,J2,22*%
%TO.N,/CH8*%
X147250000Y-90400000D03*
%TO.P,J2,23*%
%TO.N,/BCH9*%
X151750000Y-91200000D03*
%TO.P,J2,24*%
%TO.N,/CH9*%
X147250000Y-91200000D03*
%TO.P,J2,25*%
%TO.N,/BCH10*%
X151750000Y-92000000D03*
%TO.P,J2,26*%
%TO.N,/CH10*%
X147250000Y-92000000D03*
%TO.P,J2,27*%
%TO.N,/BCH11*%
X151750000Y-92800000D03*
%TO.P,J2,28*%
%TO.N,/CH11*%
X147250000Y-92800000D03*
%TO.P,J2,29*%
%TO.N,/BCH12*%
X151750000Y-93600000D03*
%TO.P,J2,30*%
%TO.N,/CH12*%
X147250000Y-93600000D03*
%TO.P,J2,31*%
%TO.N,/BCH13*%
X151750000Y-94400000D03*
%TO.P,J2,32*%
%TO.N,/CH13*%
X147250000Y-94400000D03*
%TO.P,J2,33*%
%TO.N,/BCH14*%
X151750000Y-95200000D03*
%TO.P,J2,34*%
%TO.N,/CH14*%
X147250000Y-95200000D03*
%TO.P,J2,35*%
%TO.N,/BCH15*%
X151750000Y-96000000D03*
%TO.P,J2,36*%
%TO.N,/CH15*%
X147250000Y-96000000D03*
%TO.P,J2,37*%
%TO.N,GND*%
X151750000Y-96800000D03*
%TO.P,J2,38*%
X147250000Y-96800000D03*
%TO.P,J2,39*%
%TO.N,/BCH16*%
X151750000Y-97600000D03*
%TO.P,J2,40*%
%TO.N,/CH16*%
X147250000Y-97600000D03*
%TO.P,J2,41*%
%TO.N,/BCH17*%
X151750000Y-98400000D03*
%TO.P,J2,42*%
%TO.N,/CH17*%
X147250000Y-98400000D03*
%TO.P,J2,43*%
%TO.N,/BCH18*%
X151750000Y-99200000D03*
%TO.P,J2,44*%
%TO.N,/CH18*%
X147250000Y-99200000D03*
%TO.P,J2,45*%
%TO.N,/BCH19*%
X151750000Y-100000000D03*
%TO.P,J2,46*%
%TO.N,/CH19*%
X147250000Y-100000000D03*
%TO.P,J2,47*%
%TO.N,/BCH20*%
X151750000Y-100800000D03*
%TO.P,J2,48*%
%TO.N,/CH20*%
X147250000Y-100800000D03*
%TO.P,J2,49*%
%TO.N,/BCH21*%
X151750000Y-101600000D03*
%TO.P,J2,50*%
%TO.N,/CH21*%
X147250000Y-101600000D03*
%TO.P,J2,51*%
%TO.N,/BCH22*%
X151750000Y-102400000D03*
%TO.P,J2,52*%
%TO.N,/CH22*%
X147250000Y-102400000D03*
%TO.P,J2,53*%
%TO.N,/BCH23*%
X151750000Y-103200000D03*
%TO.P,J2,54*%
%TO.N,/CH23*%
X147250000Y-103200000D03*
%TO.P,J2,55*%
%TO.N,GND*%
X151750000Y-104000000D03*
%TO.P,J2,56*%
X147250000Y-104000000D03*
%TO.P,J2,57*%
%TO.N,/BCH24*%
X151750000Y-104800000D03*
%TO.P,J2,58*%
%TO.N,/CH24*%
X147250000Y-104800000D03*
%TO.P,J2,59*%
%TO.N,/BCH25*%
X151750000Y-105600000D03*
%TO.P,J2,60*%
%TO.N,/CH25*%
X147250000Y-105600000D03*
%TO.P,J2,61*%
%TO.N,/BCH26*%
X151750000Y-106400000D03*
%TO.P,J2,62*%
%TO.N,/CH26*%
X147250000Y-106400000D03*
%TO.P,J2,63*%
%TO.N,/BCH27*%
X151750000Y-107200000D03*
%TO.P,J2,64*%
%TO.N,/CH27*%
X147250000Y-107200000D03*
%TO.P,J2,65*%
%TO.N,/BCH28*%
X151750000Y-108000000D03*
%TO.P,J2,66*%
%TO.N,/CH28*%
X147250000Y-108000000D03*
%TO.P,J2,67*%
%TO.N,/BCH29*%
X151750000Y-108800000D03*
%TO.P,J2,68*%
%TO.N,/CH29*%
X147250000Y-108800000D03*
%TO.P,J2,69*%
%TO.N,/BCH30*%
X151750000Y-109600000D03*
%TO.P,J2,70*%
%TO.N,/CH30*%
X147250000Y-109600000D03*
%TO.P,J2,71*%
%TO.N,/BCH31*%
X151750000Y-110400000D03*
%TO.P,J2,72*%
%TO.N,/CH31*%
X147250000Y-110400000D03*
%TO.P,J2,73*%
%TO.N,GND*%
X151750000Y-111200000D03*
%TO.P,J2,74*%
X147250000Y-111200000D03*
%TO.P,J2,75*%
%TO.N,/BIAS3*%
X151750000Y-112000000D03*
%TO.P,J2,76*%
%TO.N,/BIAS1*%
X147250000Y-112000000D03*
%TO.P,J2,77*%
%TO.N,/OUT*%
X151750000Y-112800000D03*
%TO.P,J2,78*%
%TO.N,/VDD*%
X147250000Y-112800000D03*
%TO.P,J2,79*%
%TO.N,/BIAS4*%
X151750000Y-113600000D03*
%TO.P,J2,80*%
%TO.N,/BIAS2*%
X147250000Y-113600000D03*
%TO.P,J2,81*%
%TO.N,Net-(J2-Pad81)*%
X151750000Y-114400000D03*
%TO.P,J2,82*%
%TO.N,Net-(J2-Pad82)*%
X147250000Y-114400000D03*
%TO.P,J2,83*%
%TO.N,Net-(J2-Pad83)*%
X151750000Y-115200000D03*
%TO.P,J2,84*%
%TO.N,Net-(J2-Pad84)*%
X147250000Y-115200000D03*
%TO.P,J2,85*%
%TO.N,Net-(J2-Pad85)*%
X151750000Y-116000000D03*
%TO.P,J2,86*%
%TO.N,Net-(J2-Pad86)*%
X147250000Y-116000000D03*
%TO.P,J2,87*%
%TO.N,Net-(J2-Pad87)*%
X151750000Y-116800000D03*
%TO.P,J2,88*%
%TO.N,Net-(J2-Pad88)*%
X147250000Y-116800000D03*
%TO.P,J2,89*%
%TO.N,Net-(J2-Pad89)*%
X151750000Y-117600000D03*
%TO.P,J2,90*%
%TO.N,Net-(J2-Pad90)*%
X147250000Y-117600000D03*
%TO.P,J2,91*%
%TO.N,Net-(J2-Pad91)*%
X151750000Y-118400000D03*
%TO.P,J2,92*%
%TO.N,Net-(J2-Pad92)*%
X147250000Y-118400000D03*
%TO.P,J2,93*%
%TO.N,Net-(J2-Pad93)*%
X151750000Y-119200000D03*
%TO.P,J2,94*%
%TO.N,Net-(J2-Pad94)*%
X147250000Y-119200000D03*
%TO.P,J2,95*%
%TO.N,Net-(J2-Pad95)*%
X151750000Y-120000000D03*
%TO.P,J2,96*%
%TO.N,Net-(J2-Pad96)*%
X147250000Y-120000000D03*
%TO.P,J2,97*%
%TO.N,Net-(J2-Pad97)*%
X151750000Y-120800000D03*
%TO.P,J2,98*%
%TO.N,Net-(J2-Pad98)*%
X147250000Y-120800000D03*
%TO.P,J2,99*%
%TO.N,Net-(J2-Pad99)*%
X151750000Y-121600000D03*
%TO.P,J2,100*%
%TO.N,Net-(J2-Pad100)*%
X147250000Y-121600000D03*
%TO.P,J2,101*%
%TO.N,Net-(J2-Pad101)*%
X151750000Y-122400000D03*
%TO.P,J2,102*%
%TO.N,Net-(J2-Pad102)*%
X147250000Y-122400000D03*
%TO.P,J2,103*%
%TO.N,Net-(J2-Pad103)*%
X151750000Y-123200000D03*
%TO.P,J2,104*%
%TO.N,Net-(J2-Pad104)*%
X147250000Y-123200000D03*
%TO.P,J2,105*%
%TO.N,Net-(J2-Pad105)*%
X151750000Y-124000000D03*
%TO.P,J2,106*%
%TO.N,Net-(J2-Pad106)*%
X147250000Y-124000000D03*
%TO.P,J2,107*%
%TO.N,Net-(J2-Pad107)*%
X151750000Y-124800000D03*
%TO.P,J2,108*%
%TO.N,Net-(J2-Pad108)*%
X147250000Y-124800000D03*
%TO.P,J2,109*%
%TO.N,Net-(J2-Pad109)*%
X151750000Y-125600000D03*
%TO.P,J2,110*%
%TO.N,Net-(J2-Pad110)*%
X147250000Y-125600000D03*
%TO.P,J2,111*%
%TO.N,Net-(J2-Pad111)*%
X151750000Y-126400000D03*
%TO.P,J2,112*%
%TO.N,Net-(J2-Pad112)*%
X147250000Y-126400000D03*
%TO.P,J2,113*%
%TO.N,Net-(J2-Pad113)*%
X151750000Y-127200000D03*
%TO.P,J2,114*%
%TO.N,Net-(J2-Pad114)*%
X147250000Y-127200000D03*
%TO.P,J2,115*%
%TO.N,Net-(J2-Pad115)*%
X151750000Y-128000000D03*
%TO.P,J2,116*%
%TO.N,Net-(J2-Pad116)*%
X147250000Y-128000000D03*
%TO.P,J2,117*%
%TO.N,Net-(J2-Pad117)*%
X151750000Y-128800000D03*
%TO.P,J2,118*%
%TO.N,Net-(J2-Pad118)*%
X147250000Y-128800000D03*
%TO.P,J2,119*%
%TO.N,Net-(J2-Pad119)*%
X151750000Y-129600000D03*
%TO.P,J2,120*%
%TO.N,Net-(J2-Pad120)*%
X147250000Y-129600000D03*
%TD*%
D11*
%TO.P,H1,1*%
%TO.N,GND*%
X124100000Y-80600000D03*
%TD*%
%TO.P,H2,2*%
%TO.N,GND*%
X174900000Y-80600000D03*
%TD*%
%TO.P,H3,3*%
%TO.N,GND*%
X124100000Y-131400000D03*
%TD*%
%TO.P,H4,4*%
%TO.N,GND*%
X174900000Y-131400000D03*
%TD*%
D12*
%TO.N,/BIAS2*%
X137000000Y-122500000D03*
%TO.N,/OUT*%
X150500000Y-112800000D03*
%TO.N,GND*%
X158900000Y-91000000D03*
X158900000Y-95000000D03*
X158900000Y-99000000D03*
X158900000Y-103000000D03*
X158900000Y-119000000D03*
X158900000Y-121000000D03*
X133900000Y-121000000D03*
X133900000Y-119000000D03*
X133900000Y-117000000D03*
X133900000Y-115000000D03*
X133900000Y-113000000D03*
X133900000Y-111000000D03*
X133900000Y-109000000D03*
X133900000Y-107000000D03*
X133900000Y-105000000D03*
X133900000Y-103000000D03*
X133900000Y-101000000D03*
X133900000Y-99000000D03*
X133900000Y-97000000D03*
X133900000Y-95000000D03*
X133900000Y-93000000D03*
X133900000Y-91000000D03*
X162100000Y-92800000D03*
X161900000Y-96800000D03*
X161900000Y-100800000D03*
X161800000Y-107000000D03*
X161800000Y-109000000D03*
X158900000Y-113000000D03*
X158900000Y-115000000D03*
X158900000Y-117000000D03*
X161800000Y-110900000D03*
X161800000Y-105000000D03*
X148500000Y-111200000D03*
X150500000Y-111200000D03*
X148500000Y-104000000D03*
X148500000Y-96800000D03*
X148500000Y-89600000D03*
X148500000Y-82400000D03*
X150500000Y-104000000D03*
X150500000Y-96800000D03*
X150500000Y-89600000D03*
X150500000Y-82400000D03*
%TO.N,/VDD*%
X148500000Y-112800000D03*
D13*
%TO.N,/CH31*%
X145800000Y-110400000D03*
%TO.N,/CH30*%
X139900000Y-119500000D03*
%TO.N,/CH29*%
X145800000Y-108800000D03*
X139900000Y-118500000D03*
%TO.N,/CH28*%
X145800000Y-108000000D03*
%TO.N,/CH27*%
X139900000Y-116500000D03*
%TO.N,/CH26*%
X139900000Y-115500000D03*
X145800000Y-106400000D03*
%TO.N,/CH25*%
X145800000Y-105600000D03*
%TO.N,/CH24*%
X139900000Y-113500000D03*
%TO.N,/CH23*%
X145800000Y-103200000D03*
X139900000Y-112500000D03*
%TO.N,/CH22*%
X145800000Y-102400000D03*
%TO.N,/CH21*%
X139900000Y-110500000D03*
%TO.N,/CH20*%
X139900000Y-109500000D03*
X145800000Y-100800000D03*
%TO.N,/CH19*%
X145800000Y-100000000D03*
%TO.N,/CH18*%
X139900000Y-107500000D03*
%TO.N,/CH17*%
X145800000Y-98400000D03*
X139900000Y-106500000D03*
%TO.N,/CH16*%
X145800000Y-97600000D03*
%TO.N,/CH15*%
X137400000Y-104500000D03*
%TO.N,/CH14*%
X145800000Y-95200000D03*
X137400000Y-103500000D03*
%TO.N,/CH13*%
X145800000Y-94400000D03*
%TO.N,/CH12*%
X137400000Y-101500000D03*
%TO.N,/CH11*%
X145800000Y-92800000D03*
X137400000Y-100500000D03*
%TO.N,/CH10*%
X145800000Y-92000000D03*
%TO.N,/CH9*%
X137400000Y-98500000D03*
%TO.N,/CH8*%
X145800000Y-90400000D03*
X137400000Y-97500000D03*
%TO.N,/CH7*%
X145800000Y-88800000D03*
%TO.N,/CH6*%
X137400000Y-95500000D03*
%TO.N,/CH5*%
X145800000Y-87200000D03*
X137400000Y-94500000D03*
%TO.N,/CH4*%
X145646138Y-86400000D03*
%TO.N,/CH3*%
X137400000Y-92500000D03*
%TO.N,/CH2*%
X145800000Y-84800000D03*
X137400000Y-91500000D03*
%TO.N,/CH1*%
X145800000Y-84000000D03*
D12*
%TO.N,/BIAS1*%
X137000000Y-121500000D03*
D13*
%TO.N,/CH0*%
X137400000Y-89500000D03*
%TO.N,/BCH0*%
X169400000Y-89500000D03*
%TO.N,/BCH1*%
X173000000Y-90500000D03*
X153400000Y-84000000D03*
%TO.N,/BCH2*%
X169700000Y-91500000D03*
%TO.N,/BCH3*%
X173000000Y-92500000D03*
X153400000Y-85600000D03*
%TO.N,/BCH4*%
X170100000Y-93500000D03*
%TO.N,/BCH5*%
X173000000Y-94500000D03*
X153400000Y-87200000D03*
%TO.N,/BCH6*%
X170400000Y-95500000D03*
%TO.N,/BCH7*%
X173000000Y-96500000D03*
X153400000Y-88800000D03*
%TO.N,/BCH8*%
X170800000Y-97500000D03*
%TO.N,/BCH9*%
X150700000Y-91200000D03*
X173000000Y-98500000D03*
%TO.N,/BCH10*%
X171271461Y-99528539D03*
%TO.N,/BCH11*%
X150700000Y-92800000D03*
X173000000Y-100500000D03*
%TO.N,/BCH12*%
X171100000Y-101500000D03*
%TO.N,/BCH13*%
X150700000Y-94400000D03*
X173000000Y-102400000D03*
%TO.N,/BCH14*%
X169900000Y-103500000D03*
%TO.N,/BCH15*%
X173000000Y-104500000D03*
%TO.N,/BCH16*%
X168800000Y-105500000D03*
%TO.N,/BCH17*%
X173000000Y-106500000D03*
X150500000Y-98400000D03*
%TO.N,/BCH18*%
X167700000Y-107500000D03*
%TO.N,/BCH19*%
X173100000Y-108500000D03*
%TO.N,/BCH20*%
X166700000Y-109500000D03*
X150500000Y-100800000D03*
%TO.N,/BCH21*%
X172900000Y-110500000D03*
%TO.N,/BCH22*%
X165600000Y-111500000D03*
%TO.N,/BCH23*%
X164900000Y-112500000D03*
%TO.N,/BCH24*%
X162200000Y-113500000D03*
%TO.N,/BCH25*%
X162100000Y-114500000D03*
X150500000Y-105600000D03*
%TO.N,/BCH26*%
X161900000Y-115500000D03*
%TO.N,/BCH27*%
X161900000Y-116500000D03*
X150500000Y-107200000D03*
%TO.N,/BCH28*%
X161700000Y-117500000D03*
X150500000Y-108000000D03*
%TO.N,/BCH29*%
X161700000Y-118500000D03*
%TO.N,/BCH30*%
X161600000Y-119500000D03*
%TO.N,/BCH31*%
X161600000Y-120500000D03*
X150500000Y-110000000D03*
D12*
%TO.N,/BIAS3*%
X153200000Y-112000000D03*
%TO.N,/BIAS4*%
X153200000Y-113600000D03*
%TD*%
D14*
%TO.N,/BIAS2*%
X146000000Y-113600000D02*
X147250000Y-113600000D01*
X145800000Y-113800000D02*
X146000000Y-113600000D01*
X145800000Y-121500000D02*
X145800000Y-113800000D01*
X144800000Y-122500000D02*
X145800000Y-121500000D01*
X137000000Y-122500000D02*
X144800000Y-122500000D01*
D15*
%TO.N,/OUT*%
X151750000Y-112800000D02*
X150500000Y-112800000D01*
D14*
%TO.N,GND*%
X147250000Y-111200000D02*
X148500000Y-111200000D01*
X148500000Y-111200000D02*
X148500000Y-111200000D01*
X151750000Y-111200000D02*
X150500000Y-111200000D01*
X150500000Y-111200000D02*
X150500000Y-111200000D01*
X148500000Y-104000000D02*
X148500000Y-104000000D01*
X147250000Y-104000000D02*
X148500000Y-104000000D01*
X147250000Y-96800000D02*
X148500000Y-96800000D01*
X148500000Y-96800000D02*
X148500000Y-96800000D01*
X147250000Y-89600000D02*
X148500000Y-89600000D01*
X148500000Y-89600000D02*
X148500000Y-89600000D01*
X148500000Y-82400000D02*
X148500000Y-82400000D01*
X147250000Y-82400000D02*
X148500000Y-82400000D01*
X150500000Y-104000000D02*
X150500000Y-104000000D01*
X151750000Y-104000000D02*
X150500000Y-104000000D01*
X151750000Y-96800000D02*
X150500000Y-96800000D01*
X150500000Y-96800000D02*
X150500000Y-96800000D01*
X150500000Y-89600000D02*
X150500000Y-89600000D01*
X151750000Y-89600000D02*
X150500000Y-89600000D01*
X150500000Y-82400000D02*
X150500000Y-82400000D01*
X151750000Y-82400000D02*
X150500000Y-82400000D01*
D15*
%TO.N,/VDD*%
X147250000Y-112800000D02*
X148500000Y-112800000D01*
D16*
%TO.N,/CH31*%
X147250000Y-110400000D02*
X145800000Y-110400000D01*
X145800000Y-110400000D02*
X145800000Y-110400000D01*
D17*
%TO.N,/CH30*%
X145646138Y-109600000D02*
X144318990Y-110927148D01*
X147250000Y-109600000D02*
X145646138Y-109600000D01*
X144318990Y-110927148D02*
X144318990Y-119081010D01*
X143900000Y-119500000D02*
X139900000Y-119500000D01*
X144318990Y-119081010D02*
X143900000Y-119500000D01*
D16*
%TO.N,/CH29*%
X147250000Y-108800000D02*
X145800000Y-108800000D01*
X145800000Y-108800000D02*
X145800000Y-108800000D01*
D17*
%TO.N,/CH28*%
X147250000Y-108000000D02*
X145800000Y-108000000D01*
%TO.N,/CH27*%
X145646138Y-107200000D02*
X143400000Y-109446138D01*
X147250000Y-107200000D02*
X145646138Y-107200000D01*
X143400000Y-109446138D02*
X143400000Y-116300000D01*
X143400000Y-116300000D02*
X143200000Y-116500000D01*
X143200000Y-116500000D02*
X139900000Y-116500000D01*
X139900000Y-116500000D02*
X139900000Y-116500000D01*
%TO.N,/CH26*%
X147250000Y-106400000D02*
X145800000Y-106400000D01*
X145800000Y-106400000D02*
X145800000Y-106400000D01*
D16*
%TO.N,/CH25*%
X147250000Y-105600000D02*
X145800000Y-105600000D01*
X145800000Y-105600000D02*
X145800000Y-105600000D01*
D17*
%TO.N,/CH24*%
X145700000Y-104800000D02*
X142800000Y-107400000D01*
X147250000Y-104800000D02*
X145700000Y-104800000D01*
X142200000Y-113500000D02*
X142800000Y-112900000D01*
X142100000Y-113500000D02*
X139900000Y-113500000D01*
X142100000Y-113500000D02*
X142200000Y-113500000D01*
X142800000Y-107400000D02*
X142800000Y-112900000D01*
D16*
%TO.N,/CH23*%
X147250000Y-103200000D02*
X145800000Y-103200000D01*
X145800000Y-103200000D02*
X145800000Y-103200000D01*
D17*
%TO.N,/CH22*%
X147250000Y-102400000D02*
X145800000Y-102400000D01*
X145800000Y-102400000D02*
X145800000Y-102400000D01*
%TO.N,/CH21*%
X145646138Y-101600000D02*
X147250000Y-101600000D01*
X141897627Y-110097627D02*
X141869790Y-105376348D01*
X141869790Y-105376348D02*
X145646138Y-101600000D01*
X141495254Y-110500000D02*
X141897627Y-110097627D01*
X139900000Y-110500000D02*
X141495254Y-110500000D01*
%TO.N,/CH20*%
X145900000Y-100800000D02*
X145900000Y-100800000D01*
X147250000Y-100800000D02*
X145800000Y-100800000D01*
%TO.N,/CH19*%
X147250000Y-100000000D02*
X145800000Y-100000000D01*
X145800000Y-100000000D02*
X145800000Y-100000000D01*
%TO.N,/CH18*%
X145646138Y-99200000D02*
X147250000Y-99200000D01*
X141000000Y-103842857D02*
X145646138Y-99200000D01*
X140600000Y-107500000D02*
X141000000Y-107100000D01*
X141000000Y-107100000D02*
X141000000Y-103842857D01*
X139900000Y-107500000D02*
X140600000Y-107500000D01*
%TO.N,/CH17*%
X147250000Y-98400000D02*
X145800000Y-98400000D01*
X145800000Y-98400000D02*
X145800000Y-98400000D01*
%TO.N,/CH16*%
X147250000Y-97600000D02*
X145800000Y-97600000D01*
%TO.N,/CH15*%
X146353862Y-96000000D02*
X147250000Y-96000000D01*
X137853862Y-104500000D02*
X146353862Y-96000000D01*
X137400000Y-104500000D02*
X137853862Y-104500000D01*
%TO.N,/CH14*%
X147250000Y-95200000D02*
X145800000Y-95200000D01*
D16*
%TO.N,/CH13*%
X147250000Y-94400000D02*
X145800000Y-94400000D01*
X145800000Y-94400000D02*
X145800000Y-94400000D01*
D17*
%TO.N,/CH12*%
X145646138Y-93600000D02*
X137746138Y-101500000D01*
X147250000Y-93600000D02*
X145646138Y-93600000D01*
X137746138Y-101500000D02*
X137400000Y-101500000D01*
X137400000Y-101500000D02*
X137400000Y-101500000D01*
%TO.N,/CH11*%
X147250000Y-92800000D02*
X145800000Y-92800000D01*
X145800000Y-92800000D02*
X145800000Y-92800000D01*
%TO.N,/CH10*%
X147250000Y-92000000D02*
X145800000Y-92000000D01*
%TO.N,/CH9*%
X145646138Y-91200000D02*
X138346138Y-98500000D01*
X147250000Y-91200000D02*
X145646138Y-91200000D01*
X138346138Y-98500000D02*
X137400000Y-98500000D01*
X137400000Y-98500000D02*
X137400000Y-98500000D01*
%TO.N,/CH8*%
X147250000Y-90400000D02*
X145800000Y-90400000D01*
X145800000Y-90400000D02*
X145800000Y-90400000D01*
%TO.N,/CH7*%
X147250000Y-88800000D02*
X145800000Y-88800000D01*
X145800000Y-88800000D02*
X145800000Y-88800000D01*
%TO.N,/CH6*%
X145646138Y-88000000D02*
X138146138Y-95500000D01*
X147250000Y-88000000D02*
X145646138Y-88000000D01*
X138146138Y-95500000D02*
X137400000Y-95500000D01*
X137400000Y-95500000D02*
X137400000Y-95500000D01*
%TO.N,/CH5*%
X147250000Y-87200000D02*
X145800000Y-87200000D01*
X145800000Y-87200000D02*
X145800000Y-87200000D01*
%TO.N,/CH4*%
X147250000Y-86400000D02*
X145646138Y-86400000D01*
%TO.N,/CH3*%
X145492276Y-85600000D02*
X138592276Y-92500000D01*
X147250000Y-85600000D02*
X145492276Y-85600000D01*
X138592276Y-92500000D02*
X137400000Y-92500000D01*
X137400000Y-92500000D02*
X137400000Y-92500000D01*
%TO.N,/CH2*%
X147250000Y-84800000D02*
X145800000Y-84800000D01*
X145800000Y-84800000D02*
X145800000Y-84800000D01*
%TO.N,/CH1*%
X147250000Y-84000000D02*
X145800000Y-84000000D01*
D14*
%TO.N,/BIAS1*%
X146501378Y-112000000D02*
X144900000Y-113601378D01*
X147250000Y-112000000D02*
X146501378Y-112000000D01*
X144900000Y-113601378D02*
X144900000Y-120600000D01*
X144900000Y-120600000D02*
X144000000Y-121500000D01*
X144000000Y-121500000D02*
X137000000Y-121500000D01*
D17*
%TO.N,/CH0*%
X143700000Y-83200000D02*
X137400000Y-89500000D01*
X147250000Y-83200000D02*
X143700000Y-83200000D01*
D15*
%TO.N,/BCH0*%
X169400000Y-89500000D02*
X169400000Y-89500000D01*
X169200000Y-89500000D02*
X169400000Y-89500000D01*
X162900000Y-83200000D02*
X169200000Y-89500000D01*
X151750000Y-83200000D02*
X162900000Y-83200000D01*
%TO.N,/BCH1*%
X151750000Y-84000000D02*
X153400000Y-84000000D01*
X153400000Y-84000000D02*
X153400000Y-84000000D01*
%TO.N,/BCH2*%
X151750000Y-84800000D02*
X162816297Y-84800000D01*
X162816297Y-84800000D02*
X169516297Y-91500000D01*
X169516297Y-91500000D02*
X169700000Y-91500000D01*
X169700000Y-91500000D02*
X169700000Y-91500000D01*
%TO.N,/BCH3*%
X151750000Y-85600000D02*
X153400000Y-85600000D01*
X153400000Y-85600000D02*
X153400000Y-85600000D01*
%TO.N,/BCH4*%
X151750000Y-86400000D02*
X162772953Y-86400000D01*
X162772953Y-86400000D02*
X169872953Y-93500000D01*
X169872953Y-93500000D02*
X170100000Y-93500000D01*
X170100000Y-93500000D02*
X170100000Y-93500000D01*
%TO.N,/BCH5*%
X151750000Y-87200000D02*
X153400000Y-87200000D01*
%TO.N,/BCH6*%
X170400000Y-95500000D02*
X170400000Y-95500000D01*
X170229609Y-95500000D02*
X170400000Y-95500000D01*
X162729609Y-88000000D02*
X170229609Y-95500000D01*
X151750000Y-88000000D02*
X162729609Y-88000000D01*
%TO.N,/BCH7*%
X151750000Y-88800000D02*
X153400000Y-88800000D01*
%TO.N,/BCH8*%
X170800000Y-97500000D02*
X170586265Y-97500000D01*
X162605893Y-89519629D02*
X164993132Y-91906868D01*
X164993132Y-91906868D02*
X163486265Y-90400000D01*
X170586265Y-97500000D02*
X164993132Y-91906868D01*
X158330058Y-90400000D02*
X159210429Y-89519629D01*
X159210429Y-89519629D02*
X162605893Y-89519629D01*
X151750000Y-90400000D02*
X158330058Y-90400000D01*
%TO.N,/BCH9*%
X151750000Y-91200000D02*
X150700000Y-91200000D01*
X150700000Y-91200000D02*
X150700000Y-91200000D01*
%TO.N,/BCH10*%
X151750000Y-92000000D02*
X163442921Y-92000000D01*
X163442921Y-92000000D02*
X163880903Y-92437982D01*
X163880903Y-92437982D02*
X170971460Y-99528539D01*
X170971460Y-99528539D02*
X171271461Y-99528539D01*
X171271461Y-99528539D02*
X171271461Y-99528539D01*
%TO.N,/BCH11*%
X151750000Y-92800000D02*
X150700000Y-92800000D01*
X150700000Y-92800000D02*
X150700000Y-92800000D01*
%TO.N,/BCH12*%
X171100000Y-101500000D02*
X171100000Y-101500000D01*
X170919479Y-101319479D02*
X171100000Y-101500000D01*
X170919479Y-101119902D02*
X170919479Y-101319479D01*
X163399578Y-93600000D02*
X170919479Y-101119902D01*
X151750000Y-93600000D02*
X163399578Y-93600000D01*
%TO.N,/BCH13*%
X151750000Y-94400000D02*
X150700000Y-94400000D01*
X150700000Y-94400000D02*
X150700000Y-94400000D01*
%TO.N,/BCH14*%
X169757460Y-101601227D02*
X169757460Y-103357460D01*
X169757460Y-103357460D02*
X169900000Y-103500000D01*
X169900000Y-103500000D02*
X169900000Y-103500000D01*
X158520559Y-94209499D02*
X162365731Y-94209499D01*
X157530058Y-95200000D02*
X158520559Y-94209499D01*
X162365731Y-94209499D02*
X163628116Y-95471884D01*
X151750000Y-95200000D02*
X157530058Y-95200000D01*
X163628116Y-95471884D02*
X169757460Y-101601227D01*
X163356233Y-95200000D02*
X163628116Y-95471884D01*
%TO.N,/BCH15*%
X169176450Y-101841889D02*
X169176450Y-103767904D01*
X169176450Y-101841889D02*
X163334560Y-96000000D01*
X163334560Y-96000000D02*
X151750000Y-96000000D01*
X169908546Y-104500000D02*
X173000000Y-104500000D01*
X169176450Y-103767904D02*
X169908546Y-104500000D01*
D17*
%TO.N,/BCH16*%
X164148810Y-97600000D02*
X168620840Y-102072030D01*
X168620840Y-102072030D02*
X168620840Y-105320840D01*
X168620840Y-105320840D02*
X168800000Y-105500000D01*
X168800000Y-105500000D02*
X168800000Y-105500000D01*
D15*
X164112889Y-97600000D02*
X164130850Y-97617961D01*
X151750000Y-97600000D02*
X164112889Y-97600000D01*
%TO.N,/BCH17*%
X151750000Y-98400000D02*
X150500000Y-98400000D01*
X150500000Y-98400000D02*
X150500000Y-98400000D01*
D17*
%TO.N,/BCH18*%
X167700000Y-107500000D02*
X167700000Y-107500000D01*
D15*
X151750000Y-99200000D02*
X152681000Y-99200000D01*
X153671501Y-98209499D02*
X163294569Y-98209499D01*
X167630099Y-102545029D02*
X167630099Y-107430099D01*
X152681000Y-99200000D02*
X153671501Y-98209499D01*
X163294569Y-98209499D02*
X167630099Y-102545029D01*
X167630099Y-107430099D02*
X167700000Y-107500000D01*
D17*
%TO.N,/BCH19*%
X164299320Y-100000000D02*
X151750000Y-100000000D01*
X166490630Y-102191310D02*
X164299320Y-100000000D01*
X166490630Y-107244492D02*
X166490630Y-102191310D01*
X167746138Y-108500000D02*
X166490630Y-107244492D01*
X173100000Y-108500000D02*
X167746138Y-108500000D01*
D15*
%TO.N,/BCH20*%
X151750000Y-100800000D02*
X150500000Y-100800000D01*
X150500000Y-100800000D02*
X150500000Y-100800000D01*
D17*
%TO.N,/BCH21*%
X164399660Y-101600000D02*
X151750000Y-101600000D01*
X165960420Y-103160760D02*
X164399660Y-101600000D01*
X166746138Y-110500000D02*
X172900000Y-110500000D01*
X165960420Y-109714282D02*
X166746138Y-110500000D01*
X165960420Y-103160760D02*
X165960420Y-109714282D01*
%TO.N,/BCH22*%
X165430210Y-111200000D02*
X165430210Y-111330210D01*
X165430210Y-111330210D02*
X165600000Y-111500000D01*
X165600000Y-111500000D02*
X165600000Y-111500000D01*
X165430210Y-103380380D02*
X165430210Y-111200000D01*
X164284729Y-102234899D02*
X165074915Y-103025085D01*
X165074915Y-103025085D02*
X165430210Y-103380380D01*
X164449830Y-102400000D02*
X165074915Y-103025085D01*
X155259825Y-102400000D02*
X155529615Y-102130210D01*
X151750000Y-102400000D02*
X155259825Y-102400000D01*
X164180040Y-102130210D02*
X164284729Y-102234899D01*
X155529615Y-102130210D02*
X164180040Y-102130210D01*
%TO.N,/BCH23*%
X164900000Y-112500000D02*
X164900000Y-112500000D01*
X157967650Y-103200000D02*
X158567650Y-103800000D01*
X151750000Y-103200000D02*
X157967650Y-103200000D01*
X164900000Y-105500000D02*
X164900000Y-112500000D01*
X163200000Y-103800000D02*
X164900000Y-105500000D01*
X158567650Y-103800000D02*
X163200000Y-103800000D01*
D16*
%TO.N,/BCH24*%
X162200000Y-113500000D02*
X162200000Y-113500000D01*
D17*
X162565101Y-113134899D02*
X162200000Y-113500000D01*
X162565101Y-106632751D02*
X162565101Y-113134899D01*
X162167249Y-106234899D02*
X162565101Y-106632751D01*
X159902549Y-106234899D02*
X162167249Y-106234899D01*
X158467650Y-104800000D02*
X159902549Y-106234899D01*
X151750000Y-104800000D02*
X158467650Y-104800000D01*
%TO.N,/BCH25*%
X151750000Y-105600000D02*
X150500000Y-105600000D01*
X150500000Y-105600000D02*
X150500000Y-105600000D01*
%TO.N,/BCH26*%
X161004810Y-114604810D02*
X161900000Y-115500000D01*
X158600000Y-106400000D02*
X161004810Y-108804810D01*
X161004810Y-108804810D02*
X161004810Y-114604810D01*
X151750000Y-106400000D02*
X158600000Y-106400000D01*
D16*
%TO.N,/BCH27*%
X151750000Y-107200000D02*
X150500000Y-107200000D01*
X150500000Y-107200000D02*
X150500000Y-107200000D01*
%TO.N,/BCH28*%
X151750000Y-108000000D02*
X150500000Y-108000000D01*
%TO.N,/BCH29*%
X160500000Y-117300000D02*
X161700000Y-118500000D01*
X160500000Y-113505242D02*
X160500000Y-117300000D01*
X155794758Y-108800000D02*
X160500000Y-113505242D01*
X151750000Y-108800000D02*
X155794758Y-108800000D01*
%TO.N,/BCH30*%
X161600000Y-119500000D02*
X161600000Y-119500000D01*
X161360299Y-119739701D02*
X161600000Y-119500000D01*
X158544943Y-119739701D02*
X161360299Y-119739701D01*
X158100000Y-119294758D02*
X158544943Y-119739701D01*
X151750000Y-109600000D02*
X152405242Y-109600000D01*
X158100000Y-115294758D02*
X158100000Y-119294758D01*
X152405242Y-109600000D02*
X158100000Y-115294758D01*
%TO.N,/BCH31*%
X161600000Y-120500000D02*
X161600000Y-120500000D01*
D17*
X151750000Y-110400000D02*
X150900000Y-110400000D01*
X150900000Y-110400000D02*
X150500000Y-110000000D01*
X150500000Y-110000000D02*
X150500000Y-110000000D01*
%TO.N,/BIAS3*%
X151750000Y-112000000D02*
X153200000Y-112000000D01*
D14*
%TO.N,/BIAS4*%
X151750000Y-113600000D02*
X153200000Y-113600000D01*
%TD*%
M02*
