M48
; DRILL file {KiCad (5.1.10)-1} date 08/06/21 14:14:26
; FORMAT={-:-/ absolute / inch / decimal}
; #@! TF.CreationDate,2021-08-06T14:14:26-04:00
; #@! TF.GenerationSoftware,Kicad,Pcbnew,(5.1.10)-1
; #@! TF.FileFunction,Plated,1,2,PTH
FMAT,2
INCH
T1C0.0157
T2C0.0295
T3C0.0300
T4C0.0315
T5C0.0354
T6C0.0394
T7C0.0400
T8C0.1260
%
G90
G05
T1
X6.35Y-4.67
X6.4Y-4.02
X6.8Y-4.22
X7.155Y-4.26
X7.155Y-4.645
X7.365Y-3.67
X7.6Y-3.625
T2
X6.75Y-4.87
X6.795Y-4.125
X6.8Y-4.87
X6.845Y-4.125
X6.85Y-4.87
X6.895Y-4.125
T3
X7.29Y-3.86
X7.29Y-3.96
X7.29Y-4.06
X7.29Y-4.16
X7.29Y-4.26
X7.29Y-4.36
X7.29Y-4.46
X7.29Y-4.56
X7.29Y-4.66
X7.29Y-4.76
X7.29Y-4.86
X7.29Y-4.96
X7.29Y-5.06
X7.29Y-5.16
X7.29Y-5.26
X7.29Y-5.36
X7.29Y-5.46
X7.29Y-5.56
X7.29Y-5.66
X7.29Y-5.76
X7.39Y-3.86
X7.39Y-3.96
X7.39Y-4.06
X7.39Y-4.16
X7.39Y-4.26
X7.39Y-4.36
X7.39Y-4.46
X7.39Y-4.56
X7.39Y-4.66
X7.39Y-4.76
X7.39Y-4.86
X7.39Y-4.96
X7.39Y-5.06
X7.39Y-5.16
X7.39Y-5.26
X7.39Y-5.36
X7.39Y-5.46
X7.39Y-5.56
X7.39Y-5.66
X7.39Y-5.76
X8.09Y-3.86
X8.09Y-3.96
X8.09Y-4.06
X8.09Y-4.16
X8.09Y-4.26
X8.09Y-4.36
X8.09Y-4.46
X8.09Y-4.56
X8.09Y-4.66
X8.09Y-4.76
X8.09Y-4.86
X8.09Y-4.96
X8.09Y-5.06
X8.09Y-5.16
X8.09Y-5.26
X8.09Y-5.36
X8.09Y-5.46
X8.09Y-5.56
X8.09Y-5.66
X8.09Y-5.76
X8.19Y-3.86
X8.19Y-3.96
X8.19Y-4.06
X8.19Y-4.16
X8.19Y-4.26
X8.19Y-4.36
X8.19Y-4.46
X8.19Y-4.56
X8.19Y-4.66
X8.19Y-4.76
X8.19Y-4.86
X8.19Y-4.96
X8.19Y-5.06
X8.19Y-5.16
X8.19Y-5.26
X8.19Y-5.36
X8.19Y-5.46
X8.19Y-5.56
X8.19Y-5.66
X8.19Y-5.76
T4
X6.825Y-5.27
X6.825Y-5.37
X6.825Y-5.47
X6.825Y-5.57
X7.125Y-5.27
X7.125Y-5.37
X7.125Y-5.47
X7.125Y-5.57
T5
X6.48Y-4.37
X6.48Y-4.47
T6
X6.4Y-5.22
X6.5Y-4.92
X6.5Y-5.42
T7
X6.97Y-3.49
X6.97Y-3.69
X7.07Y-3.59
X7.17Y-3.49
X7.17Y-3.69
T8
X6.43Y-3.53
X6.43Y-6.365
X8.105Y-3.53
X8.11Y-6.365
T6
G00X7.6406Y-5.94
M15
G01X7.7194Y-5.94
M16
G05
G00X7.6406Y-6.1762
M15
G01X7.7194Y-6.1762
M16
G05
G00X7.865Y-6.0975
M15
G01X7.865Y-6.0187
M16
G05
T0
M30
