M48
; DRILL file {KiCad (6.0.7-1)-1} date Monday, September 12, 2022 at 11:20:59 AM
; FORMAT={-:-/ absolute / inch / decimal}
; #@! TF.CreationDate,2022-09-12T11:20:59-04:00
; #@! TF.GenerationSoftware,Kicad,Pcbnew,(6.0.7-1)-1
; #@! TF.FileFunction,Plated,1,4,PTH
FMAT,2
INCH
; #@! TA.AperFunction,Plated,PTH,ViaDrill
T1C0.0157
; #@! TA.AperFunction,Plated,PTH,ComponentDrill
T2C0.0295
; #@! TA.AperFunction,Plated,PTH,ComponentDrill
T3C0.0300
; #@! TA.AperFunction,Plated,PTH,ComponentDrill
T4C0.0315
; #@! TA.AperFunction,Plated,PTH,ComponentDrill
T5C0.0354
; #@! TA.AperFunction,Plated,PTH,ComponentDrill
T6C0.0394
; #@! TA.AperFunction,Plated,PTH,ComponentDrill
T7C0.0400
; #@! TA.AperFunction,Plated,PTH,ComponentDrill
T8C0.1260
%
G90
G05
T1
X3.43Y-4.3
X3.5Y-3.93
X3.5Y-4.08
X3.63Y-5.0
X3.7497Y-3.7763
X3.77Y-3.81
X3.93Y-4.1
X3.95Y-3.87
X4.02Y-3.73
X4.17Y-4.01
X4.17Y-4.16
T2
X3.51Y-3.7942
X3.56Y-3.7942
X3.61Y-3.7942
X3.77Y-4.4742
X3.82Y-4.4742
X3.87Y-4.4742
T3
X4.1412Y-5.47
X4.1412Y-5.57
X4.1412Y-5.67
X4.1412Y-5.77
X4.47Y-3.3988
X4.47Y-3.4988
X4.47Y-3.5988
X4.47Y-3.6988
X4.47Y-3.7988
X4.47Y-3.8988
X4.47Y-3.9988
X4.47Y-4.0988
X4.47Y-4.1988
X4.47Y-4.2988
X4.47Y-4.3988
X4.47Y-4.4988
X4.47Y-4.5988
X4.47Y-4.6988
X4.47Y-4.7988
X4.47Y-4.8988
X4.47Y-4.9988
X4.47Y-5.0988
X4.47Y-5.1988
X4.47Y-5.2988
X5.17Y-3.3988
X5.17Y-3.4988
X5.17Y-3.5988
X5.17Y-3.6988
X5.17Y-3.7988
X5.17Y-3.8988
X5.17Y-3.9988
X5.17Y-4.0988
X5.17Y-4.1988
X5.17Y-4.2988
X5.17Y-4.3988
X5.17Y-4.4988
X5.17Y-4.5988
X5.17Y-4.6988
X5.17Y-4.7988
X5.17Y-4.8988
X5.17Y-4.9988
X5.17Y-5.0988
X5.17Y-5.1988
X5.17Y-5.2988
T4
X3.79Y-4.9104
X3.79Y-5.0104
X3.79Y-5.1104
X3.79Y-5.2104
X4.09Y-4.9104
X4.09Y-5.0104
X4.09Y-5.1104
X4.09Y-5.2104
T5
X3.5Y-4.6898
X3.5Y-4.7898
T6
X4.32Y-3.3917
X4.32Y-3.4917
X4.32Y-3.5917
X4.32Y-3.6917
X4.32Y-3.7917
X4.32Y-3.8917
X4.32Y-3.9917
X4.32Y-4.0917
X4.32Y-4.1917
X4.32Y-4.2917
X4.32Y-4.3917
X4.32Y-4.4917
X4.32Y-4.5917
X4.32Y-4.6917
X4.32Y-4.7917
X4.32Y-4.8917
X4.32Y-4.9917
X4.32Y-5.0917
X4.32Y-5.1917
X4.32Y-5.2917
X4.41Y-5.9351
X4.51Y-5.6351
X4.51Y-6.1351
X5.32Y-3.4
X5.32Y-3.5
X5.32Y-3.6
X5.32Y-3.7
X5.32Y-3.8
X5.32Y-3.9
X5.32Y-4.0
X5.32Y-4.1
X5.32Y-4.2
X5.32Y-4.3
X5.32Y-4.4
X5.32Y-4.5
X5.32Y-4.6
X5.32Y-4.7
X5.32Y-4.8
X5.32Y-4.9
X5.32Y-5.0
X5.32Y-5.1
X5.32Y-5.2
X5.32Y-5.3
T7
X3.88Y-3.12
X3.88Y-3.32
X3.98Y-3.22
X4.08Y-3.12
X4.08Y-3.32
T8
X3.5Y-3.16
X3.5Y-6.13
X5.27Y-3.15
X5.27Y-6.13
T6
G00X4.8306Y-5.7138
M15
G01X4.9094Y-5.7138
M16
G05
G00X4.8306Y-5.95
M15
G01X4.9094Y-5.95
M16
G05
G00X5.055Y-5.8713
M15
G01X5.055Y-5.7925
M16
G05
T0
M30
