%TF.GenerationSoftware,KiCad,Pcbnew,(6.0.7-1)-1*%
%TF.CreationDate,2022-09-12T11:25:08-04:00*%
%TF.ProjectId,LED_Pulser,4c45445f-5075-46c7-9365-722e6b696361,rev?*%
%TF.SameCoordinates,Original*%
%TF.FileFunction,Legend,Top*%
%TF.FilePolarity,Positive*%
%FSLAX46Y46*%
G04 Gerber Fmt 4.6, Leading zero omitted, Abs format (unit mm)*
G04 Created by KiCad (PCBNEW (6.0.7-1)-1) date 2022-09-12 11:25:08*
%MOMM*%
%LPD*%
G01*
G04 APERTURE LIST*
%ADD10C,0.125000*%
%ADD11C,0.150000*%
%ADD12C,0.120000*%
G04 APERTURE END LIST*
D10*
X88241523Y-87305190D02*
X88003428Y-87305190D01*
X88003428Y-86805190D01*
X88408190Y-87043285D02*
X88574857Y-87043285D01*
X88646285Y-87305190D02*
X88408190Y-87305190D01*
X88408190Y-86805190D01*
X88646285Y-86805190D01*
X88860571Y-87305190D02*
X88860571Y-86805190D01*
X88979619Y-86805190D01*
X89051047Y-86829000D01*
X89098666Y-86876619D01*
X89122476Y-86924238D01*
X89146285Y-87019476D01*
X89146285Y-87090904D01*
X89122476Y-87186142D01*
X89098666Y-87233761D01*
X89051047Y-87281380D01*
X88979619Y-87305190D01*
X88860571Y-87305190D01*
X89741523Y-87305190D02*
X89741523Y-86805190D01*
X89932000Y-86805190D01*
X89979619Y-86829000D01*
X90003428Y-86852809D01*
X90027238Y-86900428D01*
X90027238Y-86971857D01*
X90003428Y-87019476D01*
X89979619Y-87043285D01*
X89932000Y-87067095D01*
X89741523Y-87067095D01*
X90455809Y-86971857D02*
X90455809Y-87305190D01*
X90241523Y-86971857D02*
X90241523Y-87233761D01*
X90265333Y-87281380D01*
X90312952Y-87305190D01*
X90384380Y-87305190D01*
X90432000Y-87281380D01*
X90455809Y-87257571D01*
X90765333Y-87305190D02*
X90717714Y-87281380D01*
X90693904Y-87233761D01*
X90693904Y-86805190D01*
X90932000Y-87281380D02*
X90979619Y-87305190D01*
X91074857Y-87305190D01*
X91122476Y-87281380D01*
X91146285Y-87233761D01*
X91146285Y-87209952D01*
X91122476Y-87162333D01*
X91074857Y-87138523D01*
X91003428Y-87138523D01*
X90955809Y-87114714D01*
X90932000Y-87067095D01*
X90932000Y-87043285D01*
X90955809Y-86995666D01*
X91003428Y-86971857D01*
X91074857Y-86971857D01*
X91122476Y-86995666D01*
X91551047Y-87281380D02*
X91503428Y-87305190D01*
X91408190Y-87305190D01*
X91360571Y-87281380D01*
X91336761Y-87233761D01*
X91336761Y-87043285D01*
X91360571Y-86995666D01*
X91408190Y-86971857D01*
X91503428Y-86971857D01*
X91551047Y-86995666D01*
X91574857Y-87043285D01*
X91574857Y-87090904D01*
X91336761Y-87138523D01*
X91789142Y-87305190D02*
X91789142Y-86971857D01*
X91789142Y-87067095D02*
X91812952Y-87019476D01*
X91836761Y-86995666D01*
X91884380Y-86971857D01*
X91932000Y-86971857D01*
X92408190Y-86805190D02*
X92574857Y-87305190D01*
X92741523Y-86805190D01*
X92884380Y-86852809D02*
X92908190Y-86829000D01*
X92955809Y-86805190D01*
X93074857Y-86805190D01*
X93122476Y-86829000D01*
X93146285Y-86852809D01*
X93170095Y-86900428D01*
X93170095Y-86948047D01*
X93146285Y-87019476D01*
X92860571Y-87305190D01*
X93170095Y-87305190D01*
X93384380Y-87257571D02*
X93408190Y-87281380D01*
X93384380Y-87305190D01*
X93360571Y-87281380D01*
X93384380Y-87257571D01*
X93384380Y-87305190D01*
X93884380Y-87305190D02*
X93598666Y-87305190D01*
X93741523Y-87305190D02*
X93741523Y-86805190D01*
X93693904Y-86876619D01*
X93646285Y-86924238D01*
X93598666Y-86948047D01*
X85860571Y-87610190D02*
X85860571Y-87967333D01*
X85836761Y-88038761D01*
X85789142Y-88086380D01*
X85717714Y-88110190D01*
X85670095Y-88110190D01*
X86312952Y-88110190D02*
X86312952Y-87848285D01*
X86289142Y-87800666D01*
X86241523Y-87776857D01*
X86146285Y-87776857D01*
X86098666Y-87800666D01*
X86312952Y-88086380D02*
X86265333Y-88110190D01*
X86146285Y-88110190D01*
X86098666Y-88086380D01*
X86074857Y-88038761D01*
X86074857Y-87991142D01*
X86098666Y-87943523D01*
X86146285Y-87919714D01*
X86265333Y-87919714D01*
X86312952Y-87895904D01*
X86765333Y-88086380D02*
X86717714Y-88110190D01*
X86622476Y-88110190D01*
X86574857Y-88086380D01*
X86551047Y-88062571D01*
X86527238Y-88014952D01*
X86527238Y-87872095D01*
X86551047Y-87824476D01*
X86574857Y-87800666D01*
X86622476Y-87776857D01*
X86717714Y-87776857D01*
X86765333Y-87800666D01*
X86979619Y-88110190D02*
X86979619Y-87610190D01*
X87027238Y-87919714D02*
X87170095Y-88110190D01*
X87170095Y-87776857D02*
X86979619Y-87967333D01*
X87765333Y-88110190D02*
X87765333Y-87610190D01*
X87932000Y-87967333D01*
X88098666Y-87610190D01*
X88098666Y-88110190D01*
X88336761Y-88110190D02*
X88336761Y-87776857D01*
X88336761Y-87610190D02*
X88312952Y-87634000D01*
X88336761Y-87657809D01*
X88360571Y-87634000D01*
X88336761Y-87610190D01*
X88336761Y-87657809D01*
X88574857Y-88110190D02*
X88574857Y-87776857D01*
X88574857Y-87872095D02*
X88598666Y-87824476D01*
X88622476Y-87800666D01*
X88670095Y-87776857D01*
X88717714Y-87776857D01*
X89098666Y-88110190D02*
X89098666Y-87848285D01*
X89074857Y-87800666D01*
X89027238Y-87776857D01*
X88932000Y-87776857D01*
X88884380Y-87800666D01*
X89098666Y-88086380D02*
X89051047Y-88110190D01*
X88932000Y-88110190D01*
X88884380Y-88086380D01*
X88860571Y-88038761D01*
X88860571Y-87991142D01*
X88884380Y-87943523D01*
X88932000Y-87919714D01*
X89051047Y-87919714D01*
X89098666Y-87895904D01*
X89336761Y-88110190D02*
X89336761Y-87610190D01*
X89336761Y-87800666D02*
X89384380Y-87776857D01*
X89479619Y-87776857D01*
X89527238Y-87800666D01*
X89551047Y-87824476D01*
X89574857Y-87872095D01*
X89574857Y-88014952D01*
X89551047Y-88062571D01*
X89527238Y-88086380D01*
X89479619Y-88110190D01*
X89384380Y-88110190D01*
X89336761Y-88086380D01*
X89789142Y-88110190D02*
X89789142Y-87776857D01*
X89789142Y-87610190D02*
X89765333Y-87634000D01*
X89789142Y-87657809D01*
X89812952Y-87634000D01*
X89789142Y-87610190D01*
X89789142Y-87657809D01*
X89955809Y-87776857D02*
X90146285Y-87776857D01*
X90027238Y-87610190D02*
X90027238Y-88038761D01*
X90051047Y-88086380D01*
X90098666Y-88110190D01*
X90146285Y-88110190D01*
X90384380Y-88110190D02*
X90336761Y-88086380D01*
X90312952Y-88062571D01*
X90289142Y-88014952D01*
X90289142Y-87872095D01*
X90312952Y-87824476D01*
X90336761Y-87800666D01*
X90384380Y-87776857D01*
X90455809Y-87776857D01*
X90503428Y-87800666D01*
X90527238Y-87824476D01*
X90551047Y-87872095D01*
X90551047Y-88014952D01*
X90527238Y-88062571D01*
X90503428Y-88086380D01*
X90455809Y-88110190D01*
X90384380Y-88110190D01*
X91551047Y-88110190D02*
X91527238Y-88110190D01*
X91479619Y-88086380D01*
X91408190Y-88014952D01*
X91289142Y-87872095D01*
X91241523Y-87800666D01*
X91217714Y-87729238D01*
X91217714Y-87681619D01*
X91241523Y-87634000D01*
X91289142Y-87610190D01*
X91312952Y-87610190D01*
X91360571Y-87634000D01*
X91384380Y-87681619D01*
X91384380Y-87705428D01*
X91360571Y-87753047D01*
X91336761Y-87776857D01*
X91193904Y-87872095D01*
X91170095Y-87895904D01*
X91146285Y-87943523D01*
X91146285Y-88014952D01*
X91170095Y-88062571D01*
X91193904Y-88086380D01*
X91241523Y-88110190D01*
X91312952Y-88110190D01*
X91360571Y-88086380D01*
X91384380Y-88062571D01*
X91455809Y-87967333D01*
X91479619Y-87895904D01*
X91479619Y-87848285D01*
X92384380Y-88110190D02*
X92146285Y-88110190D01*
X92146285Y-87610190D01*
X92551047Y-88110190D02*
X92551047Y-87776857D01*
X92551047Y-87610190D02*
X92527238Y-87634000D01*
X92551047Y-87657809D01*
X92574857Y-87634000D01*
X92551047Y-87610190D01*
X92551047Y-87657809D01*
X92789142Y-87776857D02*
X92789142Y-88110190D01*
X92789142Y-87824476D02*
X92812952Y-87800666D01*
X92860571Y-87776857D01*
X92932000Y-87776857D01*
X92979619Y-87800666D01*
X93003428Y-87848285D01*
X93003428Y-88110190D01*
X93193904Y-87776857D02*
X93312952Y-88110190D01*
X93432000Y-87776857D02*
X93312952Y-88110190D01*
X93265333Y-88229238D01*
X93241523Y-88253047D01*
X93193904Y-88276857D01*
X93836761Y-88110190D02*
X93836761Y-87848285D01*
X93812952Y-87800666D01*
X93765333Y-87776857D01*
X93670095Y-87776857D01*
X93622476Y-87800666D01*
X93836761Y-88086380D02*
X93789142Y-88110190D01*
X93670095Y-88110190D01*
X93622476Y-88086380D01*
X93598666Y-88038761D01*
X93598666Y-87991142D01*
X93622476Y-87943523D01*
X93670095Y-87919714D01*
X93789142Y-87919714D01*
X93836761Y-87895904D01*
X94074857Y-87776857D02*
X94074857Y-88110190D01*
X94074857Y-87824476D02*
X94098666Y-87800666D01*
X94146285Y-87776857D01*
X94217714Y-87776857D01*
X94265333Y-87800666D01*
X94289142Y-87848285D01*
X94289142Y-88110190D01*
X94860571Y-87610190D02*
X94979619Y-88110190D01*
X95074857Y-87753047D01*
X95170095Y-88110190D01*
X95289142Y-87610190D01*
X95693904Y-88110190D02*
X95693904Y-87848285D01*
X95670095Y-87800666D01*
X95622476Y-87776857D01*
X95527238Y-87776857D01*
X95479619Y-87800666D01*
X95693904Y-88086380D02*
X95646285Y-88110190D01*
X95527238Y-88110190D01*
X95479619Y-88086380D01*
X95455809Y-88038761D01*
X95455809Y-87991142D01*
X95479619Y-87943523D01*
X95527238Y-87919714D01*
X95646285Y-87919714D01*
X95693904Y-87895904D01*
X95932000Y-87776857D02*
X95932000Y-88110190D01*
X95932000Y-87824476D02*
X95955809Y-87800666D01*
X96003428Y-87776857D01*
X96074857Y-87776857D01*
X96122476Y-87800666D01*
X96146285Y-87848285D01*
X96146285Y-88110190D01*
X87932000Y-88653285D02*
X88003428Y-88677095D01*
X88027238Y-88700904D01*
X88051047Y-88748523D01*
X88051047Y-88819952D01*
X88027238Y-88867571D01*
X88003428Y-88891380D01*
X87955809Y-88915190D01*
X87765333Y-88915190D01*
X87765333Y-88415190D01*
X87932000Y-88415190D01*
X87979619Y-88439000D01*
X88003428Y-88462809D01*
X88027238Y-88510428D01*
X88027238Y-88558047D01*
X88003428Y-88605666D01*
X87979619Y-88629476D01*
X87932000Y-88653285D01*
X87765333Y-88653285D01*
X88336761Y-88915190D02*
X88289142Y-88891380D01*
X88265333Y-88867571D01*
X88241523Y-88819952D01*
X88241523Y-88677095D01*
X88265333Y-88629476D01*
X88289142Y-88605666D01*
X88336761Y-88581857D01*
X88408190Y-88581857D01*
X88455809Y-88605666D01*
X88479619Y-88629476D01*
X88503428Y-88677095D01*
X88503428Y-88819952D01*
X88479619Y-88867571D01*
X88455809Y-88891380D01*
X88408190Y-88915190D01*
X88336761Y-88915190D01*
X88693904Y-88891380D02*
X88741523Y-88915190D01*
X88836761Y-88915190D01*
X88884380Y-88891380D01*
X88908190Y-88843761D01*
X88908190Y-88819952D01*
X88884380Y-88772333D01*
X88836761Y-88748523D01*
X88765333Y-88748523D01*
X88717714Y-88724714D01*
X88693904Y-88677095D01*
X88693904Y-88653285D01*
X88717714Y-88605666D01*
X88765333Y-88581857D01*
X88836761Y-88581857D01*
X88884380Y-88605666D01*
X89051047Y-88581857D02*
X89241523Y-88581857D01*
X89122476Y-88415190D02*
X89122476Y-88843761D01*
X89146285Y-88891380D01*
X89193904Y-88915190D01*
X89241523Y-88915190D01*
X89479619Y-88915190D02*
X89432000Y-88891380D01*
X89408190Y-88867571D01*
X89384380Y-88819952D01*
X89384380Y-88677095D01*
X89408190Y-88629476D01*
X89432000Y-88605666D01*
X89479619Y-88581857D01*
X89551047Y-88581857D01*
X89598666Y-88605666D01*
X89622476Y-88629476D01*
X89646285Y-88677095D01*
X89646285Y-88819952D01*
X89622476Y-88867571D01*
X89598666Y-88891380D01*
X89551047Y-88915190D01*
X89479619Y-88915190D01*
X89860571Y-88581857D02*
X89860571Y-88915190D01*
X89860571Y-88629476D02*
X89884380Y-88605666D01*
X89932000Y-88581857D01*
X90003428Y-88581857D01*
X90051047Y-88605666D01*
X90074857Y-88653285D01*
X90074857Y-88915190D01*
X90693904Y-88415190D02*
X90693904Y-88819952D01*
X90717714Y-88867571D01*
X90741523Y-88891380D01*
X90789142Y-88915190D01*
X90884380Y-88915190D01*
X90932000Y-88891380D01*
X90955809Y-88867571D01*
X90979619Y-88819952D01*
X90979619Y-88415190D01*
X91217714Y-88581857D02*
X91217714Y-88915190D01*
X91217714Y-88629476D02*
X91241523Y-88605666D01*
X91289142Y-88581857D01*
X91360571Y-88581857D01*
X91408190Y-88605666D01*
X91432000Y-88653285D01*
X91432000Y-88915190D01*
X91670095Y-88915190D02*
X91670095Y-88581857D01*
X91670095Y-88415190D02*
X91646285Y-88439000D01*
X91670095Y-88462809D01*
X91693904Y-88439000D01*
X91670095Y-88415190D01*
X91670095Y-88462809D01*
X91860571Y-88581857D02*
X91979619Y-88915190D01*
X92098666Y-88581857D01*
X92479619Y-88891380D02*
X92432000Y-88915190D01*
X92336761Y-88915190D01*
X92289142Y-88891380D01*
X92265333Y-88843761D01*
X92265333Y-88653285D01*
X92289142Y-88605666D01*
X92336761Y-88581857D01*
X92432000Y-88581857D01*
X92479619Y-88605666D01*
X92503428Y-88653285D01*
X92503428Y-88700904D01*
X92265333Y-88748523D01*
X92717714Y-88915190D02*
X92717714Y-88581857D01*
X92717714Y-88677095D02*
X92741523Y-88629476D01*
X92765333Y-88605666D01*
X92812952Y-88581857D01*
X92860571Y-88581857D01*
X93003428Y-88891380D02*
X93051047Y-88915190D01*
X93146285Y-88915190D01*
X93193904Y-88891380D01*
X93217714Y-88843761D01*
X93217714Y-88819952D01*
X93193904Y-88772333D01*
X93146285Y-88748523D01*
X93074857Y-88748523D01*
X93027238Y-88724714D01*
X93003428Y-88677095D01*
X93003428Y-88653285D01*
X93027238Y-88605666D01*
X93074857Y-88581857D01*
X93146285Y-88581857D01*
X93193904Y-88605666D01*
X93432000Y-88915190D02*
X93432000Y-88581857D01*
X93432000Y-88415190D02*
X93408190Y-88439000D01*
X93432000Y-88462809D01*
X93455809Y-88439000D01*
X93432000Y-88415190D01*
X93432000Y-88462809D01*
X93598666Y-88581857D02*
X93789142Y-88581857D01*
X93670095Y-88415190D02*
X93670095Y-88843761D01*
X93693904Y-88891380D01*
X93741523Y-88915190D01*
X93789142Y-88915190D01*
X93908190Y-88581857D02*
X94027238Y-88915190D01*
X94146285Y-88581857D02*
X94027238Y-88915190D01*
X93979619Y-89034238D01*
X93955809Y-89058047D01*
X93908190Y-89081857D01*
D11*
%TO.C,R5*%
X86955333Y-108910380D02*
X86622000Y-108434190D01*
X86383904Y-108910380D02*
X86383904Y-107910380D01*
X86764857Y-107910380D01*
X86860095Y-107958000D01*
X86907714Y-108005619D01*
X86955333Y-108100857D01*
X86955333Y-108243714D01*
X86907714Y-108338952D01*
X86860095Y-108386571D01*
X86764857Y-108434190D01*
X86383904Y-108434190D01*
X87860095Y-107910380D02*
X87383904Y-107910380D01*
X87336285Y-108386571D01*
X87383904Y-108338952D01*
X87479142Y-108291333D01*
X87717238Y-108291333D01*
X87812476Y-108338952D01*
X87860095Y-108386571D01*
X87907714Y-108481809D01*
X87907714Y-108719904D01*
X87860095Y-108815142D01*
X87812476Y-108862761D01*
X87717238Y-108910380D01*
X87479142Y-108910380D01*
X87383904Y-108862761D01*
X87336285Y-108815142D01*
%TO.C,R6*%
X96861333Y-100401380D02*
X96528000Y-99925190D01*
X96289904Y-100401380D02*
X96289904Y-99401380D01*
X96670857Y-99401380D01*
X96766095Y-99449000D01*
X96813714Y-99496619D01*
X96861333Y-99591857D01*
X96861333Y-99734714D01*
X96813714Y-99829952D01*
X96766095Y-99877571D01*
X96670857Y-99925190D01*
X96289904Y-99925190D01*
X97718476Y-99401380D02*
X97528000Y-99401380D01*
X97432761Y-99449000D01*
X97385142Y-99496619D01*
X97289904Y-99639476D01*
X97242285Y-99829952D01*
X97242285Y-100210904D01*
X97289904Y-100306142D01*
X97337523Y-100353761D01*
X97432761Y-100401380D01*
X97623238Y-100401380D01*
X97718476Y-100353761D01*
X97766095Y-100306142D01*
X97813714Y-100210904D01*
X97813714Y-99972809D01*
X97766095Y-99877571D01*
X97718476Y-99829952D01*
X97623238Y-99782333D01*
X97432761Y-99782333D01*
X97337523Y-99829952D01*
X97289904Y-99877571D01*
X97242285Y-99972809D01*
%TO.C,D1*%
X88161904Y-117038380D02*
X88161904Y-116038380D01*
X88400000Y-116038380D01*
X88542857Y-116086000D01*
X88638095Y-116181238D01*
X88685714Y-116276476D01*
X88733333Y-116466952D01*
X88733333Y-116609809D01*
X88685714Y-116800285D01*
X88638095Y-116895523D01*
X88542857Y-116990761D01*
X88400000Y-117038380D01*
X88161904Y-117038380D01*
X89685714Y-117038380D02*
X89114285Y-117038380D01*
X89400000Y-117038380D02*
X89400000Y-116038380D01*
X89304761Y-116181238D01*
X89209523Y-116276476D01*
X89114285Y-116324095D01*
%TO.C,J2*%
X109394666Y-83570380D02*
X109394666Y-84284666D01*
X109347047Y-84427523D01*
X109251809Y-84522761D01*
X109108952Y-84570380D01*
X109013714Y-84570380D01*
X109823238Y-83665619D02*
X109870857Y-83618000D01*
X109966095Y-83570380D01*
X110204190Y-83570380D01*
X110299428Y-83618000D01*
X110347047Y-83665619D01*
X110394666Y-83760857D01*
X110394666Y-83856095D01*
X110347047Y-83998952D01*
X109775619Y-84570380D01*
X110394666Y-84570380D01*
%TO.C,U4*%
X121666095Y-83062380D02*
X121666095Y-83871904D01*
X121713714Y-83967142D01*
X121761333Y-84014761D01*
X121856571Y-84062380D01*
X122047047Y-84062380D01*
X122142285Y-84014761D01*
X122189904Y-83967142D01*
X122237523Y-83871904D01*
X122237523Y-83062380D01*
X123142285Y-83395714D02*
X123142285Y-84062380D01*
X122904190Y-83014761D02*
X122666095Y-83729047D01*
X123285142Y-83729047D01*
%TO.C,C3*%
X88782333Y-125507142D02*
X88734714Y-125554761D01*
X88591857Y-125602380D01*
X88496619Y-125602380D01*
X88353761Y-125554761D01*
X88258523Y-125459523D01*
X88210904Y-125364285D01*
X88163285Y-125173809D01*
X88163285Y-125030952D01*
X88210904Y-124840476D01*
X88258523Y-124745238D01*
X88353761Y-124650000D01*
X88496619Y-124602380D01*
X88591857Y-124602380D01*
X88734714Y-124650000D01*
X88782333Y-124697619D01*
X89115666Y-124602380D02*
X89734714Y-124602380D01*
X89401380Y-124983333D01*
X89544238Y-124983333D01*
X89639476Y-125030952D01*
X89687095Y-125078571D01*
X89734714Y-125173809D01*
X89734714Y-125411904D01*
X89687095Y-125507142D01*
X89639476Y-125554761D01*
X89544238Y-125602380D01*
X89258523Y-125602380D01*
X89163285Y-125554761D01*
X89115666Y-125507142D01*
%TO.C,J3*%
X134794666Y-83570380D02*
X134794666Y-84284666D01*
X134747047Y-84427523D01*
X134651809Y-84522761D01*
X134508952Y-84570380D01*
X134413714Y-84570380D01*
X135175619Y-83570380D02*
X135794666Y-83570380D01*
X135461333Y-83951333D01*
X135604190Y-83951333D01*
X135699428Y-83998952D01*
X135747047Y-84046571D01*
X135794666Y-84141809D01*
X135794666Y-84379904D01*
X135747047Y-84475142D01*
X135699428Y-84522761D01*
X135604190Y-84570380D01*
X135318476Y-84570380D01*
X135223238Y-84522761D01*
X135175619Y-84475142D01*
%TO.C,U2*%
X99314095Y-121846380D02*
X99314095Y-122655904D01*
X99361714Y-122751142D01*
X99409333Y-122798761D01*
X99504571Y-122846380D01*
X99695047Y-122846380D01*
X99790285Y-122798761D01*
X99837904Y-122751142D01*
X99885523Y-122655904D01*
X99885523Y-121846380D01*
X100314095Y-121941619D02*
X100361714Y-121894000D01*
X100456952Y-121846380D01*
X100695047Y-121846380D01*
X100790285Y-121894000D01*
X100837904Y-121941619D01*
X100885523Y-122036857D01*
X100885523Y-122132095D01*
X100837904Y-122274952D01*
X100266476Y-122846380D01*
X100885523Y-122846380D01*
%TO.C,R4*%
X88733333Y-130712380D02*
X88400000Y-130236190D01*
X88161904Y-130712380D02*
X88161904Y-129712380D01*
X88542857Y-129712380D01*
X88638095Y-129760000D01*
X88685714Y-129807619D01*
X88733333Y-129902857D01*
X88733333Y-130045714D01*
X88685714Y-130140952D01*
X88638095Y-130188571D01*
X88542857Y-130236190D01*
X88161904Y-130236190D01*
X89590476Y-130045714D02*
X89590476Y-130712380D01*
X89352380Y-129664761D02*
X89114285Y-130379047D01*
X89733333Y-130379047D01*
%TO.C,TP1*%
X104910095Y-153410380D02*
X105481523Y-153410380D01*
X105195809Y-154410380D02*
X105195809Y-153410380D01*
X105814857Y-154410380D02*
X105814857Y-153410380D01*
X106195809Y-153410380D01*
X106291047Y-153458000D01*
X106338666Y-153505619D01*
X106386285Y-153600857D01*
X106386285Y-153743714D01*
X106338666Y-153838952D01*
X106291047Y-153886571D01*
X106195809Y-153934190D01*
X105814857Y-153934190D01*
X107338666Y-154410380D02*
X106767238Y-154410380D01*
X107052952Y-154410380D02*
X107052952Y-153410380D01*
X106957714Y-153553238D01*
X106862476Y-153648476D01*
X106767238Y-153696095D01*
%TO.C,U1*%
X96266095Y-109536380D02*
X96266095Y-110345904D01*
X96313714Y-110441142D01*
X96361333Y-110488761D01*
X96456571Y-110536380D01*
X96647047Y-110536380D01*
X96742285Y-110488761D01*
X96789904Y-110441142D01*
X96837523Y-110345904D01*
X96837523Y-109536380D01*
X97837523Y-110536380D02*
X97266095Y-110536380D01*
X97551809Y-110536380D02*
X97551809Y-109536380D01*
X97456571Y-109679238D01*
X97361333Y-109774476D01*
X97266095Y-109822095D01*
%TO.C,U5*%
X97790095Y-136104380D02*
X97790095Y-136913904D01*
X97837714Y-137009142D01*
X97885333Y-137056761D01*
X97980571Y-137104380D01*
X98171047Y-137104380D01*
X98266285Y-137056761D01*
X98313904Y-137009142D01*
X98361523Y-136913904D01*
X98361523Y-136104380D01*
X99313904Y-136104380D02*
X98837714Y-136104380D01*
X98790095Y-136580571D01*
X98837714Y-136532952D01*
X98932952Y-136485333D01*
X99171047Y-136485333D01*
X99266285Y-136532952D01*
X99313904Y-136580571D01*
X99361523Y-136675809D01*
X99361523Y-136913904D01*
X99313904Y-137009142D01*
X99266285Y-137056761D01*
X99171047Y-137104380D01*
X98932952Y-137104380D01*
X98837714Y-137056761D01*
X98790095Y-137009142D01*
X106702190Y-140930380D02*
X107035523Y-141930380D01*
X107368857Y-140930380D01*
X107702190Y-141930380D02*
X107702190Y-141263714D01*
X107702190Y-140930380D02*
X107654571Y-140978000D01*
X107702190Y-141025619D01*
X107749809Y-140978000D01*
X107702190Y-140930380D01*
X107702190Y-141025619D01*
X108178380Y-141263714D02*
X108178380Y-141930380D01*
X108178380Y-141358952D02*
X108226000Y-141311333D01*
X108321238Y-141263714D01*
X108464095Y-141263714D01*
X108559333Y-141311333D01*
X108606952Y-141406571D01*
X108606952Y-141930380D01*
X107059333Y-138866571D02*
X107392666Y-138866571D01*
X107535523Y-139390380D02*
X107059333Y-139390380D01*
X107059333Y-138390380D01*
X107535523Y-138390380D01*
X107964095Y-138723714D02*
X107964095Y-139390380D01*
X107964095Y-138818952D02*
X108011714Y-138771333D01*
X108106952Y-138723714D01*
X108249809Y-138723714D01*
X108345047Y-138771333D01*
X108392666Y-138866571D01*
X108392666Y-139390380D01*
X106964095Y-143470380D02*
X107583142Y-143470380D01*
X107249809Y-143851333D01*
X107392666Y-143851333D01*
X107487904Y-143898952D01*
X107535523Y-143946571D01*
X107583142Y-144041809D01*
X107583142Y-144279904D01*
X107535523Y-144375142D01*
X107487904Y-144422761D01*
X107392666Y-144470380D01*
X107106952Y-144470380D01*
X107011714Y-144422761D01*
X106964095Y-144375142D01*
X107868857Y-143470380D02*
X108202190Y-144470380D01*
X108535523Y-143470380D01*
X107599095Y-146058000D02*
X107503857Y-146010380D01*
X107361000Y-146010380D01*
X107218142Y-146058000D01*
X107122904Y-146153238D01*
X107075285Y-146248476D01*
X107027666Y-146438952D01*
X107027666Y-146581809D01*
X107075285Y-146772285D01*
X107122904Y-146867523D01*
X107218142Y-146962761D01*
X107361000Y-147010380D01*
X107456238Y-147010380D01*
X107599095Y-146962761D01*
X107646714Y-146915142D01*
X107646714Y-146581809D01*
X107456238Y-146581809D01*
X108075285Y-147010380D02*
X108075285Y-146010380D01*
X108646714Y-147010380D01*
X108646714Y-146010380D01*
X109122904Y-147010380D02*
X109122904Y-146010380D01*
X109361000Y-146010380D01*
X109503857Y-146058000D01*
X109599095Y-146153238D01*
X109646714Y-146248476D01*
X109694333Y-146438952D01*
X109694333Y-146581809D01*
X109646714Y-146772285D01*
X109599095Y-146867523D01*
X109503857Y-146962761D01*
X109361000Y-147010380D01*
X109122904Y-147010380D01*
%TO.C,R3*%
X96861333Y-104296380D02*
X96528000Y-103820190D01*
X96289904Y-104296380D02*
X96289904Y-103296380D01*
X96670857Y-103296380D01*
X96766095Y-103344000D01*
X96813714Y-103391619D01*
X96861333Y-103486857D01*
X96861333Y-103629714D01*
X96813714Y-103724952D01*
X96766095Y-103772571D01*
X96670857Y-103820190D01*
X96289904Y-103820190D01*
X97194666Y-103296380D02*
X97813714Y-103296380D01*
X97480380Y-103677333D01*
X97623238Y-103677333D01*
X97718476Y-103724952D01*
X97766095Y-103772571D01*
X97813714Y-103867809D01*
X97813714Y-104105904D01*
X97766095Y-104201142D01*
X97718476Y-104248761D01*
X97623238Y-104296380D01*
X97337523Y-104296380D01*
X97242285Y-104248761D01*
X97194666Y-104201142D01*
%TO.C,J42*%
X123200976Y-142042380D02*
X123200976Y-142756666D01*
X123153357Y-142899523D01*
X123058119Y-142994761D01*
X122915261Y-143042380D01*
X122820023Y-143042380D01*
X124105738Y-142375714D02*
X124105738Y-143042380D01*
X123867642Y-141994761D02*
X123629547Y-142709047D01*
X124248595Y-142709047D01*
X124581928Y-142137619D02*
X124629547Y-142090000D01*
X124724785Y-142042380D01*
X124962880Y-142042380D01*
X125058119Y-142090000D01*
X125105738Y-142137619D01*
X125153357Y-142232857D01*
X125153357Y-142328095D01*
X125105738Y-142470952D01*
X124534309Y-143042380D01*
X125153357Y-143042380D01*
%TO.C,RV1*%
X112942761Y-139390380D02*
X112609428Y-138914190D01*
X112371333Y-139390380D02*
X112371333Y-138390380D01*
X112752285Y-138390380D01*
X112847523Y-138438000D01*
X112895142Y-138485619D01*
X112942761Y-138580857D01*
X112942761Y-138723714D01*
X112895142Y-138818952D01*
X112847523Y-138866571D01*
X112752285Y-138914190D01*
X112371333Y-138914190D01*
X113228476Y-138390380D02*
X113561809Y-139390380D01*
X113895142Y-138390380D01*
X114752285Y-139390380D02*
X114180857Y-139390380D01*
X114466571Y-139390380D02*
X114466571Y-138390380D01*
X114371333Y-138533238D01*
X114276095Y-138628476D01*
X114180857Y-138676095D01*
%TO.C,U3*%
X99822095Y-93972380D02*
X99822095Y-94781904D01*
X99869714Y-94877142D01*
X99917333Y-94924761D01*
X100012571Y-94972380D01*
X100203047Y-94972380D01*
X100298285Y-94924761D01*
X100345904Y-94877142D01*
X100393523Y-94781904D01*
X100393523Y-93972380D01*
X100774476Y-93972380D02*
X101393523Y-93972380D01*
X101060190Y-94353333D01*
X101203047Y-94353333D01*
X101298285Y-94400952D01*
X101345904Y-94448571D01*
X101393523Y-94543809D01*
X101393523Y-94781904D01*
X101345904Y-94877142D01*
X101298285Y-94924761D01*
X101203047Y-94972380D01*
X100917333Y-94972380D01*
X100822095Y-94924761D01*
X100774476Y-94877142D01*
%TO.C,Q1*%
X90328761Y-93359619D02*
X90233523Y-93312000D01*
X90138285Y-93216761D01*
X89995428Y-93073904D01*
X89900190Y-93026285D01*
X89804952Y-93026285D01*
X89852571Y-93264380D02*
X89757333Y-93216761D01*
X89662095Y-93121523D01*
X89614476Y-92931047D01*
X89614476Y-92597714D01*
X89662095Y-92407238D01*
X89757333Y-92312000D01*
X89852571Y-92264380D01*
X90043047Y-92264380D01*
X90138285Y-92312000D01*
X90233523Y-92407238D01*
X90281142Y-92597714D01*
X90281142Y-92931047D01*
X90233523Y-93121523D01*
X90138285Y-93216761D01*
X90043047Y-93264380D01*
X89852571Y-93264380D01*
X91233523Y-93264380D02*
X90662095Y-93264380D01*
X90947809Y-93264380D02*
X90947809Y-92264380D01*
X90852571Y-92407238D01*
X90757333Y-92502476D01*
X90662095Y-92550095D01*
%TO.C,R7*%
X90257333Y-100232380D02*
X89924000Y-99756190D01*
X89685904Y-100232380D02*
X89685904Y-99232380D01*
X90066857Y-99232380D01*
X90162095Y-99280000D01*
X90209714Y-99327619D01*
X90257333Y-99422857D01*
X90257333Y-99565714D01*
X90209714Y-99660952D01*
X90162095Y-99708571D01*
X90066857Y-99756190D01*
X89685904Y-99756190D01*
X90590666Y-99232380D02*
X91257333Y-99232380D01*
X90828761Y-100232380D01*
%TO.C,C1*%
X102498333Y-104171142D02*
X102450714Y-104218761D01*
X102307857Y-104266380D01*
X102212619Y-104266380D01*
X102069761Y-104218761D01*
X101974523Y-104123523D01*
X101926904Y-104028285D01*
X101879285Y-103837809D01*
X101879285Y-103694952D01*
X101926904Y-103504476D01*
X101974523Y-103409238D01*
X102069761Y-103314000D01*
X102212619Y-103266380D01*
X102307857Y-103266380D01*
X102450714Y-103314000D01*
X102498333Y-103361619D01*
X103450714Y-104266380D02*
X102879285Y-104266380D01*
X103165000Y-104266380D02*
X103165000Y-103266380D01*
X103069761Y-103409238D01*
X102974523Y-103504476D01*
X102879285Y-103552095D01*
%TO.C,C4*%
X90765333Y-108815142D02*
X90717714Y-108862761D01*
X90574857Y-108910380D01*
X90479619Y-108910380D01*
X90336761Y-108862761D01*
X90241523Y-108767523D01*
X90193904Y-108672285D01*
X90146285Y-108481809D01*
X90146285Y-108338952D01*
X90193904Y-108148476D01*
X90241523Y-108053238D01*
X90336761Y-107958000D01*
X90479619Y-107910380D01*
X90574857Y-107910380D01*
X90717714Y-107958000D01*
X90765333Y-108005619D01*
X91622476Y-108243714D02*
X91622476Y-108910380D01*
X91384380Y-107862761D02*
X91146285Y-108577047D01*
X91765333Y-108577047D01*
%TO.C,R8*%
X90765333Y-104296380D02*
X90432000Y-103820190D01*
X90193904Y-104296380D02*
X90193904Y-103296380D01*
X90574857Y-103296380D01*
X90670095Y-103344000D01*
X90717714Y-103391619D01*
X90765333Y-103486857D01*
X90765333Y-103629714D01*
X90717714Y-103724952D01*
X90670095Y-103772571D01*
X90574857Y-103820190D01*
X90193904Y-103820190D01*
X91336761Y-103724952D02*
X91241523Y-103677333D01*
X91193904Y-103629714D01*
X91146285Y-103534476D01*
X91146285Y-103486857D01*
X91193904Y-103391619D01*
X91241523Y-103344000D01*
X91336761Y-103296380D01*
X91527238Y-103296380D01*
X91622476Y-103344000D01*
X91670095Y-103391619D01*
X91717714Y-103486857D01*
X91717714Y-103534476D01*
X91670095Y-103629714D01*
X91622476Y-103677333D01*
X91527238Y-103724952D01*
X91336761Y-103724952D01*
X91241523Y-103772571D01*
X91193904Y-103820190D01*
X91146285Y-103915428D01*
X91146285Y-104105904D01*
X91193904Y-104201142D01*
X91241523Y-104248761D01*
X91336761Y-104296380D01*
X91527238Y-104296380D01*
X91622476Y-104248761D01*
X91670095Y-104201142D01*
X91717714Y-104105904D01*
X91717714Y-103915428D01*
X91670095Y-103820190D01*
X91622476Y-103772571D01*
X91527238Y-103724952D01*
%TO.C,J1*%
X100758666Y-76668380D02*
X100758666Y-77382666D01*
X100711047Y-77525523D01*
X100615809Y-77620761D01*
X100472952Y-77668380D01*
X100377714Y-77668380D01*
X101758666Y-77668380D02*
X101187238Y-77668380D01*
X101472952Y-77668380D02*
X101472952Y-76668380D01*
X101377714Y-76811238D01*
X101282476Y-76906476D01*
X101187238Y-76954095D01*
%TO.C,C2*%
X102576333Y-100361142D02*
X102528714Y-100408761D01*
X102385857Y-100456380D01*
X102290619Y-100456380D01*
X102147761Y-100408761D01*
X102052523Y-100313523D01*
X102004904Y-100218285D01*
X101957285Y-100027809D01*
X101957285Y-99884952D01*
X102004904Y-99694476D01*
X102052523Y-99599238D01*
X102147761Y-99504000D01*
X102290619Y-99456380D01*
X102385857Y-99456380D01*
X102528714Y-99504000D01*
X102576333Y-99551619D01*
X102957285Y-99551619D02*
X103004904Y-99504000D01*
X103100142Y-99456380D01*
X103338238Y-99456380D01*
X103433476Y-99504000D01*
X103481095Y-99551619D01*
X103528714Y-99646857D01*
X103528714Y-99742095D01*
X103481095Y-99884952D01*
X102909666Y-100456380D01*
X103528714Y-100456380D01*
D12*
%TO.C,R5*%
X86212000Y-112995064D02*
X86212000Y-111540936D01*
X88032000Y-112995064D02*
X88032000Y-111540936D01*
%TO.C,R6*%
X96300936Y-100944000D02*
X97755064Y-100944000D01*
X96300936Y-102764000D02*
X97755064Y-102764000D01*
%TO.C,D1*%
X90445000Y-117831000D02*
X87355000Y-117831000D01*
X87355170Y-117831000D02*
G75*
G03*
X88900462Y-123381000I1544830J-2560000D01*
G01*
X88899538Y-123381000D02*
G75*
G03*
X90444830Y-117831000I462J2990000D01*
G01*
X91400000Y-120391000D02*
G75*
G03*
X91400000Y-120391000I-2500000J0D01*
G01*
%TO.C,J2*%
X108398000Y-135740000D02*
X108398000Y-134410000D01*
X111058000Y-84820000D02*
X108398000Y-84820000D01*
X111058000Y-133140000D02*
X111058000Y-84820000D01*
X111058000Y-133140000D02*
X108398000Y-133140000D01*
X109728000Y-135740000D02*
X108398000Y-135740000D01*
X108398000Y-133140000D02*
X108398000Y-84820000D01*
%TO.C,C3*%
X88237748Y-126090000D02*
X89660252Y-126090000D01*
X88237748Y-127910000D02*
X89660252Y-127910000D01*
%TO.C,J3*%
X135128000Y-85030000D02*
X136458000Y-85030000D01*
X133798000Y-87630000D02*
X136458000Y-87630000D01*
X133798000Y-135950000D02*
X136458000Y-135950000D01*
X136458000Y-87630000D02*
X136458000Y-135950000D01*
X133798000Y-87630000D02*
X133798000Y-135950000D01*
X136458000Y-85030000D02*
X136458000Y-86360000D01*
%TO.C,U2*%
X99076000Y-123394000D02*
X97426000Y-123394000D01*
X97426000Y-133674000D02*
X102726000Y-133674000D01*
X102726000Y-123394000D02*
X101076000Y-123394000D01*
X97426000Y-123394000D02*
X97426000Y-133674000D01*
X102726000Y-133674000D02*
X102726000Y-123394000D01*
X99076000Y-123394000D02*
G75*
G03*
X101076000Y-123394000I1000000J0D01*
G01*
%TO.C,R4*%
X88172936Y-132990000D02*
X89627064Y-132990000D01*
X88172936Y-131170000D02*
X89627064Y-131170000D01*
%TO.C,TP1*%
X107372000Y-154756000D02*
X107372000Y-157156000D01*
X104972000Y-157156000D02*
X104972000Y-154756000D01*
X107372000Y-157156000D02*
X104972000Y-157156000D01*
X104972000Y-154756000D02*
X107372000Y-154756000D01*
%TO.C,U1*%
X95228000Y-115494000D02*
X98828000Y-115494000D01*
X98866478Y-115482478D02*
G75*
G03*
X97028000Y-111044000I-1838478J1838478D01*
G01*
X97028000Y-111043999D02*
G75*
G03*
X95189522Y-115482478I0J-2600001D01*
G01*
%TO.C,U5*%
X106456000Y-137668000D02*
X92486000Y-137668000D01*
X106456000Y-147828000D02*
X106456000Y-137668000D01*
X91216000Y-138938000D02*
X91216000Y-146558000D01*
X106456000Y-147828000D02*
X92486000Y-147828000D01*
X91216000Y-146558000D02*
G75*
G03*
X92486000Y-147828000I1269999J-1D01*
G01*
X92486000Y-137668000D02*
G75*
G03*
X91216000Y-138938000I0J-1270000D01*
G01*
X97506000Y-142978000D02*
G75*
G03*
X97506000Y-142978000I-2500000J0D01*
G01*
%TO.C,R3*%
X96300936Y-106574000D02*
X97755064Y-106574000D01*
X96300936Y-104754000D02*
X97755064Y-104754000D01*
%TO.C,J42*%
X125598000Y-144230000D02*
X128298000Y-144230000D01*
X118898000Y-145080000D02*
X118898000Y-144030000D01*
X119098000Y-144230000D02*
X121698000Y-144230000D01*
X128298000Y-144230000D02*
X128298000Y-146130000D01*
X119098000Y-158930000D02*
X119098000Y-144230000D01*
X128298000Y-150130000D02*
X128298000Y-158930000D01*
X119948000Y-144030000D02*
X118898000Y-144030000D01*
X128298000Y-158930000D02*
X119098000Y-158930000D01*
%TO.C,RV1*%
X110749000Y-139960500D02*
X115819000Y-139960500D01*
X115819000Y-159250500D02*
X115819000Y-139960500D01*
X110749000Y-159250500D02*
X115819000Y-159250500D01*
X111985000Y-159251500D02*
X114584000Y-159251500D01*
X110749000Y-159250500D02*
X110749000Y-139960500D01*
%TO.C,U3*%
X101684000Y-95420000D02*
X98684000Y-95420000D01*
X101684000Y-97620000D02*
X99484000Y-97620000D01*
%TO.C,Q1*%
X88624000Y-98222000D02*
X92224000Y-98222000D01*
X90424000Y-93771999D02*
G75*
G03*
X88585522Y-98210478I0J-2600001D01*
G01*
X92262478Y-98210478D02*
G75*
G03*
X90424000Y-93772000I-1838478J1838478D01*
G01*
%TO.C,R7*%
X89696936Y-100690000D02*
X91151064Y-100690000D01*
X89696936Y-102510000D02*
X91151064Y-102510000D01*
%TO.C,C1*%
X101953748Y-104754000D02*
X103376252Y-104754000D01*
X101953748Y-106574000D02*
X103376252Y-106574000D01*
%TO.C,C4*%
X90022000Y-111556748D02*
X90022000Y-112979252D01*
X91842000Y-111556748D02*
X91842000Y-112979252D01*
%TO.C,R8*%
X90204936Y-104754000D02*
X91659064Y-104754000D01*
X90204936Y-106574000D02*
X91659064Y-106574000D01*
%TO.C,J1*%
X104597200Y-78282800D02*
X104597200Y-85293200D01*
X97586800Y-85293200D02*
X97586800Y-78282800D01*
X97586800Y-78282800D02*
X104597200Y-78282800D01*
X104597200Y-85293200D02*
X97586800Y-85293200D01*
%TO.C,C2*%
X102031748Y-102764000D02*
X103454252Y-102764000D01*
X102031748Y-100944000D02*
X103454252Y-100944000D01*
%TD*%
M02*
