%TF.GenerationSoftware,KiCad,Pcbnew,(6.0.7-1)-1*%
%TF.CreationDate,2022-09-12T11:25:08-04:00*%
%TF.ProjectId,LED_Pulser,4c45445f-5075-46c7-9365-722e6b696361,rev?*%
%TF.SameCoordinates,Original*%
%TF.FileFunction,Soldermask,Bot*%
%TF.FilePolarity,Negative*%
%FSLAX46Y46*%
G04 Gerber Fmt 4.6, Leading zero omitted, Abs format (unit mm)*
G04 Created by KiCad (PCBNEW (6.0.7-1)-1) date 2022-09-12 11:25:08*
%MOMM*%
%LPD*%
G01*
G04 APERTURE LIST*
G04 Aperture macros list*
%AMRoundRect*
0 Rectangle with rounded corners*
0 $1 Rounding radius*
0 $2 $3 $4 $5 $6 $7 $8 $9 X,Y pos of 4 corners*
0 Add a 4 corners polygon primitive as box body*
4,1,4,$2,$3,$4,$5,$6,$7,$8,$9,$2,$3,0*
0 Add four circle primitives for the rounded corners*
1,1,$1+$1,$2,$3*
1,1,$1+$1,$4,$5*
1,1,$1+$1,$6,$7*
1,1,$1+$1,$8,$9*
0 Add four rect primitives between the rounded corners*
20,1,$1+$1,$2,$3,$4,$5,0*
20,1,$1+$1,$4,$5,$6,$7,0*
20,1,$1+$1,$6,$7,$8,$9,0*
20,1,$1+$1,$8,$9,$2,$3,0*%
G04 Aperture macros list end*
%ADD10C,6.400000*%
%ADD11R,1.800000X1.800000*%
%ADD12C,1.800000*%
%ADD13R,1.700000X1.700000*%
%ADD14O,1.700000X1.700000*%
%ADD15C,1.524000*%
%ADD16R,1.600000X1.600000*%
%ADD17O,1.600000X1.600000*%
%ADD18R,1.050000X1.500000*%
%ADD19O,1.050000X1.500000*%
%ADD20R,3.500000X3.500000*%
%ADD21RoundRect,0.750000X1.000000X-0.750000X1.000000X0.750000X-1.000000X0.750000X-1.000000X-0.750000X0*%
%ADD22RoundRect,0.875000X0.875000X-0.875000X0.875000X0.875000X-0.875000X0.875000X-0.875000X-0.875000X0*%
G04 APERTURE END LIST*
D10*
%TO.C,H1*%
X88900000Y-80264000D03*
%TD*%
D11*
%TO.C,D1*%
X88900000Y-119121000D03*
D12*
X88900000Y-121661000D03*
%TD*%
D13*
%TO.C,J2*%
X109728000Y-134410000D03*
D14*
X109728000Y-131870000D03*
X109728000Y-129330000D03*
X109728000Y-126790000D03*
X109728000Y-124250000D03*
X109728000Y-121710000D03*
X109728000Y-119170000D03*
X109728000Y-116630000D03*
X109728000Y-114090000D03*
X109728000Y-111550000D03*
X109728000Y-109010000D03*
X109728000Y-106470000D03*
X109728000Y-103930000D03*
X109728000Y-101390000D03*
X109728000Y-98850000D03*
X109728000Y-96310000D03*
X109728000Y-93770000D03*
X109728000Y-91230000D03*
X109728000Y-88690000D03*
X109728000Y-86150000D03*
%TD*%
D10*
%TO.C,H2*%
X133858000Y-80010000D03*
%TD*%
%TO.C,H3*%
X133858000Y-155702000D03*
%TD*%
D15*
%TO.C,U4*%
X113538000Y-86330000D03*
X113538000Y-88870000D03*
X113538000Y-91410000D03*
X113538000Y-93950000D03*
X113538000Y-96490000D03*
X113538000Y-99030000D03*
X113538000Y-101570000D03*
X113538000Y-104110000D03*
X113538000Y-106650000D03*
X113538000Y-109190000D03*
X113538000Y-111730000D03*
X113538000Y-114270000D03*
X113538000Y-116810000D03*
X113538000Y-119350000D03*
X113538000Y-121890000D03*
X113538000Y-124430000D03*
X113538000Y-126970000D03*
X113538000Y-129510000D03*
X113538000Y-132050000D03*
X113538000Y-134590000D03*
X131318000Y-134590000D03*
X131318000Y-132050000D03*
X131318000Y-129510000D03*
X131318000Y-126970000D03*
X131318000Y-124430000D03*
X131318000Y-121890000D03*
X131318000Y-119350000D03*
X131318000Y-116810000D03*
X131318000Y-114270000D03*
X131318000Y-111730000D03*
X131318000Y-109190000D03*
X131318000Y-106650000D03*
X131318000Y-104110000D03*
X131318000Y-101570000D03*
X131318000Y-99030000D03*
X131318000Y-96490000D03*
X131318000Y-93950000D03*
X131318000Y-91410000D03*
X131318000Y-88870000D03*
X131318000Y-86330000D03*
%TD*%
D13*
%TO.C,J3*%
X135128000Y-86360000D03*
D14*
X135128000Y-88900000D03*
X135128000Y-91440000D03*
X135128000Y-93980000D03*
X135128000Y-96520000D03*
X135128000Y-99060000D03*
X135128000Y-101600000D03*
X135128000Y-104140000D03*
X135128000Y-106680000D03*
X135128000Y-109220000D03*
X135128000Y-111760000D03*
X135128000Y-114300000D03*
X135128000Y-116840000D03*
X135128000Y-119380000D03*
X135128000Y-121920000D03*
X135128000Y-124460000D03*
X135128000Y-127000000D03*
X135128000Y-129540000D03*
X135128000Y-132080000D03*
X135128000Y-134620000D03*
%TD*%
D16*
%TO.C,U2*%
X96266000Y-124724000D03*
D17*
X96266000Y-127264000D03*
X96266000Y-129804000D03*
X96266000Y-132344000D03*
X103886000Y-132344000D03*
X103886000Y-129804000D03*
X103886000Y-127264000D03*
X103886000Y-124724000D03*
%TD*%
D18*
%TO.C,U1*%
X95758000Y-113644000D03*
D19*
X97028000Y-113644000D03*
X98298000Y-113644000D03*
%TD*%
D15*
%TO.C,U5*%
X105186000Y-138938000D03*
X105186000Y-141478000D03*
X105186000Y-144018000D03*
X105186000Y-146558000D03*
%TD*%
D20*
%TO.C,J42*%
X123698000Y-145130000D03*
D21*
X123698000Y-151130000D03*
D22*
X128398000Y-148130000D03*
%TD*%
D12*
%TO.C,RV1*%
X114554000Y-143130500D03*
X112014000Y-150750500D03*
X114554000Y-155830500D03*
%TD*%
D18*
%TO.C,Q1*%
X89154000Y-96372000D03*
D19*
X90424000Y-96372000D03*
X91694000Y-96372000D03*
%TD*%
D10*
%TO.C,H4*%
X88900000Y-155702000D03*
%TD*%
D15*
%TO.C,J1*%
X101092000Y-81788000D03*
X103632000Y-79248000D03*
X103632000Y-84328000D03*
X98552000Y-84328000D03*
X98552000Y-79248000D03*
%TD*%
M02*
